<?xml version="1.0" encoding="utf-8"?>
<!-- Generator: Adobe Illustrator 25.2.3, SVG Export Plug-In . SVG Version: 6.00 Build 0)  -->
<svg version="1.1" id="Camada_1" xmlns="http://www.w3.org/2000/svg" xmlns:xlink="http://www.w3.org/1999/xlink" x="0px" y="0px"
	 viewBox="0 0 1515 1622" style="enable-background:new 0 0 1515 1622;" xml:space="preserve">
<style type="text/css">
	.st0{fill:#D6F6FF;stroke:#FF921E;stroke-width:7;stroke-linecap:round;stroke-linejoin:round;stroke-miterlimit:10;}
	.st1{fill:none;stroke:#00BEFF;stroke-width:3;stroke-miterlimit:10;}
	.st2{fill:#00BEFF;}
	.st3{fill:none;stroke:#00BEFF;stroke-width:3;stroke-linecap:round;stroke-linejoin:round;stroke-miterlimit:10;}
	.st4{fill:none;stroke:#00BEFF;stroke-width:3;stroke-linecap:round;stroke-miterlimit:10;}
	.st5{fill:none;}
	.st6{font-family:'GTAmericaMono-Medium';}
	.st7{font-size:125.3089px;}
	.st8{fill:none;stroke:#FF921E;stroke-width:3;stroke-linecap:round;stroke-linejoin:round;stroke-miterlimit:10;}
	.st9{enable-background:new    ;}
	.st10{fill:#FF921E;}
</style>
<g id="Camada_1_2_">
	<path class="st0" d="M694.6,213.1h-142c-15.1,0-27.4-12.3-27.4-27.4V71.6c0-15.1,12.3-27.4,27.4-27.4h142
		c15.1,0,27.4,12.3,27.4,27.4v114.2C722,200.9,709.7,213.1,694.6,213.1z"/>
	<path class="st0" d="M927.3,424H749.4c-15.1,0-27.4-12.3-27.4-27.4V44.5c0-15.1,12.3-27.4,27.4-27.4h177.9
		c15.1,0,27.4,12.3,27.4,27.4v352.1C954.7,411.7,942.5,424,927.3,424z"/>
	<path class="st0" d="M595.8,1207H187.6c-15.1,0-27.4-12.3-27.4-27.4v-747c0-15.1,12.3-27.4,27.4-27.4h408.2
		c15.1,0,27.4,12.3,27.4,27.4v746.9C623.2,1194.7,610.9,1207,595.8,1207z"/>
	<path class="st0" d="M991.1,788.5H712c-15.1,0-27.4-12.3-27.4-27.4V549.8c0-15.1,12.3-27.4,27.4-27.4h279.1
		c15.1,0,27.4,12.3,27.4,27.4v211.4C1018.5,776.3,1006.2,788.5,991.1,788.5z"/>
	<path class="st0" d="M805.4,1022.1H683.3c-15.1,0-27.4-12.3-27.4-27.4v-154c0-15.1,12.3-27.4,27.4-27.4h122.1
		c15.1,0,27.4,12.3,27.4,27.4v154C832.8,1009.8,820.5,1022.1,805.4,1022.1z"/>
	<path class="st1" d="M726,395.9L726,395.9c-60.5,0-110-49.5-110-110v-88.5c0-60.5,49.5-110,110-110l0,0c60.5,0,110,49.5,110,110
		v88.5C836,346.4,786.5,395.9,726,395.9z"/>
	<path class="st1" d="M616,203c-19.8,0-35.9,20-35.9,44.6s16.1,44.6,35.9,44.6"/>
	<path class="st1" d="M836,292.3c19.8,0,35.9-20,35.9-44.6S855.8,203,836,203"/>
	<path class="st2" d="M855.6,579.2L855.6,579.2c-9.5-7.1-23-5.2-30.2,4.3l-12.2,16.1L801,583.5c-7.2-9.5-20.7-11.4-30.2-4.3l0,0
		c-9.7,7.2-11.5,20.9-4.2,30.5l46.5,60.5v0.1l0.1-0.1l0.1,0.1v-0.1l46.5-60.5C867.1,600.2,865.3,586.5,855.6,579.2z"/>
	<g>
		<g>
			<path class="st3" d="M753.3,956.1v623.6h183.2c20.7,0,37.5-16.8,37.5-37.5l0,0c0-20.7-16.8-37.5-37.5-37.5H920V597.9h15.1
				l219,517.3c0.1,0.2,0.1,0.4,0.2,0.6l17.7,42.7c3.9,9.4,14.7,13.9,24.2,10c9.3-3.9,13.8-14.5,10.1-23.9l0.5,1.2
				c3.9,9.4,14.7,13.9,24.2,10l0,0c9.4-3.9,13.9-14.7,10-24.2l-7.5-18.2l-11.4-26.3l19.2,44.7c3.9,9.4,14.7,13.9,24.2,10l0,0
				c9.4-3.9,13.9-14.7,10-24.2l-17.7-42.7c-0.2-0.5-0.5-1-0.9-1.3l-14.9-35.5l34.3-14.2c7.2-3,10.6-11.2,7.6-18.4l-1-2.4
				c-3-7.2-11.2-10.6-18.4-7.6l-34.4,14.3l-212.7-499.7c-18.3-40.6-49.4-63.8-94.2-63.8c-28.9,0-149.7,0-149.7,0v-60.6"/>
			<line class="st4" x1="1206.2" y1="1144.6" x2="1187.8" y2="1098.4"/>
		</g>
		<g>
			<path class="st3" d="M730.2,956.1v623.6H546.9c-20.7,0-37.5-16.8-37.5-37.5l0,0c0-20.7,16.8-37.5,37.5-37.5h16.5V597.9h-15.1
				l-219,517.3c-0.1,0.2-0.1,0.4-0.2,0.6l-17.7,42.7c-3.9,9.4-14.7,13.9-24.2,10c-9.3-3.9-13.8-14.5-10.1-23.9l-0.5,1.2
				c-3.9,9.4-14.7,13.9-24.2,10l0,0c-9.4-3.9-13.9-14.7-10-24.2l7.5-18.2h-0.1l-7.7,18.5c-3.9,9.4-14.7,13.9-24.2,10l0,0
				c-9.4-3.9-13.9-14.7-10-24.2l17.7-42.7c0.2-0.5,0.5-1,0.9-1.3l14.9-35.5l-34.3-14.2c-7.2-3-10.6-11.2-7.6-18.4l1-2.4
				c3-7.2,11.2-10.6,18.4-7.6l34.4,14.3L466,510.2c18.3-40.6,49.4-63.8,94.2-63.8c28.9,0,122.6,0,122.6,0v-60.6"/>
			<line class="st3" x1="277.3" y1="1144.6" x2="295.6" y2="1098.4"/>
			<line class="st3" x1="250.2" y1="1112.7" x2="262.1" y2="1084.8"/>
		</g>
		<line class="st3" x1="753.5" y1="956.5" x2="730.4" y2="956.5"/>
	</g>
	<rect x="707.7" y="840" class="st5" width="75.1" height="104.2"/>
	<text transform="matrix(0.8943 0 0 1 707.6714 930.8633)" class="st2 st6 st7">?</text>
	<g>
		<path class="st4" d="M621.2,456h-60.6c0,0-51-7.2-79.7,47.8L258.5,1022l-42.1-17.4c-3.6-1.5-7.6,0.3-9,3.9l0,0
			c-1.3,3.4,0.4,7.3,3.7,8.7l41,18.2l-35.8,82.1c-2.9,6.5-1.4,12.6,5.2,15.3l0,0c6.4,2.6,12.9-0.4,15.6-6.7l21.4-50l12.8,4.8
			l-19.8,49c-2.7,6.4-2.1,13.7,4.3,16.4l0,0c6.4,2.6,12.9-0.4,15.5-6.7l21.5-52.3l12,5.6l-20.5,50.9c-2.3,6.2,0,13.2,6.2,15.7l0,0
			c6.2,2.4,12.4-0.5,14.9-6.7l237.7-565.2h30.3v616.9"/>
		<polyline class="st1" points="909.3,789.6 909.3,587.9 943,587.9 1015.9,763.8 		"/>
		<path class="st4" d="M619.2,470.5h-72.9c0,0-30.3,1.5-50.2,39l-75.7,169c0,0-9.3,17.8-6.2,31.2c3.1,13.4,5.7,19.3,0,34.3
			s-134.8,309.9-134.8,309.9s-5.6,12,2.4,15.1s12-8.8,12-8.8l86.1-192.1c0,0,3.2-8.3,15.5-6.6c12.4,1.8,17.1-12.6,17.1-12.6
			L524,585.1c0,0,5.6-13.5,19.1-13.5H571c0,0,16.7-0.8,16.7,20.7s0,94.8,0,94.8s-4,22.3,30.7,21.7"/>
		<path class="st4" d="M587.7,608.3c0,0,18.3-2.5,18.3,19.8s0,50.3,0,50.3"/>
		<path class="st4" d="M456.6,744.5c0,0,7.6-10.8-4.3-43.8c-10.4-28.7,3.5-57.3,3.5-57.3l57.8-126.8c0,0,9.6-28.7,36.7-28.7h70.9"/>
		<path class="st4" d="M556,487.9c0,0,11.9,0.8,17.4,15.1c5.6,14.3,19.1,14.3,19.1,14.3h28.7"/>
		<path class="st4" d="M621.2,1002.6c-24.7,0-33.5-19-33.5-39V791.4c0-20,8.8-39,33.5-39"/>
		<path class="st4" d="M588.2,936.9c11.4,0,22.3-5,22.3-19.1V782.2"/>
		<path class="st4" d="M374,836.1c-13.1-5.2-21.8,3-26,13.6l-41.6,98.9"/>
		<path class="st4" d="M448.1,761.9c-13.1-5.2-21.8,3-26,13.6l-25.7,59.8"/>
		<path class="st4" d="M417.8,782.7c-5.6-2.2-9.3,1.3-11.1,5.8l-11,25.6"/>
		<path class="st4" d="M574.5,547.8c0-6-4.6-8.2-9.5-8.2l-27.8-0.8"/>
		<path class="st4" d="M338.8,962.5c12.8,6,12.8,17.9,7.9,28.3l-25.9,59.7"/>
		<path class="st4" d="M340.4,1006.3c7.2,3.4,7.2,10.1,4.4,15.9l-14.5,33.5"/>
		<path class="st4" d="M372.3,885.2c7.2,3.4,7.2,10.1,4.4,15.9l-14.5,33.5"/>
		<path class="st4" d="M370.7,916.3c7.2,3.4,7.2,10.1,4.4,15.9l-14.5,33.5"/>
		<path class="st4" d="M476.7,631.8c7.2,3.4,7.2,10.1,4.4,15.9l-14.5,33.5"/>
		<path class="st4" d="M312.2,974.5c-7.4-2.9-12.2,1.7-14.6,7.7l-24.6,58"/>
		<path class="st4" d="M487.1,579.2c7.2,3.4,7.2,10.1,4.4,15.9l-28.9,65.8"/>
		<path class="st4" d="M608.9,881.9c-8.8,0-12-6.8-12-13.9v-49.1"/>
		<path class="st4" d="M587.7,1210.4v-131.2c0-20,8.8-39,33.5-39"/>
		<line class="st4" x1="610.4" y1="1205.8" x2="610.4" y2="1069.9"/>
		<path class="st4" d="M608.9,1169.6c-8.8,0-12-6.8-12-13.9v-49.1"/>
		<line class="st4" x1="420.4" y1="678.4" x2="369.4" y2="797.9"/>
		<path class="st4" d="M621.2,547.6H535c0,0-11.8-1.5-18.2,16"/>
		<polyline class="st3" points="722.1,1022.1 722.1,948.6 761.4,948.6 761.4,1022.1 		"/>
	</g>
	<path class="st3" d="M626.4,210.7v-12.5c0-55.3,45.3-100.6,100.6-100.6l0,0c55.3,0,100.6,45.3,100.6,100.6v86.7
		c0,55.3-45.3,100.6-100.6,100.6l0,0"/>
	<path class="st3" d="M649.3,236.7c6.8-5.1,23.2-11.1,36.8-0.5"/>
	<circle class="st2" cx="669.8" cy="238.9" r="8"/>
	<line class="st3" x1="686" y1="335.8" x2="780.8" y2="335.8"/>
	<path class="st3" d="M727.3,371.2L727.3,371.2c20.1,0,38.6-6.9,53.5-18.4c0,0,0-5.1,0-34.5c0-29.5,35.1-31.7,35.1-31.7
		c0.1-2,0.2-4,0.2-6v-78.2c0-49.8-39.9-90.6-88.8-90.6l0,0c-41,0-75.7,28.7-85.8,67.5c0,0-5.1,17.8,11.6,17.8c16.7,0,67,0,67,0"/>
	<line class="st3" x1="759.5" y1="318.6" x2="759.5" y2="348"/>
	<line class="st3" x1="741.5" y1="318.9" x2="741.5" y2="348.4"/>
	<path class="st2" d="M738.9,266.8l-16.8-33.3V272h13.6C738.4,272,740.1,269.1,738.9,266.8z"/>
	<circle class="st2" cx="768.6" cy="239.3" r="20.3"/>
	<polyline class="st3" points="701.4,233.5 701.4,294.8 720,294.8 	"/>
	<path class="st3" d="M673.7,130.3h25.4c0,0,9-0.2,9,7c0,6.4-6.4,6.4-6.4,6.4s-8,0-8,7.2c0,5.6,4.1,6.8,7.6,6.8s18.7,0.1,18.7,0.1"
		/>
	<path class="st3" d="M673.9,153.2h-13.7c-7.2,0-13.1,5.9-13.1,13.1l0,0c0,7.2,5.9,13.1,13.1,13.1h16.6c7.2,0,13.1,5.9,13.1,13.1
		v4.4"/>
	<path class="st3" d="M665.8,165.1h8.5c6.5,0,11.8-5.3,11.8-11.8l0,0c0-6.5-5.3-11.8-11.8-11.8h-12.4"/>
	<path class="st3" d="M691.3,171.5h17.9c4.2,0,7.6,3.4,7.6,7.6l0,0c0,4.2-3.4,7.6-7.6,7.6h-7.5"/>
	<line class="st3" x1="763.9" y1="390.7" x2="763.9" y2="418.6"/>
	<path class="st3" d="M740.1,416.2h-11.5c-3.4,0-6.2-2.8-6.2-6.2v-1.2c0-3.4,2.8-6.2,6.2-6.2h11.5c3.4,0,6.2,2.8,6.2,6.2v1.2
		C746.3,413.4,743.6,416.2,740.1,416.2z"/>
	<g id="Camada_1_1_">
		<path class="st0" d="M694.6,213.1h-142c-15.1,0-27.4-12.3-27.4-27.4V71.6c0-15.1,12.3-27.4,27.4-27.4h142
			c15.1,0,27.4,12.3,27.4,27.4v114.2C722,200.9,709.7,213.1,694.6,213.1z"/>
		<path class="st0" d="M927.3,424H749.4c-15.1,0-27.4-12.3-27.4-27.4V44.5c0-15.1,12.3-27.4,27.4-27.4h177.9
			c15.1,0,27.4,12.3,27.4,27.4v352.1C954.7,411.7,942.5,424,927.3,424z"/>
		<path class="st0" d="M595.8,1207H187.6c-15.1,0-27.4-12.3-27.4-27.4v-747c0-15.1,12.3-27.4,27.4-27.4h408.2
			c15.1,0,27.4,12.3,27.4,27.4v746.9C623.2,1194.7,610.9,1207,595.8,1207z"/>
		<path class="st0" d="M991.1,788.5H712c-15.1,0-27.4-12.3-27.4-27.4V549.8c0-15.1,12.3-27.4,27.4-27.4h279.1
			c15.1,0,27.4,12.3,27.4,27.4v211.4C1018.5,776.3,1006.2,788.5,991.1,788.5z"/>
		<path class="st0" d="M805.4,1022.1H683.3c-15.1,0-27.4-12.3-27.4-27.4v-154c0-15.1,12.3-27.4,27.4-27.4h122.1
			c15.1,0,27.4,12.3,27.4,27.4v154C832.8,1009.8,820.5,1022.1,805.4,1022.1z"/>
		<path class="st1" d="M726,395.9L726,395.9c-60.5,0-110-49.5-110-110v-88.5c0-60.5,49.5-110,110-110l0,0c60.5,0,110,49.5,110,110
			v88.5C836,346.4,786.5,395.9,726,395.9z"/>
		<path class="st1" d="M616,203c-19.8,0-35.9,20-35.9,44.6s16.1,44.6,35.9,44.6"/>
		<path class="st1" d="M836,292.3c19.8,0,35.9-20,35.9-44.6S855.8,203,836,203"/>
		<g>
			<g>
				<path class="st3" d="M753.3,956.1v623.6h183.2c20.7,0,37.5-16.8,37.5-37.5l0,0c0-20.7-16.8-37.5-37.5-37.5H920V597.9h15.1
					l219,517.3c0.1,0.2,0.1,0.4,0.2,0.6l17.7,42.7c3.9,9.4,14.7,13.9,24.2,10c9.3-3.9,13.8-14.5,10.1-23.9l0.5,1.2
					c3.9,9.4,14.7,13.9,24.2,10l0,0c9.4-3.9,13.9-14.7,10-24.2l-7.5-18.2l-11.4-26.3l19.2,44.7c3.9,9.4,14.7,13.9,24.2,10l0,0
					c9.4-3.9,13.9-14.7,10-24.2l-17.7-42.7c-0.2-0.5-0.5-1-0.9-1.3l-14.9-35.5l34.3-14.2c7.2-3,10.6-11.2,7.6-18.4l-1-2.4
					c-3-7.2-11.2-10.6-18.4-7.6l-34.4,14.3l-212.7-499.7c-18.3-40.6-49.4-63.8-94.2-63.8c-28.9,0-149.7,0-149.7,0v-60.6"/>
				<line class="st4" x1="1206.2" y1="1144.6" x2="1187.8" y2="1098.4"/>
			</g>
			<g>
				<path class="st3" d="M730.2,956.1v623.6H546.9c-20.7,0-37.5-16.8-37.5-37.5l0,0c0-20.7,16.8-37.5,37.5-37.5h16.5V597.9h-15.1
					l-219,517.3c-0.1,0.2-0.1,0.4-0.2,0.6l-17.7,42.7c-3.9,9.4-14.7,13.9-24.2,10c-9.3-3.9-13.8-14.5-10.1-23.9l-0.5,1.2
					c-3.9,9.4-14.7,13.9-24.2,10l0,0c-9.4-3.9-13.9-14.7-10-24.2l7.5-18.2h-0.1l-7.7,18.5c-3.9,9.4-14.7,13.9-24.2,10l0,0
					c-9.4-3.9-13.9-14.7-10-24.2l17.7-42.7c0.2-0.5,0.5-1,0.9-1.3l14.9-35.5l-34.3-14.2c-7.2-3-10.6-11.2-7.6-18.4l1-2.4
					c3-7.2,11.2-10.6,18.4-7.6l34.4,14.3L466,510.2c18.3-40.6,49.4-63.8,94.2-63.8c28.9,0,122.6,0,122.6,0v-60.6"/>
				<line class="st3" x1="277.3" y1="1144.6" x2="295.6" y2="1098.4"/>
				<line class="st3" x1="250.2" y1="1112.7" x2="262.1" y2="1084.8"/>
			</g>
			<line class="st3" x1="753.5" y1="956.5" x2="730.4" y2="956.5"/>
		</g>
		<path class="st3" d="M649.3,236.7c6.8-5.1,23.2-11.1,36.8-0.5"/>
		<circle class="st2" cx="669.8" cy="238.9" r="8"/>
		<path class="st3" d="M751.3,236.7c6.8-5.1,23.2-11.1,36.8-0.5"/>
		<path class="st3" d="M748.4,206.9c8.4-6.3,28.7-13.8,45.5-0.6"/>
		<circle class="st2" cx="768.8" cy="238.9" r="8"/>
		<line class="st3" x1="686" y1="335.8" x2="780.8" y2="335.8"/>
		<polyline class="st3" points="701.4,233.5 701.4,294.8 720,294.8 		"/>
	</g>
</g>
<g id="Camada_2_1_">
	<path class="st2" d="M855.6,579.2L855.6,579.2c-9.5-7.1-23-5.2-30.2,4.3l-12.2,16.1L801,583.5c-7.2-9.5-20.7-11.4-30.2-4.3l0,0
		c-9.7,7.2-11.5,20.9-4.2,30.5l46.5,60.5v0.1l0.1-0.1l0.1,0.1v-0.1l46.5-60.5C867.1,600.2,865.3,586.5,855.6,579.2z"/>
	<path class="st8" d="M1352.1,637.3h-183.4c-14.9,0-27-12.1-27-27V548c0-14.9,12.1-27,27-27h183.4c14.9,0,27,12.1,27,27v62.3
		C1379.1,625.2,1367,637.3,1352.1,637.3z"/>
	<g>
		<rect x="1161.6" y="538.5" class="st5" width="275.8" height="86.9"/>
		<g class="st9">
			<path class="st10" d="M1174.7,540.8h-8.2v5.4h7.5v1.9h-7.5v7.7h-2.2v-17h10.4V540.8z"/>
			<path class="st10" d="M1187,543.7c0.9,0,1.7,0.1,2.2,0.2v1.9c-0.5-0.1-1.4-0.2-2.2-0.2c-2.9,0-5.2,2-5.2,5.9v4.4h-2v-12h2v3.1
				C1182.5,545.1,1184.5,543.7,1187,543.7z"/>
			<path class="st10" d="M1194.2,554.2h3.8v-8.6h-3.5v-1.7h5.5v10.3h4v1.7h-9.9V554.2z M1200.3,541.5h-2.9v-2.9h2.9V541.5z"/>
			<path class="st10" d="M1218.4,550.4h-8.4c0,2.2,1.3,3.9,3.5,3.9c1.6,0,2.6-1,3.2-2.1l1.7,0.9c-1,2-2.6,3-4.9,3
				c-3.8,0-5.6-2.6-5.6-6.5c0-3.7,2.1-6,5.5-6c3.7,0,5.1,2.6,5.1,5.9C1218.5,549.8,1218.4,550.1,1218.4,550.4z M1213.3,545.2
				c-2.2,0-3.3,1.8-3.3,3.5h6.3C1216.4,546.8,1215.4,545.2,1213.3,545.2z"/>
			<path class="st10" d="M1229.2,543.6c1,0,2.1,0.3,2.9,1c0.8,0.7,1.1,1.9,1.1,3.8v7.4h-2v-7.3c0-2.6-1.3-3.2-2.5-3.2
				c-2.7,0-3.3,2.5-3.3,4.2v6.2h-2v-12h1.9v2.4C1225.8,544.8,1227.2,543.6,1229.2,543.6z"/>
			<path class="st10" d="M1247.7,538.5v17.3h-1.9v-2.2c-0.7,1.6-1.8,2.5-3.8,2.5c-3,0-4.9-2.5-4.9-6.3c0-3.8,2.1-6.2,5.2-6.2
				c1.6,0,2.8,0.9,3.4,2.1v-7.1H1247.7z M1242.5,545.4c-2.1,0-3.3,1.7-3.3,4.4c0,2.8,1.2,4.5,3.2,4.5c2,0,3.3-1.6,3.3-4.2v-0.5
				C1245.7,547,1244.5,545.4,1242.5,545.4z"/>
			<path class="st10" d="M1253.5,554.2h3.8v-14h-3.6v-1.7h5.6v15.7h4v1.7h-9.9V554.2z"/>
			<path class="st10" d="M1272.9,553.5l3.3-9.6h2.2l-4.8,12.7c-1.1,3-2.5,4-4.5,4c-0.4,0-0.7,0-1.1-0.1v-1.8c0.3,0,0.6,0,0.9,0
				c1.5,0,2.2-0.6,2.8-2.2l0.3-0.9l-4.7-11.8h2.3L1272.9,553.5z"/>
			<path class="st10" d="M1286.1,558.3c1.3-0.6,1.6-1.1,1.6-2.4h-1.7v-3.1h3.2v3.1c0,1.8-0.6,2.8-2.4,3.5L1286.1,558.3z"/>
		</g>
		<g class="st9">
			<path class="st10" d="M1173.9,584.5h-2.1c-0.1-0.7-0.2-1.5-0.2-2.2c-0.8,1.7-2.1,2.5-4,2.5c-2.4,0-4-1.5-4-3.5
				c0-1.2,0.6-2.2,1.7-2.8c0.8-0.4,2.1-0.7,4.1-1l2.2-0.3V577c0-2.1-0.8-3.1-2.6-3.1c-1.7,0-2.7,0.9-2.8,2.4h-2.2
				c0.2-2.6,2.1-4,5.1-4c3.1,0,4.5,1.5,4.5,5v3.2C1173.5,582.4,1173.6,583.7,1173.9,584.5z M1168.6,579.1c-2.1,0.3-2.9,0.9-2.9,2.1
				c0,1.2,0.8,2,2.2,2c2.2,0,3.5-1.5,3.5-3.8v-0.6L1168.6,579.1z"/>
			<path class="st10" d="M1181,574.8c0.6-1.3,2.1-2.5,3.8-2.5c3.1,0,5,2.6,5,6.2c0,3.7-1.9,6.3-5.1,6.3c-1.5,0-3-0.9-3.5-2.2v6.6h-2
				v-16.6h1.9V574.8z M1184.3,583c2.1,0,3.3-1.8,3.3-4.5c0-2.7-1.1-4.4-3.2-4.4c-2,0-3.3,1.6-3.3,4.2v0.6
				C1181,581.4,1182.3,583,1184.3,583z"/>
			<path class="st10" d="M1195.8,574.8c0.6-1.3,2.1-2.5,3.8-2.5c3.1,0,5,2.6,5,6.2c0,3.7-1.9,6.3-5.1,6.3c-1.5,0-3-0.9-3.5-2.2v6.6
				h-2v-16.6h1.9V574.8z M1199.1,583c2.1,0,3.3-1.8,3.3-4.5c0-2.7-1.1-4.4-3.2-4.4c-2,0-3.3,1.6-3.3,4.2v0.6
				C1195.9,581.4,1197.1,583,1199.1,583z"/>
			<path class="st10" d="M1216.6,572.4c0.9,0,1.6,0.1,2.2,0.2v1.9c-0.5-0.1-1.4-0.2-2.2-0.2c-2.9,0-5.2,2-5.2,5.9v4.4h-2v-12h2v3.1
				C1212.2,573.8,1214.2,572.4,1216.6,572.4z"/>
			<path class="st10" d="M1222.7,578.6c0-3.8,2.2-6.3,5.6-6.3s5.6,2.5,5.6,6.3s-2.2,6.3-5.6,6.3S1222.7,582.3,1222.7,578.6z
				 M1231.7,578.6c0-2.8-1.3-4.5-3.4-4.5s-3.4,1.7-3.4,4.5s1.3,4.5,3.4,4.5S1231.7,581.4,1231.7,578.6z"/>
			<path class="st10" d="M1248,584.5h-2.1c-0.1-0.7-0.2-1.5-0.2-2.2c-0.8,1.7-2.1,2.5-4,2.5c-2.4,0-4-1.5-4-3.5
				c0-1.2,0.6-2.2,1.7-2.8c0.8-0.4,2.1-0.7,4.1-1l2.2-0.3V577c0-2.1-0.8-3.1-2.6-3.1c-1.7,0-2.7,0.9-2.8,2.4h-2.2
				c0.2-2.6,2.1-4,5.1-4c3.1,0,4.5,1.5,4.5,5v3.2C1247.6,582.4,1247.7,583.7,1248,584.5z M1242.7,579.1c-2.1,0.3-2.9,0.9-2.9,2.1
				c0,1.2,0.8,2,2.2,2c2.2,0,3.5-1.5,3.5-3.8v-0.6L1242.7,579.1z"/>
			<path class="st10" d="M1252.4,578.5c0-3.6,1.8-6.2,5.6-6.2c2.7,0,4.6,1.5,4.9,4.3l-2.1,0.2c-0.2-1.8-1.2-2.8-2.9-2.8
				c-2.2,0-3.3,1.8-3.3,4.4c0,2.7,1.1,4.6,3.4,4.6c1.7,0,2.7-1.1,3-2.9l1.9,0.3c-0.4,2.4-1.9,4.4-4.9,4.4
				C1254.3,584.8,1252.4,582.1,1252.4,578.5z"/>
			<path class="st10" d="M1273.6,572.3c1,0,2.1,0.3,2.9,1.1c0.8,0.7,1.2,1.9,1.2,3.8v7.4h-2v-7.3c0-2.6-1.3-3.2-2.6-3.2
				c-2.6,0-3.3,2.5-3.3,4.2v6.2h-2v-17.3h2v7.6C1270.4,573.3,1271.8,572.3,1273.6,572.3z"/>
			<path class="st10" d="M1292.5,584.5h-2.1c-0.1-0.7-0.2-1.5-0.2-2.2c-0.8,1.7-2.1,2.5-4,2.5c-2.4,0-4-1.5-4-3.5
				c0-1.2,0.6-2.2,1.7-2.8c0.8-0.4,2.1-0.7,4.1-1l2.2-0.3V577c0-2.1-0.8-3.1-2.6-3.1c-1.7,0-2.7,0.9-2.8,2.4h-2.2
				c0.2-2.6,2.1-4,5.1-4c3.1,0,4.5,1.5,4.5,5v3.2C1292.1,582.4,1292.2,583.7,1292.5,584.5z M1287.2,579.1c-2.1,0.3-2.9,0.9-2.9,2.1
				c0,1.2,0.8,2,2.2,2c2.2,0,3.5-1.5,3.5-3.8v-0.6L1287.2,579.1z"/>
			<path class="st10" d="M1299.7,574.7c0.6-1.4,2.1-2.4,3.7-2.4c3.1,0,4.9,2.6,4.9,6.2c0,3.7-1.9,6.3-5,6.3c-1.6,0-3.1-0.9-3.7-2.3
				l-0.4,2.1h-1.6v-17.3h2V574.7z M1302.8,583c2.1,0,3.3-1.8,3.3-4.5c0-2.7-1.2-4.4-3.3-4.4c-2,0-3.2,1.6-3.2,4.2v0.6
				C1299.6,581.4,1300.8,583,1302.8,583z"/>
			<path class="st10" d="M1312.8,582.9h3.8v-14h-3.6v-1.7h5.6v15.7h4v1.7h-9.9V582.9z"/>
			<path class="st10" d="M1337,579.1h-8.4c0,2.2,1.3,3.9,3.5,3.9c1.6,0,2.6-1,3.2-2.1l1.7,0.9c-1,2-2.6,3-4.9,3
				c-3.8,0-5.6-2.6-5.6-6.5c0-3.7,2.1-6,5.5-6c3.7,0,5.1,2.6,5.1,5.9C1337,578.5,1337,578.8,1337,579.1z M1331.9,573.9
				c-2.2,0-3.3,1.8-3.3,3.5h6.3C1335,575.5,1334,573.9,1331.9,573.9z"/>
			<path class="st10" d="M1345.4,587c1.3-0.6,1.6-1.1,1.6-2.4h-1.7v-3.1h3.2v3.1c0,1.8-0.6,2.8-2.4,3.5L1345.4,587z"/>
		</g>
		<g class="st9">
			<path class="st10" d="M1164.5,611.6h3.8V603h-3.5v-1.7h5.5v10.3h4v1.7h-9.9V611.6z M1170.6,598.9h-2.9V596h2.9V598.9z"/>
			<path class="st10" d="M1184.7,601c1,0,2.1,0.3,2.9,1c0.8,0.7,1.1,1.9,1.1,3.8v7.4h-2V606c0-2.6-1.3-3.2-2.5-3.2
				c-2.7,0-3.3,2.5-3.3,4.2v6.2h-2v-12h1.9v2.4C1181.4,602.2,1182.7,601,1184.7,601z"/>
			<path class="st10" d="M1192.7,601.3h2.1l3.1,8.2c0.2,0.6,0.5,1.2,0.6,1.7h0.1c0.1-0.5,0.3-1.1,0.5-1.7l3.2-8.2h2.1l-4.8,12h-2.2
				L1192.7,601.3z"/>
			<path class="st10" d="M1209,611.6h3.8V603h-3.5v-1.7h5.5v10.3h4v1.7h-9.9V611.6z M1215.1,598.9h-2.9V596h2.9V598.9z"/>
			<path class="st10" d="M1222.9,601.3h3.4v-3.1l2-0.9v4h4.7v1.6h-4.7v6.2c0,1.6,0.8,2.4,2.3,2.4c0.8,0,1.6-0.1,2.4-0.2v1.9
				c-0.6,0.1-1.3,0.3-2.3,0.3c-3,0-4.4-1.7-4.4-4v-6.5h-3.4V601.3z"/>
			<path class="st10" d="M1238.7,611.6h3.8V603h-3.5v-1.7h5.5v10.3h4v1.7h-9.9V611.6z M1244.7,598.9h-2.9V596h2.9V598.9z"/>
			<path class="st10" d="M1258.8,601c1,0,2.1,0.3,2.9,1c0.8,0.7,1.1,1.9,1.1,3.8v7.4h-2V606c0-2.6-1.3-3.2-2.5-3.2
				c-2.7,0-3.3,2.5-3.3,4.2v6.2h-2v-12h1.9v2.4C1255.5,602.2,1256.8,601,1258.8,601z"/>
			<path class="st10" d="M1276.1,602.2c0.7,0.7,1.1,1.7,1.1,2.8c0,2.4-1.8,4.1-4.5,4.1c-0.8,0-1.6-0.2-2.2-0.5
				c-0.5,0.2-0.8,0.6-0.8,1.2c0,0.7,0.6,1.2,2,1.2h3.1c2.5,0,3.9,1.2,3.9,3.3c0,2.5-2.2,3.9-5.9,3.9c-3.4,0-5.4-1.2-5.4-3
				c0-1.3,0.8-2.2,2.1-2.7c-1-0.4-1.5-1.1-1.5-2.1c0-1.1,0.6-1.9,1.7-2.3c-0.8-0.7-1.2-1.7-1.2-2.9c0-2.4,1.8-4.1,4.4-4.1
				c0.9,0,1.6,0.2,2.3,0.5c0.4-1.4,1.4-2.2,2.9-2.2c0.3,0,0.6,0,0.8,0.1v1.8c-0.4,0-0.6-0.1-0.9-0.1
				C1276.9,601.1,1276.4,601.5,1276.1,602.2z M1271.5,612.8c-0.4,0-0.7,0-1,0c-0.8,0.4-1.3,1-1.3,1.8c0,1.3,1.2,1.9,3.6,1.9
				c2.6,0,3.7-0.7,3.7-2c0-1.1-0.8-1.7-2.3-1.7H1271.5z M1275.2,605c0-1.4-1-2.5-2.5-2.5c-1.5,0-2.5,1.1-2.5,2.5
				c0,1.5,1,2.5,2.4,2.5C1274.1,607.6,1275.2,606.5,1275.2,605z"/>
		</g>
	</g>
	<path class="st8" d="M1018.5,660.8l73.2-73.2c5.7-5.7,13.4-8.9,21.5-8.9h28.8"/>
	<polyline class="st1" points="909.3,789.6 909.3,587.9 943,587.9 1015.9,763.8 	"/>
</g>
</svg>
