<?xml version="1.0" encoding="utf-8"?>
<!-- Generator: Adobe Illustrator 25.2.3, SVG Export Plug-In . SVG Version: 6.00 Build 0)  -->
<svg version="1.1" id="Camada_1" xmlns="http://www.w3.org/2000/svg" xmlns:xlink="http://www.w3.org/1999/xlink" x="0px" y="0px"
	 viewBox="0 0 217 196" style="enable-background:new 0 0 217 196;" xml:space="preserve">
<style type="text/css">
	.st0{fill:none;stroke:#00BEFF;stroke-width:3;stroke-linecap:round;stroke-miterlimit:10;}
	.st1{fill:none;stroke:#FF931E;stroke-width:3;stroke-linecap:round;stroke-miterlimit:10;}
	.st2{fill:none;stroke:#FF931E;stroke-width:3;stroke-linecap:round;stroke-linejoin:round;stroke-miterlimit:10;}
</style>
<path class="st0" d="M36.3,187.1V57c0-17,13.8-30.9,30.9-30.9H151c17,0,30.9,13.8,30.9,30.9v130.1"/>
<line class="st0" x1="67.5" y1="66.1" x2="67.5" y2="185.9"/>
<line class="st0" x1="151.6" y1="66.1" x2="151.6" y2="185.9"/>
<line class="st0" x1="94.1" y1="11.7" x2="94.1" y2="26.1"/>
<line class="st0" x1="125.3" y1="11.7" x2="125.3" y2="26.1"/>
<path class="st1" d="M67.5,90.1H36.3V57c0-17,13.8-30.9,30.9-30.9H151c17,0,30.9,13.8,30.9,30.9v33.1h-30.2"/>
<line class="st1" x1="67.5" y1="63.1" x2="67.5" y2="185.8"/>
<line class="st1" x1="151.6" y1="63.1" x2="151.6" y2="185.8"/>
<line class="st2" x1="39.4" y1="43.4" x2="178.6" y2="43.4"/>
<line class="st2" x1="39.4" y1="72.4" x2="178.6" y2="72.4"/>
<line class="st2" x1="67.6" y1="101.4" x2="151.6" y2="101.4"/>
<line class="st2" x1="67.6" y1="130.4" x2="151.6" y2="130.4"/>
<line class="st2" x1="67.6" y1="159.4" x2="151.6" y2="159.4"/>
</svg>
