<?xml version="1.0" encoding="utf-8"?>
<!-- Generator: Adobe Illustrator 25.2.3, SVG Export Plug-In . SVG Version: 6.00 Build 0)  -->
<svg version="1.1" id="Camada_1" xmlns="http://www.w3.org/2000/svg" xmlns:xlink="http://www.w3.org/1999/xlink" x="0px" y="0px"
	 viewBox="0 0 217 171" style="enable-background:new 0 0 217 171;" xml:space="preserve">
<style type="text/css">
	.st0{fill:none;stroke:#00BEFF;stroke-width:3;stroke-linecap:round;stroke-miterlimit:10;}
	.st1{fill:#FFFFFF;stroke:#00BEFF;stroke-width:3;stroke-linecap:round;stroke-miterlimit:10;}
	.st2{fill:#FFFFFF;stroke:#FF931E;stroke-width:3;stroke-linecap:round;stroke-linejoin:round;stroke-miterlimit:10;}
	.st3{fill:none;stroke:#FF931E;stroke-width:3;stroke-linecap:round;stroke-linejoin:round;stroke-miterlimit:10;}
</style>
<rect x="96" y="118.5" class="st0" width="28.9" height="39.2"/>
<circle class="st1" cx="110" cy="94.3" r="38.2"/>
<circle class="st2" cx="95.6" cy="89.4" r="10.5"/>
<circle class="st2" cx="124.6" cy="89.4" r="10.5"/>
<path class="st2" d="M105.6,86.3c2.5-2.3,6.5-2.7,8.5,0"/>
<line class="st2" x1="147.2" y1="85.3" x2="135.1" y2="85.3"/>
<line class="st2" x1="72.8" y1="85.3" x2="85.1" y2="85.3"/>
<line class="st2" x1="129.5" y1="80.1" x2="124.6" y2="85.3"/>
<line class="st2" x1="118.9" y1="98.2" x2="124.8" y2="92.3"/>
<line class="st2" x1="100.5" y1="80.1" x2="91.9" y2="88.7"/>
<line class="st2" x1="94.6" y1="93.4" x2="90.2" y2="97.8"/>
<rect x="95.9" y="118" class="st0" width="28.9" height="39.2"/>
<circle class="st1" cx="109.9" cy="93.8" r="38.2"/>
<path class="st3" d="M42,53.4v10.3c0,6.4,5.2,11.7,11.7,11.7h110.6c6.4,0,11.7-5.2,11.7-11.7V53.4"/>
<path class="st2" d="M109,43.7c0-5.1,4.2-9.3,9.3-9.3h18.4c5.1,0,9.3,4.2,9.3,9.3v31.7H72V43.7c0-5.1,4.2-9.3,9.3-9.3h18.4
	C104.9,34.4,109,38.6,109,43.7"/>
<g>
	<path class="st3" d="M146,92.4c-4.4,0-8-3.6-8-8c0-4.4,3.6-8,8-8"/>
	<path class="st3" d="M146,108.4c4.4,0,8-3.6,8-8c0-4.4-3.6-8-8-8"/>
</g>
<g>
	<path class="st3" d="M146,124.4c-4.4,0-8-3.6-8-8c0-4.4,3.6-8,8-8"/>
	<path class="st3" d="M146,140.4c4.4,0,8-3.6,8-8c0-4.4-3.6-8-8-8"/>
</g>
<g>
	<path class="st3" d="M74,92.4c-4.4,0-8-3.6-8-8c0-4.4,3.6-8,8-8"/>
	<path class="st3" d="M74,108.4c4.4,0,8-3.6,8-8c0-4.4-3.6-8-8-8"/>
</g>
<g>
	<path class="st3" d="M74,124.4c-4.4,0-8-3.6-8-8c0-4.4,3.6-8,8-8"/>
	<path class="st3" d="M74,140.4c4.4,0,8-3.6,8-8c0-4.4-3.6-8-8-8"/>
</g>
</svg>
