<?xml version="1.0" encoding="utf-8"?>
<!-- Generator: Adobe Illustrator 25.2.3, SVG Export Plug-In . SVG Version: 6.00 Build 0)  -->
<svg version="1.1" id="Camada_1" xmlns="http://www.w3.org/2000/svg" xmlns:xlink="http://www.w3.org/1999/xlink" x="0px" y="0px"
	 viewBox="0 0 217 171" style="enable-background:new 0 0 217 171;" xml:space="preserve">
<style type="text/css">
	.st0{fill:none;stroke:#00BEFF;stroke-width:3;stroke-linecap:round;stroke-miterlimit:10;}
	.st1{fill:#FFFFFF;stroke:#00BEFF;stroke-width:3;stroke-linecap:round;stroke-miterlimit:10;}
	.st2{fill:#FFFFFF;stroke:#FF931E;stroke-width:3;stroke-linecap:round;stroke-linejoin:round;stroke-miterlimit:10;}
	.st3{fill:none;stroke:#FF931E;stroke-width:3;stroke-linecap:round;stroke-miterlimit:10;}
	.st4{fill:#FFFFFF;stroke:#FF931E;stroke-width:3;stroke-linecap:round;stroke-miterlimit:10;}
</style>
<rect x="96" y="118.5" class="st0" width="28.9" height="39.2"/>
<circle class="st1" cx="110" cy="94.3" r="38.2"/>
<circle class="st2" cx="95.6" cy="89.4" r="10.5"/>
<circle class="st2" cx="124.6" cy="89.4" r="10.5"/>
<path class="st2" d="M105.6,86.3c2.5-2.3,6.5-2.7,8.5,0"/>
<line class="st2" x1="147.2" y1="85.3" x2="135.1" y2="85.3"/>
<line class="st2" x1="72.8" y1="85.3" x2="85.1" y2="85.3"/>
<line class="st2" x1="129.5" y1="80.1" x2="124.6" y2="85.3"/>
<line class="st2" x1="118.9" y1="98.2" x2="124.8" y2="92.3"/>
<line class="st2" x1="100.5" y1="80.1" x2="91.9" y2="88.7"/>
<line class="st2" x1="94.6" y1="93.4" x2="90.2" y2="97.8"/>
<rect x="95.9" y="118" class="st0" width="28.9" height="39.2"/>
<circle class="st1" cx="109.9" cy="93.8" r="38.2"/>
<rect x="95.9" y="118" class="st0" width="28.9" height="39.2"/>
<circle class="st1" cx="109.9" cy="93.8" r="38.2"/>
<line class="st2" x1="72.7" y1="85" x2="177" y2="85"/>
<path class="st3" d="M72.7,85c4-16.9,19.1-29.4,37.2-29.4c18.1,0,33.2,12.6,37.2,29.4"/>
<path class="st4" d="M72.7,85"/>
</svg>
