<?xml version="1.0" encoding="utf-8"?>
<!-- Generator: Adobe Illustrator 25.2.3, SVG Export Plug-In . SVG Version: 6.00 Build 0)  -->
<svg version="1.1" id="Camada_1" xmlns="http://www.w3.org/2000/svg" xmlns:xlink="http://www.w3.org/1999/xlink" x="0px" y="0px"
	 viewBox="0 0 217 171" style="enable-background:new 0 0 217 171;" xml:space="preserve">
<style type="text/css">
	.st0{fill:none;stroke:#00BEFF;stroke-width:3;stroke-linecap:round;stroke-miterlimit:10;}
	.st1{fill:#FFFFFF;stroke:#00BEFF;stroke-width:3;stroke-linecap:round;stroke-miterlimit:10;}
	.st2{fill:#FFFFFF;stroke:#FF931E;stroke-width:3;stroke-linecap:round;stroke-linejoin:round;stroke-miterlimit:10;}
</style>
<rect x="96" y="118.5" class="st0" width="28.9" height="39.2"/>
<circle class="st1" cx="110" cy="94.3" r="38.2"/>
<circle class="st2" cx="95.6" cy="89.4" r="10.5"/>
<circle class="st2" cx="124.6" cy="89.4" r="10.5"/>
<path class="st2" d="M105.6,86.3c2.5-2.3,6.5-2.7,8.5,0"/>
<line class="st2" x1="147.2" y1="85.3" x2="135.1" y2="85.3"/>
<line class="st2" x1="72.8" y1="85.3" x2="85.1" y2="85.3"/>
<line class="st2" x1="129.5" y1="80.1" x2="124.6" y2="85.3"/>
<line class="st2" x1="118.9" y1="98.2" x2="124.8" y2="92.3"/>
<line class="st2" x1="100.5" y1="80.1" x2="91.9" y2="88.7"/>
<line class="st2" x1="94.6" y1="93.4" x2="90.2" y2="97.8"/>
<rect x="95.9" y="118" class="st0" width="28.9" height="39.2"/>
<circle class="st1" cx="109.9" cy="93.8" r="38.2"/>
<path class="st2" d="M69,76.4h84l-12-13v-0.5c0-16.3-13.2-29.5-29.5-29.5h-3C92.2,33.4,79,46.7,79,62.9v0L69,76.4z"/>
<line class="st2" x1="79" y1="62.9" x2="141" y2="62.9"/>
<rect x="103.6" y="30.9" class="st2" width="10.4" height="45.6"/>
</svg>
