<?xml version="1.0" encoding="utf-8"?>
<!-- Generator: Adobe Illustrator 25.2.3, SVG Export Plug-In . SVG Version: 6.00 Build 0)  -->
<svg version="1.1" xmlns="http://www.w3.org/2000/svg" xmlns:xlink="http://www.w3.org/1999/xlink" x="0px" y="0px"
	 viewBox="0 0 2189 1080" style="enable-background:new 0 0 2189 1080;" xml:space="preserve">
<style type="text/css">
	.st0{fill:none;stroke:#00BEFF;stroke-width:3;stroke-linecap:round;stroke-miterlimit:10;}
	.st1{fill:none;stroke:#FF931E;stroke-width:3;stroke-linecap:round;stroke-miterlimit:10;}
	.st2{fill:#FFFFFF;stroke:#FF931E;stroke-width:3;stroke-linecap:round;stroke-miterlimit:10;}
	.st3{fill:#FFFFFF;stroke:#00BEFF;stroke-width:3;stroke-linecap:round;stroke-miterlimit:10;}
	.st4{fill:none;stroke:#FF931E;stroke-width:3;stroke-linecap:round;stroke-linejoin:round;stroke-miterlimit:10;}
	.st5{fill:#FFFFFF;stroke:#FF931E;stroke-width:3;stroke-linecap:round;stroke-linejoin:round;stroke-miterlimit:10;}
	.st6{fill:none;stroke:#00BEFF;stroke-width:3;stroke-linecap:round;stroke-linejoin:round;stroke-miterlimit:10;}
	.st7{fill:#D6F6FF;stroke:#00BEFF;stroke-width:3;stroke-linecap:round;stroke-linejoin:round;stroke-miterlimit:10;}
	.st8{fill:#FFFFFF;stroke:#FF921E;stroke-width:3;stroke-linecap:round;stroke-linejoin:round;stroke-miterlimit:10;}
</style>
<g id="Camada_2">
</g>
<g id="Camada_1">
	<path class="st0" d="M1280.7,567v189.3h-14.4c-5.6,0-10.1,4.5-10.1,10.1l0,0c0,5.6,4.5,10.1,10.1,10.1h100.4V567"/>
	<path class="st0" d="M1251.7,567v2.5c0,13.9,11.3,25.2,25.2,25.2h3.8"/>
	<path class="st0" d="M1396.7,567v4.6c0,12.7-10.3,23.1-23.1,23.1h-6.9"/>
	<line class="st0" x1="1321.8" y1="587.7" x2="1321.8" y2="755.7"/>
	<polyline class="st1" points="1280.7,567 1280.7,743.3 1366.7,743.5 1366.7,567 	"/>
	<line class="st1" x1="1321.8" y1="587.7" x2="1321.8" y2="743.5"/>
	<line class="st0" x1="1587" y1="720.6" x2="1587" y2="569.4"/>
	<line class="st0" x1="1501" y1="569.4" x2="1501" y2="719.5"/>
	<path class="st0" d="M1472,569.4v2.5c0,13.9,11.3,25.2,25.2,25.2h3.8"/>
	<path class="st0" d="M1617,569.4v4.6c0,12.7-10.3,23.1-23.1,23.1h-6.9"/>
	<line class="st0" x1="1542" y1="590.1" x2="1542" y2="719.5"/>
	<polyline class="st1" points="1501,569.4 1500.8,636.9 1587,636.6 1587,569.4 	"/>
	<line class="st1" x1="1542" y1="590.1" x2="1542" y2="636.9"/>
	<path class="st1" d="M1586.8,585.9c-8.8,0-16-7.2-16-16"/>
	<path class="st1" d="M1500.8,585.9c8.8,0,16-7.2,16-16"/>
	<path class="st1" d="M1501.5,756.7v-37.2h85.5v36.6v20.9h-100.4c-5.6,0-10.1-4.5-10.1-10.1l0,0c0-5.6,4.5-10.1,10.1-10.1h100.2"/>
	<line class="st1" x1="1542" y1="719.5" x2="1542" y2="755.7"/>
	<rect x="1311.5" y="569.5" class="st2" width="24" height="11"/>
	<path class="st0" d="M1998,382.3h25.3c17,0,30.9,13.8,30.9,30.9v130.1"/>
	<path class="st0" d="M1908.7,543.3V413.1c0-17,13.8-30.9,30.9-30.9h27"/>
	<line class="st3" x1="1939.9" y1="422.3" x2="1939.9" y2="542.1"/>
	<line class="st3" x1="2024" y1="422.3" x2="2024" y2="542.1"/>
	<path class="st4" d="M2024,543.3h30.2V413.1c0-17-13.8-30.9-30.9-30.9h-24.8l-17.1,15.3l-15.9-15.3h-26c-17,0-30.9,13.8-30.9,30.9
		v130.1h31.3"/>
	<line class="st2" x1="1939.9" y1="418.3" x2="1939.9" y2="542"/>
	<line class="st2" x1="2024" y1="418.3" x2="2024" y2="542"/>
	<polyline class="st4" points="2012.5,383.5 1990.7,404.8 1981.4,397.6 1981.4,543.3 	"/>
	<polyline class="st4" points="1949.7,383.6 1971.5,405 1980.8,397.7 	"/>
	<circle class="st5" cx="1971" cy="426" r="3.5"/>
	<circle class="st5" cx="1971" cy="473" r="3.5"/>
	<polyline class="st2" points="1993.7,419.5 1993.7,438.1 2011.8,438.1 2011.8,419.5 	"/>
	<path class="st0" d="M1688.7,543.3V413.1c0-17,13.8-30.9,30.9-30.9h83.8c17,0,30.9,13.8,30.9,30.9v130.1"/>
	<line class="st3" x1="1719.9" y1="422.3" x2="1719.9" y2="542.1"/>
	<line class="st3" x1="1804" y1="422.3" x2="1804" y2="542.1"/>
	<path class="st1" d="M1719.9,446.3h-31.3v-33.1c0-17,13.8-30.9,30.9-30.9h83.8c17,0,30.9,13.8,30.9,30.9v33.1H1804"/>
	<line class="st2" x1="1719.9" y1="418.3" x2="1719.9" y2="542"/>
	<line class="st2" x1="1804" y1="418.3" x2="1804" y2="542"/>
	<path class="st4" d="M1747.9,420v-5c0-5.4,4.4-9.8,9.8-9.8h14.4c5.4,0,9.8,4.4,9.8,9.8v0c0,5.4-4.4,9.8-9.8,9.8h-7.8"/>
	<path class="st1" d="M1782,418.8V429c0,5.4-4.3,9.7-9.7,9.7l0,0v40h-20.5v-40h-3.6c-4.9,0-8.9-4-8.9-8.9v-0.9c0-4.9,4-8.9,8.9-8.9
		h3.6h7.8c2.6,0,4.8,2.1,4.8,4.8l0,0c0,2.6-2.1,4.8-4.8,4.8H1748"/>
	<path class="st0" d="M1469.7,543.3V413.1c0-17,13.8-30.9,30.9-30.9h83.8c17,0,30.9,13.8,30.9,30.9v130.1"/>
	<line class="st3" x1="1500.9" y1="422.3" x2="1500.9" y2="542.1"/>
	<line class="st3" x1="1585" y1="422.3" x2="1585" y2="542.1"/>
	<line class="st0" x1="1527.5" y1="367.9" x2="1527.5" y2="382.3"/>
	<line class="st0" x1="1558.7" y1="367.9" x2="1558.7" y2="382.3"/>
	<path class="st1" d="M1500.9,446.3h-31.3v-33.1c0-17,13.8-30.9,30.9-30.9h83.8c17,0,30.9,13.8,30.9,30.9v33.1H1585"/>
	<line class="st2" x1="1500.9" y1="418.3" x2="1500.9" y2="542"/>
	<line class="st2" x1="1585" y1="418.3" x2="1585" y2="542"/>
	<circle class="st2" cx="1542.5" cy="425.5" r="17"/>
	<line class="st2" x1="1542.5" y1="442.5" x2="1542.5" y2="466.4"/>
	<line class="st2" x1="1534.1" y1="457.6" x2="1550.6" y2="457.6"/>
	<rect x="759.4" y="301.1" class="st0" width="28.9" height="39.2"/>
	<path class="st0" d="M1250.7,543.3V413.1c0-17,13.8-30.9,30.9-30.9h83.8c17,0,30.9,13.8,30.9,30.9v130.1"/>
	<line class="st3" x1="1281.9" y1="422.3" x2="1281.9" y2="542.1"/>
	<line class="st3" x1="1366" y1="422.3" x2="1366" y2="542.1"/>
	<line class="st0" x1="1308.5" y1="367.9" x2="1308.5" y2="382.3"/>
	<line class="st0" x1="1339.7" y1="367.9" x2="1339.7" y2="382.3"/>
	<path class="st1" d="M1281.9,446.3h-31.3v-33.1c0-17,13.8-30.9,30.9-30.9h83.8c17,0,30.9,13.8,30.9,30.9v33.1H1366"/>
	<line class="st2" x1="1281.9" y1="419.3" x2="1281.9" y2="542"/>
	<line class="st2" x1="1366" y1="419.3" x2="1366" y2="542"/>
	<line class="st5" x1="1253.8" y1="399.6" x2="1393" y2="399.6"/>
	<line class="st5" x1="1253.8" y1="428.6" x2="1393" y2="428.6"/>
	<line class="st5" x1="1282" y1="457.6" x2="1366" y2="457.6"/>
	<line class="st5" x1="1282" y1="486.6" x2="1366" y2="486.6"/>
	<line class="st5" x1="1282" y1="515.6" x2="1366" y2="515.6"/>
	<path class="st6" d="M161.5,437.9v521.6h246c0,0,26.7-1,26.7-22.8c0-21.8-28-22.8-28-22.8h-38.4V459.1"/>
	<path class="st6" d="M161,590.8c-70.5,0-88.1-57-88.1-105.8c0-29,13.5-107.8,78.8-107.8s161.6,0,203.2,0s48.8,56,48.8,88.1"/>
	<path class="st6" d="M449.3,366.9v127.9c0,0-1,47.3-45.6,47.3c-35.3,0-35.8-27-35.8-27"/>
	<path class="st6" d="M385,390.7v-42.5c0,0-1-31.1,34.2-31.1s59.4,0,59.4,0s13.2,1,13.2,13.5c0,12.4-9.3,12.4-9.3,12.4h-17.6"/>
	<path class="st6" d="M434.3,356.3c3.6-11.2,11.9-14.3,21.3-14.3c9.3,0,20.7,4.1,20.3,18.1c-0.2,5.7,0,29.6,0,29.6s0.4,11.3-12,12.4
		c-10.3,0.9-14.5-9.3-14.5-9.3"/>
	<path class="st6" d="M415.1,348.2c3.1-7.3,9.4-13.6,17.6-14.5c9.3-1,13.8,3.6,18.6,8.3"/>
	<circle class="st6" cx="258" cy="290.6" r="47.2"/>
	<polyline class="st6" points="302.2,274.3 314.7,274.3 314.7,308.8 302.2,308.8 	"/>
	<line class="st6" x1="210.8" y1="284.9" x2="305.2" y2="284.9"/>
	<line class="st6" x1="210.8" y1="294.3" x2="305.2" y2="294.3"/>
	<line class="st6" x1="272" y1="335.8" x2="284.4" y2="377.2"/>
	<line class="st6" x1="241.9" y1="334.7" x2="231.5" y2="377.2"/>
	<polyline class="st6" points="260.6,958.9 260.6,653.1 242.7,653.1 	"/>
	<polygon class="st6" points="324.4,601.2 324.4,377.2 298.6,377.2 298.6,601.2 211.7,601.2 211.7,377.2 185.8,377.2 185.8,601.2 
		162.1,601.2 162.1,627.1 367.9,627.1 367.9,601.2 	"/>
	<path class="st6" d="M1127.1,853.3"/>
	<polyline class="st6" points="563.4,171.2 563.4,120.1 1127.1,120.1 1127.4,170.9 	"/>
	<path class="st6" d="M563.4,171.2"/>
	<path class="st6" d="M563.4,853.1"/>
	<polyline class="st6" points="563.4,853.1 563.4,958.9 640.1,958.9 640.1,915.4 	"/>
	<path class="st6" d="M385,308.8"/>
	<polyline class="st6" points="629.2,170.9 1165.8,170.9 1165.8,853.6 385,853.6 385,542.1 	"/>
	<polyline class="st6" points="605.9,170.9 605.9,170.9 629.2,170.9 	"/>
	<path class="st6" d="M606.2,170.9"/>
	<polyline class="st6" points="385,344 385,170.9 605.7,170.9 	"/>
	<line class="st6" x1="1139.9" y1="170.9" x2="1139.9" y2="853.2"/>
	<line class="st6" x1="938.7" y1="170.9" x2="938.7" y2="853.2"/>
	<line class="st6" x1="605.9" y1="170.9" x2="605.9" y2="853.2"/>
	<line class="st6" x1="563.4" y1="854.7" x2="563.4" y2="853.2"/>
	<line class="st6" x1="563.4" y1="170.9" x2="563.4" y2="165.8"/>
	<path class="st7" d="M606.7,171.3v682h332v-682H606.7z M686.7,212.7c0-5.9,4.8-10.7,10.7-10.7h152.7c5.9,0,10.7,4.8,10.7,10.7
		v117.5c0,5.9-4.8,10.7-10.7,10.7H697.4c-5.9,0-10.7-4.8-10.7-10.7V212.7z M871.2,804.1c0,5.9-5.4,10.7-12.1,10.7H686.3
		c-6.7,0-12.1-4.8-12.1-10.7V577.7c0-5.9,5.4-10.7,12.1-10.7H859c6.7,0,12.1,4.8,12.1,10.7V804.1z M871.2,532.4
		c0,5.9-5.4,10.7-12.1,10.7H686.3c-6.7,0-12.1-4.8-12.1-10.7V378.6c0-5.9,5.4-10.7,12.1-10.7H859c6.7,0,12.1,4.8,12.1,10.7V532.4z"
		/>
	<polyline class="st6" points="606.4,958.9 606.4,915 948.6,915 948.6,958.9 1011.8,958.9 1011.8,915 1096.7,915 1096.7,958.9 	"/>
	<line class="st6" x1="735.5" y1="915.4" x2="735.5" y2="958.9"/>
	<polyline class="st6" points="1066.3,915.4 1066.3,958.9 1127.1,958.9 1127.1,853.3 	"/>
	<polyline class="st6" points="706.4,915.4 706.4,958.9 765.6,958.9 765.6,915.4 	"/>
	<line class="st6" x1="980.2" y1="854.3" x2="980.2" y2="958.9"/>
	<path class="st6" d="M980.2,854.3"/>
	<line class="st6" x1="980.2" y1="120.1" x2="980.2" y2="169.9"/>
	<line class="st6" x1="580.2" y1="170.1" x2="580.2" y2="854.7"/>
	<circle class="st3" cx="773.4" cy="276.8" r="38.2"/>
	<path class="st6" d="M1399.1,340.9h-152.7c-5.9,0-10.7-4.8-10.7-10.7V212.7c0-5.9,4.8-10.7,10.7-10.7h152.7
		c5.9,0,10.7,4.8,10.7,10.7v117.5C1409.8,336.1,1405,340.9,1399.1,340.9z"/>
	<rect x="1308.4" y="301.1" class="st0" width="28.9" height="39.2"/>
	<circle class="st3" cx="1322.4" cy="276.8" r="38.2"/>
	<path class="st6" d="M1606.1,340.9h-152.7c-5.9,0-10.7-4.8-10.7-10.7V212.7c0-5.9,4.8-10.7,10.7-10.7h152.7
		c5.9,0,10.7,4.8,10.7,10.7v117.5C1616.8,336.1,1612,340.9,1606.1,340.9z"/>
	<rect x="1515.4" y="301.1" class="st0" width="28.9" height="39.2"/>
	<circle class="st3" cx="1529.4" cy="276.8" r="38.2"/>
	<path class="st6" d="M1813.1,340.9h-152.7c-5.9,0-10.7-4.8-10.7-10.7V212.7c0-5.9,4.8-10.7,10.7-10.7h152.7
		c5.9,0,10.7,4.8,10.7,10.7v117.5C1823.8,336.1,1819,340.9,1813.1,340.9z"/>
	<rect x="1722.4" y="301.1" class="st0" width="28.9" height="39.2"/>
	<circle class="st3" cx="1736.4" cy="276.8" r="38.2"/>
	<path class="st3" d="M846.2,543.3H700.7V413.1c0-17,13.8-30.9,30.9-30.9h83.8c17,0,30.9,13.8,30.9,30.9V543.3z"/>
	<line class="st3" x1="731.9" y1="422.3" x2="731.9" y2="542.1"/>
	<line class="st3" x1="816" y1="422.3" x2="816" y2="542.1"/>
	<line class="st0" x1="758.5" y1="367.9" x2="758.5" y2="382.3"/>
	<line class="st0" x1="789.7" y1="367.9" x2="789.7" y2="382.3"/>
	<path class="st6" d="M1409,543.1h-172.7c-6.7,0-12.1-4.8-12.1-10.7V378.6c0-5.9,5.4-10.7,12.1-10.7H1409c6.7,0,12.1,4.8,12.1,10.7
		v153.8C1421.2,538.3,1415.7,543.1,1409,543.1z"/>
	<path class="st0" d="M729.7,567v189.3h-14.4c-5.6,0-10.1,4.5-10.1,10.1l0,0c0,5.6,4.5,10.1,10.1,10.1h100.4V567"/>
	<path class="st0" d="M700.7,567v2.5c0,13.9,11.3,25.2,25.2,25.2h3.8"/>
	<path class="st0" d="M845.7,567v4.6c0,12.7-10.3,23.1-23.1,23.1h-6.9"/>
	<line class="st0" x1="770.8" y1="587.7" x2="770.8" y2="755.7"/>
	<path class="st6" d="M1410,814.8h-172.7c-6.7,0-12.1-4.8-12.1-10.7V577.7c0-5.9,5.4-10.7,12.1-10.7H1410c6.7,0,12.1,4.8,12.1,10.7
		v226.4C1422.2,810,1416.7,814.8,1410,814.8z"/>
	<path class="st8" d="M914.1,267.8L895.4,257c-3.4-1.9-7.6,0.5-7.6,4.4v21.6c0,3.9,4.2,6.3,7.6,4.4l18.7-10.8
		C917.5,274.5,917.5,269.7,914.1,267.8z"/>
	<path class="st8" d="M630.7,268.2l18.7-10.8c3.4-1.9,7.6,0.5,7.6,4.4v21.6c0,3.9-4.2,6.3-7.6,4.4l-18.7-10.8
		C627.4,274.9,627.4,270.1,630.7,268.2z"/>
	<path class="st8" d="M914.1,450.8L895.4,440c-3.4-1.9-7.6,0.5-7.6,4.4v21.6c0,3.9,4.2,6.3,7.6,4.4l18.7-10.8
		C917.5,457.5,917.5,452.7,914.1,450.8z"/>
	<path class="st8" d="M630.7,451.2l18.7-10.8c3.4-1.9,7.6,0.5,7.6,4.4v21.6c0,3.9-4.2,6.3-7.6,4.4l-18.7-10.8
		C627.4,457.9,627.4,453.1,630.7,451.2z"/>
	<path class="st8" d="M914.1,682.8L895.4,672c-3.4-1.9-7.6,0.5-7.6,4.4v21.6c0,3.9,4.2,6.3,7.6,4.4l18.7-10.8
		C917.5,689.5,917.5,684.7,914.1,682.8z"/>
	<path class="st8" d="M630.7,683.2l18.7-10.8c3.4-1.9,7.6,0.5,7.6,4.4v21.6c0,3.9-4.2,6.3-7.6,4.4l-18.7-10.8
		C627.4,689.9,627.4,685.1,630.7,683.2z"/>
	<circle class="st5" cx="1308" cy="272" r="10.5"/>
	<circle class="st5" cx="1337" cy="272" r="10.5"/>
	<path class="st5" d="M1318,268.8c2.5-2.3,6.5-2.7,8.5,0"/>
	<line class="st5" x1="1359.6" y1="267.9" x2="1347.5" y2="267.9"/>
	<line class="st5" x1="1285.2" y1="267.9" x2="1297.5" y2="267.9"/>
	<line class="st5" x1="1341.9" y1="262.7" x2="1337" y2="267.9"/>
	<line class="st5" x1="1331.3" y1="280.8" x2="1337.2" y2="274.9"/>
	<line class="st5" x1="1312.9" y1="262.7" x2="1304.3" y2="271.3"/>
	<line class="st5" x1="1307" y1="276" x2="1302.6" y2="280.4"/>
	<path class="st4" d="M1461.5,236.5v10.3c0,6.4,5.2,11.7,11.7,11.7h110.6c6.4,0,11.7-5.2,11.7-11.7v-10.3"/>
	<path class="st5" d="M1528.5,226.8c0-5.1,4.2-9.3,9.3-9.3h18.4c5.1,0,9.3,4.2,9.3,9.3v31.7h-74v-31.7c0-5.1,4.2-9.3,9.3-9.3h18.4
		C1524.3,217.5,1528.5,221.7,1528.5,226.8"/>
	<path class="st5" d="M1695.5,259.5h84l-12-13V246c0-16.3-13.2-29.5-29.5-29.5h-3c-16.3,0-29.5,13.2-29.5,29.5v0L1695.5,259.5z"/>
	<line class="st5" x1="1705.5" y1="246" x2="1767.5" y2="246"/>
	<rect x="1730.1" y="213.9" class="st5" width="10.4" height="45.6"/>
	<path class="st6" d="M2029.1,340.9h-152.7c-5.9,0-10.7-4.8-10.7-10.7V212.7c0-5.9,4.8-10.7,10.7-10.7h152.7
		c5.9,0,10.7,4.8,10.7,10.7v117.5C2039.8,336.1,2035,340.9,2029.1,340.9z"/>
	<rect x="1938.4" y="301.1" class="st0" width="28.9" height="39.2"/>
	<circle class="st3" cx="1952.4" cy="276.8" r="38.2"/>
	<g>
		<path class="st4" d="M1565.5,275.5c-4.4,0-8-3.6-8-8s3.6-8,8-8"/>
		<path class="st4" d="M1565.5,291.5c4.4,0,8-3.6,8-8s-3.6-8-8-8"/>
	</g>
	<g>
		<path class="st4" d="M1565.5,307.5c-4.4,0-8-3.6-8-8s3.6-8,8-8"/>
		<path class="st4" d="M1565.5,323.5c4.4,0,8-3.6,8-8s-3.6-8-8-8"/>
	</g>
	<g>
		<path class="st4" d="M1493.5,275.5c-4.4,0-8-3.6-8-8s3.6-8,8-8"/>
		<path class="st4" d="M1493.5,291.5c4.4,0,8-3.6,8-8s-3.6-8-8-8"/>
	</g>
	<g>
		<path class="st4" d="M1493.5,307.5c-4.4,0-8-3.6-8-8s3.6-8,8-8"/>
		<path class="st4" d="M1493.5,323.5c4.4,0,8-3.6,8-8s-3.6-8-8-8"/>
	</g>
	<path class="st6" d="M1628,543.1h-172.7c-6.7,0-12.1-4.8-12.1-10.7V378.6c0-5.9,5.4-10.7,12.1-10.7H1628c6.7,0,12.1,4.8,12.1,10.7
		v153.8C1640.2,538.3,1634.7,543.1,1628,543.1z"/>
	<path class="st6" d="M1847,543.1h-172.7c-6.7,0-12.1-4.8-12.1-10.7V378.6c0-5.9,5.4-10.7,12.1-10.7H1847c6.7,0,12.1,4.8,12.1,10.7
		v153.8C1859.2,538.3,1853.7,543.1,1847,543.1z"/>
	<line class="st0" x1="1746.5" y1="367.9" x2="1746.5" y2="382.3"/>
	<line class="st0" x1="1777.7" y1="367.9" x2="1777.7" y2="382.3"/>
	<path class="st6" d="M2067,543.1h-172.7c-6.7,0-12.1-4.8-12.1-10.7V378.6c0-5.9,5.4-10.7,12.1-10.7H2067c6.7,0,12.1,4.8,12.1,10.7
		v153.8C2079.2,538.3,2073.7,543.1,2067,543.1z"/>
	<line class="st0" x1="1966.5" y1="382.3" x2="1966.5" y2="367.9"/>
	<line class="st0" x1="1997.7" y1="367.9" x2="1997.7" y2="382.3"/>
	<circle class="st5" cx="1971" cy="521" r="3.5"/>
	<line class="st5" x1="1915.2" y1="268" x2="2019.5" y2="268"/>
	<path class="st1" d="M1915.2,268c4-16.9,19.1-29.4,37.2-29.4c18.1,0,33.2,12.6,37.2,29.4"/>
	<path class="st2" d="M1915.2,268"/>
	<path class="st1" d="M1366.5,756.3h-100.2c-5.6,0-10.1,4.5-10.1,10.1l0,0c0,5.6,4.5,10.1,10.1,10.1h100.4v-20.9"/>
	<path class="st6" d="M1630.3,817.2h-172.7c-6.7,0-12.1-4.8-12.1-10.7V580.1c0-5.9,5.4-10.7,12.1-10.7h172.7
		c6.7,0,12.1,4.8,12.1,10.7v226.4C1642.5,812.4,1637,817.2,1630.3,817.2z"/>
	<path class="st1" d="M1300.9,766.3L1300.9,766.3c0,5.6,4.5,10.1,10.1,10.1"/>
	<path class="st1" d="M1311.1,756.1c-5.6,0-10.1,4.5-10.1,10.1"/>
	<path class="st1" d="M1521.8,766.5c0,5.6,4.5,10.1,10.1,10.1"/>
	<path class="st1" d="M1531.9,756.4c-5.6,0-10.1,4.5-10.1,10.1l0,0"/>
	<line class="st0" x1="2024" y1="738.6" x2="2024" y2="569.4"/>
	<line class="st0" x1="1938" y1="569.4" x2="1938" y2="737.5"/>
	<path class="st0" d="M1909,569.4v2.5c0,13.9,11.3,25.2,25.2,25.2h3.8"/>
	<path class="st0" d="M2054,569.4v4.6c0,12.7-10.3,23.1-23.1,23.1h-6.9"/>
	<line class="st0" x1="1979" y1="590.1" x2="1979" y2="738.5"/>
	<polyline class="st1" points="1938,569.4 1937.8,712.5 2024,712.1 2024,569.4 	"/>
	<rect x="1931.5" y="697.5" class="st2" width="100" height="15"/>
	<line class="st1" x1="1979" y1="590.1" x2="1979" y2="712.5"/>
	<path class="st1" d="M2023.8,585.9c-8.8,0-16-7.2-16-16"/>
	<path class="st1" d="M1937.8,585.9c8.8,0,16-7.2,16-16"/>
	<path class="st1" d="M1938.5,756.7v-19.2h85.5v18.6v20.9h-100.4c-5.6,0-10.1-4.5-10.1-10.1l0,0c0-5.6,4.5-10.1,10.1-10.1h100.2"/>
	<line class="st1" x1="1979" y1="738.5" x2="1979" y2="755.7"/>
	<path class="st6" d="M2067.3,817.2h-172.7c-6.7,0-12.1-4.8-12.1-10.7V580.1c0-5.9,5.4-10.7,12.1-10.7h172.7
		c6.7,0,12.1,4.8,12.1,10.7v226.4C2079.5,812.4,2074,817.2,2067.3,817.2z"/>
	<path class="st1" d="M1958.8,766.5c0,5.6,4.5,10.1,10.1,10.1"/>
	<path class="st1" d="M1968.9,756.4c-5.6,0-10.1,4.5-10.1,10.1l0,0"/>
	<line class="st0" x1="1804" y1="720.6" x2="1804" y2="569.4"/>
	<line class="st0" x1="1718" y1="569.4" x2="1718" y2="681.5"/>
	<path class="st0" d="M1689,569.4v2.5c0,13.9,11.3,25.2,25.2,25.2h3.8"/>
	<path class="st0" d="M1834,569.4v4.6c0,12.7-10.3,23.1-23.1,23.1h-6.9"/>
	<line class="st0" x1="1759" y1="590.1" x2="1759" y2="719.5"/>
	<polyline class="st5" points="1718,569.4 1687.5,636.5 1834,636.6 1804,569.4 	"/>
	<line class="st1" x1="1760" y1="590.1" x2="1760" y2="636.9"/>
	<line class="st1" x1="1776" y1="590.1" x2="1776" y2="636.9"/>
	<line class="st1" x1="1792" y1="590.1" x2="1792" y2="636.9"/>
	<line class="st1" x1="1807" y1="590.1" x2="1807" y2="636.9"/>
	<line class="st1" x1="1714" y1="590.1" x2="1714" y2="636.9"/>
	<line class="st1" x1="1730" y1="590.1" x2="1730" y2="636.9"/>
	<line class="st1" x1="1745" y1="590.1" x2="1745" y2="636.9"/>
	<path class="st1" d="M1718.5,756.7v-75.2h85.5v74.6v20.9h-100.4c-5.6,0-10.1-4.5-10.1-10.1l0,0c0-5.6,4.5-10.1,10.1-10.1h100.2"/>
	<line class="st1" x1="1759" y1="681.5" x2="1759" y2="755.7"/>
	<path class="st6" d="M1847.3,817.2h-172.7c-6.7,0-12.1-4.8-12.1-10.7V580.1c0-5.9,5.4-10.7,12.1-10.7h172.7
		c6.7,0,12.1,4.8,12.1,10.7v226.4C1859.5,812.4,1854,817.2,1847.3,817.2z"/>
	<path class="st1" d="M1738.8,766.5c0,5.6,4.5,10.1,10.1,10.1"/>
	<path class="st1" d="M1748.9,756.4c-5.6,0-10.1,4.5-10.1,10.1l0,0"/>
	<rect x="1332.5" y="572.5" class="st1" width="34" height="5"/>
	<rect x="1280.5" y="572.5" class="st1" width="34" height="5"/>
	<line class="st1" x1="1804" y1="690.9" x2="1718.5" y2="690.9"/>
</g>
</svg>
