<?xml version="1.0" encoding="utf-8"?>
<!-- Generator: Adobe Illustrator 25.2.3, SVG Export Plug-In . SVG Version: 6.00 Build 0)  -->
<svg version="1.1" xmlns="http://www.w3.org/2000/svg" xmlns:xlink="http://www.w3.org/1999/xlink" x="0px" y="0px"
	 viewBox="0 0 217 263" style="enable-background:new 0 0 217 263;" xml:space="preserve">
<style type="text/css">
	.st0{fill:none;stroke:#00BEFF;stroke-width:3;stroke-linecap:round;stroke-miterlimit:10;}
	.st1{fill:none;stroke:#FF931E;stroke-width:3;stroke-linecap:round;stroke-miterlimit:10;}
	.st2{fill:#FFFFFF;stroke:#FF931E;stroke-width:3;stroke-linecap:round;stroke-miterlimit:10;}
</style>
<g id="Camada_1">
	<path class="st0" d="M65.3,6.5v189.3H50.9c-5.6,0-10.1,4.5-10.1,10.1v0c0,5.6,4.5,10.1,10.1,10.1h100.4V6.5"/>
	<path class="st0" d="M36.3,6.5V9c0,13.9,11.3,25.2,25.2,25.2h3.8"/>
	<path class="st0" d="M181.3,6.5v4.6c0,12.7-10.3,23.1-23.1,23.1h-6.9"/>
	<line class="st0" x1="106.4" y1="27.2" x2="106.4" y2="195.2"/>
	<polyline class="st1" points="65.3,6.5 65.3,182.8 151.3,183 151.3,6.5 	"/>
	<line class="st1" x1="106.4" y1="27.2" x2="106.4" y2="183"/>
	<rect x="96.1" y="9" class="st2" width="24" height="11"/>
	<path class="st1" d="M151.1,195.8H50.9c-5.6,0-10.1,4.5-10.1,10.1v0c0,5.6,4.5,10.1,10.1,10.1h100.4v-20.9"/>
	<path class="st1" d="M85.6,205.8L85.6,205.8c0,5.6,4.5,10.1,10.1,10.1"/>
	<path class="st1" d="M95.7,195.6c-5.6,0-10.1,4.5-10.1,10.1"/>
	<rect x="117.1" y="12" class="st1" width="34" height="5"/>
	<rect x="65.1" y="12" class="st1" width="34" height="5"/>
</g>
<g id="Camada_2">
</g>
</svg>
