<?xml version="1.0" encoding="utf-8"?>
<!-- Generator: Adobe Illustrator 25.2.3, SVG Export Plug-In . SVG Version: 6.00 Build 0)  -->
<svg version="1.1" xmlns="http://www.w3.org/2000/svg" xmlns:xlink="http://www.w3.org/1999/xlink" x="0px" y="0px"
	 viewBox="0 0 217 263" style="enable-background:new 0 0 217 263;" xml:space="preserve">
<style type="text/css">
	.st0{display:none;}
	.st1{display:inline;fill:none;stroke:#00BEFF;stroke-width:3;stroke-linecap:round;stroke-miterlimit:10;}
	.st2{display:inline;fill:none;stroke:#FF931E;stroke-width:3;stroke-linecap:round;stroke-miterlimit:10;}
	.st3{display:inline;fill:#FFFFFF;stroke:#FF931E;stroke-width:3;stroke-linecap:round;stroke-miterlimit:10;}
	.st4{display:inline;fill:none;stroke:#00BEFF;stroke-width:3;stroke-linecap:round;stroke-linejoin:round;stroke-miterlimit:10;}
	.st5{fill:none;stroke:#00BEFF;stroke-width:3;stroke-linecap:round;stroke-miterlimit:10;}
	.st6{fill:#FFFFFF;stroke:#FF931E;stroke-width:3;stroke-linecap:round;stroke-linejoin:round;stroke-miterlimit:10;}
	.st7{fill:none;stroke:#FF931E;stroke-width:3;stroke-linecap:round;stroke-miterlimit:10;}
</style>
<g id="Camada_1" class="st0">
	<path class="st1" d="M65.3,6.5v189.3H50.9c-5.6,0-10.1,4.5-10.1,10.1v0c0,5.6,4.5,10.1,10.1,10.1h100.4V6.5"/>
	<path class="st1" d="M36.3,6.5V9c0,13.9,11.3,25.2,25.2,25.2h3.8"/>
	<path class="st1" d="M181.3,6.5v4.6c0,12.7-10.3,23.1-23.1,23.1h-6.9"/>
	<line class="st1" x1="106.4" y1="27.2" x2="106.4" y2="195.2"/>
	<polyline class="st2" points="65.3,6.5 65.3,182.8 151.3,183 151.3,6.5 	"/>
	<line class="st2" x1="106.4" y1="27.2" x2="106.4" y2="183"/>
	<rect x="96.1" y="9" class="st3" width="24" height="11"/>
	<path class="st4" d="M194.6,254.3H21.9c-6.7,0-12.1-4.8-12.1-10.7V17.2c0-5.9,5.4-10.7,12.1-10.7h172.7c6.7,0,12.1,4.8,12.1,10.7
		v226.4C206.8,249.5,201.3,254.3,194.6,254.3z"/>
	<path class="st2" d="M151.1,195.8H50.9c-5.6,0-10.1,4.5-10.1,10.1v0c0,5.6,4.5,10.1,10.1,10.1h100.4v-20.9"/>
	<path class="st2" d="M85.6,205.8L85.6,205.8c0,5.6,4.5,10.1,10.1,10.1"/>
	<path class="st2" d="M95.7,195.6c-5.6,0-10.1,4.5-10.1,10.1"/>
	<rect x="117.1" y="12" class="st2" width="34" height="5"/>
	<rect x="65.1" y="12" class="st2" width="34" height="5"/>
</g>
<g id="Camada_2">
	<line class="st5" x1="151.3" y1="157.7" x2="151.3" y2="6.5"/>
	<line class="st5" x1="65.3" y1="6.5" x2="65.3" y2="118.6"/>
	<path class="st5" d="M36.3,6.5V9c0,13.9,11.3,25.2,25.2,25.2h3.8"/>
	<path class="st5" d="M181.3,6.5v4.6c0,12.7-10.3,23.1-23.1,23.1h-6.9"/>
	<line class="st5" x1="106.4" y1="27.2" x2="106.4" y2="156.6"/>
	<polyline class="st6" points="65.3,6.5 34.9,73.6 181.3,73.6 151.3,6.5 	"/>
	<line class="st7" x1="107.4" y1="27.2" x2="107.4" y2="74"/>
	<line class="st7" x1="123.4" y1="27.2" x2="123.4" y2="74"/>
	<line class="st7" x1="139.4" y1="27.2" x2="139.4" y2="74"/>
	<line class="st7" x1="154.4" y1="27.2" x2="154.4" y2="74"/>
	<line class="st7" x1="61.4" y1="27.2" x2="61.4" y2="74"/>
	<line class="st7" x1="77.4" y1="27.2" x2="77.4" y2="74"/>
	<line class="st7" x1="92.4" y1="27.2" x2="92.4" y2="74"/>
	<path class="st7" d="M65.9,193.8v-75.2h85.5v74.6V214H50.9c-5.6,0-10.1-4.5-10.1-10.1v0c0-5.6,4.5-10.1,10.1-10.1h100.2"/>
	<line class="st7" x1="106.4" y1="118.6" x2="106.4" y2="192.7"/>
	<path class="st7" d="M86.1,203.6c0,5.6,4.5,10.1,10.1,10.1"/>
	<path class="st7" d="M96.2,193.5c-5.6,0-10.1,4.5-10.1,10.1v0"/>
	<line class="st7" x1="151.3" y1="128" x2="65.9" y2="128"/>
</g>
</svg>
