<svg id="Camada_1" data-name="Camada 1" xmlns="http://www.w3.org/2000/svg" viewBox="0 0 183.09 69.1"><defs><style>.cls-1{isolation:isolate;}.cls-2{fill:#ff931e;}</style></defs><g class="cls-1"><path class="cls-2" d="M19.44,22.36c0-4,2.06-6.79,5.92-6.79a4.78,4.78,0,0,1,5.15,4.57l-1.77.18a3.36,3.36,0,0,0-3.47-3.26c-2.55,0-4,2.12-4,5.28s1.37,5.35,4,5.35a3.53,3.53,0,0,0,3.52-3.17l1.68.29a5,5,0,0,1-5.2,4.4C21.28,29.21,19.44,26.13,19.44,22.36Z"/><path class="cls-2" d="M32.18,32.51V31.13c.24,0,.46,0,.66,0,1.1,0,1.67-.5,2.09-1.7l.24-.68-3.65-9.06h1.74l2.35,6.38a7.16,7.16,0,0,1,.31,1.08h0a10.77,10.77,0,0,1,.31-1.08l2.13-6.38h1.68l-3.57,9.75c-.84,2.33-1.94,3.1-3.48,3.1A5,5,0,0,1,32.18,32.51Z"/><path class="cls-2" d="M40.82,24.32c0-3,1.61-4.81,4.21-4.81a3.51,3.51,0,0,1,3.78,3.34l-1.6.18A2.15,2.15,0,0,0,45,20.87c-1.58,0-2.53,1.28-2.53,3.43s1,3.46,2.58,3.46c1.25,0,2-.75,2.25-2.18l1.49.24A3.59,3.59,0,0,1,45,29.12C42.47,29.12,40.82,27.25,40.82,24.32Z"/><path class="cls-2" d="M52.93,28.9H51.37V15.61h1.56Z"/><path class="cls-2" d="M63.56,24.77h-6.5a2.7,2.7,0,0,0,2.73,3A2.45,2.45,0,0,0,62.22,26l1.29.57a3.81,3.81,0,0,1-3.83,2.55c-2.62,0-4.18-1.67-4.18-4.69s1.54-4.92,4.16-4.92,3.9,1.42,3.9,4.16ZM62,23.31c0-1.69-.86-2.57-2.37-2.57s-2.53,1.05-2.56,2.77H62Z"/><path class="cls-2" d="M69.34,19.73H71v-2.4l1.56-.66v3.06h2.29V21H72.6v5.07c0,1.05.4,1.51,1.34,1.51a3.76,3.76,0,0,0,1-.13V28.9a4.71,4.71,0,0,1-1.35.16c-2,0-2.5-1.21-2.5-2.91V21h-1.7Z"/><path class="cls-2" d="M77.27,15.61h1.56v5.85a3.05,3.05,0,0,1,3-2c2,0,3,1.28,3,3.72v5.7H83.3V23.31c0-1.62-.67-2.46-2-2.46-1.58,0-2.48,1.19-2.48,3.26V28.9H77.27Z"/><path class="cls-2" d="M92.12,19.51a1.83,1.83,0,0,1,.33,0v1.52h-.07a2.69,2.69,0,0,0-2,.72A4.26,4.26,0,0,0,89.45,25V28.9H87.89V19.73h1.45v2.09A3,3,0,0,1,92.12,19.51Z"/><path class="cls-2" d="M93.37,24.32c0-3,1.68-4.81,4.27-4.81s4.27,1.82,4.27,4.81-1.69,4.8-4.27,4.8S93.37,27.3,93.37,24.32Zm6.89,0c0-2.28-1-3.45-2.62-3.45S95,22,95,24.32s1,3.44,2.62,3.44S100.26,26.59,100.26,24.32Z"/><path class="cls-2" d="M104.11,25.58V19.73h1.56V25.4c0,1.54.66,2.38,1.87,2.38,1.46,0,2.45-1.25,2.45-3.12V19.73h1.56V28.9h-1.47V27.17a3.06,3.06,0,0,1-2.84,1.95C104.93,29.12,104.11,27.72,104.11,25.58Z"/><path class="cls-2" d="M120.51,20.45a3,3,0,0,1,.85,2.16A3.09,3.09,0,0,1,118,25.74a4,4,0,0,1-1.76-.38,1,1,0,0,0-.66.9c0,.51.38.93,1.52.93h2.23c2.08,0,3.12.94,3.12,2.59s-1.36,2.91-4.54,2.91-4.13-1.21-4.13-2.51a2,2,0,0,1,1.49-1.91,1.65,1.65,0,0,1-1.07-1.59,1.89,1.89,0,0,1,1.3-1.83,3.15,3.15,0,0,1,2.5-5.34,4.14,4.14,0,0,1,1.79.39,2.15,2.15,0,0,1,2.18-1.67,2.54,2.54,0,0,1,.61.07v1.36a3.11,3.11,0,0,0-.66-.07A1.31,1.31,0,0,0,120.51,20.45ZM117,28.57c-.27,0-.53,0-.77,0a1.5,1.5,0,0,0-1,1.37c0,1.14,1.14,1.51,2.79,1.51,2.23,0,2.8-.7,2.8-1.52s-.64-1.32-1.9-1.32Zm2.88-5.94a1.93,1.93,0,0,0-3.85,0A1.84,1.84,0,0,0,118,24.55,1.82,1.82,0,0,0,119.89,22.63Z"/><path class="cls-2" d="M124.57,15.61h1.55v5.85a3.05,3.05,0,0,1,3-2c2,0,3,1.28,3,3.72v5.7H130.6V23.31c0-1.62-.68-2.46-2-2.46-1.58,0-2.48,1.19-2.48,3.26V28.9h-1.55Z"/><path class="cls-2" d="M138.39,19.73h1.7v-2.4l1.56-.66v3.06h2.29V21h-2.29v5.07c0,1.05.4,1.51,1.34,1.51a3.76,3.76,0,0,0,.95-.13V28.9a4.74,4.74,0,0,1-1.36.16c-2,0-2.49-1.21-2.49-2.91V21h-1.7Z"/><path class="cls-2" d="M146.32,15.61h1.56v5.85a3.05,3.05,0,0,1,3-2c2,0,3,1.28,3,3.72v5.7h-1.56V23.31c0-1.62-.67-2.46-2-2.46-1.58,0-2.48,1.19-2.48,3.26V28.9h-1.56Z"/><path class="cls-2" d="M164.18,24.77h-6.51a2.7,2.7,0,0,0,2.73,3A2.47,2.47,0,0,0,162.84,26l1.28.57a3.81,3.81,0,0,1-3.83,2.55c-2.62,0-4.18-1.67-4.18-4.69s1.54-4.92,4.16-4.92,3.91,1.42,3.91,4.16Zm-1.58-1.46c0-1.69-.86-2.57-2.36-2.57s-2.53,1.05-2.57,2.77h4.93Z"/></g><g class="cls-1"><path class="cls-2" d="M23,44.36a3,3,0,0,1,.84,2.16,3.09,3.09,0,0,1-3.39,3.13,4,4,0,0,1-1.76-.38,1,1,0,0,0-.65.9c0,.51.38.93,1.52.93h2.23C23.9,51.1,25,52,25,53.69S23.59,56.6,20.4,56.6s-4.12-1.21-4.12-2.51a2,2,0,0,1,1.48-1.91,1.64,1.64,0,0,1-1.06-1.59A1.88,1.88,0,0,1,18,48.76a3.15,3.15,0,0,1,2.49-5.34,4.15,4.15,0,0,1,1.8.39,2.14,2.14,0,0,1,2.18-1.67,2.6,2.6,0,0,1,.61.07v1.36a3.18,3.18,0,0,0-.66-.07A1.31,1.31,0,0,0,23,44.36Zm-3.5,8.12c-.27,0-.53,0-.77,0a1.5,1.5,0,0,0-1,1.38c0,1.13,1.14,1.5,2.79,1.5,2.23,0,2.8-.7,2.8-1.52s-.64-1.32-1.91-1.32Zm2.88-5.94a1.82,1.82,0,0,0-1.93-1.92,1.81,1.81,0,0,0-1.92,1.9,1.93,1.93,0,1,0,3.85,0Z"/><path class="cls-2" d="M25.81,50.33a2.42,2.42,0,0,1,1.28-2.16,9.23,9.23,0,0,1,3.08-.75l1.71-.2v-.15c0-1.68-.61-2.36-2-2.36a1.86,1.86,0,0,0-2.09,1.81H26.1c.13-1.87,1.6-3.1,3.74-3.1,2.51,0,3.61,1.14,3.61,3.82v2.47a11,11,0,0,0,.31,3.1H32.13A15.84,15.84,0,0,1,32,51.14,3.07,3.07,0,0,1,28.91,53C27,53,25.81,52,25.81,50.33Zm6.08-1.52v-.46l-2.49.37c-1.35.2-1.94.68-1.94,1.58s.68,1.44,1.8,1.44A2.62,2.62,0,0,0,31.89,48.81Z"/><path class="cls-2" d="M40.75,43.42a1.83,1.83,0,0,1,.33,0V45H41a2.68,2.68,0,0,0-2,.72,4.27,4.27,0,0,0-.92,3.21v3.92H36.52V43.64H38v2.09A3,3,0,0,1,40.75,43.42Z"/><path class="cls-2" d="M44.56,43.64v1.6a2.68,2.68,0,0,1,2.62-1.85,2.59,2.59,0,0,1,2.6,1.87,3,3,0,0,1,2.79-1.87c1.76,0,2.79,1.26,2.79,3.41v6H53.8V46.92c0-1.42-.59-2.16-1.74-2.16-1.3,0-2.06,1-2.06,2.62v5.43H48.45v-6c0-1.34-.63-2.09-1.73-2.09-1.28,0-2.07,1-2.07,2.7v5.35H43.1V43.64Z"/><path class="cls-2" d="M65.62,48.68h-6.5a2.7,2.7,0,0,0,2.73,3,2.45,2.45,0,0,0,2.43-1.74l1.29.57A3.81,3.81,0,0,1,61.74,53c-2.62,0-4.18-1.67-4.18-4.69s1.54-4.92,4.16-4.92c2.47,0,3.9,1.42,3.9,4.16Zm-1.57-1.46c0-1.69-.87-2.57-2.37-2.57s-2.53,1.05-2.56,2.77h4.93Z"/><path class="cls-2" d="M68.19,43.64h1.47v1.82a3.1,3.1,0,0,1,3.06-2.07c2,0,3.06,1.26,3.06,3.72v5.7H74.22V47.2c0-1.61-.68-2.44-2-2.44-1.52,0-2.45,1.23-2.45,3.26v4.79H68.19Z"/><path class="cls-2" d="M77.25,43.64H79v-2.4l1.56-.66v3.06H82.8v1.29H80.51V50c0,1,.4,1.51,1.33,1.51a3.78,3.78,0,0,0,1-.13v1.43a4.78,4.78,0,0,1-1.36.16c-2,0-2.49-1.21-2.49-2.91V44.93h-1.7Z"/><path class="cls-2" d="M84.08,50l1.58-.27a2.27,2.27,0,0,0,2.45,2c1.23,0,1.91-.51,1.91-1.37s-.48-1.32-1.47-1.43l-1.48-.16c-1.81-.21-2.68-1.23-2.68-2.64,0-1.67,1.32-2.72,3.49-2.72s3.5,1.1,3.7,2.79L90,46.56a2.11,2.11,0,0,0-2.2-1.87c-1.21,0-1.93.49-1.93,1.37s.52,1.27,1.65,1.4l1.47.16c1.81.2,2.53,1.16,2.53,2.6C91.56,52,90.28,53,88,53S84.41,52,84.08,50Z"/></g></svg>