<?xml version="1.0" encoding="utf-8"?>
<!-- Generator: Adobe Illustrator 25.2.3, SVG Export Plug-In . SVG Version: 6.00 Build 0)  -->
<svg version="1.1" xmlns="http://www.w3.org/2000/svg" xmlns:xlink="http://www.w3.org/1999/xlink" x="0px" y="0px"
	 viewBox="0 0 1515 1622" style="enable-background:new 0 0 1515 1622;" xml:space="preserve">
<style type="text/css">
	.st0{display:none;}
	
		.st1{display:inline;fill:#D6F6FF;stroke:#FF921E;stroke-width:7;stroke-linecap:round;stroke-linejoin:round;stroke-miterlimit:10;}
	.st2{display:inline;fill:none;stroke:#00BEFF;stroke-width:3;stroke-miterlimit:10;}
	.st3{display:inline;fill:#00BEFF;}
	.st4{display:inline;}
	.st5{fill:none;stroke:#00BEFF;stroke-width:3;stroke-linecap:round;stroke-linejoin:round;stroke-miterlimit:10;}
	.st6{fill:none;stroke:#00BEFF;stroke-width:3;stroke-linecap:round;stroke-miterlimit:10;}
	.st7{fill:#FFFFFF;}
	.st8{fill:#00BEFF;}
	.st9{display:inline;fill:none;}
	.st10{font-family:'GTAmericaMono-Regular';}
	.st11{font-size:23.909px;}
	.st12{font-family:'GTAmericaMono-Medium';}
	.st13{font-size:125.3089px;}
	.st14{fill:none;stroke:#00BEFF;stroke-width:3;stroke-miterlimit:10;}
	.st15{display:inline;fill:none;stroke:#00BEFF;stroke-width:3;stroke-linecap:round;stroke-linejoin:round;stroke-miterlimit:10;}
	.st16{fill:#D6F6FF;stroke:#FF921E;stroke-width:7;stroke-linecap:round;stroke-linejoin:round;stroke-miterlimit:10;}
</style>
<g id="Camada_2" class="st0">
	<path class="st1" d="M694.6,213.1h-142c-15.1,0-27.4-12.3-27.4-27.4V71.6c0-15.1,12.3-27.4,27.4-27.4h142
		c15.1,0,27.4,12.3,27.4,27.4v114.2C722,200.9,709.7,213.1,694.6,213.1z"/>
	<path class="st1" d="M927.3,424H749.4c-15.1,0-27.4-12.3-27.4-27.4V44.5c0-15.1,12.3-27.4,27.4-27.4h177.9
		c15.1,0,27.4,12.3,27.4,27.4v352.1C954.7,411.7,942.5,424,927.3,424z"/>
	<path class="st1" d="M595.8,1207H187.6c-15.1,0-27.4-12.3-27.4-27.4V432.6c0-15.1,12.3-27.4,27.4-27.4h408.2
		c15.1,0,27.4,12.3,27.4,27.4v746.9C623.2,1194.7,610.9,1207,595.8,1207z"/>
	<path class="st1" d="M991.1,788.5H712c-15.1,0-27.4-12.3-27.4-27.4V549.8c0-15.1,12.3-27.4,27.4-27.4h279.1
		c15.1,0,27.4,12.3,27.4,27.4v211.4C1018.5,776.3,1006.2,788.5,991.1,788.5z"/>
	<path class="st1" d="M805.4,1022.1H683.3c-15.1,0-27.4-12.3-27.4-27.4v-154c0-15.1,12.3-27.4,27.4-27.4h122.1
		c15.1,0,27.4,12.3,27.4,27.4v154C832.8,1009.8,820.5,1022.1,805.4,1022.1z"/>
	<path class="st2" d="M726,395.9L726,395.9c-60.5,0-110-49.5-110-110v-88.5c0-60.5,49.5-110,110-110h0c60.5,0,110,49.5,110,110v88.5
		C836,346.4,786.5,395.9,726,395.9z"/>
	<path class="st2" d="M616,203c-19.8,0-35.9,20-35.9,44.6s16.1,44.6,35.9,44.6"/>
	<path class="st2" d="M836,292.3c19.8,0,35.9-20,35.9-44.6S855.8,203,836,203"/>
	<path class="st3" d="M855.6,579.2L855.6,579.2c-9.5-7.1-23-5.2-30.2,4.3l-12.2,16.1L801,583.5c-7.2-9.5-20.7-11.4-30.2-4.3l0,0
		c-9.7,7.2-11.5,20.9-4.2,30.5l46.5,60.5v0.1l0.1-0.1l0.1,0.1v-0.1l46.5-60.5C867.1,600.2,865.3,586.5,855.6,579.2z"/>
	<g class="st4">
		<g>
			<path class="st5" d="M753.3,956.1v623.6h183.2c20.7,0,37.5-16.8,37.5-37.5l0,0c0-20.7-16.8-37.5-37.5-37.5h-16.5V597.9h15.1
				l219,517.3c0.1,0.2,0.1,0.4,0.2,0.6l17.7,42.7c3.9,9.4,14.7,13.9,24.2,10c9.3-3.9,13.8-14.5,10.1-23.9l0.5,1.2
				c3.9,9.4,14.7,13.9,24.2,10l0,0c9.4-3.9,13.9-14.7,10-24.2l-7.5-18.2l-11.4-26.3l19.2,44.7c3.9,9.4,14.7,13.9,24.2,10l0,0
				c9.4-3.9,13.9-14.7,10-24.2l-17.7-42.7c-0.2-0.5-0.5-1-0.9-1.3l-14.9-35.5l34.3-14.2c7.2-3,10.6-11.2,7.6-18.4l-1-2.4
				c-3-7.2-11.2-10.6-18.4-7.6l-34.4,14.3l-212.7-499.7c-18.3-40.6-49.4-63.8-94.2-63.8c-28.9,0-149.7,0-149.7,0v-60.6"/>
			<line class="st6" x1="1206.2" y1="1144.6" x2="1187.8" y2="1098.4"/>
		</g>
		<g>
			<path class="st5" d="M730.2,956.1v623.6H546.9c-20.7,0-37.5-16.8-37.5-37.5l0,0c0-20.7,16.8-37.5,37.5-37.5h16.5V597.9h-15.1
				l-219,517.3c-0.1,0.2-0.1,0.4-0.2,0.6l-17.7,42.7c-3.9,9.4-14.7,13.9-24.2,10c-9.3-3.9-13.8-14.5-10.1-23.9l-0.5,1.2
				c-3.9,9.4-14.7,13.9-24.2,10l0,0c-9.4-3.9-13.9-14.7-10-24.2l7.5-18.2l-0.1,0l-7.7,18.5c-3.9,9.4-14.7,13.9-24.2,10l0,0
				c-9.4-3.9-13.9-14.7-10-24.2l17.7-42.7c0.2-0.5,0.5-1,0.9-1.3l14.9-35.5l-34.3-14.2c-7.2-3-10.6-11.2-7.6-18.4l1-2.4
				c3-7.2,11.2-10.6,18.4-7.6l34.4,14.3l212.7-499.7c18.3-40.6,49.4-63.8,94.2-63.8c28.9,0,122.6,0,122.6,0v-60.6"/>
			<line class="st5" x1="277.3" y1="1144.6" x2="295.6" y2="1098.4"/>
			<line class="st5" x1="250.2" y1="1112.7" x2="262.1" y2="1084.8"/>
		</g>
		<line class="st5" x1="753.5" y1="956.5" x2="730.4" y2="956.5"/>
	</g>
	<g class="st4">
		<path class="st7" d="M182.1,207.1c-17.9,0-32.4-14.5-32.4-32.4v-19.8c0-17.9,14.5-32.4,32.4-32.4h235.8
			c17.9,0,32.4,14.5,32.4,32.4v19.8c0,17.9-14.5,32.4-32.4,32.4H182.1z"/>
		<path class="st8" d="M417.9,123.9c17.1,0,30.9,13.9,30.9,30.9v19.8c0,17.1-13.9,30.9-30.9,30.9H182.1c-17.1,0-30.9-13.9-30.9-30.9
			v-19.8c0-17.1,13.9-30.9,30.9-30.9H417.9 M417.9,120.9H182.1c-18.7,0-33.9,15.2-33.9,33.9v19.8c0,18.7,15.2,33.9,33.9,33.9h235.8
			c18.7,0,33.9-15.2,33.9-33.9v-19.8C451.8,136.1,436.7,120.9,417.9,120.9L417.9,120.9z"/>
	</g>
	<g class="st4">
		<path class="st7" d="M1130.8,345.7c-14.1,0-25.5-11.5-25.5-25.5v-33.6c0-14.1,11.5-25.5,25.5-25.5h165.9
			c14.1,0,25.5,11.5,25.5,25.5v33.6c0,14.1-11.5,25.5-25.5,25.5H1130.8z"/>
		<path class="st8" d="M1296.7,262.6c13.3,0,24,10.8,24,24v33.6c0,13.3-10.8,24-24,24h-165.9c-13.3,0-24-10.8-24-24v-33.6
			c0-13.3,10.8-24,24-24H1296.7 M1296.7,259.6h-165.9c-14.9,0-27,12.1-27,27v33.6c0,14.9,12.1,27,27,27h165.9c14.9,0,27-12.1,27-27
			v-33.6C1323.7,271.7,1311.6,259.6,1296.7,259.6L1296.7,259.6z"/>
	</g>
	<g class="st4">
		<path class="st7" d="M1010.2,1025.6c-17.9,0-32.4-14.5-32.4-32.4v-19.8c0-17.9,14.5-32.4,32.4-32.4h255.7
			c17.9,0,32.4,14.5,32.4,32.4v19.8c0,17.9-14.5,32.4-32.4,32.4H1010.2z"/>
		<path class="st8" d="M1265.9,942.4c17.1,0,30.9,13.9,30.9,30.9v19.8c0,17.1-13.9,30.9-30.9,30.9h-255.7
			c-17.1,0-30.9-13.9-30.9-30.9v-19.8c0-17.1,13.9-30.9,30.9-30.9H1265.9 M1265.9,939.4h-255.7c-18.7,0-33.9,15.2-33.9,33.9v19.8
			c0,18.7,15.2,33.9,33.9,33.9h255.7c18.7,0,33.9-15.2,33.9-33.9v-19.8C1299.8,954.6,1284.6,939.4,1265.9,939.4L1265.9,939.4z"/>
	</g>
	<g class="st4">
		<path class="st7" d="M79.3,1345.9c-17.9,0-32.4-14.5-32.4-32.4v-19.8c0-17.9,14.5-32.4,32.4-32.4H335c17.9,0,32.4,14.5,32.4,32.4
			v19.8c0,17.9-14.5,32.4-32.4,32.4H79.3z"/>
		<path class="st8" d="M335,1262.8c17.1,0,30.9,13.9,30.9,30.9v19.8c0,17.1-13.9,30.9-30.9,30.9H79.3c-17.1,0-30.9-13.9-30.9-30.9
			v-19.8c0-17.1,13.9-30.9,30.9-30.9H335 M335,1259.8H79.3c-18.7,0-33.9,15.2-33.9,33.9v19.8c0,18.7,15.2,33.9,33.9,33.9H335
			c18.7,0,33.9-15.2,33.9-33.9v-19.8C369,1275,353.8,1259.8,335,1259.8L335,1259.8z"/>
	</g>
	<g class="st4">
		<path class="st7" d="M1166.7,635.8c-14.1,0-25.5-11.5-25.5-25.5V548c0-14.1,11.5-25.5,25.5-25.5h183.4c14.1,0,25.5,11.5,25.5,25.5
			v62.3c0,14.1-11.5,25.5-25.5,25.5H1166.7z"/>
		<path class="st8" d="M1350.1,524c13.3,0,24,10.8,24,24v62.3c0,13.3-10.8,24-24,24h-183.4c-13.3,0-24-10.8-24-24V548
			c0-13.3,10.8-24,24-24H1350.1 M1350.1,521h-183.4c-14.9,0-27,12.1-27,27v62.3c0,14.9,12.1,27,27,27h183.4c14.9,0,27-12.1,27-27
			V548C1377.1,533.1,1365,521,1350.1,521L1350.1,521z"/>
	</g>
	<rect x="988.2" y="960.1" class="st9" width="307.6" height="80.5"/>
	<text transform="matrix(1 0 0 1 988.2034 977.4434)" class="st4"><tspan x="0" y="0" class="st8 st10 st11">Expression over </tspan><tspan x="0" y="28.7" class="st8 st10 st11">individual identity</tspan></text>
	<rect x="707.7" y="840" class="st9" width="75.1" height="104.2"/>
	<text transform="matrix(0.8943 0 0 1 707.6711 930.8633)" class="st3 st12 st13">?</text>
	<rect x="60.5" y="1279.7" class="st9" width="307.6" height="80.5"/>
	<text transform="matrix(1 0 0 1 60.5342 1297.0264)" class="st4"><tspan x="0" y="0" class="st8 st10 st11">Standardization and </tspan><tspan x="0" y="28.7" class="st8 st10 st11">repetition</tspan></text>
	<rect x="167.3" y="139.2" class="st9" width="275.8" height="67.7"/>
	<text transform="matrix(1 0 0 1 167.3278 156.5674)" class="st4"><tspan x="0" y="0" class="st8 st10 st11">Culturally and </tspan><tspan x="0" y="28.7" class="st8 st10 st11">emotionaly neutral</tspan></text>
	<rect x="1124.5" y="277.9" class="st9" width="275.8" height="67.7"/>
	<text transform="matrix(1 0 0 1 1124.4846 295.2402)" class="st4"><tspan x="0" y="0" class="st8 st10 st11">Ethnically </tspan><tspan x="0" y="28.7" class="st8 st10 st11">non-specific</tspan></text>
	<rect x="1159.6" y="538.5" class="st9" width="275.8" height="86.9"/>
	<text transform="matrix(1 0 0 1 1159.5511 555.8477)" class="st4"><tspan x="0" y="0" class="st8 st10 st11">Friendly, </tspan><tspan x="0" y="28.7" class="st8 st10 st11">approachable, </tspan><tspan x="0" y="57.4" class="st8 st10 st11">inviting</tspan></text>
	<path class="st2" d="M451.8,165.1h31.5c6.3,0,12.3-2.5,16.8-7l26.5-26.5"/>
	<path class="st2" d="M954.7,213.1l81.6,81.6c5.5,5.5,13,8.6,20.9,8.6h46.6"/>
	<path class="st2" d="M1018.5,660.8l73.2-73.2c5.7-5.7,13.4-8.9,21.5-8.9h28.8"/>
	<path class="st2" d="M832,916.3l55.4,55.4c6.4,6.4,15,9.9,24,9.9h64.9"/>
	<path class="st2" d="M525.2,1207l-85.5,85.5c-6.6,6.6-15.7,10.4-25.1,10.4h-46.4"/>
	<g class="st4">
		<path class="st6" d="M621.2,456h-60.6c0,0-51-7.2-79.7,47.8l-222.4,518.2l-42.1-17.4c-3.6-1.5-7.6,0.3-9,3.9l0,0
			c-1.3,3.4,0.4,7.3,3.7,8.7l41,18.2l-35.8,82.1c-2.9,6.5-1.4,12.6,5.2,15.3l0,0c6.4,2.6,12.9-0.4,15.6-6.7l21.4-50l12.8,4.8
			l-19.8,49c-2.7,6.4-2.1,13.7,4.3,16.4h0c6.4,2.6,12.9-0.4,15.5-6.7l21.5-52.3l12,5.6l-20.5,50.9c-2.3,6.2,0,13.2,6.2,15.7h0
			c6.2,2.4,12.4-0.5,14.9-6.7l237.7-565.2h30.3v616.9"/>
		<polyline class="st14" points="909.3,789.6 909.3,587.9 943,587.9 1015.9,763.8 		"/>
		<path class="st6" d="M619.2,470.5h-72.9c0,0-30.3,1.5-50.2,39l-75.7,169c0,0-9.3,17.8-6.2,31.2c3.1,13.4,5.7,19.3,0,34.3
			c-5.7,15-134.8,309.9-134.8,309.9s-5.6,12,2.4,15.1s12-8.8,12-8.8l86.1-192.1c0,0,3.2-8.3,15.5-6.6c12.4,1.8,17.1-12.6,17.1-12.6
			L524,585.1c0,0,5.6-13.5,19.1-13.5H571c0,0,16.7-0.8,16.7,20.7c0,21.5,0,94.8,0,94.8s-4,22.3,30.7,21.7"/>
		<path class="st6" d="M587.7,608.3c0,0,18.3-2.5,18.3,19.8s0,50.3,0,50.3"/>
		<path class="st6" d="M456.6,744.5c0,0,7.6-10.8-4.3-43.8c-10.4-28.7,3.5-57.3,3.5-57.3l57.8-126.8c0,0,9.6-28.7,36.7-28.7h70.9"/>
		<path class="st6" d="M556,487.9c0,0,11.9,0.8,17.4,15.1c5.6,14.3,19.1,14.3,19.1,14.3h28.7"/>
		<path class="st6" d="M621.2,1002.6c-24.7,0-33.5-19-33.5-39V791.4c0-20,8.8-39,33.5-39"/>
		<path class="st6" d="M588.2,936.9c11.4,0,22.3-5,22.3-19.1V782.2"/>
		<path class="st6" d="M374,836.1c-13.1-5.2-21.8,3-26,13.6l-41.6,98.9"/>
		<path class="st6" d="M448.1,761.9c-13.1-5.2-21.8,3-26,13.6l-25.7,59.8"/>
		<path class="st6" d="M417.8,782.7c-5.6-2.2-9.3,1.3-11.1,5.8l-11,25.6"/>
		<path class="st6" d="M574.5,547.8c0-6-4.6-8.2-9.5-8.2l-27.8-0.8"/>
		<path class="st6" d="M338.8,962.5c12.8,6,12.8,17.9,7.9,28.3l-25.9,59.7"/>
		<path class="st6" d="M340.4,1006.3c7.2,3.4,7.2,10.1,4.4,15.9l-14.5,33.5"/>
		<path class="st6" d="M372.3,885.2c7.2,3.4,7.2,10.1,4.4,15.9l-14.5,33.5"/>
		<path class="st6" d="M370.7,916.3c7.2,3.4,7.2,10.1,4.4,15.9l-14.5,33.5"/>
		<path class="st6" d="M476.7,631.8c7.2,3.4,7.2,10.1,4.4,15.9l-14.5,33.5"/>
		<path class="st6" d="M312.2,974.5c-7.4-2.9-12.2,1.7-14.6,7.7l-24.6,58"/>
		<path class="st6" d="M487.1,579.2c7.2,3.4,7.2,10.1,4.4,15.9l-28.9,65.8"/>
		<path class="st6" d="M608.9,881.9c-8.8,0-12-6.8-12-13.9v-49.1"/>
		<path class="st6" d="M587.7,1210.4v-131.2c0-20,8.8-39,33.5-39"/>
		<line class="st6" x1="610.4" y1="1205.8" x2="610.4" y2="1069.9"/>
		<path class="st6" d="M608.9,1169.6c-8.8,0-12-6.8-12-13.9v-49.1"/>
		<line class="st6" x1="420.4" y1="678.4" x2="369.4" y2="797.9"/>
		<path class="st6" d="M621.2,547.6H535c0,0-11.8-1.5-18.2,16"/>
		<polyline class="st5" points="722.1,1022.1 722.1,948.6 761.4,948.6 761.4,1022.1 		"/>
	</g>
	<path class="st15" d="M626.4,210.7v-12.5c0-55.3,45.3-100.6,100.6-100.6h0c55.3,0,100.6,45.3,100.6,100.6v86.7
		c0,55.3-45.3,100.6-100.6,100.6h0"/>
	<path class="st15" d="M649.3,236.7c6.8-5.1,23.2-11.1,36.8-0.5"/>
	<circle class="st3" cx="669.8" cy="238.9" r="8"/>
	<line class="st15" x1="686" y1="335.8" x2="780.8" y2="335.8"/>
	<path class="st15" d="M727.3,371.2L727.3,371.2c20.1,0,38.6-6.9,53.5-18.4c0,0,0-5.1,0-34.5c0-29.5,35.1-31.7,35.1-31.7
		c0.1-2,0.2-4,0.2-6v-78.2c0-49.8-39.9-90.6-88.8-90.6h0c-41,0-75.7,28.7-85.8,67.5c0,0-5.1,17.8,11.6,17.8c16.7,0,67,0,67,0"/>
	<line class="st15" x1="759.5" y1="318.6" x2="759.5" y2="348"/>
	<line class="st15" x1="741.5" y1="318.9" x2="741.5" y2="348.4"/>
	<path class="st3" d="M738.9,266.8l-16.8-33.3V272h13.6C738.4,272,740.1,269.1,738.9,266.8z"/>
	<circle class="st3" cx="768.6" cy="239.3" r="20.3"/>
	<polyline class="st15" points="701.4,233.5 701.4,294.8 720,294.8 	"/>
	<path class="st15" d="M673.7,130.3h25.4c0,0,9-0.2,9,7c0,6.4-6.4,6.4-6.4,6.4s-8,0-8,7.2c0,5.6,4.1,6.8,7.6,6.8
		c3.5,0,18.7,0.1,18.7,0.1"/>
	<path class="st15" d="M673.9,153.2h-13.7c-7.2,0-13.1,5.9-13.1,13.1v0c0,7.2,5.9,13.1,13.1,13.1h16.6c7.2,0,13.1,5.9,13.1,13.1v4.4
		"/>
	<path class="st15" d="M665.8,165.1h8.5c6.5,0,11.8-5.3,11.8-11.8v0c0-6.5-5.3-11.8-11.8-11.8h-12.4"/>
	<path class="st15" d="M691.3,171.5h17.9c4.2,0,7.6,3.4,7.6,7.6v0c0,4.2-3.4,7.6-7.6,7.6h-7.5"/>
	<line class="st15" x1="763.9" y1="390.7" x2="763.9" y2="418.6"/>
	<path class="st15" d="M740.1,416.2h-11.5c-3.4,0-6.2-2.8-6.2-6.2v-1.2c0-3.4,2.8-6.2,6.2-6.2h11.5c3.4,0,6.2,2.8,6.2,6.2v1.2
		C746.3,413.4,743.6,416.2,740.1,416.2z"/>
</g>
<g id="Camada_1">
	<path class="st16" d="M694.6,213.1h-142c-15.1,0-27.4-12.3-27.4-27.4V71.6c0-15.1,12.3-27.4,27.4-27.4h142
		c15.1,0,27.4,12.3,27.4,27.4v114.2C722,200.9,709.7,213.1,694.6,213.1z"/>
	<path class="st16" d="M927.3,424H749.4c-15.1,0-27.4-12.3-27.4-27.4V44.5c0-15.1,12.3-27.4,27.4-27.4h177.9
		c15.1,0,27.4,12.3,27.4,27.4v352.1C954.7,411.7,942.5,424,927.3,424z"/>
	<path class="st16" d="M595.8,1207H187.6c-15.1,0-27.4-12.3-27.4-27.4V432.6c0-15.1,12.3-27.4,27.4-27.4h408.2
		c15.1,0,27.4,12.3,27.4,27.4v746.9C623.2,1194.7,610.9,1207,595.8,1207z"/>
	<path class="st16" d="M991.1,788.5H712c-15.1,0-27.4-12.3-27.4-27.4V549.8c0-15.1,12.3-27.4,27.4-27.4h279.1
		c15.1,0,27.4,12.3,27.4,27.4v211.4C1018.5,776.3,1006.2,788.5,991.1,788.5z"/>
	<path class="st16" d="M805.4,1022.1H683.3c-15.1,0-27.4-12.3-27.4-27.4v-154c0-15.1,12.3-27.4,27.4-27.4h122.1
		c15.1,0,27.4,12.3,27.4,27.4v154C832.8,1009.8,820.5,1022.1,805.4,1022.1z"/>
	<path class="st14" d="M726,395.9L726,395.9c-60.5,0-110-49.5-110-110v-88.5c0-60.5,49.5-110,110-110h0c60.5,0,110,49.5,110,110
		v88.5C836,346.4,786.5,395.9,726,395.9z"/>
	<path class="st14" d="M616,203c-19.8,0-35.9,20-35.9,44.6s16.1,44.6,35.9,44.6"/>
	<path class="st14" d="M836,292.3c19.8,0,35.9-20,35.9-44.6S855.8,203,836,203"/>
	<g>
		<g>
			<path class="st5" d="M753.3,956.1v623.6h183.2c20.7,0,37.5-16.8,37.5-37.5l0,0c0-20.7-16.8-37.5-37.5-37.5h-16.5V597.9h15.1
				l219,517.3c0.1,0.2,0.1,0.4,0.2,0.6l17.7,42.7c3.9,9.4,14.7,13.9,24.2,10c9.3-3.9,13.8-14.5,10.1-23.9l0.5,1.2
				c3.9,9.4,14.7,13.9,24.2,10l0,0c9.4-3.9,13.9-14.7,10-24.2l-7.5-18.2l-11.4-26.3l19.2,44.7c3.9,9.4,14.7,13.9,24.2,10l0,0
				c9.4-3.9,13.9-14.7,10-24.2l-17.7-42.7c-0.2-0.5-0.5-1-0.9-1.3l-14.9-35.5l34.3-14.2c7.2-3,10.6-11.2,7.6-18.4l-1-2.4
				c-3-7.2-11.2-10.6-18.4-7.6l-34.4,14.3l-212.7-499.7c-18.3-40.6-49.4-63.8-94.2-63.8c-28.9,0-149.7,0-149.7,0v-60.6"/>
			<line class="st6" x1="1206.2" y1="1144.6" x2="1187.8" y2="1098.4"/>
		</g>
		<g>
			<path class="st5" d="M730.2,956.1v623.6H546.9c-20.7,0-37.5-16.8-37.5-37.5l0,0c0-20.7,16.8-37.5,37.5-37.5h16.5V597.9h-15.1
				l-219,517.3c-0.1,0.2-0.1,0.4-0.2,0.6l-17.7,42.7c-3.9,9.4-14.7,13.9-24.2,10c-9.3-3.9-13.8-14.5-10.1-23.9l-0.5,1.2
				c-3.9,9.4-14.7,13.9-24.2,10l0,0c-9.4-3.9-13.9-14.7-10-24.2l7.5-18.2l-0.1,0l-7.7,18.5c-3.9,9.4-14.7,13.9-24.2,10l0,0
				c-9.4-3.9-13.9-14.7-10-24.2l17.7-42.7c0.2-0.5,0.5-1,0.9-1.3l14.9-35.5l-34.3-14.2c-7.2-3-10.6-11.2-7.6-18.4l1-2.4
				c3-7.2,11.2-10.6,18.4-7.6l34.4,14.3l212.7-499.7c18.3-40.6,49.4-63.8,94.2-63.8c28.9,0,122.6,0,122.6,0v-60.6"/>
			<line class="st5" x1="277.3" y1="1144.6" x2="295.6" y2="1098.4"/>
			<line class="st5" x1="250.2" y1="1112.7" x2="262.1" y2="1084.8"/>
		</g>
		<line class="st5" x1="753.5" y1="956.5" x2="730.4" y2="956.5"/>
	</g>
	<path class="st5" d="M649.3,236.7c6.8-5.1,23.2-11.1,36.8-0.5"/>
	<circle class="st8" cx="669.8" cy="238.9" r="8"/>
	<path class="st5" d="M751.3,236.7c6.8-5.1,23.2-11.1,36.8-0.5"/>
	<path class="st5" d="M748.4,206.9c8.4-6.3,28.7-13.8,45.5-0.6"/>
	<circle class="st8" cx="768.8" cy="238.9" r="8"/>
	<line class="st5" x1="686" y1="335.8" x2="780.8" y2="335.8"/>
	<polyline class="st5" points="701.4,233.5 701.4,294.8 720,294.8 	"/>
</g>
</svg>
