<svg width="405" height="258" viewBox="0 0 405 258" fill="none" xmlns="http://www.w3.org/2000/svg">
<path fill-rule="evenodd" clip-rule="evenodd" d="M298.509 224.5C295.299 225.139 292.012 225.468 288.69 225.468H267.145V221.468H288.69C291.747 221.468 294.773 221.165 297.727 220.577L298.509 224.5ZM224.053 225.468V221.468H180.962V225.468H224.053ZM137.87 225.468V221.468H116.324C113.267 221.468 110.242 221.165 107.287 220.577L106.506 224.5C109.716 225.139 113.003 225.468 116.324 225.468H137.87ZM88.3672 216.976L90.5916 213.652C88.088 211.976 85.7358 210.049 83.5749 207.885C81.4127 205.721 79.4865 203.364 77.8127 200.855L74.4854 203.076C76.3037 205.801 78.3961 208.361 80.7447 210.712C83.0919 213.062 85.6472 215.156 88.3672 216.976ZM66.9733 184.915L70.8967 184.136C70.3091 181.178 70.0071 178.149 70.0071 175.088V152.356H66.0071V175.088C66.0071 178.412 66.3351 181.702 66.9733 184.915ZM66.0071 106.891H70.0071V84.1588C70.0071 81.0983 70.3091 78.0693 70.8967 75.1115L66.9733 74.3322C66.3351 77.5449 66.0071 80.8349 66.0071 84.1588V106.891ZM74.4854 56.1716L77.8127 58.3918C79.4865 55.8832 81.4127 53.5266 83.5749 51.3618C85.7358 49.1982 88.088 47.2707 90.5916 45.5956L88.3672 42.2711C85.6472 44.0909 83.0919 46.1849 80.7447 48.5351C78.3961 50.8866 76.3037 53.4466 74.4854 56.1716ZM106.506 34.7475L107.287 38.6704C110.242 38.0819 113.267 37.7793 116.324 37.7793H137.87V33.7793H116.324C113.003 33.7793 109.716 34.108 106.506 34.7475ZM180.962 33.7793V37.7793H224.053V33.7793H180.962ZM267.145 33.7793H288.69C292.012 33.7793 295.299 34.108 298.509 34.7475L297.727 38.6704C294.773 38.0819 291.747 37.7793 288.69 37.7793H267.145V33.7793ZM316.648 42.2711L314.423 45.5956C316.927 47.2707 319.279 49.1982 321.44 51.3618C323.602 53.5266 325.528 55.8832 327.202 58.3918L330.529 56.1716C328.711 53.4466 326.619 50.8866 324.27 48.5351C321.923 46.1849 319.368 44.0909 316.648 42.2711ZM338.041 74.3322L334.118 75.1115C334.706 78.0693 335.008 81.0983 335.008 84.1588V106.891H339.008V84.1588C339.008 80.8349 338.68 77.5449 338.041 74.3322ZM339.008 152.356H335.008V175.088C335.008 178.149 334.706 181.178 334.118 184.136L338.041 184.915C338.68 181.702 339.008 178.412 339.008 175.088V152.356ZM330.529 203.076L327.202 200.855C325.528 203.364 323.602 205.721 321.44 207.885C319.279 210.049 316.927 211.976 314.423 213.652L316.648 216.976C319.368 215.156 321.923 213.062 324.27 210.712C326.619 208.361 328.711 205.801 330.529 203.076Z" fill="#FF921E"/>
<path d="M118.386 79.6452C116.58 80.2846 114.681 80.6208 112.765 80.64C111.515 80.761 110.253 80.6063 109.068 80.1865C107.884 79.7668 106.805 79.0924 105.909 78.2106C105.013 77.3289 104.321 76.2613 103.881 75.0828C103.441 73.9044 103.264 72.6438 103.363 71.3897C103.363 65.9256 107.13 61.9314 113.284 61.9314C114.842 61.8975 116.391 62.1804 117.837 62.7629L117.273 64.708C116.005 64.1215 114.622 63.8272 113.225 63.8468C112.23 63.7609 111.227 63.8939 110.289 64.2366C109.35 64.5793 108.498 65.1233 107.791 65.8307C107.085 66.538 106.542 67.3914 106.199 68.3312C105.857 69.2709 105.724 70.2743 105.81 71.2709C105.81 75.9183 108.613 78.6949 112.884 78.6949C113.955 78.7613 115.028 78.5941 116.028 78.2049V72.7557H112.35V70.8254H118.386V79.6452Z" fill="#FF931E"/>
<path d="M133.957 73.7651C134.036 74.6656 133.925 75.5729 133.631 76.4276C133.336 77.2823 132.865 78.0651 132.248 78.7251C131.631 79.3851 130.881 79.9073 130.049 80.2577C129.217 80.608 128.32 80.7787 127.417 80.7585C126.546 80.7677 125.682 80.5947 124.882 80.2506C124.081 79.9065 123.361 79.3988 122.768 78.76C122.175 78.1213 121.721 77.3656 121.437 76.5413C121.152 75.7169 121.042 74.8422 121.114 73.9729C121.114 69.5185 123.991 66.9795 127.625 66.9795C131.258 66.9795 133.957 69.7858 133.957 73.7651ZM123.576 73.8987C123.576 76.7792 125.222 78.9619 127.565 78.9619C129.908 78.9619 131.554 76.8089 131.554 73.8393C131.554 71.6121 130.442 68.7761 127.625 68.7761C124.807 68.7761 123.532 71.3894 123.532 73.8987H123.576Z" fill="#FF931E"/>
<path d="M154.644 73.7651C154.724 74.6656 154.613 75.5729 154.318 76.4276C154.024 77.2823 153.552 78.0651 152.935 78.7251C152.318 79.3851 151.569 79.9073 150.736 80.2577C149.904 80.608 149.007 80.7787 148.104 80.7585C147.233 80.7675 146.369 80.5945 145.567 80.2505C144.766 79.9066 144.045 79.3991 143.451 78.7607C142.857 78.1222 142.402 77.3667 142.115 76.5424C141.829 75.718 141.717 74.8429 141.787 73.9729C141.787 69.5185 144.753 66.9795 148.312 66.9795C151.871 66.9795 154.644 69.7858 154.644 73.7651ZM144.263 73.8987C144.263 76.7792 145.91 78.9619 148.253 78.9619C150.596 78.9619 152.242 76.8089 152.242 73.8393C152.242 71.6121 151.13 68.7761 148.312 68.7761C145.494 68.7761 144.219 71.3894 144.219 73.8987H144.263Z" fill="#FF931E"/>
<path d="M158.411 67.292L160.992 74.716C161.4 75.8208 161.751 76.9458 162.045 78.0865H162.134C162.43 77.0026 162.801 75.9187 163.246 74.716L165.796 67.292H168.303L163.127 80.4622H160.843L155.846 67.292H158.411Z" fill="#FF931E"/>
<path d="M171.61 74.241C171.557 74.8445 171.636 75.4523 171.839 76.0228C172.042 76.5933 172.366 77.1133 172.788 77.5472C173.211 77.9812 173.721 78.319 174.286 78.5376C174.85 78.7563 175.455 78.8506 176.058 78.8142C177.305 78.8558 178.545 78.6226 179.692 78.1312L180.107 79.8536C178.7 80.4439 177.183 80.7225 175.658 80.6702C174.779 80.727 173.899 80.5931 173.077 80.2775C172.255 79.962 171.511 79.4723 170.895 78.842C170.28 78.2117 169.808 77.4556 169.511 76.6256C169.215 75.7956 169.101 74.9113 169.177 74.0331C169.177 70.0538 171.521 66.9209 175.347 66.9209C179.647 66.9209 180.789 70.7072 180.789 73.1274C180.859 73.4951 180.904 73.8672 180.923 74.241H171.61ZM178.624 72.5335C178.694 72.0551 178.661 71.5673 178.527 71.1027C178.394 70.6381 178.163 70.2074 177.85 69.8392C177.537 69.471 177.149 69.1739 176.712 68.9677C176.275 68.7615 175.8 68.6509 175.317 68.6433C174.329 68.7137 173.403 69.1523 172.723 69.8724C172.042 70.5925 171.655 71.542 171.639 72.5335H178.624Z" fill="#FF931E"/>
<path d="M183.889 71.3895C183.889 69.9047 183.889 68.509 183.785 67.2915H185.876L185.95 69.875H186.054C186.267 69.0559 186.736 68.3262 187.392 67.7922C188.048 67.2581 188.857 66.9475 189.702 66.9054C189.932 66.9028 190.162 66.9328 190.384 66.9945V69.2514C190.113 69.2186 189.839 69.2186 189.568 69.2514C188.752 69.2848 187.976 69.6155 187.386 70.1815C186.796 70.7475 186.433 71.5098 186.365 72.325C186.292 72.6918 186.252 73.0645 186.247 73.4386V80.4617H183.889V71.3895Z" fill="#FF931E"/>
<path d="M199.668 67.292L201.536 70.1131C202.025 70.8555 202.441 71.5979 202.871 72.2661H202.96C203.39 71.4791 203.82 70.7813 204.265 70.0834L206.133 67.292H208.714L204.265 73.6618L208.892 80.4622H206.133L204.205 77.4926C203.686 76.7354 203.256 76.0078 202.722 75.206C202.292 75.993 201.833 76.6908 201.343 77.4926L199.43 80.4622H196.791L201.462 73.7361L197.013 67.292H199.668Z" fill="#FF931E"/>
<path d="M216.514 72.2061V73.973H209.811V72.2061H216.514Z" fill="#FF931E"/>
<path d="M219.317 71.3897C219.317 69.9049 219.317 68.5092 219.213 67.2916H221.304L221.378 69.8752H221.497C221.705 69.0561 222.171 68.3256 222.825 67.791C223.479 67.2565 224.287 66.9461 225.13 66.9056C225.361 66.9019 225.59 66.9319 225.812 66.9947V69.2516C225.35 69.1506 224.872 69.1494 224.41 69.2483C223.947 69.3472 223.511 69.5437 223.131 69.8248C222.75 70.106 222.434 70.4651 222.204 70.8784C221.973 71.2916 221.833 71.7494 221.793 72.2212C221.725 72.5885 221.69 72.9612 221.69 73.3348V80.3579H219.317V71.3897Z" fill="#FF931E"/>
<path d="M235.363 80.4619L235.17 78.7989H235.081C234.613 79.4199 234.005 79.9212 233.306 80.2619C232.608 80.6025 231.839 80.7728 231.062 80.7589C230.545 80.7958 230.026 80.725 229.537 80.551C229.049 80.377 228.601 80.1034 228.224 79.7476C227.846 79.3919 227.546 78.9616 227.343 78.484C227.14 78.0063 227.038 77.4917 227.043 76.9726C227.043 73.7951 229.861 72.043 234.947 72.0727V71.8055C234.987 71.4058 234.937 71.0023 234.802 70.6242C234.666 70.2461 234.449 69.9027 234.166 69.6187C233.882 69.3347 233.539 69.1172 233.161 68.9819C232.784 68.8465 232.381 68.7966 231.981 68.8359C230.77 68.8333 229.583 69.1729 228.556 69.8158L228.007 68.2271C229.31 67.4455 230.804 67.0396 232.323 67.0541C236.356 67.0541 237.335 69.8158 237.335 72.4439V77.3735C237.315 78.4317 237.384 79.4897 237.543 80.5361L235.363 80.4619ZM235.007 73.7357C232.397 73.7357 229.431 74.1366 229.431 76.7053C229.407 77.0092 229.448 77.3147 229.553 77.601C229.657 77.8874 229.822 78.1479 230.035 78.3648C230.249 78.5818 230.507 78.7501 230.792 78.8583C231.077 78.9665 231.381 79.0121 231.685 78.9919C232.382 79.0087 233.066 78.8035 233.639 78.4059C234.212 78.0083 234.644 77.4388 234.873 76.7796C234.954 76.5348 234.999 76.2798 235.007 76.0223V73.7357Z" fill="#FF931E"/>
<path d="M241.828 67.292L244.69 75.0724C244.987 75.9336 245.313 76.9729 245.536 77.7599C245.773 76.9729 246.055 75.9633 246.381 75.013L248.976 67.292H251.512L247.923 76.676C246.203 81.1304 245.046 83.5061 243.474 84.9166C242.636 85.6831 241.615 86.2201 240.508 86.4757L239.915 84.4564C240.678 84.197 241.387 83.7994 242.006 83.2834C242.872 82.5665 243.558 81.6562 244.008 80.6256C244.109 80.4465 244.174 80.25 244.201 80.0465C244.177 79.8318 244.122 79.6218 244.038 79.4229L239.174 67.292H241.828Z" fill="#FF931E"/>
<path d="M262.486 63.5049V67.2911H265.897V69.1026H262.486V76.2148C262.486 77.8481 262.946 78.7687 264.266 78.7687C264.735 78.7726 265.204 78.7178 265.66 78.6054L265.764 80.402C265.083 80.643 264.364 80.7538 263.643 80.7286C263.166 80.7562 262.688 80.6802 262.243 80.506C261.797 80.3317 261.395 80.0633 261.063 79.719C260.336 78.7323 260.007 77.5075 260.143 76.2891V69.1026H258.037V67.2911H260.084V64.1285L262.486 63.5049Z" fill="#FF931E"/>
<path d="M280.282 73.7651C280.359 74.6664 280.246 75.574 279.95 76.4287C279.653 77.2833 279.181 78.066 278.562 78.7257C277.944 79.3854 277.194 79.9073 276.361 80.2576C275.528 80.6078 274.63 80.7785 273.727 80.7585C272.856 80.7677 271.992 80.5947 271.192 80.2506C270.391 79.9065 269.672 79.3988 269.078 78.76C268.485 78.1213 268.031 77.3656 267.747 76.5413C267.462 75.717 267.352 74.8422 267.424 73.9729C267.424 69.5185 270.301 66.9795 273.95 66.9795C277.598 66.9795 280.282 69.7858 280.282 73.7651ZM269.901 73.8987C269.901 76.7792 271.562 78.9619 273.89 78.9619C276.218 78.9619 277.894 76.8089 277.894 73.8393C277.894 71.6121 276.782 68.7761 273.95 68.7761C271.117 68.7761 269.901 71.3894 269.901 73.8987Z" fill="#FF931E"/>
<path d="M95.5332 96.6309H97.8763V115.933H95.5332V96.6309Z" fill="#FF931E"/>
<path d="M103.289 109.876C103.237 110.479 103.315 111.087 103.519 111.658C103.722 112.228 104.046 112.748 104.468 113.182C104.89 113.616 105.401 113.954 105.965 114.172C106.529 114.391 107.134 114.485 107.738 114.449C108.989 114.488 110.234 114.255 111.386 113.766L111.787 115.488C110.38 116.079 108.862 116.357 107.338 116.305C106.46 116.36 105.582 116.224 104.761 115.907C103.941 115.591 103.199 115.101 102.585 114.471C101.971 113.841 101.5 113.085 101.205 112.257C100.909 111.428 100.796 110.545 100.872 109.668C100.872 105.689 103.215 102.556 107.041 102.556C111.327 102.556 112.469 106.342 112.469 108.762C112.468 109.135 112.443 109.507 112.395 109.876H103.289ZM110.304 108.168C110.371 107.689 110.336 107.201 110.2 106.736C110.065 106.272 109.833 105.841 109.519 105.473C109.204 105.106 108.816 104.809 108.379 104.603C107.941 104.397 107.465 104.286 106.982 104.278C105.995 104.349 105.071 104.788 104.393 105.508C103.715 106.229 103.331 107.178 103.319 108.168H110.304Z" fill="#FF931E"/>
<path d="M122.864 115.963L122.672 114.33H122.583C122.119 114.935 121.522 115.424 120.837 115.759C120.153 116.094 119.4 116.266 118.638 116.26C118.121 116.297 117.602 116.226 117.113 116.052C116.624 115.878 116.177 115.604 115.8 115.249C115.422 114.893 115.122 114.463 114.919 113.985C114.716 113.507 114.614 112.993 114.619 112.474C114.619 109.296 117.437 107.544 122.523 107.574V107.306C122.563 106.907 122.513 106.503 122.378 106.125C122.242 105.747 122.025 105.404 121.741 105.12C121.458 104.836 121.115 104.618 120.737 104.483C120.36 104.348 119.957 104.298 119.557 104.337C118.351 104.336 117.169 104.676 116.147 105.317L115.598 103.728C116.86 102.927 118.316 102.485 119.81 102.451C123.828 102.451 124.807 105.213 124.807 107.841V112.845C124.791 113.903 124.866 114.961 125.03 116.007L122.864 115.963ZM122.509 109.237C119.898 109.237 116.933 109.638 116.933 112.206C116.908 112.51 116.95 112.816 117.054 113.102C117.159 113.388 117.323 113.649 117.537 113.866C117.751 114.083 118.009 114.251 118.294 114.359C118.578 114.468 118.883 114.513 119.187 114.493C119.884 114.51 120.568 114.304 121.141 113.907C121.714 113.509 122.146 112.94 122.375 112.281C122.455 112.036 122.5 111.781 122.509 111.523V109.237Z" fill="#FF931E"/>
<path d="M128.678 106.905C128.678 105.42 128.678 104.025 128.574 102.807H130.665V105.391H130.783C130.992 104.572 131.457 103.841 132.111 103.306C132.765 102.772 133.573 102.462 134.417 102.421C134.647 102.418 134.877 102.448 135.099 102.51V104.826C134.828 104.794 134.554 104.794 134.283 104.826C133.467 104.86 132.691 105.191 132.101 105.757C131.511 106.323 131.148 107.085 131.08 107.9C131.006 108.267 130.967 108.64 130.961 109.014V115.962H128.678V106.905Z" fill="#FF931E"/>
<path d="M137.679 106.356C137.679 104.99 137.679 103.876 137.561 102.792H139.681L139.815 104.96C140.247 104.176 140.886 103.526 141.664 103.084C142.441 102.641 143.325 102.422 144.219 102.451C146.043 102.451 148.876 103.55 148.876 108.063V115.933H146.473V108.39C146.473 106.267 145.687 104.5 143.507 104.5C142.775 104.491 142.059 104.721 141.468 105.155C140.877 105.588 140.442 106.203 140.23 106.905C140.118 107.266 140.063 107.641 140.067 108.019V115.963H137.679V106.356Z" fill="#FF931E"/>
<path d="M158.53 106.356C158.53 104.99 158.53 103.877 158.411 102.793H160.502L160.621 104.916C161.016 104.146 161.622 103.505 162.368 103.069C163.114 102.632 163.969 102.418 164.833 102.451C165.652 102.445 166.452 102.696 167.12 103.171C167.788 103.645 168.29 104.318 168.555 105.094C168.929 104.43 169.433 103.849 170.038 103.387C170.882 102.728 171.935 102.396 173.004 102.451C174.754 102.451 177.334 103.595 177.334 108.168V115.963H174.991V108.539C174.991 106.015 174.072 104.485 172.144 104.485C171.505 104.514 170.89 104.739 170.384 105.129C169.877 105.52 169.502 106.057 169.311 106.668C169.187 107.057 169.122 107.463 169.118 107.871V115.963H166.79V108.064C166.79 105.97 165.856 104.441 164.047 104.441C163.176 104.546 162.375 104.967 161.793 105.623C161.211 106.28 160.889 107.127 160.888 108.004V115.963H158.53V106.356Z" fill="#FF931E"/>
<path d="M193.098 109.267C193.178 110.169 193.066 111.077 192.771 111.933C192.475 112.789 192.003 113.573 191.384 114.233C190.765 114.893 190.014 115.415 189.18 115.764C188.346 116.114 187.447 116.283 186.543 116.26C185.672 116.27 184.809 116.097 184.008 115.753C183.208 115.408 182.488 114.901 181.895 114.262C181.301 113.623 180.848 112.868 180.563 112.043C180.278 111.219 180.168 110.344 180.241 109.475C180.241 105.02 183.118 102.481 186.766 102.481C190.414 102.481 193.098 105.243 193.098 109.267ZM182.717 109.401C182.717 112.281 184.378 114.464 186.721 114.464C189.064 114.464 190.711 112.311 190.711 109.341C190.711 107.114 189.598 104.278 186.766 104.278C183.933 104.278 182.658 106.906 182.658 109.401H182.717Z" fill="#FF931E"/>
<path d="M196.123 106.905C196.123 105.42 196.123 104.025 196.005 102.807H198.096L198.185 105.391H198.288C198.5 104.57 198.968 103.839 199.625 103.305C200.281 102.771 201.091 102.461 201.937 102.421C202.167 102.418 202.397 102.448 202.619 102.51V104.826C202.348 104.794 202.074 104.794 201.803 104.826C200.985 104.859 200.207 105.19 199.615 105.755C199.023 106.321 198.656 107.084 198.585 107.9C198.524 108.268 198.49 108.64 198.481 109.014V115.962H196.123V106.905Z" fill="#FF931E"/>
<path d="M206.133 109.875C206.101 110.469 206.194 111.062 206.407 111.617C206.619 112.172 206.945 112.676 207.365 113.097C207.785 113.517 208.288 113.844 208.842 114.056C209.397 114.269 209.99 114.362 210.582 114.33C211.829 114.371 213.069 114.138 214.216 113.647L214.631 115.369C213.247 115.949 211.756 116.227 210.256 116.186C209.378 116.24 208.499 116.104 207.678 115.788C206.857 115.472 206.114 114.982 205.499 114.352C204.884 113.722 204.412 112.967 204.114 112.138C203.817 111.31 203.701 110.426 203.775 109.549C203.775 105.569 206.119 102.437 209.945 102.437C214.245 102.437 215.387 106.223 215.387 108.643C215.383 109.016 215.353 109.388 215.298 109.757L206.133 109.875ZM213.148 108.168C213.217 107.689 213.184 107.202 213.051 106.737C212.917 106.273 212.686 105.842 212.373 105.474C212.06 105.105 211.673 104.808 211.236 104.602C210.799 104.396 210.324 104.285 209.841 104.278C208.861 104.343 207.94 104.769 207.256 105.474C206.571 106.178 206.171 107.111 206.133 108.094L213.148 108.168Z" fill="#FF931E"/>
<path d="M104.92 150.975C103.73 151.501 102.439 151.759 101.139 151.732C100.251 151.779 99.3645 151.636 98.5369 151.312C97.7094 150.989 96.9603 150.492 96.3399 149.855C95.7194 149.218 95.2418 148.457 94.939 147.62C94.6362 146.784 94.5151 145.893 94.5839 145.006C94.5514 144.074 94.7134 143.146 95.0595 142.281C95.4057 141.416 95.9284 140.633 96.5942 139.982C97.2601 139.33 98.0543 138.825 98.9262 138.499C99.7981 138.173 100.728 138.032 101.658 138.087C102.796 138.075 103.924 138.308 104.965 138.77L104.431 140.626C103.576 140.181 102.62 139.967 101.658 140.002C100.392 140.059 99.1955 140.6 98.3156 141.513C97.4357 142.426 96.9389 143.643 96.9275 144.912C96.9161 146.181 97.391 147.406 98.2543 148.334C99.1177 149.263 100.304 149.826 101.569 149.906C102.594 149.914 103.608 149.69 104.535 149.252L104.92 150.975Z" fill="#FF931E"/>
<path d="M107.723 132.147H110.111V140.373C110.513 139.663 111.103 139.078 111.816 138.681C112.56 138.248 113.403 138.012 114.263 137.998C116.028 137.998 118.86 139.096 118.86 143.64V151.45H116.517V143.877C116.517 141.754 115.731 139.958 113.551 139.958C112.836 139.975 112.143 140.214 111.57 140.642C110.996 141.071 110.569 141.667 110.348 142.348C110.219 142.715 110.164 143.103 110.185 143.491V151.45H107.723V132.147Z" fill="#FF931E"/>
<path d="M130.086 151.45L129.894 149.787C129.423 150.408 128.812 150.91 128.111 151.25C127.41 151.591 126.639 151.761 125.86 151.747C125.343 151.784 124.823 151.713 124.335 151.539C123.846 151.365 123.399 151.092 123.022 150.736C122.644 150.38 122.344 149.95 122.141 149.472C121.938 148.995 121.836 148.48 121.841 147.961C121.841 144.783 124.674 143.031 129.76 143.061V142.794C129.811 142.388 129.77 141.976 129.641 141.589C129.511 141.201 129.295 140.848 129.01 140.556C128.725 140.263 128.378 140.039 127.994 139.899C127.61 139.76 127.2 139.709 126.794 139.75C125.583 139.749 124.396 140.088 123.368 140.73L122.82 139.141C124.128 138.36 125.626 137.954 127.15 137.968C131.169 137.968 132.148 140.73 132.148 143.358V148.288C132.132 149.346 132.206 150.404 132.37 151.45H130.086ZM129.73 144.724C127.12 144.724 124.169 145.125 124.169 147.694C124.147 147.996 124.191 148.3 124.296 148.585C124.401 148.869 124.566 149.128 124.78 149.343C124.994 149.558 125.251 149.725 125.534 149.833C125.818 149.94 126.121 149.985 126.423 149.965C127.118 149.981 127.8 149.775 128.371 149.378C128.941 148.98 129.371 148.411 129.597 147.753C129.684 147.51 129.73 147.254 129.73 146.996V144.724Z" fill="#FF931E"/>
<path d="M135.915 142.392C135.915 140.907 135.915 139.512 135.796 138.294H137.917V140.878H138.02C138.245 140.071 138.719 139.357 139.375 138.837C140.03 138.316 140.833 138.017 141.668 137.982C141.905 137.983 142.139 138.018 142.365 138.086V140.343C142.098 140.286 141.824 140.261 141.55 140.269C140.732 140.302 139.954 140.632 139.362 141.198C138.769 141.764 138.403 142.526 138.332 143.343C138.271 143.711 138.236 144.083 138.228 144.456V151.45H135.915V142.392Z" fill="#FF931E"/>
<path d="M151.945 151.45L151.752 149.787C151.281 150.408 150.671 150.91 149.97 151.25C149.269 151.591 148.498 151.761 147.719 151.747C147.202 151.784 146.682 151.713 146.194 151.539C145.705 151.365 145.258 151.092 144.881 150.736C144.503 150.38 144.203 149.95 144 149.472C143.797 148.995 143.694 148.48 143.7 147.961C143.7 144.783 146.532 143.031 151.604 143.061V142.794C151.655 142.388 151.614 141.976 151.485 141.589C151.355 141.201 151.139 140.848 150.854 140.556C150.569 140.263 150.222 140.039 149.838 139.899C149.455 139.76 149.044 139.709 148.638 139.75C147.427 139.747 146.24 140.087 145.213 140.73L144.664 139.141C145.972 138.36 147.471 137.954 148.994 137.968C153.013 137.968 153.992 140.73 153.992 143.358V148.288C153.972 149.346 154.041 150.404 154.199 151.45H151.945ZM151.589 144.724C148.979 144.724 146.013 145.125 146.013 147.694C145.991 147.999 146.035 148.306 146.142 148.592C146.249 148.879 146.417 149.139 146.634 149.355C146.851 149.571 147.112 149.737 147.399 149.843C147.686 149.948 147.992 149.99 148.297 149.965C148.994 149.982 149.678 149.777 150.251 149.379C150.824 148.982 151.256 148.412 151.486 147.753C151.566 147.508 151.611 147.253 151.619 146.996L151.589 144.724Z" fill="#FF931E"/>
<path d="M167.131 150.975C165.947 151.503 164.66 151.762 163.364 151.732C162.477 151.779 161.59 151.636 160.762 151.312C159.935 150.989 159.186 150.492 158.565 149.855C157.945 149.218 157.467 148.457 157.165 147.62C156.862 146.784 156.741 145.893 156.81 145.006C156.777 144.074 156.939 143.146 157.285 142.281C157.631 141.416 158.154 140.633 158.82 139.982C159.486 139.33 160.28 138.825 161.152 138.499C162.024 138.173 162.954 138.032 163.883 138.087C165.022 138.075 166.149 138.308 167.19 138.77L166.642 140.626C165.793 140.179 164.841 139.964 163.883 140.002C162.617 140.059 161.421 140.6 160.541 141.513C159.661 142.426 159.164 143.643 159.153 144.912C159.142 146.181 159.617 147.406 160.48 148.334C161.343 149.263 162.529 149.826 163.794 149.906C164.819 149.914 165.833 149.69 166.76 149.252L167.131 150.975Z" fill="#FF931E"/>
<path d="M173.167 134.509V138.295H176.592V140.107H173.167V147.219C173.167 148.852 173.641 149.773 174.961 149.773C175.431 149.775 175.899 149.721 176.355 149.609L176.474 151.45C175.794 151.691 175.074 151.802 174.353 151.777C173.876 151.805 173.398 151.729 172.953 151.554C172.507 151.38 172.105 151.112 171.773 150.767C171.046 149.781 170.718 148.556 170.853 147.338V140.107H168.807V138.295H170.853V135.118L173.167 134.509Z" fill="#FF931E"/>
<path d="M180.463 145.303C180.408 145.907 180.485 146.515 180.687 147.087C180.89 147.659 181.213 148.18 181.636 148.614C182.059 149.049 182.57 149.387 183.136 149.604C183.701 149.822 184.307 149.915 184.912 149.876C186.163 149.915 187.408 149.682 188.56 149.193L188.96 150.915C187.576 151.495 186.085 151.773 184.586 151.732C183.708 151.786 182.829 151.651 182.009 151.334C181.189 151.018 180.447 150.528 179.833 149.898C179.219 149.267 178.748 148.512 178.453 147.683C178.157 146.854 178.043 145.971 178.12 145.095C178.12 141.115 180.448 137.982 184.289 137.982C188.575 137.982 189.717 141.769 189.717 144.189C189.74 144.56 189.74 144.932 189.717 145.303H180.463ZM187.477 143.595C187.545 143.116 187.509 142.628 187.374 142.163C187.239 141.699 187.006 141.268 186.692 140.9C186.378 140.532 185.99 140.236 185.552 140.029C185.115 139.823 184.639 139.713 184.155 139.705C183.169 139.775 182.245 140.215 181.567 140.935C180.888 141.656 180.505 142.605 180.493 143.595H187.477Z" fill="#FF931E"/>
<path d="M192.786 142.393C192.786 140.908 192.786 139.512 192.683 138.295H194.774L194.848 140.878H194.966C195.188 140.073 195.66 139.359 196.312 138.839C196.965 138.318 197.766 138.019 198.6 137.983C198.83 137.978 199.06 138.008 199.282 138.072V140.329C198.82 140.228 198.342 140.227 197.879 140.326C197.417 140.424 196.981 140.621 196.601 140.902C196.22 141.183 195.904 141.542 195.673 141.956C195.443 142.369 195.303 142.827 195.263 143.298C195.195 143.666 195.16 144.038 195.159 144.412V151.45H192.786V142.393Z" fill="#FF931E"/>
<path d="M204.413 134.582C204.413 134.976 204.257 135.354 203.979 135.632C203.701 135.911 203.323 136.067 202.93 136.067C202.537 136.067 202.159 135.911 201.881 135.632C201.603 135.354 201.447 134.976 201.447 134.582C201.447 134.189 201.603 133.811 201.881 133.533C202.159 133.254 202.537 133.098 202.93 133.098C203.323 133.098 203.701 133.254 203.979 133.533C204.257 133.811 204.413 134.189 204.413 134.582ZM201.684 151.45V138.294H204.072V151.45H201.684Z" fill="#FF931E"/>
<path d="M207.779 149.015C208.73 149.606 209.82 149.934 210.938 149.965C212.673 149.965 213.489 149.089 213.489 148.005C213.489 146.921 212.807 146.238 211.042 145.585C208.669 144.739 207.557 143.432 207.557 141.858C207.557 139.735 209.277 137.983 212.095 137.983C213.224 137.973 214.338 138.254 215.328 138.799L214.734 140.551C213.928 140.05 212.999 139.782 212.05 139.779C210.567 139.779 209.841 140.596 209.841 141.576C209.841 142.556 210.627 143.165 212.347 143.818C214.631 144.679 215.802 145.822 215.802 147.782C215.802 150.099 214.008 151.732 210.879 151.732C209.59 151.757 208.317 151.444 207.186 150.826L207.779 149.015Z" fill="#FF931E"/>
<path d="M221.749 134.509V138.295H225.175V140.107H221.749V147.219C221.749 148.852 222.209 149.773 223.543 149.773C224.008 149.776 224.471 149.721 224.922 149.609L225.041 151.406C224.361 151.646 223.641 151.756 222.92 151.733C222.443 151.761 221.965 151.686 221.52 151.511C221.074 151.337 220.672 151.068 220.34 150.723C219.634 149.728 219.327 148.504 219.48 147.293V140.107H217.448V138.295H219.48V135.118L221.749 134.509Z" fill="#FF931E"/>
<path d="M230.528 134.582C230.528 134.976 230.372 135.354 230.094 135.632C229.816 135.911 229.438 136.067 229.045 136.067C228.652 136.067 228.275 135.911 227.996 135.632C227.718 135.354 227.562 134.976 227.562 134.582C227.562 134.189 227.718 133.811 227.996 133.533C228.275 133.254 228.652 133.098 229.045 133.098C229.438 133.098 229.816 133.254 230.094 133.533C230.372 133.811 230.528 134.189 230.528 134.582ZM227.859 151.45V138.294H230.261V151.45H227.859Z" fill="#FF931E"/>
<path d="M243.608 150.975C242.418 151.501 241.127 151.759 239.826 151.732C238.939 151.779 238.052 151.636 237.225 151.312C236.397 150.989 235.648 150.492 235.028 149.855C234.407 149.218 233.929 148.457 233.627 147.62C233.324 146.784 233.203 145.893 233.272 145.006C233.239 144.074 233.401 143.146 233.747 142.281C234.093 141.416 234.616 140.633 235.282 139.982C235.948 139.33 236.742 138.825 237.614 138.499C238.486 138.173 239.416 138.032 240.345 138.087C241.484 138.075 242.611 138.308 243.652 138.77L243.118 140.626C242.263 140.181 241.308 139.967 240.345 140.002C239.079 140.059 237.883 140.6 237.003 141.513C236.123 142.426 235.627 143.643 235.615 144.912C235.604 146.181 236.079 147.406 236.942 148.334C237.805 149.263 238.991 149.826 240.256 149.906C241.281 149.914 242.295 149.69 243.222 149.252L243.608 150.975Z" fill="#FF931E"/>
<path d="M246.084 149.015C247.029 149.606 248.115 149.934 249.228 149.965C250.963 149.965 251.779 149.089 251.779 148.005C251.779 146.921 251.112 146.238 249.332 145.585C246.974 144.739 245.862 143.432 245.862 141.858C245.862 139.735 247.567 137.983 250.4 137.983C251.53 137.973 252.643 138.254 253.633 138.799L253.04 140.551C252.229 140.048 251.294 139.78 250.341 139.779C248.932 139.779 248.146 140.596 248.146 141.576C248.146 142.556 248.932 143.165 250.637 143.818C252.921 144.679 254.093 145.822 254.093 147.782C254.093 150.099 252.298 151.732 249.184 151.732C247.89 151.759 246.612 151.447 245.476 150.826L246.084 149.015Z" fill="#FF931E"/>
<path d="M274.839 144.768C274.917 145.669 274.803 146.577 274.507 147.432C274.211 148.286 273.738 149.069 273.12 149.729C272.502 150.388 271.752 150.91 270.918 151.261C270.085 151.611 269.188 151.781 268.285 151.761C267.413 151.771 266.55 151.598 265.749 151.254C264.949 150.909 264.229 150.402 263.636 149.763C263.042 149.124 262.589 148.369 262.304 147.544C262.019 146.72 261.91 145.845 261.982 144.976C261.982 140.521 264.859 137.982 268.507 137.982C272.155 137.982 274.839 140.744 274.839 144.768ZM264.458 144.902C264.458 147.782 266.119 149.965 268.448 149.965C270.776 149.965 272.452 147.812 272.452 144.842C272.452 142.615 271.339 139.779 268.507 139.779C265.675 139.779 264.399 142.392 264.399 144.902H264.458Z" fill="#FF931E"/>
<path d="M278.102 151.45V140.106H276.248V138.295H278.102V137.671C278.029 136.844 278.122 136.01 278.377 135.219C278.632 134.428 279.043 133.697 279.585 133.068C280.457 132.255 281.611 131.813 282.803 131.836C283.498 131.834 284.188 131.965 284.835 132.222L284.508 134.078C284.042 133.869 283.536 133.762 283.025 133.766C280.979 133.766 280.46 135.563 280.46 137.582V138.295H283.648V140.106H280.46V151.45H278.102Z" fill="#FF931E"/>
<path d="M98.4248 170.011V173.797H101.85V175.608H98.4248V182.721C98.4248 184.354 98.8845 185.275 100.219 185.275C100.684 185.278 101.147 185.223 101.598 185.111L101.702 186.908C101.022 187.149 100.303 187.26 99.5815 187.234C99.1042 187.262 98.6265 187.186 98.1812 187.012C97.7359 186.838 97.3334 186.569 97.0012 186.225C96.281 185.235 95.9534 184.013 96.0817 182.795V175.608H94.05V173.797H96.0817V170.634L98.4248 170.011Z" fill="#FF931E"/>
<path d="M104.535 167.635H106.937V175.861C107.344 175.149 107.939 174.563 108.657 174.168C109.4 173.731 110.243 173.496 111.104 173.485C112.869 173.485 115.687 174.584 115.687 179.127V186.967H113.344V179.394C113.344 177.271 112.558 175.475 110.303 175.475C109.586 175.491 108.891 175.73 108.315 176.158C107.739 176.586 107.309 177.182 107.085 177.865C106.962 178.233 106.911 178.621 106.937 179.008V186.967H104.535V167.635Z" fill="#FF931E"/>
<path d="M120.951 180.805C120.901 181.408 120.981 182.015 121.186 182.585C121.39 183.154 121.714 183.673 122.136 184.106C122.557 184.54 123.067 184.878 123.63 185.097C124.193 185.317 124.797 185.413 125.4 185.379C126.646 185.42 127.887 185.187 129.033 184.696L129.448 186.418C128.042 187.008 126.524 187.287 125 187.235C124.131 187.274 123.263 187.127 122.456 186.803C121.648 186.48 120.919 185.988 120.317 185.359C119.714 184.731 119.253 183.981 118.964 183.16C118.674 182.339 118.563 181.465 118.638 180.598C118.638 176.618 120.981 173.485 124.807 173.485C129.107 173.485 130.249 177.272 130.249 179.692C130.245 180.065 130.215 180.437 130.16 180.805H120.951ZM127.966 179.098C128.035 178.62 128.002 178.132 127.869 177.667C127.735 177.203 127.504 176.772 127.191 176.404C126.878 176.036 126.49 175.738 126.054 175.532C125.617 175.326 125.141 175.215 124.658 175.208C123.671 175.278 122.745 175.717 122.064 176.437C121.383 177.157 120.997 178.106 120.981 179.098H127.966Z" fill="#FF931E"/>
<path d="M138.999 167.635H141.401V175.861C141.808 175.149 142.404 174.563 143.122 174.168C143.864 173.731 144.708 173.496 145.569 173.485C147.333 173.485 150.151 174.584 150.151 179.127V186.967H147.808V179.394C147.808 177.271 147.022 175.475 144.842 175.475C144.126 175.49 143.432 175.728 142.858 176.157C142.284 176.585 141.858 177.182 141.639 177.865C141.503 178.23 141.447 178.62 141.476 179.008V186.967H138.999V167.635Z" fill="#FF931E"/>
<path d="M165.099 183.374C165.099 184.725 165.099 185.928 165.203 186.967H163.127L162.993 184.814C162.55 185.571 161.915 186.196 161.151 186.627C160.388 187.057 159.524 187.277 158.648 187.264C156.587 187.264 154.11 186.121 154.11 181.488V173.797H156.498V181.147C156.498 183.641 157.269 185.334 159.464 185.334C160.147 185.325 160.813 185.113 161.375 184.724C161.938 184.336 162.372 183.788 162.623 183.151C162.767 182.761 162.843 182.349 162.845 181.934V173.856H165.233L165.099 183.374Z" fill="#FF931E"/>
<path d="M169.059 177.36C169.059 175.994 169.059 174.88 168.94 173.796H171.046L171.15 175.92C171.543 175.167 172.139 174.54 172.871 174.11C173.602 173.679 174.439 173.463 175.287 173.485C176.106 173.478 176.907 173.73 177.575 174.204C178.243 174.678 178.745 175.351 179.01 176.127C179.374 175.457 179.88 174.874 180.493 174.42C181.337 173.761 182.39 173.429 183.458 173.485C185.194 173.485 187.774 174.628 187.774 179.201V186.967H185.431V179.543C185.431 177.018 184.511 175.489 182.584 175.489C181.945 175.518 181.33 175.742 180.823 176.133C180.317 176.523 179.942 177.061 179.751 177.672C179.632 178.061 179.572 178.467 179.573 178.874V187.011H177.23V179.067C177.23 176.974 176.311 175.444 174.487 175.444C173.616 175.55 172.814 175.97 172.232 176.627C171.65 177.283 171.329 178.13 171.328 179.008V186.967H169.059V177.36Z" fill="#FF931E"/>
<path d="M199.03 186.967L198.837 185.304H198.718C198.25 185.925 197.642 186.426 196.944 186.767C196.245 187.107 195.476 187.278 194.699 187.264C194.182 187.301 193.663 187.23 193.175 187.056C192.686 186.882 192.239 186.608 191.861 186.253C191.484 185.897 191.184 185.467 190.981 184.989C190.777 184.511 190.675 183.997 190.681 183.478C190.681 180.3 193.498 178.548 198.585 178.578V178.31C198.624 177.911 198.574 177.507 198.439 177.129C198.304 176.751 198.087 176.408 197.803 176.124C197.519 175.84 197.176 175.622 196.799 175.487C196.421 175.351 196.018 175.302 195.619 175.341C194.413 175.34 193.231 175.68 192.208 176.321L191.659 174.732C192.962 173.949 194.456 173.543 195.975 173.559C199.994 173.559 200.987 176.321 200.987 178.949V183.878C200.967 184.937 201.037 185.995 201.195 187.041L199.03 186.967ZM198.674 180.241C196.064 180.241 193.098 180.642 193.098 183.21C193.074 183.514 193.115 183.82 193.22 184.106C193.324 184.392 193.489 184.653 193.703 184.87C193.916 185.087 194.174 185.255 194.459 185.363C194.744 185.471 195.048 185.517 195.352 185.497C196.049 185.514 196.733 185.308 197.306 184.911C197.879 184.513 198.311 183.944 198.54 183.285C198.621 183.04 198.666 182.785 198.674 182.527V180.241Z" fill="#FF931E"/>
<path d="M204.843 177.36C204.843 175.994 204.843 174.881 204.739 173.797H206.86L206.993 175.965C207.427 175.194 208.061 174.556 208.83 174.119C209.598 173.682 210.47 173.463 211.353 173.485C213.162 173.485 215.995 174.584 215.995 179.097V186.967H213.607V179.365C213.607 177.241 212.807 175.475 210.552 175.475C209.827 175.487 209.125 175.731 208.548 176.172C207.972 176.613 207.552 177.227 207.349 177.924C207.237 178.285 207.182 178.661 207.186 179.038V186.967H204.798L204.843 177.36Z" fill="#FF931E"/>
<path d="M219.599 184.517C220.549 185.108 221.639 185.436 222.757 185.467C224.492 185.467 225.308 184.591 225.308 183.507C225.308 182.423 224.626 181.74 222.861 181.087C220.503 180.24 219.391 178.934 219.391 177.36C219.391 175.237 221.096 173.484 223.929 173.484C225.058 173.478 226.17 173.759 227.162 174.301L226.554 176.053C225.749 175.549 224.819 175.282 223.87 175.281C222.387 175.281 221.675 176.098 221.675 177.078C221.675 178.058 222.461 178.666 224.166 179.32C226.45 180.181 227.621 181.324 227.621 183.284C227.621 185.6 225.827 187.234 222.698 187.234C221.409 187.258 220.137 186.946 219.005 186.328L219.599 184.517Z" fill="#FF931E"/>
<path d="M248.353 180.271C248.433 181.172 248.322 182.079 248.027 182.933C247.733 183.788 247.262 184.571 246.644 185.231C246.027 185.891 245.278 186.413 244.446 186.764C243.613 187.114 242.716 187.285 241.813 187.264C240.942 187.274 240.079 187.101 239.278 186.756C238.478 186.412 237.758 185.905 237.165 185.266C236.571 184.627 236.118 183.871 235.833 183.047C235.548 182.223 235.439 181.348 235.511 180.479C235.511 176.024 238.388 173.485 242.021 173.485C245.654 173.485 248.353 176.247 248.353 180.271ZM237.973 180.405C237.973 183.285 239.619 185.468 241.962 185.468C244.305 185.468 245.951 183.315 245.951 180.345C245.951 178.118 244.839 175.282 242.021 175.282C239.203 175.282 237.928 177.895 237.928 180.405H237.973Z" fill="#FF931E"/>
<path d="M251.631 186.967V175.608H249.777V173.797H251.631V173.158C251.559 172.333 251.653 171.502 251.908 170.714C252.163 169.926 252.573 169.197 253.114 168.57C253.981 167.758 255.13 167.316 256.317 167.338C257.017 167.335 257.712 167.466 258.364 167.724L258.037 169.58C257.571 169.371 257.065 169.265 256.554 169.268C254.523 169.268 254.004 171.065 254.004 173.084V173.797H257.177V175.608H254.004V186.967H251.631Z" fill="#FF931E"/>
<path d="M265.319 186.967V175.608H263.48V173.797H265.319V173.218C265.286 172.372 265.435 171.529 265.755 170.745C266.075 169.962 266.558 169.255 267.172 168.674C268.366 167.728 269.864 167.253 271.384 167.338C272.751 167.304 274.105 167.605 275.329 168.214V186.967H272.956V169.55C272.342 169.273 271.67 169.151 270.998 169.194C268.507 169.194 267.691 171.02 267.691 173.143V173.797H270.761V175.608H267.691V186.967H265.319Z" fill="#FF931E"/>
<path d="M286.584 186.967L286.392 185.304H286.303C285.835 185.925 285.227 186.426 284.528 186.767C283.83 187.107 283.061 187.278 282.284 187.264C281.767 187.301 281.247 187.23 280.759 187.056C280.27 186.882 279.823 186.608 279.446 186.253C279.068 185.897 278.768 185.467 278.565 184.989C278.362 184.511 278.26 183.997 278.265 183.477C278.265 180.3 281.083 178.548 286.169 178.578V178.31C286.208 177.911 286.159 177.507 286.023 177.129C285.888 176.751 285.671 176.408 285.387 176.124C285.104 175.84 284.761 175.622 284.383 175.487C284.005 175.351 283.603 175.302 283.203 175.341C281.992 175.338 280.805 175.678 279.778 176.321L279.229 174.732C280.532 173.95 282.025 173.545 283.544 173.559C287.578 173.559 288.557 176.321 288.557 178.949V183.878C288.537 184.937 288.606 185.995 288.764 187.041L286.584 186.967ZM286.229 180.241C283.619 180.241 280.653 180.642 280.653 183.21C280.628 183.514 280.67 183.82 280.774 184.106C280.879 184.392 281.043 184.653 281.257 184.87C281.471 185.087 281.729 185.255 282.014 185.363C282.298 185.471 282.603 185.517 282.907 185.497C283.604 185.514 284.288 185.308 284.861 184.911C285.434 184.513 285.866 183.944 286.095 183.284C286.175 183.04 286.22 182.785 286.229 182.527V180.241Z" fill="#FF931E"/>
<path d="M295.112 170.011V173.797H298.537V175.608H295.112V182.721C295.112 184.354 295.571 185.275 296.906 185.275C297.371 185.278 297.834 185.223 298.285 185.111L298.404 186.908C297.723 187.148 297.004 187.258 296.283 187.234C295.806 187.263 295.328 187.188 294.882 187.013C294.437 186.839 294.034 186.57 293.703 186.225C292.971 185.24 292.637 184.015 292.768 182.795V175.608H290.737V173.797H292.768V170.634L295.112 170.011Z" fill="#FF931E"/>
</svg>
