<svg width="1730" height="1945" viewBox="0 0 1730 1945" fill="none" xmlns="http://www.w3.org/2000/svg">
<g id="Anatomy">
<g id="no-hover">
<path id="Vector" d="M807.503 247.248H631.198C612.45 247.248 597.178 231.983 597.178 213.243V71.6379C597.178 52.8979 612.45 37.6328 631.198 37.6328H807.503C826.25 37.6328 841.522 52.8979 841.522 71.6379V213.367C841.522 232.107 826.25 247.248 807.503 247.248Z" fill="#D6F6FF" stroke="#FF921E" stroke-width="7" stroke-miterlimit="10" stroke-linecap="round" stroke-linejoin="round"/>
<path id="Vector_2" d="M1096.42 508.988H875.541C856.793 508.988 841.522 493.722 841.522 474.982V38.0051C841.522 19.265 856.793 4 875.541 4H1096.42C1115.17 4 1130.44 19.265 1130.44 38.0051V474.982C1130.44 493.722 1115.29 508.988 1096.42 508.988Z" fill="#D6F6FF" stroke="#FF921E" stroke-width="7" stroke-miterlimit="10" stroke-linecap="round" stroke-linejoin="round"/>
<path id="Vector_3" d="M684.834 1480.74H178.019C159.271 1480.74 144 1465.47 144 1446.73V519.66C144 500.92 159.271 485.655 178.019 485.655H684.834C703.582 485.655 718.854 500.92 718.854 519.66V1446.61C718.854 1465.47 703.582 1480.74 684.834 1480.74Z" fill="#D6F6FF" stroke="#FF921E" stroke-width="7" stroke-miterlimit="10" stroke-linecap="round" stroke-linejoin="round"/>
<path id="Vector_4" d="M1175.63 961.353H829.106C810.358 961.353 795.087 946.088 795.087 927.348V665.112C795.087 646.372 810.358 631.107 829.106 631.107H1175.63C1194.38 631.107 1209.65 646.372 1209.65 665.112V927.473C1209.65 946.213 1194.38 961.353 1175.63 961.353Z" fill="#D6F6FF" stroke="#FF921E" stroke-width="7" stroke-miterlimit="10" stroke-linecap="round" stroke-linejoin="round"/>
<path id="Vector_5" d="M945.07 1251.27H793.472C774.725 1251.27 759.453 1236 759.453 1217.26V1026.14C759.453 1007.4 774.725 992.133 793.472 992.133H945.07C963.818 992.133 979.089 1007.4 979.089 1026.14V1217.26C979.089 1236 963.818 1251.27 945.07 1251.27Z" fill="#D6F6FF" stroke="#FF921E" stroke-width="7" stroke-miterlimit="10" stroke-linecap="round" stroke-linejoin="round"/>
<path id="Vector_6" d="M846.488 474.113C771.372 474.113 709.914 412.681 709.914 337.597V227.763C709.914 152.679 771.372 91.2461 846.488 91.2461C921.604 91.2461 983.063 152.679 983.063 227.763V337.597C983.063 412.681 921.604 474.113 846.488 474.113Z" stroke="#00BEFF" stroke-width="3" stroke-miterlimit="10"/>
<path id="Vector_7" d="M709.914 234.713C685.331 234.713 665.341 259.534 665.341 290.064C665.341 320.594 685.331 345.415 709.914 345.415" stroke="#00BEFF" stroke-width="3" stroke-miterlimit="10"/>
<path id="Vector_8" d="M983.063 345.54C1007.65 345.54 1027.64 320.718 1027.64 290.188C1027.64 259.658 1007.65 234.713 983.063 234.713" stroke="#00BEFF" stroke-width="3" stroke-miterlimit="10"/>
<g id="Group">
<g id="Group_2">
<path id="Vector_9" d="M880.384 1169.36V1943.28H1107.84C1133.54 1943.28 1154.4 1922.43 1154.4 1896.74C1154.4 1871.05 1133.54 1850.2 1107.84 1850.2H1087.36V724.808H1106.1L1378.01 1366.81C1378.13 1367.06 1378.13 1367.31 1378.26 1367.55L1400.23 1420.55C1405.08 1432.21 1418.49 1437.8 1430.28 1432.96C1441.83 1428.12 1447.42 1414.96 1442.82 1403.3L1443.44 1404.79C1448.28 1416.45 1461.69 1422.04 1473.49 1417.2C1485.16 1412.36 1490.75 1398.95 1485.9 1387.16L1476.59 1364.57L1462.44 1331.93L1486.28 1387.41C1491.12 1399.08 1504.53 1404.66 1516.32 1399.82C1527.99 1394.98 1533.58 1381.58 1528.74 1369.79L1506.76 1316.79C1506.51 1316.17 1506.14 1315.55 1505.65 1315.18L1487.15 1271.12L1529.73 1253.5C1538.67 1249.78 1542.89 1239.6 1539.17 1230.66L1537.93 1227.69C1534.2 1218.75 1524.02 1214.53 1515.08 1218.25L1472.37 1236L1208.29 615.843C1185.56 565.456 1146.95 536.663 1091.33 536.663C1055.45 536.663 905.464 536.663 905.464 536.663V461.455" stroke="#00BEFF" stroke-width="3" stroke-miterlimit="10" stroke-linecap="round" stroke-linejoin="round"/>
<path id="Vector_10" d="M1442.7 1403.3L1419.85 1345.96" stroke="#00BEFF" stroke-width="3" stroke-miterlimit="10" stroke-linecap="round"/>
</g>
<g id="Group_3">
<path id="Vector_11" d="M851.703 1169.35V1943.28H624.121C598.42 1943.28 577.561 1922.43 577.561 1896.74C577.561 1871.05 598.42 1850.2 624.121 1850.2H644.607V724.807H625.859L353.952 1366.81C353.828 1367.06 353.828 1367.3 353.704 1367.55L331.728 1420.55C326.885 1432.21 313.476 1437.8 301.681 1432.96C290.134 1428.12 284.547 1414.96 289.141 1403.29L288.52 1404.78C283.678 1416.45 270.269 1422.03 258.474 1417.19C246.803 1412.35 241.216 1398.95 246.058 1387.16L255.37 1364.57H255.246L245.686 1387.53C240.844 1399.2 227.434 1404.78 215.639 1399.94C203.969 1395.1 198.381 1381.7 203.224 1369.91L225.2 1316.92C225.448 1316.3 225.82 1315.68 226.317 1315.3L244.817 1271.25L202.23 1253.62C193.291 1249.9 189.07 1239.72 192.794 1230.79L194.036 1227.81C197.761 1218.87 207.942 1214.65 216.881 1218.38L259.591 1236.12L523.676 615.966C546.397 565.579 585.011 536.786 640.634 536.786C676.515 536.786 792.852 536.786 792.852 536.786V461.578" stroke="#00BEFF" stroke-width="3" stroke-miterlimit="10" stroke-linecap="round" stroke-linejoin="round"/>
<path id="Vector_12" d="M289.389 1403.3L312.11 1345.96" stroke="#00BEFF" stroke-width="3" stroke-miterlimit="10" stroke-linecap="round" stroke-linejoin="round"/>
<path id="Vector_13" d="M255.743 1363.71L270.518 1329.08" stroke="#00BEFF" stroke-width="3" stroke-miterlimit="10" stroke-linecap="round" stroke-linejoin="round"/>
</g>
<path id="Vector_14" d="M880.632 1169.85H851.951" stroke="#00BEFF" stroke-width="3" stroke-miterlimit="10" stroke-linecap="round" stroke-linejoin="round"/>
</g>
<path id="Vector_15" d="M751.259 276.536C759.702 270.207 780.063 262.761 796.949 275.916" stroke="#00BEFF" stroke-width="3" stroke-miterlimit="10" stroke-linecap="round" stroke-linejoin="round"/>
<path id="Vector_16" d="M776.711 289.196C782.197 289.196 786.644 284.751 786.644 279.267C786.644 273.784 782.197 269.339 776.711 269.339C771.226 269.339 766.779 273.784 766.779 279.267C766.779 284.751 771.226 289.196 776.711 289.196Z" fill="#00BEFF"/>
<path id="Vector_17" d="M877.9 276.536C886.343 270.207 906.705 262.761 923.591 275.916" stroke="#00BEFF" stroke-width="3" stroke-miterlimit="10" stroke-linecap="round" stroke-linejoin="round"/>
<path id="Vector_18" d="M874.3 239.553C884.729 231.734 909.933 222.427 930.792 238.809" stroke="#00BEFF" stroke-width="3" stroke-miterlimit="10" stroke-linecap="round" stroke-linejoin="round"/>
<path id="Vector_19" d="M899.628 289.196C905.114 289.196 909.561 284.751 909.561 279.267C909.561 273.784 905.114 269.339 899.628 269.339C894.142 269.339 889.695 273.784 889.695 279.267C889.695 284.751 894.142 289.196 899.628 289.196Z" fill="#00BEFF"/>
<path id="Vector_20" d="M796.825 399.526H914.527" stroke="#00BEFF" stroke-width="3" stroke-miterlimit="10" stroke-linecap="round" stroke-linejoin="round"/>
<path id="Vector_21" d="M815.945 272.565V348.642H839.039" stroke="#00BEFF" stroke-width="3" stroke-miterlimit="10" stroke-linecap="round" stroke-linejoin="round"/>
</g>
<g id="arm-hover">
<path id="Vector_22" d="M361.71 1654.87H44.4055C21.2002 1654.87 2.33813 1635.98 2.33813 1612.75V1588.15C2.33813 1564.92 21.2002 1546.04 44.4055 1546.04H361.71C384.915 1546.04 403.777 1564.92 403.777 1588.15V1612.75C403.901 1635.98 385.039 1654.87 361.71 1654.87Z" stroke="#FF921E" stroke-width="3" stroke-miterlimit="10"/>
<path id="Standardization and repetition" d="M28.7215 1586.99C32.7621 1586.99 34.4357 1584.51 34.4357 1582.11C34.4357 1578.84 32.2839 1577.84 30.0126 1577.24L27.8368 1576.66C26.4023 1576.26 25.2308 1575.3 25.2308 1573.79C25.2308 1572.53 25.948 1571.07 28.4346 1571.07C30.2516 1571.07 31.9731 1571.91 32.1883 1574.58L34.3162 1573.96C33.9815 1570.5 31.471 1569.2 28.3628 1569.2C25.0634 1569.2 22.9594 1571.48 22.9594 1573.99C22.9594 1576.62 24.7526 1578.05 27.1435 1578.7L29.4148 1579.29C30.7537 1579.65 32.1644 1580.18 32.1644 1582.43C32.1644 1584.58 30.2995 1585.13 28.6976 1585.13C26.1154 1585.13 24.9678 1583.31 24.5852 1581.28L22.4334 1581.71C22.8399 1584.51 24.633 1586.99 28.7215 1586.99ZM38.0488 1576.28H41.4678V1582.76C41.4678 1585.13 42.8306 1586.8 45.8192 1586.8C46.8712 1586.8 47.5407 1586.63 48.1623 1586.49V1584.63C47.4211 1584.77 46.5843 1584.84 45.7953 1584.84C44.2651 1584.84 43.5 1584.08 43.5 1582.47V1576.28H48.1623V1574.63H43.5V1570.64L41.4678 1571.5V1574.63H38.0488V1576.28ZM62.7018 1582.55V1579.32C62.7018 1575.87 61.315 1574.34 58.2308 1574.34C55.1943 1574.34 53.3294 1575.83 53.1143 1578.39H55.29C55.3856 1576.88 56.3898 1576.02 58.0873 1576.02C59.8566 1576.02 60.6456 1576.95 60.6456 1579.08V1579.29L58.4699 1579.56C56.4854 1579.8 55.1943 1580.11 54.4053 1580.54C53.3055 1581.16 52.7317 1582.11 52.7317 1583.36C52.7317 1585.41 54.3814 1586.87 56.7484 1586.87C58.709 1586.87 60 1586.08 60.789 1584.41C60.813 1585.13 60.8847 1585.92 60.9803 1586.59H63.1082C62.8213 1585.7 62.7018 1584.46 62.7018 1582.55ZM60.6695 1580.78V1581.37C60.6695 1583.72 59.2828 1585.2 57.131 1585.2C55.7203 1585.2 54.8835 1584.46 54.8835 1583.24C54.8835 1582.04 55.7442 1581.45 57.8243 1581.16L60.6695 1580.78ZM69.9729 1577V1574.63H68.0602V1586.59H70.0924V1580.35C70.0924 1578.65 70.738 1576.14 73.4397 1576.14C74.6352 1576.14 75.9262 1576.71 75.9262 1579.32V1586.59H77.9585V1579.2C77.9585 1577.26 77.5999 1576.11 76.8109 1575.37C75.998 1574.61 74.8982 1574.34 73.9179 1574.34C71.9095 1574.34 70.5945 1575.49 69.9729 1577ZM90.4179 1569.25V1576.4C89.8202 1575.23 88.6725 1574.34 87.0467 1574.34C83.8907 1574.34 81.8107 1576.83 81.8107 1580.58C81.8107 1584.39 83.7473 1586.87 86.7359 1586.87C88.6964 1586.87 89.8202 1585.92 90.5374 1584.36V1586.59H92.4502V1569.25H90.4179ZM90.4657 1580.32V1580.87C90.4657 1583.45 89.1985 1585.08 87.1663 1585.08C85.1818 1585.08 83.9625 1583.36 83.9625 1580.58C83.9625 1577.79 85.1818 1576.14 87.238 1576.14C89.2224 1576.14 90.4657 1577.76 90.4657 1580.32ZM107.181 1582.55V1579.32C107.181 1575.87 105.794 1574.34 102.71 1574.34C99.6735 1574.34 97.8086 1575.83 97.5934 1578.39H99.7691C99.8648 1576.88 100.869 1576.02 102.566 1576.02C104.336 1576.02 105.125 1576.95 105.125 1579.08V1579.29L102.949 1579.56C100.965 1579.8 99.6735 1580.11 98.8845 1580.54C97.7847 1581.16 97.2109 1582.11 97.2109 1583.36C97.2109 1585.41 98.8606 1586.87 101.228 1586.87C103.188 1586.87 104.479 1586.08 105.268 1584.41C105.292 1585.13 105.364 1585.92 105.459 1586.59H107.587C107.3 1585.7 107.181 1584.46 107.181 1582.55ZM105.149 1580.78V1581.37C105.149 1583.72 103.762 1585.2 101.61 1585.2C100.199 1585.2 99.3627 1584.46 99.3627 1583.24C99.3627 1582.04 100.223 1581.45 102.303 1581.16L105.149 1580.78ZM115.432 1577.74V1574.63H113.424V1586.59H115.456V1582.14C115.456 1578.24 117.751 1576.28 120.621 1576.28C121.481 1576.28 122.366 1576.4 122.844 1576.52V1574.63C122.342 1574.49 121.553 1574.39 120.692 1574.39C118.206 1574.39 116.245 1575.85 115.432 1577.74ZM134.897 1569.25V1576.4C134.299 1575.23 133.152 1574.34 131.526 1574.34C128.37 1574.34 126.29 1576.83 126.29 1580.58C126.29 1584.39 128.226 1586.87 131.215 1586.87C133.176 1586.87 134.299 1585.92 135.017 1584.36V1586.59H136.929V1569.25H134.897ZM134.945 1580.32V1580.87C134.945 1583.45 133.678 1585.08 131.645 1585.08C129.661 1585.08 128.442 1583.36 128.442 1580.58C128.442 1577.79 129.661 1576.14 131.717 1576.14C133.702 1576.14 134.945 1577.76 134.945 1580.32ZM30.1799 1598.37H27.3108V1601.24H30.1799V1598.37ZM24.107 1615.59H34.0054V1613.91H29.9647V1603.63H24.4657V1605.31H27.9325V1613.91H24.107V1615.59ZM38.3835 1614.03V1615.59H48.1862V1613.84H40.894L47.8276 1605.14V1603.63H38.6226V1605.35H45.3888L38.3835 1614.03ZM62.7018 1611.55V1608.32C62.7018 1604.87 61.315 1603.34 58.2308 1603.34C55.1943 1603.34 53.3294 1604.83 53.1143 1607.39H55.29C55.3856 1605.88 56.3898 1605.02 58.0873 1605.02C59.8566 1605.02 60.6456 1605.95 60.6456 1608.08V1608.29L58.4699 1608.56C56.4854 1608.8 55.1943 1609.11 54.4053 1609.54C53.3055 1610.16 52.7317 1611.11 52.7317 1612.36C52.7317 1614.41 54.3814 1615.87 56.7484 1615.87C58.709 1615.87 60 1615.08 60.789 1613.41C60.813 1614.13 60.8847 1614.92 60.9803 1615.59H63.1082C62.8213 1614.7 62.7018 1613.46 62.7018 1611.55ZM60.6695 1609.78V1610.37C60.6695 1612.72 59.2828 1614.2 57.131 1614.2C55.7203 1614.2 54.8835 1613.46 54.8835 1612.24C54.8835 1611.04 55.7442 1610.45 57.8243 1610.16L60.6695 1609.78ZM67.7015 1605.28H71.1205V1611.76C71.1205 1614.13 72.4833 1615.8 75.472 1615.8C76.524 1615.8 77.1934 1615.63 77.8151 1615.49V1613.63C77.0739 1613.77 76.2371 1613.84 75.4481 1613.84C73.9179 1613.84 73.1528 1613.08 73.1528 1611.47V1605.28H77.8151V1603.63H73.1528V1599.64L71.1205 1600.5V1603.63H67.7015V1605.28ZM89.4854 1598.37H86.6164V1601.24H89.4854V1598.37ZM83.4126 1615.59H93.3109V1613.91H89.2703V1603.63H83.7712V1605.31H87.238V1613.91H83.4126V1615.59ZM102.662 1615.87C106.009 1615.87 108.233 1613.41 108.233 1609.61C108.233 1605.81 106.009 1603.34 102.662 1603.34C99.3149 1603.34 97.0913 1605.81 97.0913 1609.61C97.0913 1613.36 99.3149 1615.87 102.662 1615.87ZM102.662 1614.1C100.51 1614.1 99.2431 1612.43 99.2431 1609.61C99.2431 1606.79 100.51 1605.11 102.662 1605.11C104.814 1605.11 106.081 1606.81 106.081 1609.61C106.081 1612.43 104.814 1614.1 102.662 1614.1ZM114.452 1606V1603.63H112.539V1615.59H114.572V1609.35C114.572 1607.65 115.217 1605.14 117.919 1605.14C119.114 1605.14 120.405 1605.71 120.405 1608.32V1615.59H122.438V1608.2C122.438 1606.26 122.079 1605.11 121.29 1604.37C120.477 1603.61 119.377 1603.34 118.397 1603.34C116.389 1603.34 115.074 1604.49 114.452 1606ZM33.049 1640.55V1637.32C33.049 1633.87 31.6623 1632.34 28.578 1632.34C25.5416 1632.34 23.6767 1633.83 23.4615 1636.39H25.6372C25.7328 1634.88 26.737 1634.02 28.4346 1634.02C30.2038 1634.02 30.9928 1634.95 30.9928 1637.08V1637.29L28.8171 1637.56C26.8327 1637.8 25.5416 1638.11 24.7526 1638.54C23.6528 1639.16 23.0789 1640.11 23.0789 1641.36C23.0789 1643.41 24.7287 1644.87 27.0957 1644.87C29.0562 1644.87 30.3473 1644.08 31.1363 1642.41C31.1602 1643.13 31.2319 1643.92 31.3276 1644.59H33.4555C33.1685 1643.7 33.049 1642.46 33.049 1640.55ZM31.0167 1638.78V1639.37C31.0167 1641.72 29.63 1643.2 27.4782 1643.2C26.0676 1643.2 25.2308 1642.46 25.2308 1641.24C25.2308 1640.04 26.0915 1639.45 28.1716 1639.16L31.0167 1638.78ZM40.3201 1635V1632.63H38.4074V1644.59H40.4397V1638.35C40.4397 1636.65 41.0852 1634.14 43.7869 1634.14C44.9824 1634.14 46.2735 1634.71 46.2735 1637.32V1644.59H48.3057V1637.2C48.3057 1635.26 47.9471 1634.11 47.1581 1633.37C46.3452 1632.61 45.2454 1632.34 44.2651 1632.34C42.2568 1632.34 40.9418 1633.49 40.3201 1635ZM60.7651 1627.25V1634.4C60.1674 1633.23 59.0198 1632.34 57.394 1632.34C54.238 1632.34 52.1579 1634.83 52.1579 1638.58C52.1579 1642.39 54.0945 1644.87 57.0831 1644.87C59.0437 1644.87 60.1674 1643.92 60.8847 1642.36V1644.59H62.7974V1627.25H60.7651ZM60.813 1638.32V1638.87C60.813 1641.45 59.5458 1643.08 57.5135 1643.08C55.5291 1643.08 54.3097 1641.36 54.3097 1638.58C54.3097 1635.79 55.5291 1634.14 57.5852 1634.14C59.5697 1634.14 60.813 1635.76 60.813 1638.32ZM26.474 1664.74V1661.63H24.4657V1673.59H26.4979V1669.14C26.4979 1665.24 28.7932 1663.28 31.6623 1663.28C32.523 1663.28 33.4076 1663.4 33.8858 1663.52V1661.63C33.3837 1661.49 32.5947 1661.39 31.734 1661.39C29.2475 1661.39 27.2869 1662.85 26.474 1664.74ZM48.3775 1667.23C48.3775 1663.97 46.9668 1661.34 43.3088 1661.34C39.9615 1661.34 37.8575 1663.71 37.8575 1667.37C37.8575 1671.29 39.6985 1673.87 43.4522 1673.87C45.6997 1673.87 47.3255 1672.84 48.3297 1670.86L46.6082 1669.95C46.0105 1671.1 45.0302 1672.08 43.4522 1672.08C41.2287 1672.08 39.9376 1670.38 39.9376 1668.13H48.3297C48.3536 1667.82 48.3775 1667.51 48.3775 1667.23ZM46.2735 1666.46H39.9376C39.9376 1664.72 41.0374 1662.92 43.2131 1662.92C45.3649 1662.92 46.3213 1664.55 46.2735 1666.46ZM55.3617 1661.63H53.449V1678.25H55.4812V1671.7C56.0312 1672.96 57.5135 1673.87 58.9959 1673.87C62.1758 1673.87 64.0885 1671.31 64.0885 1667.58C64.0885 1663.95 62.2475 1661.34 59.1154 1661.34C57.4179 1661.34 55.9833 1662.54 55.3617 1663.85V1661.63ZM55.4334 1667.87V1667.3C55.4334 1664.74 56.7245 1663.14 58.7329 1663.14C60.8369 1663.14 61.9367 1664.93 61.9367 1667.58C61.9367 1670.31 60.7412 1672.08 58.6611 1672.08C56.6528 1672.08 55.4334 1670.41 55.4334 1667.87ZM78.0302 1667.23C78.0302 1663.97 76.6196 1661.34 72.9615 1661.34C69.6143 1661.34 67.5103 1663.71 67.5103 1667.37C67.5103 1671.29 69.3513 1673.87 73.105 1673.87C75.3524 1673.87 76.9782 1672.84 77.9824 1670.86L76.261 1669.95C75.6632 1671.1 74.683 1672.08 73.105 1672.08C70.8814 1672.08 69.5904 1670.38 69.5904 1668.13H77.9824C78.0063 1667.82 78.0302 1667.51 78.0302 1667.23ZM75.9262 1666.46H69.5904C69.5904 1664.72 70.6902 1662.92 72.8659 1662.92C75.0177 1662.92 75.9741 1664.55 75.9262 1666.46ZM82.5279 1663.28H85.9469V1669.76C85.9469 1672.13 87.3097 1673.8 90.2984 1673.8C91.3503 1673.8 92.0198 1673.63 92.6414 1673.49V1671.63C91.9003 1671.77 91.0634 1671.84 90.2744 1671.84C88.7443 1671.84 87.9792 1671.08 87.9792 1669.47V1663.28H92.6414V1661.63H87.9792V1657.64L85.9469 1658.5V1661.63H82.5279V1663.28ZM104.312 1656.37H101.443V1659.24H104.312V1656.37ZM98.2389 1673.59H108.137V1671.91H104.097V1661.63H98.5976V1663.31H102.064V1671.91H98.2389V1673.59ZM112.181 1663.28H115.6V1669.76C115.6 1672.13 116.962 1673.8 119.951 1673.8C121.003 1673.8 121.673 1673.63 122.294 1673.49V1671.63C121.553 1671.77 120.716 1671.84 119.927 1671.84C118.397 1671.84 117.632 1671.08 117.632 1669.47V1663.28H122.294V1661.63H117.632V1657.64L115.6 1658.5V1661.63H112.181V1663.28ZM133.965 1656.37H131.096V1659.24H133.965V1656.37ZM127.892 1673.59H137.79V1671.91H133.749V1661.63H128.25V1663.31H131.717V1671.91H127.892V1673.59ZM28.5302 1702.87C31.8775 1702.87 34.101 1700.41 34.101 1696.61C34.101 1692.81 31.8775 1690.34 28.5302 1690.34C25.1829 1690.34 22.9594 1692.81 22.9594 1696.61C22.9594 1700.36 25.1829 1702.87 28.5302 1702.87ZM28.5302 1701.1C26.3784 1701.1 25.1112 1699.43 25.1112 1696.61C25.1112 1693.79 26.3784 1692.11 28.5302 1692.11C30.682 1692.11 31.9492 1693.81 31.9492 1696.61C31.9492 1699.43 30.682 1701.1 28.5302 1701.1ZM40.3201 1693V1690.63H38.4074V1702.59H40.4397V1696.35C40.4397 1694.65 41.0852 1692.14 43.7869 1692.14C44.9824 1692.14 46.2735 1692.71 46.2735 1695.32V1702.59H48.3057V1695.2C48.3057 1693.26 47.9471 1692.11 47.1581 1691.37C46.3452 1690.61 45.2454 1690.34 44.2651 1690.34C42.2568 1690.34 40.9418 1691.49 40.3201 1693Z" fill="#FF921E"/>
<path id="Vector_23" d="M597.734 1480.45L491.635 1586.66C483.444 1594.86 472.152 1599.58 460.487 1599.58H402.908" stroke="#FF921E" stroke-width="3" stroke-miterlimit="10"/>
<path id="Vector_24" d="M716.862 547.486H641.662C641.662 547.486 578.375 538.541 542.761 606.867L266.779 1250.62L214.536 1229.01C210.069 1227.14 205.105 1229.38 203.368 1233.85C201.755 1238.08 203.864 1242.92 207.959 1244.66L258.837 1267.27L214.412 1369.26C210.813 1377.34 212.675 1384.92 220.865 1388.27C228.807 1391.5 236.873 1387.77 240.223 1379.95L266.779 1317.83L282.663 1323.79L258.093 1384.67C254.742 1392.62 255.487 1401.69 263.429 1405.04C271.371 1408.27 279.437 1404.54 282.663 1396.72L309.343 1331.75L324.234 1338.7L298.795 1401.94C295.941 1409.64 298.795 1418.33 306.489 1421.44C314.182 1424.42 321.876 1420.82 324.978 1413.12L619.946 710.971H657.546V1477.34" stroke="#00BEFF" stroke-width="3" stroke-miterlimit="10" stroke-linecap="round"/>
<path id="Vector_25" d="M714.381 565.499H623.917C623.917 565.499 586.317 567.362 561.623 613.948L467.685 823.896C467.685 823.896 456.144 846.009 459.991 862.656C463.838 879.302 467.064 886.632 459.991 905.266C452.918 923.901 292.715 1290.25 292.715 1290.25C292.715 1290.25 285.765 1305.16 295.693 1309.01C305.62 1312.86 310.584 1298.08 310.584 1298.08L417.427 1059.43C417.427 1059.43 421.398 1049.12 436.662 1051.24C452.049 1053.47 457.882 1035.58 457.882 1035.58L596.245 707.866C596.245 707.866 603.194 691.095 619.946 691.095H654.568C654.568 691.095 675.291 690.101 675.291 716.81C675.291 743.52 675.291 834.58 675.291 834.58C675.291 834.58 670.328 862.283 713.388 861.538" stroke="#00BEFF" stroke-width="3" stroke-miterlimit="10" stroke-linecap="round"/>
<path id="Vector_26" d="M675.291 736.687C675.291 736.687 698 733.581 698 761.285C698 788.988 698 823.772 698 823.772" stroke="#00BEFF" stroke-width="3" stroke-miterlimit="10" stroke-linecap="round"/>
<path id="Vector_27" d="M512.606 905.888C512.606 905.888 522.037 892.471 507.27 851.475C494.364 815.821 511.613 780.292 511.613 780.292L583.339 622.769C583.339 622.769 595.252 587.115 628.881 587.115H716.862" stroke="#00BEFF" stroke-width="3" stroke-miterlimit="10" stroke-linecap="round"/>
<path id="Vector_28" d="M635.954 587.115C635.954 587.115 650.721 588.109 657.546 605.874C664.495 623.639 681.248 623.639 681.248 623.639H716.862" stroke="#00BEFF" stroke-width="3" stroke-miterlimit="10" stroke-linecap="round"/>
<path id="Vector_29" d="M716.862 1226.52C686.211 1226.52 675.291 1202.92 675.291 1178.07V964.151C675.291 939.305 686.211 915.701 716.862 915.701" stroke="#00BEFF" stroke-width="3" stroke-miterlimit="10" stroke-linecap="round"/>
<path id="Vector_30" d="M675.912 1144.9C690.058 1144.9 703.584 1138.69 703.584 1121.18V952.722" stroke="#00BEFF" stroke-width="3" stroke-miterlimit="10" stroke-linecap="round"/>
<path id="Vector_31" d="M410.106 1019.68C393.85 1013.22 383.054 1023.41 377.842 1036.58L326.219 1159.44" stroke="#00BEFF" stroke-width="3" stroke-miterlimit="10" stroke-linecap="round"/>
<path id="Vector_32" d="M502.058 927.503C485.802 921.043 475.006 931.23 469.794 944.398L437.902 1018.69" stroke="#00BEFF" stroke-width="3" stroke-miterlimit="10" stroke-linecap="round"/>
<path id="Vector_33" d="M464.458 953.343C457.509 950.61 452.918 954.958 450.684 960.548L437.034 992.351" stroke="#00BEFF" stroke-width="3" stroke-miterlimit="10" stroke-linecap="round"/>
<path id="Vector_34" d="M658.911 661.528C658.911 654.075 653.203 651.341 647.122 651.341L612.625 650.348" stroke="#00BEFF" stroke-width="3" stroke-miterlimit="10" stroke-linecap="round"/>
<path id="Vector_35" d="M366.425 1176.71C382.309 1184.16 382.309 1198.94 376.229 1211.86L344.089 1286.03" stroke="#00BEFF" stroke-width="3" stroke-miterlimit="10" stroke-linecap="round"/>
<path id="Vector_36" d="M368.411 1231.12C377.345 1235.34 377.345 1243.67 373.871 1250.87L355.877 1292.49" stroke="#00BEFF" stroke-width="3" stroke-miterlimit="10" stroke-linecap="round"/>
<path id="Vector_37" d="M407.996 1080.68C416.931 1084.9 416.931 1093.22 413.456 1100.43L395.463 1142.05" stroke="#00BEFF" stroke-width="3" stroke-miterlimit="10" stroke-linecap="round"/>
<path id="Vector_38" d="M406.011 1119.31C414.945 1123.54 414.945 1131.86 411.471 1139.07L393.478 1180.68" stroke="#00BEFF" stroke-width="3" stroke-miterlimit="10" stroke-linecap="round"/>
<path id="Vector_39" d="M537.549 765.881C546.483 770.105 546.483 778.428 543.009 785.633L525.015 827.25" stroke="#00BEFF" stroke-width="3" stroke-miterlimit="10" stroke-linecap="round"/>
<path id="Vector_40" d="M333.417 1191.62C324.234 1188.01 318.277 1193.73 315.299 1201.18L284.772 1273.23" stroke="#00BEFF" stroke-width="3" stroke-miterlimit="10" stroke-linecap="round"/>
<path id="Vector_41" d="M550.454 700.536C559.389 704.76 559.389 713.083 555.914 720.289L520.052 802.031" stroke="#00BEFF" stroke-width="3" stroke-miterlimit="10" stroke-linecap="round"/>
<path id="Vector_42" d="M701.599 1076.58C690.679 1076.58 686.708 1068.13 686.708 1059.31V998.314" stroke="#00BEFF" stroke-width="3" stroke-miterlimit="10" stroke-linecap="round"/>
<path id="Vector_43" d="M675.291 1484.67V1321.68C675.291 1296.84 686.211 1273.23 716.862 1273.23" stroke="#00BEFF" stroke-width="3" stroke-miterlimit="10" stroke-linecap="round"/>
<path id="Vector_44" d="M703.46 1478.96V1310.13" stroke="#00BEFF" stroke-width="3" stroke-miterlimit="10" stroke-linecap="round"/>
<path id="Vector_45" d="M701.599 1433.99C690.679 1433.99 686.708 1425.54 686.708 1416.72V1355.72" stroke="#00BEFF" stroke-width="3" stroke-miterlimit="10" stroke-linecap="round"/>
<path id="Vector_46" d="M467.685 823.771L404.397 972.225" stroke="#00BEFF" stroke-width="3" stroke-miterlimit="10" stroke-linecap="round"/>
<path id="Vector_47" d="M716.862 661.28H609.895C609.895 661.28 595.252 659.417 587.31 681.157" stroke="#00BEFF" stroke-width="3" stroke-miterlimit="10" stroke-linecap="round"/>
</g>
<g id="crotch-hover">
<path id="Vector_48" d="M1518.39 1256.96H1200.58C1177.34 1256.96 1158.45 1238.08 1158.45 1214.85V1190.25C1158.45 1167.02 1177.34 1148.13 1200.58 1148.13H1518.39C1541.63 1148.13 1560.53 1167.02 1560.53 1190.25V1214.85C1560.53 1238.08 1541.63 1256.96 1518.39 1256.96Z" fill="white" stroke="#FF921E" stroke-width="3" stroke-miterlimit="10" stroke-linecap="round" stroke-linejoin="round"/>
<path id="Expression over individual identity" d="M1185.67 1172.59H1175.75V1189.57H1185.84V1187.66H1177.98V1181.8H1185.27V1179.93H1177.98V1174.51H1185.67V1172.59ZM1195.46 1184.81L1198.61 1189.57H1201.03L1196.77 1183.55L1200.72 1177.62H1198.23L1195.5 1182.09L1192.61 1177.62H1190.22L1194.24 1183.4L1189.91 1189.57H1192.32L1195.46 1184.81ZM1207.49 1177.62H1205.57V1194.23H1207.6V1187.68C1208.15 1188.95 1209.64 1189.86 1211.12 1189.86C1214.3 1189.86 1216.21 1187.3 1216.21 1183.57C1216.21 1179.93 1214.37 1177.33 1211.24 1177.33C1209.54 1177.33 1208.11 1178.52 1207.49 1179.84V1177.62ZM1207.56 1183.86V1183.28C1207.56 1180.72 1208.85 1179.12 1210.86 1179.12C1212.96 1179.12 1214.06 1180.92 1214.06 1183.57C1214.06 1186.29 1212.86 1188.06 1210.78 1188.06C1208.78 1188.06 1207.56 1186.39 1207.56 1183.86ZM1223.08 1180.72V1177.62H1221.07V1189.57H1223.1V1185.12C1223.1 1181.23 1225.4 1179.27 1228.27 1179.27C1229.13 1179.27 1230.01 1179.39 1230.49 1179.5V1177.62C1229.99 1177.47 1229.2 1177.38 1228.34 1177.38C1225.85 1177.38 1223.89 1178.84 1223.08 1180.72ZM1244.98 1183.21C1244.98 1179.96 1243.57 1177.33 1239.91 1177.33C1236.56 1177.33 1234.46 1179.7 1234.46 1183.35C1234.46 1187.28 1236.3 1189.86 1240.06 1189.86C1242.3 1189.86 1243.93 1188.83 1244.93 1186.84L1243.21 1185.94C1242.61 1187.08 1241.63 1188.06 1240.06 1188.06C1237.83 1188.06 1236.54 1186.37 1236.54 1184.12H1244.93C1244.96 1183.81 1244.98 1183.5 1244.98 1183.21ZM1242.88 1182.45H1236.54C1236.54 1180.7 1237.64 1178.91 1239.82 1178.91C1241.97 1178.91 1242.92 1180.53 1242.88 1182.45ZM1255.07 1189.86C1257.99 1189.86 1259.66 1188.47 1259.66 1186.2C1259.66 1184.31 1258.73 1183.07 1256.36 1182.8L1254.45 1182.59C1252.97 1182.42 1252.3 1181.8 1252.3 1180.77C1252.3 1179.62 1253.23 1178.98 1254.81 1178.98C1256.44 1178.98 1257.42 1179.98 1257.68 1181.42L1259.69 1180.96C1259.42 1178.76 1257.58 1177.33 1254.86 1177.33C1252.04 1177.33 1250.31 1178.69 1250.31 1180.87C1250.31 1182.71 1251.44 1184.05 1253.81 1184.31L1255.74 1184.53C1257.03 1184.67 1257.65 1185.19 1257.65 1186.39C1257.65 1187.51 1256.77 1188.18 1255.17 1188.18C1253.4 1188.18 1252.28 1187.28 1251.96 1185.53L1249.91 1185.89C1250.34 1188.45 1252.23 1189.86 1255.07 1189.86ZM1269.9 1189.86C1272.82 1189.86 1274.49 1188.47 1274.49 1186.2C1274.49 1184.31 1273.56 1183.07 1271.19 1182.8L1269.28 1182.59C1267.8 1182.42 1267.13 1181.8 1267.13 1180.77C1267.13 1179.62 1268.06 1178.98 1269.64 1178.98C1271.26 1178.98 1272.24 1179.98 1272.51 1181.42L1274.51 1180.96C1274.25 1178.76 1272.41 1177.33 1269.68 1177.33C1266.86 1177.33 1265.14 1178.69 1265.14 1180.87C1265.14 1182.71 1266.26 1184.05 1268.63 1184.31L1270.57 1184.53C1271.86 1184.67 1272.48 1185.19 1272.48 1186.39C1272.48 1187.51 1271.6 1188.18 1269.99 1188.18C1268.23 1188.18 1267.1 1187.28 1266.79 1185.53L1264.73 1185.89C1265.17 1188.45 1267.05 1189.86 1269.9 1189.86ZM1286.09 1172.36H1283.22V1175.22H1286.09V1172.36ZM1280.02 1189.57H1289.91V1187.9H1285.87V1177.62H1280.37V1179.29H1283.84V1187.9H1280.02V1189.57ZM1180.65 1218.86C1184 1218.86 1186.22 1216.39 1186.22 1212.59C1186.22 1208.79 1184 1206.33 1180.65 1206.33C1177.31 1206.33 1175.08 1208.79 1175.08 1212.59C1175.08 1216.35 1177.31 1218.86 1180.65 1218.86ZM1180.65 1217.09C1178.5 1217.09 1177.23 1215.41 1177.23 1212.59C1177.23 1209.77 1178.5 1208.1 1180.65 1208.1C1182.81 1208.1 1184.07 1209.8 1184.07 1212.59C1184.07 1215.41 1182.81 1217.09 1180.65 1217.09ZM1192.44 1208.98V1206.62H1190.53V1218.57H1192.56V1212.33C1192.56 1210.63 1193.21 1208.12 1195.91 1208.12C1197.11 1208.12 1198.4 1208.7 1198.4 1211.3V1218.57H1200.43V1211.18C1200.43 1209.25 1200.07 1208.1 1199.28 1207.36C1198.47 1206.59 1197.37 1206.33 1196.39 1206.33C1194.38 1206.33 1193.07 1207.48 1192.44 1208.98ZM1225.13 1218.86C1228.48 1218.86 1230.7 1216.39 1230.7 1212.59C1230.7 1208.79 1228.48 1206.33 1225.13 1206.33C1221.79 1206.33 1219.56 1208.79 1219.56 1212.59C1219.56 1216.35 1221.79 1218.86 1225.13 1218.86ZM1225.13 1217.09C1222.98 1217.09 1221.71 1215.41 1221.71 1212.59C1221.71 1209.77 1222.98 1208.1 1225.13 1208.1C1227.28 1208.1 1228.55 1209.8 1228.55 1212.59C1228.55 1215.41 1227.28 1217.09 1225.13 1217.09ZM1238.84 1218.57H1241.04L1245.84 1206.62H1243.76L1240.53 1214.79C1240.29 1215.39 1240.13 1215.99 1240.01 1216.49H1239.91C1239.77 1215.99 1239.55 1215.39 1239.31 1214.79L1236.18 1206.62H1234.05L1238.84 1218.57ZM1259.81 1212.21C1259.81 1208.96 1258.4 1206.33 1254.74 1206.33C1251.39 1206.33 1249.29 1208.7 1249.29 1212.35C1249.29 1216.28 1251.13 1218.86 1254.88 1218.86C1257.13 1218.86 1258.75 1217.83 1259.76 1215.84L1258.04 1214.94C1257.44 1216.08 1256.46 1217.06 1254.88 1217.06C1252.66 1217.06 1251.37 1215.37 1251.37 1213.12H1259.76C1259.78 1212.81 1259.81 1212.5 1259.81 1212.21ZM1257.7 1211.45H1251.37C1251.37 1209.7 1252.47 1207.91 1254.64 1207.91C1256.79 1207.91 1257.75 1209.53 1257.7 1211.45ZM1267.56 1209.72V1206.62H1265.55V1218.57H1267.58V1214.12C1267.58 1210.23 1269.88 1208.27 1272.74 1208.27C1273.6 1208.27 1274.49 1208.39 1274.97 1208.5V1206.62C1274.47 1206.47 1273.68 1206.38 1272.82 1206.38C1270.33 1206.38 1268.37 1207.84 1267.56 1209.72ZM1182.3 1230.36H1179.43V1233.22H1182.3V1230.36ZM1176.23 1247.57H1186.13V1245.9H1182.09V1235.62H1176.59V1237.29H1180.06V1245.9H1176.23V1247.57ZM1192.44 1237.98V1235.62H1190.53V1247.57H1192.56V1241.33C1192.56 1239.63 1193.21 1237.12 1195.91 1237.12C1197.11 1237.12 1198.4 1237.7 1198.4 1240.3V1247.57H1200.43V1240.18C1200.43 1238.25 1200.07 1237.1 1199.28 1236.36C1198.47 1235.59 1197.37 1235.33 1196.39 1235.33C1194.38 1235.33 1193.07 1236.48 1192.44 1237.98ZM1212.89 1230.24V1237.39C1212.29 1236.21 1211.14 1235.33 1209.52 1235.33C1206.36 1235.33 1204.28 1237.82 1204.28 1241.57C1204.28 1245.37 1206.22 1247.86 1209.21 1247.86C1211.17 1247.86 1212.29 1246.9 1213.01 1245.35V1247.57H1214.92V1230.24H1212.89ZM1212.94 1241.31V1241.86C1212.94 1244.44 1211.67 1246.06 1209.64 1246.06C1207.65 1246.06 1206.43 1244.34 1206.43 1241.57C1206.43 1238.77 1207.65 1237.12 1209.71 1237.12C1211.69 1237.12 1212.94 1238.75 1212.94 1241.31ZM1226.78 1230.36H1223.91V1233.22H1226.78V1230.36ZM1220.71 1247.57H1230.61V1245.9H1226.57V1235.62H1221.07V1237.29H1224.54V1245.9H1220.71V1247.57ZM1238.84 1247.57H1241.04L1245.84 1235.62H1243.76L1240.53 1243.79C1240.29 1244.39 1240.13 1244.99 1240.01 1245.49H1239.91C1239.77 1244.99 1239.55 1244.39 1239.31 1243.79L1236.18 1235.62H1234.05L1238.84 1247.57ZM1256.44 1230.36H1253.57V1233.22H1256.44V1230.36ZM1250.36 1247.57H1260.26V1245.9H1256.22V1235.62H1250.72V1237.29H1254.19V1245.9H1250.36V1247.57ZM1272.19 1230.24V1237.39C1271.6 1236.21 1270.45 1235.33 1268.82 1235.33C1265.67 1235.33 1263.59 1237.82 1263.59 1241.57C1263.59 1245.37 1265.52 1247.86 1268.51 1247.86C1270.47 1247.86 1271.6 1246.9 1272.31 1245.35V1247.57H1274.23V1230.24H1272.19ZM1272.24 1241.31V1241.86C1272.24 1244.44 1270.97 1246.06 1268.94 1246.06C1266.96 1246.06 1265.74 1244.34 1265.74 1241.57C1265.74 1238.77 1266.96 1237.12 1269.01 1237.12C1271 1237.12 1272.24 1238.75 1272.24 1241.31ZM1287.24 1245.3V1247.57H1289.15V1235.62H1287.12V1241.86C1287.12 1243.6 1286.52 1246.11 1284.01 1246.11C1282.76 1246.11 1281.52 1245.54 1281.52 1242.93V1235.62H1279.44V1243C1279.44 1244.94 1279.78 1246.06 1280.54 1246.81C1281.38 1247.59 1282.5 1247.86 1283.6 1247.86C1285.37 1247.86 1286.78 1246.49 1287.24 1245.3ZM1185.17 1272.53V1269.3C1185.17 1265.86 1183.79 1264.33 1180.7 1264.33C1177.67 1264.33 1175.8 1265.81 1175.59 1268.37H1177.76C1177.86 1266.86 1178.86 1266 1180.56 1266C1182.33 1266 1183.12 1266.93 1183.12 1269.06V1269.28L1180.94 1269.54C1178.96 1269.78 1177.67 1270.09 1176.88 1270.52C1175.78 1271.14 1175.2 1272.1 1175.2 1273.34C1175.2 1275.4 1176.85 1276.86 1179.22 1276.86C1181.18 1276.86 1182.47 1276.07 1183.26 1274.39C1183.28 1275.11 1183.36 1275.9 1183.45 1276.57H1185.58C1185.29 1275.69 1185.17 1274.44 1185.17 1272.53ZM1183.14 1270.76V1271.36C1183.14 1273.7 1181.75 1275.18 1179.6 1275.18C1178.19 1275.18 1177.35 1274.44 1177.35 1273.22C1177.35 1272.03 1178.22 1271.43 1180.3 1271.14L1183.14 1270.76ZM1191.06 1276.57H1200.96V1274.9H1196.91V1259.24H1191.3V1260.91H1194.88V1274.9H1191.06V1276.57ZM1182.3 1288.36H1179.43V1291.22H1182.3V1288.36ZM1176.23 1305.57H1186.13V1303.9H1182.09V1293.62H1176.59V1295.29H1180.06V1303.9H1176.23V1305.57ZM1198.06 1288.24V1295.39C1197.46 1294.21 1196.32 1293.33 1194.69 1293.33C1191.54 1293.33 1189.46 1295.82 1189.46 1299.57C1189.46 1303.37 1191.39 1305.86 1194.38 1305.86C1196.34 1305.86 1197.46 1304.9 1198.18 1303.35V1305.57H1200.09V1288.24H1198.06ZM1198.11 1299.31V1299.86C1198.11 1302.44 1196.84 1304.06 1194.81 1304.06C1192.83 1304.06 1191.61 1302.34 1191.61 1299.57C1191.61 1296.77 1192.83 1295.12 1194.88 1295.12C1196.87 1295.12 1198.11 1296.75 1198.11 1299.31ZM1215.33 1299.21C1215.33 1295.96 1213.92 1293.33 1210.26 1293.33C1206.91 1293.33 1204.81 1295.7 1204.81 1299.35C1204.81 1303.28 1206.65 1305.86 1210.4 1305.86C1212.65 1305.86 1214.28 1304.83 1215.28 1302.84L1213.56 1301.94C1212.96 1303.08 1211.98 1304.06 1210.4 1304.06C1208.18 1304.06 1206.89 1302.37 1206.89 1300.12H1215.28C1215.3 1299.81 1215.33 1299.5 1215.33 1299.21ZM1213.22 1298.45H1206.89C1206.89 1296.7 1207.99 1294.91 1210.16 1294.91C1212.31 1294.91 1213.27 1296.53 1213.22 1298.45ZM1222.1 1295.98V1293.62H1220.18V1305.57H1222.22V1299.33C1222.22 1297.63 1222.86 1295.12 1225.56 1295.12C1226.76 1295.12 1228.05 1295.7 1228.05 1298.3V1305.57H1230.08V1298.18C1230.08 1296.25 1229.72 1295.1 1228.93 1294.36C1228.12 1293.59 1227.02 1293.33 1226.04 1293.33C1224.03 1293.33 1222.72 1294.48 1222.1 1295.98ZM1234.65 1295.27H1238.07V1301.74C1238.07 1304.11 1239.43 1305.79 1242.42 1305.79C1243.47 1305.79 1244.14 1305.62 1244.77 1305.47V1303.61C1244.02 1303.75 1243.19 1303.82 1242.4 1303.82C1240.87 1303.82 1240.1 1303.06 1240.1 1301.46V1295.27H1244.77V1293.62H1240.1V1289.62L1238.07 1290.48V1293.62H1234.65V1295.27ZM1256.44 1288.36H1253.57V1291.22H1256.44V1288.36ZM1250.36 1305.57H1260.26V1303.9H1256.22V1293.62H1250.72V1295.29H1254.19V1303.9H1250.36V1305.57ZM1264.3 1295.27H1267.72V1301.74C1267.72 1304.11 1269.09 1305.79 1272.07 1305.79C1273.13 1305.79 1273.8 1305.62 1274.42 1305.47V1303.61C1273.68 1303.75 1272.84 1303.82 1272.05 1303.82C1270.52 1303.82 1269.76 1303.06 1269.76 1301.46V1295.27H1274.42V1293.62H1269.76V1289.62L1267.72 1290.48V1293.62H1264.3V1295.27ZM1281.26 1293.62H1278.96L1283.63 1305.43L1283.31 1306.31C1282.76 1307.89 1282.02 1308.54 1280.57 1308.54C1280.3 1308.54 1280.02 1308.51 1279.7 1308.49V1310.28C1280.09 1310.35 1280.45 1310.38 1280.8 1310.38C1282.81 1310.38 1284.25 1309.37 1285.35 1306.34L1290.13 1293.62H1287.95L1284.63 1303.2L1281.26 1293.62Z" fill="#FF921E"/>
<path id="?" d="M833.81 1044.33L832.398 1044.46C832.459 1045.13 832.989 1045.67 833.663 1045.74L833.81 1044.33ZM848.505 1045.87L848.357 1047.28C848.831 1047.33 849.298 1047.14 849.6 1046.77C849.903 1046.4 850.001 1045.91 849.86 1045.45L848.505 1045.87ZM866.872 1051.79L867.855 1052.82L867.859 1052.81L866.872 1051.79ZM860.947 1057.48L859.965 1056.46C859.958 1056.47 859.951 1056.47 859.944 1056.48L860.947 1057.48ZM853.482 1076.56H852.063C852.063 1077.34 852.698 1077.98 853.482 1077.98V1076.56ZM867.228 1076.56V1077.98C868.011 1077.98 868.646 1077.34 868.646 1076.56H867.228ZM872.323 1062.46L871.341 1061.44L871.338 1061.44L872.323 1062.46ZM878.249 1056.77L879.231 1057.79L879.24 1057.79L878.249 1056.77ZM869.953 1082.96H871.372C871.372 1082.18 870.737 1081.54 869.953 1081.54V1082.96ZM851.586 1082.96V1081.54C850.802 1081.54 850.167 1082.18 850.167 1082.96H851.586ZM851.586 1100.74H850.167C850.167 1101.52 850.802 1102.15 851.586 1102.15V1100.74ZM869.953 1100.74V1102.15C870.737 1102.15 871.372 1101.52 871.372 1100.74H869.953ZM833.663 1045.74L848.357 1047.28L848.653 1044.46L833.958 1042.92L833.663 1045.74ZM849.86 1045.45C849.445 1044.1 849.212 1041.77 849.212 1040.18H846.375C846.375 1041.91 846.616 1044.56 847.149 1046.29L849.86 1045.45ZM849.212 1040.18C849.212 1035.79 850.513 1032.69 852.573 1030.7C854.642 1028.69 857.657 1027.62 861.421 1027.62V1024.78C857.128 1024.78 853.329 1026.01 850.599 1028.66C847.859 1031.32 846.375 1035.22 846.375 1040.18H849.212ZM861.421 1027.62C864.874 1027.62 867.717 1028.66 869.678 1030.4C871.621 1032.13 872.801 1034.63 872.801 1037.81H875.638C875.638 1033.88 874.151 1030.58 871.562 1028.28C868.99 1025.99 865.434 1024.78 861.421 1024.78V1027.62ZM872.801 1037.81C872.801 1043.58 869.539 1047.24 865.886 1050.77L867.859 1052.81C871.552 1049.24 875.638 1044.84 875.638 1037.81H872.801ZM865.89 1050.77L859.965 1056.46L861.93 1058.51L867.855 1052.82L865.89 1050.77ZM859.944 1056.48C854.077 1062.35 852.063 1067.07 852.063 1072.3H854.9C854.9 1068.04 856.442 1063.99 861.95 1058.49L859.944 1056.48ZM852.063 1072.3V1076.56H854.9V1072.3H852.063ZM853.482 1077.98H867.228V1075.14H853.482V1077.98ZM868.646 1076.56V1074.55H865.809V1076.56H868.646ZM868.646 1074.55C868.646 1069.73 870.14 1066.54 873.309 1063.48L871.338 1061.44C867.634 1065.02 865.809 1068.94 865.809 1074.55H868.646ZM873.306 1063.48L879.231 1057.79L877.266 1055.75L871.341 1061.44L873.306 1063.48ZM879.24 1057.79C884.553 1052.59 890.569 1046.05 890.569 1036.98H887.732C887.732 1044.74 882.609 1050.52 877.257 1055.76L879.24 1057.79ZM890.569 1036.98C890.569 1029.42 887.707 1023.4 882.553 1019.3C877.442 1015.23 870.221 1013.17 861.658 1013.17V1016C869.805 1016 876.33 1017.97 880.787 1021.52C885.203 1025.03 887.732 1030.2 887.732 1036.98H890.569ZM861.658 1013.17C852.521 1013.17 845.108 1015.67 839.959 1020.15C834.791 1024.65 832.036 1031.04 832.036 1038.52H834.874C834.874 1031.78 837.333 1026.2 841.823 1022.29C846.331 1018.36 853.021 1016 861.658 1016V1013.17ZM832.036 1038.52C832.036 1039.9 832.28 1043.16 832.398 1044.46L835.223 1044.2C835.104 1042.89 834.874 1039.75 834.874 1038.52H832.036ZM869.953 1081.54H851.586V1084.38H869.953V1081.54ZM850.167 1082.96V1100.74H853.004V1082.96H850.167ZM851.586 1102.15H869.953V1099.32H851.586V1102.15ZM871.372 1100.74V1082.96H868.535V1100.74H871.372Z" fill="#00BEFF"/>
<path id="Vector_49" d="M979.096 1119.31L1047.95 1188.14C1055.91 1196.09 1066.6 1200.44 1077.78 1200.44H1158.45" stroke="#FF921E" stroke-width="3" stroke-miterlimit="10" stroke-linecap="round" stroke-linejoin="round"/>
<path id="Vector_50" d="M842.501 1250.75V1159.44H891.347V1250.75" stroke="#00BEFF" stroke-width="3" stroke-miterlimit="10" stroke-linecap="round" stroke-linejoin="round"/>
</g>
<g id="head-hover">
<path id="Vector_51" d="M463.858 242.142H171.092C147.875 242.142 129.003 223.259 129.003 200.029V175.431C129.003 152.2 147.875 133.317 171.092 133.317H463.858C487.076 133.317 505.948 152.2 505.948 175.431V200.029C505.948 223.259 487.2 242.142 463.858 242.142Z" stroke="#FF921E" stroke-width="3" stroke-miterlimit="10" stroke-linecap="round" stroke-linejoin="round"/>
<path id="Culturally and emotionaly neutral" d="M160.092 172.207C164.013 172.207 165.878 169.649 166.236 166.302L164.037 165.847C163.845 168.645 162.626 170.295 160.259 170.295C157.701 170.295 156.338 168.095 156.338 163.791V162.572C156.338 158.268 157.605 156.332 160.259 156.332C162.602 156.332 163.845 157.981 164.037 160.755L166.26 160.396C165.83 156.356 163.821 154.419 160.283 154.419C156.218 154.419 154.043 157.503 154.043 162.691V163.935C154.043 169.123 156.051 172.207 160.092 172.207ZM177.787 169.529V171.801H179.7V159.846H177.667V166.087C177.667 167.832 177.07 170.342 174.559 170.342C173.316 170.342 172.073 169.769 172.073 167.162V159.846H169.993V167.234C169.993 169.171 170.327 170.295 171.092 171.036C171.929 171.825 173.053 172.088 174.153 172.088C175.922 172.088 177.333 170.725 177.787 169.529ZM185.393 171.801H195.291V170.127H191.251V154.467H185.632V156.14H189.218V170.127H185.393V171.801ZM199.335 161.496H202.754V167.975C202.754 170.342 204.116 172.016 207.105 172.016C208.157 172.016 208.826 171.849 209.448 171.705V169.84C208.707 169.984 207.87 170.055 207.081 170.055C205.551 170.055 204.786 169.29 204.786 167.688V161.496H209.448V159.846H204.786V155.853L202.754 156.714V159.846H199.335V161.496ZM222.266 169.529V171.801H224.179V159.846H222.147V166.087C222.147 167.832 221.549 170.342 219.038 170.342C217.795 170.342 216.552 169.769 216.552 167.162V159.846H214.472V167.234C214.472 169.171 214.807 170.295 215.572 171.036C216.408 171.825 217.532 172.088 218.632 172.088C220.401 172.088 221.812 170.725 222.266 169.529ZM232.239 162.954V159.846H230.231V171.801H232.263V167.354C232.263 163.457 234.558 161.496 237.427 161.496C238.288 161.496 239.173 161.616 239.651 161.735V159.846C239.149 159.703 238.36 159.607 237.499 159.607C235.012 159.607 233.052 161.066 232.239 162.954ZM253.64 167.76V164.532C253.64 161.09 252.254 159.559 249.169 159.559C246.133 159.559 244.268 161.042 244.053 163.6H246.229C246.324 162.094 247.328 161.233 249.026 161.233C250.795 161.233 251.584 162.165 251.584 164.293V164.509L249.408 164.772C247.424 165.011 246.133 165.321 245.344 165.752C244.244 166.373 243.67 167.33 243.67 168.573C243.67 170.629 245.32 172.088 247.687 172.088C249.648 172.088 250.939 171.299 251.728 169.625C251.752 170.342 251.823 171.131 251.919 171.801H254.047C253.76 170.916 253.64 169.673 253.64 167.76ZM251.608 165.991V166.589C251.608 168.932 250.221 170.414 248.07 170.414C246.659 170.414 245.822 169.673 245.822 168.454C245.822 167.258 246.683 166.66 248.763 166.373L251.608 165.991ZM259.525 171.801H269.423V170.127H265.382V154.467H259.764V156.14H263.35V170.127H259.525V171.801ZM155.74 200.801H165.638V199.127H161.598V183.467H155.979V185.14H159.566V199.127H155.74V200.801ZM171.81 188.846H169.514L174.177 200.657L173.866 201.542C173.316 203.12 172.575 203.765 171.116 203.765C170.853 203.765 170.566 203.742 170.256 203.718V205.511C170.638 205.583 170.997 205.606 171.355 205.606C173.364 205.606 174.798 204.602 175.898 201.566L180.68 188.846H178.504L175.181 198.434L171.81 188.846ZM209.161 196.76V193.532C209.161 190.09 207.774 188.559 204.69 188.559C201.654 188.559 199.789 190.042 199.574 192.6H201.749C201.845 191.094 202.849 190.233 204.547 190.233C206.316 190.233 207.105 191.165 207.105 193.293V193.509L204.929 193.772C202.945 194.011 201.654 194.321 200.865 194.752C199.765 195.373 199.191 196.33 199.191 197.573C199.191 199.629 200.841 201.088 203.208 201.088C205.168 201.088 206.459 200.299 207.248 198.625C207.272 199.342 207.344 200.131 207.44 200.801H209.568C209.281 199.916 209.161 198.673 209.161 196.76ZM207.129 194.991V195.589C207.129 197.932 205.742 199.414 203.59 199.414C202.18 199.414 201.343 198.673 201.343 197.454C201.343 196.258 202.204 195.66 204.284 195.373L207.129 194.991ZM216.432 191.213V188.846H214.52V200.801H216.552V194.561C216.552 192.863 217.197 190.353 219.899 190.353C221.095 190.353 222.386 190.926 222.386 193.532V200.801H224.418V193.413C224.418 191.476 224.059 190.329 223.27 189.587C222.457 188.822 221.358 188.559 220.377 188.559C218.369 188.559 217.054 189.707 216.432 191.213ZM236.877 183.467V190.616C236.28 189.444 235.132 188.559 233.506 188.559C230.35 188.559 228.27 191.046 228.27 194.8C228.27 198.601 230.207 201.088 233.195 201.088C235.156 201.088 236.28 200.131 236.997 198.577V200.801H238.91V183.467H236.877ZM236.925 194.537V195.087C236.925 197.669 235.658 199.295 233.626 199.295C231.641 199.295 230.422 197.573 230.422 194.8C230.422 192.002 231.641 190.353 233.697 190.353C235.682 190.353 236.925 191.978 236.925 194.537ZM165.184 223.441C165.184 220.189 163.774 217.559 160.115 217.559C156.768 217.559 154.664 219.926 154.664 223.584C154.664 227.506 156.505 230.088 160.259 230.088C162.506 230.088 164.132 229.06 165.136 227.075L163.415 226.167C162.817 227.314 161.837 228.295 160.259 228.295C158.035 228.295 156.744 226.597 156.744 224.35H165.136C165.16 224.039 165.184 223.728 165.184 223.441ZM163.08 222.676H156.744C156.744 220.931 157.844 219.137 160.02 219.137C162.172 219.137 163.128 220.763 163.08 222.676ZM170.566 219.687V217.846H168.654V229.801H170.686V221.887C170.686 220.452 171.164 219.353 172.551 219.353C173.316 219.353 173.962 219.831 173.962 221.289V229.801H175.946V221.887C175.946 220.381 176.448 219.353 177.859 219.353C178.552 219.353 179.269 219.759 179.269 221.289V229.801H181.302V221.122C181.302 218.587 179.963 217.559 178.48 217.559C177.309 217.559 176.233 218.348 175.659 219.735C175.253 218.348 174.344 217.559 173.173 217.559C171.977 217.559 171.045 218.396 170.566 219.687ZM189.816 230.088C193.163 230.088 195.387 227.625 195.387 223.824C195.387 220.022 193.163 217.559 189.816 217.559C186.469 217.559 184.245 220.022 184.245 223.824C184.245 227.577 186.469 230.088 189.816 230.088ZM189.816 228.318C187.664 228.318 186.397 226.645 186.397 223.824C186.397 221.002 187.664 219.329 189.816 219.329C191.968 219.329 193.235 221.026 193.235 223.824C193.235 226.645 191.968 228.318 189.816 228.318ZM199.335 219.496H202.754V225.975C202.754 228.342 204.116 230.016 207.105 230.016C208.157 230.016 208.826 229.849 209.448 229.705V227.84C208.707 227.984 207.87 228.055 207.081 228.055C205.551 228.055 204.786 227.29 204.786 225.688V219.496H209.448V217.846H204.786V213.853L202.754 214.714V217.846H199.335V219.496ZM221.119 212.586H218.249V215.455H221.119V212.586ZM215.046 229.801H224.944V228.127H220.903V217.846H215.404V219.52H218.871V228.127H215.046V229.801ZM234.295 230.088C237.642 230.088 239.866 227.625 239.866 223.824C239.866 220.022 237.642 217.559 234.295 217.559C230.948 217.559 228.724 220.022 228.724 223.824C228.724 227.577 230.948 230.088 234.295 230.088ZM234.295 228.318C232.143 228.318 230.876 226.645 230.876 223.824C230.876 221.002 232.143 219.329 234.295 219.329C236.447 219.329 237.714 221.026 237.714 223.824C237.714 226.645 236.447 228.318 234.295 228.318ZM246.085 220.213V217.846H244.172V229.801H246.205V223.561C246.205 221.863 246.85 219.353 249.552 219.353C250.747 219.353 252.038 219.926 252.038 222.532V229.801H254.071V222.413C254.071 220.476 253.712 219.329 252.923 218.587C252.11 217.822 251.01 217.559 250.03 217.559C248.022 217.559 246.707 218.707 246.085 220.213ZM268.467 225.76V222.532C268.467 219.09 267.08 217.559 263.996 217.559C260.959 217.559 259.094 219.042 258.879 221.6H261.055C261.151 220.094 262.155 219.233 263.852 219.233C265.622 219.233 266.411 220.165 266.411 222.293V222.509L264.235 222.772C262.25 223.011 260.959 223.321 260.17 223.752C259.07 224.373 258.497 225.33 258.497 226.573C258.497 228.629 260.146 230.088 262.513 230.088C264.474 230.088 265.765 229.299 266.554 227.625C266.578 228.342 266.65 229.131 266.745 229.801H268.873C268.586 228.916 268.467 227.673 268.467 225.76ZM266.434 223.991V224.589C266.434 226.932 265.048 228.414 262.896 228.414C261.485 228.414 260.648 227.673 260.648 226.454C260.648 225.258 261.509 224.66 263.589 224.373L266.434 223.991ZM155.74 258.801H165.638V257.127H161.598V241.467H155.979V243.14H159.566V257.127H155.74V258.801ZM171.81 246.846H169.514L174.177 258.657L173.866 259.542C173.316 261.12 172.575 261.765 171.116 261.765C170.853 261.765 170.566 261.742 170.256 261.718V263.511C170.638 263.583 170.997 263.606 171.355 263.606C173.364 263.606 174.798 262.602 175.898 259.566L180.68 246.846H178.504L175.181 256.434L171.81 246.846ZM157.127 278.213V275.846H155.214V287.801H157.246V281.561C157.246 279.863 157.892 277.353 160.594 277.353C161.789 277.353 163.08 277.926 163.08 280.532V287.801H165.112V280.413C165.112 278.476 164.754 277.329 163.965 276.587C163.152 275.822 162.052 275.559 161.072 275.559C159.063 275.559 157.748 276.707 157.127 278.213ZM180.011 281.441C180.011 278.189 178.6 275.559 174.942 275.559C171.595 275.559 169.491 277.926 169.491 281.584C169.491 285.506 171.332 288.088 175.085 288.088C177.333 288.088 178.959 287.06 179.963 285.075L178.241 284.167C177.644 285.314 176.663 286.295 175.085 286.295C172.862 286.295 171.571 284.597 171.571 282.35H179.963C179.987 282.039 180.011 281.728 180.011 281.441ZM177.907 280.676H171.571C171.571 278.931 172.67 277.137 174.846 277.137C176.998 277.137 177.954 278.763 177.907 280.676ZM192.613 285.529V287.801H194.526V275.846H192.494V282.087C192.494 283.832 191.896 286.342 189.386 286.342C188.142 286.342 186.899 285.769 186.899 283.162V275.846H184.819V283.234C184.819 285.171 185.154 286.295 185.919 287.036C186.756 287.825 187.879 288.088 188.979 288.088C190.748 288.088 192.159 286.725 192.613 285.529ZM199.335 277.496H202.754V283.975C202.754 286.342 204.116 288.016 207.105 288.016C208.157 288.016 208.826 287.849 209.448 287.705V285.84C208.707 285.984 207.87 286.055 207.081 286.055C205.551 286.055 204.786 285.29 204.786 283.688V277.496H209.448V275.846H204.786V271.853L202.754 272.714V275.846H199.335V277.496ZM217.413 278.954V275.846H215.404V287.801H217.437V283.354C217.437 279.457 219.732 277.496 222.601 277.496C223.462 277.496 224.346 277.616 224.824 277.735V275.846C224.322 275.703 223.533 275.607 222.673 275.607C220.186 275.607 218.226 277.066 217.413 278.954ZM238.814 283.76V280.532C238.814 277.09 237.427 275.559 234.343 275.559C231.307 275.559 229.442 277.042 229.226 279.6H231.402C231.498 278.094 232.502 277.233 234.2 277.233C235.969 277.233 236.758 278.165 236.758 280.293V280.509L234.582 280.772C232.598 281.011 231.307 281.321 230.518 281.752C229.418 282.373 228.844 283.33 228.844 284.573C228.844 286.629 230.494 288.088 232.861 288.088C234.821 288.088 236.112 287.299 236.901 285.625C236.925 286.342 236.997 287.131 237.093 287.801H239.22C238.934 286.916 238.814 285.673 238.814 283.76ZM236.782 281.991V282.589C236.782 284.932 235.395 286.414 233.243 286.414C231.833 286.414 230.996 285.673 230.996 284.454C230.996 283.258 231.856 282.66 233.937 282.373L236.782 281.991ZM244.698 287.801H254.597V286.127H250.556V270.467H244.937V272.14H248.524V286.127H244.698V287.801Z" fill="#FF921E"/>
<path id="Vector_52" d="M505.948 188.102H545.058C552.88 188.102 560.329 184.996 565.916 179.406L598.818 146.485" stroke="#FF921E" stroke-width="3" stroke-miterlimit="10" stroke-linecap="round" stroke-linejoin="round"/>
<path id="Vector_53" d="M722.729 244.751V229.222C722.729 162.511 775.62 107.602 841.424 104.496" stroke="#00BEFF" stroke-width="3" stroke-miterlimit="10" stroke-linecap="round" stroke-linejoin="round"/>
<path id="Vector_54" d="M841.424 122.013C793.374 124.87 753.395 159.654 741.476 205.619C741.476 205.619 735.144 227.732 755.878 227.732C776.613 227.732 839.065 227.732 839.065 227.732" stroke="#00BEFF" stroke-width="3" stroke-miterlimit="10" stroke-linecap="round" stroke-linejoin="round"/>
<path id="Vector_55" d="M781.455 144.871H812.991C812.991 144.871 824.166 144.622 824.166 153.567C824.166 161.518 816.22 161.518 816.22 161.518C816.22 161.518 806.287 161.518 806.287 170.462C806.287 177.419 811.377 178.91 815.723 178.91C820.068 178.91 838.941 179.034 838.941 179.034" stroke="#00BEFF" stroke-width="3" stroke-miterlimit="10" stroke-linecap="round" stroke-linejoin="round"/>
<path id="Vector_56" d="M781.703 173.319H764.694C755.754 173.319 748.429 180.649 748.429 189.593C748.429 198.538 755.754 205.867 764.694 205.867H785.304C794.243 205.867 801.569 213.197 801.569 222.141V227.608" stroke="#00BEFF" stroke-width="3" stroke-miterlimit="10" stroke-linecap="round" stroke-linejoin="round"/>
<path id="Vector_57" d="M771.647 188.102H782.2C790.271 188.102 796.851 181.518 796.851 173.443C796.851 165.368 790.271 158.784 782.2 158.784H766.805" stroke="#00BEFF" stroke-width="3" stroke-miterlimit="10" stroke-linecap="round" stroke-linejoin="round"/>
<path id="Vector_58" d="M803.307 196.053H825.531C830.746 196.053 834.967 200.277 834.967 205.494C834.967 210.712 830.746 214.936 825.531 214.936H816.22" stroke="#00BEFF" stroke-width="3" stroke-miterlimit="10" stroke-linecap="round" stroke-linejoin="round"/>
</g>
<g id="heart-hover">
<path id="Vector_59" d="M1007.73 702.537C995.946 693.716 979.193 696.077 970.259 707.879L955.119 727.879L939.98 707.879C931.045 696.077 914.293 693.716 902.504 702.537C890.467 711.481 888.234 728.501 897.292 740.427L954.995 815.585V815.71L955.119 815.585L955.243 815.71V815.585L1012.95 740.427C1022.01 728.625 1019.77 711.605 1007.73 702.537Z" fill="#00BEFF"/>
<path id="Vector_60" d="M1623.85 774.714H1396.27C1377.78 774.714 1362.76 759.682 1362.76 741.172V663.777C1362.76 645.267 1377.78 630.235 1396.27 630.235H1623.85C1642.34 630.235 1657.36 645.267 1657.36 663.777V741.172C1657.36 759.682 1642.34 774.714 1623.85 774.714Z" stroke="#FF921E" stroke-width="3" stroke-miterlimit="10" stroke-linecap="round" stroke-linejoin="round"/>
<g id="Group_4">
<path id="Friendly, approachable, inviting" d="M1400.55 650.849H1390.15V667.824H1392.37V660.102H1399.9V658.189H1392.37V652.762H1400.55V650.849ZM1407.58 658.978V655.87H1405.57V667.824H1407.6V663.377C1407.6 659.48 1409.9 657.519 1412.77 657.519C1413.63 657.519 1414.51 657.639 1414.99 657.759V655.87C1414.49 655.726 1413.7 655.631 1412.84 655.631C1410.35 655.631 1408.39 657.089 1407.58 658.978ZM1426.11 650.61H1423.24V653.479H1426.11V650.61ZM1420.04 667.824H1429.94V666.151H1425.9V655.87H1420.4V657.543H1423.86V666.151H1420.04V667.824ZM1444.31 661.464C1444.31 658.213 1442.9 655.583 1439.24 655.583C1435.89 655.583 1433.79 657.95 1433.79 661.608C1433.79 665.529 1435.63 668.111 1439.38 668.111C1441.63 668.111 1443.26 667.083 1444.26 665.099L1442.54 664.19C1441.94 665.338 1440.96 666.318 1439.38 666.318C1437.16 666.318 1435.87 664.62 1435.87 662.373H1444.26C1444.28 662.062 1444.31 661.751 1444.31 661.464ZM1442.2 660.699H1435.87C1435.87 658.954 1436.97 657.161 1439.14 657.161C1441.3 657.161 1442.25 658.787 1442.2 660.699ZM1451.08 658.237V655.87H1449.17V667.824H1451.2V661.584C1451.2 659.886 1451.84 657.376 1454.54 657.376C1455.74 657.376 1457.03 657.95 1457.03 660.556V667.824H1459.06V660.436C1459.06 658.5 1458.7 657.352 1457.92 656.611C1457.1 655.846 1456 655.583 1455.02 655.583C1453.01 655.583 1451.7 656.73 1451.08 658.237ZM1471.52 650.49V657.639C1470.93 656.467 1469.78 655.583 1468.15 655.583C1465 655.583 1462.92 658.069 1462.92 661.823C1462.92 665.625 1464.85 668.111 1467.84 668.111C1469.8 668.111 1470.93 667.155 1471.64 665.601V667.824H1473.56V650.49H1471.52ZM1471.57 661.56V662.11C1471.57 664.692 1470.3 666.318 1468.27 666.318C1466.29 666.318 1465.07 664.597 1465.07 661.823C1465.07 659.026 1466.29 657.376 1468.34 657.376C1470.33 657.376 1471.57 659.002 1471.57 661.56ZM1479.34 667.824H1489.24V666.151H1485.2V650.49H1479.58V652.164H1483.17V666.151H1479.34V667.824ZM1495.41 655.87H1493.12L1497.78 667.681L1497.47 668.565C1496.92 670.143 1496.18 670.789 1494.72 670.789C1494.46 670.789 1494.17 670.765 1493.86 670.741V672.534C1494.24 672.606 1494.6 672.63 1494.96 672.63C1496.97 672.63 1498.4 671.626 1499.5 668.589L1504.28 655.87H1502.11L1498.78 665.457L1495.41 655.87ZM1393.97 700.363C1395.81 699.622 1396.39 698.665 1396.39 696.824V693.764H1393.21V696.824H1394.95C1394.95 698.139 1394.69 698.689 1393.35 699.263L1393.97 700.363ZM1399.33 721.784V718.556C1399.33 715.113 1397.94 713.583 1394.86 713.583C1391.82 713.583 1389.96 715.065 1389.74 717.623H1391.92C1392.01 716.117 1393.02 715.256 1394.71 715.256C1396.48 715.256 1397.27 716.189 1397.27 718.317V718.532L1395.1 718.795C1393.11 719.034 1391.82 719.345 1391.03 719.775C1389.93 720.397 1389.36 721.353 1389.36 722.597C1389.36 724.653 1391.01 726.111 1393.37 726.111C1395.33 726.111 1396.63 725.322 1397.41 723.648C1397.44 724.366 1397.51 725.155 1397.61 725.824H1399.73C1399.45 724.94 1399.33 723.696 1399.33 721.784ZM1397.3 720.014V720.612C1397.3 722.955 1395.91 724.437 1393.76 724.437C1392.35 724.437 1391.51 723.696 1391.51 722.477C1391.51 721.282 1392.37 720.684 1394.45 720.397L1397.3 720.014ZM1406.81 713.87H1404.9V730.486H1406.93V723.935C1407.48 725.203 1408.97 726.111 1410.45 726.111C1413.63 726.111 1415.54 723.553 1415.54 719.823C1415.54 716.189 1413.7 713.583 1410.57 713.583C1408.87 713.583 1407.44 714.778 1406.81 716.093V713.87ZM1406.89 720.11V719.536C1406.89 716.978 1408.18 715.376 1410.19 715.376C1412.29 715.376 1413.39 717.169 1413.39 719.823C1413.39 722.549 1412.19 724.318 1410.11 724.318C1408.1 724.318 1406.89 722.644 1406.89 720.11ZM1421.64 713.87H1419.73V730.486H1421.76V723.935C1422.31 725.203 1423.79 726.111 1425.27 726.111C1428.45 726.111 1430.37 723.553 1430.37 719.823C1430.37 716.189 1428.53 713.583 1425.39 713.583C1423.7 713.583 1422.26 714.778 1421.64 716.093V713.87ZM1421.71 720.11V719.536C1421.71 716.978 1423 715.376 1425.01 715.376C1427.12 715.376 1428.22 717.169 1428.22 719.823C1428.22 722.549 1427.02 724.318 1424.94 724.318C1422.93 724.318 1421.71 722.644 1421.71 720.11ZM1437.23 716.978V713.87H1435.22V725.824H1437.26V721.377C1437.26 717.48 1439.55 715.519 1442.42 715.519C1443.28 715.519 1444.17 715.639 1444.64 715.759V713.87C1444.14 713.726 1443.35 713.631 1442.49 713.631C1440.01 713.631 1438.04 715.089 1437.23 716.978ZM1454.11 726.111C1457.46 726.111 1459.69 723.648 1459.69 719.847C1459.69 716.045 1457.46 713.583 1454.11 713.583C1450.77 713.583 1448.54 716.045 1448.54 719.847C1448.54 723.601 1450.77 726.111 1454.11 726.111ZM1454.11 724.342C1451.96 724.342 1450.7 722.668 1450.7 719.847C1450.7 717.026 1451.96 715.352 1454.11 715.352C1456.27 715.352 1457.53 717.05 1457.53 719.847C1457.53 722.668 1456.27 724.342 1454.11 724.342ZM1473.46 721.784V718.556C1473.46 715.113 1472.07 713.583 1468.99 713.583C1465.95 713.583 1464.09 715.065 1463.87 717.623H1466.05C1466.14 716.117 1467.15 715.256 1468.85 715.256C1470.61 715.256 1471.4 716.189 1471.4 718.317V718.532L1469.23 718.795C1467.24 719.034 1465.95 719.345 1465.16 719.775C1464.06 720.397 1463.49 721.353 1463.49 722.597C1463.49 724.653 1465.14 726.111 1467.51 726.111C1469.47 726.111 1470.76 725.322 1471.55 723.648C1471.57 724.366 1471.64 725.155 1471.74 725.824H1473.87C1473.58 724.94 1473.46 723.696 1473.46 721.784ZM1471.43 720.014V720.612C1471.43 722.955 1470.04 724.437 1467.89 724.437C1466.48 724.437 1465.64 723.696 1465.64 722.477C1465.64 721.282 1466.5 720.684 1468.58 720.397L1471.43 720.014ZM1483.77 726.111C1486.73 726.111 1488.29 724.198 1488.67 721.76L1486.73 721.449C1486.44 723.266 1485.51 724.318 1483.77 724.318C1481.5 724.318 1480.37 722.477 1480.37 719.751C1480.37 717.121 1481.5 715.352 1483.7 715.352C1485.39 715.352 1486.4 716.332 1486.61 718.102L1488.69 717.863C1488.41 715.113 1486.49 713.583 1483.84 713.583C1480.09 713.583 1478.27 716.213 1478.27 719.775C1478.27 723.362 1480.13 726.111 1483.77 726.111ZM1495.68 716.045V708.49H1493.64V725.824H1495.68V719.584C1495.68 717.886 1496.32 715.376 1498.93 715.376C1500.2 715.376 1501.51 715.95 1501.51 718.556V725.824H1503.54V718.436C1503.54 716.5 1503.14 715.376 1502.37 714.635C1501.53 713.846 1500.39 713.583 1499.43 713.583C1497.71 713.583 1496.23 714.611 1495.68 716.045ZM1399.33 750.784V747.556C1399.33 744.113 1397.94 742.583 1394.86 742.583C1391.82 742.583 1389.96 744.065 1389.74 746.623H1391.92C1392.01 745.117 1393.02 744.256 1394.71 744.256C1396.48 744.256 1397.27 745.189 1397.27 747.317V747.532L1395.1 747.795C1393.11 748.034 1391.82 748.345 1391.03 748.775C1389.93 749.397 1389.36 750.353 1389.36 751.597C1389.36 753.653 1391.01 755.111 1393.37 755.111C1395.33 755.111 1396.63 754.322 1397.41 752.648C1397.44 753.366 1397.51 754.155 1397.61 754.824H1399.73C1399.45 753.94 1399.33 752.696 1399.33 750.784ZM1397.3 749.014V749.612C1397.3 751.955 1395.91 753.437 1393.76 753.437C1392.35 753.437 1391.51 752.696 1391.51 751.477C1391.51 750.282 1392.37 749.684 1394.45 749.397L1397.3 749.014ZM1406.93 737.49H1404.9V754.824H1406.46L1406.81 752.768C1407.46 754.226 1408.94 755.111 1410.54 755.111C1413.65 755.111 1415.54 752.553 1415.54 748.823C1415.54 745.189 1413.7 742.583 1410.62 742.583C1409.01 742.583 1407.58 743.563 1406.93 744.95V737.49ZM1406.89 749.182V748.56C1406.89 745.978 1408.08 744.376 1410.11 744.376C1412.22 744.376 1413.39 746.169 1413.39 748.823C1413.39 751.549 1412.15 753.318 1410.07 753.318C1408.06 753.318 1406.89 751.668 1406.89 749.182ZM1420.04 754.824H1429.94V753.151H1425.9V737.49H1420.28V739.164H1423.86V753.151H1420.04V754.824ZM1444.31 748.464C1444.31 745.213 1442.9 742.583 1439.24 742.583C1435.89 742.583 1433.79 744.95 1433.79 748.608C1433.79 752.529 1435.63 755.111 1439.38 755.111C1441.63 755.111 1443.26 754.083 1444.26 752.099L1442.54 751.19C1441.94 752.338 1440.96 753.318 1439.38 753.318C1437.16 753.318 1435.87 751.62 1435.87 749.373H1444.26C1444.28 749.062 1444.31 748.751 1444.31 748.464ZM1442.2 747.699H1435.87C1435.87 745.954 1436.97 744.161 1439.14 744.161C1441.3 744.161 1442.25 745.787 1442.2 747.699ZM1453.28 758.363C1455.12 757.622 1455.69 756.665 1455.69 754.824V751.764H1452.51V754.824H1454.26C1454.26 756.139 1453.99 756.689 1452.66 757.263L1453.28 758.363ZM1396.46 766.61H1393.59V769.479H1396.46V766.61ZM1390.39 783.824H1400.28V782.151H1396.24V771.87H1390.74V773.543H1394.21V782.151H1390.39V783.824ZM1406.6 774.237V771.87H1404.69V783.824H1406.72V777.584C1406.72 775.886 1407.36 773.376 1410.07 773.376C1411.26 773.376 1412.55 773.95 1412.55 776.556V783.824H1414.58V776.436C1414.58 774.5 1414.23 773.352 1413.44 772.611C1412.62 771.846 1411.52 771.583 1410.54 771.583C1408.54 771.583 1407.22 772.73 1406.6 774.237ZM1423.34 783.824H1425.54L1430.34 771.87H1428.26L1425.04 780.047C1424.8 780.644 1424.63 781.242 1424.51 781.744H1424.41C1424.27 781.242 1424.06 780.644 1423.82 780.047L1420.68 771.87H1418.56L1423.34 783.824ZM1440.94 766.61H1438.07V769.479H1440.94V766.61ZM1434.86 783.824H1444.76V782.151H1440.72V771.87H1435.22V773.543H1438.69V782.151H1434.86V783.824ZM1448.81 773.519H1452.23V779.999C1452.23 782.366 1453.59 784.039 1456.58 784.039C1457.63 784.039 1458.3 783.872 1458.92 783.729V781.864C1458.18 782.007 1457.34 782.079 1456.55 782.079C1455.02 782.079 1454.26 781.314 1454.26 779.712V773.519H1458.92V771.87H1454.26V767.877L1452.23 768.738V771.87H1448.81V773.519ZM1470.59 766.61H1467.72V769.479H1470.59V766.61ZM1464.52 783.824H1474.42V782.151H1470.38V771.87H1464.88V773.543H1468.34V782.151H1464.52V783.824ZM1480.73 774.237V771.87H1478.82V783.824H1480.85V777.584C1480.85 775.886 1481.5 773.376 1484.2 773.376C1485.39 773.376 1486.68 773.95 1486.68 776.556V783.824H1488.72V776.436C1488.72 774.5 1488.36 773.352 1487.57 772.611C1486.76 771.846 1485.66 771.583 1484.68 771.583C1482.67 771.583 1481.35 772.73 1480.73 774.237ZM1503.69 771.678C1504 771.678 1504.21 771.726 1504.57 771.774V770.005C1504.36 769.933 1504.07 769.909 1503.81 769.909C1502.32 769.909 1501.34 770.698 1500.91 772.109C1500.27 771.774 1499.5 771.583 1498.62 771.583C1495.96 771.583 1494.17 773.28 1494.17 775.719C1494.17 776.915 1494.6 777.919 1495.37 778.612C1494.27 779.019 1493.64 779.831 1493.64 780.931C1493.64 781.935 1494.17 782.653 1495.15 783.059C1493.88 783.489 1493.07 784.446 1493.07 785.737C1493.07 787.602 1495.1 788.773 1498.5 788.773C1502.23 788.773 1504.4 787.363 1504.4 784.852C1504.4 782.82 1502.99 781.601 1500.51 781.601H1497.42C1496.06 781.601 1495.44 781.146 1495.44 780.405C1495.44 779.855 1495.77 779.449 1496.27 779.21C1496.9 779.521 1497.66 779.688 1498.5 779.688C1501.18 779.688 1502.99 778.038 1502.99 775.6C1502.99 774.476 1502.61 773.519 1501.92 772.826C1502.25 772.037 1502.8 771.678 1503.69 771.678ZM1498.52 778.134C1497.09 778.134 1496.08 777.13 1496.08 775.671C1496.08 774.189 1497.11 773.137 1498.59 773.137C1500.05 773.137 1501.08 774.165 1501.08 775.6C1501.08 777.058 1500 778.134 1498.52 778.134ZM1500.05 783.394C1501.61 783.394 1502.37 783.992 1502.37 785.067C1502.37 786.382 1501.27 787.1 1498.71 787.1C1496.25 787.1 1495.08 786.43 1495.08 785.163C1495.08 784.35 1495.56 783.705 1496.35 783.346C1496.66 783.37 1496.99 783.394 1497.35 783.394H1500.05Z" fill="#FF921E"/>
</g>
<path id="Vector_61" d="M1209.88 803.908L1300.72 712.972C1307.79 705.891 1317.35 701.916 1327.4 701.916H1363.14" stroke="#FF921E" stroke-width="3" stroke-miterlimit="10" stroke-linecap="round" stroke-linejoin="round"/>
<path id="Vector_62" d="M1074.37 963.915V713.345H1116.19L1206.65 931.864" stroke="#00BEFF" stroke-width="3" stroke-miterlimit="10"/>
</g>
<g id="head-right-hover">
<path id="Vector_63" d="M862.382 313.279L841.501 271.932V319.736H858.405C861.761 319.736 863.874 316.135 862.382 313.279Z" fill="#00BEFF"/>
<g id="Group_5">
<path id="Vector_64" d="M1349.48 411.247C1331.95 411.247 1317.78 396.968 1317.78 379.584V337.864C1317.78 320.356 1332.08 306.201 1349.48 306.201H1555.67C1573.2 306.201 1587.37 320.48 1587.37 337.864V379.584C1587.37 397.092 1573.07 411.247 1555.67 411.247H1349.48Z" fill="white"/>
<path id="Vector_65" d="M1555.67 308.064C1572.2 308.064 1585.5 321.474 1585.5 337.864V379.584C1585.5 396.099 1572.08 409.385 1555.67 409.385H1349.48C1332.95 409.385 1319.65 395.975 1319.65 379.584V337.864C1319.65 321.35 1333.07 308.064 1349.48 308.064H1555.67ZM1555.67 304.339H1349.48C1330.96 304.339 1315.92 319.363 1315.92 337.864V379.584C1315.92 398.085 1330.96 413.11 1349.48 413.11H1555.67C1574.19 413.11 1589.23 398.085 1589.23 379.584V337.864C1589.23 319.363 1574.19 304.339 1555.67 304.339Z" fill="#FF931E"/>
</g>
<path id="Ethnically non-specific" d="M1354.06 325.93H1344.14V342.905H1354.23V340.993H1346.36V335.135H1353.65V333.27H1346.36V327.843H1354.06V325.93ZM1358.56 332.6H1361.98V339.08C1361.98 341.447 1363.34 343.12 1366.33 343.12C1367.38 343.12 1368.05 342.953 1368.67 342.81V340.945C1367.93 341.088 1367.09 341.16 1366.3 341.16C1364.77 341.16 1364.01 340.395 1364.01 338.793V332.6H1368.67V330.951H1364.01V326.958L1361.98 327.819V330.951H1358.56V332.6ZM1375.77 333.126V325.571H1373.74V342.905H1375.77V336.665C1375.77 334.967 1376.42 332.457 1379.03 332.457C1380.29 332.457 1381.61 333.031 1381.61 335.637V342.905H1383.64V335.517C1383.64 333.581 1383.23 332.457 1382.47 331.716C1381.63 330.927 1380.48 330.664 1379.53 330.664C1377.81 330.664 1376.32 331.692 1375.77 333.126ZM1390.48 333.318V330.951H1388.57V342.905H1390.6V336.665C1390.6 334.967 1391.25 332.457 1393.95 332.457C1395.14 332.457 1396.43 333.031 1396.43 335.637V342.905H1398.47V335.517C1398.47 333.581 1398.11 332.433 1397.32 331.692C1396.51 330.927 1395.41 330.664 1394.43 330.664C1392.42 330.664 1391.1 331.811 1390.48 333.318ZM1409.99 325.691H1407.12V328.56H1409.99V325.691ZM1403.92 342.905H1413.82V341.232H1409.78V330.951H1404.28V332.624H1407.75V341.232H1403.92V342.905ZM1423.17 343.192C1426.14 343.192 1427.69 341.279 1428.07 338.841L1426.14 338.53C1425.85 340.347 1424.92 341.399 1423.17 341.399C1420.9 341.399 1419.78 339.558 1419.78 336.832C1419.78 334.202 1420.9 332.433 1423.1 332.433C1424.8 332.433 1425.8 333.413 1426.02 335.183L1428.1 334.944C1427.81 332.194 1425.9 330.664 1423.24 330.664C1419.49 330.664 1417.67 333.294 1417.67 336.856C1417.67 340.443 1419.54 343.192 1423.17 343.192ZM1442.52 338.865V335.637C1442.52 332.194 1441.13 330.664 1438.04 330.664C1435.01 330.664 1433.14 332.146 1432.93 334.704H1435.1C1435.2 333.198 1436.2 332.337 1437.9 332.337C1439.67 332.337 1440.46 333.27 1440.46 335.398V335.613L1438.28 335.876C1436.3 336.115 1435.01 336.426 1434.22 336.856C1433.12 337.478 1432.55 338.434 1432.55 339.678C1432.55 341.734 1434.2 343.192 1436.56 343.192C1438.52 343.192 1439.81 342.403 1440.6 340.73C1440.63 341.447 1440.7 342.236 1440.79 342.905H1442.92C1442.64 342.021 1442.52 340.777 1442.52 338.865ZM1440.48 337.095V337.693C1440.48 340.036 1439.1 341.519 1436.95 341.519C1435.53 341.519 1434.7 340.777 1434.7 339.558C1434.7 338.363 1435.56 337.765 1437.64 337.478L1440.48 337.095ZM1448.4 342.905H1458.3V341.232H1454.26V325.571H1448.64V327.245H1452.23V341.232H1448.4V342.905ZM1344.62 371.905H1354.51V370.232H1350.47V354.571H1344.85V356.245H1348.44V370.232H1344.62V371.905ZM1360.69 359.951H1358.39L1363.05 371.762L1362.74 372.646C1362.19 374.224 1361.45 374.87 1359.99 374.87C1359.73 374.87 1359.44 374.846 1359.13 374.822V376.615C1359.51 376.687 1359.87 376.711 1360.23 376.711C1362.24 376.711 1363.67 375.707 1364.77 372.67L1369.56 359.951H1367.38L1364.06 369.538L1360.69 359.951ZM1346 391.318V388.951H1344.09V400.905H1346.12V394.665C1346.12 392.967 1346.77 390.457 1349.47 390.457C1350.66 390.457 1351.96 391.031 1351.96 393.637V400.905H1353.99V393.517C1353.99 391.581 1353.63 390.433 1352.84 389.692C1352.03 388.927 1350.93 388.664 1349.95 388.664C1347.94 388.664 1346.62 389.811 1346 391.318ZM1363.87 401.192C1367.21 401.192 1369.44 398.73 1369.44 394.928C1369.44 391.126 1367.21 388.664 1363.87 388.664C1360.52 388.664 1358.29 391.126 1358.29 394.928C1358.29 398.682 1360.52 401.192 1363.87 401.192ZM1363.87 399.423C1361.71 399.423 1360.45 397.749 1360.45 394.928C1360.45 392.107 1361.71 390.433 1363.87 390.433C1366.02 390.433 1367.28 392.131 1367.28 394.928C1367.28 397.749 1366.02 399.423 1363.87 399.423ZM1375.66 391.318V388.951H1373.74V400.905H1375.77V394.665C1375.77 392.967 1376.42 390.457 1379.12 390.457C1380.32 390.457 1381.61 391.031 1381.61 393.637V400.905H1383.64V393.517C1383.64 391.581 1383.28 390.433 1382.49 389.692C1381.68 388.927 1380.58 388.664 1379.6 388.664C1377.59 388.664 1376.28 389.811 1375.66 391.318ZM1390.05 393.302V395.215H1396.96V393.302H1390.05ZM1408.63 401.192C1411.55 401.192 1413.22 399.805 1413.22 397.534C1413.22 395.645 1412.29 394.402 1409.92 394.139L1408.01 393.924C1406.53 393.756 1405.86 393.135 1405.86 392.107C1405.86 390.959 1406.79 390.314 1408.37 390.314C1409.99 390.314 1410.97 391.318 1411.24 392.752L1413.25 392.298C1412.98 390.098 1411.14 388.664 1408.42 388.664C1405.59 388.664 1403.87 390.027 1403.87 392.202C1403.87 394.043 1405 395.382 1407.36 395.645L1409.3 395.86C1410.59 396.004 1411.21 396.53 1411.21 397.725C1411.21 398.849 1410.33 399.519 1408.73 399.519C1406.96 399.519 1405.83 398.61 1405.52 396.865L1403.47 397.223C1403.9 399.782 1405.79 401.192 1408.63 401.192ZM1420.35 388.951H1418.44V405.568H1420.47V399.016C1421.02 400.284 1422.5 401.192 1423.98 401.192C1427.16 401.192 1429.08 398.634 1429.08 394.904C1429.08 391.27 1427.24 388.664 1424.1 388.664C1422.41 388.664 1420.97 389.859 1420.35 391.174V388.951ZM1420.42 395.191V394.617C1420.42 392.059 1421.71 390.457 1423.72 390.457C1425.82 390.457 1426.92 392.25 1426.92 394.904C1426.92 397.63 1425.73 399.399 1423.65 399.399C1421.64 399.399 1420.42 397.725 1420.42 395.191ZM1443.02 394.545C1443.02 391.294 1441.61 388.664 1437.95 388.664C1434.6 388.664 1432.5 391.031 1432.5 394.689C1432.5 398.61 1434.34 401.192 1438.09 401.192C1440.34 401.192 1441.97 400.164 1442.97 398.18L1441.25 397.271C1440.65 398.419 1439.67 399.399 1438.09 399.399C1435.87 399.399 1434.58 397.701 1434.58 395.454H1442.97C1442.99 395.143 1443.02 394.832 1443.02 394.545ZM1440.91 393.78H1434.58C1434.58 392.035 1435.68 390.242 1437.85 390.242C1440.01 390.242 1440.96 391.868 1440.91 393.78ZM1452.82 401.192C1455.79 401.192 1457.34 399.279 1457.72 396.841L1455.79 396.53C1455.5 398.347 1454.57 399.399 1452.82 399.399C1450.55 399.399 1449.43 397.558 1449.43 394.832C1449.43 392.202 1450.55 390.433 1452.75 390.433C1454.45 390.433 1455.45 391.413 1455.67 393.183L1457.75 392.944C1457.46 390.194 1455.55 388.664 1452.9 388.664C1449.14 388.664 1447.32 391.294 1447.32 394.856C1447.32 398.443 1449.19 401.192 1452.82 401.192ZM1350.69 412.691H1347.82V415.56H1350.69V412.691ZM1344.62 429.905H1354.51V428.232H1350.47V417.951H1344.97V419.624H1348.44V428.232H1344.62V429.905ZM1368.86 417.951H1364.32V416.779C1364.32 414.962 1364.96 414.341 1366.78 414.341C1367.69 414.341 1368.34 414.46 1368.86 414.532V412.739C1368.05 412.571 1367.48 412.5 1366.78 412.5C1363.82 412.5 1362.29 413.91 1362.29 416.636V417.951H1358.63V419.6H1362.29V429.905H1364.32V419.6H1368.86V417.951ZM1380.34 412.691H1377.47V415.56H1380.34V412.691ZM1374.27 429.905H1384.16V428.232H1380.12V417.951H1374.62V419.624H1378.09V428.232H1374.27V429.905ZM1393.52 430.192C1396.48 430.192 1398.04 428.279 1398.42 425.841L1396.48 425.53C1396.2 427.347 1395.26 428.399 1393.52 428.399C1391.25 428.399 1390.12 426.558 1390.12 423.832C1390.12 421.202 1391.25 419.433 1393.45 419.433C1395.14 419.433 1396.15 420.413 1396.36 422.183L1398.44 421.944C1398.16 419.194 1396.24 417.664 1393.59 417.664C1389.84 417.664 1388.02 420.294 1388.02 423.856C1388.02 427.443 1389.88 430.192 1393.52 430.192Z" fill="#FF931E"/>
<path id="Vector_66" d="M1130.6 246.602L1232.02 347.922C1238.86 354.752 1248.18 358.601 1258 358.601H1315.92" stroke="#FF931E" stroke-width="3" stroke-miterlimit="10"/>
<path id="Vector_67" d="M847.467 103.188C916.2 103.188 972.503 159.435 972.503 228.1V335.754C972.503 404.418 916.2 460.666 847.467 460.666" stroke="#00BEFF" stroke-width="3" stroke-miterlimit="10" stroke-linecap="round" stroke-linejoin="round"/>
<path id="Vector_68" d="M887.986 377.598V414.103" stroke="#00BEFF" stroke-width="3" stroke-miterlimit="10" stroke-linecap="round" stroke-linejoin="round"/>
<path id="Vector_69" d="M865.614 377.971V414.6" stroke="#00BEFF" stroke-width="3" stroke-miterlimit="10" stroke-linecap="round" stroke-linejoin="round"/>
<path id="Vector_70" d="M899.296 304.339C913.231 304.339 924.527 293.054 924.527 279.133C924.527 265.212 913.231 253.927 899.296 253.927C885.361 253.927 874.065 265.212 874.065 279.133C874.065 293.054 885.361 304.339 899.296 304.339Z" fill="#00BEFF"/>
<path id="Vector_71" d="M893.455 467.123V501.766" stroke="#00BEFF" stroke-width="3" stroke-miterlimit="10" stroke-linecap="round" stroke-linejoin="round"/>
<path id="Vector_72" d="M863.873 498.786H849.58C845.354 498.786 841.874 495.309 841.874 491.088V489.598C841.874 485.376 845.354 481.899 849.58 481.899H863.873C868.099 481.899 871.579 485.376 871.579 489.598V491.088C871.579 495.309 868.224 498.786 863.873 498.786Z" stroke="#00BEFF" stroke-width="3" stroke-miterlimit="10" stroke-linecap="round" stroke-linejoin="round"/>
</g>
</g>
</svg>
