<svg width="1730" height="1945" viewBox="0 0 1730 1945" fill="none" xmlns="http://www.w3.org/2000/svg">
<g id="Anatomy">
<g id="no-hover">
<path id="Vector" d="M807.503 247.248H631.198C612.45 247.248 597.178 231.983 597.178 213.243V71.6379C597.178 52.8979 612.45 37.6328 631.198 37.6328H807.503C826.25 37.6328 841.522 52.8979 841.522 71.6379V213.367C841.522 232.107 826.25 247.248 807.503 247.248Z" fill="#D6F6FF" stroke="#FF921E" stroke-width="7" stroke-miterlimit="10" stroke-linecap="round" stroke-linejoin="round"/>
<path id="Vector_2" d="M1096.42 508.988H875.541C856.793 508.988 841.522 493.722 841.522 474.982V38.0051C841.522 19.265 856.793 4 875.541 4H1096.42C1115.17 4 1130.44 19.265 1130.44 38.0051V474.982C1130.44 493.722 1115.29 508.988 1096.42 508.988Z" fill="#D6F6FF" stroke="#FF921E" stroke-width="7" stroke-miterlimit="10" stroke-linecap="round" stroke-linejoin="round"/>
<path id="Vector_3" d="M684.834 1480.74H178.019C159.271 1480.74 144 1465.47 144 1446.73V519.66C144 500.92 159.271 485.655 178.019 485.655H684.834C703.582 485.655 718.854 500.92 718.854 519.66V1446.61C718.854 1465.47 703.582 1480.74 684.834 1480.74Z" fill="#D6F6FF" stroke="#FF921E" stroke-width="7" stroke-miterlimit="10" stroke-linecap="round" stroke-linejoin="round"/>
<path id="Vector_4" d="M1175.63 961.353H829.106C810.358 961.353 795.087 946.088 795.087 927.348V665.112C795.087 646.372 810.358 631.107 829.106 631.107H1175.63C1194.38 631.107 1209.65 646.372 1209.65 665.112V927.473C1209.65 946.213 1194.38 961.353 1175.63 961.353Z" fill="#D6F6FF" stroke="#FF921E" stroke-width="7" stroke-miterlimit="10" stroke-linecap="round" stroke-linejoin="round"/>
<path id="Vector_5" d="M945.07 1251.27H793.472C774.725 1251.27 759.453 1236 759.453 1217.26V1026.14C759.453 1007.4 774.725 992.133 793.472 992.133H945.07C963.818 992.133 979.089 1007.4 979.089 1026.14V1217.26C979.089 1236 963.818 1251.27 945.07 1251.27Z" fill="#D6F6FF" stroke="#FF921E" stroke-width="7" stroke-miterlimit="10" stroke-linecap="round" stroke-linejoin="round"/>
<path id="Vector_6" d="M846.488 474.113C771.372 474.113 709.914 412.681 709.914 337.597V227.763C709.914 152.679 771.372 91.2461 846.488 91.2461C921.604 91.2461 983.063 152.679 983.063 227.763V337.597C983.063 412.681 921.604 474.113 846.488 474.113Z" stroke="#00BEFF" stroke-width="3" stroke-miterlimit="10"/>
<path id="Vector_7" d="M709.914 234.713C685.331 234.713 665.341 259.534 665.341 290.064C665.341 320.594 685.331 345.415 709.914 345.415" stroke="#00BEFF" stroke-width="3" stroke-miterlimit="10"/>
<path id="Vector_8" d="M983.063 345.54C1007.65 345.54 1027.64 320.718 1027.64 290.188C1027.64 259.658 1007.65 234.713 983.063 234.713" stroke="#00BEFF" stroke-width="3" stroke-miterlimit="10"/>
<g id="Group">
<g id="Group_2">
<path id="Vector_9" d="M880.384 1169.36V1943.28H1107.84C1133.54 1943.28 1154.4 1922.43 1154.4 1896.74C1154.4 1871.05 1133.54 1850.2 1107.84 1850.2H1087.36V724.808H1106.1L1378.01 1366.81C1378.13 1367.06 1378.13 1367.31 1378.26 1367.55L1400.23 1420.55C1405.08 1432.21 1418.49 1437.8 1430.28 1432.96C1441.83 1428.12 1447.42 1414.96 1442.82 1403.3L1443.44 1404.79C1448.28 1416.45 1461.69 1422.04 1473.49 1417.2C1485.16 1412.36 1490.75 1398.95 1485.9 1387.16L1476.59 1364.57L1462.44 1331.93L1486.28 1387.41C1491.12 1399.08 1504.53 1404.66 1516.32 1399.82C1527.99 1394.98 1533.58 1381.58 1528.74 1369.79L1506.76 1316.79C1506.51 1316.17 1506.14 1315.55 1505.65 1315.18L1487.15 1271.12L1529.73 1253.5C1538.67 1249.78 1542.89 1239.6 1539.17 1230.66L1537.93 1227.69C1534.2 1218.75 1524.02 1214.53 1515.08 1218.25L1472.37 1236L1208.29 615.843C1185.56 565.456 1146.95 536.663 1091.33 536.663C1055.45 536.663 905.464 536.663 905.464 536.663V461.455" stroke="#00BEFF" stroke-width="3" stroke-miterlimit="10" stroke-linecap="round" stroke-linejoin="round"/>
<path id="Vector_10" d="M1442.7 1403.3L1419.85 1345.96" stroke="#00BEFF" stroke-width="3" stroke-miterlimit="10" stroke-linecap="round"/>
</g>
<g id="Group_3">
<path id="Vector_11" d="M851.703 1169.35V1943.28H624.121C598.42 1943.28 577.561 1922.43 577.561 1896.74C577.561 1871.05 598.42 1850.2 624.121 1850.2H644.607V724.807H625.859L353.952 1366.81C353.828 1367.06 353.828 1367.3 353.704 1367.55L331.728 1420.55C326.885 1432.21 313.476 1437.8 301.681 1432.96C290.134 1428.12 284.547 1414.96 289.141 1403.29L288.52 1404.78C283.678 1416.45 270.269 1422.03 258.474 1417.19C246.803 1412.35 241.216 1398.95 246.058 1387.16L255.37 1364.57H255.246L245.686 1387.53C240.844 1399.2 227.434 1404.78 215.639 1399.94C203.969 1395.1 198.381 1381.7 203.224 1369.91L225.2 1316.92C225.448 1316.3 225.82 1315.68 226.317 1315.3L244.817 1271.25L202.23 1253.62C193.291 1249.9 189.07 1239.72 192.794 1230.79L194.036 1227.81C197.761 1218.87 207.942 1214.65 216.881 1218.38L259.591 1236.12L523.676 615.966C546.397 565.579 585.011 536.786 640.634 536.786C676.515 536.786 792.852 536.786 792.852 536.786V461.578" stroke="#00BEFF" stroke-width="3" stroke-miterlimit="10" stroke-linecap="round" stroke-linejoin="round"/>
<path id="Vector_12" d="M289.389 1403.3L312.11 1345.96" stroke="#00BEFF" stroke-width="3" stroke-miterlimit="10" stroke-linecap="round" stroke-linejoin="round"/>
<path id="Vector_13" d="M255.743 1363.71L270.518 1329.08" stroke="#00BEFF" stroke-width="3" stroke-miterlimit="10" stroke-linecap="round" stroke-linejoin="round"/>
</g>
<path id="Vector_14" d="M880.632 1169.85H851.951" stroke="#00BEFF" stroke-width="3" stroke-miterlimit="10" stroke-linecap="round" stroke-linejoin="round"/>
</g>
<path id="Vector_15" d="M751.259 276.536C759.702 270.207 780.063 262.761 796.949 275.916" stroke="#00BEFF" stroke-width="3" stroke-miterlimit="10" stroke-linecap="round" stroke-linejoin="round"/>
<path id="Vector_16" d="M776.711 289.196C782.197 289.196 786.644 284.751 786.644 279.267C786.644 273.784 782.197 269.339 776.711 269.339C771.226 269.339 766.779 273.784 766.779 279.267C766.779 284.751 771.226 289.196 776.711 289.196Z" fill="#00BEFF"/>
<path id="Vector_17" d="M877.9 276.536C886.343 270.207 906.705 262.761 923.591 275.916" stroke="#00BEFF" stroke-width="3" stroke-miterlimit="10" stroke-linecap="round" stroke-linejoin="round"/>
<path id="Vector_18" d="M874.3 239.553C884.729 231.734 909.933 222.427 930.792 238.809" stroke="#00BEFF" stroke-width="3" stroke-miterlimit="10" stroke-linecap="round" stroke-linejoin="round"/>
<path id="Vector_19" d="M899.628 289.196C905.114 289.196 909.561 284.751 909.561 279.267C909.561 273.784 905.114 269.339 899.628 269.339C894.142 269.339 889.695 273.784 889.695 279.267C889.695 284.751 894.142 289.196 899.628 289.196Z" fill="#00BEFF"/>
<path id="Vector_20" d="M796.825 399.526H914.527" stroke="#00BEFF" stroke-width="3" stroke-miterlimit="10" stroke-linecap="round" stroke-linejoin="round"/>
<path id="Vector_21" d="M815.945 272.565V348.642H839.039" stroke="#00BEFF" stroke-width="3" stroke-miterlimit="10" stroke-linecap="round" stroke-linejoin="round"/>
</g>
<g id="arm-hover">
<path id="Vector_22" d="M361.71 1655.21H44.4052C21.1999 1655.21 2.33789 1636.34 2.33789 1613.13V1588.56C2.33789 1565.35 21.1999 1546.49 44.4052 1546.49H361.71C384.915 1546.49 403.777 1565.35 403.777 1588.56V1613.13C403.901 1636.34 385.039 1655.21 361.71 1655.21Z" stroke="#FF921E" stroke-width="3" stroke-miterlimit="10"/>
<g id="Group_4">
<path id="Vector_23" d="M22.689 1586.57L25.419 1586.08C25.9154 1588.56 27.2804 1590.79 30.5068 1590.79C32.4923 1590.79 34.85 1590.17 34.85 1587.44C34.85 1584.71 33.1127 1583.97 31.3754 1583.6L28.5213 1582.85C25.5431 1582.11 23.3094 1580.25 23.3094 1577.02C23.3094 1573.92 25.9154 1571.06 30.0104 1571.06C33.8573 1571.06 36.9596 1572.67 37.456 1577.02L34.85 1577.76C34.6018 1574.41 32.4923 1573.42 30.1345 1573.42C27.0322 1573.42 26.1636 1575.28 26.1636 1576.77C26.1636 1578.63 27.6527 1579.87 29.39 1580.37L32.12 1581.11C34.9741 1581.86 37.5801 1583.1 37.5801 1587.2C37.5801 1590.17 35.4705 1593.28 30.5068 1593.28C25.419 1593.15 23.3094 1590.05 22.689 1586.57Z" fill="#FF921E"/>
<path id="Vector_24" d="M42.1714 1577.89H46.3905V1574.04L48.8724 1572.92V1577.89H54.7047V1579.87H48.8724V1587.57C48.8724 1589.55 49.8651 1590.55 51.7265 1590.55C52.7192 1590.55 53.712 1590.42 54.7047 1590.3V1592.66C53.9602 1592.78 53.0915 1593.03 51.8506 1593.03C48.1278 1593.03 46.3905 1590.92 46.3905 1588.06V1580H42.1714V1577.89Z" fill="#FF921E"/>
<path id="Vector_25" d="M73.1946 1592.66H70.5887C70.4646 1591.79 70.3405 1590.79 70.3405 1589.93C69.3477 1592.04 67.7345 1593.03 65.3768 1593.03C62.3986 1593.03 60.4131 1591.17 60.4131 1588.68C60.4131 1587.2 61.1576 1585.95 62.5227 1585.21C63.5154 1584.71 65.1286 1584.34 67.6105 1583.97L70.3405 1583.6V1583.35C70.3405 1580.74 69.3477 1579.5 67.1141 1579.5C65.0045 1579.5 63.7636 1580.62 63.6395 1582.48H60.9095C61.1576 1579.25 63.5154 1577.52 67.2382 1577.52C71.085 1577.52 72.8223 1579.38 72.8223 1583.72V1587.69C72.6982 1590.05 72.8223 1591.54 73.1946 1592.66ZM66.6177 1585.95C64.0118 1586.33 63.019 1587.07 63.019 1588.56C63.019 1590.05 64.0118 1591.04 65.7491 1591.04C68.4791 1591.04 70.0923 1589.18 70.0923 1586.33V1585.58L66.6177 1585.95Z" fill="#FF921E"/>
<path id="Vector_26" d="M86.5965 1577.52C87.8374 1577.52 89.2025 1577.89 90.1952 1578.76C91.1879 1579.63 91.5602 1581.11 91.5602 1583.47V1592.66H89.0784V1583.6C89.0784 1580.37 87.4652 1579.63 85.9761 1579.63C82.6256 1579.63 81.881 1582.73 81.881 1584.84V1592.53H79.3992V1577.64H81.7569V1580.62C82.5015 1578.88 84.1147 1577.52 86.5965 1577.52Z" fill="#FF921E"/>
<path id="Vector_27" d="M109.678 1571.19V1592.66H107.32V1589.93C106.451 1591.91 105.086 1593.03 102.604 1593.03C98.8817 1593.03 96.5239 1589.93 96.5239 1585.21C96.5239 1580.49 99.1299 1577.52 102.977 1577.52C104.962 1577.52 106.451 1578.63 107.196 1580.12V1571.31H109.678V1571.19ZM103.101 1579.75C100.495 1579.75 99.0058 1581.86 99.0058 1585.21C99.0058 1588.68 100.495 1590.79 102.977 1590.79C105.459 1590.79 107.072 1588.81 107.072 1585.58V1584.96C107.196 1581.73 105.583 1579.75 103.101 1579.75Z" fill="#FF921E"/>
<path id="Vector_28" d="M128.416 1592.66H125.81C125.686 1591.79 125.561 1590.79 125.561 1589.93C124.569 1592.04 122.955 1593.03 120.598 1593.03C117.62 1593.03 115.634 1591.17 115.634 1588.68C115.634 1587.2 116.379 1585.95 117.744 1585.21C118.736 1584.71 120.35 1584.34 122.831 1583.97L125.561 1583.6V1583.35C125.561 1580.74 124.569 1579.5 122.335 1579.5C120.225 1579.5 118.985 1580.62 118.86 1582.48H116.006C116.254 1579.25 118.612 1577.52 122.335 1577.52C126.182 1577.52 127.919 1579.38 127.919 1583.72V1587.69C127.919 1590.05 128.043 1591.54 128.416 1592.66ZM121.839 1585.95C119.233 1586.33 118.24 1587.07 118.24 1588.56C118.24 1590.05 119.233 1591.04 120.97 1591.04C123.7 1591.04 125.313 1589.18 125.313 1586.33V1585.58L121.839 1585.95Z" fill="#FF921E"/>
<path id="Vector_29" d="M144.672 1577.52C145.789 1577.52 146.657 1577.64 147.402 1577.76V1580.12C146.781 1580 145.664 1579.87 144.672 1579.87C141.073 1579.87 138.219 1582.36 138.219 1587.2V1592.66H135.737V1577.76H138.219V1581.61C139.088 1579.38 141.569 1577.52 144.672 1577.52Z" fill="#FF921E"/>
<path id="Vector_30" d="M164.775 1571.19V1592.66H162.417V1589.93C161.548 1591.91 160.183 1593.03 157.701 1593.03C153.979 1593.03 151.621 1589.93 151.621 1585.21C151.621 1580.49 154.227 1577.52 158.074 1577.52C160.059 1577.52 161.548 1578.63 162.293 1580.12V1571.31H164.775V1571.19ZM158.322 1579.75C155.716 1579.75 154.227 1581.86 154.227 1585.21C154.227 1588.68 155.716 1590.79 158.198 1590.79C160.68 1590.79 162.293 1588.81 162.293 1585.58V1584.96C162.293 1581.73 160.804 1579.75 158.322 1579.75Z" fill="#FF921E"/>
<path id="Vector_31" d="M171.972 1590.67H176.688V1580H172.345V1577.89H179.17V1590.67H184.133V1592.78H171.848V1590.67H171.972ZM179.542 1574.91H175.943V1571.31H179.542V1574.91Z" fill="#FF921E"/>
<path id="Vector_32" d="M198.404 1580H189.965V1577.89H201.382V1579.75L192.82 1590.55H201.878V1592.66H189.717V1590.67L198.404 1580Z" fill="#FF921E"/>
<path id="Vector_33" d="M220.368 1592.66H217.762C217.638 1591.79 217.514 1590.79 217.514 1589.93C216.521 1592.04 214.908 1593.03 212.55 1593.03C209.572 1593.03 207.587 1591.17 207.587 1588.68C207.587 1587.2 208.331 1585.95 209.696 1585.21C210.689 1584.71 212.302 1584.34 214.784 1583.97L217.514 1583.6V1583.35C217.514 1580.74 216.521 1579.5 214.288 1579.5C212.178 1579.5 210.937 1580.62 210.813 1582.48H208.083C208.331 1579.25 210.689 1577.52 214.412 1577.52C218.259 1577.52 219.996 1579.38 219.996 1583.72V1587.69C219.872 1590.05 219.996 1591.54 220.368 1592.66ZM213.791 1585.95C211.185 1586.33 210.193 1587.07 210.193 1588.56C210.193 1590.05 211.185 1591.04 212.923 1591.04C215.653 1591.04 217.266 1589.18 217.266 1586.33V1585.58L213.791 1585.95Z" fill="#FF921E"/>
<path id="Vector_34" d="M226.076 1577.89H230.296V1574.04L232.777 1572.92V1577.89H238.61V1579.87H232.777V1587.57C232.777 1589.55 233.77 1590.55 235.632 1590.55C236.624 1590.55 237.617 1590.42 238.61 1590.3V1592.66C237.865 1592.78 236.997 1593.03 235.756 1593.03C232.033 1593.03 230.296 1590.92 230.296 1588.06V1580H226.076V1577.89Z" fill="#FF921E"/>
<path id="Vector_35" d="M245.559 1590.67H250.274V1580H245.931V1577.89H252.756V1590.67H257.72V1592.78H245.435V1590.67H245.559ZM253.129 1574.91H249.53V1571.31H253.129V1574.91Z" fill="#FF921E"/>
<path id="Vector_36" d="M262.56 1585.21C262.56 1580.49 265.29 1577.39 269.509 1577.39C273.604 1577.39 276.458 1580.49 276.458 1585.21C276.458 1589.93 273.728 1593.03 269.509 1593.03C265.29 1593.03 262.56 1589.93 262.56 1585.21ZM273.728 1585.21C273.728 1581.73 272.115 1579.62 269.509 1579.62C266.779 1579.62 265.29 1581.73 265.29 1585.21C265.29 1588.68 266.903 1590.79 269.509 1590.79C272.115 1590.79 273.728 1588.81 273.728 1585.21Z" fill="#FF921E"/>
<path id="Vector_37" d="M288.991 1577.52C290.232 1577.52 291.597 1577.89 292.59 1578.76C293.583 1579.63 293.955 1581.11 293.955 1583.47V1592.66H291.473V1583.6C291.473 1580.37 289.86 1579.63 288.371 1579.63C285.02 1579.63 284.276 1582.73 284.276 1584.84V1592.53H281.794V1577.64H284.152V1580.62C284.896 1578.88 286.509 1577.52 288.991 1577.52Z" fill="#FF921E"/>
<path id="Vector_38" d="M330.686 1592.66H328.08C327.956 1591.79 327.832 1590.79 327.832 1589.93C326.839 1592.04 325.226 1593.03 322.869 1593.03C319.89 1593.03 317.905 1591.17 317.905 1588.68C317.905 1587.2 318.649 1585.95 320.014 1585.21C321.007 1584.71 322.62 1584.34 325.102 1583.97L327.832 1583.6V1583.35C327.832 1580.74 326.839 1579.5 324.606 1579.5C322.496 1579.5 321.255 1580.62 321.131 1582.48H318.401C318.649 1579.25 321.007 1577.52 324.73 1577.52C328.577 1577.52 330.314 1579.38 330.314 1583.72V1587.69C330.19 1590.05 330.438 1591.54 330.686 1592.66ZM324.233 1585.95C321.628 1586.33 320.635 1587.07 320.635 1588.56C320.635 1590.05 321.628 1591.04 323.365 1591.04C326.095 1591.04 327.708 1589.18 327.708 1586.33V1585.58L324.233 1585.95Z" fill="#FF921E"/>
<path id="Vector_39" d="M344.212 1577.52C345.453 1577.52 346.818 1577.89 347.811 1578.76C348.804 1579.63 349.176 1581.11 349.176 1583.47V1592.66H346.694V1583.6C346.694 1580.37 345.081 1579.63 343.592 1579.63C340.242 1579.63 339.497 1582.73 339.497 1584.84V1592.53H337.015V1577.64H339.373V1580.62C339.993 1578.88 341.607 1577.52 344.212 1577.52Z" fill="#FF921E"/>
<path id="Vector_40" d="M367.169 1571.19V1592.66H364.812V1589.93C363.943 1591.91 362.578 1593.03 360.096 1593.03C356.373 1593.03 354.016 1589.93 354.016 1585.21C354.016 1580.49 356.622 1577.52 360.468 1577.52C362.454 1577.52 363.943 1578.63 364.688 1580.12V1571.31H367.169V1571.19ZM360.717 1579.75C358.111 1579.75 356.622 1581.86 356.622 1585.21C356.622 1588.68 358.111 1590.79 360.593 1590.79C363.074 1590.79 364.688 1588.81 364.688 1585.58V1584.96C364.688 1581.73 363.199 1579.75 360.717 1579.75Z" fill="#FF921E"/>
</g>
<g id="Group_5">
<path id="Vector_41" d="M34.3538 1613.13C35.4707 1613.13 36.3393 1613.26 37.0839 1613.38V1615.74C36.4634 1615.61 35.3466 1615.49 34.3538 1615.49C30.7552 1615.49 27.901 1617.97 27.901 1622.81V1628.27H25.4192V1613.38H27.901V1617.23C28.7697 1614.99 31.2515 1613.13 34.3538 1613.13Z" fill="#FF921E"/>
<path id="Vector_42" d="M54.829 1621.57H44.4053C44.4053 1624.3 46.0185 1626.41 48.7485 1626.41C50.734 1626.41 51.9749 1625.17 52.7194 1623.81L54.829 1624.92C53.5881 1627.41 51.6026 1628.65 48.7485 1628.65C44.033 1628.65 41.7993 1625.42 41.7993 1620.58C41.7993 1615.99 44.4053 1613.13 48.6244 1613.13C53.2158 1613.13 54.9531 1616.36 54.9531 1620.46C54.9531 1620.83 54.9531 1621.2 54.829 1621.57ZM48.5003 1615.12C45.7703 1615.12 44.4053 1617.35 44.4053 1619.46H52.2231C52.3472 1617.1 51.2303 1615.12 48.5003 1615.12Z" fill="#FF921E"/>
<path id="Vector_43" d="M63.6397 1616.24C64.3842 1614.62 66.2456 1613.13 68.3552 1613.13C72.2021 1613.13 74.5598 1616.36 74.5598 1620.83C74.5598 1625.42 72.2021 1628.65 68.2311 1628.65C66.3697 1628.65 64.5083 1627.53 63.8879 1625.92V1634.11H61.406V1613.51H63.7638V1616.24H63.6397ZM67.7347 1626.41C70.3407 1626.41 71.8298 1624.18 71.8298 1620.83C71.8298 1617.48 70.4648 1615.37 67.8588 1615.37C65.377 1615.37 63.7638 1617.35 63.7638 1620.58V1621.32C63.6397 1624.3 65.2529 1626.41 67.7347 1626.41Z" fill="#FF921E"/>
<path id="Vector_44" d="M91.6845 1621.57H81.2607C81.2607 1624.3 82.8739 1626.41 85.604 1626.41C87.5894 1626.41 88.8304 1625.17 89.5749 1623.81L91.6845 1624.92C90.4436 1627.41 88.4581 1628.65 85.604 1628.65C80.8884 1628.65 78.6548 1625.42 78.6548 1620.58C78.6548 1615.99 81.2607 1613.13 85.4799 1613.13C90.0713 1613.13 91.8086 1616.36 91.8086 1620.46C91.6845 1620.83 91.6845 1621.2 91.6845 1621.57ZM85.3558 1615.12C82.6257 1615.12 81.2607 1617.35 81.2607 1619.46H89.0785C89.2026 1617.1 87.9617 1615.12 85.3558 1615.12Z" fill="#FF921E"/>
<path id="Vector_45" d="M97.2686 1613.51H101.488V1609.66L103.97 1608.54V1613.51H109.802V1615.49H103.97V1623.19C103.97 1625.17 104.962 1626.16 106.824 1626.16C107.816 1626.16 108.809 1626.04 109.802 1625.92V1628.27C109.057 1628.4 108.189 1628.65 106.948 1628.65C103.225 1628.65 101.488 1626.54 101.488 1623.68V1615.62H97.2686V1613.51V1613.51Z" fill="#FF921E"/>
<path id="Vector_46" d="M116.751 1626.29H121.467V1615.62H117.248V1613.51H124.073V1626.29H129.036V1628.4H116.751V1626.29ZM124.321 1610.53H120.722V1606.93H124.321V1610.53Z" fill="#FF921E"/>
<path id="Vector_47" d="M134.124 1613.51H138.343V1609.66L140.825 1608.54V1613.51H146.658V1615.49H140.825V1623.19C140.825 1625.17 141.818 1626.16 143.679 1626.16C144.672 1626.16 145.665 1626.04 146.658 1625.92V1628.27C145.913 1628.4 145.044 1628.65 143.803 1628.65C140.081 1628.65 138.343 1626.54 138.343 1623.68V1615.62H134.124V1613.51Z" fill="#FF921E"/>
<path id="Vector_48" d="M153.607 1626.29H158.322V1615.62H153.979V1613.51H160.804V1626.29H165.768V1628.4H153.483V1626.29H153.607ZM161.176 1610.53H157.578V1606.93H161.176V1610.53Z" fill="#FF921E"/>
<path id="Vector_49" d="M170.607 1620.83C170.607 1616.11 173.337 1613.01 177.556 1613.01C181.651 1613.01 184.506 1616.11 184.506 1620.83C184.506 1625.54 181.776 1628.65 177.556 1628.65C173.337 1628.65 170.607 1625.54 170.607 1620.83ZM181.776 1620.83C181.776 1617.35 180.162 1615.24 177.556 1615.24C174.826 1615.24 173.337 1617.35 173.337 1620.83C173.337 1624.3 174.95 1626.41 177.556 1626.41C180.162 1626.41 181.776 1624.43 181.776 1620.83Z" fill="#FF921E"/>
<path id="Vector_50" d="M197.039 1613.13C198.28 1613.13 199.645 1613.51 200.638 1614.37C201.63 1615.24 202.003 1616.73 202.003 1619.09V1628.27H199.521V1619.21C199.521 1615.99 197.908 1615.24 196.418 1615.24C193.068 1615.24 192.323 1618.35 192.323 1620.46V1628.15H189.842V1613.26H192.199V1616.24C192.82 1614.5 194.557 1613.13 197.039 1613.13Z" fill="#FF921E"/>
</g>
<path id="Vector_51" d="M597.733 1480.96L491.634 1587.07C483.444 1595.26 472.152 1599.98 460.487 1599.98H402.908" stroke="#FF921E" stroke-width="3" stroke-miterlimit="10"/>
<path id="Vector_52" d="M716.862 548.924H641.662C641.662 548.924 578.375 539.988 542.76 608.246L266.779 1251.36L214.536 1229.77C210.068 1227.91 205.105 1230.14 203.367 1234.61C201.754 1238.83 203.864 1243.67 207.959 1245.41L258.837 1267.99L214.412 1369.89C210.813 1377.95 212.674 1385.52 220.864 1388.87C228.806 1392.1 236.872 1388.38 240.223 1380.56L266.779 1318.51L282.662 1324.46L258.092 1385.27C254.742 1393.22 255.486 1402.28 263.428 1405.63C271.37 1408.85 279.436 1405.13 282.662 1397.31L309.342 1332.41L324.233 1339.36L298.795 1402.53C295.94 1410.22 298.795 1418.91 306.488 1422.01C314.182 1424.99 321.876 1421.39 324.978 1413.69L619.946 712.247H657.546V1477.86" stroke="#00BEFF" stroke-width="3" stroke-miterlimit="10" stroke-linecap="round"/>
<path id="Vector_53" d="M714.38 566.919H623.917C623.917 566.919 586.317 568.781 561.623 615.32L467.685 825.059C467.685 825.059 456.144 847.15 459.991 863.781C463.838 880.411 467.064 887.733 459.991 906.349C452.918 924.965 292.714 1290.95 292.714 1290.95C292.714 1290.95 285.765 1305.85 295.692 1309.69C305.62 1313.54 310.584 1298.77 310.584 1298.77L417.427 1060.36C417.427 1060.36 421.398 1050.06 436.661 1052.17C452.049 1054.41 457.881 1036.54 457.881 1036.54L596.244 709.144C596.244 709.144 603.193 692.39 619.946 692.39H654.568C654.568 692.39 675.291 691.397 675.291 718.08C675.291 744.763 675.291 835.733 675.291 835.733C675.291 835.733 670.328 863.408 713.388 862.664" stroke="#00BEFF" stroke-width="3" stroke-miterlimit="10" stroke-linecap="round"/>
<path id="Vector_54" d="M675.291 737.937C675.291 737.937 698 734.834 698 762.51C698 790.186 698 824.935 698 824.935" stroke="#00BEFF" stroke-width="3" stroke-miterlimit="10" stroke-linecap="round"/>
<path id="Vector_55" d="M512.606 906.97C512.606 906.97 522.037 893.566 507.27 852.611C494.364 816.993 511.613 781.499 511.613 781.499L583.338 624.132C583.338 624.132 595.251 588.514 628.88 588.514H716.862" stroke="#00BEFF" stroke-width="3" stroke-miterlimit="10" stroke-linecap="round"/>
<path id="Vector_56" d="M635.954 588.514C635.954 588.514 650.721 589.507 657.546 607.254C664.495 625.001 681.248 625.001 681.248 625.001H716.862" stroke="#00BEFF" stroke-width="3" stroke-miterlimit="10" stroke-linecap="round"/>
<path id="Vector_57" d="M716.862 1227.29C686.211 1227.29 675.291 1203.71 675.291 1178.89V965.176C675.291 940.355 686.211 916.774 716.862 916.774" stroke="#00BEFF" stroke-width="3" stroke-miterlimit="10" stroke-linecap="round"/>
<path id="Vector_58" d="M675.912 1145.75C690.058 1145.75 703.584 1139.54 703.584 1122.05V953.758" stroke="#00BEFF" stroke-width="3" stroke-miterlimit="10" stroke-linecap="round"/>
<path id="Vector_59" d="M410.105 1020.65C393.849 1014.2 383.053 1024.37 377.841 1037.53L326.219 1160.27" stroke="#00BEFF" stroke-width="3" stroke-miterlimit="10" stroke-linecap="round"/>
<path id="Vector_60" d="M502.058 928.565C485.802 922.111 475.006 932.288 469.794 945.443L437.902 1019.66" stroke="#00BEFF" stroke-width="3" stroke-miterlimit="10" stroke-linecap="round"/>
<path id="Vector_61" d="M464.458 954.378C457.509 951.648 452.917 955.992 450.684 961.576L437.034 993.348" stroke="#00BEFF" stroke-width="3" stroke-miterlimit="10" stroke-linecap="round"/>
<path id="Vector_62" d="M658.911 662.853C658.911 655.407 653.203 652.676 647.122 652.676L612.625 651.684" stroke="#00BEFF" stroke-width="3" stroke-miterlimit="10" stroke-linecap="round"/>
<path id="Vector_63" d="M366.425 1177.52C382.309 1184.97 382.309 1199.74 376.228 1212.64L344.088 1286.73" stroke="#00BEFF" stroke-width="3" stroke-miterlimit="10" stroke-linecap="round"/>
<path id="Vector_64" d="M368.411 1231.88C377.345 1236.1 377.345 1244.41 373.871 1251.61L355.877 1293.19" stroke="#00BEFF" stroke-width="3" stroke-miterlimit="10" stroke-linecap="round"/>
<path id="Vector_65" d="M407.996 1081.59C416.931 1085.81 416.931 1094.12 413.456 1101.32L395.463 1142.9" stroke="#00BEFF" stroke-width="3" stroke-miterlimit="10" stroke-linecap="round"/>
<path id="Vector_66" d="M406.01 1120.18C414.945 1124.4 414.945 1132.72 411.47 1139.92L393.477 1181.49" stroke="#00BEFF" stroke-width="3" stroke-miterlimit="10" stroke-linecap="round"/>
<path id="Vector_67" d="M537.548 767.103C546.483 771.322 546.483 779.637 543.009 786.835L525.015 828.411" stroke="#00BEFF" stroke-width="3" stroke-miterlimit="10" stroke-linecap="round"/>
<path id="Vector_68" d="M333.416 1192.41C324.234 1188.81 318.277 1194.52 315.299 1201.97L284.772 1273.95" stroke="#00BEFF" stroke-width="3" stroke-miterlimit="10" stroke-linecap="round"/>
<path id="Vector_69" d="M550.454 701.822C559.389 706.042 559.389 714.357 555.914 721.555L520.051 803.217" stroke="#00BEFF" stroke-width="3" stroke-miterlimit="10" stroke-linecap="round"/>
<path id="Vector_70" d="M701.599 1077.49C690.678 1077.49 686.708 1069.05 686.708 1060.24V999.305" stroke="#00BEFF" stroke-width="3" stroke-miterlimit="10" stroke-linecap="round"/>
<path id="Vector_71" d="M675.291 1485.18V1322.35C675.291 1297.53 686.211 1273.95 716.862 1273.95" stroke="#00BEFF" stroke-width="3" stroke-miterlimit="10" stroke-linecap="round"/>
<path id="Vector_72" d="M703.46 1479.47V1310.81" stroke="#00BEFF" stroke-width="3" stroke-miterlimit="10" stroke-linecap="round"/>
<path id="Vector_73" d="M701.599 1434.54C690.678 1434.54 686.708 1426.11 686.708 1417.29V1356.36" stroke="#00BEFF" stroke-width="3" stroke-miterlimit="10" stroke-linecap="round"/>
<path id="Vector_74" d="M467.684 824.936L404.397 973.242" stroke="#00BEFF" stroke-width="3" stroke-miterlimit="10" stroke-linecap="round"/>
<path id="Vector_75" d="M716.862 662.605H609.894C609.894 662.605 595.251 660.744 587.309 682.462" stroke="#00BEFF" stroke-width="3" stroke-miterlimit="10" stroke-linecap="round"/>
</g>
<g id="crotch-hover">
<path id="Vector_76" d="M1516.89 1257.69H1199.58C1176.38 1257.69 1157.51 1238.83 1157.51 1215.62V1191.05C1157.51 1167.84 1176.38 1148.98 1199.58 1148.98H1516.89C1540.09 1148.98 1558.95 1167.84 1558.95 1191.05V1215.62C1558.95 1238.83 1540.09 1257.69 1516.89 1257.69Z" fill="white" stroke="#FF921E" stroke-width="3" stroke-miterlimit="10" stroke-linecap="round" stroke-linejoin="round"/>
<g id="Group_6">
<path id="Vector_77" d="M1187.67 1177.4H1178.11V1184.1H1187.17V1186.46H1178.11V1193.78H1187.92V1196.14H1175.38V1175.04H1187.67V1177.4V1177.4Z" fill="#FF921E"/>
<path id="Vector_78" d="M1195.98 1196.01H1193L1198.34 1188.32L1193.38 1181.12H1196.36L1199.95 1186.7L1203.3 1181.12H1206.41L1201.57 1188.44L1206.9 1195.89H1203.92L1199.95 1189.93L1195.98 1196.01Z" fill="#FF921E"/>
<path id="Vector_79" d="M1214.72 1183.97C1215.47 1182.36 1217.33 1180.87 1219.44 1180.87C1223.28 1180.87 1225.64 1184.1 1225.64 1188.57C1225.64 1193.16 1223.28 1196.38 1219.31 1196.38C1217.45 1196.38 1215.59 1195.27 1214.97 1193.65V1201.84H1212.49V1181.24H1214.85V1183.97H1214.72ZM1218.82 1194.15C1221.42 1194.15 1222.91 1191.92 1222.91 1188.57C1222.91 1185.21 1221.55 1183.1 1218.94 1183.1C1216.46 1183.1 1214.85 1185.09 1214.85 1188.32V1189.06C1214.85 1192.16 1216.33 1194.15 1218.82 1194.15Z" fill="#FF921E"/>
<path id="Vector_80" d="M1240.66 1180.87C1241.77 1180.87 1242.64 1181 1243.39 1181.12V1183.48C1242.77 1183.35 1241.65 1183.23 1240.66 1183.23C1237.06 1183.23 1234.2 1185.71 1234.2 1190.55V1196.01H1231.72V1181.12H1234.2V1184.97C1235.07 1182.73 1237.55 1180.87 1240.66 1180.87Z" fill="#FF921E"/>
<path id="Vector_81" d="M1261.26 1189.31H1250.83C1250.83 1192.04 1252.44 1194.15 1255.18 1194.15C1257.16 1194.15 1258.4 1192.91 1259.15 1191.54L1261.26 1192.66C1260.01 1195.14 1258.03 1196.38 1255.18 1196.38C1250.46 1196.38 1248.23 1193.16 1248.23 1188.32C1248.23 1183.73 1250.83 1180.87 1255.05 1180.87C1259.64 1180.87 1261.38 1184.1 1261.38 1188.19C1261.26 1188.57 1261.26 1188.94 1261.26 1189.31ZM1254.93 1182.86C1252.2 1182.86 1250.83 1185.09 1250.83 1187.2H1258.65C1258.77 1184.84 1257.53 1182.86 1254.93 1182.86Z" fill="#FF921E"/>
<path id="Vector_82" d="M1267.46 1191.54L1270.07 1191.05C1270.44 1193.16 1271.8 1194.4 1274.04 1194.4C1276.02 1194.4 1277.14 1193.53 1277.14 1192.16C1277.14 1190.68 1276.39 1190.05 1274.78 1189.81L1272.42 1189.56C1269.45 1189.19 1268.08 1187.57 1268.08 1185.34C1268.08 1182.61 1270.19 1181 1273.66 1181C1277.02 1181 1279.37 1182.73 1279.62 1185.46L1277.14 1186.08C1276.77 1184.35 1275.65 1183.1 1273.54 1183.1C1271.56 1183.1 1270.44 1183.85 1270.44 1185.34C1270.44 1186.58 1271.31 1187.32 1273.17 1187.57L1275.53 1187.82C1278.5 1188.19 1279.62 1189.68 1279.62 1192.04C1279.62 1194.89 1277.51 1196.63 1273.91 1196.63C1270.31 1196.38 1267.96 1194.65 1267.46 1191.54Z" fill="#FF921E"/>
<path id="Vector_83" d="M1285.83 1191.54L1288.43 1191.05C1288.8 1193.16 1290.17 1194.4 1292.4 1194.4C1294.39 1194.4 1295.51 1193.53 1295.51 1192.16C1295.51 1190.68 1294.76 1190.05 1293.15 1189.81L1290.79 1189.56C1287.81 1189.19 1286.45 1187.57 1286.45 1185.34C1286.45 1182.61 1288.56 1181 1292.03 1181C1295.38 1181 1297.74 1182.73 1297.99 1185.46L1295.51 1186.08C1295.13 1184.35 1294.02 1183.1 1291.91 1183.1C1289.92 1183.1 1288.8 1183.85 1288.8 1185.34C1288.8 1186.58 1289.67 1187.32 1291.53 1187.57L1293.89 1187.82C1296.87 1188.19 1297.99 1189.68 1297.99 1192.04C1297.99 1194.89 1295.88 1196.63 1292.28 1196.63C1288.68 1196.38 1286.32 1194.65 1285.83 1191.54Z" fill="#FF921E"/>
<path id="Vector_84" d="M1304.81 1194.03H1309.53V1183.35H1305.18V1181.24H1312.01V1194.03H1316.97V1196.14H1304.69V1194.03H1304.81ZM1312.26 1178.27H1308.66V1174.67H1312.26V1178.27Z" fill="#FF921E"/>
<path id="Vector_85" d="M1321.69 1188.69C1321.69 1183.97 1324.42 1180.87 1328.64 1180.87C1332.73 1180.87 1335.59 1183.97 1335.59 1188.69C1335.59 1193.41 1332.86 1196.51 1328.64 1196.51C1324.54 1196.38 1321.69 1193.28 1321.69 1188.69ZM1332.86 1188.69C1332.86 1185.21 1331.24 1183.1 1328.64 1183.1C1325.91 1183.1 1324.42 1185.21 1324.42 1188.69C1324.42 1192.16 1326.03 1194.27 1328.64 1194.27C1331.37 1194.27 1332.86 1192.16 1332.86 1188.69Z" fill="#FF921E"/>
<path id="Vector_86" d="M1348.12 1180.87C1349.36 1180.87 1350.73 1181.24 1351.72 1182.11C1352.71 1182.98 1353.08 1184.47 1353.08 1186.83V1196.01H1350.6V1186.95C1350.6 1183.73 1348.99 1182.98 1347.5 1182.98C1344.15 1182.98 1343.4 1186.08 1343.4 1188.19V1195.89H1340.92V1181H1343.28V1183.97C1344.03 1182.24 1345.64 1180.87 1348.12 1180.87Z" fill="#FF921E"/>
<path id="Vector_87" d="M1376.91 1188.69C1376.91 1183.97 1379.64 1180.87 1383.86 1180.87C1388.08 1180.87 1390.81 1183.97 1390.81 1188.69C1390.81 1193.41 1388.08 1196.51 1383.86 1196.51C1379.64 1196.51 1376.91 1193.28 1376.91 1188.69ZM1388.08 1188.69C1388.08 1185.21 1386.46 1183.1 1383.86 1183.1C1381.13 1183.1 1379.64 1185.21 1379.64 1188.69C1379.64 1192.16 1381.25 1194.27 1383.86 1194.27C1386.46 1194.27 1388.08 1192.16 1388.08 1188.69Z" fill="#FF921E"/>
<path id="Vector_88" d="M1394.9 1181.24H1397.51L1401.36 1191.42C1401.6 1192.17 1401.98 1192.91 1402.1 1193.53H1402.22C1402.35 1192.91 1402.6 1192.17 1402.85 1191.42L1406.82 1181.24H1409.42L1403.47 1196.14H1400.74L1394.9 1181.24Z" fill="#FF921E"/>
<path id="Vector_89" d="M1426.79 1189.31H1416.37C1416.37 1192.04 1417.98 1194.15 1420.71 1194.15C1422.7 1194.15 1423.94 1192.91 1424.69 1191.54L1426.79 1192.66C1425.55 1195.14 1423.57 1196.38 1420.71 1196.38C1416 1196.38 1413.77 1193.16 1413.77 1188.32C1413.77 1183.73 1416.37 1180.87 1420.59 1180.87C1425.18 1180.87 1426.92 1184.1 1426.92 1188.19C1426.79 1188.57 1426.79 1188.94 1426.79 1189.31ZM1420.47 1182.86C1417.74 1182.86 1416.37 1185.09 1416.37 1187.2H1424.19C1424.31 1184.84 1423.07 1182.86 1420.47 1182.86Z" fill="#FF921E"/>
<path id="Vector_90" d="M1442.93 1180.87C1444.04 1180.87 1445.04 1181 1445.66 1181.12V1183.48C1445.04 1183.35 1443.92 1183.23 1442.93 1183.23C1439.33 1183.23 1436.47 1185.71 1436.47 1190.55V1196.01H1433.99V1181.12H1436.47V1184.97C1437.47 1182.73 1439.95 1180.87 1442.93 1180.87Z" fill="#FF921E"/>
</g>
<g id="Group_7">
<path id="Vector_91" d="M1176 1229.64H1180.72V1218.97H1176.38V1216.86H1183.2V1229.64H1188.17V1231.75H1175.88V1229.64H1176ZM1183.57 1213.88H1179.98V1210.28H1183.57V1213.88Z" fill="#FF921E"/>
<path id="Vector_92" d="M1200.95 1216.49C1202.19 1216.49 1203.55 1216.86 1204.55 1217.73C1205.54 1218.6 1205.91 1220.09 1205.91 1222.45V1231.63H1203.43V1222.57C1203.43 1219.34 1201.82 1218.6 1200.33 1218.6C1196.98 1218.6 1196.23 1221.7 1196.23 1223.81V1231.51H1193.75V1216.61H1196.11V1219.59C1196.85 1217.85 1198.46 1216.49 1200.95 1216.49Z" fill="#FF921E"/>
<path id="Vector_93" d="M1224.03 1210.16V1231.63H1221.67V1228.9C1220.8 1230.89 1219.44 1232 1216.95 1232C1213.23 1232 1210.87 1228.9 1210.87 1224.18C1210.87 1219.47 1213.48 1216.49 1217.33 1216.49C1219.31 1216.49 1220.8 1217.61 1221.55 1219.1V1210.28H1224.03V1210.16ZM1217.57 1218.72C1214.97 1218.72 1213.48 1220.83 1213.48 1224.18C1213.48 1227.66 1214.97 1229.77 1217.45 1229.77C1219.93 1229.77 1221.55 1227.78 1221.55 1224.56V1223.94C1221.55 1220.71 1219.93 1218.72 1217.57 1218.72Z" fill="#FF921E"/>
<path id="Vector_94" d="M1231.23 1229.64H1235.94V1218.97H1231.6V1216.86H1238.42V1229.64H1243.39V1231.75H1231.1V1229.64H1231.23ZM1238.67 1213.88H1235.07V1210.28H1238.67V1213.88Z" fill="#FF921E"/>
<path id="Vector_95" d="M1247.73 1216.86H1250.34L1254.18 1227.04C1254.43 1227.78 1254.8 1228.53 1254.93 1229.15H1255.05C1255.18 1228.53 1255.42 1227.78 1255.67 1227.04L1259.64 1216.86H1262.25L1256.29 1231.76H1253.56L1247.73 1216.86Z" fill="#FF921E"/>
<path id="Vector_96" d="M1267.96 1229.64H1272.67V1218.97H1268.33V1216.86H1275.15V1229.64H1280.12V1231.75H1267.83V1229.64H1267.96ZM1275.53 1213.88H1271.93V1210.28H1275.53V1213.88Z" fill="#FF921E"/>
<path id="Vector_97" d="M1297.61 1210.16V1231.63H1295.26V1228.9C1294.39 1230.89 1293.02 1232 1290.54 1232C1286.82 1232 1284.46 1228.9 1284.46 1224.18C1284.46 1219.47 1287.07 1216.49 1290.91 1216.49C1292.9 1216.49 1294.39 1217.61 1295.13 1219.1V1210.28H1297.61V1210.16ZM1291.16 1218.72C1288.56 1218.72 1287.07 1220.83 1287.07 1224.18C1287.07 1227.66 1288.56 1229.77 1291.04 1229.77C1293.52 1229.77 1295.13 1227.78 1295.13 1224.56V1223.94C1295.13 1220.71 1293.52 1218.72 1291.16 1218.72Z" fill="#FF921E"/>
<path id="Vector_98" d="M1309.16 1232C1307.79 1232 1306.43 1231.63 1305.31 1230.64C1304.32 1229.77 1303.94 1228.28 1303.94 1225.92V1216.74H1306.55V1225.8C1306.55 1229.02 1308.04 1229.77 1309.65 1229.77C1312.75 1229.77 1313.5 1226.67 1313.5 1224.43V1216.74H1315.98V1231.63H1313.62V1228.78C1313.13 1230.39 1311.39 1232 1309.16 1232Z" fill="#FF921E"/>
<path id="Vector_99" d="M1334.72 1231.63H1332.11C1331.99 1230.76 1331.86 1229.77 1331.86 1228.9C1330.87 1231.01 1329.26 1232 1326.9 1232C1323.92 1232 1321.94 1230.14 1321.94 1227.66C1321.94 1226.17 1322.68 1224.93 1324.05 1224.18C1325.04 1223.69 1326.65 1223.31 1329.13 1222.94L1331.86 1222.57V1222.32C1331.86 1219.72 1330.87 1218.47 1328.64 1218.47C1326.53 1218.47 1325.29 1219.59 1325.16 1221.45H1322.43C1322.68 1218.23 1325.04 1216.49 1328.76 1216.49C1332.61 1216.49 1334.35 1218.35 1334.35 1222.69V1226.67C1334.22 1229.02 1334.35 1230.64 1334.72 1231.63ZM1328.14 1224.93C1325.54 1225.3 1324.54 1226.05 1324.54 1227.53C1324.54 1229.02 1325.54 1230.02 1327.27 1230.02C1330 1230.02 1331.62 1228.16 1331.62 1225.3V1224.56L1328.14 1224.93Z" fill="#FF921E"/>
<path id="Vector_100" d="M1341.54 1229.64H1346.26V1212.27H1341.79V1210.16H1348.74V1229.64H1353.7V1231.75H1341.42V1229.64H1341.54Z" fill="#FF921E"/>
<path id="Vector_101" d="M1378.27 1229.64H1382.99V1218.97H1378.65V1216.86H1385.47V1229.64H1390.44V1231.75H1378.15V1229.64H1378.27ZM1385.84 1213.88H1382.25V1210.28H1385.84V1213.88Z" fill="#FF921E"/>
<path id="Vector_102" d="M1407.93 1210.16V1231.63H1405.58V1228.9C1404.71 1230.89 1403.34 1232 1400.86 1232C1397.14 1232 1394.78 1228.9 1394.78 1224.18C1394.78 1219.47 1397.38 1216.49 1401.23 1216.49C1403.22 1216.49 1404.71 1217.61 1405.45 1219.1V1210.28H1407.93V1210.16ZM1401.48 1218.72C1398.87 1218.72 1397.38 1220.83 1397.38 1224.18C1397.38 1227.66 1398.87 1229.77 1401.36 1229.77C1403.84 1229.77 1405.45 1227.78 1405.45 1224.56V1223.94C1405.45 1220.71 1403.96 1218.72 1401.48 1218.72Z" fill="#FF921E"/>
<path id="Vector_103" d="M1426.79 1224.93H1416.37C1416.37 1227.66 1417.98 1229.77 1420.71 1229.77C1422.7 1229.77 1423.94 1228.53 1424.69 1227.16L1426.79 1228.28C1425.55 1230.76 1423.57 1232 1420.71 1232C1416 1232 1413.77 1228.78 1413.77 1223.94C1413.77 1219.34 1416.37 1216.49 1420.59 1216.49C1425.18 1216.49 1426.92 1219.72 1426.92 1223.81C1426.79 1224.18 1426.79 1224.56 1426.79 1224.93ZM1420.47 1218.47C1417.74 1218.47 1416.37 1220.71 1416.37 1222.82H1424.19C1424.31 1220.46 1423.07 1218.47 1420.47 1218.47Z" fill="#FF921E"/>
<path id="Vector_104" d="M1440.2 1216.49C1441.44 1216.49 1442.8 1216.86 1443.8 1217.73C1444.79 1218.6 1445.16 1220.09 1445.16 1222.45V1231.63H1442.68V1222.57C1442.68 1219.34 1441.07 1218.6 1439.58 1218.6C1436.23 1218.6 1435.48 1221.7 1435.48 1223.81V1231.51H1433V1216.61H1435.36V1219.59C1435.98 1217.85 1437.59 1216.49 1440.2 1216.49Z" fill="#FF921E"/>
<path id="Vector_105" d="M1450.87 1216.86H1455.09V1213.01L1457.57 1211.9V1216.86H1463.4V1218.85H1457.57V1226.54C1457.57 1228.53 1458.56 1229.52 1460.42 1229.52C1461.42 1229.52 1462.41 1229.4 1463.4 1229.27V1231.63C1462.66 1231.75 1461.79 1232 1460.55 1232C1456.83 1232 1455.09 1229.89 1455.09 1227.04V1218.97H1450.87V1216.86Z" fill="#FF921E"/>
<path id="Vector_106" d="M1470.35 1229.64H1475.07V1218.97H1470.72V1216.86H1477.55V1229.64H1482.51V1231.75H1470.23V1229.64H1470.35ZM1477.8 1213.88H1474.2V1210.28H1477.8V1213.88Z" fill="#FF921E"/>
<path id="Vector_107" d="M1487.6 1216.86H1491.82V1213.01L1494.3 1211.9V1216.86H1500.13V1218.85H1494.3V1226.54C1494.3 1228.53 1495.29 1229.52 1497.16 1229.52C1498.15 1229.52 1499.14 1229.4 1500.13 1229.27V1231.63C1499.39 1231.75 1498.52 1232 1497.28 1232C1493.56 1232 1491.82 1229.89 1491.82 1227.04V1218.97H1487.6V1216.86Z" fill="#FF921E"/>
<path id="Vector_108" d="M1512.79 1228.78L1516.89 1216.86H1519.62L1513.66 1232.62C1512.29 1236.35 1510.56 1237.59 1508.08 1237.59C1507.58 1237.59 1507.21 1237.59 1506.71 1237.46V1235.23C1507.08 1235.23 1507.45 1235.23 1507.83 1235.23C1509.69 1235.23 1510.56 1234.49 1511.3 1232.5L1511.67 1231.38L1505.84 1216.74H1508.7L1512.79 1228.78Z" fill="#FF921E"/>
</g>
<g id="Group_8">
<path id="Vector_109" d="M834.626 1056.64C834.626 1038.03 846.911 1025.24 867.758 1025.24C887.365 1025.24 900.023 1035.79 900.023 1054.66C900.023 1065.7 893.446 1073.77 887.241 1080.59L880.292 1088.04C876.321 1092.38 874.335 1097.1 874.335 1103.93V1106.53H858.203V1100.95C858.203 1094.74 860.313 1089.03 867.014 1081.46L873.963 1074.02C878.306 1069.3 882.526 1064.09 882.526 1055.65C882.526 1046.34 876.321 1040.38 867.51 1040.38C858.079 1040.38 851.502 1046.46 851.502 1058.75C851.502 1060.98 851.751 1064.21 852.371 1066.2L835.122 1064.21C834.874 1062.47 834.626 1058.38 834.626 1056.64ZM877.438 1138.3H855.846V1114.97H877.438V1138.3Z" stroke="#00BEFF" stroke-width="3" stroke-miterlimit="10" stroke-linecap="round" stroke-linejoin="round"/>
</g>
<path id="Vector_110" d="M978.449 1120.18L1047.2 1188.94C1055.14 1196.88 1065.81 1201.22 1076.98 1201.22H1157.51" stroke="#FF921E" stroke-width="3" stroke-miterlimit="10" stroke-linecap="round" stroke-linejoin="round"/>
<path id="Vector_111" d="M842.071 1251.49V1160.27H890.84V1251.49" stroke="#00BEFF" stroke-width="3" stroke-miterlimit="10" stroke-linecap="round" stroke-linejoin="round"/>
</g>
<g id="head-hover">
<path id="Vector_112" d="M463.858 241.886H171.092C147.875 241.886 129.003 223.022 129.003 199.814V175.241C129.003 152.033 147.875 133.169 171.092 133.169H463.858C487.076 133.169 505.948 152.033 505.948 175.241V199.814C505.948 223.022 487.2 241.886 463.858 241.886Z" stroke="#FF921E" stroke-width="3" stroke-miterlimit="10" stroke-linecap="round" stroke-linejoin="round"/>
<g id="Group_9">
<path id="Vector_113" d="M154.331 167.546V166.057C154.331 159.603 157.063 155.756 162.029 155.756C166.374 155.756 168.858 158.114 169.478 163.202L166.747 163.699C166.499 160.224 165.009 158.238 162.029 158.238C158.677 158.238 157.187 160.596 157.187 165.933V167.422C157.187 172.758 158.925 175.489 162.029 175.489C165.009 175.489 166.499 173.503 166.747 170.028L169.478 170.649C168.982 174.744 166.747 177.971 161.905 177.971C156.814 177.847 154.331 173.999 154.331 167.546Z" fill="#FF921E"/>
<path id="Vector_114" d="M179.287 177.723C177.921 177.723 176.555 177.351 175.438 176.358C174.445 175.489 174.072 174 174.072 171.642V162.458H176.68V171.518C176.68 174.745 178.17 175.489 179.784 175.489C182.888 175.489 183.632 172.386 183.632 170.153V162.458H186.116V177.351H183.757V174.496C183.26 175.986 181.522 177.723 179.287 177.723Z" fill="#FF921E"/>
<path id="Vector_115" d="M193.317 175.24H198.035V157.866H193.565V155.756H200.518V175.24H205.484V177.35H193.317V175.24Z" fill="#FF921E"/>
<path id="Vector_116" d="M210.575 162.457H214.796V158.61L217.279 157.493V162.457H223.115V164.443H217.279V172.138C217.279 174.123 218.273 175.116 220.135 175.116C221.128 175.116 222.121 174.992 223.115 174.868V177.226C222.37 177.35 221.501 177.598 220.259 177.598C216.534 177.598 214.796 175.489 214.796 172.634V164.567H210.575V162.457Z" fill="#FF921E"/>
<path id="Vector_117" d="M234.537 177.723C233.172 177.723 231.806 177.351 230.689 176.358C229.695 175.489 229.323 174 229.323 171.642V162.458H231.93V171.518C231.93 174.745 233.42 175.489 235.034 175.489C238.138 175.489 238.883 172.386 238.883 170.153V162.458H241.366V177.351H239.007V174.496C238.51 175.986 236.772 177.723 234.537 177.723Z" fill="#FF921E"/>
<path id="Vector_118" d="M258.003 162.209C259.121 162.209 259.99 162.333 260.735 162.457V164.815C260.114 164.691 258.997 164.567 258.003 164.567C254.403 164.567 251.547 167.049 251.547 171.889V177.35H249.064V162.457H251.547V166.304C252.416 163.946 254.899 162.209 258.003 162.209Z" fill="#FF921E"/>
<path id="Vector_119" d="M278.49 177.35H275.882C275.758 176.481 275.634 175.488 275.634 174.62C274.641 176.729 273.027 177.722 270.668 177.722C267.688 177.722 265.701 175.861 265.701 173.379C265.701 171.889 266.446 170.648 267.812 169.904C268.805 169.407 270.419 169.035 272.902 168.663L275.634 168.29V168.042C275.634 165.436 274.641 164.195 272.406 164.195C270.295 164.195 269.053 165.312 268.929 167.173H266.198C266.446 163.946 268.805 162.209 272.53 162.209C276.379 162.209 278.117 164.071 278.117 168.414V172.386C277.993 174.62 278.117 176.233 278.49 177.35ZM271.909 170.524C269.302 170.896 268.309 171.641 268.309 173.13C268.309 174.62 269.302 175.612 271.04 175.612C273.771 175.612 275.386 173.751 275.386 170.896V170.152L271.909 170.524Z" fill="#FF921E"/>
<path id="Vector_120" d="M285.318 175.24H290.036V157.866H285.567V155.756H292.519V175.24H297.486V177.35H285.194V175.24H285.318Z" fill="#FF921E"/>
<path id="Vector_121" d="M303.694 175.24H308.412V157.866H303.942V155.756H310.895V175.24H315.861V177.35H303.57V175.24H303.694Z" fill="#FF921E"/>
<path id="Vector_122" d="M327.78 174.371L331.878 162.457H334.609L328.649 178.219C327.284 181.942 325.545 183.183 323.062 183.183C322.566 183.183 322.193 183.183 321.696 183.059V180.825C322.069 180.825 322.441 180.825 322.814 180.825C324.676 180.825 325.545 180.08 326.29 178.094L326.663 176.978L320.827 162.333H323.683L327.78 174.371Z" fill="#FF921E"/>
<path id="Vector_123" d="M370.491 177.35H367.884C367.759 176.481 367.635 175.488 367.635 174.62C366.642 176.729 365.028 177.722 362.669 177.722C359.689 177.722 357.703 175.861 357.703 173.379C357.703 171.889 358.448 170.648 359.813 169.904C360.807 169.407 362.421 169.035 364.904 168.663L367.635 168.29V168.042C367.635 165.436 366.642 164.195 364.407 164.195C362.296 164.195 361.055 165.312 360.931 167.173H358.199C358.448 163.946 360.807 162.209 364.531 162.209C368.38 162.209 370.118 164.071 370.118 168.414V172.386C369.994 174.62 370.118 176.233 370.491 177.35ZM363.911 170.524C361.303 170.896 360.31 171.641 360.31 173.13C360.31 174.62 361.303 175.612 363.041 175.612C365.773 175.612 367.387 173.751 367.387 170.896V170.152L363.911 170.524Z" fill="#FF921E"/>
<path id="Vector_124" d="M383.9 162.085C385.142 162.085 386.507 162.457 387.501 163.326C388.494 164.195 388.866 165.684 388.866 168.042V177.226H386.383V168.166C386.383 164.939 384.769 164.195 383.279 164.195C379.927 164.195 379.182 167.297 379.182 169.407V177.102H376.699V162.209H379.058V165.188C379.803 163.574 381.417 162.085 383.9 162.085Z" fill="#FF921E"/>
<path id="Vector_125" d="M406.993 155.756V177.226H404.634V174.496C403.765 176.482 402.399 177.599 399.916 177.599C396.192 177.599 393.833 174.496 393.833 169.78C393.833 165.064 396.44 162.085 400.289 162.085C402.275 162.085 403.765 163.202 404.51 164.691V155.88H406.993V155.756ZM400.413 164.319C397.806 164.319 396.316 166.429 396.316 169.78C396.316 173.255 397.806 175.365 400.289 175.365C402.772 175.365 404.386 173.379 404.386 170.152V169.532C404.51 166.305 402.896 164.319 400.413 164.319Z" fill="#FF921E"/>
</g>
<g id="Group_10">
<path id="Vector_126" d="M168.113 206.142H157.683C157.683 208.873 159.297 210.982 162.029 210.982C164.015 210.982 165.257 209.741 166.002 208.376L168.113 209.493C166.871 211.975 164.884 213.216 162.029 213.216C157.311 213.216 155.076 209.99 155.076 205.149C155.076 200.558 157.683 197.703 161.905 197.703C166.499 197.703 168.237 200.93 168.237 205.025C168.237 205.398 168.113 205.77 168.113 206.142ZM161.78 199.689C159.049 199.689 157.683 201.923 157.683 204.033H165.505C165.629 201.675 164.388 199.689 161.78 199.689Z" fill="#FF921E"/>
<path id="Vector_127" d="M178.045 197.703C179.535 197.703 180.652 198.696 181.149 200.433C181.894 198.696 183.136 197.703 184.626 197.703C186.488 197.703 188.102 198.944 188.102 202.171V212.968H185.619V202.419C185.619 200.558 184.75 200.061 183.881 200.061C182.142 200.061 181.522 201.302 181.522 203.164V212.968H179.038V202.419C179.038 200.558 178.293 200.061 177.3 200.061C175.562 200.061 174.941 201.426 174.941 203.164V212.968H172.458V198.075H174.817V200.309C175.438 198.82 176.679 197.703 178.045 197.703Z" fill="#FF921E"/>
<path id="Vector_128" d="M191.827 205.522C191.827 200.806 194.558 197.703 198.78 197.703C202.877 197.703 205.733 200.806 205.733 205.522C205.733 210.238 203.001 213.34 198.78 213.34C194.558 213.34 191.827 210.114 191.827 205.522ZM203.001 205.522C203.001 202.047 201.387 199.937 198.78 199.937C196.172 199.937 194.558 202.047 194.558 205.522C194.558 208.997 196.172 211.107 198.78 211.107C201.387 211.107 203.001 208.997 203.001 205.522Z" fill="#FF921E"/>
<path id="Vector_129" d="M210.575 198.076H214.796V194.228L217.279 193.111V198.076H223.115V200.061H217.279V207.756C217.279 209.742 218.273 210.734 220.135 210.734C221.128 210.734 222.121 210.61 223.115 210.486V212.844C222.37 212.968 221.501 213.216 220.259 213.216C216.534 213.216 214.796 211.107 214.796 208.252V200.185H210.575V198.076Z" fill="#FF921E"/>
<path id="Vector_130" d="M230.068 210.859H234.786V200.185H230.564V198.076H237.393V210.859H242.359V212.968H230.068V210.859ZM237.641 195.097H234.041V191.498H237.641V195.097Z" fill="#FF921E"/>
<path id="Vector_131" d="M247.077 205.522C247.077 200.806 249.809 197.703 254.03 197.703C258.127 197.703 260.983 200.806 260.983 205.522C260.983 210.238 258.252 213.34 254.03 213.34C249.809 213.34 247.077 210.114 247.077 205.522ZM258.252 205.522C258.252 202.047 256.638 199.937 254.03 199.937C251.299 199.937 249.809 202.047 249.809 205.522C249.809 208.997 251.423 211.107 254.03 211.107C256.638 211.107 258.252 208.997 258.252 205.522Z" fill="#FF921E"/>
<path id="Vector_132" d="M273.523 197.703C274.765 197.703 276.13 198.075 277.124 198.944C278.117 199.813 278.489 201.302 278.489 203.66V212.844H276.006V203.908C276.006 200.682 274.392 199.937 272.902 199.937C269.55 199.937 268.805 203.04 268.805 205.149V212.844H266.322V197.951H268.681V200.93C269.426 199.192 271.04 197.703 273.523 197.703Z" fill="#FF921E"/>
<path id="Vector_133" d="M296.865 212.968H294.258C294.133 212.099 294.009 211.106 294.009 210.238C293.016 212.348 291.402 213.34 289.043 213.34C286.063 213.34 284.077 211.479 284.077 208.997C284.077 207.507 284.822 206.266 286.187 205.522C287.181 205.025 288.795 204.653 291.278 204.281L294.009 203.908V203.66C294.009 201.054 293.016 199.813 290.781 199.813C288.671 199.813 287.429 200.93 287.305 202.791H284.573C284.822 199.565 287.181 197.827 290.905 197.827C294.754 197.827 296.492 199.689 296.492 204.032V208.004C296.368 210.238 296.492 211.851 296.865 212.968ZM290.285 206.142C287.677 206.515 286.684 207.259 286.684 208.748C286.684 210.238 287.677 211.231 289.415 211.231C292.147 211.231 293.761 209.369 293.761 206.515V205.77L290.285 206.142Z" fill="#FF921E"/>
<path id="Vector_134" d="M303.694 210.859H308.412V193.484H303.942V191.374H310.895V210.859H315.861V212.968H303.569V210.859H303.694Z" fill="#FF921E"/>
<path id="Vector_135" d="M327.78 209.989L331.877 198.075H334.609L328.649 213.837C327.284 217.56 325.545 218.801 323.062 218.801C322.566 218.801 322.193 218.801 321.696 218.677V216.443C322.069 216.443 322.441 216.443 322.814 216.443C324.676 216.443 325.545 215.698 326.29 213.713L326.663 212.596L320.827 197.951H323.683L327.78 209.989Z" fill="#FF921E"/>
<path id="Vector_136" d="M365.524 197.703C366.766 197.703 368.132 198.075 369.125 198.944C370.118 199.813 370.491 201.302 370.491 203.66V212.844H368.008V203.908C368.008 200.682 366.394 199.937 364.904 199.937C361.551 199.937 360.806 203.04 360.806 205.149V212.844H358.323V197.951H360.682V200.93C361.427 199.192 363.041 197.703 365.524 197.703Z" fill="#FF921E"/>
<path id="Vector_137" d="M388.991 206.142H378.561C378.561 208.873 380.175 210.982 382.907 210.982C384.893 210.982 386.135 209.741 386.88 208.376L388.991 209.493C387.749 211.975 385.762 213.216 382.907 213.216C378.189 213.216 375.954 209.99 375.954 205.149C375.954 200.558 378.561 197.703 382.783 197.703C387.376 197.703 389.115 200.93 389.115 205.025C388.991 205.398 388.991 205.77 388.991 206.142ZM382.658 199.689C379.927 199.689 378.561 201.923 378.561 204.033H386.383C386.507 201.675 385.266 199.689 382.658 199.689Z" fill="#FF921E"/>
<path id="Vector_138" d="M400.165 213.341C398.799 213.341 397.433 212.969 396.316 211.976C395.322 211.107 394.95 209.618 394.95 207.26V198.076H397.557V207.136C397.557 210.363 399.047 211.107 400.661 211.107C403.765 211.107 404.51 208.005 404.51 205.771V198.076H406.993V212.969H404.634V210.114C404.138 211.604 402.399 213.341 400.165 213.341Z" fill="#FF921E"/>
<path id="Vector_139" d="M413.077 198.076H417.299V194.228L419.782 193.111V198.076H425.617V200.061H419.782V207.756C419.782 209.742 420.775 210.734 422.637 210.734C423.631 210.734 424.624 210.61 425.617 210.486V212.844C424.872 212.968 424.003 213.216 422.761 213.216C419.037 213.216 417.299 211.107 417.299 208.252V200.185H413.077V198.076Z" fill="#FF921E"/>
<path id="Vector_140" d="M442.006 197.827C443.123 197.827 443.993 197.951 444.738 198.075V200.433C444.117 200.309 442.999 200.185 442.006 200.185C438.405 200.185 435.55 202.667 435.55 207.507V212.968H433.067V198.075H435.55V201.923C436.419 199.565 438.902 197.827 442.006 197.827Z" fill="#FF921E"/>
<path id="Vector_141" d="M462.492 212.968H459.885C459.761 212.099 459.637 211.106 459.637 210.238C458.643 212.348 457.029 213.34 454.67 213.34C451.69 213.34 449.704 211.479 449.704 208.997C449.704 207.507 450.449 206.266 451.815 205.522C452.808 205.025 454.422 204.653 456.905 204.281L459.637 203.908V203.66C459.637 201.054 458.643 199.813 456.408 199.813C454.298 199.813 453.056 200.93 452.932 202.791H450.2C450.449 199.565 452.808 197.827 456.533 197.827C460.382 197.827 462.12 199.689 462.12 204.032V208.004C461.996 210.238 462.244 211.851 462.492 212.968ZM456.036 206.142C453.429 206.515 452.435 207.259 452.435 208.748C452.435 210.238 453.429 211.231 455.167 211.231C457.898 211.231 459.512 209.369 459.512 206.515V205.77L456.036 206.142Z" fill="#FF921E"/>
<path id="Vector_142" d="M469.321 210.859H474.039V193.484H469.569V191.374H476.522V210.859H481.489V212.968H469.197V210.859H469.321Z" fill="#FF921E"/>
</g>
<path id="Vector_143" d="M505.948 187.9H545.058C552.88 187.9 560.329 184.797 565.916 179.212L598.818 146.324" stroke="#FF921E" stroke-width="3" stroke-miterlimit="10" stroke-linecap="round" stroke-linejoin="round"/>
<path id="Vector_144" d="M722.728 244.492V228.978C722.728 162.333 775.62 107.479 841.424 104.376" stroke="#00BEFF" stroke-width="3" stroke-miterlimit="10" stroke-linecap="round" stroke-linejoin="round"/>
<path id="Vector_145" d="M841.424 121.875C793.374 124.729 753.395 159.479 741.476 205.398C741.476 205.398 735.144 227.489 755.878 227.489C776.613 227.489 839.065 227.489 839.065 227.489" stroke="#00BEFF" stroke-width="3" stroke-miterlimit="10" stroke-linecap="round" stroke-linejoin="round"/>
<path id="Vector_146" d="M781.455 144.711H812.991C812.991 144.711 824.166 144.462 824.166 153.398C824.166 161.341 816.219 161.341 816.219 161.341C816.219 161.341 806.287 161.341 806.287 170.276C806.287 177.226 811.377 178.716 815.723 178.716C820.068 178.716 838.94 178.84 838.94 178.84" stroke="#00BEFF" stroke-width="3" stroke-miterlimit="10" stroke-linecap="round" stroke-linejoin="round"/>
<path id="Vector_147" d="M781.704 173.131H764.694C755.755 173.131 748.429 180.453 748.429 189.389C748.429 198.324 755.755 205.647 764.694 205.647H785.304C794.244 205.647 801.569 212.969 801.569 221.905V227.365" stroke="#00BEFF" stroke-width="3" stroke-miterlimit="10" stroke-linecap="round" stroke-linejoin="round"/>
<path id="Vector_148" d="M771.647 187.899H782.2C790.271 187.899 796.851 181.322 796.851 173.255C796.851 165.188 790.271 158.61 782.2 158.61H766.805" stroke="#00BEFF" stroke-width="3" stroke-miterlimit="10" stroke-linecap="round" stroke-linejoin="round"/>
<path id="Vector_149" d="M803.307 195.842H825.531C830.746 195.842 834.967 200.061 834.967 205.274C834.967 210.486 830.746 214.706 825.531 214.706H816.22" stroke="#00BEFF" stroke-width="3" stroke-miterlimit="10" stroke-linecap="round" stroke-linejoin="round"/>
</g>
<g id="heart-hover">
<path id="Vector_150" d="M1007.73 701.822C995.946 693.011 979.193 695.369 970.259 707.159L955.119 727.14L939.98 707.159C931.046 695.369 914.293 693.011 902.504 701.822C890.467 710.758 888.234 727.761 897.292 739.675L954.995 814.759V814.883L955.119 814.759L955.244 814.883V814.759L1012.95 739.675C1022.01 727.885 1019.77 710.882 1007.73 701.822Z" fill="#00BEFF"/>
<path id="Vector_151" d="M1623.85 773.928H1396.27C1377.78 773.928 1362.76 758.911 1362.76 740.419V663.101C1362.76 644.61 1377.78 629.593 1396.27 629.593H1623.85C1642.34 629.593 1657.36 644.61 1657.36 663.101V740.419C1657.36 758.911 1642.34 773.928 1623.85 773.928Z" stroke="#FF921E" stroke-width="3" stroke-miterlimit="10" stroke-linecap="round" stroke-linejoin="round"/>
<g id="Group_11">
<g id="Group_12">
<path id="Vector_152" d="M1403.71 654.167H1393.54V660.868H1402.84V663.226H1393.54V672.783H1390.81V651.685H1403.71V654.167Z" fill="#FF921E"/>
<path id="Vector_153" d="M1418.98 657.765C1420.09 657.765 1421.09 657.889 1421.71 658.013V660.371C1421.09 660.247 1419.97 660.123 1418.98 660.123C1415.38 660.123 1412.52 662.605 1412.52 667.445V672.906H1410.04V658.013H1412.52V661.86C1413.39 659.502 1415.87 657.765 1418.98 657.765Z" fill="#FF921E"/>
<path id="Vector_154" d="M1427.91 670.796H1432.63V660.123H1428.28V658.013H1435.11V670.796H1440.07V672.906H1427.79V670.796H1427.91ZM1435.48 655.035H1431.88V651.436H1435.48V655.035Z" fill="#FF921E"/>
<path id="Vector_155" d="M1457.94 666.08H1447.52C1447.52 668.81 1449.13 670.92 1451.86 670.92C1453.85 670.92 1455.09 669.679 1455.83 668.314L1457.94 669.431C1456.7 671.913 1454.72 673.154 1451.86 673.154C1447.15 673.154 1444.91 669.927 1444.91 665.087C1444.91 660.495 1447.52 657.641 1451.74 657.641C1456.33 657.641 1458.07 660.867 1458.07 664.963C1458.07 665.335 1457.94 665.708 1457.94 666.08ZM1451.61 659.626C1448.88 659.626 1447.52 661.86 1447.52 663.97H1455.34C1455.46 661.612 1454.22 659.626 1451.61 659.626Z" fill="#FF921E"/>
<path id="Vector_156" d="M1471.34 657.641C1472.58 657.641 1473.95 658.013 1474.94 658.882C1475.94 659.75 1476.31 661.24 1476.31 663.598V672.782H1473.83V663.722C1473.83 660.495 1472.21 659.75 1470.72 659.75C1467.37 659.75 1466.63 662.853 1466.63 664.963V672.657H1464.15V657.765H1466.5V660.743C1467.12 659.13 1468.86 657.641 1471.34 657.641Z" fill="#FF921E"/>
<path id="Vector_157" d="M1494.3 651.312V672.782H1491.94V670.052C1491.07 672.037 1489.71 673.154 1487.23 673.154C1483.5 673.154 1481.15 670.052 1481.15 665.336C1481.15 660.619 1483.75 657.641 1487.6 657.641C1489.59 657.641 1491.07 658.758 1491.82 660.247V651.436H1494.3V651.312ZM1487.85 659.875C1485.24 659.875 1483.75 661.985 1483.75 665.336C1483.75 668.81 1485.24 670.92 1487.72 670.92C1490.21 670.92 1491.82 668.935 1491.82 665.708V665.087C1491.82 661.861 1490.33 659.875 1487.85 659.875Z" fill="#FF921E"/>
<path id="Vector_158" d="M1501.5 670.796H1506.21V653.421H1501.75V651.312H1508.7V670.796H1513.66V672.906H1501.37V670.796H1501.5Z" fill="#FF921E"/>
<path id="Vector_159" d="M1525.57 669.927L1529.67 658.013H1532.4L1526.44 673.774C1525.08 677.497 1523.34 678.738 1520.86 678.738C1520.36 678.738 1519.99 678.738 1519.49 678.614V676.38C1519.86 676.38 1520.24 676.38 1520.61 676.38C1522.47 676.38 1523.34 675.636 1524.08 673.65L1524.46 672.533L1518.62 657.889H1521.48L1525.57 669.927Z" fill="#FF921E"/>
<path id="Vector_160" d="M1541.95 675.884C1543.57 675.14 1543.94 674.519 1543.94 672.906H1541.83V669.059H1545.8V672.906C1545.8 675.14 1545.05 676.381 1542.82 677.25L1541.95 675.884Z" fill="#FF921E"/>
</g>
<g id="Group_13">
<path id="Vector_161" d="M1402.72 708.4H1400.11C1399.99 707.531 1399.87 706.538 1399.87 705.669C1398.87 707.779 1397.26 708.772 1394.9 708.772C1391.92 708.772 1389.94 706.91 1389.94 704.428C1389.94 702.939 1390.68 701.698 1392.05 700.953C1393.04 700.457 1394.65 700.085 1397.14 699.712L1399.87 699.34V699.092C1399.87 696.486 1398.87 695.245 1396.64 695.245C1394.53 695.245 1393.29 696.361 1393.17 698.223H1390.44C1390.68 694.996 1393.04 693.259 1396.76 693.259C1400.61 693.259 1402.35 695.12 1402.35 699.464V703.435C1402.22 705.794 1402.35 707.407 1402.72 708.4ZM1396.14 701.698C1393.54 702.07 1392.55 702.815 1392.55 704.304C1392.55 705.794 1393.54 706.786 1395.28 706.786C1398.01 706.786 1399.62 704.925 1399.62 702.07V701.326L1396.14 701.698Z" fill="#FF921E"/>
<path id="Vector_162" d="M1411.53 696.361C1412.28 694.748 1414.14 693.259 1416.25 693.259C1420.09 693.259 1422.45 696.486 1422.45 700.953C1422.45 705.545 1420.09 708.772 1416.12 708.772C1414.26 708.772 1412.4 707.655 1411.78 706.042V714.233H1409.3V693.631H1411.66V696.361H1411.53ZM1415.63 706.538C1418.23 706.538 1419.72 704.304 1419.72 700.953C1419.72 697.603 1418.36 695.493 1415.75 695.493C1413.27 695.493 1411.66 697.478 1411.66 700.705V701.45C1411.53 704.552 1413.14 706.538 1415.63 706.538Z" fill="#FF921E"/>
<path id="Vector_163" d="M1429.9 696.361C1430.64 694.748 1432.5 693.259 1434.61 693.259C1438.46 693.259 1440.82 696.486 1440.82 700.953C1440.82 705.545 1438.46 708.772 1434.49 708.772C1432.63 708.772 1430.77 707.655 1430.15 706.042V714.233H1427.66V693.631H1430.02V696.361H1429.9ZM1433.99 706.538C1436.6 706.538 1438.09 704.304 1438.09 700.953C1438.09 697.603 1436.72 695.493 1434.12 695.493C1431.63 695.493 1430.02 697.478 1430.02 700.705V701.45C1430.02 704.552 1431.51 706.538 1433.99 706.538Z" fill="#FF921E"/>
<path id="Vector_164" d="M1455.71 693.383C1456.83 693.383 1457.69 693.507 1458.44 693.631V695.989C1457.82 695.865 1456.7 695.741 1455.71 695.741C1452.11 695.741 1449.26 698.223 1449.26 703.063V708.524H1446.77V693.631H1449.26V697.478C1450.25 695.12 1452.73 693.383 1455.71 693.383Z" fill="#FF921E"/>
<path id="Vector_165" d="M1463.28 701.077C1463.28 696.361 1466.01 693.259 1470.23 693.259C1474.45 693.259 1477.18 696.361 1477.18 701.077C1477.18 705.793 1474.45 708.896 1470.23 708.896C1466.01 708.896 1463.28 705.669 1463.28 701.077ZM1474.45 701.077C1474.45 697.602 1472.83 695.493 1470.23 695.493C1467.62 695.493 1466.01 697.602 1466.01 701.077C1466.01 704.552 1467.62 706.662 1470.23 706.662C1472.83 706.662 1474.45 704.552 1474.45 701.077Z" fill="#FF921E"/>
<path id="Vector_166" d="M1494.67 708.4H1492.07C1491.94 707.531 1491.82 706.538 1491.82 705.669C1490.83 707.779 1489.21 708.772 1486.86 708.772C1483.88 708.772 1481.89 706.91 1481.89 704.428C1481.89 702.939 1482.64 701.698 1484 700.953C1484.99 700.457 1486.61 700.085 1489.09 699.712L1491.82 699.34V699.092C1491.82 696.486 1490.83 695.245 1488.59 695.245C1486.48 695.245 1485.24 696.361 1485.12 698.223H1482.39C1482.64 694.996 1484.99 693.259 1488.72 693.259C1492.56 693.259 1494.3 695.12 1494.3 699.464V703.435C1494.18 705.794 1494.3 707.407 1494.67 708.4ZM1488.1 701.698C1485.49 702.07 1484.5 702.815 1484.5 704.304C1484.5 705.794 1485.49 706.786 1487.23 706.786C1489.96 706.786 1491.57 704.925 1491.57 702.07V701.326L1488.1 701.698Z" fill="#FF921E"/>
<path id="Vector_167" d="M1500.13 700.953C1500.13 696.486 1502.37 693.259 1507.08 693.259C1510.43 693.259 1512.79 695.12 1513.16 698.595L1510.56 698.844C1510.31 696.61 1509.07 695.369 1506.96 695.369C1504.23 695.369 1502.86 697.603 1502.86 700.829C1502.86 704.18 1504.23 706.538 1507.08 706.538C1509.19 706.538 1510.43 705.173 1510.81 702.939L1513.16 703.311C1512.67 706.29 1510.81 708.772 1507.08 708.772C1502.49 708.772 1500.13 705.421 1500.13 700.953Z" fill="#FF921E"/>
<path id="Vector_168" d="M1526.44 693.259C1527.68 693.259 1529.05 693.631 1530.04 694.624C1531.03 695.493 1531.53 696.982 1531.53 699.34V708.524H1529.05V699.464C1529.05 696.238 1527.43 695.493 1525.82 695.493C1522.59 695.493 1521.73 698.596 1521.73 700.705V708.4H1519.24V686.93H1521.73V696.362C1522.47 694.5 1524.21 693.259 1526.44 693.259Z" fill="#FF921E"/>
<path id="Vector_169" d="M1549.89 708.4H1547.29C1547.16 707.531 1547.04 706.538 1547.04 705.669C1546.05 707.779 1544.43 708.772 1542.08 708.772C1539.1 708.772 1537.11 706.91 1537.11 704.428C1537.11 702.939 1537.86 701.698 1539.22 700.953C1540.22 700.457 1541.83 700.085 1544.31 699.712L1547.04 699.34V699.092C1547.04 696.486 1546.05 695.245 1543.81 695.245C1541.7 695.245 1540.46 696.361 1540.34 698.223H1537.61C1537.86 694.996 1540.22 693.259 1543.94 693.259C1547.78 693.259 1549.52 695.12 1549.52 699.464V703.435C1549.4 705.794 1549.52 707.407 1549.89 708.4ZM1543.32 701.698C1540.71 702.07 1539.72 702.815 1539.72 704.304C1539.72 705.794 1540.71 706.786 1542.45 706.786C1545.18 706.786 1546.79 704.925 1546.79 702.07V701.326L1543.32 701.698Z" fill="#FF921E"/>
<path id="Vector_170" d="M1558.83 696.238C1559.57 694.5 1561.44 693.259 1563.42 693.259C1567.27 693.259 1569.5 696.486 1569.5 700.954C1569.5 705.546 1567.14 708.772 1563.3 708.772C1561.31 708.772 1559.45 707.655 1558.7 705.918L1558.21 708.524H1556.22V687.054H1558.7V696.238H1558.83ZM1562.68 706.538C1565.28 706.538 1566.77 704.304 1566.77 700.954C1566.77 697.603 1565.28 695.493 1562.68 695.493C1560.19 695.493 1558.7 697.479 1558.7 700.705V701.45C1558.7 704.553 1560.19 706.538 1562.68 706.538Z" fill="#FF921E"/>
<path id="Vector_171" d="M1575.09 706.414H1579.8V689.04H1575.33V686.93H1582.28V706.414H1587.25V708.524H1574.96V706.414H1575.09Z" fill="#FF921E"/>
<path id="Vector_172" d="M1605.12 701.698H1594.69C1594.69 704.428 1596.3 706.538 1599.03 706.538C1601.02 706.538 1602.26 705.297 1603.01 703.932L1605.12 705.049C1603.87 707.531 1601.89 708.772 1599.03 708.772C1594.32 708.772 1592.09 705.545 1592.09 700.705C1592.09 696.113 1594.69 693.259 1598.91 693.259C1603.5 693.259 1605.24 696.486 1605.24 700.581C1605.12 700.953 1605.12 701.326 1605.12 701.698ZM1598.79 695.245C1596.06 695.245 1594.69 697.478 1594.69 699.588H1602.51C1602.63 697.23 1601.39 695.245 1598.79 695.245Z" fill="#FF921E"/>
<path id="Vector_173" d="M1615.54 711.503C1617.15 710.758 1617.52 710.137 1617.52 708.524H1615.42V704.677H1619.39V708.524C1619.39 710.758 1618.64 711.999 1616.41 712.868L1615.54 711.503Z" fill="#FF921E"/>
</g>
<g id="Group_14">
<path id="Vector_174" d="M1391.06 742.033H1395.77V731.36H1391.43V729.25H1398.25V742.033H1403.22V744.143H1390.93V742.033H1391.06ZM1398.63 726.272H1395.03V722.673H1398.63V726.272Z" fill="#FF921E"/>
<path id="Vector_175" d="M1416.12 728.878C1417.36 728.878 1418.73 729.25 1419.72 730.119C1420.71 730.988 1421.09 732.477 1421.09 734.835V744.019H1418.6V735.083C1418.6 731.856 1416.99 731.112 1415.5 731.112C1412.15 731.112 1411.41 734.214 1411.41 736.324V744.019H1408.93V729.126H1411.28V732.105C1412.03 730.367 1413.64 728.878 1416.12 728.878Z" fill="#FF921E"/>
<path id="Vector_176" d="M1426.05 729.25H1428.66L1432.5 739.427C1432.75 740.171 1433.12 740.916 1433.25 741.537H1433.37C1433.5 740.916 1433.74 740.171 1433.99 739.427L1437.96 729.25H1440.57L1434.61 744.143H1431.88L1426.05 729.25Z" fill="#FF921E"/>
<path id="Vector_177" d="M1446.28 742.033H1450.99V731.36H1446.65V729.25H1453.47V742.033H1458.44V744.143H1446.15V742.033H1446.28ZM1453.85 726.272H1450.25V722.673H1453.85V726.272Z" fill="#FF921E"/>
<path id="Vector_178" d="M1463.53 729.25H1467.75V725.403L1470.23 724.286V729.25H1476.06V731.236H1470.23V738.931C1470.23 740.916 1471.22 741.909 1473.08 741.909C1474.07 741.909 1475.07 741.785 1476.06 741.661V744.019C1475.31 744.143 1474.45 744.391 1473.21 744.391C1469.48 744.391 1467.75 742.282 1467.75 739.427V731.36H1463.53V729.25Z" fill="#FF921E"/>
<path id="Vector_179" d="M1483.13 742.033H1487.85V731.36H1483.51V729.25H1490.33V742.033H1495.29V744.143H1483.01V742.033H1483.13ZM1490.58 726.272H1486.98V722.673H1490.58V726.272Z" fill="#FF921E"/>
<path id="Vector_180" d="M1508.08 728.878C1509.32 728.878 1510.68 729.25 1511.67 730.119C1512.67 730.988 1513.04 732.477 1513.04 734.835V744.019H1510.56V735.083C1510.56 731.856 1508.94 731.112 1507.46 731.112C1504.1 731.112 1503.36 734.214 1503.36 736.324V744.019H1500.88V729.126H1503.24V732.105C1503.98 730.367 1505.59 728.878 1508.08 728.878Z" fill="#FF921E"/>
<path id="Vector_181" d="M1529.54 730.368C1530.41 731.236 1530.91 732.477 1530.91 733.842C1530.91 736.821 1528.67 738.931 1525.32 738.931C1524.33 738.931 1523.34 738.683 1522.59 738.31C1521.97 738.558 1521.6 739.055 1521.6 739.8C1521.6 740.668 1522.35 741.289 1524.08 741.289H1527.93C1531.03 741.289 1532.77 742.778 1532.77 745.384C1532.77 748.487 1530.04 750.224 1525.45 750.224C1521.23 750.224 1518.75 748.735 1518.75 746.501C1518.75 744.888 1519.74 743.771 1521.35 743.15C1520.11 742.654 1519.49 741.785 1519.49 740.544C1519.49 739.179 1520.24 738.186 1521.6 737.69C1520.61 736.821 1520.11 735.58 1520.11 734.091C1520.11 731.112 1522.35 729.002 1525.57 729.002C1526.69 729.002 1527.56 729.251 1528.43 729.623C1528.92 727.885 1530.16 726.893 1532.03 726.893C1532.4 726.893 1532.77 726.893 1533.02 727.017V729.251C1532.52 729.251 1532.27 729.126 1531.9 729.126C1530.54 729.002 1529.92 729.499 1529.54 730.368ZM1523.84 743.523C1523.34 743.523 1522.97 743.523 1522.59 743.523C1521.6 744.019 1520.98 744.764 1520.98 745.757C1520.98 747.37 1522.47 748.115 1525.45 748.115C1528.67 748.115 1530.04 747.246 1530.04 745.633C1530.04 744.267 1529.05 743.523 1527.19 743.523H1523.84V743.523ZM1528.43 733.842C1528.43 732.105 1527.19 730.74 1525.32 730.74C1523.46 730.74 1522.22 732.105 1522.22 733.842C1522.22 735.704 1523.46 736.945 1525.2 736.945C1527.06 737.069 1528.43 735.704 1528.43 733.842Z" fill="#FF921E"/>
</g>
</g>
<path id="Vector_182" d="M1209.88 803.093L1300.72 712.248C1307.79 705.173 1317.35 701.202 1327.4 701.202H1363.14" stroke="#FF921E" stroke-width="3" stroke-miterlimit="10" stroke-linecap="round" stroke-linejoin="round"/>
<path id="Vector_183" d="M1074.37 962.942V712.62H1116.19L1206.65 930.923" stroke="#00BEFF" stroke-width="3" stroke-miterlimit="10"/>
</g>
<g id="head-right-hover">
<path id="Vector_184" d="M862.919 314.114L842.071 272.787V320.568H858.948C862.298 320.568 864.408 316.969 862.919 314.114Z" fill="#00BEFF"/>
<g id="Group_15">
<path id="Vector_185" d="M1349.24 412.034C1331.74 412.034 1317.59 397.762 1317.59 380.387V338.687C1317.59 321.188 1331.86 307.04 1349.24 307.04H1555.11C1572.6 307.04 1586.75 321.312 1586.75 338.687V380.387C1586.75 397.886 1572.48 412.034 1555.11 412.034H1349.24Z" fill="white"/>
<path id="Vector_186" d="M1555.11 308.902C1571.61 308.902 1584.89 322.305 1584.89 338.687V380.387C1584.89 396.893 1571.49 410.172 1555.11 410.172H1349.24C1332.73 410.172 1319.45 396.769 1319.45 380.387V338.687C1319.45 322.181 1332.86 308.902 1349.24 308.902H1555.11ZM1555.11 305.179H1349.24C1330.75 305.179 1315.73 320.196 1315.73 338.687V380.387C1315.73 398.879 1330.75 413.896 1349.24 413.896H1555.11C1573.6 413.896 1588.61 398.879 1588.61 380.387V338.687C1588.61 320.196 1573.6 305.179 1555.11 305.179Z" fill="#FF931E"/>
</g>
<g id="Group_16">
<path id="Vector_187" d="M1356.81 330.744H1347.25V337.445H1356.31V339.803H1347.25V347.126H1357.05V349.484H1344.52V328.386H1356.81V330.744Z" fill="#FF931E"/>
<path id="Vector_188" d="M1362.39 334.591H1366.61V330.744L1369.09 329.627V334.591H1374.92V336.577H1369.09V344.271C1369.09 346.257 1370.08 347.25 1371.95 347.25C1372.94 347.25 1373.93 347.126 1374.92 347.002V349.36C1374.18 349.484 1373.31 349.732 1372.07 349.732C1368.35 349.732 1366.61 347.622 1366.61 344.768V336.701H1362.39V334.591Z" fill="#FF931E"/>
<path id="Vector_189" d="M1388.45 334.219C1389.69 334.219 1391.06 334.591 1392.05 335.584C1393.04 336.453 1393.54 337.942 1393.54 340.3V349.484H1391.06V340.424C1391.06 337.198 1389.44 336.453 1387.83 336.453C1384.6 336.453 1383.73 339.556 1383.73 341.665V349.36H1381.25V327.89H1383.73V337.322C1384.48 335.46 1386.34 334.219 1388.45 334.219Z" fill="#FF931E"/>
<path id="Vector_190" d="M1406.94 334.219C1408.18 334.219 1409.55 334.591 1410.54 335.46C1411.53 336.329 1411.9 337.818 1411.9 340.176V349.36H1409.42V340.424C1409.42 337.197 1407.81 336.453 1406.32 336.453C1402.97 336.453 1402.22 339.555 1402.22 341.665V349.36H1399.74V334.467H1402.1V337.446C1402.84 335.584 1404.46 334.219 1406.94 334.219Z" fill="#FF931E"/>
<path id="Vector_191" d="M1418.73 347.374H1423.44V336.701H1419.1V334.591H1425.93V347.374H1430.89V349.484H1418.6V347.374H1418.73ZM1426.17 331.613H1422.58V328.014H1426.17V331.613Z" fill="#FF931E"/>
<path id="Vector_192" d="M1435.73 341.913C1435.73 337.446 1437.96 334.219 1442.68 334.219C1446.03 334.219 1448.39 336.08 1448.76 339.555L1446.15 339.804C1445.91 337.57 1444.66 336.329 1442.55 336.329C1439.82 336.329 1438.46 338.562 1438.46 341.789C1438.46 345.14 1439.82 347.498 1442.68 347.498C1444.79 347.498 1446.03 346.133 1446.4 343.899L1448.76 344.271C1448.26 347.25 1446.4 349.732 1442.68 349.732C1438.09 349.732 1435.73 346.381 1435.73 341.913Z" fill="#FF931E"/>
<path id="Vector_193" d="M1467.12 349.36H1464.52C1464.39 348.491 1464.27 347.498 1464.27 346.629C1463.28 348.739 1461.66 349.732 1459.31 349.732C1456.33 349.732 1454.34 347.87 1454.34 345.388C1454.34 343.899 1455.09 342.658 1456.45 341.913C1457.45 341.417 1459.06 341.045 1461.54 340.672L1464.27 340.3V340.052C1464.27 337.446 1463.28 336.204 1461.04 336.204C1458.93 336.204 1457.69 337.321 1457.57 339.183H1454.84C1455.09 335.956 1457.45 334.219 1461.17 334.219C1465.02 334.219 1466.75 336.08 1466.75 340.424V344.395C1466.63 346.753 1466.75 348.367 1467.12 349.36ZM1460.55 342.658C1457.94 343.03 1456.95 343.775 1456.95 345.264C1456.95 346.753 1457.94 347.746 1459.68 347.746C1462.41 347.746 1464.02 345.885 1464.02 343.03V342.286L1460.55 342.658Z" fill="#FF931E"/>
<path id="Vector_194" d="M1473.83 347.374H1478.54V329.999H1474.07V327.89H1481.02V347.374H1485.99V349.484H1473.7V347.374H1473.83Z" fill="#FF931E"/>
<path id="Vector_195" d="M1492.32 347.374H1497.03V329.999H1492.56V327.89H1499.51V347.374H1504.48V349.484H1492.19V347.374H1492.32Z" fill="#FF931E"/>
<path id="Vector_196" d="M1516.39 346.505L1520.48 334.591H1523.21L1517.26 350.352C1515.89 354.075 1514.16 355.317 1511.67 355.317C1511.18 355.317 1510.81 355.317 1510.31 355.192V352.959C1510.68 352.959 1511.05 352.959 1511.43 352.959C1513.29 352.959 1514.16 352.214 1514.9 350.228L1515.27 349.111L1509.44 334.467H1512.29L1516.39 346.505Z" fill="#FF931E"/>
</g>
<g id="Group_17">
<path id="Vector_197" d="M1351.72 369.838C1352.96 369.838 1354.32 370.21 1355.32 371.079C1356.31 371.948 1356.68 373.437 1356.68 375.795V384.979H1354.2V375.919C1354.2 372.692 1352.59 371.948 1351.1 371.948C1347.75 371.948 1347 375.05 1347 377.16V384.855H1344.52V369.962H1346.88V372.941C1347.62 371.203 1349.24 369.838 1351.72 369.838Z" fill="#FF931E"/>
<path id="Vector_198" d="M1362.02 377.657C1362.02 372.941 1364.75 369.838 1368.97 369.838C1373.06 369.838 1375.92 372.941 1375.92 377.657C1375.92 382.373 1373.19 385.475 1368.97 385.475C1364.87 385.351 1362.02 382.248 1362.02 377.657ZM1373.19 377.657C1373.19 374.182 1371.57 372.072 1368.97 372.072C1366.24 372.072 1364.75 374.182 1364.75 377.657C1364.75 381.132 1366.36 383.241 1368.97 383.241C1371.7 383.241 1373.19 381.132 1373.19 377.657Z" fill="#FF931E"/>
<path id="Vector_199" d="M1388.57 369.838C1389.82 369.838 1391.18 370.21 1392.17 371.079C1393.17 371.948 1393.54 373.437 1393.54 375.795V384.979H1391.06V375.919C1391.06 372.692 1389.44 371.948 1387.95 371.948C1384.6 371.948 1383.86 375.05 1383.86 377.16V384.855H1381.38V369.962H1383.73V372.941C1384.36 371.203 1385.97 369.838 1388.57 369.838Z" fill="#FF931E"/>
<path id="Vector_200" d="M1410.04 375.547V377.905H1401.48V375.547H1410.04Z" fill="#FF931E"/>
<path id="Vector_201" d="M1418.11 380.511L1420.71 380.015C1421.09 382.124 1422.45 383.365 1424.69 383.365C1426.67 383.365 1427.79 382.497 1427.79 381.131C1427.79 379.642 1427.04 379.022 1425.43 378.773L1423.07 378.525C1420.09 378.153 1418.73 376.54 1418.73 374.306C1418.73 371.575 1420.84 369.962 1424.31 369.962C1427.66 369.962 1430.02 371.699 1430.27 374.43L1427.79 375.05C1427.42 373.313 1426.3 372.072 1424.19 372.072C1422.2 372.072 1421.09 372.816 1421.09 374.306C1421.09 375.547 1421.96 376.291 1423.82 376.54L1426.17 376.788C1429.15 377.16 1430.27 378.649 1430.27 381.007C1430.27 383.862 1428.16 385.599 1424.56 385.599C1420.96 385.351 1418.6 383.614 1418.11 380.511Z" fill="#FF931E"/>
<path id="Vector_202" d="M1439.08 372.941C1439.82 371.327 1441.69 369.838 1443.8 369.838C1447.64 369.838 1450 373.065 1450 377.532C1450 382.124 1447.64 385.351 1443.67 385.351C1441.81 385.351 1439.95 384.234 1439.33 382.621V390.812H1436.85V370.21H1439.2V372.941H1439.08ZM1443.18 383.117C1445.78 383.117 1447.27 380.883 1447.27 377.532C1447.27 374.182 1445.91 372.072 1443.3 372.072C1440.82 372.072 1439.2 374.057 1439.2 377.284V378.029C1439.2 381.132 1440.69 383.117 1443.18 383.117Z" fill="#FF931E"/>
<path id="Vector_203" d="M1467.12 378.277H1456.7C1456.7 381.007 1458.31 383.117 1461.04 383.117C1463.03 383.117 1464.27 381.876 1465.02 380.511L1467.12 381.628C1465.88 384.11 1463.9 385.351 1461.04 385.351C1456.33 385.351 1454.1 382.124 1454.1 377.284C1454.1 372.692 1456.7 369.838 1460.92 369.838C1465.51 369.838 1467.25 373.065 1467.25 377.16C1467.25 377.532 1467.12 377.905 1467.12 378.277ZM1460.8 371.824C1458.07 371.824 1456.7 374.057 1456.7 376.167H1464.52C1464.64 373.809 1463.4 371.824 1460.8 371.824Z" fill="#FF931E"/>
<path id="Vector_204" d="M1472.58 377.532C1472.58 373.065 1474.82 369.838 1479.53 369.838C1482.88 369.838 1485.24 371.699 1485.61 375.174L1483.01 375.423C1482.76 373.189 1481.52 371.948 1479.41 371.948C1476.68 371.948 1475.31 374.182 1475.31 377.408C1475.31 380.759 1476.68 383.117 1479.53 383.117C1481.64 383.117 1482.88 381.752 1483.26 379.518L1485.61 379.89C1485.12 382.869 1483.26 385.351 1479.53 385.351C1474.82 385.351 1472.58 382 1472.58 377.532Z" fill="#FF931E"/>
<path id="Vector_205" d="M1492.32 382.993H1497.03V372.32H1492.69V370.21H1499.51V382.993H1504.48V385.103H1492.19V382.993H1492.32ZM1499.76 367.232H1496.16V363.633H1499.76V367.232Z" fill="#FF931E"/>
<path id="Vector_206" d="M1522.35 372.196H1516.76V384.979H1514.28V372.196H1509.69V370.211H1514.28V368.597C1514.28 365.246 1516.14 363.509 1519.86 363.509C1520.73 363.509 1521.48 363.633 1522.47 363.757V365.991C1521.85 365.867 1520.98 365.743 1519.86 365.743C1517.63 365.743 1516.76 366.487 1516.76 368.721V370.211H1522.35V372.196ZM1529.05 382.993H1533.76V372.32H1529.42V370.211H1536.24V382.993H1541.21V385.103H1528.92V382.993H1529.05ZM1536.62 367.232H1533.02V363.633H1536.62V367.232Z" fill="#FF931E"/>
<path id="Vector_207" d="M1546.17 377.532C1546.17 373.065 1548.41 369.838 1553.12 369.838C1556.47 369.838 1558.83 371.699 1559.2 375.174L1556.6 375.423C1556.35 373.189 1555.11 371.948 1553 371.948C1550.27 371.948 1548.9 374.182 1548.9 377.408C1548.9 380.759 1550.27 383.117 1553.12 383.117C1555.23 383.117 1556.47 381.752 1556.84 379.518L1559.2 379.89C1558.71 382.869 1556.84 385.351 1553.12 385.351C1548.41 385.351 1546.17 382 1546.17 377.532Z" fill="#FF931E"/>
</g>
<path id="Vector_208" d="M1130.71 247.47L1231.97 348.74C1238.79 355.566 1248.1 359.413 1257.9 359.413H1315.73" stroke="#FF931E" stroke-width="3" stroke-miterlimit="10"/>
<path id="Vector_209" d="M848.028 104.127C916.651 104.127 972.865 160.347 972.865 228.978V336.578C972.865 405.208 916.651 461.428 848.028 461.428" stroke="#00BEFF" stroke-width="3" stroke-miterlimit="10" stroke-linecap="round" stroke-linejoin="round"/>
<path id="Vector_210" d="M888.482 378.401V414.889" stroke="#00BEFF" stroke-width="3" stroke-miterlimit="10" stroke-linecap="round" stroke-linejoin="round"/>
<path id="Vector_211" d="M866.145 378.773V415.385" stroke="#00BEFF" stroke-width="3" stroke-miterlimit="10" stroke-linecap="round" stroke-linejoin="round"/>
<path id="Vector_212" d="M899.774 305.179C913.687 305.179 924.965 293.9 924.965 279.986C924.965 266.072 913.687 254.792 899.774 254.792C885.862 254.792 874.583 266.072 874.583 279.986C874.583 293.9 885.862 305.179 899.774 305.179Z" fill="#00BEFF"/>
<path id="Vector_213" d="M893.942 467.882V502.507" stroke="#00BEFF" stroke-width="3" stroke-miterlimit="10" stroke-linecap="round" stroke-linejoin="round"/>
<path id="Vector_214" d="M864.408 499.529H850.137C845.918 499.529 842.444 496.054 842.444 491.834V490.345C842.444 486.125 845.918 482.65 850.137 482.65H864.408C868.627 482.65 872.102 486.125 872.102 490.345V491.834C872.102 496.054 868.751 499.529 864.408 499.529Z" stroke="#00BEFF" stroke-width="3" stroke-miterlimit="10" stroke-linecap="round" stroke-linejoin="round"/>
</g>
</g>
</svg>
