<svg width="1730" height="1945" viewBox="0 0 1730 1945" fill="none" xmlns="http://www.w3.org/2000/svg">
<g id="Anatomy">
<g id="no-hover">
<path id="Vector" d="M807.503 247.248H631.198C612.45 247.248 597.178 231.983 597.178 213.243V71.6379C597.178 52.8979 612.45 37.6328 631.198 37.6328H807.503C826.25 37.6328 841.522 52.8979 841.522 71.6379V213.367C841.522 232.107 826.25 247.248 807.503 247.248Z" fill="#D6F6FF" stroke="#FF921E" stroke-width="7" stroke-miterlimit="10" stroke-linecap="round" stroke-linejoin="round"/>
<path id="Vector_2" d="M1096.42 508.988H875.541C856.793 508.988 841.522 493.722 841.522 474.982V38.0051C841.522 19.265 856.793 4 875.541 4H1096.42C1115.17 4 1130.44 19.265 1130.44 38.0051V474.982C1130.44 493.722 1115.29 508.988 1096.42 508.988Z" fill="#D6F6FF" stroke="#FF921E" stroke-width="7" stroke-miterlimit="10" stroke-linecap="round" stroke-linejoin="round"/>
<path id="Vector_3" d="M684.834 1480.74H178.019C159.271 1480.74 144 1465.47 144 1446.73V519.66C144 500.92 159.271 485.655 178.019 485.655H684.834C703.582 485.655 718.854 500.92 718.854 519.66V1446.61C718.854 1465.47 703.582 1480.74 684.834 1480.74Z" fill="#D6F6FF" stroke="#FF921E" stroke-width="7" stroke-miterlimit="10" stroke-linecap="round" stroke-linejoin="round"/>
<path id="Vector_4" d="M1175.63 961.353H829.106C810.358 961.353 795.087 946.088 795.087 927.348V665.112C795.087 646.372 810.358 631.107 829.106 631.107H1175.63C1194.38 631.107 1209.65 646.372 1209.65 665.112V927.473C1209.65 946.213 1194.38 961.353 1175.63 961.353Z" fill="#D6F6FF" stroke="#FF921E" stroke-width="7" stroke-miterlimit="10" stroke-linecap="round" stroke-linejoin="round"/>
<path id="Vector_5" d="M945.07 1251.27H793.472C774.725 1251.27 759.453 1236 759.453 1217.26V1026.14C759.453 1007.4 774.725 992.133 793.472 992.133H945.07C963.818 992.133 979.089 1007.4 979.089 1026.14V1217.26C979.089 1236 963.818 1251.27 945.07 1251.27Z" fill="#D6F6FF" stroke="#FF921E" stroke-width="7" stroke-miterlimit="10" stroke-linecap="round" stroke-linejoin="round"/>
<path id="Vector_6" d="M846.488 474.113C771.372 474.113 709.914 412.681 709.914 337.597V227.763C709.914 152.679 771.372 91.2461 846.488 91.2461C921.604 91.2461 983.063 152.679 983.063 227.763V337.597C983.063 412.681 921.604 474.113 846.488 474.113Z" stroke="#00BEFF" stroke-width="3" stroke-miterlimit="10"/>
<path id="Vector_7" d="M709.914 234.713C685.331 234.713 665.341 259.534 665.341 290.064C665.341 320.594 685.331 345.415 709.914 345.415" stroke="#00BEFF" stroke-width="3" stroke-miterlimit="10"/>
<path id="Vector_8" d="M983.063 345.54C1007.65 345.54 1027.64 320.718 1027.64 290.188C1027.64 259.658 1007.65 234.713 983.063 234.713" stroke="#00BEFF" stroke-width="3" stroke-miterlimit="10"/>
<g id="Group">
<g id="Group_2">
<path id="Vector_9" d="M880.384 1169.36V1943.28H1107.84C1133.54 1943.28 1154.4 1922.43 1154.4 1896.74C1154.4 1871.05 1133.54 1850.2 1107.84 1850.2H1087.36V724.808H1106.1L1378.01 1366.81C1378.13 1367.06 1378.13 1367.31 1378.26 1367.55L1400.23 1420.55C1405.08 1432.21 1418.49 1437.8 1430.28 1432.96C1441.83 1428.12 1447.42 1414.96 1442.82 1403.3L1443.44 1404.79C1448.28 1416.45 1461.69 1422.04 1473.49 1417.2C1485.16 1412.36 1490.75 1398.95 1485.9 1387.16L1476.59 1364.57L1462.44 1331.93L1486.28 1387.41C1491.12 1399.08 1504.53 1404.66 1516.32 1399.82C1527.99 1394.98 1533.58 1381.58 1528.74 1369.79L1506.76 1316.79C1506.51 1316.17 1506.14 1315.55 1505.65 1315.18L1487.15 1271.12L1529.73 1253.5C1538.67 1249.78 1542.89 1239.6 1539.17 1230.66L1537.93 1227.69C1534.2 1218.75 1524.02 1214.53 1515.08 1218.25L1472.37 1236L1208.29 615.843C1185.56 565.456 1146.95 536.663 1091.33 536.663C1055.45 536.663 905.464 536.663 905.464 536.663V461.455" stroke="#00BEFF" stroke-width="3" stroke-miterlimit="10" stroke-linecap="round" stroke-linejoin="round"/>
<path id="Vector_10" d="M1442.7 1403.3L1419.85 1345.96" stroke="#00BEFF" stroke-width="3" stroke-miterlimit="10" stroke-linecap="round"/>
</g>
<g id="Group_3">
<path id="Vector_11" d="M851.703 1169.35V1943.28H624.121C598.42 1943.28 577.561 1922.43 577.561 1896.74C577.561 1871.05 598.42 1850.2 624.121 1850.2H644.607V724.807H625.859L353.952 1366.81C353.828 1367.06 353.828 1367.3 353.704 1367.55L331.728 1420.55C326.885 1432.21 313.476 1437.8 301.681 1432.96C290.134 1428.12 284.547 1414.96 289.141 1403.29L288.52 1404.78C283.678 1416.45 270.269 1422.03 258.474 1417.19C246.803 1412.35 241.216 1398.95 246.058 1387.16L255.37 1364.57H255.246L245.686 1387.53C240.844 1399.2 227.434 1404.78 215.639 1399.94C203.969 1395.1 198.381 1381.7 203.224 1369.91L225.2 1316.92C225.448 1316.3 225.82 1315.68 226.317 1315.3L244.817 1271.25L202.23 1253.62C193.291 1249.9 189.07 1239.72 192.794 1230.79L194.036 1227.81C197.761 1218.87 207.942 1214.65 216.881 1218.38L259.591 1236.12L523.676 615.966C546.397 565.579 585.011 536.786 640.634 536.786C676.515 536.786 792.852 536.786 792.852 536.786V461.578" stroke="#00BEFF" stroke-width="3" stroke-miterlimit="10" stroke-linecap="round" stroke-linejoin="round"/>
<path id="Vector_12" d="M289.389 1403.3L312.11 1345.96" stroke="#00BEFF" stroke-width="3" stroke-miterlimit="10" stroke-linecap="round" stroke-linejoin="round"/>
<path id="Vector_13" d="M255.743 1363.71L270.518 1329.08" stroke="#00BEFF" stroke-width="3" stroke-miterlimit="10" stroke-linecap="round" stroke-linejoin="round"/>
</g>
<path id="Vector_14" d="M880.632 1169.85H851.951" stroke="#00BEFF" stroke-width="3" stroke-miterlimit="10" stroke-linecap="round" stroke-linejoin="round"/>
</g>
<path id="Vector_15" d="M751.259 276.536C759.702 270.207 780.063 262.761 796.949 275.916" stroke="#00BEFF" stroke-width="3" stroke-miterlimit="10" stroke-linecap="round" stroke-linejoin="round"/>
<path id="Vector_16" d="M776.711 289.196C782.197 289.196 786.644 284.751 786.644 279.267C786.644 273.784 782.197 269.339 776.711 269.339C771.226 269.339 766.779 273.784 766.779 279.267C766.779 284.751 771.226 289.196 776.711 289.196Z" fill="#00BEFF"/>
<path id="Vector_17" d="M877.9 276.536C886.343 270.207 906.705 262.761 923.591 275.916" stroke="#00BEFF" stroke-width="3" stroke-miterlimit="10" stroke-linecap="round" stroke-linejoin="round"/>
<path id="Vector_18" d="M874.3 239.553C884.729 231.734 909.933 222.427 930.792 238.809" stroke="#00BEFF" stroke-width="3" stroke-miterlimit="10" stroke-linecap="round" stroke-linejoin="round"/>
<path id="Vector_19" d="M899.628 289.196C905.114 289.196 909.561 284.751 909.561 279.267C909.561 273.784 905.114 269.339 899.628 269.339C894.142 269.339 889.695 273.784 889.695 279.267C889.695 284.751 894.142 289.196 899.628 289.196Z" fill="#00BEFF"/>
<path id="Vector_20" d="M796.825 399.526H914.527" stroke="#00BEFF" stroke-width="3" stroke-miterlimit="10" stroke-linecap="round" stroke-linejoin="round"/>
<path id="Vector_21" d="M815.945 272.565V348.642H839.039" stroke="#00BEFF" stroke-width="3" stroke-miterlimit="10" stroke-linecap="round" stroke-linejoin="round"/>
</g>
<g id="arm-hover">
<path id="Vector_22" d="M361.71 1654.87H44.4055C21.2002 1654.87 2.33813 1635.98 2.33813 1612.75V1588.15C2.33813 1564.92 21.2002 1546.04 44.4055 1546.04H361.71C384.915 1546.04 403.777 1564.92 403.777 1588.15V1612.75C403.901 1635.98 385.039 1654.87 361.71 1654.87Z" stroke="#FF921E" stroke-width="3" stroke-miterlimit="10"/>
<path id="Vector_23" d="M597.734 1480.45L491.635 1586.66C483.444 1594.86 472.152 1599.58 460.487 1599.58H402.908" stroke="#FF921E" stroke-width="3" stroke-miterlimit="10"/>
<path id="Vector_24" d="M716.862 547.486H641.662C641.662 547.486 578.375 538.541 542.761 606.867L266.779 1250.62L214.536 1229.01C210.069 1227.14 205.105 1229.38 203.368 1233.85C201.755 1238.08 203.864 1242.92 207.959 1244.66L258.837 1267.27L214.412 1369.26C210.813 1377.34 212.675 1384.92 220.865 1388.27C228.807 1391.5 236.873 1387.77 240.223 1379.95L266.779 1317.83L282.663 1323.79L258.093 1384.67C254.742 1392.62 255.487 1401.69 263.429 1405.04C271.371 1408.27 279.437 1404.54 282.663 1396.72L309.343 1331.75L324.234 1338.7L298.795 1401.94C295.941 1409.64 298.795 1418.33 306.489 1421.44C314.182 1424.42 321.876 1420.82 324.978 1413.12L619.946 710.971H657.546V1477.34" stroke="#00BEFF" stroke-width="3" stroke-miterlimit="10" stroke-linecap="round"/>
<path id="Vector_25" d="M714.381 565.499H623.917C623.917 565.499 586.317 567.362 561.623 613.948L467.685 823.896C467.685 823.896 456.144 846.009 459.991 862.656C463.838 879.302 467.064 886.632 459.991 905.266C452.918 923.901 292.715 1290.25 292.715 1290.25C292.715 1290.25 285.765 1305.16 295.693 1309.01C305.62 1312.86 310.584 1298.08 310.584 1298.08L417.427 1059.43C417.427 1059.43 421.398 1049.12 436.662 1051.24C452.049 1053.47 457.882 1035.58 457.882 1035.58L596.245 707.866C596.245 707.866 603.194 691.095 619.946 691.095H654.568C654.568 691.095 675.291 690.101 675.291 716.81C675.291 743.52 675.291 834.58 675.291 834.58C675.291 834.58 670.328 862.283 713.388 861.538" stroke="#00BEFF" stroke-width="3" stroke-miterlimit="10" stroke-linecap="round"/>
<path id="Vector_26" d="M675.291 736.687C675.291 736.687 698 733.581 698 761.285C698 788.988 698 823.772 698 823.772" stroke="#00BEFF" stroke-width="3" stroke-miterlimit="10" stroke-linecap="round"/>
<path id="Vector_27" d="M512.606 905.888C512.606 905.888 522.037 892.471 507.27 851.475C494.364 815.821 511.613 780.292 511.613 780.292L583.339 622.769C583.339 622.769 595.252 587.115 628.881 587.115H716.862" stroke="#00BEFF" stroke-width="3" stroke-miterlimit="10" stroke-linecap="round"/>
<path id="Vector_28" d="M635.954 587.115C635.954 587.115 650.721 588.109 657.546 605.874C664.495 623.639 681.248 623.639 681.248 623.639H716.862" stroke="#00BEFF" stroke-width="3" stroke-miterlimit="10" stroke-linecap="round"/>
<path id="Vector_29" d="M716.862 1226.52C686.211 1226.52 675.291 1202.92 675.291 1178.07V964.151C675.291 939.305 686.211 915.701 716.862 915.701" stroke="#00BEFF" stroke-width="3" stroke-miterlimit="10" stroke-linecap="round"/>
<path id="Vector_30" d="M675.912 1144.9C690.058 1144.9 703.584 1138.69 703.584 1121.18V952.722" stroke="#00BEFF" stroke-width="3" stroke-miterlimit="10" stroke-linecap="round"/>
<path id="Vector_31" d="M410.106 1019.68C393.85 1013.22 383.054 1023.41 377.842 1036.58L326.219 1159.44" stroke="#00BEFF" stroke-width="3" stroke-miterlimit="10" stroke-linecap="round"/>
<path id="Vector_32" d="M502.058 927.503C485.802 921.043 475.006 931.23 469.794 944.398L437.902 1018.69" stroke="#00BEFF" stroke-width="3" stroke-miterlimit="10" stroke-linecap="round"/>
<path id="Vector_33" d="M464.458 953.343C457.509 950.61 452.918 954.958 450.684 960.548L437.034 992.351" stroke="#00BEFF" stroke-width="3" stroke-miterlimit="10" stroke-linecap="round"/>
<path id="Vector_34" d="M658.911 661.528C658.911 654.075 653.203 651.341 647.122 651.341L612.625 650.348" stroke="#00BEFF" stroke-width="3" stroke-miterlimit="10" stroke-linecap="round"/>
<path id="Vector_35" d="M366.425 1176.71C382.309 1184.16 382.309 1198.94 376.229 1211.86L344.089 1286.03" stroke="#00BEFF" stroke-width="3" stroke-miterlimit="10" stroke-linecap="round"/>
<path id="Vector_36" d="M368.411 1231.12C377.345 1235.34 377.345 1243.67 373.871 1250.87L355.877 1292.49" stroke="#00BEFF" stroke-width="3" stroke-miterlimit="10" stroke-linecap="round"/>
<path id="Vector_37" d="M407.996 1080.68C416.931 1084.9 416.931 1093.22 413.456 1100.43L395.463 1142.05" stroke="#00BEFF" stroke-width="3" stroke-miterlimit="10" stroke-linecap="round"/>
<path id="Vector_38" d="M406.011 1119.31C414.945 1123.54 414.945 1131.86 411.471 1139.07L393.478 1180.68" stroke="#00BEFF" stroke-width="3" stroke-miterlimit="10" stroke-linecap="round"/>
<path id="Vector_39" d="M537.549 765.881C546.483 770.105 546.483 778.428 543.009 785.633L525.015 827.25" stroke="#00BEFF" stroke-width="3" stroke-miterlimit="10" stroke-linecap="round"/>
<path id="Vector_40" d="M333.417 1191.62C324.234 1188.01 318.277 1193.73 315.299 1201.18L284.772 1273.23" stroke="#00BEFF" stroke-width="3" stroke-miterlimit="10" stroke-linecap="round"/>
<path id="Vector_41" d="M550.454 700.536C559.389 704.76 559.389 713.083 555.914 720.289L520.052 802.031" stroke="#00BEFF" stroke-width="3" stroke-miterlimit="10" stroke-linecap="round"/>
<path id="Vector_42" d="M701.599 1076.58C690.679 1076.58 686.708 1068.13 686.708 1059.31V998.314" stroke="#00BEFF" stroke-width="3" stroke-miterlimit="10" stroke-linecap="round"/>
<path id="Vector_43" d="M675.291 1484.67V1321.68C675.291 1296.84 686.211 1273.23 716.862 1273.23" stroke="#00BEFF" stroke-width="3" stroke-miterlimit="10" stroke-linecap="round"/>
<path id="Vector_44" d="M703.46 1478.96V1310.13" stroke="#00BEFF" stroke-width="3" stroke-miterlimit="10" stroke-linecap="round"/>
<path id="Vector_45" d="M701.599 1433.99C690.679 1433.99 686.708 1425.54 686.708 1416.72V1355.72" stroke="#00BEFF" stroke-width="3" stroke-miterlimit="10" stroke-linecap="round"/>
<path id="Vector_46" d="M467.685 823.771L404.397 972.225" stroke="#00BEFF" stroke-width="3" stroke-miterlimit="10" stroke-linecap="round"/>
<path id="Vector_47" d="M716.862 661.28H609.895C609.895 661.28 595.252 659.417 587.31 681.157" stroke="#00BEFF" stroke-width="3" stroke-miterlimit="10" stroke-linecap="round"/>
</g>
<g id="crotch-hover">
<path id="Vector_48" d="M1518.39 1256.96H1200.58C1177.34 1256.96 1158.45 1238.08 1158.45 1214.85V1190.25C1158.45 1167.02 1177.34 1148.13 1200.58 1148.13H1518.39C1541.63 1148.13 1560.53 1167.02 1560.53 1190.25V1214.85C1560.53 1238.08 1541.63 1256.96 1518.39 1256.96Z" fill="white" stroke="#FF921E" stroke-width="3" stroke-miterlimit="10" stroke-linecap="round" stroke-linejoin="round"/>
<path id="Vector_49" d="M979.096 1119.31L1047.95 1188.14C1055.91 1196.09 1066.6 1200.44 1077.78 1200.44H1158.45" stroke="#FF921E" stroke-width="3" stroke-miterlimit="10" stroke-linecap="round" stroke-linejoin="round"/>
<path id="Vector_50" d="M842.501 1250.75V1159.44H891.347V1250.75" stroke="#00BEFF" stroke-width="3" stroke-miterlimit="10" stroke-linecap="round" stroke-linejoin="round"/>
</g>
<g id="head-hover">
<path id="Vector_51" d="M463.858 242.142H171.092C147.875 242.142 129.003 223.259 129.003 200.029V175.431C129.003 152.2 147.875 133.317 171.092 133.317H463.858C487.076 133.317 505.948 152.2 505.948 175.431V200.029C505.948 223.259 487.2 242.142 463.858 242.142Z" stroke="#FF921E" stroke-width="3" stroke-miterlimit="10" stroke-linecap="round" stroke-linejoin="round"/>
<path id="Vector_52" d="M505.948 188.102H545.058C552.88 188.102 560.329 184.996 565.916 179.406L598.818 146.485" stroke="#FF921E" stroke-width="3" stroke-miterlimit="10" stroke-linecap="round" stroke-linejoin="round"/>
<path id="Vector_53" d="M722.729 244.751V229.222C722.729 162.511 775.62 107.602 841.424 104.496" stroke="#00BEFF" stroke-width="3" stroke-miterlimit="10" stroke-linecap="round" stroke-linejoin="round"/>
<path id="Vector_54" d="M841.424 122.013C793.374 124.87 753.395 159.654 741.476 205.619C741.476 205.619 735.144 227.732 755.878 227.732C776.613 227.732 839.065 227.732 839.065 227.732" stroke="#00BEFF" stroke-width="3" stroke-miterlimit="10" stroke-linecap="round" stroke-linejoin="round"/>
<path id="Vector_55" d="M781.455 144.871H812.991C812.991 144.871 824.166 144.622 824.166 153.567C824.166 161.518 816.22 161.518 816.22 161.518C816.22 161.518 806.287 161.518 806.287 170.462C806.287 177.419 811.377 178.91 815.723 178.91C820.068 178.91 838.941 179.034 838.941 179.034" stroke="#00BEFF" stroke-width="3" stroke-miterlimit="10" stroke-linecap="round" stroke-linejoin="round"/>
<path id="Vector_56" d="M781.703 173.319H764.694C755.754 173.319 748.429 180.649 748.429 189.593C748.429 198.538 755.754 205.867 764.694 205.867H785.304C794.243 205.867 801.569 213.197 801.569 222.141V227.608" stroke="#00BEFF" stroke-width="3" stroke-miterlimit="10" stroke-linecap="round" stroke-linejoin="round"/>
<path id="Vector_57" d="M771.647 188.102H782.2C790.271 188.102 796.851 181.518 796.851 173.443C796.851 165.368 790.271 158.784 782.2 158.784H766.805" stroke="#00BEFF" stroke-width="3" stroke-miterlimit="10" stroke-linecap="round" stroke-linejoin="round"/>
<path id="Vector_58" d="M803.307 196.053H825.531C830.746 196.053 834.967 200.277 834.967 205.494C834.967 210.712 830.746 214.936 825.531 214.936H816.22" stroke="#00BEFF" stroke-width="3" stroke-miterlimit="10" stroke-linecap="round" stroke-linejoin="round"/>
</g>
<g id="heart-hover">
<path id="Vector_59" d="M1007.73 702.537C995.946 693.716 979.193 696.077 970.259 707.879L955.119 727.879L939.98 707.879C931.045 696.077 914.293 693.716 902.504 702.537C890.467 711.481 888.234 728.501 897.292 740.427L954.995 815.585V815.71L955.119 815.585L955.243 815.71V815.585L1012.95 740.427C1022.01 728.625 1019.77 711.605 1007.73 702.537Z" fill="#00BEFF"/>
<path id="Vector_60" d="M1623.85 774.714H1396.27C1377.78 774.714 1362.76 759.682 1362.76 741.172V663.777C1362.76 645.267 1377.78 630.235 1396.27 630.235H1623.85C1642.34 630.235 1657.36 645.267 1657.36 663.777V741.172C1657.36 759.682 1642.34 774.714 1623.85 774.714Z" stroke="#FF921E" stroke-width="3" stroke-miterlimit="10" stroke-linecap="round" stroke-linejoin="round"/>
<path id="Vector_61" d="M1209.88 803.908L1300.72 712.972C1307.79 705.891 1317.35 701.916 1327.4 701.916H1363.14" stroke="#FF921E" stroke-width="3" stroke-miterlimit="10" stroke-linecap="round" stroke-linejoin="round"/>
<path id="Vector_62" d="M1074.37 963.915V713.345H1116.19L1206.65 931.864" stroke="#00BEFF" stroke-width="3" stroke-miterlimit="10"/>
</g>
</g>
</svg>
