<?xml version="1.0" encoding="utf-8"?>
<!-- Generator: Adobe Illustrator 25.2.3, SVG Export Plug-In . SVG Version: 6.00 Build 0)  -->
<svg version="1.1" id="Camada_1" xmlns="http://www.w3.org/2000/svg" xmlns:xlink="http://www.w3.org/1999/xlink" x="0px" y="0px"
	 viewBox="0 0 359.7 246.3" style="enable-background:new 0 0 359.7 246.3;" xml:space="preserve">
<style type="text/css">
	.st0{fill:#FFFFFF;}
	.st1{fill:#FF911E;}
	.st2{fill:none;}
	.st3{enable-background:new    ;}
</style>
<g>
	<path class="st0" d="M284.8,222.9H59.5c-18.7,0-33.9-15.2-33.9-33.9V51.2c0-18.7,15.2-33.9,33.9-33.9h225.3
		c18.7,0,33.9,15.2,33.9,33.9V189C318.8,207.7,303.6,222.9,284.8,222.9z"/>
	<path class="st1" d="M284.8,17.2h-21v3h21V17.2L284.8,17.2L284.8,17.2z M242.8,17.2h-21v3h21V17.2L242.8,17.2z M200.8,17.2h-21v3
		h21V17.2L200.8,17.2z M158.8,17.2h-21v3h21V17.2L158.8,17.2z M116.8,17.2h-21v3h21V17.2L116.8,17.2z M74.8,17.2H59.5l0,0l0,0l0,0
		l0,0l0,0l0,0l0,0l0,0l0,0l0,0l0,0l0,0l0,0l0,0l0,0l0,0c0,0,0,0-0.1,0l0,0l0,0l0,0l0,0l0,0l0,0l0,0l0,0l0,0l0,0l0,0l0,0l0,0l0,0l0,0
		c0,0,0,0-0.1,0l0,0l0,0l0,0l0,0l0,0l0,0l0,0l0,0l0,0l0,0l0,0l0,0l0,0l0,0l0,0c0,0,0,0-0.1,0l0,0l0,0l0,0l0,0l0,0l0,0l0,0l0,0l0,0
		l0,0l0,0l0,0l0,0l0,0l0,0c0,0,0,0-0.1,0l0,0l0,0l0,0l0,0l0,0H59l0,0l0,0l0,0h-0.1l0,0l0,0l0,0c-1.4,0.1-2.8,0.2-4.2,0.4l0,0l0,0
		l0,0h-0.1l0,0l0,0l0,0l0,0l0.5,3c1.7-0.3,3.4-0.4,5.1-0.4h15.4v-3H74.8z M35.5,27.2c-1.2,1.2-2.3,2.5-3.4,3.9l0,0l0,0l0,0
		c-0.1,0.1-0.2,0.3-0.3,0.4l0,0c0,0.1-0.1,0.1-0.1,0.2l0,0c0,0,0,0.1-0.1,0.1l0,0c0,0,0,0.1-0.1,0.1l0,0c0,0,0,0,0,0.1l0,0
		c0,0.1-0.1,0.1-0.1,0.2l0,0c0,0,0,0.1-0.1,0.1l0,0l0,0l0,0c0,0,0,0,0,0.1l0,0c0,0,0,0.1-0.1,0.1l0,0c0,0,0,0.1-0.1,0.1l0,0
		c0,0,0,0,0,0.1l0,0l0,0l0,0c0,0,0,0,0,0.1l0,0l0,0l0,0c0,0,0,0,0,0.1l0,0l0,0l0,0c0,0,0,0,0,0.1l0,0l0,0l0,0c0,0,0,0,0,0.1l0,0l0,0
		l0,0c0,0,0,0,0,0.1l0,0l0,0l0,0l0,0l0,0l0,0l0,0l0,0l0,0l0,0l0,0l0,0l0,0l0,0l0,0l0,0l0,0l0,0l0,0l0,0l0,0l0,0l0,0l0,0l0,0l0,0l0,0
		l0,0l0,0l0,0l0,0l0,0l0,0l0,0l0,0l0,0l0,0l0,0l0,0l0,0l0,0l0,0l0,0l0,0l0,0l0,0l0,0l0,0l0,0l0,0l0,0l0,0l0,0l0,0l0,0l0,0l0,0l0,0
		l0,0l0,0l0,0l0,0l0,0l0,0l0,0l0,0l0,0l0,0l0,0l0,0l0,0l0,0l0,0l0,0l0,0l0,0l0,0l0,0l0,0l0,0l0,0l0,0l0,0l0,0l0,0l0,0l0,0l0,0l0,0
		l0,0l0,0l0,0l0,0l0,0l0,0l0,0l0,0l0,0l0,0l0,0l0,0l0,0l0,0l0,0l0,0l0,0l0,0l0,0l0,0l0,0l0,0l0,0l0,0l0,0l0,0l0,0l0,0l0,0l0,0l0,0
		l0,0l0,0l0,0l0,0l0,0l0,0l0,0l0,0l0,0l0,0l0,0l0,0l0,0l0,0l0,0l0,0l0,0l0,0l0,0l0,0l0,0l0,0l0,0l0,0l0,0l0,0l0,0l0,0l0,0l0,0l0,0
		l0,0l0,0l0,0l0,0l0,0l0,0l0,0l0,0l0,0l0,0l0,0l0,0l0,0l0,0l0,0l0,0l0,0l0,0l0,0l0,0l0,0l0,0l0,0l0,0l0,0l0,0l0,0l0,0l0,0l0,0l0,0
		l0,0l0,0l0,0l0,0l0,0l0,0l0,0l0,0l0,0l0,0l0,0l0,0l0,0l0,0l0,0l0,0l0,0l0,0l0,0l0,0l0,0l0,0l0,0l0,0l0,0l0,0l0,0l0,0l0,0l0,0l0,0
		l0,0l0,0l0,0l0,0l0,0l0,0l0,0l0,0l0,0l0,0l0,0l0,0l0,0l0,0l0,0l0,0l0,0l0,0l0,0l0,0l0,0l0,0l0,0l0,0l0,0l0,0l0,0l0,0l0,0l0,0l0,0
		l0,0l0,0l0,0l0,0l0,0l0,0l0,0l0,0l0,0l0,0l0,0l0,0l0,0l0,0l0,0l0,0l0,0l0,0l0,0l0,0l0,0l0,0c0,0,0,0,0,0.1l0,0l0,0l0,0
		c0,0,0,0,0,0.1l0,0l0,0l0,0l0,0l0,0l0,0l0,0l0,0l0,0l0,0l0,0l0,0l0,0l0,0l0,0l0,0l0,0l0,0l0,0v0.1l0,0v0.1l0,0v0.1l0,0v0.1l0,0v0.1
		l0,0c0,0,0,0,0,0.1l0,0l0,0l0,0c0,0,0,0,0,0.1l0,0l0,0l0,0c-1.2,2.6-2,5.4-2.5,8.3l3,0.5c1.1-6.4,4.1-12.1,8.6-16.7L35.5,27.2
		L35.5,27.2z M28.6,66.5h-3v21h3V66.5L28.6,66.5z M28.6,108.5h-3v21h3V108.5L28.6,108.5z M28.6,150.5h-3v21h3V150.5L28.6,150.5z
		 M28.7,192.2l-3,0.3c0.2,1.5,0.4,2.9,0.7,4.3l0,0l0,0l0,0v0.1l0,0v0.1l0,0v0.1l0,0l0,0l0,0l0,0l0,0c0,0,0,0,0,0.1l0,0l0,0l0,0l0,0
		l0,0c0,0,0,0,0,0.1l0,0l0,0l0,0v0.1l0,0l0,0l0,0c0,0,0,0,0,0.1l0,0l0,0l0,0l0,0l0,0c0,0,0,0,0,0.1l0,0l0,0l0,0l0,0l0,0
		c0,0,0,0,0,0.1l0,0l0,0l0,0l0,0l0,0l0,0l0,0l0,0l0,0l0,0l0,0l0,0l0,0l0,0l0,0l0,0l0,0l0,0l0,0l0,0l0,0l0,0l0,0l0,0l0,0l0,0l0,0l0,0
		l0,0l0,0l0,0l0,0l0,0l0,0l0,0l0,0l0,0l0,0l0,0l0,0l0,0l0,0l0,0l0,0l0,0l0,0l0,0l0,0l0,0l0,0l0,0l0,0l0,0l0,0l0,0l0,0l0,0l0,0l0,0
		l0,0l0,0l0,0l0,0l0,0l0,0l0,0l0,0l0,0l0,0l0,0l0,0l0,0l0,0l0,0l0,0l0,0l0,0l0,0l0,0l0,0l0,0l0,0l0,0l0,0l0,0l0,0l0,0l0,0l0,0l0,0
		l0,0l0,0l0,0l0,0l0,0l0,0l0,0l0,0l0,0l0,0l0,0l0,0l0,0l0,0l0,0l0,0l0,0l0,0l0,0l0,0l0,0l0,0l0,0l0,0l0,0l0,0l0,0l0,0l0,0l0,0l0,0
		l0,0l0,0l0,0l0,0l0,0l0,0l0,0l0,0l0,0l0,0l0,0l0,0l0,0l0,0l0,0l0,0l0,0l0,0l0,0l0,0l0,0l0,0l0,0l0,0l0,0l0,0l0,0l0,0l0,0l0,0l0,0
		l0,0l0,0l0,0l0,0l0,0l0,0l0,0l0,0l0,0l0,0l0,0l0,0l0,0l0,0l0,0l0,0l0,0l0,0l0,0l0,0l0,0l0,0l0,0l0,0l0,0l0,0l0,0l0,0l0,0l0,0l0,0
		l0,0l0,0l0,0l0,0l0,0l0,0l0,0l0,0l0,0l0,0l0,0l0,0l0,0l0,0l0,0l0,0l0,0l0,0l0,0l0,0l0,0l0,0l0,0l0,0l0,0l0,0l0,0l0,0l0,0l0,0l0,0
		l0,0l0,0l0,0l0,0l0,0l0,0l0,0l0,0l0,0l0,0l0,0l0,0l0,0l0,0l0,0l0,0l0,0l0,0l0,0l0,0l0,0l0,0l0,0l0,0l0,0l0,0l0,0l0,0l0,0l0,0l0,0
		l0,0l0,0l0,0l0,0l0,0l0,0l0,0l0,0l0,0l0,0l0,0l0,0l0,0l0,0l0,0l0,0l0,0l0,0l0,0l0,0l0,0l0,0l0,0l0,0l0,0l0,0l0,0l0,0l0,0l0,0l0,0
		l0,0l0,0l0,0l0,0l0,0l0,0l0,0l0,0l0,0l0,0l0,0l0,0l0,0l0,0l0,0l0,0l0,0l0,0l0,0l0,0l0,0l0,0l0,0l0,0l0,0l0,0l0,0l0,0l0,0l0,0l0,0
		l0,0l0,0l0,0l0,0l0,0l0,0l0,0l0,0l0,0l0,0l0,0l0,0l0,0l0,0l0,0l0,0l0,0l0,0l0,0l0,0l0,0l0,0l0,0l0,0l0,0l0,0l0,0l0,0l0,0l0,0l0,0
		l0,0l0,0l0,0l0,0l0,0l0,0l0,0l0,0l0,0l0,0l0,0l0,0l0,0l0,0l0,0l0,0l0,0l0,0l0,0l0,0l0,0l0,0l0,0l0,0l0,0l0,0l0,0l0,0l0,0l0,0l0,0
		l0,0l0,0l0,0l0,0l0,0l0,0l0,0l0,0l0,0l0,0l0,0l0,0l0,0l0,0l0,0l0,0l0,0l0,0l0,0l0,0l0,0l0,0l0,0l0,0l0,0l0,0l0,0l0,0l0,0l0,0l0,0
		l0,0l0,0l0,0l0,0l0,0l0,0l0,0l0,0l0,0l0,0l0,0l0,0l0,0l0,0l0,0l0,0l0,0l0,0l0,0l0,0l0,0l0,0l0,0l0,0l0,0l0,0l0,0l0,0l0,0l0,0l0,0
		l0,0l0,0l0,0l0,0l0,0l0,0l0,0l0,0l0,0l0,0l0,0l0,0l0,0l0,0l0,0l0,0l0,0l0,0l0,0l0,0l0,0l0,0l0,0l0,0l0,0l0,0l0,0l0,0l0,0l0,0l0,0
		l0,0l0,0l0,0l0,0l0,0l0,0l0,0l0,0l0,0l0,0l0,0l0,0l0,0l0,0l0,0l0,0l0,0l0,0c0,0,0,0,0,0.1l0,0l0,0l0,0l0,0l0,0l0,0l0,0l0,0l0,0l0,0
		l0,0l0,0l0,0c0,0,0,0,0,0.1l0,0l0,0l0,0l0,0l0,0l0,0l0,0l0,0l0,0c0,0,0,0,0,0.1l0,0l0,0l0,0c0,0,0,0,0,0.1l0,0l0,0l0,0
		c0,0,0,0,0,0.1l0,0l0,0l0,0l0,0l0,0l0,0l0,0c0,0,0,0,0,0.1l0,0l0,0l0,0v0.1l0,0c0,0,0,0,0,0.1l0,0l0,0l0,0c0,0,0,0,0,0.1l0,0
		c0,0.1,0.1,0.1,0.1,0.2l0,0l0,0l0,0c1.2,2.3,2.7,4.4,4.4,6.3l2.2-2C32,204.6,29.4,198.6,28.7,192.2L28.7,192.2z M52.5,219.1
		l-0.7,2.9h0.1l0,0l0,0l0,0l0,0l0,0l0,0l0,0l0,0l0,0H52l0,0l0,0l0,0l0,0l0,0l0,0l0,0l0,0l0,0l0,0l0,0h0.1l0,0l0,0l0,0l0,0l0,0l0,0
		l0,0l0,0l0,0l0,0l0,0c0,0,0,0,0.1,0l0,0l0,0l0,0l0,0l0,0l0,0l0,0l0,0l0,0l0,0l0,0l0,0l0,0c0,0,0,0,0.1,0l0,0l0,0l0,0l0,0l0,0l0,0
		l0,0l0,0l0,0l0,0l0,0l0,0l0,0l0,0l0,0l0,0l0,0l0,0l0,0l0,0l0,0l0,0l0,0l0,0l0,0l0,0l0,0l0,0l0,0l0,0l0,0l0,0l0,0l0,0l0,0l0,0l0,0
		l0,0l0,0l0,0l0,0l0,0l0,0l0,0l0,0l0,0l0,0l0,0l0,0l0,0l0,0l0,0l0,0l0,0l0,0l0,0l0,0l0,0l0,0l0,0c0,0,0,0,0.1,0l0,0l0,0l0,0l0,0l0,0
		l0,0l0,0l0,0l0,0l0,0l0,0l0,0l0,0c0,0,0,0,0.1,0l0,0l0,0l0,0l0,0l0,0l0,0l0,0l0,0l0,0l0,0l0,0l0,0l0,0h0.1l0,0l0,0l0,0l0,0l0,0l0,0
		l0,0l0,0l0,0l0,0l0,0l0,0l0,0h0.1l0,0l0,0l0,0l0,0l0,0l0,0l0,0l0,0l0,0h0.1l0,0l0,0l0,0l0,0l0,0l0,0l0,0l0,0l0,0l0,0l0,0h0.1l0,0
		l0,0l0,0l0,0l0,0l0,0l0,0l0,0l0,0H53l0,0l0,0l0,0l0,0l0,0l0,0l0,0l0,0l0,0l0,0l0,0h0.1l0,0l0,0l0,0l0,0l0,0l0,0l0,0l0,0l0,0h0.1
		l0,0l0,0l0,0l0,0l0,0l0,0l0,0l0,0l0,0h0.1l0,0l0,0l0,0l0,0l0,0l0,0l0,0l0,0l0,0h0.1l0,0l0,0l0,0l0,0l0,0l0,0l0,0l0,0l0,0l0,0l0,0
		l0,0l0,0h0.1l0,0l0,0l0,0l0,0l0,0l0,0l0,0l0,0l0,0h0.1l0,0l0,0l0,0l0,0l0,0l0,0l0,0l0,0l0,0h0.1l0,0l0,0l0,0l0,0l0,0l0,0l0,0l0,0
		l0,0l0,0l0,0l0,0l0,0c0,0,0,0,0.1,0l0,0l0,0l0,0l0,0l0,0l0,0l0,0l0,0l0,0l0,0l0,0l0,0l0,0c0,0,0,0,0.1,0l0,0l0,0l0,0l0,0l0,0l0,0
		l0,0l0,0l0,0l0,0l0,0l0,0l0,0c0,0,0,0,0.1,0l0,0l0,0l0,0l0,0l0,0l0,0l0,0l0,0l0,0l0,0l0,0l0,0l0,0l0,0l0,0l0,0l0,0l0,0l0,0l0,0l0,0
		l0,0l0,0l0,0l0,0l0,0l0,0l0,0l0,0l0,0l0,0l0,0l0,0l0,0l0,0l0,0l0,0l0,0l0,0l0,0l0,0l0,0l0,0l0,0l0,0l0,0l0,0l0,0l0,0l0,0l0,0l0,0
		l0,0l0,0l0,0l0,0l0,0l0,0l0,0l0,0l0,0l0,0l0,0l0,0l0,0l0,0l0,0l0,0l0,0l0,0l0,0l0,0l0,0l0,0l0,0l0,0l0,0l0,0l0,0l0,0l0,0l0,0l0,0
		l0,0l0,0l0,0l0,0l0,0l0,0l0,0l0,0l0,0l0,0l0,0l0,0l0,0l0,0l0,0l0,0l0,0l0,0l0,0l0,0l0,0l0,0l0,0l0,0l0,0l0,0l0,0l0,0l0,0l0,0l0,0
		l0,0l0,0l0,0l0,0l0,0l0,0l0,0l0,0l0,0l0,0l0,0h13.3v-3h-7.8C57.1,219.9,54.8,219.6,52.5,219.1L52.5,219.1z M114.8,219.9h-21v3h21
		V219.9L114.8,219.9z M156.8,219.9h-21v3h21V219.9L156.8,219.9z M198.8,219.9h-21v3h21V219.9L198.8,219.9z M240.8,219.9h-21v3h21
		V219.9L240.8,219.9z M282.8,219.9h-21v3h21V219.9L282.8,219.9z M313.4,200.8c-2.5,5.9-6.8,11-12.2,14.4l1.6,2.5
		c0.9-0.6,1.7-1.1,2.6-1.8l0,0c0,0,0,0,0.1,0l0,0l0,0l0,0l0,0l0,0l0,0l0,0l0,0l0,0l0,0l0,0l0,0l0,0l0,0l0,0l0,0l0,0l0,0l0,0l0,0l0,0
		l0,0l0,0l0,0l0,0l0,0l0,0l0,0l0,0l0,0l0,0l0,0l0,0l0,0l0,0l0,0l0,0l0,0l0,0l0,0l0,0l0,0l0,0l0,0l0,0l0,0l0,0l0,0l0,0l0,0l0,0l0,0
		l0,0l0,0l0,0l0,0l0,0l0,0l0,0l0,0l0,0l0,0l0,0l0,0l0,0l0,0l0,0l0,0l0,0l0,0l0,0l0,0l0,0l0,0l0,0l0,0l0,0l0,0l0,0l0,0l0,0l0,0l0,0
		l0,0l0,0l0,0l0,0l0,0l0,0l0,0l0,0l0,0l0,0l0,0l0,0l0,0l0,0l0,0l0,0l0,0l0,0l0,0l0,0l0,0l0,0l0,0l0,0l0,0l0,0l0,0l0,0l0,0l0,0l0,0
		l0,0l0,0l0,0l0,0l0,0l0,0l0,0l0,0l0,0l0,0l0,0l0,0l0,0l0,0l0,0l0,0l0,0l0,0l0,0l0,0l0,0l0,0l0,0l0,0l0,0l0,0l0,0l0,0l0,0l0,0l0,0
		l0,0l0,0l0,0l0,0l0,0l0,0l0,0l0,0l0,0l0,0l0,0l0,0l0,0l0,0l0,0l0,0l0,0c0,0,0,0,0.1,0l0,0l0,0l0,0c0,0,0,0,0.1,0l0,0l0,0l0,0
		c0,0,0,0,0.1,0l0,0l0,0l0,0c0,0,0,0,0.1-0.1l0,0l0,0l0,0c0,0,0,0,0.1,0l0,0l0,0l0,0c0,0,0,0,0.1,0l0,0l0,0l0,0c0,0,0,0,0.1-0.1l0,0
		l0,0l0,0c0,0,0,0,0.1-0.1l0,0l0,0l0,0c0,0,0,0,0.1-0.1l0,0c0.1-0.1,0.3-0.2,0.4-0.4l0,0c0.1-0.1,0.2-0.2,0.2-0.2l0,0
		c0,0,0,0,0.1-0.1l0,0c0,0,0,0,0.1-0.1l0,0c0,0,0,0,0.1-0.1l0,0l0.1-0.1l0,0c0.1-0.1,0.1-0.1,0.2-0.2l0,0l0.1-0.1l0,0
		c0,0,0,0,0.1-0.1l0,0c0.1-0.1,0.1-0.1,0.2-0.2l0,0l0,0l0,0c0.1-0.1,0.2-0.3,0.4-0.4l0,0c0,0,0,0,0.1-0.1l0,0l0,0l0,0
		c0,0,0,0,0.1-0.1l0,0l0,0l0,0c0,0,0,0,0.1-0.1l0,0l0,0l0,0c0,0,0,0,0.1-0.1l0,0c0,0,0,0,0.1-0.1l0,0l0,0l0,0c0,0,0-0.1,0.1-0.1l0,0
		c0,0,0,0,0.1-0.1l0,0l0,0l0,0c0,0,0,0,0-0.1l0,0l0,0l0,0c0,0,0,0,0.1-0.1l0,0c0,0,0,0,0-0.1l0,0l0,0l0,0c0,0,0,0,0-0.1l0,0l0,0l0,0
		c0,0,0-0.1,0.1-0.1l0,0c0,0,0,0,0-0.1l0,0l0,0l0,0l0,0l0,0l0,0l0,0l0,0l0,0l0,0l0,0l0,0l0,0l0,0l0,0l0,0l0,0l0,0l0,0l0,0l0,0l0,0
		l0,0l0,0l0,0l0,0l0,0l0,0l0,0l0,0l0,0l0,0l0,0l0,0l0,0l0,0l0,0l0,0l0,0l0,0l0,0l0,0l0,0l0,0l0,0l0,0l0,0l0,0l0,0l0,0l0,0l0,0l0,0
		l0,0l0,0l0,0l0,0l0,0l0,0l0,0l0,0l0,0l0,0l0,0l0,0l0,0l0,0l0,0l0,0l0,0l0,0l0,0l0,0l0,0l0,0l0,0l0,0l0,0l0,0l0,0l0,0l0,0l0,0l0,0
		l0,0l0,0l0,0l0,0l0,0l0,0l0,0l0,0l0,0l0,0l0,0l0,0l0,0l0,0l0,0l0,0l0,0l0,0l0,0l0,0l0,0l0,0l0,0l0,0l0,0l0,0l0,0l0,0l0,0l0,0l0,0
		l0,0l0,0l0,0l0,0l0,0l0,0l0,0l0,0l0,0l0,0l0,0l0,0l0,0l0,0l0,0l0,0l0,0l0,0l0,0l0,0l0,0l0,0l0,0l0,0l0,0l0,0l0,0l0,0l0,0l0,0l0,0
		l0,0l0,0l0,0l0,0l0,0l0,0l0,0l0,0l0,0l0,0l0,0l0,0l0,0l0,0l0,0l0,0l0,0l0,0l0,0l0,0l0,0l0,0l0,0l0,0l0,0l0,0l0,0l0,0l0,0l0,0l0,0
		l0,0l0,0l0,0l0,0l0,0l0,0l0,0l0,0l0,0l0,0l0,0l0,0l0,0l0,0l0,0l0,0l0,0l0,0l0,0l0,0l0,0l0,0l0,0l0,0l0,0l0,0l0,0l0,0l0,0l0,0l0,0
		l0,0l0,0l0,0l0,0l0,0l0,0l0,0l0,0l0,0l0,0l0,0l0,0l0,0l0,0l0,0l0,0l0,0l0,0l0,0l0,0l0,0l0,0l0,0l0,0l0,0l0,0l0,0l0,0l0,0l0,0l0,0
		l0,0l0,0l0,0l0,0l0,0l0,0l0,0l0,0l0,0l0,0l0,0l0,0l0,0c0,0,0,0,0-0.1l0,0l0,0l0,0c0,0,0,0,0-0.1l0,0l0,0l0,0l0,0l0,0l0,0l0,0l0,0
		l0,0c0,0,0,0,0-0.1l0,0l0,0l0,0c0,0,0,0,0-0.1l0,0l0,0l0,0c0,0,0,0,0-0.1l0,0l0,0l0,0c0,0,0-0.1,0.1-0.1l0,0c0-0.1,0.1-0.1,0.1-0.2
		l0,0c0.1-0.1,0.1-0.2,0.2-0.3l0,0l0,0l0,0c0,0,0,0,0-0.1l0,0c0-0.1,0.1-0.1,0.1-0.2l0,0c0.1-0.2,0.2-0.3,0.3-0.5l0,0
		c0.1-0.2,0.3-0.5,0.4-0.7l0,0c0.3-0.6,0.6-1.1,0.9-1.7l0,0c0,0,0,0,0-0.1l0,0c0-0.1,0.1-0.2,0.1-0.3l0,0v-0.1l0,0v-0.1l0,0
		c0,0,0,0,0-0.1l0,0l0,0l0,0l0,0l0,0c0,0,0,0,0-0.1l0,0l0,0l0,0c0,0,0,0,0-0.1l0,0l0,0l0,0l0,0l0,0c0,0,0,0,0-0.1l0,0l0,0l0,0
		c0,0,0,0,0-0.1l0,0l0,0l0,0c0,0,0,0,0-0.1l0,0l0,0l0,0l0,0l0,0c0,0,0,0,0-0.1l0,0l0,0l0,0l0,0l0,0l0,0l0,0l0,0l0,0l0,0l0,0l0,0l0,0
		l0,0l0,0l0,0l0,0l0,0l0,0l0,0l0,0l0,0l0,0l0,0l0,0l0,0l0,0l0,0l0,0l0,0l0,0l0,0l0,0l0,0l0,0l0,0l0,0l0,0l0,0l0,0l0,0l0,0l0,0l0,0
		l0,0l0,0l0,0l0,0l0,0l0,0l0,0L313.4,200.8L313.4,200.8z M318.8,160.3h-3v21h3V160.3L318.8,160.3z M318.8,118.3h-3v21h3V118.3
		L318.8,118.3z M318.8,76.3h-3v21h3V76.3L318.8,76.3z M314.7,35l-2.6,1.4c2.4,4.5,3.7,9.6,3.7,14.7v4.2h3v-4.2l0,0l0,0l0,0l0,0l0,0
		l0,0l0,0l0,0l0,0l0,0l0,0l0,0l0,0l0,0l0,0l0,0l0,0l0,0l0,0l0,0l0,0l0,0l0,0l0,0l0,0l0,0l0,0l0,0l0,0l0,0l0,0l0,0l0,0l0,0l0,0l0,0
		l0,0l0,0l0,0l0,0l0,0l0,0l0,0l0,0l0,0l0,0l0,0l0,0l0,0l0,0l0,0l0,0l0,0l0,0l0,0l0,0l0,0l0,0l0,0l0,0l0,0l0,0l0,0l0,0l0,0l0,0l0,0
		l0,0l0,0l0,0l0,0l0,0l0,0l0,0l0,0l0,0l0,0l0,0l0,0l0,0l0,0l0,0l0,0l0,0l0,0l0,0l0,0l0,0l0,0l0,0l0,0l0,0l0,0l0,0l0,0l0,0l0,0l0,0
		l0,0l0,0l0,0l0,0l0,0l0,0l0,0l0,0l0,0l0,0l0,0l0,0l0,0l0,0l0,0l0,0l0,0l0,0l0,0l0,0l0,0l0,0l0,0l0,0l0,0l0,0l0,0l0,0l0,0l0,0l0,0
		l0,0l0,0l0,0l0,0l0,0l0,0l0,0l0,0l0,0l0,0l0,0l0,0l0,0l0,0l0,0l0,0l0,0l0,0l0,0l0,0l0,0l0,0l0,0l0,0l0,0l0,0l0,0l0,0l0,0l0,0l0,0
		l0,0l0,0l0,0l0,0l0,0l0,0l0,0l0,0l0,0l0,0l0,0l0,0l0,0l0,0l0,0l0,0c0,0,0,0,0-0.1l0,0l0,0l0,0l0,0l0,0c0,0,0,0,0-0.1l0,0l0,0l0,0
		l0,0l0,0c0,0,0,0,0-0.1l0,0l0,0l0,0l0,0l0,0c0,0,0,0,0-0.1l0,0l0,0l0,0l0,0l0,0c0,0,0,0,0-0.1l0,0l0,0l0,0l0,0l0,0c0,0,0,0,0-0.1
		l0,0l0,0l0,0l0,0l0,0v-0.1l0,0l0,0l0,0l0,0l0,0v-0.1l0,0v-0.1l0,0v-0.1l0,0c0-0.1,0-0.2,0-0.3l0,0C317.9,42.5,316.6,38.5,314.7,35
		L314.7,35z M284.8,17.2v3c4.8,0,9.4,1.1,13.6,3.1l1.3-2.7c-1.9-0.9-3.9-1.7-6-2.3l0,0l0,0l0,0l0,0l0,0h-0.1l0,0l0,0l0,0l0,0l0,0
		l0,0l0,0h-0.1l0,0l0,0l0,0l0,0l0,0l0,0l0,0h-0.1l0,0l0,0l0,0l0,0l0,0l0,0l0,0l0,0l0,0h-0.1l0,0l0,0l0,0l0,0l0,0l0,0l0,0l0,0l0,0
		h-0.1l0,0l0,0l0,0l0,0l0,0l0,0l0,0l0,0l0,0h-0.1l0,0l0,0l0,0l0,0l0,0l0,0l0,0l0,0l0,0l0,0l0,0l0,0l0,0l0,0l0,0l0,0l0,0l0,0l0,0l0,0
		l0,0l0,0l0,0c0,0,0,0-0.1,0l0,0l0,0l0,0l0,0l0,0l0,0l0,0l0,0l0,0l0,0l0,0l0,0l0,0l0,0l0,0l0,0l0,0l0,0l0,0l0,0l0,0l0,0l0,0l0,0l0,0
		l0,0l0,0l0,0l0,0l0,0l0,0l0,0l0,0l0,0l0,0l0,0l0,0l0,0l0,0l0,0l0,0l0,0l0,0l0,0l0,0l0,0l0,0l0,0l0,0l0,0l0,0l0,0l0,0l0,0l0,0l0,0
		l0,0l0,0l0,0l0,0l0,0l0,0l0,0l0,0l0,0l0,0l0,0l0,0l0,0l0,0l0,0l0,0l0,0l0,0l0,0l0,0l0,0l0,0l0,0l0,0l0,0l0,0l0,0l0,0l0,0l0,0l0,0
		l0,0l0,0l0,0l0,0l0,0l0,0l0,0l0,0l0,0l0,0l0,0l0,0l0,0l0,0l0,0l0,0l0,0l0,0l0,0l0,0l0,0l0,0l0,0l0,0l0,0l0,0l0,0l0,0l0,0l0,0l0,0
		l0,0l0,0l0,0l0,0l0,0l0,0l0,0l0,0l0,0l0,0l0,0l0,0l0,0l0,0l0,0l0,0l0,0l0,0l0,0l0,0l0,0l0,0l0,0l0,0l0,0l0,0l0,0l0,0l0,0l0,0l0,0
		l0,0c0,0,0,0-0.1,0l0,0l0,0l0,0l0,0l0,0l0,0l0,0l0,0l0,0l0,0l0,0l0,0l0,0l0,0l0,0l0,0l0,0l0,0l0,0l0,0l0,0l0,0l0,0l0,0l0,0
		c0,0,0,0-0.1,0l0,0l0,0l0,0l0,0l0,0l0,0l0,0l0,0l0,0l0,0l0,0c0,0,0,0-0.1,0l0,0l0,0l0,0l0,0l0,0l0,0l0,0l0,0l0,0l0,0l0,0
		c0,0,0,0-0.1,0l0,0l0,0l0,0l0,0l0,0l0,0l0,0l0,0l0,0l0,0l0,0l0,0l0,0l0,0l0,0l0,0l0,0l0,0l0,0l0,0l0,0l0,0l0,0l0,0l0,0
		c0,0,0,0-0.1,0l0,0l0,0l0,0l0,0l0,0l0,0l0,0l0,0l0,0l0,0l0,0c0,0,0,0-0.1,0l0,0l0,0l0,0l0,0l0,0l0,0l0,0l0,0l0,0l0,0l0,0
		c0,0,0,0-0.1,0l0,0l0,0l0,0l0,0l0,0l0,0l0,0l0,0l0,0l0,0l0,0c0,0,0,0-0.1,0l0,0l0,0l0,0l0,0l0,0l0,0l0,0l0,0l0,0l0,0l0,0
		c0,0,0,0-0.1,0l0,0l0,0l0,0l0,0l0,0l0,0l0,0l0,0l0,0l0,0l0,0c0,0,0,0-0.1,0l0,0l0,0l0,0l0,0l0,0l0,0l0,0l0,0l0,0l0,0l0,0
		c0,0,0,0-0.1,0l0,0l0,0l0,0l0,0l0,0l0,0l0,0l0,0l0,0c0,0,0,0-0.1,0l0,0l0,0l0,0l0,0l0,0l0,0l0,0l0,0l0,0l0,0l0,0l0,0l0,0l0,0l0,0
		l0,0l0,0l0,0l0,0l0,0l0,0l0,0l0,0l0,0l0,0l0,0l0,0l0,0l0,0l0,0l0,0l0,0l0,0l0,0l0,0l0,0l0,0l0,0l0,0l0,0l0,0l0,0l0,0l0,0l0,0l0,0
		l0,0l0,0l0,0l0,0l0,0l0,0l0,0l0,0l0,0l0,0l0,0l0,0l0,0l0,0l0,0l0,0l0,0l0,0l0,0l0,0l0,0l0,0l0,0l0,0l0,0l0,0l0,0l0,0l0,0l0,0l0,0
		l0,0l0,0l0,0l0,0l0,0l0,0l0,0l0,0l0,0l0,0l0,0l0,0l0,0l0,0l0,0l0,0l0,0l0,0l0,0l0,0l0,0l0,0l0,0l0,0l0,0l0,0l0,0l0,0l0,0l0,0l0,0
		l0,0l0,0l0,0l0,0l0,0l0,0l0,0l0,0l0,0l0,0l0,0l0,0l0,0l0,0l0,0c0,0,0,0-0.1,0l0,0l0,0l0,0l0,0l0,0l0,0l0,0l0,0l0,0l0,0l0,0l0,0l0,0
		l0,0l0,0l0,0l0,0l0,0l0,0l0,0C284.9,17.2,284.9,17.2,284.8,17.2C284.9,17.2,284.9,17.2,284.8,17.2
		C284.9,17.2,284.9,17.2,284.8,17.2C284.9,17.2,284.9,17.2,284.8,17.2C284.9,17.2,284.9,17.2,284.8,17.2
		C284.9,17.2,284.8,17.2,284.8,17.2L284.8,17.2L284.8,17.2z"/>
</g>
<path class="st2" d="M270.4,238.1H74.3c-10.6,0-19.2-6.9-19.2-15.4V61.5c0-8.5,8.6-15.4,19.2-15.4h196.1c10.6,0,19.2,6.9,19.2,15.4
	v161.2C289.6,231.2,281,238.1,270.4,238.1z"/>
<g class="st3">
	<path class="st1" d="M65.9,56.9c0-6.3,3.4-10.9,9.5-10.9c5.7,0,7.6,4,7.9,6.3l-2.7,0.4c-0.3-1.8-1.5-4.3-5.3-4.3
		c-4.2,0-6.6,3.5-6.6,8.6c0,4.7,2.2,8.5,6.7,8.5c5.1,0,5.9-4.3,5.9-6.3v-0.4h-6.1v-2.3h8.6v10.8h-2L81.4,64
		c-0.9,2.2-3.3,3.8-6.4,3.8C69.3,67.8,65.9,63.2,65.9,56.9z"/>
	<path class="st1" d="M87.3,60c0-4.8,2.7-7.6,6.8-7.6c4.1,0,6.8,2.9,6.8,7.6c0,4.8-2.7,7.6-6.8,7.6C90,67.7,87.3,64.8,87.3,60z
		 M98.3,60c0-3.6-1.5-5.5-4.2-5.5c-2.6,0-4.2,1.9-4.2,5.5c0,3.6,1.5,5.5,4.2,5.5C96.7,65.5,98.3,63.6,98.3,60z"/>
	<path class="st1" d="M111.1,60c0-4.8,2.7-7.6,6.8-7.6c4.1,0,6.8,2.9,6.8,7.6c0,4.8-2.7,7.6-6.8,7.6C113.8,67.7,111.1,64.8,111.1,60
		z M122.1,60c0-3.6-1.5-5.5-4.2-5.5c-2.6,0-4.2,1.9-4.2,5.5c0,3.6,1.5,5.5,4.2,5.5C120.5,65.5,122.1,63.6,122.1,60z"/>
	<path class="st1" d="M125.9,52.7h2.7l3.3,9.8c0.3,0.8,0.5,1.5,0.6,2.2h0.1c0.1-0.7,0.4-1.4,0.6-2.2l3.3-9.8h2.7l-5.3,14.6h-2.7
		L125.9,52.7z"/>
	<path class="st1" d="M153.1,60.7h-10.4c0,2.9,1.8,4.7,4.3,4.7c1.9,0,3.2-1,3.9-2.8l2,0.9c-1,2.7-3.2,4.1-6.1,4.1
		c-4.2,0-6.7-2.7-6.7-7.5c0-4.9,2.5-7.8,6.6-7.8c3.9,0,6.2,2.2,6.2,6.6V60.7z M150.6,58.4c0-2.7-1.4-4.1-3.8-4.1
		c-2.6,0-4,1.7-4.1,4.4h7.9V58.4z"/>
	<path class="st1" d="M163.9,52.4c0.2,0,0.4,0,0.5,0v2.4h-0.1c-1.5,0-2.5,0.4-3.2,1.1c-1.4,1.4-1.5,3.4-1.5,5.1v6.2h-2.5V52.7h2.3
		V56C160.2,54,161.7,52.4,163.9,52.4z"/>
	<path class="st1" d="M176.6,59.8l-4.9-7.1h2.9l2.7,4.1c0.5,0.8,0.8,1.3,0.8,1.5h0c0.1-0.3,0.4-0.8,0.8-1.5l2.5-4.1h3l-4.8,7.2
		l5.2,7.4H182l-3-4.5c-0.5-0.7-0.8-1.3-0.8-1.5h0c-0.1,0.2-0.3,0.7-0.8,1.5l-3,4.5h-2.9L176.6,59.8z"/>
	<path class="st1" d="M194.1,58v2.3h-8.4V58H194.1z"/>
	<path class="st1" d="M204.9,52.4c0.2,0,0.4,0,0.5,0v2.4h-0.1c-1.5,0-2.5,0.4-3.2,1.1c-1.4,1.4-1.5,3.4-1.5,5.1v6.2h-2.5V52.7h2.3
		V56C201.2,54,202.7,52.4,204.9,52.4z"/>
	<path class="st1" d="M207,63.4c0-1.5,0.7-2.7,2-3.4c1.1-0.6,2.5-0.9,4.9-1.2l2.7-0.3v-0.2c0-2.7-1-3.8-3.2-3.8
		c-2,0-3.2,1.1-3.3,2.9h-2.7c0.2-3,2.5-4.9,6-4.9c4,0,5.8,1.8,5.8,6.1v3.9c0,2.2,0.1,3.8,0.5,4.9h-2.6c-0.1-0.8-0.2-1.7-0.2-2.7
		c-0.7,1.9-2.5,3-4.9,3C209,67.7,207,66,207,63.4z M216.7,60.9v-0.7l-4,0.6c-2.2,0.3-3.1,1.1-3.1,2.5s1.1,2.3,2.9,2.3
		C215.1,65.6,216.7,63.8,216.7,60.9z"/>
	<path class="st1" d="M222.4,73.1v-2.2c0.4,0,0.7,0.1,1.1,0.1c1.8,0,2.7-0.8,3.3-2.7l0.4-1.1l-5.8-14.4h2.8l3.7,10.2
		c0.3,0.7,0.4,1.3,0.5,1.7h0.1c0.1-0.4,0.3-1,0.5-1.7l3.4-10.2h2.7l-5.7,15.5c-1.3,3.7-3.1,4.9-5.5,4.9
		C223.3,73.2,222.8,73.1,222.4,73.1z"/>
	<path class="st1" d="M242.2,52.7h2.7v-3.8l2.5-1.1v4.9h3.6v2h-3.6v8.1c0,1.7,0.6,2.4,2.1,2.4c0.6,0,1-0.1,1.5-0.2v2.3
		c-0.6,0.2-1.2,0.3-2.2,0.3c-3.2,0-4-1.9-4-4.6v-8.2h-2.7V52.7z"/>
	<path class="st1" d="M252.8,60c0-4.8,2.7-7.6,6.8-7.6c4.1,0,6.8,2.9,6.8,7.6c0,4.8-2.7,7.6-6.8,7.6C255.5,67.7,252.8,64.8,252.8,60
		z M263.8,60c0-3.6-1.5-5.5-4.2-5.5c-2.6,0-4.2,1.9-4.2,5.5c0,3.6,1.5,5.5,4.2,5.5C262.3,65.5,263.8,63.6,263.8,60z"/>
</g>
<g class="st3">
	<path class="st1" d="M60.4,105.4h-2.5V84.2h2.5V105.4z"/>
	<path class="st1" d="M77.3,98.8H66.9c0,2.9,1.8,4.7,4.3,4.7c1.9,0,3.2-1,3.9-2.8l2,0.9c-1,2.7-3.2,4.1-6.1,4.1
		c-4.2,0-6.7-2.7-6.7-7.5c0-4.9,2.5-7.8,6.6-7.8c3.9,0,6.2,2.2,6.2,6.6V98.8z M74.8,96.5c0-2.7-1.4-4.1-3.8-4.1
		c-2.6,0-4,1.7-4.1,4.4h7.9V96.5z"/>
	<path class="st1" d="M79.9,101.5c0-1.5,0.7-2.7,2-3.4c1.1-0.6,2.5-0.9,4.9-1.2l2.7-0.3v-0.2c0-2.7-1-3.8-3.2-3.8
		c-2,0-3.2,1.1-3.3,2.9h-2.7c0.2-3,2.5-4.9,6-4.9c4,0,5.8,1.8,5.8,6.1v3.9c0,2.2,0.1,3.8,0.5,4.9H90c-0.1-0.8-0.2-1.7-0.2-2.7
		c-0.7,1.9-2.5,3-4.9,3C81.9,105.8,79.9,104.1,79.9,101.5z M89.6,99v-0.7l-4,0.6c-2.2,0.3-3.1,1.1-3.1,2.5s1.1,2.3,2.9,2.3
		C88,103.7,89.6,101.9,89.6,99z"/>
	<path class="st1" d="M103.7,90.5c0.2,0,0.4,0,0.5,0v2.4h-0.1c-1.5,0-2.5,0.4-3.2,1.1c-1.4,1.4-1.5,3.4-1.5,5.1v6.2H97V90.8h2.3v3.3
		C100,92.1,101.5,90.5,103.7,90.5z"/>
	<path class="st1" d="M107.5,90.8h2.3v2.9c1-2.2,2.6-3.3,4.9-3.3c3.2,0,4.9,2,4.9,5.9v9.1h-2.5v-8.9c0-2.6-1.1-3.9-3.2-3.9
		c-2.4,0-3.9,2-3.9,5.2v7.6h-2.5V90.8z"/>
	<path class="st1" d="M134.3,90.8v2.5c0.8-2,2.2-2.9,4.2-2.9c2,0,3.5,1.1,4.1,3c1-2,2.5-3,4.4-3c2.8,0,4.4,2,4.4,5.4v9.6H149V96
		c0-2.3-0.9-3.4-2.8-3.4c-2.1,0-3.3,1.5-3.3,4.2v8.6h-2.5v-9.5c0-2.1-1-3.3-2.7-3.3c-2,0-3.3,1.6-3.3,4.3v8.5H132V90.8H134.3z"/>
	<path class="st1" d="M155,98.1c0-4.8,2.7-7.6,6.8-7.6c4.1,0,6.8,2.9,6.8,7.6c0,4.8-2.7,7.6-6.8,7.6C157.7,105.8,155,102.9,155,98.1
		z M166,98.1c0-3.6-1.5-5.5-4.2-5.5c-2.6,0-4.2,1.9-4.2,5.5c0,3.6,1.5,5.5,4.2,5.5C164.4,103.6,166,101.7,166,98.1z"/>
	<path class="st1" d="M179.3,90.5c0.2,0,0.4,0,0.5,0v2.4h-0.1c-1.5,0-2.5,0.4-3.2,1.1c-1.4,1.4-1.5,3.4-1.5,5.1v6.2h-2.5V90.8h2.3
		v3.3C175.5,92.1,177.1,90.5,179.3,90.5z"/>
	<path class="st1" d="M194.1,98.8h-10.4c0,2.9,1.8,4.7,4.3,4.7c1.9,0,3.2-1,3.9-2.8l2,0.9c-1,2.7-3.2,4.1-6.1,4.1
		c-4.2,0-6.7-2.7-6.7-7.5c0-4.9,2.5-7.8,6.6-7.8c3.9,0,6.2,2.2,6.2,6.6V98.8z M191.6,96.5c0-2.7-1.4-4.1-3.8-4.1
		c-2.6,0-4,1.7-4.1,4.4h7.9V96.5z"/>
</g>
<g class="st3">
	<path class="st1" d="M56.4,136.2c0-4.8,2.6-7.6,6.7-7.6c3.4,0,5.6,2,6,5.3l-2.5,0.3c-0.3-2.2-1.5-3.4-3.5-3.4c-2.5,0-4,2-4,5.5
		c0,3.5,1.5,5.5,4.1,5.5c2,0,3.2-1.2,3.6-3.5l2.4,0.4c-0.5,3.3-2.7,5.3-6,5.3C59.1,143.9,56.4,140.9,56.4,136.2z"/>
	<path class="st1" d="M73.2,122.3h2.5v9.3c0.9-2.1,2.5-3.2,4.8-3.2c3.2,0,4.8,2,4.8,5.9v9.1h-2.5v-8.9c0-2.6-1.1-3.9-3.2-3.9
		c-2.5,0-3.9,1.9-3.9,5.2v7.6h-2.5V122.3z"/>
	<path class="st1" d="M88.8,139.6c0-1.5,0.7-2.7,2-3.4c1.1-0.6,2.5-0.9,4.9-1.2l2.7-0.3v-0.2c0-2.7-1-3.8-3.2-3.8
		c-2,0-3.2,1.1-3.3,2.9h-2.7c0.2-3,2.5-4.9,6-4.9c4,0,5.8,1.8,5.8,6.1v3.9c0,2.2,0.1,3.8,0.5,4.9h-2.6c-0.1-0.8-0.2-1.7-0.2-2.7
		c-0.7,1.9-2.5,3-4.9,3C90.8,143.9,88.8,142.2,88.8,139.6z M98.5,137.1v-0.7l-4,0.6c-2.2,0.3-3.1,1.1-3.1,2.5s1.1,2.3,2.9,2.3
		C96.9,141.8,98.5,140,98.5,137.1z"/>
	<path class="st1" d="M112.6,128.6c0.2,0,0.4,0,0.5,0v2.4H113c-1.5,0-2.5,0.4-3.2,1.1c-1.4,1.4-1.5,3.4-1.5,5.1v6.2h-2.5v-14.6h2.3
		v3.3C108.9,130.2,110.4,128.6,112.6,128.6z"/>
	<path class="st1" d="M114.8,139.6c0-1.5,0.7-2.7,2-3.4c1.1-0.6,2.5-0.9,4.9-1.2l2.7-0.3v-0.2c0-2.7-1-3.8-3.2-3.8
		c-2,0-3.2,1.1-3.3,2.9h-2.7c0.2-3,2.5-4.9,6-4.9c4,0,5.8,1.8,5.8,6.1v3.9c0,2.2,0.1,3.8,0.5,4.9h-2.6c-0.1-0.8-0.2-1.7-0.2-2.7
		c-0.7,1.9-2.5,3-4.9,3C116.7,143.9,114.8,142.2,114.8,139.6z M124.5,137.1v-0.7l-4,0.6c-2.2,0.3-3.1,1.1-3.1,2.5s1.1,2.3,2.9,2.3
		C122.8,141.8,124.5,140,124.5,137.1z"/>
	<path class="st1" d="M130.4,136.2c0-4.8,2.6-7.6,6.7-7.6c3.4,0,5.6,2,6,5.3l-2.5,0.3c-0.3-2.2-1.5-3.4-3.5-3.4c-2.5,0-4,2-4,5.5
		c0,3.5,1.5,5.5,4.1,5.5c2,0,3.2-1.2,3.6-3.5l2.4,0.4c-0.5,3.3-2.7,5.3-6,5.3C133,143.9,130.4,140.9,130.4,136.2z"/>
	<path class="st1" d="M144.4,128.9h2.7v-3.8l2.5-1.1v4.9h3.6v2h-3.6v8.1c0,1.7,0.6,2.4,2.1,2.4c0.6,0,1-0.1,1.5-0.2v2.3
		c-0.6,0.2-1.2,0.3-2.2,0.3c-3.2,0-4-1.9-4-4.6v-8.2h-2.7V128.9z"/>
	<path class="st1" d="M167.8,136.9h-10.4c0,2.9,1.8,4.7,4.3,4.7c1.9,0,3.2-1,3.9-2.8l2,0.9c-1,2.7-3.2,4.1-6.1,4.1
		c-4.2,0-6.7-2.7-6.7-7.5c0-4.9,2.5-7.8,6.6-7.8c3.9,0,6.2,2.2,6.2,6.6V136.9z M165.3,134.6c0-2.7-1.4-4.1-3.8-4.1
		c-2.6,0-4,1.7-4.1,4.4h7.9V134.6z"/>
	<path class="st1" d="M178.7,128.6c0.2,0,0.4,0,0.5,0v2.4h-0.1c-1.5,0-2.5,0.4-3.2,1.1c-1.4,1.4-1.5,3.4-1.5,5.1v6.2h-2.5v-14.6h2.3
		v3.3C174.9,130.2,176.5,128.6,178.7,128.6z"/>
	<path class="st1" d="M182.2,123.1h2.8v3.1h-2.8V123.1z M182.4,128.9h2.5v14.6h-2.5V128.9z"/>
	<path class="st1" d="M188.7,139l2.5-0.4c0.4,2.1,1.8,3.2,3.9,3.2c2,0,3-0.8,3-2.2c0-1.5-0.8-2.1-2.3-2.3l-2.4-0.3
		c-2.9-0.3-4.3-2-4.3-4.2c0-2.7,2.1-4.3,5.5-4.3c3.3,0,5.6,1.8,5.9,4.4l-2.5,0.6c-0.3-1.8-1.5-3-3.5-3c-1.9,0-3.1,0.8-3.1,2.2
		c0,1.3,0.8,2,2.6,2.2l2.3,0.3c2.9,0.3,4,1.8,4,4.1c0,2.8-2,4.5-5.6,4.5C191.5,143.9,189.2,142.1,188.7,139z"/>
	<path class="st1" d="M202.2,128.9h2.7v-3.8l2.5-1.1v4.9h3.6v2h-3.6v8.1c0,1.7,0.6,2.4,2.1,2.4c0.6,0,1-0.1,1.5-0.2v2.3
		c-0.6,0.2-1.2,0.3-2.2,0.3c-3.2,0-4-1.9-4-4.6v-8.2h-2.7V128.9z"/>
	<path class="st1" d="M214.6,123.1h2.8v3.1h-2.8V123.1z M214.7,128.9h2.5v14.6h-2.5V128.9z"/>
	<path class="st1" d="M221.1,136.2c0-4.8,2.6-7.6,6.7-7.6c3.4,0,5.6,2,6,5.3l-2.5,0.3c-0.3-2.2-1.5-3.4-3.5-3.4c-2.5,0-4,2-4,5.5
		c0,3.5,1.5,5.5,4.1,5.5c2,0,3.2-1.2,3.6-3.5l2.4,0.4c-0.5,3.3-2.7,5.3-6,5.3C223.8,143.9,221.1,140.9,221.1,136.2z"/>
	<path class="st1" d="M236.4,139l2.5-0.4c0.4,2.1,1.8,3.2,3.9,3.2c2,0,3-0.8,3-2.2c0-1.5-0.8-2.1-2.3-2.3l-2.4-0.3
		c-2.9-0.3-4.3-2-4.3-4.2c0-2.7,2.1-4.3,5.5-4.3c3.3,0,5.6,1.8,5.9,4.4l-2.5,0.6c-0.3-1.8-1.5-3-3.5-3c-1.9,0-3.1,0.8-3.1,2.2
		c0,1.3,0.8,2,2.6,2.2l2.3,0.3c2.9,0.3,4,1.8,4,4.1c0,2.8-2,4.5-5.6,4.5C239.2,143.9,236.9,142.1,236.4,139z"/>
	<path class="st1" d="M258.5,136.2c0-4.8,2.7-7.6,6.8-7.6c4.1,0,6.8,2.9,6.8,7.6c0,4.8-2.7,7.6-6.8,7.6
		C261.2,143.9,258.5,141,258.5,136.2z M269.5,136.2c0-3.6-1.5-5.5-4.2-5.5c-2.6,0-4.2,1.9-4.2,5.5c0,3.6,1.5,5.5,4.2,5.5
		C267.9,141.7,269.5,139.8,269.5,136.2z"/>
	<path class="st1" d="M282.4,130.9h-3.6v12.6h-2.5v-12.6h-2.7v-2h2.7v-2.3c0-2.7,1.7-4.4,4.3-4.4c0.7,0,1.3,0.1,1.9,0.2v2.1
		c-0.5-0.1-1.1-0.1-1.5-0.1c-1.5,0-2.1,0.8-2.1,2.6v2h3.6V130.9z"/>
</g>
<g class="st3">
	<path class="st1" d="M55.6,166.9h2.7v-3.8l2.5-1.1v4.9h3.6v2h-3.6v8.1c0,1.7,0.6,2.4,2.1,2.4c0.6,0,1-0.1,1.5-0.2v2.3
		c-0.6,0.2-1.2,0.3-2.2,0.3c-3.2,0-4-1.9-4-4.6v-8.2h-2.7V166.9z"/>
	<path class="st1" d="M68.2,160.3h2.5v9.3c0.9-2.1,2.5-3.2,4.8-3.2c3.2,0,4.8,2,4.8,5.9v9.1h-2.5v-8.9c0-2.6-1.1-3.9-3.2-3.9
		c-2.5,0-3.9,1.9-3.9,5.2v7.6h-2.5V160.3z"/>
	<path class="st1" d="M96.6,174.9H86.3c0,2.9,1.8,4.7,4.3,4.7c1.9,0,3.2-1,3.9-2.8l2,0.9c-1,2.7-3.2,4.1-6.1,4.1
		c-4.2,0-6.7-2.7-6.7-7.5c0-4.9,2.5-7.8,6.6-7.8c3.9,0,6.2,2.2,6.2,6.6V174.9z M94.1,172.6c0-2.7-1.4-4.1-3.8-4.1
		c-2.6,0-4,1.7-4.1,4.4h7.9V172.6z"/>
	<path class="st1" d="M108.5,160.3h2.5v9.3c0.9-2.1,2.5-3.2,4.8-3.2c3.2,0,4.8,2,4.8,5.9v9.1h-2.5v-8.9c0-2.6-1.1-3.9-3.2-3.9
		c-2.5,0-3.9,1.9-3.9,5.2v7.6h-2.5V160.3z"/>
	<path class="st1" d="M124.9,176.2v-9.3h2.5v9c0,2.5,1.1,3.8,3,3.8c2.3,0,3.9-2,3.9-5v-7.9h2.5v14.6h-2.3v-2.7
		c-0.7,1.8-2.5,3.1-4.5,3.1C126.2,181.9,124.9,179.6,124.9,176.2z"/>
	<path class="st1" d="M144.4,166.9v2.5c0.8-2,2.2-2.9,4.2-2.9c2,0,3.5,1.1,4.1,3c1-2,2.5-3,4.4-3c2.8,0,4.4,2,4.4,5.4v9.6h-2.5v-9.4
		c0-2.3-0.9-3.4-2.8-3.4c-2.1,0-3.3,1.5-3.3,4.2v8.6h-2.5V172c0-2.1-1-3.3-2.7-3.3c-2,0-3.3,1.6-3.3,4.3v8.5H142v-14.6H144.4z"/>
	<path class="st1" d="M165.1,177.6c0-1.5,0.7-2.7,2-3.4c1.1-0.6,2.5-0.9,4.9-1.2l2.7-0.3v-0.2c0-2.7-1-3.8-3.2-3.8
		c-2,0-3.2,1.1-3.3,2.9h-2.7c0.2-3,2.5-4.9,6-4.9c4,0,5.8,1.8,5.8,6.1v3.9c0,2.2,0.1,3.8,0.5,4.9h-2.6c-0.1-0.8-0.2-1.7-0.2-2.7
		c-0.7,1.9-2.5,3-4.9,3C167,181.9,165.1,180.2,165.1,177.6z M174.8,175.1v-0.7l-4,0.6c-2.2,0.3-3.1,1.1-3.1,2.5s1.1,2.3,2.9,2.3
		C173.1,179.8,174.8,178,174.8,175.1z"/>
	<path class="st1" d="M182.1,166.9h2.3v2.9c1-2.2,2.6-3.3,4.9-3.3c3.2,0,4.9,2,4.9,5.9v9.1h-2.5v-8.9c0-2.6-1.1-3.9-3.2-3.9
		c-2.4,0-3.9,2-3.9,5.2v7.6h-2.5V166.9z"/>
	<path class="st1" d="M197.6,177l2.5-0.4c0.4,2.1,1.8,3.2,3.9,3.2c2,0,3-0.8,3-2.2c0-1.5-0.8-2.1-2.3-2.3l-2.4-0.3
		c-2.9-0.3-4.3-2-4.3-4.2c0-2.7,2.1-4.3,5.5-4.3c3.3,0,5.6,1.8,5.9,4.4l-2.5,0.6c-0.3-1.8-1.5-3-3.5-3c-1.9,0-3.1,0.8-3.1,2.2
		c0,1.3,0.8,2,2.6,2.2l2.3,0.3c2.9,0.3,4,1.8,4,4.1c0,2.8-2,4.5-5.6,4.5C200.4,181.9,198.1,180.1,197.6,177z"/>
	<path class="st1" d="M219.7,174.2c0-4.8,2.7-7.6,6.8-7.6c4.1,0,6.8,2.9,6.8,7.6c0,4.8-2.7,7.6-6.8,7.6
		C222.4,181.9,219.7,179,219.7,174.2z M230.7,174.2c0-3.6-1.5-5.5-4.2-5.5c-2.6,0-4.2,1.9-4.2,5.5c0,3.6,1.5,5.5,4.2,5.5
		C229.1,179.7,230.7,177.8,230.7,174.2z"/>
	<path class="st1" d="M243.6,168.9h-3.6v12.6h-2.5v-12.6h-2.7v-2h2.7v-2.3c0-2.7,1.7-4.4,4.3-4.4c0.7,0,1.3,0.1,1.9,0.2v2.1
		c-0.5-0.1-1.1-0.1-1.5-0.1c-1.5,0-2.1,0.8-2.1,2.6v2h3.6V168.9z"/>
	<path class="st1" d="M261.2,168.9h-3.6v12.6H255v-12.6h-2.7v-2h2.7v-2.3c0-2.7,1.7-4.4,4.3-4.4c0.7,0,1.3,0.1,1.9,0.2v2.1
		c-0.5-0.1-1.1-0.1-1.5-0.1c-1.5,0-2.1,0.8-2.1,2.6v2h3.6V168.9z M267.2,181.5h-2.5v-21.2h2.5V181.5z"/>
	<path class="st1" d="M271.2,177.6c0-1.5,0.7-2.7,2-3.4c1.1-0.6,2.5-0.9,4.9-1.2l2.7-0.3v-0.2c0-2.7-1-3.8-3.2-3.8
		c-2,0-3.2,1.1-3.3,2.9h-2.7c0.2-3,2.5-4.9,6-4.9c4,0,5.8,1.8,5.8,6.1v3.9c0,2.2,0.1,3.8,0.5,4.9h-2.6c-0.1-0.8-0.2-1.7-0.2-2.7
		c-0.7,1.9-2.5,3-4.9,3C273.2,181.9,271.2,180.2,271.2,177.6z M280.9,175.1v-0.7l-4,0.6c-2.2,0.3-3.1,1.1-3.1,2.5s1.1,2.3,2.9,2.3
		C279.3,179.8,280.9,178,280.9,175.1z"/>
	<path class="st1" d="M285.5,166.9h2.7v-3.8l2.5-1.1v4.9h3.6v2h-3.6v8.1c0,1.7,0.6,2.4,2.1,2.4c0.6,0,1-0.1,1.5-0.2v2.3
		c-0.6,0.2-1.2,0.3-2.2,0.3c-3.2,0-4-1.9-4-4.6v-8.2h-2.7V166.9z"/>
</g>
</svg>
