<?xml version="1.0" encoding="utf-8"?>
<!-- Generator: Adobe Illustrator 25.2.3, SVG Export Plug-In . SVG Version: 6.00 Build 0)  -->
<svg version="1.1" id="Camada_1" xmlns="http://www.w3.org/2000/svg" xmlns:xlink="http://www.w3.org/1999/xlink" x="0px" y="0px"
	 viewBox="0 0 811 831" style="enable-background:new 0 0 811 831;" xml:space="preserve">
<style type="text/css">
	.st0{fill:#FFFFFF;}
	.st1{fill:none;stroke:#00BFFF;stroke-width:3;stroke-linecap:round;stroke-linejoin:round;stroke-miterlimit:10;}
	.st2{opacity:0.79;}
	.st3{fill:none;}
	
		.st4{opacity:0.64;fill:none;stroke:#FFFFFF;stroke-width:19;stroke-linecap:round;stroke-miterlimit:10;enable-background:new    ;}
	.st5{fill:#00BFFF;}
</style>
<path class="st0" d="M559.5,713.5H348.6c-48.1,0-87-39-87-87V88.6c0-48.1,39-87,87-87h210.9c48.1,0,87,39,87,87v537.9
	C646.6,674.5,607.6,713.5,559.5,713.5z"/>
<path class="st0" d="M454.7,682.6c18.6,0,33.7-15.1,33.7-33.7c0-18.6-15.1-33.7-33.7-33.7c-18.6,0-33.7,15.1-33.7,33.7
	C421,667.5,436.1,682.6,454.7,682.6z"/>
<path class="st1" d="M559.5,713.5H348.6c-48.1,0-87-39-87-87V88.6c0-48.1,39-87,87-87h210.9c48.1,0,87,39,87,87v537.9
	C646.6,674.5,607.6,713.5,559.5,713.5z"/>
<path class="st1" d="M454.7,682.6c18.6,0,33.7-15.1,33.7-33.7c0-18.6-15.1-33.7-33.7-33.7c-18.6,0-33.7,15.1-33.7,33.7
	C421,667.5,436.1,682.6,454.7,682.6z"/>
<g class="st2">
	<rect x="283.2" y="68.7" class="st3" width="337" height="519.7"/>
</g>
<path class="st4" d="M619.4,200.1l-83.2,85.2 M616.4,119.9L500.3,228.6 M409.6,464.3L282.8,595.9"/>
<path class="st1" d="M623.2,69h-341v520h341V69z"/>
<path class="st5" d="M0,121.4c0-11.2,5.3-21.7,15.1-27.7l5.6,3.8c-7.9,6.3-11.9,13.7-11.9,23.8c0,10.1,4.1,17.7,12,24.1l-6,4.2
	C5.4,143.3,0,132.4,0,121.4z"/>
<path class="st5" d="M47.7,131.9H28.5v-6.6L45.9,99h10.7v25.7h5.9v7.2h-5.9v9.3h-9V131.9z M47.7,124.8v-11.9c0-1.8,0-3.2,0.2-5.6
	h-0.1c-0.7,1.9-1.2,3-2.4,4.7l-6.4,9.7c-1,1.5-1.6,2.4-2.4,3.1H47.7z"/>
<path class="st5" d="M70.2,145.5c7.9-6.4,12-14,12-24.1c0-10.2-4-17.5-11.9-23.8l5.6-3.8c9.8,5.9,15.1,16.5,15.1,27.7
	c0,11-5.4,21.9-14.9,28.3L70.2,145.5z"/>
</svg>
