<?xml version="1.0" encoding="utf-8"?>
<!-- Generator: Adobe Illustrator 25.2.3, SVG Export Plug-In . SVG Version: 6.00 Build 0)  -->
<svg version="1.1" id="Camada_1" xmlns="http://www.w3.org/2000/svg" xmlns:xlink="http://www.w3.org/1999/xlink" x="0px" y="0px"
	 viewBox="0 0 1071.5 7518.8" style="enable-background:new 0 0 1071.5 7518.8;" xml:space="preserve">
<style type="text/css">
	.st0{fill:none;stroke:#00BDFF;stroke-width:3;stroke-miterlimit:10;}
	.st1{fill:#00BDFF;}
</style>
<g>
	<path class="st0" d="M1070,115.3C1070,51.6,1019.5,0,957.2,0H114.3C52,0,1.5,51.7,1.5,115.3v4297.4c0,9.5,7.6,17.3,17,17.3h382.3
		c9.3,0,17,7.7,17,17.3v16.1c0,9.5,7.6,17.3,17,17.3c9.3,0,17,7.7,17,17.3v48.2c0,9.5-7.6,17.3-17,17.3c-9.3,0-17,7.7-17,17.3v541.9
		c0,9.6-7.6,17.3-17,17.3H18.5c-9.3,0-17,7.7-17,17.3v2142.9c0,63.6,50.5,115.3,112.8,115.3h842.7c62.3,0,112.8-51.7,112.8-115.3
		V115.3H1070z"/>
</g>
<g>
	<path class="st1" d="M2715.8,4487.5c-5,0-8.9-1.3-11.6-4c-2.7-2.6-4.1-6.5-4.1-11.5v-95.2c0-5,1.4-8.9,4.1-11.5
		c2.7-2.6,6.6-4,11.6-4h58.9c4.9,0,8.7,1.3,11.4,4c2.6,2.6,4,6.4,4,11.4v24.2c0,4.9-1.3,8.7-4,11.4c-2.6,2.6-6.4,4-11.4,4h-20.2v5.8
		h20c5,0,8.9,1.3,11.5,4c2.6,2.6,4,6.5,4,11.5v34.6c0,5-1.3,8.9-4,11.5c-2.6,2.6-6.5,4-11.5,4h-8.1c-5,0-8.9-1.3-11.6-4
		c-2.7-2.6-4.1-6.5-4.1-11.5v-42.4h-11.4v42.4c0,5-1.3,8.9-4,11.5c-2.6,2.6-6.5,4-11.5,4H2715.8z M2745.7,4408.4
		c1.6,0,2.8-0.5,3.7-1.4c0.9-0.9,1.4-2.1,1.4-3.7v-24.9c0-1.6-0.5-2.8-1.4-3.8c-0.9-1-2.1-1.4-3.7-1.4h-6.3v35.1H2745.7z"/>
	<path class="st1" d="M2799.4,4442.5c0-5,1-8.9,3-11.5c2-2.6,4.8-4,8.6-4v-5.2c-3.7,0-6.6-1.3-8.6-4c-2-2.6-3-6.5-3-11.5v-29.4
		c0-5,1.4-8.9,4.1-11.5c2.7-2.6,6.6-4,11.6-4h49.2c2.4,0,4.2,0.5,5.5,1.5c1.3,1,1.9,2.5,1.9,4.4c0,2-0.6,3.6-1.9,4.7
		c-1.3,1.1-3.1,1.6-5.5,1.6h-25.6v44.3h25.6c2.4,0,4.2,0.5,5.5,1.5c1.3,1,1.9,2.5,1.9,4.4c0,1.9-0.6,3.4-1.9,4.5
		c-1.3,1.1-3.1,1.6-5.5,1.6h-25.6v45.2h25.6c2.4,0,4.2,0.5,5.5,1.6c1.3,1.1,1.9,2.6,1.9,4.5c0,1.9-0.6,3.4-1.9,4.5
		c-1.3,1.1-3.1,1.6-5.5,1.6h-49.2c-5,0-8.9-1.3-11.6-4c-2.7-2.6-4.1-6.5-4.1-11.5V4442.5z"/>
	<path class="st1" d="M2880.4,4376.9c0-5,1.4-8.9,4.1-11.5c2.7-2.6,6.6-4,11.6-4h49.2c2.4,0,4.2,0.5,5.5,1.5c1.3,1,1.9,2.5,1.9,4.4
		c0,2-0.6,3.6-1.9,4.7c-1.3,1.1-3.1,1.6-5.5,1.6h-25.6v44.5h25.6c2.4,0,4.2,0.5,5.5,1.5c1.3,1,1.9,2.5,1.9,4.4
		c0,1.9-0.6,3.4-1.9,4.5c-1.3,1.1-3.1,1.6-5.5,1.6h-25.6v41.8c0,5-1.3,8.9-4,11.5c-2.6,2.6-6.5,4-11.5,4h-8.1c-5,0-8.9-1.3-11.6-4
		c-2.7-2.6-4.1-6.5-4.1-11.5V4376.9z"/>
	<path class="st1" d="M2961.3,4442.5c0-5,1-8.9,3-11.5c2-2.6,4.8-4,8.6-4v-5.2c-3.7,0-6.6-1.3-8.6-4c-2-2.6-3-6.5-3-11.5v-29.4
		c0-5,1.4-8.9,4.1-11.5c2.7-2.6,6.6-4,11.6-4h49.2c2.4,0,4.2,0.5,5.5,1.5c1.3,1,1.9,2.5,1.9,4.4c0,2-0.6,3.6-1.9,4.7
		c-1.3,1.1-3.1,1.6-5.5,1.6h-25.6v44.3h25.6c2.4,0,4.2,0.5,5.5,1.5c1.3,1,1.9,2.5,1.9,4.4c0,1.9-0.6,3.4-1.9,4.5
		c-1.3,1.1-3.1,1.6-5.5,1.6h-25.6v45.2h25.6c2.4,0,4.2,0.5,5.5,1.6c1.3,1.1,1.9,2.6,1.9,4.5c0,1.9-0.6,3.4-1.9,4.5
		c-1.3,1.1-3.1,1.6-5.5,1.6H2977c-5,0-8.9-1.3-11.6-4c-2.7-2.6-4.1-6.5-4.1-11.5V4442.5z"/>
	<path class="st1" d="M3058.8,4487.5c-5,0-8.9-1.3-11.6-4c-2.7-2.6-4.1-6.5-4.1-11.5v-95.2c0-5,1.4-8.9,4.1-11.5
		c2.7-2.6,6.6-4,11.6-4h58.9c4.9,0,8.7,1.3,11.4,4c2.6,2.6,4,6.4,4,11.4v24.2c0,4.9-1.3,8.7-4,11.4c-2.6,2.6-6.4,4-11.4,4h-20.2v5.8
		h20c5,0,8.9,1.3,11.5,4c2.6,2.6,4,6.5,4,11.5v34.6c0,5-1.3,8.9-4,11.5c-2.6,2.6-6.5,4-11.5,4h-8.1c-5,0-8.9-1.3-11.6-4
		c-2.7-2.6-4.1-6.5-4.1-11.5v-42.4h-11.4v42.4c0,5-1.3,8.9-4,11.5c-2.6,2.6-6.5,4-11.5,4H3058.8z M3088.7,4408.4
		c1.6,0,2.8-0.5,3.7-1.4c0.9-0.9,1.4-2.1,1.4-3.7v-24.9c0-1.6-0.5-2.8-1.4-3.8c-0.9-1-2.1-1.4-3.7-1.4h-6.3v35.1H3088.7z"/>
	<path class="st1" d="M3142.4,4442.5c0-5,1-8.9,3-11.5c2-2.6,4.8-4,8.6-4v-5.2c-3.7,0-6.6-1.3-8.6-4c-2-2.6-3-6.5-3-11.5v-29.4
		c0-5,1.4-8.9,4.1-11.5c2.7-2.6,6.6-4,11.6-4h49.2c2.4,0,4.2,0.5,5.5,1.5c1.3,1,1.9,2.5,1.9,4.4c0,2-0.6,3.6-1.9,4.7
		c-1.3,1.1-3.1,1.6-5.5,1.6h-25.6v44.3h25.6c2.4,0,4.2,0.5,5.5,1.5c1.3,1,1.9,2.5,1.9,4.4c0,1.9-0.6,3.4-1.9,4.5
		c-1.3,1.1-3.1,1.6-5.5,1.6h-25.6v45.2h25.6c2.4,0,4.2,0.5,5.5,1.6c1.3,1.1,1.9,2.6,1.9,4.5c0,1.9-0.6,3.4-1.9,4.5
		c-1.3,1.1-3.1,1.6-5.5,1.6h-49.2c-5,0-8.9-1.3-11.6-4c-2.7-2.6-4.1-6.5-4.1-11.5V4442.5z"/>
	<path class="st1" d="M3224.2,4376.9c0-5,1.4-8.9,4.1-11.5c2.7-2.6,6.6-4,11.6-4h39.1c5.2,0,9.3,1.4,12.4,4.1
		c3.1,2.7,4.7,6.5,4.7,11.4v94.1c0,1.3,0.4,2.4,1.2,3.2c0.8,0.8,1.8,1.2,3.2,1.2h1.1c1.4,0,2.6-0.4,3.3-1.2c0.8-0.8,1.2-1.8,1.2-3.2
		v-94.1c0-5,1.3-8.9,4-11.5c2.6-2.6,6.5-4,11.5-4h8.1c5,0,8.9,1.3,11.5,4c2.6,2.6,4,6.5,4,11.5v95.2c0,5-1.3,8.9-4,11.5
		c-2.6,2.6-6.5,4-11.5,4h-39.1c-5.2,0-9.3-1.4-12.4-4.1c-3.1-2.7-4.7-6.5-4.7-11.4V4378c0-1.3-0.4-2.4-1.2-3.2
		c-0.8-0.8-1.8-1.2-3.2-1.2h-1.3c-1.3,0-2.4,0.4-3.2,1.2c-0.8,0.8-1.2,1.8-1.2,3.2v94.1c0,5-1.3,8.9-4,11.5c-2.6,2.6-6.5,4-11.5,4
		h-8.1c-5,0-8.9-1.3-11.6-4c-2.7-2.6-4.1-6.5-4.1-11.5V4376.9z"/>
	<path class="st1" d="M3355.6,4376.9c0-5,1.4-8.9,4.1-11.5c2.7-2.6,6.6-4,11.6-4h49.2c2.4,0,4.2,0.5,5.5,1.5c1.3,1,1.9,2.5,1.9,4.4
		c0,2-0.6,3.6-1.9,4.7c-1.3,1.1-3.1,1.6-5.5,1.6h-25.6v101.7h25.6c2.4,0,4.2,0.5,5.5,1.6s1.9,2.6,1.9,4.5c0,1.9-0.6,3.4-1.9,4.5
		s-3.1,1.6-5.5,1.6h-49.2c-5,0-8.9-1.3-11.6-4c-2.7-2.6-4.1-6.5-4.1-11.5V4376.9z"/>
	<path class="st1" d="M3436.6,4442.5c0-5,1-8.9,3-11.5c2-2.6,4.8-4,8.6-4v-5.2c-3.7,0-6.6-1.3-8.6-4c-2-2.6-3-6.5-3-11.5v-29.4
		c0-5,1.4-8.9,4.1-11.5c2.7-2.6,6.6-4,11.6-4h49.2c2.4,0,4.2,0.5,5.5,1.5c1.3,1,1.9,2.5,1.9,4.4c0,2-0.6,3.6-1.9,4.7
		c-1.3,1.1-3.1,1.6-5.5,1.6h-25.6v44.3h25.6c2.4,0,4.2,0.5,5.5,1.5c1.3,1,1.9,2.5,1.9,4.4c0,1.9-0.6,3.4-1.9,4.5
		c-1.3,1.1-3.1,1.6-5.5,1.6h-25.6v45.2h25.6c2.4,0,4.2,0.5,5.5,1.6c1.3,1.1,1.9,2.6,1.9,4.5c0,1.9-0.6,3.4-1.9,4.5
		c-1.3,1.1-3.1,1.6-5.5,1.6h-49.2c-5,0-8.9-1.3-11.6-4c-2.7-2.6-4.1-6.5-4.1-11.5V4442.5z"/>
	<path class="st1" d="M3526.7,4487.5c-2.4,0-4.2-0.5-5.5-1.6c-1.3-1.1-1.9-2.6-1.9-4.5c0-1.9,0.6-3.4,1.9-4.5
		c1.3-1.1,3.1-1.6,5.5-1.6h31v-40.2c0-1.6-0.5-2.8-1.4-3.7c-0.9-0.9-2.2-1.4-3.9-1.4h-18.4c-5,0-8.9-1.4-11.6-4.1
		c-2.7-2.7-4.1-6.6-4.1-11.6v-37.5c0-5,1.4-8.9,4.1-11.5c2.7-2.6,6.6-4,11.6-4h49.2c2.4,0,4.2,0.5,5.5,1.5c1.3,1,1.9,2.5,1.9,4.4
		c0,2-0.6,3.6-1.9,4.7c-1.3,1.1-3.1,1.6-5.5,1.6h-25.6v39.1c0,1.6,0.5,2.8,1.4,3.8c0.9,1,2.2,1.4,3.9,1.4h18.4c5,0,8.9,1.3,11.5,4
		c2.6,2.6,4,6.5,4,11.5v38.6c0,5-1.3,8.9-4,11.5c-2.6,2.6-6.5,4-11.5,4H3526.7z"/>
</g>
</svg>
