<?xml version="1.0" encoding="utf-8"?>
<!-- Generator: Adobe Illustrator 25.2.3, SVG Export Plug-In . SVG Version: 6.00 Build 0)  -->
<svg version="1.1" id="Camada_1" xmlns="http://www.w3.org/2000/svg" xmlns:xlink="http://www.w3.org/1999/xlink" x="0px" y="0px"
	 viewBox="0 0 1753 12259" style="enable-background:new 0 0 1753 12259;" xml:space="preserve">
<style type="text/css">
	.st0{fill:#FFFFFF;}
	.st1{fill:none;stroke:#00BDFF;stroke-width:3;stroke-miterlimit:10;}
</style>
<g>
	<image style="overflow:visible;opacity:0.75;" width="1753" height="12259" xlink:href="45DE00B288E4B510.png" >
	</image>
	<g>
		<path class="st0" d="M1676.1,249.4c0-95.3-75.6-172.6-168.9-172.6H245.9c-93.3,0-168.9,77.3-168.9,172.6v6989.8
			c0,14.3,11.4,25.9,25.4,25.9h572.1c14,0,25.4,11.6,25.4,25.9v24c0,14.3,11.4,25.9,25.4,25.9h0c14,0,25.4,11.6,25.4,25.9v72.2
			c0,14.3-11.4,25.9-25.4,25.9h0c-14,0-25.4,11.6-25.4,25.9v811c0,14.3-11.4,25.9-25.4,25.9H102.4c-14,0-25.4,11.6-25.4,25.9v3655.7
			c0,95.3,75.6,172.6,168.9,172.6h1261.2c93.3,0,168.9-77.3,168.9-172.6V249.4z"/>
		<path class="st1" d="M1676.1,249.4c0-95.3-75.6-172.6-168.9-172.6H245.9c-93.3,0-168.9,77.3-168.9,172.6v6989.8
			c0,14.3,11.4,25.9,25.4,25.9h572.1c14,0,25.4,11.6,25.4,25.9v24c0,14.3,11.4,25.9,25.4,25.9h0c14,0,25.4,11.6,25.4,25.9v72.2
			c0,14.3-11.4,25.9-25.4,25.9h0c-14,0-25.4,11.6-25.4,25.9v811c0,14.3-11.4,25.9-25.4,25.9H102.4c-14,0-25.4,11.6-25.4,25.9v3655.7
			c0,95.3,75.6,172.6,168.9,172.6h1261.2c93.3,0,168.9-77.3,168.9-172.6V249.4z"/>
	</g>
</g>
</svg>
