<svg width="2216" height="14634" viewBox="0 0 2216 14634" fill="none" xmlns="http://www.w3.org/2000/svg">
<g filter="url(#filter0_d)">
<path d="M2150.02 235.186C2150.02 108.557 2049.63 5.98193 1925.79 5.98193H250.213C126.369 5.98193 25.9817 108.756 25.9817 235.186V8718.33C25.9817 8737.21 41.0895 8752.72 59.7754 8752.72H819.737C838.224 8752.72 853.531 8768.02 853.531 8787.11V8819.11C853.531 8838 868.639 8853.5 887.325 8853.5C905.812 8853.5 921.118 8868.81 921.118 8887.89V8983.71C921.118 9002.6 906.011 9018.1 887.325 9018.1C868.837 9018.1 853.531 9033.41 853.531 9052.49V10129.7C853.531 10148.8 838.423 10164.1 819.737 10164.1H59.7754C41.2883 10164.1 25.9817 10179.4 25.9817 10198.5V14319.2C25.9817 14445.6 126.369 14548.4 250.213 14548.4H1925.39C2049.23 14548.4 2149.62 14445.6 2149.62 14319.2V235.186H2150.02Z" fill="white"/>
<path d="M2150.02 235.186C2150.02 108.557 2049.63 5.98193 1925.79 5.98193H250.213C126.369 5.98193 25.9817 108.756 25.9817 235.186V8718.33C25.9817 8737.21 41.0895 8752.72 59.7754 8752.72H819.737C838.224 8752.72 853.531 8768.02 853.531 8787.11V8819.11C853.531 8838 868.639 8853.5 887.325 8853.5C905.812 8853.5 921.118 8868.81 921.118 8887.89V8983.71C921.118 9002.6 906.011 9018.1 887.325 9018.1C868.837 9018.1 853.531 9033.41 853.531 9052.49V10129.7C853.531 10148.8 838.423 10164.1 819.737 10164.1H59.7754C41.2883 10164.1 25.9817 10179.4 25.9817 10198.5V14319.2C25.9817 14445.6 126.369 14548.4 250.213 14548.4H1925.39C2049.23 14548.4 2149.62 14445.6 2149.62 14319.2V235.186H2150.02Z" stroke="#00BDFF" stroke-width="3" stroke-miterlimit="5.0512"/>
</g>
<defs>
<filter id="filter0_d" x="-1" y="-1" width="2218" height="14637" filterUnits="userSpaceOnUse" color-interpolation-filters="sRGB">
<feFlood flood-opacity="0" result="BackgroundImageFix"/>
<feColorMatrix in="SourceAlpha" type="matrix" values="0 0 0 0 0 0 0 0 0 0 0 0 0 0 0 0 0 0 127 0"/>
<feOffset dx="20" dy="40"/>
<feGaussianBlur stdDeviation="22"/>
<feColorMatrix type="matrix" values="0 0 0 0 0 0 0 0 0 0.74902 0 0 0 0 1 0 0 0 0.45 0"/>
<feBlend mode="normal" in2="BackgroundImageFix" result="effect1_dropShadow"/>
<feBlend mode="normal" in="SourceGraphic" in2="effect1_dropShadow" result="shape"/>
</filter>
</defs>
</svg>
