<svg width="1134" height="1501" viewBox="0 0 1134 1501" fill="none" xmlns="http://www.w3.org/2000/svg">
<g filter="url(#filter0_d)">
<path d="M1025.93 1395.93H94.645C74.0917 1395.93 57.3506 1379.27 57.3506 1358.64V255.967C57.3506 235.417 74.0088 218.678 94.645 218.678H1025.93C1046.48 218.678 1063.22 235.334 1063.22 255.967V1358.64C1063.22 1379.27 1046.57 1395.93 1025.93 1395.93Z" fill="#D7F7FF" stroke="#00BFFF" stroke-width="3" stroke-miterlimit="10" stroke-linecap="round" stroke-linejoin="round"/>
<path d="M57.019 261.353H1063.31" stroke="#00BFFF" stroke-width="3" stroke-miterlimit="10"/>
<path d="M89.838 249.587C94.2304 249.587 97.7941 246.024 97.7941 241.632C97.7941 237.24 94.2304 233.677 89.838 233.677C85.4455 233.677 81.8818 237.24 81.8818 241.632C81.8818 246.024 85.4455 249.587 89.838 249.587Z" fill="white"/>
<path d="M89.8383 235.168C93.402 235.168 96.2198 238.069 96.2198 241.549C96.2198 245.112 93.3191 247.929 89.8383 247.929C86.2746 247.929 83.4568 245.029 83.4568 241.549C83.4568 238.069 86.3575 235.168 89.8383 235.168ZM89.8383 232.02C84.5342 232.02 80.2246 236.328 80.2246 241.632C80.2246 246.935 84.5342 251.244 89.8383 251.244C95.1424 251.244 99.452 246.935 99.452 241.632C99.452 236.328 95.1424 232.02 89.8383 232.02Z" fill="#00BFFF"/>
<path d="M115.447 249.587C119.839 249.587 123.403 246.024 123.403 241.632C123.403 237.24 119.839 233.677 115.447 233.677C111.054 233.677 107.491 237.24 107.491 241.632C107.491 246.024 110.972 249.587 115.447 249.587Z" fill="white"/>
<path d="M115.447 235.168C119.011 235.168 121.829 238.069 121.829 241.549C121.829 245.112 118.928 247.929 115.447 247.929C111.883 247.929 109.066 245.029 109.066 241.549C109.066 238.069 111.883 235.168 115.447 235.168ZM115.447 232.02C110.143 232.02 105.833 236.328 105.833 241.632C105.833 246.935 110.143 251.244 115.447 251.244C120.751 251.244 125.061 246.935 125.061 241.632C124.978 236.328 120.751 232.02 115.447 232.02Z" fill="#00BFFF"/>
<path d="M140.973 249.587C145.365 249.587 148.929 246.024 148.929 241.632C148.929 237.24 145.365 233.677 140.973 233.677C136.58 233.677 133.017 237.24 133.017 241.632C133.017 246.024 136.58 249.587 140.973 249.587Z" fill="white"/>
<path d="M140.973 235.168C144.537 235.168 147.355 238.069 147.355 241.549C147.355 245.112 144.454 247.929 140.973 247.929C137.409 247.929 134.592 245.029 134.592 241.549C134.592 238.069 137.492 235.168 140.973 235.168ZM140.973 232.02C135.669 232.02 131.359 236.328 131.359 241.632C131.359 246.935 135.669 251.244 140.973 251.244C146.277 251.244 150.587 246.935 150.587 241.632C150.587 236.328 146.277 232.02 140.973 232.02Z" fill="#00BFFF"/>
<path d="M403.94 1393.19V1182.64C403.94 1182.64 124.066 1123.72 104.424 775.525C104.424 775.525 103.43 713.791 112.96 682.634C122.491 651.477 157.134 440.257 579.473 369.988C579.473 369.988 844.015 341.814 940.317 429.982C940.317 429.982 994.021 466.359 998.745 538.036C998.745 538.036 1028.75 633.164 1022.95 706.002C1017.14 778.922 1008.03 953.185 856.529 1082.7C856.529 1082.7 778.957 1152.81 700.307 1171.62V1393.19H403.94V1393.19Z" fill="white"/>
<path d="M837.053 727.464C673.952 840.242 401.039 893.606 204.124 785.22C58.5104 705.008 198.82 519.724 374.021 443.903C516.569 382.252 734.037 366.259 857.523 412.912C992.695 463.873 1026.34 596.621 837.053 727.464Z" fill="#D5F5FF" stroke="#00BDFF" stroke-width="3" stroke-miterlimit="10" stroke-linecap="round" stroke-linejoin="round"/>
<path d="M265.205 1054.28L244.9 1097.7C244.9 1097.7 228.988 1084.69 224.595 1078.14C220.286 1071.6 265.205 1054.28 265.205 1054.28Z" fill="#00BDFF"/>
<path d="M110.226 700.201C80.5558 834.193 150.752 1209.24 547.648 1197.63C933.107 1186.36 1087.17 816.791 998.828 538.036" stroke="#00BDFF" stroke-width="3" stroke-miterlimit="10" stroke-linecap="round" stroke-linejoin="round"/>
<path d="M699.561 1168.8V1393.19" stroke="#00BDFF" stroke-width="3" stroke-miterlimit="10" stroke-linecap="round" stroke-linejoin="round"/>
<path d="M403.94 1182.64V1393.19" stroke="#00BDFF" stroke-width="3" stroke-miterlimit="10" stroke-linecap="round" stroke-linejoin="round"/>
<path d="M765.613 1038.37V850.103C765.613 850.103 883.049 865.35 883.049 968.93C883.049 1062.23 765.613 1038.37 765.613 1038.37Z" stroke="#00BDFF" stroke-width="3" stroke-miterlimit="10" stroke-linecap="round" stroke-linejoin="round"/>
<path d="M765.613 850.02L792.382 834.11C792.382 834.11 903.934 855.82 903.686 951.86C903.603 984.922 883.132 1010.53 864.071 1020.39" stroke="#00BDFF" stroke-width="3" stroke-miterlimit="10" stroke-linecap="round" stroke-linejoin="round"/>
<path d="M468.998 1093.81C455.158 1118.75 428.803 1145.02 378.912 1146.92" stroke="#00BDFF" stroke-width="3" stroke-miterlimit="10" stroke-linecap="round" stroke-linejoin="round"/>
<path d="M448.611 1082.7C448.611 1082.7 454.909 1071.68 465.02 1075.24C472.396 1077.9 473.474 1086.35 468.916 1093.81C477.369 1077.4 479.524 1069.44 481.596 1060.91C483.17 1054.28 478.695 1047.82 471.899 1046.91C466.181 1046.16 460.711 1049.81 459.302 1055.44C456.816 1065.88 453.169 1074.91 448.611 1082.7Z" fill="#00BDFF" stroke="#00BDFF" stroke-width="3" stroke-miterlimit="10" stroke-linecap="round" stroke-linejoin="round"/>
<path d="M355.706 1130.27C393 1126.95 428.969 1116.34 448.611 1082.62" stroke="#00BDFF" stroke-width="3" stroke-miterlimit="10" stroke-linecap="round" stroke-linejoin="round"/>
<path d="M407.835 1160.68C423.748 1160.68 441.152 1156.37 454.909 1138.97" stroke="#00BDFF" stroke-width="3" stroke-miterlimit="10" stroke-linecap="round" stroke-linejoin="round"/>
<path d="M472.313 1020.97C496.928 1015.91 509.028 1037.21 508.448 1046.82" stroke="#00BDFF" stroke-width="3" stroke-miterlimit="10" stroke-linecap="round" stroke-linejoin="round"/>
<path d="M264.459 1053.53L178.35 1103.92C160.117 1114.6 136.663 1109.05 125.226 1091.24C113.043 1072.34 119.01 1047.15 138.321 1035.72L218.877 988.32" fill="white"/>
<path d="M264.459 1053.53L178.35 1103.92C160.117 1114.6 136.663 1109.05 125.226 1091.24C113.043 1072.34 119.01 1047.15 138.321 1035.72L218.877 988.32" stroke="#00BDFF" stroke-width="3" stroke-miterlimit="10" stroke-linecap="round" stroke-linejoin="round"/>
<path d="M317.002 1010.78C327.209 1010.78 335.484 997.012 335.484 980.033C335.484 963.055 327.209 949.291 317.002 949.291C306.795 949.291 298.521 963.055 298.521 980.033C298.521 997.012 306.795 1010.78 317.002 1010.78Z" stroke="#00BDFF" stroke-width="3" stroke-miterlimit="10" stroke-linecap="round" stroke-linejoin="round"/>
<path d="M169.234 937.69C179.441 937.69 187.715 923.926 187.715 906.947C187.715 889.969 179.441 876.205 169.234 876.205C159.027 876.205 150.752 889.969 150.752 906.947C150.752 923.926 159.027 937.69 169.234 937.69Z" stroke="#00BDFF" stroke-width="3" stroke-miterlimit="10" stroke-linecap="round" stroke-linejoin="round"/>
<path d="M316.422 960.229C323.135 959.4 328.522 969.261 328.522 980.448C328.522 991.634 323.052 1000.67 316.422 1000.67C309.709 1000.67 304.322 991.634 304.322 980.448C304.322 980.448 306.477 990.557 313.024 990.557C319.572 990.557 321.726 981.856 321.726 975.393C321.726 968.93 319.903 960.229 316.422 960.229Z" fill="#00BDFF" stroke="#00BDFF" stroke-width="3" stroke-miterlimit="10" stroke-linecap="round" stroke-linejoin="round"/>
<path d="M168.736 888.552C175.449 887.723 180.836 897.584 180.836 908.77C180.836 919.957 175.366 928.989 168.736 928.989C162.106 928.989 156.636 919.957 156.636 908.77C156.636 908.77 158.791 918.88 165.338 918.88C171.886 918.88 174.04 910.179 174.04 903.716C173.957 897.169 172.134 888.552 168.736 888.552Z" fill="#00BDFF" stroke="#00BDFF" stroke-width="3" stroke-miterlimit="10" stroke-linecap="round" stroke-linejoin="round"/>
<path d="M654.061 598.859C671.638 598.859 685.886 588.471 685.886 575.657C685.886 562.843 671.638 552.455 654.061 552.455C636.485 552.455 622.237 562.843 622.237 575.657C622.237 588.471 636.485 598.859 654.061 598.859Z" fill="white" stroke="#00BDFF" stroke-width="3" stroke-miterlimit="10" stroke-linecap="round" stroke-linejoin="round"/>
<path d="M726.081 587.34C702.545 561.901 686.135 522.044 717.794 500.996C748.21 480.777 795.201 481.523 841.611 513.343C880.729 540.108 884.376 561.818 884.376 561.818C884.376 561.818 876.42 534.39 903.189 543.754C903.189 543.754 879.403 538.865 851.059 519.061C819.898 497.35 812.605 468.928 828.931 457.41C845.258 445.892 881.061 449.952 914.046 478.457C951.672 511.023 965.18 554.858 947.362 575.491C929.543 596.124 893.824 602.836 842.855 574.414C803.24 552.372 797.438 526.27 797.438 526.27C797.438 526.27 815.505 561.735 771.332 555.272C771.332 555.272 812.853 559.747 834.567 571.513C879.237 595.793 907.581 627.612 887.194 647.168C867.635 665.978 811.444 645.677 811.444 645.677" fill="white"/>
<path d="M726.081 587.34C702.545 561.901 686.135 522.044 717.794 500.996C748.21 480.777 795.201 481.523 841.611 513.343C880.729 540.108 884.376 561.818 884.376 561.818C884.376 561.818 876.42 534.39 903.189 543.754C903.189 543.754 879.403 538.865 851.059 519.061C819.898 497.35 812.605 468.928 828.931 457.41C845.258 445.892 881.061 449.952 914.046 478.457C951.672 511.023 965.18 554.858 947.362 575.491C929.543 596.124 893.824 602.836 842.855 574.414C803.24 552.372 797.438 526.27 797.438 526.27C797.438 526.27 815.505 561.735 771.332 555.272C771.332 555.272 812.853 559.747 834.567 571.513C879.237 595.793 907.581 627.612 887.194 647.168C867.635 665.978 811.444 645.677 811.444 645.677" stroke="#00BDFF" stroke-width="3" stroke-miterlimit="10" stroke-linecap="round" stroke-linejoin="round"/>
<path d="M861.916 749.423C689.036 871.979 394.824 927.581 180.505 804.445C21.8793 713.377 168.488 515.083 354.297 430.81C512.26 359.133 751.939 344.632 882.967 396.753C1032.06 456.167 1043.66 620.569 861.916 749.423Z" stroke="#00BDFF" stroke-width="3" stroke-miterlimit="10" stroke-linecap="round" stroke-linejoin="round"/>
<path d="M278.88 498.179L349.076 458.238C362.668 450.201 370.955 435.699 370.955 419.955V397.168C370.955 368.497 339.96 350.515 315.097 364.685L225.756 415.646C202.219 429.07 187.715 454.012 187.715 481.109V741.551C187.715 767.819 216.308 784.143 238.933 770.719L254.928 761.272C268.52 753.235 276.808 738.733 276.808 722.989V611.123L348.993 568.945C362.668 560.99 371.038 546.323 371.038 530.496V510.94C371.038 482.103 339.711 464.122 314.765 478.706L278.88 498.179Z" fill="white" stroke="#00BDFF" stroke-width="3" stroke-miterlimit="10" stroke-linecap="round" stroke-linejoin="round"/>
<path d="M370.955 370.402V639.545C370.955 664.57 398.056 680.314 419.769 667.802L514.912 613.36C530.161 604.659 539.526 588.501 539.526 570.933V561.321C539.526 536.711 513.006 521.298 491.623 533.479L457.893 552.703V341.483C457.893 315.463 429.797 299.222 407.255 312.149L403.443 314.386C383.304 325.904 370.955 347.283 370.955 370.402Z" fill="white" stroke="#00BDFF" stroke-width="3" stroke-miterlimit="10" stroke-linecap="round" stroke-linejoin="round"/>
<path d="M629.365 408.851V486.826C629.365 514.006 658.703 530.993 682.323 517.486C707.02 503.316 722.186 477.048 722.186 448.626V235.168C722.186 180.726 663.675 146.421 616.187 173.02C566.959 200.531 536.46 252.57 536.46 309V540.605C536.46 567.95 566.13 584.937 589.667 571.099L590.081 570.851C614.364 556.598 629.282 530.579 629.282 502.405V408.851" fill="white"/>
<path d="M629.365 408.851V486.826C629.365 514.006 658.703 530.993 682.323 517.486C707.02 503.316 722.186 477.048 722.186 448.626V235.168C722.186 180.726 663.675 146.421 616.187 173.02C566.959 200.531 536.46 252.57 536.46 309V540.605C536.46 567.95 566.13 584.937 589.667 571.099L590.081 570.851C614.364 556.598 629.282 530.579 629.282 502.405V408.851" stroke="#00BDFF" stroke-width="3" stroke-miterlimit="10" stroke-linecap="round" stroke-linejoin="round"/>
<path d="M856.032 56.4304L759.398 111.452C734.12 125.871 718.457 152.718 718.457 181.887V199.371C718.457 221.413 742.076 235.417 761.387 224.727L780.697 212.878V414.983C780.697 436.114 803.654 449.206 821.804 438.517L838.793 428.49C853.048 420.121 861.75 404.791 861.75 388.301V166.391L881.723 155.784C897.636 146.504 907.415 129.434 907.415 111.038V86.3444C907.581 59.9107 878.989 43.3379 856.032 56.4304Z" fill="white" stroke="#00BDFF" stroke-width="3" stroke-miterlimit="10" stroke-linecap="round" stroke-linejoin="round"/>
<path d="M277.553 477.214V520.221" stroke="#00BDFF" stroke-width="3" stroke-miterlimit="10" stroke-linecap="round" stroke-linejoin="round"/>
<path d="M629.281 351.095V250.664" stroke="#00BDFF" stroke-width="3" stroke-miterlimit="10" stroke-linecap="round" stroke-linejoin="round"/>
<path d="M618.59 357.724L641.05 344.715" stroke="#00BDFF" stroke-width="3" stroke-miterlimit="10" stroke-linecap="round" stroke-linejoin="round"/>
<path d="M618.59 257.044L641.05 244.035" stroke="#00BDFF" stroke-width="3" stroke-miterlimit="10" stroke-linecap="round" stroke-linejoin="round"/>
<path d="M404.271 1305.69L671.3 1178.49C671.3 1178.49 551.626 1219.68 404.188 1183.55" fill="#00BDFF"/>
<path d="M764.868 1037.21V1075.82C764.868 1076.9 766.277 1077.4 766.94 1076.49L794.206 1040.86C794.206 1040.86 771.001 1042.26 764.868 1037.21Z" fill="#00BDFF"/>
<path d="M695.749 640.871C675.858 622.723 668.979 600.599 678.759 590.821C692.516 577.065 725.087 578.474 779.288 615.1C779.288 615.1 843.849 663.244 825.782 695.064C825.782 695.064 809.787 714.868 762.713 688.269" fill="white"/>
<path d="M695.749 640.871C675.858 622.723 668.979 600.599 678.759 590.821C692.516 577.065 725.087 578.474 779.288 615.1C779.288 615.1 843.849 663.244 825.782 695.064C825.782 695.064 809.787 714.868 762.713 688.269" stroke="#00BDFF" stroke-width="3" stroke-miterlimit="10" stroke-linecap="round" stroke-linejoin="round"/>
<path d="M619.585 723.984C578.064 690.838 549.14 648.08 549.14 648.08C549.14 648.08 528.172 616.923 554.195 601.013C580.301 585.103 624.972 607.062 624.972 607.062C624.972 607.062 717.877 640.871 776.47 701.693C784.012 709.482 790.393 723.403 782.023 731.358C782.023 731.358 769.923 744.948 739.59 729.867C709.257 714.786 691.853 697.136 675.858 668.63C675.858 668.63 693.594 693.241 653.233 688.435C653.233 688.435 678.013 686.529 709.174 714.04C740.336 741.551 733.043 758.206 722.932 764.007C712.821 769.807 695.334 778.177 652.238 751.909" fill="white"/>
<path d="M619.585 723.984C578.064 690.838 549.14 648.08 549.14 648.08C549.14 648.08 528.172 616.923 554.195 601.013C580.301 585.103 624.972 607.062 624.972 607.062C624.972 607.062 717.877 640.871 776.47 701.693C784.012 709.482 790.393 723.403 782.023 731.358C782.023 731.358 769.923 744.948 739.59 729.867C709.257 714.786 691.853 697.136 675.858 668.63C675.858 668.63 693.594 693.241 653.233 688.435C653.233 688.435 678.013 686.529 709.174 714.04C740.336 741.551 733.043 758.206 722.932 764.007C712.821 769.807 695.334 778.177 652.238 751.909" stroke="#00BDFF" stroke-width="3" stroke-miterlimit="10" stroke-linecap="round" stroke-linejoin="round"/>
<path d="M464.191 747.103C464.191 747.103 439.743 735.75 426.731 712.548C413.72 689.346 430.378 677.828 430.378 677.828C430.378 677.828 449.937 659.018 478.86 654.626C507.867 650.317 519.387 665.481 519.387 665.481C519.387 665.481 540.023 687.938 514.497 699.124C500.574 705.256 490.132 703.35 490.132 703.35C490.132 703.35 503.392 705.256 500.491 712.548C500.491 712.548 504.138 706.002 518.558 697.384C532.979 688.766 560.577 684.374 611.214 718.349C661.852 752.323 667.487 771.216 659.614 780.994C651.741 790.772 618.425 795.247 577.152 761.769C550.383 740.059 551.792 716.194 551.792 716.194C551.792 716.194 559.748 738.65 525.023 737.905C525.023 737.905 540.935 732.104 572.097 759.615C603.258 787.126 592.401 797.235 584.445 801.627C576.489 805.936 548.311 812.399 512.757 789.28" fill="white"/>
<path d="M464.191 747.103C464.191 747.103 439.743 735.75 426.731 712.548C413.72 689.346 430.378 677.828 430.378 677.828C430.378 677.828 449.937 659.018 478.86 654.626C507.867 650.317 519.387 665.481 519.387 665.481C519.387 665.481 540.023 687.938 514.497 699.124C500.574 705.256 490.132 703.35 490.132 703.35C490.132 703.35 503.392 705.256 500.491 712.548C500.491 712.548 504.138 706.002 518.558 697.384C532.979 688.766 560.577 684.374 611.214 718.349C661.852 752.323 667.487 771.216 659.614 780.994C651.741 790.772 618.425 795.247 577.152 761.769C550.383 740.059 551.792 716.194 551.792 716.194C551.792 716.194 559.748 738.65 525.023 737.905C525.023 737.905 540.935 732.104 572.097 759.615C603.258 787.126 592.401 797.235 584.445 801.627C576.489 805.936 548.311 812.399 512.757 789.28" stroke="#00BDFF" stroke-width="3" stroke-miterlimit="10" stroke-linecap="round" stroke-linejoin="round"/>
<path d="M454.909 706.002C465.766 691.501 484.91 681.308 497.673 681.391C497.673 681.391 477.369 685.037 484.247 670.785C484.247 670.785 478.114 688.683 447.699 695.147C447.699 695.147 468.004 688.6 454.909 706.002Z" fill="#00BDFF" stroke="#00BDFF" stroke-width="3" stroke-miterlimit="10" stroke-linecap="round" stroke-linejoin="round"/>
<path d="M575.163 631.424C595.468 634.325 599.777 627.115 595.468 616.26C595.468 616.26 594.722 639.462 653.399 656.118C653.399 656.118 621.657 643.523 627.707 670.868C627.707 670.702 617.845 635.733 575.163 631.424Z" fill="#00BDFF" stroke="#00BDFF" stroke-width="3" stroke-miterlimit="10" stroke-linecap="round" stroke-linejoin="round"/>
<path d="M294.212 793.921C273.327 775.193 295.621 743.457 331.175 722.243C366.729 701.03 399.962 703.93 412.974 714.04C425.985 724.149 433.859 743.042 423.416 748.428C412.974 753.815 400.791 748.428 400.791 748.428C400.791 748.428 413.72 750.997 410.073 764.753C410.073 764.753 425.985 722.16 479.524 755.058C533.062 787.955 507.785 809.665 507.785 809.665C507.785 809.665 471.568 842.231 354.297 819.774C354.297 819.692 312.279 810.079 294.212 793.921Z" fill="white" stroke="#00BDFF" stroke-width="3" stroke-miterlimit="10" stroke-linecap="round" stroke-linejoin="round"/>
<path d="M334.655 754.892C355.623 753.152 369.381 746.605 373.11 731.275C373.11 731.275 361.756 749.34 390.597 747.6C374.519 748.677 358.607 750.168 344.849 768.979C344.849 768.979 366.48 748.097 334.655 754.892Z" fill="#00BDFF" stroke="#00BDFF" stroke-width="3" stroke-miterlimit="10" stroke-linecap="round" stroke-linejoin="round"/>
<path d="M399.962 788.7C431.041 784.889 437.173 776.271 444.632 767.57C444.632 767.57 433.941 788.535 468.004 794.335C468.004 794.335 431.124 785.22 399.962 788.7Z" fill="#00BDFF" stroke="#00BDFF" stroke-width="3" stroke-miterlimit="10" stroke-linecap="round" stroke-linejoin="round"/>
</g>
<defs>
<filter id="filter0_d" x="-24" y="-24" width="1202" height="1569" filterUnits="userSpaceOnUse" color-interpolation-filters="sRGB">
<feFlood flood-opacity="0" result="BackgroundImageFix"/>
<feColorMatrix in="SourceAlpha" type="matrix" values="0 0 0 0 0 0 0 0 0 0 0 0 0 0 0 0 0 0 127 0"/>
<feOffset dx="10" dy="10"/>
<feGaussianBlur stdDeviation="17"/>
<feColorMatrix type="matrix" values="0 0 0 0 0 0 0 0 0 0.74902 0 0 0 0 1 0 0 0 0.45 0"/>
<feBlend mode="normal" in2="BackgroundImageFix" result="effect1_dropShadow"/>
<feBlend mode="normal" in="SourceGraphic" in2="effect1_dropShadow" result="shape"/>
</filter>
</defs>
</svg>
