<svg width="1286" height="1496" viewBox="0 0 1286 1496" fill="none" xmlns="http://www.w3.org/2000/svg">
<g filter="url(#filter0_d)">
<path d="M1195.13 1447.1H71.4104C46.571 1447.1 26.4243 1426.97 26.4243 1402.11V71.4055C26.4243 46.5661 46.5581 26.4194 71.4104 26.4194H1195.13C1219.96 26.4194 1240.11 46.5533 1240.11 71.4055V1402.11C1240.11 1426.97 1219.98 1447.1 1195.13 1447.1Z" fill="#D7F7FF" stroke="#00BFFF" stroke-width="3" stroke-miterlimit="10" stroke-linecap="round" stroke-linejoin="round"/>
<path d="M26 77.9241H1240.25" stroke="#00BFFF" stroke-width="3" stroke-miterlimit="10"/>
<path d="M992.681 186.77C992.681 205.245 992.411 223.733 992.81 242.196C992.964 249.318 990.971 254.088 984.414 257.431C975.762 261.854 967.546 267.099 959.06 271.844C956.091 273.502 954.818 275.546 954.818 279.095C954.895 309.488 954.753 339.882 954.741 370.276C954.741 395.424 954.843 420.584 954.882 445.732C954.895 456.056 955.049 466.393 954.766 476.717C954.676 480.317 956.206 481.886 959.189 483.223C969.834 488.006 980.493 492.75 990.945 497.918C1013.08 508.86 1033.17 522.771 1050.73 540.23C1071.74 561.11 1088.41 584.933 1100.24 612.1C1106.41 626.268 1111.49 640.796 1114.13 656.109C1114.82 660.172 1116.52 664.106 1116.84 668.182C1117.75 679.534 1118.47 690.912 1118.74 702.278C1119.12 718.169 1119.14 734.06 1119.1 749.964C1119.05 774.52 1119.18 799.077 1118.54 823.621C1118.04 842.803 1117.12 862.011 1115.23 881.091C1113.6 897.612 1110.86 914.069 1107.69 930.384C1104.63 946.095 1100.61 961.626 1096.58 977.131C1091.91 995.067 1084.38 1011.96 1076.58 1028.7C1072.38 1037.73 1068.54 1047.03 1063.3 1055.44C1051.62 1074.19 1039.4 1092.64 1026.93 1110.87C1017.8 1124.21 1006.81 1136.09 995.137 1147.29C985.494 1156.54 976.276 1166.33 965.9 1174.68C945.188 1191.31 924.128 1207.58 902.58 1223.11C890.508 1231.8 877.342 1239.05 864.344 1246.34C853.673 1252.33 842.577 1257.6 831.508 1262.87C825.928 1265.52 820.078 1267.64 814.228 1269.62C811.644 1270.5 810.821 1271.84 810.834 1274.37C810.95 1298.41 811.13 1322.45 811.052 1346.51C810.975 1371.28 810.615 1396.06 810.422 1420.83C810.358 1429.35 810.435 1437.86 810.448 1446.37C810.448 1447.1 810.654 1447.95 810.358 1448.53C809.831 1449.57 808.982 1450.44 808.275 1451.38C807.478 1450.37 806 1449.36 805.974 1448.32C805.768 1440.54 805.833 1432.76 805.845 1424.97C805.871 1400.76 805.845 1376.57 805.961 1352.36C806 1343.5 807.054 1334.59 806.501 1325.78C805.742 1313.63 805.82 1301.25 801.384 1289.6C800.368 1286.92 799.005 1284.28 797.36 1281.94C795.431 1279.2 792.783 1278.8 789.697 1280.49C781.495 1284.98 773.395 1289.71 764.922 1293.62C742.602 1303.9 719.486 1311.99 695.135 1315.92C670.283 1319.93 645.315 1322.58 620.051 1320.51C604.636 1319.25 589.542 1316.22 574.692 1312.04C565.602 1309.48 556.705 1306.22 547.628 1303.58C543.231 1302.29 538.629 1301.74 534.116 1300.82C527.469 1299.45 523.419 1302.83 520.102 1308.07C515.113 1315.96 513.236 1324.82 511.912 1333.81C510.061 1346.41 508.801 1359.03 509.019 1371.82C509.353 1391.85 509.315 1411.9 509.392 1431.94C509.405 1436.56 509.431 1441.17 509.096 1445.76C508.993 1447.13 507.682 1448.4 506.911 1449.71C506.088 1448.36 504.596 1447.04 504.545 1445.66C504.288 1439.35 504.442 1433.02 504.429 1426.71C504.416 1399.23 504.326 1371.76 504.416 1344.27C504.468 1327.89 504.751 1311.51 505.034 1295.13C505.072 1292.56 503.851 1291.42 501.626 1290.7C492.845 1287.84 483.974 1285.18 475.321 1281.98C455.2 1274.54 436.275 1264.52 417.658 1253.95C405.509 1247.05 393.218 1240.23 381.826 1232.2C369.947 1223.83 358.941 1214.17 347.769 1204.83C339.309 1197.74 331.106 1190.35 322.955 1182.91C320.949 1181.08 319.458 1181.03 317.246 1182.33C303.194 1190.54 289.077 1198.65 274.973 1206.79C256.562 1217.43 238.19 1228.15 219.689 1238.64C214.443 1241.61 209.043 1244.59 203.335 1246.43C184.564 1252.49 165.098 1245.75 154.402 1229.33C142.856 1211.61 146.957 1188.52 163.324 1176.86C172.684 1170.19 183.021 1164.89 193.011 1159.13C210.805 1148.89 228.676 1138.77 246.508 1128.58C252.525 1125.15 258.516 1121.69 264.52 1118.25C268.03 1116.23 267.94 1115.73 265.845 1112.46C261.383 1105.53 256.716 1098.68 252.975 1091.36C246.405 1078.49 239.732 1065.6 234.423 1052.19C223.893 1025.6 215.189 998.435 212.219 969.726C210.895 956.933 208.529 944.256 207.076 931.477C205.842 920.638 205.122 909.723 204.402 898.833C202.538 870.882 202.846 842.932 205.867 815.097C207.629 798.923 210.38 782.865 212.759 766.755C215.806 746.171 223.919 727.4 233.214 708.976C242.06 691.427 252.949 675.227 264.675 659.567C270.64 651.596 277.094 643.998 283.086 636.052C284.359 634.355 285.233 631.9 285.233 629.778C285.4 597.43 285.426 565.082 285.4 532.735C285.4 529.006 286.39 526.332 289.887 524.378C300.597 518.386 311.165 512.138 321.772 505.98C335.002 498.278 348.206 490.513 361.461 482.876C373.881 475.715 386.403 468.708 398.823 461.546C416.398 451.415 433.897 441.181 451.459 431.05C462.709 424.57 474.049 418.232 485.311 411.777C508.402 398.561 531.493 385.318 554.558 372.063C561.205 368.244 562.774 369.041 562.787 376.678C562.851 408.538 562.864 440.41 562.889 472.269C562.889 473.117 562.915 473.966 562.902 474.827C562.851 477.707 564.098 478.479 566.798 477.45C586.867 469.826 607.721 465.198 628.794 461.443C634.746 460.389 634.528 460.312 634.528 454.038C634.515 435.82 634.721 417.602 634.746 399.383C634.772 387.247 634.566 375.11 634.605 362.986C634.644 351.942 634.914 340.898 634.965 329.854C634.978 326.369 636.726 324.235 639.568 322.602C661.386 310.067 683.204 297.532 704.97 284.906C721.569 275.276 738.051 265.441 754.662 255.824C776.737 243.044 798.903 230.419 820.991 217.678C836.457 208.755 851.873 199.742 867.301 190.781C883.989 181.087 900.652 171.367 917.366 161.725C936.407 150.732 955.499 139.817 974.566 128.863C978.564 126.574 982.511 124.183 986.548 121.971C990.393 119.876 991.987 120.789 992.025 125.108C992.115 136.667 992.154 148.212 992.18 159.771C992.205 168.757 992.18 177.757 992.18 186.744C992.411 186.77 992.553 186.77 992.681 186.77ZM1111.49 663.45C1111.17 663.45 1110.85 663.463 1110.53 663.463C1110.27 664.929 1109.96 666.382 1109.78 667.847C1109.1 673.388 1108.95 679.046 1107.72 684.471C1101.93 710.262 1090.53 733.507 1074.42 754.361C1062.3 770.059 1048.85 784.549 1034.2 797.997C1017.66 813.142 999.907 826.706 981.483 839.319C956.695 856.29 930.762 871.435 903.583 884.318C886.792 892.276 870.052 900.44 852.824 907.357C830.736 916.216 808.211 923.981 785.814 932.081C765.809 939.319 745.29 944.848 724.539 949.438C706.269 953.475 687.974 957.576 669.486 960.34C645.482 963.927 621.311 966.576 597.14 968.929C581.558 970.446 565.859 971.14 550.187 971.449C524.062 971.976 497.924 971.59 471.914 968.53C454.93 966.537 437.921 964.519 421.078 961.613C407.81 959.325 394.593 956.316 381.711 952.472C366.025 947.792 350.417 942.585 335.323 936.298C321.566 930.564 308.504 923.158 295.223 916.344C290.581 913.966 285.876 911.523 281.71 908.437C265.51 896.416 251.368 882.351 240.002 865.547C229.704 850.312 221.733 834.035 216.912 816.267C215.793 812.165 214.97 807.987 213.942 803.86C213.787 803.255 213.273 802.741 212.913 802.188C212.527 802.754 212.077 803.281 211.782 803.885C211.576 804.31 211.576 804.837 211.537 805.312C210.432 819.969 208.889 834.626 208.387 849.296C207.925 862.526 208.452 875.794 208.837 889.023C209.146 899.463 209.403 909.941 210.599 920.291C212.784 939.358 215.729 958.335 218.184 977.363C220.511 995.414 225.204 1012.85 231.311 1029.93C237.482 1047.2 243.744 1064.46 252.641 1080.58C258.156 1090.57 263.826 1100.47 269.509 1110.35C271 1112.95 272.749 1113.59 275.77 1111.79C288.833 1104.04 302.037 1096.56 315.292 1089.14C316.642 1088.38 318.596 1088.72 320.268 1088.55C319.303 1089.86 318.622 1091.66 317.324 1092.43C305.11 1099.71 292.806 1106.83 280.514 1113.97C266.32 1122.21 252.126 1130.44 237.92 1138.63C223.289 1147.06 208.632 1155.44 194.013 1163.89C185.605 1168.75 177.055 1173.43 168.955 1178.78C164.996 1181.4 161.139 1184.86 158.58 1188.82C144.592 1210.35 157.629 1238.31 183.381 1243.06C194.502 1245.12 204.338 1242.1 213.736 1236.75C229.37 1227.87 244.901 1218.8 260.522 1209.88C279.499 1199.03 298.54 1188.27 317.516 1177.39C331.543 1169.35 345.493 1161.18 359.494 1153.1C361.204 1152.11 363.3 1150.25 364.791 1152.72C365.202 1153.4 363.197 1156.02 361.821 1157.19C359.443 1159.2 356.408 1160.46 354.158 1162.58C348.579 1167.82 346.123 1174.82 345.647 1182.16C345.133 1189.95 344.94 1197.82 352.526 1203.46C365.37 1213.03 377.326 1223.89 390.646 1232.71C404.789 1242.07 420.05 1249.76 434.899 1258.05C462.349 1273.39 491.431 1284.47 522.249 1290.85C530.567 1292.57 538.899 1294.3 547.294 1295.54C553.53 1296.47 559.894 1296.44 566.168 1297.16C590.686 1299.97 615.23 1302.28 639.941 1301.34C653.299 1300.84 666.799 1300.94 679.951 1298.93C701.898 1295.57 723.716 1291.19 745.405 1286.4C773.112 1280.3 799.623 1270.25 826.005 1259.98C847.502 1251.61 867.545 1240.43 886.702 1227.67C901.963 1217.5 917.314 1207.41 931.907 1196.33C946.075 1185.57 959.6 1173.91 972.933 1162.1C988.67 1148.17 1004.19 1133.86 1016.57 1116.74C1028.81 1099.82 1040.51 1082.52 1052.11 1065.16C1061.58 1050.99 1069.22 1035.81 1075.67 1020.01C1078.8 1012.37 1083.03 1005.12 1085.57 997.317C1090.62 981.863 1095.24 966.242 1099.28 950.505C1102.02 939.821 1103.67 928.841 1105.41 917.938C1107.71 903.462 1110.33 888.972 1111.54 874.38C1113.15 855.03 1114.04 835.578 1114.29 816.151C1114.65 789.537 1114.05 762.924 1114.01 736.31C1114 726.834 1114.76 717.359 1114.62 707.896C1114.42 695.747 1113.75 683.61 1113.11 671.473C1112.98 668.773 1112.06 666.124 1111.49 663.45ZM868.857 551.03C857.748 562.215 846.37 571.704 832.176 577.464C831.006 577.939 829.926 579.894 829.759 581.269C829.386 584.265 829.592 587.338 829.631 590.372C829.669 592.776 828.808 594.358 826.558 595.617C813.765 602.83 801.05 610.197 788.347 617.577C765.552 630.819 742.834 644.191 720 657.356C701.486 668.04 682.805 678.428 664.279 689.1C641.226 702.381 618.302 715.88 595.25 729.187C565.371 746.428 535.44 763.579 505.522 780.743C495.095 786.734 484.643 792.661 474.19 798.627C470.346 800.826 469.034 800.363 468.379 795.888C467.877 792.43 467.942 788.869 468.019 785.359C468.083 782.839 467.183 781.502 464.65 781.103C456.576 779.856 449.402 776.333 442.485 772.181C439.566 770.432 436.622 768.722 433.627 767.128C433.022 766.806 432.11 767.038 431.351 767.012C431.608 767.642 431.788 768.336 432.135 768.915C434.398 772.656 436.892 776.256 438.949 780.1C443.629 788.804 442.819 797.393 437.008 805.133C431.042 813.065 422.84 816.189 412.901 814.557C404.724 813.207 397.126 810.571 390.466 805.505C389.772 804.978 388.743 804.863 387.869 804.554C388.011 805.454 387.985 806.418 388.319 807.228C390.723 813.001 391.289 818.915 390.26 825.099C389.566 829.316 387.972 832.698 384.141 834.883C381.505 836.388 380.309 838.715 380.425 841.865C380.579 845.876 380.669 849.913 380.271 853.899C380.104 855.57 379.011 857.691 377.661 858.617C372.749 861.96 367.594 864.981 362.438 867.951C348.116 876.192 333.729 884.292 319.419 892.546C315.704 894.693 315.639 895.182 319.471 896.93C333.253 903.217 346.997 909.646 361.05 915.316C381.184 923.428 402.282 928.378 423.495 932.634C447.345 937.417 471.426 940.734 495.738 941.839C513.943 942.662 532.187 943.575 550.393 943.241C577.482 942.739 604.571 941.145 631.404 937.134C651.807 934.087 672.288 931.245 692.461 926.951C715.603 922.027 738.565 916.138 761.335 909.684C778.615 904.786 795.65 898.885 812.454 892.508C830.389 885.706 848.093 878.224 865.553 870.304C879.039 864.184 892.141 857.164 905.152 850.08C914.949 844.744 924.373 838.702 933.925 832.916C943.889 826.873 954.188 821.294 963.663 814.557C987.32 797.727 1010.19 779.933 1030.67 759.169C1040.77 748.935 1050.86 738.83 1058.59 726.654C1072.97 703.962 1083.32 679.92 1080.24 652.278C1079.1 642.121 1076.96 631.887 1073.74 622.18C1069.63 609.721 1062.53 598.562 1055.56 587.402C1048.24 575.677 1039.81 564.864 1030.2 555.093C1009.78 534.342 985.468 519.441 958.405 508.898C955.692 507.844 954.509 508.345 954.612 511.315C954.638 512.035 954.483 512.781 954.586 513.488C955.345 519.222 952.671 522.938 947.849 525.651C940.662 529.7 933.604 534.007 926.443 538.109C909.266 547.944 892.063 557.754 874.822 567.461C873.601 568.142 871.531 568.58 870.502 568.001C869.512 567.435 868.972 565.417 868.908 564.015C868.728 559.683 868.857 555.35 868.857 551.03ZM737.923 573.889C737.974 573.889 738.038 573.889 738.09 573.889C738.09 583.738 738.077 593.573 738.09 603.422C738.103 614.247 738.115 625.072 738.154 635.898C738.167 640.231 739.028 640.784 742.783 638.675C745.855 636.952 748.761 634.934 751.808 633.172C765.706 625.163 779.63 617.204 793.528 609.22C802.271 604.193 810.757 598.6 819.859 594.345C824.591 592.133 825.002 589.318 824.964 585.139C824.822 568.245 824.822 551.339 824.822 534.432C824.822 499.654 824.848 464.876 824.873 430.111C824.899 389.137 824.861 348.149 824.951 307.174C825.015 280.213 825.246 253.253 825.388 226.292C825.414 221.715 824.513 221.149 820.631 223.36C813.971 227.14 807.324 230.933 800.703 234.79C784.426 244.266 768.213 253.857 751.898 263.268C740.751 269.697 729.424 275.816 718.252 282.219C701.602 291.759 685.017 301.44 668.393 311.044C659.457 316.213 650.457 321.291 641.612 326.614C640.313 327.398 638.963 329.378 638.963 330.818C638.886 354.77 639.002 378.71 639.118 402.662C639.156 411.507 639.413 420.366 639.388 429.211C639.349 440.86 638.976 452.495 638.989 464.143C639.002 478.106 639.311 492.068 639.413 506.018C639.503 518.656 639.529 531.282 639.478 543.92C639.426 554.848 638.925 565.777 639.156 576.679C639.349 585.718 640.339 594.743 640.969 603.769C641.008 604.334 641.072 604.952 640.93 605.492C640.468 607.266 639.529 609.001 639.478 610.763C639.246 619.968 639.156 629.187 639.156 638.405C639.156 651.763 639.298 665.109 639.336 678.467C639.349 683.571 639.195 688.675 639.208 693.779C639.221 697.264 639.992 697.752 643.09 696.094C646.408 694.32 649.609 692.34 652.874 690.45C664.561 683.7 676.248 676.976 687.922 670.226C701.268 662.512 714.51 654.605 728.023 647.199C732.008 645.013 733.628 642.596 733.603 638.109C733.474 615.751 733.616 593.38 733.641 571.022C733.667 552.791 733.654 534.56 733.654 516.329C733.654 512.434 733.436 512.241 730.221 513.899C726.879 515.622 723.664 517.628 720.27 519.248C719.422 519.646 718.084 519.029 716.979 518.875C717.467 517.911 717.712 516.561 718.496 516.034C721.607 513.925 724.873 512.022 728.113 510.119C734.413 506.43 740.687 502.727 747.09 499.217C747.977 498.728 749.455 499.307 750.664 499.397C750.162 500.49 749.944 501.994 749.095 502.611C746.652 504.398 744.004 505.928 741.33 507.355C738.823 508.68 737.781 510.364 737.807 513.385C738 533.545 737.923 553.717 737.923 573.889ZM467.954 603.074C467.954 586.656 467.967 570.238 467.916 553.82C467.916 552.714 467.414 551.609 467.144 550.503C466.154 550.876 465.1 551.12 464.2 551.634C446.933 561.573 429.718 571.588 412.439 581.514C401.06 588.045 389.656 594.512 378.175 600.876C375.385 602.419 374.241 604.399 374.395 607.574C374.639 612.666 374.588 617.783 374.549 622.887C374.537 624.854 374.987 627.425 372.171 627.682C371.695 627.721 370.397 624.571 370.371 622.874C370.178 609.863 370.191 596.852 370.152 583.841C370.152 583.108 370.049 582.323 370.294 581.668C370.564 580.961 371.104 579.958 371.644 579.881C372.287 579.778 373.367 580.344 373.714 580.935C374.228 581.822 374.447 582.979 374.485 584.021C374.588 587.428 374.498 590.835 374.588 594.242C374.678 597.572 375.244 597.88 378.291 596.389C378.831 596.119 379.319 595.772 379.846 595.463C388.113 590.603 396.367 585.692 404.66 580.871C424.948 569.094 445.275 557.407 465.486 545.501C466.823 544.717 467.877 542.48 468.032 540.822C468.366 537.093 468.006 533.313 468.019 529.546C468.07 505.761 468.122 481.963 468.199 458.178C468.224 449.204 468.314 440.23 468.417 431.256C468.456 428.157 467.543 427.463 464.843 428.864C462.902 429.867 461.102 431.114 459.212 432.194C443.719 441.078 428.188 449.911 412.734 458.846C390.428 471.742 368.172 484.714 345.904 497.635C328.046 507.998 310.149 518.296 292.381 528.8C291.044 529.585 289.9 531.796 289.823 533.403C289.501 539.562 289.604 545.759 289.617 551.93C289.668 568.207 289.797 584.496 289.823 600.773C289.913 647.829 289.99 694.885 290.028 741.941C290.054 775.613 290.028 809.298 289.99 842.97C289.977 862.153 289.887 881.335 289.887 900.518C289.887 901.495 290.183 903.076 290.774 903.307C291.546 903.616 292.857 903.063 293.731 902.536C298.848 899.502 303.862 896.288 309.005 893.292C330.322 880.911 351.651 868.568 373.032 856.277C375.411 854.914 376.542 853.204 376.504 850.44C376.401 843.883 376.478 837.326 376.452 830.769C376.337 809.517 376.182 788.264 376.105 767.025C376.041 750.748 376.079 734.459 376.041 718.182C376.041 717.359 375.835 716.485 375.527 715.726C373.829 711.599 374.048 710.468 377.905 708.025C382.199 705.299 386.609 702.715 391.019 700.156C415.614 685.911 440.222 671.666 464.869 657.485C466.99 656.263 468.044 654.798 468.032 652.278C467.903 635.885 467.942 619.48 467.954 603.074ZM558.094 485.871C558.184 485.871 558.261 485.871 558.351 485.871C558.351 479.674 558.338 473.465 558.351 467.268C558.39 437.594 558.454 407.933 558.479 378.26C558.479 374.583 558.171 374.454 555.124 376.241C541.611 384.187 528.124 392.171 514.586 400.052C501.768 407.509 488.911 414.889 476.029 422.243C473.509 423.683 472.004 425.29 472.274 428.569C472.647 433.043 472.39 437.555 472.403 442.055C472.467 468.193 472.544 494.344 472.583 520.482C472.609 543.2 472.57 565.918 472.596 588.636C472.621 603.074 472.789 617.526 472.763 631.964C472.737 654.913 472.531 677.85 472.557 700.799C472.57 717.423 472.93 734.06 472.969 750.684C473.007 763.888 472.763 777.092 472.724 790.296C472.724 791.414 473.29 792.533 473.599 793.651C474.589 793.279 475.656 793.047 476.556 792.533C480.991 790.013 485.375 787.403 489.785 784.844C506.088 775.42 522.403 766.022 538.68 756.572C558.222 745.233 577.739 733.829 597.294 722.489C608.338 716.086 619.408 709.748 630.516 703.474C633.461 701.815 634.849 699.591 634.811 696.145C634.656 679.637 634.656 663.129 634.592 646.621C634.541 634.227 634.464 621.833 634.438 609.439C634.438 607.202 633.666 606.906 631.828 607.999C627.868 610.364 623.857 612.64 619.858 614.928C609.123 621.087 598.387 627.258 587.639 633.378C580.04 637.711 572.416 642.005 564.767 646.222C561.539 647.996 559.405 646.942 558.647 643.329C558.428 642.262 558.351 641.156 558.351 640.064C558.312 621.961 558.312 603.859 558.274 585.756C558.235 570.328 558.132 554.887 558.107 539.459C558.068 521.613 558.094 503.742 558.094 485.871ZM829.348 278.542C829.399 278.542 829.438 278.542 829.489 278.542C829.489 297.634 829.476 316.74 829.502 335.832C829.502 340.628 830.248 341.052 834.426 338.648C846.229 331.872 858.018 325.058 869.808 318.257C872.894 316.47 873.125 316.585 873.151 320.198C873.202 332.965 873.19 345.732 873.267 358.499C873.382 374.904 873.678 391.309 873.704 407.715C873.729 424.57 873.434 441.425 873.408 458.281C873.395 471.626 873.601 484.971 873.665 498.317C873.717 507.664 873.704 517.024 873.678 526.371C873.652 537.273 873.652 548.163 873.524 559.065C873.485 562.485 874.038 562.987 877.201 561.483C878.075 561.071 878.885 560.531 879.734 560.043C888.232 555.08 896.705 550.079 905.216 545.154C919.307 537.003 933.398 528.852 947.541 520.791C949.714 519.556 950.626 518.091 950.536 515.558C950.356 510.711 950.511 505.838 950.498 500.978C950.395 461.585 950.266 422.191 950.189 382.811C950.151 357.316 950.176 331.808 950.202 306.313C950.215 295.989 950.382 285.665 950.382 275.341C950.382 272.808 951.102 271.162 953.545 269.825C964.203 264.014 974.771 258.01 985.224 251.825C986.536 251.041 987.577 248.804 987.693 247.171C988.014 242.504 987.757 237.786 987.783 233.093C987.86 209.179 987.924 185.253 988.027 161.339C988.066 151.504 988.233 141.655 988.297 131.82C988.323 127.693 987.358 127.101 983.9 129.12C981.586 130.47 979.374 131.974 977.06 133.298C962.018 141.964 946.936 150.578 931.907 159.256C913.187 170.069 894.493 180.933 875.787 191.758C861.49 200.038 847.232 208.382 832.832 216.469C830.042 218.038 829.283 219.773 829.296 222.782C829.412 241.347 829.348 259.938 829.348 278.542ZM1085.21 659.915C1085.21 663.926 1085.69 667.989 1085.13 671.923C1082.37 691.362 1074.91 709.13 1064.8 725.754C1053.92 743.625 1040.55 759.478 1024.26 772.695C1008.79 785.243 993.491 798.036 977.484 809.877C963.843 819.957 949.649 829.38 935.095 838.085C917.276 848.743 899.186 859.08 880.569 868.247C860.641 878.057 840.16 886.812 819.564 895.156C804.958 901.083 789.864 905.892 774.809 910.649C759.535 915.47 744.145 920.034 728.601 923.917C712.826 927.851 696.806 930.86 680.89 934.202C644.158 941.904 606.937 945.876 569.511 947.252C545.276 948.139 520.938 947.561 496.702 946.558C480.22 945.876 463.699 944.064 447.422 941.402C428.394 938.291 409.443 934.357 390.775 929.548C375.874 925.717 361.243 920.561 346.881 914.994C335.477 910.571 324.691 904.567 313.569 899.399C312.155 898.743 310.047 898.216 308.825 898.795C304.454 900.877 300.301 903.436 296.097 905.892C294.117 907.049 294.027 908.399 296.033 909.71C296.843 910.237 297.601 910.867 298.45 911.33C310.291 917.72 322.042 924.29 334.037 930.397C349.26 938.149 365.511 943.254 381.891 947.818C403.439 953.809 425.27 958.759 447.538 961.022C469.51 963.259 491.572 964.699 513.609 966.37C517.839 966.692 522.107 966.499 526.363 966.512C538.243 966.512 550.161 967.116 561.989 966.357C586.456 964.789 610.91 962.873 635.299 960.353C651.357 958.695 667.351 956.175 683.23 953.282C700.535 950.132 717.737 946.339 734.888 942.379C745.868 939.834 756.758 936.748 767.532 933.418C777.856 930.23 788.039 926.565 798.183 922.837C816.414 916.139 834.747 909.646 852.734 902.317C877.149 892.379 901.063 881.219 924.064 868.311C941.215 858.694 958.315 848.871 974.746 838.085C994.545 825.099 1013.65 811.047 1030.79 794.564C1038.93 786.734 1047.25 779.046 1054.81 770.676C1068.54 755.467 1080.34 738.843 1089.78 720.586C1097.37 705.891 1102.54 690.475 1104.56 673.98C1106.41 658.899 1104.48 644.255 1100.95 629.585C1099.15 622.115 1097.21 614.8 1093.76 607.947C1085.65 591.85 1076.1 576.718 1064.81 562.575C1048.69 542.377 1029.55 525.689 1007.53 512.421C996.204 505.594 984.183 499.937 972.406 493.894C967.34 491.297 962.108 488.996 956.901 486.707C956.425 486.501 954.908 487.221 954.895 487.569C954.702 491.567 954.702 495.578 954.625 499.59C954.586 501.698 955.525 502.675 957.608 503.421C973.949 509.245 989.377 517.049 1003.58 526.898C1013.12 533.506 1022.2 541.002 1030.63 548.973C1047.95 565.34 1062.33 583.943 1072.47 605.8C1080.48 623.067 1085.1 640.925 1085.21 659.915ZM467.916 714.672H467.903C467.903 712.846 467.749 711.008 467.929 709.208C468.469 704.026 466.977 699.629 463.313 695.914C459.135 691.671 455.136 687.261 450.842 683.147C442.819 675.484 442.755 675.548 433.035 681.077C416.771 690.321 400.495 699.552 384.218 708.771C382.058 709.992 380.746 711.509 380.785 714.248C380.914 722.386 380.824 730.524 380.849 738.663C380.862 741.916 380.296 745.387 381.209 748.383C382.444 752.484 384.436 756.508 386.828 760.082C389.566 764.158 392.793 768.066 396.432 771.345C398.656 773.338 402.166 773.865 404.943 775.33C406.023 775.909 406.679 777.285 407.527 778.288C406.242 778.686 404.814 779.65 403.696 779.367C401.266 778.776 398.875 777.735 396.65 776.552C391.893 774.019 387.355 774.752 383.883 778.866C380.284 783.134 380.335 789.229 384.603 794.654C392.883 805.235 403.94 810.815 417.337 811.137C432.38 811.497 442.421 796.428 436.417 783.16C432.071 773.582 425.501 765.675 418.828 757.807C416.18 754.682 412.709 752.265 409.841 749.321C408.929 748.382 408.71 746.75 408.17 745.438C409.43 745.76 410.69 746.055 411.937 746.402C412.156 746.467 412.323 746.685 412.516 746.84C423.418 756.019 434.797 764.569 447.628 770.895C452.822 773.453 458.35 775.382 463.827 777.298C466.656 778.287 467.98 777.015 467.942 773.8C467.864 764.556 467.826 755.312 468.199 746.081C468.533 737.866 466.81 730.974 459.083 726.59C456.036 724.854 453.246 722.656 450.418 720.56C449.158 719.635 446.908 718.722 448.643 716.742C449.119 716.189 451.485 716.703 452.578 717.385C456.808 720.007 460.87 722.913 465.023 725.664C466.823 726.86 467.967 726.68 467.916 724.135C467.864 720.997 467.916 717.835 467.916 714.672ZM285.297 690.655C285.284 690.655 285.271 690.655 285.259 690.655C285.259 686.168 285.349 681.668 285.207 677.181C285.156 675.6 284.564 674.031 284.217 672.45C283.034 673.594 281.671 674.623 280.682 675.908C272.247 686.811 266.102 699.102 259.211 710.969C247.884 730.46 242.368 751.468 241.802 773.736C241.262 794.847 244.798 815.315 253.914 834.613C260.406 848.344 269.522 860.018 280.874 870.021C281.787 870.818 283.176 871.075 284.333 871.59C284.667 870.355 285.271 869.108 285.271 867.874C285.31 855.39 285.207 842.906 285.207 830.422C285.207 816.125 285.349 801.841 285.22 787.544C285.169 781.874 284.963 776.256 282.083 770.933C279.974 767.025 278.586 762.641 277.429 758.321C275.436 750.838 273.212 743.33 272.299 735.693C271.36 727.863 274.96 723.787 282.7 721.872C284.629 721.396 285.297 720.547 285.284 718.67C285.271 709.323 285.297 699.989 285.297 690.655ZM829.451 413.68C829.476 413.68 829.489 413.68 829.515 413.68C829.515 424.853 829.553 436.038 829.489 447.211C829.476 450.052 830.248 451.737 833.436 452.109C844.043 453.344 854.624 454.694 865.193 456.198C868.342 456.648 868.985 455.465 868.895 452.662C868.728 447.571 868.805 442.467 868.831 437.375C868.883 424.403 868.972 411.43 869.037 398.458C869.101 385.112 869.178 371.767 869.217 358.422C869.255 348.368 869.281 338.301 869.23 328.247C869.217 325.135 868.201 324.48 865.784 325.868C855.049 332.039 844.39 338.339 833.603 344.408C830.556 346.118 829.386 348.342 829.399 351.762C829.489 372.397 829.451 393.045 829.451 413.68ZM285.001 891.723C285.066 891.723 285.143 891.723 285.207 891.723C285.207 889.178 285.13 886.619 285.22 884.074C285.336 880.936 284.294 878.635 281.607 876.681C278.29 874.264 275.333 871.32 272.325 868.491C259.828 856.791 251.689 842.315 245.081 826.693C234.603 801.983 233.15 776.642 238.447 750.62C241.558 735.333 248.012 721.242 254.994 707.549C262.553 692.738 271.797 678.853 282.353 665.893C283.549 664.414 285.066 662.64 285.156 660.93C285.49 655.119 285.271 649.282 285.194 643.458C285.181 642.956 284.667 642.455 284.384 641.954C283.909 642.275 283.317 642.494 282.983 642.918C281.414 644.923 279.936 647.019 278.367 649.025C265.806 665.109 253.361 681.244 243.59 699.282C235.078 715.006 226.323 730.602 222.53 748.305C220.537 757.562 217.85 766.793 217.117 776.166C215.484 797.213 220.64 817.218 229.203 836.298C237.367 854.49 248.167 871.062 262.425 885.128C268.635 891.248 275.372 896.828 281.903 902.626C283.947 904.439 284.937 903.616 284.976 901.173C285.053 898.036 285.001 894.873 285.001 891.723ZM563.108 632.787C563.082 632.787 563.044 632.787 563.018 632.787C563.018 634.368 563.005 635.937 563.018 637.518C563.057 641.748 563.944 642.262 567.724 640.076C572.661 637.222 577.598 634.368 582.445 631.372C584.425 630.138 586.16 628.518 588.012 627.078C585.723 625.612 583.576 623.825 581.12 622.745C578.703 621.691 575.952 621.447 573.406 620.637C572.596 620.38 571.594 619.505 571.452 618.773C571.336 618.143 572.159 616.883 572.853 616.613C577.675 614.723 579.385 610.84 580.195 606.134C580.375 605.067 581.583 604.18 582.329 603.216C582.933 604.257 584.013 605.273 584.077 606.353C584.399 611.959 586.675 616.626 590.249 620.83C593.386 624.52 593.849 624.764 598.13 622.283C609.277 615.841 620.372 609.323 631.468 602.804C634.811 600.837 635.273 598.729 632.342 596.26C625.477 590.488 618.56 584.728 611.283 579.508C606.076 575.779 600.007 573.259 594.749 569.595C585.286 563.013 576.145 555.967 566.836 549.153C566.014 548.549 564.947 548.279 563.995 547.854C563.674 548.831 563.057 549.809 563.057 550.786C563.005 562.203 563.069 573.632 563.057 585.049C563.057 587.518 563.815 589.163 566.515 589.806C567.531 590.05 568.289 591.426 569.164 592.275C568.289 592.982 567.492 594.177 566.528 594.319C563.468 594.795 562.941 596.775 562.979 599.295C563.018 602.084 563.095 604.874 563.108 607.664C563.121 616.047 563.108 624.417 563.108 632.787ZM589.362 515.468C584.643 516.484 579.783 517.101 575.232 518.605C568.161 520.932 564.792 526.551 566.091 533.609C566.631 536.515 567.646 539.716 569.485 541.94C573.381 546.659 577.726 551.069 582.303 555.157C595.533 566.96 610.845 575.201 627.559 580.986C634.361 583.339 634.553 583.108 634.579 575.934C634.618 565.635 635.248 555.324 634.978 545.039C634.862 540.899 636.109 535.885 631.044 532.979C625.888 530.022 621.118 526.358 615.86 523.632C607.618 519.338 598.991 516.059 589.362 515.468ZM868.728 531.14C868.728 527.052 869.05 524.198 868.625 521.472C868.304 519.466 867.43 517.165 866.041 515.764C856.823 506.442 845.38 501.055 832.883 497.661C830.479 497.005 829.875 497.88 829.862 500.13C829.849 504.141 829.901 508.178 829.438 512.138C828.692 518.464 830.775 523.992 833.655 529.315C834.529 530.935 836.098 532.22 837.525 533.48C839.068 534.856 840.803 536.026 842.462 537.273C840.379 537.762 838.322 538.495 836.213 538.687C831.405 539.137 829.695 540.744 829.669 545.476C829.63 553.113 829.592 560.75 829.618 568.387C829.63 573.144 830.942 574.301 834.992 571.781C842.886 566.87 850.793 561.791 857.877 555.8C865.617 549.23 870.798 540.873 868.728 531.14ZM563.031 514.414C563.031 516.355 562.979 518.309 563.069 520.251C563.095 520.752 563.571 521.241 563.854 521.742C564.342 521.472 564.869 521.254 565.294 520.919C567.094 519.505 568.688 517.744 570.655 516.676C580.503 511.354 591.046 510.672 601.383 514.247C609.688 517.114 617.454 521.536 625.477 525.213C626.248 525.573 627.225 525.509 628.099 525.651C627.971 524.853 627.932 524.031 627.714 523.259C626.569 519.312 624.924 515.442 624.345 511.418C623.625 506.442 625.168 501.531 629.861 499.243C633.962 497.263 634.695 494.653 634.566 490.641C634.464 487.491 633.576 486.579 630.491 487.067C609.92 490.359 589.876 495.643 570.475 503.228C562.221 506.43 562.954 505.028 563.031 514.414ZM634.631 474.699C634.631 471.639 634.643 469.569 634.631 467.499C634.618 465.519 633.936 464.799 631.699 465.159C609.225 468.823 587.24 474.313 565.885 482.31C563.699 483.133 562.787 484.097 562.877 486.45C563.018 489.96 562.825 493.483 562.735 497.005C562.645 500.785 563.751 501.403 567.376 500.104C575.952 497.057 584.45 493.714 593.219 491.336C604.456 488.289 615.924 486.141 627.264 483.48C634.772 481.732 634.746 481.629 634.631 474.699ZM868.882 470.88C868.831 470.88 868.792 470.88 868.741 470.88C868.741 468.45 868.574 466.008 868.792 463.603C868.998 461.212 867.751 460.184 865.758 459.901C854.83 458.384 843.889 456.944 832.96 455.478C830.569 455.156 829.656 456.275 829.669 458.576C829.695 463.308 829.759 468.052 829.592 472.77C829.476 475.843 830.981 476.782 833.732 476.897C837.846 477.065 841.986 477.167 846.062 477.707C852.426 478.556 858.738 479.713 865.064 480.832C867.622 481.282 869.075 480.729 868.908 477.772C868.78 475.496 868.882 473.182 868.882 470.88ZM868.728 498.998C868.728 495.848 868.587 492.686 868.767 489.536C868.96 486.373 867.687 484.869 864.55 484.444C855.794 483.262 847.064 481.873 838.309 480.69C828.653 479.379 830.068 479.237 829.541 488.006C829.322 491.644 830.685 493.534 834.31 494.434C846.139 497.378 856.784 502.727 865.977 510.827C866.53 511.302 867.455 511.354 868.214 511.598C868.394 510.917 868.715 510.248 868.728 509.554C868.767 506.044 868.741 502.521 868.728 498.998ZM285.156 754.129C285.13 754.129 285.117 754.129 285.091 754.129C285.091 745.682 285.079 737.223 285.104 728.776C285.117 726.089 284.037 725.317 281.466 726.282C277.544 727.76 274.935 731.193 275.989 736.58C277.776 745.695 280.63 754.605 283.086 763.579C283.227 764.081 283.78 764.479 284.153 764.916C284.487 764.338 285.104 763.772 285.117 763.194C285.207 760.172 285.156 757.151 285.156 754.129ZM467.916 672.578C467.942 672.578 467.98 672.578 468.006 672.578C468.006 669.789 468.019 667.012 468.006 664.222C467.993 662.19 466.964 661.509 465.216 662.486C460.253 665.263 455.316 668.079 450.469 671.061C450.058 671.306 450.083 673.414 450.508 673.671C455.342 676.654 460.279 679.47 465.229 682.273C467.016 683.275 467.954 682.658 467.942 680.576C467.89 677.901 467.916 675.24 467.916 672.578ZM380.669 817.604C380.618 817.604 380.566 817.604 380.528 817.604C380.528 820.265 380.412 822.939 380.566 825.601C380.669 827.439 381.158 829.252 381.466 831.078C383.151 829.612 384.938 828.249 386.468 826.642C387.072 826.012 387.226 824.868 387.368 823.916C388.409 817.282 387.201 811.124 383.318 805.583C382.945 805.043 382.264 804.708 381.736 804.284C381.376 804.965 380.746 805.647 380.721 806.341C380.618 810.082 380.669 813.849 380.669 817.604ZM634.476 513.424C634.476 510.634 634.566 507.844 634.425 505.067C634.374 503.987 633.782 502.92 633.448 501.853C632.496 502.303 631.378 502.573 630.632 503.254C629.784 504.038 628.896 505.092 628.639 506.172C627.161 512.447 628.575 518.181 632.342 523.349C632.664 523.799 633.268 524.043 633.743 524.391C633.988 523.761 634.425 523.143 634.451 522.513C634.515 519.492 634.476 516.458 634.476 513.424ZM634.913 590.179C634.284 588.726 634.194 587.852 633.795 587.685C631.262 586.631 628.652 585.731 626.081 584.792C626.029 585.371 625.708 586.283 625.965 586.489C627.932 588.096 629.925 589.69 632.098 590.976C632.625 591.298 633.834 590.513 634.913 590.179ZM380.155 765.032C380.618 766.691 381.029 768.195 381.441 769.712C381.865 768.285 382.636 766.845 382.611 765.431C382.585 763.682 381.904 761.934 381.492 760.185C381.042 761.792 380.605 763.412 380.155 765.032Z" fill="#00BFFF"/>
<path d="M869.963 1176.44C869.577 1165.07 868.947 1153.72 868.87 1142.35C868.78 1129.25 869.307 1116.14 869.345 1103.04C869.435 1073.38 869.384 1043.72 869.397 1014.06C869.41 994.012 869.435 973.969 869.5 953.925C869.513 951.752 869.577 949.528 870.104 947.445C870.413 946.198 871.428 944.783 872.521 944.128C881.482 938.792 890.431 933.431 899.636 928.545C901.526 927.542 904.625 928.082 906.939 928.7C925.401 933.649 942.411 941.736 957.698 953.243C967.43 960.572 976.019 969.134 983.63 978.661C995.484 993.485 1003.71 1010.15 1008.56 1028.43C1013.01 1045.22 1012.39 1062.01 1007.47 1078.65C1001.46 1098.94 989.711 1115.06 972.522 1127.38C958.752 1137.25 943.452 1143.46 926.854 1146.21C920.593 1147.25 914.074 1146.87 907.672 1146.76C903.339 1146.69 900.035 1148.23 896.898 1151.08C886.779 1160.29 881.354 1171.96 878.577 1185.08C878.024 1187.67 877.201 1190.09 874.09 1189.69C871.094 1189.31 870.091 1186.92 870.104 1184.08C870.117 1181.52 870.104 1178.97 870.104 1176.41C870.053 1176.44 870.014 1176.44 869.963 1176.44ZM874.128 1122C874.295 1122 874.475 1122 874.642 1122C874.642 1125.76 874.758 1129.5 874.604 1133.24C874.514 1135.53 875.594 1136.54 877.6 1137.01C891.099 1140.18 904.612 1142.69 918.639 1140.91C936.227 1138.69 951.822 1132.69 964.46 1119.71C977.009 1106.84 983.142 1091.26 984.479 1073.72C985.687 1057.82 982.383 1042.39 976.019 1027.98C967.688 1009.13 955.384 992.997 939.39 979.741C921.634 965.033 901.629 955.313 878.834 951.482C874.36 950.736 874 950.942 874.051 955.545C874.141 963.426 874.527 971.307 874.565 979.176C874.604 987.263 874.257 995.337 874.27 1003.42C874.282 1012.13 874.578 1020.82 874.604 1029.52C874.655 1042.69 874.63 1055.85 874.54 1069.02C874.475 1078.46 874.231 1087.91 874.154 1097.34C874.077 1105.57 874.128 1113.79 874.128 1122ZM1005.82 1053.17C1005.51 1047.9 1005.73 1042.73 1004.83 1037.75C1001.32 1018.36 993.53 1000.79 981.611 985.064C971.352 971.539 959.189 960.122 944.725 951.096C932.678 943.575 919.886 937.918 906.219 934.228C904.059 933.649 901.23 933.521 899.302 934.421C893.606 937.095 888.181 940.361 882.704 943.472C881.932 943.909 881.444 944.822 880.814 945.516C881.624 945.928 882.395 946.455 883.257 946.712C890.906 948.988 898.71 950.826 906.18 953.552C920.233 958.695 932.768 966.692 944.018 976.386C954.394 985.321 963.625 995.439 970.966 1007.2C978.41 1019.15 983.926 1031.79 987.281 1045.47C990.727 1059.53 990.701 1073.57 988.014 1087.73C987.77 1088.99 988.284 1091.11 989.197 1091.69C990.187 1092.33 992.656 1092.24 993.388 1091.44C996.063 1088.57 998.955 1085.6 1000.52 1082.11C1004.63 1072.91 1005.32 1062.93 1005.82 1053.17Z" fill="#00BFFF"/>
<path d="M484.154 1250.75C483.203 1250.34 479.873 1249.58 479.86 1248.76C479.796 1245.31 483.023 1246.42 485.08 1246.07C488.783 1245.44 492.511 1244.98 496.214 1244.41C498.682 1244.04 499.158 1242.64 498.142 1240.52C498.091 1240.41 498.001 1240.31 497.949 1240.21C494.414 1232.07 494.465 1232.53 485.478 1233.42C476.684 1234.29 467.8 1234.1 458.955 1234.37C458.595 1234.38 458.145 1234.41 457.888 1234.22C456.82 1233.42 455.805 1232.56 454.763 1231.71C455.92 1231.08 457.052 1230 458.248 1229.92C462.105 1229.69 465.987 1229.85 469.87 1229.83C489.824 1229.79 508.171 1224.37 524.64 1213.07C537.176 1204.47 548.335 1194.32 554.262 1179.97C557.232 1172.76 558.672 1164.88 560.472 1157.22C561.951 1150.92 568.354 1145.18 574.679 1145.09C580.902 1144.99 586.79 1149.93 588.526 1156.45C590.84 1165.19 588.295 1173.24 585.055 1181.16C574.988 1205.78 556.795 1223.17 534.553 1236.61C519.498 1245.69 502.565 1248.89 484.154 1250.75ZM572.236 1189.78C572.468 1184.05 568.534 1180.1 563.468 1181.76C560.858 1182.62 558.505 1185.04 556.654 1187.26C552.565 1192.17 549.287 1197.83 544.903 1202.45C534.424 1213.47 522.236 1222.14 507.811 1227.49C498.605 1230.91 498.759 1231.05 502.539 1240.14C503.465 1242.38 504.674 1242.65 506.744 1242.24C515.641 1240.48 523.985 1237.11 531.724 1232.61C544.62 1225.13 555.805 1215.42 565.371 1203.96C568.816 1199.84 572.069 1195.53 572.236 1189.78Z" fill="#00BFFF"/>
<path d="M445.777 1084.81C446.471 1094.24 443.797 1102.82 439.309 1110.95C435.761 1117.36 431.274 1118.85 424.473 1115.95C424.138 1115.81 423.804 1115.57 423.47 1115.55C412.812 1114.75 407.167 1107.72 403.362 1098.86C394.773 1078.91 394.246 1058.63 402.487 1038.47C404.017 1034.73 407.129 1031.44 410.047 1028.48C415.987 1022.49 425.835 1025.33 430.284 1030.08C437.934 1038.2 441.379 1048.18 443.089 1058.77C444.465 1067.37 444.915 1076.12 445.777 1084.81ZM402.115 1066.28C402.462 1070.38 402.59 1074.52 403.182 1078.6C404.635 1088.55 407.245 1098.06 414.277 1105.78C417.504 1109.31 423.907 1111.64 428.677 1106.81C432.688 1102.73 434.848 1097.88 436.404 1092.61C439.142 1083.29 439.579 1073.71 438.551 1064.17C437.497 1054.38 435.118 1044.9 429.011 1036.7C420.847 1025.73 412.31 1030.89 408.08 1039.14C407.746 1039.78 407.424 1040.44 407.142 1041.11C403.657 1049.13 402.115 1057.51 402.115 1066.28Z" fill="#00BFFF"/>
<path d="M296.855 1010.29C297.575 1019.73 294.901 1028.3 290.414 1036.43C286.853 1042.87 282.314 1044.41 275.603 1041.51C275.269 1041.36 274.947 1041.12 274.6 1041.09C262.733 1040.13 257.282 1031.81 253.425 1022.12C246.354 1004.35 245.955 986.247 251.805 968.067C253.605 962.475 256.601 957.64 261.242 953.706C267.22 948.641 276.439 950.556 281.067 955.313C288.936 963.4 292.446 973.519 294.168 984.254C295.544 992.855 295.981 1001.6 296.855 1010.29ZM253.194 991.801C253.541 995.902 253.669 1000.04 254.261 1004.12C255.713 1014.07 258.311 1023.58 265.356 1031.3C268.622 1034.87 275.025 1037.15 279.756 1032.34C283.767 1028.26 285.94 1023.42 287.483 1018.14C290.221 1008.84 290.697 999.258 289.643 989.718C288.563 979.921 286.21 970.446 280.116 962.243C272.003 951.328 263.479 956.303 259.172 964.66C258.838 965.303 258.503 965.959 258.221 966.627C254.775 974.663 253.181 983.046 253.194 991.801Z" fill="#00BFFF"/>
<path d="M584 1119.84C599.184 1119.8 616.155 1133.25 618.907 1150.96C619.113 1152.31 617.968 1153.85 617.467 1155.31C616.515 1154.25 615.14 1153.35 614.69 1152.1C612.44 1145.95 610.55 1139.62 605.664 1134.92C598.336 1127.86 589.696 1123.85 579.308 1124.2C578.703 1124.23 578.022 1124.36 577.508 1124.12C576.685 1123.76 575.978 1123.15 575.219 1122.65C575.862 1121.89 576.415 1120.61 577.186 1120.46C579.398 1120.01 581.712 1120.01 584 1119.84Z" fill="#00BFFF"/>
<path d="M516.669 1272.43C514.959 1271.49 513.249 1270.54 511.539 1269.6C513.236 1268.81 514.869 1267.54 516.643 1267.34C529.423 1265.79 541.611 1262.64 552.218 1254.95C554.867 1253.04 557.335 1250.87 560.087 1249.1C560.935 1248.56 562.427 1249 563.622 1248.99C563.417 1250.2 563.661 1251.91 562.941 1252.55C556.088 1258.73 548.683 1264.15 539.606 1266.65C533.807 1268.26 527.983 1269.77 522.146 1271.21C520.513 1271.6 518.778 1271.59 517.093 1271.77C516.939 1272 516.81 1272.22 516.669 1272.43Z" fill="#00BFFF"/>
<path d="M784.272 707.716C779.579 701.853 774.668 696.145 770.232 690.102C764.498 682.285 760.538 673.581 758.391 664.067C756.668 656.379 759.239 650.13 764.755 645C778.448 632.234 796.139 629.881 813.765 638.598C819.641 641.503 825.195 645.039 830.916 648.24C831.611 648.626 832.446 648.755 833.205 648.999C832.948 648.163 832.845 647.25 832.408 646.518C828.756 640.385 823.948 634.959 822.264 627.695C819.242 614.645 828.178 602.92 841.485 601.981C853.917 601.107 864.061 606.571 874.193 612.447C877.664 614.453 881.045 616.6 884.517 618.58C885.121 618.927 885.995 618.785 886.741 618.875C886.471 618.258 886.252 617.615 885.931 617.024C882.768 611.161 878.924 605.568 876.558 599.41C870.927 584.74 881.547 567.139 897.103 565.044C910.23 563.269 922.084 566.972 932.717 574.763C933.013 574.982 933.45 575.149 933.553 575.445C933.951 576.576 934.234 577.746 934.555 578.903C933.296 578.903 931.663 579.418 930.827 578.813C923.37 573.401 915.167 570.186 905.975 569.132C892.295 567.577 880.235 576.821 879.438 590.539C879.22 594.422 880.634 598.793 882.472 602.341C890.662 618.168 901.565 631.874 915.823 642.75C919.41 645.489 922.483 648.536 921.236 654.347C919.024 652.329 917.006 650.567 915.065 648.729C897.554 632.156 878.474 617.898 856.026 608.59C850.305 606.224 844.378 605.916 838.463 607.06C827.599 609.168 822.727 622.578 828.692 632.825C834.748 643.226 842.23 652.522 851.089 660.48C858.919 667.513 867.713 673.491 876.057 679.945C878.075 681.501 880.042 683.121 882.022 684.715C887.589 689.202 893.195 693.664 898.723 698.189C904.496 702.92 911.169 704.502 918.446 704.09C920.259 703.988 922.123 703.46 923.871 703.705C925.106 703.885 926.186 705.055 927.343 705.775C926.481 706.803 925.8 708.153 924.707 708.758C923.499 709.426 921.904 709.426 920.477 709.683C915.617 710.545 914.357 712.55 915.81 717.384C916.337 719.12 917.302 720.766 917.584 722.54C917.739 723.517 917.16 724.983 916.389 725.587C915.887 725.986 914.203 725.574 913.522 724.983C911.619 723.311 909.947 721.357 908.199 719.493C898.556 709.233 889.492 698.343 879.117 688.894C869.821 680.434 859.33 673.208 848.929 666.073C837.923 658.526 826.545 651.48 815.077 644.666C806.694 639.678 797.591 636.669 787.576 638.495C779.592 639.948 772.495 643.419 766.889 649.243C762.762 653.525 761.618 658.95 763.238 664.851C766.388 676.32 772.212 686.309 779.823 695.335C791.356 709.015 805.306 719.93 819.692 730.37C820.477 730.936 821.248 731.527 821.994 732.144C823.408 733.314 824.102 734.87 822.457 736.091C821.685 736.67 819.782 736.605 818.908 736.04C808.507 729.316 798.363 722.18 787.807 715.7C778.833 710.197 769.049 706.225 758.275 706.675C754.302 706.842 750.085 708.166 746.563 710.043C740.803 713.116 740.661 715.983 743.194 725.381C746.293 736.901 753.235 746.351 760.847 755.286C765.025 760.185 769.512 764.826 773.678 769.725C774.462 770.65 774.912 773.286 774.681 773.402C772.765 774.327 771.196 777.464 768.432 774.777C766.516 772.913 764.485 771.165 762.492 769.39C747.077 755.749 729.502 745.515 711.193 736.297C696.447 728.866 681.34 722.681 664.973 720.162C658.313 719.133 651.37 718.233 644.749 718.953C632.959 720.239 619.82 730.858 620.527 746.788C620.694 750.709 622.057 754.605 623.098 758.449C627.341 774.173 637.279 786.4 647.372 798.653C657.67 811.175 670.116 821.113 683.088 830.55C684.142 831.322 685.428 832.157 685.865 833.263C686.354 834.485 685.994 836.04 686.007 837.454C684.914 837.056 683.757 836.773 682.715 836.259C661.502 825.69 639.388 818.851 615.371 820.651C607.104 821.268 599.12 823.492 591.56 827.066C588.089 828.699 586.276 831.437 585.428 835.14C585.145 836.387 583.808 837.39 582.959 838.509C582.342 837.352 581.159 836.169 581.185 835.025C581.288 830.988 579.051 828.532 576.222 826.205C575.348 825.472 574.975 824.135 574.371 823.068C575.579 822.952 576.788 822.746 577.996 822.733C579.179 822.721 580.478 823.261 581.545 822.939C592.152 819.673 601.807 814.788 609.033 806.007C617.505 795.683 616.464 789.627 606.731 779.342C599.622 771.833 589.966 768.812 579.758 767.912C566.927 766.78 554.597 768.67 542.82 774.032C534.553 777.799 525.862 780.82 518.058 785.359C510.781 789.589 503.581 794.59 497.808 800.645C488.114 810.815 485.98 822.001 494.954 836.092C502.038 847.213 511.822 855.12 523.072 861.407C528.459 864.415 534.257 866.704 539.824 869.404C540.827 869.892 541.869 870.638 542.447 871.551C542.871 872.219 542.781 873.467 542.447 874.238C542.306 874.572 540.866 874.572 540.12 874.354C537.202 873.505 534.347 872.464 531.442 871.564C513.095 865.894 496.368 868.761 481.698 881.374C479.371 883.366 477.97 886.401 475.913 888.753C475.013 889.782 473.547 890.309 472.339 891.055C471.799 889.872 471.272 888.676 470.706 887.506C470.012 886.066 469.472 884.472 468.507 883.238C467.71 882.235 466.142 881.836 465.357 880.833C464.715 879.998 464.303 878.571 464.547 877.594C464.715 876.912 466.245 875.986 467.016 876.102C478.561 877.851 483.717 868.067 483.846 857.884C484.026 843.896 471.696 834.935 460.883 831.527C451.241 828.48 441.791 830.666 432.637 833.79C418.16 838.727 406.19 847.534 396.226 859.028C390.685 865.418 387.638 873.107 385.838 881.271C384.346 888.008 386.442 893.652 391.379 898.447C401.163 907.974 412.76 914.094 425.681 918.401C439.605 923.043 453.761 926.282 468.289 927.787C483.601 929.368 498.927 931.181 514.393 929.972C526.119 929.06 537.922 928.815 549.608 927.568C554.815 927.015 560.035 925.19 564.895 923.12C573.946 919.275 577.315 907.871 572.224 899.412C570.796 897.033 568.881 894.95 567.351 892.623C566.502 891.35 564.677 890.155 566.579 888.239C568.302 886.516 569.601 887.583 571.041 888.599C576.402 892.379 581.622 896.377 587.176 899.849C601.782 908.964 617.004 916.923 634.284 919.34C639.915 920.124 645.919 919.288 651.615 918.375C658.879 917.205 661.733 912.667 661.026 905.287C660.357 898.435 656.86 892.906 652.875 887.648C645.675 878.134 636.508 870.779 626.57 864.312C619.267 859.555 611.347 856.933 602.591 856.56C600.586 856.47 596.96 855.068 596.96 854.284C596.96 851.006 600.226 851.983 602.283 851.507C610.228 849.681 616.798 846.441 617.968 837.159C618.097 836.182 619.267 835.333 619.961 834.433C621.028 835.256 622.43 835.86 623.098 836.914C628.382 845.349 633.178 854.104 638.796 862.294C646.408 873.402 657.015 881.296 668.38 888.29C677.56 893.948 687.164 898.422 697.796 900.53C706.282 902.214 714.549 901.302 722.405 897.882C731.147 894.089 734.451 885.256 729.759 876.295C726.892 870.818 722.302 866.241 718.522 861.253C717.815 860.314 717.21 859.298 716.568 858.321C718.239 857.974 720.283 856.856 721.505 857.447C724.307 858.797 726.904 860.751 729.244 862.847C740.558 872.978 754.032 878.416 768.702 881.232C775.799 882.595 782.485 880.898 788.63 877.221C792.667 874.804 793.593 868.902 789.954 863.58C785.647 857.293 780.929 851.16 775.593 845.734C769.126 839.164 761.914 833.327 754.881 827.349C748.71 822.091 741.587 818.876 733.371 818.452C733.256 818.452 733.127 818.439 733.011 818.413C730.864 817.925 727.689 818.233 728.19 814.865C728.666 811.651 731.61 812.486 733.847 812.692C735.3 812.834 736.727 813.142 738.167 813.399C743.747 814.415 745.573 813.155 746.871 807.729C747.115 806.727 748.208 805.93 748.902 805.03C749.854 805.801 751.114 806.392 751.705 807.382C753.57 810.494 755.022 813.849 756.938 816.922C767.699 834.215 783.14 846.107 801.538 854.117C809.497 857.588 817.957 860.108 826.404 862.178C829.888 863.04 834.131 862.152 837.692 861.034C841.639 859.787 842.719 856.354 842.243 852.188C841.24 843.484 836.483 836.696 830.801 830.653C824.141 823.595 816.89 817.089 809.844 810.404C806.578 807.305 806.45 805.428 809.805 802.381C810.255 801.97 811.644 802.021 812.235 802.407C819.654 807.267 826.764 812.615 834.401 817.076C847.399 824.675 860.526 832.08 875.864 834.163C889.479 836.014 898.633 825.369 894.198 812.332C891.241 803.628 885.391 796.737 879.348 790.038C873.575 783.636 867.623 777.387 861.94 770.907C861.349 770.226 861.991 768.452 862.056 767.192C863.033 767.32 864.396 767.076 864.936 767.629C870.001 772.862 874.9 778.249 879.888 783.559C880.878 784.6 881.894 785.68 883.077 786.464C887.409 789.344 891.845 792.057 896.178 794.95C907.299 802.381 919.397 807.087 932.833 807.755C935.674 807.897 938.683 807.177 941.408 806.251C946.5 804.515 947.914 798.833 945.51 793.111C942.604 786.207 936.818 781.772 931.946 776.603C916.234 759.941 897.129 747.457 878.577 734.368C866.993 726.204 854.534 719.262 842.32 712.023C838.811 709.94 834.683 708.912 830.981 707.112C829.798 706.533 829.065 705.042 828.126 703.962C829.412 703.615 830.685 703.139 832.009 702.946C832.819 702.83 833.681 703.178 834.529 703.268C838.643 703.73 840.533 701.918 840.07 697.868C839.916 696.543 839.44 695.232 839.428 693.921C839.415 692.815 839.569 691.002 840.173 690.745C841.202 690.308 842.706 690.655 843.902 691.041C844.609 691.272 845.123 692.172 845.676 692.802C851.937 699.873 857.826 707.318 864.524 713.965C878.603 727.953 894.416 739.935 910.732 751.159C921.647 758.681 933.347 765.07 945.998 769.262C958.341 773.35 971.12 774.623 983.694 770.74C995.548 767.076 1000.36 759.658 995.973 747.289C992.514 737.531 986.716 729.161 980.365 721.126C973.987 713.052 967.443 705.106 960.809 696.891C964.808 696.608 967.778 697.405 970.645 700.426C977.909 708.089 985.289 715.726 993.298 722.579C1002.12 730.126 1019.31 733.546 1029.81 725.896C1041.81 717.166 1047.45 705.068 1046.36 690.244C1046.05 686.117 1044.44 682.054 1043.16 678.042C1042.53 676.075 1042.04 674.455 1043.59 672.668C1044.35 671.807 1045.02 670.47 1044.98 669.377C1044.83 664.941 1047.14 665.597 1050.07 666.42C1056.52 668.22 1061.74 664.491 1062.24 657.754C1062.42 655.35 1062.49 652.805 1061.88 650.516C1059.49 641.49 1057.29 632.362 1054.11 623.594C1047.75 606.057 1036.87 591.066 1026.07 576.088C1016.7 563.089 1005.95 551.441 993.003 541.927C991.241 540.629 989.364 539.471 987.667 538.109C978.886 531.063 969.423 531.089 960.025 536.154C953.674 539.574 947.914 544.087 941.858 548.073C938.593 550.22 937.088 553.357 937.345 557.072C937.667 561.482 938.4 565.879 939.145 570.251C939.428 571.909 940.598 573.863 938.104 574.339C937.268 574.493 935.558 572.899 935.083 571.742C932.305 565.108 932.267 558.281 934.067 551.364C935.211 546.993 937.731 543.817 941.691 541.631C948.467 537.877 954.998 533.622 961.953 530.253C971.917 525.432 981.11 527.823 990.059 533.879C1005.35 544.228 1017.98 557.188 1029.09 571.768C1040.08 586.206 1049.82 601.467 1057.11 618.104C1059.82 624.288 1061.43 630.961 1063.32 637.479C1064.74 642.365 1066.34 647.289 1066.88 652.303C1067.28 656.032 1066.71 660.12 1065.52 663.694C1063.43 669.891 1057.71 672.321 1049.93 671.293C1048.79 671.138 1047.61 671.331 1046.44 671.37C1046.67 672.527 1046.69 673.774 1047.17 674.815C1053.26 688.084 1053.04 701.378 1046.23 714.106C1035.57 733.995 1018.46 739.537 997.541 730.781C997.091 730.588 996.706 730.228 996.243 730.126C995.253 729.894 994.224 729.766 993.221 729.598C993.491 730.563 993.633 731.578 994.031 732.478C996.538 737.981 999.766 743.252 1001.53 748.974C1005.67 762.358 996.397 772.09 985.726 775.112C969.668 779.65 953.956 777.902 938.644 771.563C936.818 770.805 934.826 770.483 932.91 769.956C934.093 771.576 935.134 773.312 936.471 774.79C939.403 778.03 942.604 781.039 945.458 784.343C947.027 786.156 948.377 788.264 949.418 790.437C954.535 801.005 949.109 811.227 937.41 812.114C931.83 812.538 925.877 812.024 920.516 810.455C912.532 808.115 904.946 804.451 897.181 801.365C896.422 801.07 895.612 800.902 894.828 800.671C894.943 801.558 894.828 802.574 895.226 803.294C898.621 809.491 900.948 815.816 899.585 823.132C898.171 830.795 893.465 835.397 886.509 837.879C880.184 840.129 873.781 838.972 867.481 837.352C854.496 834.009 842.976 827.452 831.521 820.766C830.582 820.213 829.631 819.661 828.654 819.185C828.371 819.044 827.972 819.159 826.944 819.159C829.476 821.975 831.971 824.238 833.861 826.938C837.885 832.672 842.578 838.213 845.213 844.564C850.562 857.485 845.29 867.861 830.132 867.282C818.33 866.832 807.71 862.242 797.116 857.627C795.316 856.843 793.387 856.328 791.523 855.685C792.333 857.357 793.362 858.964 793.927 860.725C795.02 864.158 796.203 867.63 796.717 871.178C797.309 875.318 794.917 878.352 791.703 880.654C784.272 885.976 775.902 887.313 767.082 885.771C756.565 883.919 746.807 879.921 737.524 874.726C736.74 874.289 735.776 874.161 734.889 873.891C734.927 874.804 734.786 875.781 735.017 876.642C736.714 882.685 737.01 888.56 733.847 894.32C730.903 899.669 725.876 901.957 720.502 903.693C704.109 909.016 689.118 904.542 674.654 896.879C670.579 894.719 666.709 892.186 662.697 889.91C662.067 889.55 661.193 889.602 660.447 889.46C660.666 890.129 660.807 890.862 661.142 891.479C664.652 897.933 666.876 904.657 665.191 912.089C664.15 916.666 661.334 919.905 656.925 921.551C645.752 925.73 634.477 925.151 623.265 921.821C608.339 917.373 594.787 910.044 581.763 901.636C580.928 901.096 579.899 900.877 578.961 900.504C578.922 901.43 578.729 902.382 578.883 903.282C580.799 915.046 575.746 924.097 564.805 928.635C556.011 932.287 546.716 933.457 537.356 933.765C522.442 934.254 507.489 934.807 492.588 934.344C480.966 933.984 469.382 932.158 457.798 930.898C443.539 929.342 430.065 924.714 416.669 919.983C405.753 916.125 396.239 909.71 388.216 901.417C380.014 892.932 377.018 882.813 380.991 871.255C381.454 869.905 382.212 868.581 383.099 867.462C393.102 854.696 404.107 842.983 418.443 834.947C431.377 827.696 445.236 823.402 460.022 826.436C472.364 828.982 482.187 836.092 486.751 848.37C489.451 855.647 489.387 863.361 485.787 871.512C489.747 869.841 492.82 868.041 496.137 867.257C501.909 865.894 507.824 865.174 513.674 864.158C514.471 864.017 515.242 863.734 516.026 863.528C515.473 862.834 515.049 861.947 514.342 861.471C505.162 855.313 497.397 847.779 491.354 838.444C482.097 824.148 482.226 808.835 496.497 796.3C503.118 790.476 509.919 784.33 517.698 780.46C531.236 773.736 544.864 766.459 560.048 764.145C576.749 761.599 593.077 762.705 607.297 773.595C613.224 778.133 617.158 784.009 619.023 791.144C620.771 797.868 617.248 803.152 613.533 808.218C612.106 810.172 610.293 811.831 608.737 813.695C608.107 814.454 607.734 815.431 607.246 816.318C608.184 816.434 609.123 816.678 610.061 816.639C616.593 816.408 623.137 815.739 629.668 815.945C640.159 816.266 650.38 818.504 660.37 821.743C661.514 822.116 662.813 822.001 664.034 822.116C663.25 821.113 662.62 819.943 661.669 819.146C647.385 807.331 635.569 793.24 626.415 777.323C621.478 768.735 618.045 758.822 616.155 749.077C614.124 738.637 618.791 729.328 626.904 722.219C636.598 713.733 647.989 713.116 660.19 714.594C679.475 716.934 697.128 723.877 714.228 732.453C727.907 739.305 741.317 746.711 753.454 756.174C754.148 756.714 754.958 757.112 756.115 757.138C753.145 752.805 750.06 748.537 747.218 744.114C742.05 736.053 738.321 727.413 737.408 717.744C737.151 715.083 735.981 715.572 734.297 716.716C728.589 720.599 722.469 722.309 715.372 721.666C701.834 720.444 691.767 707.228 694.325 693.355C697.771 674.584 718.239 663.386 735.75 670.984C745.071 675.034 750.214 685.679 748.093 696.505C746.678 703.73 746.691 703.82 753.75 702.38C761.965 700.709 769.653 702.535 777.2 705.556C779.528 706.482 781.842 707.459 784.169 708.41C784.182 708.14 784.233 707.922 784.272 707.716ZM698.311 696.363C698.054 705.106 703.248 712.73 709.085 715.237C721.26 720.483 733.834 714.042 740.468 704.888C744.827 698.871 744.75 686.695 740.931 681.244C735.12 672.938 720.155 670.611 710.898 676.358C702.515 681.552 698.426 689.022 698.311 696.363ZM626.878 857.82C626.801 858.064 626.737 858.308 626.66 858.54C627.752 859.17 628.82 859.864 629.951 860.404C630.195 860.52 630.684 860.134 631.057 859.967C630.182 859.247 629.347 858.45 628.408 857.845C628.035 857.627 627.392 857.82 626.878 857.82Z" fill="#00BFFF"/>
<path d="M997.516 669.21C998.158 671.64 999.007 674.057 999.367 676.525C999.56 677.85 998.891 679.29 998.608 680.665C997.271 679.984 995.446 679.637 994.7 678.544C991.743 674.276 989.223 669.724 986.369 665.391C984.17 662.062 980.737 660.969 976.906 660.84C975.569 660.802 974.09 660.904 972.959 660.364C971.93 659.863 970.799 658.654 970.619 657.613C970.478 656.79 971.648 654.99 972.38 654.913C974.81 654.656 977.407 654.54 979.747 655.145C985.186 656.546 989.133 653.525 988.182 647.958C985.43 631.694 969.758 612.576 949.662 611.483C945.87 611.277 943.761 612.987 942.951 616.214C941.845 620.598 941.447 625.06 943.735 629.354C944.7 631.167 945.587 633.146 945.87 635.126C946.05 636.374 945.034 637.788 944.545 639.138C943.375 638.495 941.91 638.109 941.112 637.158C940.148 635.988 939.57 634.394 939.12 632.902C935.751 621.678 929.027 613.668 917.546 610.159C916.736 609.914 915.72 609.709 915.27 609.117C914.537 608.166 913.779 606.867 913.856 605.787C913.895 605.221 915.9 604.206 916.736 604.424C919.757 605.247 922.843 606.16 925.543 607.677C929.593 609.953 933.656 610.737 937.603 608.243C941.627 605.71 943.877 601.956 943.298 596.865C943.17 595.772 943.594 594.46 944.16 593.483C944.494 592.905 945.69 592.455 946.371 592.596C946.924 592.712 947.644 593.792 947.644 594.447C947.644 597.572 947.644 600.747 947.181 603.82C946.885 605.749 947.207 606.301 949.135 606.674C953.879 607.587 958.559 608.834 963.265 609.889C964.229 610.107 965.245 610.12 966.235 610.223C965.643 609.349 965.168 608.346 964.435 607.613C960.308 603.499 956.116 599.462 951.977 595.36C950.948 594.345 949.765 593.29 949.225 592.017C948.852 591.143 949.482 589.845 949.662 588.739C950.575 588.958 951.745 588.893 952.349 589.446C965.091 601.223 977.446 613.463 990.573 624.79C1000.58 633.417 1011.54 640.912 1022.09 648.896C1024.12 650.439 1026.35 651.737 1028.22 653.447C1029.03 654.193 1029.73 655.916 1029.41 656.829C1028.85 658.474 1027.59 660.313 1025.29 659.143C1018.07 655.479 1011.09 657.176 1004.18 659.979C999.264 661.997 998.004 663.9 997.516 669.21ZM985.173 626.358C984.89 626.59 984.594 626.834 984.312 627.065C985.134 628.492 985.996 629.907 986.793 631.347C991.627 640.038 996.796 648.652 989.223 658.59C988.709 659.272 990.689 661.843 991.499 663.54C992.527 662.923 993.646 662.422 994.571 661.663C996.41 660.146 997.888 657.922 999.971 657.022C1004.39 655.132 1009.11 653.923 1013.69 652.38C1014.55 652.097 1015.34 651.583 1016.16 651.172C1015.55 650.478 1015.03 649.655 1014.32 649.102C1006.88 643.265 999.406 637.479 991.949 631.681C989.686 629.919 987.436 628.132 985.173 626.358Z" fill="#00BFFF"/>
<path d="M973.589 577.065C974.502 576.525 975.967 574.905 977.292 575.008C982.229 575.394 983.411 571.987 984.671 568.515C985.211 567.037 985.34 565.365 986.111 564.041C986.793 562.871 988.104 562.048 989.146 561.084C990.148 562.164 991.498 563.077 992.064 564.35C993.337 567.204 993.877 570.405 995.317 573.157C1002.9 587.672 1014.42 597.945 1029.54 604.219C1030.54 604.63 1031.74 604.81 1032.51 605.479C1033.24 606.109 1034 607.304 1033.89 608.14C1033.78 608.924 1032.58 610.12 1031.8 610.159C1027.24 610.364 1026.24 613.309 1026.04 617.037C1026.01 617.757 1026.13 618.631 1025.79 619.171C1025.17 620.11 1024.12 621.601 1023.49 621.485C1022.43 621.293 1020.88 620.123 1020.75 619.197C1019.06 607.214 1010.53 600.066 1002.21 592.853C998.467 589.613 994.301 586.862 990.303 583.918C986.741 581.295 982.859 580.138 978.346 580.922C975.119 581.514 973.447 580.279 973.589 577.065Z" fill="#00BFFF"/>
<path d="M687.46 747.122C688.797 748.742 690.481 749.835 690.532 750.992C691.149 762.589 698.311 769.776 707.246 775.407C711.759 778.249 717.095 779.779 722.083 781.836C723.189 782.299 724.577 782.247 725.542 782.877C726.454 783.469 727.509 784.639 727.547 785.577C727.573 786.426 726.442 787.879 725.567 788.11C719.769 789.614 717.93 793.921 717.21 799.18C717.082 800.131 717.03 801.301 716.465 801.931C715.667 802.792 714.407 803.242 713.34 803.86C712.788 802.895 711.939 801.983 711.72 800.954C711.103 797.997 711.579 794.487 710.126 792.109C706.539 786.284 702.515 780.614 697.938 775.549C691.201 768.105 682.008 765.328 672.314 763.965C671.144 763.798 670.103 762.653 669.01 761.959C670.154 761.213 671.273 759.864 672.443 759.812C678.665 759.529 682.548 756.392 684.811 750.774C685.248 749.642 686.251 748.742 687.46 747.122Z" fill="#00BFFF"/>
<path d="M455.818 864.197C445.918 864.184 436.661 870.548 434.887 879.046C434.321 881.734 434.835 884.626 434.501 887.378C434.347 888.612 433.28 889.718 432.637 890.888C431.66 890 430.065 889.268 429.808 888.201C428.445 882.595 425.128 879.111 419.716 877.246C418.738 876.912 418.289 875.074 417.594 873.917C418.816 873.402 420.088 872.361 421.271 872.451C432.598 873.351 441.264 865.842 442.177 854.13C442.228 853.41 442.009 852.523 442.344 851.996C442.884 851.147 443.694 850.196 444.568 849.939C445.082 849.784 446.445 850.8 446.612 851.481C448.181 857.871 453.169 858.54 458.44 858.848C459.173 858.887 460.086 858.746 460.575 859.131C461.449 859.8 462.632 860.815 462.632 861.677C462.632 862.513 461.436 863.837 460.536 864.094C459.058 864.493 457.399 864.197 455.818 864.197Z" fill="#00BFFF"/>
<path d="M571.748 803.757C566.734 803.217 562.954 805.57 558.698 808.013C552.565 811.535 549.75 816.074 549.634 822.811C549.621 823.736 549.248 824.765 548.747 825.562C548.348 826.192 547.397 826.976 546.844 826.873C546.06 826.732 544.916 825.909 544.813 825.241C544.08 820.676 541.419 817.925 537.292 816.215C536.597 815.932 535.826 814.659 535.929 813.965C536.057 813.091 536.88 811.934 537.69 811.625C539.22 811.021 541.11 811.252 542.589 810.571C551.73 806.354 560.897 802.137 564.497 791.453C564.857 790.36 566.477 789.01 567.492 789.023C568.495 789.036 569.961 790.45 570.385 791.569C571.645 794.937 573.381 797.534 577.006 798.756C578.073 799.116 578.768 800.607 579.629 801.584C578.331 802.407 577.135 803.538 575.721 803.963C574.525 804.323 573.085 803.86 571.748 803.757Z" fill="#00BFFF"/>
<path d="M526.646 902.96C516.206 903.063 506.242 905.03 497.23 910.649C496.831 910.893 496.317 911.176 495.88 911.137C494.221 911.021 492.562 910.79 490.904 910.61C491.752 909.311 492.305 907.55 493.488 906.804C498.065 903.924 500.341 899.952 500.855 894.616C501.202 891.042 504.134 889.641 506.396 891.98C510.241 895.966 515.165 896.339 520.038 896.943C523.637 897.393 527.276 897.445 530.902 897.663C531.75 897.715 532.74 897.47 533.422 897.83C534.72 898.512 535.852 899.515 537.047 900.389C535.762 901.25 534.579 902.575 533.177 902.844C531.082 903.269 528.832 902.96 526.646 902.96Z" fill="#00BFFF"/>
<path d="M730.106 347.918C730.106 368.784 730.106 389.651 730.106 410.517C730.106 421.806 730.106 433.081 730.131 444.37C730.144 448.947 730.35 449.062 734.464 446.774C736.586 445.604 738.553 444.087 740.777 443.2C741.793 442.801 743.271 443.547 744.544 443.778C744.068 444.961 743.927 446.735 743.053 447.249C734.708 452.187 726.274 456.982 717.776 461.636C716.915 462.112 715.436 461.469 714.253 461.353C714.742 460.261 715.115 459.091 715.745 458.101C716.105 457.535 716.824 457.072 717.48 456.828C723.831 454.526 725.156 449.937 725.053 443.495C724.667 419.389 724.847 395.282 724.899 371.176C724.924 361.61 725.194 352.057 725.259 342.492C725.284 338.648 724.667 338.339 721.389 340.165C718.959 341.528 716.632 343.148 714.086 344.228C713.032 344.678 711.515 344.009 710.203 343.842C710.795 342.685 711.09 341.013 712.042 340.435C721.17 334.932 730.376 329.571 739.671 324.338C740.623 323.798 742.23 324.39 743.528 324.467C743.014 325.752 742.847 327.539 741.895 328.234C739.363 330.072 736.521 331.538 733.731 332.991C730.723 334.559 729.18 336.694 729.63 340.293C729.951 342.801 729.694 345.385 729.694 347.943C729.81 347.918 729.964 347.918 730.106 347.918Z" fill="#00BFFF"/>
<path d="M435.722 1073.61C435.491 1080.63 434.565 1087.43 431.582 1093.83C427.918 1101.73 420.178 1102.54 414.946 1095.61C410.253 1089.4 408.504 1082.11 407.411 1074.64C406.846 1070.82 406.807 1066.91 406.64 1063.04C406.589 1061.97 406.653 1060.77 407.129 1059.85C407.669 1058.81 408.71 1058.03 409.533 1057.14C410.304 1058.23 411.5 1059.24 411.783 1060.44C412.978 1065.71 413.814 1071.06 414.971 1076.35C415.241 1077.57 416.334 1078.6 416.964 1079.75C419.51 1084.45 423.264 1082.51 424.755 1078.42C427.147 1071.89 426.491 1065.24 425.308 1058.64C424.627 1054.84 423.727 1051.01 422.338 1047.42C421.695 1045.74 419.844 1044.19 418.16 1043.41C417.62 1043.15 415.948 1045.61 414.611 1046.6C413.596 1047.36 412.297 1047.75 411.127 1048.31C410.703 1046.97 409.636 1045.43 409.983 1044.33C411.307 1040.19 413.878 1036.92 418.545 1036.41C423.405 1035.89 426.53 1039.22 428.291 1042.86C430.849 1048.14 432.714 1053.85 434.128 1059.56C435.246 1064.09 435.234 1068.92 435.722 1073.61Z" fill="#00BFFF"/>
<path d="M286.506 999.001C286.609 1006.12 285.657 1013.04 282.61 1019.55C279.01 1027.21 271.309 1027.99 266.14 1021.29C261.383 1015.12 259.673 1007.81 258.503 1000.35C257.912 996.532 257.938 992.624 257.706 988.754C257.668 988.034 257.526 987.173 257.848 986.594C258.593 985.218 259.571 983.971 260.458 982.673C261.293 984.074 262.798 985.463 262.836 986.89C263.029 993.704 264.186 1000.16 268.442 1005.69C271.052 1009.08 274.163 1008.86 275.32 1004.72C276.632 1000.03 277.365 994.951 277.095 990.104C276.786 984.717 275.166 979.394 273.906 974.097C273.559 972.631 272.672 971.153 271.669 969.996C269.895 967.939 267.863 968.312 266.462 970.716C266.038 971.449 265.832 972.503 265.215 972.889C264.315 973.441 262.438 974.02 262.168 973.673C261.422 972.696 260.689 971.063 261.011 970.022C262.322 965.882 264.829 962.552 269.47 961.96C274.51 961.33 277.377 964.879 279.55 968.517C285.13 977.877 286.351 988.355 286.506 999.001Z" fill="#00BFFF"/>
<path d="M65.6378 63.7042C70.9632 63.7042 75.2804 59.3871 75.2804 54.0616C75.2804 48.7361 70.9632 44.4189 65.6378 44.4189C60.3123 44.4189 55.9951 48.7361 55.9951 54.0616C55.9951 59.3871 60.3123 63.7042 65.6378 63.7042Z" fill="white"/>
<path d="M65.6378 46.3475C69.8934 46.3475 73.3519 49.806 73.3519 54.0616C73.3519 58.3172 69.8934 61.7757 65.6378 61.7757C61.3822 61.7757 57.9237 58.3172 57.9237 54.0616C57.9237 49.806 61.3822 46.3475 65.6378 46.3475ZM65.6378 42.4905C59.248 42.4905 54.0667 47.6718 54.0667 54.0616C54.0667 60.4515 59.248 65.6328 65.6378 65.6328C72.0277 65.6328 77.209 60.4515 77.209 54.0616C77.209 47.6718 72.0277 42.4905 65.6378 42.4905Z" fill="#00BFFF"/>
<path d="M96.4942 63.7042C101.82 63.7042 106.137 59.3871 106.137 54.0616C106.137 48.7361 101.82 44.4189 96.4942 44.4189C91.1687 44.4189 86.8516 48.7361 86.8516 54.0616C86.8516 59.3871 91.1687 63.7042 96.4942 63.7042Z" fill="white"/>
<path d="M96.4943 46.3475C100.75 46.3475 104.208 49.806 104.208 54.0616C104.208 58.3172 100.75 61.7757 96.4943 61.7757C92.2386 61.7757 88.7802 58.3172 88.7802 54.0616C88.7802 49.806 92.2386 46.3475 96.4943 46.3475ZM96.4943 42.4905C90.1044 42.4905 84.9231 47.6718 84.9231 54.0616C84.9231 60.4515 90.1044 65.6328 96.4943 65.6328C102.884 65.6328 108.065 60.4515 108.065 54.0616C108.065 47.6718 102.884 42.4905 96.4943 42.4905Z" fill="#00BFFF"/>
<path d="M127.351 63.7042C132.676 63.7042 136.993 59.3871 136.993 54.0616C136.993 48.7361 132.676 44.4189 127.351 44.4189C122.025 44.4189 117.708 48.7361 117.708 54.0616C117.708 59.3871 122.025 63.7042 127.351 63.7042Z" fill="white"/>
<path d="M127.351 46.3475C131.606 46.3475 135.065 49.806 135.065 54.0616C135.065 58.3172 131.606 61.7757 127.351 61.7757C123.095 61.7757 119.637 58.3172 119.637 54.0616C119.637 49.806 123.095 46.3475 127.351 46.3475ZM127.351 42.4905C120.961 42.4905 115.78 47.6718 115.78 54.0616C115.78 60.4515 120.961 65.6328 127.351 65.6328C133.741 65.6328 138.922 60.4515 138.922 54.0616C138.922 47.6718 133.741 42.4905 127.351 42.4905Z" fill="#00BFFF"/>
</g>
<defs>
<filter id="filter0_d" x="0.924316" y="0.919434" width="1284.69" height="1494.46" filterUnits="userSpaceOnUse" color-interpolation-filters="sRGB">
<feFlood flood-opacity="0" result="BackgroundImageFix"/>
<feColorMatrix in="SourceAlpha" type="matrix" values="0 0 0 0 0 0 0 0 0 0 0 0 0 0 0 0 0 0 127 0"/>
<feOffset dx="10" dy="10"/>
<feGaussianBlur stdDeviation="17"/>
<feColorMatrix type="matrix" values="0 0 0 0 0 0 0 0 0 0.74902 0 0 0 0 1 0 0 0 0.45 0"/>
<feBlend mode="normal" in2="BackgroundImageFix" result="effect1_dropShadow"/>
<feBlend mode="normal" in="SourceGraphic" in2="effect1_dropShadow" result="shape"/>
</filter>
</defs>
</svg>
