<svg width="1747" height="1322" viewBox="0 0 1747 1322" fill="none" xmlns="http://www.w3.org/2000/svg">
<path d="M842.642 257.67C895.865 257.67 939.01 214.516 939.01 161.281C939.01 108.047 895.865 64.892 842.642 64.892C789.42 64.892 746.275 108.047 746.275 161.281C746.275 214.516 789.42 257.67 842.642 257.67Z" stroke="#00BFFF" stroke-width="3" stroke-miterlimit="10" stroke-linecap="round" stroke-linejoin="round"/>
<path d="M842.263 64.7655C824.811 89.3055 796.103 105.244 763.728 105.244" stroke="#00BFFF" stroke-width="3" stroke-miterlimit="10" stroke-linecap="round" stroke-linejoin="round"/>
<path d="M919.661 105.244C887.665 105.244 859.337 89.5585 841.758 65.5245" stroke="#00BFFF" stroke-width="3" stroke-miterlimit="10" stroke-linecap="round" stroke-linejoin="round"/>
<path d="M918.776 164.317C918.776 206.187 884.883 240.088 843.023 240.088C801.162 240.088 767.27 206.187 767.27 164.317" stroke="#00BFFF" stroke-width="3" stroke-miterlimit="10" stroke-linecap="round" stroke-linejoin="round"/>
<path d="M751.967 192.146C749.817 192.526 747.667 192.779 745.391 192.779C727.559 192.779 713.016 178.232 713.016 160.396C713.016 142.56 727.559 128.013 745.391 128.013C747.667 128.013 749.817 128.266 751.967 128.646" stroke="#00BFFF" stroke-width="3" stroke-miterlimit="10" stroke-linecap="round" stroke-linejoin="round"/>
<path d="M933.192 128.646C935.342 128.266 937.492 128.013 939.769 128.013C957.6 128.013 972.144 142.56 972.144 160.396C972.144 178.232 957.6 192.779 939.769 192.779C937.745 192.779 935.722 192.526 933.698 192.273" stroke="#00BFFF" stroke-width="3" stroke-miterlimit="10" stroke-linecap="round" stroke-linejoin="round"/>
<path d="M815.453 155.083C819.294 155.083 822.408 151.968 822.408 148.126C822.408 144.283 819.294 141.169 815.453 141.169C811.611 141.169 808.497 144.283 808.497 148.126C808.497 151.968 811.611 155.083 815.453 155.083Z" fill="#00BFFF"/>
<path d="M867.936 155.083C871.778 155.083 874.892 151.968 874.892 148.126C874.892 144.283 871.778 141.169 867.936 141.169C864.095 141.169 860.98 144.283 860.98 148.126C860.98 151.968 864.095 155.083 867.936 155.083Z" fill="#00BFFF"/>
<path d="M808.497 121.435L832.905 141.169" stroke="#00BFFF" stroke-width="3" stroke-miterlimit="10" stroke-linecap="round" stroke-linejoin="round"/>
<path d="M875.018 121.435L850.483 141.169" stroke="#00BFFF" stroke-width="3" stroke-miterlimit="10" stroke-linecap="round" stroke-linejoin="round"/>
<path d="M830.376 159.51L828.605 185.821H856.301L853.266 159.51" stroke="#00BFFF" stroke-width="3" stroke-miterlimit="10" stroke-linecap="round" stroke-linejoin="round"/>
<path d="M828.605 185.821C837.079 189.237 846.564 189.363 855.163 186.327L856.428 185.821H828.605Z" stroke="#00BFFF" stroke-width="3" stroke-miterlimit="10" stroke-linecap="round" stroke-linejoin="round"/>
<path d="M93.0791 758.717V845.367C93.0791 868.262 111.67 886.857 134.56 886.857C157.45 886.857 176.041 868.262 176.041 845.367V756.82H167.694" stroke="#00BFFF" stroke-width="3" stroke-miterlimit="10" stroke-linecap="round" stroke-linejoin="round"/>
<path d="M177.179 758.717V845.367C177.179 868.262 195.769 886.857 218.66 886.857C241.55 886.857 260.14 868.262 260.14 845.367V756.82H251.794" stroke="#00BFFF" stroke-width="3" stroke-miterlimit="10" stroke-linecap="round" stroke-linejoin="round"/>
<path d="M261.279 758.717V845.367C261.279 868.262 279.87 886.857 302.76 886.857C325.65 886.857 344.241 868.262 344.241 845.367V756.82" stroke="#00BFFF" stroke-width="3" stroke-miterlimit="10" stroke-linecap="round" stroke-linejoin="round"/>
<path d="M808.497 251.346L777.765 341.663H562.015C518.131 341.663 482.468 377.335 482.468 421.229V565.812L131.398 668.4C108.761 674.978 93.0791 695.849 93.0791 719.504V757.958" stroke="#00BFFF" stroke-width="3" stroke-miterlimit="10" stroke-linecap="round" stroke-linejoin="round"/>
<path d="M344.367 772.885C364.475 749.863 382.054 751.634 382.054 751.634C382.054 751.634 406.588 748.092 406.588 772.632V810.96C406.588 826.645 419.235 839.295 434.917 839.295C450.599 839.295 463.245 826.645 463.245 810.96V725.702C463.245 703.313 445.034 685.097 422.65 685.097H368.016" stroke="#00BFFF" stroke-width="3" stroke-miterlimit="10" stroke-linecap="round" stroke-linejoin="round"/>
<path d="M461.222 712.673L579.973 648.161" stroke="#00BFFF" stroke-width="3" stroke-miterlimit="10" stroke-linecap="round" stroke-linejoin="round"/>
<path d="M579.973 473.471V744.044" stroke="#00BFFF" stroke-width="3" stroke-miterlimit="10" stroke-linecap="round" stroke-linejoin="round"/>
<path d="M200.955 648.161H367.131C387.492 648.161 403.933 664.605 403.933 684.971" stroke="#00BFFF" stroke-width="3" stroke-miterlimit="10" stroke-linecap="round" stroke-linejoin="round"/>
<path d="M708.968 341.663V434.764L755.001 445.01L721.741 466.008L841.883 652.588L746.528 341.663" stroke="#00BFFF" stroke-width="3" stroke-miterlimit="10" stroke-linecap="round" stroke-linejoin="round"/>
<path d="M777.766 341.663L814.567 411.742L841.884 376.702L777.766 341.663Z" stroke="#00BFFF" stroke-width="3" stroke-miterlimit="10" stroke-linecap="round" stroke-linejoin="round"/>
<path d="M176.167 815.767C164.659 824.874 150.115 830.44 134.181 830.44C118.625 830.44 104.461 825.254 93.0791 816.399" stroke="#00BFFF" stroke-width="3" stroke-miterlimit="10" stroke-linecap="round" stroke-linejoin="round"/>
<path d="M260.267 815.767C248.758 824.874 234.215 830.44 218.28 830.44C202.725 830.44 188.561 825.254 177.179 816.399" stroke="#00BFFF" stroke-width="3" stroke-miterlimit="10" stroke-linecap="round" stroke-linejoin="round"/>
<path d="M344.367 815.767C332.859 824.874 318.315 830.44 302.381 830.44C286.825 830.44 272.661 825.254 261.279 816.399" stroke="#00BFFF" stroke-width="3" stroke-miterlimit="10" stroke-linecap="round" stroke-linejoin="round"/>
<path d="M461.221 796.16C453.633 802.232 444.022 805.774 433.652 805.774C423.408 805.774 414.049 802.358 406.588 796.54" stroke="#00BFFF" stroke-width="3" stroke-miterlimit="10" stroke-linecap="round" stroke-linejoin="round"/>
<path d="M1589.93 758.844V845.493C1589.93 868.389 1571.34 886.984 1548.45 886.984C1525.56 886.984 1506.97 868.389 1506.97 845.493V756.947H1515.31" stroke="#00BFFF" stroke-width="3" stroke-miterlimit="10" stroke-linecap="round" stroke-linejoin="round"/>
<path d="M1505.83 758.844V845.493C1505.83 868.389 1487.24 886.984 1464.35 886.984C1441.46 886.984 1422.87 868.389 1422.87 845.493V756.947H1431.21" stroke="#00BFFF" stroke-width="3" stroke-miterlimit="10" stroke-linecap="round" stroke-linejoin="round"/>
<path d="M1421.73 758.844V845.493C1421.73 868.389 1403.14 886.984 1380.25 886.984C1357.36 886.984 1338.77 868.389 1338.77 845.493V756.947" stroke="#00BFFF" stroke-width="3" stroke-miterlimit="10" stroke-linecap="round" stroke-linejoin="round"/>
<path d="M874.639 251.599L905.243 341.916H1121.12C1165 341.916 1200.67 377.588 1200.67 421.482V566.065L1551.74 668.653C1574.37 675.231 1590.06 696.102 1590.06 719.757V758.212" stroke="#00BFFF" stroke-width="3" stroke-miterlimit="10" stroke-linecap="round" stroke-linejoin="round"/>
<path d="M1338.64 773.011C1318.53 749.989 1300.95 751.76 1300.95 751.76C1300.95 751.76 1276.42 748.218 1276.42 772.758V811.086C1276.42 826.772 1263.77 839.421 1248.09 839.421C1232.41 839.421 1219.76 826.772 1219.76 811.086V725.829C1219.76 703.439 1237.97 685.224 1260.36 685.224H1314.99" stroke="#00BFFF" stroke-width="3" stroke-miterlimit="10" stroke-linecap="round" stroke-linejoin="round"/>
<path d="M1221.91 712.926L1103.16 648.414" stroke="#00BFFF" stroke-width="3" stroke-miterlimit="10" stroke-linecap="round" stroke-linejoin="round"/>
<path d="M1103.16 473.724V744.171" stroke="#00BFFF" stroke-width="3" stroke-miterlimit="10" stroke-linecap="round" stroke-linejoin="round"/>
<path d="M1482.18 648.414H1316C1295.64 648.414 1279.2 664.858 1279.2 685.224" stroke="#00BFFF" stroke-width="3" stroke-miterlimit="10" stroke-linecap="round" stroke-linejoin="round"/>
<path d="M974.168 341.916V434.89L928.008 445.263L961.268 466.261L841.252 652.841L936.481 341.916" stroke="#00BFFF" stroke-width="3" stroke-miterlimit="10" stroke-linecap="round" stroke-linejoin="round"/>
<path d="M905.244 341.916L868.569 411.995L841.252 376.955L905.244 341.916Z" stroke="#00BFFF" stroke-width="3" stroke-miterlimit="10" stroke-linecap="round" stroke-linejoin="round"/>
<path d="M1506.84 815.893C1518.35 825.001 1532.89 830.567 1548.83 830.567C1564.38 830.567 1578.55 825.38 1589.93 816.526" stroke="#00BFFF" stroke-width="3" stroke-miterlimit="10" stroke-linecap="round" stroke-linejoin="round"/>
<path d="M1422.87 815.893C1434.38 825.001 1448.92 830.567 1464.85 830.567C1480.41 830.567 1494.57 825.38 1505.96 816.526" stroke="#00BFFF" stroke-width="3" stroke-miterlimit="10" stroke-linecap="round" stroke-linejoin="round"/>
<path d="M1338.77 815.893C1350.28 825.001 1364.82 830.567 1380.76 830.567C1396.31 830.567 1410.47 825.38 1421.86 816.526" stroke="#00BFFF" stroke-width="3" stroke-miterlimit="10" stroke-linecap="round" stroke-linejoin="round"/>
<path d="M1221.79 796.413C1229.38 802.485 1238.99 806.027 1249.36 806.027C1259.6 806.027 1268.96 802.611 1276.42 796.793" stroke="#00BFFF" stroke-width="3" stroke-miterlimit="10" stroke-linecap="round" stroke-linejoin="round"/>
<path d="M836.193 445.516L841.252 415.283L824.432 399.218" stroke="#00BFFF" stroke-width="3" stroke-miterlimit="10" stroke-linecap="round" stroke-linejoin="round"/>
<path d="M858.957 399.598L842.137 415.789L847.195 445.895" stroke="#00BFFF" stroke-width="3" stroke-miterlimit="10" stroke-linecap="round" stroke-linejoin="round"/>
<path d="M836.193 445.516L815.705 567.204H816.464L816.337 567.583L842.642 651.703L867.556 567.583L847.195 445.895" stroke="#00BFFF" stroke-width="3" stroke-miterlimit="10" stroke-linecap="round" stroke-linejoin="round"/>
<path d="M113.314 1042.32C122.533 1042.32 130.007 1034.84 130.007 1025.62C130.007 1016.4 122.533 1008.92 113.314 1008.92C104.094 1008.92 96.6201 1016.4 96.6201 1025.62C96.6201 1034.84 104.094 1042.32 113.314 1042.32Z" stroke="#00BFFF" stroke-width="3" stroke-miterlimit="10" stroke-linecap="round" stroke-linejoin="round"/>
<path d="M114.958 1061.67H81.9503C73.6036 1061.67 66.7744 1068.5 66.7744 1076.85V1140.48C66.7744 1146.3 71.5801 1150.98 77.3976 1150.98C83.215 1150.98 87.7678 1146.3 87.7678 1140.48V1129.85" stroke="#00BFFF" stroke-width="3" stroke-miterlimit="10" stroke-linecap="round" stroke-linejoin="round"/>
<path d="M87.8945 1086.09V1248.25C87.8945 1255.08 93.459 1260.65 100.288 1260.65C107.117 1260.65 112.682 1255.08 112.682 1248.25V1156.16" stroke="#00BFFF" stroke-width="3" stroke-miterlimit="10" stroke-linecap="round" stroke-linejoin="round"/>
<path d="M110.658 1061.67H143.666C152.013 1061.67 158.842 1068.5 158.842 1076.85V1140.48C158.842 1146.3 154.036 1150.98 148.219 1150.98C142.401 1150.98 137.848 1146.3 137.848 1140.48V1129.85" stroke="#00BFFF" stroke-width="3" stroke-miterlimit="10" stroke-linecap="round" stroke-linejoin="round"/>
<path d="M137.089 1086.09V1248.25C137.089 1255.08 131.525 1260.65 124.695 1260.65C117.866 1260.65 112.302 1255.08 112.302 1248.25V1156.16" stroke="#00BFFF" stroke-width="3" stroke-miterlimit="10" stroke-linecap="round" stroke-linejoin="round"/>
<path d="M109.141 1042.95L104.082 1061.67" stroke="#00BFFF" stroke-width="3" stroke-miterlimit="10" stroke-linecap="round" stroke-linejoin="round"/>
<path d="M119.764 1042.95L124.949 1061.67" stroke="#00BFFF" stroke-width="3" stroke-miterlimit="10" stroke-linecap="round" stroke-linejoin="round"/>
<path d="M256.853 1042.32C266.072 1042.32 273.546 1034.84 273.546 1025.62C273.546 1016.4 266.072 1008.92 256.853 1008.92C247.633 1008.92 240.159 1016.4 240.159 1025.62C240.159 1034.84 247.633 1042.32 256.853 1042.32Z" stroke="#00BFFF" stroke-width="3" stroke-miterlimit="10" stroke-linecap="round" stroke-linejoin="round"/>
<path d="M258.623 1061.67H225.615C217.269 1061.67 210.439 1068.5 210.439 1076.85V1140.48C210.439 1146.3 215.245 1150.98 221.063 1150.98C226.88 1150.98 231.433 1146.3 231.433 1140.48V1129.85" stroke="#00BFFF" stroke-width="3" stroke-miterlimit="10" stroke-linecap="round" stroke-linejoin="round"/>
<path d="M231.433 1086.09V1248.25C231.433 1255.08 236.997 1260.65 243.826 1260.65C250.655 1260.65 256.22 1255.08 256.22 1248.25V1156.16" stroke="#00BFFF" stroke-width="3" stroke-miterlimit="10" stroke-linecap="round" stroke-linejoin="round"/>
<path d="M254.196 1061.67H287.204C295.551 1061.67 302.38 1068.5 302.38 1076.85V1140.48C302.38 1146.3 297.574 1150.98 291.757 1150.98C285.939 1150.98 281.386 1146.3 281.386 1140.48V1129.85" stroke="#00BFFF" stroke-width="3" stroke-miterlimit="10" stroke-linecap="round" stroke-linejoin="round"/>
<path d="M280.754 1086.09V1248.25C280.754 1255.08 275.19 1260.65 268.36 1260.65C261.531 1260.65 255.967 1255.08 255.967 1248.25V1156.16" stroke="#00BFFF" stroke-width="3" stroke-miterlimit="10" stroke-linecap="round" stroke-linejoin="round"/>
<path d="M252.679 1042.95L247.62 1061.67" stroke="#00BFFF" stroke-width="3" stroke-miterlimit="10" stroke-linecap="round" stroke-linejoin="round"/>
<path d="M263.429 1042.95L268.487 1061.67" stroke="#00BFFF" stroke-width="3" stroke-miterlimit="10" stroke-linecap="round" stroke-linejoin="round"/>
<path d="M323.374 1042.32C332.594 1042.32 340.068 1034.84 340.068 1025.62C340.068 1016.4 332.594 1008.92 323.374 1008.92C314.155 1008.92 306.681 1016.4 306.681 1025.62C306.681 1034.84 314.155 1042.32 323.374 1042.32Z" fill="white" stroke="#00BFFF" stroke-width="3" stroke-miterlimit="10" stroke-linecap="round" stroke-linejoin="round"/>
<path d="M325.144 1061.67H292.137C283.79 1061.67 276.961 1068.5 276.961 1076.85V1140.48C276.961 1146.3 281.767 1150.98 287.584 1150.98C293.401 1150.98 297.954 1146.3 297.954 1140.48V1129.85" fill="white"/>
<path d="M325.144 1061.67H292.137C283.79 1061.67 276.961 1068.5 276.961 1076.85V1140.48C276.961 1146.3 281.767 1150.98 287.584 1150.98C293.401 1150.98 297.954 1146.3 297.954 1140.48V1129.85" stroke="#00BFFF" stroke-width="3" stroke-miterlimit="10" stroke-linecap="round" stroke-linejoin="round"/>
<path d="M297.954 1086.09V1248.25C297.954 1255.08 303.519 1260.65 310.348 1260.65C317.177 1260.65 322.741 1255.08 322.741 1248.25V1156.16" fill="white"/>
<path d="M297.954 1086.09V1248.25C297.954 1255.08 303.519 1260.65 310.348 1260.65C317.177 1260.65 322.741 1255.08 322.741 1248.25V1156.16" stroke="#00BFFF" stroke-width="3" stroke-miterlimit="10" stroke-linecap="round" stroke-linejoin="round"/>
<path d="M320.718 1061.67H353.725C362.072 1061.67 368.901 1068.5 368.901 1076.85V1140.48C368.901 1146.3 364.096 1150.98 358.278 1150.98C352.461 1150.98 347.908 1146.3 347.908 1140.48V1129.85" fill="white"/>
<path d="M320.718 1061.67H353.725C362.072 1061.67 368.901 1068.5 368.901 1076.85V1140.48C368.901 1146.3 364.096 1150.98 358.278 1150.98C352.461 1150.98 347.908 1146.3 347.908 1140.48V1129.85" stroke="#00BFFF" stroke-width="3" stroke-miterlimit="10" stroke-linecap="round" stroke-linejoin="round"/>
<path d="M347.276 1086.09V1248.25C347.276 1255.08 341.711 1260.65 334.882 1260.65C328.053 1260.65 322.488 1255.08 322.488 1248.25V1156.16" fill="white"/>
<path d="M347.276 1086.09V1248.25C347.276 1255.08 341.711 1260.65 334.882 1260.65C328.053 1260.65 322.488 1255.08 322.488 1248.25V1156.16" stroke="#00BFFF" stroke-width="3" stroke-miterlimit="10" stroke-linecap="round" stroke-linejoin="round"/>
<path d="M319.2 1042.95L314.142 1061.67" stroke="#00BFFF" stroke-width="3" stroke-miterlimit="10" stroke-linecap="round" stroke-linejoin="round"/>
<path d="M329.95 1042.95L335.009 1061.67" stroke="#00BFFF" stroke-width="3" stroke-miterlimit="10" stroke-linecap="round" stroke-linejoin="round"/>
<path d="M565.43 1042.32C574.649 1042.32 582.123 1034.84 582.123 1025.62C582.123 1016.4 574.649 1008.92 565.43 1008.92C556.21 1008.92 548.736 1016.4 548.736 1025.62C548.736 1034.84 556.21 1042.32 565.43 1042.32Z" stroke="#00BFFF" stroke-width="3" stroke-miterlimit="10" stroke-linecap="round" stroke-linejoin="round"/>
<path d="M567.2 1061.67H534.193C525.846 1061.67 519.017 1068.5 519.017 1076.85V1140.48C519.017 1146.3 523.822 1150.98 529.64 1150.98C535.457 1150.98 540.01 1146.3 540.01 1140.48V1129.85" stroke="#00BFFF" stroke-width="3" stroke-miterlimit="10" stroke-linecap="round" stroke-linejoin="round"/>
<path d="M540.01 1086.09V1248.25C540.01 1255.08 545.574 1260.65 552.403 1260.65C559.233 1260.65 564.797 1255.08 564.797 1248.25V1156.16" stroke="#00BFFF" stroke-width="3" stroke-miterlimit="10" stroke-linecap="round" stroke-linejoin="round"/>
<path d="M562.773 1061.67H595.781C604.128 1061.67 610.957 1068.5 610.957 1076.85V1140.48C610.957 1146.3 606.151 1150.98 600.334 1150.98C594.516 1150.98 589.964 1146.3 589.964 1140.48V1129.85" stroke="#00BFFF" stroke-width="3" stroke-miterlimit="10" stroke-linecap="round" stroke-linejoin="round"/>
<path d="M589.331 1086.09V1248.25C589.331 1255.08 583.767 1260.65 576.938 1260.65C570.108 1260.65 564.544 1255.08 564.544 1248.25V1156.16" stroke="#00BFFF" stroke-width="3" stroke-miterlimit="10" stroke-linecap="round" stroke-linejoin="round"/>
<path d="M561.256 1042.95L556.197 1061.67" stroke="#00BFFF" stroke-width="3" stroke-miterlimit="10" stroke-linecap="round" stroke-linejoin="round"/>
<path d="M572.006 1042.95L577.065 1061.67" stroke="#00BFFF" stroke-width="3" stroke-miterlimit="10" stroke-linecap="round" stroke-linejoin="round"/>
<path d="M775.236 1042.32C784.456 1042.32 791.93 1034.84 791.93 1025.62C791.93 1016.4 784.456 1008.92 775.236 1008.92C766.017 1008.92 758.543 1016.4 758.543 1025.62C758.543 1034.84 766.017 1042.32 775.236 1042.32Z" stroke="#00BFFF" stroke-width="3" stroke-miterlimit="10" stroke-linecap="round" stroke-linejoin="round"/>
<path d="M776.881 1061.67H743.873C735.526 1061.67 728.697 1068.5 728.697 1076.85V1140.48C728.697 1146.3 733.503 1150.98 739.32 1150.98C745.138 1150.98 749.691 1146.3 749.691 1140.48V1129.85" stroke="#00BFFF" stroke-width="3" stroke-miterlimit="10" stroke-linecap="round" stroke-linejoin="round"/>
<path d="M749.817 1086.09V1248.25C749.817 1255.08 755.382 1260.65 762.211 1260.65C769.04 1260.65 774.605 1255.08 774.605 1248.25V1156.16" stroke="#00BFFF" stroke-width="3" stroke-miterlimit="10" stroke-linecap="round" stroke-linejoin="round"/>
<path d="M772.581 1061.67H805.589C813.935 1061.67 820.765 1068.5 820.765 1076.85V1140.48C820.765 1146.3 815.959 1150.98 810.141 1150.98C804.324 1150.98 799.771 1146.3 799.771 1140.48V1129.85" stroke="#00BFFF" stroke-width="3" stroke-miterlimit="10" stroke-linecap="round" stroke-linejoin="round"/>
<path d="M799.012 1086.09V1248.25C799.012 1255.08 793.447 1260.65 786.618 1260.65C779.789 1260.65 774.225 1255.08 774.225 1248.25V1156.16" stroke="#00BFFF" stroke-width="3" stroke-miterlimit="10" stroke-linecap="round" stroke-linejoin="round"/>
<path d="M771.063 1042.95L765.878 1061.67" stroke="#00BFFF" stroke-width="3" stroke-miterlimit="10" stroke-linecap="round" stroke-linejoin="round"/>
<path d="M781.687 1042.95L786.745 1061.67" stroke="#00BFFF" stroke-width="3" stroke-miterlimit="10" stroke-linecap="round" stroke-linejoin="round"/>
<path d="M1078.12 1042.32C1087.34 1042.32 1094.82 1034.84 1094.82 1025.62C1094.82 1016.4 1087.34 1008.92 1078.12 1008.92C1068.9 1008.92 1061.43 1016.4 1061.43 1025.62C1061.43 1034.84 1068.9 1042.32 1078.12 1042.32Z" stroke="#00BFFF" stroke-width="3" stroke-miterlimit="10" stroke-linecap="round" stroke-linejoin="round"/>
<path d="M1079.89 1061.67H1046.88C1038.54 1061.67 1031.71 1068.5 1031.71 1076.85V1140.48C1031.71 1146.3 1036.51 1150.98 1042.33 1150.98C1048.15 1150.98 1052.7 1146.3 1052.7 1140.48V1129.85" stroke="#00BFFF" stroke-width="3" stroke-miterlimit="10" stroke-linecap="round" stroke-linejoin="round"/>
<path d="M1052.7 1086.09V1248.25C1052.7 1255.08 1058.27 1260.65 1065.1 1260.65C1071.92 1260.65 1077.49 1255.08 1077.49 1248.25V1156.16" stroke="#00BFFF" stroke-width="3" stroke-miterlimit="10" stroke-linecap="round" stroke-linejoin="round"/>
<path d="M1123.65 1140.48C1123.65 1146.3 1118.84 1150.98 1113.03 1150.98C1107.21 1150.98 1102.66 1146.3 1102.66 1140.48V1129.85" stroke="#00BFFF" stroke-width="3" stroke-miterlimit="10" stroke-linecap="round" stroke-linejoin="round"/>
<path d="M1075.47 1061.67H1108.47C1116.82 1061.67 1123.65 1068.5 1123.65 1076.85" stroke="#00BFFF" stroke-width="3" stroke-miterlimit="10" stroke-linecap="round" stroke-linejoin="round"/>
<path d="M1102.02 1086.09V1248.25C1102.02 1255.08 1096.46 1260.65 1089.63 1260.65C1082.8 1260.65 1077.24 1255.08 1077.24 1248.25V1156.16" stroke="#00BFFF" stroke-width="3" stroke-miterlimit="10" stroke-linecap="round" stroke-linejoin="round"/>
<path d="M1073.95 1042.95L1068.89 1061.67" stroke="#00BFFF" stroke-width="3" stroke-miterlimit="10" stroke-linecap="round" stroke-linejoin="round"/>
<path d="M1084.7 1042.95L1089.76 1061.67" stroke="#00BFFF" stroke-width="3" stroke-miterlimit="10" stroke-linecap="round" stroke-linejoin="round"/>
<path d="M1260.23 1042.32C1269.45 1042.32 1276.93 1034.84 1276.93 1025.62C1276.93 1016.4 1269.45 1008.92 1260.23 1008.92C1251.01 1008.92 1243.54 1016.4 1243.54 1025.62C1243.54 1034.84 1251.01 1042.32 1260.23 1042.32Z" stroke="#00BFFF" stroke-width="3" stroke-miterlimit="10" stroke-linecap="round" stroke-linejoin="round"/>
<path d="M1262 1061.67H1229C1220.65 1061.67 1213.82 1068.5 1213.82 1076.85V1140.48C1213.82 1146.3 1218.63 1150.98 1224.44 1150.98C1230.26 1150.98 1234.81 1146.3 1234.81 1140.48V1129.85" stroke="#00BFFF" stroke-width="3" stroke-miterlimit="10" stroke-linecap="round" stroke-linejoin="round"/>
<path d="M1234.81 1086.09V1248.25C1234.81 1255.08 1240.38 1260.65 1247.21 1260.65C1254.04 1260.65 1259.6 1255.08 1259.6 1248.25V1156.16" stroke="#00BFFF" stroke-width="3" stroke-miterlimit="10" stroke-linecap="round" stroke-linejoin="round"/>
<path d="M1257.58 1061.67H1290.58C1298.93 1061.67 1305.76 1068.5 1305.76 1076.85V1140.48C1305.76 1146.3 1300.95 1150.98 1295.14 1150.98C1289.32 1150.98 1284.77 1146.3 1284.77 1140.48V1129.85" stroke="#00BFFF" stroke-width="3" stroke-miterlimit="10" stroke-linecap="round" stroke-linejoin="round"/>
<path d="M1284.14 1086.09V1248.25C1284.14 1255.08 1278.57 1260.65 1271.74 1260.65C1264.91 1260.65 1259.35 1255.08 1259.35 1248.25V1156.16" stroke="#00BFFF" stroke-width="3" stroke-miterlimit="10" stroke-linecap="round" stroke-linejoin="round"/>
<path d="M1256.06 1042.95L1251 1061.67" stroke="#00BFFF" stroke-width="3" stroke-miterlimit="10" stroke-linecap="round" stroke-linejoin="round"/>
<path d="M1266.81 1042.95L1271.87 1061.67" stroke="#00BFFF" stroke-width="3" stroke-miterlimit="10" stroke-linecap="round" stroke-linejoin="round"/>
<path d="M1465.11 1042.32C1474.33 1042.32 1481.8 1034.84 1481.8 1025.62C1481.8 1016.4 1474.33 1008.92 1465.11 1008.92C1455.89 1008.92 1448.42 1016.4 1448.42 1025.62C1448.42 1034.84 1455.89 1042.32 1465.11 1042.32Z" stroke="#00BFFF" stroke-width="3" stroke-miterlimit="10" stroke-linecap="round" stroke-linejoin="round"/>
<path d="M1466.88 1061.67H1433.87C1425.52 1061.67 1418.7 1068.5 1418.7 1076.85V1140.48C1418.7 1146.3 1423.5 1150.98 1429.32 1150.98C1435.14 1150.98 1439.69 1146.3 1439.69 1140.48V1129.85" stroke="#00BFFF" stroke-width="3" stroke-miterlimit="10" stroke-linecap="round" stroke-linejoin="round"/>
<path d="M1439.69 1086.09V1248.25C1439.69 1255.08 1445.25 1260.65 1452.08 1260.65C1458.91 1260.65 1464.48 1255.08 1464.48 1248.25V1156.16" stroke="#00BFFF" stroke-width="3" stroke-miterlimit="10" stroke-linecap="round" stroke-linejoin="round"/>
<path d="M1510.64 1140.48C1510.64 1146.3 1505.83 1150.98 1500.01 1150.98C1494.2 1150.98 1489.64 1146.3 1489.64 1140.48V1129.85" stroke="#00BFFF" stroke-width="3" stroke-miterlimit="10" stroke-linecap="round" stroke-linejoin="round"/>
<path d="M1462.45 1061.67H1495.46C1503.81 1061.67 1510.64 1068.5 1510.64 1076.85" stroke="#00BFFF" stroke-width="3" stroke-miterlimit="10" stroke-linecap="round" stroke-linejoin="round"/>
<path d="M1489.01 1086.09V1248.25C1489.01 1255.08 1483.45 1260.65 1476.62 1260.65C1469.79 1260.65 1464.22 1255.08 1464.22 1248.25V1156.16" stroke="#00BFFF" stroke-width="3" stroke-miterlimit="10" stroke-linecap="round" stroke-linejoin="round"/>
<path d="M1460.93 1042.95L1455.88 1061.67" stroke="#00BFFF" stroke-width="3" stroke-miterlimit="10" stroke-linecap="round" stroke-linejoin="round"/>
<path d="M1471.68 1042.95L1476.74 1061.67" stroke="#00BFFF" stroke-width="3" stroke-miterlimit="10" stroke-linecap="round" stroke-linejoin="round"/>
<path d="M1517.59 1042.32C1526.81 1042.32 1534.29 1034.84 1534.29 1025.62C1534.29 1016.4 1526.81 1008.92 1517.59 1008.92C1508.37 1008.92 1500.9 1016.4 1500.9 1025.62C1500.9 1034.84 1508.37 1042.32 1517.59 1042.32Z" fill="white" stroke="#00BFFF" stroke-width="3" stroke-miterlimit="10" stroke-linecap="round" stroke-linejoin="round"/>
<path d="M1519.36 1061.67H1486.35C1478.01 1061.67 1471.18 1068.5 1471.18 1076.85V1140.48C1471.18 1146.3 1475.98 1150.98 1481.8 1150.98C1487.62 1150.98 1492.17 1146.3 1492.17 1140.48V1129.85" fill="white"/>
<path d="M1519.36 1061.67H1486.35C1478.01 1061.67 1471.18 1068.5 1471.18 1076.85V1140.48C1471.18 1146.3 1475.98 1150.98 1481.8 1150.98C1487.62 1150.98 1492.17 1146.3 1492.17 1140.48V1129.85" stroke="#00BFFF" stroke-width="3" stroke-miterlimit="10" stroke-linecap="round" stroke-linejoin="round"/>
<path d="M1492.3 1086.09V1248.25C1492.3 1255.08 1497.86 1260.65 1504.69 1260.65C1511.52 1260.65 1517.09 1255.08 1517.09 1248.25V1156.16" fill="white"/>
<path d="M1492.3 1086.09V1248.25C1492.3 1255.08 1497.86 1260.65 1504.69 1260.65C1511.52 1260.65 1517.09 1255.08 1517.09 1248.25V1156.16" stroke="#00BFFF" stroke-width="3" stroke-miterlimit="10" stroke-linecap="round" stroke-linejoin="round"/>
<path d="M1515.06 1061.67H1548.07C1556.42 1061.67 1563.25 1068.5 1563.25 1076.85V1140.48C1563.25 1146.3 1558.44 1150.98 1552.62 1150.98C1546.81 1150.98 1542.25 1146.3 1542.25 1140.48V1129.85" fill="white"/>
<path d="M1515.06 1061.67H1548.07C1556.42 1061.67 1563.25 1068.5 1563.25 1076.85V1140.48C1563.25 1146.3 1558.44 1150.98 1552.62 1150.98C1546.81 1150.98 1542.25 1146.3 1542.25 1140.48V1129.85" stroke="#00BFFF" stroke-width="3" stroke-miterlimit="10" stroke-linecap="round" stroke-linejoin="round"/>
<path d="M1541.49 1086.09V1248.25C1541.49 1255.08 1535.93 1260.65 1529.1 1260.65C1522.27 1260.65 1516.71 1255.08 1516.71 1248.25V1156.16" fill="white"/>
<path d="M1541.49 1086.09V1248.25C1541.49 1255.08 1535.93 1260.65 1529.1 1260.65C1522.27 1260.65 1516.71 1255.08 1516.71 1248.25V1156.16" stroke="#00BFFF" stroke-width="3" stroke-miterlimit="10" stroke-linecap="round" stroke-linejoin="round"/>
<path d="M1513.54 1042.95L1508.36 1061.67" stroke="#00BFFF" stroke-width="3" stroke-miterlimit="10" stroke-linecap="round" stroke-linejoin="round"/>
<path d="M1524.17 1042.95L1529.23 1061.67" stroke="#00BFFF" stroke-width="3" stroke-miterlimit="10" stroke-linecap="round" stroke-linejoin="round"/>
<path d="M1628 1042.32C1637.22 1042.32 1644.69 1034.84 1644.69 1025.62C1644.69 1016.4 1637.22 1008.92 1628 1008.92C1618.78 1008.92 1611.3 1016.4 1611.3 1025.62C1611.3 1034.84 1618.78 1042.32 1628 1042.32Z" stroke="#00BFFF" stroke-width="3" stroke-miterlimit="10" stroke-linecap="round" stroke-linejoin="round"/>
<path d="M1629.77 1061.67H1596.76C1588.41 1061.67 1581.58 1068.5 1581.58 1076.85V1140.48C1581.58 1146.3 1586.39 1150.98 1592.21 1150.98C1598.02 1150.98 1602.58 1146.3 1602.58 1140.48V1129.85" stroke="#00BFFF" stroke-width="3" stroke-miterlimit="10" stroke-linecap="round" stroke-linejoin="round"/>
<path d="M1602.58 1086.09V1248.25C1602.58 1255.08 1608.14 1260.65 1614.97 1260.65C1621.8 1260.65 1627.36 1255.08 1627.36 1248.25V1156.16" stroke="#00BFFF" stroke-width="3" stroke-miterlimit="10" stroke-linecap="round" stroke-linejoin="round"/>
<path d="M1625.34 1061.67H1658.35C1666.69 1061.67 1673.52 1068.5 1673.52 1076.85V1140.48C1673.52 1146.3 1668.72 1150.98 1662.9 1150.98C1657.08 1150.98 1652.53 1146.3 1652.53 1140.48V1129.85" stroke="#00BFFF" stroke-width="3" stroke-miterlimit="10" stroke-linecap="round" stroke-linejoin="round"/>
<path d="M1651.77 1086.09V1248.25C1651.77 1255.08 1646.21 1260.65 1639.38 1260.65C1632.55 1260.65 1626.98 1255.08 1626.98 1248.25V1156.16" stroke="#00BFFF" stroke-width="3" stroke-miterlimit="10" stroke-linecap="round" stroke-linejoin="round"/>
<path d="M1623.82 1042.95L1618.76 1061.67" stroke="#00BFFF" stroke-width="3" stroke-miterlimit="10" stroke-linecap="round" stroke-linejoin="round"/>
<path d="M1634.45 1042.95L1639.63 1061.67" stroke="#00BFFF" stroke-width="3" stroke-miterlimit="10" stroke-linecap="round" stroke-linejoin="round"/>
<path d="M1517.59 1009.05L1548.83 830.567L1628 1009.05" stroke="#00BFFF" stroke-width="3" stroke-miterlimit="10" stroke-linecap="round" stroke-linejoin="round"/>
<path d="M1465.11 1009.05L1464.73 830.567" stroke="#00BFFF" stroke-width="3" stroke-miterlimit="10" stroke-linecap="round" stroke-linejoin="round"/>
<path d="M1132.38 1009.05L1380.75 830.567L1260.23 1009.05" stroke="#00BFFF" stroke-width="3" stroke-miterlimit="10" stroke-linecap="round" stroke-linejoin="round"/>
<path d="M1015.14 1009.05L1249.48 806.027L1078.12 1009.05" stroke="#00BFFF" stroke-width="3" stroke-miterlimit="10" stroke-linecap="round" stroke-linejoin="round"/>
<path d="M565.43 1009.18L433.652 805.774L775.237 1009.05" stroke="#00BFFF" stroke-width="3" stroke-miterlimit="10" stroke-linecap="round" stroke-linejoin="round"/>
<path d="M496.758 1009.05L302.38 830.314" stroke="#00BFFF" stroke-width="3" stroke-miterlimit="10" stroke-linecap="round" stroke-linejoin="round"/>
<path d="M256.852 1009.05L218.28 830.314L323.373 1009.05" stroke="#00BFFF" stroke-width="3" stroke-miterlimit="10" stroke-linecap="round" stroke-linejoin="round"/>
<path d="M113.313 1009.05L134.307 830.314" stroke="#00BFFF" stroke-width="3" stroke-miterlimit="10" stroke-linecap="round" stroke-linejoin="round"/>
<path d="M496.759 1042.32C505.978 1042.32 513.452 1034.84 513.452 1025.62C513.452 1016.4 505.978 1008.92 496.759 1008.92C487.539 1008.92 480.065 1016.4 480.065 1025.62C480.065 1034.84 487.539 1042.32 496.759 1042.32Z" stroke="#00BFFF" stroke-width="3" stroke-miterlimit="10" stroke-linecap="round" stroke-linejoin="round"/>
<path d="M498.529 1061.67H465.522C457.175 1061.67 450.346 1068.5 450.346 1076.85V1140.48C450.346 1146.3 455.151 1150.98 460.969 1150.98C466.786 1150.98 471.339 1146.3 471.339 1140.48V1129.85" stroke="#00BFFF" stroke-width="3" stroke-miterlimit="10" stroke-linecap="round" stroke-linejoin="round"/>
<path d="M471.339 1086.09V1248.25C471.339 1255.08 476.903 1260.65 483.733 1260.65C490.562 1260.65 496.126 1255.08 496.126 1248.25V1156.16" stroke="#00BFFF" stroke-width="3" stroke-miterlimit="10" stroke-linecap="round" stroke-linejoin="round"/>
<path d="M494.103 1061.67H527.11C535.457 1061.67 542.286 1068.5 542.286 1076.85V1140.48C542.286 1146.3 537.48 1150.98 531.663 1150.98C525.845 1150.98 521.293 1146.3 521.293 1140.48V1129.85" fill="white"/>
<path d="M494.103 1061.67H527.11C535.457 1061.67 542.286 1068.5 542.286 1076.85V1140.48C542.286 1146.3 537.48 1150.98 531.663 1150.98C525.845 1150.98 521.293 1146.3 521.293 1140.48V1129.85" stroke="#00BFFF" stroke-width="3" stroke-miterlimit="10" stroke-linecap="round" stroke-linejoin="round"/>
<path d="M520.66 1086.09V1248.25C520.66 1255.08 515.096 1260.65 508.267 1260.65C501.438 1260.65 495.873 1255.08 495.873 1248.25V1156.16" fill="white"/>
<path d="M520.66 1086.09V1248.25C520.66 1255.08 515.096 1260.65 508.267 1260.65C501.438 1260.65 495.873 1255.08 495.873 1248.25V1156.16" stroke="#00BFFF" stroke-width="3" stroke-miterlimit="10" stroke-linecap="round" stroke-linejoin="round"/>
<path d="M492.585 1042.95L487.526 1061.67" stroke="#00BFFF" stroke-width="3" stroke-miterlimit="10" stroke-linecap="round" stroke-linejoin="round"/>
<path d="M503.208 1042.95L508.393 1061.67" stroke="#00BFFF" stroke-width="3" stroke-miterlimit="10" stroke-linecap="round" stroke-linejoin="round"/>
<path d="M1013.88 1042.32C1023.1 1042.32 1030.57 1034.84 1030.57 1025.62C1030.57 1016.4 1023.1 1008.92 1013.88 1008.92C1004.66 1008.92 997.184 1016.4 997.184 1025.62C997.184 1034.84 1004.66 1042.32 1013.88 1042.32Z" fill="white" stroke="#00BFFF" stroke-width="3" stroke-miterlimit="10" stroke-linecap="round" stroke-linejoin="round"/>
<path d="M1015.52 1061.67H982.514C974.167 1061.67 967.338 1068.5 967.338 1076.85V1140.48C967.338 1146.3 972.144 1150.98 977.961 1150.98C983.778 1150.98 988.331 1146.3 988.331 1140.48V1129.85" fill="white"/>
<path d="M1015.52 1061.67H982.514C974.167 1061.67 967.338 1068.5 967.338 1076.85V1140.48C967.338 1146.3 972.144 1150.98 977.961 1150.98C983.778 1150.98 988.331 1146.3 988.331 1140.48V1129.85" stroke="#00BFFF" stroke-width="3" stroke-miterlimit="10" stroke-linecap="round" stroke-linejoin="round"/>
<path d="M988.458 1086.09V1248.25C988.458 1255.08 994.023 1260.65 1000.85 1260.65C1007.68 1260.65 1013.25 1255.08 1013.25 1248.25V1156.16" fill="white"/>
<path d="M988.458 1086.09V1248.25C988.458 1255.08 994.023 1260.65 1000.85 1260.65C1007.68 1260.65 1013.25 1255.08 1013.25 1248.25V1156.16" stroke="#00BFFF" stroke-width="3" stroke-miterlimit="10" stroke-linecap="round" stroke-linejoin="round"/>
<path d="M1011.22 1061.67H1044.23C1052.58 1061.67 1059.41 1068.5 1059.41 1076.85V1140.48C1059.41 1146.3 1054.6 1150.98 1048.78 1150.98C1042.96 1150.98 1038.41 1146.3 1038.41 1140.48V1129.85" fill="white"/>
<path d="M1011.22 1061.67H1044.23C1052.58 1061.67 1059.41 1068.5 1059.41 1076.85V1140.48C1059.41 1146.3 1054.6 1150.98 1048.78 1150.98C1042.96 1150.98 1038.41 1146.3 1038.41 1140.48V1129.85" stroke="#00BFFF" stroke-width="3" stroke-miterlimit="10" stroke-linecap="round" stroke-linejoin="round"/>
<path d="M1037.65 1086.09V1248.25C1037.65 1255.08 1032.09 1260.65 1025.26 1260.65C1018.43 1260.65 1012.87 1255.08 1012.87 1248.25V1156.16" fill="white"/>
<path d="M1037.65 1086.09V1248.25C1037.65 1255.08 1032.09 1260.65 1025.26 1260.65C1018.43 1260.65 1012.87 1255.08 1012.87 1248.25V1156.16" stroke="#00BFFF" stroke-width="3" stroke-miterlimit="10" stroke-linecap="round" stroke-linejoin="round"/>
<path d="M1009.7 1042.95L1004.52 1061.67" stroke="#00BFFF" stroke-width="3" stroke-miterlimit="10" stroke-linecap="round" stroke-linejoin="round"/>
<path d="M1020.33 1042.95L1025.39 1061.67" stroke="#00BFFF" stroke-width="3" stroke-miterlimit="10" stroke-linecap="round" stroke-linejoin="round"/>
<path d="M1132.38 1042.32C1141.6 1042.32 1149.07 1034.84 1149.07 1025.62C1149.07 1016.4 1141.6 1008.92 1132.38 1008.92C1123.16 1008.92 1115.68 1016.4 1115.68 1025.62C1115.68 1034.84 1123.16 1042.32 1132.38 1042.32Z" fill="white" stroke="#00BFFF" stroke-width="3" stroke-miterlimit="10" stroke-linecap="round" stroke-linejoin="round"/>
<path d="M1134.15 1061.67H1101.14C1092.79 1061.67 1085.96 1068.5 1085.96 1076.85V1140.48C1085.96 1146.3 1090.77 1150.98 1096.59 1150.98C1102.4 1150.98 1106.96 1146.3 1106.96 1140.48V1129.85" fill="white"/>
<path d="M1134.15 1061.67H1101.14C1092.79 1061.67 1085.96 1068.5 1085.96 1076.85V1140.48C1085.96 1146.3 1090.77 1150.98 1096.59 1150.98C1102.4 1150.98 1106.96 1146.3 1106.96 1140.48V1129.85" stroke="#00BFFF" stroke-width="3" stroke-miterlimit="10" stroke-linecap="round" stroke-linejoin="round"/>
<path d="M1106.96 1086.09V1248.25C1106.96 1255.08 1112.52 1260.65 1119.35 1260.65C1126.18 1260.65 1131.74 1255.08 1131.74 1248.25V1156.16" fill="white"/>
<path d="M1106.96 1086.09V1248.25C1106.96 1255.08 1112.52 1260.65 1119.35 1260.65C1126.18 1260.65 1131.74 1255.08 1131.74 1248.25V1156.16" stroke="#00BFFF" stroke-width="3" stroke-miterlimit="10" stroke-linecap="round" stroke-linejoin="round"/>
<path d="M1129.72 1061.67H1162.73C1171.07 1061.67 1177.9 1068.5 1177.9 1076.85V1140.48C1177.9 1146.3 1173.1 1150.98 1167.28 1150.98C1161.46 1150.98 1156.91 1146.3 1156.91 1140.48V1129.85" fill="white"/>
<path d="M1129.72 1061.67H1162.73C1171.07 1061.67 1177.9 1068.5 1177.9 1076.85V1140.48C1177.9 1146.3 1173.1 1150.98 1167.28 1150.98C1161.46 1150.98 1156.91 1146.3 1156.91 1140.48V1129.85" stroke="#00BFFF" stroke-width="3" stroke-miterlimit="10" stroke-linecap="round" stroke-linejoin="round"/>
<path d="M1156.28 1086.09V1248.25C1156.28 1255.08 1150.71 1260.65 1143.88 1260.65C1137.05 1260.65 1131.49 1255.08 1131.49 1248.25V1156.16" fill="white"/>
<path d="M1156.28 1086.09V1248.25C1156.28 1255.08 1150.71 1260.65 1143.88 1260.65C1137.05 1260.65 1131.49 1255.08 1131.49 1248.25V1156.16" stroke="#00BFFF" stroke-width="3" stroke-miterlimit="10" stroke-linecap="round" stroke-linejoin="round"/>
<path d="M1128.33 1042.95L1123.14 1061.67" stroke="#00BFFF" stroke-width="3" stroke-miterlimit="10" stroke-linecap="round" stroke-linejoin="round"/>
<path d="M1138.95 1042.95L1144.01 1061.67" stroke="#00BFFF" stroke-width="3" stroke-miterlimit="10" stroke-linecap="round" stroke-linejoin="round"/>
<path d="M1012.87 949.852H675.834C652.185 949.852 632.962 930.624 632.962 906.97V750.875C632.962 727.22 652.185 707.993 675.834 707.993H1012.87C1036.51 707.993 1055.74 727.22 1055.74 750.875V906.97C1055.74 930.624 1036.51 949.852 1012.87 949.852Z" fill="#D7F7FF" stroke="#00BFFF" stroke-width="3" stroke-miterlimit="10" stroke-linecap="round" stroke-linejoin="round"/>
<path d="M672.293 754.67C672.293 753.911 672.293 753.152 672.293 752.393V737.213H675.075V758.717H671.787L665.085 743.285C664.579 742.147 664.073 740.755 664.073 740.755H663.946C663.946 741.388 663.946 742.02 663.946 742.653V758.844H661.164V737.34H664.832L671.155 751.887C671.787 753.278 672.167 754.164 672.293 754.67Z" fill="#00BFFF"/>
<path d="M677.984 751.128C677.984 746.321 680.767 743.159 685.067 743.159C689.366 743.159 692.149 746.321 692.149 751.128C692.149 755.935 689.366 759.097 685.067 759.097C680.767 759.097 677.984 755.935 677.984 751.128ZM689.366 751.128C689.366 747.586 687.722 745.435 685.067 745.435C682.284 745.435 680.767 747.586 680.767 751.128C680.767 754.67 682.411 756.82 685.067 756.82C687.849 756.82 689.366 754.796 689.366 751.128Z" fill="#00BFFF"/>
<path d="M696.195 743.665L697.713 754.037L697.966 756.188H698.219C698.345 755.555 698.472 755.049 698.725 753.658L700.748 743.665H703.404L705.427 753.658C705.68 755.049 705.807 755.555 705.933 756.188H706.186L706.439 754.037L707.957 743.665H710.612L707.704 758.844H704.416L702.392 749.104C702.266 748.471 702.139 747.206 702.139 746.574H701.886C701.886 747.206 701.76 748.471 701.633 749.104L699.61 758.844H696.322L693.413 743.665H696.195Z" fill="#00BFFF"/>
<path d="M729.203 743.665H733.503V739.743L736.032 738.605V743.665H741.976V745.688H736.032V753.531C736.032 755.555 737.044 756.567 738.941 756.567C739.953 756.567 740.964 756.441 741.976 756.314V758.717C741.217 758.844 740.332 759.097 739.068 759.097C735.274 759.097 733.503 756.947 733.503 754.037V745.815H729.203V743.665Z" fill="#00BFFF"/>
<path d="M753.863 743.285C755.128 743.285 756.519 743.665 757.531 744.677C758.543 745.562 759.048 747.08 759.048 749.483V758.844H756.519V749.61C756.519 746.321 754.875 745.562 753.231 745.562C749.943 745.562 749.058 748.724 749.058 750.875V758.717H746.528V736.834H749.058V746.447C749.816 744.55 751.713 743.285 753.863 743.285Z" fill="#00BFFF"/>
<path d="M775.995 758.718H773.339C773.212 757.832 773.086 756.82 773.086 755.935C772.074 758.085 770.43 759.097 768.027 759.097C764.992 759.097 762.969 757.2 762.969 754.67C762.969 753.152 763.728 751.887 765.119 751.128C766.13 750.622 767.774 750.242 770.304 749.863L773.086 749.483V749.23C773.086 746.574 772.074 745.309 769.798 745.309C767.648 745.309 766.383 746.448 766.257 748.345H763.475C763.728 745.056 766.13 743.285 769.924 743.285C773.845 743.285 775.615 745.183 775.615 749.61V753.658C775.489 756.061 775.615 757.579 775.995 758.718ZM769.292 751.887C766.636 752.266 765.625 753.025 765.625 754.543C765.625 756.061 766.636 757.073 768.407 757.073C771.189 757.073 772.833 755.176 772.833 752.266V751.381L769.292 751.887Z" fill="#00BFFF"/>
<path d="M779.916 743.665H784.216V739.743L786.745 738.605V743.665H792.689V745.688H786.745V753.531C786.745 755.555 787.757 756.567 789.654 756.567C790.666 756.567 791.677 756.441 792.689 756.314V758.717C791.93 758.844 791.045 759.097 789.78 759.097C785.986 759.097 784.216 756.947 784.216 754.037V745.815H779.916V743.665Z" fill="#00BFFF"/>
<path d="M820.764 755.682L824.938 743.538H827.72L821.65 759.603C820.258 763.398 818.488 764.663 815.959 764.663C815.453 764.663 815.073 764.663 814.567 764.536V762.259C814.947 762.259 815.326 762.259 815.706 762.259C817.603 762.259 818.488 761.5 819.12 759.476L819.5 758.338L813.556 743.411H816.464L820.764 755.682Z" fill="#00BFFF"/>
<path d="M830.375 751.128C830.375 746.321 833.157 743.159 837.457 743.159C841.757 743.159 844.539 746.321 844.539 751.128C844.539 755.935 841.757 759.097 837.457 759.097C833.157 759.097 830.375 755.935 830.375 751.128ZM841.757 751.128C841.757 747.586 840.113 745.435 837.457 745.435C834.675 745.435 833.157 747.586 833.157 751.128C833.157 754.67 834.801 756.82 837.457 756.82C840.113 756.82 841.757 754.796 841.757 751.128Z" fill="#00BFFF"/>
<path d="M853.266 759.097C851.875 759.097 850.483 758.718 849.345 757.706C848.333 756.82 847.954 755.302 847.954 752.899V743.538H850.61V752.772C850.61 756.061 852.127 756.82 853.772 756.82C856.933 756.82 857.692 753.658 857.692 751.381V743.538H860.221V758.718H857.818V755.808C857.313 757.326 855.542 759.097 853.266 759.097Z" fill="#00BFFF"/>
<path d="M887.791 751.381L885.009 754.164V758.844H882.479V736.96H885.009V751.254L891.838 743.791H895.253L889.688 749.61L895.632 758.844H892.47L887.791 751.381Z" fill="#00BFFF"/>
<path d="M906.381 743.285C907.646 743.285 909.037 743.665 910.048 744.55C911.06 745.436 911.44 746.954 911.44 749.357V758.718H908.91V749.483C908.91 746.195 907.266 745.436 905.749 745.436C902.334 745.436 901.575 748.598 901.575 750.748V758.591H899.046V743.412H901.449V746.448C902.081 744.677 903.852 743.285 906.381 743.285Z" fill="#00BFFF"/>
<path d="M915.107 751.128C915.107 746.321 917.89 743.159 922.19 743.159C926.489 743.159 929.272 746.321 929.272 751.128C929.272 755.935 926.489 759.097 922.19 759.097C917.89 759.097 915.107 755.935 915.107 751.128ZM926.489 751.128C926.489 747.586 924.845 745.435 922.19 745.435C919.407 745.435 917.89 747.586 917.89 751.128C917.89 754.67 919.534 756.82 922.19 756.82C924.845 756.82 926.489 754.796 926.489 751.128Z" fill="#00BFFF"/>
<path d="M933.192 743.665L934.71 754.037L934.963 756.188H935.216C935.342 755.555 935.469 755.049 935.722 753.658L937.745 743.665H940.401L942.424 753.658C942.677 755.049 942.804 755.555 942.93 756.188H943.183L943.436 754.037L944.954 743.665H947.609L944.701 758.844H941.413L939.389 749.104C939.263 748.471 939.136 747.206 939.136 746.574H938.883C938.883 747.206 938.757 748.471 938.63 749.104L936.607 758.844H933.319L930.41 743.665H933.192Z" fill="#00BFFF"/>
<path d="M965.82 751.128C965.82 746.321 968.603 743.159 972.902 743.159C977.202 743.159 979.984 746.321 979.984 751.128C979.984 755.935 977.202 759.097 972.902 759.097C968.603 759.097 965.82 755.935 965.82 751.128ZM977.202 751.128C977.202 747.586 975.558 745.435 972.902 745.435C970.12 745.435 968.603 747.586 968.603 751.128C968.603 754.67 970.247 756.82 972.902 756.82C975.685 756.82 977.202 754.796 977.202 751.128Z" fill="#00BFFF"/>
<path d="M996.172 745.689H990.481V758.717H987.952V745.689H983.272V743.665H987.952V742.02C987.952 738.605 989.849 736.834 993.643 736.834C994.528 736.834 995.287 736.96 996.298 737.087V739.364C995.666 739.237 994.781 739.111 993.643 739.111C991.366 739.111 990.481 739.87 990.481 742.147V743.665H996.172V745.689Z" fill="#00BFFF"/>
<path d="M661.417 784.143H665.717V780.222L668.246 779.083V784.143H674.19V786.167H668.246V794.01C668.246 796.034 669.258 797.046 671.155 797.046C672.167 797.046 673.178 796.919 674.19 796.793V799.196C673.431 799.322 672.546 799.575 671.281 799.575C667.487 799.575 665.717 797.425 665.717 794.516V786.293H661.417V784.143Z" fill="#00BFFF"/>
<path d="M686.078 783.763C687.343 783.763 688.734 784.143 689.746 785.155C690.757 786.04 691.263 787.558 691.263 789.962V799.323H688.734V790.088C688.734 786.799 687.09 786.04 685.446 786.04C682.158 786.04 681.272 789.203 681.272 791.353V799.196H678.743V777.312H681.272V786.926C682.031 785.028 683.928 783.763 686.078 783.763Z" fill="#00BFFF"/>
<path d="M708.336 792.365H697.712C697.712 795.148 699.357 797.298 702.139 797.298C704.162 797.298 705.427 796.034 706.186 794.642L708.336 795.781C707.071 798.31 705.048 799.575 702.139 799.575C697.333 799.575 695.057 796.286 695.057 791.353C695.057 786.673 697.712 783.763 702.012 783.763C706.692 783.763 708.462 787.052 708.462 791.227C708.336 791.48 708.336 791.859 708.336 792.365ZM701.759 785.661C698.977 785.661 697.586 787.938 697.586 790.088H705.553C705.806 787.811 704.542 785.661 701.759 785.661Z" fill="#00BFFF"/>
<path d="M728.823 791.606C728.823 786.799 731.606 783.637 735.905 783.637C740.205 783.637 742.987 786.799 742.987 791.606C742.987 796.413 740.205 799.575 735.905 799.575C731.606 799.575 728.823 796.413 728.823 791.606ZM740.205 791.606C740.205 788.064 738.561 785.914 735.905 785.914C733.123 785.914 731.606 788.064 731.606 791.606C731.606 795.148 733.25 797.298 735.905 797.298C738.561 797.298 740.205 795.274 740.205 791.606Z" fill="#00BFFF"/>
<path d="M756.899 783.763C758.037 783.763 758.922 783.89 759.681 784.016V786.42C759.048 786.293 757.91 786.167 756.899 786.167C753.231 786.167 750.322 788.697 750.322 793.63V799.196H747.793V784.016H750.322V787.938C751.208 785.661 753.737 783.763 756.899 783.763Z" fill="#00BFFF"/>
<path d="M764.107 797.045H768.913V786.167H764.486V784.016H771.442V797.045H776.501V799.196H763.98V797.045H764.107ZM771.821 781.107H768.154V777.439H771.821V781.107Z" fill="#00BFFF"/>
<path d="M790.919 785.281C791.804 786.167 792.31 787.305 792.31 788.823C792.31 791.859 790.033 794.01 786.619 794.01C785.607 794.01 784.595 793.757 783.836 793.377C783.204 793.63 782.825 794.136 782.825 794.895C782.825 795.78 783.584 796.413 785.354 796.413H789.274C792.436 796.413 794.207 797.931 794.207 800.587C794.207 803.75 791.424 805.521 786.745 805.521C782.445 805.521 779.916 804.003 779.916 801.726C779.916 800.081 780.928 798.943 782.572 798.31C781.307 797.804 780.675 796.919 780.675 795.654C780.675 794.263 781.434 793.251 782.825 792.745C781.813 791.859 781.307 790.594 781.307 789.076C781.307 786.04 783.584 783.89 786.872 783.89C788.01 783.89 788.895 784.143 789.78 784.522C790.286 782.751 791.551 781.74 793.448 781.74C793.827 781.74 794.08 781.739 794.46 781.866V784.143C793.954 784.143 793.701 784.016 793.321 784.016C791.93 783.89 791.298 784.269 790.919 785.281ZM785.101 798.69C784.595 798.69 784.216 798.69 783.836 798.69C782.825 799.196 782.192 799.955 782.192 800.967C782.192 802.611 783.71 803.37 786.745 803.37C790.033 803.37 791.424 802.485 791.424 800.84C791.424 799.449 790.413 798.69 788.516 798.69H785.101ZM789.78 788.823C789.78 787.052 788.516 785.661 786.619 785.661C784.722 785.661 783.457 787.052 783.457 788.823C783.457 790.721 784.722 791.986 786.492 791.986C788.389 791.986 789.78 790.594 789.78 788.823Z" fill="#00BFFF"/>
<path d="M798 797.045H802.806V786.167H798.379V784.016H805.335V797.045H810.394V799.196H798V797.045ZM805.714 781.107H802.047V777.439H805.714V781.107Z" fill="#00BFFF"/>
<path d="M821.649 783.763C822.914 783.763 824.305 784.143 825.317 785.028C826.329 785.914 826.708 787.432 826.708 789.835V799.196H824.179V789.962C824.179 786.673 822.535 785.914 821.017 785.914C817.603 785.914 816.844 789.076 816.844 791.227V799.069H814.314V783.89H816.717V786.926C817.476 785.155 819.12 783.763 821.649 783.763Z" fill="#00BFFF"/>
<path d="M831.261 794.516L833.917 794.01C834.296 796.16 835.687 797.425 837.963 797.425C839.987 797.425 841.125 796.539 841.125 795.148C841.125 793.63 840.366 792.998 838.722 792.745L836.319 792.492C833.284 792.112 831.893 790.468 831.893 788.191C831.893 785.408 834.043 783.763 837.584 783.763C840.999 783.763 843.401 785.534 843.654 788.317L841.125 788.95C840.746 787.179 839.608 785.914 837.458 785.914C835.434 785.914 834.296 786.673 834.296 788.191C834.296 789.456 835.181 790.215 837.078 790.468L839.481 790.721C842.516 791.1 843.654 792.618 843.654 795.022C843.654 797.931 841.505 799.702 837.837 799.702C834.169 799.575 831.767 797.804 831.261 794.516Z" fill="#00BFFF"/>
<path d="M864.269 791.606C864.269 786.799 867.051 783.637 871.351 783.637C875.65 783.637 878.433 786.799 878.433 791.606C878.433 796.413 875.65 799.575 871.351 799.575C867.051 799.575 864.269 796.413 864.269 791.606ZM875.65 791.606C875.65 788.064 874.006 785.914 871.351 785.914C868.568 785.914 867.051 788.064 867.051 791.606C867.051 795.148 868.695 797.298 871.351 797.298C874.006 797.298 875.65 795.274 875.65 791.606Z" fill="#00BFFF"/>
<path d="M894.62 786.167H888.929V799.196H886.4V786.167H881.721V784.143H886.4V782.499C886.4 779.083 888.297 777.312 892.091 777.312C892.976 777.312 893.735 777.439 894.747 777.565V779.842C894.114 779.716 893.229 779.589 892.091 779.589C889.815 779.589 888.929 780.348 888.929 782.625V784.143H894.62V786.167Z" fill="#00BFFF"/>
<path d="M915.36 784.143H919.66V780.222L922.19 779.083V784.143H928.133V786.167H922.19V794.01C922.19 796.034 923.201 797.046 925.098 797.046C926.11 797.046 927.122 796.919 928.133 796.793V799.196C927.375 799.322 926.489 799.575 925.225 799.575C921.431 799.575 919.66 797.425 919.66 794.516V786.293H915.36V784.143Z" fill="#00BFFF"/>
<path d="M940.148 783.763C941.412 783.763 942.803 784.143 943.815 785.155C944.827 786.04 945.333 787.558 945.333 789.962V799.323H942.803V790.088C942.803 786.799 941.159 786.04 939.515 786.04C936.227 786.04 935.342 789.203 935.342 791.353V799.196H932.812V777.312H935.342V786.926C936.101 785.028 937.871 783.763 940.148 783.763Z" fill="#00BFFF"/>
<path d="M962.279 792.365H951.656C951.656 795.148 953.3 797.298 956.082 797.298C958.106 797.298 959.37 796.034 960.129 794.642L962.279 795.781C961.014 798.31 958.991 799.575 956.082 799.575C951.276 799.575 949 796.286 949 791.353C949 786.673 951.656 783.763 955.956 783.763C960.635 783.763 962.405 787.052 962.405 791.227C962.279 791.48 962.279 791.859 962.279 792.365ZM955.829 785.661C953.047 785.661 951.656 787.938 951.656 790.088H959.623C959.75 787.811 958.485 785.661 955.829 785.661Z" fill="#00BFFF"/>
<path d="M675.075 839.674H672.293V829.934H664.072V839.674H661.29V818.17H664.072V827.531H672.293V818.17H675.075V839.674Z" fill="#00BFFF"/>
<path d="M684.055 840.054C682.664 840.054 681.272 839.674 680.134 838.662C679.123 837.777 678.743 836.259 678.743 833.856V824.495H681.399V833.729C681.399 837.018 682.917 837.777 684.561 837.777C687.722 837.777 688.481 834.615 688.481 832.338V824.495H691.01V839.674H688.607V836.765C687.975 838.283 686.205 840.054 684.055 840.054Z" fill="#00BFFF"/>
<path d="M699.736 824.242C701.253 824.242 702.392 825.254 702.898 827.025C703.656 825.254 704.921 824.242 706.439 824.242C708.336 824.242 709.98 825.507 709.98 828.796V839.801H707.45V829.049C707.45 827.151 706.565 826.645 705.68 826.645C703.909 826.645 703.277 827.91 703.277 829.808V839.801H700.748V829.049C700.748 827.151 699.989 826.645 698.977 826.645C697.207 826.645 696.574 828.037 696.574 829.808V839.801H694.045V824.621H696.448V826.898C696.954 825.254 698.218 824.242 699.736 824.242Z" fill="#00BFFF"/>
<path d="M725.156 839.674H722.5C722.374 838.789 722.247 837.777 722.247 836.891C721.235 839.042 719.591 840.054 717.189 840.054C714.153 840.054 712.13 838.156 712.13 835.626C712.13 834.108 712.889 832.844 714.28 832.085C715.292 831.579 716.936 831.199 719.465 830.82L722.247 830.44V830.187C722.247 827.531 721.235 826.266 718.959 826.266C716.809 826.266 715.545 827.404 715.418 829.302H712.636C712.889 826.013 715.292 824.242 719.086 824.242C723.006 824.242 724.776 826.139 724.776 830.567V834.614C724.65 837.018 724.777 838.536 725.156 839.674ZM718.453 832.844C715.797 833.223 714.786 833.982 714.786 835.5C714.786 837.018 715.797 838.03 717.568 838.03C720.35 838.03 721.994 836.132 721.994 833.223V832.338L718.453 832.844Z" fill="#00BFFF"/>
<path d="M737.044 824.242C738.309 824.242 739.7 824.621 740.712 825.507C741.723 826.392 742.103 827.91 742.103 830.314V839.674H739.573V830.44C739.573 827.151 737.929 826.392 736.412 826.392C732.997 826.392 732.238 829.555 732.238 831.705V839.548H729.709V824.368H732.112V827.404C732.744 825.633 734.515 824.242 737.044 824.242Z" fill="#00BFFF"/>
<path d="M746.655 834.994L749.311 834.488C749.69 836.638 751.082 837.903 753.358 837.903C755.381 837.903 756.52 837.018 756.52 835.626C756.52 834.108 755.761 833.476 754.117 833.223L751.714 832.97C748.679 832.591 747.288 830.946 747.288 828.669C747.288 825.886 749.438 824.242 752.979 824.242C756.393 824.242 758.796 826.013 759.049 828.796L756.52 829.428C756.14 827.657 755.002 826.392 752.852 826.392C750.829 826.392 749.69 827.151 749.69 828.669C749.69 829.934 750.576 830.693 752.473 830.946L754.876 831.199C757.911 831.579 759.049 833.097 759.049 835.5C759.049 838.409 756.899 840.18 753.231 840.18C749.564 840.054 747.161 838.283 746.655 834.994Z" fill="#00BFFF"/>
<path d="M779.663 832.085C779.663 827.278 782.445 824.115 786.745 824.115C791.045 824.115 793.827 827.278 793.827 832.085C793.827 836.891 791.045 840.054 786.745 840.054C782.445 840.054 779.663 836.891 779.663 832.085ZM790.919 832.085C790.919 828.543 789.274 826.392 786.619 826.392C783.836 826.392 782.319 828.543 782.319 832.085C782.319 835.626 783.963 837.777 786.619 837.777C789.401 837.777 790.919 835.753 790.919 832.085Z" fill="#00BFFF"/>
<path d="M809.888 826.645H804.197V839.674H801.668V826.645H796.988V824.621H801.668V822.977C801.668 819.562 803.565 817.791 807.358 817.791C808.244 817.791 809.002 817.917 810.014 818.044V820.321C809.382 820.194 808.497 820.068 807.358 820.068C805.082 820.068 804.197 820.827 804.197 823.103V824.621H809.888V826.645Z" fill="#00BFFF"/>
<path d="M844.666 820.574H834.296V827.404H843.781V829.808H834.296V839.548H831.514V818.044H844.666V820.574Z" fill="#00BFFF"/>
<path d="M848.839 837.524H853.645V819.815H849.092V817.664H856.174V837.524H861.233V839.674H848.713V837.524H848.839Z" fill="#00BFFF"/>
<path d="M877.548 839.674H874.892C874.765 838.789 874.639 837.777 874.639 836.891C873.627 839.042 871.983 840.054 869.58 840.054C866.545 840.054 864.521 838.156 864.521 835.626C864.521 834.108 865.28 832.844 866.671 832.085C867.683 831.579 869.327 831.199 871.857 830.82L874.639 830.44V830.187C874.639 827.531 873.627 826.266 871.351 826.266C869.201 826.266 867.936 827.404 867.81 829.302H865.027C865.28 826.013 867.683 824.242 871.477 824.242C875.398 824.242 877.168 826.139 877.168 830.567V834.614C877.042 837.018 877.168 838.536 877.548 839.674ZM870.845 832.844C868.189 833.223 867.177 833.982 867.177 835.5C867.177 837.018 868.189 838.03 869.96 838.03C872.742 838.03 874.386 836.132 874.386 833.223V832.338L870.845 832.844Z" fill="#00BFFF"/>
<path d="M881.594 824.621H885.894V820.7L888.423 819.562V824.621H894.367V826.645H888.423V834.488C888.423 836.512 889.435 837.524 891.332 837.524C892.343 837.524 893.355 837.397 894.367 837.271V839.674C893.608 839.801 892.723 840.054 891.458 840.054C887.664 840.054 885.894 837.903 885.894 834.994V826.772H881.594V824.621Z" fill="#00BFFF"/>
<path d="M915.36 824.621H919.66V820.7L922.19 819.562V824.621H928.133V826.645H922.19V834.488C922.19 836.512 923.201 837.524 925.098 837.524C926.11 837.524 927.122 837.397 928.133 837.271V839.674C927.375 839.801 926.489 840.054 925.225 840.054C921.431 840.054 919.66 837.903 919.66 834.994V826.772H915.36V824.621Z" fill="#00BFFF"/>
<path d="M945.333 839.674H942.677C942.55 838.789 942.424 837.777 942.424 836.891C941.412 839.042 939.768 840.054 937.365 840.054C934.33 840.054 932.307 838.156 932.307 835.626C932.307 834.108 933.065 832.844 934.457 832.085C935.468 831.579 937.112 831.199 939.642 830.82L942.424 830.44V830.187C942.424 827.531 941.412 826.266 939.136 826.266C936.986 826.266 935.721 827.404 935.595 829.302H932.812C933.065 826.013 935.468 824.242 939.262 824.242C943.183 824.242 944.953 826.139 944.953 830.567V834.614C944.7 837.018 944.953 838.536 945.333 839.674ZM938.63 832.844C935.974 833.223 934.962 833.982 934.962 835.5C934.962 837.018 935.974 838.03 937.745 838.03C940.527 838.03 942.171 836.132 942.171 833.223V832.338L938.63 832.844Z" fill="#00BFFF"/>
<path d="M955.45 832.338L952.668 835.121V839.801H950.139V817.917H952.668V832.211L959.497 824.748H962.912L957.347 830.567L963.291 839.801H960.129L955.45 832.338Z" fill="#00BFFF"/>
<path d="M979.226 832.844H968.603C968.603 835.626 970.247 837.777 973.029 837.777C975.053 837.777 976.317 836.512 977.076 835.12L979.226 836.259C977.962 838.789 975.938 840.054 973.029 840.054C968.224 840.054 965.947 836.765 965.947 831.832C965.947 827.151 968.603 824.242 972.903 824.242C977.582 824.242 979.353 827.531 979.353 831.705C979.226 831.958 979.226 832.338 979.226 832.844ZM972.776 826.139C969.994 826.139 968.603 828.416 968.603 830.567H976.57C976.697 828.29 975.432 826.139 972.776 826.139Z" fill="#00BFFF"/>
<path d="M1012.99 839.674H1010.34C1010.21 838.789 1010.08 837.777 1010.08 836.891C1009.07 839.042 1007.43 840.054 1005.03 840.054C1001.99 840.054 999.967 838.156 999.967 835.626C999.967 834.108 1000.73 832.844 1002.12 832.085C1003.13 831.579 1004.77 831.199 1007.3 830.82L1010.08 830.44V830.187C1010.08 827.531 1009.07 826.266 1006.8 826.266C1004.65 826.266 1003.38 827.404 1003.25 829.302H1000.35C1000.6 826.013 1003 824.242 1006.8 824.242C1010.72 824.242 1012.49 826.139 1012.49 830.567V834.614C1012.49 837.018 1012.61 838.536 1012.99 839.674ZM1006.29 832.844C1003.63 833.223 1002.62 833.982 1002.62 835.5C1002.62 837.018 1003.63 838.03 1005.4 838.03C1008.19 838.03 1009.83 836.132 1009.83 833.223V832.338L1006.29 832.844Z" fill="#00BFFF"/>
<path d="M662.555 878.002H667.361V860.293H662.808V858.143H669.89V878.002H674.949V880.153H662.429V878.002H662.555Z" fill="#00BFFF"/>
<path d="M677.984 872.563C677.984 867.756 680.767 864.594 685.067 864.594C689.366 864.594 692.149 867.756 692.149 872.563C692.149 877.37 689.366 880.532 685.067 880.532C680.767 880.532 677.984 877.37 677.984 872.563ZM689.366 872.563C689.366 869.021 687.722 866.871 685.067 866.871C682.284 866.871 680.767 869.021 680.767 872.563C680.767 876.105 682.411 878.255 685.067 878.255C687.849 878.255 689.366 876.231 689.366 872.563Z" fill="#00BFFF"/>
<path d="M694.931 872.563C694.931 867.756 697.713 864.594 702.013 864.594C706.313 864.594 709.095 867.756 709.095 872.563C709.095 877.37 706.313 880.532 702.013 880.532C697.713 880.532 694.931 877.37 694.931 872.563ZM706.313 872.563C706.313 869.021 704.668 866.871 702.013 866.871C699.23 866.871 697.713 869.021 697.713 872.563C697.713 876.105 699.357 878.255 702.013 878.255C704.668 878.255 706.313 876.231 706.313 872.563Z" fill="#00BFFF"/>
<path d="M718.453 872.816L715.671 875.599V880.279H713.142V858.396H715.671V872.69L722.5 865.226H725.915L720.35 871.045L726.294 880.279H723.132L718.453 872.816Z" fill="#00BFFF"/>
<path d="M749.437 867.63C750.196 865.859 752.093 864.594 754.116 864.594C758.037 864.594 760.313 867.883 760.313 872.437C760.313 877.117 757.91 880.406 753.99 880.406C751.966 880.406 750.069 879.267 749.311 877.496L748.805 880.153H746.781V858.269H749.311V867.63H749.437ZM753.357 878.255C756.013 878.255 757.531 875.978 757.531 872.563C757.531 869.148 756.013 866.997 753.357 866.997C750.828 866.997 749.311 869.021 749.311 872.31V873.069C749.311 876.231 750.828 878.255 753.357 878.255Z" fill="#00BFFF"/>
<path d="M775.995 873.322H765.372C765.372 876.105 767.016 878.255 769.798 878.255C771.821 878.255 773.086 876.99 773.845 875.599L775.995 876.737C774.73 879.267 772.707 880.532 769.798 880.532C764.992 880.532 762.716 877.243 762.716 872.31C762.716 867.63 765.372 864.72 769.671 864.72C774.351 864.72 776.121 868.009 776.121 872.183C776.121 872.436 775.995 872.816 775.995 873.322ZM769.545 866.618C766.763 866.618 765.372 868.895 765.372 871.045H773.339C773.465 868.768 772.201 866.618 769.545 866.618Z" fill="#00BFFF"/>
<path d="M787.756 864.72C789.021 864.72 790.412 865.1 791.423 866.112C792.435 866.997 792.941 868.515 792.941 870.919V880.279H790.412V871.045C790.412 867.756 788.768 866.997 787.124 866.997C783.836 866.997 782.95 870.16 782.95 872.31V880.153H780.421V858.269H782.95V867.883C783.709 865.985 785.48 864.72 787.756 864.72Z" fill="#00BFFF"/>
<path d="M798 878.002H802.806V867.124H798.379V864.973H805.335V878.002H810.394V880.153H798V878.002ZM805.714 862.064H802.047V858.396H805.714V862.064Z" fill="#00BFFF"/>
<path d="M821.649 864.72C822.914 864.72 824.305 865.1 825.317 865.985C826.329 866.871 826.708 868.389 826.708 870.792V880.153H824.179V870.919C824.179 867.63 822.535 866.871 821.017 866.871C817.603 866.871 816.844 870.033 816.844 872.183V880.026H814.314V864.847H816.717V867.883C817.476 866.112 819.12 864.72 821.649 864.72Z" fill="#00BFFF"/>
<path d="M843.275 858.269V880.153H840.873V877.37C839.987 879.394 838.596 880.532 836.067 880.532C832.273 880.532 829.87 877.37 829.87 872.563C829.87 867.756 832.526 864.72 836.446 864.72C838.47 864.72 839.987 865.859 840.746 867.377V858.396H843.275V858.269ZM836.699 866.997C834.043 866.997 832.526 869.148 832.526 872.563C832.526 876.105 834.043 878.255 836.573 878.255C839.102 878.255 840.746 876.231 840.746 872.942V872.31C840.746 869.021 839.229 866.997 836.699 866.997Z" fill="#00BFFF"/>
<path d="M864.647 865.1H868.947V861.178L871.477 860.04V865.1H877.421V867.124H871.477V874.966C871.477 876.99 872.488 878.002 874.385 878.002C875.397 878.002 876.409 877.876 877.421 877.749V880.153C876.662 880.279 875.776 880.532 874.512 880.532C870.718 880.532 868.947 878.382 868.947 875.472V867.25H864.647V865.1Z" fill="#00BFFF"/>
<path d="M889.309 864.72C890.573 864.72 891.964 865.1 892.976 866.112C893.988 866.997 894.494 868.515 894.494 870.919V880.279H891.964V871.045C891.964 867.756 890.32 866.997 888.676 866.997C885.388 866.997 884.503 870.16 884.503 872.31V880.153H881.974V858.269H884.503V867.883C885.262 865.985 887.159 864.72 889.309 864.72Z" fill="#00BFFF"/>
<path d="M911.44 873.322H900.817C900.817 876.105 902.461 878.255 905.243 878.255C907.267 878.255 908.531 876.99 909.29 875.599L911.44 876.737C910.175 879.267 908.152 880.532 905.243 880.532C900.437 880.532 898.161 877.243 898.161 872.31C898.161 867.63 900.817 864.72 905.117 864.72C909.796 864.72 911.567 868.009 911.567 872.183C911.567 872.436 911.44 872.816 911.44 873.322ZM904.99 866.618C902.208 866.618 900.817 868.895 900.817 871.045H908.784C908.911 868.768 907.773 866.618 904.99 866.618Z" fill="#00BFFF"/>
<path d="M932.054 872.563C932.054 868.009 934.33 864.72 939.136 864.72C942.55 864.72 944.953 866.618 945.333 870.16L942.677 870.413C942.424 868.136 941.159 866.871 939.009 866.871C936.227 866.871 934.836 869.148 934.836 872.436C934.836 875.852 936.227 878.255 939.136 878.255C941.286 878.255 942.55 876.864 942.93 874.587L945.333 874.966C944.827 878.002 942.93 880.532 939.136 880.532C934.457 880.532 932.054 876.99 932.054 872.563Z" fill="#00BFFF"/>
<path d="M954.944 880.532C953.553 880.532 952.162 880.153 951.024 879.141C950.012 878.255 949.633 876.737 949.633 874.334V864.973H952.289V874.207C952.289 877.496 953.806 878.255 955.45 878.255C958.612 878.255 959.371 875.093 959.371 872.816V864.973H961.9V880.153H959.497V877.243C958.991 878.761 957.221 880.532 954.944 880.532Z" fill="#00BFFF"/>
<path d="M976.949 864.72C978.088 864.72 978.973 864.847 979.732 864.973V867.377C979.099 867.25 977.961 867.124 976.949 867.124C973.282 867.124 970.373 869.654 970.373 874.587V880.153H967.844V864.973H970.373V868.895C971.385 866.618 973.788 864.72 976.949 864.72Z" fill="#00BFFF"/>
<path d="M994.149 870.539V872.942H985.423V870.539H994.149Z" fill="#00BFFF"/>
<path d="M661.417 905.578H665.717V901.657L668.246 900.519V905.578H674.19V907.602H668.246V915.445C668.246 917.469 669.258 918.481 671.155 918.481C672.167 918.481 673.178 918.354 674.19 918.228V920.631C673.431 920.758 672.546 921.011 671.281 921.011C667.487 921.011 665.717 918.86 665.717 915.951V907.729H661.417V905.578Z" fill="#00BFFF"/>
<path d="M691.263 920.631H688.607C688.481 919.746 688.355 918.734 688.355 917.848C687.343 919.999 685.699 921.011 683.296 921.011C680.261 921.011 678.237 919.113 678.237 916.583C678.237 915.065 678.996 913.8 680.387 913.041C681.399 912.535 683.043 912.156 685.572 911.776L688.355 911.397V911.144C688.355 908.488 687.343 907.223 685.066 907.223C682.917 907.223 681.652 908.361 681.525 910.259H678.743C678.996 906.97 681.399 905.199 685.193 905.199C689.113 905.199 690.884 907.096 690.884 911.523V915.571C690.757 917.975 690.884 919.493 691.263 920.631ZM684.561 913.8C681.905 914.18 680.893 914.939 680.893 916.457C680.893 917.975 681.905 918.987 683.675 918.987C686.458 918.987 688.102 917.089 688.102 914.18V913.294L684.561 913.8Z" fill="#00BFFF"/>
<path d="M696.448 918.481H701.254V907.602H696.827V905.452H703.783V918.481H708.841V920.631H696.321V918.481H696.448ZM704.036 902.542H700.368V898.874H704.036V902.542Z" fill="#00BFFF"/>
<path d="M720.097 905.199C721.361 905.199 722.753 905.578 723.764 906.464C724.776 907.349 725.155 908.867 725.155 911.271V920.631H722.626V911.397C722.626 908.108 720.982 907.349 719.464 907.349C716.05 907.349 715.291 910.512 715.291 912.662V920.505H712.762V905.325H715.165V908.361C715.923 906.59 717.567 905.199 720.097 905.199Z" fill="#00BFFF"/>
<path d="M746.022 905.578H750.322V901.657L752.852 900.519V905.578H758.795V907.602H752.852V915.445C752.852 917.469 753.863 918.481 755.76 918.481C756.772 918.481 757.784 918.354 758.795 918.228V920.631C758.037 920.758 757.151 921.011 755.887 921.011C752.093 921.011 750.322 918.86 750.322 915.951V907.729H746.022V905.578Z" fill="#00BFFF"/>
<path d="M762.716 913.041C762.716 908.235 765.498 905.072 769.798 905.072C774.098 905.072 776.88 908.235 776.88 913.041C776.88 917.848 774.098 921.011 769.798 921.011C765.498 921.011 762.716 917.848 762.716 913.041ZM774.098 913.041C774.098 909.5 772.454 907.349 769.798 907.349C767.016 907.349 765.498 909.5 765.498 913.041C765.498 916.583 767.142 918.734 769.798 918.734C772.454 918.734 774.098 916.71 774.098 913.041Z" fill="#00BFFF"/>
<path d="M797.368 915.951L800.024 915.445C800.403 917.595 801.794 918.86 804.071 918.86C806.094 918.86 807.233 917.975 807.233 916.583C807.233 915.065 806.474 914.433 804.83 914.18L802.427 913.927C799.392 913.547 798 911.903 798 909.626C798 906.843 800.15 905.199 803.691 905.199C807.106 905.199 809.509 906.97 809.762 909.753L807.233 910.385C806.853 908.614 805.715 907.349 803.565 907.349C801.542 907.349 800.403 908.108 800.403 909.626C800.403 910.891 801.289 911.65 803.186 911.903L805.588 912.156C808.624 912.535 809.762 914.053 809.762 916.457C809.762 919.366 807.612 921.137 803.944 921.137C800.403 921.011 798 919.24 797.368 915.951Z" fill="#00BFFF"/>
<path d="M826.835 913.8H816.211C816.211 916.583 817.856 918.734 820.638 918.734C822.661 918.734 823.926 917.469 824.685 916.077L826.835 917.216C825.57 919.746 823.547 921.011 820.638 921.011C815.832 921.011 813.556 917.722 813.556 912.788C813.556 908.108 816.211 905.199 820.511 905.199C825.191 905.199 826.961 908.488 826.961 912.662C826.835 912.915 826.835 913.294 826.835 913.8ZM820.385 907.096C817.603 907.096 816.211 909.373 816.211 911.523H824.179C824.305 909.247 823.041 907.096 820.385 907.096Z" fill="#00BFFF"/>
<path d="M843.781 913.8H833.158C833.158 916.583 834.802 918.734 837.584 918.734C839.607 918.734 840.872 917.469 841.631 916.077L843.781 917.216C842.516 919.746 840.493 921.011 837.584 921.011C832.778 921.011 830.502 917.722 830.502 912.788C830.502 908.108 833.158 905.199 837.458 905.199C842.137 905.199 843.907 908.488 843.907 912.662C843.781 912.915 843.781 913.294 843.781 913.8ZM837.331 907.096C834.549 907.096 833.158 909.373 833.158 911.523H841.125C841.251 909.247 839.987 907.096 837.331 907.096Z" fill="#00BFFF"/>
<path d="M864.647 905.578H868.947V901.657L871.477 900.519V905.578H877.421V907.602H871.477V915.445C871.477 917.469 872.488 918.481 874.385 918.481C875.397 918.481 876.409 918.354 877.421 918.228V920.631C876.662 920.758 875.776 921.011 874.512 921.011C870.718 921.011 868.947 918.86 868.947 915.951V907.729H864.647V905.578Z" fill="#00BFFF"/>
<path d="M889.309 905.199C890.573 905.199 891.964 905.578 892.976 906.59C893.988 907.476 894.494 908.994 894.494 911.397V920.758H891.964V911.524C891.964 908.235 890.32 907.476 888.676 907.476C885.388 907.476 884.503 910.638 884.503 912.788V920.631H881.974V898.748H884.503V908.361C885.262 906.464 887.159 905.199 889.309 905.199Z" fill="#00BFFF"/>
<path d="M911.44 913.8H900.817C900.817 916.583 902.461 918.734 905.243 918.734C907.267 918.734 908.531 917.469 909.29 916.077L911.44 917.216C910.175 919.746 908.152 921.011 905.243 921.011C900.437 921.011 898.161 917.722 898.161 912.788C898.161 908.108 900.817 905.199 905.117 905.199C909.796 905.199 911.567 908.488 911.567 912.662C911.567 912.915 911.44 913.294 911.44 913.8ZM904.99 907.096C902.208 907.096 900.817 909.373 900.817 911.523H908.784C908.911 909.247 907.773 907.096 904.99 907.096Z" fill="#00BFFF"/>
<path d="M916.499 918.481H921.304V907.602H916.878V905.452H923.834V918.481H928.892V920.631H916.372V918.481H916.499ZM924.213 902.542H920.546V898.874H924.213V902.542Z" fill="#00BFFF"/>
<path d="M943.057 905.199C944.195 905.199 945.08 905.325 945.839 905.452V907.855C945.207 907.729 944.068 907.602 943.057 907.602C939.389 907.602 936.48 910.132 936.48 915.065V920.631H933.951V905.452H936.48V909.373C937.492 907.096 939.895 905.199 943.057 905.199Z" fill="#00BFFF"/>
</svg>
