<svg width="855" height="748" viewBox="0 0 855 748" fill="none" xmlns="http://www.w3.org/2000/svg">
<path d="M345.673 457.132V351.31" stroke="#00BFFF" stroke-width="3" stroke-miterlimit="10" stroke-linecap="round"/>
<path d="M508.68 363.423V698.669H526.105C526.105 698.669 550.208 698.643 550.208 723.166C550.208 745.671 526.722 745.967 526.722 745.967H345.673V520.782" stroke="#00BFFF" stroke-width="3" stroke-miterlimit="10" stroke-linecap="round"/>
<path d="M438.002 214.632H451.37" stroke="#00BFFF" stroke-width="3" stroke-miterlimit="10" stroke-linecap="round"/>
<path d="M438.002 221.312H451.37" stroke="#00BFFF" stroke-width="3" stroke-miterlimit="10" stroke-linecap="round"/>
<path d="M427.986 265.257C453.297 265.257 473.816 244.731 473.816 219.41C473.816 194.09 453.297 173.564 427.986 173.564C402.674 173.564 382.155 194.09 382.155 219.41C382.155 244.731 402.674 265.257 427.986 265.257Z" stroke="#00BFFF" stroke-width="3" stroke-miterlimit="10" stroke-linecap="round"/>
<path d="M412.705 262.392L400.287 299.645H309.615H306.161C249.66 299.645 203.855 345.465 203.855 401.986V418.043C203.855 474.564 249.66 520.384 306.161 520.384H345.673H359.324C365.076 520.384 369.738 515.721 369.738 509.966C369.738 504.212 365.076 499.549 359.324 499.549H345.673" stroke="#00BFFF" stroke-width="3" stroke-miterlimit="10" stroke-linecap="round"/>
<path d="M440.39 263.343L448.994 299.644H694.544" stroke="#00BFFF" stroke-width="3" stroke-miterlimit="10" stroke-linecap="round"/>
<path d="M470.477 230.869C478.122 230.869 484.32 223.599 484.32 214.632C484.32 205.664 478.122 198.395 470.477 198.395C462.832 198.395 456.634 205.664 456.634 214.632C456.634 223.599 462.832 230.869 470.477 230.869Z" fill="white" stroke="#00BFFF" stroke-width="3" stroke-miterlimit="10" stroke-linecap="round"/>
<path d="M470.477 198.395H451.434V230.869H470.477" stroke="#00BFFF" stroke-width="3" stroke-miterlimit="10" stroke-linecap="round"/>
<path d="M432.275 230.869C439.92 230.869 446.117 223.599 446.117 214.632C446.117 205.664 439.92 198.395 432.275 198.395C424.629 198.395 418.432 205.664 418.432 214.632C418.432 223.599 424.629 230.869 432.275 230.869Z" fill="white" stroke="#00BFFF" stroke-width="3" stroke-miterlimit="10" stroke-linecap="round"/>
<path d="M432.275 198.395H413.244V230.869H432.275" stroke="#00BFFF" stroke-width="3" stroke-miterlimit="10" stroke-linecap="round"/>
<path d="M382.63 214.632H412.705" stroke="#00BFFF" stroke-width="3" stroke-miterlimit="10" stroke-linecap="round"/>
<path d="M382.63 221.312H412.705" stroke="#00BFFF" stroke-width="3" stroke-miterlimit="10" stroke-linecap="round"/>
<path d="M433.713 249.02C423.209 249.02 413.668 247.401 406.502 237.703C406.502 237.703 401.969 238.653 402.085 243.355C402.2 248.056 406.027 251.871 409.841 252.835C413.655 253.785 416.403 252.27 417.892 251.602" stroke="#00BFFF" stroke-width="3" stroke-miterlimit="10" stroke-linecap="round"/>
<path d="M445.167 746.082C461.398 746.082 469.989 734.624 469.989 723.153C469.989 707.867 462.349 698.322 442.573 698.592" stroke="#00BFFF" stroke-width="3" stroke-miterlimit="10" stroke-linecap="round"/>
<path d="M369.738 599.552H509.142" stroke="#00BFFF" stroke-width="3" stroke-miterlimit="10" stroke-linecap="round"/>
<path d="M369.738 446.586V300.12H387.985V352.209H487.184V300.12H509.142V363.423L741.016 361.548" stroke="#00BFFF" stroke-width="3" stroke-miterlimit="10" stroke-linecap="round"/>
<path d="M369.738 599.552V526.062" stroke="#00BFFF" stroke-width="3" stroke-miterlimit="10" stroke-linecap="round"/>
<path d="M429.167 698.335V599.552" stroke="#00BFFF" stroke-width="3" stroke-miterlimit="10" stroke-linecap="round"/>
<path d="M462.965 300.12C455.671 313.967 439.44 321.097 425.597 321.097C411.754 321.097 396.473 313.004 388.306 300.12" stroke="#00BFFF" stroke-width="3" stroke-miterlimit="10" stroke-linecap="round"/>
<path d="M741.247 320.493H759.777C759.777 320.493 772.683 320.737 772.683 310.281C772.683 299.824 760.728 299.824 760.728 299.824H715.128" stroke="#00BFFF" stroke-width="3" stroke-miterlimit="10" stroke-linecap="round"/>
<path d="M741.247 340.763H759.777C759.777 340.763 772.683 341.007 772.683 330.744C772.683 320.493 760.727 320.493 760.727 320.493H733.517" stroke="#00BFFF" stroke-width="3" stroke-miterlimit="10" stroke-linecap="round"/>
<path d="M741.247 361.779H759.777C759.777 361.779 772.683 362.023 772.683 351.425C772.683 340.828 760.727 340.828 760.727 340.828H733.517" stroke="#00BFFF" stroke-width="3" stroke-miterlimit="10" stroke-linecap="round"/>
<path d="M644.193 299.811L694.454 299.542C694.454 299.542 694.454 291.166 694.454 286.426C694.454 280.89 697.703 276.831 704.188 276.831C710.672 276.831 714.73 280.89 714.73 286.568C714.73 292.245 714.73 306.029 714.73 306.029C714.73 306.029 715.539 325.49 699.334 325.49" stroke="#00BFFF" stroke-width="3" stroke-miterlimit="10" stroke-linecap="round"/>
<path d="M733.363 313.608V350.089" stroke="#00BFFF" stroke-width="3" stroke-miterlimit="10" stroke-linecap="round"/>
<path d="M663.648 299.811V361.445" stroke="#00BFFF" stroke-width="3" stroke-miterlimit="10" stroke-linecap="round"/>
<path d="M345.07 364.695H312.017C289.532 364.695 271.31 382.923 271.31 405.416V412.545C271.31 435.038 289.532 453.266 312.017 453.266H314.238C314.238 445.545 320.492 439.29 328.209 439.29H345.661" stroke="#00BFFF" stroke-width="3" stroke-miterlimit="10" stroke-linecap="round"/>
<path d="M371.638 488.964C371.638 483.209 366.977 478.546 361.224 478.546H347.574" stroke="#00BFFF" stroke-width="3" stroke-miterlimit="10" stroke-linecap="round"/>
<path d="M347.574 499.382H361.224C366.977 499.382 371.638 494.719 371.638 488.964" stroke="#00BFFF" stroke-width="3" stroke-miterlimit="10" stroke-linecap="round"/>
<path d="M371.638 467.884C371.638 462.129 366.977 457.466 361.224 457.466H332.113" stroke="#00BFFF" stroke-width="3" stroke-miterlimit="10" stroke-linecap="round"/>
<path d="M347.574 478.302H361.224C366.977 478.302 371.638 473.639 371.638 467.884" stroke="#00BFFF" stroke-width="3" stroke-miterlimit="10" stroke-linecap="round"/>
<path d="M300.896 451.865L280.633 517.545" stroke="#00BFFF" stroke-width="3" stroke-miterlimit="10" stroke-linecap="round"/>
<path d="M595.962 746.07H2.06787" stroke="#00BFFF" stroke-width="3" stroke-miterlimit="10" stroke-linecap="round"/>
<path d="M809.19 239.026H576.892C552.828 239.026 533.322 219.513 533.322 195.44V45.3646C533.322 21.2919 552.828 1.7793 576.892 1.7793H809.19C833.255 1.7793 852.76 21.2919 852.76 45.3646V195.44C852.773 219.513 833.255 239.026 809.19 239.026Z" fill="#D7F7FF" stroke="#00BFFF" stroke-width="3" stroke-miterlimit="10" stroke-linecap="round" stroke-linejoin="round"/>
<path d="M569.997 36.758H562.408L560.417 43.0524H557.592L564.591 21.2405H567.839L574.838 43.0524H572.013L569.997 36.758ZM563.178 34.2917H569.226C567.839 29.9627 566.825 26.3402 566.247 23.7582H566.183C565.605 26.3402 564.565 29.9627 563.178 34.2917Z" fill="#00BFFF"/>
<path d="M585.162 27.3293C586.421 27.3293 587.833 27.6633 588.873 28.6524C589.888 29.603 590.35 31.0803 590.35 33.5723V43.0653H587.743V33.7265C587.743 30.3738 586.087 29.6416 584.546 29.6416C581.079 29.6416 580.244 32.8658 580.244 35.0496V43.0653H577.637V27.689H580.09V30.7334C580.899 28.7938 582.581 27.3293 585.162 27.3293Z" fill="#00BFFF"/>
<path d="M607.699 20.7781V43.0396H605.246V40.2007C604.321 42.1918 602.883 43.425 600.366 43.425C596.527 43.425 594.036 40.2264 594.036 35.345C594.036 30.5279 596.706 27.3294 600.764 27.3294C602.845 27.3294 604.321 28.4598 605.092 29.9756V20.7909H607.699V20.7781ZM601.008 29.6287C598.363 29.6287 596.796 31.7483 596.796 35.345C596.796 38.9033 598.363 41.1256 600.906 41.1256C603.512 41.1256 605.143 39.0446 605.143 35.7176V35.0111C605.156 31.7226 603.551 29.6287 601.008 29.6287Z" fill="#00BFFF"/>
<path d="M638.402 27.3294C639.635 27.3294 641.099 27.6633 642.177 28.6782C643.166 29.6287 643.68 31.0803 643.68 33.5595V43.0524H641.073V33.7137C641.073 30.3609 639.378 29.6287 637.76 29.6287C634.408 29.6287 633.586 32.853 633.586 35.0368V43.0524H630.98V20.7781H633.586V30.4894C634.293 28.6525 636.193 27.3294 638.402 27.3294Z" fill="#00BFFF"/>
<path d="M661.49 36.0516H650.717C650.717 38.9418 652.373 41.1128 655.237 41.1128C657.266 41.1128 658.524 39.8539 659.295 38.3766L661.503 39.5456C660.219 42.089 658.126 43.4121 655.237 43.4121C650.421 43.4121 648.046 40.098 648.046 35.0625C648.046 30.361 650.742 27.3165 655.044 27.3165C659.744 27.3165 661.555 30.6949 661.555 34.8698C661.555 35.2551 661.516 35.6534 661.49 36.0516ZM654.916 29.3461C652.116 29.3461 650.704 31.6455 650.704 33.8935H658.845C658.909 31.44 657.677 29.3461 654.916 29.3461Z" fill="#00BFFF"/>
<path d="M676.99 27.3807C678.094 27.3807 679.109 27.5092 679.751 27.689V30.1169C679.134 29.9627 678.004 29.8086 676.9 29.8086C673.215 29.8086 670.274 32.3263 670.274 37.3361V43.0524H667.667V27.689H670.248V31.684C671.288 29.2562 673.805 27.3807 676.99 27.3807Z" fill="#00BFFF"/>
<path d="M697.048 36.0516H686.274C686.274 38.9418 687.931 41.1128 690.781 41.1128C692.81 41.1128 694.069 39.8539 694.839 38.3766L697.048 39.5456C695.764 42.089 693.671 43.4121 690.781 43.4121C685.966 43.4121 683.603 40.098 683.603 35.0625C683.603 30.361 686.3 27.3165 690.601 27.3165C695.301 27.3165 697.112 30.6949 697.112 34.8698C697.099 35.2551 697.073 35.6534 697.048 36.0516ZM690.473 29.3461C687.674 29.3461 686.261 31.6455 686.261 33.8935H694.402C694.467 31.44 693.234 29.3461 690.473 29.3461Z" fill="#00BFFF"/>
<path d="M720.534 40.9073H725.453V29.8471H720.997V27.7019H728.059V40.9073H733.247V43.0525H720.534V40.9073ZM728.329 24.619H724.644V20.9323H728.329V24.619Z" fill="#00BFFF"/>
<path d="M737.716 38.3253L740.361 37.8628C740.759 40.1108 742.198 41.2669 744.471 41.2669C746.525 41.2669 747.668 40.4063 747.668 38.9675C747.668 37.4261 746.872 36.7581 745.215 36.5654L742.724 36.2828C739.681 35.9488 738.243 34.2275 738.243 31.8639C738.243 29.0635 740.451 27.3165 744.072 27.3165C747.578 27.3165 749.941 29.1535 750.275 31.9795L747.694 32.5576C747.36 30.7206 746.101 29.4232 744.008 29.4232C741.979 29.4232 740.785 30.2582 740.785 31.7226C740.785 33.0457 741.645 33.8421 743.546 34.0605L745.999 34.3303C749.042 34.6642 750.236 36.27 750.236 38.6978C750.236 41.6137 748.092 43.3993 744.342 43.3993C740.695 43.425 738.268 41.6009 737.716 38.3253Z" fill="#00BFFF"/>
<path d="M560.302 64.5432L561.868 75.0767L562.176 77.2604H562.395C562.523 76.5539 562.613 76.0658 562.883 74.6784L564.873 64.5432H567.544L569.534 74.6784C569.817 76.0658 569.907 76.5539 570.022 77.2604H570.241L570.549 75.0767L572.116 64.5432H574.851L571.872 79.9066H568.584L566.594 69.9898C566.465 69.3732 566.35 68.0886 566.324 67.472H566.106C566.08 68.0886 565.952 69.3732 565.836 69.9898L563.846 79.9066H560.558L557.579 64.5432H560.302Z" fill="#00BFFF"/>
<path d="M585.072 64.1836C586.305 64.1836 587.769 64.5175 588.848 65.5323C589.836 66.4829 590.35 67.9345 590.35 70.4137V79.9066H587.743V70.5678C587.743 67.2151 586.048 66.4829 584.43 66.4829C581.079 66.4829 580.257 69.7072 580.257 71.8909V79.9066H577.65V57.6323H580.257V67.3436C580.963 65.5067 582.864 64.1836 585.072 64.1836Z" fill="#00BFFF"/>
<path d="M608.161 72.9058H597.387C597.387 75.796 599.044 77.9669 601.907 77.9669C603.936 77.9669 605.195 76.7081 605.965 75.2308L608.174 76.3998C606.89 78.9432 604.796 80.2663 601.907 80.2663C597.092 80.2663 594.716 76.9521 594.716 71.9166C594.716 67.2151 597.413 64.1707 601.715 64.1707C606.414 64.1707 608.225 67.5491 608.225 71.724C608.225 72.1093 608.187 72.5075 608.161 72.9058ZM601.586 66.2132C598.787 66.2132 597.374 68.5125 597.374 70.7605H605.516C605.58 68.2942 604.36 66.2132 601.586 66.2132Z" fill="#00BFFF"/>
<path d="M623.66 64.2478C624.765 64.2478 625.779 64.3763 626.421 64.5561V66.9839C625.805 66.8298 624.675 66.6756 623.57 66.6756C619.885 66.6756 616.944 69.1934 616.944 74.2032V79.9195H614.338V64.5433H616.919V68.5383C617.959 66.1104 620.476 64.2478 623.66 64.2478Z" fill="#00BFFF"/>
<path d="M643.718 72.9058H632.944C632.944 75.796 634.601 77.9669 637.452 77.9669C639.481 77.9669 640.739 76.7081 641.51 75.2308L643.718 76.3998C642.434 78.9432 640.341 80.2663 637.452 80.2663C632.636 80.2663 630.261 76.9521 630.261 71.9166C630.261 67.2151 632.97 64.1707 637.259 64.1707C641.959 64.1707 643.77 67.5491 643.77 71.724C643.77 72.1093 643.744 72.5075 643.718 72.9058ZM637.144 66.2132C634.344 66.2132 632.932 68.5125 632.932 70.7605H641.073C641.137 68.2942 639.904 66.2132 637.144 66.2132Z" fill="#00BFFF"/>
<path d="M679.211 79.9066H676.476C676.348 79.046 676.258 78.0311 676.232 77.1063C675.218 79.2515 673.561 80.2663 671.044 80.2663C668.001 80.2663 665.882 78.3908 665.882 75.7575C665.882 74.1646 666.614 72.9314 668.027 72.135C669.041 71.5826 670.698 71.1844 673.253 70.8761L676.052 70.5421V70.2595C676.052 67.5234 675.038 66.3288 672.765 66.3288C670.582 66.3288 669.298 67.4335 669.17 69.3732H666.37C666.653 66.0847 669.041 64.1835 672.945 64.1835C676.9 64.1835 678.685 66.1489 678.685 70.5678V74.717C678.685 77.1705 678.839 78.7633 679.211 79.9066ZM672.418 72.9314C669.747 73.3039 668.643 74.0618 668.643 75.6033C668.643 77.1705 669.722 78.1211 671.532 78.1211C674.293 78.1211 676.078 76.2199 676.078 73.2012V72.4304L672.418 72.9314Z" fill="#00BFFF"/>
<path d="M684.977 77.7614H689.895V59.7904H685.285V57.6451H692.502V77.7614H697.69V79.9067H684.977V77.7614Z" fill="#00BFFF"/>
<path d="M702.749 77.7614H707.667V59.7904H703.058V57.6451H710.274V77.7614H715.462V79.9067H702.749V77.7614Z" fill="#00BFFF"/>
<path d="M738.307 77.7614H743.225V66.7013H738.769V64.5561H745.832V77.7614H751.019V79.9067H738.307V77.7614ZM746.101 61.4731H742.416V57.7864H746.101V61.4731Z" fill="#00BFFF"/>
<path d="M762.923 64.1835C764.182 64.1835 765.594 64.5175 766.634 65.5066C767.649 66.4572 768.111 67.9345 768.111 70.4265V79.9195H765.504V70.5807C765.504 67.2279 763.848 66.4957 762.307 66.4957C758.84 66.4957 758.005 69.72 758.005 71.9038V79.9195H755.398V64.5432H757.851V67.5876C758.66 65.6479 760.355 64.1835 762.923 64.1835Z" fill="#00BFFF"/>
<path d="M776.959 70.1439V72.5974H768.085V70.1439H776.959Z" fill="#00BFFF"/>
<path d="M559.403 101.397H563.794V97.3767L566.401 96.272V101.397H572.385V103.517H566.401V111.468C566.401 113.524 567.377 114.513 569.342 114.513C570.356 114.513 571.435 114.423 572.385 114.23V116.632C571.589 116.812 570.729 117.031 569.38 117.031C565.541 117.031 563.794 114.885 563.794 111.841V103.517H559.403V101.397Z" fill="#00BFFF"/>
<path d="M590.389 109.76H579.615C579.615 112.65 581.271 114.821 584.122 114.821C586.151 114.821 587.409 113.562 588.18 112.085L590.389 113.254C589.104 115.797 587.011 117.12 584.122 117.12C579.307 117.12 576.931 113.806 576.931 108.771C576.931 104.069 579.641 101.025 583.929 101.025C588.629 101.025 590.44 104.403 590.44 108.578C590.453 108.964 590.414 109.362 590.389 109.76ZM583.814 103.067C581.015 103.067 579.602 105.367 579.602 107.615H587.743C587.808 105.148 586.575 103.067 583.814 103.067Z" fill="#00BFFF"/>
<path d="M605.888 101.089C606.992 101.089 608.007 101.218 608.649 101.397V103.825C608.032 103.671 606.902 103.517 605.798 103.517C602.113 103.517 599.159 106.035 599.159 111.045V116.761H596.552V101.397H599.133V105.392C600.174 102.965 602.691 101.089 605.888 101.089Z" fill="#00BFFF"/>
<path d="M625.972 103.517H620.142V116.761H617.535V103.517H612.835V101.397H617.535V99.7018C617.535 96.1949 619.5 94.3837 623.313 94.3837C624.2 94.3837 624.944 94.4736 625.984 94.692V96.9913C625.304 96.9014 624.482 96.7473 623.313 96.7473C620.976 96.7473 620.155 97.5437 620.155 99.8816V101.385H625.984V103.517H625.972Z" fill="#00BFFF"/>
<path d="M643.654 116.761H640.919C640.79 115.9 640.701 114.885 640.675 113.96C639.66 116.106 638.004 117.12 635.487 117.12C632.444 117.12 630.325 115.245 630.325 112.612C630.325 111.019 631.057 109.786 632.469 108.989C633.484 108.437 635.14 108.039 637.683 107.73L640.482 107.396V107.127C640.482 104.39 639.468 103.196 637.195 103.196C635.012 103.196 633.728 104.3 633.599 106.24H630.8C631.07 102.952 633.471 101.051 637.375 101.051C641.33 101.051 643.115 103.016 643.115 107.435V111.584C643.127 114.025 643.282 115.618 643.654 116.761ZM636.861 109.786C634.19 110.158 633.086 110.916 633.086 112.457C633.086 114.025 634.164 114.975 635.975 114.975C638.736 114.975 640.521 113.074 640.521 110.055V109.285L636.861 109.786Z" fill="#00BFFF"/>
<path d="M648.046 108.989C648.046 104.416 650.383 101.038 655.198 101.038C658.601 101.038 661.067 103.003 661.426 106.536L658.755 106.844C658.473 104.57 657.189 103.311 655.006 103.311C652.181 103.311 650.742 105.585 650.742 108.963C650.742 112.47 652.181 114.834 655.108 114.834C657.356 114.834 658.55 113.485 658.909 111.147L661.401 111.545C660.913 114.68 658.909 117.133 655.108 117.133C650.434 117.133 648.046 113.601 648.046 108.989Z" fill="#00BFFF"/>
<path d="M679.263 109.76H668.489C668.489 112.65 670.145 114.821 672.996 114.821C675.025 114.821 676.284 113.562 677.054 112.085L679.263 113.254C677.979 115.797 675.885 117.12 672.996 117.12C668.181 117.12 665.818 113.806 665.818 108.771C665.818 104.069 668.515 101.025 672.816 101.025C677.516 101.025 679.327 104.403 679.327 108.578C679.327 108.964 679.301 109.362 679.263 109.76ZM672.701 103.067C669.901 103.067 668.489 105.367 668.489 107.615H676.63C676.682 105.148 675.462 103.067 672.701 103.067Z" fill="#00BFFF"/>
<path d="M714.358 94.4865V116.748H711.905V113.896C710.981 115.887 709.542 117.12 707.026 117.12C703.186 117.12 700.695 113.922 700.695 109.041C700.695 104.223 703.366 101.025 707.424 101.025C709.517 101.025 710.981 102.155 711.751 103.671V94.4865H714.358ZM707.668 103.337C705.022 103.337 703.456 105.457 703.456 109.053C703.456 112.612 705.022 114.834 707.565 114.834C710.172 114.834 711.803 112.753 711.803 109.426V108.719C711.815 105.431 710.21 103.337 707.668 103.337Z" fill="#00BFFF"/>
<path d="M720.278 101.397L721.844 111.931L722.153 114.115H722.371C722.499 113.408 722.589 112.92 722.859 111.533L724.849 101.397H727.52L729.511 111.533C729.78 112.92 729.883 113.408 729.998 114.115H730.217L730.525 111.931L732.092 101.397H734.827L731.848 116.761H728.56L726.57 106.844C726.441 106.227 726.326 104.943 726.287 104.326H726.069C726.043 104.943 725.915 106.227 725.799 106.844L723.809 116.761H720.522L717.542 101.397H720.278Z" fill="#00BFFF"/>
<path d="M750.377 109.76H739.604C739.604 112.65 741.26 114.821 744.111 114.821C746.14 114.821 747.398 113.562 748.169 112.085L750.377 113.254C749.093 115.797 747 117.12 744.111 117.12C739.295 117.12 736.933 113.806 736.933 108.771C736.933 104.069 739.629 101.025 743.931 101.025C748.631 101.025 750.442 104.403 750.442 108.578C750.429 108.964 750.403 109.362 750.377 109.76ZM743.803 103.067C741.003 103.067 739.591 105.367 739.591 107.615H747.732C747.796 105.148 746.564 103.067 743.803 103.067Z" fill="#00BFFF"/>
<path d="M756.079 114.616H760.997V96.6445H756.387V94.4993H763.604V114.616H768.792V116.761H756.079V114.616Z" fill="#00BFFF"/>
<path d="M773.864 114.616H778.782V96.6445H774.172V94.4993H781.389V114.616H786.577V116.761H773.864V114.616Z" fill="#00BFFF"/>
<path d="M794.153 106.998V109.452H785.28V106.998H794.153Z" fill="#00BFFF"/>
<path d="M572.603 146.614H561.83C561.83 149.504 563.486 151.675 566.337 151.675C568.366 151.675 569.624 150.417 570.395 148.939L572.603 150.108C571.319 152.652 569.226 153.975 566.337 153.975C561.521 153.975 559.159 150.661 559.159 145.625C559.159 140.924 561.855 137.879 566.157 137.879C570.857 137.879 572.668 141.258 572.668 145.432C572.668 145.818 572.642 146.216 572.603 146.614ZM566.042 139.922C563.242 139.922 561.83 142.221 561.83 144.469H569.971C570.022 142.003 568.802 139.922 566.042 139.922Z" fill="#00BFFF"/>
<path d="M588.116 137.943C589.22 137.943 590.235 138.072 590.877 138.252V140.679C590.26 140.525 589.13 140.371 588.026 140.371C584.34 140.371 581.387 142.889 581.387 147.899V153.615H578.78V138.252H581.361V142.247C582.401 139.819 584.918 137.943 588.116 137.943Z" fill="#00BFFF"/>
<path d="M595.512 148.888L598.158 148.425C598.556 150.673 600.007 151.83 602.28 151.83C604.334 151.83 605.477 150.969 605.477 149.53C605.477 147.989 604.681 147.321 603.024 147.128L600.533 146.845C597.49 146.511 596.052 144.79 596.052 142.427C596.052 139.626 598.26 137.879 601.881 137.879C605.387 137.879 607.75 139.716 608.084 142.542L605.503 143.12C605.169 141.283 603.91 139.986 601.817 139.986C599.788 139.986 598.594 140.821 598.594 142.285C598.594 143.608 599.454 144.405 601.355 144.623L603.808 144.893C606.851 145.227 608.045 146.833 608.045 149.26C608.045 152.176 605.901 153.962 602.151 153.962C598.491 153.988 596.064 152.176 595.512 148.888Z" fill="#00BFFF"/>
<path d="M631.647 151.47H636.566V133.499H631.956V131.354H639.172V151.47H644.36V153.615H631.647V151.47Z" fill="#00BFFF"/>
<path d="M649.42 151.47H654.338V140.41H649.882V138.264H656.945V151.47H662.133V153.615H649.42V151.47ZM657.227 135.182H653.542V131.495H657.227V135.182Z" fill="#00BFFF"/>
<path d="M665.292 138.252H668.027L672.046 148.759C672.354 149.53 672.637 150.301 672.816 150.943H672.945C673.099 150.301 673.317 149.53 673.625 148.759L677.773 138.252H680.444L674.268 153.615H671.443L665.292 138.252Z" fill="#00BFFF"/>
<path d="M697.048 146.614H686.274C686.274 149.504 687.931 151.675 690.781 151.675C692.81 151.675 694.069 150.417 694.839 148.939L697.048 150.108C695.764 152.652 693.671 153.975 690.781 153.975C685.966 153.975 683.603 150.661 683.603 145.625C683.603 140.924 686.3 137.879 690.601 137.879C695.301 137.879 697.112 141.258 697.112 145.432C697.099 145.818 697.073 146.216 697.048 146.614ZM690.473 139.922C687.674 139.922 686.261 142.221 686.261 144.469H694.402C694.467 142.003 693.234 139.922 690.473 139.922Z" fill="#00BFFF"/>
<path d="M710.454 153.615H706.371V149.684H710.454V153.615Z" fill="#00BFFF"/>
<path d="M735.88 131.803H738.73L739.462 147.282C739.591 149.582 739.591 150.686 739.591 151.187H739.899C739.925 150.481 740.053 149.248 740.515 147.077L742.634 137.185H745.331L747.45 147.077C747.912 149.26 748.027 150.481 748.066 151.187H748.374C748.374 150.699 748.374 149.594 748.503 147.282L749.234 131.803H752.085L750.429 153.615H746.679L744.714 144.251C744.316 142.311 744.188 141.142 744.137 139.883H743.828C743.764 141.142 743.649 142.311 743.25 144.251L741.286 153.615H737.536L735.88 131.803Z" fill="#00BFFF"/>
<path d="M768.15 146.614H757.376C757.376 149.504 759.032 151.675 761.883 151.675C763.912 151.675 765.171 150.417 765.941 148.939L768.15 150.108C766.866 152.652 764.772 153.975 761.883 153.975C757.068 153.975 754.692 150.661 754.692 145.625C754.692 140.924 757.402 137.879 761.691 137.879C766.39 137.879 768.201 141.258 768.201 145.432C768.214 145.818 768.175 146.216 768.15 146.614ZM761.575 139.922C758.776 139.922 757.363 142.221 757.363 144.469H765.504C765.569 142.003 764.336 139.922 761.575 139.922Z" fill="#00BFFF"/>
<path d="M773.864 151.47H778.782V133.499H774.172V131.354H781.389V151.47H786.577V153.615H773.864V151.47Z" fill="#00BFFF"/>
<path d="M794.153 143.852V146.306H785.28V143.852H794.153Z" fill="#00BFFF"/>
<path d="M559.159 182.698C559.159 178.125 561.496 174.746 566.311 174.746C569.714 174.746 572.18 176.712 572.539 180.244L569.868 180.552C569.599 178.279 568.302 177.02 566.119 177.02C563.294 177.02 561.855 179.294 561.855 182.672C561.855 186.179 563.294 188.542 566.209 188.542C568.456 188.542 569.65 187.194 570.01 184.856L572.501 185.254C572.013 188.388 570.01 190.842 566.209 190.842C561.56 190.842 559.159 187.309 559.159 182.698Z" fill="#00BFFF"/>
<path d="M576.841 182.788C576.841 177.906 579.692 174.746 583.994 174.746C588.295 174.746 591.146 177.906 591.146 182.788C591.146 187.669 588.295 190.829 583.994 190.829C579.692 190.829 576.841 187.618 576.841 182.788ZM588.385 182.788C588.385 179.191 586.755 177.007 583.994 177.007C581.233 177.007 579.602 179.152 579.602 182.788C579.602 186.423 581.233 188.568 583.994 188.568C586.755 188.568 588.385 186.41 588.385 182.788Z" fill="#00BFFF"/>
<path d="M599.442 174.746C600.944 174.746 602.113 175.761 602.639 177.546C603.371 175.761 604.758 174.746 606.26 174.746C608.161 174.746 609.882 176.069 609.882 179.319V190.469H607.275V179.538C607.275 177.572 606.35 177.046 605.464 177.046C603.654 177.046 603.011 178.369 603.011 180.308V190.469H600.469V179.538C600.469 177.662 599.634 177.046 598.658 177.046C596.873 177.046 596.257 178.459 596.257 180.308V190.469H593.65V175.106H596.103V177.469C596.706 175.812 597.901 174.746 599.442 174.746Z" fill="#00BFFF"/>
<path d="M625.933 183.468H615.159C615.159 186.359 616.816 188.53 619.667 188.53C621.696 188.53 622.954 187.271 623.724 185.793L625.933 186.962C624.649 189.506 622.556 190.829 619.667 190.829C614.851 190.829 612.488 187.515 612.488 182.479C612.488 177.778 615.185 174.733 619.487 174.733C624.187 174.733 625.997 178.112 625.997 182.287C625.997 182.672 625.972 183.07 625.933 183.468ZM619.371 176.776C616.572 176.776 615.159 179.075 615.159 181.323H623.301C623.352 178.857 622.132 176.776 619.371 176.776Z" fill="#00BFFF"/>
<path d="M648.29 175.106H652.681V171.085L655.288 169.98V175.106H661.272V177.225H655.288V185.177C655.288 187.232 656.277 188.221 658.242 188.221C659.256 188.221 660.335 188.131 661.285 187.939V190.341C660.489 190.521 659.629 190.739 658.28 190.739C654.441 190.739 652.694 188.594 652.694 185.549V177.225H648.29V175.106Z" fill="#00BFFF"/>
<path d="M665.728 182.788C665.728 177.906 668.579 174.746 672.881 174.746C677.182 174.746 680.033 177.906 680.033 182.788C680.033 187.669 677.182 190.829 672.881 190.829C668.579 190.842 665.728 187.617 665.728 182.788ZM677.272 182.788C677.272 179.191 675.641 177.007 672.881 177.007C670.12 177.007 668.489 179.152 668.489 182.788C668.489 186.423 670.12 188.568 672.881 188.568C675.641 188.568 677.272 186.41 677.272 182.788Z" fill="#00BFFF"/>
<path d="M708.682 187.425L712.945 175.106H715.745L709.607 191.446C708.194 195.351 706.358 196.635 703.777 196.635C703.314 196.635 702.852 196.609 702.364 196.507V194.207C702.762 194.233 703.135 194.272 703.468 194.272C705.343 194.272 706.293 193.437 707 191.42L707.398 190.289L701.414 175.119H704.367L708.682 187.425Z" fill="#00BFFF"/>
<path d="M719.058 182.788C719.058 177.906 721.908 174.746 726.21 174.746C730.512 174.746 733.363 177.906 733.363 182.788C733.363 187.669 730.512 190.829 726.21 190.829C721.908 190.829 719.058 187.618 719.058 182.788ZM730.602 182.788C730.602 179.191 728.971 177.007 726.21 177.007C723.449 177.007 721.819 179.152 721.819 182.788C721.819 186.423 723.449 188.568 726.21 188.568C728.971 188.568 730.602 186.41 730.602 182.788Z" fill="#00BFFF"/>
<path d="M742.917 190.842C741.504 190.842 740.066 190.508 738.987 189.493C737.998 188.542 737.575 187.104 737.575 184.612V175.119H740.246V184.522C740.246 187.874 741.838 188.607 743.443 188.607C746.666 188.607 747.437 185.382 747.437 183.134V175.119H750.043V190.482H747.591V187.566C747 189.082 745.19 190.842 742.917 190.842Z" fill="#00BFFF"/>
<path d="M765.877 174.798C766.981 174.798 767.996 174.926 768.638 175.106V177.534C768.021 177.38 766.891 177.225 765.787 177.225C762.102 177.225 759.148 179.743 759.148 184.753V190.469H756.541V175.106H759.122V179.101C760.163 176.673 762.679 174.798 765.877 174.798Z" fill="#00BFFF"/>
<path d="M567.39 211.6C568.648 211.6 570.061 211.934 571.101 212.923C572.116 213.874 572.578 215.351 572.578 217.843V227.336H569.971V217.997C569.971 214.645 568.315 213.913 566.774 213.913C563.306 213.913 562.472 217.137 562.472 219.321V227.336H559.865V211.973H562.318V215.017C563.127 213.065 564.809 211.6 567.39 211.6Z" fill="#00BFFF"/>
<path d="M590.389 220.323H579.615C579.615 223.213 581.271 225.384 584.122 225.384C586.151 225.384 587.409 224.125 588.18 222.648L590.389 223.817C589.105 226.36 587.011 227.683 584.122 227.683C579.307 227.683 576.931 224.369 576.931 219.333C576.931 214.632 579.64 211.588 583.929 211.588C588.629 211.588 590.44 214.966 590.44 219.141C590.453 219.526 590.414 219.924 590.389 220.323ZM583.814 213.63C581.015 213.63 579.602 215.929 579.602 218.177H587.743C587.808 215.711 586.575 213.63 583.814 213.63Z" fill="#00BFFF"/>
<path d="M595.846 211.96L597.413 222.493L597.721 224.677H597.939C598.068 223.971 598.158 223.483 598.427 222.095L600.418 211.96H603.089L605.079 222.095C605.349 223.483 605.451 223.971 605.567 224.677H605.785L606.093 222.493L607.66 211.96H610.395L607.416 227.323H604.129L602.138 217.407C602.01 216.79 601.894 215.505 601.856 214.889H601.638C601.612 215.505 601.483 216.79 601.368 217.407L599.377 227.323H596.09L593.111 211.96H595.846Z" fill="#00BFFF"/>
<path d="M638.402 211.6C639.635 211.6 641.099 211.934 642.177 212.949C643.166 213.9 643.68 215.351 643.68 217.83V227.323H641.073V217.985C641.073 214.632 639.378 213.9 637.76 213.9C634.408 213.9 633.586 217.124 633.586 219.308V227.323H630.98V205.062H633.586V214.773C634.293 212.923 636.193 211.6 638.402 211.6Z" fill="#00BFFF"/>
<path d="M647.956 219.642C647.956 214.76 650.807 211.6 655.108 211.6C659.41 211.6 662.261 214.76 662.261 219.642C662.261 224.523 659.41 227.683 655.108 227.683C650.807 227.683 647.956 224.472 647.956 219.642ZM659.5 219.642C659.5 216.045 657.869 213.861 655.108 213.861C652.348 213.861 650.717 216.006 650.717 219.642C650.717 223.277 652.348 225.422 655.108 225.422C657.869 225.422 659.5 223.264 659.5 219.642Z" fill="#00BFFF"/>
<path d="M670.544 211.6C672.046 211.6 673.215 212.615 673.741 214.401C674.473 212.615 675.86 211.6 677.362 211.6C679.263 211.6 680.984 212.923 680.984 216.173V227.323H678.377V216.392C678.377 214.426 677.452 213.9 676.566 213.9C674.756 213.9 674.113 215.223 674.113 217.163V227.323H671.571V216.392C671.571 214.516 670.749 213.9 669.76 213.9C667.975 213.9 667.359 215.313 667.359 217.163V227.323H664.752V211.96H667.205V214.324C667.808 212.667 669.016 211.6 670.544 211.6Z" fill="#00BFFF"/>
<path d="M697.048 220.323H686.274C686.274 223.213 687.931 225.384 690.781 225.384C692.81 225.384 694.069 224.125 694.839 222.648L697.048 223.817C695.764 226.36 693.671 227.683 690.781 227.683C685.966 227.683 683.603 224.369 683.603 219.333C683.603 214.632 686.3 211.588 690.601 211.588C695.301 211.588 697.112 214.966 697.112 219.141C697.099 219.526 697.073 219.924 697.048 220.323ZM690.473 213.63C687.674 213.63 686.261 215.929 686.261 218.177H694.402C694.467 215.711 693.234 213.63 690.473 213.63Z" fill="#00BFFF"/>
<path d="M710.454 227.323H706.371V223.393H710.454V227.323Z" fill="#00BFFF"/>
</svg>
