<?xml version="1.0" encoding="utf-8"?>
<!-- Generator: Adobe Illustrator 25.2.3, SVG Export Plug-In . SVG Version: 6.00 Build 0)  -->
<svg version="1.1" id="Camada_1" xmlns="http://www.w3.org/2000/svg" xmlns:xlink="http://www.w3.org/1999/xlink" x="0px" y="0px"
	 viewBox="0 0 1950 2335.8" style="enable-background:new 0 0 1950 2335.8;" xml:space="preserve">
<style type="text/css">
	.st0{fill:#D7F7FF;stroke:#00BFFF;stroke-width:3;stroke-linecap:round;stroke-linejoin:round;stroke-miterlimit:10;}
	.st1{fill:#FFFFFF;stroke:#00BFFF;stroke-width:3;stroke-linecap:round;stroke-miterlimit:10;}
	.st2{fill:none;stroke:#00BFFF;stroke-width:3;stroke-linecap:round;stroke-miterlimit:10;}
	.st3{fill:#00BFFF;}
	.st4{fill:#FFFFFF;}
</style>
<path class="st0" d="M611.5,1890.8h-191c-166.6,0-301.7-135.1-301.7-301.7V888.3c0-166.6,135.1-301.7,301.7-301.7h191
	c166.6,0,301.7,135.1,301.7,301.7v700.8C913.2,1755.7,778.1,1890.8,611.5,1890.8z"/>
<path class="st1" d="M158.4,1416.1l124.9,95.9c0,0,38.3,25.8,38,134.5c0,8.5,6.8,15.4,15.3,15.4c9.6,0,13.9-8.2,13.9-18.3l1.4-34.5
	c0-35.8,37.7-64.9,73.6-64.9h79.7c46.4,0,73.5-29.7,73.5-29.7s24.6-31.8,69.3-31.8c57.8,0,60.3,57.8,60.3,57.8v104.7
	c0,6.8,5.5,12.3,12.3,12.3c6.7,0,12.3-5.5,12.3-12.3c0.4-109.1,38.6-137.4,38.6-137.4l100.4-90.1c0,0,0-304.8,0-452.1
	c0-169-114.8-237.6-141.6-255.6c-24.7-16.7-76.6-43.3-105.7,0.4c-30.2,45.4-59,58.8-110.3,58.8s-90.3-31.7-114.1-66.9
	c-14.3-21.1-39.7-25.5-76.8-5.1C252,736.7,211.3,800.3,188.3,857.3c-19.9,49.3-29.7,102.1-29.7,155.3v405.1"/>
<path class="st1" d="M669.7,1594.2v106.3c0,27.6-22.4,50.1-50.1,50.1h-10c-27.6,0-50.1-22.4-50.1-50.1v-11.8h-73.4v11.8
	c0,27.6-22.4,50.1-50.1,50.1c-27.6,0-50.1-22.4-50.1-50.1v-43c0-26.6,22.5-47.7,49.1-45.9c34,2.3,76.8,3.2,98.5-4.8
	c39.3-14.3,56.6-37.4,71.1-47.5c0,0,15.9-14.4,40-7.5C656.6,1555.1,669.7,1569.9,669.7,1594.2z"/>
<path class="st2" d="M284.2,1153.5c46.9-33.9,106.2-38.3,148.5,0"/>
<path class="st3" d="M387,1127.9c10.8,7.3,17.8,19.6,17.8,33.5c0,22.3-18.1,40.5-40.5,40.5c-22.3,0-40.4-18.1-40.4-40.5
	c0-14.4,7.5-27.1,18.9-34.2"/>
<path class="st2" d="M328,1216.6c12,8.1,47.3,14.8,66.7,0.7"/>
<path class="st2" d="M751.2,1153.8c-46.9-33.9-106.2-38.3-148.5,0"/>
<path class="st3" d="M648.4,1128.2c-10.8,7.3-17.8,19.6-17.8,33.5c0,22.3,18.1,40.4,40.4,40.4c22.3,0,40.5-18.1,40.5-40.4
	c0-14.4-7.5-27.1-18.9-34.2"/>
<path class="st2" d="M707.4,1217c-12,8.1-47.3,14.8-66.7,0.7"/>
<path class="st2" d="M564,1201.8v229.7c0,32.4-26.3,58.6-58.7,58.6s-58.7-26.2-58.7-58.6v-9.1"/>
<path class="st2" d="M360.7,1265.4c54.6,0,98.9-44.3,98.9-98.9s-44.3-98.9-98.9-98.9s-98.9,44.3-98.9,98.9
	S306.1,1265.4,360.7,1265.4z"/>
<path class="st2" d="M677.1,1265.4c54.6,0,98.9-44.3,98.9-98.9s-44.3-98.9-98.9-98.9c-54.6,0-98.9,44.3-98.9,98.9
	S622.4,1265.4,677.1,1265.4z"/>
<path class="st2" d="M459.7,1170.6c0-28.9,26.7-52.3,59.6-52.3c32.9,0,59.6,23.4,59.6,52.3"/>
<path class="st2" d="M498.2,1055.7c6.8,24.6-7.6,50.1-32.2,56.9"/>
<path class="st2" d="M541.8,1053.9c-6.8,24.6,7.6,50.1,32.2,56.9"/>
<path class="st2" d="M602.7,1095.9c-14.5-13.9-18.9-36.7-13.9-49.2c3.8-9.5,14.1-20.5,43.3-25.2c19.7-3.1,50.6-11.2,102.1,11.3
	c23.1,10.1,38.4,52.8,38.4,52.8s3.5,12.2-12.4,3.6c-10.8-5.9-22.2-13-48.6-21.7c-26.5-8.7-54.4-2.1-70.8,6.9"/>
<path class="st2" d="M434.3,1095.8c14.5-13.9,18.9-36.7,13.9-49.2c-3.8-9.5-14.1-20.5-43.3-25.2c-19.7-3.1-50.6-11.2-102.1,11.3
	c-23.1,10.1-38.4,52.8-38.4,52.8s-3.5,12.2,12.4,3.6c10.8-5.9,22.2-13,48.6-21.7c26.5-8.7,54.4-2.1,70.8,6.9"/>
<path class="st2" d="M423.6,1652.4c36.1,2.9,166.1,24.6,209.5-50.6"/>
<path class="st2" d="M615.7,1586l1.5-1.5c8.7-8.9,23.1-9,31.9-0.2c8.8,8.8,8.8,23,0,31.8l-0.2,0.2"/>
<path class="st2" d="M118.1,1362.2c-51.1,0-92.4-54.6-92.4-122s41.4-122,92.4-122"/>
<path class="st2" d="M914,1362.2c51.1,0,92.4-54.6,92.4-122s-41.4-122-92.4-122"/>
<path class="st2" d="M396.1,1074.7l-18.8,21.7"/>
<path class="st2" d="M416.3,1084.8l-34.7,43.3"/>
<path class="st2" d="M313.8,1180.2l-34.7,43.3"/>
<path class="st2" d="M651.8,1180.2l-34.7,43.3"/>
<path class="st2" d="M713.9,1074.7l-34.7,43.3"/>
<path class="st2" d="M735.6,1084.8l-20.2,28.9"/>
<path class="st2" d="M655.4,485.5c-32.3,0-58.5-31.5-58.5-70.3s26.2-70.3,58.5-70.3c18.6,0,35.2,10.4,45.9,26.7
	c-13.7-74-61-128.7-117.4-128.7c-26.7,0-51.4,12.3-71.5,33.2c-20.1-20.8-44.8-33.2-71.5-33.2c-67,0-121.3,77.3-121.3,172.6
	s54.3,172.6,121.3,172.6c26.7,0,51.4-12.3,71.5-33.2c20.1,20.8,44.8,33.2,71.5,33.2c56.6,0,104.1-55,117.5-129.5
	C690.7,474.9,674.1,485.5,655.4,485.5z"/>
<path class="st2" d="M432.4,2254.6h469.8"/>
<path class="st4" d="M832.3,2254.6l-154.8-194.9l4.4-4.4c15-15,16-39.1,2.3-55.3l-68.7-83.9v-51.2c0-15.2-12.3-27.5-27.5-27.5
	s-27.5,12.3-27.5,27.5v40.7"/>
<path class="st2" d="M832.3,2254.6l-154.8-194.9l4.4-4.4c15-15,16-39.1,2.3-55.3l-68.7-83.9v-51.2c0-15.2-12.3-27.5-27.5-27.5
	s-27.5,12.3-27.5,27.5v40.7"/>
<path class="st4" d="M631.4,1997.8l-140.1-173.4c-11.4-14.1-32.1-16.4-46.3-5.1c-14.4,11.4-16.6,32.4-5.1,46.6l119.7,145"/>
<path class="st2" d="M631.4,1997.8l-140.1-173.4c-11.4-14.1-32.1-16.4-46.3-5.1c-14.4,11.4-16.6,32.4-5.1,46.6l119.7,145"/>
<path class="st2" d="M559,2010.9l-92.7-111.5c-11.4-14.2-32.1-16.4-46.3-5.1c-14.4,11.4-16.6,32.4-5.1,46.6l92.7,114.7"/>
<path class="st2" d="M507.6,2055.8l-37.3-45.6c-11.4-14.1-32.1-16.4-46.3-5.1c-14.4,11.4-16.6,32.4-5.1,46.6l37.4,46.2"/>
<path class="st2" d="M456.2,2097.9l-22.8-27.2c-11.4-14.1-32.1-16.4-46.3-5.1c-14.4,11.4-16.6,32.4-5.1,46.6l117.8,142.4"/>
<path class="st0" d="M1812.3,2167.5H995c-24.3,0-44-19.7-44-44v-194.3c0-24.3,19.7-44,44-44h817.3c24.3,0,44,19.7,44,44v194.3
	C1856.3,2147.8,1836.6,2167.5,1812.3,2167.5z"/>
<path class="st3" d="M987.1,1985.1c-1.7,0-3.1-0.4-4-1.3s-1.4-2.1-1.4-3.7s0.5-2.8,1.4-3.7c0.9-0.9,2.3-1.3,4-1.3l35.9-0.1v-10.1
	c0-1.2-0.4-2.2-1.1-2.9c-0.7-0.7-1.7-1-2.9-1h-26.2c-3.6,0-6.4-1-8.4-2.9s-2.9-4.7-2.9-8.4v-10.3c0-3.6,1-6.4,2.9-8.4
	s4.7-2.9,8.3-2.9l65.5-0.1c1.7,0,3.1,0.4,4,1.3c1,0.9,1.4,2.1,1.4,3.6c0,1.6-0.5,2.9-1.4,3.7c-0.9,0.9-2.3,1.3-4,1.3l-35.3,0.1v8.9
	c0,1.2,0.3,2.2,1.1,2.9c0.7,0.7,1.7,1,2.9,1h26.2c3.6,0,6.4,1,8.4,2.9c1.9,1.9,2.9,4.7,2.9,8.4v11.4c0,3.6-1,6.4-2.9,8.4
	s-4.7,2.9-8.3,2.9L987.1,1985.1z"/>
<path class="st3" d="M1069.9,1939.4c0-3.6,0.9-6.4,2.9-8.4c1.9-2,4.7-2.9,8.4-2.9h18.8c3.6,0,6.4,1,8.4,2.9c1.9,2,2.9,4.7,2.9,8.4
	v34.3c0,3.6-1,6.4-2.9,8.4s-4.7,2.9-8.4,2.9h-18.8c-3.7,0-6.5-1-8.4-2.9s-2.9-4.7-2.9-8.4V1939.4z"/>
<path class="st3" d="M1116.9,1939.3c0-3.6,1-6.4,2.9-8.4c2-2,4.7-2.9,8.4-2.9l46.1-0.1c3.6,0,6.3,0.9,8.2,2.6
	c1.9,1.7,2.9,4.2,2.9,7.4h7.1c0-3.2,0.9-5.7,2.8-7.4c1.9-1.7,4.6-2.6,8.2-2.6l46-0.1c3.6,0,6.4,1,8.4,2.9c1.9,2,2.9,4.7,2.9,8.4
	v34.3c0,3.6-1,6.4-2.9,8.4s-4.7,2.9-8.3,2.9h-18.9c-3.6,0-6.4-1-8.3-2.9s-2.9-4.7-2.9-8.4v-31.6c0-1.2-0.3-2.2-1.1-2.9
	c-0.7-0.7-1.7-1.1-2.9-1.1h-1.8c-1.2,0-2.2,0.3-2.9,1.1c-0.7,0.7-1,1.7-1,2.9v31.6c0,3.6-1,6.4-2.9,8.4s-4.7,2.9-8.4,3h-18.8
	c-3.6,0-6.4-1-8.4-2.9c-1.9-1.9-2.9-4.7-2.9-8.4l-0.1-31.6c0-1.2-0.3-2.2-1.1-2.9c-0.7-0.7-1.7-1.1-2.9-1.1h-2
	c-1.2,0-2.2,0.4-2.9,1.1c-0.7,0.7-1.1,1.7-1.1,2.9l0.1,31.6c0,3.6-1,6.4-2.9,8.4s-4.7,2.9-8.4,2.9h-18.8c-3.6,0-6.4-1-8.4-2.9
	c-1.9-1.9-2.9-4.7-2.9-8.4L1116.9,1939.3z"/>
<path class="st3" d="M1277.9,1984.6c-3.6,0-6.4-1-8.4-2.9s-2.9-4.7-2.9-8.4V1939c0-3.6,1-6.4,2.9-8.4s4.7-2.9,8.4-2.9l70.2-0.1
	c3.6,0,6.4,1,8.4,2.9c1.9,1.9,2.9,4.7,2.9,8.4v10.6c0,3.6-1,6.4-2.9,8.4s-4.7,2.9-8.3,3l-40,0.1v12.3c0,3.6-1,6.4-2.9,8.4
	s-4.7,2.9-8.3,2.9H1277.9z M1313.9,1951.6c1.2,0,2.2-0.3,2.9-1.1c0.7-0.7,1.1-1.7,1.1-2.9v-6.6c0-1.2-0.3-2.2-1.1-2.9
	c-0.7-0.7-1.7-1.1-2.9-1.1h-5.9v14.6H1313.9z"/>
<path class="st3" d="M1364.6,1938.9c0-3.7,1-6.5,2.9-8.4s4.7-2.9,8.4-2.9h18.8c3.6,0,6.4,0.9,8.4,2.9c1.9,1.9,2.9,4.7,2.9,8.4
	l0.1,35.6h35.3c1.7,0,3.1,0.4,4,1.3s1.4,2.1,1.4,3.7s-0.5,2.9-1.4,3.7c-1,0.9-2.3,1.3-4,1.3l-65.5,0.1c-3.7,0-6.5-1-8.4-2.9
	s-2.9-4.7-2.9-8.4L1364.6,1938.9z"/>
<path class="st3" d="M1452.3,1938.8c0-3.6,0.9-6.4,2.9-8.4c1.9-2,4.7-2.9,8.4-2.9h18.8c3.6,0,6.4,1,8.4,2.9c1.9,1.9,2.9,4.7,2.9,8.4
	l0.1,34.3c0,3.6-1,6.4-2.9,8.4s-4.7,2.9-8.3,2.9h-18.8c-3.7,0-6.5-1-8.4-2.9s-2.9-4.7-2.9-8.4L1452.3,1938.8z"/>
<path class="st3" d="M1499.3,1938.7c0-3.6,1-6.4,2.9-8.4s4.7-2.9,8.3-2.9l65.5-0.1c1.7,0,3.1,0.4,4,1.3s1.4,2.1,1.4,3.6
	c0,1.6-0.5,2.9-1.4,3.7c-0.9,0.9-2.3,1.3-4,1.3l-35.3,0.1l0.1,36.9l35.3-0.1c1.7,0,3.1,0.4,4,1.3s1.4,2.1,1.4,3.7s-0.5,2.9-1.4,3.7
	c-0.9,0.9-2.3,1.3-4,1.3l-65.5,0.1c-3.6,0-6.4-1-8.4-2.9c-2-2-2.9-4.7-2.9-8.4V1938.7z"/>
<path class="st3" d="M1587,1938.5c0-3.6,0.9-6.4,2.9-8.4c1.9-1.9,4.7-2.9,8.4-2.9h18.8c3.6,0,6.4,1,8.4,2.9c1.9,1.9,2.9,4.7,2.9,8.4
	l0.1,34.3c0,3.6-1,6.4-2.9,8.4s-4.7,2.9-8.3,2.9h-18.8c-3.7,0-6.5-1-8.4-2.9s-2.9-4.7-2.9-8.4L1587,1938.5z"/>
<path class="st3" d="M1634,1932.1c0-1.6,0.5-2.8,1.4-3.7s2.3-1.3,4-1.3l79.6-0.1c1.7,0,3.1,0.4,4,1.3s1.4,2.1,1.4,3.7
	s-0.5,2.9-1.4,3.7c-1,0.9-2.3,1.3-4,1.3h-19.1v35.6c0,3.6-1,6.4-2.9,8.4s-4.7,2.9-8.4,2.9h-18.8c-3.7,0-6.5-1-8.4-2.9
	s-2.9-4.7-2.9-8.4V1937h-19.1c-1.7,0-3.1-0.4-4-1.3C1634.4,1935,1634,1933.7,1634,1932.1z"/>
<path class="st3" d="M1741.4,1960.3c-3.6,0-6.4-1-8.4-2.9c-1.9-1.9-2.9-4.7-2.9-8.4v-10.7c0-3.6,1-6.4,2.9-8.4s4.7-2.9,8.4-2.9h18.8
	c3.6,0,6.4,1,8.4,2.9c1.9,1.9,2.9,4.7,2.9,8.4v12.6c0,1.2,0.3,2.2,1.1,2.9c0.7,0.7,1.7,1,2.9,1h2c1.2,0,2.2-0.3,2.9-1.1
	c0.7-0.7,1.1-1.7,1.1-2.9v-12.6c0-3.6,1-6.4,2.9-8.4c1.9-1.9,4.7-2.9,8.4-2.9h18.8c3.6,0,6.4,1,8.4,2.9c1.9,2,2.9,4.7,2.9,8.4v10.7
	c0,3.6-1,6.4-2.9,8.4s-4.7,2.9-8.4,2.9h-14.5v12.3c0,3.6-0.9,6.4-2.9,8.4c-1.9,2-4.7,2.9-8.4,2.9H1767c-3.6,0-6.4-1-8.4-2.9
	s-2.9-4.7-2.9-8.4v-12.3L1741.4,1960.3z"/>
<path class="st3" d="M1191.7,2006.2c0-2,0.5-3.4,1.5-4.5c1-1,2.5-1.5,4.5-1.6h0.2c1.9,0,3.4,0.5,4.5,1.5c1,1,1.5,2.5,1.5,4.5
	l0.1,44.8c0,2-0.5,3.4-1.5,4.5c-1,1-2.5,1.5-4.5,1.6h-0.2c-1.9,0-3.4-0.5-4.5-1.5c-1-1-1.6-2.5-1.6-4.5V2006.2z"/>
<path class="st3" d="M1211.1,2057c-0.9,0-1.6-0.2-2.1-0.6c-0.5-0.4-0.7-1-0.7-1.7c0-0.7,0.2-1.2,0.7-1.6s1.2-0.6,2.1-0.6h8.9v-20
	c0-0.6-0.2-1.1-0.5-1.4s-0.8-0.5-1.4-0.5h-4.2c-1.9,0-3.4-0.5-4.5-1.5c-1-1-1.5-2.5-1.5-4.5v-18.5c0-1.9,0.5-3.4,1.5-4.5
	c1-1,2.5-1.6,4.5-1.6h12.3c0.9,0,1.6,0.2,2.1,0.6s0.7,0.9,0.7,1.6s-0.2,1.2-0.7,1.7c-0.5,0.4-1.2,0.6-2.1,0.6h-6.1v19.7
	c0,0.6,0.2,1.1,0.5,1.4s0.8,0.5,1.4,0.5h4.2c1.9,0,3.4,0.5,4.5,1.5c1,1,1.5,2.5,1.5,4.5v18.8c0,1.9-0.5,3.4-1.5,4.5
	c-1,1-2.5,1.5-4.5,1.6H1211.1z"/>
<path class="st3" d="M1259.1,2002.3c0-0.7,0.2-1.2,0.7-1.6s1.2-0.6,2.1-0.6h24.4c0.9,0,1.6,0.2,2.1,0.6s0.7,0.9,0.7,1.6
	s-0.2,1.3-0.7,1.7c-0.5,0.4-1.2,0.6-2.1,0.6h-6.1l0.1,46.4c0,1.9-0.5,3.4-1.5,4.5c-1,1-2.5,1.5-4.5,1.6h-0.2c-1.9,0-3.4-0.5-4.5-1.5
	c-1-1-1.5-2.5-1.5-4.5l-0.1-46.4h-6.1c-0.9,0-1.6-0.2-2.1-0.6C1259.3,2003.5,1259.1,2003,1259.1,2002.3z"/>
<path class="st3" d="M1292.5,2006c0-1.9,0.5-3.4,1.5-4.5c1-1,2.5-1.5,4.5-1.6h0.2c1.9,0,3.4,0.5,4.5,1.5c1,1,1.6,2.5,1.6,4.5v20.1
	h4.1v-20.1c0-2,0.5-3.4,1.5-4.5c1-1,2.5-1.5,4.5-1.6h0.2c1.9,0,3.4,0.5,4.5,1.5c1,1,1.6,2.5,1.6,4.5l0.1,44.8c0,2-0.5,3.4-1.5,4.5
	c-1,1-2.5,1.6-4.5,1.6h-0.2c-1.9,0-3.4-0.5-4.5-1.5c-1-1-1.5-2.5-1.5-4.5v-20.3h-4.1v20.3c0,1.9-0.5,3.4-1.5,4.5
	c-1,1-2.5,1.6-4.5,1.6h-0.2c-1.9,0-3.4-0.5-4.5-1.5c-1-1-1.6-2.5-1.6-4.5L1292.5,2006z"/>
<path class="st3" d="M1324.4,2035.4c0-1.9,0.3-3.4,1-4.5c0.7-1,1.7-1.6,3-1.6v-2c-1.3,0-2.3-0.5-3-1.6c-0.7-1-1.1-2.5-1.1-4.5v-15.4
	c0-1.9,0.5-3.4,1.5-4.5c1-1,2.5-1.5,4.5-1.5h12.3c0.9,0,1.6,0.2,2.1,0.6s0.7,0.9,0.7,1.6s-0.2,1.3-0.7,1.7c-0.5,0.4-1.2,0.6-2.1,0.6
	h-6.1v21.6h6.1c0.9,0,1.6,0.2,2.1,0.6s0.7,0.9,0.7,1.6s-0.2,1.3-0.7,1.7c-0.5,0.4-1.2,0.6-2.1,0.6h-6.1v21.9h6.1
	c0.9,0,1.6,0.2,2.1,0.6c0.5,0.4,0.7,0.9,0.7,1.6s-0.2,1.3-0.7,1.7s-1.2,0.6-2.1,0.6h-12.3c-1.9,0-3.4-0.5-4.5-1.5
	c-1-1-1.5-2.5-1.5-4.5L1324.4,2035.4z"/>
<path class="st3" d="M1371.9,2005.9c0-1.9,0.5-3.4,1.5-4.5c1-1,2.5-1.6,4.5-1.6h0.2c2,0,3.4,0.5,4.5,1.5c1,1,1.5,2.5,1.5,4.5
	l0.1,44.4c0,0.6,0.2,1.1,0.5,1.4s0.8,0.5,1.4,0.5h0.2c0.6,0,1.1-0.2,1.4-0.5c0.3-0.4,0.5-0.8,0.5-1.4l-0.1-44.4
	c0-1.9,0.5-3.4,1.5-4.5c1-1,2.5-1.5,4.5-1.5h0.1c2,0,3.4,0.5,4.5,1.5c1,1,1.5,2.5,1.5,4.5l0.1,43.2c0,2.5-0.7,4.4-2,5.7
	s-3.2,2-5.7,2h-13.2c-2.5,0-4.4-0.7-5.7-2c-1.3-1.3-2-3.2-2-5.7L1371.9,2005.9z"/>
<path class="st3" d="M1403.8,2005.8c0-1.9,0.5-3.4,1.5-4.5c1-1,2.5-1.5,4.5-1.5h0.2c1.9,0,3.4,0.5,4.5,1.5c1,1,1.5,2.5,1.6,4.5
	l0.1,46.4h6.1c0.9,0,1.6,0.2,2.1,0.6s0.7,1,0.7,1.7s-0.2,1.2-0.7,1.6c-0.5,0.4-1.2,0.6-2.1,0.6h-12.2c-1.9,0-3.4-0.5-4.5-1.5
	c-1-1-1.5-2.5-1.5-4.5L1403.8,2005.8z"/>
<path class="st3" d="M1428.3,2002c0-0.7,0.2-1.2,0.7-1.6s1.2-0.6,2.1-0.6h24.4c0.9,0,1.6,0.2,2.1,0.6s0.7,0.9,0.7,1.6
	s-0.2,1.2-0.7,1.7c-0.5,0.4-1.2,0.6-2.1,0.6h-6.1l0.1,46.4c0,2-0.5,3.4-1.5,4.5c-1,1-2.5,1.5-4.5,1.6h-0.2c-1.9,0-3.4-0.5-4.5-1.5
	c-1-1-1.5-2.5-1.5-4.5l-0.1-46.4h-6.1c-0.9,0-1.6-0.2-2.1-0.6C1428.5,2003.3,1428.3,2002.7,1428.3,2002z"/>
<path class="st3" d="M1461.8,2005.8c0-1.9,0.5-3.4,1.5-4.5c1-1,2.5-1.5,4.5-1.5h0.2c1.9,0,3.4,0.5,4.5,1.5c1,1,1.5,2.5,1.6,4.5
	l0.1,44.8c0,1.9-0.5,3.4-1.5,4.5c-1,1-2.5,1.6-4.5,1.6h-0.2c-1.9,0-3.4-0.5-4.5-1.5c-1-1-1.5-2.5-1.5-4.5L1461.8,2005.8z"/>
<path class="st3" d="M1477.8,2005.7c0-1.9,0.5-3.4,1.5-4.5c1-1,2.5-1.5,4.5-1.5h9.8c1.7,0,2.9,0.4,3.8,1.1c0.9,0.8,1.3,1.9,1.3,3.3
	h2.8c0-1.4,0.4-2.5,1.3-3.3s2.1-1.2,3.7-1.2h9.8c2,0,3.4,0.5,4.5,1.5c1,1,1.5,2.5,1.6,4.5l0.1,44.8c0,1.9-0.5,3.4-1.5,4.5
	c-1,1-2.5,1.5-4.5,1.6h-0.2c-2,0-3.4-0.5-4.5-1.5c-1-1-1.5-2.5-1.5-4.5l-0.1-44.4c0-0.6-0.2-1.1-0.5-1.4c-0.4-0.3-0.8-0.5-1.4-0.5
	h-0.2c-0.6,0-1.1,0.2-1.4,0.5c-0.4,0.3-0.5,0.8-0.5,1.4l0.1,44.4c0,1.9-0.5,3.4-1.5,4.5c-1,1-2.5,1.5-4.5,1.6h-0.2
	c-2,0-3.4-0.5-4.5-1.5c-1-1-1.5-2.5-1.6-4.5l-0.1-44.5c0-0.6-0.2-1.1-0.5-1.4c-0.4-0.3-0.8-0.5-1.4-0.5h-0.2c-0.6,0-1.1,0.2-1.4,0.5
	c-0.4,0.3-0.5,0.8-0.5,1.4l0.1,44.5c0,1.9-0.5,3.4-1.5,4.5c-1,1-2.5,1.5-4.5,1.6h-0.2c-1.9,0-3.4-0.5-4.5-1.5c-1-1-1.6-2.5-1.6-4.5
	L1477.8,2005.7z"/>
<path class="st3" d="M1526.4,2005.7c0-1.9,0.5-3.4,1.5-4.5c1-1,2.5-1.6,4.5-1.6h16.4c1.9,0,3.4,0.5,4.5,1.5c1,1,1.6,2.5,1.6,4.5
	l0.1,44.8c0,1.9-0.5,3.4-1.5,4.5c-1,1-2.5,1.6-4.5,1.6h-0.2c-1.9,0-3.4-0.5-4.5-1.5c-1-1-1.5-2.5-1.6-4.5v-20.3h-4.1v20.3
	c0,1.9-0.5,3.4-1.5,4.5c-1,1-2.5,1.5-4.5,1.5h-0.2c-1.9,0-3.4-0.5-4.5-1.5c-1-1-1.5-2.5-1.6-4.5L1526.4,2005.7z M1538.6,2025.7h4.1
	V2006c0-0.6-0.2-1.1-0.5-1.4c-0.3-0.4-0.8-0.5-1.4-0.5h-0.2c-0.6,0-1.1,0.2-1.4,0.5c-0.3,0.4-0.5,0.8-0.5,1.4L1538.6,2025.7z"/>
<path class="st3" d="M1558.2,2001.8c0-0.7,0.2-1.2,0.7-1.6s1.2-0.6,2.1-0.6h24.4c0.9,0,1.6,0.2,2.1,0.6s0.7,0.9,0.7,1.6
	s-0.2,1.3-0.7,1.7c-0.5,0.4-1.2,0.6-2.1,0.6h-6.1l0.1,46.4c0,1.9-0.5,3.4-1.5,4.5c-1,1-2.5,1.5-4.5,1.6h-0.2c-2,0-3.4-0.5-4.5-1.5
	c-1-1-1.5-2.5-1.5-4.5l-0.1-46.4h-6.1c-0.9,0-1.6-0.2-2.1-0.6C1558.5,2003.1,1558.2,2002.5,1558.2,2001.8z"/>
<path class="st3" d="M1591.7,2035c0-2,0.3-3.4,1.1-4.5c0.7-1,1.7-1.5,3-1.5v-2c-1.3,0-2.3-0.5-3-1.5s-1.1-2.5-1.1-4.5v-15.4
	c0-1.9,0.5-3.4,1.5-4.5c1-1,2.5-1.6,4.5-1.6h12.3c0.9,0,1.6,0.2,2.1,0.6s0.7,0.9,0.7,1.6s-0.2,1.3-0.7,1.7c-0.5,0.4-1.2,0.6-2.1,0.6
	h-6.1v21.6h6.1c0.9,0,1.6,0.2,2.1,0.6s0.7,0.9,0.7,1.6s-0.2,1.2-0.7,1.7c-0.5,0.4-1.2,0.6-2.1,0.6h-6.1v21.9h6.1
	c0.9,0,1.6,0.2,2.1,0.6c0.5,0.4,0.7,0.9,0.7,1.6s-0.2,1.3-0.7,1.7c-0.5,0.4-1.2,0.6-2.1,0.6h-12.3c-1.9,0-3.4-0.5-4.5-1.5
	c-1-1-1.6-2.5-1.6-4.5L1591.7,2035z"/>
<path class="st3" d="M990.2,2129.7c-1.3,0-2.4-0.3-3.1-1c-0.7-0.6-1.1-1.6-1.1-2.8s0.4-2.1,1.1-2.8c0.7-0.7,1.8-1,3.1-1h23.5v-14.6
	c0-0.9-0.3-1.6-0.8-2.2c-0.5-0.5-1.3-0.8-2.3-0.8h-16c-2.9,0-5.1-0.8-6.6-2.3s-2.3-3.7-2.3-6.6v-14.1c0-2.9,0.8-5.1,2.3-6.6
	s3.7-2.3,6.6-2.3l40.8-0.1c1.4,0,2.4,0.3,3.1,0.9c0.7,0.6,1.1,1.5,1.1,2.7s-0.4,2.2-1.1,2.8c-0.7,0.7-1.8,1-3.1,1h-21.8v13.9
	c0,0.9,0.3,1.6,0.8,2.2c0.5,0.5,1.3,0.8,2.2,0.8h16c2.9,0,5.1,0.8,6.6,2.3s2.3,3.7,2.3,6.6v14.8c0,2.9-0.8,5.1-2.3,6.6
	s-3.7,2.3-6.6,2.3L990.2,2129.7z"/>
<path class="st3" d="M1046.3,2082.5c0-3.1,0.8-5.6,2.5-7.2c1.7-1.7,4.1-2.5,7.2-2.5l43.4-0.1c3.2,0,5.6,0.8,7.3,2.5
	c1.7,1.7,2.5,4.1,2.5,7.2l0.1,37.4c0,3.1-0.8,5.6-2.5,7.2c-1.7,1.7-4.1,2.5-7.3,2.5l-43.4,0.1c-3.1,0-5.6-0.8-7.2-2.5
	c-1.7-1.7-2.5-4.1-2.5-7.2L1046.3,2082.5z M1074.2,2119.1c0,1,0.3,1.7,0.8,2.2s1.3,0.8,2.3,0.8h1.1c0.9,0,1.7-0.3,2.2-0.8
	c0.6-0.5,0.8-1.3,0.8-2.2l-0.1-35.9c0-1-0.3-1.7-0.8-2.2s-1.3-0.8-2.2-0.8h-1.1c-1,0-1.7,0.3-2.3,0.8c-0.5,0.5-0.8,1.3-0.8,2.2
	L1074.2,2119.1z"/>
<path class="st3" d="M1122.9,2129.5c-2.9,0-5.1-0.8-6.6-2.3s-2.3-3.7-2.3-6.6l-0.1-39.2c0-2.9,0.8-5.1,2.3-6.6s3.7-2.3,6.6-2.3
	l45.3-0.1c2.9,0,5.1,0.8,6.6,2.3s2.3,3.7,2.3,6.6v14.1c0,2.9-0.8,5.1-2.3,6.6s-3.7,2.3-6.6,2.3h-26.2v16.2c0,2.9-0.8,5.1-2.2,6.6
	c-1.5,1.5-3.7,2.3-6.6,2.3L1122.9,2129.5z M1146.1,2097.4c1,0,1.7-0.3,2.2-0.8s0.8-1.3,0.8-2.3v-11.5c0-1-0.3-1.7-0.8-2.3
	s-1.2-0.8-2.2-0.8h-4.1v17.7L1146.1,2097.4z"/>
<path class="st3" d="M1181.2,2081.4c0-2.9,0.8-5.1,2.3-6.6s3.7-2.3,6.6-2.3h10.2c2.8,0,5,0.8,6.5,2.3s2.3,3.7,2.3,6.6v15.8h7.2
	v-15.8c0-2.9,0.8-5.1,2.3-6.6s3.7-2.3,6.6-2.3h10.2c2.9,0,5.1,0.8,6.6,2.3s2.3,3.7,2.3,6.6l0.1,39.2c0,2.9-0.8,5.1-2.2,6.6
	c-1.5,1.5-3.7,2.3-6.6,2.3h-10.2c-2.9,0-5.1-0.8-6.6-2.2c-1.5-1.5-2.3-3.7-2.3-6.6v-16h-7.2v16c0,2.9-0.8,5.1-2.3,6.6
	s-3.7,2.3-6.5,2.3h-10.2c-2.9,0-5.1-0.8-6.6-2.3s-2.3-3.7-2.3-6.6L1181.2,2081.4z"/>
<path class="st3" d="M1248.7,2081.3c0-2.9,0.8-5.1,2.2-6.6c1.5-1.5,3.7-2.3,6.6-2.3h10.2c2.8,0,5,0.8,6.5,2.3s2.3,3.7,2.3,6.6
	l0.1,39.2c0,2.9-0.8,5.1-2.3,6.6s-3.7,2.3-6.5,2.3h-10.2c-2.9,0-5.1-0.8-6.6-2.3s-2.3-3.7-2.3-6.6L1248.7,2081.3z"/>
<path class="st3" d="M1285.9,2129.3c-1.3,0-2.4-0.3-3.1-1c-0.7-0.6-1.1-1.6-1.1-2.8s0.4-2.1,1.1-2.8s1.8-1,3.1-1h23.5v-14.6
	c0-0.9-0.3-1.6-0.8-2.2c-0.5-0.5-1.3-0.8-2.3-0.8h-16c-2.9,0-5.1-0.8-6.6-2.3s-2.3-3.7-2.3-6.6v-14c0-2.9,0.8-5.1,2.2-6.6
	c1.5-1.5,3.7-2.3,6.6-2.3l40.8-0.1c1.3,0,2.4,0.3,3.1,0.9c0.7,0.6,1.1,1.5,1.1,2.7s-0.4,2.2-1.1,2.8c-0.7,0.7-1.8,1-3.1,1h-21.8
	v13.9c0,0.9,0.3,1.6,0.8,2.2c0.5,0.6,1.3,0.8,2.2,0.8h16c2.9,0,5.1,0.8,6.6,2.3s2.3,3.7,2.3,6.6v14.8c0,2.9-0.8,5.1-2.2,6.6
	c-1.5,1.5-3.7,2.3-6.6,2.3L1285.9,2129.3z"/>
<path class="st3" d="M1342,2075.9c0-1.2,0.4-2.1,1.1-2.7c0.7-0.6,1.8-0.9,3.1-0.9l54.1-0.1c1.3,0,2.4,0.3,3.1,0.9
	c0.7,0.6,1.1,1.5,1.1,2.7s-0.4,2.2-1.1,2.8s-1.8,1-3.1,1h-13.1l0.1,40.6c0,2.9-0.8,5.1-2.2,6.6c-1.5,1.5-3.7,2.3-6.6,2.3h-10.2
	c-2.9,0-5-0.8-6.6-2.3s-2.3-3.7-2.3-6.6l-0.1-40.6h-13.1c-1.3,0-2.4-0.3-3.1-1C1342.3,2078.1,1342,2077.2,1342,2075.9z"/>
<path class="st3" d="M1409.1,2081c0-2.9,0.8-5.1,2.2-6.6c1.5-1.5,3.7-2.3,6.6-2.3h10.2c2.8,0,5,0.8,6.5,2.3s2.3,3.7,2.3,6.6
	l0.1,39.2c0,2.9-0.8,5.1-2.2,6.6c-1.5,1.5-3.7,2.3-6.5,2.3h-10.2c-2.9,0-5.1-0.8-6.6-2.3s-2.3-3.7-2.3-6.6L1409.1,2081z"/>
<path class="st3" d="M1441.7,2081c0-2.9,0.8-5.1,2.2-6.6c1.5-1.5,3.7-2.3,6.6-2.3l40.8-0.1c1.3,0,2.4,0.3,3.1,0.9
	c0.7,0.6,1.1,1.5,1.1,2.7s-0.4,2.2-1.1,2.8c-0.7,0.7-1.8,1-3.1,1h-21.8l0.1,41.9h21.8c1.4,0,2.4,0.3,3.1,1c0.7,0.6,1.1,1.6,1.1,2.8
	s-0.4,2.1-1.1,2.8s-1.8,1-3.1,1l-40.8,0.1c-2.9,0-5.1-0.8-6.6-2.3s-2.3-3.7-2.3-6.6L1441.7,2081z"/>
<path class="st3" d="M1500.2,2080.9c0-2.9,0.8-5.1,2.3-6.6s3.7-2.3,6.6-2.3l45.3-0.1c2.9,0,5.1,0.8,6.6,2.3s2.3,3.7,2.3,6.6
	l0.1,39.2c0,2.9-0.8,5.1-2.3,6.6s-3.7,2.3-6.6,2.3h-10.2c-2.9,0-5.1-0.8-6.6-2.3s-2.3-3.7-2.3-6.6v-16h-7.2v16
	c0,2.9-0.8,5.1-2.3,6.6s-3.7,2.3-6.5,2.3h-10.2c-2.9,0-5.1-0.8-6.6-2.3s-2.3-3.7-2.3-6.6L1500.2,2080.9z M1528,2096.6h7.2v-14.1
	c0-1-0.3-1.7-0.8-2.2c-0.6-0.5-1.3-0.8-2.2-0.8h-1.1c-1,0-1.7,0.3-2.3,0.8c-0.5,0.5-0.8,1.3-0.8,2.2L1528,2096.6z"/>
<path class="st3" d="M1567.6,2075.6c0-1.2,0.4-2.1,1.1-2.7c0.7-0.6,1.8-0.9,3.1-0.9l54.1-0.1c1.3,0,2.4,0.3,3.1,0.9
	c0.7,0.6,1.1,1.5,1.1,2.7s-0.4,2.2-1.1,2.8c-0.7,0.7-1.8,1-3.1,1h-13.1l0.1,40.6c0,2.9-0.8,5.1-2.3,6.6s-3.7,2.3-6.6,2.3h-10.2
	c-2.9,0-5.1-0.8-6.6-2.3s-2.3-3.7-2.3-6.6l-0.1-40.6h-13.1c-1.3,0-2.4-0.3-3.1-1C1568,2077.8,1567.6,2076.8,1567.6,2075.6z"/>
<path class="st3" d="M1634.7,2080.7c0-2.9,0.8-5.1,2.3-6.6s3.7-2.3,6.6-2.3h10.2c2.8,0,5,0.8,6.5,2.3s2.3,3.7,2.3,6.6l0.1,39.2
	c0,2.9-0.8,5.1-2.3,6.6s-3.7,2.3-6.5,2.3h-10.2c-2.9,0-5.1-0.8-6.6-2.3s-2.3-3.7-2.3-6.6L1634.7,2080.7z"/>
<path class="st3" d="M1667.1,2081.5c0-3.1,0.8-5.6,2.5-7.2c1.7-1.7,4.1-2.5,7.2-2.5l43.5-0.1c3.2,0,5.6,0.8,7.3,2.5
	c1.7,1.7,2.5,4.1,2.5,7.2l0.1,37.4c0,3.2-0.8,5.6-2.5,7.2c-1.7,1.7-4.1,2.5-7.3,2.5l-43.4,0.1c-3.1,0-5.6-0.8-7.2-2.5
	c-1.7-1.7-2.5-4.1-2.5-7.2L1667.1,2081.5z M1695,2118.1c0,1,0.3,1.7,0.8,2.2s1.3,0.8,2.3,0.8h1.1c0.9,0,1.7-0.3,2.2-0.8
	c0.6-0.5,0.8-1.3,0.8-2.2l-0.1-35.9c0-1-0.3-1.7-0.8-2.2c-0.6-0.5-1.3-0.8-2.2-0.8h-1.1c-1,0-1.7,0.3-2.3,0.8
	c-0.5,0.5-0.8,1.3-0.8,2.2L1695,2118.1z"/>
<path class="st3" d="M1734.8,2080.5c0-2.9,0.8-5.1,2.3-6.6s3.7-2.3,6.6-2.3l31.3-0.1c2.9,0,5.2,0.8,6.9,2.3c1.7,1.6,2.5,3.7,2.5,6.6
	l0.1,37.8c0,0.9,0.2,1.5,0.7,2s1.2,0.7,2,0.7h1.1c0.9,0,1.6-0.2,2.1-0.7s0.7-1.2,0.7-2l-0.1-37.8c0-2.9,0.8-5.1,2.3-6.6
	s3.7-2.3,6.6-2.3h10.2c2.8,0,5,0.8,6.5,2.3s2.3,3.7,2.3,6.6l0.1,39.2c0,2.9-0.8,5.1-2.3,6.6s-3.7,2.3-6.5,2.3l-31.4,0.1
	c-2.9,0-5.1-0.8-6.8-2.3c-1.7-1.5-2.5-3.7-2.5-6.5l-0.1-37.8c0-0.9-0.2-1.5-0.7-2s-1.2-0.7-2.1-0.7h-1.1c-0.9,0-1.6,0.2-2,0.7
	c-0.5,0.5-0.7,1.2-0.7,2l0.1,37.8c0,2.9-0.8,5.1-2.3,6.6s-3.7,2.3-6.6,2.3h-10.2c-2.9,0-5.1-0.8-6.6-2.3s-2.3-3.7-2.3-6.6
	L1734.8,2080.5z"/>
<path class="st1" d="M518.2,124.6c-197.2,0-357.1,52.5-357.1,117.3S321,359.2,518.2,359.2s357.1-52.5,357.1-117.3
	C875.3,177.1,715.4,124.6,518.2,124.6z M518.2,322c-160.6,0-290.8-36.9-290.8-82.3s130.2-82.3,290.8-82.3S809,194.3,809,239.7
	S678.8,322,518.2,322z"/>
<path class="st1" d="M504.5,221.2c0-59.2,30.3-109.8,91-115.5c0,0,8.7,33.2-15.9,69.3C555,211.1,504.5,221.2,504.5,221.2z"/>
<line class="st2" x1="118.8" y1="93.8" x2="161.1" y2="124.6"/>
<line class="st2" x1="161.1" y1="343.8" x2="118.8" y2="374.6"/>
<line class="st2" x1="54.7" y1="241.2" x2="118.8" y2="241.2"/>
<line class="st2" x1="917.6" y1="93.8" x2="875.3" y2="124.6"/>
<line class="st2" x1="875.3" y1="343.8" x2="917.6" y2="374.6"/>
<line class="st2" x1="981.7" y1="241.2" x2="917.6" y2="241.2"/>
</svg>
