<svg width="910" height="464" viewBox="0 0 910 464" fill="none" xmlns="http://www.w3.org/2000/svg">
<path d="M63.7754 415.365V256.965" stroke="#00BFFF" stroke-width="3" stroke-miterlimit="10"/>
<path d="M455.714 149.82C443.136 143.044 434.578 129.749 434.578 114.459C434.578 92.2928 452.557 74.3286 474.741 74.3286C496.925 74.3286 514.904 92.2928 514.904 114.459C514.904 136.045 497.85 153.652 476.455 154.564" stroke="#00BFFF" stroke-width="3" stroke-miterlimit="10" stroke-linecap="round" stroke-linejoin="round"/>
<path d="M63.7754 79.5653V33.743C63.7754 16.0499 78.1291 1.6958 95.8492 1.6958H563.133C580.853 1.6958 595.207 16.0376 595.207 33.743V429.806C595.207 447.499 580.853 461.853 563.133 461.853H95.8492C78.1291 461.853 63.7754 447.511 63.7754 429.806V415.365" stroke="#00BFFF" stroke-width="3" stroke-miterlimit="10"/>
<path d="M466.122 113.99H454.826" stroke="#00BFFF" stroke-width="3" stroke-miterlimit="10" stroke-linecap="round" stroke-linejoin="round"/>
<path d="M466.122 119.621H454.826" stroke="#00BFFF" stroke-width="3" stroke-miterlimit="10" stroke-linecap="round" stroke-linejoin="round"/>
<path d="M438.71 127.691C445.166 127.691 450.4 121.557 450.4 113.99C450.4 106.423 445.166 100.289 438.71 100.289C432.253 100.289 427.02 106.423 427.02 113.99C427.02 121.557 432.253 127.691 438.71 127.691Z" fill="white" stroke="#00BFFF" stroke-width="3" stroke-miterlimit="10" stroke-linecap="round" stroke-linejoin="round"/>
<path d="M438.709 100.289H454.777V127.679H438.709" stroke="#00BFFF" stroke-width="3" stroke-miterlimit="10" stroke-linecap="round" stroke-linejoin="round"/>
<path d="M470.956 127.691C477.412 127.691 482.646 121.557 482.646 113.99C482.646 106.423 477.412 100.289 470.956 100.289C464.499 100.289 459.266 106.423 459.266 113.99C459.266 121.557 464.499 127.691 470.956 127.691Z" fill="white" stroke="#00BFFF" stroke-width="3" stroke-miterlimit="10" stroke-linecap="round" stroke-linejoin="round"/>
<path d="M470.955 100.289H487.023V127.679H470.955" stroke="#00BFFF" stroke-width="3" stroke-miterlimit="10" stroke-linecap="round" stroke-linejoin="round"/>
<path d="M512.87 113.99H487.492" stroke="#00BFFF" stroke-width="3" stroke-miterlimit="10" stroke-linecap="round" stroke-linejoin="round"/>
<path d="M512.87 119.621H487.492" stroke="#00BFFF" stroke-width="3" stroke-miterlimit="10" stroke-linecap="round" stroke-linejoin="round"/>
<path d="M63.7749 78.1235C63.7749 78.1235 1.82227 86.3541 1.82227 169.349C1.82227 252.344 63.7749 258.258 63.7749 258.258H95.1212" stroke="#00BFFF" stroke-width="3" stroke-miterlimit="10" stroke-linecap="round" stroke-linejoin="round"/>
<path d="M186.656 461.077V256.965" stroke="#00BFFF" stroke-width="3" stroke-miterlimit="10"/>
<path d="M186.656 78.1235C186.656 78.1235 124.703 86.3541 124.703 169.349C124.703 252.344 186.656 258.258 186.656 258.258H218.002" stroke="#00BFFF" stroke-width="3" stroke-miterlimit="10" stroke-linecap="round" stroke-linejoin="round"/>
<path d="M148.17 74.3164C153.682 76.1769 161.278 83.2985 163.226 87.3029" stroke="#00BFFF" stroke-width="3" stroke-miterlimit="10" stroke-linecap="round" stroke-linejoin="round"/>
<path d="M352.328 1.60938V462.493" stroke="#00BFFF" stroke-width="3" stroke-miterlimit="10" stroke-linecap="round" stroke-linejoin="round"/>
<path d="M165.656 128.16C173.229 128.16 179.368 122.025 179.368 114.458C179.368 106.892 173.229 100.757 165.656 100.757C158.083 100.757 151.943 106.892 151.943 114.458C151.943 122.025 158.083 128.16 165.656 128.16Z" stroke="#00BFFF" stroke-width="3" stroke-miterlimit="10" stroke-linecap="round" stroke-linejoin="round"/>
<path d="M42.7749 128.16C50.3481 128.16 56.4874 122.025 56.4874 114.458C56.4874 106.892 50.3481 100.757 42.7749 100.757C35.2018 100.757 29.0625 106.892 29.0625 114.458C29.0625 122.025 35.2018 128.16 42.7749 128.16Z" stroke="#00BFFF" stroke-width="3" stroke-miterlimit="10" stroke-linecap="round" stroke-linejoin="round"/>
<path d="M491.154 143.931C488.391 141.171 488.391 136.674 491.154 133.914C493.916 131.154 498.417 131.154 501.179 133.914" stroke="#00BFFF" stroke-width="3" stroke-miterlimit="10" stroke-linecap="round" stroke-linejoin="round"/>
<path d="M142.498 142.329C140.253 145.902 135.888 159.32 136.825 169.719C137.775 180.118 148.17 181.991 148.17 181.991C148.17 181.991 159.971 183.001 161.402 171.604C162.351 164.051 162.018 158.531 164.238 153.664C168.961 143.278 162.351 138.559 158.565 136.674C154.792 134.788 147.221 134.776 142.498 142.329Z" stroke="#00BFFF" stroke-width="3" stroke-miterlimit="10"/>
<path d="M16.7808 142.329C14.5365 145.902 10.1712 159.32 11.1084 169.719C12.0579 180.106 22.4532 181.991 22.4532 181.991C22.4532 181.991 34.2543 183.001 35.6848 171.604C36.6343 164.051 36.3013 158.531 38.521 153.664C43.2439 143.278 36.6343 138.559 32.8486 136.674C29.0752 134.788 21.5037 134.776 16.7808 142.329Z" stroke="#00BFFF" stroke-width="3" stroke-miterlimit="10"/>
<path d="M569.891 461.853V363.321" stroke="#00BFFF" stroke-width="3" stroke-miterlimit="10" stroke-linecap="round" stroke-linejoin="round"/>
<path d="M385.537 461.853V351.998" stroke="#00BFFF" stroke-width="3" stroke-miterlimit="10" stroke-linecap="round" stroke-linejoin="round"/>
<path d="M409.744 461.853V421.896H385.537" stroke="#00BFFF" stroke-width="3" stroke-miterlimit="10" stroke-linecap="round" stroke-linejoin="round"/>
<path d="M409.744 356.717V405.188H385.537" stroke="#00BFFF" stroke-width="3" stroke-miterlimit="10" stroke-linecap="round" stroke-linejoin="round"/>
<path d="M552.848 461.853V421.896H569.754" stroke="#00BFFF" stroke-width="3" stroke-miterlimit="10" stroke-linecap="round" stroke-linejoin="round"/>
<path d="M552.848 365.218V405.188H569.754" stroke="#00BFFF" stroke-width="3" stroke-miterlimit="10" stroke-linecap="round" stroke-linejoin="round"/>
<path d="M595.219 351.997C582.974 358.602 570.162 365.218 544.439 365.218C518.716 365.218 494.793 352.934 482.646 337.828" stroke="#00BFFF" stroke-width="3" stroke-miterlimit="10" stroke-linecap="round" stroke-linejoin="round"/>
<path d="M595.267 285.882C589.595 308.553 574.477 318.94 548.951 319.889C530.996 320.554 515.866 311.387 508.307 302.898" stroke="#00BFFF" stroke-width="3" stroke-miterlimit="10" stroke-linecap="round" stroke-linejoin="round"/>
<path d="M588.646 250.939C588.646 250.939 595.256 258.492 595.256 265.823" stroke="#00BFFF" stroke-width="3" stroke-miterlimit="10" stroke-linecap="round" stroke-linejoin="round"/>
<path d="M352.328 331.68C352.328 331.68 373.6 356.717 425.342 356.717C477.084 356.717 510.169 318.94 510.169 287.768C510.169 256.595 510.169 196.283 510.169 196.283L530.01 173.502C530.01 173.502 533.796 168.783 530.01 164.064C526.225 159.345 521.403 164.064 521.403 164.064L512.993 173.083" stroke="#00BFFF" stroke-width="3" stroke-miterlimit="10" stroke-linecap="round" stroke-linejoin="round"/>
<path d="M506.408 161.205L517.519 149.709C517.519 149.709 522.34 144.99 526.126 149.709C529.912 154.428 526.126 159.147 526.126 159.147L519.566 166.022" stroke="#00BFFF" stroke-width="3" stroke-miterlimit="10" stroke-linecap="round" stroke-linejoin="round"/>
<path d="M513.918 153.751L520.478 146.876C520.478 146.876 524.264 142.157 520.478 137.438C516.692 132.719 511.871 137.438 511.871 137.438L483.73 165.936" stroke="#00BFFF" stroke-width="3" stroke-miterlimit="10" stroke-linecap="round" stroke-linejoin="round"/>
<path d="M483.658 166.01L468.811 151.114C468.811 151.114 462.953 145.384 458.366 151.114C453.766 156.843 458.366 162.585 458.366 162.585L466.32 170.926C466.32 170.926 466.32 267.943 466.32 278.329C466.32 292.486 455.37 310.451 424.184 308.553" stroke="#00BFFF" stroke-width="3" stroke-miterlimit="10" stroke-linecap="round" stroke-linejoin="round"/>
<path d="M466.319 267.672C466.319 267.672 454.062 258.271 432.038 258.382C410.014 258.493 388.262 276.432 382.59 293.448C382.59 293.448 377.867 308.553 392.035 305.72" stroke="#00BFFF" stroke-width="3" stroke-miterlimit="10" stroke-linecap="round" stroke-linejoin="round"/>
<path d="M401.494 286.819C396.771 292.487 392.048 300.976 392.985 307.592C393.935 314.196 397.708 316.094 404.33 313.26" stroke="#00BFFF" stroke-width="3" stroke-miterlimit="10" stroke-linecap="round" stroke-linejoin="round"/>
<path d="M411.888 294.384C408.102 300.052 404.945 309.206 406.068 314.553C407.165 319.889 410.951 320.073 411.888 319.975C412.838 319.876 418.572 320.542 420.434 314.553C422.296 308.565 427.019 300.051 433.64 299.103C440.262 298.154 446.823 301.123 449.671 304.364" stroke="#00BFFF" stroke-width="3" stroke-miterlimit="10" stroke-linecap="round" stroke-linejoin="round"/>
<path d="M552.725 319.876V191.429" stroke="#00BFFF" stroke-width="3" stroke-miterlimit="10" stroke-linecap="round" stroke-linejoin="round"/>
<path d="M412.838 262.275V191.429" stroke="#00BFFF" stroke-width="3" stroke-miterlimit="10" stroke-linecap="round" stroke-linejoin="round"/>
<path d="M393.921 256.607C391.085 263.212 390.851 271.011 392.849 276.087" stroke="#00BFFF" stroke-width="3" stroke-miterlimit="10" stroke-linecap="round" stroke-linejoin="round"/>
<path d="M352.328 225.41C359.887 211.266 378.804 190.492 404.317 190.492H466.307" stroke="#00BFFF" stroke-width="3" stroke-miterlimit="10" stroke-linecap="round" stroke-linejoin="round"/>
<path d="M514.424 191.429C519.652 191.429 567.634 191.429 567.634 191.429C567.634 191.429 584.786 190.061 595.219 201.606" stroke="#00BFFF" stroke-width="3" stroke-miterlimit="10" stroke-linecap="round" stroke-linejoin="round"/>
<path d="M466.713 206.534H510.193" stroke="#00BFFF" stroke-width="3" stroke-miterlimit="10" stroke-linecap="round" stroke-linejoin="round"/>
<path d="M535.399 191.429V236.29H510.193" stroke="#00BFFF" stroke-width="3" stroke-miterlimit="10" stroke-linecap="round" stroke-linejoin="round"/>
<path d="M466.319 236.29H432.346V190.492" stroke="#00BFFF" stroke-width="3" stroke-miterlimit="10" stroke-linecap="round" stroke-linejoin="round"/>
<path d="M452.459 190.492L458.982 163.275" stroke="#00BFFF" stroke-width="3" stroke-miterlimit="10" stroke-linecap="round" stroke-linejoin="round"/>
<path d="M859.886 418.211H584.688C558.262 418.211 536.83 396.81 536.83 370.393V256.016C536.83 229.612 558.25 208.198 584.688 208.198H859.886C886.312 208.198 907.744 229.6 907.744 256.016V370.393C907.744 396.797 886.325 418.211 859.886 418.211Z" fill="#D7F7FF" stroke="#00BFFF" stroke-width="3" stroke-miterlimit="10" stroke-linecap="round" stroke-linejoin="round"/>
<path d="M582.148 258.456H579.016V247.539H569.841V258.456H566.709V234.528H569.841V244.903H579.016V234.528H582.148V258.456Z" fill="#00BFFF"/>
<path d="M592.776 241.194C594.429 241.194 595.711 242.303 596.279 244.262C597.092 242.303 598.609 241.194 600.262 241.194C602.358 241.194 604.245 242.648 604.245 246.209V258.443H601.384V246.455C601.384 244.299 600.373 243.72 599.398 243.72C597.413 243.72 596.698 245.174 596.698 247.293V258.443H593.899V246.455C593.899 244.397 592.986 243.72 591.913 243.72C589.953 243.72 589.287 245.272 589.287 247.293V258.443H586.426V241.6H589.126V244.2C589.768 242.377 591.087 241.194 592.776 241.194Z" fill="#00BFFF"/>
<path d="M613.679 241.194C615.331 241.194 616.614 242.303 617.181 244.262C617.995 242.303 619.511 241.194 621.164 241.194C623.26 241.194 625.147 242.648 625.147 246.209V258.443H622.286V246.455C622.286 244.299 621.275 243.72 620.301 243.72C618.315 243.72 617.6 245.174 617.6 247.293V258.443H614.801V246.455C614.801 244.397 613.888 243.72 612.816 243.72C610.855 243.72 610.189 245.272 610.189 247.293V258.443H607.328V241.6H610.029V244.2C610.682 242.377 611.989 241.194 613.679 241.194Z" fill="#00BFFF"/>
<path d="M634.581 241.194C636.233 241.194 637.516 242.303 638.083 244.262C638.897 242.303 640.414 241.194 642.066 241.194C644.163 241.194 646.049 242.648 646.049 246.209V258.443H643.188V246.455C643.188 244.299 642.177 243.72 641.203 243.72C639.218 243.72 638.502 245.174 638.502 247.293V258.443H635.703V246.455C635.703 244.397 634.791 243.72 633.718 243.72C631.757 243.72 631.091 245.272 631.091 247.293V258.443H628.23V241.6H630.931V244.2C631.585 242.377 632.904 241.194 634.581 241.194Z" fill="#00BFFF"/>
<path d="M656.001 261.881C657.887 261.068 658.257 260.304 658.257 258.443H655.791V254.131H660.28V258.443C660.28 261.043 659.466 262.386 656.876 263.433L656.001 261.881Z" fill="#00BFFF"/>
<path d="M696.052 244.533C696.964 242.574 698.986 241.194 701.243 241.194C705.596 241.194 708.186 244.866 708.186 249.991C708.186 255.252 705.522 258.85 701.132 258.85C698.875 258.85 696.779 257.606 695.867 255.548L695.361 258.443H693.166V234.023H696.027V244.533H696.052ZM700.479 256.324C703.413 256.324 705.164 253.835 705.164 249.991C705.164 246.258 703.512 243.72 700.54 243.72C697.679 243.72 695.99 245.974 695.99 249.621V250.496C695.99 254.008 697.642 256.324 700.479 256.324Z" fill="#00BFFF"/>
<path d="M719.592 258.85C718.039 258.85 716.46 258.481 715.276 257.372C714.204 256.324 713.723 254.747 713.723 252.012V241.601H716.658V251.913C716.658 255.585 718.409 256.398 720.16 256.398C723.699 256.398 724.55 252.862 724.55 250.398V241.601H727.41V258.444H724.71V255.24C724.081 256.928 722.083 258.85 719.592 258.85Z" fill="#00BFFF"/>
<path d="M734.194 241.6H739.015V237.189L741.876 235.982V241.613H748.449V243.941H741.876V252.665C741.876 254.919 742.949 256.004 745.107 256.004C746.217 256.004 747.401 255.905 748.449 255.696V258.32C747.573 258.517 746.624 258.764 745.144 258.764C740.927 258.764 739.003 256.41 739.003 253.071V243.941H734.182V241.6H734.194Z" fill="#00BFFF"/>
<path d="M780.929 241.194C782.581 241.194 783.864 242.303 784.431 244.262C785.245 242.303 786.761 241.194 788.414 241.194C790.51 241.194 792.397 242.648 792.397 246.209V258.443H789.536V246.455C789.536 244.299 788.525 243.72 787.551 243.72C785.565 243.72 784.85 245.174 784.85 247.293V258.443H782.051V246.455C782.051 244.397 781.138 243.72 780.066 243.72C778.105 243.72 777.439 245.272 777.439 247.293V258.443H774.578V241.6H777.279V244.2C777.932 242.377 779.239 241.194 780.929 241.194Z" fill="#00BFFF"/>
<path d="M811.338 258.456H808.341C808.206 257.507 808.107 256.398 808.07 255.388C806.96 257.741 805.135 258.862 802.373 258.862C799.031 258.862 796.713 256.805 796.713 253.909C796.713 252.16 797.527 250.804 799.068 249.929C800.178 249.326 802.003 248.882 804.802 248.549L807.873 248.18V247.872C807.873 244.878 806.763 243.559 804.26 243.559C801.867 243.559 800.449 244.767 800.314 246.898H797.243C797.551 243.288 800.178 241.206 804.457 241.206C808.81 241.206 810.758 243.362 810.758 248.217V252.763C810.771 255.449 810.943 257.199 811.338 258.456ZM803.89 250.804C800.955 251.211 799.746 252.049 799.746 253.737C799.746 255.449 800.93 256.497 802.916 256.497C805.949 256.497 807.91 254.402 807.91 251.1V250.262L803.89 250.804Z" fill="#00BFFF"/>
<path d="M825.569 255.117L830.255 241.601H833.325L826.58 259.528C825.026 263.803 823.004 265.22 820.168 265.22C819.662 265.22 819.156 265.183 818.614 265.085V262.559C819.058 262.596 819.453 262.62 819.822 262.62C821.882 262.62 822.93 261.709 823.707 259.491L824.151 258.246L817.578 241.601H820.821L825.569 255.117Z" fill="#00BFFF"/>
<path d="M842.401 244.533C843.314 242.574 845.336 241.194 847.593 241.194C851.946 241.194 854.535 244.866 854.535 249.991C854.535 255.252 851.872 258.85 847.482 258.85C845.225 258.85 843.129 257.606 842.216 255.548L841.711 258.443H839.516V234.023H842.376V244.533H842.401ZM846.816 256.324C849.751 256.324 851.502 253.835 851.502 249.991C851.502 246.258 849.849 243.72 846.877 243.72C844.004 243.72 842.327 245.974 842.327 249.621V250.496C842.327 254.008 843.98 256.324 846.816 256.324Z" fill="#00BFFF"/>
<path d="M874.128 250.767H862.29C862.29 253.934 864.115 256.324 867.247 256.324C869.467 256.324 870.861 254.944 871.699 253.33L874.128 254.611C872.71 257.408 870.417 258.862 867.247 258.862C861.957 258.862 859.355 255.228 859.355 249.695C859.355 244.545 862.327 241.206 867.038 241.206C872.192 241.206 874.19 244.915 874.19 249.498C874.202 249.892 874.165 250.324 874.128 250.767ZM866.915 243.424C863.844 243.424 862.29 245.95 862.29 248.414H871.231C871.292 245.716 869.948 243.424 866.915 243.424Z" fill="#00BFFF"/>
<path d="M567.917 282.038L569.643 293.595L569.976 295.986H570.211C570.346 295.209 570.445 294.667 570.753 293.152L572.948 282.038H575.883L578.078 293.152C578.386 294.667 578.485 295.209 578.621 295.986H578.855L579.188 293.595L580.914 282.038H583.911L580.643 298.881H577.03L574.835 288.002C574.699 287.324 574.564 285.907 574.527 285.242H574.292C574.255 285.919 574.12 287.336 573.984 288.002L571.789 298.881H568.176L564.908 282.038H567.917Z" fill="#00BFFF"/>
<path d="M602.345 291.193H590.507C590.507 294.359 592.332 296.749 595.464 296.749C597.684 296.749 599.077 295.369 599.916 293.755L602.345 295.037C600.927 297.834 598.634 299.288 595.464 299.288C590.174 299.288 587.572 295.653 587.572 290.121C587.572 284.97 590.544 281.631 595.255 281.631C600.409 281.631 602.407 285.34 602.407 289.923C602.419 290.318 602.382 290.761 602.345 291.193ZM595.131 283.849C592.061 283.849 590.507 286.375 590.507 288.839H599.447C599.521 286.141 598.165 283.849 595.131 283.849Z" fill="#00BFFF"/>
<path d="M630.264 293.694L633.162 293.189C633.606 295.653 635.184 296.934 637.675 296.934C639.931 296.934 641.177 295.985 641.177 294.408C641.177 292.72 640.301 291.981 638.476 291.784L635.751 291.476C632.409 291.106 630.831 289.221 630.831 286.621C630.831 283.553 633.26 281.631 637.243 281.631C641.091 281.631 643.68 283.652 644.05 286.757L641.214 287.398C640.844 285.377 639.463 283.96 637.169 283.96C634.95 283.96 633.63 284.872 633.63 286.486C633.63 287.927 634.58 288.815 636.664 289.049L639.364 289.357C642.706 289.726 644.013 291.476 644.013 294.137C644.013 297.341 641.658 299.288 637.539 299.288C633.544 299.288 630.868 297.292 630.264 293.694Z" fill="#00BFFF"/>
<path d="M659.231 281.631C660.575 281.631 662.203 282.001 663.374 283.11C664.46 284.157 665.027 285.734 665.027 288.47V298.881H662.166V288.642C662.166 284.97 660.316 284.157 658.528 284.157C654.854 284.157 653.941 287.693 653.941 290.084V298.881H651.08V274.448H653.941V285.094C654.718 283.073 656.802 281.631 659.231 281.631Z" fill="#00BFFF"/>
<path d="M671.105 290.453C671.105 285.094 674.238 281.631 678.961 281.631C683.683 281.631 686.816 285.106 686.816 290.453C686.816 295.813 683.683 299.288 678.961 299.288C674.238 299.288 671.105 295.739 671.105 290.453ZM683.782 290.453C683.782 286.511 681.994 284.12 678.961 284.12C675.927 284.12 674.139 286.474 674.139 290.453C674.139 294.433 675.927 296.786 678.961 296.786C681.994 296.786 683.782 294.433 683.782 290.453Z" fill="#00BFFF"/>
<path d="M698.69 299.288C697.136 299.288 695.558 298.918 694.374 297.809C693.301 296.762 692.82 295.185 692.82 292.449V282.038H695.755V292.351C695.755 296.023 697.506 296.836 699.257 296.836C702.796 296.836 703.647 293.3 703.647 290.835V282.038H706.508V298.881H703.807V295.678C703.166 297.366 701.181 299.288 698.69 299.288Z" fill="#00BFFF"/>
<path d="M714.537 296.515H719.926V276.802H714.87V274.448H722.799V296.515H728.496V298.869H714.537V296.515Z" fill="#00BFFF"/>
<path d="M748.189 274.448V298.881H745.488V295.751C744.477 297.945 742.886 299.288 740.124 299.288C735.907 299.288 733.182 295.776 733.182 290.429C733.182 285.143 736.116 281.631 740.568 281.631C742.862 281.631 744.477 282.876 745.328 284.527V274.448H748.189ZM740.839 284.157C737.942 284.157 736.215 286.486 736.215 290.429C736.215 294.335 737.929 296.762 740.728 296.762C743.602 296.762 745.377 294.47 745.377 290.835V290.059C745.39 286.449 743.639 284.157 740.839 284.157Z" fill="#00BFFF"/>
<path d="M788.179 283.381C789.153 284.355 789.695 285.71 789.695 287.287C789.695 290.725 787.13 293.053 783.357 293.053C782.173 293.053 781.1 292.819 780.225 292.376C779.522 292.708 779.041 293.287 779.041 294.064C779.041 295.111 779.917 295.752 781.84 295.752H786.193C789.695 295.752 791.693 297.476 791.693 300.335C791.693 303.871 788.623 305.867 783.357 305.867C778.572 305.867 775.699 304.216 775.699 301.592C775.699 299.768 776.846 298.425 778.634 297.821C777.253 297.255 776.513 296.244 776.513 294.827C776.513 293.275 777.389 292.129 778.942 291.562C777.857 290.589 777.253 289.172 777.253 287.484C777.253 284.046 779.781 281.656 783.53 281.656C784.775 281.656 785.86 281.927 786.773 282.395C787.377 280.412 788.758 279.291 790.855 279.291C791.224 279.291 791.631 279.327 791.927 279.426V281.915C791.422 281.841 791.113 281.779 790.682 281.779C789.424 281.767 788.647 282.272 788.179 283.381ZM781.742 298.277C781.236 298.277 780.767 298.24 780.323 298.216C779.214 298.721 778.535 299.633 778.535 300.779C778.535 302.565 780.188 303.514 783.665 303.514C787.278 303.514 788.82 302.503 788.82 300.643C788.82 299.128 787.747 298.29 785.552 298.29H781.742V298.277ZM786.995 287.287C786.995 285.266 785.54 283.812 783.493 283.812C781.396 283.812 779.954 285.291 779.954 287.386C779.954 289.443 781.372 290.86 783.394 290.86C785.478 290.86 786.995 289.345 786.995 287.287Z" fill="#00BFFF"/>
<path d="M811.412 291.193H799.573C799.573 294.359 801.399 296.749 804.531 296.749C806.75 296.749 808.144 295.369 808.982 293.755L811.412 295.037C809.993 297.834 807.7 299.288 804.531 299.288C799.241 299.288 796.639 295.653 796.639 290.121C796.639 284.97 799.61 281.631 804.321 281.631C809.488 281.631 811.473 285.34 811.473 289.923C811.473 290.318 811.449 290.761 811.412 291.193ZM804.198 283.849C801.127 283.849 799.573 286.375 799.573 288.839H808.514C808.575 286.141 807.231 283.849 804.198 283.849Z" fill="#00BFFF"/>
<path d="M817.812 282.038H822.634V277.627L825.495 276.407V282.038H832.067V284.367H825.495V293.09C825.495 295.345 826.58 296.429 828.738 296.429C829.848 296.429 831.032 296.33 832.08 296.121V298.745C831.204 298.943 830.255 299.189 828.775 299.189C824.558 299.189 822.634 296.836 822.634 293.497V284.367H817.812V282.038Z" fill="#00BFFF"/>
<path d="M574.7 335.967L579.386 322.451H582.456L575.711 340.378C574.157 344.654 572.135 346.071 569.299 346.071C568.793 346.071 568.287 346.034 567.745 345.935V343.409C568.189 343.446 568.583 343.471 568.953 343.471C571.013 343.471 572.061 342.559 572.838 340.341L573.282 339.097L566.709 322.451H569.94L574.7 335.967Z" fill="#00BFFF"/>
<path d="M587.475 330.879C587.475 325.519 590.607 322.057 595.33 322.057C600.053 322.057 603.185 325.532 603.185 330.879C603.185 336.239 600.053 339.701 595.33 339.701C590.619 339.713 587.475 336.177 587.475 330.879ZM600.151 330.879C600.151 326.936 598.363 324.546 595.33 324.546C592.296 324.546 590.508 326.899 590.508 330.879C590.508 334.859 592.296 337.212 595.33 337.212C598.376 337.224 600.151 334.859 600.151 330.879Z" fill="#00BFFF"/>
<path d="M615.061 339.713C613.507 339.713 611.929 339.344 610.745 338.235C609.672 337.188 609.191 335.611 609.191 332.875V322.464H612.126V332.777C612.126 336.448 613.877 337.262 615.628 337.262C619.167 337.262 620.018 333.725 620.018 331.261V322.464H622.879V339.307H620.179V336.103C619.55 337.791 617.552 339.713 615.061 339.713Z" fill="#00BFFF"/>
<path d="M664.558 314.886V339.319H661.857V336.189C660.846 338.383 659.256 339.726 656.493 339.726C652.276 339.726 649.551 336.226 649.551 330.867C649.551 325.581 652.486 322.069 656.937 322.069C659.231 322.069 660.846 323.314 661.697 324.965V314.886H664.558ZM657.209 324.583C654.311 324.583 652.584 326.912 652.584 330.854C652.584 334.76 654.311 337.187 657.098 337.187C659.971 337.187 661.746 334.896 661.746 331.261V330.485C661.759 326.875 660.008 324.583 657.209 324.583Z" fill="#00BFFF"/>
<path d="M683.474 322.119C684.682 322.119 685.804 322.254 686.507 322.451V325.113C685.829 324.94 684.584 324.78 683.375 324.78C679.331 324.78 676.087 327.54 676.087 333.035V339.307H673.227V322.464H676.063V326.85C677.21 324.176 679.972 322.119 683.474 322.119Z" fill="#00BFFF"/>
<path d="M706.878 331.631H695.04C695.04 334.797 696.865 337.187 699.997 337.187C702.217 337.187 703.611 335.807 704.449 334.193L706.878 335.475C705.46 338.272 703.167 339.725 699.997 339.725C694.707 339.725 692.105 336.091 692.105 330.559C692.105 325.408 695.077 322.069 699.788 322.069C704.955 322.069 706.94 325.778 706.94 330.361C706.952 330.756 706.915 331.187 706.878 331.631ZM699.665 324.275C696.594 324.275 695.04 326.801 695.04 329.265H703.981C704.042 326.567 702.698 324.275 699.665 324.275Z" fill="#00BFFF"/>
<path d="M713.896 334.12L716.794 333.614C717.238 336.079 718.817 337.36 721.308 337.36C723.564 337.36 724.81 336.411 724.81 334.834C724.81 333.146 723.934 332.407 722.109 332.21L719.384 331.902C716.042 331.532 714.464 329.647 714.464 327.047C714.464 323.979 716.893 322.057 720.876 322.057C724.723 322.057 727.313 324.078 727.683 327.183L724.847 327.823C724.477 325.803 723.096 324.386 720.802 324.386C718.582 324.386 717.263 325.298 717.263 326.912C717.263 328.366 718.212 329.24 720.296 329.474L722.997 329.782C726.339 330.152 727.646 331.902 727.646 334.563C727.646 337.767 725.291 339.713 721.172 339.713C717.164 339.713 714.501 337.73 713.896 334.12Z" fill="#00BFFF"/>
<path d="M734.797 334.12L737.695 333.614C738.139 336.079 739.717 337.36 742.208 337.36C744.465 337.36 745.71 336.411 745.71 334.834C745.71 333.146 744.835 332.407 743.01 332.21L740.284 331.902C736.943 331.532 735.364 329.647 735.364 327.047C735.364 323.979 737.793 322.057 741.776 322.057C745.624 322.057 748.213 324.078 748.583 327.183L745.747 327.823C745.377 325.803 743.996 324.386 741.702 324.386C739.483 324.386 738.163 325.298 738.163 326.912C738.163 328.366 739.113 329.24 741.197 329.474L743.897 329.782C747.239 330.152 748.546 331.902 748.546 334.563C748.546 337.767 746.191 339.713 742.072 339.713C738.065 339.713 735.401 337.73 734.797 334.12Z" fill="#00BFFF"/>
<path d="M769.597 331.631H757.759C757.759 334.797 759.584 337.187 762.716 337.187C764.936 337.187 766.329 335.807 767.168 334.193L769.597 335.475C768.179 338.272 765.885 339.725 762.716 339.725C757.426 339.725 754.824 336.091 754.824 330.559C754.824 325.408 757.796 322.069 762.507 322.069C767.661 322.069 769.659 325.778 769.659 330.361C769.671 330.756 769.634 331.187 769.597 331.631ZM762.383 324.275C759.313 324.275 757.759 326.801 757.759 329.265H766.699C766.773 326.567 765.417 324.275 762.383 324.275Z" fill="#00BFFF"/>
<path d="M790.005 314.886V339.319H787.305V336.189C786.294 338.383 784.703 339.726 781.941 339.726C777.723 339.726 774.998 336.226 774.998 330.867C774.998 325.581 777.933 322.069 782.384 322.069C784.678 322.069 786.294 323.314 787.144 324.965V314.886H790.005ZM782.643 324.583C779.746 324.583 778.019 326.912 778.019 330.854C778.019 334.76 779.746 337.187 782.533 337.187C785.406 337.187 787.181 334.896 787.181 331.261V330.485C787.206 326.875 785.443 324.583 782.643 324.583Z" fill="#00BFFF"/>
<path d="M581.482 365.218H575.07V379.745H572.209V365.218H567.055V362.889H572.209V361.041C572.209 357.197 574.367 355.213 578.548 355.213C579.522 355.213 580.336 355.312 581.482 355.546V358.072C580.742 357.973 579.83 357.801 578.548 357.801C575.983 357.801 575.07 358.676 575.07 361.238V362.889H581.482V365.218ZM589.103 377.379H594.492V365.255H589.596V362.902H597.353V377.391H603.05V379.745H589.091V377.379H589.103ZM597.661 359.526H593.616V355.484H597.661V359.526Z" fill="#00BFFF"/>
<path d="M620.757 362.557C621.978 362.557 623.088 362.692 623.791 362.889V365.551C623.112 365.378 621.867 365.218 620.658 365.218C616.614 365.218 613.371 367.978 613.371 373.473V379.745H610.51V362.902H613.346V367.288C614.493 364.614 617.255 362.557 620.757 362.557Z" fill="#00BFFF"/>
<path d="M630.266 374.545L633.164 374.04C633.607 376.504 635.186 377.786 637.677 377.786C639.933 377.786 641.179 376.837 641.179 375.26C641.179 373.572 640.303 372.833 638.478 372.636L635.753 372.328C632.411 371.958 630.833 370.073 630.833 367.473C630.833 364.405 633.262 362.483 637.245 362.483C641.093 362.483 643.682 364.504 644.052 367.609L641.216 368.249C640.846 366.229 639.465 364.812 637.171 364.812C634.952 364.812 633.632 365.723 633.632 367.337C633.632 368.791 634.582 369.666 636.666 369.9L639.366 370.208C642.708 370.578 644.015 372.327 644.015 374.989C644.015 378.192 641.66 380.139 637.541 380.139C633.546 380.139 630.87 378.155 630.266 374.545Z" fill="#00BFFF"/>
<path d="M650.563 362.889H655.385V358.478L658.246 357.271V362.902H664.818V365.23H658.246V373.954C658.246 376.209 659.318 377.293 661.476 377.293C662.586 377.293 663.77 377.194 664.818 376.985V379.609C663.943 379.806 662.993 380.053 661.513 380.053C657.296 380.053 655.372 377.699 655.372 374.36V365.23H650.551V362.889H650.563Z" fill="#00BFFF"/>
<path d="M681.182 379.745H676.693V375.433H681.182V379.745Z" fill="#00BFFF"/>
</svg>
