<svg width="2107" height="1699" viewBox="0 0 2107 1699" fill="none" xmlns="http://www.w3.org/2000/svg">
<path d="M1196.66 462.683C1196.66 850.784 1051.44 1190.29 876.654 1365.26L876.918 464.664V1595.82C876.918 1619.99 857.38 1639.66 833.089 1639.66C808.93 1639.66 789.26 1620.12 789.26 1595.82V462.683" stroke="#00BFFF" stroke-width="3" stroke-miterlimit="10" stroke-linecap="round"/>
<path d="M789.392 462.683V1605.86C789.392 1581.69 769.854 1562.02 745.563 1562.02C721.405 1562.02 701.734 1581.56 701.734 1605.86V462.683" stroke="#00BFFF" stroke-width="3" stroke-miterlimit="10" stroke-linecap="round"/>
<path d="M614.34 462.683V1595.82C614.34 1619.99 633.878 1639.66 658.169 1639.66C682.328 1639.66 701.998 1620.12 701.998 1595.82V462.683" stroke="#00BFFF" stroke-width="3" stroke-miterlimit="10" stroke-linecap="round"/>
<path d="M614.34 462.683V1605.86C614.34 1581.69 594.802 1562.02 570.511 1562.02C546.22 1562.02 526.682 1581.56 526.682 1605.86V462.683" stroke="#00BFFF" stroke-width="3" stroke-miterlimit="10" stroke-linecap="round"/>
<path d="M439.288 462.683V1595.82C439.288 1619.99 458.826 1639.66 483.117 1639.66C507.276 1639.66 526.946 1620.12 526.946 1595.82V462.683" stroke="#00BFFF" stroke-width="3" stroke-miterlimit="10" stroke-linecap="round"/>
<path d="M439.288 462.683V1605.86C439.288 1581.69 419.75 1562.02 395.459 1562.02C371.3 1562.02 351.63 1581.56 351.63 1605.86V462.683" stroke="#00BFFF" stroke-width="3" stroke-miterlimit="10" stroke-linecap="round"/>
<path d="M264.235 462.683V1595.82C264.235 1619.99 283.774 1639.66 308.064 1639.66C332.223 1639.66 351.893 1620.12 351.893 1595.82V462.683" stroke="#00BFFF" stroke-width="3" stroke-miterlimit="10" stroke-linecap="round"/>
<path d="M264.235 462.683V1605.86C264.235 1581.69 244.697 1562.02 220.406 1562.02C196.115 1562.02 176.577 1581.56 176.577 1605.86V462.683" stroke="#00BFFF" stroke-width="3" stroke-miterlimit="10" stroke-linecap="round"/>
<path d="M89.0518 462.683V1595.82C89.0518 1619.99 108.59 1639.66 132.881 1639.66C157.04 1639.66 176.71 1620.12 176.71 1595.82V462.683" stroke="#00BFFF" stroke-width="3" stroke-miterlimit="10" stroke-linecap="round"/>
<path d="M89.0515 462.683V1605.86C89.0515 1581.69 69.5132 1562.02 45.2224 1562.02C20.9316 1562.02 1.52539 1581.56 1.52539 1605.86V462.683" stroke="#00BFFF" stroke-width="3" stroke-miterlimit="10" stroke-linecap="round"/>
<path d="M1113.23 462.683C1113.75 810.904 1036.13 1112.25 876.918 1360.11" stroke="#00BFFF" stroke-width="3" stroke-miterlimit="10" stroke-linecap="round"/>
<path d="M957.976 1396.16V1299.76C957.976 1273.75 979.098 1252.62 1005.11 1252.62H1053.16L1062.93 1215.91" stroke="#00BFFF" stroke-width="3" stroke-miterlimit="10" stroke-linecap="round"/>
<path d="M1000.62 1318.12V1672.02" stroke="#00BFFF" stroke-width="3" stroke-miterlimit="10" stroke-linecap="round"/>
<path d="M1000.62 1344.66H957.976" stroke="#00BFFF" stroke-width="3" stroke-miterlimit="10" stroke-linecap="round"/>
<path d="M1185.57 1483.71V1499.95C1185.57 1503.38 1182.8 1506.29 1179.23 1506.29C1175.8 1506.29 1172.9 1503.52 1172.9 1499.95V1484.37" stroke="#00BFFF" stroke-width="3" stroke-miterlimit="10" stroke-linecap="round"/>
<path d="M1173.56 1483.71V1499.95C1173.56 1503.38 1170.78 1506.29 1167.22 1506.29C1163.79 1506.29 1160.88 1503.52 1160.88 1499.95V1484.37" stroke="#00BFFF" stroke-width="3" stroke-miterlimit="10" stroke-linecap="round"/>
<path d="M1159.69 1483.71V1499.95C1159.69 1503.38 1156.92 1506.29 1153.36 1506.29C1149.93 1506.29 1147.02 1503.52 1147.02 1499.95V1484.37" stroke="#00BFFF" stroke-width="3" stroke-miterlimit="10" stroke-linecap="round"/>
<path d="M1080.49 1215.91L1090.25 1252.62H1138.31C1164.32 1252.62 1185.44 1273.75 1185.44 1299.76V1483.71" stroke="#00BFFF" stroke-width="3" stroke-miterlimit="10" stroke-linecap="round"/>
<path d="M1142.93 1318.12V1697.37H979.626C972.762 1697.37 967.085 1691.82 967.085 1684.82C967.085 1677.96 972.63 1672.28 979.626 1672.28H1000.48" stroke="#00BFFF" stroke-width="3" stroke-miterlimit="10" stroke-linecap="round"/>
<path d="M1142.93 1344.53H1185.44" stroke="#00BFFF" stroke-width="3" stroke-miterlimit="10" stroke-linecap="round"/>
<path d="M1090.39 1252.62H1053.29" stroke="#00BFFF" stroke-width="3" stroke-miterlimit="10" stroke-linecap="round"/>
<path d="M1068.08 1153.98C1065.83 1151.07 1064.38 1147.37 1064.25 1144.34C1064.12 1140.37 1069.79 1139.32 1071.11 1143.01C1072.17 1145.79 1073.36 1152.39 1081.81 1155.43H1081.41C1094.08 1159.52 1103.19 1171.27 1103.19 1185.27C1103.19 1202.57 1089.2 1216.7 1071.77 1216.7C1054.35 1216.7 1040.48 1202.7 1040.48 1185.4C1040.48 1173.39 1046.56 1163.35 1055.4 1158.99" stroke="#00BFFF" stroke-width="3" stroke-miterlimit="10" stroke-linecap="round"/>
<path d="M1061.21 1155.56C1058.97 1152.65 1057.51 1148.16 1057.38 1145.13C1057.25 1141.17 1062.93 1140.11 1064.25 1143.81" stroke="#00BFFF" stroke-width="3" stroke-miterlimit="10" stroke-linecap="round"/>
<path d="M1055.01 1158.6C1052.76 1155.69 1051.31 1151.2 1051.18 1148.16C1051.05 1144.2 1055.93 1143.15 1057.25 1146.84" stroke="#00BFFF" stroke-width="3" stroke-miterlimit="10" stroke-linecap="round"/>
<path d="M1089.59 1179.2C1094.22 1179.2 1097.91 1182.89 1097.91 1187.52C1097.91 1192.14 1094.22 1195.84 1089.59 1195.84" stroke="#00BFFF" stroke-width="3" stroke-miterlimit="10" stroke-linecap="round"/>
<path d="M1052.89 1446.47H1071.38V1672.15" stroke="#00BFFF" stroke-width="3" stroke-miterlimit="10" stroke-linecap="round"/>
<path d="M1142.93 1409.23H1000.62" stroke="#00BFFF" stroke-width="3" stroke-miterlimit="10" stroke-linecap="round"/>
<path d="M957.976 1387.71H906.094V1376.35C906.094 1370.28 901.077 1365.26 895.004 1365.26H876.654" stroke="#00BFFF" stroke-width="3" stroke-miterlimit="10" stroke-linecap="round"/>
<path d="M2016.87 462.683V1595.82C2016.87 1619.99 2036.41 1639.66 2060.7 1639.66C2084.86 1639.66 2104.53 1620.12 2104.53 1595.82V462.683" stroke="#00BFFF" stroke-width="3" stroke-miterlimit="10" stroke-linecap="round"/>
<path d="M2016.87 462.683V1605.86C2016.87 1581.69 1997.33 1562.02 1973.04 1562.02C1948.75 1562.02 1929.21 1581.56 1929.21 1605.86V462.683" stroke="#00BFFF" stroke-width="3" stroke-miterlimit="10" stroke-linecap="round"/>
<path d="M1841.82 462.683V1595.82C1841.82 1619.99 1861.35 1639.66 1885.65 1639.66C1909.8 1639.66 1929.47 1620.12 1929.47 1595.82V462.683" stroke="#00BFFF" stroke-width="3" stroke-miterlimit="10" stroke-linecap="round"/>
<path d="M1841.82 462.683V1605.86C1841.82 1581.69 1822.28 1562.02 1797.99 1562.02C1773.7 1562.02 1754.16 1581.56 1754.16 1605.86V462.683" stroke="#00BFFF" stroke-width="3" stroke-miterlimit="10" stroke-linecap="round"/>
<path d="M1666.76 462.683V1595.82C1666.76 1619.99 1686.3 1639.66 1710.59 1639.66C1734.75 1639.66 1754.42 1620.12 1754.42 1595.82V462.683" stroke="#00BFFF" stroke-width="3" stroke-miterlimit="10" stroke-linecap="round"/>
<path d="M1666.76 462.683V1605.86C1666.76 1581.69 1647.23 1562.02 1622.94 1562.02C1598.78 1562.02 1579.11 1581.56 1579.11 1605.86V462.683" stroke="#00BFFF" stroke-width="3" stroke-miterlimit="10" stroke-linecap="round"/>
<path d="M1491.71 462.683V1595.82C1491.71 1619.99 1511.25 1639.66 1535.54 1639.66C1559.7 1639.66 1579.37 1620.12 1579.37 1595.82V462.683" stroke="#00BFFF" stroke-width="3" stroke-miterlimit="10" stroke-linecap="round"/>
<path d="M1491.71 462.683V1605.86C1491.71 1581.69 1472.17 1562.02 1447.88 1562.02C1423.59 1562.02 1404.05 1581.56 1404.05 1605.86V462.683" stroke="#00BFFF" stroke-width="3" stroke-miterlimit="10" stroke-linecap="round"/>
<path d="M1316.66 462.683V1595.82C1316.66 1619.99 1336.2 1639.66 1360.49 1639.66C1384.65 1639.66 1404.32 1620.12 1404.32 1595.82V462.683" stroke="#00BFFF" stroke-width="3" stroke-miterlimit="10" stroke-linecap="round"/>
<path d="M1316.66 462.683V1605.86C1316.66 1581.69 1297.12 1562.02 1272.83 1562.02C1248.67 1562.02 1229 1581.56 1229 1605.86V462.683" stroke="#00BFFF" stroke-width="3" stroke-miterlimit="10" stroke-linecap="round"/>
<path d="M1000.62 1431.81H867.676C861.868 1431.81 857.115 1427.06 857.115 1421.25V1393.25C857.115 1387.44 861.868 1382.69 867.676 1382.69H887.875" fill="white"/>
<path d="M1000.62 1431.81H867.676C861.868 1431.81 857.115 1427.06 857.115 1421.25V1393.25C857.115 1387.44 861.868 1382.69 867.676 1382.69H887.875" stroke="#00BFFF" stroke-width="3" stroke-miterlimit="10" stroke-linecap="round"/>
<path d="M1029.66 462.683C1029.66 747.255 1000.35 1066.56 877.05 1353.9" stroke="#00BFFF" stroke-width="3" stroke-miterlimit="10" stroke-linecap="round"/>
<path d="M946.358 462.683C946.358 777.099 958.504 955.105 876.654 1346.37" stroke="#00BFFF" stroke-width="3" stroke-miterlimit="10" stroke-linecap="round"/>
<path d="M1447.88 1697.37H658.037" stroke="#00BFFF" stroke-width="3" stroke-miterlimit="10" stroke-linecap="round"/>
<path d="M789.788 462.683V1595.82C789.788 1619.99 809.326 1639.66 833.617 1639.66C857.776 1639.66 877.446 1620.12 877.446 1595.82V462.683" fill="white"/>
<path d="M789.788 462.683V1595.82C789.788 1619.99 809.326 1639.66 833.617 1639.66C857.776 1639.66 877.446 1620.12 877.446 1595.82V462.683" stroke="#00BFFF" stroke-width="3" stroke-miterlimit="10" stroke-linecap="round"/>
<path d="M967.217 1684.82C967.217 1677.96 972.761 1672.28 979.758 1672.28H1000.62" stroke="#00BFFF" stroke-width="3" stroke-miterlimit="10" stroke-linecap="round"/>
<path d="M1143.06 1697.37H1050.12C1043.26 1697.37 1037.58 1691.82 1037.58 1684.82C1037.58 1677.96 1043.13 1672.28 1050.12 1672.28H1070.98" stroke="#00BFFF" stroke-width="3" stroke-miterlimit="10" stroke-linecap="round"/>
<path d="M1037.58 1684.82C1037.58 1677.96 1043.13 1672.28 1050.12 1672.28H1070.98" stroke="#00BFFF" stroke-width="3" stroke-miterlimit="10" stroke-linecap="round"/>
<path d="M1063.59 1184.88C1064.32 1184.88 1064.91 1184.28 1064.91 1183.55C1064.91 1182.83 1064.32 1182.23 1063.59 1182.23C1062.86 1182.23 1062.27 1182.83 1062.27 1183.55C1062.27 1184.28 1062.86 1184.88 1063.59 1184.88Z" stroke="#00BFFF" stroke-width="3" stroke-miterlimit="10" stroke-linecap="round"/>
<path d="M1048.8 1184.88C1049.53 1184.88 1050.12 1184.28 1050.12 1183.55C1050.12 1182.83 1049.53 1182.23 1048.8 1182.23C1048.07 1182.23 1047.48 1182.83 1047.48 1183.55C1047.48 1184.28 1048.07 1184.88 1048.8 1184.88Z" stroke="#00BFFF" stroke-width="3" stroke-miterlimit="10" stroke-linecap="round"/>
<path d="M1057.65 1190.03H1053.69C1051.84 1190.03 1050.39 1191.48 1050.39 1193.33C1050.39 1195.18 1051.84 1196.63 1053.69 1196.63H1057.65" stroke="#00BFFF" stroke-width="3" stroke-miterlimit="10" stroke-linecap="round"/>
<path d="M1068.87 1204.95H1078.11" stroke="#00BFFF" stroke-width="3" stroke-miterlimit="10" stroke-linecap="round"/>
<path d="M1773.96 324.293C1773.96 324.293 1784.13 136.251 1787.03 104.558C1790.07 71.8096 1810.79 30.7414 1851.19 12.3862C1851.19 12.3862 1920.1 -21.5511 1974.62 26.9119C1974.62 26.9119 1988.35 42.8902 1992.84 50.5492C1997.33 58.2082 2099.38 244.269 2104.92 262.889C2110.47 281.244 1773.96 324.293 1773.96 324.293Z" fill="#1C2535"/>
<path d="M1893.53 238.339C1936.86 232.913 1966.2 182.168 1959.04 124.997C1951.89 67.8259 1910.96 25.8779 1867.62 31.3036C1824.28 36.7293 1794.95 87.4742 1802.11 144.645C1809.26 201.817 1850.19 243.765 1893.53 238.339Z" fill="#6996F4"/>
<path d="M1865.18 232.781V312.408L1969.74 272.529L1936.74 203.069" fill="#6996F4"/>
<path d="M1954.03 128.724C1970.29 128.724 1983.47 115.54 1983.47 99.2763C1983.47 83.0129 1970.29 69.8287 1954.03 69.8287C1937.77 69.8287 1924.59 83.0129 1924.59 99.2763C1924.59 115.54 1937.77 128.724 1954.03 128.724Z" fill="#6996F4"/>
<path d="M1696.47 430.066L1993.11 429.406L1983.6 491.603H2104.53L2105.06 262.625C2105.06 262.625 2105.06 262.625 2083.54 261.436L1961.56 254.966L1865.32 269.095L1780.83 298.675C1771.59 301.976 1763.8 308.447 1759.04 317.03L1696.47 430.066Z" fill="#F9EEE3"/>
<path d="M1916.49 284.448C1942.9 280.136 1962.76 267.13 1960.84 255.398C1958.93 243.666 1935.97 237.651 1909.56 241.963C1883.15 246.275 1863.3 259.281 1865.21 271.013C1867.13 282.744 1890.08 288.76 1916.49 284.448Z" fill="#6996F4"/>
<path d="M1828.48 142.061C1832.06 142.061 1834.95 137.509 1834.95 131.893C1834.95 126.278 1832.06 121.725 1828.48 121.725C1824.91 121.725 1822.01 126.278 1822.01 131.893C1822.01 137.509 1824.91 142.061 1828.48 142.061Z" fill="#1C2535"/>
<path d="M1868.75 142.061C1872.32 142.061 1875.22 137.509 1875.22 131.893C1875.22 126.278 1872.32 121.725 1868.75 121.725C1865.18 121.725 1862.28 126.278 1862.28 131.893C1862.28 137.509 1865.18 142.061 1868.75 142.061Z" fill="#1C2535"/>
<path d="M1841.42 133.478L1839.44 186.431L1854.36 178.111" stroke="#1C2535" stroke-width="6" stroke-miterlimit="10" stroke-linecap="round" stroke-linejoin="round"/>
<path d="M1882.48 203.069C1891.85 210.2 1907.3 205.71 1916.93 193.033C1926.57 180.356 1926.83 164.378 1917.46 157.115L1882.48 203.069Z" fill="#1C2535"/>
<path d="M1814.49 383.188L1791.26 427.293" stroke="#F6CE87" stroke-width="6" stroke-miterlimit="10" stroke-linecap="round" stroke-linejoin="round"/>
<path d="M1697.79 429.142H1994.29C2007.63 429.142 2018.45 439.97 2018.45 453.308V515.636C2018.45 518.409 2016.21 520.654 2013.44 520.654C2010.66 520.654 2008.42 518.409 2008.42 515.636V491.471H2005.12V515.636C2005.12 518.409 2002.88 520.654 2000.1 520.654H1999.71C1996.94 520.654 1994.69 518.409 1994.69 515.636V491.471H1991.26V515.636C1991.26 518.409 1989.01 520.654 1986.24 520.654H1985.71C1982.94 520.654 1980.7 518.409 1980.7 515.636V491.471H1977.13V515.636C1977.13 518.409 1974.89 520.654 1972.12 520.654H1971.06C1968.29 520.654 1966.04 518.409 1966.04 515.636V490.942H1725.12C1697.13 490.942 1679.44 460.835 1692.9 436.405L1697 429.142" fill="#6996F4"/>
<path d="M1978.85 492.263V516.032" stroke="black" stroke-width="6" stroke-miterlimit="10" stroke-linecap="round" stroke-linejoin="round"/>
<path d="M1791.65 428.878H1770.26" stroke="black" stroke-width="6" stroke-miterlimit="10" stroke-linecap="round" stroke-linejoin="round"/>
<path d="M1993.11 492.263V516.032" stroke="black" stroke-width="6" stroke-miterlimit="10" stroke-linecap="round" stroke-linejoin="round"/>
<path d="M2006.84 492.263V516.032" stroke="black" stroke-width="6" stroke-miterlimit="10" stroke-linecap="round" stroke-linejoin="round"/>
<path d="M2104.4 491.999H2018.45" stroke="black" stroke-width="3" stroke-miterlimit="10" stroke-linecap="round" stroke-linejoin="round"/>
<path d="M1926.97 823.845H1297.91C1273.23 823.845 1253.16 803.774 1253.16 779.08V648.877C1253.16 624.183 1273.23 604.111 1297.91 604.111H1926.97C1951.65 604.111 1971.72 624.183 1971.72 648.877V779.08C1971.72 803.774 1951.65 823.845 1926.97 823.845Z" fill="#D7F7FF" stroke="#00BFFF" stroke-width="3" stroke-miterlimit="10" stroke-linecap="round" stroke-linejoin="round"/>
<path d="M1294.22 652.839C1294.22 652.047 1294.22 651.254 1294.22 650.462V634.616H1297.12V657.065H1293.69L1286.69 640.954C1286.17 639.766 1285.64 638.313 1285.64 638.313H1285.51C1285.51 638.974 1285.51 639.634 1285.51 640.294V657.197H1282.6V634.748H1286.43L1293.03 649.934C1293.69 651.254 1294.09 652.311 1294.22 652.839Z" fill="#00BFFF"/>
<path d="M1300.29 649.141C1300.29 644.123 1303.2 640.821 1307.68 640.821C1312.17 640.821 1315.08 644.123 1315.08 649.141C1315.08 654.159 1312.17 657.46 1307.68 657.46C1303.2 657.46 1300.29 654.159 1300.29 649.141ZM1312.04 649.141C1312.04 645.443 1310.33 643.198 1307.55 643.198C1304.65 643.198 1303.06 645.443 1303.06 649.141C1303.06 652.838 1304.78 655.083 1307.55 655.083C1310.46 655.083 1312.04 652.838 1312.04 649.141Z" fill="#00BFFF"/>
<path d="M1319.17 641.218L1320.75 652.046L1321.02 654.291H1321.28C1321.41 653.63 1321.55 653.102 1321.81 651.65L1323.92 641.218H1326.69L1328.81 651.65C1329.07 653.102 1329.2 653.63 1329.34 654.291H1329.6L1329.86 652.046L1331.45 641.218H1334.22L1331.18 657.064H1327.75L1325.64 646.896C1325.51 646.235 1325.37 644.915 1325.37 644.255H1325.11C1325.11 644.915 1324.98 646.235 1324.85 646.896L1322.73 657.064H1319.3L1316.27 641.218H1319.17Z" fill="#00BFFF"/>
<path d="M1353.62 641.218H1358.11V637.124L1360.75 635.935V641.218H1366.96V643.33H1360.75V651.518C1360.75 653.63 1361.81 654.687 1363.79 654.687C1364.85 654.687 1365.9 654.555 1366.96 654.423V656.932C1366.17 657.064 1365.24 657.328 1363.92 657.328C1359.96 657.328 1358.11 655.083 1358.11 652.046V643.462H1353.62V641.218Z" fill="#00BFFF"/>
<path d="M1379.37 640.953C1380.69 640.953 1382.14 641.35 1383.2 642.406C1384.25 643.33 1384.78 644.915 1384.78 647.424V657.196H1382.14V647.556C1382.14 644.123 1380.42 643.33 1378.71 643.33C1375.28 643.33 1374.35 646.632 1374.35 648.877V657.064H1371.71V634.219H1374.35V644.255C1375.14 642.274 1377.12 640.953 1379.37 640.953Z" fill="#00BFFF"/>
<path d="M1402.47 657.064H1399.7C1399.57 656.139 1399.44 655.083 1399.44 654.159C1398.38 656.404 1396.66 657.46 1394.15 657.46C1390.99 657.46 1388.87 655.479 1388.87 652.838C1388.87 651.254 1389.67 649.933 1391.12 649.141C1392.17 648.613 1393.89 648.216 1396.53 647.82L1399.44 647.424V647.16C1399.44 644.387 1398.38 643.066 1396 643.066C1393.76 643.066 1392.44 644.255 1392.31 646.236H1389.4C1389.67 642.802 1392.17 640.953 1396.13 640.953C1400.23 640.953 1402.08 642.934 1402.08 647.556V651.782C1401.94 654.291 1402.08 655.875 1402.47 657.064ZM1395.47 649.933C1392.7 650.329 1391.65 651.121 1391.65 652.706C1391.65 654.291 1392.7 655.347 1394.55 655.347C1397.45 655.347 1399.17 653.366 1399.17 650.329V649.537L1395.47 649.933Z" fill="#00BFFF"/>
<path d="M1406.7 641.218H1411.18V637.124L1413.82 635.935V641.218H1420.03V643.33H1413.82V651.518C1413.82 653.63 1414.88 654.687 1416.86 654.687C1417.92 654.687 1418.97 654.555 1420.03 654.423V656.932C1419.24 657.064 1418.31 657.328 1416.99 657.328C1413.03 657.328 1411.18 655.083 1411.18 652.046V643.462H1406.7V641.218Z" fill="#00BFFF"/>
<path d="M1449.2 653.895L1453.56 641.218H1456.47L1450.13 657.988C1448.68 661.95 1446.83 663.27 1444.19 663.27C1443.66 663.27 1443.26 663.27 1442.74 663.138V660.761C1443.13 660.761 1443.53 660.761 1443.92 660.761C1445.9 660.761 1446.83 659.969 1447.49 657.856L1447.88 656.668L1441.68 641.086H1444.72L1449.2 653.895Z" fill="#00BFFF"/>
<path d="M1459.37 649.141C1459.37 644.123 1462.27 640.821 1466.76 640.821C1471.25 640.821 1474.16 644.123 1474.16 649.141C1474.16 654.159 1471.25 657.46 1466.76 657.46C1462.27 657.46 1459.37 654.159 1459.37 649.141ZM1471.12 649.141C1471.12 645.443 1469.4 643.198 1466.63 643.198C1463.73 643.198 1462.14 645.443 1462.14 649.141C1462.14 652.838 1463.86 655.083 1466.63 655.083C1469.54 655.083 1471.12 652.838 1471.12 649.141Z" fill="#00BFFF"/>
<path d="M1483.26 657.46C1481.81 657.46 1480.36 657.064 1479.17 656.007C1478.12 655.083 1477.72 653.498 1477.72 650.989V641.218H1480.49V650.857C1480.49 654.291 1482.08 655.083 1483.79 655.083C1487.09 655.083 1487.88 651.782 1487.88 649.405V641.218H1490.53V657.064H1488.02V654.027C1487.49 655.611 1485.51 657.46 1483.26 657.46Z" fill="#00BFFF"/>
<path d="M1519.17 649.273L1516.27 652.178V657.064H1513.63V634.219H1516.27V649.141L1523.4 641.35H1526.96L1521.15 647.424L1527.36 657.064H1524.06L1519.17 649.273Z" fill="#00BFFF"/>
<path d="M1538.58 640.953C1539.9 640.953 1541.35 641.35 1542.41 642.274C1543.46 643.198 1543.86 644.783 1543.86 647.292V657.064H1541.22V647.424C1541.22 643.991 1539.5 643.198 1537.92 643.198C1534.35 643.198 1533.56 646.5 1533.56 648.744V656.932H1530.92V641.086H1533.43V644.255C1534.22 642.406 1535.94 640.953 1538.58 640.953Z" fill="#00BFFF"/>
<path d="M1547.69 649.141C1547.69 644.123 1550.59 640.821 1555.08 640.821C1559.57 640.821 1562.47 644.123 1562.47 649.141C1562.47 654.159 1559.57 657.46 1555.08 657.46C1550.59 657.46 1547.69 654.159 1547.69 649.141ZM1559.57 649.141C1559.57 645.443 1557.85 643.198 1555.08 643.198C1552.18 643.198 1550.59 645.443 1550.59 649.141C1550.59 652.838 1552.31 655.083 1555.08 655.083C1557.85 655.083 1559.57 652.838 1559.57 649.141Z" fill="#00BFFF"/>
<path d="M1566.57 641.218L1568.15 652.046L1568.41 654.291H1568.68C1568.81 653.63 1568.94 653.102 1569.21 651.65L1571.32 641.218H1574.09L1576.2 651.65C1576.47 653.102 1576.6 653.63 1576.73 654.291H1577L1577.26 652.046L1578.84 641.218H1581.62L1578.58 657.064H1575.15L1573.04 646.896C1572.9 646.235 1572.77 644.915 1572.77 644.255H1572.51C1572.51 644.915 1572.38 646.235 1572.24 646.896L1570.13 657.064H1566.7L1563.66 641.218H1566.57Z" fill="#00BFFF"/>
<path d="M1600.76 649.141C1600.76 644.123 1603.66 640.821 1608.15 640.821C1612.64 640.821 1615.54 644.123 1615.54 649.141C1615.54 654.159 1612.64 657.46 1608.15 657.46C1603.66 657.46 1600.76 654.159 1600.76 649.141ZM1612.64 649.141C1612.64 645.443 1610.92 643.198 1608.15 643.198C1605.25 643.198 1603.66 645.443 1603.66 649.141C1603.66 652.838 1605.38 655.083 1608.15 655.083C1610.92 655.083 1612.64 652.838 1612.64 649.141Z" fill="#00BFFF"/>
<path d="M1632.31 643.462H1626.37V657.064H1623.73V643.462H1618.84V641.35H1623.73V639.633C1623.73 636.068 1625.71 634.219 1629.67 634.219C1630.59 634.219 1631.39 634.351 1632.44 634.483V636.86C1631.78 636.728 1630.86 636.596 1629.67 636.596C1627.29 636.596 1626.37 637.388 1626.37 639.765V641.35H1632.31V643.462Z" fill="#00BFFF"/>
<path d="M1654.09 641.218H1658.58V637.124L1661.22 635.935V641.218H1667.43V643.33H1661.22V651.518C1661.22 653.63 1662.28 654.687 1664.26 654.687C1665.31 654.687 1666.37 654.555 1667.43 654.423V656.932C1666.63 657.064 1665.71 657.328 1664.39 657.328C1660.43 657.328 1658.58 655.083 1658.58 652.046V643.462H1654.09V641.218Z" fill="#00BFFF"/>
<path d="M1679.84 640.953C1681.16 640.953 1682.61 641.35 1683.66 642.406C1684.72 643.33 1685.25 644.915 1685.25 647.424V657.196H1682.61V647.556C1682.61 644.123 1680.89 643.33 1679.18 643.33C1675.74 643.33 1674.82 646.632 1674.82 648.877V657.064H1672.18V634.219H1674.82V644.255C1675.61 642.274 1677.59 640.953 1679.84 640.953Z" fill="#00BFFF"/>
<path d="M1703.07 649.801H1691.98C1691.98 652.706 1693.7 654.951 1696.6 654.951C1698.71 654.951 1700.03 653.63 1700.83 652.178L1703.07 653.366C1701.75 656.007 1699.64 657.328 1696.6 657.328C1691.58 657.328 1689.21 653.894 1689.21 648.744C1689.21 643.859 1691.98 640.821 1696.47 640.821C1701.35 640.821 1703.2 644.255 1703.2 648.612C1703.07 649.009 1703.07 649.405 1703.07 649.801ZM1696.2 642.934C1693.3 642.934 1691.85 645.311 1691.85 647.556H1700.17C1700.3 645.179 1699.11 642.934 1696.2 642.934Z" fill="#00BFFF"/>
<path d="M1724.46 649.141C1724.46 644.123 1727.36 640.821 1731.85 640.821C1736.34 640.821 1739.24 644.123 1739.24 649.141C1739.24 654.159 1736.34 657.46 1731.85 657.46C1727.36 657.46 1724.46 654.159 1724.46 649.141ZM1736.34 649.141C1736.34 645.443 1734.62 643.198 1731.85 643.198C1728.94 643.198 1727.36 645.443 1727.36 649.141C1727.36 652.838 1729.08 655.083 1731.85 655.083C1734.62 655.083 1736.34 652.838 1736.34 649.141Z" fill="#00BFFF"/>
<path d="M1753.63 640.953C1754.82 640.953 1755.74 641.086 1756.54 641.218V643.727C1755.88 643.594 1754.69 643.462 1753.63 643.462C1749.8 643.462 1746.77 646.103 1746.77 651.253V657.064H1744.13V641.218H1746.77V645.311C1747.82 642.934 1750.46 640.953 1753.63 640.953Z" fill="#00BFFF"/>
<path d="M1761.29 654.819H1766.3V643.462H1761.68V641.218H1768.95V654.819H1774.23V657.064H1761.16V654.819H1761.29ZM1769.34 638.18H1765.51V634.351H1769.34V638.18Z" fill="#00BFFF"/>
<path d="M1789.14 642.538C1790.07 643.462 1790.6 644.651 1790.6 646.236C1790.6 649.405 1788.22 651.65 1784.65 651.65C1783.6 651.65 1782.54 651.386 1781.75 650.989C1781.09 651.253 1780.69 651.782 1780.69 652.574C1780.69 653.498 1781.49 654.159 1783.33 654.159H1787.43C1790.73 654.159 1792.58 655.743 1792.58 658.516C1792.58 661.818 1789.67 663.666 1784.79 663.666C1780.3 663.666 1777.66 662.082 1777.66 659.705C1777.66 657.988 1778.71 656.8 1780.43 656.139C1779.11 655.611 1778.45 654.687 1778.45 653.366C1778.45 651.914 1779.24 650.857 1780.69 650.329C1779.64 649.405 1779.11 648.084 1779.11 646.5C1779.11 643.33 1781.49 641.085 1784.92 641.085C1786.11 641.085 1787.03 641.35 1787.96 641.746C1788.48 639.897 1789.8 638.841 1791.78 638.841C1792.18 638.841 1792.44 638.841 1792.84 638.973V641.35C1792.31 641.35 1792.05 641.218 1791.65 641.218C1790.33 641.086 1789.67 641.482 1789.14 642.538ZM1783.2 656.536C1782.67 656.536 1782.28 656.536 1781.88 656.536C1780.83 657.064 1780.17 657.856 1780.17 658.912C1780.17 660.629 1781.75 661.421 1784.92 661.421C1788.35 661.421 1789.8 660.497 1789.8 658.78C1789.8 657.328 1788.75 656.536 1786.77 656.536H1783.2ZM1788.09 646.236C1788.09 644.387 1786.77 642.934 1784.79 642.934C1782.81 642.934 1781.49 644.387 1781.49 646.236C1781.49 648.216 1782.81 649.537 1784.65 649.537C1786.64 649.537 1788.09 648.084 1788.09 646.236Z" fill="#00BFFF"/>
<path d="M1796.67 654.819H1801.68V643.462H1797.06V641.218H1804.33V654.819H1809.61V657.064H1796.54V654.819H1796.67ZM1804.72 638.18H1800.89V634.351H1804.72V638.18Z" fill="#00BFFF"/>
<path d="M1821.36 640.953C1822.68 640.953 1824.13 641.35 1825.18 642.274C1826.24 643.198 1826.64 644.783 1826.64 647.292V657.064H1824V647.424C1824 643.991 1822.28 643.198 1820.7 643.198C1817.13 643.198 1816.34 646.5 1816.34 648.744V656.932H1813.7V641.086H1816.21V644.255C1817 642.406 1818.71 640.953 1821.36 640.953Z" fill="#00BFFF"/>
<path d="M1831.39 652.178L1834.16 651.65C1834.56 653.895 1836.01 655.215 1838.39 655.215C1840.5 655.215 1841.69 654.291 1841.69 652.838C1841.69 651.254 1840.89 650.593 1839.18 650.329L1836.67 650.065C1833.5 649.669 1832.05 647.952 1832.05 645.575C1832.05 642.67 1834.29 640.953 1837.99 640.953C1841.55 640.953 1844.06 642.802 1844.33 645.707L1841.69 646.368C1841.29 644.519 1840.1 643.198 1837.86 643.198C1835.75 643.198 1834.56 643.991 1834.56 645.575C1834.56 646.896 1835.48 647.688 1837.46 647.952L1839.97 648.216C1843.14 648.612 1844.33 650.197 1844.33 652.706C1844.33 655.743 1842.08 657.592 1838.25 657.592C1834.43 657.46 1831.92 655.611 1831.39 652.178Z" fill="#00BFFF"/>
<path d="M1865.84 649.141C1865.84 644.123 1868.75 640.821 1873.24 640.821C1877.73 640.821 1880.63 644.123 1880.63 649.141C1880.63 654.159 1877.73 657.46 1873.24 657.46C1868.75 657.46 1865.84 654.159 1865.84 649.141ZM1877.73 649.141C1877.73 645.443 1876.01 643.198 1873.24 643.198C1870.33 643.198 1868.75 645.443 1868.75 649.141C1868.75 652.838 1870.47 655.083 1873.24 655.083C1876.01 655.083 1877.73 652.838 1877.73 649.141Z" fill="#00BFFF"/>
<path d="M1897.53 643.462H1891.59V657.064H1888.95V643.462H1884.06V641.35H1888.95V639.633C1888.95 636.068 1890.93 634.219 1894.89 634.219C1895.81 634.219 1896.6 634.351 1897.66 634.483V636.86C1897 636.728 1896.08 636.596 1894.89 636.596C1892.51 636.596 1891.59 637.388 1891.59 639.765V641.35H1897.53V643.462Z" fill="#00BFFF"/>
<path d="M1282.87 683.474H1287.35V679.381L1289.99 678.192V683.474H1296.2V685.587H1289.99V693.774C1289.99 695.887 1291.05 696.943 1293.03 696.943C1294.09 696.943 1295.14 696.811 1296.2 696.679V699.188C1295.41 699.32 1294.48 699.584 1293.16 699.584C1289.2 699.584 1287.35 697.34 1287.35 694.302V685.719H1282.87V683.474Z" fill="#00BFFF"/>
<path d="M1308.74 683.21C1310.06 683.21 1311.51 683.606 1312.57 684.663C1313.63 685.587 1314.15 687.172 1314.15 689.681V699.452H1311.51V689.813C1311.51 686.379 1309.8 685.587 1308.08 685.587C1304.65 685.587 1303.72 688.888 1303.72 691.133V699.32H1301.08V676.475H1303.72V686.511C1304.52 684.531 1306.36 683.21 1308.74 683.21Z" fill="#00BFFF"/>
<path d="M1331.84 692.058H1320.75C1320.75 694.963 1322.47 697.208 1325.37 697.208C1327.49 697.208 1328.81 695.887 1329.6 694.435L1331.84 695.623C1330.52 698.264 1328.41 699.584 1325.37 699.584C1320.36 699.584 1317.98 696.151 1317.98 691.001C1317.98 686.115 1320.75 683.078 1325.24 683.078C1330.13 683.078 1331.98 686.511 1331.98 690.869C1331.84 691.265 1331.84 691.661 1331.84 692.058ZM1325.11 685.191C1322.21 685.191 1320.75 687.568 1320.75 689.813H1329.07C1329.2 687.436 1327.88 685.191 1325.11 685.191Z" fill="#00BFFF"/>
<path d="M1367.88 699.32H1364.98V689.152H1356.4V699.32H1353.49V676.872H1356.4V686.643H1364.98V676.872H1367.88V699.32Z" fill="#00BFFF"/>
<path d="M1377.12 699.716C1375.67 699.716 1374.22 699.32 1373.03 698.264C1371.98 697.34 1371.58 695.755 1371.58 693.246V683.474H1374.35V693.114C1374.35 696.547 1375.94 697.34 1377.65 697.34C1380.95 697.34 1381.75 694.038 1381.75 691.661V683.474H1384.39V699.32H1381.88V696.283C1381.35 697.868 1379.5 699.716 1377.12 699.716Z" fill="#00BFFF"/>
<path d="M1393.63 683.21C1395.21 683.21 1396.4 684.267 1396.93 686.115C1397.72 684.267 1399.04 683.21 1400.62 683.21C1402.6 683.21 1404.32 684.531 1404.32 687.964V699.452H1401.68V688.228C1401.68 686.247 1400.75 685.719 1399.83 685.719C1397.98 685.719 1397.32 687.04 1397.32 689.02V699.452H1394.68V688.228C1394.68 686.247 1393.89 685.719 1392.83 685.719C1390.99 685.719 1390.33 687.172 1390.33 689.02V699.452H1387.69V683.606H1390.19V685.983C1390.72 684.266 1392.04 683.21 1393.63 683.21Z" fill="#00BFFF"/>
<path d="M1420.16 699.32H1417.39C1417.26 698.396 1417.12 697.34 1417.12 696.415C1416.07 698.66 1414.35 699.716 1411.84 699.716C1408.68 699.716 1406.56 697.736 1406.56 695.095C1406.56 693.51 1407.36 692.19 1408.81 691.397C1409.86 690.869 1411.58 690.473 1414.22 690.077L1417.12 689.681V689.417C1417.12 686.643 1416.07 685.323 1413.69 685.323C1411.45 685.323 1410.13 686.511 1410 688.492H1407.09C1407.36 685.059 1409.86 683.21 1413.82 683.21C1417.92 683.21 1419.77 685.191 1419.77 689.813V694.038C1419.63 696.547 1419.76 698.132 1420.16 699.32ZM1413.16 692.19C1410.39 692.586 1409.34 693.378 1409.34 694.963C1409.34 696.547 1410.39 697.604 1412.24 697.604C1415.14 697.604 1416.86 695.623 1416.86 692.586V691.793L1413.16 692.19Z" fill="#00BFFF"/>
<path d="M1432.57 683.21C1433.89 683.21 1435.34 683.606 1436.4 684.531C1437.46 685.455 1437.85 687.04 1437.85 689.549V699.32H1435.21V689.681C1435.21 686.247 1433.5 685.455 1431.91 685.455C1428.35 685.455 1427.55 688.756 1427.55 691.001V699.188H1424.91V683.342H1427.42V686.511C1428.08 684.663 1429.8 683.21 1432.57 683.21Z" fill="#00BFFF"/>
<path d="M1442.6 694.435L1445.38 693.906C1445.77 696.151 1447.22 697.472 1449.6 697.472C1451.71 697.472 1452.9 696.547 1452.9 695.095C1452.9 693.51 1452.11 692.85 1450.39 692.586L1447.88 692.322C1444.72 691.925 1443.26 690.209 1443.26 687.832C1443.26 684.927 1445.51 683.21 1449.2 683.21C1452.77 683.21 1455.28 685.059 1455.54 687.964L1452.9 688.624C1452.5 686.775 1451.32 685.455 1449.07 685.455C1446.96 685.455 1445.77 686.247 1445.77 687.832C1445.77 689.152 1446.7 689.945 1448.68 690.209L1451.18 690.473C1454.35 690.869 1455.54 692.454 1455.54 694.963C1455.54 698 1453.3 699.849 1449.47 699.849C1445.64 699.717 1443.13 697.868 1442.6 694.435Z" fill="#00BFFF"/>
<path d="M1476.93 691.397C1476.93 686.379 1479.83 683.078 1484.32 683.078C1488.81 683.078 1491.71 686.379 1491.71 691.397C1491.71 696.415 1488.81 699.716 1484.32 699.716C1479.83 699.716 1476.93 696.415 1476.93 691.397ZM1488.81 691.397C1488.81 687.7 1487.09 685.455 1484.32 685.455C1481.42 685.455 1479.83 687.7 1479.83 691.397C1479.83 695.095 1481.55 697.34 1484.32 697.34C1487.23 697.34 1488.81 695.095 1488.81 691.397Z" fill="#00BFFF"/>
<path d="M1508.61 685.719H1502.67V699.32H1500.03V685.719H1495.15V683.606H1500.03V681.89C1500.03 678.324 1502.01 676.475 1505.97 676.475C1506.9 676.475 1507.69 676.607 1508.74 676.739V679.116C1508.08 678.984 1507.16 678.852 1505.97 678.852C1503.6 678.852 1502.67 679.645 1502.67 682.022V683.606H1508.61V685.719Z" fill="#00BFFF"/>
<path d="M1544.92 679.381H1534.09V686.511H1543.99V689.02H1534.09V699.188H1531.19V676.74H1544.92V679.381Z" fill="#00BFFF"/>
<path d="M1549.14 697.076H1554.16V678.588H1549.4V676.343H1556.8V697.076H1562.08V699.32H1549.01V697.076H1549.14Z" fill="#00BFFF"/>
<path d="M1579.24 699.32H1576.47C1576.34 698.396 1576.2 697.34 1576.2 696.415C1575.15 698.66 1573.43 699.716 1570.92 699.716C1567.75 699.716 1565.64 697.736 1565.64 695.095C1565.64 693.51 1566.43 692.19 1567.89 691.397C1568.94 690.869 1570.66 690.473 1573.3 690.077L1576.2 689.681V689.417C1576.2 686.643 1575.15 685.323 1572.77 685.323C1570.53 685.323 1569.21 686.511 1569.07 688.492H1566.17C1566.43 685.059 1568.94 683.21 1572.9 683.21C1577 683.21 1578.84 685.191 1578.84 689.813V694.038C1578.71 696.547 1578.84 698.132 1579.24 699.32ZM1572.24 692.19C1569.47 692.586 1568.41 693.378 1568.41 694.963C1568.41 696.547 1569.47 697.604 1571.32 697.604C1574.22 697.604 1575.94 695.623 1575.94 692.586V691.793L1572.24 692.19Z" fill="#00BFFF"/>
<path d="M1583.33 683.474H1587.82V679.381L1590.46 678.192V683.474H1596.67V685.587H1590.46V693.774C1590.46 695.887 1591.52 696.943 1593.5 696.943C1594.55 696.943 1595.61 696.811 1596.67 696.679V699.188C1595.87 699.32 1594.95 699.584 1593.63 699.584C1589.67 699.584 1587.82 697.34 1587.82 694.302V685.719H1583.33V683.474Z" fill="#00BFFF"/>
<path d="M1618.71 683.474H1623.2V679.381L1625.84 678.192V683.474H1632.05V685.587H1625.84V693.774C1625.84 695.887 1626.9 696.943 1628.88 696.943C1629.93 696.943 1630.99 696.811 1632.05 696.679V699.188C1631.25 699.32 1630.33 699.584 1629.01 699.584C1625.05 699.584 1623.2 697.34 1623.2 694.302V685.719H1618.71V683.474Z" fill="#00BFFF"/>
<path d="M1649.87 699.32H1647.1C1646.96 698.396 1646.83 697.34 1646.83 696.415C1645.78 698.66 1644.06 699.716 1641.55 699.716C1638.38 699.716 1636.27 697.736 1636.27 695.095C1636.27 693.51 1637.06 692.19 1638.51 691.397C1639.57 690.869 1641.29 690.473 1643.93 690.077L1646.83 689.681V689.417C1646.83 686.643 1645.78 685.323 1643.4 685.323C1641.15 685.323 1639.83 686.511 1639.7 688.492H1636.8C1637.06 685.059 1639.57 683.21 1643.53 683.21C1647.62 683.21 1649.47 685.191 1649.47 689.813V694.038C1649.34 696.547 1649.6 698.132 1649.87 699.32ZM1643 692.19C1640.23 692.586 1639.17 693.378 1639.17 694.963C1639.17 696.547 1640.23 697.604 1642.08 697.604C1644.98 697.604 1646.7 695.623 1646.7 692.586V691.793L1643 692.19Z" fill="#00BFFF"/>
<path d="M1660.56 691.529L1657.66 694.434V699.32H1655.02V676.475H1657.66V691.397L1664.79 683.606H1668.35L1662.54 689.681L1668.75 699.32H1665.45L1660.56 691.529Z" fill="#00BFFF"/>
<path d="M1685.38 692.058H1674.29C1674.29 694.963 1676.01 697.208 1678.91 697.208C1681.02 697.208 1682.34 695.887 1683.13 694.435L1685.38 695.623C1684.06 698.264 1681.95 699.584 1678.91 699.584C1673.89 699.584 1671.52 696.151 1671.52 691.001C1671.52 686.115 1674.29 683.078 1678.78 683.078C1683.66 683.078 1685.51 686.511 1685.51 690.869C1685.38 691.265 1685.38 691.661 1685.38 692.058ZM1678.51 685.191C1675.61 685.191 1674.16 687.568 1674.16 689.813H1682.47C1682.74 687.436 1681.42 685.191 1678.51 685.191Z" fill="#00BFFF"/>
<path d="M1720.63 699.32H1717.86C1717.72 698.396 1717.59 697.34 1717.59 696.415C1716.54 698.66 1714.82 699.716 1712.31 699.716C1709.14 699.716 1707.03 697.736 1707.03 695.095C1707.03 693.51 1707.82 692.19 1709.27 691.397C1710.33 690.869 1712.05 690.473 1714.69 690.077L1717.59 689.681V689.417C1717.59 686.643 1716.54 685.323 1714.16 685.323C1711.91 685.323 1710.59 686.511 1710.46 688.492H1707.56C1707.82 685.059 1710.33 683.21 1714.29 683.21C1718.38 683.21 1720.23 685.191 1720.23 689.813V694.038C1720.1 696.547 1720.23 698.132 1720.63 699.32ZM1713.63 692.19C1710.86 692.586 1709.8 693.378 1709.8 694.963C1709.8 696.547 1710.86 697.604 1712.71 697.604C1715.61 697.604 1717.33 695.623 1717.33 692.586V691.793L1713.63 692.19Z" fill="#00BFFF"/>
<path d="M1743.6 697.076H1748.62V678.588H1743.86V676.343H1751.26V697.076H1756.54V699.32H1743.47V697.076H1743.6Z" fill="#00BFFF"/>
<path d="M1759.84 691.397C1759.84 686.379 1762.74 683.078 1767.23 683.078C1771.72 683.078 1774.62 686.379 1774.62 691.397C1774.62 696.415 1771.72 699.716 1767.23 699.716C1762.74 699.716 1759.84 696.415 1759.84 691.397ZM1771.72 691.397C1771.72 687.7 1770 685.455 1767.23 685.455C1764.32 685.455 1762.74 687.7 1762.74 691.397C1762.74 695.095 1764.46 697.34 1767.23 697.34C1770 697.34 1771.72 695.095 1771.72 691.397Z" fill="#00BFFF"/>
<path d="M1777.53 691.397C1777.53 686.379 1780.43 683.078 1784.92 683.078C1789.41 683.078 1792.31 686.379 1792.31 691.397C1792.31 696.415 1789.41 699.716 1784.92 699.716C1780.43 699.716 1777.53 696.415 1777.53 691.397ZM1789.28 691.397C1789.28 687.7 1787.56 685.455 1784.79 685.455C1781.88 685.455 1780.3 687.7 1780.3 691.397C1780.3 695.095 1782.01 697.34 1784.79 697.34C1787.69 697.34 1789.28 695.095 1789.28 691.397Z" fill="#00BFFF"/>
<path d="M1801.95 691.529L1799.04 694.434V699.32H1796.4V676.475H1799.04V691.397L1806.17 683.606H1809.74L1803.93 689.681L1810.13 699.32H1806.83L1801.95 691.529Z" fill="#00BFFF"/>
<path d="M1834.29 686.247C1835.09 684.399 1837.07 683.078 1839.18 683.078C1843.27 683.078 1845.65 686.511 1845.65 691.265C1845.65 696.151 1843.14 699.584 1839.05 699.584C1836.93 699.584 1834.95 698.396 1834.16 696.547L1833.63 699.32H1831.52V676.475H1834.16V686.247H1834.29ZM1838.39 697.34C1841.16 697.34 1842.74 694.963 1842.74 691.397C1842.74 687.832 1841.16 685.587 1838.39 685.587C1835.75 685.587 1834.16 687.7 1834.16 691.133V691.925C1834.16 695.095 1835.75 697.34 1838.39 697.34Z" fill="#00BFFF"/>
<path d="M1862.15 692.058H1851.06C1851.06 694.963 1852.78 697.208 1855.68 697.208C1857.79 697.208 1859.11 695.887 1859.9 694.435L1862.15 695.623C1860.83 698.264 1858.72 699.584 1855.68 699.584C1850.66 699.584 1848.29 696.151 1848.29 691.001C1848.29 686.115 1851.06 683.078 1855.55 683.078C1860.43 683.078 1862.28 686.511 1862.28 690.869C1862.15 691.265 1862.15 691.661 1862.15 692.058ZM1855.28 685.191C1852.38 685.191 1850.93 687.568 1850.93 689.813H1859.24C1859.38 687.436 1858.19 685.191 1855.28 685.191Z" fill="#00BFFF"/>
<path d="M1874.29 683.21C1875.61 683.21 1877.07 683.606 1878.12 684.663C1879.18 685.587 1879.71 687.172 1879.71 689.681V699.452H1877.07V689.813C1877.07 686.379 1875.35 685.587 1873.63 685.587C1870.2 685.587 1869.28 688.888 1869.28 691.133V699.32H1866.64V676.475H1869.28V686.511C1870.07 684.531 1872.05 683.21 1874.29 683.21Z" fill="#00BFFF"/>
<path d="M1884.99 697.076H1890V685.719H1885.38V683.474H1892.64V697.076H1897.92V699.32H1884.85V697.076H1884.99ZM1893.04 680.437H1889.21V676.607H1893.04V680.437Z" fill="#00BFFF"/>
<path d="M1909.81 683.21C1911.13 683.21 1912.58 683.606 1913.63 684.531C1914.69 685.455 1915.09 687.04 1915.09 689.549V699.32H1912.45V689.681C1912.45 686.247 1910.73 685.455 1909.15 685.455C1905.58 685.455 1904.79 688.756 1904.79 691.001V699.188H1902.15V683.342H1904.66V686.511C1905.32 684.663 1907.03 683.21 1909.81 683.21Z" fill="#00BFFF"/>
<path d="M1932.25 676.475V699.32H1929.74V696.415C1928.82 698.528 1927.36 699.716 1924.72 699.716C1920.76 699.716 1918.25 696.415 1918.25 691.397C1918.25 686.379 1921.03 683.21 1925.12 683.21C1927.23 683.21 1928.82 684.398 1929.61 685.983V676.607H1932.25V676.475ZM1925.38 685.455C1922.61 685.455 1921.03 687.568 1921.03 691.265C1921.03 694.963 1922.61 697.207 1925.25 697.207C1927.89 697.207 1929.61 695.095 1929.61 691.661V691.001C1929.74 687.7 1928.02 685.455 1925.38 685.455Z" fill="#00BFFF"/>
<path d="M1282.87 725.731H1287.35V721.637L1289.99 720.449V725.731H1296.2V727.844H1289.99V736.031C1289.99 738.144 1291.05 739.2 1293.03 739.2C1294.09 739.2 1295.14 739.068 1296.2 738.936V741.445C1295.41 741.577 1294.48 741.841 1293.16 741.841C1289.2 741.841 1287.35 739.596 1287.35 736.559V727.976H1282.87V725.731Z" fill="#00BFFF"/>
<path d="M1308.74 725.467C1310.06 725.467 1311.51 725.863 1312.57 726.919C1313.63 727.844 1314.15 729.428 1314.15 731.937V741.709H1311.51V732.069C1311.51 728.636 1309.8 727.844 1308.08 727.844C1304.65 727.844 1303.72 731.145 1303.72 733.39V741.577H1301.08V718.732H1303.72V728.768C1304.52 726.787 1306.36 725.467 1308.74 725.467Z" fill="#00BFFF"/>
<path d="M1331.84 734.314H1320.75C1320.75 737.219 1322.47 739.464 1325.37 739.464C1327.49 739.464 1328.81 738.144 1329.6 736.691L1331.84 737.88C1330.52 740.521 1328.41 741.841 1325.37 741.841C1320.36 741.841 1317.98 738.408 1317.98 733.258C1317.98 728.372 1320.75 725.335 1325.24 725.335C1330.13 725.335 1331.98 728.768 1331.98 733.126C1331.84 733.522 1331.84 733.918 1331.84 734.314ZM1325.11 727.447C1322.21 727.447 1320.75 729.824 1320.75 732.069H1329.07C1329.2 729.692 1327.88 727.447 1325.11 727.447Z" fill="#00BFFF"/>
<path d="M1353.36 733.522C1353.36 728.768 1355.74 725.335 1360.75 725.335C1364.32 725.335 1366.83 727.315 1367.22 731.013L1364.45 731.277C1364.19 728.9 1362.87 727.712 1360.62 727.712C1357.72 727.712 1356.27 730.088 1356.27 733.522C1356.27 737.087 1357.72 739.596 1360.75 739.596C1363 739.596 1364.32 738.144 1364.71 735.767L1367.22 736.163C1366.69 739.332 1364.71 741.973 1360.75 741.973C1355.87 741.973 1353.36 738.276 1353.36 733.522Z" fill="#00BFFF"/>
<path d="M1377.12 741.973C1375.67 741.973 1374.22 741.577 1373.03 740.521C1371.98 739.596 1371.58 738.012 1371.58 735.503V725.731H1374.35V735.371C1374.35 738.804 1375.94 739.596 1377.65 739.596C1380.95 739.596 1381.75 736.295 1381.75 733.918V725.731H1384.39V741.577H1381.88V738.54C1381.35 740.124 1379.5 741.973 1377.12 741.973Z" fill="#00BFFF"/>
<path d="M1400.23 725.467C1401.42 725.467 1402.34 725.599 1403.13 725.731V728.24C1402.47 728.108 1401.28 727.976 1400.23 727.976C1396.4 727.976 1393.36 730.617 1393.36 735.767V741.577H1390.72V725.731H1393.36V729.824C1394.29 727.447 1396.93 725.467 1400.23 725.467Z" fill="#00BFFF"/>
<path d="M1406.7 725.731H1411.18V721.637L1413.82 720.449V725.731H1420.03V727.844H1413.82V736.031C1413.82 738.144 1414.88 739.2 1416.86 739.2C1417.92 739.2 1418.97 739.068 1420.03 738.936V741.445C1419.24 741.577 1418.31 741.841 1416.99 741.841C1413.03 741.841 1411.18 739.596 1411.18 736.559V727.976H1406.7V725.731Z" fill="#00BFFF"/>
<path d="M1437.85 741.577H1435.08C1434.95 740.653 1434.82 739.596 1434.82 738.672C1433.76 740.917 1432.04 741.973 1429.53 741.973C1426.37 741.973 1424.25 739.992 1424.25 737.351C1424.25 735.767 1425.05 734.446 1426.5 733.654C1427.55 733.126 1429.27 732.73 1431.91 732.333L1434.82 731.937V731.673C1434.82 728.9 1433.76 727.579 1431.38 727.579C1429.14 727.579 1427.82 728.768 1427.69 730.749H1424.78C1425.05 727.315 1427.55 725.467 1431.51 725.467C1435.61 725.467 1437.46 727.447 1437.46 732.069V736.295C1437.32 738.804 1437.46 740.389 1437.85 741.577ZM1430.85 734.446C1428.08 734.842 1427.03 735.635 1427.03 737.219C1427.03 738.804 1428.08 739.86 1429.93 739.86C1432.83 739.86 1434.55 737.88 1434.55 734.842V734.05L1430.85 734.446Z" fill="#00BFFF"/>
<path d="M1443.13 739.332H1448.15V727.976H1443.53V725.731H1450.79V739.332H1456.07V741.577H1443V739.332H1443.13ZM1451.18 722.694H1447.36V718.864H1451.18V722.694Z" fill="#00BFFF"/>
<path d="M1467.82 725.467C1469.14 725.467 1470.59 725.863 1471.65 726.787C1472.7 727.712 1473.1 729.296 1473.1 731.805V741.577H1470.46V731.937C1470.46 728.504 1468.74 727.712 1467.16 727.712C1463.59 727.712 1462.8 731.013 1462.8 733.258V741.445H1460.16V725.599H1462.67V728.768C1463.46 726.919 1465.18 725.467 1467.82 725.467Z" fill="#00BFFF"/>
<path d="M1495.01 725.731H1499.5V721.637L1502.14 720.449V725.731H1508.35V727.844H1502.14V736.031C1502.14 738.144 1503.2 739.2 1505.18 739.2C1506.23 739.2 1507.29 739.068 1508.35 738.936V741.445C1507.56 741.577 1506.63 741.841 1505.31 741.841C1501.35 741.841 1499.5 739.596 1499.5 736.559V727.976H1495.01V725.731Z" fill="#00BFFF"/>
<path d="M1512.31 733.654C1512.31 728.636 1515.21 725.335 1519.7 725.335C1524.19 725.335 1527.09 728.636 1527.09 733.654C1527.09 738.672 1524.19 741.973 1519.7 741.973C1515.21 741.973 1512.31 738.672 1512.31 733.654ZM1524.19 733.654C1524.19 729.956 1522.47 727.712 1519.7 727.712C1516.8 727.712 1515.21 729.956 1515.21 733.654C1515.21 737.351 1516.93 739.596 1519.7 739.596C1522.47 739.596 1524.19 737.351 1524.19 733.654Z" fill="#00BFFF"/>
<path d="M1548.61 736.691L1551.38 736.163C1551.78 738.408 1553.23 739.728 1555.61 739.728C1557.72 739.728 1558.91 738.804 1558.91 737.351C1558.91 735.767 1558.12 735.106 1556.4 734.842L1553.89 734.578C1550.72 734.182 1549.27 732.465 1549.27 730.089C1549.27 727.183 1551.52 725.467 1555.21 725.467C1558.78 725.467 1561.29 727.315 1561.55 730.221L1558.91 730.881C1558.51 729.032 1557.33 727.712 1555.08 727.712C1552.97 727.712 1551.78 728.504 1551.78 730.089C1551.78 731.409 1552.7 732.201 1554.68 732.465L1557.19 732.73C1560.36 733.126 1561.55 734.71 1561.55 737.219C1561.55 740.256 1559.31 742.105 1555.48 742.105C1551.65 741.973 1549.14 740.124 1548.61 736.691Z" fill="#00BFFF"/>
<path d="M1579.24 734.314H1568.15C1568.15 737.219 1569.87 739.464 1572.77 739.464C1574.88 739.464 1576.2 738.144 1577 736.691L1579.24 737.88C1577.92 740.521 1575.81 741.841 1572.77 741.841C1567.75 741.841 1565.38 738.408 1565.38 733.258C1565.38 728.372 1568.15 725.335 1572.64 725.335C1577.52 725.335 1579.37 728.768 1579.37 733.126C1579.37 733.522 1579.37 733.918 1579.24 734.314ZM1572.51 727.447C1569.6 727.447 1568.15 729.824 1568.15 732.069H1576.47C1576.6 729.692 1575.41 727.447 1572.51 727.447Z" fill="#00BFFF"/>
<path d="M1596.93 734.314H1585.84C1585.84 737.219 1587.56 739.464 1590.46 739.464C1592.57 739.464 1593.89 738.144 1594.69 736.691L1596.93 737.88C1595.61 740.521 1593.5 741.841 1590.46 741.841C1585.44 741.841 1583.07 738.408 1583.07 733.258C1583.07 728.372 1585.84 725.335 1590.33 725.335C1595.21 725.335 1597.06 728.768 1597.06 733.126C1597.06 733.522 1596.93 733.918 1596.93 734.314ZM1590.2 727.447C1587.29 727.447 1585.84 729.824 1585.84 732.069H1594.16C1594.29 729.692 1593.1 727.447 1590.2 727.447Z" fill="#00BFFF"/>
<path d="M1618.71 725.731H1623.2V721.637L1625.84 720.449V725.731H1632.05V727.844H1625.84V736.031C1625.84 738.144 1626.9 739.2 1628.88 739.2C1629.93 739.2 1630.99 739.068 1632.05 738.936V741.445C1631.25 741.577 1630.33 741.841 1629.01 741.841C1625.05 741.841 1623.2 739.596 1623.2 736.559V727.976H1618.71V725.731Z" fill="#00BFFF"/>
<path d="M1644.59 725.467C1645.91 725.467 1647.36 725.863 1648.42 726.919C1649.47 727.844 1650 729.428 1650 731.937V741.709H1647.36V732.069C1647.36 728.636 1645.64 727.844 1643.93 727.844C1640.49 727.844 1639.57 731.145 1639.57 733.39V741.577H1636.93V718.732H1639.57V728.768C1640.23 726.787 1642.21 725.467 1644.59 725.467Z" fill="#00BFFF"/>
<path d="M1667.69 734.314H1656.6C1656.6 737.219 1658.32 739.464 1661.22 739.464C1663.33 739.464 1664.65 738.144 1665.45 736.691L1667.69 737.88C1666.37 740.521 1664.26 741.841 1661.22 741.841C1656.2 741.841 1653.83 738.408 1653.83 733.258C1653.83 728.372 1656.6 725.335 1661.09 725.335C1665.97 725.335 1667.82 728.768 1667.82 733.126C1667.69 733.522 1667.69 733.918 1667.69 734.314ZM1660.96 727.447C1658.05 727.447 1656.6 729.824 1656.6 732.069H1664.92C1665.05 729.692 1663.73 727.447 1660.96 727.447Z" fill="#00BFFF"/>
<path d="M1672.97 739.332H1677.99V727.976H1673.37V725.731H1680.63V739.332H1685.91V741.577H1672.84V739.332H1672.97ZM1680.89 722.694H1677.06V718.864H1680.89V722.694Z" fill="#00BFFF"/>
<path d="M1700.69 725.467C1701.88 725.467 1702.81 725.599 1703.6 725.731V728.24C1702.94 728.108 1701.75 727.976 1700.69 727.976C1696.86 727.976 1693.83 730.617 1693.83 735.767V741.577H1691.19V725.731H1693.83V729.824C1694.75 727.447 1697.39 725.467 1700.69 725.467Z" fill="#00BFFF"/>
<path d="M1724.72 725.731H1729.21V721.637L1731.85 720.449V725.731H1738.05V727.844H1731.85V736.031C1731.85 738.144 1732.91 739.2 1734.89 739.2C1735.94 739.2 1737 739.068 1738.05 738.936V741.445C1737.26 741.577 1736.34 741.841 1735.02 741.841C1731.06 741.841 1729.21 739.596 1729.21 736.559V727.976H1724.72V725.731Z" fill="#00BFFF"/>
<path d="M1753.63 725.467C1754.82 725.467 1755.74 725.599 1756.54 725.731V728.24C1755.88 728.108 1754.69 727.976 1753.63 727.976C1749.8 727.976 1746.77 730.617 1746.77 735.767V741.577H1744.13V725.731H1746.77V729.824C1747.82 727.447 1750.46 725.467 1753.63 725.467Z" fill="#00BFFF"/>
<path d="M1766.04 741.973C1764.59 741.973 1763.14 741.577 1761.95 740.521C1760.89 739.596 1760.5 738.012 1760.5 735.503V725.731H1763.27V735.371C1763.27 738.804 1764.85 739.596 1766.57 739.596C1769.87 739.596 1770.66 736.295 1770.66 733.918V725.731H1773.3V741.577H1770.79V738.54C1770.27 740.124 1768.42 741.973 1766.04 741.973Z" fill="#00BFFF"/>
<path d="M1791.39 734.314H1780.3C1780.3 737.219 1782.01 739.464 1784.92 739.464C1787.03 739.464 1788.35 738.144 1789.14 736.691L1791.39 737.88C1790.07 740.521 1787.96 741.841 1784.92 741.841C1779.9 741.841 1777.53 738.408 1777.53 733.258C1777.53 728.372 1780.3 725.335 1784.79 725.335C1789.67 725.335 1791.52 728.768 1791.52 733.126C1791.39 733.522 1791.39 733.918 1791.39 734.314ZM1784.66 727.447C1781.75 727.447 1780.3 729.824 1780.3 732.069H1788.62C1788.75 729.692 1787.43 727.447 1784.66 727.447Z" fill="#00BFFF"/>
<path d="M1814.36 739.332H1819.38V727.976H1814.75V725.731H1822.02V739.332H1827.3V741.577H1814.23V739.332H1814.36ZM1822.41 722.694H1818.58V718.864H1822.41V722.694Z" fill="#00BFFF"/>
<path d="M1839.05 725.467C1840.37 725.467 1841.82 725.863 1842.87 726.787C1843.93 727.712 1844.33 729.296 1844.33 731.805V741.577H1841.69V731.937C1841.69 728.504 1839.97 727.712 1838.39 727.712C1834.82 727.712 1834.03 731.013 1834.03 733.258V741.445H1831.39V725.599H1833.9V728.768C1834.69 726.919 1836.41 725.467 1839.05 725.467Z" fill="#00BFFF"/>
<path d="M1848.55 725.731H1853.04V721.637L1855.68 720.449V725.731H1861.88V727.844H1855.68V736.031C1855.68 738.144 1856.74 739.2 1858.72 739.2C1859.77 739.2 1860.83 739.068 1861.88 738.936V741.445C1861.09 741.577 1860.17 741.841 1858.85 741.841C1854.89 741.841 1853.04 739.596 1853.04 736.559V727.976H1848.55V725.731Z" fill="#00BFFF"/>
<path d="M1879.71 734.314H1868.62C1868.62 737.219 1870.33 739.464 1873.24 739.464C1875.35 739.464 1876.67 738.144 1877.46 736.691L1879.71 737.88C1878.39 740.521 1876.27 741.841 1873.24 741.841C1868.22 741.841 1865.84 738.408 1865.84 733.258C1865.84 728.372 1868.62 725.335 1873.11 725.335C1877.99 725.335 1879.84 728.768 1879.84 733.126C1879.84 733.522 1879.84 733.918 1879.71 734.314ZM1872.97 727.447C1870.07 727.447 1868.62 729.824 1868.62 732.069H1876.93C1877.07 729.692 1875.88 727.447 1872.97 727.447Z" fill="#00BFFF"/>
<path d="M1892.12 725.467C1893.44 725.467 1894.89 725.863 1895.94 726.787C1897 727.712 1897.4 729.296 1897.4 731.805V741.577H1894.76V731.937C1894.76 728.504 1893.04 727.712 1891.46 727.712C1887.89 727.712 1887.1 731.013 1887.1 733.258V741.445H1884.46V725.599H1886.97V728.768C1887.63 726.919 1889.48 725.467 1892.12 725.467Z" fill="#00BFFF"/>
<path d="M1913.11 731.541V734.05H1904V731.541H1913.11Z" fill="#00BFFF"/>
<path d="M1282.87 767.987H1287.35V763.894L1289.99 762.705V767.987H1296.2V770.1H1289.99V778.287C1289.99 780.4 1291.05 781.457 1293.03 781.457C1294.09 781.457 1295.14 781.325 1296.2 781.193V783.702C1295.41 783.834 1294.48 784.098 1293.16 784.098C1289.2 784.098 1287.35 781.853 1287.35 778.816V770.232H1282.87V767.987Z" fill="#00BFFF"/>
<path d="M1301.74 781.589H1306.76V770.232H1302.14V767.987H1309.4V781.589H1314.68V783.834H1301.61V781.589H1301.74ZM1309.8 764.95H1305.97V761.121H1309.8V764.95Z" fill="#00BFFF"/>
<path d="M1317.85 775.911C1317.85 770.893 1320.75 767.591 1325.24 767.591C1329.73 767.591 1332.64 770.893 1332.64 775.911C1332.64 780.929 1329.73 784.23 1325.24 784.23C1320.75 784.23 1317.85 780.929 1317.85 775.911ZM1329.73 775.911C1329.73 772.213 1328.01 769.968 1325.24 769.968C1322.34 769.968 1320.75 772.213 1320.75 775.911C1320.75 779.608 1322.47 781.853 1325.24 781.853C1328.15 781.853 1329.73 779.608 1329.73 775.911Z" fill="#00BFFF"/>
<path d="M1344.12 767.723C1345.44 767.723 1346.89 768.119 1347.95 769.044C1349.01 769.968 1349.4 771.553 1349.4 774.062V783.834H1346.76V774.194C1346.76 770.76 1345.04 769.968 1343.46 769.968C1339.9 769.968 1339.1 773.269 1339.1 775.514V783.702H1336.46V767.855H1338.97V771.025C1339.76 769.176 1341.48 767.723 1344.12 767.723Z" fill="#00BFFF"/>
<path d="M1354.15 778.948L1356.93 778.419C1357.32 780.664 1358.77 781.985 1361.15 781.985C1363.26 781.985 1364.45 781.061 1364.45 779.608C1364.45 778.023 1363.66 777.363 1361.94 777.099L1359.43 776.835C1356.27 776.439 1354.81 774.722 1354.81 772.345C1354.81 769.44 1357.06 767.723 1360.76 767.723C1364.32 767.723 1366.83 769.572 1367.09 772.477L1364.45 773.137C1364.06 771.289 1362.87 769.968 1360.62 769.968C1358.51 769.968 1357.32 770.761 1357.32 772.345C1357.32 773.666 1358.25 774.458 1360.23 774.722L1362.74 774.986C1365.9 775.382 1367.09 776.967 1367.09 779.476C1367.09 782.513 1364.85 784.362 1361.02 784.362C1357.19 784.23 1354.68 782.381 1354.15 778.948Z" fill="#00BFFF"/>
<path d="M1389.93 767.987L1391.51 778.816L1391.78 781.061H1392.04C1392.17 780.4 1392.31 779.872 1392.57 778.42L1394.68 767.987H1397.45L1399.57 778.42C1399.83 779.872 1399.96 780.4 1400.09 781.061H1400.36L1400.62 778.816L1402.21 767.987H1404.98L1401.94 783.834H1398.51L1396.4 773.666C1396.27 773.005 1396.13 771.685 1396.13 771.025H1395.87C1395.87 771.685 1395.74 773.005 1395.61 773.666L1393.49 783.834H1390.06L1387.03 767.987H1389.93Z" fill="#00BFFF"/>
<path d="M1407.75 781.589H1412.77V770.232H1408.15V767.987H1415.41V781.589H1420.69V783.834H1407.62V781.589H1407.75ZM1415.81 764.95H1411.98V761.121H1415.81V764.95Z" fill="#00BFFF"/>
<path d="M1424.25 767.987H1428.74V763.894L1431.38 762.705V767.987H1437.59V770.1H1431.38V778.287C1431.38 780.4 1432.44 781.457 1434.42 781.457C1435.48 781.457 1436.53 781.325 1437.59 781.193V783.702C1436.8 783.834 1435.87 784.098 1434.55 784.098C1430.59 784.098 1428.74 781.853 1428.74 778.816V770.232H1424.25V767.987Z" fill="#00BFFF"/>
<path d="M1450.13 767.723C1451.45 767.723 1452.9 768.119 1453.96 769.176C1455.01 770.1 1455.54 771.685 1455.54 774.194V783.966H1452.9V774.326C1452.9 770.893 1451.18 770.1 1449.47 770.1C1446.04 770.1 1445.11 773.402 1445.11 775.646V783.834H1442.47V760.989H1445.11V771.025C1445.9 769.044 1447.88 767.723 1450.13 767.723Z" fill="#00BFFF"/>
<path d="M1477.32 767.987H1481.81V763.894L1484.45 762.705V767.987H1490.66V770.1H1484.45V778.287C1484.45 780.4 1485.51 781.457 1487.49 781.457C1488.55 781.457 1489.6 781.325 1490.66 781.193V783.702C1489.87 783.834 1488.94 784.098 1487.62 784.098C1483.66 784.098 1481.81 781.853 1481.81 778.816V770.232H1477.32V767.987Z" fill="#00BFFF"/>
<path d="M1503.07 767.723C1504.39 767.723 1505.84 768.119 1506.9 769.176C1507.95 770.1 1508.48 771.685 1508.48 774.194V783.966H1505.84V774.326C1505.84 770.893 1504.12 770.1 1502.41 770.1C1498.97 770.1 1498.05 773.402 1498.05 775.646V783.834H1495.41V760.989H1498.05V771.025C1498.84 769.044 1500.82 767.723 1503.07 767.723Z" fill="#00BFFF"/>
<path d="M1526.3 776.571H1515.21C1515.21 779.476 1516.93 781.721 1519.83 781.721C1521.94 781.721 1523.26 780.4 1524.06 778.948L1526.3 780.136C1524.98 782.777 1522.87 784.098 1519.83 784.098C1514.82 784.098 1512.44 780.664 1512.44 775.514C1512.44 770.628 1515.21 767.591 1519.7 767.591C1524.58 767.591 1526.43 771.025 1526.43 775.382C1526.3 775.778 1526.3 776.175 1526.3 776.571ZM1519.44 769.704C1516.53 769.704 1515.08 772.081 1515.08 774.326H1523.4C1523.66 771.949 1522.34 769.704 1519.44 769.704Z" fill="#00BFFF"/>
<path d="M1549.14 781.589H1554.16V763.101H1549.4V760.857H1556.8V781.589H1562.08V783.834H1549.01V781.589H1549.14Z" fill="#00BFFF"/>
<path d="M1566.83 781.589H1571.85V770.232H1567.23V767.987H1574.49V781.589H1579.77V783.834H1566.7V781.589H1566.83ZM1574.88 764.95H1571.05V761.121H1574.88V764.95Z" fill="#00BFFF"/>
<path d="M1589.8 776.043L1586.9 778.948V783.834H1584.26V760.989H1586.9V775.911L1594.03 768.119H1597.59L1591.78 774.194L1597.99 783.834H1594.69L1589.8 776.043Z" fill="#00BFFF"/>
<path d="M1614.62 776.571H1603.53C1603.53 779.476 1605.25 781.721 1608.15 781.721C1610.26 781.721 1611.58 780.4 1612.38 778.948L1614.62 780.136C1613.3 782.777 1611.19 784.098 1608.15 784.098C1603.13 784.098 1600.76 780.664 1600.76 775.514C1600.76 770.628 1603.53 767.591 1608.02 767.591C1612.9 767.591 1614.75 771.025 1614.75 775.382C1614.75 775.778 1614.62 776.175 1614.62 776.571ZM1607.89 769.704C1604.98 769.704 1603.53 772.081 1603.53 774.326H1611.85C1611.98 771.949 1610.66 769.704 1607.89 769.704Z" fill="#00BFFF"/>
<path d="M1619.24 778.948L1622.01 778.419C1622.41 780.664 1623.86 781.985 1626.24 781.985C1628.35 781.985 1629.54 781.061 1629.54 779.608C1629.54 778.023 1628.75 777.363 1627.03 777.099L1624.52 776.835C1621.35 776.439 1619.9 774.722 1619.9 772.345C1619.9 769.44 1622.14 767.723 1625.84 767.723C1629.41 767.723 1631.91 769.572 1632.18 772.477L1629.54 773.137C1629.14 771.289 1627.95 769.968 1625.71 769.968C1623.6 769.968 1622.41 770.761 1622.41 772.345C1622.41 773.666 1623.33 774.458 1625.31 774.722L1627.82 774.986C1630.99 775.382 1632.18 776.967 1632.18 779.476C1632.18 782.513 1629.93 784.362 1626.1 784.362C1622.41 784.23 1619.9 782.381 1619.24 778.948Z" fill="#00BFFF"/>
<path d="M1653.7 775.911C1653.7 770.893 1656.6 767.591 1661.09 767.591C1665.58 767.591 1668.48 770.893 1668.48 775.911C1668.48 780.929 1665.58 784.23 1661.09 784.23C1656.6 784.23 1653.7 780.929 1653.7 775.911ZM1665.58 775.911C1665.58 772.213 1663.86 769.968 1661.09 769.968C1658.18 769.968 1656.6 772.213 1656.6 775.911C1656.6 779.608 1658.32 781.853 1661.09 781.853C1663.99 781.853 1665.58 779.608 1665.58 775.911Z" fill="#00BFFF"/>
<path d="M1685.38 770.232H1679.44V783.834H1676.8V770.232H1671.91V768.119H1676.8V766.403C1676.8 762.837 1678.78 760.989 1682.74 760.989C1683.66 760.989 1684.46 761.121 1685.51 761.253V763.63C1684.85 763.498 1683.93 763.366 1682.74 763.366C1680.36 763.366 1679.44 764.158 1679.44 766.535V768.119H1685.38V770.232Z" fill="#00BFFF"/>
<path d="M1712.97 784.23C1711.52 784.23 1710.07 783.834 1708.88 782.777C1707.82 781.853 1707.43 780.268 1707.43 777.759V767.987H1710.2V777.627C1710.2 781.061 1711.78 781.853 1713.5 781.853C1716.8 781.853 1717.59 778.551 1717.59 776.175V767.987H1720.23V783.834H1717.72V780.796C1717.19 782.381 1715.35 784.23 1712.97 784.23Z" fill="#00BFFF"/>
<path d="M1725.38 778.948L1728.15 778.419C1728.55 780.664 1730 781.985 1732.38 781.985C1734.49 781.985 1735.68 781.061 1735.68 779.608C1735.68 778.023 1734.89 777.363 1733.17 777.099L1730.66 776.835C1727.49 776.439 1726.04 774.722 1726.04 772.345C1726.04 769.44 1728.29 767.723 1731.98 767.723C1735.55 767.723 1738.05 769.572 1738.32 772.477L1735.68 773.137C1735.28 771.289 1734.09 769.968 1731.85 769.968C1729.74 769.968 1728.55 770.761 1728.55 772.345C1728.55 773.666 1729.47 774.458 1731.45 774.722L1733.96 774.986C1737.13 775.382 1738.32 776.967 1738.32 779.476C1738.32 782.513 1736.07 784.362 1732.25 784.362C1728.42 784.23 1725.91 782.381 1725.38 778.948Z" fill="#00BFFF"/>
<path d="M1751.52 783.834H1747.29V779.74H1751.52V783.834Z" fill="#00BFFF"/>
</svg>
