<?xml version="1.0" encoding="utf-8"?>
<!-- Generator: Adobe Illustrator 25.2.3, SVG Export Plug-In . SVG Version: 6.00 Build 0)  -->
<svg version="1.1" id="Camada_1" xmlns="http://www.w3.org/2000/svg" xmlns:xlink="http://www.w3.org/1999/xlink" x="0px" y="0px"
	 viewBox="0 0 1711 1806" style="enable-background:new 0 0 1711 1806;" xml:space="preserve">
<style type="text/css">
	.st0{fill:none;stroke:#00BFFF;stroke-width:3;stroke-linecap:round;stroke-linejoin:round;stroke-miterlimit:10;}
	.st1{fill:#FFFFFF;stroke:#FF931E;stroke-width:3;stroke-linecap:round;stroke-linejoin:round;stroke-miterlimit:10;}
	.st2{fill:#D7F7FF;stroke:#00BFFF;stroke-width:3;stroke-linecap:round;stroke-linejoin:round;stroke-miterlimit:10;}
	.st3{fill:#FFFFFF;}
	.st4{fill:#FF931E;}
	.st5{fill:none;stroke:#FF931E;stroke-width:3;stroke-miterlimit:10;}
	.st6{fill:none;stroke:#FF931E;stroke-width:3;stroke-miterlimit:10;stroke-dasharray:21.53,21.53;}
	.st7{fill:#00BDFF;}
	.st8{fill:#FF911E;}
</style>
<g id="comic_seq_8">
	<g id="guy">
		<path id="Vector" class="st0" d="M267,406.5v663.2h312.8c0,0,33.9-1.3,33.9-29c0-27.7-35.6-29-35.6-29h-48.8V433.5"/>
		<path id="Vector_2" class="st0" d="M266.3,601c-89.7,0-112.1-72.5-112.1-134.5c0-36.9,17.1-137.1,100.2-137.1
			c83.1,0,205.5,0,258.4,0c52.8,0,62.1,71.2,62.1,112.1"/>
		<path id="Vector_3" class="st0" d="M632.9,316.2v162.7c0,0-1.3,60.1-58,60.1c-44.8,0-45.5-34.4-45.5-34.4"/>
		<path id="Vector_4" class="st0" d="M551.2,346.5v-54.1c0,0-1.3-39.5,43.5-39.5s75.6,0,75.6,0S687,254.2,687,270
			c0,15.8-11.9,15.8-11.9,15.8h-22.4"/>
		<path id="Vector_5" class="st0" d="M613.8,302.7c4.6-14.2,15.2-18.2,27-18.2c11.9,0,26.4,5.3,25.8,23.1c-0.2,7.2,0,37.7,0,37.7
			s0.6,14.4-15.3,15.7c-13.1,1.1-18.5-11.9-18.5-11.9"/>
		<path id="Vector_6" class="st0" d="M589.4,292.5c4-9.2,11.9-17.3,22.4-18.5c11.9-1.3,17.6,4.6,23.6,10.6"/>
		<path id="Vector_7" class="st0" d="M389.6,279.3c33.1,0,60-26.9,60-60s-26.9-60-60-60c-33.1,0-60,26.9-60,60
			S356.5,279.3,389.6,279.3z"/>
		<path id="Vector_8" class="st0" d="M445.9,198.5h15.8v43.9h-15.8"/>
		<path id="Vector_9" class="st0" d="M329.6,212h120"/>
		<path id="Vector_10" class="st0" d="M329.6,223.9h120"/>
		<path id="Vector_11" class="st0" d="M407.4,276.6l15.8,52.7"/>
		<path id="Vector_12" class="st0" d="M369.2,275.3L356,329.4"/>
		<path id="Vector_13" class="st0" d="M392.9,1069v-389h-22.7"/>
		<path id="Vector_14" class="st0" d="M474.2,614.2V329.4h-32.9v284.8H330.8V329.4h-32.9v284.8h-30.3v33h261.7v-33H474.2z"/>
	</g>
	<g id="machine">
		<path id="Vector_15" class="st0" d="M777.9,67.3V2.4h716.9l0.4,64.6"/>
		<path id="Vector_16" class="st0" d="M777.9,934.5V1069h97.6v-55.4"/>
		<path id="Vector_17" class="st0" d="M861.7,67H1544v868H551.1V539"/>
		<path id="Vector_18" class="st0" d="M832,67h29.7"/>
		<path id="Vector_19" class="st0" d="M551.1,287.2V67h280.6"/>
		<path id="Vector_20" class="st0" d="M1511.1,67v867.6"/>
		<path id="Vector_21" class="st0" d="M1255.2,67v867.6"/>
		<path id="Vector_22" class="st0" d="M832,67v867.6"/>
		<path id="Vector_23" class="st0" d="M777.9,936.5v-2"/>
		<path id="Vector_24" class="st0" d="M777.9,67v-6.5"/>
		<path id="Vector_25" class="st0" d="M832.7,1069v-55.8h435.1v55.8h80.4v-55.8h108v55.8"/>
		<path id="Vector_26" class="st0" d="M996.8,1013.7v55.4"/>
		<path id="Vector_27" class="st0" d="M1417.4,1013.7v55.4h77.4V934.7"/>
		<path id="Vector_28" class="st0" d="M959.9,1013.7v55.4h75.2v-55.4"/>
		<path id="Vector_29" class="st0" d="M1308,936V1069"/>
		<path id="Vector_30" class="st0" d="M1308,2.4v63.4"/>
		<path id="Vector_31" class="st0" d="M799.3,66v870.5"/>
	</g>
	<g id="screens">
		<path id="Vector_32" class="st0" d="M1119.7,283.2h-156c-7.5,0-13.6-6.1-13.6-13.6V120.2c0-7.5,6.1-13.6,13.6-13.6h156
			c7.5,0,13.6,6.1,13.6,13.6v149.4C1133.3,277.1,1127.2,283.2,1119.7,283.2z"/>
		<path id="Vector_33" class="st0" d="M1119.7,540.3h-156c-7.5,0-13.6-6.1-13.6-13.6V331.1c0-7.5,6.1-13.6,13.6-13.6h156
			c7.5,0,13.6,6.1,13.6,13.6v195.5C1133.3,534.2,1127.2,540.3,1119.7,540.3z"/>
		<path id="Vector_34" class="st0" d="M1119.7,885.8h-156c-7.5,0-13.6-6.1-13.6-13.6V584.3c0-7.5,6.1-13.6,13.6-13.6h156
			c7.5,0,13.6,6.1,13.6,13.6v287.8C1133.3,879.7,1127.2,885.8,1119.7,885.8z"/>
	</g>
	<g id="Buttons">
		<path id="Vector_35" class="st1" d="M1221.1,186.6l-37.4-21.6c-4.3-2.5-9.6,0.6-9.6,5.5v43.2c0,4.9,5.3,8,9.6,5.5l37.4-21.6
			C1225.4,195.2,1225.4,189.1,1221.1,186.6z"/>
		<path id="Vector_36" class="st1" d="M867.4,186.6l37.4-21.6c4.3-2.5,9.6,0.6,9.6,5.5v43.2c0,4.9-5.3,8-9.6,5.5l-37.4-21.6
			C863.2,195.2,863.2,189.1,867.4,186.6z"/>
		<path id="Vector_37" class="st1" d="M1221.1,421.7l-37.4-21.6c-4.3-2.5-9.6,0.6-9.6,5.5v43.2c0,4.9,5.3,8,9.6,5.5l37.4-21.6
			C1225.4,430.3,1225.4,424.2,1221.1,421.7z"/>
		<path id="Vector_38" class="st1" d="M867.4,421.7l37.4-21.6c4.3-2.5,9.6,0.6,9.6,5.5v43.2c0,4.9-5.3,8-9.6,5.5l-37.4-21.6
			C863.2,430.3,863.2,424.2,867.4,421.7z"/>
		<path id="Vector_39" class="st1" d="M1221.1,710.5l-37.4-21.6c-4.3-2.5-9.6,0.6-9.6,5.5v43.2c0,4.9,5.3,8,9.6,5.5l37.4-21.6
			C1225.4,719.1,1225.4,713,1221.1,710.5z"/>
		<path id="Vector_40" class="st1" d="M867.4,710.5l37.4-21.6c4.3-2.5,9.6,0.6,9.6,5.5v43.2c0,4.9-5.3,8-9.6,5.5l-37.4-21.6
			C863.2,719.1,863.2,713,867.4,710.5z"/>
	</g>
	<g id="text_blob">
		<path id="Vector_41" class="st2" d="M466.5,1323.3c19,0,34.4-15.4,34.4-34.4V982.3c0-19-15.4-34.4-34.4-34.4H36.6
			c-19,0-34.4,15.4-34.4,34.4v306.6c0,19,15.4,34.4,34.4,34.4h14.8v37.5H36.6c-19,0-34.4,15.4-34.4,34.4v298.7
			c0,19,15.4,34.4,34.4,34.4h429.8c19,0,34.4-15.4,34.4-34.4v-298.7c0-19-15.4-34.4-34.4-34.4H74.7v-37.5H466.5z"/>
	</g>
	<g id="speech_bubble">
		<g id="Group">
			<path id="Vector_42" class="st3" d="M1667.7,129.3h-149.8c-23.8,0-43.1-19.3-43.1-43.1V60c0-23.8,19.3-43.1,43.1-43.1h149.8
				c23.8,0,43.2,19.3,43.2,43.1v26.1C1710.9,110,1691.6,129.3,1667.7,129.3z"/>
			<path id="Vector_43" class="st4" d="M1667.7,16.9H1641v3.8h26.7V16.9z M1614.3,16.9h-26.7v3.8h26.7V16.9z M1560.9,16.9h-26.7v3.8
				h26.7V16.9z M1507.6,18.1c-2.6,0.6-5.1,1.5-7.5,2.6c-0.1,0-0.1,0.1-0.2,0.1c-0.2,0.1-0.3,0.2-0.5,0.2c0,0-0.1,0-0.1,0.1
				c0,0-0.1,0-0.1,0.1c0,0,0,0,0,0c0,0-0.1,0-0.1,0c0,0,0,0,0,0c0,0,0,0-0.1,0c0,0,0,0,0,0c0,0-0.1,0-0.1,0c0,0,0,0,0,0
				c0,0,0,0-0.1,0c0,0,0,0,0,0c0,0,0,0-0.1,0c0,0,0,0,0,0c0,0,0,0-0.1,0c0,0,0,0,0,0c0,0-0.1,0-0.1,0c0,0,0,0,0,0c0,0-0.1,0-0.1,0
				c0,0,0,0,0,0c0,0-0.1,0-0.1,0c0,0,0,0,0,0c0,0-0.1,0-0.1,0c0,0,0,0,0,0c0,0,0,0-0.1,0s0,0,0,0c0,0,0,0,0,0c0,0,0,0,0,0
				c0,0,0,0,0,0c0,0,0,0,0,0c0,0,0,0,0,0s0,0,0,0c0,0,0,0,0,0c0,0,0,0-0.1,0c0,0,0,0,0,0c0,0,0,0,0,0s0,0,0,0c0,0,0,0-0.1,0
				c0,0,0,0,0,0c0,0,0,0,0,0c0,0,0,0-0.1,0s0,0,0,0c0,0,0,0,0,0c0,0,0,0,0,0c0,0,0,0,0,0c0,0,0,0-0.1,0c0,0,0,0,0,0c0,0,0,0,0,0
				c0,0,0,0,0,0c0,0,0,0-0.1,0s0,0,0,0c0,0,0,0,0,0c0,0,0,0,0,0c0,0,0,0-0.1,0c0,0,0,0,0,0c0,0,0,0,0,0c0,0,0,0,0,0c0,0,0,0-0.1,0
				s0,0,0,0c0,0,0,0,0,0s0,0,0,0c0,0,0,0,0,0c0,0,0,0,0,0c0,0,0,0,0,0c0,0,0,0,0,0c0,0,0,0,0,0s0,0,0,0c0,0,0,0,0,0c0,0,0,0,0,0
				c0,0,0,0,0,0c0,0,0,0,0,0c0,0,0,0,0,0s0,0,0,0c0,0,0,0,0,0s0,0,0,0c0,0,0,0,0,0c0,0,0,0,0,0c0,0,0,0,0,0c0,0,0,0,0,0c0,0,0,0,0,0
				s0,0,0,0c0,0,0,0,0,0c0,0,0,0,0,0c0,0,0,0,0,0c0,0,0,0,0,0c0,0,0,0-0.1,0s0,0,0,0c0,0,0,0,0,0s0,0,0,0c0,0,0,0-0.1,0c0,0,0,0,0,0
				c0,0,0,0,0,0c0,0,0,0,0,0c0,0,0,0-0.1,0s0,0,0,0c0,0,0,0,0,0c0,0,0,0,0,0c0,0,0,0-0.1,0c0,0,0,0,0,0c0,0,0,0,0,0c0,0,0,0,0,0
				c0,0,0,0-0.1,0s0,0,0,0c0,0,0,0,0,0c0,0,0,0,0,0c0,0,0,0-0.1,0c0,0,0,0,0,0c0,0,0,0,0,0s0,0,0,0s0,0,0,0c0,0,0,0,0,0c0,0,0,0,0,0
				s0,0,0,0c0,0,0,0,0,0c0,0,0,0,0,0c0,0,0,0,0,0c0,0,0,0,0,0c0,0,0,0,0,0s0,0,0,0c0,0,0,0,0,0c0,0,0,0,0,0c0,0,0,0,0,0s0,0,0,0
				c0,0,0,0,0,0c0,0,0,0,0,0c0,0,0,0,0,0c0,0,0,0,0,0c0,0,0,0,0,0s0,0,0,0c0,0,0,0,0,0c0,0,0,0,0,0c0,0,0,0,0,0c0,0,0,0,0,0s0,0,0,0
				c0,0,0,0,0,0c0,0,0,0,0,0s0,0,0,0c0,0,0,0,0,0s0,0,0,0c0,0,0,0,0,0c0,0,0,0,0,0c0,0,0,0,0,0c0,0,0,0,0,0c0,0,0,0,0,0s0,0,0,0
				c0,0,0,0,0,0c0,0,0,0,0,0l0,0h0c0,0,0,0,0,0c0,0,0,0,0,0s0,0,0,0c0,0,0,0,0,0c0,0,0,0,0,0c0,0,0,0,0,0c0,0,0,0,0,0c0,0,0,0,0,0
				c0,0,0,0,0,0s0,0,0,0s0,0,0,0c0,0,0,0,0,0s0,0,0,0c0,0,0,0,0,0c0,0,0,0,0,0l0,0c0,0,0,0,0,0s0,0,0,0c0,0,0,0,0,0c0,0,0,0,0,0
				c0,0,0,0,0,0s0,0,0,0l0,0c0,0,0,0,0,0c0,0,0,0,0,0c0,0,0,0,0,0c0,0,0,0,0,0c0,0,0,0,0,0c0,0,0,0,0,0s0,0,0,0s0,0,0,0c0,0,0,0,0,0
				s0,0,0,0c0,0,0,0,0,0l0,0c0,0,0,0,0,0c0,0,0,0,0,0s0,0,0,0c0,0,0,0,0,0c0,0,0,0,0,0c0,0,0,0,0,0s0,0,0,0s0,0,0,0c0,0,0,0,0,0
				c0,0,0,0,0,0l0,0c0,0,0,0,0,0l0,0c0,0,0,0,0,0l0,0c0,0,0,0,0,0s0,0,0,0c0,0,0,0,0,0l0,0h0l0,0c0,0,0,0,0,0c0,0,0,0,0,0
				c0,0,0,0,0,0c0,0,0,0,0,0l0,0c0,0,0,0,0,0l0,0c0,0,0,0,0,0s0,0,0,0c0,0,0,0,0,0c0,0,0,0,0,0c0,0,0,0,0,0l0,0c0,0,0,0,0,0
				c0,0,0,0,0,0s0,0,0,0c0,0,0,0,0,0l0,0c0,0,0,0,0,0l0,0c0,0,0,0,0,0s0,0,0,0c0,0,0,0,0,0c0,0,0,0,0,0c0,0,0,0,0,0s0,0,0,0s0,0,0,0
				s0,0,0,0c0,0,0,0-0.1,0c0,0,0,0,0,0c0,0,0,0,0,0l0,0c0,0,0,0,0,0c0,0,0,0,0,0c0,0,0,0,0,0c0,0,0,0,0,0l0,0c0,0,0,0,0,0l0,0
				c0,0,0,0,0,0c0,0,0,0,0,0c0,0,0,0,0,0l0,0c0,0,0,0,0,0l0,0c0,0,0,0,0,0c0,0,0,0,0,0c0,0,0,0,0,0c0,0,0,0,0,0l0,0c0,0,0,0,0,0
				c0,0,0,0,0,0s0,0,0,0c0,0,0,0,0,0c0,0,0,0,0,0c0,0,0,0,0,0s0,0,0,0l0,0c0,0,0,0,0,0c0,0,0,0,0,0c0,0,0,0,0,0c0,0,0,0,0,0s0,0,0,0
				l0,0c0,0,0,0,0,0c0,0,0,0-0.1,0c0,0,0,0,0,0c0,0,0,0,0,0s0,0,0,0s0,0,0,0s0,0,0,0c0,0,0,0-0.1,0c0,0,0,0,0,0c0,0,0,0,0,0s0,0,0,0
				l0,0c0,0,0,0,0,0c0,0,0,0-0.1,0c0,0,0,0,0,0s0,0,0,0s0,0,0,0l0,0c0,0,0,0,0,0c0,0,0,0,0,0s0,0,0,0c0,0,0,0,0,0l0,0c0,0,0,0,0,0
				l0,0c0,0,0,0,0,0c0,0,0,0,0,0s0,0,0,0c0,0,0,0,0,0l0,0c0,0,0,0,0,0l0,0c0,0,0,0,0,0l0,0l0,0l0,0c0,0,0,0,0,0c0,0,0,0,0,0
				c0,0,0,0,0,0l0,0c0,0,0,0,0,0c0,0,0,0,0,0c0,0,0,0,0,0l0,0c0,0,0,0,0,0l0,0c0,0,0,0,0,0l0,0c0,0,0,0,0,0c0,0,0,0,0,0c0,0,0,0,0,0
				c0,0,0,0,0,0l0,0c0,0,0,0,0,0l0,0c0,0,0,0,0,0c0,0,0,0,0,0c0,0,0,0,0,0c0,0,0,0,0,0l0,0c0,0,0,0,0,0l0,0c0,0,0,0,0,0c0,0,0,0,0,0
				s0,0,0,0s0,0,0,0l0,0c0,0,0,0,0,0l0,0c0,0,0,0,0,0s0,0,0,0c0,0,0,0,0,0c0,0,0,0,0,0l0,0c0,0,0,0,0,0l0,0c0,0,0,0,0,0c0,0,0,0,0,0
				s0,0,0,0s0,0,0,0l0,0c0,0,0,0,0,0l0,0c0,0,0,0,0,0c0,0,0,0,0,0s0,0,0,0c0,0,0,0,0,0l0,0c0,0,0,0,0,0l0,0c0,0,0,0,0,0c0,0,0,0,0,0
				c0,0,0,0,0,0l0,0c0,0,0,0,0,0l0,0c0,0,0,0,0,0l0,0c0,0,0,0,0,0c0,0,0,0,0,0s0,0,0,0s0,0,0,0l0,0c0,0,0,0,0,0l0,0c0,0,0,0,0,0
				c0,0,0,0,0,0l0,0c0,0,0,0,0,0l0,0c0,0,0,0,0,0l0,0c0,0,0,0,0,0c0,0,0,0,0,0c0,0,0,0,0,0l0,0c0,0,0,0,0,0l0,0c0,0,0,0,0,0l0,0
				c0,0,0,0,0,0c0,0,0,0,0,0c0,0,0,0,0,0l0,0c0,0,0,0,0,0l0,0c0,0,0,0,0,0l0,0c0,0,0,0,0,0c0,0,0,0,0,0c0,0,0,0,0,0l0,0c0,0,0,0,0,0
				l0,0c0,0,0,0,0,0l0,0c0,0,0,0,0,0c0,0,0,0,0,0c0,0,0,0,0,0l0,0c0,0,0,0,0,0l0,0c0,0,0,0,0,0l0,0c0,0,0,0,0,0c0,0,0,0,0,0
				c0,0,0,0,0,0l0,0l0,0c0,0,0,0,0,0c0,0,0,0,0,0c0,0,0,0,0,0c0,0,0,0-0.1,0c0,0,0,0,0,0l0,0c0,0,0,0,0,0c0,0,0,0,0,0c0,0,0,0,0,0
				l0,0l0,0c0,0,0,0,0,0l0,0c0,0,0,0,0,0l0,0c0,0,0,0,0,0c0,0,0,0,0,0l0,0l0,0c0,0,0,0,0,0l0,0c0,0,0,0,0,0l0,0c0,0,0,0,0,0
				c0,0,0,0,0,0l0,0l0,0c0,0,0,0,0,0l0,0c0,0,0,0,0,0c0,0,0,0,0,0c0,0,0,0,0,0l0,0c0,0,0,0,0,0c0,0,0,0,0,0c0,0,0,0,0,0l0,0
				c0,0,0,0,0,0l0,0c0,0,0,0,0,0l0,0c0,0,0,0,0,0c0,0,0,0,0,0c0,0,0,0,0,0l0,0c0,0,0,0,0,0l0,0c0,0,0,0,0,0l0,0c0,0,0,0,0,0
				c0,0,0,0,0,0c0,0,0,0,0,0l0,0c0,0,0,0,0,0l0,0c0,0,0,0,0,0l0,0l0,0l0,0c0,0,0,0,0,0l0,0l0,0c0,0,0,0,0,0l0,0c0,0,0,0,0,0
				c0,0,0,0,0,0c0,0,0,0,0,0l0,0l0,0l0,0c0,0,0,0,0,0c0,0,0,0,0,0c0,0,0,0,0,0c0,0,0,0,0,0c0,0,0,0,0,0l0,0c0,0,0,0,0,0l0,0
				c0,0,0,0,0,0l0,0c0,0,0,0,0,0c0,0,0,0,0,0c0,0,0,0,0,0l0,0l0,0l0,0c0,0,0,0,0,0l0,0c0,0,0,0,0,0c0,0,0,0,0,0c0,0,0,0,0,0l0,0
				c0,0,0,0,0,0l0,0c0,0,0,0,0,0l0,0c0,0,0,0,0,0c0,0,0,0,0,0c0,0,0,0,0,0l0,0c0,0,0,0,0,0l0,0c0,0,0,0,0,0l0,0c0,0,0,0,0,0
				c0,0,0,0,0,0c0,0,0,0,0,0l0,0c0,0,0,0,0,0l0,0c0,0,0,0,0,0l0,0c0,0,0,0,0,0l0,0c0,0,0,0,0,0l0,0c0,0,0,0,0,0l0,0c0,0,0,0,0,0
				c0,0,0,0,0,0l0,0c0,0,0,0,0,0l0,0c0,0,0,0,0,0c0,0,0,0,0,0.1l0,0c0,0,0,0,0,0l0,0c0,0,0,0,0,0l0,0c0,0,0,0,0,0l0,0l0,0
				c0,0,0,0,0,0l0,0c0,0,0,0,0,0l0,0c0,0,0,0,0,0l0,0c0,0,0,0,0,0l0,0c0,0,0,0,0,0l0,0l0,0c0,0,0,0,0,0.1l0,0l0,0l0,0c0,0,0,0,0,0
				l0,0l0,0c0,0,0,0-0.1,0.1l0,0c0,0,0,0-0.1,0.1l0,0l0,0c0,0-0.1,0.1-0.1,0.1l0,0c0,0,0,0.1-0.1,0.1l0,0c0,0-0.1,0.1-0.1,0.1l0,0
				c0,0-0.1,0.1-0.1,0.1l0,0c0,0,0,0.1-0.1,0.1l0,0c0,0-0.1,0.1-0.1,0.1l0,0c0,0-0.1,0.1-0.1,0.1c0,0,0,0.1-0.1,0.1l0,0
				c-0.8,0.8-1.5,1.6-2.2,2.4l2.9,2.5c5.4-6.3,12.4-10.6,20.4-12.5L1507.6,18.1z M1474.9,56.1c-0.1,0.7-0.1,1.5-0.1,2.2c0,0,0,0,0,0
				s0,0,0,0c0,0,0,0,0,0c0,0.1,0,0.1,0,0.2c0,0,0,0,0,0s0,0,0,0c0,0,0,0,0,0c0,0,0,0,0,0c0,0,0,0,0,0s0,0,0,0c0,0,0,0.1,0,0.1
				c0,0,0,0,0,0c0,0,0,0,0,0c0,0,0,0,0,0v0c0,0,0,0,0,0v0c0,0,0,0,0,0v0c0,0,0,0,0,0v0c0,0,0,0,0,0v0c0,0,0,0,0,0v0c0,0,0,0.1,0,0.1
				c0,0,0,0,0,0s0,0,0,0v0v0v0c0,0,0,0,0,0v0v0v0v0v0v0v0v0v0v0c0,0,0,0,0,0v0c0,0,0,0,0,0v0v0v0v0v0v0v0v0v0c0,0,0,0,0,0v0
				c0,0,0,0,0,0v0c0,0,0,0,0,0v0c0,0,0,0,0,0c0,0,0,0,0,0v0c0,0,0,0,0,0v0c0,0,0,0,0,0v0c0,0,0,0,0,0v0c0,0,0,0,0,0v0c0,0,0,0,0,0v0
				c0,0,0,0,0,0v0c0,0,0,0,0,0v0c0,0,0,0,0,0v22.7h3.8V60c0-1.2,0.1-2.4,0.2-3.6L1474.9,56.1z M1484.1,106.4l-3.3,2
				c3.6,6,8.6,11,14.5,14.6c0.1,0.1,0.2,0.1,0.2,0.1c0,0,0.1,0.1,0.1,0.1c0,0,0.1,0,0.1,0.1c0,0,0.1,0,0.1,0.1c0,0,0,0,0,0s0,0,0,0
				c0,0,0,0,0.1,0c0,0,0,0,0,0l0,0l0,0c0,0,0,0,0,0l0,0l0,0c0,0,0,0,0.1,0.1c0,0,0,0,0,0l0,0c0,0,0,0,0.1,0c0,0,0,0,0,0l0,0
				c0,0,0,0,0,0l0,0c0,0,0,0,0,0l0,0c0,0,0,0,0,0l0,0c0,0,0,0,0,0l0,0c0,0,0,0,0,0l0,0c0,0,0,0,0,0l0,0c0,0,0,0,0,0c0,0,0,0,0,0
				c0,0,0,0,0,0c0,0,0,0,0,0c0,0,0,0,0,0c0,0,0,0,0,0c0,0,0,0,0,0h0c0,0,0,0,0,0c0,0,0,0,0,0c0,0,0,0,0,0c0,0,0,0,0,0c0,0,0,0,0,0
				c0,0,0,0,0,0c0,0,0,0,0,0c0,0,0,0,0,0c0,0,0,0,0,0c0,0,0,0,0,0c0,0,0,0,0,0c0,0,0,0,0,0c0,0,0,0,0,0c0,0,0,0,0,0c0,0,0,0,0,0
				c0,0,0,0,0,0c0,0,0,0,0,0c0,0,0,0,0,0c0,0,0,0,0,0c0,0,0,0,0,0c0,0,0,0,0,0c0,0,0,0,0,0c0,0,0,0,0,0c0,0,0,0,0,0c0,0,0,0,0,0
				c0,0,0,0,0,0c0,0,0,0,0,0c0,0,0,0,0,0h0c0,0,0,0,0,0c0,0,0,0,0,0c0,0,0,0,0,0c0,0,0,0,0,0c0,0,0,0,0,0c0,0,0,0,0,0c0,0,0,0,0,0
				c0,0,0,0,0,0c0,0,0,0,0,0c0,0,0,0,0,0c0,0,0,0,0,0c0,0,0,0,0,0c0,0,0,0,0,0h0c0,0,0,0,0,0c0,0,0,0,0,0c0,0,0,0,0,0h0c0,0,0,0,0,0
				h0c0,0,0,0,0,0c0,0,0,0,0,0c0,0,0,0,0,0c0,0,0,0,0,0c0,0,0,0,0,0l0,0c0,0,0,0,0,0s0,0,0,0c0,0,0,0,0,0c0,0,0,0,0,0c0,0,0,0,0,0
				c0,0,0,0,0,0l0,0c0,0,0,0,0,0s0,0,0,0c0,0,0,0,0,0c0,0,0,0,0.1,0c0,0,0,0,0,0s0,0,0,0c0,0,0,0,0,0s0,0,0,0c0,0,0,0,0,0
				c0,0,0,0,0,0s0,0,0,0c0,0,0,0,0,0c0,0,0,0,0,0s0,0,0,0c0,0,0,0,0,0c0,0,0,0,0,0c0,0,0,0,0,0c0,0,0,0,0.1,0c0,0,0,0,0,0
				c0,0,0,0,0,0c0,0,0.1,0,0.1,0c0,0,0,0,0,0c0,0,0.1,0,0.1,0c0,0,0,0,0,0c0,0,0.1,0,0.1,0c0,0,0,0,0,0c0.6,0.3,1.3,0.6,1.9,0.9
				l1.5-3.5C1494.7,119,1488.3,113.3,1484.1,106.4z M1553.5,125.5h-26.7v3.8h26.7V125.5z M1606.9,125.5h-26.7v3.8h26.7V125.5z
				 M1660.3,125.5h-26.7v3.8h26.7V125.5z M1702.2,105.2c-3.9,7.1-10.1,12.9-17.4,16.5l1.7,3.4c3.5-1.7,6.8-3.8,9.7-6.4
				c0,0,0,0,0.1-0.1l0,0c0,0,0.1-0.1,0.1-0.1l0,0c0.1-0.1,0.1-0.1,0.2-0.2c0,0,0,0,0.1-0.1c0,0,0,0,0,0c0,0,0.1-0.1,0.1-0.1
				c0,0,0.1-0.1,0.1-0.1c0,0,0,0,0,0c0,0,0.1-0.1,0.1-0.1l0,0c0,0,0,0,0-0.1l0,0l0,0c0,0,0.1,0,0.1-0.1l0,0l0,0c0,0,0,0,0.1-0.1l0,0
				c0,0,0,0,0-0.1l0,0c0,0,0,0,0,0l0,0l0,0c0,0,0,0,0-0.1l0,0l0,0c0,0,0,0,0.1-0.1l0,0l0,0c0,0,0,0,0-0.1l0,0l0,0c0,0,0,0,0.1-0.1
				l0,0l0,0c0,0,0,0,0.1-0.1l0,0l0,0c0,0,0,0,0-0.1l0,0l0,0c0,0,0,0,0,0c0,0,0,0,0.1-0.1l0,0l0,0c0,0,0,0,0.1-0.1l0,0l0,0
				c0,0,0,0,0-0.1l0,0l0,0l0,0c0,0,0,0,0.1-0.1l0,0l0,0c0,0,0,0,0.1-0.1l0,0l0,0c0,0,0,0,0,0l0,0l0,0l0,0c0,0,0,0,0.1-0.1l0,0
				c0,0,0,0,0,0l0,0c0,0,0,0,0,0c0,0,0,0,0-0.1c0,0,0,0,0,0l0,0c0,0,0,0,0,0l0,0c0,0,0,0,0-0.1l0,0c0,0,0,0,0,0l0,0c0,0,0,0,0,0
				s0,0,0.1-0.1c0,0,0,0,0,0l0,0c0,0,0,0,0,0l0,0c0,0,0,0,0.1-0.1l0,0c0,0,0,0,0,0l0,0c0,0,0,0,0,0c0,0,0,0,0.1,0l0,0l0,0
				c0,0,0,0,0-0.1l0,0l0,0l0,0c0,0,0,0,0,0l0,0c0,0,0,0,0,0l0,0c0,0,0,0,0,0l0,0c0,0,0,0,0,0l0,0c0,0,0,0,0,0l0,0c0,0,0,0,0,0l0,0
				c0,0,0,0,0,0l0,0c0,0,0,0,0,0l0,0l0,0c0,0,0,0,0,0l0,0l0,0c0,0,0,0,0,0l0,0c0,0,0,0,0,0l0,0c0,0,0,0,0,0l0,0c0,0,0,0,0,0l0,0
				c0,0,0,0,0-0.1l0,0c0,0,0,0,0,0l0,0c0,0,0,0,0.1-0.1l0,0l0,0c0,0,0,0,0.1-0.1l0,0c0,0,0,0,0,0l0,0c0,0,0,0,0-0.1l0,0c0,0,0,0,0,0
				l0,0c0,0,0,0,0,0c0,0,0,0,0.1-0.1l0,0c0,0,0,0,0,0l0,0c0,0,0,0,0-0.1l0,0l0,0c0,0,0,0,0-0.1l0,0l0,0c0,0,0,0,0.1-0.1l0,0l0,0
				c0,0,0-0.1,0.1-0.1l0,0c0,0,0-0.1,0.1-0.1l0,0c0,0,0-0.1,0.1-0.1l0,0l0,0c0,0,0,0,0-0.1l0,0l0,0c0,0,0,0,0.1-0.1l0,0l0,0
				c0,0,0,0,0.1-0.1l0,0c0,0,0-0.1,0.1-0.1l0,0l0,0c0,0,0-0.1,0.1-0.1c1.8-2.1,3.3-4.4,4.7-6.8L1702.2,105.2z M1710.5,54.6l-3.8,0.5
				c0.2,1.6,0.3,3.3,0.3,5v21.2h3.8V60c0,0,0,0,0,0s0,0,0,0c0,0,0,0,0,0c0,0,0,0,0,0s0,0,0,0s0,0,0,0c0,0,0,0,0-0.1c0,0,0,0,0,0
				c0,0,0,0,0,0c0,0,0,0,0,0c0,0,0,0,0,0c0,0,0,0,0-0.1c0,0,0,0,0,0c0,0,0,0,0,0c0,0,0,0,0,0s0,0,0,0s0,0,0,0c0,0,0,0,0,0s0,0,0,0
				s0,0,0,0c0,0,0,0,0,0c0,0,0,0,0,0c0,0,0,0,0,0c0,0,0,0,0,0c0,0,0,0,0,0c0,0,0,0,0,0c0,0,0,0,0,0s0,0,0,0c0,0,0,0,0,0c0,0,0,0,0,0
				s0,0,0,0c0,0,0,0,0,0s0,0,0,0s0,0,0,0s0,0,0,0s0,0,0,0c0,0,0,0,0,0c0,0,0,0,0,0s0,0,0,0c0,0,0,0,0,0s0,0,0,0s0,0,0,0c0,0,0,0,0,0
				s0,0,0,0c0,0,0,0,0,0c0,0,0,0,0,0c0,0,0,0,0,0c0,0,0,0,0,0s0,0,0,0c0,0,0,0,0,0s0,0,0,0c0,0,0,0,0,0c0,0,0,0,0,0c0,0,0,0,0,0
				c0,0,0,0,0,0c0,0,0,0,0,0c0,0,0,0,0,0s0,0,0,0s0,0,0,0c0,0,0,0,0,0c0,0,0,0,0,0v0c0,0,0,0,0,0s0,0,0,0c0,0,0,0,0,0c0,0,0,0,0,0
				c0,0,0,0,0,0v0c0,0,0,0,0,0v0c0,0,0,0,0,0v0c0,0,0,0,0,0c0,0,0,0,0,0c0,0,0,0,0,0c0,0,0,0,0,0c0,0,0,0,0,0v0c0,0,0,0,0,0v0
				c0,0,0,0,0,0v0c0,0,0,0,0,0v0c0,0,0,0,0,0v0c0,0,0,0,0,0v0c0,0,0,0,0,0v0c0,0,0,0,0,0v0c0,0,0,0,0,0v0v0v0c0,0,0,0,0,0v0v0
				c0,0,0,0,0,0v0v0c0,0,0,0,0,0v0v0c0,0,0,0,0,0v0v0v0c0,0,0,0,0,0v0v0c0,0,0,0,0,0v0v0c0,0,0,0,0,0v0v0c0,0,0,0,0,0c0,0,0,0,0,0v0
				c0,0,0,0,0,0v0v0c0,0,0,0,0,0s0,0,0,0s0,0,0,0v0c0,0,0,0,0,0s0,0,0,0c0,0,0,0,0,0c0,0,0,0,0-0.1c0,0,0,0,0,0c0,0,0,0,0,0s0,0,0,0
				c0,0,0,0,0-0.1c0,0,0-0.1,0-0.1C1710.7,56.2,1710.6,55.4,1710.5,54.6z M1676.6,17.8l-0.8,3.7c8,1.7,15.2,5.7,20.8,11.8l2.8-2.6
				c-3.4-3.7-7.5-6.8-12-9.1c-0.1,0-0.2-0.1-0.2-0.1c0,0-0.1,0-0.1-0.1c0,0-0.1,0-0.1-0.1c0,0-0.1,0-0.1,0c0,0,0,0,0,0
				c0,0-0.1,0-0.1,0c0,0,0,0,0,0c0,0,0,0,0,0c0,0,0,0-0.1,0c0,0,0,0,0,0s0,0,0,0c0,0,0,0-0.1,0c0,0,0,0,0,0c0,0,0,0,0,0c0,0,0,0,0,0
				c0,0,0,0-0.1,0c0,0,0,0,0,0s0,0,0,0c0,0,0,0,0,0c0,0,0,0,0,0c0,0,0,0,0,0c0,0-0.1,0-0.1,0c0,0,0,0,0,0c0,0,0,0,0,0s0,0,0,0
				c0,0,0,0,0,0c0,0,0,0,0,0c0,0,0,0,0,0s0,0,0,0c0,0,0,0,0,0c0,0,0,0,0,0c0,0,0,0,0,0c0,0,0,0,0,0c0,0,0,0,0,0h0c0,0,0,0,0,0h0
				c0,0,0,0,0,0c0,0,0,0,0,0c0,0,0,0,0,0c0,0,0,0,0,0h0c0,0,0,0,0,0h0c0,0,0,0,0,0c0,0,0,0,0,0c0,0,0,0,0,0h0c0,0,0,0,0,0h0
				c0,0,0,0,0,0h0c0,0,0,0,0,0h0c0,0,0,0,0,0h0h0c0,0,0,0,0,0h0c0,0,0,0,0,0h0c0,0,0,0,0,0c0,0,0,0,0,0h0h0h0c0,0,0,0,0,0h0h0
				c0,0,0,0,0,0h0c0,0,0,0,0,0h0c0,0,0,0,0,0h0c0,0,0,0,0,0h0c0,0,0,0,0,0h0c0,0,0,0,0,0h0c0,0,0,0,0,0h0c0,0,0,0,0,0c0,0,0,0,0,0
				c0,0,0,0,0,0c0,0,0,0,0,0c0,0,0,0,0,0c0,0,0,0,0,0c0,0,0,0,0,0c0,0,0,0,0,0c0,0,0,0,0,0c0,0,0,0,0,0c0,0,0,0,0,0c0,0,0,0,0,0
				c0,0,0,0,0,0c0,0,0,0,0,0c0,0,0,0-0.1,0c0,0,0,0,0,0c0,0,0,0,0,0c0,0,0,0,0,0c0,0,0,0-0.1,0c0,0,0,0,0,0c0,0,0,0,0,0
				c0,0,0,0-0.1,0c0,0,0,0,0,0c0,0,0,0,0,0c0,0-0.1,0-0.1,0c0,0,0,0,0,0c0,0-0.1,0-0.1,0c0,0-0.1,0-0.1,0c0,0,0,0,0,0
				c-0.1-0.1-0.2-0.1-0.4-0.2C1681.5,19.1,1679.1,18.3,1676.6,17.8z"/>
		</g>
		<g id="Group_2">
			<g id="Group_3">
				<path id="Vector_44" class="st5" d="M1606.5,130.4v13.4"/>
				<path id="Vector_45" class="st5" d="M1606.5,179.8v13.4h-13.3"/>
				<path id="Vector_46" class="st6" d="M1565.8,193.1H1251"/>
				<path id="Vector_47" class="st5" d="M1237.3,193.1h-13.4"/>
			</g>
		</g>
	</g>
</g>
<g>
	<path class="st7" d="M31,995.2v-2c0-6.5,2.7-10.5,8-10.5c5.4,0,8,4,8,10.5v2c0,6.5-2.7,10.5-8,10.5C33.7,1005.7,31,1001.8,31,995.2
		z M44.1,995.2v-2c0-5.5-1.6-8.1-5-8.1c-3.4,0-5,2.5-5,8.1v2c0,5.5,1.6,8.1,5,8.1C42.5,1003.3,44.1,1000.7,44.1,995.2z"/>
	<path class="st7" d="M56.2,1005.6c-1.4,0-2.9-0.3-4-1.4c-1-1-1.4-2.4-1.4-4.9v-9.6h2.7v9.5c0,3.4,1.6,4.1,3.2,4.1
		c3.3,0,4-3.3,4-5.5v-8.1h2.6v15.5h-2.5v-2.9C60.3,1003.8,58.5,1005.6,56.2,1005.6z"/>
	<path class="st7" d="M79.7,989.4c1.1,0,2.1,0.1,2.8,0.3v2.4c-0.6-0.2-1.8-0.3-2.9-0.3c-3.7,0-6.7,2.5-6.7,7.6v5.8h-2.6v-15.5h2.6v4
		C74,991.3,76.5,989.4,79.7,989.4z"/>
	<path class="st7" d="M106.1,989.7l1.6,10.6l0.3,2.2h0.2c0.1-0.7,0.2-1.2,0.5-2.6l2-10.2h2.7l2,10.2c0.3,1.4,0.4,1.9,0.5,2.6h0.2
		l0.3-2.2l1.6-10.6h2.8l-3,15.5h-3.3l-2-10c-0.1-0.6-0.2-1.9-0.3-2.5H112c0,0.6-0.2,1.9-0.3,2.5l-2,10h-3.3l-3-15.5H106.1z"/>
	<path class="st7" d="M136.8,1005.2H134c-0.1-0.9-0.2-1.9-0.2-2.8c-1,2.2-2.7,3.2-5.2,3.2c-3.1,0-5.2-1.9-5.2-4.6
		c0-1.6,0.7-2.8,2.2-3.7c1-0.6,2.7-1,5.3-1.3l2.8-0.3v-0.3c0-2.8-1-4-3.3-4c-2.2,0-3.5,1.1-3.6,3.1h-2.8c0.3-3.3,2.7-5.2,6.6-5.2
		c4,0,5.8,2,5.8,6.4v4.2C136.3,1002.5,136.4,1004.1,136.8,1005.2z M129.9,998.2c-2.7,0.4-3.8,1.1-3.8,2.7c0,1.6,1.1,2.5,2.9,2.5
		c2.8,0,4.6-1.9,4.6-5v-0.8L129.9,998.2z"/>
	<path class="st7" d="M152.8,989.4c1.1,0,2.1,0.1,2.8,0.3v2.4c-0.6-0.2-1.8-0.3-2.9-0.3c-3.7,0-6.7,2.5-6.7,7.6v5.8h-2.6v-15.5h2.6
		v4C147.1,991.3,149.6,989.4,152.8,989.4z"/>
	<path class="st7" d="M172.9,982.8v22.5h-2.5v-2.9c-0.9,2-2.4,3.3-4.9,3.3c-3.9,0-6.4-3.2-6.4-8.1c0-4.9,2.7-8.1,6.8-8.1
		c2.1,0,3.6,1.1,4.4,2.7v-9.3H172.9z M166.2,991.7c-2.7,0-4.2,2.1-4.2,5.8c0,3.6,1.6,5.8,4.2,5.8c2.6,0,4.3-2.1,4.3-5.5v-0.7
		C170.4,993.8,168.7,991.7,166.2,991.7z"/>
	<path class="st7" d="M189.4,989.4c1.1,0,2.1,0.1,2.8,0.3v2.4c-0.6-0.2-1.8-0.3-2.9-0.3c-3.7,0-6.7,2.5-6.7,7.6v5.8H180v-15.5h2.6v4
		C183.6,991.3,186.1,989.4,189.4,989.4z"/>
	<path class="st7" d="M196.3,997.5c0-4.9,2.9-8.1,7.2-8.1c4.3,0,7.2,3.2,7.2,8.1c0,4.9-2.9,8.1-7.2,8.1
		C199.2,1005.6,196.3,1002.3,196.3,997.5z M207.9,997.5c0-3.6-1.6-5.8-4.4-5.8c-2.8,0-4.4,2.2-4.4,5.8c0,3.7,1.6,5.8,4.4,5.8
		C206.3,1003.3,207.9,1001.1,207.9,997.5z"/>
	<path class="st7" d="M218.3,992.4c0.8-1.8,2.7-3.1,4.8-3.1c4,0,6.4,3.4,6.4,8.1c0,4.8-2.4,8.1-6.5,8.1c-2.1,0-4-1.1-4.8-3l-0.5,2.7
		h-2v-22.5h2.6V992.4z M222.3,1003.3c2.7,0,4.3-2.3,4.3-5.8c0-3.4-1.5-5.8-4.2-5.8c-2.6,0-4.2,2.1-4.2,5.4v0.8
		C218.2,1001.1,219.7,1003.3,222.3,1003.3z"/>
	<path class="st7" d="M246.5,998.2h-10.9c0,2.9,1.7,5.1,4.6,5.1c2,0,3.3-1.3,4.1-2.8l2.2,1.2c-1.3,2.6-3.4,3.9-6.3,3.9
		c-4.9,0-7.2-3.3-7.2-8.4c0-4.7,2.7-7.8,7.1-7.8c4.7,0,6.6,3.4,6.6,7.6C246.5,997.4,246.5,997.8,246.5,998.2z M239.8,991.4
		c-2.8,0-4.2,2.3-4.2,4.6h8.2C243.9,993.5,242.6,991.4,239.8,991.4z"/>
	<path class="st7" d="M269.5,997.4c0-4.6,2.4-8,7.2-8c3.4,0,5.9,2,6.3,5.5l-2.7,0.3c-0.3-2.3-1.6-3.6-3.8-3.6
		c-2.8,0-4.3,2.3-4.3,5.7c0,3.5,1.5,5.9,4.4,5.9c2.3,0,3.5-1.4,3.8-3.7l2.5,0.4c-0.5,3.2-2.5,5.6-6.3,5.6
		C271.9,1005.6,269.5,1002,269.5,997.4z"/>
	<path class="st7" d="M287.6,997.5c0-4.9,2.9-8.1,7.2-8.1c4.3,0,7.2,3.2,7.2,8.1c0,4.9-2.9,8.1-7.2,8.1
		C290.5,1005.6,287.6,1002.3,287.6,997.5z M299.3,997.5c0-3.6-1.6-5.8-4.4-5.8c-2.8,0-4.4,2.2-4.4,5.8c0,3.7,1.6,5.8,4.4,5.8
		C297.6,1003.3,299.3,1001.1,299.3,997.5z"/>
	<path class="st7" d="M314.3,989.4c1.3,0,2.7,0.3,3.7,1.3c1,1,1.5,2.4,1.5,5v9.6h-2.6v-9.4c0-3.4-1.7-4.1-3.2-4.1
		c-3.5,0-4.3,3.3-4.3,5.5v8.1h-2.6v-15.5h2.5v3.1C310,990.8,311.7,989.4,314.3,989.4z"/>
	<path class="st7" d="M325.1,1000.5l2.7-0.5c0.4,2.3,1.9,3.4,4.2,3.4c2.1,0,3.2-0.9,3.2-2.3c0-1.5-0.8-2.2-2.5-2.4l-2.5-0.3
		c-3.1-0.3-4.5-2.1-4.5-4.5c0-2.8,2.2-4.6,5.9-4.6c3.5,0,5.9,1.9,6.3,4.7l-2.6,0.6c-0.3-1.9-1.6-3.2-3.7-3.2c-2,0-3.3,0.8-3.3,2.3
		c0,1.3,0.9,2.1,2.8,2.4l2.5,0.3c3.1,0.3,4.3,2,4.3,4.4c0,2.9-2.2,4.7-5.9,4.7C328.1,1005.6,325.6,1003.8,325.1,1000.5z"/>
	<path class="st7" d="M343.9,1003.1h5v-11.2h-4.5v-2.2h7.1v13.3h5.2v2.2h-12.8V1003.1z M351.8,986.6h-3.7v-3.7h3.7V986.6z"/>
	<path class="st7" d="M361.6,1000.5l2.7-0.5c0.4,2.3,1.9,3.4,4.2,3.4c2.1,0,3.2-0.9,3.2-2.3c0-1.5-0.8-2.2-2.5-2.4l-2.5-0.3
		c-3.1-0.3-4.5-2.1-4.5-4.5c0-2.8,2.2-4.6,5.9-4.6c3.5,0,5.9,1.9,6.3,4.7l-2.6,0.6c-0.3-1.9-1.6-3.2-3.7-3.2c-2,0-3.3,0.8-3.3,2.3
		c0,1.3,0.9,2.1,2.8,2.4l2.5,0.3c3.1,0.3,4.3,2,4.3,4.4c0,2.9-2.2,4.7-5.9,4.7C364.6,1005.6,362.2,1003.8,361.6,1000.5z"/>
	<path class="st7" d="M379.3,989.7h4.4v-4.1l2.6-1.1v5.2h6v2.1h-6v8c0,2.1,1,3.1,3,3.1c1,0,2.1-0.1,3.1-0.3v2.4
		c-0.8,0.2-1.7,0.4-3,0.4c-3.9,0-5.6-2.2-5.6-5.2v-8.4h-4.4V989.7z"/>
	<path class="st7" d="M398.2,1000.5l2.7-0.5c0.4,2.3,1.9,3.4,4.2,3.4c2.1,0,3.2-0.9,3.2-2.3c0-1.5-0.8-2.2-2.5-2.4l-2.5-0.3
		c-3.1-0.3-4.5-2.1-4.5-4.5c0-2.8,2.2-4.6,5.9-4.6c3.5,0,5.9,1.9,6.3,4.7l-2.6,0.6c-0.3-1.9-1.6-3.2-3.7-3.2c-2,0-3.3,0.8-3.3,2.3
		c0,1.3,0.9,2.1,2.8,2.4l2.5,0.3c3.1,0.3,4.3,2,4.3,4.4c0,2.9-2.2,4.7-5.9,4.7C401.2,1005.6,398.7,1003.8,398.2,1000.5z"/>
	<path class="st7" d="M433.8,997.5c0-4.9,2.9-8.1,7.2-8.1c4.3,0,7.2,3.2,7.2,8.1c0,4.9-2.9,8.1-7.2,8.1
		C436.7,1005.6,433.8,1002.3,433.8,997.5z M445.5,997.5c0-3.6-1.6-5.8-4.4-5.8c-2.8,0-4.4,2.2-4.4,5.8c0,3.7,1.6,5.8,4.4,5.8
		C443.8,1003.3,445.5,1001.1,445.5,997.5z"/>
	<path class="st7" d="M465.8,991.9h-5.9v13.4h-2.6v-13.4h-4.7v-2.1h4.7V988c0-3.5,2-5.4,5.8-5.4c0.9,0,1.6,0.1,2.7,0.3v2.3
		c-0.7-0.1-1.5-0.2-2.7-0.2c-2.4,0-3.2,0.8-3.2,3.2v1.5h5.9V991.9z"/>
	<path class="st7" d="M45.4,1042.4h-2.8c-0.1-0.9-0.2-1.9-0.2-2.8c-1,2.2-2.7,3.2-5.2,3.2c-3.1,0-5.2-1.9-5.2-4.6
		c0-1.6,0.7-2.8,2.2-3.7c1-0.6,2.7-1,5.3-1.3l2.8-0.3v-0.3c0-2.8-1-4-3.3-4c-2.2,0-3.5,1.1-3.6,3.1h-2.8c0.3-3.3,2.7-5.2,6.6-5.2
		c4,0,5.8,2,5.8,6.4v4.2C44.9,1039.6,45,1041.2,45.4,1042.4z M38.6,1035.4c-2.7,0.4-3.8,1.1-3.8,2.7c0,1.6,1.1,2.5,2.9,2.5
		c2.8,0,4.6-1.9,4.6-5v-0.8L38.6,1035.4z"/>
	<path class="st7" d="M82.1,1029h-5.9v13.4h-2.6V1029h-4.7v-2.1h4.7v-1.7c0-3.5,2-5.4,5.8-5.4c0.9,0,1.6,0.1,2.7,0.3v2.3
		c-0.7-0.1-1.5-0.2-2.7-0.2c-2.4,0-3.2,0.8-3.2,3.2v1.5h5.9V1029z M89.1,1040.2h5v-11.2h-4.5v-2.2h7.1v13.3h5.2v2.2H89.1V1040.2z
		 M96.9,1023.8h-3.7v-3.7h3.7V1023.8z"/>
	<path class="st7" d="M114.2,1026.5c1.3,0,2.7,0.3,3.7,1.3c1,1,1.5,2.4,1.5,5v9.6h-2.6v-9.4c0-3.4-1.7-4.1-3.2-4.1
		c-3.5,0-4.3,3.3-4.3,5.5v8.1h-2.6v-15.5h2.5v3.1C109.9,1028,111.6,1026.5,114.2,1026.5z"/>
	<path class="st7" d="M137.8,1035.3h-10.9c0,2.9,1.7,5.1,4.6,5.1c2,0,3.3-1.3,4.1-2.8l2.2,1.2c-1.3,2.6-3.4,3.9-6.3,3.9
		c-4.9,0-7.2-3.3-7.2-8.4c0-4.7,2.7-7.8,7.1-7.8c4.7,0,6.6,3.4,6.6,7.6C137.8,1034.5,137.8,1034.9,137.8,1035.3z M131.1,1028.6
		c-2.8,0-4.2,2.3-4.2,4.6h8.2C135.2,1030.7,133.9,1028.6,131.1,1028.6z"/>
	<path class="st7" d="M161.6,1037.6l2.7-0.5c0.4,2.3,1.9,3.4,4.2,3.4c2.1,0,3.2-0.9,3.2-2.3c0-1.5-0.8-2.2-2.5-2.4l-2.5-0.3
		c-3.1-0.3-4.5-2.1-4.5-4.5c0-2.8,2.2-4.6,5.9-4.6c3.5,0,5.9,1.9,6.3,4.7l-2.6,0.6c-0.3-1.9-1.6-3.2-3.7-3.2c-2,0-3.3,0.8-3.3,2.3
		c0,1.3,0.9,2.1,2.8,2.4l2.5,0.3c3.1,0.3,4.3,2,4.3,4.4c0,2.9-2.2,4.7-5.9,4.7C164.6,1042.8,162.1,1040.9,161.6,1037.6z"/>
	<path class="st7" d="M192.6,1035.3h-10.9c0,2.9,1.7,5.1,4.6,5.1c2,0,3.3-1.3,4.1-2.8l2.2,1.2c-1.3,2.6-3.4,3.9-6.3,3.9
		c-4.9,0-7.2-3.3-7.2-8.4c0-4.7,2.7-7.8,7.1-7.8c4.7,0,6.6,3.4,6.6,7.6C192.7,1034.5,192.6,1034.9,192.6,1035.3z M186,1028.6
		c-2.8,0-4.2,2.3-4.2,4.6h8.2C190,1030.7,188.7,1028.6,186,1028.6z"/>
	<path class="st7" d="M198.7,1040.2h5v-18.1H199v-2.2h7.3v20.3h5.2v2.2h-12.8V1040.2z"/>
	<path class="st7" d="M229.1,1035.3h-10.9c0,2.9,1.7,5.1,4.6,5.1c2,0,3.3-1.3,4.1-2.8l2.2,1.2c-1.3,2.6-3.4,3.9-6.3,3.9
		c-4.9,0-7.2-3.3-7.2-8.4c0-4.7,2.7-7.8,7.1-7.8c4.7,0,6.6,3.4,6.6,7.6C229.2,1034.5,229.2,1034.9,229.1,1035.3z M222.5,1028.6
		c-2.8,0-4.2,2.3-4.2,4.6h8.2C226.5,1030.7,225.3,1028.6,222.5,1028.6z"/>
	<path class="st7" d="M233.8,1034.6c0-4.6,2.4-8,7.2-8c3.4,0,5.9,2,6.3,5.5l-2.7,0.3c-0.3-2.3-1.6-3.6-3.8-3.6
		c-2.8,0-4.3,2.3-4.3,5.7c0,3.5,1.5,5.9,4.4,5.9c2.3,0,3.5-1.4,3.8-3.7l2.5,0.4c-0.5,3.2-2.5,5.6-6.3,5.6
		C236.3,1042.8,233.8,1039.2,233.8,1034.6z"/>
	<path class="st7" d="M252.4,1026.9h4.4v-4.1l2.6-1.1v5.2h6v2.1h-6v8c0,2.1,1,3.1,3,3.1c1,0,2.1-0.1,3.1-0.3v2.4
		c-0.8,0.2-1.7,0.4-3,0.4c-3.9,0-5.6-2.2-5.6-5.2v-8.4h-4.4V1026.9z"/>
	<path class="st7" d="M271.8,1040.2h5v-11.2h-4.5v-2.2h7.1v13.3h5.2v2.2h-12.8V1040.2z M279.6,1023.8h-3.7v-3.7h3.7V1023.8z"/>
	<path class="st7" d="M288.6,1034.6c0-4.9,2.9-8.1,7.2-8.1c4.3,0,7.2,3.2,7.2,8.1c0,4.9-2.9,8.1-7.2,8.1
		C291.4,1042.8,288.6,1039.5,288.6,1034.6z M300.2,1034.6c0-3.6-1.6-5.8-4.4-5.8c-2.8,0-4.4,2.2-4.4,5.8s1.6,5.8,4.4,5.8
		C298.6,1040.5,300.2,1038.3,300.2,1034.6z"/>
	<path class="st7" d="M315.2,1026.5c1.3,0,2.7,0.3,3.7,1.3c1,1,1.5,2.4,1.5,5v9.6h-2.6v-9.4c0-3.4-1.7-4.1-3.2-4.1
		c-3.5,0-4.3,3.3-4.3,5.5v8.1h-2.6v-15.5h2.5v3.1C310.9,1028,312.6,1026.5,315.2,1026.5z"/>
	<path class="st7" d="M357.1,1029h-5.9v13.4h-2.6V1029h-4.7v-2.1h4.7v-1.7c0-3.5,2-5.4,5.8-5.4c0.9,0,1.6,0.1,2.7,0.3v2.3
		c-0.7-0.1-1.5-0.2-2.7-0.2c-2.4,0-3.2,0.8-3.2,3.2v1.5h5.9V1029z"/>
	<path class="st7" d="M373,1026.6c1.1,0,2.1,0.1,2.8,0.3v2.4c-0.6-0.2-1.8-0.3-2.9-0.3c-3.7,0-6.7,2.5-6.7,7.6v5.8h-2.6v-15.5h2.6v4
		C367.3,1028.5,369.8,1026.6,373,1026.6z"/>
	<path class="st7" d="M379.9,1034.6c0-4.9,2.9-8.1,7.2-8.1c4.3,0,7.2,3.2,7.2,8.1c0,4.9-2.9,8.1-7.2,8.1
		C382.8,1042.8,379.9,1039.5,379.9,1034.6z M391.6,1034.6c0-3.6-1.6-5.8-4.4-5.8c-2.8,0-4.4,2.2-4.4,5.8s1.6,5.8,4.4,5.8
		C389.9,1040.5,391.6,1038.3,391.6,1034.6z"/>
	<path class="st7" d="M403.1,1026.5c1.5,0,2.7,1,3.2,2.8c0.7-1.8,2.1-2.8,3.7-2.8c1.9,0,3.7,1.3,3.7,4.6v11.2H411v-11
		c0-2-0.9-2.5-1.8-2.5c-1.8,0-2.5,1.3-2.5,3.3v10.3h-2.6v-11c0-1.9-0.8-2.5-1.8-2.5c-1.8,0-2.4,1.4-2.4,3.3v10.3h-2.6v-15.5h2.5v2.4
		C400.3,1027.6,401.5,1026.5,403.1,1026.5z"/>
	<path class="st7" d="M31.8,1071.8c0-4.9,2.9-8.1,7.2-8.1c4.3,0,7.2,3.2,7.2,8.1c0,4.9-2.9,8.1-7.2,8.1
		C34.7,1079.9,31.8,1076.7,31.8,1071.8z M43.5,1071.8c0-3.6-1.6-5.8-4.4-5.8c-2.8,0-4.4,2.2-4.4,5.8s1.6,5.8,4.4,5.8
		C41.8,1077.6,43.5,1075.5,43.5,1071.8z"/>
	<path class="st7" d="M56.2,1079.9c-1.4,0-2.9-0.3-4-1.4c-1-1-1.4-2.4-1.4-4.9v-9.6h2.7v9.5c0,3.4,1.6,4.1,3.2,4.1
		c3.3,0,4-3.3,4-5.5v-8.1h2.6v15.5h-2.5v-2.9C60.3,1078.2,58.5,1079.9,56.2,1079.9z"/>
	<path class="st7" d="M79.7,1063.8c1.1,0,2.1,0.1,2.8,0.3v2.4c-0.6-0.2-1.8-0.3-2.9-0.3c-3.7,0-6.7,2.5-6.7,7.6v5.8h-2.6v-15.5h2.6
		v4C74,1065.6,76.5,1063.8,79.7,1063.8z"/>
	<path class="st7" d="M118.5,1079.6h-2.8c-0.1-0.9-0.2-1.9-0.2-2.8c-1,2.2-2.7,3.2-5.2,3.2c-3.1,0-5.2-1.9-5.2-4.6
		c0-1.6,0.7-2.8,2.2-3.7c1-0.6,2.7-1,5.3-1.3l2.8-0.3v-0.3c0-2.8-1-4-3.3-4c-2.2,0-3.5,1.1-3.6,3.1h-2.8c0.3-3.3,2.7-5.2,6.6-5.2
		c4,0,5.8,2,5.8,6.4v4.2C118,1076.8,118.1,1078.4,118.5,1079.6z M111.7,1072.5c-2.7,0.4-3.8,1.1-3.8,2.7c0,1.6,1.1,2.5,2.9,2.5
		c2.8,0,4.6-1.9,4.6-5v-0.8L111.7,1072.5z"/>
	<path class="st7" d="M124.1,1074.8l2.7-0.5c0.4,2.3,1.9,3.4,4.2,3.4c2.1,0,3.2-0.9,3.2-2.3c0-1.5-0.8-2.2-2.5-2.4l-2.5-0.3
		c-3.1-0.3-4.5-2.1-4.5-4.5c0-2.8,2.2-4.6,5.9-4.6c3.5,0,5.9,1.9,6.3,4.7l-2.6,0.6c-0.3-1.9-1.6-3.2-3.7-3.2c-2,0-3.3,0.8-3.3,2.3
		c0,1.3,0.9,2.1,2.8,2.4l2.5,0.3c3.1,0.3,4.3,2,4.3,4.4c0,2.9-2.2,4.7-5.9,4.7C127.1,1079.9,124.6,1078.1,124.1,1074.8z"/>
	<path class="st7" d="M142.4,1074.8l2.7-0.5c0.4,2.3,1.9,3.4,4.2,3.4c2.1,0,3.2-0.9,3.2-2.3c0-1.5-0.8-2.2-2.5-2.4l-2.5-0.3
		c-3.1-0.3-4.5-2.1-4.5-4.5c0-2.8,2.2-4.6,5.9-4.6c3.5,0,5.9,1.9,6.3,4.7l-2.6,0.6c-0.3-1.9-1.6-3.2-3.7-3.2c-2,0-3.3,0.8-3.3,2.3
		c0,1.3,0.9,2.1,2.8,2.4l2.5,0.3c3.1,0.3,4.3,2,4.3,4.4c0,2.9-2.2,4.7-5.9,4.7C145.4,1079.9,142.9,1078.1,142.4,1074.8z"/>
	<path class="st7" d="M173.4,1072.5h-10.9c0,2.9,1.7,5.1,4.6,5.1c2,0,3.3-1.3,4.1-2.8l2.2,1.2c-1.3,2.6-3.4,3.9-6.3,3.9
		c-4.9,0-7.2-3.3-7.2-8.4c0-4.7,2.7-7.8,7.1-7.8c4.7,0,6.6,3.4,6.6,7.6C173.5,1071.7,173.4,1072.1,173.4,1072.5z M166.8,1065.7
		c-2.8,0-4.2,2.3-4.2,4.6h8.2C170.8,1067.8,169.5,1065.7,166.8,1065.7z"/>
	<path class="st7" d="M178.3,1064.1h4.4v-4.1l2.6-1.1v5.2h6v2.1h-6v8c0,2.1,1,3.1,3,3.1c1,0,2.1-0.1,3.1-0.3v2.4
		c-0.8,0.2-1.7,0.4-3,0.4c-3.9,0-5.6-2.2-5.6-5.2v-8.4h-4.4V1064.1z"/>
	<path class="st7" d="M216,1077.4h5v-18.1h-4.6v-2.2h7.3v20.3h5.2v2.2H216V1077.4z"/>
	<path class="st7" d="M234.3,1077.4h5v-11.2h-4.5v-2.2h7.1v13.3h5.2v2.2h-12.8V1077.4z M242.2,1061h-3.7v-3.7h3.7V1061z"/>
	<path class="st7" d="M254.8,1066.8c0.8-1.8,2.7-3.1,4.8-3.1c4,0,6.4,3.4,6.4,8.1c0,4.8-2.4,8.1-6.5,8.1c-2.1,0-4-1.1-4.8-3
		l-0.5,2.7h-2v-22.5h2.6V1066.8z M258.9,1077.6c2.7,0,4.3-2.3,4.3-5.8c0-3.4-1.5-5.8-4.2-5.8c-2.6,0-4.2,2.1-4.2,5.4v0.8
		C254.7,1075.5,256.3,1077.6,258.9,1077.6z"/>
	<path class="st7" d="M280.7,1063.8c1.1,0,2.1,0.1,2.8,0.3v2.4c-0.6-0.2-1.8-0.3-2.9-0.3c-3.7,0-6.7,2.5-6.7,7.6v5.8h-2.6v-15.5h2.6
		v4C275,1065.6,277.5,1063.8,280.7,1063.8z"/>
	<path class="st7" d="M301.2,1079.6h-2.8c-0.1-0.9-0.2-1.9-0.2-2.8c-1,2.2-2.7,3.2-5.2,3.2c-3.1,0-5.2-1.9-5.2-4.6
		c0-1.6,0.7-2.8,2.2-3.7c1-0.6,2.7-1,5.3-1.3l2.8-0.3v-0.3c0-2.8-1-4-3.3-4c-2.2,0-3.5,1.1-3.6,3.1h-2.8c0.3-3.3,2.7-5.2,6.6-5.2
		c4,0,5.8,2,5.8,6.4v4.2C300.7,1076.8,300.9,1078.4,301.2,1079.6z M294.4,1072.5c-2.7,0.4-3.8,1.1-3.8,2.7c0,1.6,1.1,2.5,2.9,2.5
		c2.8,0,4.6-1.9,4.6-5v-0.8L294.4,1072.5z"/>
	<path class="st7" d="M317.3,1063.8c1.1,0,2.1,0.1,2.8,0.3v2.4c-0.6-0.2-1.8-0.3-2.9-0.3c-3.7,0-6.7,2.5-6.7,7.6v5.8h-2.6v-15.5h2.6
		v4C311.5,1065.6,314.1,1063.8,317.3,1063.8z"/>
	<path class="st7" d="M325.7,1077.4h5v-11.2h-4.5v-2.2h7.1v13.3h5.2v2.2h-12.8V1077.4z M333.5,1061h-3.7v-3.7h3.7V1061z"/>
	<path class="st7" d="M356.1,1072.5h-10.9c0,2.9,1.7,5.1,4.6,5.1c2,0,3.3-1.3,4.1-2.8l2.2,1.2c-1.3,2.6-3.4,3.9-6.3,3.9
		c-4.9,0-7.2-3.3-7.2-8.4c0-4.7,2.7-7.8,7.1-7.8c4.7,0,6.6,3.4,6.6,7.6C356.2,1071.7,356.1,1072.1,356.1,1072.5z M349.5,1065.7
		c-2.8,0-4.2,2.3-4.2,4.6h8.2C353.5,1067.8,352.3,1065.7,349.5,1065.7z"/>
	<path class="st7" d="M361.6,1074.8l2.7-0.5c0.4,2.3,1.9,3.4,4.2,3.4c2.1,0,3.2-0.9,3.2-2.3c0-1.5-0.8-2.2-2.5-2.4l-2.5-0.3
		c-3.1-0.3-4.5-2.1-4.5-4.5c0-2.8,2.2-4.6,5.9-4.6c3.5,0,5.9,1.9,6.3,4.7l-2.6,0.6c-0.3-1.9-1.6-3.2-3.7-3.2c-2,0-3.3,0.8-3.3,2.3
		c0,1.3,0.9,2.1,2.8,2.4l2.5,0.3c3.1,0.3,4.3,2,4.3,4.4c0,2.9-2.2,4.7-5.9,4.7C364.6,1079.9,362.2,1078.1,361.6,1074.8z"/>
	<path class="st7" d="M380.4,1063.4c0-3.3,1.7-6.5,4.6-8.3l0.9,0.9c-2.6,2-3.8,4.3-3.8,7.5c0,3.1,1.2,5.4,3.8,7.5l-0.9,0.9
		C382.1,1070,380.4,1066.8,380.4,1063.4z"/>
	<path class="st7" d="M388.7,1067.9c1-0.8,2.7-2.1,4.3-3.6c1.6-1.5,2.1-2.6,2.1-4.1c0-1.5-0.8-2.4-2.3-2.4c-1.5,0-2.3,0.9-2.3,2.3
		c0,0.3,0.1,0.7,0.1,1.2l-1.6-0.2c-0.1-0.4-0.1-0.7-0.1-1c0-2.2,1.5-3.6,4-3.6c2.4,0,3.9,1.4,3.9,3.8c0,1.8-0.9,3.3-2.8,5.1
		c-1,0.9-1.9,1.6-3.1,2.5h6v1.5h-8.2V1067.9z"/>
	<path class="st7" d="M399.9,1070.9c2.6-2,3.8-4.3,3.8-7.5c0-3.1-1.2-5.4-3.8-7.5l0.9-0.9c2.9,1.8,4.6,5,4.6,8.3
		c0,3.3-1.7,6.5-4.6,8.3L399.9,1070.9z"/>
	<path class="st7" d="M420.2,1079.6h-4.1v-4h4.1V1079.6z"/>
	<path class="st7" d="M31.1,1110.4l2.8-0.6c0.5,2.6,2,5,5.3,5c2.1,0,4.5-0.7,4.5-3.5c0-2.9-1.8-3.6-3.6-4.1l-2.9-0.8
		c-3.1-0.8-5.4-2.7-5.4-6.1c0-3.3,2.7-6.2,7-6.2c4,0,7.3,1.7,7.7,6.2l-2.8,0.8c-0.3-3.5-2.5-4.6-4.9-4.6c-3.2,0-4.2,1.9-4.2,3.5
		c0,2,1.5,3.2,3.4,3.7l2.8,0.7c2.9,0.8,5.7,2.1,5.7,6.3c0,3.1-2.2,6.3-7.4,6.3C34,1117.2,31.7,1114,31.1,1110.4z"/>
	<path class="st7" d="M51.6,1114.5h5v-11.2H52v-2.2h7.1v13.3h5.2v2.2H51.6V1114.5z M59.4,1098.1h-3.7v-3.7h3.7V1098.1z"/>
	<path class="st7" d="M76.8,1100.9c1.3,0,2.7,0.3,3.7,1.3c1,1,1.5,2.4,1.5,5v9.6h-2.6v-9.4c0-3.4-1.7-4.1-3.2-4.1
		c-3.5,0-4.3,3.3-4.3,5.5v8.1h-2.6v-15.5h2.5v3.1C72.5,1102.3,74.2,1100.9,76.8,1100.9z"/>
	<path class="st7" d="M86.7,1108.9c0-4.6,2.4-8,7.2-8c3.4,0,5.9,2,6.3,5.5l-2.7,0.3c-0.3-2.3-1.6-3.6-3.8-3.6
		c-2.8,0-4.3,2.3-4.3,5.7c0,3.5,1.5,5.9,4.4,5.9c2.3,0,3.5-1.4,3.8-3.7l2.5,0.4c-0.5,3.2-2.5,5.6-6.3,5.6
		C89.1,1117.1,86.7,1113.5,86.7,1108.9z"/>
	<path class="st7" d="M118.6,1109.7h-10.9c0,2.9,1.7,5.1,4.6,5.1c2,0,3.3-1.3,4.1-2.8l2.2,1.2c-1.3,2.6-3.4,3.9-6.3,3.9
		c-4.9,0-7.2-3.3-7.2-8.4c0-4.7,2.7-7.8,7.1-7.8c4.7,0,6.6,3.4,6.6,7.6C118.6,1108.8,118.6,1109.3,118.6,1109.7z M111.9,1102.9
		c-2.8,0-4.2,2.3-4.2,4.6h8.2C116,1105,114.7,1102.9,111.9,1102.9z"/>
	<path class="st7" d="M142.7,1101.2l1.6,10.6l0.3,2.2h0.2c0.1-0.7,0.2-1.2,0.5-2.6l2-10.2h2.7l2,10.2c0.3,1.4,0.4,1.9,0.5,2.6h0.2
		l0.3-2.2l1.6-10.6h2.8l-3,15.5h-3.3l-2-10c-0.1-0.6-0.2-1.9-0.3-2.5h-0.2c0,0.6-0.2,1.9-0.3,2.5l-2,10h-3.3l-3-15.5H142.7z"/>
	<path class="st7" d="M173.4,1109.7h-10.9c0,2.9,1.7,5.1,4.6,5.1c2,0,3.3-1.3,4.1-2.8l2.2,1.2c-1.3,2.6-3.4,3.9-6.3,3.9
		c-4.9,0-7.2-3.3-7.2-8.4c0-4.7,2.7-7.8,7.1-7.8c4.7,0,6.6,3.4,6.6,7.6C173.5,1108.8,173.4,1109.3,173.4,1109.7z M166.8,1102.9
		c-2.8,0-4.2,2.3-4.2,4.6h8.2C170.8,1105,169.5,1102.9,166.8,1102.9z"/>
	<path class="st7" d="M209.9,1116.7h-2.8c-0.1-0.9-0.2-1.9-0.2-2.8c-1,2.2-2.7,3.2-5.2,3.2c-3.1,0-5.2-1.9-5.2-4.6
		c0-1.6,0.7-2.8,2.2-3.7c1-0.6,2.7-1,5.3-1.3l2.8-0.3v-0.3c0-2.8-1-4-3.3-4c-2.2,0-3.5,1.1-3.6,3.1h-2.8c0.3-3.3,2.7-5.2,6.6-5.2
		c4,0,5.8,2,5.8,6.4v4.2C209.3,1114,209.5,1115.6,209.9,1116.7z M203,1109.7c-2.7,0.4-3.8,1.1-3.8,2.7c0,1.6,1.1,2.5,2.9,2.5
		c2.8,0,4.6-1.9,4.6-5v-0.8L203,1109.7z"/>
	<path class="st7" d="M225.9,1100.9c1.1,0,2.1,0.1,2.8,0.3v2.4c-0.6-0.2-1.8-0.3-2.9-0.3c-3.7,0-6.7,2.5-6.7,7.6v5.8h-2.6v-15.5h2.6
		v4C220.2,1102.8,222.7,1100.9,225.9,1100.9z"/>
	<path class="st7" d="M246.5,1109.7h-10.9c0,2.9,1.7,5.1,4.6,5.1c2,0,3.3-1.3,4.1-2.8l2.2,1.2c-1.3,2.6-3.4,3.9-6.3,3.9
		c-4.9,0-7.2-3.3-7.2-8.4c0-4.7,2.7-7.8,7.1-7.8c4.7,0,6.6,3.4,6.6,7.6C246.5,1108.8,246.5,1109.3,246.5,1109.7z M239.8,1102.9
		c-2.8,0-4.2,2.3-4.2,4.6h8.2C243.9,1105,242.6,1102.9,239.8,1102.9z"/>
	<path class="st7" d="M282.7,1101.2v21.5h-2.6v-8.7c-0.8,1.8-2.7,3-4.8,3c-3.9,0-6.3-3.3-6.3-8.1c0-4.7,2.6-8.1,6.7-8.1
		c2,0,3.7,1.2,4.5,2.7l0.5-2.3H282.7z M275.8,1103.2c-2.6,0-4.1,2.3-4.1,5.8c0,3.5,1.6,5.8,4,5.8c2.8,0,4.4-2.1,4.4-5.4v-0.9
		C280.1,1105.3,278.4,1103.2,275.8,1103.2z"/>
	<path class="st7" d="M293.8,1117.1c-1.4,0-2.9-0.3-4-1.4c-1-1-1.4-2.4-1.4-4.9v-9.6h2.7v9.5c0,3.4,1.6,4.1,3.2,4.1
		c3.3,0,4-3.3,4-5.5v-8.1h2.6v15.5h-2.5v-2.9C297.9,1115.3,296.1,1117.1,293.8,1117.1z"/>
	<path class="st7" d="M307.4,1114.5h5v-11.2h-4.5v-2.2h7.1v13.3h5.2v2.2h-12.8V1114.5z M315.3,1098.1h-3.7v-3.7h3.7V1098.1z"/>
	<path class="st7" d="M324.5,1101.2h4.4v-4.1l2.6-1.1v5.2h6v2.1h-6v8c0,2.1,1,3.1,3,3.1c1,0,2.1-0.1,3.1-0.3v2.4
		c-0.8,0.2-1.7,0.4-3,0.4c-3.9,0-5.6-2.2-5.6-5.2v-8.4h-4.4V1101.2z"/>
	<path class="st7" d="M356.1,1109.7h-10.9c0,2.9,1.7,5.1,4.6,5.1c2,0,3.3-1.3,4.1-2.8l2.2,1.2c-1.3,2.6-3.4,3.9-6.3,3.9
		c-4.9,0-7.2-3.3-7.2-8.4c0-4.7,2.7-7.8,7.1-7.8c4.7,0,6.6,3.4,6.6,7.6C356.2,1108.8,356.1,1109.3,356.1,1109.7z M349.5,1102.9
		c-2.8,0-4.2,2.3-4.2,4.6h8.2C353.5,1105,352.3,1102.9,349.5,1102.9z"/>
	<path class="st7" d="M379.9,1111.9l2.7-0.5c0.4,2.3,1.9,3.4,4.2,3.4c2.1,0,3.2-0.9,3.2-2.3c0-1.5-0.8-2.2-2.5-2.4l-2.5-0.3
		c-3.1-0.3-4.5-2.1-4.5-4.5c0-2.8,2.2-4.6,5.9-4.6c3.5,0,5.9,1.9,6.3,4.7l-2.6,0.6c-0.3-1.9-1.6-3.2-3.7-3.2c-2,0-3.3,0.8-3.3,2.3
		c0,1.3,0.9,2.1,2.8,2.4l2.5,0.3c3.1,0.3,4.3,2,4.3,4.4c0,2.9-2.2,4.7-5.9,4.7C382.9,1117.1,380.5,1115.3,379.9,1111.9z"/>
	<path class="st7" d="M398.8,1114.5h5v-11.2h-4.5v-2.2h7.1v13.3h5.2v2.2h-12.8V1114.5z M406.6,1098.1h-3.7v-3.7h3.7V1098.1z"/>
	<path class="st7" d="M420.4,1100.9c1.5,0,2.7,1,3.2,2.8c0.7-1.8,2.1-2.8,3.7-2.8c1.9,0,3.7,1.3,3.7,4.6v11.2h-2.6v-11
		c0-2-0.9-2.5-1.8-2.5c-1.8,0-2.5,1.3-2.5,3.3v10.3h-2.6v-11c0-1.9-0.8-2.5-1.8-2.5c-1.8,0-2.4,1.4-2.4,3.3v10.3h-2.6v-15.5h2.5v2.4
		C417.6,1101.9,418.9,1100.9,420.4,1100.9z"/>
	<path class="st7" d="M435.3,1114.5h5v-11.2h-4.5v-2.2h7.1v13.3h5.2v2.2h-12.8V1114.5z M443.2,1098.1h-3.7v-3.7h3.7V1098.1z"/>
	<path class="st7" d="M463.8,1106.9v2.5h-9v-2.5H463.8z"/>
	<path class="st7" d="M33.3,1151.7h5v-18.1h-4.6v-2.2h7.3v20.3h5.2v2.2H33.3V1151.7z"/>
	<path class="st7" d="M63.7,1153.9h-2.8c-0.1-0.9-0.2-1.9-0.2-2.8c-1,2.2-2.7,3.2-5.2,3.2c-3.1,0-5.2-1.9-5.2-4.6
		c0-1.6,0.7-2.8,2.2-3.7c1-0.6,2.7-1,5.3-1.3l2.8-0.3v-0.3c0-2.8-1-4-3.3-4c-2.2,0-3.5,1.1-3.6,3.1h-2.8c0.3-3.3,2.7-5.2,6.6-5.2
		c4,0,5.8,2,5.8,6.4v4.2C63.2,1151.1,63.3,1152.7,63.7,1153.9z M56.8,1146.8c-2.7,0.4-3.8,1.1-3.8,2.7c0,1.6,1.1,2.5,2.9,2.5
		c2.8,0,4.6-1.9,4.6-5v-0.8L56.8,1146.8z"/>
	<path class="st7" d="M79.7,1138.1c1.1,0,2.1,0.1,2.8,0.3v2.4c-0.6-0.2-1.8-0.3-2.9-0.3c-3.7,0-6.7,2.5-6.7,7.6v5.8h-2.6v-15.5h2.6
		v4C74,1140,76.5,1138.1,79.7,1138.1z"/>
	<path class="st7" d="M113.2,1138c1.2,0,2.7,0.3,3.8,1.4c1,1,1.5,2.4,1.5,4.9v9.6h-2.6v-9.4c0-3.4-1.7-4.1-3.3-4.1
		c-3.4,0-4.2,3.3-4.2,5.5v8.1h-2.6v-22.5h2.6v9.8C109.1,1139.4,111,1138,113.2,1138z"/>
	<path class="st7" d="M136.8,1146.8H126c0,2.9,1.7,5.1,4.6,5.1c2,0,3.3-1.3,4.1-2.8l2.2,1.2c-1.3,2.6-3.4,3.9-6.3,3.9
		c-4.9,0-7.2-3.3-7.2-8.4c0-4.7,2.7-7.8,7.1-7.8c4.7,0,6.6,3.4,6.6,7.6C136.9,1146,136.9,1146.4,136.8,1146.8z M130.2,1140.1
		c-2.8,0-4.2,2.3-4.2,4.6h8.2C134.2,1142.2,133,1140.1,130.2,1140.1z"/>
	<path class="st7" d="M152.8,1138.1c1.1,0,2.1,0.1,2.8,0.3v2.4c-0.6-0.2-1.8-0.3-2.9-0.3c-3.7,0-6.7,2.5-6.7,7.6v5.8h-2.6v-15.5h2.6
		v4C147.1,1140,149.6,1138.1,152.8,1138.1z"/>
	<path class="st7" d="M173.4,1146.8h-10.9c0,2.9,1.7,5.1,4.6,5.1c2,0,3.3-1.3,4.1-2.8l2.2,1.2c-1.3,2.6-3.4,3.9-6.3,3.9
		c-4.9,0-7.2-3.3-7.2-8.4c0-4.7,2.7-7.8,7.1-7.8c4.7,0,6.6,3.4,6.6,7.6C173.5,1146,173.4,1146.4,173.4,1146.8z M166.8,1140.1
		c-2.8,0-4.2,2.3-4.2,4.6h8.2C170.8,1142.2,169.5,1140.1,166.8,1140.1z"/>
	<path class="st7" d="M197.8,1151.7h5v-11.2h-4.5v-2.2h7.1v13.3h5.2v2.2h-12.8V1151.7z M205.6,1135.3h-3.7v-3.7h3.7V1135.3z"/>
	<path class="st7" d="M222.9,1138c1.3,0,2.7,0.3,3.7,1.3c1,1,1.5,2.4,1.5,5v9.6h-2.6v-9.4c0-3.4-1.7-4.1-3.2-4.1
		c-3.5,0-4.3,3.3-4.3,5.5v8.1h-2.6v-15.5h2.5v3.1C218.6,1139.5,220.3,1138,222.9,1138z"/>
	<path class="st7" d="M265.7,1134.4h-10.6v7h9.8v2.5h-9.8v10h-2.9v-22h13.5V1134.4z"/>
	<path class="st7" d="M270.9,1151.7h5v-18.1h-4.6v-2.2h7.3v20.3h5.2v2.2h-12.8V1151.7z"/>
	<path class="st7" d="M301.2,1153.9h-2.8c-0.1-0.9-0.2-1.9-0.2-2.8c-1,2.2-2.7,3.2-5.2,3.2c-3.1,0-5.2-1.9-5.2-4.6
		c0-1.6,0.7-2.8,2.2-3.7c1-0.6,2.7-1,5.3-1.3l2.8-0.3v-0.3c0-2.8-1-4-3.3-4c-2.2,0-3.5,1.1-3.6,3.1h-2.8c0.3-3.3,2.7-5.2,6.6-5.2
		c4,0,5.8,2,5.8,6.4v4.2C300.7,1151.1,300.9,1152.7,301.2,1153.9z M294.4,1146.8c-2.7,0.4-3.8,1.1-3.8,2.7c0,1.6,1.1,2.5,2.9,2.5
		c2.8,0,4.6-1.9,4.6-5v-0.8L294.4,1146.8z"/>
	<path class="st7" d="M306.2,1138.4h4.4v-4.1l2.6-1.1v5.2h6v2.1h-6v8c0,2.1,1,3.1,3,3.1c1,0,2.1-0.1,3.1-0.3v2.4
		c-0.8,0.2-1.7,0.4-3,0.4c-3.9,0-5.6-2.2-5.6-5.2v-8.4h-4.4V1138.4z"/>
	<path class="st7" d="M341.5,1131.9h2.9l0.7,15.6c0.1,2.3,0.1,3.4,0.1,3.9h0.3c0-0.7,0.2-2,0.6-4.2l2.1-10h2.7l2.1,10
		c0.5,2.2,0.6,3.4,0.6,4.2h0.3c0-0.5,0-1.6,0.1-3.9l0.7-15.6h2.9l-1.7,22h-3.8l-2-9.4c-0.4-2-0.5-3.1-0.6-4.4h-0.3
		c-0.1,1.3-0.2,2.4-0.6,4.4l-2,9.4h-3.8L341.5,1131.9z"/>
	<path class="st7" d="M360.7,1146.1c0-4.9,2.9-8.1,7.2-8.1c4.3,0,7.2,3.2,7.2,8.1c0,4.9-2.9,8.1-7.2,8.1
		C363.6,1154.3,360.7,1151,360.7,1146.1z M372.4,1146.1c0-3.6-1.6-5.8-4.4-5.8c-2.8,0-4.4,2.2-4.4,5.8c0,3.7,1.6,5.8,4.4,5.8
		C370.7,1152,372.4,1149.8,372.4,1146.1z"/>
	<path class="st7" d="M390.4,1138.1c1.1,0,2.1,0.1,2.8,0.3v2.4c-0.6-0.2-1.8-0.3-2.9-0.3c-3.7,0-6.7,2.5-6.7,7.6v5.8h-2.6v-15.5h2.6
		v4C384.6,1140,387.1,1138.1,390.4,1138.1z"/>
	<path class="st7" d="M398.8,1151.7h5v-18.1h-4.6v-2.2h7.3v20.3h5.2v2.2h-12.8V1151.7z"/>
	<path class="st7" d="M428.7,1131.4v22.5h-2.5v-2.9c-0.9,2-2.4,3.3-4.9,3.3c-3.9,0-6.4-3.2-6.4-8.1c0-4.9,2.7-8.1,6.8-8.1
		c2.1,0,3.6,1.1,4.4,2.7v-9.3H428.7z M422,1140.3c-2.7,0-4.2,2.1-4.2,5.8c0,3.6,1.6,5.8,4.2,5.8c2.6,0,4.3-2.1,4.3-5.5v-0.7
		C426.2,1142.5,424.6,1140.3,422,1140.3z"/>
	<path class="st7" d="M439.1,1157c1.7-0.7,2.1-1.5,2.1-3.2H439v-4h4.1v4c0,2.4-0.7,3.6-3.1,4.6L439.1,1157z"/>
	<path class="st7" d="M32.2,1175.6h4.4v-4.1l2.6-1.1v5.2h6v2.1h-6v8c0,2.1,1,3.1,3,3.1c1,0,2.1-0.1,3.1-0.3v2.4
		c-0.8,0.2-1.7,0.4-3,0.4c-3.9,0-5.6-2.2-5.6-5.2v-8.4h-4.4V1175.6z"/>
	<path class="st7" d="M58.4,1175.2c1.2,0,2.7,0.3,3.8,1.4c1,1,1.5,2.4,1.5,4.9v9.6h-2.6v-9.4c0-3.4-1.7-4.1-3.3-4.1
		c-3.4,0-4.2,3.3-4.2,5.5v8.1h-2.6v-22.5h2.6v9.8C54.2,1176.5,56.2,1175.2,58.4,1175.2z"/>
	<path class="st7" d="M82,1184H71.2c0,2.9,1.7,5.1,4.6,5.1c2,0,3.3-1.3,4.1-2.8l2.2,1.2c-1.3,2.6-3.4,3.9-6.3,3.9
		c-4.9,0-7.2-3.3-7.2-8.4c0-4.7,2.7-7.8,7.1-7.8c4.7,0,6.6,3.4,6.6,7.6C82.1,1183.2,82.1,1183.6,82,1184z M75.4,1177.2
		c-2.8,0-4.2,2.3-4.2,4.6h8.2C79.4,1179.3,78.2,1177.2,75.4,1177.2z"/>
	<path class="st7" d="M87.5,1186.3l2.7-0.5c0.4,2.3,1.9,3.4,4.2,3.4c2.1,0,3.2-0.9,3.2-2.3c0-1.5-0.8-2.2-2.5-2.4l-2.5-0.3
		c-3.1-0.3-4.5-2.1-4.5-4.5c0-2.8,2.2-4.6,5.9-4.6c3.5,0,5.9,1.9,6.3,4.7l-2.6,0.6c-0.3-1.9-1.6-3.2-3.7-3.2c-2,0-3.3,0.8-3.3,2.3
		c0,1.3,0.9,2.1,2.8,2.4l2.5,0.3c3.1,0.3,4.3,2,4.3,4.4c0,2.9-2.2,4.7-5.9,4.7C90.5,1191.4,88.1,1189.6,87.5,1186.3z"/>
	<path class="st7" d="M118.6,1184h-10.9c0,2.9,1.7,5.1,4.6,5.1c2,0,3.3-1.3,4.1-2.8l2.2,1.2c-1.3,2.6-3.4,3.9-6.3,3.9
		c-4.9,0-7.2-3.3-7.2-8.4c0-4.7,2.7-7.8,7.1-7.8c4.7,0,6.6,3.4,6.6,7.6C118.6,1183.2,118.6,1183.6,118.6,1184z M111.9,1177.2
		c-2.8,0-4.2,2.3-4.2,4.6h8.2C116,1179.3,114.7,1177.2,111.9,1177.2z"/>
	<path class="st7" d="M142.9,1188.9h5v-18.1h-4.6v-2.2h7.3v20.3h5.2v2.2h-12.8V1188.9z"/>
	<path class="st7" d="M161.2,1188.9h5v-11.2h-4.5v-2.2h7.1v13.3h5.2v2.2h-12.8V1188.9z M169.1,1172.5h-3.7v-3.7h3.7V1172.5z"/>
	<path class="st7" d="M181.7,1178.3c0.8-1.8,2.7-3.1,4.8-3.1c4,0,6.4,3.4,6.4,8.1c0,4.8-2.4,8.1-6.5,8.1c-2.1,0-4-1.1-4.8-3
		l-0.5,2.7h-2v-22.5h2.6V1178.3z M185.8,1189.1c2.7,0,4.3-2.3,4.3-5.8c0-3.4-1.5-5.8-4.2-5.8c-2.6,0-4.2,2.1-4.2,5.4v0.8
		C181.7,1187,183.2,1189.1,185.8,1189.1z"/>
	<path class="st7" d="M207.6,1175.2c1.1,0,2.1,0.1,2.8,0.3v2.4c-0.6-0.2-1.8-0.3-2.9-0.3c-3.7,0-6.7,2.5-6.7,7.6v5.8h-2.6v-15.5h2.6
		v4C201.9,1177.1,204.4,1175.2,207.6,1175.2z"/>
	<path class="st7" d="M228.1,1191h-2.8c-0.1-0.9-0.2-1.9-0.2-2.8c-1,2.2-2.7,3.2-5.2,3.2c-3.1,0-5.2-1.9-5.2-4.6
		c0-1.6,0.7-2.8,2.2-3.7c1-0.6,2.7-1,5.3-1.3l2.8-0.3v-0.3c0-2.8-1-4-3.3-4c-2.2,0-3.5,1.1-3.6,3.1h-2.8c0.3-3.3,2.7-5.2,6.6-5.2
		c4,0,5.8,2,5.8,6.4v4.2C227.6,1188.3,227.8,1189.9,228.1,1191z M221.3,1184c-2.7,0.4-3.8,1.1-3.8,2.7c0,1.6,1.1,2.5,2.9,2.5
		c2.8,0,4.6-1.9,4.6-5v-0.8L221.3,1184z"/>
	<path class="st7" d="M244.2,1175.2c1.1,0,2.1,0.1,2.8,0.3v2.4c-0.6-0.2-1.8-0.3-2.9-0.3c-3.7,0-6.7,2.5-6.7,7.6v5.8h-2.6v-15.5h2.6
		v4C238.4,1177.1,241,1175.2,244.2,1175.2z"/>
	<path class="st7" d="M252.6,1188.9h5v-11.2H253v-2.2h7.1v13.3h5.2v2.2h-12.8V1188.9z M260.4,1172.5h-3.7v-3.7h3.7V1172.5z"/>
	<path class="st7" d="M283,1184h-10.9c0,2.9,1.7,5.1,4.6,5.1c2,0,3.3-1.3,4.1-2.8l2.2,1.2c-1.3,2.6-3.4,3.9-6.3,3.9
		c-4.9,0-7.2-3.3-7.2-8.4c0-4.7,2.7-7.8,7.1-7.8c4.7,0,6.6,3.4,6.6,7.6C283.1,1183.2,283.1,1183.6,283,1184z M276.4,1177.2
		c-2.8,0-4.2,2.3-4.2,4.6h8.2C280.4,1179.3,279.2,1177.2,276.4,1177.2z"/>
	<path class="st7" d="M288.5,1186.3l2.7-0.5c0.4,2.3,1.9,3.4,4.2,3.4c2.1,0,3.2-0.9,3.2-2.3c0-1.5-0.8-2.2-2.5-2.4l-2.5-0.3
		c-3.1-0.3-4.5-2.1-4.5-4.5c0-2.8,2.2-4.6,5.9-4.6c3.5,0,5.9,1.9,6.3,4.7l-2.6,0.6c-0.3-1.9-1.6-3.2-3.7-3.2c-2,0-3.3,0.8-3.3,2.3
		c0,1.3,0.9,2.1,2.8,2.4l2.5,0.3c3.1,0.3,4.3,2,4.3,4.4c0,2.9-2.2,4.7-5.9,4.7C291.5,1191.4,289.1,1189.6,288.5,1186.3z"/>
	<path class="st7" d="M329,1175.2c1.5,0,2.7,1,3.2,2.8c0.7-1.8,2.1-2.8,3.7-2.8c1.9,0,3.7,1.3,3.7,4.6v11.2h-2.6v-11
		c0-2-0.9-2.5-1.8-2.5c-1.8,0-2.5,1.3-2.5,3.3v10.3h-2.6v-11c0-1.9-0.8-2.5-1.8-2.5c-1.8,0-2.4,1.4-2.4,3.3v10.3h-2.6v-15.5h2.5v2.4
		C326.3,1176.3,327.5,1175.2,329,1175.2z"/>
	<path class="st7" d="M356.1,1191h-2.8c-0.1-0.9-0.2-1.9-0.2-2.8c-1,2.2-2.7,3.2-5.2,3.2c-3.1,0-5.2-1.9-5.2-4.6
		c0-1.6,0.7-2.8,2.2-3.7c1-0.6,2.7-1,5.3-1.3l2.8-0.3v-0.3c0-2.8-1-4-3.3-4c-2.2,0-3.5,1.1-3.6,3.1h-2.8c0.3-3.3,2.7-5.2,6.6-5.2
		c4,0,5.8,2,5.8,6.4v4.2C355.5,1188.3,355.7,1189.9,356.1,1191z M349.2,1184c-2.7,0.4-3.8,1.1-3.8,2.7c0,1.6,1.1,2.5,2.9,2.5
		c2.8,0,4.6-1.9,4.6-5v-0.8L349.2,1184z"/>
	<path class="st7" d="M367.4,1183.5l-2.8,2.8v4.7H362v-22.5h2.6v14.6l6.9-7.6h3.4l-5.7,6l6,9.5h-3.3L367.4,1183.5z"/>
	<path class="st7" d="M392.7,1184h-10.9c0,2.9,1.7,5.1,4.6,5.1c2,0,3.3-1.3,4.1-2.8l2.2,1.2c-1.3,2.6-3.4,3.9-6.3,3.9
		c-4.9,0-7.2-3.3-7.2-8.4c0-4.7,2.7-7.8,7.1-7.8c4.7,0,6.6,3.4,6.6,7.6C392.7,1183.2,392.7,1183.6,392.7,1184z M386,1177.2
		c-2.8,0-4.2,2.3-4.2,4.6h8.2C390.1,1179.3,388.8,1177.2,386,1177.2z"/>
	<path class="st7" d="M398.2,1186.3l2.7-0.5c0.4,2.3,1.9,3.4,4.2,3.4c2.1,0,3.2-0.9,3.2-2.3c0-1.5-0.8-2.2-2.5-2.4l-2.5-0.3
		c-3.1-0.3-4.5-2.1-4.5-4.5c0-2.8,2.2-4.6,5.9-4.6c3.5,0,5.9,1.9,6.3,4.7l-2.6,0.6c-0.3-1.9-1.6-3.2-3.7-3.2c-2,0-3.3,0.8-3.3,2.3
		c0,1.3,0.9,2.1,2.8,2.4l2.5,0.3c3.1,0.3,4.3,2,4.3,4.4c0,2.9-2.2,4.7-5.9,4.7C401.2,1191.4,398.7,1189.6,398.2,1186.3z"/>
	<path class="st7" d="M435.3,1188.9h5v-11.2h-4.5v-2.2h7.1v13.3h5.2v2.2h-12.8V1188.9z M443.2,1172.5h-3.7v-3.7h3.7V1172.5z"/>
	<path class="st7" d="M452.4,1175.6h4.4v-4.1l2.6-1.1v5.2h6v2.1h-6v8c0,2.1,1,3.1,3,3.1c1,0,2.1-0.1,3.1-0.3v2.4
		c-0.8,0.2-1.7,0.4-3,0.4c-3.9,0-5.6-2.2-5.6-5.2v-8.4h-4.4V1175.6z"/>
	<path class="st7" d="M45.5,1221.1H34.6c0,2.9,1.7,5.1,4.6,5.1c2,0,3.3-1.3,4.1-2.8l2.2,1.2c-1.3,2.6-3.4,3.9-6.3,3.9
		c-4.9,0-7.2-3.3-7.2-8.4c0-4.7,2.7-7.8,7.1-7.8c4.7,0,6.6,3.4,6.6,7.6C45.5,1220.3,45.5,1220.7,45.5,1221.1z M38.9,1214.4
		c-2.8,0-4.2,2.3-4.2,4.6h8.2C42.9,1216.5,41.6,1214.4,38.9,1214.4z"/>
	<path class="st7" d="M63.7,1228.2h-2.8c-0.1-0.9-0.2-1.9-0.2-2.8c-1,2.2-2.7,3.2-5.2,3.2c-3.1,0-5.2-1.9-5.2-4.6
		c0-1.6,0.7-2.8,2.2-3.7c1-0.6,2.7-1,5.3-1.3l2.8-0.3v-0.3c0-2.8-1-4-3.3-4c-2.2,0-3.5,1.1-3.6,3.1h-2.8c0.3-3.3,2.7-5.2,6.6-5.2
		c4,0,5.8,2,5.8,6.4v4.2C63.2,1225.5,63.3,1227.1,63.7,1228.2z M56.8,1221.2c-2.7,0.4-3.8,1.1-3.8,2.7c0,1.6,1.1,2.5,2.9,2.5
		c2.8,0,4.6-1.9,4.6-5v-0.8L56.8,1221.2z"/>
	<path class="st7" d="M69.3,1223.4l2.7-0.5c0.4,2.3,1.9,3.4,4.2,3.4c2.1,0,3.2-0.9,3.2-2.3c0-1.5-0.8-2.2-2.5-2.4l-2.5-0.3
		c-3.1-0.3-4.5-2.1-4.5-4.5c0-2.8,2.2-4.6,5.9-4.6c3.5,0,5.9,1.9,6.3,4.7l-2.6,0.6c-0.3-1.9-1.6-3.2-3.7-3.2c-2,0-3.3,0.8-3.3,2.3
		c0,1.3,0.9,2.1,2.8,2.4l2.5,0.3c3.1,0.3,4.3,2,4.3,4.4c0,2.9-2.2,4.7-5.9,4.7C72.3,1228.6,69.8,1226.8,69.3,1223.4z"/>
	<path class="st7" d="M88.1,1226h5v-11.2h-4.5v-2.2h7.1v13.3h5.2v2.2H88.1V1226z M96,1209.6h-3.7v-3.7H96V1209.6z"/>
	<path class="st7" d="M118.6,1221.1h-10.9c0,2.9,1.7,5.1,4.6,5.1c2,0,3.3-1.3,4.1-2.8l2.2,1.2c-1.3,2.6-3.4,3.9-6.3,3.9
		c-4.9,0-7.2-3.3-7.2-8.4c0-4.7,2.7-7.8,7.1-7.8c4.7,0,6.6,3.4,6.6,7.6C118.6,1220.3,118.6,1220.7,118.6,1221.1z M111.9,1214.4
		c-2.8,0-4.2,2.3-4.2,4.6h8.2C116,1216.5,114.7,1214.4,111.9,1214.4z"/>
	<path class="st7" d="M134.6,1212.4c1.1,0,2.1,0.1,2.8,0.3v2.4c-0.6-0.2-1.8-0.3-2.9-0.3c-3.7,0-6.7,2.5-6.7,7.6v5.8h-2.6v-15.5h2.6
		v4C128.8,1214.3,131.3,1212.4,134.6,1212.4z"/>
	<path class="st7" d="M173.4,1214.9h-5.9v13.4h-2.6v-13.4h-4.7v-2.1h4.7v-1.7c0-3.5,2-5.4,5.8-5.4c0.9,0,1.6,0.1,2.7,0.3v2.3
		c-0.7-0.1-1.5-0.2-2.7-0.2c-2.4,0-3.2,0.8-3.2,3.2v1.5h5.9V1214.9z"/>
	<path class="st7" d="M178,1220.5c0-4.9,2.9-8.1,7.2-8.1c4.3,0,7.2,3.2,7.2,8.1c0,4.9-2.9,8.1-7.2,8.1
		C180.9,1228.6,178,1225.3,178,1220.5z M189.6,1220.5c0-3.6-1.6-5.8-4.4-5.8c-2.8,0-4.4,2.2-4.4,5.8s1.6,5.8,4.4,5.8
		C188,1226.3,189.6,1224.1,189.6,1220.5z"/>
	<path class="st7" d="M207.6,1212.4c1.1,0,2.1,0.1,2.8,0.3v2.4c-0.6-0.2-1.8-0.3-2.9-0.3c-3.7,0-6.7,2.5-6.7,7.6v5.8h-2.6v-15.5h2.6
		v4C201.9,1214.3,204.4,1212.4,207.6,1212.4z"/>
	<path class="st7" d="M239,1228.6c-1.4,0-2.9-0.3-4-1.4c-1-1-1.4-2.4-1.4-4.9v-9.6h2.7v9.5c0,3.4,1.6,4.1,3.2,4.1c3.3,0,4-3.3,4-5.5
		v-8.1h2.6v15.5h-2.5v-2.9C243.1,1226.8,241.2,1228.6,239,1228.6z"/>
	<path class="st7" d="M252,1223.4l2.7-0.5c0.4,2.3,1.9,3.4,4.2,3.4c2.1,0,3.2-0.9,3.2-2.3c0-1.5-0.8-2.2-2.5-2.4l-2.5-0.3
		c-3.1-0.3-4.5-2.1-4.5-4.5c0-2.8,2.2-4.6,5.9-4.6c3.5,0,5.9,1.9,6.3,4.7l-2.6,0.6c-0.3-1.9-1.6-3.2-3.7-3.2c-2,0-3.3,0.8-3.3,2.3
		c0,1.3,0.9,2.1,2.8,2.4l2.5,0.3c3.1,0.3,4.3,2,4.3,4.4c0,2.9-2.2,4.7-5.9,4.7C255,1228.6,252.5,1226.8,252,1223.4z"/>
	<path class="st7" d="M288,1212.7h4.4v-4.1l2.6-1.1v5.2h6v2.1h-6v8c0,2.1,1,3.1,3,3.1c1,0,2.1-0.1,3.1-0.3v2.4
		c-0.8,0.2-1.7,0.4-3,0.4c-3.9,0-5.6-2.2-5.6-5.2v-8.4H288V1212.7z"/>
	<path class="st7" d="M305.9,1220.5c0-4.9,2.9-8.1,7.2-8.1c4.3,0,7.2,3.2,7.2,8.1c0,4.9-2.9,8.1-7.2,8.1
		C308.8,1228.6,305.9,1225.3,305.9,1220.5z M317.6,1220.5c0-3.6-1.6-5.8-4.4-5.8c-2.8,0-4.4,2.2-4.4,5.8s1.6,5.8,4.4,5.8
		C315.9,1226.3,317.6,1224.1,317.6,1220.5z"/>
	<path class="st7" d="M355.6,1205.8v22.5h-2.5v-2.9c-0.9,2-2.4,3.3-4.9,3.3c-3.9,0-6.4-3.2-6.4-8.1c0-4.9,2.7-8.1,6.8-8.1
		c2.1,0,3.6,1.1,4.4,2.7v-9.3H355.6z M348.9,1214.7c-2.7,0-4.2,2.1-4.2,5.8c0,3.6,1.6,5.8,4.2,5.8c2.6,0,4.3-2.1,4.3-5.5v-0.7
		C353.1,1216.8,351.5,1214.7,348.9,1214.7z"/>
	<path class="st7" d="M362.2,1226h5v-11.2h-4.5v-2.2h7.1v13.3h5.2v2.2h-12.8V1226z M370.1,1209.6h-3.7v-3.7h3.7V1209.6z"/>
	<path class="st7" d="M392.7,1214.9h-5.9v13.4h-2.6v-13.4h-4.7v-2.1h4.7v-1.7c0-3.5,2-5.4,5.8-5.4c0.9,0,1.6,0.1,2.7,0.3v2.3
		c-0.7-0.1-1.5-0.2-2.7-0.2c-2.4,0-3.2,0.8-3.2,3.2v1.5h5.9V1214.9z"/>
	<path class="st7" d="M411,1214.9h-5.9v13.4h-2.6v-13.4h-4.7v-2.1h4.7v-1.7c0-3.5,2-5.4,5.8-5.4c0.9,0,1.6,0.1,2.7,0.3v2.3
		c-0.7-0.1-1.5-0.2-2.7-0.2c-2.4,0-3.2,0.8-3.2,3.2v1.5h5.9V1214.9z"/>
	<path class="st7" d="M429.2,1221.1h-10.9c0,2.9,1.7,5.1,4.6,5.1c2,0,3.3-1.3,4.1-2.8l2.2,1.2c-1.3,2.6-3.4,3.9-6.3,3.9
		c-4.9,0-7.2-3.3-7.2-8.4c0-4.7,2.7-7.8,7.1-7.8c4.7,0,6.6,3.4,6.6,7.6C429.3,1220.3,429.2,1220.7,429.2,1221.1z M422.6,1214.4
		c-2.8,0-4.2,2.3-4.2,4.6h8.2C426.6,1216.5,425.4,1214.4,422.6,1214.4z"/>
	<path class="st7" d="M445.2,1212.4c1.1,0,2.1,0.1,2.8,0.3v2.4c-0.6-0.2-1.8-0.3-2.9-0.3c-3.7,0-6.7,2.5-6.7,7.6v5.8h-2.6v-15.5h2.6
		v4C439.4,1214.3,442,1212.4,445.2,1212.4z"/>
	<path class="st7" d="M463.8,1218.4v2.5h-9v-2.5H463.8z"/>
	<path class="st7" d="M45.5,1258.3H34.6c0,2.9,1.7,5.1,4.6,5.1c2,0,3.3-1.3,4.1-2.8l2.2,1.2c-1.3,2.6-3.4,3.9-6.3,3.9
		c-4.9,0-7.2-3.3-7.2-8.4c0-4.7,2.7-7.8,7.1-7.8c4.7,0,6.6,3.4,6.6,7.6C45.5,1257.5,45.5,1257.9,45.5,1258.3z M38.9,1251.6
		c-2.8,0-4.2,2.3-4.2,4.6h8.2C42.9,1253.7,41.6,1251.6,38.9,1251.6z"/>
	<path class="st7" d="M58.5,1249.5c1.3,0,2.7,0.3,3.7,1.3c1,1,1.5,2.4,1.5,5v9.6h-2.6v-9.4c0-3.4-1.7-4.1-3.2-4.1
		c-3.5,0-4.3,3.3-4.3,5.5v8.1h-2.6v-15.5h2.5v3.1C54.2,1251,55.9,1249.5,58.5,1249.5z"/>
	<path class="st7" d="M68.5,1257.5c0-4.6,2.4-8,7.2-8c3.4,0,5.9,2,6.3,5.5l-2.7,0.3c-0.3-2.3-1.6-3.6-3.8-3.6
		c-2.8,0-4.3,2.3-4.3,5.7c0,3.5,1.5,5.9,4.4,5.9c2.3,0,3.5-1.4,3.8-3.7l2.5,0.4c-0.5,3.2-2.5,5.6-6.3,5.6
		C70.9,1265.7,68.5,1262.2,68.5,1257.5z"/>
	<path class="st7" d="M88.1,1263.2h5v-11.2h-4.5v-2.2h7.1v13.3h5.2v2.2H88.1V1263.2z M96,1246.8h-3.7v-3.7H96V1246.8z"/>
	<path class="st7" d="M118.5,1265.4h-2.8c-0.1-0.9-0.2-1.9-0.2-2.8c-1,2.2-2.7,3.2-5.2,3.2c-3.1,0-5.2-1.9-5.2-4.6
		c0-1.6,0.7-2.8,2.2-3.7c1-0.6,2.7-1,5.3-1.3l2.8-0.3v-0.3c0-2.8-1-4-3.3-4c-2.2,0-3.5,1.1-3.6,3.1h-2.8c0.3-3.3,2.7-5.2,6.6-5.2
		c4,0,5.8,2,5.8,6.4v4.2C118,1262.6,118.1,1264.2,118.5,1265.4z M111.7,1258.3c-2.7,0.4-3.8,1.1-3.8,2.7c0,1.6,1.1,2.5,2.9,2.5
		c2.8,0,4.6-1.9,4.6-5v-0.8L111.7,1258.3z"/>
	<path class="st7" d="M123.5,1249.9h4.4v-4.1l2.6-1.1v5.2h6v2.1h-6v8c0,2.1,1,3.1,3,3.1c1,0,2.1-0.1,3.1-0.3v2.4
		c-0.8,0.2-1.7,0.4-3,0.4c-3.9,0-5.6-2.2-5.6-5.2v-8.4h-4.4V1249.9z"/>
	<path class="st7" d="M155.1,1258.3h-10.9c0,2.9,1.7,5.1,4.6,5.1c2,0,3.3-1.3,4.1-2.8l2.2,1.2c-1.3,2.6-3.4,3.9-6.3,3.9
		c-4.9,0-7.2-3.3-7.2-8.4c0-4.7,2.7-7.8,7.1-7.8c4.7,0,6.6,3.4,6.6,7.6C155.2,1257.5,155.1,1257.9,155.1,1258.3z M148.5,1251.6
		c-2.8,0-4.2,2.3-4.2,4.6h8.2C152.5,1253.7,151.3,1251.6,148.5,1251.6z"/>
	<path class="st7" d="M178,1257.6c0-4.9,2.9-8.1,7.2-8.1c4.3,0,7.2,3.2,7.2,8.1c0,4.9-2.9,8.1-7.2,8.1
		C180.9,1265.7,178,1262.5,178,1257.6z M189.6,1257.6c0-3.6-1.6-5.8-4.4-5.8c-2.8,0-4.4,2.2-4.4,5.8c0,3.7,1.6,5.8,4.4,5.8
		C188,1263.5,189.6,1261.3,189.6,1257.6z"/>
	<path class="st7" d="M202.4,1265.7c-1.4,0-2.9-0.3-4-1.4c-1-1-1.4-2.4-1.4-4.9v-9.6h2.7v9.5c0,3.4,1.6,4.1,3.2,4.1
		c3.3,0,4-3.3,4-5.5v-8.1h2.6v15.5h-2.5v-2.9C206.5,1264,204.7,1265.7,202.4,1265.7z"/>
	<path class="st7" d="M225.9,1249.6c1.1,0,2.1,0.1,2.8,0.3v2.4c-0.6-0.2-1.8-0.3-2.9-0.3c-3.7,0-6.7,2.5-6.7,7.6v5.8h-2.6v-15.5h2.6
		v4C220.2,1251.5,222.7,1249.6,225.9,1249.6z"/>
	<path class="st7" d="M233.7,1260.6l2.7-0.5c0.4,2.3,1.9,3.4,4.2,3.4c2.1,0,3.2-0.9,3.2-2.3c0-1.5-0.8-2.2-2.5-2.4l-2.5-0.3
		c-3.1-0.3-4.5-2.1-4.5-4.5c0-2.8,2.2-4.6,5.9-4.6c3.5,0,5.9,1.9,6.3,4.7l-2.6,0.6c-0.3-1.9-1.6-3.2-3.7-3.2c-2,0-3.3,0.8-3.3,2.3
		c0,1.3,0.9,2.1,2.8,2.4l2.5,0.3c3.1,0.3,4.3,2,4.3,4.4c0,2.9-2.2,4.7-5.9,4.7C236.7,1265.7,234.3,1263.9,233.7,1260.6z"/>
	<path class="st7" d="M264.8,1258.3h-10.9c0,2.9,1.7,5.1,4.6,5.1c2,0,3.3-1.3,4.1-2.8l2.2,1.2c-1.3,2.6-3.4,3.9-6.3,3.9
		c-4.9,0-7.2-3.3-7.2-8.4c0-4.7,2.7-7.8,7.1-7.8c4.7,0,6.6,3.4,6.6,7.6C264.8,1257.5,264.8,1257.9,264.8,1258.3z M258.1,1251.6
		c-2.8,0-4.2,2.3-4.2,4.6h8.2C262.1,1253.7,260.9,1251.6,258.1,1251.6z"/>
	<path class="st7" d="M270.9,1263.2h5v-18.1h-4.6v-2.2h7.3v20.3h5.2v2.2h-12.8V1263.2z"/>
	<path class="st7" d="M287.2,1249.9h2.8l4.1,10.6c0.3,0.8,0.6,1.5,0.8,2.2h0.1c0.2-0.7,0.4-1.4,0.7-2.2l4.2-10.6h2.7l-6.2,15.5h-2.8
		L287.2,1249.9z"/>
	<path class="st7" d="M319.6,1258.3h-10.9c0,2.9,1.7,5.1,4.6,5.1c2,0,3.3-1.3,4.1-2.8l2.2,1.2c-1.3,2.6-3.4,3.9-6.3,3.9
		c-4.9,0-7.2-3.3-7.2-8.4c0-4.7,2.7-7.8,7.1-7.8c4.7,0,6.6,3.4,6.6,7.6C319.6,1257.5,319.6,1257.9,319.6,1258.3z M312.9,1251.6
		c-2.8,0-4.2,2.3-4.2,4.6h8.2C317,1253.7,315.7,1251.6,312.9,1251.6z"/>
	<path class="st7" d="M325.1,1260.6l2.7-0.5c0.4,2.3,1.9,3.4,4.2,3.4c2.1,0,3.2-0.9,3.2-2.3c0-1.5-0.8-2.2-2.5-2.4l-2.5-0.3
		c-3.1-0.3-4.5-2.1-4.5-4.5c0-2.8,2.2-4.6,5.9-4.6c3.5,0,5.9,1.9,6.3,4.7l-2.6,0.6c-0.3-1.9-1.6-3.2-3.7-3.2c-2,0-3.3,0.8-3.3,2.3
		c0,1.3,0.9,2.1,2.8,2.4l2.5,0.3c3.1,0.3,4.3,2,4.3,4.4c0,2.9-2.2,4.7-5.9,4.7C328.1,1265.7,325.6,1263.9,325.1,1260.6z"/>
	<path class="st7" d="M351.7,1265.4h-4.1v-4h4.1V1265.4z"/>
</g>
<g>
	<path class="st7" d="M31,1413.2v-2c0-6.5,2.7-10.5,8-10.5c5.4,0,8,4,8,10.5v2c0,6.5-2.7,10.5-8,10.5
		C33.7,1423.8,31,1419.8,31,1413.2z M44.1,1413.2v-2c0-5.5-1.6-8.1-5-8.1c-3.4,0-5,2.5-5,8.1v2c0,5.5,1.6,8.1,5,8.1
		C42.5,1421.3,44.1,1418.7,44.1,1413.2z"/>
	<path class="st7" d="M56.2,1423.6c-1.4,0-2.9-0.3-4-1.4c-1-1-1.4-2.4-1.4-4.9v-9.6h2.7v9.5c0,3.4,1.6,4.1,3.2,4.1
		c3.3,0,4-3.3,4-5.5v-8.1h2.6v15.5h-2.5v-2.9C60.3,1421.8,58.5,1423.6,56.2,1423.6z"/>
	<path class="st7" d="M79.7,1407.4c1.1,0,2.1,0.1,2.8,0.3v2.4c-0.6-0.2-1.8-0.3-2.9-0.3c-3.7,0-6.7,2.5-6.7,7.6v5.8h-2.6v-15.5h2.6
		v4C74,1409.3,76.5,1407.4,79.7,1407.4z"/>
	<path class="st7" d="M118.6,1409.9h-5.9v13.4h-2.6v-13.4h-4.7v-2.1h4.7v-1.7c0-3.5,2-5.4,5.8-5.4c0.9,0,1.6,0.1,2.7,0.3v2.3
		c-0.7-0.1-1.5-0.2-2.7-0.2c-2.4,0-3.2,0.8-3.2,3.2v1.5h5.9V1409.9z M125.6,1421.1h5v-11.2h-4.5v-2.2h7.1v13.3h5.2v2.2h-12.8V1421.1
		z M133.5,1404.6h-3.7v-3.7h3.7V1404.6z"/>
	<path class="st7" d="M150.8,1407.4c1.3,0,2.7,0.3,3.7,1.3c1,1,1.5,2.4,1.5,5v9.6h-2.6v-9.4c0-3.4-1.7-4.1-3.2-4.1
		c-3.5,0-4.3,3.3-4.3,5.5v8.1h-2.6v-15.5h2.5v3.1C146.5,1408.9,148.2,1407.4,150.8,1407.4z"/>
	<path class="st7" d="M174.3,1416.2h-10.9c0,2.9,1.7,5.1,4.6,5.1c2,0,3.3-1.3,4.1-2.8l2.2,1.2c-1.3,2.6-3.4,3.9-6.3,3.9
		c-4.9,0-7.2-3.3-7.2-8.4c0-4.7,2.7-7.8,7.1-7.8c4.7,0,6.6,3.4,6.6,7.6C174.4,1415.4,174.3,1415.8,174.3,1416.2z M167.7,1409.4
		c-2.8,0-4.2,2.3-4.2,4.6h8.2C171.7,1411.5,170.5,1409.4,167.7,1409.4z"/>
	<path class="st7" d="M198.1,1418.5l2.7-0.5c0.4,2.3,1.9,3.4,4.2,3.4c2.1,0,3.2-0.9,3.2-2.3c0-1.5-0.8-2.2-2.5-2.4l-2.5-0.3
		c-3.1-0.3-4.5-2.1-4.5-4.5c0-2.8,2.2-4.6,5.9-4.6c3.5,0,5.9,1.9,6.3,4.7l-2.6,0.6c-0.3-1.9-1.6-3.2-3.7-3.2c-2,0-3.3,0.8-3.3,2.3
		c0,1.3,0.9,2.1,2.8,2.4l2.5,0.3c3.1,0.3,4.3,2,4.3,4.4c0,2.9-2.2,4.7-5.9,4.7C201.1,1423.6,198.7,1421.8,198.1,1418.5z"/>
	<path class="st7" d="M229.1,1416.2h-10.9c0,2.9,1.7,5.1,4.6,5.1c2,0,3.3-1.3,4.1-2.8l2.2,1.2c-1.3,2.6-3.4,3.9-6.3,3.9
		c-4.9,0-7.2-3.3-7.2-8.4c0-4.7,2.7-7.8,7.1-7.8c4.7,0,6.6,3.4,6.6,7.6C229.2,1415.4,229.2,1415.8,229.1,1416.2z M222.5,1409.4
		c-2.8,0-4.2,2.3-4.2,4.6h8.2C226.5,1411.5,225.3,1409.4,222.5,1409.4z"/>
	<path class="st7" d="M235.2,1421.1h5v-18.1h-4.6v-2.2h7.3v20.3h5.2v2.2h-12.8V1421.1z"/>
	<path class="st7" d="M265.7,1416.2h-10.9c0,2.9,1.7,5.1,4.6,5.1c2,0,3.3-1.3,4.1-2.8l2.2,1.2c-1.3,2.6-3.4,3.9-6.3,3.9
		c-4.9,0-7.2-3.3-7.2-8.4c0-4.7,2.7-7.8,7.1-7.8c4.7,0,6.6,3.4,6.6,7.6C265.7,1415.4,265.7,1415.8,265.7,1416.2z M259.1,1409.4
		c-2.8,0-4.2,2.3-4.2,4.6h8.2C263.1,1411.5,261.8,1409.4,259.1,1409.4z"/>
	<path class="st7" d="M270.4,1415.4c0-4.6,2.4-8,7.2-8c3.4,0,5.9,2,6.3,5.5l-2.7,0.3c-0.3-2.3-1.6-3.6-3.8-3.6
		c-2.8,0-4.3,2.3-4.3,5.7c0,3.5,1.5,5.9,4.4,5.9c2.3,0,3.5-1.4,3.8-3.7l2.5,0.4c-0.5,3.2-2.5,5.6-6.3,5.6
		C272.8,1423.6,270.4,1420,270.4,1415.4z"/>
	<path class="st7" d="M288.9,1407.7h4.4v-4.1l2.6-1.1v5.2h6v2.1h-6v8c0,2.1,1,3.1,3,3.1c1,0,2.1-0.1,3.1-0.3v2.4
		c-0.8,0.2-1.7,0.4-3,0.4c-3.9,0-5.6-2.2-5.6-5.2v-8.4h-4.4V1407.7z"/>
	<path class="st7" d="M308.3,1421.1h5v-11.2h-4.5v-2.2h7.1v13.3h5.2v2.2h-12.8V1421.1z M316.2,1404.6h-3.7v-3.7h3.7V1404.6z"/>
	<path class="st7" d="M325.1,1415.5c0-4.9,2.9-8.1,7.2-8.1c4.3,0,7.2,3.2,7.2,8.1c0,4.9-2.9,8.1-7.2,8.1
		C328,1423.6,325.1,1420.4,325.1,1415.5z M336.8,1415.5c0-3.6-1.6-5.8-4.4-5.8c-2.8,0-4.4,2.2-4.4,5.8s1.6,5.8,4.4,5.8
		C335.1,1421.3,336.8,1419.1,336.8,1415.5z"/>
	<path class="st7" d="M351.8,1407.4c1.3,0,2.7,0.3,3.7,1.3c1,1,1.5,2.4,1.5,5v9.6h-2.6v-9.4c0-3.4-1.7-4.1-3.2-4.1
		c-3.5,0-4.3,3.3-4.3,5.5v8.1h-2.6v-15.5h2.5v3.1C347.5,1408.9,349.2,1407.4,351.8,1407.4z"/>
	<path class="st7" d="M31.9,1452.6c0-4.6,2.4-8,7.2-8c3.4,0,5.9,2,6.3,5.5l-2.7,0.3c-0.3-2.3-1.6-3.6-3.8-3.6
		c-2.8,0-4.3,2.3-4.3,5.7c0,3.5,1.5,5.9,4.4,5.9c2.3,0,3.5-1.4,3.8-3.7l2.5,0.4c-0.5,3.2-2.5,5.6-6.3,5.6
		C34.3,1460.8,31.9,1457.2,31.9,1452.6z"/>
	<path class="st7" d="M50.1,1452.7c0-4.9,2.9-8.1,7.2-8.1c4.3,0,7.2,3.2,7.2,8.1c0,4.9-2.9,8.1-7.2,8.1
		C53,1460.8,50.1,1457.5,50.1,1452.7z M61.7,1452.7c0-3.6-1.6-5.8-4.4-5.8c-2.8,0-4.4,2.2-4.4,5.8c0,3.7,1.6,5.8,4.4,5.8
		C60.1,1458.5,61.7,1456.3,61.7,1452.7z"/>
	<path class="st7" d="M67.9,1444.9h2.8l4.1,10.6c0.3,0.8,0.6,1.5,0.8,2.2h0.1c0.2-0.7,0.4-1.4,0.7-2.2l4.2-10.6h2.7l-6.2,15.5h-2.8
		L67.9,1444.9z"/>
	<path class="st7" d="M100.3,1453.3H89.4c0,2.9,1.7,5.1,4.6,5.1c2,0,3.3-1.3,4.1-2.8l2.2,1.2c-1.3,2.6-3.4,3.9-6.3,3.9
		c-4.9,0-7.2-3.3-7.2-8.4c0-4.7,2.7-7.8,7.1-7.8c4.7,0,6.6,3.4,6.6,7.6C100.4,1452.5,100.3,1452.9,100.3,1453.3z M93.7,1446.6
		c-2.8,0-4.2,2.3-4.2,4.6h8.2C97.7,1448.7,96.5,1446.6,93.7,1446.6z"/>
	<path class="st7" d="M116.3,1444.6c1.1,0,2.1,0.1,2.8,0.3v2.4c-0.6-0.2-1.8-0.3-2.9-0.3c-3.7,0-6.7,2.5-6.7,7.6v5.8h-2.6v-15.5h2.6
		v4C110.5,1446.5,113.1,1444.6,116.3,1444.6z"/>
	<path class="st7" d="M124.1,1455.6l2.7-0.5c0.4,2.3,1.9,3.4,4.2,3.4c2.1,0,3.2-0.9,3.2-2.3c0-1.5-0.8-2.2-2.5-2.4l-2.5-0.3
		c-3.1-0.3-4.5-2.1-4.5-4.5c0-2.8,2.2-4.6,5.9-4.6c3.5,0,5.9,1.9,6.3,4.7l-2.6,0.6c-0.3-1.9-1.6-3.2-3.7-3.2c-2,0-3.3,0.8-3.3,2.3
		c0,1.3,0.9,2.1,2.8,2.4l2.5,0.3c3.1,0.3,4.3,2,4.3,4.4c0,2.9-2.2,4.7-5.9,4.7C127.1,1460.8,124.6,1458.9,124.1,1455.6z"/>
	<path class="st7" d="M173.4,1453.3h-10.9c0,2.9,1.7,5.1,4.6,5.1c2,0,3.3-1.3,4.1-2.8l2.2,1.2c-1.3,2.6-3.4,3.9-6.3,3.9
		c-4.9,0-7.2-3.3-7.2-8.4c0-4.7,2.7-7.8,7.1-7.8c4.7,0,6.6,3.4,6.6,7.6C173.5,1452.5,173.4,1452.9,173.4,1453.3z M166.8,1446.6
		c-2.8,0-4.2,2.3-4.2,4.6h8.2C170.8,1448.7,169.5,1446.6,166.8,1446.6z"/>
	<path class="st7" d="M177.6,1444.9h2.8l4.1,10.6c0.3,0.8,0.6,1.5,0.8,2.2h0.1c0.2-0.7,0.4-1.4,0.7-2.2l4.2-10.6h2.7l-6.2,15.5h-2.8
		L177.6,1444.9z"/>
	<path class="st7" d="M209.9,1453.3h-10.9c0,2.9,1.7,5.1,4.6,5.1c2,0,3.3-1.3,4.1-2.8l2.2,1.2c-1.3,2.6-3.4,3.9-6.3,3.9
		c-4.9,0-7.2-3.3-7.2-8.4c0-4.7,2.7-7.8,7.1-7.8c4.7,0,6.6,3.4,6.6,7.6C210,1452.5,210,1452.9,209.9,1453.3z M203.3,1446.6
		c-2.8,0-4.2,2.3-4.2,4.6h8.2C207.3,1448.7,206.1,1446.6,203.3,1446.6z"/>
	<path class="st7" d="M225.9,1444.6c1.1,0,2.1,0.1,2.8,0.3v2.4c-0.6-0.2-1.8-0.3-2.9-0.3c-3.7,0-6.7,2.5-6.7,7.6v5.8h-2.6v-15.5h2.6
		v4C220.2,1446.5,222.7,1444.6,225.9,1444.6z"/>
	<path class="st7" d="M240.3,1457.3l4.3-12.4h2.8l-6.2,16.5c-1.4,3.9-3.3,5.2-5.9,5.2c-0.5,0-0.9,0-1.4-0.1v-2.3
		c0.4,0,0.8,0.1,1.1,0.1c1.9,0,2.8-0.8,3.6-2.9l0.4-1.1l-6-15.3h3L240.3,1457.3z"/>
	<path class="st7" d="M251.4,1444.9h4.4v-4.1l2.6-1.1v5.2h6v2.1h-6v8c0,2.1,1,3.1,3,3.1c1,0,2.1-0.1,3.1-0.3v2.4
		c-0.8,0.2-1.7,0.4-3,0.4c-3.9,0-5.6-2.2-5.6-5.2v-8.4h-4.4V1444.9z"/>
	<path class="st7" d="M277.7,1444.5c1.2,0,2.7,0.3,3.8,1.4c1,1,1.5,2.4,1.5,4.9v9.6h-2.6v-9.4c0-3.4-1.7-4.1-3.3-4.1
		c-3.4,0-4.2,3.3-4.2,5.5v8.1h-2.6v-22.5h2.6v9.8C273.5,1445.9,275.4,1444.5,277.7,1444.5z"/>
	<path class="st7" d="M289.1,1458.2h5v-11.2h-4.5v-2.2h7.1v13.3h5.2v2.2h-12.8V1458.2z M297,1441.8h-3.7v-3.7h3.7V1441.8z"/>
	<path class="st7" d="M314.3,1444.5c1.3,0,2.7,0.3,3.7,1.3c1,1,1.5,2.4,1.5,5v9.6h-2.6v-9.4c0-3.4-1.7-4.1-3.2-4.1
		c-3.5,0-4.3,3.3-4.3,5.5v8.1h-2.6v-15.5h2.5v3.1C310,1446,311.7,1444.5,314.3,1444.5z"/>
	<path class="st7" d="M335.7,1446.1c0.9,0.9,1.4,2.1,1.4,3.6c0,3.2-2.4,5.3-5.8,5.3c-1.1,0-2.1-0.2-2.9-0.6
		c-0.7,0.3-1.1,0.8-1.1,1.5c0,1,0.8,1.5,2.6,1.5h4c3.2,0,5,1.6,5,4.2c0,3.3-2.8,5.1-7.7,5.1c-4.4,0-7-1.5-7-3.9
		c0-1.7,1.1-2.9,2.7-3.5c-1.3-0.5-2-1.5-2-2.8c0-1.4,0.8-2.5,2.2-3c-1-0.9-1.5-2.2-1.5-3.7c0-3.2,2.3-5.4,5.8-5.4
		c1.1,0,2.1,0.2,3,0.7c0.6-1.8,1.8-2.8,3.7-2.8c0.3,0,0.7,0,1,0.1v2.3c-0.5-0.1-0.7-0.1-1.1-0.1
		C336.9,1444.7,336.1,1445.1,335.7,1446.1z M329.8,1459.8c-0.5,0-0.9,0-1.3-0.1c-1,0.5-1.6,1.3-1.6,2.4c0,1.6,1.5,2.5,4.7,2.5
		c3.3,0,4.7-0.9,4.7-2.6c0-1.4-1-2.2-3-2.2H329.8z M334.6,1449.7c0-1.9-1.3-3.2-3.2-3.2c-1.9,0-3.3,1.4-3.3,3.3
		c0,1.9,1.3,3.2,3.2,3.2C333.2,1453,334.6,1451.6,334.6,1449.7z"/>
	<path class="st7" d="M374.4,1447h-5.9v13.4h-2.6V1447h-4.7v-2.1h4.7v-1.7c0-3.5,2-5.4,5.8-5.4c0.9,0,1.6,0.1,2.7,0.3v2.3
		c-0.7-0.1-1.5-0.2-2.7-0.2c-2.4,0-3.2,0.8-3.2,3.2v1.5h5.9V1447z"/>
	<path class="st7" d="M390.4,1444.6c1.1,0,2.1,0.1,2.8,0.3v2.4c-0.6-0.2-1.8-0.3-2.9-0.3c-3.7,0-6.7,2.5-6.7,7.6v5.8h-2.6v-15.5h2.6
		v4C384.6,1446.5,387.1,1444.6,390.4,1444.6z"/>
	<path class="st7" d="M397.3,1452.7c0-4.9,2.9-8.1,7.2-8.1c4.3,0,7.2,3.2,7.2,8.1c0,4.9-2.9,8.1-7.2,8.1
		C400.2,1460.8,397.3,1457.5,397.3,1452.7z M408.9,1452.7c0-3.6-1.6-5.8-4.4-5.8c-2.8,0-4.4,2.2-4.4,5.8c0,3.7,1.6,5.8,4.4,5.8
		C407.3,1458.5,408.9,1456.3,408.9,1452.7z"/>
	<path class="st7" d="M420.4,1444.5c1.5,0,2.7,1,3.2,2.8c0.7-1.8,2.1-2.8,3.7-2.8c1.9,0,3.7,1.3,3.7,4.6v11.2h-2.6v-11
		c0-2-0.9-2.5-1.8-2.5c-1.8,0-2.5,1.3-2.5,3.3v10.3h-2.6v-11c0-1.9-0.8-2.5-1.8-2.5c-1.8,0-2.4,1.4-2.4,3.3v10.3h-2.6v-15.5h2.5v2.4
		C417.6,1445.6,418.9,1444.5,420.4,1444.5z"/>
	<path class="st7" d="M43.3,1483.3c0.9,0.9,1.4,2.1,1.4,3.6c0,3.2-2.4,5.3-5.8,5.3c-1.1,0-2.1-0.2-2.9-0.6c-0.7,0.3-1.1,0.8-1.1,1.5
		c0,1,0.8,1.5,2.6,1.5h4c3.2,0,5,1.6,5,4.2c0,3.3-2.8,5.1-7.7,5.1c-4.4,0-7-1.5-7-3.9c0-1.7,1.1-2.9,2.7-3.5c-1.3-0.5-2-1.5-2-2.8
		c0-1.4,0.8-2.5,2.2-3c-1-0.9-1.5-2.2-1.5-3.7c0-3.2,2.3-5.4,5.8-5.4c1.1,0,2.1,0.2,3,0.7c0.6-1.8,1.8-2.8,3.7-2.8
		c0.3,0,0.7,0,1,0.1v2.3c-0.5-0.1-0.7-0.1-1.1-0.1C44.5,1481.8,43.8,1482.3,43.3,1483.3z M37.4,1497c-0.5,0-0.9,0-1.3-0.1
		c-1,0.5-1.6,1.3-1.6,2.4c0,1.6,1.5,2.5,4.7,2.5c3.3,0,4.7-0.9,4.7-2.6c0-1.4-1-2.2-3-2.2H37.4z M42.3,1486.9c0-1.9-1.3-3.2-3.2-3.2
		c-1.9,0-3.3,1.4-3.3,3.3c0,1.9,1.3,3.2,3.2,3.2C40.9,1490.2,42.3,1488.8,42.3,1486.9z"/>
	<path class="st7" d="M63.8,1490.5H52.9c0,2.9,1.7,5.1,4.6,5.1c2,0,3.3-1.3,4.1-2.8l2.2,1.2c-1.3,2.6-3.4,3.9-6.3,3.9
		c-4.9,0-7.2-3.3-7.2-8.4c0-4.7,2.7-7.8,7.1-7.8c4.7,0,6.6,3.4,6.6,7.6C63.8,1489.7,63.8,1490.1,63.8,1490.5z M57.1,1483.7
		c-2.8,0-4.2,2.3-4.2,4.6h8.2C61.2,1485.9,59.9,1483.7,57.1,1483.7z"/>
	<path class="st7" d="M76.8,1481.7c1.3,0,2.7,0.3,3.7,1.3c1,1,1.5,2.4,1.5,5v9.6h-2.6v-9.4c0-3.4-1.7-4.1-3.2-4.1
		c-3.5,0-4.3,3.3-4.3,5.5v8.1h-2.6v-15.5h2.5v3.1C72.5,1483.2,74.2,1481.7,76.8,1481.7z"/>
	<path class="st7" d="M99.8,1475.1v22.5h-2.5v-2.9c-0.9,2-2.4,3.3-4.9,3.3c-3.9,0-6.4-3.2-6.4-8.1c0-4.9,2.7-8.1,6.8-8.1
		c2.1,0,3.6,1.1,4.4,2.7v-9.3H99.8z M93.1,1484c-2.7,0-4.2,2.1-4.2,5.8c0,3.6,1.6,5.8,4.2,5.8c2.6,0,4.3-2.1,4.3-5.5v-0.7
		C97.3,1486.1,95.7,1484,93.1,1484z"/>
	<path class="st7" d="M118.6,1490.5h-10.9c0,2.9,1.7,5.1,4.6,5.1c2,0,3.3-1.3,4.1-2.8l2.2,1.2c-1.3,2.6-3.4,3.9-6.3,3.9
		c-4.9,0-7.2-3.3-7.2-8.4c0-4.7,2.7-7.8,7.1-7.8c4.7,0,6.6,3.4,6.6,7.6C118.6,1489.7,118.6,1490.1,118.6,1490.5z M111.9,1483.7
		c-2.8,0-4.2,2.3-4.2,4.6h8.2C116,1485.9,114.7,1483.7,111.9,1483.7z"/>
	<path class="st7" d="M134.6,1481.8c1.1,0,2.1,0.1,2.8,0.3v2.4c-0.6-0.2-1.8-0.3-2.9-0.3c-3.7,0-6.7,2.5-6.7,7.6v5.8h-2.6v-15.5h2.6
		v4C128.8,1483.7,131.3,1481.8,134.6,1481.8z"/>
	<path class="st7" d="M168.1,1481.7c1.3,0,2.7,0.3,3.7,1.3c1,1,1.5,2.4,1.5,5v9.6h-2.6v-9.4c0-3.4-1.7-4.1-3.2-4.1
		c-3.5,0-4.3,3.3-4.3,5.5v8.1h-2.6v-15.5h2.5v3.1C163.8,1483.2,165.5,1481.7,168.1,1481.7z"/>
	<path class="st7" d="M191.7,1490.5h-10.9c0,2.9,1.7,5.1,4.6,5.1c2,0,3.3-1.3,4.1-2.8l2.2,1.2c-1.3,2.6-3.4,3.9-6.3,3.9
		c-4.9,0-7.2-3.3-7.2-8.4c0-4.7,2.7-7.8,7.1-7.8c4.7,0,6.6,3.4,6.6,7.6C191.7,1489.7,191.7,1490.1,191.7,1490.5z M185,1483.7
		c-2.8,0-4.2,2.3-4.2,4.6h8.2C189.1,1485.9,187.8,1483.7,185,1483.7z"/>
	<path class="st7" d="M202.4,1497.9c-1.4,0-2.9-0.3-4-1.4c-1-1-1.4-2.4-1.4-4.9v-9.6h2.7v9.5c0,3.4,1.6,4.1,3.2,4.1
		c3.3,0,4-3.3,4-5.5v-8.1h2.6v15.5h-2.5v-2.9C206.5,1496.2,204.7,1497.9,202.4,1497.9z"/>
	<path class="st7" d="M214.9,1482.1h4.4v-4.1l2.6-1.1v5.2h6v2.1h-6v8c0,2.1,1,3.1,3,3.1c1,0,2.1-0.1,3.1-0.3v2.4
		c-0.8,0.2-1.7,0.4-3,0.4c-3.9,0-5.6-2.2-5.6-5.2v-8.4h-4.4V1482.1z"/>
	<path class="st7" d="M244.2,1481.8c1.1,0,2.1,0.1,2.8,0.3v2.4c-0.6-0.2-1.8-0.3-2.9-0.3c-3.7,0-6.7,2.5-6.7,7.6v5.8h-2.6v-15.5h2.6
		v4C238.4,1483.7,241,1481.8,244.2,1481.8z"/>
	<path class="st7" d="M264.7,1497.6h-2.8c-0.1-0.9-0.2-1.9-0.2-2.8c-1,2.2-2.7,3.2-5.2,3.2c-3.1,0-5.2-1.9-5.2-4.6
		c0-1.6,0.7-2.8,2.2-3.7c1-0.6,2.7-1,5.3-1.3l2.8-0.3v-0.3c0-2.8-1-4-3.3-4c-2.2,0-3.5,1.1-3.6,3.1h-2.8c0.3-3.3,2.7-5.2,6.6-5.2
		c4,0,5.8,2,5.8,6.4v4.2C264.2,1494.8,264.3,1496.4,264.7,1497.6z M257.8,1490.5c-2.7,0.4-3.8,1.1-3.8,2.7c0,1.6,1.1,2.5,2.9,2.5
		c2.8,0,4.6-1.9,4.6-5v-0.8L257.8,1490.5z"/>
	<path class="st7" d="M270.9,1495.4h5v-18.1h-4.6v-2.2h7.3v20.3h5.2v2.2h-12.8V1495.4z"/>
	<path class="st7" d="M306,1489.7c0-4.6,2.4-8,7.2-8c3.4,0,5.9,2,6.3,5.5l-2.7,0.3c-0.3-2.3-1.6-3.6-3.8-3.6c-2.8,0-4.3,2.3-4.3,5.7
		c0,3.5,1.5,5.9,4.4,5.9c2.3,0,3.5-1.4,3.8-3.7l2.5,0.4c-0.5,3.2-2.5,5.6-6.3,5.6C308.4,1497.9,306,1494.4,306,1489.7z"/>
	<path class="st7" d="M325.7,1495.4h5v-18.1H326v-2.2h7.3v20.3h5.2v2.2h-12.8V1495.4z"/>
	<path class="st7" d="M342.5,1489.8c0-4.9,2.9-8.1,7.2-8.1c4.3,0,7.2,3.2,7.2,8.1c0,4.9-2.9,8.1-7.2,8.1
		C345.3,1497.9,342.5,1494.7,342.5,1489.8z M354.1,1489.8c0-3.6-1.6-5.8-4.4-5.8c-2.8,0-4.4,2.2-4.4,5.8c0,3.7,1.6,5.8,4.4,5.8
		C352.5,1495.6,354.1,1493.5,354.1,1489.8z"/>
	<path class="st7" d="M361.1,1482.1h4.4v-4.1l2.6-1.1v5.2h6v2.1h-6v8c0,2.1,1,3.1,3,3.1c1,0,2.1-0.1,3.1-0.3v2.4
		c-0.8,0.2-1.7,0.4-3,0.4c-3.9,0-5.6-2.2-5.6-5.2v-8.4h-4.4V1482.1z"/>
	<path class="st7" d="M387.3,1481.7c1.2,0,2.7,0.3,3.8,1.4c1,1,1.5,2.4,1.5,4.9v9.6H390v-9.4c0-3.4-1.7-4.1-3.3-4.1
		c-3.4,0-4.2,3.3-4.2,5.5v8.1h-2.6v-22.5h2.6v9.8C383.1,1483,385.1,1481.7,387.3,1481.7z"/>
	<path class="st7" d="M398.8,1495.4h5v-11.2h-4.5v-2.2h7.1v13.3h5.2v2.2h-12.8V1495.4z M406.6,1479h-3.7v-3.7h3.7V1479z"/>
	<path class="st7" d="M423.9,1481.7c1.3,0,2.7,0.3,3.7,1.3c1,1,1.5,2.4,1.5,5v9.6h-2.6v-9.4c0-3.4-1.7-4.1-3.2-4.1
		c-3.5,0-4.3,3.3-4.3,5.5v8.1h-2.6v-15.5h2.5v3.1C419.6,1483.2,421.3,1481.7,423.9,1481.7z"/>
	<path class="st7" d="M445.3,1483.3c0.9,0.9,1.4,2.1,1.4,3.6c0,3.2-2.4,5.3-5.8,5.3c-1.1,0-2.1-0.2-2.9-0.6
		c-0.7,0.3-1.1,0.8-1.1,1.5c0,1,0.8,1.5,2.6,1.5h4c3.2,0,5,1.6,5,4.2c0,3.3-2.8,5.1-7.7,5.1c-4.4,0-7-1.5-7-3.9
		c0-1.7,1.1-2.9,2.7-3.5c-1.3-0.5-2-1.5-2-2.8c0-1.4,0.8-2.5,2.2-3c-1-0.9-1.5-2.2-1.5-3.7c0-3.2,2.3-5.4,5.8-5.4
		c1.1,0,2.1,0.2,3,0.7c0.6-1.8,1.8-2.8,3.7-2.8c0.3,0,0.7,0,1,0.1v2.3c-0.5-0.1-0.7-0.1-1.1-0.1
		C446.5,1481.8,445.8,1482.3,445.3,1483.3z M439.4,1497c-0.5,0-0.9,0-1.3-0.1c-1,0.5-1.6,1.3-1.6,2.4c0,1.6,1.5,2.5,4.7,2.5
		c3.3,0,4.7-0.9,4.7-2.6c0-1.4-1-2.2-3-2.2H439.4z M444.3,1486.9c0-1.9-1.3-3.2-3.2-3.2c-1.9,0-3.3,1.4-3.3,3.3
		c0,1.9,1.3,3.2,3.2,3.2C442.9,1490.2,444.3,1488.8,444.3,1486.9z"/>
	<path class="st7" d="M457.4,1500.7c1.7-0.7,2.1-1.5,2.1-3.2h-2.3v-4h4.1v4c0,2.4-0.7,3.6-3.1,4.6L457.4,1500.7z"/>
	<path class="st7" d="M32.2,1519.2h4.4v-4.1l2.6-1.1v5.2h6v2.1h-6v8c0,2.1,1,3.1,3,3.1c1,0,2.1-0.1,3.1-0.3v2.4
		c-0.8,0.2-1.7,0.4-3,0.4c-3.9,0-5.6-2.2-5.6-5.2v-8.4h-4.4V1519.2z"/>
	<path class="st7" d="M50.1,1527c0-4.9,2.9-8.1,7.2-8.1c4.3,0,7.2,3.2,7.2,8.1c0,4.9-2.9,8.1-7.2,8.1
		C53,1535.1,50.1,1531.8,50.1,1527z M61.7,1527c0-3.6-1.6-5.8-4.4-5.8c-2.8,0-4.4,2.2-4.4,5.8s1.6,5.8,4.4,5.8
		C60.1,1532.8,61.7,1530.6,61.7,1527z"/>
	<path class="st7" d="M90.2,1522.1c0.8-1.7,2.7-3.3,4.9-3.3c4.1,0,6.4,3.4,6.4,8.1c0,4.8-2.5,8.1-6.6,8.1c-1.9,0-3.8-1.2-4.6-2.8
		v8.5h-2.6v-21.5h2.5V1522.1z M94.5,1532.8c2.7,0,4.2-2.3,4.2-5.8c0-3.4-1.4-5.8-4.2-5.8c-2.6,0-4.3,2.1-4.3,5.4v0.7
		C90.3,1530.6,91.9,1532.8,94.5,1532.8z"/>
	<path class="st7" d="M104.9,1527c0-4.9,2.9-8.1,7.2-8.1c4.3,0,7.2,3.2,7.2,8.1c0,4.9-2.9,8.1-7.2,8.1
		C107.8,1535.1,104.9,1531.8,104.9,1527z M116.6,1527c0-3.6-1.6-5.8-4.4-5.8c-2.8,0-4.4,2.2-4.4,5.8s1.6,5.8,4.4,5.8
		C114.9,1532.8,116.6,1530.6,116.6,1527z"/>
	<path class="st7" d="M124.7,1532.6h5v-18.1H125v-2.2h7.3v20.3h5.2v2.2h-12.8V1532.6z"/>
	<path class="st7" d="M142.9,1532.6h5v-11.2h-4.5v-2.2h7.1v13.3h5.2v2.2h-12.8V1532.6z M150.8,1516.1h-3.7v-3.7h3.7V1516.1z"/>
	<path class="st7" d="M160.1,1519.2h4.4v-4.1l2.6-1.1v5.2h6v2.1h-6v8c0,2.1,1,3.1,3,3.1c1,0,2.1-0.1,3.1-0.3v2.4
		c-0.8,0.2-1.7,0.4-3,0.4c-3.9,0-5.6-2.2-5.6-5.2v-8.4h-4.4V1519.2z"/>
	<path class="st7" d="M179.5,1532.6h5v-11.2H180v-2.2h7.1v13.3h5.2v2.2h-12.8V1532.6z M187.4,1516.1h-3.7v-3.7h3.7V1516.1z"/>
	<path class="st7" d="M196.4,1526.9c0-4.6,2.4-8,7.2-8c3.4,0,5.9,2,6.3,5.5l-2.7,0.3c-0.3-2.3-1.6-3.6-3.8-3.6
		c-2.8,0-4.3,2.3-4.3,5.7c0,3.5,1.5,5.9,4.4,5.9c2.3,0,3.5-1.4,3.8-3.7l2.5,0.4c-0.5,3.2-2.5,5.6-6.3,5.6
		C198.8,1535.1,196.4,1531.5,196.4,1526.9z"/>
	<path class="st7" d="M228.1,1534.7h-2.8c-0.1-0.9-0.2-1.9-0.2-2.8c-1,2.2-2.7,3.2-5.2,3.2c-3.1,0-5.2-1.9-5.2-4.6
		c0-1.6,0.7-2.8,2.2-3.7c1-0.6,2.7-1,5.3-1.3l2.8-0.3v-0.3c0-2.8-1-4-3.3-4c-2.2,0-3.5,1.1-3.6,3.1h-2.8c0.3-3.3,2.7-5.2,6.6-5.2
		c4,0,5.8,2,5.8,6.4v4.2C227.6,1532,227.8,1533.6,228.1,1534.7z M221.3,1527.7c-2.7,0.4-3.8,1.1-3.8,2.7c0,1.6,1.1,2.5,2.9,2.5
		c2.8,0,4.6-1.9,4.6-5v-0.8L221.3,1527.7z"/>
	<path class="st7" d="M234.3,1532.6h5v-18.1h-4.6v-2.2h7.3v20.3h5.2v2.2h-12.8V1532.6z"/>
	<path class="st7" d="M258.6,1531.7l4.3-12.4h2.8l-6.2,16.5c-1.4,3.9-3.3,5.2-5.9,5.2c-0.5,0-0.9,0-1.4-0.1v-2.3
		c0.4,0,0.8,0.1,1.1,0.1c1.9,0,2.8-0.8,3.6-2.9l0.4-1.1l-6-15.3h3L258.6,1531.7z"/>
	<path class="st7" d="M301.3,1527.7h-10.9c0,2.9,1.7,5.1,4.6,5.1c2,0,3.3-1.3,4.1-2.8l2.2,1.2c-1.3,2.6-3.4,3.9-6.3,3.9
		c-4.9,0-7.2-3.3-7.2-8.4c0-4.7,2.7-7.8,7.1-7.8c4.7,0,6.6,3.4,6.6,7.6C301.4,1526.9,301.3,1527.3,301.3,1527.7z M294.7,1520.9
		c-2.8,0-4.2,2.3-4.2,4.6h8.2C298.7,1523,297.5,1520.9,294.7,1520.9z"/>
	<path class="st7" d="M314.3,1518.9c1.3,0,2.7,0.3,3.7,1.3c1,1,1.5,2.4,1.5,5v9.6h-2.6v-9.4c0-3.4-1.7-4.1-3.2-4.1
		c-3.5,0-4.3,3.3-4.3,5.5v8.1h-2.6v-15.5h2.5v3.1C310,1520.4,311.7,1518.9,314.3,1518.9z"/>
	<path class="st7" d="M335.7,1520.5c0.9,0.9,1.4,2.1,1.4,3.6c0,3.2-2.4,5.3-5.8,5.3c-1.1,0-2.1-0.2-2.9-0.6
		c-0.7,0.3-1.1,0.8-1.1,1.5c0,1,0.8,1.5,2.6,1.5h4c3.2,0,5,1.6,5,4.2c0,3.3-2.8,5.1-7.7,5.1c-4.4,0-7-1.5-7-3.9
		c0-1.7,1.1-2.9,2.7-3.5c-1.3-0.5-2-1.5-2-2.8c0-1.4,0.8-2.5,2.2-3c-1-0.9-1.5-2.2-1.5-3.7c0-3.2,2.3-5.4,5.8-5.4
		c1.1,0,2.1,0.2,3,0.7c0.6-1.8,1.8-2.8,3.7-2.8c0.3,0,0.7,0,1,0.1v2.3c-0.5-0.1-0.7-0.1-1.1-0.1
		C336.9,1519,336.1,1519.5,335.7,1520.5z M329.8,1534.2c-0.5,0-0.9,0-1.3-0.1c-1,0.5-1.6,1.3-1.6,2.4c0,1.6,1.5,2.5,4.7,2.5
		c3.3,0,4.7-0.9,4.7-2.6c0-1.4-1-2.2-3-2.2H329.8z M334.6,1524.1c0-1.9-1.3-3.2-3.2-3.2c-1.9,0-3.3,1.4-3.3,3.3
		c0,1.9,1.3,3.2,3.2,3.2C333.2,1527.4,334.6,1526,334.6,1524.1z"/>
	<path class="st7" d="M356.1,1534.7h-2.8c-0.1-0.9-0.2-1.9-0.2-2.8c-1,2.2-2.7,3.2-5.2,3.2c-3.1,0-5.2-1.9-5.2-4.6
		c0-1.6,0.7-2.8,2.2-3.7c1-0.6,2.7-1,5.3-1.3l2.8-0.3v-0.3c0-2.8-1-4-3.3-4c-2.2,0-3.5,1.1-3.6,3.1h-2.8c0.3-3.3,2.7-5.2,6.6-5.2
		c4,0,5.8,2,5.8,6.4v4.2C355.5,1532,355.7,1533.6,356.1,1534.7z M349.2,1527.7c-2.7,0.4-3.8,1.1-3.8,2.7c0,1.6,1.1,2.5,2.9,2.5
		c2.8,0,4.6-1.9,4.6-5v-0.8L349.2,1527.7z"/>
	<path class="st7" d="M372.2,1520.5c0.9,0.9,1.4,2.1,1.4,3.6c0,3.2-2.4,5.3-5.8,5.3c-1.1,0-2.1-0.2-2.9-0.6
		c-0.7,0.3-1.1,0.8-1.1,1.5c0,1,0.8,1.5,2.6,1.5h4c3.2,0,5,1.6,5,4.2c0,3.3-2.8,5.1-7.7,5.1c-4.4,0-7-1.5-7-3.9
		c0-1.7,1.1-2.9,2.7-3.5c-1.3-0.5-2-1.5-2-2.8c0-1.4,0.8-2.5,2.2-3c-1-0.9-1.5-2.2-1.5-3.7c0-3.2,2.3-5.4,5.8-5.4
		c1.1,0,2.1,0.2,3,0.7c0.6-1.8,1.8-2.8,3.7-2.8c0.3,0,0.7,0,1,0.1v2.3c-0.5-0.1-0.7-0.1-1.1-0.1
		C373.4,1519,372.7,1519.5,372.2,1520.5z M366.3,1534.2c-0.5,0-0.9,0-1.3-0.1c-1,0.5-1.6,1.3-1.6,2.4c0,1.6,1.5,2.5,4.7,2.5
		c3.3,0,4.7-0.9,4.7-2.6c0-1.4-1-2.2-3-2.2H366.3z M371.2,1524.1c0-1.9-1.3-3.2-3.2-3.2c-1.9,0-3.3,1.4-3.3,3.3
		c0,1.9,1.3,3.2,3.2,3.2C369.8,1527.4,371.2,1526,371.2,1524.1z"/>
	<path class="st7" d="M392.7,1527.7h-10.9c0,2.9,1.7,5.1,4.6,5.1c2,0,3.3-1.3,4.1-2.8l2.2,1.2c-1.3,2.6-3.4,3.9-6.3,3.9
		c-4.9,0-7.2-3.3-7.2-8.4c0-4.7,2.7-7.8,7.1-7.8c4.7,0,6.6,3.4,6.6,7.6C392.7,1526.9,392.7,1527.3,392.7,1527.7z M386,1520.9
		c-2.8,0-4.2,2.3-4.2,4.6h8.2C390.1,1523,388.8,1520.9,386,1520.9z"/>
	<path class="st7" d="M410.5,1512.3v22.5H408v-2.9c-0.9,2-2.4,3.3-4.9,3.3c-3.9,0-6.4-3.2-6.4-8.1c0-4.9,2.7-8.1,6.8-8.1
		c2.1,0,3.6,1.1,4.4,2.7v-9.3H410.5z M403.7,1521.2c-2.7,0-4.2,2.1-4.2,5.8c0,3.6,1.6,5.8,4.2,5.8c2.6,0,4.3-2.1,4.3-5.5v-0.7
		C407.9,1523.3,406.3,1521.2,403.7,1521.2z"/>
	<path class="st7" d="M43.3,1557.6c0.9,0.9,1.4,2.1,1.4,3.6c0,3.2-2.4,5.3-5.8,5.3c-1.1,0-2.1-0.2-2.9-0.6c-0.7,0.3-1.1,0.8-1.1,1.5
		c0,1,0.8,1.5,2.6,1.5h4c3.2,0,5,1.6,5,4.2c0,3.3-2.8,5.1-7.7,5.1c-4.4,0-7-1.5-7-3.9c0-1.7,1.1-2.9,2.7-3.5c-1.3-0.5-2-1.5-2-2.8
		c0-1.4,0.8-2.5,2.2-3c-1-0.9-1.5-2.2-1.5-3.7c0-3.2,2.3-5.4,5.8-5.4c1.1,0,2.1,0.2,3,0.7c0.6-1.8,1.8-2.8,3.7-2.8
		c0.3,0,0.7,0,1,0.1v2.3c-0.5-0.1-0.7-0.1-1.1-0.1C44.5,1556.2,43.8,1556.6,43.3,1557.6z M37.4,1571.3c-0.5,0-0.9,0-1.3-0.1
		c-1,0.5-1.6,1.3-1.6,2.4c0,1.6,1.5,2.5,4.7,2.5c3.3,0,4.7-0.9,4.7-2.6c0-1.4-1-2.2-3-2.2H37.4z M42.3,1561.2c0-1.9-1.3-3.2-3.2-3.2
		c-1.9,0-3.3,1.4-3.3,3.3c0,1.9,1.3,3.2,3.2,3.2C40.9,1564.5,42.3,1563.1,42.3,1561.2z"/>
	<path class="st7" d="M61.5,1556.1c1.1,0,2.1,0.1,2.8,0.3v2.4c-0.6-0.2-1.8-0.3-2.9-0.3c-3.7,0-6.7,2.5-6.7,7.6v5.8H52v-15.5h2.6v4
		C55.7,1558,58.2,1556.1,61.5,1556.1z"/>
	<path class="st7" d="M82,1571.9h-2.8c-0.1-0.9-0.2-1.9-0.2-2.8c-1,2.2-2.7,3.2-5.2,3.2c-3.1,0-5.2-1.9-5.2-4.6
		c0-1.6,0.7-2.8,2.2-3.7c1-0.6,2.7-1,5.3-1.3l2.8-0.3v-0.3c0-2.8-1-4-3.3-4c-2.2,0-3.5,1.1-3.6,3.1H69c0.3-3.3,2.7-5.2,6.6-5.2
		c4,0,5.8,2,5.8,6.4v4.2C81.4,1569.1,81.6,1570.7,82,1571.9z M75.1,1564.9c-2.7,0.4-3.8,1.1-3.8,2.7c0,1.6,1.1,2.5,2.9,2.5
		c2.8,0,4.6-1.9,4.6-5v-0.8L75.1,1564.9z"/>
	<path class="st7" d="M90.2,1559.3c0.8-1.7,2.7-3.3,4.9-3.3c4.1,0,6.4,3.4,6.4,8.1c0,4.8-2.5,8.1-6.6,8.1c-1.9,0-3.8-1.2-4.6-2.8
		v8.5h-2.6v-21.5h2.5V1559.3z M94.5,1569.9c2.7,0,4.2-2.3,4.2-5.8c0-3.4-1.4-5.8-4.2-5.8c-2.6,0-4.3,2.1-4.3,5.4v0.7
		C90.3,1567.8,91.9,1569.9,94.5,1569.9z"/>
	<path class="st7" d="M113.2,1556c1.2,0,2.7,0.3,3.8,1.4c1,1,1.5,2.4,1.5,4.9v9.6h-2.6v-9.4c0-3.4-1.7-4.1-3.3-4.1
		c-3.4,0-4.2,3.3-4.2,5.5v8.1h-2.6v-22.5h2.6v9.8C109.1,1557.4,111,1556,113.2,1556z"/>
	<path class="st7" d="M124.7,1569.7h5v-11.2h-4.5v-2.2h7.1v13.3h5.2v2.2h-12.8V1569.7z M132.5,1553.3h-3.7v-3.7h3.7V1553.3z"/>
	<path class="st7" d="M141.5,1564.1c0-4.6,2.4-8,7.2-8c3.4,0,5.9,2,6.3,5.5l-2.7,0.3c-0.3-2.3-1.6-3.6-3.8-3.6
		c-2.8,0-4.3,2.3-4.3,5.7c0,3.5,1.5,5.9,4.4,5.9c2.3,0,3.5-1.4,3.8-3.7l2.5,0.4c-0.5,3.2-2.5,5.6-6.3,5.6
		C144,1572.3,141.5,1568.7,141.5,1564.1z"/>
	<path class="st7" d="M160.6,1567.1l2.7-0.5c0.4,2.3,1.9,3.4,4.2,3.4c2.1,0,3.2-0.9,3.2-2.3c0-1.5-0.8-2.2-2.5-2.4l-2.5-0.3
		c-3.1-0.3-4.5-2.1-4.5-4.5c0-2.8,2.2-4.6,5.9-4.6c3.5,0,5.9,1.9,6.3,4.7l-2.6,0.6c-0.3-1.9-1.6-3.2-3.7-3.2c-2,0-3.3,0.8-3.3,2.3
		c0,1.3,0.9,2.1,2.8,2.4l2.5,0.3c3.1,0.3,4.3,2,4.3,4.4c0,2.9-2.2,4.7-5.9,4.7C163.6,1572.3,161.2,1570.4,160.6,1567.1z"/>
	<path class="st7" d="M183.3,1575.1c1.7-0.7,2.1-1.5,2.1-3.2h-2.3v-4h4.1v4c0,2.4-0.7,3.6-3.1,4.6L183.3,1575.1z"/>
	<path class="st7" d="M214.9,1556.4h4.4v-4.1l2.6-1.1v5.2h6v2.1h-6v8c0,2.1,1,3.1,3,3.1c1,0,2.1-0.1,3.1-0.3v2.4
		c-0.8,0.2-1.7,0.4-3,0.4c-3.9,0-5.6-2.2-5.6-5.2v-8.4h-4.4V1556.4z"/>
	<path class="st7" d="M232.8,1564.1c0-4.9,2.9-8.1,7.2-8.1c4.3,0,7.2,3.2,7.2,8.1c0,4.9-2.9,8.1-7.2,8.1
		C235.7,1572.3,232.8,1569,232.8,1564.1z M244.5,1564.1c0-3.6-1.6-5.8-4.4-5.8c-2.8,0-4.4,2.2-4.4,5.8s1.6,5.8,4.4,5.8
		C242.8,1570,244.5,1567.8,244.5,1564.1z"/>
	<path class="st7" d="M280.7,1556.1c1.1,0,2.1,0.1,2.8,0.3v2.4c-0.6-0.2-1.8-0.3-2.9-0.3c-3.7,0-6.7,2.5-6.7,7.6v5.8h-2.6v-15.5h2.6
		v4C275,1558,277.5,1556.1,280.7,1556.1z"/>
	<path class="st7" d="M301.3,1564.8h-10.9c0,2.9,1.7,5.1,4.6,5.1c2,0,3.3-1.3,4.1-2.8l2.2,1.2c-1.3,2.6-3.4,3.9-6.3,3.9
		c-4.9,0-7.2-3.3-7.2-8.4c0-4.7,2.7-7.8,7.1-7.8c4.7,0,6.6,3.4,6.6,7.6C301.4,1564,301.3,1564.4,301.3,1564.8z M294.7,1558.1
		c-2.8,0-4.2,2.3-4.2,4.6h8.2C298.7,1560.2,297.5,1558.1,294.7,1558.1z"/>
	<path class="st7" d="M307.4,1569.7h5v-18.1h-4.6v-2.2h7.3v20.3h5.2v2.2h-12.8V1569.7z"/>
	<path class="st7" d="M325.7,1569.7h5v-11.2h-4.5v-2.2h7.1v13.3h5.2v2.2h-12.8V1569.7z M333.5,1553.3h-3.7v-3.7h3.7V1553.3z"/>
	<path class="st7" d="M354,1557.6c0.9,0.9,1.4,2.1,1.4,3.6c0,3.2-2.4,5.3-5.8,5.3c-1.1,0-2.1-0.2-2.9-0.6c-0.7,0.3-1.1,0.8-1.1,1.5
		c0,1,0.8,1.5,2.6,1.5h4c3.2,0,5,1.6,5,4.2c0,3.3-2.8,5.1-7.7,5.1c-4.4,0-7-1.5-7-3.9c0-1.7,1.1-2.9,2.7-3.5c-1.3-0.5-2-1.5-2-2.8
		c0-1.4,0.8-2.5,2.2-3c-1-0.9-1.5-2.2-1.5-3.7c0-3.2,2.3-5.4,5.8-5.4c1.1,0,2.1,0.2,3,0.7c0.6-1.8,1.8-2.8,3.7-2.8
		c0.3,0,0.7,0,1,0.1v2.3c-0.5-0.1-0.7-0.1-1.1-0.1C355.1,1556.2,354.4,1556.6,354,1557.6z M348.1,1571.3c-0.5,0-0.9,0-1.3-0.1
		c-1,0.5-1.6,1.3-1.6,2.4c0,1.6,1.5,2.5,4.7,2.5c3.3,0,4.7-0.9,4.7-2.6c0-1.4-1-2.2-3-2.2H348.1z M352.9,1561.2
		c0-1.9-1.3-3.2-3.2-3.2c-1.9,0-3.3,1.4-3.3,3.3c0,1.9,1.3,3.2,3.2,3.2C351.5,1564.5,352.9,1563.1,352.9,1561.2z"/>
	<path class="st7" d="M362.2,1569.7h5v-11.2h-4.5v-2.2h7.1v13.3h5.2v2.2h-12.8V1569.7z M370.1,1553.3h-3.7v-3.7h3.7V1553.3z"/>
	<path class="st7" d="M379,1564.1c0-4.9,2.9-8.1,7.2-8.1c4.3,0,7.2,3.2,7.2,8.1c0,4.9-2.9,8.1-7.2,8.1
		C381.9,1572.3,379,1569,379,1564.1z M390.6,1564.1c0-3.6-1.6-5.8-4.4-5.8c-2.8,0-4.4,2.2-4.4,5.8s1.6,5.8,4.4,5.8
		C389,1570,390.6,1567.8,390.6,1564.1z"/>
	<path class="st7" d="M403.4,1572.3c-1.4,0-2.9-0.3-4-1.4c-1-1-1.4-2.4-1.4-4.9v-9.6h2.7v9.5c0,3.4,1.6,4.1,3.2,4.1
		c3.3,0,4-3.3,4-5.5v-8.1h2.6v15.5h-2.5v-2.9C407.5,1570.5,405.7,1572.3,403.4,1572.3z"/>
	<path class="st7" d="M416.4,1567.1l2.7-0.5c0.4,2.3,1.9,3.4,4.2,3.4c2.1,0,3.2-0.9,3.2-2.3c0-1.5-0.8-2.2-2.5-2.4l-2.5-0.3
		c-3.1-0.3-4.5-2.1-4.5-4.5c0-2.8,2.2-4.6,5.9-4.6c3.5,0,5.9,1.9,6.3,4.7l-2.6,0.6c-0.3-1.9-1.6-3.2-3.7-3.2c-2,0-3.3,0.8-3.3,2.3
		c0,1.3,0.9,2.1,2.8,2.4l2.5,0.3c3.1,0.3,4.3,2,4.3,4.4c0,2.9-2.2,4.7-5.9,4.7C419.4,1572.3,417,1570.4,416.4,1567.1z"/>
	<path class="st7" d="M45.4,1609.1h-2.8c-0.1-0.9-0.2-1.9-0.2-2.8c-1,2.2-2.7,3.2-5.2,3.2c-3.1,0-5.2-1.9-5.2-4.6
		c0-1.6,0.7-2.8,2.2-3.7c1-0.6,2.7-1,5.3-1.3l2.8-0.3v-0.3c0-2.8-1-4-3.3-4c-2.2,0-3.5,1.1-3.6,3.1h-2.8c0.3-3.3,2.7-5.2,6.6-5.2
		c4,0,5.8,2,5.8,6.4v4.2C44.9,1606.3,45,1607.9,45.4,1609.1z M38.6,1602c-2.7,0.4-3.8,1.1-3.8,2.7c0,1.6,1.1,2.5,2.9,2.5
		c2.8,0,4.6-1.9,4.6-5v-0.8L38.6,1602z"/>
	<path class="st7" d="M50.4,1593.6h4.4v-4.1l2.6-1.1v5.2h6v2.1h-6v8c0,2.1,1,3.1,3,3.1c1,0,2.1-0.1,3.1-0.3v2.4
		c-0.8,0.2-1.7,0.4-3,0.4c-3.9,0-5.6-2.2-5.6-5.2v-8.4h-4.4V1593.6z"/>
	<path class="st7" d="M68.7,1593.6h4.4v-4.1l2.6-1.1v5.2h6v2.1h-6v8c0,2.1,1,3.1,3,3.1c1,0,2.1-0.1,3.1-0.3v2.4
		c-0.8,0.2-1.7,0.4-3,0.4c-3.9,0-5.6-2.2-5.6-5.2v-8.4h-4.4V1593.6z"/>
	<path class="st7" d="M88.1,1606.9h5v-11.2h-4.5v-2.2h7.1v13.3h5.2v2.2H88.1V1606.9z M96,1590.5h-3.7v-3.7H96V1590.5z"/>
	<path class="st7" d="M116.3,1593.3c1.1,0,2.1,0.1,2.8,0.3v2.4c-0.6-0.2-1.8-0.3-2.9-0.3c-3.7,0-6.7,2.5-6.7,7.6v5.8h-2.6v-15.5h2.6
		v4C110.5,1595.1,113.1,1593.3,116.3,1593.3z"/>
	<path class="st7" d="M136.8,1602H126c0,2.9,1.7,5.1,4.6,5.1c2,0,3.3-1.3,4.1-2.8l2.2,1.2c-1.3,2.6-3.4,3.9-6.3,3.9
		c-4.9,0-7.2-3.3-7.2-8.4c0-4.7,2.7-7.8,7.1-7.8c4.7,0,6.6,3.4,6.6,7.6C136.9,1601.2,136.9,1601.6,136.8,1602z M130.2,1595.2
		c-2.8,0-4.2,2.3-4.2,4.6h8.2C134.2,1597.3,133,1595.2,130.2,1595.2z"/>
	<path class="st7" d="M150.7,1609.1h-4.1v-4h4.1V1609.1z"/>
	<path class="st7" d="M186.6,1589.4v17.3h5.5v2.3h-13.9v-2.3h5.5v-17.3h-5.5v-2.3h13.9v2.3H186.6z"/>
	<path class="st7" d="M204.7,1593.2c1.3,0,2.7,0.3,3.7,1.3c1,1,1.5,2.4,1.5,5v9.6h-2.6v-9.4c0-3.4-1.7-4.1-3.2-4.1
		c-3.5,0-4.3,3.3-4.3,5.5v8.1h-2.6v-15.5h2.5v3.1C200.4,1594.7,202.1,1593.2,204.7,1593.2z"/>
	<path class="st7" d="M214.6,1601.2c0-4.6,2.4-8,7.2-8c3.4,0,5.9,2,6.3,5.5l-2.7,0.3c-0.3-2.3-1.6-3.6-3.8-3.6
		c-2.8,0-4.3,2.3-4.3,5.7c0,3.5,1.5,5.9,4.4,5.9c2.3,0,3.5-1.4,3.8-3.7l2.5,0.4c-0.5,3.2-2.5,5.6-6.3,5.6
		C217.1,1609.4,214.6,1605.9,214.6,1601.2z"/>
	<path class="st7" d="M234.3,1606.9h5v-18.1h-4.6v-2.2h7.3v20.3h5.2v2.2h-12.8V1606.9z"/>
	<path class="st7" d="M257.2,1609.4c-1.4,0-2.9-0.3-4-1.4c-1-1-1.4-2.4-1.4-4.9v-9.6h2.7v9.5c0,3.4,1.6,4.1,3.2,4.1
		c3.3,0,4-3.3,4-5.5v-8.1h2.6v15.5h-2.5v-2.9C261.3,1607.7,259.5,1609.4,257.2,1609.4z"/>
	<path class="st7" d="M270.3,1604.3l2.7-0.5c0.4,2.3,1.9,3.4,4.2,3.4c2.1,0,3.2-0.9,3.2-2.3c0-1.5-0.8-2.2-2.5-2.4l-2.5-0.3
		c-3.1-0.3-4.5-2.1-4.5-4.5c0-2.8,2.2-4.6,5.9-4.6c3.5,0,5.9,1.9,6.3,4.7l-2.6,0.6c-0.3-1.9-1.6-3.2-3.7-3.2c-2,0-3.3,0.8-3.3,2.3
		c0,1.3,0.9,2.1,2.8,2.4l2.5,0.3c3.1,0.3,4.3,2,4.3,4.4c0,2.9-2.2,4.7-5.9,4.7C273.3,1609.4,270.8,1607.6,270.3,1604.3z"/>
	<path class="st7" d="M289.1,1606.9h5v-11.2h-4.5v-2.2h7.1v13.3h5.2v2.2h-12.8V1606.9z M297,1590.5h-3.7v-3.7h3.7V1590.5z"/>
	<path class="st7" d="M305.5,1593.6h2.8l4.1,10.6c0.3,0.8,0.6,1.5,0.8,2.2h0.1c0.2-0.7,0.4-1.4,0.7-2.2l4.2-10.6h2.7l-6.2,15.5h-2.8
		L305.5,1593.6z"/>
	<path class="st7" d="M325.7,1606.9h5v-11.2h-4.5v-2.2h7.1v13.3h5.2v2.2h-12.8V1606.9z M333.5,1590.5h-3.7v-3.7h3.7V1590.5z"/>
	<path class="st7" d="M342.8,1593.6h4.4v-4.1l2.6-1.1v5.2h6v2.1h-6v8c0,2.1,1,3.1,3,3.1c1,0,2.1-0.1,3.1-0.3v2.4
		c-0.8,0.2-1.7,0.4-3,0.4c-3.9,0-5.6-2.2-5.6-5.2v-8.4h-4.4V1593.6z"/>
	<path class="st7" d="M368.2,1606l4.3-12.4h2.8l-6.2,16.5c-1.4,3.9-3.3,5.2-5.9,5.2c-0.5,0-0.9,0-1.4-0.1v-2.3
		c0.4,0,0.8,0.1,1.1,0.1c1.9,0,2.8-0.8,3.6-2.9l0.4-1.1l-6-15.3h3L368.2,1606z"/>
	<path class="st7" d="M398.8,1606.9h5v-11.2h-4.5v-2.2h7.1v13.3h5.2v2.2h-12.8V1606.9z M406.6,1590.5h-3.7v-3.7h3.7V1590.5z"/>
	<path class="st7" d="M416.4,1604.3l2.7-0.5c0.4,2.3,1.9,3.4,4.2,3.4c2.1,0,3.2-0.9,3.2-2.3c0-1.5-0.8-2.2-2.5-2.4l-2.5-0.3
		c-3.1-0.3-4.5-2.1-4.5-4.5c0-2.8,2.2-4.6,5.9-4.6c3.5,0,5.9,1.9,6.3,4.7l-2.6,0.6c-0.3-1.9-1.6-3.2-3.7-3.2c-2,0-3.3,0.8-3.3,2.3
		c0,1.3,0.9,2.1,2.8,2.4l2.5,0.3c3.1,0.3,4.3,2,4.3,4.4c0,2.9-2.2,4.7-5.9,4.7C419.4,1609.4,417,1607.6,416.4,1604.3z"/>
	<path class="st7" d="M31.8,1638.5c0-4.9,2.9-8.1,7.2-8.1c4.3,0,7.2,3.2,7.2,8.1c0,4.9-2.9,8.1-7.2,8.1
		C34.7,1646.6,31.8,1643.3,31.8,1638.5z M43.5,1638.5c0-3.6-1.6-5.8-4.4-5.8c-2.8,0-4.4,2.2-4.4,5.8c0,3.7,1.6,5.8,4.4,5.8
		C41.8,1644.3,43.5,1642.1,43.5,1638.5z"/>
	<path class="st7" d="M58.5,1630.4c1.3,0,2.7,0.3,3.7,1.3c1,1,1.5,2.4,1.5,5v9.6h-2.6v-9.4c0-3.4-1.7-4.1-3.2-4.1
		c-3.5,0-4.3,3.3-4.3,5.5v8.1h-2.6v-15.5h2.5v3.1C54.2,1631.8,55.9,1630.4,58.5,1630.4z"/>
	<path class="st7" d="M82,1639.2H71.2c0,2.9,1.7,5.1,4.6,5.1c2,0,3.3-1.3,4.1-2.8l2.2,1.2c-1.3,2.6-3.4,3.9-6.3,3.9
		c-4.9,0-7.2-3.3-7.2-8.4c0-4.7,2.7-7.8,7.1-7.8c4.7,0,6.6,3.4,6.6,7.6C82.1,1638.4,82.1,1638.8,82,1639.2z M75.4,1632.4
		c-2.8,0-4.2,2.3-4.2,4.6h8.2C79.4,1634.5,78.2,1632.4,75.4,1632.4z"/>
	<path class="st7" d="M104.9,1638.5c0-4.9,2.9-8.1,7.2-8.1c4.3,0,7.2,3.2,7.2,8.1c0,4.9-2.9,8.1-7.2,8.1
		C107.8,1646.6,104.9,1643.3,104.9,1638.5z M116.6,1638.5c0-3.6-1.6-5.8-4.4-5.8c-2.8,0-4.4,2.2-4.4,5.8c0,3.7,1.6,5.8,4.4,5.8
		C114.9,1644.3,116.6,1642.1,116.6,1638.5z"/>
	<path class="st7" d="M136.9,1632.9H131v13.4h-2.6v-13.4h-4.7v-2.1h4.7v-1.7c0-3.5,2-5.4,5.8-5.4c0.9,0,1.6,0.1,2.7,0.3v2.3
		c-0.7-0.1-1.5-0.2-2.7-0.2c-2.4,0-3.2,0.8-3.2,3.2v1.5h5.9V1632.9z"/>
	<path class="st7" d="M159.7,1638.5c0-4.9,2.9-8.1,7.2-8.1c4.3,0,7.2,3.2,7.2,8.1c0,4.9-2.9,8.1-7.2,8.1
		C162.6,1646.6,159.7,1643.3,159.7,1638.5z M171.4,1638.5c0-3.6-1.6-5.8-4.4-5.8c-2.8,0-4.4,2.2-4.4,5.8c0,3.7,1.6,5.8,4.4,5.8
		C169.7,1644.3,171.4,1642.1,171.4,1638.5z"/>
	<path class="st7" d="M184.1,1646.6c-1.4,0-2.9-0.3-4-1.4c-1-1-1.4-2.4-1.4-4.9v-9.6h2.7v9.5c0,3.4,1.6,4.1,3.2,4.1
		c3.3,0,4-3.3,4-5.5v-8.1h2.6v15.5h-2.5v-2.9C188.3,1644.8,186.4,1646.6,184.1,1646.6z"/>
	<path class="st7" d="M207.6,1630.4c1.1,0,2.1,0.1,2.8,0.3v2.4c-0.6-0.2-1.8-0.3-2.9-0.3c-3.7,0-6.7,2.5-6.7,7.6v5.8h-2.6v-15.5h2.6
		v4C201.9,1632.3,204.4,1630.4,207.6,1630.4z"/>
	<path class="st7" d="M232.9,1638.4c0-4.6,2.4-8,7.2-8c3.4,0,5.9,2,6.3,5.5l-2.7,0.3c-0.3-2.3-1.6-3.6-3.8-3.6
		c-2.8,0-4.3,2.3-4.3,5.7c0,3.5,1.5,5.9,4.4,5.9c2.3,0,3.5-1.4,3.8-3.7l2.5,0.4c-0.5,3.2-2.5,5.6-6.3,5.6
		C235.3,1646.6,232.9,1643,232.9,1638.4z"/>
	<path class="st7" d="M251.1,1638.5c0-4.9,2.9-8.1,7.2-8.1c4.3,0,7.2,3.2,7.2,8.1c0,4.9-2.9,8.1-7.2,8.1
		C254,1646.6,251.1,1643.3,251.1,1638.5z M262.7,1638.5c0-3.6-1.6-5.8-4.4-5.8c-2.8,0-4.4,2.2-4.4,5.8c0,3.7,1.6,5.8,4.4,5.8
		C261.1,1644.3,262.7,1642.1,262.7,1638.5z"/>
	<path class="st7" d="M280.7,1630.4c1.1,0,2.1,0.1,2.8,0.3v2.4c-0.6-0.2-1.8-0.3-2.9-0.3c-3.7,0-6.7,2.5-6.7,7.6v5.8h-2.6v-15.5h2.6
		v4C275,1632.3,277.5,1630.4,280.7,1630.4z"/>
	<path class="st7" d="M301.3,1639.2h-10.9c0,2.9,1.7,5.1,4.6,5.1c2,0,3.3-1.3,4.1-2.8l2.2,1.2c-1.3,2.6-3.4,3.9-6.3,3.9
		c-4.9,0-7.2-3.3-7.2-8.4c0-4.7,2.7-7.8,7.1-7.8c4.7,0,6.6,3.4,6.6,7.6C301.4,1638.4,301.3,1638.8,301.3,1639.2z M294.7,1632.4
		c-2.8,0-4.2,2.3-4.2,4.6h8.2C298.7,1634.5,297.5,1632.4,294.7,1632.4z"/>
	<path class="st7" d="M323.7,1630.7h2.8l4.1,10.6c0.3,0.8,0.6,1.5,0.8,2.2h0.1c0.2-0.7,0.4-1.4,0.7-2.2l4.2-10.6h2.7l-6.2,15.5h-2.8
		L323.7,1630.7z"/>
	<path class="st7" d="M356.1,1646.2h-2.8c-0.1-0.9-0.2-1.9-0.2-2.8c-1,2.2-2.7,3.2-5.2,3.2c-3.1,0-5.2-1.9-5.2-4.6
		c0-1.6,0.7-2.8,2.2-3.7c1-0.6,2.7-1,5.3-1.3l2.8-0.3v-0.3c0-2.8-1-4-3.3-4c-2.2,0-3.5,1.1-3.6,3.1h-2.8c0.3-3.3,2.7-5.2,6.6-5.2
		c4,0,5.8,2,5.8,6.4v4.2C355.5,1643.5,355.7,1645.1,356.1,1646.2z M349.2,1639.2c-2.7,0.4-3.8,1.1-3.8,2.7c0,1.6,1.1,2.5,2.9,2.5
		c2.8,0,4.6-1.9,4.6-5v-0.8L349.2,1639.2z"/>
	<path class="st7" d="M362.2,1644.1h5v-18.1h-4.6v-2.2h7.3v20.3h5.2v2.2h-12.8V1644.1z"/>
	<path class="st7" d="M385.1,1646.6c-1.4,0-2.9-0.3-4-1.4c-1-1-1.4-2.4-1.4-4.9v-9.6h2.7v9.5c0,3.4,1.6,4.1,3.2,4.1
		c3.3,0,4-3.3,4-5.5v-8.1h2.6v15.5h-2.5v-2.9C389.3,1644.8,387.4,1646.6,385.1,1646.6z"/>
	<path class="st7" d="M410.9,1639.2h-10.9c0,2.9,1.7,5.1,4.6,5.1c2,0,3.3-1.3,4.1-2.8l2.2,1.2c-1.3,2.6-3.4,3.9-6.3,3.9
		c-4.9,0-7.2-3.3-7.2-8.4c0-4.7,2.7-7.8,7.1-7.8c4.7,0,6.6,3.4,6.6,7.6C411,1638.4,411,1638.8,410.9,1639.2z M404.3,1632.4
		c-2.8,0-4.2,2.3-4.2,4.6h8.2C408.3,1634.5,407.1,1632.4,404.3,1632.4z"/>
	<path class="st7" d="M416.4,1641.5l2.7-0.5c0.4,2.3,1.9,3.4,4.2,3.4c2.1,0,3.2-0.9,3.2-2.3c0-1.5-0.8-2.2-2.5-2.4l-2.5-0.3
		c-3.1-0.3-4.5-2.1-4.5-4.5c0-2.8,2.2-4.6,5.9-4.6c3.5,0,5.9,1.9,6.3,4.7l-2.6,0.6c-0.3-1.9-1.6-3.2-3.7-3.2c-2,0-3.3,0.8-3.3,2.3
		c0,1.3,0.9,2.1,2.8,2.4l2.5,0.3c3.1,0.3,4.3,2,4.3,4.4c0,2.9-2.2,4.7-5.9,4.7C419.4,1646.6,417,1644.8,416.4,1641.5z"/>
	<path class="st7" d="M40.1,1667.5c1.2,0,2.7,0.3,3.8,1.4c1,1,1.5,2.4,1.5,4.9v9.6h-2.6v-9.4c0-3.4-1.7-4.1-3.3-4.1
		c-3.4,0-4.2,3.3-4.2,5.5v8.1h-2.6v-22.5h2.6v9.8C36,1668.9,37.9,1667.5,40.1,1667.5z"/>
	<path class="st7" d="M63.8,1676.3H52.9c0,2.9,1.7,5.1,4.6,5.1c2,0,3.3-1.3,4.1-2.8l2.2,1.2c-1.3,2.6-3.4,3.9-6.3,3.9
		c-4.9,0-7.2-3.3-7.2-8.4c0-4.7,2.7-7.8,7.1-7.8c4.7,0,6.6,3.4,6.6,7.6C63.8,1675.5,63.8,1675.9,63.8,1676.3z M57.1,1669.6
		c-2.8,0-4.2,2.3-4.2,4.6h8.2C61.2,1671.7,59.9,1669.6,57.1,1669.6z"/>
	<path class="st7" d="M79.7,1667.6c1.1,0,2.1,0.1,2.8,0.3v2.4c-0.6-0.2-1.8-0.3-2.9-0.3c-3.7,0-6.7,2.5-6.7,7.6v5.8h-2.6v-15.5h2.6
		v4C74,1669.5,76.5,1667.6,79.7,1667.6z"/>
	<path class="st7" d="M100.3,1676.3H89.4c0,2.9,1.7,5.1,4.6,5.1c2,0,3.3-1.3,4.1-2.8l2.2,1.2c-1.3,2.6-3.4,3.9-6.3,3.9
		c-4.9,0-7.2-3.3-7.2-8.4c0-4.7,2.7-7.8,7.1-7.8c4.7,0,6.6,3.4,6.6,7.6C100.4,1675.5,100.3,1675.9,100.3,1676.3z M93.7,1669.6
		c-2.8,0-4.2,2.3-4.2,4.6h8.2C97.7,1671.7,96.5,1669.6,93.7,1669.6z"/>
	<path class="st7" d="M124.7,1681.2h5v-11.2h-4.5v-2.2h7.1v13.3h5.2v2.2h-12.8V1681.2z M132.5,1664.8h-3.7v-3.7h3.7V1664.8z"/>
	<path class="st7" d="M149.8,1667.5c1.3,0,2.7,0.3,3.7,1.3c1,1,1.5,2.4,1.5,5v9.6h-2.6v-9.4c0-3.4-1.7-4.1-3.2-4.1
		c-3.5,0-4.3,3.3-4.3,5.5v8.1h-2.6v-15.5h2.5v3.1C145.5,1669,147.2,1667.5,149.8,1667.5z"/>
	<path class="st7" d="M192.7,1663.9h-10.6v7h9.8v2.5h-9.8v10h-2.9v-22h13.5V1663.9z"/>
	<path class="st7" d="M197.8,1681.2h5v-18.1h-4.6v-2.2h7.3v20.3h5.2v2.2h-12.8V1681.2z"/>
	<path class="st7" d="M228.1,1683.4h-2.8c-0.1-0.9-0.2-1.9-0.2-2.8c-1,2.2-2.7,3.2-5.2,3.2c-3.1,0-5.2-1.9-5.2-4.6
		c0-1.6,0.7-2.8,2.2-3.7c1-0.6,2.7-1,5.3-1.3l2.8-0.3v-0.3c0-2.8-1-4-3.3-4c-2.2,0-3.5,1.1-3.6,3.1h-2.8c0.3-3.3,2.7-5.2,6.6-5.2
		c4,0,5.8,2,5.8,6.4v4.2C227.6,1680.6,227.8,1682.2,228.1,1683.4z M221.3,1676.4c-2.7,0.4-3.8,1.1-3.8,2.7c0,1.6,1.1,2.5,2.9,2.5
		c2.8,0,4.6-1.9,4.6-5v-0.8L221.3,1676.4z"/>
	<path class="st7" d="M233.2,1667.9h4.4v-4.1l2.6-1.1v5.2h6v2.1h-6v8c0,2.1,1,3.1,3,3.1c1,0,2.1-0.1,3.1-0.3v2.4
		c-0.8,0.2-1.7,0.4-3,0.4c-3.9,0-5.6-2.2-5.6-5.2v-8.4h-4.4V1667.9z"/>
	<path class="st7" d="M268.4,1661.4h2.9l0.7,15.6c0.1,2.3,0.1,3.4,0.1,3.9h0.3c0-0.7,0.2-2,0.6-4.2l2.1-10h2.7l2.1,10
		c0.5,2.2,0.6,3.4,0.6,4.2h0.3c0-0.5,0-1.6,0.1-3.9l0.7-15.6h2.9l-1.7,22h-3.8l-2-9.4c-0.4-2-0.5-3.1-0.6-4.4h-0.3
		c-0.1,1.3-0.2,2.4-0.6,4.4l-2,9.4h-3.8L268.4,1661.4z"/>
	<path class="st7" d="M287.6,1675.6c0-4.9,2.9-8.1,7.2-8.1c4.3,0,7.2,3.2,7.2,8.1c0,4.9-2.9,8.1-7.2,8.1
		C290.5,1683.8,287.6,1680.5,287.6,1675.6z M299.3,1675.6c0-3.6-1.6-5.8-4.4-5.8c-2.8,0-4.4,2.2-4.4,5.8s1.6,5.8,4.4,5.8
		C297.6,1681.5,299.3,1679.3,299.3,1675.6z"/>
	<path class="st7" d="M317.3,1667.6c1.1,0,2.1,0.1,2.8,0.3v2.4c-0.6-0.2-1.8-0.3-2.9-0.3c-3.7,0-6.7,2.5-6.7,7.6v5.8h-2.6v-15.5h2.6
		v4C311.5,1669.5,314.1,1667.6,317.3,1667.6z"/>
	<path class="st7" d="M325.7,1681.2h5v-18.1H326v-2.2h7.3v20.3h5.2v2.2h-12.8V1681.2z"/>
	<path class="st7" d="M355.6,1660.9v22.5h-2.5v-2.9c-0.9,2-2.4,3.3-4.9,3.3c-3.9,0-6.4-3.2-6.4-8.1c0-4.9,2.7-8.1,6.8-8.1
		c2.1,0,3.6,1.1,4.4,2.7v-9.3H355.6z M348.9,1669.8c-2.7,0-4.2,2.1-4.2,5.8c0,3.6,1.6,5.8,4.2,5.8c2.6,0,4.3-2.1,4.3-5.5v-0.7
		C353.1,1672,351.5,1669.8,348.9,1669.8z"/>
	<path class="st7" d="M370,1683.4h-4.1v-4h4.1V1683.4z"/>
</g>
<g>
	<path class="st8" d="M1502,54.1c0-4.9,2.5-8.2,7.2-8.2c3.9,0,5.9,2.3,6.3,5.6l-2.2,0.2c-0.3-2.4-1.8-4-4.2-4
		c-3.1,0-4.9,2.6-4.9,6.4c0,3.7,1.7,6.5,4.9,6.5c2.3,0,3.8-1.5,4.3-3.9l2.1,0.4c-0.6,3-2.5,5.4-6.3,5.4
		C1504.2,62.4,1502,58.7,1502,54.1z"/>
	<path class="st8" d="M1517.4,66.4v-1.7c0.3,0,0.6,0,0.8,0c1.3,0,2-0.6,2.5-2.1l0.3-0.8l-4.4-11h2.1l2.9,7.8c0.2,0.6,0.3,1,0.4,1.3
		h0c0.1-0.3,0.2-0.8,0.4-1.3l2.6-7.8h2.1l-4.3,11.9c-1,2.8-2.4,3.8-4.2,3.8C1518.1,66.5,1517.8,66.5,1517.4,66.4z"/>
	<path class="st8" d="M1527.9,56.5c0-3.6,2-5.8,5.1-5.8c2.6,0,4.3,1.5,4.6,4.1l-1.9,0.2c-0.2-1.7-1.2-2.6-2.7-2.6
		c-1.9,0-3.1,1.6-3.1,4.2c0,2.7,1.2,4.2,3.1,4.2c1.5,0,2.5-0.9,2.7-2.7l1.8,0.3c-0.4,2.5-2.1,4-4.6,4
		C1530,62.3,1527.9,60,1527.9,56.5z"/>
	<path class="st8" d="M1542.7,62h-1.9V45.9h1.9V62z"/>
	<path class="st8" d="M1555.6,57h-7.9c0,2.2,1.3,3.6,3.3,3.6c1.4,0,2.5-0.8,3-2.1l1.6,0.7c-0.8,2-2.4,3.1-4.7,3.1
		c-3.2,0-5.1-2-5.1-5.7c0-3.7,1.9-6,5.1-6c3,0,4.7,1.7,4.7,5.1V57z M1553.7,55.2c0-2.1-1-3.1-2.9-3.1c-2,0-3.1,1.3-3.1,3.4h6V55.2z"
		/>
	<path class="st8" d="M1562.6,50.9h2.1V48l1.9-0.8v3.7h2.8v1.6h-2.8v6.2c0,1.3,0.5,1.8,1.6,1.8c0.5,0,0.8-0.1,1.2-0.2V62
		c-0.5,0.1-0.9,0.2-1.6,0.2c-2.4,0-3-1.5-3-3.5v-6.2h-2.1V50.9z"/>
	<path class="st8" d="M1572.3,45.9h1.9V53c0.7-1.6,1.9-2.4,3.7-2.4c2.4,0,3.7,1.6,3.7,4.5V62h-1.9v-6.8c0-2-0.8-3-2.4-3
		c-1.9,0-3,1.4-3,4V62h-1.9V45.9z"/>
	<path class="st8" d="M1590.3,50.6c0.1,0,0.3,0,0.4,0v1.9h-0.1c-1.2,0-1.9,0.3-2.5,0.9c-1.1,1.1-1.1,2.6-1.1,3.9V62h-1.9V50.9h1.8
		v2.5C1587.5,51.9,1588.6,50.6,1590.3,50.6z"/>
	<path class="st8" d="M1591.8,56.5c0-3.6,2.1-5.8,5.2-5.8s5.2,2.2,5.2,5.8s-2.1,5.8-5.2,5.8S1591.8,60.1,1591.8,56.5z M1600.2,56.5
		c0-2.8-1.2-4.2-3.2-4.2c-2,0-3.2,1.4-3.2,4.2s1.2,4.2,3.2,4.2C1599,60.7,1600.2,59.2,1600.2,56.5z"/>
	<path class="st8" d="M1604.9,58v-7.1h1.9v6.9c0,1.9,0.8,2.9,2.3,2.9c1.8,0,3-1.5,3-3.8v-6h1.9V62h-1.8V60c-0.5,1.4-1.9,2.4-3.5,2.4
		C1605.9,62.3,1604.9,60.6,1604.9,58z"/>
	<path class="st8" d="M1624.8,51.8c0.7,0.7,1,1.6,1,2.6c0,2.2-1.5,3.8-4.1,3.8c-0.8,0-1.5-0.2-2.1-0.5c-0.5,0.2-0.8,0.6-0.8,1.1
		c0,0.6,0.5,1.1,1.9,1.1h2.7c2.5,0,3.8,1.1,3.8,3.1c0,2.1-1.7,3.5-5.5,3.5c-3.9,0-5-1.5-5-3.1c0-1,0.6-1.9,1.8-2.3
		c-0.9-0.4-1.3-1.1-1.3-1.9c0-1.1,0.6-1.9,1.6-2.2c-0.7-0.7-1.1-1.6-1.1-2.7c0-2.2,1.5-3.8,4.1-3.8c0.8,0,1.6,0.2,2.2,0.5
		c0.3-1.1,1.2-2,2.7-2c0.2,0,0.5,0,0.7,0.1v1.6c-0.2,0-0.5-0.1-0.8-0.1C1625.7,50.7,1625.1,51.1,1624.8,51.8z M1620.6,61.6
		c-0.3,0-0.6,0-0.9,0c-0.8,0.4-1.2,1-1.2,1.7c0,1.4,1.4,1.8,3.4,1.8c2.7,0,3.4-0.8,3.4-1.9c0-1-0.8-1.6-2.3-1.6H1620.6z
		 M1624.1,54.4c0-1.4-0.9-2.3-2.3-2.3s-2.3,1-2.3,2.3s0.9,2.4,2.3,2.4S1624.1,55.8,1624.1,54.4z"/>
	<path class="st8" d="M1629.8,45.9h1.9V53c0.7-1.6,1.9-2.4,3.7-2.4c2.4,0,3.7,1.6,3.7,4.5V62h-1.9v-6.8c0-2-0.8-3-2.4-3
		c-1.9,0-3,1.4-3,4V62h-1.9V45.9z"/>
	<path class="st8" d="M1646.6,50.9h2.1V48l1.9-0.8v3.7h2.8v1.6h-2.8v6.2c0,1.3,0.5,1.8,1.6,1.8c0.5,0,0.8-0.1,1.2-0.2V62
		c-0.5,0.1-0.9,0.2-1.6,0.2c-2.4,0-3-1.5-3-3.5v-6.2h-2.1V50.9z"/>
	<path class="st8" d="M1656.2,45.9h1.9V53c0.7-1.6,1.9-2.4,3.7-2.4c2.4,0,3.7,1.6,3.7,4.5V62h-1.9v-6.8c0-2-0.8-3-2.4-3
		c-1.9,0-3,1.4-3,4V62h-1.9V45.9z"/>
	<path class="st8" d="M1677.9,57h-7.9c0,2.2,1.3,3.6,3.3,3.6c1.4,0,2.5-0.8,3-2.1l1.6,0.7c-0.8,2-2.4,3.1-4.7,3.1
		c-3.2,0-5.1-2-5.1-5.7c0-3.7,1.9-6,5.1-6c3,0,4.7,1.7,4.7,5.1V57z M1676,55.2c0-2.1-1-3.1-2.9-3.1c-2,0-3.1,1.3-3.1,3.4h6V55.2z"/>
	<path class="st8" d="M1506.3,80.8c0.7,0.7,1,1.6,1,2.6c0,2.2-1.5,3.8-4.1,3.8c-0.8,0-1.5-0.2-2.1-0.5c-0.5,0.2-0.8,0.6-0.8,1.1
		c0,0.6,0.5,1.1,1.9,1.1h2.7c2.5,0,3.8,1.1,3.8,3.1c0,2.1-1.7,3.5-5.5,3.5c-3.9,0-5-1.5-5-3.1c0-1,0.6-1.9,1.8-2.3
		c-0.9-0.4-1.3-1.1-1.3-1.9c0-1.1,0.6-1.9,1.6-2.2c-0.7-0.7-1.1-1.6-1.1-2.7c0-2.2,1.5-3.8,4.1-3.8c0.8,0,1.6,0.2,2.2,0.5
		c0.3-1.1,1.2-2,2.7-2c0.2,0,0.5,0,0.7,0.1v1.6c-0.2,0-0.5-0.1-0.8-0.1C1507.2,79.8,1506.6,80.1,1506.3,80.8z M1502.1,90.7
		c-0.3,0-0.6,0-0.9,0c-0.8,0.4-1.2,1-1.2,1.7c0,1.4,1.4,1.8,3.4,1.8c2.7,0,3.4-0.8,3.4-1.9c0-1-0.8-1.6-2.3-1.6H1502.1z
		 M1505.6,83.5c0-1.4-0.9-2.3-2.3-2.3s-2.3,1-2.3,2.3s0.9,2.4,2.3,2.4S1505.6,84.9,1505.6,83.5z"/>
	<path class="st8" d="M1509.7,88.1c0-1.1,0.6-2.1,1.6-2.6c0.8-0.4,1.9-0.7,3.7-0.9l2.1-0.2v-0.2c0-2.1-0.7-2.9-2.5-2.9
		c-1.5,0-2.5,0.8-2.5,2.2h-2c0.2-2.3,1.9-3.8,4.5-3.8c3.1,0,4.4,1.4,4.4,4.6v3c0,1.7,0.1,2.9,0.4,3.8h-2c-0.1-0.6-0.2-1.3-0.2-2
		c-0.5,1.4-1.9,2.3-3.7,2.3C1511.2,91.4,1509.7,90.1,1509.7,88.1z M1517.1,86.3v-0.6l-3,0.4c-1.7,0.2-2.4,0.8-2.4,1.9
		s0.8,1.8,2.2,1.8C1515.8,89.8,1517.1,88.4,1517.1,86.3z"/>
	<path class="st8" d="M1527.9,79.7c0.1,0,0.3,0,0.4,0v1.9h-0.1c-1.2,0-1.9,0.3-2.5,0.9c-1.1,1.1-1.1,2.6-1.1,3.9v4.8h-1.9V80h1.8
		v2.5C1525,80.9,1526.2,79.7,1527.9,79.7z"/>
	<path class="st8" d="M1532.5,80v1.9c0.6-1.5,1.7-2.3,3.2-2.3c1.5,0,2.7,0.8,3.2,2.3c0.7-1.5,1.9-2.3,3.4-2.3c2.1,0,3.4,1.5,3.4,4.1
		v7.3h-1.9V84c0-1.7-0.7-2.6-2.1-2.6c-1.6,0-2.5,1.2-2.5,3.2v6.6h-1.9v-7.2c0-1.6-0.8-2.5-2.1-2.5c-1.6,0-2.5,1.2-2.5,3.3v6.5h-1.9
		V80H1532.5z"/>
	<path class="st8" d="M1558.1,86.1h-7.9c0,2.2,1.3,3.6,3.3,3.6c1.4,0,2.5-0.8,3-2.1l1.6,0.7c-0.8,2-2.4,3.1-4.7,3.1
		c-3.2,0-5.1-2-5.1-5.7c0-3.7,1.9-6,5.1-6c3,0,4.7,1.7,4.7,5.1V86.1z M1556.2,84.3c0-2.1-1-3.1-2.9-3.1c-2,0-3.1,1.3-3.1,3.4h6V84.3
		z"/>
	<path class="st8" d="M1561.2,80h1.8v2.2c0.7-1.7,2-2.5,3.7-2.5c2.5,0,3.7,1.5,3.7,4.5v6.9h-1.9v-6.8c0-2-0.8-3-2.5-3
		c-1.9,0-3,1.5-3,4v5.8h-1.9V80z"/>
	<path class="st8" d="M1572.2,80h2.1V77l1.9-0.8V80h2.8v1.6h-2.8v6.2c0,1.3,0.5,1.8,1.6,1.8c0.5,0,0.8-0.1,1.2-0.2v1.7
		c-0.5,0.1-0.9,0.2-1.6,0.2c-2.4,0-3-1.5-3-3.5v-6.2h-2.1V80z"/>
	<path class="st8" d="M1580.6,87.7l1.9-0.3c0.3,1.6,1.3,2.5,3,2.5c1.5,0,2.3-0.6,2.3-1.7c0-1.1-0.6-1.6-1.8-1.7l-1.8-0.2
		c-2.2-0.2-3.3-1.5-3.3-3.2c0-2,1.6-3.3,4.2-3.3c2.5,0,4.3,1.3,4.5,3.4l-1.9,0.4c-0.2-1.3-1.2-2.3-2.7-2.3c-1.5,0-2.3,0.6-2.3,1.7
		c0,1,0.6,1.5,2,1.7l1.8,0.2c2.2,0.2,3.1,1.4,3.1,3.2c0,2.1-1.6,3.4-4.3,3.4C1582.7,91.4,1581,90.1,1580.6,87.7z"/>
</g>
</svg>
