<?xml version="1.0" encoding="utf-8"?>
<!-- Generator: Adobe Illustrator 25.2.3, SVG Export Plug-In . SVG Version: 6.00 Build 0)  -->
<svg version="1.1" id="Camada_1" xmlns="http://www.w3.org/2000/svg" xmlns:xlink="http://www.w3.org/1999/xlink" x="0px" y="0px"
	 viewBox="0 0 1711 1806" style="enable-background:new 0 0 1711 1806;" xml:space="preserve">
<style type="text/css">
	.st0{fill:none;stroke:#00BFFF;stroke-width:3;stroke-linecap:round;stroke-linejoin:round;stroke-miterlimit:10;}
	.st1{fill:#FFFFFF;stroke:#FF931E;stroke-width:3;stroke-linecap:round;stroke-linejoin:round;stroke-miterlimit:10;}
	.st2{fill:#D7F7FF;stroke:#00BFFF;stroke-width:3;stroke-linecap:round;stroke-linejoin:round;stroke-miterlimit:10;}
	.st3{fill:#FFFFFF;}
	.st4{fill:#FF931E;}
	.st5{fill:none;stroke:#FF931E;stroke-width:3;stroke-miterlimit:10;}
	.st6{fill:none;stroke:#FF931E;stroke-width:3;stroke-miterlimit:10;stroke-dasharray:21.53,21.53;}
	.st7{fill:none;}
	.st8{fill:#00BDFF;}
	.st9{font-family:'GTAmericaMono-Regular';}
	.st10{font-size:31.9135px;}
	.st11{font-size:31.9105px;}
</style>
<g id="comic_seq_8">
	<g id="guy">
		<path id="Vector" class="st0" d="M267,406.5v663.2h312.8c0,0,33.9-1.3,33.9-29c0-27.7-35.6-29-35.6-29h-48.8V433.5"/>
		<path id="Vector_2" class="st0" d="M266.3,601c-89.7,0-112.1-72.5-112.1-134.5c0-36.9,17.1-137.1,100.2-137.1
			c83.1,0,205.5,0,258.4,0c52.8,0,62.1,71.2,62.1,112.1"/>
		<path id="Vector_3" class="st0" d="M632.9,316.2v162.7c0,0-1.3,60.1-58,60.1c-44.8,0-45.5-34.4-45.5-34.4"/>
		<path id="Vector_4" class="st0" d="M551.2,346.5v-54.1c0,0-1.3-39.5,43.5-39.5s75.6,0,75.6,0S687,254.2,687,270
			c0,15.8-11.9,15.8-11.9,15.8h-22.4"/>
		<path id="Vector_5" class="st0" d="M613.8,302.7c4.6-14.2,15.2-18.2,27-18.2c11.9,0,26.4,5.3,25.8,23.1c-0.2,7.2,0,37.7,0,37.7
			s0.6,14.4-15.3,15.7c-13.1,1.1-18.5-11.9-18.5-11.9"/>
		<path id="Vector_6" class="st0" d="M589.4,292.5c4-9.2,11.9-17.3,22.4-18.5c11.9-1.3,17.6,4.6,23.6,10.6"/>
		<path id="Vector_7" class="st0" d="M389.6,279.3c33.1,0,60-26.9,60-60s-26.9-60-60-60c-33.1,0-60,26.9-60,60
			S356.5,279.3,389.6,279.3z"/>
		<path id="Vector_8" class="st0" d="M445.9,198.5h15.8v43.9h-15.8"/>
		<path id="Vector_9" class="st0" d="M329.6,212h120"/>
		<path id="Vector_10" class="st0" d="M329.6,223.9h120"/>
		<path id="Vector_11" class="st0" d="M407.4,276.6l15.8,52.7"/>
		<path id="Vector_12" class="st0" d="M369.2,275.3L356,329.4"/>
		<path id="Vector_13" class="st0" d="M392.9,1069v-389h-22.7"/>
		<path id="Vector_14" class="st0" d="M474.2,614.2V329.4h-32.9v284.8H330.8V329.4h-32.9v284.8h-30.3v33h261.7v-33H474.2z"/>
	</g>
	<g id="machine">
		<path id="Vector_15" class="st0" d="M777.9,67.3V2.4h716.9l0.4,64.6"/>
		<path id="Vector_16" class="st0" d="M777.9,934.5V1069h97.6v-55.4"/>
		<path id="Vector_17" class="st0" d="M861.7,67H1544v868H551.1V539"/>
		<path id="Vector_18" class="st0" d="M832,67h29.7"/>
		<path id="Vector_19" class="st0" d="M551.1,287.2V67h280.6"/>
		<path id="Vector_20" class="st0" d="M1511.1,67v867.6"/>
		<path id="Vector_21" class="st0" d="M1255.2,67v867.6"/>
		<path id="Vector_22" class="st0" d="M832,67v867.6"/>
		<path id="Vector_23" class="st0" d="M777.9,936.5v-2"/>
		<path id="Vector_24" class="st0" d="M777.9,67v-6.5"/>
		<path id="Vector_25" class="st0" d="M832.7,1069v-55.8h435.1v55.8h80.4v-55.8h108v55.8"/>
		<path id="Vector_26" class="st0" d="M996.8,1013.7v55.4"/>
		<path id="Vector_27" class="st0" d="M1417.4,1013.7v55.4h77.4V934.7"/>
		<path id="Vector_28" class="st0" d="M959.9,1013.7v55.4h75.2v-55.4"/>
		<path id="Vector_29" class="st0" d="M1308,936V1069"/>
		<path id="Vector_30" class="st0" d="M1308,2.4v63.4"/>
		<path id="Vector_31" class="st0" d="M799.3,66v870.5"/>
	</g>
	<g id="screens">
		<path id="Vector_32" class="st0" d="M1119.7,283.2h-156c-7.5,0-13.6-6.1-13.6-13.6V120.2c0-7.5,6.1-13.6,13.6-13.6h156
			c7.5,0,13.6,6.1,13.6,13.6v149.4C1133.3,277.1,1127.2,283.2,1119.7,283.2z"/>
		<path id="Vector_33" class="st0" d="M1135,538H952c-8.8,0-16-6.1-16-13.6V329.6c0-7.5,7.2-13.6,16-13.6h183c8.8,0,16,6.1,16,13.6
			v194.8C1151,531.9,1143.8,538,1135,538z"/>
		<path id="Vector_34" class="st0" d="M1135,886H952c-8.8,0-16-6.1-16-13.6V584.6c0-7.5,7.2-13.6,16-13.6h183c8.8,0,16,6.1,16,13.6
			v287.7C1151,879.9,1143.8,886,1135,886z"/>
	</g>
	<g id="Buttons">
		<path id="Vector_35" class="st1" d="M1221.1,186.6l-37.4-21.6c-4.3-2.5-9.6,0.6-9.6,5.5v43.2c0,4.9,5.3,8,9.6,5.5l37.4-21.6
			C1225.4,195.2,1225.4,189.1,1221.1,186.6z"/>
		<path id="Vector_36" class="st1" d="M867.4,186.6l37.4-21.6c4.3-2.5,9.6,0.6,9.6,5.5v43.2c0,4.9-5.3,8-9.6,5.5l-37.4-21.6
			C863.2,195.2,863.2,189.1,867.4,186.6z"/>
		<path id="Vector_37" class="st1" d="M1221.1,421.7l-37.4-21.6c-4.3-2.5-9.6,0.6-9.6,5.5v43.2c0,4.9,5.3,8,9.6,5.5l37.4-21.6
			C1225.4,430.3,1225.4,424.2,1221.1,421.7z"/>
		<path id="Vector_38" class="st1" d="M867.4,421.7l37.4-21.6c4.3-2.5,9.6,0.6,9.6,5.5v43.2c0,4.9-5.3,8-9.6,5.5l-37.4-21.6
			C863.2,430.3,863.2,424.2,867.4,421.7z"/>
		<path id="Vector_39" class="st1" d="M1221.1,710.5l-37.4-21.6c-4.3-2.5-9.6,0.6-9.6,5.5v43.2c0,4.9,5.3,8,9.6,5.5l37.4-21.6
			C1225.4,719.1,1225.4,713,1221.1,710.5z"/>
		<path id="Vector_40" class="st1" d="M867.4,710.5l37.4-21.6c4.3-2.5,9.6,0.6,9.6,5.5v43.2c0,4.9-5.3,8-9.6,5.5l-37.4-21.6
			C863.2,719.1,863.2,713,867.4,710.5z"/>
	</g>
	<g id="text_blob">
		<path id="Vector_41" class="st2" d="M466.5,1299.3c19,0,34.4-15.4,34.4-34.4V982.3c0-19-15.4-34.4-34.4-34.4H36.6
			c-19,0-34.4,15.4-34.4,34.4v282.6c0,19,15.4,34.4,34.4,34.4h14.8v37.5H36.6c-19,0-34.4,15.4-34.4,34.4v288.7
			c0,19,15.4,34.4,34.4,34.4h429.8c19,0,34.4-15.4,34.4-34.4v-288.7c0-19-15.4-34.4-34.4-34.4H74.7v-37.5H466.5z"/>
	</g>
	<g id="speech_bubble">
		<g id="Group">
			<path id="Vector_42" class="st3" d="M1667.7,129.3h-149.8c-23.8,0-43.1-19.3-43.1-43.1V60c0-23.8,19.3-43.1,43.1-43.1h149.8
				c23.8,0,43.2,19.3,43.2,43.1v26.1C1710.9,110,1691.6,129.3,1667.7,129.3z"/>
			<path id="Vector_43" class="st4" d="M1667.7,16.9H1641v3.8h26.7V16.9z M1614.3,16.9h-26.7v3.8h26.7V16.9z M1560.9,16.9h-26.7v3.8
				h26.7V16.9z M1507.6,18.1c-2.6,0.6-5.1,1.5-7.5,2.6c-0.1,0-0.1,0.1-0.2,0.1c-0.2,0.1-0.3,0.2-0.5,0.2c0,0-0.1,0-0.1,0.1
				c0,0-0.1,0-0.1,0.1c0,0,0,0,0,0c0,0-0.1,0-0.1,0c0,0,0,0,0,0c0,0,0,0-0.1,0c0,0,0,0,0,0c0,0-0.1,0-0.1,0c0,0,0,0,0,0
				c0,0,0,0-0.1,0c0,0,0,0,0,0c0,0,0,0-0.1,0c0,0,0,0,0,0c0,0,0,0-0.1,0c0,0,0,0,0,0c0,0-0.1,0-0.1,0c0,0,0,0,0,0c0,0-0.1,0-0.1,0
				c0,0,0,0,0,0c0,0-0.1,0-0.1,0c0,0,0,0,0,0c0,0-0.1,0-0.1,0c0,0,0,0,0,0c0,0,0,0-0.1,0s0,0,0,0c0,0,0,0,0,0c0,0,0,0,0,0
				c0,0,0,0,0,0c0,0,0,0,0,0c0,0,0,0,0,0s0,0,0,0c0,0,0,0,0,0c0,0,0,0-0.1,0c0,0,0,0,0,0c0,0,0,0,0,0s0,0,0,0c0,0,0,0-0.1,0
				c0,0,0,0,0,0c0,0,0,0,0,0c0,0,0,0-0.1,0s0,0,0,0c0,0,0,0,0,0c0,0,0,0,0,0c0,0,0,0,0,0c0,0,0,0-0.1,0c0,0,0,0,0,0c0,0,0,0,0,0
				c0,0,0,0,0,0c0,0,0,0-0.1,0s0,0,0,0c0,0,0,0,0,0c0,0,0,0,0,0c0,0,0,0-0.1,0c0,0,0,0,0,0c0,0,0,0,0,0c0,0,0,0,0,0c0,0,0,0-0.1,0
				s0,0,0,0c0,0,0,0,0,0s0,0,0,0c0,0,0,0,0,0c0,0,0,0,0,0c0,0,0,0,0,0c0,0,0,0,0,0c0,0,0,0,0,0s0,0,0,0c0,0,0,0,0,0c0,0,0,0,0,0
				c0,0,0,0,0,0c0,0,0,0,0,0c0,0,0,0,0,0s0,0,0,0c0,0,0,0,0,0s0,0,0,0c0,0,0,0,0,0c0,0,0,0,0,0c0,0,0,0,0,0c0,0,0,0,0,0c0,0,0,0,0,0
				s0,0,0,0c0,0,0,0,0,0c0,0,0,0,0,0c0,0,0,0,0,0c0,0,0,0,0,0c0,0,0,0-0.1,0s0,0,0,0c0,0,0,0,0,0s0,0,0,0c0,0,0,0-0.1,0c0,0,0,0,0,0
				c0,0,0,0,0,0c0,0,0,0,0,0c0,0,0,0-0.1,0s0,0,0,0c0,0,0,0,0,0c0,0,0,0,0,0c0,0,0,0-0.1,0c0,0,0,0,0,0c0,0,0,0,0,0c0,0,0,0,0,0
				c0,0,0,0-0.1,0s0,0,0,0c0,0,0,0,0,0c0,0,0,0,0,0c0,0,0,0-0.1,0c0,0,0,0,0,0c0,0,0,0,0,0s0,0,0,0s0,0,0,0c0,0,0,0,0,0c0,0,0,0,0,0
				s0,0,0,0c0,0,0,0,0,0c0,0,0,0,0,0c0,0,0,0,0,0c0,0,0,0,0,0c0,0,0,0,0,0s0,0,0,0c0,0,0,0,0,0c0,0,0,0,0,0c0,0,0,0,0,0s0,0,0,0
				c0,0,0,0,0,0c0,0,0,0,0,0c0,0,0,0,0,0c0,0,0,0,0,0c0,0,0,0,0,0s0,0,0,0c0,0,0,0,0,0c0,0,0,0,0,0c0,0,0,0,0,0c0,0,0,0,0,0s0,0,0,0
				c0,0,0,0,0,0c0,0,0,0,0,0s0,0,0,0c0,0,0,0,0,0s0,0,0,0c0,0,0,0,0,0c0,0,0,0,0,0c0,0,0,0,0,0c0,0,0,0,0,0c0,0,0,0,0,0s0,0,0,0
				c0,0,0,0,0,0c0,0,0,0,0,0l0,0h0c0,0,0,0,0,0c0,0,0,0,0,0s0,0,0,0c0,0,0,0,0,0c0,0,0,0,0,0c0,0,0,0,0,0c0,0,0,0,0,0c0,0,0,0,0,0
				c0,0,0,0,0,0s0,0,0,0s0,0,0,0c0,0,0,0,0,0s0,0,0,0c0,0,0,0,0,0c0,0,0,0,0,0l0,0c0,0,0,0,0,0s0,0,0,0c0,0,0,0,0,0c0,0,0,0,0,0
				c0,0,0,0,0,0s0,0,0,0l0,0c0,0,0,0,0,0c0,0,0,0,0,0c0,0,0,0,0,0c0,0,0,0,0,0c0,0,0,0,0,0c0,0,0,0,0,0s0,0,0,0s0,0,0,0c0,0,0,0,0,0
				s0,0,0,0c0,0,0,0,0,0l0,0c0,0,0,0,0,0c0,0,0,0,0,0s0,0,0,0c0,0,0,0,0,0c0,0,0,0,0,0c0,0,0,0,0,0s0,0,0,0s0,0,0,0c0,0,0,0,0,0
				c0,0,0,0,0,0l0,0c0,0,0,0,0,0l0,0c0,0,0,0,0,0l0,0c0,0,0,0,0,0s0,0,0,0c0,0,0,0,0,0l0,0h0l0,0c0,0,0,0,0,0c0,0,0,0,0,0
				c0,0,0,0,0,0c0,0,0,0,0,0l0,0c0,0,0,0,0,0l0,0c0,0,0,0,0,0s0,0,0,0c0,0,0,0,0,0c0,0,0,0,0,0c0,0,0,0,0,0l0,0c0,0,0,0,0,0
				c0,0,0,0,0,0s0,0,0,0c0,0,0,0,0,0l0,0c0,0,0,0,0,0l0,0c0,0,0,0,0,0s0,0,0,0c0,0,0,0,0,0c0,0,0,0,0,0c0,0,0,0,0,0s0,0,0,0s0,0,0,0
				s0,0,0,0c0,0,0,0-0.1,0c0,0,0,0,0,0c0,0,0,0,0,0l0,0c0,0,0,0,0,0c0,0,0,0,0,0c0,0,0,0,0,0c0,0,0,0,0,0l0,0c0,0,0,0,0,0l0,0
				c0,0,0,0,0,0c0,0,0,0,0,0c0,0,0,0,0,0l0,0c0,0,0,0,0,0l0,0c0,0,0,0,0,0c0,0,0,0,0,0c0,0,0,0,0,0c0,0,0,0,0,0l0,0c0,0,0,0,0,0
				c0,0,0,0,0,0s0,0,0,0c0,0,0,0,0,0c0,0,0,0,0,0c0,0,0,0,0,0s0,0,0,0l0,0c0,0,0,0,0,0c0,0,0,0,0,0c0,0,0,0,0,0c0,0,0,0,0,0s0,0,0,0
				l0,0c0,0,0,0,0,0c0,0,0,0-0.1,0c0,0,0,0,0,0c0,0,0,0,0,0s0,0,0,0s0,0,0,0s0,0,0,0c0,0,0,0-0.1,0c0,0,0,0,0,0c0,0,0,0,0,0s0,0,0,0
				l0,0c0,0,0,0,0,0c0,0,0,0-0.1,0c0,0,0,0,0,0s0,0,0,0s0,0,0,0l0,0c0,0,0,0,0,0c0,0,0,0,0,0s0,0,0,0c0,0,0,0,0,0l0,0c0,0,0,0,0,0
				l0,0c0,0,0,0,0,0c0,0,0,0,0,0s0,0,0,0c0,0,0,0,0,0l0,0c0,0,0,0,0,0l0,0c0,0,0,0,0,0l0,0l0,0l0,0c0,0,0,0,0,0c0,0,0,0,0,0
				c0,0,0,0,0,0l0,0c0,0,0,0,0,0c0,0,0,0,0,0c0,0,0,0,0,0l0,0c0,0,0,0,0,0l0,0c0,0,0,0,0,0l0,0c0,0,0,0,0,0c0,0,0,0,0,0c0,0,0,0,0,0
				c0,0,0,0,0,0l0,0c0,0,0,0,0,0l0,0c0,0,0,0,0,0c0,0,0,0,0,0c0,0,0,0,0,0c0,0,0,0,0,0l0,0c0,0,0,0,0,0l0,0c0,0,0,0,0,0c0,0,0,0,0,0
				s0,0,0,0s0,0,0,0l0,0c0,0,0,0,0,0l0,0c0,0,0,0,0,0s0,0,0,0c0,0,0,0,0,0c0,0,0,0,0,0l0,0c0,0,0,0,0,0l0,0c0,0,0,0,0,0c0,0,0,0,0,0
				s0,0,0,0s0,0,0,0l0,0c0,0,0,0,0,0l0,0c0,0,0,0,0,0c0,0,0,0,0,0s0,0,0,0c0,0,0,0,0,0l0,0c0,0,0,0,0,0l0,0c0,0,0,0,0,0c0,0,0,0,0,0
				c0,0,0,0,0,0l0,0c0,0,0,0,0,0l0,0c0,0,0,0,0,0l0,0c0,0,0,0,0,0c0,0,0,0,0,0s0,0,0,0s0,0,0,0l0,0c0,0,0,0,0,0l0,0c0,0,0,0,0,0
				c0,0,0,0,0,0l0,0c0,0,0,0,0,0l0,0c0,0,0,0,0,0l0,0c0,0,0,0,0,0c0,0,0,0,0,0c0,0,0,0,0,0l0,0c0,0,0,0,0,0l0,0c0,0,0,0,0,0l0,0
				c0,0,0,0,0,0c0,0,0,0,0,0c0,0,0,0,0,0l0,0c0,0,0,0,0,0l0,0c0,0,0,0,0,0l0,0c0,0,0,0,0,0c0,0,0,0,0,0c0,0,0,0,0,0l0,0c0,0,0,0,0,0
				l0,0c0,0,0,0,0,0l0,0c0,0,0,0,0,0c0,0,0,0,0,0c0,0,0,0,0,0l0,0c0,0,0,0,0,0l0,0c0,0,0,0,0,0l0,0c0,0,0,0,0,0c0,0,0,0,0,0
				c0,0,0,0,0,0l0,0l0,0c0,0,0,0,0,0c0,0,0,0,0,0c0,0,0,0,0,0c0,0,0,0-0.1,0c0,0,0,0,0,0l0,0c0,0,0,0,0,0c0,0,0,0,0,0c0,0,0,0,0,0
				l0,0l0,0c0,0,0,0,0,0l0,0c0,0,0,0,0,0l0,0c0,0,0,0,0,0c0,0,0,0,0,0l0,0l0,0c0,0,0,0,0,0l0,0c0,0,0,0,0,0l0,0c0,0,0,0,0,0
				c0,0,0,0,0,0l0,0l0,0c0,0,0,0,0,0l0,0c0,0,0,0,0,0c0,0,0,0,0,0c0,0,0,0,0,0l0,0c0,0,0,0,0,0c0,0,0,0,0,0c0,0,0,0,0,0l0,0
				c0,0,0,0,0,0l0,0c0,0,0,0,0,0l0,0c0,0,0,0,0,0c0,0,0,0,0,0c0,0,0,0,0,0l0,0c0,0,0,0,0,0l0,0c0,0,0,0,0,0l0,0c0,0,0,0,0,0
				c0,0,0,0,0,0c0,0,0,0,0,0l0,0c0,0,0,0,0,0l0,0c0,0,0,0,0,0l0,0l0,0l0,0c0,0,0,0,0,0l0,0l0,0c0,0,0,0,0,0l0,0c0,0,0,0,0,0
				c0,0,0,0,0,0c0,0,0,0,0,0l0,0l0,0l0,0c0,0,0,0,0,0c0,0,0,0,0,0c0,0,0,0,0,0c0,0,0,0,0,0c0,0,0,0,0,0l0,0c0,0,0,0,0,0l0,0
				c0,0,0,0,0,0l0,0c0,0,0,0,0,0c0,0,0,0,0,0c0,0,0,0,0,0l0,0l0,0l0,0c0,0,0,0,0,0l0,0c0,0,0,0,0,0c0,0,0,0,0,0c0,0,0,0,0,0l0,0
				c0,0,0,0,0,0l0,0c0,0,0,0,0,0l0,0c0,0,0,0,0,0c0,0,0,0,0,0c0,0,0,0,0,0l0,0c0,0,0,0,0,0l0,0c0,0,0,0,0,0l0,0c0,0,0,0,0,0
				c0,0,0,0,0,0c0,0,0,0,0,0l0,0c0,0,0,0,0,0l0,0c0,0,0,0,0,0l0,0c0,0,0,0,0,0l0,0c0,0,0,0,0,0l0,0c0,0,0,0,0,0l0,0c0,0,0,0,0,0
				c0,0,0,0,0,0l0,0c0,0,0,0,0,0l0,0c0,0,0,0,0,0c0,0,0,0,0,0.1l0,0c0,0,0,0,0,0l0,0c0,0,0,0,0,0l0,0c0,0,0,0,0,0l0,0l0,0
				c0,0,0,0,0,0l0,0c0,0,0,0,0,0l0,0c0,0,0,0,0,0l0,0c0,0,0,0,0,0l0,0c0,0,0,0,0,0l0,0l0,0c0,0,0,0,0,0.1l0,0l0,0l0,0c0,0,0,0,0,0
				l0,0l0,0c0,0,0,0-0.1,0.1l0,0c0,0,0,0-0.1,0.1l0,0l0,0c0,0-0.1,0.1-0.1,0.1l0,0c0,0,0,0.1-0.1,0.1l0,0c0,0-0.1,0.1-0.1,0.1l0,0
				c0,0-0.1,0.1-0.1,0.1l0,0c0,0,0,0.1-0.1,0.1l0,0c0,0-0.1,0.1-0.1,0.1l0,0c0,0-0.1,0.1-0.1,0.1c0,0,0,0.1-0.1,0.1l0,0
				c-0.8,0.8-1.5,1.6-2.2,2.4l2.9,2.5c5.4-6.3,12.4-10.6,20.4-12.5L1507.6,18.1z M1474.9,56.1c-0.1,0.7-0.1,1.5-0.1,2.2c0,0,0,0,0,0
				s0,0,0,0c0,0,0,0,0,0c0,0.1,0,0.1,0,0.2c0,0,0,0,0,0s0,0,0,0c0,0,0,0,0,0c0,0,0,0,0,0c0,0,0,0,0,0s0,0,0,0c0,0,0,0.1,0,0.1
				c0,0,0,0,0,0c0,0,0,0,0,0c0,0,0,0,0,0v0c0,0,0,0,0,0v0c0,0,0,0,0,0v0c0,0,0,0,0,0v0c0,0,0,0,0,0v0c0,0,0,0,0,0v0c0,0,0,0.1,0,0.1
				c0,0,0,0,0,0s0,0,0,0v0v0v0c0,0,0,0,0,0v0v0v0v0v0v0v0v0v0v0c0,0,0,0,0,0v0c0,0,0,0,0,0v0v0v0v0v0v0v0v0v0c0,0,0,0,0,0v0
				c0,0,0,0,0,0v0c0,0,0,0,0,0v0c0,0,0,0,0,0c0,0,0,0,0,0v0c0,0,0,0,0,0v0c0,0,0,0,0,0v0c0,0,0,0,0,0v0c0,0,0,0,0,0v0c0,0,0,0,0,0v0
				c0,0,0,0,0,0v0c0,0,0,0,0,0v0c0,0,0,0,0,0v22.7h3.8V60c0-1.2,0.1-2.4,0.2-3.6L1474.9,56.1z M1484.1,106.4l-3.3,2
				c3.6,6,8.6,11,14.5,14.6c0.1,0.1,0.2,0.1,0.2,0.1c0,0,0.1,0.1,0.1,0.1c0,0,0.1,0,0.1,0.1c0,0,0.1,0,0.1,0.1c0,0,0,0,0,0s0,0,0,0
				c0,0,0,0,0.1,0c0,0,0,0,0,0l0,0l0,0c0,0,0,0,0,0l0,0l0,0c0,0,0,0,0.1,0.1c0,0,0,0,0,0l0,0c0,0,0,0,0.1,0c0,0,0,0,0,0l0,0
				c0,0,0,0,0,0l0,0c0,0,0,0,0,0l0,0c0,0,0,0,0,0l0,0c0,0,0,0,0,0l0,0c0,0,0,0,0,0l0,0c0,0,0,0,0,0l0,0c0,0,0,0,0,0c0,0,0,0,0,0
				c0,0,0,0,0,0c0,0,0,0,0,0c0,0,0,0,0,0c0,0,0,0,0,0c0,0,0,0,0,0h0c0,0,0,0,0,0c0,0,0,0,0,0c0,0,0,0,0,0c0,0,0,0,0,0c0,0,0,0,0,0
				c0,0,0,0,0,0c0,0,0,0,0,0c0,0,0,0,0,0c0,0,0,0,0,0c0,0,0,0,0,0c0,0,0,0,0,0c0,0,0,0,0,0c0,0,0,0,0,0c0,0,0,0,0,0c0,0,0,0,0,0
				c0,0,0,0,0,0c0,0,0,0,0,0c0,0,0,0,0,0c0,0,0,0,0,0c0,0,0,0,0,0c0,0,0,0,0,0c0,0,0,0,0,0c0,0,0,0,0,0c0,0,0,0,0,0c0,0,0,0,0,0
				c0,0,0,0,0,0c0,0,0,0,0,0c0,0,0,0,0,0h0c0,0,0,0,0,0c0,0,0,0,0,0c0,0,0,0,0,0c0,0,0,0,0,0c0,0,0,0,0,0c0,0,0,0,0,0c0,0,0,0,0,0
				c0,0,0,0,0,0c0,0,0,0,0,0c0,0,0,0,0,0c0,0,0,0,0,0c0,0,0,0,0,0c0,0,0,0,0,0h0c0,0,0,0,0,0c0,0,0,0,0,0c0,0,0,0,0,0h0c0,0,0,0,0,0
				h0c0,0,0,0,0,0c0,0,0,0,0,0c0,0,0,0,0,0c0,0,0,0,0,0c0,0,0,0,0,0l0,0c0,0,0,0,0,0s0,0,0,0c0,0,0,0,0,0c0,0,0,0,0,0c0,0,0,0,0,0
				c0,0,0,0,0,0l0,0c0,0,0,0,0,0s0,0,0,0c0,0,0,0,0,0c0,0,0,0,0.1,0c0,0,0,0,0,0s0,0,0,0c0,0,0,0,0,0s0,0,0,0c0,0,0,0,0,0
				c0,0,0,0,0,0s0,0,0,0c0,0,0,0,0,0c0,0,0,0,0,0s0,0,0,0c0,0,0,0,0,0c0,0,0,0,0,0c0,0,0,0,0,0c0,0,0,0,0.1,0c0,0,0,0,0,0
				c0,0,0,0,0,0c0,0,0.1,0,0.1,0c0,0,0,0,0,0c0,0,0.1,0,0.1,0c0,0,0,0,0,0c0,0,0.1,0,0.1,0c0,0,0,0,0,0c0.6,0.3,1.3,0.6,1.9,0.9
				l1.5-3.5C1494.7,119,1488.3,113.3,1484.1,106.4z M1553.5,125.5h-26.7v3.8h26.7V125.5z M1606.9,125.5h-26.7v3.8h26.7V125.5z
				 M1660.3,125.5h-26.7v3.8h26.7V125.5z M1702.2,105.2c-3.9,7.1-10.1,12.9-17.4,16.5l1.7,3.4c3.5-1.7,6.8-3.8,9.7-6.4
				c0,0,0,0,0.1-0.1l0,0c0,0,0.1-0.1,0.1-0.1l0,0c0.1-0.1,0.1-0.1,0.2-0.2c0,0,0,0,0.1-0.1c0,0,0,0,0,0c0,0,0.1-0.1,0.1-0.1
				c0,0,0.1-0.1,0.1-0.1c0,0,0,0,0,0c0,0,0.1-0.1,0.1-0.1l0,0c0,0,0,0,0-0.1l0,0l0,0c0,0,0.1,0,0.1-0.1l0,0l0,0c0,0,0,0,0.1-0.1l0,0
				c0,0,0,0,0-0.1l0,0c0,0,0,0,0,0l0,0l0,0c0,0,0,0,0-0.1l0,0l0,0c0,0,0,0,0.1-0.1l0,0l0,0c0,0,0,0,0-0.1l0,0l0,0c0,0,0,0,0.1-0.1
				l0,0l0,0c0,0,0,0,0.1-0.1l0,0l0,0c0,0,0,0,0-0.1l0,0l0,0c0,0,0,0,0,0c0,0,0,0,0.1-0.1l0,0l0,0c0,0,0,0,0.1-0.1l0,0l0,0
				c0,0,0,0,0-0.1l0,0l0,0l0,0c0,0,0,0,0.1-0.1l0,0l0,0c0,0,0,0,0.1-0.1l0,0l0,0c0,0,0,0,0,0l0,0l0,0l0,0c0,0,0,0,0.1-0.1l0,0
				c0,0,0,0,0,0l0,0c0,0,0,0,0,0c0,0,0,0,0-0.1c0,0,0,0,0,0l0,0c0,0,0,0,0,0l0,0c0,0,0,0,0-0.1l0,0c0,0,0,0,0,0l0,0c0,0,0,0,0,0
				s0,0,0.1-0.1c0,0,0,0,0,0l0,0c0,0,0,0,0,0l0,0c0,0,0,0,0.1-0.1l0,0c0,0,0,0,0,0l0,0c0,0,0,0,0,0c0,0,0,0,0.1,0l0,0l0,0
				c0,0,0,0,0-0.1l0,0l0,0l0,0c0,0,0,0,0,0l0,0c0,0,0,0,0,0l0,0c0,0,0,0,0,0l0,0c0,0,0,0,0,0l0,0c0,0,0,0,0,0l0,0c0,0,0,0,0,0l0,0
				c0,0,0,0,0,0l0,0c0,0,0,0,0,0l0,0l0,0c0,0,0,0,0,0l0,0l0,0c0,0,0,0,0,0l0,0c0,0,0,0,0,0l0,0c0,0,0,0,0,0l0,0c0,0,0,0,0,0l0,0
				c0,0,0,0,0-0.1l0,0c0,0,0,0,0,0l0,0c0,0,0,0,0.1-0.1l0,0l0,0c0,0,0,0,0.1-0.1l0,0c0,0,0,0,0,0l0,0c0,0,0,0,0-0.1l0,0c0,0,0,0,0,0
				l0,0c0,0,0,0,0,0c0,0,0,0,0.1-0.1l0,0c0,0,0,0,0,0l0,0c0,0,0,0,0-0.1l0,0l0,0c0,0,0,0,0-0.1l0,0l0,0c0,0,0,0,0.1-0.1l0,0l0,0
				c0,0,0-0.1,0.1-0.1l0,0c0,0,0-0.1,0.1-0.1l0,0c0,0,0-0.1,0.1-0.1l0,0l0,0c0,0,0,0,0-0.1l0,0l0,0c0,0,0,0,0.1-0.1l0,0l0,0
				c0,0,0,0,0.1-0.1l0,0c0,0,0-0.1,0.1-0.1l0,0l0,0c0,0,0-0.1,0.1-0.1c1.8-2.1,3.3-4.4,4.7-6.8L1702.2,105.2z M1710.5,54.6l-3.8,0.5
				c0.2,1.6,0.3,3.3,0.3,5v21.2h3.8V60c0,0,0,0,0,0s0,0,0,0c0,0,0,0,0,0c0,0,0,0,0,0s0,0,0,0s0,0,0,0c0,0,0,0,0-0.1c0,0,0,0,0,0
				c0,0,0,0,0,0c0,0,0,0,0,0c0,0,0,0,0,0c0,0,0,0,0-0.1c0,0,0,0,0,0c0,0,0,0,0,0c0,0,0,0,0,0s0,0,0,0s0,0,0,0c0,0,0,0,0,0s0,0,0,0
				s0,0,0,0c0,0,0,0,0,0c0,0,0,0,0,0c0,0,0,0,0,0c0,0,0,0,0,0c0,0,0,0,0,0c0,0,0,0,0,0c0,0,0,0,0,0s0,0,0,0c0,0,0,0,0,0c0,0,0,0,0,0
				s0,0,0,0c0,0,0,0,0,0s0,0,0,0s0,0,0,0s0,0,0,0s0,0,0,0c0,0,0,0,0,0c0,0,0,0,0,0s0,0,0,0c0,0,0,0,0,0s0,0,0,0s0,0,0,0c0,0,0,0,0,0
				s0,0,0,0c0,0,0,0,0,0c0,0,0,0,0,0c0,0,0,0,0,0c0,0,0,0,0,0s0,0,0,0c0,0,0,0,0,0s0,0,0,0c0,0,0,0,0,0c0,0,0,0,0,0c0,0,0,0,0,0
				c0,0,0,0,0,0c0,0,0,0,0,0c0,0,0,0,0,0s0,0,0,0s0,0,0,0c0,0,0,0,0,0c0,0,0,0,0,0v0c0,0,0,0,0,0s0,0,0,0c0,0,0,0,0,0c0,0,0,0,0,0
				c0,0,0,0,0,0v0c0,0,0,0,0,0v0c0,0,0,0,0,0v0c0,0,0,0,0,0c0,0,0,0,0,0c0,0,0,0,0,0c0,0,0,0,0,0c0,0,0,0,0,0v0c0,0,0,0,0,0v0
				c0,0,0,0,0,0v0c0,0,0,0,0,0v0c0,0,0,0,0,0v0c0,0,0,0,0,0v0c0,0,0,0,0,0v0c0,0,0,0,0,0v0c0,0,0,0,0,0v0v0v0c0,0,0,0,0,0v0v0
				c0,0,0,0,0,0v0v0c0,0,0,0,0,0v0v0c0,0,0,0,0,0v0v0v0c0,0,0,0,0,0v0v0c0,0,0,0,0,0v0v0c0,0,0,0,0,0v0v0c0,0,0,0,0,0c0,0,0,0,0,0v0
				c0,0,0,0,0,0v0v0c0,0,0,0,0,0s0,0,0,0s0,0,0,0v0c0,0,0,0,0,0s0,0,0,0c0,0,0,0,0,0c0,0,0,0,0-0.1c0,0,0,0,0,0c0,0,0,0,0,0s0,0,0,0
				c0,0,0,0,0-0.1c0,0,0-0.1,0-0.1C1710.7,56.2,1710.6,55.4,1710.5,54.6z M1676.6,17.8l-0.8,3.7c8,1.7,15.2,5.7,20.8,11.8l2.8-2.6
				c-3.4-3.7-7.5-6.8-12-9.1c-0.1,0-0.2-0.1-0.2-0.1c0,0-0.1,0-0.1-0.1c0,0-0.1,0-0.1-0.1c0,0-0.1,0-0.1,0c0,0,0,0,0,0
				c0,0-0.1,0-0.1,0c0,0,0,0,0,0c0,0,0,0,0,0c0,0,0,0-0.1,0c0,0,0,0,0,0s0,0,0,0c0,0,0,0-0.1,0c0,0,0,0,0,0c0,0,0,0,0,0c0,0,0,0,0,0
				c0,0,0,0-0.1,0c0,0,0,0,0,0s0,0,0,0c0,0,0,0,0,0c0,0,0,0,0,0c0,0,0,0,0,0c0,0-0.1,0-0.1,0c0,0,0,0,0,0c0,0,0,0,0,0s0,0,0,0
				c0,0,0,0,0,0c0,0,0,0,0,0c0,0,0,0,0,0s0,0,0,0c0,0,0,0,0,0c0,0,0,0,0,0c0,0,0,0,0,0c0,0,0,0,0,0c0,0,0,0,0,0h0c0,0,0,0,0,0h0
				c0,0,0,0,0,0c0,0,0,0,0,0c0,0,0,0,0,0c0,0,0,0,0,0h0c0,0,0,0,0,0h0c0,0,0,0,0,0c0,0,0,0,0,0c0,0,0,0,0,0h0c0,0,0,0,0,0h0
				c0,0,0,0,0,0h0c0,0,0,0,0,0h0c0,0,0,0,0,0h0h0c0,0,0,0,0,0h0c0,0,0,0,0,0h0c0,0,0,0,0,0c0,0,0,0,0,0h0h0h0c0,0,0,0,0,0h0h0
				c0,0,0,0,0,0h0c0,0,0,0,0,0h0c0,0,0,0,0,0h0c0,0,0,0,0,0h0c0,0,0,0,0,0h0c0,0,0,0,0,0h0c0,0,0,0,0,0h0c0,0,0,0,0,0c0,0,0,0,0,0
				c0,0,0,0,0,0c0,0,0,0,0,0c0,0,0,0,0,0c0,0,0,0,0,0c0,0,0,0,0,0c0,0,0,0,0,0c0,0,0,0,0,0c0,0,0,0,0,0c0,0,0,0,0,0c0,0,0,0,0,0
				c0,0,0,0,0,0c0,0,0,0,0,0c0,0,0,0-0.1,0c0,0,0,0,0,0c0,0,0,0,0,0c0,0,0,0,0,0c0,0,0,0-0.1,0c0,0,0,0,0,0c0,0,0,0,0,0
				c0,0,0,0-0.1,0c0,0,0,0,0,0c0,0,0,0,0,0c0,0-0.1,0-0.1,0c0,0,0,0,0,0c0,0-0.1,0-0.1,0c0,0-0.1,0-0.1,0c0,0,0,0,0,0
				c-0.1-0.1-0.2-0.1-0.4-0.2C1681.5,19.1,1679.1,18.3,1676.6,17.8z"/>
		</g>
		<g id="Group_2">
			<g id="Group_3">
				<path id="Vector_44" class="st5" d="M1606.5,130.4v13.4"/>
				<path id="Vector_45" class="st5" d="M1606.5,179.8v13.4h-13.3"/>
				<path id="Vector_46" class="st6" d="M1565.8,193.1H1251"/>
				<path id="Vector_47" class="st5" d="M1237.3,193.1h-13.4"/>
			</g>
		</g>
		<path id="Cycle_through_the" class="st4" d="M1505.7,59.9c3.1,0,4.7-1.9,5.2-4.4l-1.7-0.3c-0.4,1.9-1.7,3.2-3.5,3.2
			c-2.6,0-4-2.3-4-5.4c0-3.2,1.4-5.3,4-5.3c2,0,3.2,1.3,3.5,3.3l1.8-0.2c-0.3-2.7-2-4.6-5.2-4.6c-3.9,0-5.9,2.8-5.9,6.8
			C1499.8,56.9,1501.7,59.9,1505.7,59.9z M1513.4,63.3c1.5,0,2.6-0.8,3.5-3.1l3.6-9.8h-1.7l-2.1,6.4c-0.1,0.5-0.2,0.8-0.3,1.1h0
			c0-0.3-0.1-0.6-0.3-1.1l-2.3-6.4h-1.8l3.6,9.1l-0.2,0.7c-0.4,1.2-1,1.7-2.1,1.7c-0.2,0-0.4,0-0.7,0v1.4
			C1512.9,63.3,1513.2,63.3,1513.4,63.3z M1525.4,59.9c2.1,0,3.4-1.2,3.8-3.3l-1.5-0.2c-0.2,1.4-1,2.2-2.3,2.2
			c-1.6,0-2.6-1.3-2.6-3.5c0-2.1,0.9-3.4,2.5-3.4c1.2,0,2,0.8,2.2,2.2l1.6-0.2c-0.2-2.1-1.6-3.3-3.8-3.3c-2.6,0-4.2,1.8-4.2,4.8
			C1521.2,58,1522.9,59.9,1525.4,59.9z M1533.3,46.3h-1.5v13.3h1.5V46.3z M1544,54.4c0-2.7-1.4-4.2-3.9-4.2c-2.6,0-4.2,1.9-4.2,4.9
			c0,3,1.5,4.7,4.2,4.7c1.8,0,3.2-0.9,3.8-2.5l-1.3-0.6c-0.4,1.1-1.3,1.7-2.4,1.7c-1.6,0-2.7-1.2-2.7-3h6.5V54.4z M1542.4,54.2h-4.9
			c0-1.7,1-2.8,2.6-2.8c1.5,0,2.4,0.9,2.4,2.6V54.2z M1549.8,51.8h1.7v5.1c0,1.7,0.5,2.9,2.5,2.9c0.6,0,1-0.1,1.3-0.2v-1.4
			c-0.3,0.1-0.5,0.1-0.9,0.1c-0.9,0-1.3-0.5-1.3-1.5v-5.1h2.3v-1.3h-2.3v-3.1l-1.6,0.7v2.4h-1.7V51.8z M1557.7,59.6h1.6v-4.8
			c0-2.1,0.9-3.3,2.5-3.3c1.3,0,2,0.8,2,2.5v5.6h1.6v-5.7c0-2.4-1.1-3.7-3-3.7c-1.4,0-2.4,0.7-3,2v-5.8h-1.6V59.6z M1569.8,52.6
			v-2.1h-1.4v9.2h1.6v-3.9c0-1.1,0-2.3,0.9-3.2c0.4-0.4,1.1-0.7,2-0.7h0.1v-1.5c-0.1,0-0.2,0-0.3,0
			C1571.2,50.2,1570.2,51.3,1569.8,52.6z M1578.1,59.9c2.6,0,4.3-1.8,4.3-4.8s-1.7-4.8-4.3-4.8c-2.6,0-4.3,1.8-4.3,4.8
			S1575.5,59.9,1578.1,59.9z M1578.1,58.5c-1.6,0-2.6-1.2-2.6-3.4c0-2.3,1-3.4,2.6-3.4c1.6,0,2.6,1.2,2.6,3.4
			C1580.7,57.3,1579.7,58.5,1578.1,58.5z M1587.7,59.9c1.3,0,2.4-0.8,2.8-1.9v1.7h1.5v-9.2h-1.6v4.9c0,1.9-1,3.1-2.5,3.1
			c-1.2,0-1.9-0.8-1.9-2.4v-5.7h-1.6v5.8C1584.5,58.5,1585.4,59.9,1587.7,59.9z M1602.3,50.3c0.2,0,0.5,0,0.7,0.1V49
			c-0.2-0.1-0.4-0.1-0.6-0.1c-1.2,0-1.9,0.7-2.2,1.7c-0.5-0.2-1.1-0.4-1.8-0.4c-2.1,0-3.4,1.3-3.4,3.1c0,0.9,0.3,1.7,0.9,2.2
			c-0.8,0.3-1.3,0.9-1.3,1.8c0,0.7,0.3,1.2,1.1,1.6c-1,0.3-1.5,1-1.5,1.9c0,1.3,0.9,2.5,4.1,2.5c3.2,0,4.5-1.2,4.5-2.9
			c0-1.6-1-2.6-3.1-2.6h-2.2c-1.1,0-1.5-0.4-1.5-0.9c0-0.4,0.3-0.7,0.7-0.9c0.5,0.2,1.1,0.4,1.8,0.4c2.1,0,3.4-1.4,3.4-3.1
			c0-0.9-0.3-1.6-0.8-2.2C1601.2,50.6,1601.6,50.3,1602.3,50.3z M1598.4,55.3c-1.2,0-1.9-0.8-1.9-1.9s0.8-1.9,1.9-1.9
			c1.2,0,1.9,0.8,1.9,1.9C1600.3,54.5,1599.6,55.3,1598.4,55.3z M1599.4,59.3c1.3,0,1.9,0.5,1.9,1.3c0,0.8-0.6,1.5-2.8,1.5
			c-1.7,0-2.8-0.4-2.8-1.5c0-0.5,0.3-1.1,1-1.4c0.2,0,0.5,0,0.8,0H1599.4z M1605,59.6h1.6v-4.8c0-2.1,0.9-3.3,2.5-3.3
			c1.3,0,2,0.8,2,2.5v5.6h1.6v-5.7c0-2.4-1-3.7-3-3.7c-1.4,0-2.4,0.7-3,2v-5.8h-1.6V59.6z M1618.8,51.8h1.7v5.1
			c0,1.7,0.5,2.9,2.5,2.9c0.6,0,0.9-0.1,1.3-0.2v-1.4c-0.3,0.1-0.6,0.1-0.9,0.1c-0.9,0-1.3-0.5-1.3-1.5v-5.1h2.3v-1.3h-2.3v-3.1
			l-1.6,0.7v2.4h-1.7V51.8z M1626.8,59.6h1.6v-4.8c0-2.1,0.9-3.3,2.5-3.3c1.3,0,2,0.8,2,2.5v5.6h1.6v-5.7c0-2.4-1-3.7-3-3.7
			c-1.4,0-2.4,0.7-3,2v-5.8h-1.6V59.6z M1644.6,54.4c0-2.7-1.4-4.2-3.9-4.2c-2.6,0-4.2,1.9-4.2,4.9c0,3,1.5,4.7,4.2,4.7
			c1.8,0,3.2-0.9,3.8-2.5l-1.3-0.6c-0.4,1.1-1.3,1.7-2.4,1.7c-1.6,0-2.7-1.2-2.7-3h6.5V54.4z M1643,54.2h-4.9c0-1.7,1-2.8,2.6-2.8
			c1.5,0,2.4,0.9,2.4,2.6V54.2z"/>
		<path id="garments" class="st4" d="M1504,80.7c0.2,0,0.5,0,0.7,0.1v-1.4c-0.2-0.1-0.4-0.1-0.6-0.1c-1.2,0-1.9,0.7-2.2,1.7
			c-0.5-0.2-1.1-0.4-1.8-0.4c-2.1,0-3.4,1.3-3.4,3.1c0,0.9,0.3,1.7,0.9,2.2c-0.8,0.3-1.3,0.9-1.3,1.8c0,0.7,0.3,1.2,1.1,1.6
			c-1,0.3-1.5,1-1.5,1.9c0,1.3,0.9,2.5,4.1,2.5c3.2,0,4.6-1.2,4.6-2.9c0-1.6-1.1-2.6-3.1-2.6h-2.2c-1.1,0-1.5-0.4-1.5-0.9
			c0-0.4,0.3-0.7,0.7-0.9c0.5,0.2,1.1,0.4,1.8,0.4c2.1,0,3.4-1.4,3.4-3.1c0-0.9-0.3-1.6-0.8-2.2C1502.9,81,1503.3,80.7,1504,80.7z
			 M1500.1,85.7c-1.2,0-1.9-0.8-1.9-1.9c0-1.1,0.8-1.9,1.9-1.9c1.2,0,1.9,0.8,1.9,1.9C1502,84.9,1501.3,85.7,1500.1,85.7z
			 M1501.1,89.7c1.3,0,1.9,0.5,1.9,1.3c0,0.8-0.6,1.5-2.8,1.5c-1.6,0-2.8-0.4-2.8-1.5c0-0.5,0.3-1.1,1-1.4c0.2,0,0.5,0,0.8,0H1501.1
			z M1508.5,90.3c1.5,0,2.7-0.7,3.1-1.9c0,0.6,0.1,1.2,0.2,1.7h1.6c-0.2-0.7-0.3-1.7-0.3-3.1v-2.5c0-2.7-1.1-3.8-3.6-3.8
			c-2.2,0-3.6,1.2-3.7,3.1h1.7c0.1-1.2,0.8-1.8,2.1-1.8c1.4,0,2,0.7,2,2.4v0.1l-1.7,0.2c-1.5,0.2-2.4,0.4-3.1,0.8
			c-0.8,0.5-1.3,1.2-1.3,2.2C1505.4,89.2,1506.7,90.3,1508.5,90.3z M1508.9,89c-1.1,0-1.8-0.5-1.8-1.4s0.6-1.4,1.9-1.6l2.5-0.4V86
			C1511.5,87.8,1510.5,89,1508.9,89z M1517.6,83v-2.1h-1.4V90h1.6v-3.9c0-1.1,0-2.3,0.9-3.2c0.4-0.4,1.1-0.7,2-0.7h0.1v-1.5
			c-0.1,0-0.2,0-0.3,0C1519,80.7,1518,81.7,1517.6,83z M1522.7,80.9V90h1.6v-5.4c0-1.7,0.8-2.7,2.1-2.7c1.1,0,1.7,0.8,1.7,2.1v6h1.6
			v-5.4c0-1.7,0.8-2.6,2-2.6c1.2,0,1.7,0.7,1.7,2.2V90h1.6v-6c0-2.1-1-3.4-2.8-3.4c-1.2,0-2.2,0.6-2.8,1.9c-0.4-1.2-1.3-1.9-2.6-1.9
			c-1.2,0-2.1,0.6-2.6,1.9v-1.6H1522.7z M1545.3,84.8c0-2.7-1.4-4.2-3.9-4.2c-2.6,0-4.2,1.9-4.2,4.9c0,3,1.6,4.7,4.2,4.7
			c1.8,0,3.2-0.9,3.8-2.5l-1.3-0.6c-0.4,1.1-1.3,1.7-2.4,1.7c-1.6,0-2.7-1.2-2.7-3h6.5V84.8z M1543.7,84.6h-4.9
			c0-1.7,0.9-2.8,2.6-2.8c1.5,0,2.4,0.9,2.4,2.6V84.6z M1547.8,90h1.6v-4.8c0-2,0.9-3.3,2.5-3.3c1.3,0,2,0.8,2,2.4V90h1.6v-5.7
			c0-2.5-1.1-3.7-3.1-3.7c-1.4,0-2.4,0.7-3.1,2.1v-1.8h-1.5V90z M1556.9,82.2h1.7v5.1c0,1.7,0.5,2.9,2.5,2.9c0.6,0,1-0.1,1.3-0.2
			v-1.4c-0.3,0.1-0.5,0.1-0.9,0.1c-0.9,0-1.3-0.5-1.3-1.5v-5.1h2.3v-1.3h-2.3v-3.1l-1.6,0.7v2.4h-1.7V82.2z M1567.7,90.3
			c2.2,0,3.5-1.1,3.5-2.8c0-1.4-0.7-2.4-2.5-2.6l-1.5-0.2c-1.1-0.1-1.6-0.6-1.6-1.4c0-0.9,0.7-1.4,1.9-1.4c1.2,0,2,0.8,2.2,1.9
			l1.5-0.3c-0.2-1.7-1.6-2.8-3.7-2.8c-2.2,0-3.5,1-3.5,2.7c0,1.4,0.9,2.4,2.7,2.6l1.5,0.2c1,0.1,1.5,0.5,1.5,1.4
			c0,0.9-0.7,1.4-1.9,1.4c-1.4,0-2.2-0.7-2.4-2l-1.6,0.3C1564.1,89.2,1565.5,90.3,1567.7,90.3z"/>
	</g>
</g>
<rect x="21.4" y="971.5" class="st7" width="461.5" height="313.3"/>
<text transform="matrix(1 0 0 1 21.4355 994.6182)" class="st8 st9 st10">Our wardrobe consists of </text>
<text transform="matrix(1 0 0 1 21.4355 1032.915)" class="st8 st9 st10">a fine selection from </text>
<text transform="matrix(1 0 0 1 21.4355 1071.2109)" class="st8 st9 st10">our asset libraries</text>
<text transform="matrix(0.583 0 0 0.583 379.1812 1060.584)" class="st8 st9 st10">(2)</text>
<text transform="matrix(1 0 0 1 412.1123 1071.2109)" class="st8 st9 st10">. </text>
<text transform="matrix(1 0 0 1 21.4355 1109.5068)" class="st8 st9 st10">Since we are quite simi</text>
<text transform="matrix(1 0 0 1 454.4961 1109.5068)" class="st8 st9 st10">-</text>
<text transform="matrix(1 0 0 1 21.4355 1147.8027)" class="st8 st9 st10">lar here in Flat World, </text>
<text transform="matrix(1 0 0 1 21.4355 1186.0996)" class="st8 st9 st10">these libraries makes it </text>
<text transform="matrix(1 0 0 1 21.4355 1224.3955)" class="st8 st9 st10">easier for us to differ</text>
<text transform="matrix(1 0 0 1 454.4961 1224.3955)" class="st8 st9 st10">-</text>
<text transform="matrix(1 0 0 1 21.4355 1262.6914)" class="st8 st9 st10">enciate ourselves. </text>
<rect x="21.4" y="1366.1" class="st7" width="461.5" height="314.9"/>
<text transform="matrix(1 0 0 1 21.4351 1389.2261)"><tspan x="0" y="0" class="st8 st9 st11">Our fine selection </tspan><tspan x="0" y="38.3" class="st8 st9 st11">covers everything from </tspan><tspan x="0" y="76.6" class="st8 st9 st11">gender neutral clothing, </tspan><tspan x="0" y="114.9" class="st8 st9 st11">to politicaly engaged </tspan><tspan x="0" y="153.2" class="st8 st9 st11">graphics, to religious </tspan><tspan x="0" y="191.5" class="st8 st9 st11">attire. Inclusivity is </tspan><tspan x="0" y="229.8" class="st8 st9 st11">one of our core values </tspan><tspan x="0" y="268" class="st8 st9 st11">here in Flat World.</tspan></text>
</svg>
