<svg width="1950" height="2269" viewBox="0 0 1950 2269" fill="none" xmlns="http://www.w3.org/2000/svg">
<path d="M611.503 1823.94H420.517C253.878 1823.94 118.791 1688.86 118.791 1522.24V821.449C118.791 654.829 253.878 519.756 420.517 519.756H611.503C778.142 519.756 913.229 654.829 913.229 821.449V1522.24C913.229 1688.86 778.142 1823.94 611.503 1823.94Z" stroke="#00BFFF" stroke-width="3" stroke-miterlimit="10" stroke-linecap="round"/>
<path d="M284.176 1086.63C331.124 1052.69 390.336 1048.35 432.678 1086.63" stroke="#00BFFF" stroke-width="3" stroke-miterlimit="10" stroke-linecap="round"/>
<path d="M386.957 1061.04C397.722 1068.31 404.794 1080.61 404.794 1094.57C404.794 1116.91 386.683 1135.02 364.344 1135.02C342.006 1135.02 323.895 1116.91 323.895 1094.57C323.895 1080.15 331.437 1067.51 342.789 1060.35" fill="#00BFFF"/>
<path d="M327.979 1149.82C339.996 1157.89 375.292 1164.61 394.655 1150.5" stroke="#00BFFF" stroke-width="3" stroke-miterlimit="10" stroke-linecap="round"/>
<path d="M751.21 1086.95C704.263 1053.02 645.05 1048.67 602.708 1086.95" stroke="#00BFFF" stroke-width="3" stroke-miterlimit="10" stroke-linecap="round"/>
<path d="M648.43 1061.37C637.665 1068.63 630.593 1080.94 630.593 1094.9C630.593 1117.23 648.704 1135.34 671.042 1135.34C693.381 1135.34 711.492 1117.23 711.492 1094.9C711.492 1080.48 703.95 1067.84 692.598 1060.67" fill="#00BFFF"/>
<path d="M707.407 1150.15C695.39 1158.21 660.094 1164.93 640.731 1150.83" stroke="#00BFFF" stroke-width="3" stroke-miterlimit="10" stroke-linecap="round"/>
<path d="M563.981 1135.01V1364.73C563.981 1397.11 537.728 1423.37 505.33 1423.37C472.944 1423.37 446.678 1397.12 446.678 1364.73V1355.61" stroke="#00BFFF" stroke-width="3" stroke-miterlimit="10" stroke-linecap="round"/>
<path d="M360.73 1198.57C415.376 1198.57 459.674 1154.27 459.674 1099.63C459.674 1044.99 415.376 1000.7 360.73 1000.7C306.085 1000.7 261.786 1044.99 261.786 1099.63C261.786 1154.27 306.085 1198.57 360.73 1198.57Z" stroke="#00BFFF" stroke-width="3" stroke-miterlimit="10" stroke-linecap="round"/>
<path d="M677.07 1198.57C731.716 1198.57 776.015 1154.27 776.015 1099.63C776.015 1044.99 731.716 1000.7 677.07 1000.7C622.425 1000.7 578.126 1044.99 578.126 1099.63C578.126 1154.27 622.425 1198.57 677.07 1198.57Z" stroke="#00BFFF" stroke-width="3" stroke-miterlimit="10" stroke-linecap="round"/>
<path d="M459.701 1103.74C459.701 1074.83 486.371 1051.4 519.279 1051.4C552.186 1051.4 578.857 1074.83 578.857 1103.74" stroke="#00BFFF" stroke-width="3" stroke-miterlimit="10" stroke-linecap="round"/>
<path d="M498.245 988.904C505.069 1013.5 490.677 1038.96 466.081 1045.8" stroke="#00BFFF" stroke-width="3" stroke-miterlimit="10" stroke-linecap="round"/>
<path d="M541.8 987.091C534.975 1011.68 549.368 1037.15 573.963 1043.99" stroke="#00BFFF" stroke-width="3" stroke-miterlimit="10" stroke-linecap="round"/>
<path d="M602.709 1029.06C588.238 1015.13 583.828 992.375 588.786 979.863C592.57 970.352 602.917 959.341 632.054 954.709C651.783 951.578 682.629 943.489 734.117 966.021C757.225 976.132 772.505 1018.78 772.505 1018.78C772.505 1018.78 776.001 1031.02 760.109 1022.34C749.279 1016.43 737.953 1009.35 711.478 1000.67C685.003 991.997 657.106 998.559 640.718 1007.56" stroke="#00BFFF" stroke-width="3" stroke-miterlimit="10" stroke-linecap="round"/>
<path d="M434.296 1028.98C448.766 1015.05 453.177 992.297 448.218 979.785C444.434 970.274 434.087 959.263 404.951 954.631C385.222 951.5 354.376 943.411 302.888 965.942C279.779 976.054 264.5 1018.7 264.5 1018.7C264.5 1018.7 261.003 1030.94 276.896 1022.27C287.726 1016.36 299.051 1009.27 325.526 1000.59C352.001 991.919 379.898 998.481 396.287 1007.48" stroke="#00BFFF" stroke-width="3" stroke-miterlimit="10" stroke-linecap="round"/>
<path d="M423.57 1585.62C459.688 1588.51 589.687 1610.18 633.02 1535.07" stroke="#00BFFF" stroke-width="3" stroke-miterlimit="10" stroke-linecap="round"/>
<path d="M615.679 1519.19L617.14 1517.7C625.882 1508.78 640.235 1508.7 649.069 1517.53C657.837 1526.3 657.837 1540.52 649.069 1549.29L648.873 1549.48" stroke="#00BFFF" stroke-width="3" stroke-miterlimit="10" stroke-linecap="round"/>
<path d="M118.073 1295.33C67.0153 1295.33 25.6265 1240.69 25.6265 1173.29C25.6265 1105.89 67.0153 1051.25 118.073 1051.25" stroke="#00BFFF" stroke-width="3" stroke-miterlimit="10" stroke-linecap="round"/>
<path d="M913.96 1295.33C965.018 1295.33 1006.41 1240.69 1006.41 1173.29C1006.41 1105.89 965.018 1051.25 913.96 1051.25" stroke="#00BFFF" stroke-width="3" stroke-miterlimit="10" stroke-linecap="round"/>
<path d="M158.418 1349.3L283.367 1445.2C283.367 1445.2 321.703 1471.02 321.403 1579.66C321.377 1588.13 328.24 1595.02 336.708 1595.02C346.312 1595.02 350.644 1586.84 350.644 1576.75L352.092 1542.28C352.092 1506.44 389.815 1477.39 425.658 1477.39H505.356C551.729 1477.39 578.87 1447.69 578.87 1447.69C578.87 1447.69 603.426 1415.92 648.208 1415.92C705.985 1415.92 708.477 1473.7 708.477 1473.7V1578.42C708.477 1585.21 713.984 1590.71 720.769 1590.71C727.515 1590.71 733.034 1585.18 733.06 1578.45C733.478 1469.33 771.709 1441.05 771.709 1441.05L872.102 1350.93C872.102 1350.93 872.102 1046.18 872.102 898.869C872.102 729.887 757.265 661.288 730.542 643.231C705.868 626.557 653.988 599.903 624.852 643.596C594.606 688.96 565.874 702.385 514.594 702.385C463.315 702.385 424.314 670.668 400.488 635.507C386.213 614.437 360.769 610.014 323.673 630.432C252 669.872 211.302 733.501 188.259 790.516C168.322 839.832 158.535 892.646 158.535 945.837V1350.94" stroke="#00BFFF" stroke-width="3" stroke-miterlimit="10" stroke-linecap="round"/>
<path d="M669.737 1527.33V1633.64C669.737 1661.28 647.321 1683.7 619.671 1683.7H609.716C582.067 1683.7 559.65 1661.28 559.65 1633.64V1621.87H486.241V1633.64C486.241 1661.28 463.824 1683.7 436.175 1683.7C408.526 1683.7 386.109 1661.28 386.109 1633.64V1590.62C386.109 1563.99 408.656 1542.92 435.222 1544.75C469.187 1547.08 512.024 1547.92 533.762 1540C573.063 1525.69 590.404 1502.58 604.849 1492.47C604.849 1492.47 620.741 1478.03 644.867 1484.94C656.572 1488.28 669.737 1503.04 669.737 1527.33Z" stroke="#00BFFF" stroke-width="3" stroke-miterlimit="10" stroke-linecap="round"/>
<path d="M396.13 1007.91L377.34 1029.58" stroke="#00BFFF" stroke-width="3" stroke-miterlimit="10" stroke-linecap="round"/>
<path d="M416.341 1018.02L381.686 1061.35" stroke="#00BFFF" stroke-width="3" stroke-miterlimit="10" stroke-linecap="round"/>
<path d="M313.795 1113.34L279.126 1156.67" stroke="#00BFFF" stroke-width="3" stroke-miterlimit="10" stroke-linecap="round"/>
<path d="M651.796 1113.34L617.127 1156.67" stroke="#00BFFF" stroke-width="3" stroke-miterlimit="10" stroke-linecap="round"/>
<path d="M713.905 1007.91L679.236 1051.24" stroke="#00BFFF" stroke-width="3" stroke-miterlimit="10" stroke-linecap="round"/>
<path d="M735.565 1018.02L715.341 1046.91" stroke="#00BFFF" stroke-width="3" stroke-miterlimit="10" stroke-linecap="round"/>
<path d="M655.397 418.644C623.09 418.644 596.902 387.149 596.902 348.309C596.902 309.468 623.09 277.973 655.397 277.973C673.991 277.973 690.549 288.411 701.261 304.667C687.6 230.627 640.235 176 583.893 176C557.157 176 532.444 188.316 512.389 209.152C492.334 188.316 467.621 176 440.885 176C373.869 176 319.55 253.276 319.55 348.596C319.55 443.915 373.869 521.191 440.885 521.191C467.621 521.191 492.334 508.875 512.389 488.039C532.444 508.875 557.157 521.191 583.893 521.191C640.444 521.191 687.952 466.173 701.405 391.715C690.705 408.102 674.082 418.644 655.397 418.644Z" stroke="#00BFFF" stroke-width="3" stroke-miterlimit="10" stroke-linecap="round"/>
<path d="M504.456 154.343C504.456 95.1236 534.793 44.5805 595.454 38.8008C595.454 38.8008 604.118 72.0178 579.561 108.131C555.018 144.232 504.456 154.343 504.456 154.343Z" stroke="#00BFFF" stroke-width="3" stroke-miterlimit="10" stroke-linecap="round"/>
<path d="M432.443 2187.82H902.269" stroke="#00BFFF" stroke-width="3" stroke-miterlimit="10" stroke-linecap="round"/>
<path d="M832.331 2187.82L677.566 1992.88L681.964 1988.48C696.995 1973.45 698.013 1949.42 684.312 1933.18L615.627 1849.25V1798.08C615.627 1782.86 603.296 1770.54 588.082 1770.54C572.868 1770.54 560.537 1782.86 560.537 1798.08V1838.8" fill="white"/>
<path d="M832.331 2187.82L677.566 1992.88L681.964 1988.48C696.995 1973.45 698.013 1949.42 684.312 1933.18L615.627 1849.25V1798.08C615.627 1782.86 603.296 1770.54 588.082 1770.54C572.868 1770.54 560.537 1782.86 560.537 1798.08V1838.8" stroke="#00BFFF" stroke-width="3" stroke-miterlimit="10" stroke-linecap="round"/>
<path d="M631.441 1930.95L491.304 1757.51C479.886 1743.37 459.192 1741.1 444.969 1752.43C430.616 1763.86 428.32 1784.8 439.855 1799.07L559.559 1944.11" fill="white"/>
<path d="M631.441 1930.95L491.304 1757.51C479.886 1743.37 459.192 1741.1 444.969 1752.43C430.616 1763.86 428.32 1784.8 439.855 1799.07L559.559 1944.11" stroke="#00BFFF" stroke-width="3" stroke-miterlimit="10" stroke-linecap="round"/>
<path d="M558.958 1944.12L466.264 1832.63C454.847 1818.48 434.152 1816.21 419.93 1827.54C405.577 1838.97 403.28 1859.91 414.815 1874.18L507.561 1988.91" stroke="#00BFFF" stroke-width="3" stroke-miterlimit="10" stroke-linecap="round"/>
<path d="M507.561 1988.93L470.217 1943.31C458.8 1929.17 438.106 1926.9 423.883 1938.23C409.53 1949.65 407.234 1970.59 418.768 1984.87L456.164 2031.08" stroke="#00BFFF" stroke-width="3" stroke-miterlimit="10" stroke-linecap="round"/>
<path d="M456.165 2031.09L433.317 2003.93C421.9 1989.79 401.206 1987.52 386.983 1998.84C372.63 2010.27 370.334 2031.21 381.868 2045.48L499.654 2187.89" stroke="#00BFFF" stroke-width="3" stroke-miterlimit="10" stroke-linecap="round"/>
<path d="M1832.31 2090.68H1014.97C990.662 2090.68 970.957 2070.96 970.957 2046.64V1852.32C970.957 1827.99 990.662 1808.27 1014.97 1808.27H1832.3C1856.61 1808.27 1876.32 1827.99 1876.32 1852.32V2046.62C1876.33 2070.95 1856.62 2090.68 1832.31 2090.68Z" fill="#D7F7FF" stroke="#00BFFF" stroke-width="3" stroke-miterlimit="10" stroke-linecap="round" stroke-linejoin="round"/>
<path d="M1007.06 1908.26C1005.32 1908.26 1003.98 1907.83 1003.04 1906.96C1002.09 1906.09 1001.61 1904.86 1001.61 1903.22C1001.61 1901.65 1002.08 1900.43 1003.02 1899.56C1003.97 1898.69 1005.31 1898.26 1007.05 1898.25L1042.94 1898.2L1042.93 1888.12C1042.93 1886.88 1042.58 1885.92 1041.86 1885.24C1041.16 1884.57 1040.18 1884.23 1038.95 1884.23L1012.79 1884.27C1009.16 1884.28 1006.37 1883.31 1004.43 1881.36C1002.48 1879.41 1001.49 1876.62 1001.49 1873L1001.48 1862.68C1001.48 1859.06 1002.44 1856.25 1004.39 1854.31C1006.33 1852.35 1009.12 1851.37 1012.74 1851.37L1078.2 1851.27C1079.94 1851.27 1081.28 1851.7 1082.22 1852.57C1083.17 1853.44 1083.65 1854.64 1083.65 1856.21C1083.65 1857.84 1083.18 1859.08 1082.24 1859.95C1081.29 1860.82 1079.95 1861.25 1078.21 1861.26L1042.89 1861.32L1042.9 1870.26C1042.9 1871.51 1043.25 1872.48 1043.97 1873.18C1044.67 1873.88 1045.64 1874.23 1046.89 1874.23L1073.04 1874.19C1076.67 1874.19 1079.46 1875.14 1081.41 1877.06C1083.35 1878.98 1084.34 1881.79 1084.34 1885.46L1084.35 1896.85C1084.35 1900.47 1083.39 1903.27 1081.44 1905.22C1079.5 1907.18 1076.71 1908.15 1073.09 1908.15L1007.06 1908.26Z" fill="#00BFFF"/>
<path d="M1089.9 1862.54C1089.9 1858.92 1090.85 1856.11 1092.77 1854.16C1094.69 1852.2 1097.49 1851.23 1101.18 1851.23L1120.01 1851.2C1123.64 1851.2 1126.43 1852.16 1128.38 1854.11C1130.33 1856.06 1131.31 1858.85 1131.31 1862.47L1131.36 1896.77C1131.36 1900.4 1130.4 1903.19 1128.46 1905.14C1126.51 1907.1 1123.72 1908.08 1120.1 1908.08L1101.27 1908.1C1097.58 1908.11 1094.78 1907.14 1092.86 1905.19C1090.94 1903.25 1089.97 1900.46 1089.97 1896.82L1089.9 1862.54Z" fill="#00BFFF"/>
<path d="M1136.92 1862.46C1136.92 1858.84 1137.88 1856.03 1139.82 1854.09C1141.77 1852.13 1144.56 1851.15 1148.18 1851.15L1194.31 1851.07C1197.87 1851.07 1200.62 1851.92 1202.56 1853.62C1204.48 1855.32 1205.45 1857.8 1205.45 1861.04L1212.52 1861.03C1212.52 1857.79 1213.45 1855.29 1215.35 1853.59C1217.24 1851.88 1219.98 1851.02 1223.55 1851.02L1269.51 1850.94C1273.14 1850.94 1275.93 1851.9 1277.88 1853.85C1279.82 1855.8 1280.81 1858.59 1280.81 1862.21L1280.86 1896.51C1280.86 1900.14 1279.9 1902.93 1277.95 1904.88C1276.01 1906.84 1273.22 1907.82 1269.6 1907.82L1250.67 1907.84C1247.04 1907.85 1244.26 1906.88 1242.34 1904.93C1240.42 1902.99 1239.45 1900.2 1239.45 1896.56L1239.4 1864.95C1239.4 1863.71 1239.05 1862.73 1238.33 1862.03C1237.63 1861.33 1236.65 1860.98 1235.42 1860.98H1233.63C1232.38 1860.98 1231.41 1861.33 1230.71 1862.04C1230.01 1862.74 1229.66 1863.73 1229.66 1864.98L1229.71 1896.59C1229.71 1900.21 1228.75 1903.01 1226.8 1904.96C1224.86 1906.92 1222.07 1907.89 1218.45 1907.91L1199.61 1907.93C1195.98 1907.93 1193.19 1906.97 1191.24 1905.02C1189.3 1903.08 1188.31 1900.29 1188.31 1896.66L1188.26 1865.06C1188.26 1863.81 1187.91 1862.84 1187.2 1862.13C1186.5 1861.43 1185.51 1861.08 1184.28 1861.08H1182.33C1181.09 1861.08 1180.11 1861.43 1179.41 1862.15C1178.71 1862.85 1178.36 1863.83 1178.36 1865.08L1178.41 1896.69C1178.41 1900.33 1177.45 1903.12 1175.51 1905.06C1173.56 1907.02 1170.77 1908 1167.15 1908L1148.32 1908.02C1144.69 1908.04 1141.9 1907.06 1139.95 1905.12C1138 1903.17 1137.02 1900.38 1137.02 1896.74L1136.92 1862.46Z" fill="#00BFFF"/>
<path d="M1297.87 1907.79C1294.23 1907.8 1291.45 1906.83 1289.5 1904.88C1287.55 1902.93 1286.57 1900.14 1286.57 1896.51L1286.52 1862.21C1286.52 1858.59 1287.48 1855.79 1289.42 1853.84C1291.37 1851.88 1294.16 1850.9 1297.78 1850.9L1367.94 1850.79C1371.58 1850.79 1374.37 1851.75 1376.31 1853.7C1378.26 1855.64 1379.24 1858.43 1379.24 1862.06L1379.26 1872.7C1379.26 1876.34 1378.3 1879.13 1376.35 1881.07C1374.41 1883.03 1371.62 1884.01 1368 1884.02L1327.96 1884.09L1327.99 1896.44C1327.99 1900.08 1327.03 1902.87 1325.08 1904.82C1323.14 1906.78 1320.35 1907.75 1316.73 1907.75L1297.87 1907.79ZM1333.87 1874.74C1335.11 1874.74 1336.08 1874.39 1336.78 1873.67C1337.49 1872.97 1337.84 1872 1337.84 1870.75L1337.82 1864.17C1337.82 1862.93 1337.47 1861.95 1336.76 1861.25C1336.06 1860.55 1335.09 1860.2 1333.84 1860.2L1327.91 1860.21L1327.94 1874.76L1333.87 1874.74Z" fill="#00BFFF"/>
<path d="M1384.6 1862.07C1384.6 1858.38 1385.55 1855.58 1387.47 1853.66C1389.39 1851.74 1392.19 1850.76 1395.87 1850.76L1414.71 1850.74C1418.34 1850.74 1421.13 1851.68 1423.08 1853.61C1425.02 1855.53 1426.01 1858.33 1426.01 1862L1426.06 1897.6L1461.39 1897.55C1463.11 1897.55 1464.46 1897.98 1465.41 1898.85C1466.35 1899.71 1466.83 1900.94 1466.83 1902.51C1466.83 1904.13 1466.37 1905.37 1465.42 1906.24C1464.47 1907.11 1463.14 1907.54 1461.4 1907.56L1395.94 1907.66C1392.26 1907.66 1389.45 1906.7 1387.53 1904.75C1385.61 1902.8 1384.64 1900.01 1384.64 1896.39L1384.6 1862.07Z" fill="#00BFFF"/>
<path d="M1472.31 1861.93C1472.31 1858.3 1473.26 1855.5 1475.18 1853.55C1477.1 1851.59 1479.9 1850.62 1483.58 1850.62L1502.42 1850.59C1506.04 1850.59 1508.84 1851.55 1510.79 1853.5C1512.73 1855.45 1513.72 1858.24 1513.72 1861.86L1513.77 1896.16C1513.77 1899.79 1512.81 1902.58 1510.86 1904.53C1508.92 1906.49 1506.13 1907.47 1502.51 1907.47L1483.67 1907.49C1479.99 1907.5 1477.19 1906.53 1475.27 1904.58C1473.35 1902.64 1472.37 1899.84 1472.37 1896.21L1472.31 1861.93Z" fill="#00BFFF"/>
<path d="M1519.32 1861.85C1519.32 1858.23 1520.28 1855.42 1522.23 1853.48C1524.17 1851.51 1526.96 1850.54 1530.58 1850.54L1596.04 1850.44C1597.78 1850.44 1599.12 1850.87 1600.06 1851.74C1601.01 1852.61 1601.49 1853.81 1601.49 1855.38C1601.49 1857.01 1601.02 1858.25 1600.08 1859.12C1599.13 1859.99 1597.79 1860.42 1596.06 1860.43L1560.73 1860.49L1560.8 1897.38L1596.12 1897.33C1597.86 1897.33 1599.19 1897.75 1600.14 1898.62C1601.09 1899.49 1601.57 1900.71 1601.57 1902.27C1601.57 1903.89 1601.1 1905.14 1600.15 1906.01C1599.21 1906.88 1597.87 1907.32 1596.13 1907.32L1530.67 1907.43C1527.04 1907.44 1524.25 1906.47 1522.31 1904.52C1520.36 1902.57 1519.37 1899.78 1519.37 1896.14L1519.32 1861.85Z" fill="#00BFFF"/>
<path d="M1607.03 1861.71C1607.03 1858.08 1607.98 1855.28 1609.9 1853.33C1611.82 1851.39 1614.62 1850.4 1618.3 1850.4L1637.14 1850.37C1640.76 1850.37 1643.56 1851.33 1645.51 1853.28C1647.45 1855.23 1648.44 1858.02 1648.44 1861.64L1648.49 1895.94C1648.49 1899.57 1647.53 1902.36 1645.58 1904.31C1643.64 1906.27 1640.85 1907.24 1637.23 1907.26L1618.39 1907.28C1614.71 1907.28 1611.91 1906.32 1609.99 1904.38C1608.07 1902.43 1607.09 1899.64 1607.09 1896.02L1607.03 1861.71Z" fill="#00BFFF"/>
<path d="M1653.96 1855.29C1653.96 1853.72 1654.43 1852.5 1655.38 1851.63C1656.33 1850.76 1657.66 1850.33 1659.4 1850.32L1738.99 1850.19C1740.71 1850.19 1742.06 1850.62 1743.01 1851.49C1743.96 1852.36 1744.44 1853.57 1744.44 1855.14C1744.44 1856.76 1743.97 1858.01 1743.02 1858.88C1742.07 1859.75 1740.74 1860.17 1739 1860.19L1719.92 1860.21L1719.97 1895.81C1719.97 1899.44 1719.01 1902.23 1717.06 1904.18C1715.12 1906.14 1712.33 1907.11 1708.71 1907.11L1689.87 1907.14C1686.19 1907.15 1683.39 1906.18 1681.47 1904.23C1679.55 1902.29 1678.57 1899.49 1678.57 1895.86L1678.52 1860.26L1659.44 1860.29C1657.7 1860.29 1656.36 1859.86 1655.42 1858.99C1654.44 1858.16 1653.96 1856.92 1653.96 1855.29Z" fill="#00BFFF"/>
<path d="M1761.37 1883.48C1757.73 1883.48 1754.94 1882.51 1753 1880.57C1751.05 1878.62 1750.07 1875.83 1750.07 1872.21L1750.05 1861.48C1750.04 1857.86 1751.01 1855.06 1752.96 1853.11C1754.9 1851.15 1757.69 1850.18 1761.31 1850.18L1780.15 1850.15C1783.78 1850.15 1786.57 1851.11 1788.52 1853.06C1790.46 1855.01 1791.45 1857.8 1791.45 1861.42L1791.47 1874.01C1791.47 1875.26 1791.82 1876.23 1792.54 1876.93C1793.24 1877.63 1794.21 1877.98 1795.47 1877.98H1797.42C1798.66 1877.98 1799.63 1877.63 1800.33 1876.92C1801.04 1876.22 1801.39 1875.25 1801.39 1874L1801.36 1861.41C1801.36 1857.79 1802.32 1854.98 1804.27 1853.03C1806.21 1851.09 1809 1850.1 1812.63 1850.1L1831.47 1850.07C1835.09 1850.07 1837.89 1851.03 1839.84 1852.98C1841.78 1854.93 1842.77 1857.72 1842.77 1861.34L1842.78 1872.06C1842.78 1875.7 1841.82 1878.49 1839.88 1880.44C1837.93 1882.4 1835.14 1883.37 1831.52 1883.37L1817.07 1883.4L1817.1 1895.66C1817.1 1899.3 1816.15 1902.09 1814.23 1904.04C1812.31 1906 1809.51 1906.97 1805.82 1906.97L1786.99 1907C1783.35 1907.01 1780.56 1906.04 1778.62 1904.09C1776.66 1902.14 1775.69 1899.35 1775.69 1895.73L1775.66 1883.46L1761.37 1883.48Z" fill="#00BFFF"/>
<path d="M1211.66 1929.39C1211.66 1927.44 1212.17 1925.95 1213.19 1924.91C1214.22 1923.89 1215.71 1923.37 1217.66 1923.35H1217.81C1219.76 1923.35 1221.25 1923.86 1222.28 1924.89C1223.3 1925.91 1223.82 1927.4 1223.83 1929.35L1223.91 1974.2C1223.91 1976.15 1223.4 1977.64 1222.38 1978.68C1221.35 1979.71 1219.86 1980.22 1217.92 1980.24H1217.76C1215.81 1980.24 1214.32 1979.73 1213.3 1978.71C1212.27 1977.68 1211.75 1976.19 1211.75 1974.24L1211.66 1929.39Z" fill="#00BFFF"/>
<path d="M1231.07 1980.22C1230.15 1980.22 1229.45 1980.03 1228.96 1979.61C1228.46 1979.21 1228.23 1978.65 1228.22 1977.95C1228.22 1977.25 1228.46 1976.71 1228.94 1976.33C1229.42 1975.95 1230.14 1975.76 1231.06 1975.76L1240 1975.75L1239.97 1955.76C1239.97 1955.16 1239.79 1954.69 1239.44 1954.33C1239.09 1953.98 1238.61 1953.79 1238.01 1953.81L1233.78 1953.82C1231.84 1953.82 1230.34 1953.31 1229.32 1952.28C1228.29 1951.25 1227.78 1949.76 1227.78 1947.81L1227.75 1929.36C1227.75 1927.42 1228.26 1925.92 1229.28 1924.89C1230.31 1923.86 1231.8 1923.34 1233.74 1923.33L1246 1923.3C1246.92 1923.3 1247.62 1923.48 1248.12 1923.87C1248.61 1924.25 1248.84 1924.79 1248.86 1925.5C1248.87 1926.2 1248.61 1926.75 1248.13 1927.16C1247.64 1927.56 1246.94 1927.77 1246.01 1927.77L1239.93 1927.78L1239.96 1947.45C1239.96 1948.04 1240.14 1948.51 1240.49 1948.88C1240.84 1949.23 1241.32 1949.41 1241.92 1949.39H1246.13C1248.08 1949.39 1249.57 1949.9 1250.61 1950.93C1251.63 1951.95 1252.15 1953.44 1252.15 1955.39L1252.18 1974.16C1252.18 1976.11 1251.67 1977.6 1250.65 1978.64C1249.62 1979.67 1248.13 1980.19 1246.18 1980.2L1231.07 1980.22Z" fill="#00BFFF"/>
<path d="M1279.06 1925.46C1279.06 1924.76 1279.3 1924.21 1279.78 1923.83C1280.28 1923.46 1280.98 1923.26 1281.9 1923.26L1306.26 1923.22C1307.18 1923.22 1307.88 1923.41 1308.37 1923.79C1308.87 1924.18 1309.1 1924.72 1309.11 1925.42C1309.13 1926.12 1308.87 1926.68 1308.39 1927.08C1307.89 1927.48 1307.19 1927.69 1306.27 1927.69L1300.19 1927.7L1300.27 1974.1C1300.27 1976.04 1299.76 1977.54 1298.74 1978.58C1297.71 1979.6 1296.22 1980.12 1294.27 1980.13H1294.12C1292.17 1980.13 1290.68 1979.63 1289.64 1978.6C1288.62 1977.58 1288.1 1976.08 1288.1 1974.14L1288.02 1927.74L1281.94 1927.75C1281.02 1927.75 1280.31 1927.56 1279.82 1927.14C1279.3 1926.72 1279.06 1926.17 1279.06 1925.46Z" fill="#00BFFF"/>
<path d="M1312.51 1929.22C1312.51 1927.27 1313.02 1925.78 1314.04 1924.74C1315.07 1923.72 1316.56 1923.2 1318.51 1923.19H1318.66C1320.61 1923.19 1322.1 1923.69 1323.12 1924.72C1324.15 1925.74 1324.67 1927.24 1324.68 1929.18L1324.71 1949.25L1328.77 1949.24L1328.74 1929.17C1328.74 1927.22 1329.25 1925.73 1330.27 1924.69C1331.3 1923.67 1332.79 1923.15 1334.73 1923.13H1334.89C1336.84 1923.13 1338.33 1923.64 1339.35 1924.67C1340.38 1925.69 1340.9 1927.18 1340.9 1929.13L1340.97 1973.98C1340.97 1975.93 1340.47 1977.42 1339.44 1978.46C1338.42 1979.49 1336.93 1980.01 1334.98 1980.02H1334.83C1332.88 1980.02 1331.39 1979.51 1330.36 1978.49C1329.34 1977.46 1328.82 1975.97 1328.82 1974.02L1328.78 1953.7L1324.72 1953.72L1324.76 1974.03C1324.76 1975.98 1324.25 1977.47 1323.23 1978.51C1322.2 1979.54 1320.71 1980.06 1318.77 1980.07H1318.61C1316.66 1980.07 1315.17 1979.56 1314.15 1978.54C1313.12 1977.51 1312.6 1976.02 1312.6 1974.07L1312.51 1929.22Z" fill="#00BFFF"/>
<path d="M1344.4 1958.59C1344.4 1956.64 1344.75 1955.15 1345.45 1954.12C1346.15 1953.09 1347.15 1952.57 1348.45 1952.57V1950.55C1347.15 1950.55 1346.15 1950.04 1345.44 1949C1344.74 1947.98 1344.37 1946.49 1344.37 1944.54L1344.35 1929.18C1344.35 1927.24 1344.85 1925.74 1345.88 1924.7C1346.9 1923.68 1348.39 1923.16 1350.34 1923.15L1362.6 1923.12C1363.52 1923.12 1364.22 1923.3 1364.71 1923.69C1365.21 1924.08 1365.44 1924.61 1365.45 1925.31C1365.47 1926.01 1365.21 1926.57 1364.73 1926.98C1364.25 1927.38 1363.53 1927.59 1362.61 1927.59L1356.53 1927.6L1356.57 1949.21L1362.65 1949.2C1363.57 1949.2 1364.27 1949.38 1364.77 1949.77C1365.26 1950.16 1365.49 1950.69 1365.51 1951.39C1365.51 1952.09 1365.26 1952.65 1364.78 1953.07C1364.29 1953.47 1363.59 1953.68 1362.66 1953.68L1356.58 1953.69L1356.62 1975.55L1362.7 1975.54C1363.62 1975.54 1364.33 1975.73 1364.82 1976.11C1365.31 1976.49 1365.54 1977.03 1365.56 1977.73C1365.57 1978.43 1365.31 1978.99 1364.83 1979.39C1364.35 1979.8 1363.64 1980 1362.72 1980L1350.46 1980.03C1348.51 1980.03 1347.02 1979.52 1345.99 1978.5C1344.97 1977.47 1344.45 1975.98 1344.45 1974.03L1344.4 1958.59Z" fill="#00BFFF"/>
<path d="M1391.94 1929.1C1391.94 1927.16 1392.45 1925.66 1393.47 1924.63C1394.5 1923.6 1395.99 1923.08 1397.94 1923.07H1398.09C1400.04 1923.07 1401.53 1923.57 1402.56 1924.6C1403.58 1925.63 1404.1 1927.12 1404.11 1929.07L1404.19 1973.51C1404.19 1974.11 1404.37 1974.58 1404.72 1974.93C1405.07 1975.28 1405.55 1975.46 1406.15 1975.46H1406.32C1406.91 1975.46 1407.38 1975.29 1407.73 1974.93C1408.08 1974.58 1408.26 1974.1 1408.26 1973.5L1408.19 1929.05C1408.19 1927.11 1408.69 1925.61 1409.72 1924.57C1410.74 1923.55 1412.23 1923.03 1414.18 1923.02H1414.33C1416.28 1923.02 1417.77 1923.52 1418.8 1924.55C1419.82 1925.57 1420.34 1927.07 1420.34 1929.01L1420.41 1972.24C1420.41 1974.73 1419.76 1976.63 1418.46 1977.94C1417.16 1979.24 1415.27 1979.9 1412.78 1979.9L1399.62 1979.93C1397.13 1979.93 1395.24 1979.28 1393.94 1977.98C1392.64 1976.68 1391.98 1974.79 1391.98 1972.29L1391.94 1929.1Z" fill="#00BFFF"/>
<path d="M1423.77 1928.96C1423.77 1927.01 1424.27 1925.52 1425.3 1924.48C1426.32 1923.46 1427.81 1922.94 1429.76 1922.93H1429.91C1431.86 1922.93 1433.35 1923.43 1434.39 1924.47C1435.42 1925.5 1435.93 1926.99 1435.95 1928.94L1436.02 1975.34L1442.12 1975.33C1443.04 1975.33 1443.74 1975.53 1444.24 1975.94C1444.73 1976.36 1444.96 1976.9 1444.98 1977.6C1444.98 1978.3 1444.73 1978.85 1444.25 1979.23C1443.76 1979.6 1443.06 1979.8 1442.13 1979.8L1429.88 1979.81C1427.93 1979.81 1426.44 1979.3 1425.4 1978.28C1424.38 1977.25 1423.86 1975.76 1423.86 1973.81L1423.77 1928.96Z" fill="#00BFFF"/>
<path d="M1448.28 1925.18C1448.28 1924.48 1448.53 1923.94 1449.01 1923.56C1449.5 1923.18 1450.2 1922.99 1451.13 1922.99L1475.49 1922.95C1476.41 1922.95 1477.11 1923.13 1477.6 1923.52C1478.1 1923.9 1478.33 1924.44 1478.34 1925.15C1478.34 1925.85 1478.1 1926.4 1477.62 1926.82C1477.12 1927.22 1476.42 1927.43 1475.5 1927.43L1469.42 1927.44L1469.49 1973.84C1469.49 1975.79 1468.99 1977.28 1467.96 1978.32C1466.94 1979.34 1465.45 1979.86 1463.5 1979.87H1463.35C1461.4 1979.87 1459.91 1979.37 1458.87 1978.34C1457.84 1977.32 1457.33 1975.82 1457.33 1973.88L1457.25 1927.48L1451.15 1927.49C1450.23 1927.49 1449.53 1927.29 1449.04 1926.88C1448.53 1926.44 1448.3 1925.88 1448.28 1925.18Z" fill="#00BFFF"/>
<path d="M1481.75 1928.95C1481.75 1927 1482.26 1925.51 1483.28 1924.47C1484.31 1923.45 1485.8 1922.93 1487.75 1922.93H1487.9C1489.85 1922.93 1491.34 1923.43 1492.38 1924.46C1493.4 1925.48 1493.92 1926.98 1493.93 1928.92L1494.01 1973.77C1494.01 1975.72 1493.51 1977.21 1492.48 1978.25C1491.46 1979.29 1489.97 1979.8 1488.02 1979.81H1487.86C1485.92 1979.81 1484.43 1979.3 1483.4 1978.27C1482.38 1977.24 1481.86 1975.75 1481.86 1973.8L1481.75 1928.95Z" fill="#00BFFF"/>
<path d="M1497.83 1928.92C1497.83 1926.98 1498.33 1925.48 1499.36 1924.44C1500.38 1923.42 1501.87 1922.9 1503.82 1922.89L1513.65 1922.87C1515.33 1922.87 1516.6 1923.25 1517.47 1924C1518.34 1924.76 1518.76 1925.87 1518.78 1927.34H1521.62C1521.62 1925.94 1522.05 1924.83 1522.92 1924.04C1523.78 1923.25 1525.03 1922.86 1526.65 1922.86L1536.47 1922.85C1538.42 1922.85 1539.91 1923.35 1540.93 1924.38C1541.96 1925.4 1542.48 1926.9 1542.49 1928.85L1542.57 1973.7C1542.57 1975.64 1542.06 1977.14 1541.04 1978.17C1540.01 1979.2 1538.52 1979.72 1536.58 1979.73H1536.42C1534.47 1979.73 1532.98 1979.23 1531.94 1978.2C1530.92 1977.17 1530.4 1975.68 1530.39 1973.73L1530.32 1929.29C1530.32 1928.69 1530.14 1928.22 1529.79 1927.86C1529.44 1927.51 1528.96 1927.33 1528.36 1927.34H1528.21C1527.61 1927.34 1527.13 1927.52 1526.79 1927.87C1526.44 1928.22 1526.26 1928.7 1526.26 1929.3L1526.34 1973.75C1526.34 1975.69 1525.83 1977.19 1524.81 1978.23C1523.78 1979.25 1522.29 1979.77 1520.35 1979.78H1520.18C1518.23 1979.78 1516.74 1979.28 1515.72 1978.25C1514.69 1977.23 1514.17 1975.73 1514.16 1973.79L1514.09 1929.34C1514.09 1928.74 1513.91 1928.27 1513.56 1927.91C1513.21 1927.56 1512.73 1927.39 1512.13 1927.39H1511.98C1511.38 1927.39 1510.92 1927.57 1510.57 1927.92C1510.21 1928.27 1510.03 1928.75 1510.03 1929.35L1510.11 1973.8C1510.11 1975.75 1509.61 1977.24 1508.58 1978.28C1507.56 1979.3 1506.06 1979.82 1504.12 1979.84H1503.95C1502 1979.84 1500.51 1979.33 1499.49 1978.3C1498.46 1977.28 1497.94 1975.79 1497.94 1973.84L1497.83 1928.92Z" fill="#00BFFF"/>
<path d="M1546.4 1928.85C1546.4 1926.9 1546.9 1925.41 1547.93 1924.37C1548.95 1923.34 1550.44 1922.82 1552.39 1922.82L1568.8 1922.8C1570.75 1922.8 1572.24 1923.3 1573.26 1924.33C1574.29 1925.35 1574.81 1926.85 1574.81 1928.79L1574.88 1973.64C1574.88 1975.59 1574.38 1977.08 1573.35 1978.12C1572.33 1979.15 1570.84 1979.67 1568.89 1979.68H1568.73C1566.79 1979.68 1565.3 1979.17 1564.26 1978.15C1563.23 1977.12 1562.72 1975.63 1562.7 1973.68L1562.66 1953.37H1558.6L1558.64 1973.68C1558.64 1975.63 1558.14 1977.12 1557.11 1978.16C1556.09 1979.19 1554.59 1979.71 1552.65 1979.71H1552.49C1550.55 1979.71 1549.06 1979.2 1548.03 1978.16C1547.01 1977.14 1546.49 1975.64 1546.47 1973.7L1546.4 1928.85ZM1558.6 1948.9H1562.66L1562.64 1929.23C1562.64 1928.64 1562.46 1928.17 1562.11 1927.81C1561.76 1927.46 1561.28 1927.29 1560.68 1927.29H1560.51C1559.91 1927.29 1559.45 1927.47 1559.1 1927.82C1558.75 1928.17 1558.56 1928.65 1558.56 1929.25L1558.6 1948.9Z" fill="#00BFFF"/>
<path d="M1578.22 1924.98C1578.22 1924.28 1578.46 1923.73 1578.94 1923.35C1579.44 1922.98 1580.14 1922.78 1581.06 1922.78L1605.42 1922.74C1606.34 1922.74 1607.04 1922.93 1607.54 1923.32C1608.03 1923.7 1608.26 1924.24 1608.28 1924.94C1608.29 1925.64 1608.03 1926.2 1607.55 1926.6C1607.06 1927 1606.36 1927.21 1605.43 1927.21L1599.35 1927.22L1599.43 1973.62C1599.43 1975.57 1598.92 1977.06 1597.9 1978.1C1596.87 1979.14 1595.38 1979.64 1593.43 1979.65H1593.28C1591.33 1979.65 1589.84 1979.15 1588.8 1978.11C1587.78 1977.08 1587.26 1975.59 1587.26 1973.64L1587.18 1927.25L1581.08 1927.26C1580.16 1927.26 1579.46 1927.07 1578.97 1926.65C1578.48 1926.24 1578.22 1925.68 1578.22 1924.98Z" fill="#00BFFF"/>
<path d="M1611.74 1958.16C1611.74 1956.21 1612.09 1954.72 1612.79 1953.69C1613.49 1952.67 1614.49 1952.15 1615.79 1952.15V1950.12C1614.49 1950.12 1613.49 1949.62 1612.78 1948.58C1612.08 1947.55 1611.71 1946.06 1611.71 1944.11L1611.69 1928.75C1611.69 1926.81 1612.19 1925.31 1613.22 1924.28C1614.24 1923.25 1615.73 1922.73 1617.68 1922.72L1629.94 1922.69C1630.86 1922.69 1631.56 1922.87 1632.05 1923.26C1632.55 1923.64 1632.78 1924.19 1632.79 1924.89C1632.81 1925.59 1632.55 1926.15 1632.07 1926.55C1631.57 1926.95 1630.87 1927.16 1629.95 1927.16L1623.86 1927.17L1623.89 1948.78L1629.98 1948.77C1630.9 1948.77 1631.6 1948.95 1632.09 1949.34C1632.59 1949.73 1632.82 1950.26 1632.83 1950.97C1632.83 1951.67 1632.59 1952.22 1632.11 1952.64C1631.61 1953.04 1630.91 1953.25 1629.99 1953.25L1623.91 1953.26L1623.95 1975.12L1630.03 1975.11C1630.95 1975.11 1631.65 1975.31 1632.14 1975.68C1632.64 1976.06 1632.87 1976.6 1632.87 1977.3C1632.87 1978.01 1632.62 1978.56 1632.14 1978.97C1631.65 1979.37 1630.95 1979.58 1630.03 1979.58L1617.77 1979.6C1615.83 1979.6 1614.33 1979.1 1613.31 1978.07C1612.28 1977.05 1611.76 1975.55 1611.76 1973.61L1611.74 1958.16Z" fill="#00BFFF"/>
<path d="M1010.17 2052.91C1008.82 2052.91 1007.77 2052.58 1007.05 2051.93C1006.32 2051.28 1005.94 2050.36 1005.94 2049.17C1005.94 2047.97 1006.31 2047.05 1007.03 2046.4C1007.76 2045.75 1008.81 2045.43 1010.16 2045.42L1033.63 2045.38L1033.6 2030.75C1033.6 2029.83 1033.33 2029.1 1032.78 2028.55C1032.24 2028.01 1031.49 2027.75 1030.51 2027.75L1014.52 2027.78C1011.65 2027.78 1009.46 2027.02 1007.94 2025.52C1006.42 2024 1005.66 2021.8 1005.66 2018.94L1005.63 2004.88C1005.63 2002.01 1006.38 1999.81 1007.89 1998.29C1009.41 1996.78 1011.59 1996.01 1014.47 1996.01L1055.32 1995.95C1056.67 1995.95 1057.72 1996.26 1058.44 1996.87C1059.17 1997.49 1059.55 1998.4 1059.55 1999.59C1059.55 2000.84 1059.18 2001.79 1058.46 2002.44C1057.73 2003.09 1056.68 2003.41 1055.33 2003.41L1033.56 2003.45L1033.59 2017.35C1033.59 2018.27 1033.86 2019 1034.41 2019.55C1034.95 2020.09 1035.68 2020.35 1036.6 2020.35L1052.59 2020.32C1055.46 2020.32 1057.65 2021.08 1059.17 2022.6C1060.69 2024.11 1061.45 2026.31 1061.45 2029.18L1061.48 2043.96C1061.48 2046.83 1060.73 2049.03 1059.22 2050.54C1057.7 2052.06 1055.51 2052.83 1052.65 2052.83L1010.17 2052.91Z" fill="#00BFFF"/>
<path d="M1066.29 2005.68C1066.29 2002.54 1067.12 2000.13 1068.8 1998.45C1070.47 1996.78 1072.88 1995.92 1076.02 1995.92L1119.47 1995.85C1122.66 1995.85 1125.1 1996.69 1126.78 1998.36C1128.46 2000.03 1129.31 2002.45 1129.31 2005.59L1129.38 2042.98C1129.38 2046.12 1128.55 2048.53 1126.87 2050.21C1125.2 2051.89 1122.76 2052.74 1119.57 2052.74L1076.13 2052.8C1072.99 2052.8 1070.57 2051.97 1068.9 2050.3C1067.21 2048.62 1066.37 2046.21 1066.37 2043.07L1066.29 2005.68ZM1094.21 2042.29C1094.21 2043.26 1094.48 2044 1095.03 2044.52C1095.57 2045.03 1096.32 2045.29 1097.3 2045.29H1098.44C1099.36 2045.29 1100.09 2045.03 1100.63 2044.51C1101.18 2043.99 1101.43 2043.25 1101.43 2042.28L1101.38 2006.36C1101.38 2005.38 1101.11 2004.64 1100.57 2004.12C1100.02 2003.62 1099.29 2003.36 1098.37 2003.36H1097.23C1096.26 2003.36 1095.49 2003.62 1094.96 2004.14C1094.42 2004.66 1094.16 2005.4 1094.16 2006.37L1094.21 2042.29Z" fill="#00BFFF"/>
<path d="M1142.95 2052.69C1140.08 2052.69 1137.89 2051.93 1136.37 2050.43C1134.85 2048.91 1134.09 2046.72 1134.09 2043.85L1134.02 2004.68C1134.02 2001.81 1134.77 1999.62 1136.28 1998.1C1137.8 1996.58 1139.98 1995.82 1142.86 1995.82L1188.17 1995.75C1191.04 1995.75 1193.23 1996.5 1194.75 1998.01C1196.26 1999.53 1197.03 2001.72 1197.03 2004.59L1197.06 2018.73C1197.06 2021.6 1196.3 2023.79 1194.79 2025.31C1193.27 2026.83 1191.08 2027.59 1188.21 2027.59L1161.98 2027.63L1162 2043.81C1162 2046.68 1161.25 2048.87 1159.75 2050.39C1158.23 2051.91 1156.04 2052.67 1153.17 2052.67L1142.95 2052.69ZM1166.13 2020.56C1167.1 2020.56 1167.84 2020.29 1168.36 2019.74C1168.88 2019.2 1169.13 2018.44 1169.13 2017.47L1169.11 2005.93C1169.11 2004.95 1168.85 2004.2 1168.33 2003.66C1167.82 2003.11 1167.08 2002.85 1166.1 2002.85L1161.97 2002.86L1161.99 2020.58L1166.13 2020.56Z" fill="#00BFFF"/>
<path d="M1201.18 2004.58C1201.18 2001.71 1201.93 1999.52 1203.44 1998C1204.96 1996.48 1207.14 1995.71 1210.02 1995.71L1220.25 1995.7C1223.07 1995.7 1225.23 1996.45 1226.75 1997.97C1228.27 1999.49 1229.03 2001.68 1229.03 2004.55L1229.06 2020.31L1236.29 2020.3L1236.26 2004.54C1236.26 2001.67 1237.01 1999.48 1238.52 1997.96C1240.03 1996.44 1242.23 1995.67 1245.09 1995.67L1255.33 1995.66C1258.2 1995.66 1260.39 1996.41 1261.91 1997.92C1263.42 1999.44 1264.19 2001.63 1264.19 2004.5L1264.25 2043.67C1264.25 2046.53 1263.5 2048.73 1262 2050.25C1260.48 2051.77 1258.29 2052.53 1255.42 2052.53L1245.18 2052.54C1242.32 2052.54 1240.13 2051.79 1238.61 2050.29C1237.09 2048.77 1236.32 2046.57 1236.32 2043.7L1236.3 2027.7L1229.07 2027.71L1229.1 2043.72C1229.1 2046.59 1228.35 2048.78 1226.84 2050.3C1225.32 2051.82 1223.16 2052.58 1220.34 2052.58L1210.11 2052.6C1207.24 2052.6 1205.05 2051.84 1203.53 2050.32C1202.01 2048.81 1201.25 2046.61 1201.25 2043.74L1201.18 2004.58Z" fill="#00BFFF"/>
<path d="M1268.67 2004.46C1268.67 2001.59 1269.42 1999.4 1270.92 1997.88C1272.44 1996.36 1274.62 1995.6 1277.5 1995.6L1287.73 1995.58C1290.55 1995.58 1292.72 1996.33 1294.23 1997.85C1295.75 1999.37 1296.52 2001.57 1296.52 2004.44L1296.58 2043.6C1296.58 2046.47 1295.83 2048.66 1294.32 2050.18C1292.81 2051.7 1290.64 2052.47 1287.83 2052.47L1277.59 2052.48C1274.72 2052.48 1272.53 2051.73 1271.01 2050.21C1269.5 2048.69 1268.73 2046.49 1268.73 2043.63L1268.67 2004.46Z" fill="#00BFFF"/>
<path d="M1305.86 2052.43C1304.51 2052.43 1303.46 2052.1 1302.73 2051.45C1302 2050.8 1301.63 2049.88 1301.63 2048.69C1301.63 2047.49 1301.99 2046.57 1302.72 2045.92C1303.44 2045.27 1304.5 2044.95 1305.84 2044.94L1329.31 2044.9L1329.29 2030.27C1329.29 2029.35 1329.01 2028.62 1328.47 2028.07C1327.92 2027.53 1327.17 2027.27 1326.2 2027.27L1310.2 2027.3C1307.34 2027.3 1305.14 2026.54 1303.63 2025.04C1302.11 2023.52 1301.34 2021.32 1301.34 2018.45L1301.32 2004.4C1301.32 2001.53 1302.07 1999.33 1303.57 1997.81C1305.09 1996.3 1307.27 1995.53 1310.15 1995.53L1351 1995.46C1352.35 1995.46 1353.4 1995.78 1354.13 1996.4C1354.85 1997.02 1355.23 1997.93 1355.23 1999.13C1355.23 2000.37 1354.87 2001.32 1354.14 2001.97C1353.41 2002.62 1352.36 2002.94 1351.01 2002.96L1329.25 2002.99L1329.27 2016.9C1329.27 2017.82 1329.55 2018.55 1330.09 2019.09C1330.63 2019.64 1331.36 2019.9 1332.28 2019.9L1348.28 2019.87C1351.14 2019.87 1353.34 2020.62 1354.85 2022.14C1356.37 2023.66 1357.14 2025.85 1357.14 2028.72L1357.16 2043.51C1357.16 2046.38 1356.41 2048.57 1354.91 2050.09C1353.39 2051.61 1351.2 2052.38 1348.33 2052.38L1305.86 2052.43Z" fill="#00BFFF"/>
<path d="M1361.96 1999.11C1361.96 1997.92 1362.33 1997.01 1363.05 1996.39C1363.78 1995.76 1364.83 1995.45 1366.18 1995.45L1420.26 1995.36C1421.61 1995.36 1422.66 1995.67 1423.39 1996.3C1424.12 1996.92 1424.49 1997.83 1424.49 1999.02C1424.49 2000.27 1424.13 2001.22 1423.4 2001.86C1422.68 2002.51 1421.62 2002.84 1420.28 2002.85L1407.2 2002.88L1407.26 2043.43C1407.26 2046.3 1406.51 2048.49 1405.01 2050.01C1403.49 2051.53 1401.3 2052.3 1398.43 2052.3L1388.19 2052.31C1385.33 2052.31 1383.14 2051.56 1381.62 2050.04C1380.1 2048.52 1379.33 2046.33 1379.33 2043.46L1379.27 2002.9L1366.19 2002.93C1364.84 2002.93 1363.79 2002.6 1363.07 2001.96C1362.33 2001.31 1361.96 2000.36 1361.96 1999.11Z" fill="#00BFFF"/>
<path d="M1429.05 2004.2C1429.05 2001.33 1429.8 1999.14 1431.3 1997.62C1432.81 1996.1 1435.01 1995.34 1437.88 1995.34L1448.12 1995.32C1450.93 1995.32 1453.1 1996.08 1454.61 1997.59C1456.13 1999.11 1456.9 2001.31 1456.9 2004.18L1456.96 2043.34C1456.96 2046.21 1456.21 2048.4 1454.71 2049.92C1453.2 2051.44 1451.02 2052.21 1448.22 2052.21L1437.98 2052.22C1435.12 2052.22 1432.92 2051.47 1431.41 2049.96C1429.89 2048.44 1429.12 2046.25 1429.12 2043.38L1429.05 2004.2Z" fill="#00BFFF"/>
<path d="M1461.7 2004.15C1461.7 2001.28 1462.45 1999.09 1463.95 1997.57C1465.47 1996.05 1467.67 1995.28 1470.53 1995.28L1511.38 1995.22C1512.73 1995.22 1513.78 1995.53 1514.51 1996.15C1515.24 1996.78 1515.61 1997.69 1515.61 1998.88C1515.61 2000.13 1515.25 2001.07 1514.52 2001.72C1513.8 2002.37 1512.74 2002.7 1511.4 2002.71L1489.63 2002.75L1489.69 2044.68L1511.46 2044.64C1512.81 2044.64 1513.86 2044.96 1514.59 2045.61C1515.31 2046.26 1515.69 2047.18 1515.69 2048.38C1515.69 2049.57 1515.33 2050.49 1514.6 2051.14C1513.87 2051.79 1512.82 2052.12 1511.47 2052.12L1470.62 2052.18C1467.76 2052.18 1465.56 2051.43 1464.05 2049.92C1462.53 2048.42 1461.76 2046.21 1461.76 2043.34L1461.7 2004.15Z" fill="#00BFFF"/>
<path d="M1520.17 2004.06C1520.17 2001.19 1520.92 1999 1522.44 1997.48C1523.95 1995.96 1526.13 1995.19 1529.01 1995.19L1574.33 1995.12C1577.19 1995.12 1579.39 1995.87 1580.9 1997.39C1582.42 1998.91 1583.19 2001.1 1583.19 2003.97L1583.25 2043.13C1583.25 2046 1582.5 2048.2 1580.98 2049.71C1579.46 2051.23 1577.27 2052 1574.4 2052L1564.17 2052.01C1561.3 2052.01 1559.11 2051.26 1557.59 2049.74C1556.07 2048.22 1555.31 2046.03 1555.31 2043.16L1555.28 2027.15L1548.06 2027.17L1548.08 2043.17C1548.08 2046.04 1547.33 2048.23 1545.82 2049.75C1544.31 2051.27 1542.14 2052.04 1539.34 2052.04L1529.1 2052.05C1526.24 2052.05 1524.04 2051.3 1522.53 2049.79C1521.01 2048.27 1520.24 2046.08 1520.24 2043.21L1520.17 2004.06ZM1548.04 2019.78L1555.27 2019.77L1555.24 2005.63C1555.24 2004.66 1554.97 2003.92 1554.43 2003.4C1553.88 2002.89 1553.15 2002.63 1552.23 2002.63H1551.09C1550.12 2002.63 1549.35 2002.89 1548.82 2003.41C1548.28 2003.93 1548.02 2004.67 1548.02 2005.64L1548.04 2019.78Z" fill="#00BFFF"/>
<path d="M1587.64 1998.75C1587.64 1997.56 1588 1996.65 1588.73 1996.02C1589.45 1995.4 1590.5 1995.09 1591.85 1995.09L1645.93 1995C1647.28 1995 1648.33 1995.31 1649.06 1995.92C1649.79 1996.54 1650.16 1997.45 1650.16 1998.65C1650.16 1999.89 1649.8 2000.84 1649.07 2001.49C1648.35 2002.14 1647.3 2002.46 1645.95 2002.46L1632.87 2002.49L1632.94 2043.04C1632.94 2045.91 1632.18 2048.1 1630.68 2049.62C1629.16 2051.14 1626.97 2051.91 1624.1 2051.91L1613.87 2051.92C1611 2051.92 1608.81 2051.17 1607.29 2049.66C1605.77 2048.14 1605.01 2045.95 1605.01 2043.08L1604.94 2002.53L1591.86 2002.55C1590.52 2002.55 1589.46 2002.23 1588.74 2001.58C1588.01 2000.94 1587.64 2000 1587.64 1998.75Z" fill="#00BFFF"/>
<path d="M1654.73 2003.84C1654.73 2000.97 1655.48 1998.78 1657 1997.26C1658.52 1995.74 1660.7 1994.97 1663.58 1994.97L1673.81 1994.96C1676.63 1994.96 1678.79 1995.71 1680.31 1997.22C1681.83 1998.74 1682.6 2000.93 1682.6 2003.8L1682.66 2042.96C1682.66 2045.83 1681.91 2048.03 1680.4 2049.55C1678.88 2051.06 1676.72 2051.83 1673.92 2051.83L1663.68 2051.84C1660.81 2051.84 1658.62 2051.09 1657.1 2049.58C1655.59 2048.07 1654.82 2045.87 1654.82 2043L1654.73 2003.84Z" fill="#00BFFF"/>
<path d="M1687.12 2004.68C1687.12 2001.54 1687.95 1999.13 1689.63 1997.44C1691.3 1995.76 1693.71 1994.91 1696.85 1994.91L1740.3 1994.84C1743.49 1994.84 1745.93 1995.67 1747.61 1997.35C1749.29 1999.02 1750.14 2001.44 1750.14 2004.58L1750.21 2041.96C1750.21 2045.11 1749.38 2047.52 1747.71 2049.21C1746.03 2050.88 1743.59 2051.74 1740.4 2051.74L1696.96 2051.8C1693.82 2051.8 1691.4 2050.97 1689.72 2049.3C1688.03 2047.62 1687.19 2045.21 1687.19 2042.07L1687.12 2004.68ZM1715.04 2041.29C1715.04 2042.26 1715.31 2043.02 1715.86 2043.52C1716.4 2044.04 1717.15 2044.29 1718.13 2044.29H1719.27C1720.19 2044.29 1720.92 2044.03 1721.46 2043.51C1722.01 2042.99 1722.27 2042.25 1722.27 2041.28L1722.21 2005.36C1722.21 2004.38 1721.94 2003.64 1721.4 2003.12C1720.85 2002.62 1720.13 2002.36 1719.2 2002.36H1718.06C1717.09 2002.36 1716.34 2002.62 1715.79 2003.14C1715.25 2003.66 1714.99 2004.4 1714.99 2005.37L1715.04 2041.29Z" fill="#00BFFF"/>
<path d="M1754.85 2003.68C1754.85 2000.81 1755.61 1998.62 1757.12 1997.1C1758.64 1995.58 1760.82 1994.82 1763.7 1994.82L1795.04 1994.76C1797.96 1994.76 1800.26 1995.53 1801.9 1997.07C1803.55 1998.62 1804.38 2000.8 1804.4 2003.62L1804.46 2041.41C1804.46 2042.28 1804.71 2042.95 1805.2 2043.43C1805.69 2043.91 1806.37 2044.16 1807.24 2044.16H1808.38C1809.3 2044.16 1810 2043.91 1810.49 2043.42C1810.99 2042.92 1811.22 2042.25 1811.22 2041.38L1811.15 2003.59C1811.15 2000.72 1811.91 1998.53 1813.41 1997.01C1814.93 1995.49 1817.12 1994.72 1819.99 1994.72L1830.22 1994.71C1833.04 1994.71 1835.21 1995.46 1836.72 1996.97C1838.24 1998.49 1839.01 2000.68 1839.01 2003.55L1839.07 2042.72C1839.07 2045.59 1838.32 2047.78 1836.81 2049.3C1835.3 2050.82 1833.13 2051.58 1830.31 2051.58L1798.88 2051.64C1796.02 2051.64 1793.74 2050.87 1792.1 2049.32C1790.44 2047.78 1789.61 2045.6 1789.61 2042.78L1789.54 2004.99C1789.54 2004.12 1789.3 2003.45 1788.8 2002.97C1788.31 2002.47 1787.61 2002.24 1786.69 2002.24H1785.55C1784.68 2002.24 1784 2002.49 1783.52 2002.98C1783.03 2003.47 1782.8 2004.15 1782.8 2005.02L1782.86 2042.81C1782.86 2045.68 1782.11 2047.87 1780.6 2049.39C1779.09 2050.91 1776.89 2051.67 1774.03 2051.67L1763.79 2051.69C1760.92 2051.69 1758.73 2050.93 1757.21 2049.43C1755.7 2047.91 1754.93 2045.72 1754.93 2042.85L1754.85 2003.68Z" fill="#00BFFF"/>
</svg>
