<?xml version="1.0" encoding="utf-8"?>
<!-- Generator: Adobe Illustrator 25.2.3, SVG Export Plug-In . SVG Version: 6.00 Build 0)  -->
<svg version="1.1" id="Camada_1" xmlns="http://www.w3.org/2000/svg" xmlns:xlink="http://www.w3.org/1999/xlink" x="0px" y="0px"
	 viewBox="0 0 1747 1322" style="enable-background:new 0 0 1747 1322;" xml:space="preserve">
<style type="text/css">
	.st0{fill:none;stroke:#00BFFF;stroke-width:3;stroke-linecap:round;stroke-linejoin:round;stroke-miterlimit:10;}
	.st1{fill:#00BFFF;}
	.st2{fill:#FFFFFF;stroke:#00BFFF;stroke-width:3;stroke-linecap:round;stroke-linejoin:round;stroke-miterlimit:10;}
	.st3{fill:#FFFFFF;}
	.st4{fill:#D5F5FF;stroke:#00BDFF;stroke-width:3;stroke-linecap:round;stroke-linejoin:round;stroke-miterlimit:10;}
	.st5{fill:none;}
	.st6{fill:#00BDFF;}
	.st7{font-family:'GTAmericaMono-Regular';}
	.st8{font-size:23.909px;}
	.st9{letter-spacing:-1;}
</style>
<path class="st0" d="M842.6,257.7c53.2,0,96.4-43.2,96.4-96.4c0-53.2-43.1-96.4-96.4-96.4c-53.2,0-96.4,43.2-96.4,96.4
	C746.3,214.5,789.4,257.7,842.6,257.7z"/>
<path class="st0" d="M842.3,64.8c-17.5,24.5-46.2,40.5-78.5,40.5"/>
<path class="st0" d="M919.7,105.2c-32,0-60.3-15.7-77.9-39.7"/>
<path class="st0" d="M918.8,164.3c0,41.9-33.9,75.8-75.8,75.8c-41.9,0-75.8-33.9-75.8-75.8"/>
<path class="st0" d="M752,192.1c-2.1,0.4-4.3,0.6-6.6,0.6c-17.8,0-32.4-14.5-32.4-32.4s14.5-32.4,32.4-32.4c2.3,0,4.4,0.3,6.6,0.6"
	/>
<path class="st0" d="M933.2,128.6c2.1-0.4,4.3-0.6,6.6-0.6c17.8,0,32.4,14.5,32.4,32.4s-14.5,32.4-32.4,32.4c-2,0-4-0.3-6.1-0.5"/>
<path class="st1" d="M815.5,155.1c3.8,0,7-3.1,7-7c0-3.8-3.1-7-7-7c-3.8,0-7,3.1-7,7C808.5,152,811.6,155.1,815.5,155.1z"/>
<path class="st1" d="M867.9,155.1c3.8,0,7-3.1,7-7c0-3.8-3.1-7-7-7c-3.8,0-7,3.1-7,7C861,152,864.1,155.1,867.9,155.1z"/>
<path class="st0" d="M808.5,121.4l24.4,19.7"/>
<path class="st0" d="M875,121.4l-24.5,19.7"/>
<path class="st0" d="M830.4,159.5l-1.8,26.3h27.7l-3-26.3"/>
<path class="st0" d="M828.6,185.8c8.5,3.4,18,3.5,26.6,0.5l1.3-0.5H828.6z"/>
<path class="st0" d="M93.1,758.7v86.7c0,22.9,18.6,41.5,41.5,41.5s41.5-18.6,41.5-41.5v-88.5h-8.3"/>
<path class="st0" d="M177.2,758.7v86.7c0,22.9,18.6,41.5,41.5,41.5c22.9,0,41.5-18.6,41.5-41.5v-88.5h-8.3"/>
<path class="st0" d="M261.3,758.7v86.7c0,22.9,18.6,41.5,41.5,41.5c22.9,0,41.5-18.6,41.5-41.5v-88.5"/>
<path class="st0" d="M808.5,251.3l-30.7,90.3H562c-43.9,0-79.5,35.7-79.5,79.6v144.6L131.4,668.4c-22.6,6.6-38.3,27.4-38.3,51.1V758
	"/>
<path class="st0" d="M344.4,772.9c20.1-23,37.7-21.3,37.7-21.3s24.5-3.5,24.5,21V811c0,15.7,12.6,28.3,28.3,28.3
	s28.3-12.6,28.3-28.3v-85.3c0-22.4-18.2-40.6-40.6-40.6H368"/>
<path class="st0" d="M461.2,712.7L580,648.2"/>
<path class="st0" d="M580,473.5V744"/>
<path class="st0" d="M201,648.2h166.2c20.4,0,36.8,16.4,36.8,36.8"/>
<path class="st0" d="M709,341.7v93.1l46,10.2l-33.3,21l120.1,186.6l-95.4-310.9"/>
<path class="st0" d="M777.8,341.7l36.8,70.1l27.3-35L777.8,341.7z"/>
<path class="st0" d="M176.2,815.8c-11.5,9.1-26.1,14.7-42,14.7c-15.6,0-29.7-5.2-41.1-14"/>
<path class="st0" d="M260.3,815.8c-11.5,9.1-26.1,14.7-42,14.7c-15.6,0-29.7-5.2-41.1-14"/>
<path class="st0" d="M344.4,815.8c-11.5,9.1-26.1,14.7-42,14.7c-15.6,0-29.7-5.2-41.1-14"/>
<path class="st0" d="M461.2,796.2c-7.6,6.1-17.2,9.6-27.6,9.6c-10.2,0-19.6-3.4-27.1-9.2"/>
<path class="st0" d="M1589.9,758.8v86.6c0,22.9-18.6,41.5-41.5,41.5c-22.9,0-41.5-18.6-41.5-41.5v-88.5h8.3"/>
<path class="st0" d="M1505.8,758.8v86.6c0,22.9-18.6,41.5-41.5,41.5s-41.5-18.6-41.5-41.5v-88.5h8.3"/>
<path class="st0" d="M1421.7,758.8v86.6c0,22.9-18.6,41.5-41.5,41.5s-41.5-18.6-41.5-41.5v-88.5"/>
<path class="st0" d="M874.6,251.6l30.6,90.3h215.9c43.9,0,79.6,35.7,79.6,79.6v144.6l351.1,102.6c22.6,6.6,38.3,27.4,38.3,51.1v38.5
	"/>
<path class="st0" d="M1338.6,773c-20.1-23-37.7-21.3-37.7-21.3s-24.5-3.5-24.5,21v38.3c0,15.7-12.7,28.3-28.3,28.3
	c-15.7,0-28.3-12.6-28.3-28.3v-85.3c0-22.4,18.2-40.6,40.6-40.6h54.6"/>
<path class="st0" d="M1221.9,712.9l-118.8-64.5"/>
<path class="st0" d="M1103.2,473.7v270.4"/>
<path class="st0" d="M1482.2,648.4H1316c-20.4,0-36.8,16.4-36.8,36.8"/>
<path class="st0" d="M974.2,341.9v93L928,445.3l33.3,21l-120,186.6l95.2-310.9"/>
<path class="st0" d="M905.2,341.9L868.6,412l-27.3-35L905.2,341.9z"/>
<path class="st0" d="M1506.8,815.9c11.5,9.1,26.1,14.7,42,14.7c15.6,0,29.7-5.2,41.1-14"/>
<path class="st0" d="M1422.9,815.9c11.5,9.1,26.1,14.7,42,14.7c15.6,0,29.7-5.2,41.1-14"/>
<path class="st0" d="M1338.8,815.9c11.5,9.1,26,14.7,42,14.7c15.6,0,29.7-5.2,41.1-14"/>
<path class="st0" d="M1221.8,796.4c7.6,6.1,17.2,9.6,27.6,9.6c10.2,0,19.6-3.4,27.1-9.2"/>
<path class="st0" d="M836.2,445.5l5.1-30.2l-16.8-16.1"/>
<path class="st0" d="M859,399.6l-16.8,16.2l5.1,30.1"/>
<path class="st0" d="M836.2,445.5l-20.5,121.7h0.8l-0.1,0.4l26.3,84.1l24.9-84.1l-20.4-121.7"/>
<path class="st0" d="M113.3,1042.3c9.2,0,16.7-7.5,16.7-16.7s-7.5-16.7-16.7-16.7c-9.2,0-16.7,7.5-16.7,16.7
	S104.1,1042.3,113.3,1042.3z"/>
<path class="st0" d="M115,1061.7H82c-8.3,0-15.2,6.8-15.2,15.2v63.6c0,5.8,4.8,10.5,10.6,10.5c5.8,0,10.4-4.7,10.4-10.5v-10.6"/>
<path class="st0" d="M87.9,1086.1v162.2c0,6.8,5.6,12.4,12.4,12.4c6.8,0,12.4-5.6,12.4-12.4v-92.1"/>
<path class="st0" d="M110.7,1061.7h33c8.3,0,15.2,6.8,15.2,15.2v63.6c0,5.8-4.8,10.5-10.6,10.5c-5.8,0-10.4-4.7-10.4-10.5v-10.6"/>
<path class="st0" d="M137.1,1086.1v162.2c0,6.8-5.6,12.4-12.4,12.4c-6.8,0-12.4-5.6-12.4-12.4v-92.1"/>
<path class="st0" d="M109.1,1042.9l-5.1,18.7"/>
<path class="st0" d="M119.8,1042.9l5.2,18.7"/>
<path class="st0" d="M256.9,1042.3c9.2,0,16.7-7.5,16.7-16.7s-7.5-16.7-16.7-16.7c-9.2,0-16.7,7.5-16.7,16.7
	S247.6,1042.3,256.9,1042.3z"/>
<path class="st0" d="M258.6,1061.7h-33c-8.3,0-15.2,6.8-15.2,15.2v63.6c0,5.8,4.8,10.5,10.6,10.5c5.8,0,10.4-4.7,10.4-10.5v-10.6"/>
<path class="st0" d="M231.4,1086.1v162.2c0,6.8,5.6,12.4,12.4,12.4c6.8,0,12.4-5.6,12.4-12.4v-92.1"/>
<path class="st0" d="M254.2,1061.7h33c8.3,0,15.2,6.8,15.2,15.2v63.6c0,5.8-4.8,10.5-10.6,10.5c-5.8,0-10.4-4.7-10.4-10.5v-10.6"/>
<path class="st0" d="M280.8,1086.1v162.2c0,6.8-5.6,12.4-12.4,12.4c-6.8,0-12.4-5.6-12.4-12.4v-92.1"/>
<path class="st0" d="M252.7,1042.9l-5.1,18.7"/>
<path class="st0" d="M263.4,1042.9l5.1,18.7"/>
<path class="st2" d="M323.4,1042.3c9.2,0,16.7-7.5,16.7-16.7s-7.5-16.7-16.7-16.7c-9.2,0-16.7,7.5-16.7,16.7
	S314.2,1042.3,323.4,1042.3z"/>
<path class="st3" d="M325.1,1061.7h-33c-8.3,0-15.2,6.8-15.2,15.2v63.6c0,5.8,4.8,10.5,10.6,10.5c5.8,0,10.4-4.7,10.4-10.5v-10.6"/>
<path class="st0" d="M325.1,1061.7h-33c-8.3,0-15.2,6.8-15.2,15.2v63.6c0,5.8,4.8,10.5,10.6,10.5c5.8,0,10.4-4.7,10.4-10.5v-10.6"/>
<path class="st3" d="M298,1086.1v162.2c0,6.8,5.6,12.4,12.4,12.4c6.8,0,12.4-5.6,12.4-12.4v-92.1"/>
<path class="st0" d="M298,1086.1v162.2c0,6.8,5.6,12.4,12.4,12.4c6.8,0,12.4-5.6,12.4-12.4v-92.1"/>
<path class="st3" d="M320.7,1061.7h33c8.3,0,15.2,6.8,15.2,15.2v63.6c0,5.8-4.8,10.5-10.6,10.5c-5.8,0-10.4-4.7-10.4-10.5v-10.6"/>
<path class="st0" d="M320.7,1061.7h33c8.3,0,15.2,6.8,15.2,15.2v63.6c0,5.8-4.8,10.5-10.6,10.5c-5.8,0-10.4-4.7-10.4-10.5v-10.6"/>
<path class="st3" d="M347.3,1086.1v162.2c0,6.8-5.6,12.4-12.4,12.4c-6.8,0-12.4-5.6-12.4-12.4v-92.1"/>
<path class="st0" d="M347.3,1086.1v162.2c0,6.8-5.6,12.4-12.4,12.4c-6.8,0-12.4-5.6-12.4-12.4v-92.1"/>
<path class="st0" d="M319.2,1042.9l-5.1,18.7"/>
<path class="st0" d="M330,1042.9l5.1,18.7"/>
<path class="st0" d="M565.4,1042.3c9.2,0,16.7-7.5,16.7-16.7s-7.5-16.7-16.7-16.7c-9.2,0-16.7,7.5-16.7,16.7
	S556.2,1042.3,565.4,1042.3z"/>
<path class="st0" d="M567.2,1061.7h-33c-8.3,0-15.2,6.8-15.2,15.2v63.6c0,5.8,4.8,10.5,10.6,10.5c5.8,0,10.4-4.7,10.4-10.5v-10.6"/>
<path class="st0" d="M540,1086.1v162.2c0,6.8,5.6,12.4,12.4,12.4c6.8,0,12.4-5.6,12.4-12.4v-92.1"/>
<path class="st0" d="M562.8,1061.7h33c8.3,0,15.2,6.8,15.2,15.2v63.6c0,5.8-4.8,10.5-10.6,10.5c-5.8,0-10.4-4.7-10.4-10.5v-10.6"/>
<path class="st0" d="M589.3,1086.1v162.2c0,6.8-5.6,12.4-12.4,12.4c-6.8,0-12.4-5.6-12.4-12.4v-92.1"/>
<path class="st0" d="M561.3,1042.9l-5.1,18.7"/>
<path class="st0" d="M572,1042.9l5.1,18.7"/>
<path class="st0" d="M775.2,1042.3c9.2,0,16.7-7.5,16.7-16.7s-7.5-16.7-16.7-16.7c-9.2,0-16.7,7.5-16.7,16.7
	S766,1042.3,775.2,1042.3z"/>
<path class="st0" d="M776.9,1061.7h-33c-8.3,0-15.2,6.8-15.2,15.2v63.6c0,5.8,4.8,10.5,10.6,10.5c5.8,0,10.4-4.7,10.4-10.5v-10.6"/>
<path class="st0" d="M749.8,1086.1v162.2c0,6.8,5.6,12.4,12.4,12.4s12.4-5.6,12.4-12.4v-92.1"/>
<path class="st0" d="M772.6,1061.7h33c8.3,0,15.2,6.8,15.2,15.2v63.6c0,5.8-4.8,10.5-10.6,10.5c-5.8,0-10.4-4.7-10.4-10.5v-10.6"/>
<path class="st0" d="M799,1086.1v162.2c0,6.8-5.6,12.4-12.4,12.4c-6.8,0-12.4-5.6-12.4-12.4v-92.1"/>
<path class="st0" d="M771.1,1042.9l-5.2,18.7"/>
<path class="st0" d="M781.7,1042.9l5.1,18.7"/>
<path class="st0" d="M1078.1,1042.3c9.2,0,16.7-7.5,16.7-16.7s-7.5-16.7-16.7-16.7s-16.7,7.5-16.7,16.7S1068.9,1042.3,1078.1,1042.3
	z"/>
<path class="st0" d="M1079.9,1061.7h-33c-8.3,0-15.2,6.8-15.2,15.2v63.6c0,5.8,4.8,10.5,10.6,10.5c5.8,0,10.4-4.7,10.4-10.5v-10.6"
	/>
<path class="st0" d="M1052.7,1086.1v162.2c0,6.8,5.6,12.4,12.4,12.4c6.8,0,12.4-5.6,12.4-12.4v-92.1"/>
<path class="st0" d="M1123.7,1140.5c0,5.8-4.8,10.5-10.6,10.5c-5.8,0-10.4-4.7-10.4-10.5v-10.6"/>
<path class="st0" d="M1075.5,1061.7h33c8.3,0,15.2,6.8,15.2,15.2"/>
<path class="st0" d="M1102,1086.1v162.2c0,6.8-5.6,12.4-12.4,12.4s-12.4-5.6-12.4-12.4v-92.1"/>
<path class="st0" d="M1073.9,1042.9l-5.1,18.7"/>
<path class="st0" d="M1084.7,1042.9l5.1,18.7"/>
<path class="st0" d="M1260.2,1042.3c9.2,0,16.7-7.5,16.7-16.7s-7.5-16.7-16.7-16.7s-16.7,7.5-16.7,16.7S1251,1042.3,1260.2,1042.3z"
	/>
<path class="st0" d="M1262,1061.7h-33c-8.3,0-15.2,6.8-15.2,15.2v63.6c0,5.8,4.8,10.5,10.6,10.5c5.8,0,10.4-4.7,10.4-10.5v-10.6"/>
<path class="st0" d="M1234.8,1086.1v162.2c0,6.8,5.6,12.4,12.4,12.4c6.8,0,12.4-5.6,12.4-12.4v-92.1"/>
<path class="st0" d="M1257.6,1061.7h33c8.4,0,15.2,6.8,15.2,15.2v63.6c0,5.8-4.8,10.5-10.6,10.5c-5.8,0-10.4-4.7-10.4-10.5v-10.6"/>
<path class="st0" d="M1284.1,1086.1v162.2c0,6.8-5.6,12.4-12.4,12.4s-12.4-5.6-12.4-12.4v-92.1"/>
<path class="st0" d="M1256.1,1042.9l-5.1,18.7"/>
<path class="st0" d="M1266.8,1042.9l5.1,18.7"/>
<path class="st0" d="M1465.1,1042.3c9.2,0,16.7-7.5,16.7-16.7s-7.5-16.7-16.7-16.7s-16.7,7.5-16.7,16.7S1455.9,1042.3,1465.1,1042.3
	z"/>
<path class="st0" d="M1466.9,1061.7h-33c-8.3,0-15.2,6.8-15.2,15.2v63.6c0,5.8,4.8,10.5,10.6,10.5c5.8,0,10.4-4.7,10.4-10.5v-10.6"
	/>
<path class="st0" d="M1439.7,1086.1v162.2c0,6.8,5.6,12.4,12.4,12.4c6.8,0,12.4-5.6,12.4-12.4v-92.1"/>
<path class="st0" d="M1510.6,1140.5c0,5.8-4.8,10.5-10.6,10.5c-5.8,0-10.4-4.7-10.4-10.5v-10.6"/>
<path class="st0" d="M1462.4,1061.7h33c8.4,0,15.2,6.8,15.2,15.2"/>
<path class="st0" d="M1489,1086.1v162.2c0,6.8-5.6,12.4-12.4,12.4s-12.4-5.6-12.4-12.4v-92.1"/>
<path class="st0" d="M1460.9,1042.9l-5.1,18.7"/>
<path class="st0" d="M1471.7,1042.9l5.1,18.7"/>
<path class="st2" d="M1517.6,1042.3c9.2,0,16.7-7.5,16.7-16.7s-7.5-16.7-16.7-16.7c-9.2,0-16.7,7.5-16.7,16.7
	S1508.4,1042.3,1517.6,1042.3z"/>
<path class="st3" d="M1519.4,1061.7h-33c-8.3,0-15.2,6.8-15.2,15.2v63.6c0,5.8,4.8,10.5,10.6,10.5c5.8,0,10.4-4.7,10.4-10.5v-10.6"
	/>
<path class="st0" d="M1519.4,1061.7h-33c-8.3,0-15.2,6.8-15.2,15.2v63.6c0,5.8,4.8,10.5,10.6,10.5c5.8,0,10.4-4.7,10.4-10.5v-10.6"
	/>
<path class="st3" d="M1492.3,1086.1v162.2c0,6.8,5.6,12.4,12.4,12.4c6.8,0,12.4-5.6,12.4-12.4v-92.1"/>
<path class="st0" d="M1492.3,1086.1v162.2c0,6.8,5.6,12.4,12.4,12.4c6.8,0,12.4-5.6,12.4-12.4v-92.1"/>
<path class="st3" d="M1515.1,1061.7h33c8.4,0,15.2,6.8,15.2,15.2v63.6c0,5.8-4.8,10.5-10.6,10.5c-5.8,0-10.4-4.7-10.4-10.5v-10.6"/>
<path class="st0" d="M1515.1,1061.7h33c8.4,0,15.2,6.8,15.2,15.2v63.6c0,5.8-4.8,10.5-10.6,10.5c-5.8,0-10.4-4.7-10.4-10.5v-10.6"/>
<path class="st3" d="M1541.5,1086.1v162.2c0,6.8-5.6,12.4-12.4,12.4c-6.8,0-12.4-5.6-12.4-12.4v-92.1"/>
<path class="st0" d="M1541.5,1086.1v162.2c0,6.8-5.6,12.4-12.4,12.4c-6.8,0-12.4-5.6-12.4-12.4v-92.1"/>
<path class="st0" d="M1513.5,1042.9l-5.2,18.7"/>
<path class="st0" d="M1524.2,1042.9l5.1,18.7"/>
<path class="st0" d="M1628,1042.3c9.2,0,16.7-7.5,16.7-16.7s-7.5-16.7-16.7-16.7s-16.7,7.5-16.7,16.7S1618.8,1042.3,1628,1042.3z"/>
<path class="st0" d="M1629.8,1061.7h-33c-8.3,0-15.2,6.8-15.2,15.2v63.6c0,5.8,4.8,10.5,10.6,10.5c5.8,0,10.4-4.7,10.4-10.5v-10.6"
	/>
<path class="st0" d="M1602.6,1086.1v162.2c0,6.8,5.6,12.4,12.4,12.4c6.8,0,12.4-5.6,12.4-12.4v-92.1"/>
<path class="st0" d="M1625.3,1061.7h33c8.3,0,15.2,6.8,15.2,15.2v63.6c0,5.8-4.8,10.5-10.6,10.5c-5.8,0-10.4-4.7-10.4-10.5v-10.6"/>
<path class="st0" d="M1651.8,1086.1v162.2c0,6.8-5.6,12.4-12.4,12.4s-12.4-5.6-12.4-12.4v-92.1"/>
<path class="st0" d="M1623.8,1042.9l-5.1,18.7"/>
<path class="st0" d="M1634.4,1042.9l5.2,18.7"/>
<path class="st0" d="M1517.6,1009l31.2-178.5L1628,1009"/>
<path class="st0" d="M1465.1,1009l-0.4-178.5"/>
<path class="st0" d="M1132.4,1009l248.4-178.5L1260.2,1009"/>
<path class="st0" d="M1015.1,1009l234.3-203l-171.4,203"/>
<path class="st0" d="M565.4,1009.2L433.7,805.8L775.2,1009"/>
<path class="st0" d="M496.8,1009L302.4,830.3"/>
<path class="st0" d="M256.9,1009l-38.6-178.7L323.4,1009"/>
<path class="st0" d="M113.3,1009l21-178.7"/>
<path class="st0" d="M496.8,1042.3c9.2,0,16.7-7.5,16.7-16.7s-7.5-16.7-16.7-16.7c-9.2,0-16.7,7.5-16.7,16.7
	S487.5,1042.3,496.8,1042.3z"/>
<path class="st0" d="M498.5,1061.7h-33c-8.3,0-15.2,6.8-15.2,15.2v63.6c0,5.8,4.8,10.5,10.6,10.5c5.8,0,10.4-4.7,10.4-10.5v-10.6"/>
<path class="st0" d="M471.3,1086.1v162.2c0,6.8,5.6,12.4,12.4,12.4c6.8,0,12.4-5.6,12.4-12.4v-92.1"/>
<path class="st3" d="M494.1,1061.7h33c8.3,0,15.2,6.8,15.2,15.2v63.6c0,5.8-4.8,10.5-10.6,10.5c-5.8,0-10.4-4.7-10.4-10.5v-10.6"/>
<path class="st0" d="M494.1,1061.7h33c8.3,0,15.2,6.8,15.2,15.2v63.6c0,5.8-4.8,10.5-10.6,10.5c-5.8,0-10.4-4.7-10.4-10.5v-10.6"/>
<path class="st3" d="M520.7,1086.1v162.2c0,6.8-5.6,12.4-12.4,12.4s-12.4-5.6-12.4-12.4v-92.1"/>
<path class="st0" d="M520.7,1086.1v162.2c0,6.8-5.6,12.4-12.4,12.4s-12.4-5.6-12.4-12.4v-92.1"/>
<path class="st0" d="M492.6,1042.9l-5.1,18.7"/>
<path class="st0" d="M503.2,1042.9l5.2,18.7"/>
<path class="st2" d="M1013.9,1042.3c9.2,0,16.7-7.5,16.7-16.7s-7.5-16.7-16.7-16.7c-9.2,0-16.7,7.5-16.7,16.7
	S1004.7,1042.3,1013.9,1042.3z"/>
<path class="st3" d="M1015.5,1061.7h-33c-8.3,0-15.2,6.8-15.2,15.2v63.6c0,5.8,4.8,10.5,10.6,10.5s10.4-4.7,10.4-10.5v-10.6"/>
<path class="st0" d="M1015.5,1061.7h-33c-8.3,0-15.2,6.8-15.2,15.2v63.6c0,5.8,4.8,10.5,10.6,10.5s10.4-4.7,10.4-10.5v-10.6"/>
<path class="st3" d="M988.5,1086.1v162.2c0,6.8,5.6,12.4,12.4,12.4c6.8,0,12.4-5.6,12.4-12.4v-92.1"/>
<path class="st0" d="M988.5,1086.1v162.2c0,6.8,5.6,12.4,12.4,12.4c6.8,0,12.4-5.6,12.4-12.4v-92.1"/>
<path class="st3" d="M1011.2,1061.7h33c8.3,0,15.2,6.8,15.2,15.2v63.6c0,5.8-4.8,10.5-10.6,10.5c-5.8,0-10.4-4.7-10.4-10.5v-10.6"/>
<path class="st0" d="M1011.2,1061.7h33c8.3,0,15.2,6.8,15.2,15.2v63.6c0,5.8-4.8,10.5-10.6,10.5c-5.8,0-10.4-4.7-10.4-10.5v-10.6"/>
<path class="st3" d="M1037.7,1086.1v162.2c0,6.8-5.6,12.4-12.4,12.4c-6.8,0-12.4-5.6-12.4-12.4v-92.1"/>
<path class="st0" d="M1037.7,1086.1v162.2c0,6.8-5.6,12.4-12.4,12.4c-6.8,0-12.4-5.6-12.4-12.4v-92.1"/>
<path class="st0" d="M1009.7,1042.9l-5.2,18.7"/>
<path class="st0" d="M1020.3,1042.9l5.1,18.7"/>
<path class="st2" d="M1132.4,1042.3c9.2,0,16.7-7.5,16.7-16.7s-7.5-16.7-16.7-16.7s-16.7,7.5-16.7,16.7S1123.2,1042.3,1132.4,1042.3
	z"/>
<path class="st3" d="M1134.2,1061.7h-33c-8.3,0-15.2,6.8-15.2,15.2v63.6c0,5.8,4.8,10.5,10.6,10.5c5.8,0,10.4-4.7,10.4-10.5v-10.6"
	/>
<path class="st0" d="M1134.2,1061.7h-33c-8.3,0-15.2,6.8-15.2,15.2v63.6c0,5.8,4.8,10.5,10.6,10.5c5.8,0,10.4-4.7,10.4-10.5v-10.6"
	/>
<path class="st3" d="M1107,1086.1v162.2c0,6.8,5.6,12.4,12.4,12.4c6.8,0,12.4-5.6,12.4-12.4v-92.1"/>
<path class="st0" d="M1107,1086.1v162.2c0,6.8,5.6,12.4,12.4,12.4c6.8,0,12.4-5.6,12.4-12.4v-92.1"/>
<path class="st3" d="M1129.7,1061.7h33c8.3,0,15.2,6.8,15.2,15.2v63.6c0,5.8-4.8,10.5-10.6,10.5c-5.8,0-10.4-4.7-10.4-10.5v-10.6"/>
<path class="st0" d="M1129.7,1061.7h33c8.3,0,15.2,6.8,15.2,15.2v63.6c0,5.8-4.8,10.5-10.6,10.5c-5.8,0-10.4-4.7-10.4-10.5v-10.6"/>
<path class="st3" d="M1156.3,1086.1v162.2c0,6.8-5.6,12.4-12.4,12.4s-12.4-5.6-12.4-12.4v-92.1"/>
<path class="st0" d="M1156.3,1086.1v162.2c0,6.8-5.6,12.4-12.4,12.4s-12.4-5.6-12.4-12.4v-92.1"/>
<path class="st0" d="M1128.3,1042.9l-5.2,18.7"/>
<path class="st0" d="M1138.9,1042.9l5.1,18.7"/>
<path class="st4" d="M991.3,891.4H691.2c-18.7,0-33.9-15.2-33.9-33.9V744.1c0-18.7,15.2-33.9,33.9-33.9h300.1
	c18.7,0,33.9,15.2,33.9,33.9v113.4C1025.3,876.2,1010.1,891.4,991.3,891.4z"/>
<g>
	<rect x="677.8" y="724" class="st5" width="333" height="177.9"/>
	<text transform="matrix(1 0 0 1 677.752 741.3582)"><tspan x="0" y="0" class="st6 st7 st8 st9">This is our reality. For </tspan><tspan x="0" y="32" class="st6 st7 st8 st9">them we are nothing but </tspan><tspan x="0" y="64" class="st6 st7 st8 st9">puppets to facilitate </tspan><tspan x="0" y="96" class="st6 st7 st8 st9">their money making </tspan><tspan x="0" y="128" class="st6 st7 st8 st9">clockworks.</tspan></text>
</g>
</svg>
