<?xml version="1.0" encoding="utf-8"?>
<!-- Generator: Adobe Illustrator 25.2.3, SVG Export Plug-In . SVG Version: 6.00 Build 0)  -->
<svg version="1.1" id="Camada_1" xmlns="http://www.w3.org/2000/svg" xmlns:xlink="http://www.w3.org/1999/xlink" x="0px" y="0px"
	 viewBox="0 0 1892 2625.4" style="enable-background:new 0 0 1892 2625.4;" xml:space="preserve">
<style type="text/css">
	.st0{fill:none;stroke:#00BFFF;stroke-width:3;stroke-linecap:round;stroke-miterlimit:10;}
	.st1{fill:#00BFFF;}
	.st2{fill:#FFFFFF;}
	.st3{fill:#FFFFFF;stroke:#00BDFF;stroke-width:3;stroke-linecap:round;stroke-linejoin:round;stroke-miterlimit:10;}
	.st4{fill:none;stroke:#00BDFF;stroke-width:3;stroke-linecap:round;stroke-linejoin:round;stroke-miterlimit:10;}
	.st5{clip-path:url(#SVGID_2_);}
	.st6{fill:#D7F7FF;stroke:#00BFFF;stroke-width:3;stroke-linecap:round;stroke-linejoin:round;stroke-miterlimit:10;}
</style>
<path class="st0" d="M1831,538.4H90.3v1506.4H1831V538.4z"/>
<path class="st0" d="M1697,537.7v1506.4"/>
<path class="st0" d="M1090.3,537.7v1506.4"/>
<path class="st0" d="M926.2,537.7v1506.4"/>
<path class="st0" d="M1229.6,827.9v1216.3"/>
<path class="st0" d="M1528.5,537.7v933.4"/>
<path class="st0" d="M1364.3,827.9v643.3"/>
<path class="st0" d="M1090.3,827.9h274"/>
<path class="st0" d="M1091.1,1290.9h437.4"/>
<path class="st0" d="M1091.1,1471.2H1697"/>
<path class="st0" d="M90.3,538.4c-0.7-0.7,52,35.9,52,129.7c0,101.1-52.7,159.7-52,159.7c0,0,52,94.5,52,212.9
	s-29.6,203.3-51.4,259.7c0,0,60.2,131.2,60.2,353.9c0,222.7-60.8,390.5-60.8,390.5"/>
<path class="st1" d="M855.2,1986c-27.1,0-63.6,0-63.6,0l-135.7-514.8v-364.9c0,0,187.1-54.2,187.1-278.4S662,510.7,652.2,504
	c-18.7-12.9-33.1,10.8-19.8,22.7c-18.5-11.4-32.2,12.7-17.9,24.2c-19.1-13.2-33.7,11.7-19.1,23.4c0,0,37.7,24.9,42.1,32.2
	c0,0-11.7,13.3-20.4,25c-11.9,16,10.1,30.5,21.8,16l20.5-23.4c0,0,82.1,39.6,82.1,178.8c0,133.3-82.1,186.1-142.1,186.1
	c-5.5,0-23.2,0-46.8,0L540,929.5c22.4-9.2,38.2-31.2,38.2-57c0-34-27.6-61.5-61.5-61.5s-61.5,27.6-61.5,61.5
	c0,26.3,16.5,48.8,39.8,57.6L481.8,989c-61.7,0-124.1,0-124.1,0s-211,0-211,209.6c0,0-5.9,219.8,240.3,219.8v54.2l-109.9,512.9
	c-1,0-6.3,0-29.9,0c-34.6,0-38.3,59.3,1,59.3c39.2,0,165.2-0.7,165.2-0.7l101.5-573H534l129.5,573.7c0,0,164.6,0,191.7,0
	C882.3,2044.9,882.3,1986,855.2,1986z M386.3,1290.2c-74.7,0-104-40-104-89.4c0-49.4,35.2-89.4,104-89.4V1290.2z"/>
<g>
	
		<image style="overflow:visible;opacity:0.52;" width="2999" height="1217" xlink:href="7333068D89DB27BD.png"  transform="matrix(1 0 0 1 -454 -82.5734)">
	</image>
	<g>
		<g>
			<path class="st2" d="M-25.9,19.4l-228.2-76.2C-326-80.8-403.7-42-427.7,29.9l0,0c-24,71.9,14.8,149.6,86.7,173.6l228.2,76.2
				c71.9,24,149.6-14.8,173.6-86.7l0,0C84.9,121.1,46,43.4-25.9,19.4z M-12.2,168.4c-13.1,39.3-55.6,60.5-94.9,47.4l-208.4-69.6
				c-39.3-13.1-60.5-55.6-47.4-94.9l0,0c13.1-39.3,55.6-60.5,94.9-47.4l208.4,69.6C-20.4,86.6,0.9,129.1-12.2,168.4L-12.2,168.4z"/>
			<path class="st2" d="M324.2,136.2L95.9,60C24.1,36-53.7,74.9-77.7,146.8l0,0c-24,71.9,14.8,149.6,86.7,173.6l228.2,76.2
				c71.9,24,149.6-14.8,173.6-86.7l0,0C434.9,237.9,396.1,160.2,324.2,136.2z M337.8,285.2c-13.1,39.3-55.6,60.5-94.9,47.4
				L34.4,263.1C-4.9,250-26.1,207.4-13,168.1l0,0c13.1-39.3,55.6-60.5,94.9-47.4l208.4,69.6C329.7,203.4,350.9,245.9,337.8,285.2
				L337.8,285.2z"/>
			<path class="st2" d="M666.4,250.4l-228.2-76.2c-71.9-24-149.6,14.8-173.6,86.7l0,0c-24,71.9,14.8,149.6,86.7,173.6l228.2,76.2
				c71.9,24,149.6-14.8,173.6-86.7l0,0C777.1,352.1,738.3,274.4,666.4,250.4z M687.8,402c-13.1,39.3-55.6,60.5-94.9,47.4l-209.7-70
				c-39.3-13.1-60.5-55.6-47.4-94.9l0,0c13.1-39.3,55.6-60.5,94.9-47.4l209.7,70C679.7,320.2,700.9,362.7,687.8,402L687.8,402z"/>
			<path class="st2" d="M1016.4,367.2l-228.2-76.2c-71.9-24-149.6,14.8-173.6,86.7l0,0c-24,71.9,14.8,149.6,86.7,173.6l228.2,76.2
				c71.9,24,149.6-14.8,173.6-86.7l0,0C1127.1,469,1088.3,391.2,1016.4,367.2z M1037.9,518.9c-13.1,39.3-55.6,60.5-94.9,47.4
				l-209.7-70c-39.3-13.1-60.5-55.6-47.4-94.9l0,0c13.1-39.3,55.6-60.5,94.9-47.4l209.7,70C1029.8,437,1051,479.5,1037.9,518.9
				L1037.9,518.9z"/>
			<path class="st2" d="M1376.9,487.6l-228.2-76.2c-71.9-24-149.6,14.8-173.6,86.7l0,0c-24,71.9,14.8,149.6,86.7,173.6l228.2,76.2
				c71.9,24,149.6-14.8,173.6-86.7v0C1487.6,589.3,1448.8,511.6,1376.9,487.6z M1390.5,636.6c-13.1,39.3-55.6,60.5-94.9,47.4
				l-208.4-69.6c-39.3-13.1-60.5-55.6-47.4-94.9l0,0c13.1-39.3,55.6-60.5,94.9-47.4l208.4,69.6
				C1382.4,554.7,1403.6,597.2,1390.5,636.6L1390.5,636.6z"/>
			<path class="st2" d="M1726.9,604.4l-228.2-76.2c-71.9-24-149.6,14.8-173.6,86.7v0c-24,71.9,14.8,149.6,86.7,173.6l228.2,76.2
				c71.9,24,149.6-14.8,173.6-86.7l0,0C1837.7,706.1,1798.8,628.4,1726.9,604.4z M1740.6,753.4c-13.1,39.3-55.6,60.5-94.9,47.4
				l-208.4-69.6c-39.3-13.1-60.5-55.6-47.4-94.9l0,0c13.1-39.3,55.6-60.5,94.9-47.4l208.4,69.6
				C1732.4,671.6,1753.7,714.1,1740.6,753.4L1740.6,753.4z"/>
			<path class="st2" d="M2069.1,718.6l-228.2-76.2c-71.9-24-149.6,14.8-173.6,86.7l0,0c-24,71.9,14.8,149.6,86.7,173.6l228.2,76.2
				c71.9,24,149.6-14.8,173.6-86.7v0C2179.9,820.3,2141,742.6,2069.1,718.6z M2090.6,870.2c-13.1,39.3-55.6,60.5-94.9,47.4
				l-209.7-70c-39.3-13.1-60.5-55.6-47.4-94.9l0,0c13.1-39.3,55.6-60.5,94.9-47.4l209.7,70C2082.5,788.4,2103.7,830.9,2090.6,870.2
				L2090.6,870.2z"/>
			<path class="st2" d="M2419.2,835.4l-228.2-76.2c-71.9-24-149.6,14.8-173.6,86.7l0,0c-24,71.9,14.8,149.6,86.7,173.6l228.2,76.2
				c71.9,24,149.6-14.8,173.6-86.7v0C2529.9,937.2,2491.1,859.4,2419.2,835.4z M2440.6,987c-13.1,39.3-55.6,60.5-94.9,47.4
				l-209.7-70c-39.3-13.1-60.5-55.6-47.4-94.9l0,0c13.1-39.3,55.6-60.5,94.9-47.4l209.7,70C2432.5,905.2,2453.7,947.7,2440.6,987
				L2440.6,987z"/>
			<g>
				<path class="st3" d="M1358.7,753.9"/>
				<path class="st4" d="M1078.1,408.3c23-4.9,47.6-3.8,71.6,4.2l228.2,76.2c71.9,24,110.7,101.7,86.7,173.6l0,0
					c-8.2,24.7-22.8,45.4-41.2,61.1"/>
				<path class="st4" d="M1078.1,408.3"/>
				<path class="st4" d="M1017.5,437.9"/>
				<path class="st4" d="M1355.1,754.5c-20.8,3.2-42.7,1.6-64.1-5.5l-228.2-76.2c-71.9-24-110.7-101.7-86.7-173.6l0,0
					c8.3-24.7,22.9-45.5,41.4-61.2"/>
				<path class="st4" d="M1326.4,689.2"/>
				<path class="st4" d="M1107.8,470c8.6-0.3,17.4,0.9,26,3.8l207.3,69.2c39.1,13,60.2,55.3,47.1,94.3"/>
				<path class="st4" d="M1107.8,470"/>
				<path class="st4" d="M1320.7,689.4c-8.4-0.2-18.9-2.2-26.8-4.9l-207.3-69.2c-39.1-13-60.2-55.3-47.1-94.3l0,0"/>
			</g>
			<g>
				<path class="st4" d="M1698.5,869.8c-19.4,2.3-39.7,0.5-59.5-6.1l-228.2-76.2c-71.9-24-110.7-101.7-86.7-173.6l0,0
					c7.9-23.7,21.6-43.7,39-59.2"/>
				<path class="st4" d="M1698.5,869.8"/>
				<path class="st4" d="M1432.8,521.7c21.1-3.3,43.2-1.8,64.8,5.4l228.2,76.2c71.9,24,110.7,101.7,86.7,173.6l0,0
					c-8.5,25.5-23.8,46.8-43.2,62.7"/>
				<path class="st4" d="M1363,554.7"/>
				<path class="st4" d="M1661.7,803.8c-5.6-0.5-11.2-1.7-16.8-3.5L1434.5,730c-39.1-13-60.2-55.3-47.1-94.3l0,0
					c1-3,2.2-5.9,3.5-8.7"/>
				<path class="st4" d="M1661.7,803.8"/>
				<path class="st4" d="M1468,585.4c4.6,0.6,9.2,1.7,13.7,3.2l210.4,70.2c39.1,13,60.2,55.3,47.1,94.3l0,0"/>
			</g>
			<g>
				<g>
					<path class="st3" d="M2122.1,753.2"/>
					<path class="st4" d="M2122.1,753.2c21.9-3.9,45.1-2.6,67.6,4.9l228.2,76.2c71.9,24,110.7,101.7,86.7,173.6l0,0
						c-24,71.9-101.7,110.7-173.6,86.7l-228.2-76.2c-71.9-24-110.7-101.7-86.7-173.6v0c8.2-24.7,22.8-45.4,41.2-61.1"/>
					<path class="st4" d="M2154.4,817.9"/>
					<path class="st4" d="M2157.3,817.8c8.8-0.3,17.7,0.9,26.5,3.8l210.4,70.2c39.1,13,60.2,55.3,47.1,94.3v0
						c-13,39.1-55.3,60.2-94.3,47.1L2136.6,963c-39.1-13-60.2-55.3-47.1-94.3v0"/>
					<path class="st4" d="M2157.3,817.8"/>
				</g>
				<g>
					<path class="st4" d="M1779.3,636.3c19.4-2.3,39.7-0.5,59.5,6.1l228.2,76.2c71.9,24,110.7,101.7,86.7,173.6l0,0
						c-7.9,23.7-21.6,43.7-39,59.2"/>
					<path class="st4" d="M1779.3,636.3"/>
					<path class="st4" d="M1708.3,666.4"/>
					<path class="st4" d="M2047.8,983.9c-21.9,3.9-45.1,2.6-67.6-4.9l-228.2-76.2c-71.9-24-110.7-101.7-86.7-173.6v0
						c8.5-25.5,23.8-46.8,43.1-62.7"/>
					<path class="st4" d="M2047.8,983.9"/>
					<path class="st4" d="M2114.7,951.4"/>
					<path class="st4" d="M1816.1,702.3c5.6,0.5,11.2,1.7,16.7,3.5l210.4,70.2c39.1,13,60.2,55.3,47.1,94.3v0c-1,3-2.2,5.9-3.5,8.7"
						/>
					<path class="st4" d="M1816.1,702.3"/>
					<path class="st4" d="M1735.8,763.4c0.6-3.5,1.5-7,2.7-10.5v0"/>
					<path class="st4" d="M1769.4,839.6c-25.4-16-39-46.2-33.6-76.2"/>
					<path class="st4" d="M2013.1,921.1c-5.7-0.5-11.4-1.7-17-3.6l-210.4-70.2c-5.8-1.9-11.2-4.5-16.2-7.6"/>
				</g>
			</g>
			<g>
				<path class="st3" d="M-45.8,285.1"/>
				<path class="st4" d="M-45.8,285.1c-21.9,3.9-45.1,2.6-67.6-4.9L-341.6,204c-71.9-24-110.7-101.7-86.7-173.6l0,0
					c24-71.9,101.7-110.7,173.6-86.7l228.2,76.2c71.9,24,110.7,101.7,86.7,173.6l0,0C52,218.1,37.4,238.9,19,254.6"/>
				<path class="st4" d="M-78,220.4"/>
				<path class="st4" d="M-80.9,220.6c-8.8,0.3-17.7-0.9-26.5-3.8l-210.4-70.2c-39.1-13-60.2-55.3-47.1-94.3l0,0
					c13-39.1,55.3-60.2,94.3-47.1l210.4,70.2c39.1,13,60.2,55.3,47.1,94.3l0,0"/>
				<path class="st4" d="M-80.9,220.6"/>
			</g>
			<g>
				<path class="st4" d="M297.1,402.1c-19.4,2.3-39.7,0.5-59.5-6.1L9.4,319.8c-71.9-24-110.7-101.7-86.7-173.6l0,0
					c7.9-23.7,21.6-43.7,39-59.2"/>
				<path class="st4" d="M297.1,402.1"/>
				<path class="st4" d="M28.6,54.5c21.9-3.9,45.1-2.6,67.6,4.9l228.2,76.2c71.9,24,110.7,101.7,86.7,173.6l0,0
					c-8.5,25.5-23.8,46.8-43.2,62.7"/>
				<path class="st4" d="M28.6,54.5"/>
				<path class="st4" d="M-38.3,87"/>
				<path class="st4" d="M260.3,336.1c-5.6-0.5-11.2-1.7-16.8-3.5L33.2,262.3C-5.9,249.3-27,207-14,168l0,0c1-3,2.2-5.9,3.5-8.7"/>
				<path class="st4" d="M260.3,336.1"/>
				<path class="st4" d="M63.3,117.3c5.7,0.5,11.4,1.7,17,3.6l210.4,70.2c39.1,13,60.2,55.3,47.1,94.3l0,0"/>
			</g>
			<g>
				<g>
					<path class="st3" d="M720.8,285.5"/>
					<path class="st4" d="M1001.5,632.5c-23.2,5-47.6,2.5-71.8-5.6l-228.2-76.2c-71.9-24-110.7-101.7-86.7-173.6l0,0
						c8.2-24.7,22.8-45.4,41.2-61.1"/>
					<path class="st4" d="M1062,601.5"/>
					<path class="st4" d="M720.8,285.5c21.9-3.9,45.1-2.6,67.6,4.9l228.2,76.2c71.9,24,110.7,101.7,86.7,173.6l0,0
						c-8.3,24.7-22.9,45.5-41.4,61.2"/>
					<path class="st4" d="M753.1,350.2"/>
					<path class="st4" d="M971.6,569.4c-8.6,0.3-17.4-0.9-26-3.8l-210.4-70.2c-39.1-13-60.2-55.3-47.1-94.3v0"/>
					<path class="st4" d="M971.6,569.4"/>
					<path class="st4" d="M755.9,350.1c8.8-0.3,17.7,0.9,26.5,3.8l210.4,70.2c39.1,13,60.2,55.3,47.1,94.3l0,0"/>
					<path class="st4" d="M755.9,350.1"/>
				</g>
				<g>
					<path class="st4" d="M377.9,168.5c19.4-2.3,39.7-0.5,59.5,6.1l228.2,76.2c71.9,24,110.7,101.7,86.7,173.6l0,0
						c-7.9,23.7-21.6,43.7-39,59.2"/>
					<path class="st4" d="M377.9,168.5"/>
					<path class="st4" d="M307,198.7"/>
					<path class="st4" d="M646.4,516.1c-21.9,3.9-45.1,2.6-67.6-4.9L350.5,435c-71.9-24-110.7-101.7-86.7-173.6l0,0
						c8.5-25.5,23.8-46.8,43.1-62.7"/>
					<path class="st4" d="M646.4,516.1"/>
					<path class="st4" d="M713.4,483.7"/>
					<path class="st4" d="M414.7,234.6c5.6,0.5,11.2,1.7,16.7,3.5l210.4,70.2c39.1,13,60.2,55.3,47.1,94.3v0c-1,3-2.2,5.9-3.5,8.7"
						/>
					<path class="st4" d="M414.7,234.6"/>
					<path class="st4" d="M334.4,295.7c0.6-3.5,1.5-7,2.7-10.5l0,0"/>
					<path class="st4" d="M368.1,371.9c-25.4-16-39-46.2-33.6-76.2"/>
					<path class="st4" d="M611.7,453.4c-5.7-0.5-11.4-1.7-17-3.6l-210.4-70.2c-5.8-1.9-11.2-4.5-16.2-7.6"/>
				</g>
			</g>
		</g>
	</g>
</g>
<g>
	
		<image style="overflow:visible;opacity:0.52;" width="2999" height="1217" xlink:href="7333068D89DB27C3.png"  transform="matrix(1 0 0 1 -453 1411.4266)">
	</image>
	<g>
		<g>
			<path class="st2" d="M2016.7,1687L2016.7,1687c24,71.9,101.7,110.7,173.6,86.7l228.2-76.2c71.9-24,110.7-101.7,86.7-173.6l0,0
				c-24-71.9-101.7-110.7-173.6-86.7l-228.2,76.2C2031.5,1537.3,1992.7,1615.1,2016.7,1687z M2089.8,1662.4
				c-13.1-39.3,8.1-81.8,47.4-94.9l208.4-69.6c39.3-13.1,81.8,8.1,94.9,47.4l0,0c13.1,39.3-8.1,81.8-47.4,94.9l-208.4,69.6
				C2145.4,1722.9,2102.9,1701.7,2089.8,1662.4L2089.8,1662.4z"/>
			<path class="st2" d="M1666.6,1803.8L1666.6,1803.8c24,71.9,101.7,110.7,173.6,86.7l228.2-76.2c71.9-24,110.7-101.7,86.7-173.6
				l0,0c-24-71.9-101.7-110.7-173.6-86.7l-228.2,76.2C1681.5,1654.2,1642.6,1731.9,1666.6,1803.8z M1739.7,1779.2
				c-13.1-39.3,8.1-81.8,47.4-94.9l208.4-69.6c39.3-13.1,81.8,8.1,94.9,47.4l0,0c13.1,39.3-8.1,81.8-47.4,94.9l-208.4,69.6
				C1795.4,1839.7,1752.9,1818.5,1739.7,1779.2L1739.7,1779.2z"/>
			<path class="st2" d="M1324.4,1918L1324.4,1918c24,71.9,101.7,110.7,173.6,86.7l228.2-76.2c71.9-24,110.7-101.7,86.7-173.6l0,0
				c-24-71.9-101.7-110.7-173.6-86.7l-228.2,76.2C1339.3,1768.4,1300.4,1846.1,1324.4,1918z M1389.7,1896
				c-13.1-39.3,8.1-81.8,47.4-94.9l209.7-70c39.3-13.1,81.8,8.1,94.9,47.4l0,0c13.1,39.3-8.1,81.8-47.4,94.9l-209.7,70
				C1445.3,1956.6,1402.8,1935.3,1389.7,1896L1389.7,1896z"/>
			<path class="st2" d="M974.4,2034.8L974.4,2034.8c24,71.9,101.7,110.7,173.6,86.7l228.2-76.2c71.9-24,110.7-101.7,86.7-173.6l0,0
				c-24-71.9-101.7-110.7-173.6-86.7l-228.2,76.2C989.2,1885.2,950.4,1962.9,974.4,2034.8z M1039.7,2012.8
				c-13.1-39.3,8.1-81.8,47.4-94.9l209.7-70c39.3-13.1,81.8,8.1,94.9,47.4l0,0c13.1,39.3-8.1,81.8-47.4,94.9l-209.7,70
				C1095.3,2073.4,1052.8,2052.1,1039.7,2012.8L1039.7,2012.8z"/>
			<path class="st2" d="M613.9,2155.1L613.9,2155.1c24,71.9,101.7,110.7,173.6,86.7l228.2-76.2c71.9-24,110.7-101.7,86.7-173.6l0,0
				c-24-71.9-101.7-110.7-173.6-86.7l-228.2,76.2C628.7,2005.5,589.9,2083.3,613.9,2155.1z M687,2130.5
				c-13.1-39.3,8.1-81.8,47.4-94.9l208.4-69.6c39.3-13.1,81.8,8.1,94.9,47.4l0,0c13.1,39.3-8.1,81.8-47.4,94.9L782,2178
				C742.6,2191.1,700.1,2169.8,687,2130.5L687,2130.5z"/>
			<path class="st2" d="M263.9,2272L263.9,2272c24,71.9,101.7,110.7,173.6,86.7l228.2-76.2c71.9-24,110.7-101.7,86.7-173.6l0,0
				c-24-71.9-101.7-110.7-173.6-86.7l-228.2,76.2C278.7,2122.4,239.9,2200.1,263.9,2272z M337,2247.4c-13.1-39.3,8.1-81.8,47.4-94.9
				l208.4-69.6c39.3-13.1,81.8,8.1,94.9,47.4l0,0c13.1,39.3-8.1,81.8-47.4,94.9l-208.4,69.6C392.6,2307.9,350.1,2286.7,337,2247.4
				L337,2247.4z"/>
			<path class="st2" d="M-78.3,2386.2L-78.3,2386.2c24,71.9,101.7,110.7,173.6,86.7l228.2-76.2c71.9-24,110.7-101.7,86.7-173.6l0,0
				c-24-71.9-101.7-110.7-173.6-86.7L8.4,2212.6C-63.5,2236.6-102.3,2314.3-78.3,2386.2z M-13.1,2364.2
				c-13.1-39.3,8.1-81.8,47.4-94.9l209.7-70c39.3-13.1,81.8,8.1,94.9,47.4l0,0c13.1,39.3-8.1,81.8-47.4,94.9l-209.7,70
				C42.6,2424.7,0.1,2403.5-13.1,2364.2L-13.1,2364.2z"/>
			<path class="st2" d="M-428.4,2503L-428.4,2503c24,71.9,101.7,110.7,173.6,86.7l228.2-76.2c71.9-24,110.7-101.7,86.7-173.6l0,0
				c-24-71.9-101.7-110.7-173.6-86.7l-228.2,76.2C-413.5,2353.4-452.4,2431.1-428.4,2503z M-363.1,2481
				c-13.1-39.3,8.1-81.8,47.4-94.9l209.7-70c39.3-13.1,81.8,8.1,94.9,47.4l0,0c13.1,39.3-8.1,81.8-47.4,94.9l-209.7,70
				C-307.5,2541.6-350,2520.3-363.1,2481L-363.1,2481z"/>
			<g>
				<path class="st3" d="M718.8,2247.8"/>
				<path class="st4" d="M999.4,1902.2c-23-4.9-47.6-3.8-71.6,4.2l-228.2,76.2c-71.9,24-110.7,101.7-86.7,173.6l0,0
					c8.2,24.7,22.8,45.4,41.2,61.1"/>
				<path class="st4" d="M999.4,1902.2"/>
				<path class="st4" d="M1060.1,1931.9"/>
				<path class="st4" d="M722.4,2248.4c20.8,3.2,42.7,1.6,64.1-5.5l228.2-76.2c71.9-24,110.7-101.7,86.7-173.6v0
					c-8.3-24.7-22.9-45.5-41.4-61.2"/>
				<path class="st4" d="M751.1,2183.1"/>
				<path class="st4" d="M969.7,1964c-8.6-0.3-17.4,0.9-26,3.8L736.4,2037c-39.1,13-60.2,55.3-47.1,94.3"/>
				<path class="st4" d="M969.7,1964"/>
				<path class="st4" d="M756.8,2183.3c8.4-0.2,18.9-2.2,26.8-4.9l207.3-69.2c39.1-13,60.2-55.3,47.1-94.3v0"/>
			</g>
			<g>
				<path class="st4" d="M379.1,2363.8c19.4,2.3,39.7,0.5,59.5-6.1l228.2-76.2c71.9-24,110.7-101.7,86.7-173.6l0,0
					c-7.9-23.7-21.6-43.7-39-59.2"/>
				<path class="st4" d="M379.1,2363.8"/>
				<path class="st4" d="M644.7,2015.7c-21.1-3.3-43.2-1.8-64.8,5.4l-228.2,76.2c-71.9,24-110.7,101.7-86.7,173.6l0,0
					c8.5,25.5,23.8,46.8,43.2,62.7"/>
				<path class="st4" d="M714.5,2048.7"/>
				<path class="st4" d="M415.9,2297.8c5.6-0.5,11.2-1.7,16.8-3.5L643,2224c39.1-13,60.2-55.3,47.1-94.3h0c-1-3-2.2-5.9-3.5-8.7"/>
				<path class="st4" d="M415.9,2297.8"/>
				<path class="st4" d="M609.5,2079.4c-4.6,0.6-9.2,1.7-13.7,3.2l-210.4,70.2c-39.1,13-60.2,55.3-47.1,94.3h0"/>
			</g>
			<g>
				<g>
					<path class="st3" d="M-44.6,2247.2"/>
					<path class="st4" d="M-44.6,2247.2c-21.9-3.9-45.1-2.6-67.6,4.9l-228.2,76.2c-71.9,24-110.7,101.7-86.7,173.6l0,0
						c24,71.9,101.7,110.7,173.6,86.7l228.2-76.2c71.9-24,110.7-101.7,86.7-173.6l0,0c-8.2-24.7-22.8-45.4-41.2-61.1"/>
					<path class="st4" d="M-76.9,2311.9"/>
					<path class="st4" d="M-79.7,2311.8c-8.8-0.3-17.7,0.9-26.5,3.8l-210.4,70.2c-39.1,13-60.2,55.3-47.1,94.3l0,0
						c13,39.1,55.3,60.2,94.3,47.1l210.4-70.2c39.1-13,60.2-55.3,47.1-94.3l0,0"/>
					<path class="st4" d="M-79.7,2311.8"/>
				</g>
				<g>
					<path class="st4" d="M298.3,2130.2c-19.4-2.3-39.7-0.5-59.5,6.1l-228.2,76.2c-71.9,24-110.7,101.7-86.7,173.6l0,0
						c7.9,23.7,21.6,43.7,39,59.2"/>
					<path class="st4" d="M298.3,2130.2"/>
					<path class="st4" d="M369.2,2160.4"/>
					<path class="st4" d="M29.8,2477.8c21.9,3.9,45.1,2.6,67.6-4.9l228.2-76.2c71.9-24,110.7-101.7,86.7-173.6l0,0
						c-8.5-25.5-23.8-46.8-43.1-62.7"/>
					<path class="st4" d="M29.8,2477.8"/>
					<path class="st4" d="M-37.2,2445.4"/>
					<path class="st4" d="M261.4,2196.3c-5.6,0.5-11.2,1.7-16.7,3.5L34.3,2270c-39.1,13-60.2,55.3-47.1,94.3l0,0
						c1,3,2.2,5.9,3.5,8.7"/>
					<path class="st4" d="M261.4,2196.3"/>
					<path class="st4" d="M341.7,2257.4c-0.6-3.5-1.5-7-2.7-10.5l0,0"/>
					<path class="st4" d="M308.1,2333.6c25.4-16,39-46.2,33.6-76.2"/>
					<path class="st4" d="M64.5,2415c5.7-0.5,11.4-1.7,17-3.6l210.4-70.2c5.8-1.9,11.2-4.5,16.2-7.6"/>
				</g>
			</g>
			<g>
				<path class="st3" d="M2123.3,1779.1"/>
				<path class="st4" d="M2123.3,1779.1c21.9,3.9,45.1,2.6,67.6-4.9l228.2-76.2c71.9-24,110.7-101.7,86.7-173.6v0
					c-24-71.9-101.7-110.7-173.6-86.7l-228.2,76.2c-71.9,24-110.7,101.7-86.7,173.6l0,0c8.2,24.7,22.8,45.4,41.2,61.1"/>
				<path class="st4" d="M2155.6,1714.4"/>
				<path class="st4" d="M2158.4,1714.6c8.8,0.3,17.7-0.9,26.5-3.8l210.4-70.2c39.1-13,60.2-55.3,47.1-94.3v0
					c-13-39.1-55.3-60.2-94.3-47.1l-210.4,70.2c-39.1,13-60.2,55.3-47.1,94.3l0,0"/>
				<path class="st4" d="M2158.4,1714.6"/>
			</g>
			<g>
				<path class="st4" d="M1780.4,1896.1c19.4,2.3,39.7,0.5,59.5-6.1l228.2-76.2c71.9-24,110.7-101.7,86.7-173.6v0
					c-7.9-23.7-21.6-43.7-39-59.2"/>
				<path class="st4" d="M1780.4,1896.1"/>
				<path class="st4" d="M2048.9,1548.5c-21.9-3.9-45.1-2.6-67.6,4.9l-228.2,76.2c-71.9,24-110.7,101.7-86.7,173.6l0,0
					c8.5,25.5,23.8,46.8,43.2,62.7"/>
				<path class="st4" d="M2048.9,1548.5"/>
				<path class="st4" d="M2115.9,1580.9"/>
				<path class="st4" d="M1817.2,1830.1c5.6-0.5,11.2-1.7,16.8-3.5l210.4-70.2c39.1-13,60.2-55.3,47.1-94.3v0c-1-3-2.2-5.9-3.5-8.7"
					/>
				<path class="st4" d="M1817.2,1830.1"/>
				<path class="st4" d="M2014.2,1611.3c-5.7,0.5-11.4,1.7-17,3.6l-210.4,70.2c-39.1,13-60.2,55.3-47.1,94.3v0"/>
			</g>
			<g>
				<g>
					<path class="st3" d="M1356.8,1779.5"/>
					<path class="st4" d="M1076,2126.5c23.2,5,47.6,2.5,71.8-5.6l228.2-76.2c71.9-24,110.7-101.7,86.7-173.6l0,0
						c-8.2-24.7-22.8-45.4-41.2-61.1"/>
					<path class="st4" d="M1015.5,2095.4"/>
					<path class="st4" d="M1356.8,1779.5c-21.9-3.9-45.1-2.6-67.6,4.9l-228.2,76.2c-71.9,24-110.7,101.7-86.7,173.6l0,0
						c8.3,24.7,22.9,45.5,41.4,61.2"/>
					<path class="st4" d="M1324.5,1844.2"/>
					<path class="st4" d="M1105.9,2063.3c8.6,0.3,17.4-0.9,26-3.8l210.4-70.2c39.1-13,60.2-55.3,47.1-94.3v0"/>
					<path class="st4" d="M1105.9,2063.3"/>
					<path class="st4" d="M1321.6,1844c-8.8-0.3-17.7,0.9-26.5,3.8l-210.4,70.2c-39.1,13-60.2,55.3-47.1,94.3v0"/>
					<path class="st4" d="M1321.6,1844"/>
				</g>
				<g>
					<path class="st4" d="M1699.6,1662.5c-19.4-2.3-39.7-0.5-59.5,6.1l-228.2,76.2c-71.9,24-110.7,101.7-86.7,173.6l0,0
						c7.9,23.7,21.6,43.7,39,59.2"/>
					<path class="st4" d="M1699.6,1662.5"/>
					<path class="st4" d="M1770.6,1692.7"/>
					<path class="st4" d="M1431.1,2010.1c21.9,3.9,45.1,2.6,67.6-4.9L1727,1929c71.9-24,110.7-101.7,86.7-173.6l0,0
						c-8.5-25.5-23.8-46.8-43.1-62.7"/>
					<path class="st4" d="M1431.1,2010.1"/>
					<path class="st4" d="M1364.2,1977.6"/>
					<path class="st4" d="M1662.8,1728.5c-5.6,0.5-11.2,1.7-16.7,3.5l-210.4,70.2c-39.1,13-60.2,55.3-47.1,94.3v0
						c1,3,2.2,5.9,3.5,8.7"/>
					<path class="st4" d="M1662.8,1728.5"/>
					<path class="st4" d="M1743.1,1789.7c-0.6-3.5-1.5-7-2.7-10.5v0"/>
					<path class="st4" d="M1709.5,1865.9c25.4-16,39-46.2,33.6-76.2"/>
					<path class="st4" d="M1465.8,1947.3c5.7-0.5,11.4-1.7,17-3.6l210.4-70.2c5.8-1.9,11.2-4.5,16.2-7.6"/>
				</g>
			</g>
		</g>
	</g>
</g>
<g>
	<defs>
		<rect id="SVGID_1_" x="14" y="2195.4" width="901" height="430"/>
	</defs>
	<clipPath id="SVGID_2_">
		<use xlink:href="#SVGID_1_"  style="overflow:visible;"/>
	</clipPath>
	<g class="st5">
		<path class="st6" d="M822.8,2583.9H110c-23.2,0-42-18.8-42-42.1v-257.5c0-23.2,18.8-42.1,42-42.1h712.7c23.2,0,42,18.8,42,42.1
			v257.4C864.8,2565.1,846,2583.9,822.8,2583.9z"/>
		<path class="st1" d="M110.7,2298.6h-7.3l-1.9,6.1h-2.7l6.8-21.1h3.1l6.8,21.1h-2.7L110.7,2298.6z M104.2,2296.3h5.8
			c-1.3-4.2-2.3-7.7-2.9-10.2h-0.1C106.5,2288.6,105.5,2292.1,104.2,2296.3z"/>
		<path class="st1" d="M118.8,2302.6h4.7v-17.4h-4.4v-2.1h7v19.4h5v2.1h-12.3V2302.6z"/>
		<path class="st1" d="M135.9,2302.6h4.7v-17.4h-4.4v-2.1h7v19.4h5v2.1h-12.3V2302.6z"/>
		<path class="st1" d="M169.1,2289.9h4.2v-3.9l2.5-1.1v4.9h5.8v2.1h-5.8v7.7c0,2,1,2.9,2.8,2.9c1,0,2-0.1,2.9-0.3v2.3
			c-0.8,0.2-1.6,0.4-2.9,0.4c-3.7,0-5.4-2.1-5.4-5v-8h-4.2L169.1,2289.9L169.1,2289.9z"/>
		<path class="st1" d="M193.9,2289.5c1.2,0,2.6,0.3,3.6,1.3c1,0.9,1.4,2.3,1.4,4.7v9.2h-2.5v-9c0-3.2-1.6-3.9-3.2-3.9
			c-3.2,0-4,3.1-4,5.2v7.7h-2.5v-21.5h2.5v9.4C189.9,2290.8,191.8,2289.5,193.9,2289.5z"/>
		<path class="st1" d="M216.2,2297.9h-10.4c0,2.8,1.6,4.9,4.3,4.9c2,0,3.2-1.2,3.9-2.6l2.1,1.1c-1.2,2.5-3.3,3.7-6,3.7
			c-4.6,0-6.9-3.2-6.9-8.1c0-4.5,2.6-7.5,6.8-7.5c4.5,0,6.3,3.3,6.3,7.3C216.2,2297.2,216.2,2297.6,216.2,2297.9z M209.8,2291.5
			c-2.7,0-4.1,2.2-4.1,4.4h7.9C213.7,2293.5,212.5,2291.5,209.8,2291.5z"/>
		<path class="st1" d="M221.1,2300.1l2.6-0.4c0.4,2.2,1.8,3.3,4,3.3c2,0,3.1-0.8,3.1-2.2c0-1.5-0.8-2.1-2.4-2.3l-2.4-0.3
			c-2.9-0.3-4.3-2-4.3-4.3c0-2.7,2.1-4.4,5.6-4.4c3.4,0,5.7,1.8,6,4.5l-2.5,0.6c-0.3-1.8-1.5-3-3.6-3c-2,0-3.1,0.8-3.1,2.2
			c0,1.3,0.8,2.1,2.7,2.3l2.4,0.3c2.9,0.3,4.1,1.9,4.1,4.2c0,2.8-2.1,4.5-5.7,4.5C224,2305.1,221.7,2303.3,221.1,2300.1z"/>
		<path class="st1" d="M250.5,2297.9h-10.4c0,2.8,1.6,4.9,4.3,4.9c2,0,3.2-1.2,3.9-2.6l2.1,1.1c-1.2,2.5-3.3,3.7-6,3.7
			c-4.6,0-6.9-3.2-6.9-8.1c0-4.5,2.6-7.5,6.8-7.5c4.5,0,6.3,3.3,6.3,7.3C250.5,2297.2,250.5,2297.6,250.5,2297.9z M244.2,2291.5
			c-2.7,0-4.1,2.2-4.1,4.4h7.9C248,2293.5,246.8,2291.5,244.2,2291.5z"/>
		<path class="st1" d="M282.6,2289.6c1.1,0,2,0.1,2.7,0.3v2.3c-0.6-0.2-1.7-0.3-2.8-0.3c-3.6,0-6.4,2.4-6.4,7.3v5.5h-2.5v-14.8h2.5
			v3.9C277.1,2291.4,279.5,2289.6,282.6,2289.6z"/>
		<path class="st1" d="M294.8,2305.1c-1.4,0-2.8-0.3-3.8-1.3c-1-0.9-1.4-2.3-1.4-4.7v-9.2h2.6v9.1c0,3.2,1.5,3.9,3.1,3.9
			c3.1,0,3.9-3.1,3.9-5.3v-7.7h2.5v14.8h-2.4v-2.8C298.7,2303.4,297,2305.1,294.8,2305.1z"/>
		<path class="st1" d="M307.5,2302.6h4.7v-17.4h-4.4v-2.1h7v19.4h5v2.1h-12.3V2302.6z"/>
		<path class="st1" d="M336.3,2297.9h-10.4c0,2.8,1.6,4.9,4.4,4.9c2,0,3.2-1.2,3.9-2.6l2.1,1.1c-1.2,2.5-3.3,3.7-6,3.7
			c-4.6,0-6.9-3.2-6.9-8.1c0-4.5,2.6-7.5,6.8-7.5c4.5,0,6.3,3.3,6.3,7.3C336.3,2297.2,336.3,2297.6,336.3,2297.9z M329.9,2291.5
			c-2.7,0-4.1,2.2-4.1,4.4h7.9C333.8,2293.5,332.6,2291.5,329.9,2291.5z"/>
		<path class="st1" d="M341.2,2300.1l2.6-0.4c0.4,2.2,1.8,3.3,4,3.3c2,0,3.1-0.8,3.1-2.2c0-1.5-0.8-2.1-2.4-2.3l-2.4-0.3
			c-2.9-0.3-4.3-2-4.3-4.3c0-2.7,2.1-4.4,5.6-4.4c3.4,0,5.7,1.8,6,4.5l-2.5,0.6c-0.3-1.8-1.5-3-3.6-3c-2,0-3.1,0.8-3.1,2.2
			c0,1.3,0.8,2.1,2.7,2.3l2.4,0.3c2.9,0.3,4.1,1.9,4.1,4.2c0,2.8-2.1,4.5-5.7,4.5C344.1,2305.1,341.8,2303.3,341.2,2300.1z"/>
		<path class="st1" d="M387.7,2304.7H385c-0.1-0.8-0.2-1.8-0.2-2.7c-1,2.1-2.6,3.1-5,3.1c-2.9,0-5-1.8-5-4.3c0-1.5,0.7-2.7,2.1-3.5
			c1-0.5,2.6-0.9,5-1.2l2.7-0.3v-0.3c0-2.6-1-3.8-3.2-3.8c-2.1,0-3.3,1.1-3.5,2.9h-2.7c0.3-3.2,2.6-5,6.3-5c3.8,0,5.5,1.9,5.5,6.2v4
			C387.2,2302.1,387.3,2303.6,387.7,2304.7z M381.1,2298c-2.6,0.3-3.6,1.1-3.6,2.6c0,1.5,1,2.4,2.8,2.4c2.7,0,4.4-1.8,4.4-4.7v-0.8
			L381.1,2298z"/>
		<path class="st1" d="M399.9,2289.5c1.2,0,2.6,0.3,3.6,1.3c1,0.9,1.4,2.3,1.4,4.8v9.2h-2.5v-9c0-3.2-1.6-3.9-3.1-3.9
			c-3.3,0-4.2,3.1-4.2,5.2v7.7h-2.5v-14.8h2.4v2.9C395.7,2291,397.4,2289.5,399.9,2289.5z"/>
		<path class="st1" d="M421.6,2283.2v21.5h-2.4v-2.8c-0.9,1.9-2.3,3.1-4.7,3.1c-3.7,0-6.1-3.1-6.1-7.8c0-4.6,2.6-7.7,6.5-7.7
			c2,0,3.4,1.1,4.2,2.6v-8.9H421.6z M415.1,2291.7c-2.6,0-4.1,2-4.1,5.5c0,3.4,1.5,5.6,4,5.6c2.5,0,4.1-2,4.1-5.2v-0.7
			C419.1,2293.8,417.6,2291.7,415.1,2291.7z"/>
		<path class="st1" d="M443.4,2297.2c0-4.4,2.3-7.7,6.9-7.7c3.3,0,5.7,1.9,6,5.3l-2.6,0.3c-0.3-2.2-1.5-3.4-3.6-3.4
			c-2.7,0-4.1,2.2-4.1,5.5c0,3.4,1.4,5.7,4.2,5.7c2.2,0,3.3-1.3,3.7-3.6l2.4,0.4c-0.5,3-2.4,5.4-6.1,5.4
			C445.7,2305.1,443.4,2301.7,443.4,2297.2z"/>
		<path class="st1" d="M460.4,2297.3c0-4.7,2.8-7.8,6.9-7.8c4.2,0,6.9,3.1,6.9,7.8c0,4.7-2.8,7.8-6.9,7.8
			C463.2,2305.1,460.4,2301.9,460.4,2297.3z M471.6,2297.3c0-3.5-1.6-5.6-4.2-5.6s-4.2,2.1-4.2,5.6s1.6,5.6,4.2,5.6
			C470,2302.9,471.6,2300.8,471.6,2297.3z"/>
		<path class="st1" d="M482.3,2289.5c1.4,0,2.6,1,3.1,2.7c0.7-1.7,2-2.7,3.5-2.7c1.8,0,3.5,1.3,3.5,4.4v10.8h-2.5v-10.6
			c0-1.9-0.9-2.4-1.7-2.4c-1.7,0-2.4,1.3-2.4,3.2v9.8h-2.5v-10.6c0-1.8-0.8-2.4-1.7-2.4c-1.7,0-2.3,1.4-2.3,3.2v9.8h-2.5v-14.8h2.4
			v2.3C479.6,2290.6,480.8,2289.5,482.3,2289.5z"/>
		<path class="st1" d="M499.4,2289.5c1.5,0,2.6,1,3.1,2.7c0.7-1.7,2-2.7,3.5-2.7c1.8,0,3.5,1.3,3.5,4.4v10.8H507v-10.6
			c0-1.9-0.9-2.4-1.7-2.4c-1.7,0-2.4,1.3-2.4,3.2v9.8h-2.5v-10.6c0-1.8-0.8-2.4-1.7-2.4c-1.7,0-2.3,1.4-2.3,3.2v9.8h-2.5v-14.8h2.4
			v2.3C496.8,2290.6,497.9,2289.5,499.4,2289.5z"/>
		<path class="st1" d="M524.9,2304.7h-2.6c-0.1-0.8-0.2-1.8-0.2-2.7c-1,2.1-2.6,3.1-5,3.1c-2.9,0-5-1.8-5-4.3c0-1.5,0.7-2.7,2.1-3.5
			c1-0.5,2.6-0.9,5-1.2l2.7-0.3v-0.3c0-2.6-1-3.8-3.2-3.8c-2.1,0-3.3,1.1-3.5,2.9h-2.7c0.3-3.2,2.6-5,6.3-5c3.8,0,5.5,1.9,5.5,6.2v4
			C524.4,2302.1,524.6,2303.6,524.9,2304.7z M518.4,2298c-2.6,0.3-3.6,1.1-3.6,2.6c0,1.5,1,2.4,2.8,2.4c2.7,0,4.4-1.8,4.4-4.7v-0.8
			L518.4,2298z"/>
		<path class="st1" d="M537.1,2289.5c1.2,0,2.6,0.3,3.6,1.3c1,0.9,1.4,2.3,1.4,4.8v9.2h-2.5v-9c0-3.2-1.6-3.9-3.1-3.9
			c-3.3,0-4.2,3.1-4.2,5.2v7.7h-2.5v-14.8h2.4v2.9C533,2291,534.6,2289.5,537.1,2289.5z"/>
		<path class="st1" d="M558.9,2283.2v21.5h-2.4v-2.8c-0.9,1.9-2.3,3.1-4.7,3.1c-3.7,0-6.1-3.1-6.1-7.8c0-4.6,2.6-7.7,6.5-7.7
			c2,0,3.4,1.1,4.2,2.6v-8.9H558.9z M552.4,2291.7c-2.6,0-4.1,2-4.1,5.5c0,3.4,1.5,5.6,4,5.6c2.5,0,4.1-2,4.1-5.2v-0.7
			C556.4,2293.8,554.8,2291.7,552.4,2291.7z"/>
		<path class="st1" d="M568,2289.5c1.5,0,2.6,1,3.1,2.7c0.7-1.7,2-2.7,3.5-2.7c1.8,0,3.5,1.3,3.5,4.4v10.8h-2.5v-10.6
			c0-1.9-0.9-2.4-1.7-2.4c-1.7,0-2.4,1.3-2.4,3.2v9.8H569v-10.6c0-1.8-0.8-2.4-1.7-2.4c-1.7,0-2.3,1.4-2.3,3.2v9.8h-2.5v-14.8h2.4
			v2.3C565.4,2290.6,566.5,2289.5,568,2289.5z"/>
		<path class="st1" d="M593.6,2297.9h-10.4c0,2.8,1.6,4.9,4.3,4.9c2,0,3.2-1.2,3.9-2.6l2.1,1.1c-1.2,2.5-3.3,3.7-6,3.7
			c-4.6,0-6.9-3.2-6.9-8.1c0-4.5,2.6-7.5,6.8-7.5c4.5,0,6.3,3.3,6.3,7.3C593.7,2297.2,593.6,2297.6,593.6,2297.9z M587.3,2291.5
			c-2.7,0-4.1,2.2-4.1,4.4h7.9C591.1,2293.5,589.9,2291.5,587.3,2291.5z"/>
		<path class="st1" d="M605.7,2289.5c1.2,0,2.6,0.3,3.6,1.3c1,0.9,1.4,2.3,1.4,4.8v9.2h-2.5v-9c0-3.2-1.6-3.9-3.1-3.9
			c-3.3,0-4.2,3.1-4.2,5.2v7.7h-2.5v-14.8h2.4v2.9C601.6,2291,603.2,2289.5,605.7,2289.5z"/>
		<path class="st1" d="M615.2,2289.9h4.2v-3.9l2.5-1.1v4.9h5.8v2.1h-5.8v7.7c0,2,0.9,2.9,2.8,2.9c1,0,2-0.1,2.9-0.3v2.3
			c-0.8,0.2-1.6,0.4-2.9,0.4c-3.7,0-5.4-2.1-5.4-5v-8h-4.2V2289.9z"/>
		<path class="st1" d="M632.9,2300.1l2.6-0.4c0.4,2.2,1.8,3.3,4,3.3c2,0,3.1-0.8,3.1-2.2c0-1.5-0.8-2.1-2.4-2.3l-2.4-0.3
			c-2.9-0.3-4.3-2-4.3-4.3c0-2.7,2.1-4.4,5.6-4.4c3.4,0,5.7,1.8,6,4.5l-2.5,0.6c-0.3-1.8-1.5-3-3.6-3c-2,0-3.1,0.8-3.1,2.2
			c0,1.3,0.8,2.1,2.7,2.3l2.4,0.3c2.9,0.3,4.1,1.9,4.1,4.2c0,2.8-2.1,4.5-5.7,4.5C635.7,2305.1,633.4,2303.3,632.9,2300.1z"/>
		<path class="st1" d="M679.3,2304.7h-2.6c-0.1-0.8-0.2-1.8-0.2-2.7c-1,2.1-2.6,3.1-5,3.1c-2.9,0-5-1.8-5-4.3c0-1.5,0.7-2.7,2.1-3.5
			c1-0.5,2.6-0.9,5-1.2l2.7-0.3v-0.3c0-2.6-1-3.8-3.2-3.8c-2.1,0-3.3,1.1-3.5,2.9h-2.7c0.3-3.2,2.6-5,6.3-5c3.8,0,5.5,1.9,5.5,6.2v4
			C678.8,2302.1,679,2303.6,679.3,2304.7z M672.8,2298c-2.6,0.3-3.6,1.1-3.6,2.6c0,1.5,1,2.4,2.8,2.4c2.7,0,4.4-1.8,4.4-4.7v-0.8
			L672.8,2298z"/>
		<path class="st1" d="M684.3,2300.1l2.6-0.4c0.4,2.2,1.8,3.3,4,3.3c2,0,3.1-0.8,3.1-2.2c0-1.5-0.8-2.1-2.4-2.3l-2.4-0.3
			c-2.9-0.3-4.3-2-4.3-4.3c0-2.7,2.1-4.4,5.6-4.4c3.4,0,5.7,1.8,6,4.5l-2.5,0.6c-0.3-1.8-1.5-3-3.6-3c-2,0-3.1,0.8-3.1,2.2
			c0,1.3,0.8,2.1,2.7,2.3l2.4,0.3c2.9,0.3,4.1,1.9,4.1,4.2c0,2.8-2.1,4.5-5.7,4.5C687.2,2305.1,684.9,2303.3,684.3,2300.1z"/>
		<path class="st1" d="M718.1,2289.9h4.2v-3.9l2.5-1.1v4.9h5.8v2.1h-5.8v7.7c0,2,1,2.9,2.8,2.9c1,0,2-0.1,2.9-0.3v2.3
			c-0.8,0.2-1.6,0.4-2.9,0.4c-3.7,0-5.4-2.1-5.4-5v-8h-4.2L718.1,2289.9L718.1,2289.9z"/>
		<path class="st1" d="M734.9,2297.3c0-4.7,2.8-7.8,6.9-7.8c4.2,0,6.9,3.1,6.9,7.8c0,4.7-2.8,7.8-6.9,7.8
			C737.7,2305.1,734.9,2301.9,734.9,2297.3z M746.1,2297.3c0-3.5-1.6-5.6-4.2-5.6c-2.7,0-4.2,2.1-4.2,5.6s1.6,5.6,4.2,5.6
			C744.5,2302.9,746.1,2300.8,746.1,2297.3z"/>
		<path class="st1" d="M777.2,2289.5c1.2,0,2.6,0.3,3.6,1.3c1,0.9,1.5,2.3,1.5,4.7v9.2h-2.5v-9c0-3.2-1.6-3.9-3.2-3.9
			c-3.2,0-4,3.1-4,5.2v7.7H770v-21.5h2.5v9.4C773.2,2290.8,775.1,2289.5,777.2,2289.5z"/>
		<path class="st1" d="M786.4,2297.3c0-4.7,2.8-7.8,6.9-7.8c4.2,0,6.9,3.1,6.9,7.8c0,4.7-2.8,7.8-6.9,7.8
			C789.2,2305.1,786.4,2301.9,786.4,2297.3z M797.5,2297.3c0-3.5-1.6-5.6-4.2-5.6c-2.7,0-4.2,2.1-4.2,5.6s1.6,5.6,4.2,5.6
			C796,2302.9,797.5,2300.8,797.5,2297.3z"/>
		<path class="st1" d="M804.7,2289.9l1.5,10.2l0.3,2.1h0.2c0.1-0.7,0.2-1.2,0.5-2.5l1.9-9.8h2.6l1.9,9.8c0.3,1.3,0.4,1.8,0.5,2.5
			h0.2l0.3-2.1l1.5-10.2h2.6l-2.9,14.8h-3.2l-1.9-9.6c-0.1-0.6-0.2-1.8-0.3-2.4h-0.2c0,0.6-0.1,1.8-0.3,2.4l-1.9,9.6H805l-2.9-14.8
			H804.7z"/>
		<path class="st1" d="M100.5,2329.6h4.2v-3.9l2.5-1.1v4.9h5.8v2h-5.8v7.7c0,2,1,2.9,2.8,2.9c1,0,2-0.1,2.9-0.3v2.3
			c-0.8,0.2-1.6,0.4-2.9,0.4c-3.7,0-5.4-2.1-5.4-5v-8h-4.2L100.5,2329.6L100.5,2329.6z"/>
		<path class="st1" d="M117.3,2337c0-4.7,2.8-7.8,6.9-7.8c4.2,0,6.9,3,6.9,7.8c0,4.7-2.8,7.8-6.9,7.8
			C120.1,2344.7,117.3,2341.6,117.3,2337z M128.5,2337c0-3.5-1.6-5.6-4.2-5.6c-2.7,0-4.2,2.1-4.2,5.6s1.6,5.6,4.2,5.6
			C126.9,2342.6,128.5,2340.5,128.5,2337z"/>
		<path class="st1" d="M164.3,2322.9v21.5h-2.4v-2.8c-0.9,1.9-2.3,3.1-4.7,3.1c-3.7,0-6.1-3.1-6.1-7.8c0-4.7,2.6-7.7,6.5-7.7
			c2,0,3.4,1.1,4.2,2.5v-8.9H164.3z M157.8,2331.4c-2.6,0-4.1,2-4.1,5.5c0,3.4,1.5,5.6,4,5.6c2.5,0,4.1-2,4.1-5.2v-0.7
			C161.8,2333.4,160.3,2331.4,157.8,2331.4z"/>
		<path class="st1" d="M181.9,2337.6h-10.4c0,2.8,1.6,4.9,4.4,4.9c2,0,3.2-1.2,3.9-2.6l2.1,1.1c-1.2,2.5-3.3,3.7-6,3.7
			c-4.6,0-6.9-3.2-6.9-8.1c0-4.5,2.6-7.5,6.8-7.5c4.5,0,6.3,3.3,6.3,7.3C181.9,2336.9,181.9,2337.2,181.9,2337.6z M175.5,2331.2
			c-2.7,0-4.1,2.2-4.1,4.4h7.9C179.4,2333.2,178.2,2331.2,175.5,2331.2z"/>
		<path class="st1" d="M186.8,2339.8l2.6-0.4c0.4,2.2,1.8,3.3,4,3.3c2,0,3.1-0.8,3.1-2.2c0-1.5-0.8-2.1-2.4-2.3l-2.4-0.3
			c-2.9-0.3-4.3-2-4.3-4.3c0-2.7,2.1-4.4,5.6-4.4c3.4,0,5.7,1.8,6,4.5l-2.5,0.5c-0.3-1.8-1.5-3-3.6-3c-2,0-3.1,0.8-3.1,2.2
			c0,1.3,0.8,2,2.7,2.3l2.4,0.3c2.9,0.3,4.1,1.9,4.1,4.2c0,2.8-2.1,4.5-5.7,4.5C189.7,2344.7,187.4,2343,186.8,2339.8z"/>
		<path class="st1" d="M204.5,2342.3h4.7v-10.7H205v-2.1h6.8v12.7h5v2.1h-12.3V2342.3z M212.1,2326.6h-3.6v-3.6h3.6V2326.6z"/>
		<path class="st1" d="M231.3,2330.7c0.9,0.9,1.3,2,1.3,3.4c0,3-2.3,5.1-5.6,5.1c-1,0-2-0.2-2.8-0.6c-0.6,0.3-1,0.8-1,1.5
			c0,0.9,0.8,1.5,2.5,1.5h3.8c3.1,0,4.8,1.5,4.8,4c0,3.1-2.7,4.9-7.3,4.9c-4.2,0-6.7-1.4-6.7-3.8c0-1.6,1-2.8,2.6-3.3
			c-1.2-0.5-1.9-1.4-1.9-2.6c0-1.4,0.8-2.4,2.1-2.9c-1-0.9-1.5-2.1-1.5-3.6c0-3,2.2-5.1,5.5-5.1c1.1,0,2,0.2,2.8,0.6
			c0.5-1.8,1.7-2.7,3.6-2.7c0.3,0,0.7,0,0.9,0.1v2.2c-0.4-0.1-0.7-0.1-1.1-0.1C232.4,2329.3,231.7,2329.8,231.3,2330.7z
			 M225.6,2343.8c-0.4,0-0.9,0-1.2-0.1c-1,0.5-1.6,1.2-1.6,2.3c0,1.6,1.4,2.4,4.5,2.4c3.2,0,4.5-0.9,4.5-2.5c0-1.3-1-2.1-2.9-2.1
			L225.6,2343.8L225.6,2343.8z M230.3,2334.2c0-1.8-1.3-3.1-3.1-3.1c-1.8,0-3.1,1.3-3.1,3.1c0,1.8,1.2,3.1,3,3.1
			C228.9,2337.3,230.3,2336,230.3,2334.2z"/>
		<path class="st1" d="M245.5,2329.2c1.2,0,2.6,0.3,3.6,1.3c1,0.9,1.4,2.3,1.4,4.8v9.2h-2.5v-9c0-3.2-1.6-3.9-3.1-3.9
			c-3.3,0-4.2,3.1-4.2,5.2v7.7h-2.5v-14.8h2.4v2.9C241.3,2330.6,243,2329.2,245.5,2329.2z"/>
		<path class="st1" d="M284.8,2344.4h-2.6c-0.1-0.8-0.2-1.8-0.2-2.7c-1,2.1-2.6,3.1-5,3.1c-2.9,0-5-1.8-5-4.4c0-1.5,0.7-2.7,2.1-3.5
			c1-0.5,2.6-0.9,5-1.2l2.7-0.3v-0.3c0-2.6-1-3.8-3.2-3.8c-2.1,0-3.3,1.1-3.5,2.9h-2.7c0.3-3.2,2.6-5,6.3-5c3.8,0,5.5,1.9,5.5,6.2v4
			C284.2,2341.7,284.4,2343.3,284.8,2344.4z M278.2,2337.7c-2.6,0.4-3.6,1.1-3.6,2.6c0,1.5,1,2.4,2.8,2.4c2.7,0,4.4-1.8,4.4-4.8
			v-0.7L278.2,2337.7z"/>
		<path class="st1" d="M296.9,2329.2c1.2,0,2.6,0.3,3.6,1.3c1,0.9,1.4,2.3,1.4,4.8v9.2h-2.5v-9c0-3.2-1.6-3.9-3.1-3.9
			c-3.3,0-4.2,3.1-4.2,5.2v7.7h-2.5v-14.8h2.4v2.9C292.8,2330.6,294.4,2329.2,296.9,2329.2z"/>
		<path class="st1" d="M313.2,2341.5l4.1-11.9h2.7l-5.9,15.8c-1.4,3.8-3.1,5-5.6,5c-0.4,0-0.9,0-1.4-0.1v-2.2c0.4,0,0.7,0.1,1.1,0.1
			c1.8,0,2.7-0.8,3.4-2.8l0.4-1.1l-5.8-14.6h2.9L313.2,2341.5z"/>
		<path class="st1" d="M323.5,2329.6h4.2v-3.9l2.5-1.1v4.9h5.8v2h-5.8v7.7c0,2,1,2.9,2.9,2.9c1,0,2-0.1,2.9-0.3v2.3
			c-0.8,0.2-1.6,0.4-2.9,0.4c-3.7,0-5.4-2.1-5.4-5v-8h-4.2L323.5,2329.6L323.5,2329.6z"/>
		<path class="st1" d="M348.3,2329.2c1.2,0,2.6,0.3,3.6,1.3c1,0.9,1.4,2.3,1.4,4.7v9.2h-2.5v-9c0-3.2-1.6-3.9-3.2-3.9
			c-3.2,0-4,3.1-4,5.2v7.7h-2.5v-21.5h2.5v9.4C344.3,2330.5,346.2,2329.2,348.3,2329.2z"/>
		<path class="st1" d="M358.9,2342.3h4.7v-10.7h-4.3v-2.1h6.8v12.7h5v2.1h-12.3V2342.3z M366.5,2326.6h-3.6v-3.6h3.6V2326.6z"/>
		<path class="st1" d="M382.7,2329.2c1.2,0,2.6,0.3,3.6,1.3c1,0.9,1.4,2.3,1.4,4.8v9.2h-2.5v-9c0-3.2-1.6-3.9-3.1-3.9
			c-3.3,0-4.2,3.1-4.2,5.2v7.7h-2.5v-14.8h2.4v2.9C378.6,2330.6,380.2,2329.2,382.7,2329.2z"/>
		<path class="st1" d="M402.9,2330.7c0.9,0.9,1.3,2,1.3,3.4c0,3-2.3,5.1-5.6,5.1c-1,0-2-0.2-2.8-0.6c-0.6,0.3-1,0.8-1,1.5
			c0,0.9,0.8,1.5,2.5,1.5h3.8c3.1,0,4.8,1.5,4.8,4c0,3.1-2.7,4.9-7.3,4.9c-4.2,0-6.7-1.4-6.7-3.8c0-1.6,1-2.8,2.6-3.3
			c-1.2-0.5-1.9-1.4-1.9-2.6c0-1.4,0.8-2.4,2.1-2.9c-1-0.9-1.5-2.1-1.5-3.6c0-3,2.2-5.1,5.5-5.1c1.1,0,2,0.2,2.9,0.6
			c0.5-1.8,1.7-2.7,3.6-2.7c0.3,0,0.7,0,0.9,0.1v2.2c-0.4-0.1-0.7-0.1-1.1-0.1C403.9,2329.3,403.3,2329.8,402.9,2330.7z
			 M397.2,2343.8c-0.4,0-0.9,0-1.2-0.1c-1,0.5-1.6,1.2-1.6,2.3c0,1.6,1.4,2.4,4.5,2.4c3.2,0,4.5-0.9,4.5-2.5c0-1.3-1-2.1-2.9-2.1
			L397.2,2343.8L397.2,2343.8z M401.8,2334.2c0-1.8-1.3-3.1-3.1-3.1c-1.8,0-3.1,1.3-3.1,3.1c0,1.8,1.2,3.1,3,3.1
			C400.5,2337.3,401.8,2336,401.8,2334.2z"/>
		<path class="st1" d="M439.2,2331.6h-5.6v12.8h-2.5v-12.8h-4.5v-2h4.5v-1.6c0-3.4,1.9-5.1,5.6-5.1c0.9,0,1.6,0.1,2.6,0.3v2.2
			c-0.7-0.1-1.5-0.2-2.6-0.2c-2.3,0-3,0.8-3,3v1.4h5.6L439.2,2331.6L439.2,2331.6z"/>
		<path class="st1" d="M443.3,2337c0-4.7,2.8-7.8,6.9-7.8c4.2,0,6.9,3,6.9,7.8c0,4.7-2.8,7.8-6.9,7.8
			C446,2344.7,443.3,2341.6,443.3,2337z M454.4,2337c0-3.5-1.6-5.6-4.2-5.6c-2.7,0-4.2,2.1-4.2,5.6s1.6,5.6,4.2,5.6
			C452.9,2342.6,454.4,2340.5,454.4,2337z"/>
		<path class="st1" d="M471.3,2329.3c1.1,0,2,0.1,2.7,0.3v2.3c-0.6-0.2-1.7-0.3-2.8-0.3c-3.6,0-6.4,2.4-6.4,7.3v5.5h-2.5v-14.8h2.5
			v3.9C465.8,2331.1,468.2,2329.3,471.3,2329.3z"/>
		<path class="st1" d="M495.1,2329.6h4.2v-3.9l2.5-1.1v4.9h5.8v2h-5.8v7.7c0,2,0.9,2.9,2.8,2.9c1,0,2-0.1,2.9-0.3v2.3
			c-0.8,0.2-1.6,0.4-2.9,0.4c-3.7,0-5.4-2.1-5.4-5v-8h-4.2V2329.6z"/>
		<path class="st1" d="M519.9,2329.2c1.2,0,2.6,0.3,3.6,1.3c0.9,0.9,1.5,2.3,1.5,4.7v9.2h-2.5v-9c0-3.2-1.6-3.9-3.2-3.9
			c-3.2,0-4,3.1-4,5.2v7.7h-2.5v-21.5h2.5v9.4C515.9,2330.5,517.7,2329.2,519.9,2329.2z"/>
		<path class="st1" d="M542.1,2337.6h-10.4c0,2.8,1.6,4.9,4.3,4.9c2,0,3.2-1.2,3.9-2.6l2.1,1.1c-1.2,2.5-3.3,3.7-6,3.7
			c-4.6,0-6.9-3.2-6.9-8.1c0-4.5,2.6-7.5,6.8-7.5c4.5,0,6.3,3.3,6.3,7.3C542.2,2336.9,542.2,2337.2,542.1,2337.6z M535.8,2331.2
			c-2.7,0-4.1,2.2-4.1,4.4h7.9C539.6,2333.2,538.5,2331.2,535.8,2331.2z"/>
		<path class="st1" d="M564.2,2339.8l2.6-0.4c0.4,2.2,1.8,3.3,4,3.3c2,0,3.1-0.8,3.1-2.2c0-1.5-0.8-2.1-2.4-2.3l-2.4-0.3
			c-2.9-0.3-4.3-2-4.3-4.3c0-2.7,2.1-4.4,5.6-4.4c3.4,0,5.7,1.8,6,4.5l-2.5,0.5c-0.3-1.8-1.5-3-3.6-3c-2,0-3.1,0.8-3.1,2.2
			c0,1.3,0.8,2,2.7,2.3l2.4,0.3c2.9,0.3,4.1,1.9,4.1,4.2c0,2.8-2.1,4.5-5.7,4.5C567.1,2344.7,564.8,2343,564.2,2339.8z"/>
		<path class="st1" d="M580.6,2336.9c0-4.4,2.3-7.7,6.9-7.7c3.3,0,5.7,1.9,6,5.3l-2.6,0.3c-0.3-2.2-1.5-3.4-3.6-3.4
			c-2.7,0-4.1,2.2-4.1,5.5c0,3.4,1.4,5.7,4.2,5.7c2.2,0,3.3-1.3,3.7-3.5l2.4,0.4c-0.5,3-2.4,5.4-6.1,5.4
			C582.9,2344.7,580.6,2341.3,580.6,2336.9z"/>
		<path class="st1" d="M608.6,2329.3c1.1,0,2,0.1,2.7,0.3v2.3c-0.6-0.2-1.7-0.3-2.8-0.3c-3.6,0-6.4,2.4-6.4,7.3v5.5h-2.5v-14.8h2.5
			v3.9C603.1,2331.1,605.5,2329.3,608.6,2329.3z"/>
		<path class="st1" d="M627.9,2337.6h-10.4c0,2.8,1.6,4.9,4.3,4.9c2,0,3.2-1.2,3.9-2.6l2.1,1.1c-1.2,2.5-3.3,3.7-6,3.7
			c-4.6,0-6.9-3.2-6.9-8.1c0-4.5,2.6-7.5,6.8-7.5c4.5,0,6.3,3.3,6.3,7.3C628,2336.9,627.9,2337.2,627.9,2337.6z M621.6,2331.2
			c-2.7,0-4.1,2.2-4.1,4.4h7.9C625.4,2333.2,624.2,2331.2,621.6,2331.2z"/>
		<path class="st1" d="M645.1,2337.6h-10.4c0,2.8,1.6,4.9,4.3,4.9c2,0,3.2-1.2,3.9-2.6l2.1,1.1c-1.2,2.5-3.3,3.7-6,3.7
			c-4.6,0-6.9-3.2-6.9-8.1c0-4.5,2.6-7.5,6.8-7.5c4.5,0,6.3,3.3,6.3,7.3C645.1,2336.9,645.1,2337.2,645.1,2337.6z M638.7,2331.2
			c-2.7,0-4.1,2.2-4.1,4.4h7.9C642.6,2333.2,641.4,2331.2,638.7,2331.2z"/>
		<path class="st1" d="M657.2,2329.2c1.2,0,2.6,0.3,3.6,1.3c1,0.9,1.4,2.3,1.4,4.8v9.2h-2.5v-9c0-3.2-1.6-3.9-3.1-3.9
			c-3.3,0-4.2,3.1-4.2,5.2v7.7h-2.5v-14.8h2.4v2.9C653.1,2330.6,654.7,2329.2,657.2,2329.2z"/>
		<path class="st1" d="M684.3,2339.8l2.6-0.4c0.4,2.2,1.8,3.3,4,3.3c2,0,3.1-0.8,3.1-2.2c0-1.5-0.8-2.1-2.4-2.3l-2.4-0.3
			c-2.9-0.3-4.3-2-4.3-4.3c0-2.7,2.1-4.4,5.6-4.4c3.4,0,5.7,1.8,6,4.5l-2.5,0.5c-0.3-1.8-1.5-3-3.6-3c-2,0-3.1,0.8-3.1,2.2
			c0,1.3,0.8,2,2.7,2.3l2.4,0.3c2.9,0.3,4.1,1.9,4.1,4.2c0,2.8-2.1,4.5-5.7,4.5C687.2,2344.7,684.9,2343,684.3,2339.8z"/>
		<path class="st1" d="M700.9,2329.6h4.2v-3.9l2.5-1.1v4.9h5.8v2h-5.8v7.7c0,2,1,2.9,2.8,2.9c1,0,2-0.1,2.9-0.3v2.3
			c-0.8,0.2-1.6,0.4-2.9,0.4c-3.7,0-5.4-2.1-5.4-5v-8H701L700.9,2329.6L700.9,2329.6z"/>
		<path class="st1" d="M730.8,2344.4h-2.6c-0.1-0.8-0.2-1.8-0.2-2.7c-1,2.1-2.6,3.1-5,3.1c-2.9,0-5-1.8-5-4.4c0-1.5,0.7-2.7,2.1-3.5
			c1-0.5,2.6-0.9,5-1.2l2.7-0.3v-0.3c0-2.6-1-3.8-3.2-3.8c-2.1,0-3.3,1.1-3.5,2.9h-2.7c0.3-3.2,2.6-5,6.3-5c3.8,0,5.5,1.9,5.5,6.2v4
			C730.3,2341.7,730.4,2343.3,730.8,2344.4z M724.2,2337.7c-2.6,0.4-3.6,1.1-3.6,2.6c0,1.5,1,2.4,2.8,2.4c2.7,0,4.4-1.8,4.4-4.8
			v-0.7L724.2,2337.7z"/>
		<path class="st1" d="M745.8,2329.3c1.1,0,2,0.1,2.7,0.3v2.3c-0.6-0.2-1.7-0.3-2.8-0.3c-3.6,0-6.4,2.4-6.4,7.3v5.5h-2.5v-14.8h2.5
			v3.9C740.3,2331.1,742.7,2329.3,745.8,2329.3z"/>
		<path class="st1" d="M752.4,2329.6h4.2v-3.9l2.5-1.1v4.9h5.8v2h-5.8v7.7c0,2,1,2.9,2.8,2.9c1,0,2-0.1,2.9-0.3v2.3
			c-0.8,0.2-1.6,0.4-2.9,0.4c-3.7,0-5.4-2.1-5.4-5v-8h-4.2L752.4,2329.6L752.4,2329.6z"/>
		<path class="st1" d="M782.3,2337.6h-10.4c0,2.8,1.6,4.9,4.3,4.9c2,0,3.2-1.2,3.9-2.6l2.1,1.1c-1.2,2.5-3.3,3.7-6,3.7
			c-4.6,0-6.9-3.2-6.9-8.1c0-4.5,2.6-7.5,6.8-7.5c4.5,0,6.3,3.3,6.3,7.3C782.4,2336.9,782.3,2337.2,782.3,2337.6z M776,2331.2
			c-2.7,0-4.1,2.2-4.1,4.4h7.9C779.8,2333.2,778.6,2331.2,776,2331.2z"/>
		<path class="st1" d="M799,2322.9v21.5h-2.4v-2.8c-0.9,1.9-2.3,3.1-4.7,3.1c-3.7,0-6.1-3.1-6.1-7.8c0-4.7,2.6-7.7,6.5-7.7
			c2,0,3.4,1.1,4.2,2.5v-8.9H799z M792.6,2331.4c-2.6,0-4.1,2-4.1,5.5c0,3.4,1.5,5.6,4,5.6c2.5,0,4.1-2,4.1-5.2v-0.7
			C796.6,2333.4,795,2331.4,792.6,2331.4z"/>
		<path class="st1" d="M100.5,2369.2h4.2v-3.9l2.5-1.1v4.9h5.8v2h-5.8v7.7c0,2,1,2.9,2.8,2.9c1,0,2-0.1,2.9-0.3v2.3
			c-0.8,0.2-1.6,0.4-2.9,0.4c-3.7,0-5.4-2.1-5.4-5v-8h-4.2L100.5,2369.2L100.5,2369.2z"/>
		<path class="st1" d="M117.3,2376.7c0-4.7,2.8-7.8,6.9-7.8c4.2,0,6.9,3.1,6.9,7.8s-2.8,7.8-6.9,7.8
			C120.1,2384.4,117.3,2381.3,117.3,2376.7z M128.5,2376.7c0-3.5-1.6-5.6-4.2-5.6c-2.7,0-4.2,2.1-4.2,5.6s1.6,5.6,4.2,5.6
			C126.9,2382.2,128.5,2380.2,128.5,2376.7z"/>
		<path class="st1" d="M151.7,2376.6c0-4.4,2.3-7.7,6.9-7.7c3.3,0,5.7,1.9,6,5.3l-2.6,0.3c-0.3-2.2-1.5-3.4-3.6-3.4
			c-2.7,0-4.1,2.2-4.1,5.5c0,3.4,1.4,5.7,4.2,5.7c2.2,0,3.3-1.3,3.7-3.6l2.4,0.4c-0.5,3-2.4,5.4-6.1,5.4
			C154,2384.4,151.7,2381,151.7,2376.6z"/>
		<path class="st1" d="M179.7,2368.9c1.1,0,2,0.1,2.7,0.3v2.3c-0.6-0.1-1.7-0.3-2.8-0.3c-3.6,0-6.4,2.4-6.4,7.3v5.5h-2.5v-14.8h2.5
			v3.9C174.2,2370.8,176.6,2368.9,179.7,2368.9z"/>
		<path class="st1" d="M199,2377.3h-10.4c0,2.8,1.6,4.9,4.3,4.9c2,0,3.2-1.2,3.9-2.6l2.1,1.1c-1.2,2.4-3.3,3.7-6,3.7
			c-4.6,0-6.9-3.2-6.9-8.1c0-4.5,2.6-7.5,6.8-7.5c4.5,0,6.3,3.3,6.3,7.3C199.1,2376.5,199.1,2376.9,199,2377.3z M192.7,2370.8
			c-2.7,0-4.1,2.2-4.1,4.4h7.9C196.5,2372.8,195.4,2370.8,192.7,2370.8z"/>
		<path class="st1" d="M216.1,2384.1h-2.6c-0.1-0.8-0.2-1.8-0.2-2.7c-1,2.1-2.6,3.1-5,3.1c-2.9,0-5-1.8-5-4.4c0-1.5,0.7-2.7,2.1-3.5
			c1-0.5,2.6-0.9,5-1.2l2.7-0.3v-0.3c0-2.6-1-3.8-3.2-3.8c-2.1,0-3.3,1.1-3.5,2.9h-2.7c0.3-3.2,2.6-5,6.3-5c3.8,0,5.5,1.9,5.5,6.2v4
			C215.6,2381.4,215.8,2383,216.1,2384.1z M209.6,2377.3c-2.6,0.4-3.6,1.1-3.6,2.6c0,1.5,1,2.4,2.8,2.4c2.7,0,4.4-1.8,4.4-4.8v-0.7
			L209.6,2377.3z"/>
		<path class="st1" d="M220.6,2369.2h4.2v-3.9l2.5-1.1v4.9h5.8v2h-5.8v7.7c0,2,1,2.9,2.9,2.9c1,0,2-0.1,2.9-0.3v2.3
			c-0.8,0.2-1.6,0.4-2.9,0.4c-3.7,0-5.4-2.1-5.4-5v-8h-4.2L220.6,2369.2L220.6,2369.2z"/>
		<path class="st1" d="M250.5,2377.3h-10.4c0,2.8,1.6,4.9,4.3,4.9c2,0,3.2-1.2,3.9-2.6l2.1,1.1c-1.2,2.4-3.3,3.7-6,3.7
			c-4.6,0-6.9-3.2-6.9-8.1c0-4.5,2.6-7.5,6.8-7.5c4.5,0,6.3,3.3,6.3,7.3C250.5,2376.5,250.5,2376.9,250.5,2377.3z M244.2,2370.8
			c-2.7,0-4.1,2.2-4.1,4.4h7.9C248,2372.8,246.8,2370.8,244.2,2370.8z"/>
		<path class="st1" d="M284.8,2384.1h-2.6c-0.1-0.8-0.2-1.8-0.2-2.7c-1,2.1-2.6,3.1-5,3.1c-2.9,0-5-1.8-5-4.4c0-1.5,0.7-2.7,2.1-3.5
			c1-0.5,2.6-0.9,5-1.2l2.7-0.3v-0.3c0-2.6-1-3.8-3.2-3.8c-2.1,0-3.3,1.1-3.5,2.9h-2.7c0.3-3.2,2.6-5,6.3-5c3.8,0,5.5,1.9,5.5,6.2v4
			C284.2,2381.4,284.4,2383,284.8,2384.1z M278.2,2377.3c-2.6,0.4-3.6,1.1-3.6,2.6c0,1.5,1,2.4,2.8,2.4c2.7,0,4.4-1.8,4.4-4.8v-0.7
			L278.2,2377.3z"/>
		<path class="st1" d="M289.8,2379.5l2.6-0.4c0.4,2.2,1.8,3.3,4,3.3c2,0,3.1-0.8,3.1-2.2c0-1.5-0.8-2.1-2.4-2.3l-2.4-0.3
			c-2.9-0.3-4.3-2-4.3-4.3c0-2.7,2.1-4.4,5.6-4.4c3.4,0,5.7,1.8,6,4.5l-2.5,0.6c-0.3-1.8-1.5-3-3.6-3c-2,0-3.1,0.8-3.1,2.2
			c0,1.3,0.8,2,2.7,2.2l2.4,0.3c2.9,0.3,4.1,1.9,4.1,4.2c0,2.8-2.1,4.5-5.7,4.5C292.6,2384.4,290.3,2382.7,289.8,2379.5z"/>
		<path class="st1" d="M324.6,2382h4.7v-10.7h-4.3v-2.1h6.8v12.7h5v2.1h-12.3V2382z M332.2,2366.3h-3.6v-3.6h3.6V2366.3z"/>
		<path class="st1" d="M353.5,2371.3h-5.6v12.8h-2.5v-12.8h-4.5v-2h4.5v-1.6c0-3.4,1.9-5.1,5.6-5.1c0.9,0,1.6,0.1,2.6,0.3v2.2
			c-0.7-0.1-1.4-0.2-2.6-0.2c-2.3,0-3,0.8-3,3v1.5h5.6L353.5,2371.3L353.5,2371.3z"/>
		<path class="st1" d="M387.7,2384.1H385c-0.1-0.8-0.2-1.8-0.2-2.7c-1,2.1-2.6,3.1-5,3.1c-2.9,0-5-1.8-5-4.4c0-1.5,0.7-2.7,2.1-3.5
			c1-0.5,2.6-0.9,5-1.2l2.7-0.3v-0.3c0-2.6-1-3.8-3.2-3.8c-2.1,0-3.3,1.1-3.5,2.9h-2.7c0.3-3.2,2.6-5,6.3-5c3.8,0,5.5,1.9,5.5,6.2v4
			C387.2,2381.4,387.3,2383,387.7,2384.1z M381.1,2377.3c-2.6,0.4-3.6,1.1-3.6,2.6c0,1.5,1,2.4,2.8,2.4c2.7,0,4.4-1.8,4.4-4.8v-0.7
			L381.1,2377.3z"/>
		<path class="st1" d="M419.9,2368.9c1.1,0,2,0.1,2.7,0.3v2.3c-0.6-0.1-1.7-0.3-2.8-0.3c-3.6,0-6.4,2.4-6.4,7.3v5.5h-2.5v-14.8h2.5
			v3.9C414.3,2370.8,416.8,2368.9,419.9,2368.9z"/>
		<path class="st1" d="M439.2,2377.3h-10.4c0,2.8,1.6,4.9,4.3,4.9c2,0,3.2-1.2,3.9-2.6l2.1,1.1c-1.2,2.4-3.3,3.7-6,3.7
			c-4.6,0-6.9-3.2-6.9-8.1c0-4.5,2.6-7.5,6.8-7.5c4.5,0,6.3,3.3,6.3,7.3C439.3,2376.5,439.2,2376.9,439.2,2377.3z M432.9,2370.8
			c-2.7,0-4.1,2.2-4.1,4.4h7.9C436.7,2372.8,435.5,2370.8,432.9,2370.8z"/>
		<path class="st1" d="M444.7,2382h4.7v-17.3H445v-2.1h7v19.4h5v2.1h-12.3V2382z"/>
		<path class="st1" d="M461.9,2382h4.7v-10.7h-4.3v-2.1h6.8v12.7h5v2.1h-12.3V2382z M469.4,2366.3h-3.6v-3.6h3.6V2366.3z"/>
		<path class="st1" d="M488.6,2370.4c0.9,0.9,1.3,2.1,1.3,3.4c0,3-2.3,5.1-5.6,5.1c-1,0-2-0.2-2.8-0.6c-0.6,0.3-1,0.8-1,1.5
			c0,0.9,0.8,1.5,2.5,1.5h3.8c3.1,0,4.8,1.5,4.8,4c0,3.1-2.7,4.9-7.3,4.9c-4.2,0-6.7-1.5-6.7-3.8c0-1.6,1-2.8,2.6-3.3
			c-1.2-0.5-1.9-1.4-1.9-2.6c0-1.4,0.8-2.4,2.1-2.9c-1-0.9-1.5-2.1-1.5-3.6c0-3,2.2-5.1,5.5-5.1c1.1,0,2,0.2,2.9,0.7
			c0.5-1.8,1.7-2.7,3.6-2.7c0.3,0,0.7,0,1,0.1v2.2c-0.4-0.1-0.7-0.1-1.1-0.1C489.7,2369,489,2369.4,488.6,2370.4z M483,2383.5
			c-0.4,0-0.9,0-1.2-0.1c-1,0.4-1.6,1.2-1.6,2.2c0,1.6,1.5,2.4,4.5,2.4c3.2,0,4.5-0.9,4.5-2.5c0-1.3-0.9-2.1-2.9-2.1L483,2383.5
			L483,2383.5z M487.6,2373.9c0-1.8-1.3-3.1-3.1-3.1c-1.8,0-3.1,1.3-3.1,3.2c0,1.8,1.2,3,3,3C486.3,2377,487.6,2375.7,487.6,2373.9z
			"/>
		<path class="st1" d="M496.2,2382h4.7v-10.7h-4.3v-2.1h6.8v12.7h5v2.1h-12.3V2382z M503.7,2366.3h-3.6v-3.6h3.6V2366.3z"/>
		<path class="st1" d="M511.9,2376.7c0-4.7,2.8-7.8,6.9-7.8c4.2,0,6.9,3.1,6.9,7.8s-2.8,7.8-6.9,7.8
			C514.7,2384.4,511.9,2381.3,511.9,2376.7z M523,2376.7c0-3.5-1.6-5.6-4.2-5.6c-2.7,0-4.2,2.1-4.2,5.6s1.6,5.6,4.2,5.6
			C521.5,2382.2,523,2380.2,523,2376.7z"/>
		<path class="st1" d="M537.1,2368.9c1.2,0,2.6,0.3,3.6,1.3c1,0.9,1.4,2.3,1.4,4.8v9.2h-2.5v-9c0-3.2-1.6-3.9-3.1-3.9
			c-3.3,0-4.2,3.1-4.2,5.2v7.7h-2.5v-14.8h2.4v2.9C533,2370.3,534.6,2368.9,537.1,2368.9z"/>
		<path class="st1" d="M576.4,2384.1h-2.6c-0.1-0.8-0.2-1.8-0.2-2.7c-1,2.1-2.6,3.1-5,3.1c-2.9,0-5-1.8-5-4.4c0-1.5,0.7-2.7,2.1-3.5
			c1-0.5,2.6-0.9,5-1.2l2.7-0.3v-0.3c0-2.6-1-3.8-3.2-3.8c-2.1,0-3.3,1.1-3.5,2.9H564c0.3-3.2,2.6-5,6.3-5c3.8,0,5.5,1.9,5.5,6.2v4
			C575.9,2381.4,576,2383,576.4,2384.1z M569.8,2377.3c-2.6,0.4-3.6,1.1-3.6,2.6c0,1.5,1,2.4,2.8,2.4c2.7,0,4.4-1.8,4.4-4.8v-0.7
			L569.8,2377.3z"/>
		<path class="st1" d="M591.4,2368.9c1.1,0,2,0.1,2.7,0.3v2.3c-0.6-0.1-1.7-0.3-2.8-0.3c-3.6,0-6.4,2.4-6.4,7.3v5.5h-2.5v-14.8h2.5
			v3.9C585.9,2370.8,588.3,2368.9,591.4,2368.9z"/>
		<path class="st1" d="M597.7,2376.7c0-4.7,2.8-7.8,6.9-7.8c4.2,0,6.9,3.1,6.9,7.8s-2.8,7.8-6.9,7.8
			C600.4,2384.4,597.7,2381.3,597.7,2376.7z M608.8,2376.7c0-3.5-1.6-5.6-4.2-5.6s-4.2,2.1-4.2,5.6s1.6,5.6,4.2,5.6
			C607.3,2382.2,608.8,2380.2,608.8,2376.7z"/>
		<path class="st1" d="M620.7,2384.4c-1.4,0-2.8-0.3-3.8-1.3c-1-0.9-1.4-2.3-1.4-4.7v-9.2h2.6v9.1c0,3.2,1.5,3.9,3.1,3.9
			c3.1,0,3.9-3.1,3.9-5.3v-7.7h2.5v14.8h-2.4v-2.8C624.7,2382.7,622.9,2384.4,620.7,2384.4z"/>
		<path class="st1" d="M640,2368.9c1.2,0,2.6,0.3,3.6,1.3c1,0.9,1.4,2.3,1.4,4.8v9.2h-2.5v-9c0-3.2-1.6-3.9-3.1-3.9
			c-3.3,0-4.2,3.1-4.2,5.2v7.7h-2.5v-14.8h2.4v2.9C635.9,2370.3,637.5,2368.9,640,2368.9z"/>
		<path class="st1" d="M661.8,2362.6v21.5h-2.4v-2.8c-0.9,1.9-2.3,3.1-4.7,3.1c-3.7,0-6.1-3.1-6.1-7.8c0-4.6,2.6-7.7,6.5-7.7
			c2,0,3.4,1.1,4.2,2.6v-8.9H661.8z M655.3,2371.1c-2.6,0-4.1,2-4.1,5.5c0,3.4,1.5,5.6,4,5.6c2.5,0,4.1-2,4.1-5.2v-0.7
			C659.3,2373.1,657.8,2371.1,655.3,2371.1z"/>
		<path class="st1" d="M697.5,2365.4h-10.1v6.7h9.3v2.4h-9.3v9.6h-2.8V2363h12.9V2365.4z"/>
		<path class="st1" d="M702,2382h4.7v-17.3h-4.4v-2.1h7v19.4h5v2.1H702V2382z"/>
		<path class="st1" d="M730.8,2384.1h-2.6c-0.1-0.8-0.2-1.8-0.2-2.7c-1,2.1-2.6,3.1-5,3.1c-2.9,0-5-1.8-5-4.4c0-1.5,0.7-2.7,2.1-3.5
			c1-0.5,2.6-0.9,5-1.2l2.7-0.3v-0.3c0-2.6-1-3.8-3.2-3.8c-2.1,0-3.3,1.1-3.5,2.9h-2.7c0.3-3.2,2.6-5,6.3-5c3.8,0,5.5,1.9,5.5,6.2v4
			C730.3,2381.4,730.4,2383,730.8,2384.1z M724.2,2377.3c-2.6,0.4-3.6,1.1-3.6,2.6c0,1.5,1,2.4,2.8,2.4c2.7,0,4.4-1.8,4.4-4.8v-0.7
			L724.2,2377.3z"/>
		<path class="st1" d="M735.3,2369.2h4.2v-3.9l2.5-1.1v4.9h5.8v2H742v7.7c0,2,0.9,2.9,2.8,2.9c1,0,2-0.1,2.9-0.3v2.3
			c-0.8,0.2-1.6,0.4-2.9,0.4c-3.7,0-5.4-2.1-5.4-5v-8h-4.2V2369.2z"/>
		<path class="st1" d="M100.2,2402.7h6.2c5.8,0,8.9,4.4,8.9,10.5c0,6-3.5,10.6-9,10.6h-6.1L100.2,2402.7L100.2,2402.7z
			 M106.2,2421.4c4,0,6.2-3.9,6.2-8.2c0-4.5-2-8.2-6.1-8.2h-3.4v16.4H106.2z"/>
		<path class="st1" d="M130.4,2417H120c0,2.8,1.6,4.9,4.4,4.9c2,0,3.2-1.2,3.9-2.6l2.1,1.1c-1.2,2.4-3.3,3.7-6,3.7
			c-4.6,0-6.9-3.2-6.9-8.1c0-4.5,2.6-7.5,6.8-7.5c4.5,0,6.3,3.3,6.3,7.3C130.5,2416.2,130.4,2416.6,130.4,2417z M124.1,2410.5
			c-2.7,0-4.1,2.2-4.1,4.4h7.9C127.9,2412.5,126.7,2410.5,124.1,2410.5z"/>
		<path class="st1" d="M135.4,2419.2l2.6-0.4c0.4,2.2,1.8,3.3,4,3.3c2,0,3.1-0.8,3.1-2.2c0-1.5-0.8-2.1-2.4-2.3l-2.4-0.3
			c-2.9-0.3-4.3-2-4.3-4.3c0-2.7,2.1-4.4,5.6-4.4c3.4,0,5.7,1.8,6,4.5l-2.5,0.6c-0.3-1.8-1.5-3-3.6-3c-2,0-3.1,0.8-3.1,2.2
			c0,1.3,0.8,2.1,2.7,2.3l2.4,0.3c2.9,0.3,4.1,1.9,4.1,4.2c0,2.8-2.1,4.5-5.7,4.5C138.2,2424.1,135.9,2422.3,135.4,2419.2z"/>
		<path class="st1" d="M153.1,2421.7h4.7V2411h-4.3v-2.1h6.8v12.8h5v2.1h-12.3V2421.7z M160.6,2406H157v-3.6h3.6V2406z"/>
		<path class="st1" d="M179.8,2410.1c0.9,0.9,1.3,2.1,1.3,3.4c0,3-2.3,5.1-5.6,5.1c-1,0-2-0.2-2.8-0.6c-0.6,0.3-1,0.8-1,1.5
			c0,0.9,0.8,1.5,2.5,1.5h3.8c3.1,0,4.8,1.5,4.8,4c0,3.1-2.7,4.9-7.3,4.9c-4.2,0-6.7-1.4-6.7-3.8c0-1.6,1-2.8,2.6-3.3
			c-1.2-0.5-1.9-1.4-1.9-2.6c0-1.4,0.8-2.4,2.1-2.9c-1-0.9-1.5-2.1-1.5-3.6c0-3,2.2-5.1,5.5-5.1c1.1,0,2,0.2,2.8,0.7
			c0.5-1.8,1.7-2.7,3.6-2.7c0.3,0,0.7,0,1,0.1v2.2c-0.4-0.1-0.7-0.1-1.1-0.1C180.9,2408.7,180.2,2409.1,179.8,2410.1z M174.2,2423.2
			c-0.4,0-0.9,0-1.2-0.1c-1,0.4-1.6,1.2-1.6,2.2c0,1.6,1.4,2.4,4.5,2.4c3.2,0,4.5-0.9,4.5-2.5c0-1.3-1-2.1-2.9-2.1L174.2,2423.2
			L174.2,2423.2z M178.8,2413.5c0-1.8-1.3-3.1-3.1-3.1c-1.8,0-3.1,1.3-3.1,3.2c0,1.8,1.2,3.1,3,3.1
			C177.5,2416.7,178.8,2415.4,178.8,2413.5z"/>
		<path class="st1" d="M194,2408.6c1.2,0,2.6,0.3,3.6,1.3c1,0.9,1.4,2.3,1.4,4.8v9.2h-2.5v-9c0-3.2-1.6-3.9-3.1-3.9
			c-3.3,0-4.2,3.1-4.2,5.2v7.7h-2.5v-14.8h2.4v2.9C189.9,2410,191.5,2408.6,194,2408.6z"/>
		<path class="st1" d="M212,2423.7H208v-3.8h3.9V2423.7z"/>
		<path class="st1" d="M245.7,2404.9v16.6h5.3v2.2h-13.3v-2.2h5.2v-16.6h-5.2v-2.2H251v2.2H245.7z"/>
		<path class="st1" d="M254.9,2408.9h4.2v-3.9l2.5-1.1v4.9h5.8v2.1h-5.8v7.7c0,2,1,2.9,2.9,2.9c1,0,2-0.1,2.9-0.3v2.3
			c-0.8,0.2-1.6,0.4-2.9,0.4c-3.7,0-5.4-2.1-5.4-5v-8h-4.2L254.9,2408.9L254.9,2408.9z"/>
		<path class="st1" d="M290.1,2408.9l1.5,10.2l0.3,2.1h0.2c0.1-0.7,0.2-1.2,0.5-2.5l1.9-9.8h2.6l1.9,9.8c0.3,1.3,0.4,1.8,0.5,2.5
			h0.2l0.3-2.1l1.5-10.2h2.6l-2.9,14.8h-3.2l-1.9-9.6c-0.1-0.6-0.2-1.8-0.3-2.4h-0.2c0,0.6-0.1,1.8-0.3,2.4l-1.9,9.6h-3.2l-2.9-14.8
			H290.1z"/>
		<path class="st1" d="M319.1,2423.7h-2.6c-0.1-0.8-0.2-1.8-0.2-2.7c-1,2.1-2.6,3.1-5,3.1c-2.9,0-5-1.8-5-4.4c0-1.5,0.7-2.7,2.1-3.5
			c1-0.5,2.6-0.9,5-1.2l2.7-0.3v-0.3c0-2.6-1-3.8-3.2-3.8c-2.1,0-3.3,1.1-3.5,2.9h-2.7c0.3-3.2,2.6-5,6.3-5c3.8,0,5.5,1.9,5.5,6.2v4
			C318.5,2421.1,318.7,2422.6,319.1,2423.7z M312.5,2417c-2.6,0.4-3.6,1.1-3.6,2.6c0,1.5,1,2.4,2.8,2.4c2.7,0,4.4-1.8,4.4-4.8v-0.7
			L312.5,2417z"/>
		<path class="st1" d="M324.1,2419.2l2.6-0.4c0.4,2.2,1.8,3.3,4,3.3c2,0,3.1-0.8,3.1-2.2c0-1.5-0.8-2.1-2.4-2.3l-2.4-0.3
			c-2.9-0.3-4.3-2-4.3-4.3c0-2.7,2.1-4.4,5.6-4.4c3.4,0,5.7,1.8,6,4.5l-2.5,0.6c-0.3-1.8-1.5-3-3.6-3c-2,0-3.1,0.8-3.1,2.2
			c0,1.3,0.8,2.1,2.7,2.3l2.4,0.3c2.9,0.3,4.1,1.9,4.1,4.2c0,2.8-2.1,4.5-5.7,4.5C326.9,2424.1,324.6,2422.3,324.1,2419.2z"/>
		<path class="st1" d="M357.8,2408.9h4.2v-3.9l2.5-1.1v4.9h5.8v2.1h-5.8v7.7c0,2,1,2.9,2.9,2.9c1,0,2-0.1,2.9-0.3v2.3
			c-0.8,0.2-1.6,0.4-2.9,0.4c-3.7,0-5.4-2.1-5.4-5v-8h-4.2L357.8,2408.9L357.8,2408.9z"/>
		<path class="st1" d="M382.6,2408.6c1.2,0,2.6,0.3,3.6,1.3c1,0.9,1.4,2.3,1.4,4.7v9.2h-2.5v-9c0-3.2-1.6-4-3.2-4
			c-3.2,0-4,3.1-4,5.2v7.7h-2.5v-21.5h2.5v9.4C378.6,2409.8,380.5,2408.6,382.6,2408.6z"/>
		<path class="st1" d="M404.9,2417h-10.4c0,2.8,1.6,4.9,4.4,4.9c2,0,3.2-1.2,3.9-2.6l2.1,1.1c-1.2,2.4-3.3,3.7-6,3.7
			c-4.6,0-6.9-3.2-6.9-8.1c0-4.5,2.6-7.5,6.8-7.5c4.5,0,6.3,3.3,6.3,7.3C404.9,2416.2,404.9,2416.6,404.9,2417z M398.6,2410.5
			c-2.7,0-4.1,2.2-4.1,4.4h7.9C402.4,2412.5,401.2,2410.5,398.6,2410.5z"/>
		<path class="st1" d="M426.1,2416.3c0-4.7,2.8-7.8,6.9-7.8c4.2,0,6.9,3.1,6.9,7.8s-2.8,7.8-6.9,7.8
			C428.9,2424.1,426.1,2421,426.1,2416.3z M437.3,2416.3c0-3.5-1.6-5.6-4.2-5.6c-2.7,0-4.2,2.1-4.2,5.6s1.6,5.6,4.2,5.6
			C435.7,2421.9,437.3,2419.8,437.3,2416.3z"/>
		<path class="st1" d="M451.3,2408.6c1.2,0,2.6,0.3,3.6,1.3c1,0.9,1.4,2.3,1.4,4.8v9.2h-2.5v-9c0-3.2-1.6-3.9-3.1-3.9
			c-3.3,0-4.2,3.1-4.2,5.2v7.7h-2.5v-14.8h2.4v2.9C447.2,2410,448.8,2408.6,451.3,2408.6z"/>
		<path class="st1" d="M461.9,2421.7h4.7v-17.4h-4.4v-2.1h7v19.4h5v2.1h-12.3V2421.7z"/>
		<path class="st1" d="M484.7,2420.8l4.1-11.9h2.7l-5.9,15.8c-1.4,3.8-3.1,5-5.6,5c-0.4,0-0.9,0-1.4-0.1v-2.2c0.4,0,0.7,0.1,1.1,0.1
			c1.8,0,2.7-0.8,3.4-2.8l0.4-1.1l-5.8-14.6h2.8L484.7,2420.8z"/>
		<path class="st1" d="M513.1,2408.9l1.5,10.2l0.3,2.1h0.2c0.1-0.7,0.2-1.2,0.5-2.5l1.9-9.8h2.6l1.9,9.8c0.3,1.3,0.4,1.8,0.5,2.5
			h0.2l0.3-2.1l1.5-10.2h2.6l-2.9,14.8h-3.2l-1.9-9.6c-0.1-0.6-0.2-1.8-0.3-2.4h-0.2c0,0.6-0.1,1.8-0.3,2.4l-1.9,9.6h-3.2l-2.9-14.8
			H513.1z"/>
		<path class="st1" d="M542.1,2423.7h-2.6c-0.1-0.8-0.2-1.8-0.2-2.7c-1,2.1-2.6,3.1-5,3.1c-2.9,0-5-1.8-5-4.4c0-1.5,0.7-2.7,2.1-3.5
			c1-0.5,2.6-0.9,5-1.2l2.7-0.3v-0.3c0-2.6-1-3.8-3.2-3.8c-2.1,0-3.3,1.1-3.5,2.9h-2.7c0.3-3.2,2.6-5,6.3-5c3.8,0,5.5,1.9,5.5,6.2v4
			C541.6,2421.1,541.7,2422.6,542.1,2423.7z M535.5,2417c-2.6,0.4-3.6,1.1-3.6,2.6c0,1.5,1,2.4,2.8,2.4c2.7,0,4.4-1.8,4.4-4.8v-0.7
			L535.5,2417z"/>
		<path class="st1" d="M553.4,2420.8l4.1-11.9h2.7l-5.9,15.8c-1.4,3.8-3.1,5-5.6,5c-0.4,0-0.9,0-1.4-0.1v-2.2c0.4,0,0.7,0.1,1.1,0.1
			c1.8,0,2.7-0.8,3.4-2.8l0.4-1.1l-5.8-14.6h2.9L553.4,2420.8z"/>
		<path class="st1" d="M580.9,2408.9h4.2v-3.9l2.5-1.1v4.9h5.8v2.1h-5.8v7.7c0,2,1,2.9,2.8,2.9c1,0,2-0.1,2.9-0.3v2.3
			c-0.8,0.2-1.6,0.4-2.9,0.4c-3.7,0-5.4-2.1-5.4-5v-8h-4.2L580.9,2408.9L580.9,2408.9z"/>
		<path class="st1" d="M605.6,2408.6c1.2,0,2.6,0.3,3.6,1.3c0.9,0.9,1.5,2.3,1.5,4.7v9.2h-2.5v-9c0-3.2-1.6-4-3.2-4
			c-3.2,0-4,3.1-4,5.2v7.7h-2.5v-21.5h2.5v9.4C601.7,2409.8,603.5,2408.6,605.6,2408.6z"/>
		<path class="st1" d="M627.9,2417h-10.4c0,2.8,1.6,4.9,4.3,4.9c2,0,3.2-1.2,3.9-2.6l2.1,1.1c-1.2,2.4-3.3,3.7-6,3.7
			c-4.6,0-6.9-3.2-6.9-8.1c0-4.5,2.6-7.5,6.8-7.5c4.5,0,6.3,3.3,6.3,7.3C628,2416.2,627.9,2416.6,627.9,2417z M621.6,2410.5
			c-2.7,0-4.1,2.2-4.1,4.4h7.9C625.4,2412.5,624.2,2410.5,621.6,2410.5z"/>
		<path class="st1" d="M650.3,2408.9l1.5,10.2l0.3,2.1h0.2c0.1-0.7,0.2-1.2,0.5-2.5l1.9-9.8h2.6l1.9,9.8c0.3,1.3,0.4,1.8,0.5,2.5
			h0.2l0.3-2.1l1.5-10.2h2.6l-2.9,14.8h-3.2l-1.9-9.6c-0.1-0.6-0.2-1.8-0.3-2.4h-0.2c0,0.6-0.1,1.8-0.3,2.4l-1.9,9.6h-3.2l-2.9-14.8
			H650.3z"/>
		<path class="st1" d="M666.3,2416.3c0-4.7,2.8-7.8,6.9-7.8c4.2,0,6.9,3.1,6.9,7.8s-2.8,7.8-6.9,7.8
			C669.1,2424.1,666.3,2421,666.3,2416.3z M677.4,2416.3c0-3.5-1.6-5.6-4.2-5.6c-2.7,0-4.2,2.1-4.2,5.6s1.6,5.6,4.2,5.6
			C675.9,2421.9,677.4,2419.8,677.4,2416.3z"/>
		<path class="st1" d="M694.3,2408.6c1.1,0,2,0.1,2.7,0.3v2.3c-0.6-0.1-1.7-0.3-2.8-0.3c-3.6,0-6.4,2.4-6.4,7.3v5.5h-2.5v-14.8h2.5
			v3.9C688.8,2410.4,691.3,2408.6,694.3,2408.6z"/>
		<path class="st1" d="M702,2421.7h4.7v-17.4h-4.4v-2.1h7v19.4h5v2.1H702V2421.7z"/>
		<path class="st1" d="M730.4,2402.2v21.5H728v-2.8c-0.9,1.9-2.3,3.1-4.7,3.1c-3.7,0-6.1-3.1-6.1-7.8c0-4.6,2.6-7.7,6.5-7.7
			c2,0,3.4,1.1,4.2,2.6v-8.9H730.4z M723.9,2410.8c-2.6,0-4.1,2.1-4.1,5.5c0,3.4,1.5,5.6,4,5.6c2.5,0,4.1-2,4.1-5.2v-0.7
			C727.9,2412.8,726.4,2410.8,723.9,2410.8z"/>
		<path class="st1" d="M101.6,2461.3h4.7v-10.7H102v-2.1h6.8v12.8h5v2.1h-12.3V2461.3z M109.1,2445.6h-3.6v-3.6h3.6V2445.6z"/>
		<path class="st1" d="M125.4,2448.2c1.2,0,2.6,0.3,3.6,1.3c1,0.9,1.4,2.3,1.4,4.8v9.2h-2.5v-9c0-3.2-1.6-3.9-3.1-3.9
			c-3.3,0-4.2,3.1-4.2,5.2v7.7h-2.5v-14.8h2.4v2.9C121.3,2449.7,122.9,2448.2,125.4,2448.2z"/>
		<path class="st1" d="M135.4,2458.9l2.6-0.4c0.4,2.2,1.8,3.3,4,3.3c2,0,3.1-0.8,3.1-2.2c0-1.5-0.8-2.1-2.4-2.3l-2.4-0.3
			c-2.9-0.3-4.3-2-4.3-4.3c0-2.7,2.1-4.4,5.6-4.4c3.4,0,5.7,1.8,6,4.5l-2.5,0.6c-0.3-1.8-1.5-3-3.6-3c-2,0-3.1,0.8-3.1,2.2
			c0,1.3,0.8,2,2.7,2.3l2.4,0.3c2.9,0.3,4.1,1.9,4.1,4.2c0,2.8-2.1,4.5-5.7,4.5C138.2,2463.8,135.9,2462,135.4,2458.9z"/>
		<path class="st1" d="M153.1,2461.3h4.7v-10.7h-4.3v-2.1h6.8v12.8h5v2.1h-12.3V2461.3z M160.6,2445.6H157v-3.6h3.6V2445.6z"/>
		<path class="st1" d="M181.4,2441.9v21.5h-2.4v-2.8c-0.9,1.9-2.3,3.1-4.7,3.1c-3.7,0-6.1-3.1-6.1-7.8c0-4.7,2.6-7.7,6.5-7.7
			c2,0,3.4,1.1,4.2,2.6v-8.9H181.4z M175,2450.5c-2.6,0-4.1,2-4.1,5.5c0,3.4,1.5,5.6,4,5.6c2.5,0,4.1-2,4.1-5.2v-0.7
			C179,2452.5,177.4,2450.5,175,2450.5z"/>
		<path class="st1" d="M199,2456.7h-10.4c0,2.8,1.6,4.9,4.3,4.9c2,0,3.2-1.2,3.9-2.6l2.1,1.1c-1.2,2.5-3.3,3.7-6,3.7
			c-4.6,0-6.9-3.2-6.9-8.1c0-4.5,2.6-7.5,6.8-7.5c4.5,0,6.3,3.3,6.3,7.3C199.1,2455.9,199.1,2456.3,199,2456.7z M192.7,2450.2
			c-2.7,0-4.1,2.2-4.1,4.4h7.9C196.5,2452.2,195.4,2450.2,192.7,2450.2z"/>
		<path class="st1" d="M220.6,2448.6h4.2v-3.9l2.5-1.1v4.9h5.8v2.1h-5.8v7.7c0,2,1,2.9,2.8,2.9c1,0,2-0.1,2.9-0.3v2.3
			c-0.8,0.2-1.6,0.4-2.9,0.4c-3.7,0-5.4-2.1-5.4-5v-8h-4.2L220.6,2448.6L220.6,2448.6z"/>
		<path class="st1" d="M245.4,2448.2c1.2,0,2.6,0.3,3.6,1.3c1,0.9,1.5,2.3,1.5,4.7v9.2h-2.5v-9c0-3.2-1.6-3.9-3.2-3.9
			c-3.2,0-4,3.1-4,5.2v7.7h-2.5v-21.5h2.5v9.4C241.4,2449.5,243.2,2448.2,245.4,2448.2z"/>
		<path class="st1" d="M267.7,2456.7h-10.4c0,2.8,1.6,4.9,4.4,4.9c2,0,3.2-1.2,3.9-2.6l2.1,1.1c-1.2,2.5-3.3,3.7-6,3.7
			c-4.6,0-6.9-3.2-6.9-8.1c0-4.5,2.6-7.5,6.8-7.5c4.5,0,6.3,3.3,6.3,7.3C267.7,2455.9,267.7,2456.3,267.7,2456.7z M261.3,2450.2
			c-2.7,0-4.1,2.2-4.1,4.4h7.9C265.2,2452.2,264,2450.2,261.3,2450.2z"/>
		<path class="st1" d="M289.8,2458.9l2.6-0.4c0.4,2.2,1.8,3.3,4,3.3c2,0,3.1-0.8,3.1-2.2c0-1.5-0.8-2.1-2.4-2.3l-2.4-0.3
			c-2.9-0.3-4.3-2-4.3-4.3c0-2.7,2.1-4.4,5.6-4.4c3.4,0,5.7,1.8,6,4.5l-2.5,0.6c-0.3-1.8-1.5-3-3.6-3c-2,0-3.1,0.8-3.1,2.2
			c0,1.3,0.8,2,2.7,2.3l2.4,0.3c2.9,0.3,4.1,1.9,4.1,4.2c0,2.8-2.1,4.5-5.7,4.5C292.6,2463.8,290.3,2462,289.8,2458.9z"/>
		<path class="st1" d="M306.1,2455.9c0-4.4,2.3-7.7,6.9-7.7c3.3,0,5.7,1.9,6,5.3l-2.6,0.3c-0.3-2.2-1.5-3.4-3.6-3.4
			c-2.7,0-4.1,2.2-4.1,5.4c0,3.4,1.4,5.7,4.2,5.7c2.2,0,3.3-1.3,3.7-3.6l2.4,0.4c-0.5,3-2.4,5.4-6.1,5.4
			C308.4,2463.8,306.1,2460.4,306.1,2455.9z"/>
		<path class="st1" d="M334.1,2448.3c1.1,0,2,0.1,2.7,0.3v2.4c-0.6-0.2-1.7-0.3-2.8-0.3c-3.6,0-6.4,2.4-6.4,7.3v5.5h-2.5v-14.8h2.5
			v3.9C328.6,2450.1,331,2448.3,334.1,2448.3z"/>
		<path class="st1" d="M353.4,2456.7H343c0,2.8,1.6,4.9,4.3,4.9c2,0,3.2-1.2,3.9-2.6l2.1,1.1c-1.2,2.5-3.3,3.7-6,3.7
			c-4.6,0-6.9-3.2-6.9-8.1c0-4.5,2.6-7.5,6.8-7.5c4.5,0,6.3,3.3,6.3,7.3C353.5,2455.9,353.5,2456.3,353.4,2456.7z M347.1,2450.2
			c-2.7,0-4.1,2.2-4.1,4.4h7.9C350.9,2452.2,349.8,2450.2,347.1,2450.2z"/>
		<path class="st1" d="M370.6,2456.7h-10.4c0,2.8,1.6,4.9,4.3,4.9c2,0,3.2-1.2,3.9-2.6l2.1,1.1c-1.2,2.5-3.3,3.7-6,3.7
			c-4.6,0-6.9-3.2-6.9-8.1c0-4.5,2.6-7.5,6.8-7.5c4.5,0,6.3,3.3,6.3,7.3C370.6,2455.9,370.6,2456.3,370.6,2456.7z M364.2,2450.2
			c-2.7,0-4.1,2.2-4.1,4.4h7.9C368.1,2452.2,366.9,2450.2,364.2,2450.2z"/>
		<path class="st1" d="M382.7,2448.2c1.2,0,2.6,0.3,3.6,1.3c1,0.9,1.4,2.3,1.4,4.8v9.2h-2.5v-9c0-3.2-1.6-3.9-3.1-3.9
			c-3.3,0-4.2,3.1-4.2,5.2v7.7h-2.5v-14.8h2.4v2.9C378.6,2449.7,380.2,2448.2,382.7,2448.2z"/>
		<path class="st1" d="M409.1,2455.9c0-4.4,2.3-7.7,6.9-7.7c3.3,0,5.7,1.9,6,5.3l-2.6,0.3c-0.3-2.2-1.5-3.4-3.6-3.4
			c-2.7,0-4.1,2.2-4.1,5.4c0,3.4,1.4,5.7,4.2,5.7c2.2,0,3.3-1.3,3.7-3.6l2.4,0.4c-0.5,3-2.4,5.4-6.1,5.4
			C411.4,2463.8,409.1,2460.4,409.1,2455.9z"/>
		<path class="st1" d="M426.1,2456c0-4.7,2.8-7.8,6.9-7.8c4.2,0,6.9,3.1,6.9,7.8c0,4.7-2.8,7.8-6.9,7.8
			C428.9,2463.8,426.1,2460.7,426.1,2456z M437.3,2456c0-3.5-1.6-5.6-4.2-5.6c-2.7,0-4.2,2.1-4.2,5.6s1.6,5.6,4.2,5.6
			C435.7,2461.6,437.3,2459.5,437.3,2456z"/>
		<path class="st1" d="M449.2,2463.8c-1.4,0-2.8-0.3-3.8-1.3c-1-0.9-1.4-2.3-1.4-4.7v-9.2h2.6v9.1c0,3.2,1.5,3.9,3.1,3.9
			c3.1,0,3.9-3.1,3.9-5.3v-7.7h2.5v14.8h-2.4v-2.8C453.1,2462.1,451.3,2463.8,449.2,2463.8z"/>
		<path class="st1" d="M461.9,2461.3h4.7V2444h-4.4v-2.1h7v19.4h5v2.1h-12.3V2461.3z"/>
		<path class="st1" d="M490.2,2441.9v21.5h-2.4v-2.8c-0.9,1.9-2.3,3.1-4.7,3.1c-3.7,0-6.1-3.1-6.1-7.8c0-4.7,2.6-7.7,6.5-7.7
			c2,0,3.4,1.1,4.2,2.6v-8.9H490.2z M483.8,2450.5c-2.6,0-4.1,2-4.1,5.5c0,3.4,1.5,5.6,4,5.6c2.5,0,4.1-2,4.1-5.2v-0.7
			C487.8,2452.5,486.2,2450.5,483.8,2450.5z"/>
		<path class="st1" d="M513.3,2461.3h4.7V2444h-4.4v-2.1h7v19.4h5v2.1h-12.3V2461.3z"/>
		<path class="st1" d="M529.1,2456c0-4.7,2.8-7.8,6.9-7.8c4.2,0,6.9,3.1,6.9,7.8c0,4.7-2.8,7.8-6.9,7.8
			C531.8,2463.8,529.1,2460.7,529.1,2456z M540.2,2456c0-3.5-1.6-5.6-4.2-5.6s-4.2,2.1-4.2,5.6s1.6,5.6,4.2,5.6
			C538.6,2461.6,540.2,2459.5,540.2,2456z"/>
		<path class="st1" d="M546.2,2456c0-4.7,2.8-7.8,6.9-7.8c4.2,0,6.9,3.1,6.9,7.8c0,4.7-2.8,7.8-6.9,7.8
			C549,2463.8,546.2,2460.7,546.2,2456z M557.4,2456c0-3.5-1.6-5.6-4.2-5.6c-2.7,0-4.2,2.1-4.2,5.6s1.6,5.6,4.2,5.6
			C555.8,2461.6,557.4,2459.5,557.4,2456z"/>
		<path class="st1" d="M569.8,2456.1l-2.7,2.7v4.5h-2.5v-21.5h2.5v14l6.6-7.3h3.3l-5.4,5.7l5.8,9.1h-3.1L569.8,2456.1z"/>
		<path class="st1" d="M599.1,2461.3h4.7V2444h-4.4v-2.1h7v19.4h5v2.1h-12.3L599.1,2461.3L599.1,2461.3z"/>
		<path class="st1" d="M616.3,2461.3h4.7v-10.7h-4.3v-2.1h6.8v12.8h5v2.1h-12.3V2461.3z M623.8,2445.6h-3.6v-3.6h3.6V2445.6z"/>
		<path class="st1" d="M638.4,2456.1l-2.7,2.7v4.5h-2.5v-21.5h2.5v14l6.6-7.3h3.3l-5.4,5.7l5.8,9.1h-3.1L638.4,2456.1z"/>
		<path class="st1" d="M662.2,2456.7h-10.4c0,2.8,1.6,4.9,4.4,4.9c2,0,3.2-1.2,3.9-2.6l2.1,1.1c-1.2,2.5-3.3,3.7-6,3.7
			c-4.6,0-6.9-3.2-6.9-8.1c0-4.5,2.6-7.5,6.8-7.5c4.5,0,6.3,3.3,6.3,7.3C662.3,2455.9,662.3,2456.3,662.2,2456.7z M655.9,2450.2
			c-2.7,0-4.1,2.2-4.1,4.4h7.9C659.7,2452.2,658.5,2450.2,655.9,2450.2z"/>
		<path class="st1" d="M675.2,2463.4h-3.9v-3.8h3.9V2463.4z"/>
		<path class="st1" d="M708.8,2458.4h-2.6l-1.8-8.2c-0.3-1.2-0.8-3.9-1-5.4h-0.2c0,1.3,0.1,3.8,0.1,5.6v13.1h-2.6v-21.1h4l2.4,11
			c0.1,0.7,0.3,1.4,0.3,1.9h0.2c0.1-0.4,0.2-1.2,0.3-1.9l2.4-11h4v21.1h-2.6v-13.1c0-1.8,0-4.3,0.1-5.6h-0.2c-0.2,1.5-0.7,4.2-1,5.4
			L708.8,2458.4z"/>
		<path class="st1" d="M723.6,2463.8c-1.4,0-2.8-0.3-3.8-1.3c-0.9-0.9-1.4-2.3-1.4-4.7v-9.2h2.6v9.1c0,3.2,1.5,3.9,3.1,3.9
			c3.1,0,3.9-3.1,3.9-5.3v-7.7h2.5v14.8h-2.4v-2.8C727.6,2462.1,725.8,2463.8,723.6,2463.8z"/>
		<path class="st1" d="M735,2455.9c0-4.4,2.3-7.7,6.9-7.7c3.3,0,5.7,1.9,6,5.3l-2.6,0.3c-0.3-2.2-1.5-3.4-3.6-3.4
			c-2.7,0-4.1,2.2-4.1,5.4c0,3.4,1.4,5.7,4.2,5.7c2.2,0,3.3-1.3,3.7-3.6l2.4,0.4c-0.5,3-2.4,5.4-6.1,5.4
			C737.3,2463.8,735,2460.4,735,2455.9z"/>
		<path class="st1" d="M760,2448.2c1.2,0,2.6,0.3,3.6,1.3c0.9,0.9,1.5,2.3,1.5,4.7v9.2h-2.5v-9c0-3.2-1.6-3.9-3.2-3.9
			c-3.2,0-4,3.1-4,5.2v7.7h-2.5v-21.5h2.5v9.4C756.1,2449.5,757.9,2448.2,760,2448.2z"/>
		<path class="st1" d="M101.6,2501h4.7v-17.3h-4.4v-2.1h7v19.4h5v2.1h-12.3V2501z"/>
		<path class="st1" d="M118.8,2501h4.7v-10.7h-4.3v-2.1h6.8v12.8h5v2.1h-12.3V2501z M126.3,2485.3h-3.6v-3.6h3.6V2485.3z"/>
		<path class="st1" d="M140.9,2495.8l-2.7,2.7v4.5h-2.5v-21.5h2.5v14l6.6-7.3h3.3l-5.4,5.7l5.8,9.1h-3.1L140.9,2495.8z"/>
		<path class="st1" d="M164.7,2496.3h-10.4c0,2.8,1.6,4.9,4.4,4.9c2,0,3.2-1.2,3.9-2.6l2.1,1.1c-1.2,2.5-3.3,3.7-6,3.7
			c-4.6,0-6.9-3.2-6.9-8.1c0-4.5,2.6-7.5,6.8-7.5c4.5,0,6.3,3.3,6.3,7.3C164.8,2495.6,164.8,2495.9,164.7,2496.3z M158.4,2489.9
			c-2.7,0-4.1,2.2-4.1,4.4h7.9C162.2,2491.9,161.1,2489.9,158.4,2489.9z"/>
		<path class="st1" d="M190.6,2487.9c1.4,0,2.6,1,3.1,2.7c0.7-1.7,2-2.7,3.5-2.7c1.8,0,3.5,1.3,3.5,4.4v10.8h-2.5v-10.6
			c0-1.9-0.9-2.4-1.7-2.4c-1.7,0-2.4,1.3-2.4,3.1v9.8h-2.5v-10.6c0-1.8-0.8-2.4-1.7-2.4c-1.7,0-2.3,1.4-2.3,3.1v9.8H185v-14.8h2.4
			v2.3C188,2489,189.1,2487.9,190.6,2487.9z"/>
		<path class="st1" d="M203.1,2495.7c0-4.7,2.8-7.8,6.9-7.8c4.2,0,6.9,3.1,6.9,7.8c0,4.7-2.8,7.8-6.9,7.8
			C205.9,2503.5,203.1,2500.3,203.1,2495.7z M214.3,2495.7c0-3.5-1.6-5.6-4.2-5.6c-2.7,0-4.2,2.1-4.2,5.6s1.6,5.6,4.2,5.6
			C212.7,2501.3,214.3,2499.2,214.3,2495.7z"/>
		<path class="st1" d="M232.9,2481.6v21.5h-2.4v-2.8c-0.9,1.9-2.3,3.1-4.7,3.1c-3.7,0-6.1-3.1-6.1-7.8c0-4.7,2.6-7.7,6.5-7.7
			c2,0,3.4,1.1,4.2,2.6v-8.9H232.9z M226.4,2490.1c-2.6,0-4.1,2.1-4.1,5.5c0,3.4,1.5,5.6,4,5.6c2.5,0,4.1-2,4.1-5.2v-0.7
			C230.4,2492.2,228.9,2490.1,226.4,2490.1z"/>
		<path class="st1" d="M250.5,2496.3h-10.4c0,2.8,1.6,4.9,4.3,4.9c2,0,3.2-1.2,3.9-2.6l2.1,1.1c-1.2,2.5-3.3,3.7-6,3.7
			c-4.6,0-6.9-3.2-6.9-8.1c0-4.5,2.6-7.5,6.8-7.5c4.5,0,6.3,3.3,6.3,7.3C250.5,2495.6,250.5,2495.9,250.5,2496.3z M244.2,2489.9
			c-2.7,0-4.1,2.2-4.1,4.4h7.9C248,2491.9,246.8,2489.9,244.2,2489.9z"/>
		<path class="st1" d="M265.5,2488c1.1,0,2,0.1,2.7,0.3v2.3c-0.6-0.1-1.7-0.3-2.8-0.3c-3.6,0-6.4,2.4-6.4,7.3v5.5h-2.5v-14.8h2.5
			v3.9C259.9,2489.8,262.4,2488,265.5,2488z"/>
		<path class="st1" d="M279.8,2487.9c1.2,0,2.6,0.3,3.6,1.3c1,0.9,1.4,2.3,1.4,4.8v9.2h-2.5v-9c0-3.2-1.6-3.9-3.1-3.9
			c-3.3,0-4.2,3.1-4.2,5.2v7.7h-2.5v-14.8h2.4v2.9C275.6,2489.3,277.3,2487.9,279.8,2487.9z"/>
		<path class="st1" d="M290.3,2501h4.7v-10.7h-4.3v-2.1h6.8v12.8h5v2.1h-12.3V2501z M297.8,2485.3h-3.6v-3.6h3.6V2485.3z"/>
		<path class="st1" d="M306.9,2498.5l2.6-0.4c0.4,2.2,1.8,3.3,4,3.3c2,0,3.1-0.8,3.1-2.2c0-1.5-0.8-2.1-2.4-2.3l-2.4-0.3
			c-2.9-0.3-4.3-2-4.3-4.3c0-2.7,2.1-4.4,5.6-4.4c3.4,0,5.7,1.8,6,4.5l-2.5,0.6c-0.3-1.8-1.5-3-3.6-3c-2,0-3.1,0.8-3.1,2.2
			c0,1.3,0.8,2.1,2.7,2.3l2.4,0.3c2.9,0.3,4.1,1.9,4.1,4.2c0,2.8-2.1,4.5-5.7,4.5C309.8,2503.5,307.4,2501.7,306.9,2498.5z"/>
		<path class="st1" d="M327.9,2487.9c1.5,0,2.6,1,3.1,2.7c0.7-1.7,2-2.7,3.5-2.7c1.8,0,3.5,1.3,3.5,4.4v10.8h-2.5v-10.6
			c0-1.9-0.9-2.4-1.7-2.4c-1.7,0-2.4,1.3-2.4,3.1v9.8h-2.5v-10.6c0-1.8-0.8-2.4-1.7-2.4c-1.7,0-2.3,1.4-2.3,3.1v9.8h-2.5v-14.8h2.4
			v2.3C325.2,2489,326.4,2487.9,327.9,2487.9z"/>
		<path class="st1" d="M358.7,2488.3l1.5,10.2l0.3,2.1h0.2c0.1-0.7,0.2-1.2,0.5-2.5l1.9-9.8h2.6l1.9,9.8c0.3,1.3,0.4,1.8,0.5,2.5
			h0.2l0.3-2.1l1.5-10.2h2.6l-2.9,14.8h-3.2l-1.9-9.6c-0.1-0.6-0.2-1.8-0.3-2.4h-0.2c0,0.6-0.1,1.8-0.3,2.4l-1.9,9.6h-3.2l-2.9-14.8
			H358.7z"/>
		<path class="st1" d="M387.7,2503.1H385c-0.1-0.8-0.2-1.8-0.2-2.7c-1,2.1-2.6,3.1-5,3.1c-2.9,0-5-1.8-5-4.4c0-1.5,0.7-2.7,2.1-3.5
			c1-0.5,2.6-0.9,5-1.2l2.7-0.3v-0.3c0-2.6-1-3.8-3.2-3.8c-2.1,0-3.3,1.1-3.5,2.9h-2.7c0.3-3.2,2.6-5,6.3-5c3.8,0,5.5,1.9,5.5,6.2v4
			C387.2,2500.5,387.3,2502,387.7,2503.1z M381.1,2496.4c-2.6,0.4-3.6,1.1-3.6,2.6c0,1.5,1,2.4,2.8,2.4c2.7,0,4.4-1.8,4.4-4.8v-0.8
			L381.1,2496.4z"/>
		<path class="st1" d="M392.7,2498.5l2.6-0.4c0.4,2.2,1.8,3.3,4,3.3c2,0,3.1-0.8,3.1-2.2c0-1.5-0.8-2.1-2.4-2.3l-2.4-0.3
			c-2.9-0.3-4.3-2-4.3-4.3c0-2.7,2.1-4.4,5.6-4.4c3.4,0,5.7,1.8,6,4.5l-2.5,0.6c-0.3-1.8-1.5-3-3.6-3c-2,0-3.1,0.8-3.1,2.2
			c0,1.3,0.8,2.1,2.7,2.3l2.4,0.3c2.9,0.3,4.1,1.9,4.1,4.2c0,2.8-2.1,4.5-5.7,4.5C395.6,2503.5,393.2,2501.7,392.7,2498.5z"/>
		<path class="st1" d="M437,2488c1.1,0,2,0.1,2.7,0.3v2.3c-0.6-0.1-1.7-0.3-2.8-0.3c-3.6,0-6.4,2.4-6.4,7.3v5.5H428v-14.8h2.5v3.9
			C431.5,2489.8,433.9,2488,437,2488z"/>
		<path class="st1" d="M456.4,2496.3H446c0,2.8,1.6,4.9,4.3,4.9c2,0,3.2-1.2,3.9-2.6l2.1,1.1c-1.2,2.5-3.3,3.7-6,3.7
			c-4.6,0-6.9-3.2-6.9-8.1c0-4.5,2.6-7.5,6.8-7.5c4.5,0,6.3,3.3,6.3,7.3C456.4,2495.6,456.4,2495.9,456.4,2496.3z M450,2489.9
			c-2.7,0-4.1,2.2-4.1,4.4h7.9C453.9,2491.9,452.7,2489.9,450,2489.9z"/>
		<path class="st1" d="M471.5,2489.5c0.9,0.8,1.3,2,1.3,3.4c0,3-2.3,5.1-5.6,5.1c-1,0-2-0.2-2.8-0.6c-0.6,0.3-1,0.8-1,1.5
			c0,0.9,0.8,1.5,2.5,1.5h3.8c3.1,0,4.8,1.5,4.8,4c0,3.1-2.7,4.9-7.3,4.9c-4.2,0-6.7-1.4-6.7-3.8c0-1.6,1-2.8,2.6-3.3
			c-1.2-0.5-1.9-1.4-1.9-2.6c0-1.4,0.8-2.4,2.1-2.9c-1-0.9-1.5-2.1-1.5-3.6c0-3,2.2-5.1,5.5-5.1c1.1,0,2,0.2,2.8,0.7
			c0.5-1.8,1.7-2.7,3.6-2.7c0.3,0,0.7,0,0.9,0.1v2.2c-0.4-0.1-0.7-0.1-1.1-0.1C472.6,2488,471.9,2488.5,471.5,2489.5z M465.8,2502.6
			c-0.4,0-0.9,0-1.2-0.1c-1,0.5-1.6,1.2-1.6,2.3c0,1.6,1.5,2.4,4.5,2.4c3.2,0,4.5-0.9,4.5-2.5c0-1.3-1-2.1-2.9-2.1L465.8,2502.6
			L465.8,2502.6z M470.4,2492.9c0-1.8-1.3-3.1-3.1-3.1c-1.8,0-3.1,1.3-3.1,3.1c0,1.8,1.2,3.1,3,3.1
			C469.1,2496,470.4,2494.7,470.4,2492.9z"/>
		<path class="st1" d="M490.6,2503.1H488c-0.1-0.8-0.2-1.8-0.2-2.7c-1,2.1-2.6,3.1-5,3.1c-2.9,0-5-1.8-5-4.4c0-1.5,0.7-2.7,2.1-3.5
			c1-0.5,2.6-0.9,5-1.2l2.7-0.3v-0.3c0-2.6-1-3.8-3.2-3.8c-2.1,0-3.3,1.1-3.5,2.9h-2.7c0.3-3.2,2.6-5,6.3-5c3.8,0,5.5,1.9,5.5,6.2v4
			C490.1,2500.5,490.3,2502,490.6,2503.1z M484.1,2496.4c-2.6,0.4-3.6,1.1-3.6,2.6c0,1.5,1,2.4,2.8,2.4c2.7,0,4.4-1.8,4.4-4.8v-0.8
			L484.1,2496.4z"/>
		<path class="st1" d="M505.6,2488c1.1,0,2,0.1,2.7,0.3v2.3c-0.6-0.1-1.7-0.3-2.8-0.3c-3.6,0-6.4,2.4-6.4,7.3v5.5h-2.5v-14.8h2.5
			v3.9C500.1,2489.8,502.6,2488,505.6,2488z"/>
		<path class="st1" d="M524.5,2481.6v21.5h-2.4v-2.8c-0.9,1.9-2.3,3.1-4.7,3.1c-3.7,0-6.1-3.1-6.1-7.8c0-4.7,2.6-7.7,6.5-7.7
			c2,0,3.4,1.1,4.2,2.6v-8.9H524.5z M518.1,2490.1c-2.6,0-4.1,2.1-4.1,5.5c0,3.4,1.5,5.6,4,5.6c2.5,0,4.1-2,4.1-5.2v-0.7
			C522.1,2492.2,520.5,2490.1,518.1,2490.1z"/>
		<path class="st1" d="M542.1,2496.3h-10.4c0,2.8,1.6,4.9,4.3,4.9c2,0,3.2-1.2,3.9-2.6l2.1,1.1c-1.2,2.5-3.3,3.7-6,3.7
			c-4.6,0-6.9-3.2-6.9-8.1c0-4.5,2.6-7.5,6.8-7.5c4.5,0,6.3,3.3,6.3,7.3C542.2,2495.6,542.2,2495.9,542.1,2496.3z M535.8,2489.9
			c-2.7,0-4.1,2.2-4.1,4.4h7.9C539.6,2491.9,538.5,2489.9,535.8,2489.9z"/>
		<path class="st1" d="M558.9,2481.6v21.5h-2.4v-2.8c-0.9,1.9-2.3,3.1-4.7,3.1c-3.7,0-6.1-3.1-6.1-7.8c0-4.7,2.6-7.7,6.5-7.7
			c2,0,3.4,1.1,4.2,2.6v-8.9H558.9z M552.4,2490.1c-2.6,0-4.1,2.1-4.1,5.5c0,3.4,1.5,5.6,4,5.6c2.5,0,4.1-2,4.1-5.2v-0.7
			C556.4,2492.2,554.8,2490.1,552.4,2490.1z"/>
		<path class="st1" d="M593.5,2503.1h-2.6c-0.1-0.8-0.2-1.8-0.2-2.7c-1,2.1-2.6,3.1-5,3.1c-2.9,0-5-1.8-5-4.4c0-1.5,0.7-2.7,2.1-3.5
			c1-0.5,2.6-0.9,5-1.2l2.7-0.3v-0.3c0-2.6-1-3.8-3.2-3.8c-2.1,0-3.3,1.1-3.5,2.9h-2.7c0.3-3.2,2.6-5,6.3-5c3.8,0,5.5,1.9,5.5,6.2v4
			C593,2500.5,593.2,2502,593.5,2503.1z M587,2496.4c-2.6,0.4-3.6,1.1-3.6,2.6c0,1.5,1,2.4,2.8,2.4c2.7,0,4.4-1.8,4.4-4.8v-0.8
			L587,2496.4z"/>
		<path class="st1" d="M598.5,2498.5l2.6-0.4c0.4,2.2,1.8,3.3,4,3.3c2,0,3.1-0.8,3.1-2.2c0-1.5-0.8-2.1-2.4-2.3l-2.4-0.3
			c-2.9-0.3-4.3-2-4.3-4.3c0-2.7,2.1-4.4,5.6-4.4c3.4,0,5.7,1.8,6,4.5l-2.5,0.6c-0.3-1.8-1.5-3-3.6-3c-2,0-3.1,0.8-3.1,2.2
			c0,1.3,0.8,2.1,2.7,2.3l2.4,0.3c2.9,0.3,4.1,1.9,4.1,4.2c0,2.8-2.1,4.5-5.7,4.5C601.4,2503.5,599.1,2501.7,598.5,2498.5z"/>
		<path class="st1" d="M632.3,2488.3h4.2v-3.9l2.5-1.1v4.9h5.8v2.1h-5.8v7.7c0,2,1,2.9,2.8,2.9c1,0,2-0.1,2.9-0.3v2.3
			c-0.8,0.2-1.6,0.4-2.9,0.4c-3.7,0-5.4-2.1-5.4-5v-8h-4.2L632.3,2488.3L632.3,2488.3z"/>
		<path class="st1" d="M657.1,2487.9c1.2,0,2.6,0.3,3.6,1.3c1,0.9,1.5,2.3,1.5,4.7v9.2h-2.5v-9c0-3.2-1.6-3.9-3.2-3.9
			c-3.2,0-4,3.1-4,5.2v7.7h-2.5v-21.5h2.5v9.4C653.1,2489.2,655,2487.9,657.1,2487.9z"/>
		<path class="st1" d="M679.4,2496.3H669c0,2.8,1.6,4.9,4.4,4.9c2,0,3.2-1.2,3.9-2.6l2.1,1.1c-1.2,2.5-3.3,3.7-6,3.7
			c-4.6,0-6.9-3.2-6.9-8.1c0-4.5,2.6-7.5,6.8-7.5c4.5,0,6.3,3.3,6.3,7.3C679.4,2495.6,679.4,2495.9,679.4,2496.3z M673,2489.9
			c-2.7,0-4.1,2.2-4.1,4.4h7.9C676.9,2491.9,675.7,2489.9,673,2489.9z"/>
		<path class="st1" d="M706.5,2503.5c-1.4,0-2.8-0.3-3.8-1.3c-0.9-0.9-1.4-2.3-1.4-4.7v-9.2h2.6v9.1c0,3.2,1.5,3.9,3.1,3.9
			c3.1,0,3.9-3.1,3.9-5.3v-7.7h2.5v14.8H711v-2.8C710.4,2501.8,708.7,2503.5,706.5,2503.5z"/>
		<path class="st1" d="M719.2,2501h4.7v-17.3h-4.4v-2.1h7v19.4h5v2.1h-12.3V2501z"/>
		<path class="st1" d="M735.3,2488.3h4.2v-3.9l2.5-1.1v4.9h5.8v2.1H742v7.7c0,2,0.9,2.9,2.8,2.9c1,0,2-0.1,2.9-0.3v2.3
			c-0.8,0.2-1.6,0.4-2.9,0.4c-3.7,0-5.4-2.1-5.4-5v-8h-4.2V2488.3z"/>
		<path class="st1" d="M753.5,2501h4.7v-10.7H754v-2.1h6.8v12.8h5v2.1h-12.3V2501z M761,2485.3h-3.6v-3.6h3.6V2485.3z"/>
		<path class="st1" d="M773.9,2487.9c1.5,0,2.6,1,3.1,2.7c0.7-1.7,2-2.7,3.5-2.7c1.8,0,3.5,1.3,3.5,4.4v10.8h-2.5v-10.6
			c0-1.9-0.9-2.4-1.7-2.4c-1.7,0-2.4,1.3-2.4,3.1v9.8h-2.5v-10.6c0-1.8-0.8-2.4-1.7-2.4c-1.7,0-2.3,1.4-2.3,3.1v9.8h-2.5v-14.8h2.4
			v2.3C771.3,2489,772.4,2487.9,773.9,2487.9z"/>
		<path class="st1" d="M799.4,2503.1h-2.6c-0.1-0.8-0.2-1.8-0.2-2.7c-1,2.1-2.6,3.1-5,3.1c-2.9,0-5-1.8-5-4.4c0-1.5,0.7-2.7,2.1-3.5
			c1-0.5,2.6-0.9,5-1.2l2.7-0.3v-0.3c0-2.6-1-3.8-3.2-3.8c-2.1,0-3.3,1.1-3.5,2.9H787c0.3-3.2,2.6-5,6.3-5c3.8,0,5.5,1.9,5.5,6.2v4
			C798.9,2500.5,799,2502,799.4,2503.1z M792.9,2496.4c-2.6,0.4-3.6,1.1-3.6,2.6c0,1.5,1,2.4,2.8,2.4c2.7,0,4.4-1.8,4.4-4.8v-0.8
			L792.9,2496.4z"/>
		<path class="st1" d="M803.9,2488.3h4.2v-3.9l2.5-1.1v4.9h5.8v2.1h-5.8v7.7c0,2,0.9,2.9,2.8,2.9c1,0,2-0.1,2.9-0.3v2.3
			c-0.8,0.2-1.6,0.4-2.9,0.4c-3.7,0-5.4-2.1-5.4-5v-8h-4.2V2488.3z"/>
		<path class="st1" d="M833.8,2496.3h-10.4c0,2.8,1.6,4.9,4.3,4.9c2,0,3.2-1.2,3.9-2.6l2.1,1.1c-1.2,2.5-3.3,3.7-6,3.7
			c-4.6,0-6.9-3.2-6.9-8.1c0-4.5,2.6-7.5,6.8-7.5c4.5,0,6.3,3.3,6.3,7.3C833.8,2495.6,833.8,2495.9,833.8,2496.3z M827.4,2489.9
			c-2.7,0-4.1,2.2-4.1,4.4h7.9C831.3,2491.9,830.1,2489.9,827.4,2489.9z"/>
		<path class="st1" d="M101.4,2528l1.5,10.2l0.3,2.1h0.2c0.1-0.7,0.2-1.2,0.5-2.5l1.9-9.8h2.6l1.9,9.8c0.3,1.3,0.4,1.8,0.5,2.5h0.2
			l0.3-2.1l1.5-10.2h2.6l-2.9,14.8h-3.2l-1.9-9.6c-0.1-0.6-0.2-1.8-0.3-2.4H107c0,0.6-0.1,1.8-0.3,2.4l-1.9,9.6h-3.2l-2.9-14.8
			H101.4z"/>
		<path class="st1" d="M130.4,2542.8h-2.6c-0.1-0.8-0.2-1.8-0.2-2.7c-1,2.1-2.6,3.1-5,3.1c-2.9,0-5-1.8-5-4.3c0-1.5,0.7-2.7,2.1-3.5
			c1-0.5,2.6-0.9,5-1.2l2.7-0.3v-0.3c0-2.7-1-3.8-3.2-3.8c-2.1,0-3.3,1.1-3.5,2.9h-2.7c0.3-3.2,2.6-5,6.3-5c3.8,0,5.5,1.9,5.5,6.2v4
			C129.8,2540.1,130,2541.7,130.4,2542.8z M123.8,2536c-2.6,0.4-3.6,1.1-3.6,2.6c0,1.5,1,2.4,2.8,2.4c2.7,0,4.4-1.8,4.4-4.7v-0.8
			L123.8,2536z"/>
		<path class="st1" d="M141.6,2539.8l4.1-11.9h2.7l-5.9,15.8c-1.4,3.8-3.1,5-5.6,5c-0.4,0-0.9,0-1.4-0.1v-2.2c0.4,0,0.7,0.1,1.1,0.1
			c1.8,0,2.7-0.8,3.4-2.8l0.4-1.1l-5.8-14.6h2.9L141.6,2539.8z"/>
		<path class="st1" d="M169.1,2528h4.2v-3.9l2.5-1.1v4.9h5.8v2h-5.8v7.7c0,2,1,2.9,2.8,2.9c1,0,2-0.1,2.9-0.3v2.3
			c-0.8,0.2-1.6,0.4-2.9,0.4c-3.7,0-5.4-2.1-5.4-5v-8h-4.2L169.1,2528L169.1,2528z"/>
		<path class="st1" d="M186,2535.4c0-4.7,2.8-7.8,6.9-7.8c4.2,0,6.9,3.1,6.9,7.8s-2.8,7.8-6.9,7.8C188.7,2543.1,186,2540,186,2535.4
			z M197.1,2535.4c0-3.5-1.6-5.6-4.2-5.6c-2.7,0-4.2,2.1-4.2,5.6s1.6,5.6,4.2,5.6C195.5,2540.9,197.1,2538.9,197.1,2535.4z"/>
		<path class="st1" d="M232.9,2521.3v21.5h-2.4v-2.8c-0.9,1.9-2.3,3.1-4.7,3.1c-3.7,0-6.1-3.1-6.1-7.8c0-4.6,2.6-7.7,6.5-7.7
			c2,0,3.4,1.1,4.2,2.6v-8.9H232.9z M226.4,2529.8c-2.6,0-4.1,2-4.1,5.5c0,3.4,1.5,5.6,4,5.6c2.5,0,4.1-2,4.1-5.2v-0.7
			C230.4,2531.8,228.9,2529.8,226.4,2529.8z"/>
		<path class="st1" d="M250.5,2536h-10.4c0,2.8,1.6,4.9,4.3,4.9c2,0,3.2-1.2,3.9-2.6l2.1,1.1c-1.2,2.5-3.3,3.7-6,3.7
			c-4.6,0-6.9-3.2-6.9-8.1c0-4.5,2.6-7.5,6.8-7.5c4.5,0,6.3,3.3,6.3,7.3C250.5,2535.2,250.5,2535.6,250.5,2536z M244.2,2529.6
			c-2.7,0-4.1,2.2-4.1,4.4h7.9C248,2531.6,246.8,2529.6,244.2,2529.6z"/>
		<path class="st1" d="M255.4,2538.2l2.6-0.4c0.4,2.2,1.8,3.3,4,3.3c2,0,3.1-0.8,3.1-2.2c0-1.5-0.8-2.1-2.4-2.3l-2.4-0.3
			c-2.9-0.3-4.3-2-4.3-4.3c0-2.7,2.1-4.4,5.6-4.4c3.4,0,5.7,1.8,6,4.5l-2.5,0.6c-0.3-1.8-1.5-3-3.6-3c-2,0-3.1,0.8-3.1,2.2
			c0,1.3,0.8,2.1,2.7,2.3l2.4,0.3c2.9,0.3,4.1,1.9,4.1,4.2c0,2.8-2.1,4.5-5.7,4.5C258.3,2543.1,256,2541.4,255.4,2538.2z"/>
		<path class="st1" d="M273.2,2540.7h4.7V2530h-4.3v-2.1h6.8v12.7h5v2.1h-12.3V2540.7z M280.7,2525h-3.6v-3.6h3.6V2525z"/>
		<path class="st1" d="M299.9,2529.1c0.9,0.9,1.3,2,1.3,3.4c0,3-2.3,5.1-5.6,5.1c-1,0-2-0.2-2.8-0.6c-0.6,0.3-1,0.8-1,1.5
			c0,0.9,0.8,1.5,2.5,1.5h3.8c3.1,0,4.8,1.5,4.8,4c0,3.1-2.7,4.9-7.3,4.9c-4.2,0-6.7-1.4-6.7-3.8c0-1.6,1-2.8,2.6-3.3
			c-1.2-0.5-1.9-1.4-1.9-2.6c0-1.4,0.8-2.4,2.1-2.9c-1-0.9-1.5-2.1-1.5-3.6c0-3,2.2-5.1,5.5-5.1c1.1,0,2,0.2,2.9,0.7
			c0.5-1.8,1.7-2.7,3.6-2.7c0.3,0,0.7,0,1,0.1v2.2c-0.4-0.1-0.7-0.1-1.1-0.1C301,2527.7,300.3,2528.2,299.9,2529.1z M294.3,2542.2
			c-0.4,0-0.9,0-1.2-0.1c-1,0.4-1.6,1.2-1.6,2.3c0,1.6,1.4,2.4,4.5,2.4c3.2,0,4.5-0.9,4.5-2.5c0-1.3-1-2.1-2.9-2.1L294.3,2542.2
			L294.3,2542.2z M298.9,2532.6c0-1.8-1.3-3-3.1-3c-1.8,0-3.1,1.3-3.1,3.1c0,1.8,1.2,3.1,3,3.1
			C297.5,2535.7,298.9,2534.4,298.9,2532.6z"/>
		<path class="st1" d="M314.1,2527.6c1.2,0,2.6,0.3,3.6,1.3c1,0.9,1.4,2.3,1.4,4.7v9.2h-2.5v-9c0-3.2-1.6-3.9-3.1-3.9
			c-3.3,0-4.2,3.1-4.2,5.2v7.7h-2.5V2528h2.4v2.9C310,2529,311.6,2527.6,314.1,2527.6z"/>
		<path class="st1" d="M341.8,2540.7h4.7v-17.3h-4.4v-2.1h7v19.4h5v2.1h-12.3V2540.7z"/>
		<path class="st1" d="M358.9,2540.7h4.7V2530h-4.3v-2.1h6.8v12.7h5v2.1h-12.3V2540.7z M366.5,2525h-3.6v-3.6h3.6V2525z"/>
		<path class="st1" d="M387.8,2530h-5.6v12.8h-2.5V2530h-4.5v-2h4.5v-1.6c0-3.4,1.9-5.1,5.6-5.1c0.9,0,1.6,0.1,2.6,0.3v2.2
			c-0.7-0.1-1.4-0.2-2.6-0.2c-2.3,0-3,0.8-3,3v1.5h5.6L387.8,2530L387.8,2530z"/>
		<path class="st1" d="M404.9,2536h-10.4c0,2.8,1.6,4.9,4.4,4.9c2,0,3.2-1.2,3.9-2.6l2.1,1.1c-1.2,2.5-3.3,3.7-6,3.7
			c-4.6,0-6.9-3.2-6.9-8.1c0-4.5,2.6-7.5,6.8-7.5c4.5,0,6.3,3.3,6.3,7.3C404.9,2535.2,404.9,2535.6,404.9,2536z M398.6,2529.6
			c-2.7,0-4.1,2.2-4.1,4.4h7.9C402.4,2531.6,401.2,2529.6,398.6,2529.6z"/>
		<path class="st1" d="M417.8,2542.8h-3.9v-3.8h3.9V2542.8z"/>
	</g>
</g>
</svg>
