<svg width="1470" height="1874" viewBox="0 0 1470 1874" fill="none" xmlns="http://www.w3.org/2000/svg">
<g id="after flattening">
<g id="comic_seq_4 1">
<path id="Vector" d="M343.559 664.254C367.596 664.254 387.139 683.811 387.139 707.835V1050.76C387.139 1074.8 367.582 1094.35 343.559 1094.35H48.2073C24.17 1094.35 4.62735 1074.79 4.62735 1050.76V707.849C4.62735 683.811 24.1841 664.268 48.2073 664.268H343.559V664.254ZM343.559 660.027H48.2073C21.8029 660.027 0.400391 681.43 0.400391 707.835V1050.76C0.400391 1077.17 21.8029 1098.57 48.2073 1098.57H343.559C369.963 1098.57 391.366 1077.17 391.366 1050.76V707.849C391.366 681.444 369.963 660.027 343.559 660.027Z" fill="#00BFFF"/>
<path id="Vector_2" d="M760.152 664.254C784.19 664.254 803.732 683.811 803.732 707.835V1050.76C803.732 1074.8 784.176 1094.35 760.152 1094.35H464.801C440.764 1094.35 421.221 1074.79 421.221 1050.76V707.849C421.221 683.811 440.778 664.268 464.801 664.268H760.152V664.254ZM760.152 660.027H464.801C438.397 660.027 416.994 681.43 416.994 707.835V1050.76C416.994 1077.17 438.397 1098.57 464.801 1098.57H760.152C786.557 1098.57 807.959 1077.17 807.959 1050.76V707.849C807.959 681.444 786.557 660.027 760.152 660.027Z" fill="#00BFFF"/>
<path id="Vector_3" d="M879.156 867.393C853.964 867.393 833.463 846.892 833.463 821.699V707.849C833.463 682.656 853.964 662.154 879.156 662.154H1421.54C1446.74 662.154 1467.24 682.656 1467.24 707.849V821.699C1467.24 846.892 1446.74 867.393 1421.54 867.393H879.156Z" fill="white"/>
<path id="Vector_4" d="M1421.54 664.254C1445.58 664.254 1465.12 683.811 1465.12 707.835V821.685C1465.12 845.723 1445.57 865.266 1421.54 865.266H879.156C855.119 865.266 835.577 845.709 835.577 821.685V707.835C835.577 683.797 855.133 664.254 879.156 664.254H1421.54ZM1421.54 660.027H879.156C852.752 660.027 831.35 681.43 831.35 707.835V821.685C831.35 848.09 852.752 869.493 879.156 869.493H1421.54C1447.95 869.493 1469.35 848.09 1469.35 821.685V707.835C1469.37 681.444 1447.95 660.027 1421.54 660.027Z" fill="#00BFFF"/>
<path id="Vector_5" d="M879.156 1096.47C853.964 1096.47 833.463 1075.97 833.463 1050.78V936.929C833.463 911.735 853.964 891.234 879.156 891.234H1421.54C1446.74 891.234 1467.24 911.735 1467.24 936.929V1050.78C1467.24 1075.97 1446.74 1096.47 1421.54 1096.47H879.156Z" fill="white"/>
<path id="Vector_6" d="M1421.54 893.334C1445.58 893.334 1465.12 912.891 1465.12 936.915V1050.76C1465.12 1074.8 1445.57 1094.35 1421.54 1094.35H879.156C855.119 1094.35 835.577 1074.79 835.577 1050.76V936.915C835.577 912.877 855.133 893.334 879.156 893.334H1421.54ZM1421.54 889.106H879.156C852.752 889.106 831.35 910.51 831.35 936.915V1050.76C831.35 1077.17 852.752 1098.57 879.156 1098.57H1421.54C1447.95 1098.57 1469.35 1077.17 1469.35 1050.76V936.915C1469.37 910.524 1447.95 889.106 1421.54 889.106Z" fill="#00BFFF"/>
<path id="Vector_7" d="M833.787 772.087H985.38" stroke="#00BFFF" stroke-width="3" stroke-miterlimit="10" stroke-linecap="round"/>
<path id="Vector_8" d="M993.24 772.087H1011.2" stroke="#00BFFF" stroke-width="3" stroke-miterlimit="10" stroke-linecap="round"/>
<path id="Vector_9" d="M1026.37 772.369H1268.36" stroke="#00BFFF" stroke-width="3" stroke-miterlimit="10" stroke-linecap="round"/>
<path id="Vector_10" d="M1277.9 772.369H1304.29" stroke="#00BFFF" stroke-width="3" stroke-miterlimit="10" stroke-linecap="round"/>
<path id="Vector_11" d="M1329.55 772.369H1342.47" stroke="#00BFFF" stroke-width="3" stroke-miterlimit="10" stroke-linecap="round"/>
<path id="Vector_12" d="M1356.51 772.369H1467.11" stroke="#00BFFF" stroke-width="3" stroke-miterlimit="10" stroke-linecap="round"/>
<path id="Vector_13" d="M834.914 996.728H932.43L948.041 962.151L962.512 1028.4L978.081 936.323L995.327 1060.39L1013.14 954.288L1028.16 1033.31L1037.06 977.861L1042.63 993.854H1236.19L1247.35 962.151L1262.92 1029.52L1277.39 936.323L1297.1 1060.39L1316.34 952.034L1334.96 1023.8L1345.26 976.748L1355.28 1007.7L1359.45 993.854H1464.87" stroke="#00BFFF" stroke-width="3" stroke-miterlimit="10" stroke-linecap="round" stroke-linejoin="round"/>
<path id="Vector_14" d="M1421.54 1130.88C1445.58 1130.88 1465.12 1150.44 1465.12 1174.46V1437.06C1465.12 1461.1 1445.57 1480.64 1421.54 1480.64H49.5178C25.4805 1480.64 5.93789 1461.09 5.93789 1437.06V1174.46C5.93789 1150.42 25.4946 1130.88 49.5178 1130.88H1421.54ZM1421.54 1126.65H49.5178C23.1134 1126.65 1.71094 1148.06 1.71094 1174.46V1437.06C1.71094 1463.47 23.1134 1484.87 49.5178 1484.87H1421.54C1447.95 1484.87 1469.35 1463.47 1469.35 1437.06V1174.46C1469.37 1148.06 1447.95 1126.65 1421.54 1126.65Z" fill="#00BFFF"/>
<path id="Vector_15" d="M1329.55 1126.65V1484.87" stroke="#00BFFF" stroke-width="3" stroke-miterlimit="10"/>
<path id="Vector_16" d="M148.26 1126.65V1484.87" stroke="#00BFFF" stroke-width="3" stroke-miterlimit="10"/>
<path id="Vector_17" d="M1329.55 1142.94C1399.95 1142.94 1457.01 1216.34 1457.01 1306.9C1457.01 1397.45 1399.95 1470.85 1329.55 1470.85" stroke="#00BFFF" stroke-width="3" stroke-miterlimit="10"/>
<path id="Vector_18" d="M148.808 1470.84C78.4154 1470.84 21.3516 1397.44 21.3516 1306.88C21.3516 1216.32 78.4154 1142.93 148.808 1142.93" stroke="#00BFFF" stroke-width="3" stroke-miterlimit="10"/>
<path id="Vector_19" d="M1354.27 1366.4C1372.23 1366.4 1386.83 1356.3 1386.83 1331.58C1386.83 1313.62 1372.23 1297.89 1353.14 1297.89V1196.82C1353.14 1190.43 1359.28 1187.16 1365.54 1188.48C1389.07 1193.47 1432.86 1229.4 1432.86 1310.25" stroke="#00BFFF" stroke-width="3" stroke-miterlimit="10" stroke-linecap="round" stroke-linejoin="round"/>
<path id="Vector_20" d="M123.546 1366.4C105.582 1366.4 90.9846 1356.3 90.9846 1331.58C90.9846 1313.62 105.582 1297.89 124.673 1297.89V1196.82C124.673 1190.43 118.53 1187.16 112.274 1188.48C88.7443 1193.47 44.9531 1229.4 44.9531 1310.25" stroke="#00BFFF" stroke-width="3" stroke-miterlimit="10" stroke-linecap="round" stroke-linejoin="round"/>
<path id="Vector_21" d="M813.582 1329.98V1484.87" stroke="#00BFFF" stroke-width="3" stroke-miterlimit="10" stroke-linecap="round" stroke-linejoin="round"/>
<path id="Vector_22" d="M895.74 1305.77C917.509 1353.72 976.743 1394.52 1044.33 1394.48C1110.57 1394.44 1167.1 1353.17 1182.45 1320.37" stroke="#00BFFF" stroke-width="3" stroke-miterlimit="10" stroke-linecap="round" stroke-linejoin="round"/>
<path id="Vector_23" d="M1190.32 1196.84C1172.35 1183.37 1101.45 1163.15 1033.86 1163.15C985.943 1163.15 920.82 1169.88 886.004 1208.07" stroke="#00BFFF" stroke-width="3" stroke-miterlimit="10" stroke-linecap="round" stroke-linejoin="round"/>
<path id="Vector_24" d="M582.072 1305.77C560.303 1353.72 501.055 1394.52 433.48 1394.48C367.244 1394.44 310.715 1353.17 295.357 1320.37" stroke="#00BFFF" stroke-width="3" stroke-miterlimit="10" stroke-linecap="round" stroke-linejoin="round"/>
<path id="Vector_25" d="M287.496 1196.84C305.461 1183.37 376.361 1163.15 443.95 1163.15C491.869 1163.15 556.993 1169.88 591.809 1208.07" stroke="#00BFFF" stroke-width="3" stroke-miterlimit="10" stroke-linecap="round" stroke-linejoin="round"/>
<path id="Vector_26" d="M1421.54 1518.29C1445.58 1518.29 1465.12 1537.85 1465.12 1561.87V1824.48C1465.12 1848.51 1445.57 1868.06 1421.54 1868.06H49.5178C25.4805 1868.06 5.93789 1848.5 5.93789 1824.48V1561.89C5.93789 1537.85 25.4946 1518.31 49.5178 1518.31H1421.54V1518.29ZM1421.54 1514.07H49.5178C23.1134 1514.07 1.71094 1535.47 1.71094 1561.87V1824.48C1.71094 1850.88 23.1134 1872.28 49.5178 1872.28H1421.54C1447.95 1872.28 1469.35 1850.88 1469.35 1824.48V1561.89C1469.37 1535.48 1447.95 1514.07 1421.54 1514.07Z" fill="#00BFFF"/>
<path id="Vector_27" d="M1329.55 1514.07V1872.3" stroke="#00BFFF" stroke-width="3" stroke-miterlimit="10"/>
<path id="Vector_28" d="M148.26 1514.07V1872.3" stroke="#00BFFF" stroke-width="3" stroke-miterlimit="10"/>
<path id="Vector_29" d="M1329.55 1530.35C1399.94 1530.35 1457.01 1603.75 1457.01 1694.31C1457.01 1784.85 1399.94 1858.26 1329.55 1858.26" stroke="#00BFFF" stroke-width="3" stroke-miterlimit="10"/>
<path id="Vector_30" d="M148.808 1858.26C78.4154 1858.26 21.3516 1784.87 21.3516 1694.31C21.3516 1603.77 78.4154 1530.35 148.808 1530.35" stroke="#00BFFF" stroke-width="3" stroke-miterlimit="10"/>
<path id="Vector_31" d="M1354.27 1753.83C1372.23 1753.83 1386.83 1743.72 1386.83 1719.01C1386.83 1701.04 1372.23 1685.32 1353.14 1685.32V1584.25C1353.14 1577.85 1359.28 1574.58 1365.54 1575.91C1389.07 1580.9 1432.86 1616.83 1432.86 1697.68" stroke="#00BFFF" stroke-width="3" stroke-miterlimit="10" stroke-linecap="round" stroke-linejoin="round"/>
<path id="Vector_32" d="M123.546 1753.83C105.582 1753.83 90.9846 1743.72 90.9846 1719.01C90.9846 1701.04 105.582 1685.32 124.673 1685.32V1584.25C124.673 1577.85 118.53 1574.58 112.274 1575.91C88.7443 1580.9 44.9531 1616.83 44.9531 1697.68" stroke="#00BFFF" stroke-width="3" stroke-miterlimit="10" stroke-linecap="round" stroke-linejoin="round"/>
<path id="Vector_33" d="M813.582 1717.4V1872.3" stroke="#00BFFF" stroke-width="3" stroke-miterlimit="10" stroke-linecap="round" stroke-linejoin="round"/>
<path id="Vector_34" d="M1190.32 1584.26C1172.35 1570.79 1101.45 1550.57 1033.86 1550.57C985.943 1550.57 920.82 1557.31 886.004 1595.49" stroke="#00BFFF" stroke-width="3" stroke-miterlimit="10" stroke-linecap="round" stroke-linejoin="round"/>
<path id="Vector_35" d="M287.494 1584.26C305.459 1570.79 376.359 1550.57 443.948 1550.57C491.867 1550.57 556.991 1557.31 591.807 1595.49" stroke="#00BFFF" stroke-width="3" stroke-miterlimit="10" stroke-linecap="round" stroke-linejoin="round"/>
<path id="Vector_36" d="M1184.71 1708.91C1177.97 1699.92 1135.3 1630.3 1029.75 1630.3C910.718 1630.3 892.753 1710.02 881.524 1710.32C870.294 1710.61 861.305 1714.52 861.305 1725.75C861.305 1735.85 870.294 1741.47 881.524 1741.47C881.524 1741.47 874.465 1728.14 881.918 1717.4" stroke="#00BFFF" stroke-width="3" stroke-miterlimit="10" stroke-linecap="round" stroke-linejoin="round"/>
<path id="Vector_37" d="M911.83 1779.65C925.3 1793.12 969.105 1826.07 1027.49 1825.88C1085.88 1825.7 1130.24 1803.24 1150.72 1779.65" stroke="#00BFFF" stroke-width="3" stroke-miterlimit="10" stroke-linecap="round" stroke-linejoin="round"/>
<path id="Vector_38" d="M1104.97 1690.94C1104.97 1734.35 1069.78 1769.55 1026.37 1769.55C982.956 1769.55 947.76 1734.35 947.76 1690.94C947.76 1671.26 955.002 1653.26 966.95 1639.47C988.184 1633.66 1006.01 1630.3 1029.73 1630.3C1051.45 1630.3 1065.66 1632.54 1081.95 1636.48C1098.24 1648.26 1104.97 1669.23 1104.97 1690.94Z" fill="#00BFFF" stroke="#00BFFF" stroke-width="3" stroke-miterlimit="10" stroke-linecap="round" stroke-linejoin="round"/>
<path id="Vector_39" d="M293.104 1708.91C299.838 1699.92 342.517 1630.3 448.064 1630.3C567.095 1630.3 585.059 1710.02 596.289 1710.32C607.518 1710.61 616.508 1714.52 616.508 1725.75C616.508 1735.85 607.518 1741.47 596.289 1741.47C596.289 1741.47 603.348 1728.14 595.894 1717.4" stroke="#00BFFF" stroke-width="3" stroke-miterlimit="10" stroke-linecap="round" stroke-linejoin="round"/>
<path id="Vector_40" d="M565.981 1779.65C552.511 1793.12 508.706 1826.07 450.318 1825.88C391.929 1825.7 347.575 1803.24 327.088 1779.65" stroke="#00BFFF" stroke-width="3" stroke-miterlimit="10" stroke-linecap="round" stroke-linejoin="round"/>
<path id="Vector_41" d="M372.838 1690.94C372.838 1734.35 408.034 1769.55 451.445 1769.55C494.856 1769.55 530.052 1734.35 530.052 1690.94C530.052 1671.26 522.81 1653.26 510.862 1639.47C489.629 1633.66 471.805 1630.3 448.078 1630.3C426.365 1630.3 412.149 1632.54 395.861 1636.48C379.573 1648.26 372.838 1669.23 372.838 1690.94Z" fill="#00BFFF" stroke="#00BFFF" stroke-width="3" stroke-miterlimit="10" stroke-linecap="round" stroke-linejoin="round"/>
<path id="Vector_42" d="M981.448 1698.79C996.949 1698.79 1009.51 1686.22 1009.51 1670.72C1009.51 1655.22 996.949 1642.65 981.448 1642.65C965.947 1642.65 953.381 1655.22 953.381 1670.72C953.381 1686.22 965.947 1698.79 981.448 1698.79Z" fill="white" stroke="#00BFFF" stroke-width="3" stroke-miterlimit="10" stroke-linecap="round" stroke-linejoin="round"/>
<path id="Vector_43" d="M404.272 1698.79C419.773 1698.79 432.339 1686.22 432.339 1670.72C432.339 1655.22 419.773 1642.65 404.272 1642.65C388.771 1642.65 376.205 1655.22 376.205 1670.72C376.205 1686.22 388.771 1698.79 404.272 1698.79Z" fill="white" stroke="#00BFFF" stroke-width="3" stroke-miterlimit="10" stroke-linecap="round" stroke-linejoin="round"/>
<path id="Vector_44" d="M1.71094 1049.13H269.066C269.066 1049.13 294.794 1048.06 294.794 1026.71C294.794 1002.58 275.139 1002.58 275.139 1002.58" stroke="#00BFFF" stroke-width="3" stroke-miterlimit="10" stroke-linecap="round" stroke-linejoin="round"/>
<path id="Vector_45" d="M274.18 1002.22C274.18 1002.22 299.908 1001.15 299.908 979.806C299.908 955.669 280.252 955.669 280.252 955.669" stroke="#00BFFF" stroke-width="3" stroke-miterlimit="10" stroke-linecap="round" stroke-linejoin="round"/>
<path id="Vector_46" d="M274.181 956.19C274.181 956.19 299.909 955.119 299.909 933.772C299.909 909.636 280.254 909.636 280.254 909.636L230.221 909.368" stroke="#00BFFF" stroke-width="3" stroke-miterlimit="10" stroke-linecap="round" stroke-linejoin="round"/>
<path id="Vector_47" d="M176.143 932.913H248.198" stroke="#00BFFF" stroke-width="3" stroke-miterlimit="10" stroke-linecap="round" stroke-linejoin="round"/>
<path id="Vector_48" d="M189.486 909.636H165.167C165.167 909.636 148.245 910.03 148.245 927.671C148.245 945.312 148.245 945.312 148.245 945.312H1.71094" stroke="#00BFFF" stroke-width="3" stroke-miterlimit="10" stroke-linecap="round" stroke-linejoin="round"/>
<path id="Vector_49" d="M190.613 932.913V876.242" stroke="#00BFFF" stroke-width="3" stroke-miterlimit="10" stroke-linecap="round" stroke-linejoin="round"/>
<path id="Vector_50" d="M229.91 932.913V876.242" stroke="#00BFFF" stroke-width="3" stroke-miterlimit="10" stroke-linecap="round" stroke-linejoin="round"/>
<path id="Vector_51" d="M234.714 789.263C248.832 797.689 258.3 813.117 258.3 830.759C258.3 857.431 236.686 879.046 210.014 879.046C183.342 879.046 161.729 857.431 161.729 830.759C161.729 814.329 169.929 799.816 182.469 791.094" stroke="#00BFFF" stroke-width="3" stroke-miterlimit="10" stroke-linecap="round" stroke-linejoin="round"/>
<path id="Vector_52" d="M182.723 791.461V840.974L208.718 855.98L234.714 840.974V790.333" stroke="#00BFFF" stroke-width="3" stroke-miterlimit="10" stroke-linecap="round" stroke-linejoin="round"/>
<path id="Vector_53" d="M229.106 836.944V813.413L208.718 801.648L188.344 813.413V836.944L208.718 848.709L229.106 836.944Z" stroke="#00BFFF" stroke-width="3" stroke-miterlimit="10" stroke-linecap="round" stroke-linejoin="round"/>
<path id="Vector_54" d="M208.324 835.239C213.592 835.239 217.863 830.969 217.863 825.7C217.863 820.432 213.592 816.161 208.324 816.161C203.056 816.161 198.785 820.432 198.785 825.7C198.785 830.969 203.056 835.239 208.324 835.239Z" stroke="#00BFFF" stroke-width="3" stroke-miterlimit="10" stroke-linecap="round" stroke-linejoin="round"/>
<path id="Vector_55" d="M185.766 890.036C158.728 880.863 139.27 855.276 139.27 825.151C139.27 787.318 169.943 756.658 207.76 756.658C245.577 756.658 276.251 787.332 276.251 825.151C276.251 853.416 259.132 877.679 234.7 888.148" stroke="#00BFFF" stroke-width="3" stroke-miterlimit="10" stroke-linecap="round" stroke-linejoin="round"/>
<path id="Vector_56" d="M185.626 897.067C154.882 887.613 132.521 858.981 132.521 825.137C132.521 783.584 166.21 749.895 207.761 749.895C249.312 749.895 283.001 783.584 283.001 825.137C283.001 857.192 262.951 884.569 234.715 895.405" stroke="#00BFFF" stroke-width="3" stroke-miterlimit="10" stroke-linecap="round" stroke-linejoin="round"/>
<path id="Vector_57" d="M317.351 1098.59V824.855C317.351 764.436 268.375 715.472 207.971 715.472C147.554 715.472 98.5918 764.45 98.5918 824.855V945.299" stroke="#00BFFF" stroke-width="3" stroke-miterlimit="10" stroke-linecap="round" stroke-linejoin="round"/>
<path id="Vector_58" d="M98.5918 1049.13V1098.59" stroke="#00BFFF" stroke-width="3" stroke-miterlimit="10" stroke-linecap="round" stroke-linejoin="round"/>
<path id="Vector_59" d="M807.96 928.39L777.582 1025.85L724.168 955.669L734.975 1035.22L672.219 1025.85L715.319 1065.46L663.666 1095.77" stroke="#00BFFF" stroke-width="3" stroke-miterlimit="10" stroke-linecap="round" stroke-linejoin="round"/>
<path id="Vector_60" d="M749.008 907.114L762.492 955.401" stroke="#00BFFF" stroke-width="3" stroke-miterlimit="10" stroke-linecap="round" stroke-linejoin="round"/>
<path id="Vector_61" d="M636.727 963.264L677.15 998.081" stroke="#00BFFF" stroke-width="3" stroke-miterlimit="10" stroke-linecap="round" stroke-linejoin="round"/>
<path id="Vector_62" d="M609.771 1069.94L656.93 1072.2" stroke="#00BFFF" stroke-width="3" stroke-miterlimit="10" stroke-linecap="round" stroke-linejoin="round"/>
<path id="Vector_63" d="M614.267 780.231C629.991 790.334 627.737 795.956 627.737 795.956L582.226 896.631C582.226 896.631 578.281 903.084 549.143 906.001C526.684 908.241 508.72 899.266 498.617 886.908L540.168 793.701C540.168 793.701 563.755 806.058 594.062 804.931C624.383 803.804 626.624 797.069 626.624 797.069" stroke="#00BFFF" stroke-width="3" stroke-miterlimit="10" stroke-linecap="round" stroke-linejoin="round"/>
<path id="Vector_64" d="M543.521 838.621L597.415 839.748L605.277 822.896L551.384 820.656L543.521 838.621Z" stroke="#00BFFF" stroke-width="3" stroke-miterlimit="10" stroke-linecap="round" stroke-linejoin="round"/>
<path id="Vector_65" d="M510.623 853.726C488.741 841.848 473.891 818.655 473.891 792.01C473.891 753.248 505.311 721.827 544.072 721.827C582.833 721.827 614.254 753.248 614.254 792.01C614.254 795.73 613.958 799.38 613.408 802.944" stroke="#00BFFF" stroke-width="3" stroke-miterlimit="10" stroke-linecap="round" stroke-linejoin="round"/>
<path id="Vector_66" d="M419.234 903.521H460.391L496.151 843.285" stroke="#00BFFF" stroke-width="3" stroke-miterlimit="10" stroke-linecap="round" stroke-linejoin="round"/>
<path id="Vector_67" d="M563.219 903.521H612.716C637.134 903.521 656.93 923.318 656.93 947.736V1012.09H731.832" stroke="#00BFFF" stroke-width="3" stroke-miterlimit="10" stroke-linecap="round" stroke-linejoin="round"/>
</g>
<g id="comic_seq_3 1">
<g id="Group">
<path id="Vector_68" d="M1200.59 5.10423C1224.38 5.10423 1243.71 26.9577 1243.71 53.8022V486.306C1243.71 513.166 1224.36 535.004 1200.59 535.004H222.409C198.625 535.004 179.288 513.15 179.288 486.306V53.8022C179.288 26.942 198.639 5.10423 222.409 5.10423H1200.59ZM1200.59 0.380859H222.409C196.282 0.380859 175.105 24.2969 175.105 53.8022V486.306C175.105 515.811 196.282 539.727 222.409 539.727H1200.59C1226.72 539.727 1247.9 515.811 1247.9 486.306V53.8022C1247.9 24.2969 1226.72 0.380859 1200.59 0.380859Z" fill="#00BFFF"/>
</g>
<path id="Vector_69" d="M490.459 112.624C492.606 122.653 492.313 135.249 489.065 148.175C482.387 174.784 465.727 192.764 451.855 188.324C437.984 183.884 432.142 158.708 438.82 132.1C444.968 107.585 460.081 91.321 469.366 91.321" stroke="#00BFFF" stroke-width="3" stroke-miterlimit="10" stroke-linecap="round" stroke-linejoin="round"/>
<path id="Vector_70" d="M469.701 91.4316C478.219 89.2745 480.813 86.8341 483.434 77.34C483.434 77.34 484.73 69.0425 490.097 71.0736C493.429 72.3331 493.471 76.3166 492.314 79.8592C490.767 84.6141 490.571 88.6919 482.262 95.7299" stroke="#00BFFF" stroke-width="3" stroke-miterlimit="10" stroke-linecap="round" stroke-linejoin="round"/>
<path id="Vector_71" d="M483.418 94.9112C486.75 92.4078 490.082 87.3852 491.197 83.6223C491.197 83.6223 493.595 75.325 498.977 77.356C502.309 78.6156 502.002 82.4888 501.193 86.1415C500.078 91.164 497.805 96.9894 488.967 103.712" stroke="#00BFFF" stroke-width="3" stroke-miterlimit="10" stroke-linecap="round" stroke-linejoin="round"/>
<path id="Vector_72" d="M488.48 103.791C493.43 101.178 496.762 96.1553 498.588 92.5026C498.588 92.5026 500.512 85.7324 505.712 88.2673C508.932 89.8417 508.333 93.6834 507.246 97.2417C505.754 102.138 500.526 109.145 491.213 114.97" stroke="#00BFFF" stroke-width="3" stroke-miterlimit="10" stroke-linecap="round" stroke-linejoin="round"/>
<path id="Vector_73" d="M451.855 188.324L442.305 219.121H416.736C387.111 219.121 367.231 253.538 379.248 284.13C390.527 312.864 409.724 346.006 442.305 372.205C515.637 431.184 553.418 422.398 553.418 422.398C553.418 422.398 566.621 422.949 571.472 414.353C578.973 401.064 561.128 394.798 561.128 394.798" stroke="#00BFFF" stroke-width="3" stroke-miterlimit="10" stroke-linecap="round" stroke-linejoin="round"/>
<path id="Vector_74" d="M460.666 188.324L476.81 219.121H512.361C537.79 219.121 561.17 235.054 572.88 260.544C583.336 283.295 598.784 310.848 618.971 330.797C645.641 357.153 666.748 363.419 666.748 363.419C666.748 363.419 693.418 369.686 677.859 388.516C668.212 400.199 644.776 388.516 644.776 388.516" stroke="#00BFFF" stroke-width="3" stroke-miterlimit="10" stroke-linecap="round" stroke-linejoin="round"/>
<path id="Vector_75" d="M413.113 270.054C456.764 345.864 533.567 419.58 737.446 422.87C942.287 426.177 1108.97 314.501 1183.4 166.423" stroke="#00BFFF" stroke-width="3" stroke-miterlimit="10" stroke-linecap="round" stroke-linejoin="round"/>
<path id="Vector_76" d="M548.484 270.054C574.527 322.026 645.907 422.87 737.432 422.87C738.882 422.87 740.332 422.855 741.768 422.808C831.857 419.926 921.905 327.695 967.842 211.61H963.283C949.704 211.61 940.628 195.786 946.191 181.79L947.32 178.924C950.345 171.319 957.037 166.423 964.412 166.423H1054.04C1054.04 166.423 965.806 407.645 746.731 422.398" stroke="#00BFFF" stroke-width="3" stroke-miterlimit="10" stroke-linecap="round" stroke-linejoin="round"/>
<path id="Vector_77" d="M737.863 422.399C993.409 417.376 1083.41 209.091 1083.41 209.091H1082.98C1068.54 209.091 1059.45 191.535 1066.5 177.318C1069.85 170.595 1076.15 166.423 1082.98 166.423H1182.93" stroke="#00BFFF" stroke-width="3" stroke-miterlimit="10" stroke-linecap="round" stroke-linejoin="round"/>
<path id="Vector_78" d="M242.971 452.376H1182.91" stroke="#00BFFF" stroke-width="3" stroke-miterlimit="10" stroke-linecap="round" stroke-linejoin="round"/>
<path id="Vector_79" d="M336.365 270.054C348.982 320.767 380.936 376.708 436.06 403.316" stroke="#00BFFF" stroke-width="3" stroke-miterlimit="10" stroke-linecap="round" stroke-linejoin="round" stroke-dasharray="16 16"/>
<path id="Vector_80" d="M330.273 312.217C337.453 339.219 354.225 373.511 383.808 389.665" stroke="#00BFFF" stroke-width="3" stroke-miterlimit="10" stroke-linecap="round" stroke-linejoin="round" stroke-dasharray="16 16"/>
<path id="Vector_81" d="M1004.94 389.681C1050.46 378.172 1101.64 345.14 1128.13 284.397" stroke="#00BFFF" stroke-width="3" stroke-miterlimit="10" stroke-linecap="round" stroke-linejoin="round" stroke-dasharray="16 16"/>
<path id="Vector_82" d="M1041.88 398.813C1066.14 392.169 1097.37 375.086 1113.23 342.59" stroke="#00BFFF" stroke-width="3" stroke-miterlimit="10" stroke-linecap="round" stroke-linejoin="round" stroke-dasharray="16 16"/>
<path id="Vector_83" d="M606.771 257.505C613.422 284.381 625.648 300.693 642.308 310.722" stroke="#00BFFF" stroke-width="3" stroke-miterlimit="10" stroke-linecap="round" stroke-linejoin="round" stroke-dasharray="16 16"/>
<path id="Vector_84" d="M819.588 360.791C842.047 349.171 854.414 332.985 860.59 312.832" stroke="#00BFFF" stroke-width="3" stroke-miterlimit="10" stroke-linecap="round" stroke-linejoin="round" stroke-dasharray="16 16"/>
</g>
</g>
</svg>
