<?xml version="1.0" encoding="utf-8"?>
<!-- Generator: Adobe Illustrator 25.2.3, SVG Export Plug-In . SVG Version: 6.00 Build 0)  -->
<svg version="1.1" id="Camada_1" xmlns="http://www.w3.org/2000/svg" xmlns:xlink="http://www.w3.org/1999/xlink" x="0px" y="0px"
	 viewBox="0 0 2107 797.5" style="enable-background:new 0 0 2107 797.5;" xml:space="preserve">
<style type="text/css">
	.st0{fill:#D5F5FF;stroke:#00BDFF;stroke-width:3;stroke-linecap:round;stroke-linejoin:round;stroke-miterlimit:10;}
	.st1{fill:#00BDFF;}
	.st2{fill:#FFFFFF;stroke:#00BDFF;stroke-width:3;stroke-linecap:round;stroke-linejoin:round;stroke-miterlimit:10;}
	.st3{fill:none;stroke:#00BDFF;stroke-width:3;stroke-linecap:round;stroke-linejoin:round;stroke-miterlimit:10;}
	.st4{fill:none;stroke:#00BDFF;stroke-width:3;stroke-linecap:round;stroke-miterlimit:10;}
</style>
<path class="st0" d="M1950.4,174.9h-504.7c-18.7,0-33.9-15.2-33.9-33.9V87.5c0-18.7,15.2-33.9,33.9-33.9h504.7
	c18.7,0,33.9,15.2,33.9,33.9v53.4C1984.4,159.7,1969.2,174.9,1950.4,174.9z"/>
<g>
	<g>
		<path class="st1" d="M1436,77.4h2.9l0.7,15.7c0.1,2.3,0.1,3.5,0.1,4h0.3c0-0.7,0.2-2,0.6-4.2l2.2-10h2.7l2.2,10
			c0.5,2.2,0.6,3.5,0.6,4.2h0.3c0-0.5,0-1.6,0.1-4l0.7-15.7h2.9l-1.7,22.1h-3.8l-2-9.5c-0.4-2-0.5-3.1-0.6-4.4h-0.3
			c-0.1,1.3-0.2,2.5-0.6,4.4l-2,9.5h-3.8L1436,77.4z"/>
		<path class="st1" d="M1462.7,83.5c1.2,0,2.7,0.3,3.8,1.4c1,1,1.5,2.4,1.5,5v9.6h-2.7V90c0-3.4-1.7-4.1-3.4-4.1
			c-3.4,0-4.2,3.3-4.2,5.5v8.1h-2.6V76.9h2.6v9.9C1458.6,84.9,1460.5,83.5,1462.7,83.5z"/>
		<path class="st1" d="M1485.6,92.4h-10.9c0,2.9,1.7,5.1,4.6,5.1c2.1,0,3.3-1.3,4.1-2.8l2.2,1.2c-1.3,2.6-3.4,3.9-6.4,3.9
			c-4.9,0-7.3-3.4-7.3-8.5c0-4.8,2.7-7.9,7.1-7.9c4.8,0,6.6,3.4,6.6,7.7C1485.6,91.6,1485.6,92,1485.6,92.4z M1478.9,85.6
			c-2.8,0-4.3,2.3-4.3,4.6h8.3C1483,87.7,1481.7,85.6,1478.9,85.6z"/>
		<path class="st1" d="M1500.7,83.6c1.1,0,2.2,0.1,2.8,0.3v2.5c-0.6-0.2-1.8-0.3-2.9-0.3c-3.7,0-6.7,2.6-6.7,7.6v5.8h-2.6V83.9h2.6
			V88C1494.9,85.5,1497.5,83.6,1500.7,83.6z"/>
		<path class="st1" d="M1520.5,92.4h-10.9c0,2.9,1.7,5.1,4.6,5.1c2.1,0,3.3-1.3,4.1-2.8l2.2,1.2c-1.3,2.6-3.4,3.9-6.4,3.9
			c-4.9,0-7.3-3.4-7.3-8.5c0-4.8,2.7-7.9,7.1-7.9c4.8,0,6.6,3.4,6.6,7.7C1520.6,91.6,1520.5,92,1520.5,92.4z M1513.8,85.6
			c-2.8,0-4.3,2.3-4.3,4.6h8.3C1517.9,87.7,1516.6,85.6,1513.8,85.6z"/>
		<path class="st1" d="M1542.9,83.9l1.6,10.7l0.3,2.2h0.2c0.1-0.7,0.2-1.2,0.5-2.6l2-10.3h2.7l2,10.3c0.3,1.4,0.4,1.9,0.5,2.6h0.2
			l0.3-2.2l1.6-10.7h2.8l-3,15.6h-3.3l-2-10.1c-0.1-0.6-0.2-1.9-0.3-2.6h-0.2c0,0.6-0.2,1.9-0.3,2.6l-2,10.1h-3.3l-3-15.6H1542.9z"
			/>
		<path class="st1" d="M1572.9,92.4h-10.9c0,2.9,1.7,5.1,4.6,5.1c2.1,0,3.3-1.3,4.1-2.8l2.2,1.2c-1.3,2.6-3.4,3.9-6.4,3.9
			c-4.9,0-7.3-3.4-7.3-8.5c0-4.8,2.7-7.9,7.1-7.9c4.8,0,6.6,3.4,6.6,7.7C1572.9,91.6,1572.9,92,1572.9,92.4z M1566.2,85.6
			c-2.8,0-4.3,2.3-4.3,4.6h8.3C1570.3,87.7,1569,85.6,1566.2,85.6z"/>
		<path class="st1" d="M1588,83.6c1.1,0,2.2,0.1,2.8,0.3v2.5c-0.6-0.2-1.8-0.3-2.9-0.3c-3.7,0-6.7,2.6-6.7,7.6v5.8h-2.6V83.9h2.6V88
			C1582.2,85.5,1584.8,83.6,1588,83.6z"/>
		<path class="st1" d="M1607.8,92.4h-10.9c0,2.9,1.7,5.1,4.6,5.1c2.1,0,3.3-1.3,4.1-2.8l2.2,1.2c-1.3,2.6-3.4,3.9-6.4,3.9
			c-4.9,0-7.3-3.4-7.3-8.5c0-4.8,2.7-7.9,7.1-7.9c4.8,0,6.6,3.4,6.6,7.7C1607.9,91.6,1607.8,92,1607.8,92.4z M1601.1,85.6
			c-2.8,0-4.3,2.3-4.3,4.6h8.3C1605.2,87.7,1603.9,85.6,1601.1,85.6z"/>
		<path class="st1" d="M1636.5,96.4l4.3-12.5h2.8l-6.2,16.6c-1.4,4-3.3,5.3-5.9,5.3c-0.5,0-0.9,0-1.4-0.1v-2.3
			c0.4,0,0.8,0.1,1.1,0.1c1.9,0,2.9-0.8,3.6-2.9l0.4-1.2l-6.1-15.4h3L1636.5,96.4z"/>
		<path class="st1" d="M1646.4,91.7c0-5,2.9-8.2,7.3-8.2s7.3,3.2,7.3,8.2s-2.9,8.2-7.3,8.2S1646.4,96.6,1646.4,91.7z M1658.1,91.7
			c0-3.6-1.7-5.9-4.5-5.9s-4.5,2.2-4.5,5.9c0,3.7,1.7,5.9,4.5,5.9S1658.1,95.4,1658.1,91.7z"/>
		<path class="st1" d="M1670.1,99.9c-1.4,0-2.9-0.3-4-1.4c-1-1-1.4-2.4-1.4-5v-9.6h2.7v9.5c0,3.4,1.6,4.1,3.2,4.1
			c3.3,0,4.1-3.3,4.1-5.5v-8.1h2.6v15.6h-2.5v-3C1674.2,98.1,1672.4,99.9,1670.1,99.9z"/>
		<path class="st1" d="M1681.7,83.1c0-3.8,2.6-6.3,7-6.3c4.2,0,6.8,2.1,6.8,5.8c0,2.2-1.5,4-2.9,5.4l-1.6,1.6
			c-0.9,0.9-1.3,2-1.3,3.5v0.6h-2.6v-1.3c0-1,0.2-2.2,1.8-3.9l1.5-1.6c1-1,2.2-2.2,2.2-4.2c0-2.1-1.7-3.5-3.9-3.5
			c-2.5,0-4.2,1.3-4.2,4.3c0,0.5,0.1,1.2,0.2,1.7l-2.8-0.3C1681.7,84.3,1681.7,83.5,1681.7,83.1z M1690.6,99.5h-4.1v-4h4.1V99.5z"/>
		<path class="st1" d="M1725,79.7v17.5h5.5v2.3h-14v-2.3h5.5V79.7h-5.5v-2.3h14v2.3H1725z"/>
		<path class="st1" d="M1752.4,83.9l1.6,10.7l0.3,2.2h0.2c0.1-0.7,0.2-1.2,0.5-2.6l2-10.3h2.7l2,10.3c0.3,1.4,0.4,1.9,0.5,2.6h0.2
			l0.3-2.2l1.6-10.7h2.8l-3,15.6h-3.3l-2-10.1c-0.1-0.6-0.2-1.9-0.3-2.6h-0.2c0,0.6-0.2,1.9-0.3,2.6l-2,10.1h-3.3l-3-15.6H1752.4z"
			/>
		<path class="st1" d="M1782.3,99.5h-2.8c-0.1-0.9-0.2-1.9-0.2-2.8c-1,2.2-2.7,3.2-5.3,3.2c-3.1,0-5.2-1.9-5.2-4.6
			c0-1.6,0.7-2.9,2.2-3.7c1-0.6,2.7-1,5.3-1.3l2.8-0.3v-0.3c0-2.8-1-4-3.3-4c-2.2,0-3.5,1.1-3.6,3.1h-2.8c0.3-3.3,2.7-5.3,6.7-5.3
			c4,0,5.8,2,5.8,6.5v4.2C1781.8,96.7,1781.9,98.3,1782.3,99.5z M1775.4,92.4c-2.7,0.4-3.8,1.2-3.8,2.7c0,1.6,1.1,2.6,2.9,2.6
			c2.8,0,4.6-1.9,4.6-5v-0.8L1775.4,92.4z"/>
		<path class="st1" d="M1787,94.7l2.7-0.5c0.4,2.3,1.9,3.5,4.2,3.5c2.1,0,3.2-0.9,3.2-2.3c0-1.6-0.8-2.2-2.5-2.4l-2.5-0.3
			c-3.1-0.3-4.6-2.1-4.6-4.5c0-2.8,2.2-4.6,5.9-4.6c3.6,0,6,1.9,6.3,4.7l-2.6,0.6c-0.3-1.9-1.6-3.2-3.7-3.2c-2.1,0-3.3,0.8-3.3,2.3
			c0,1.3,0.9,2.2,2.8,2.4l2.5,0.3c3.1,0.3,4.3,2,4.3,4.4c0,3-2.2,4.8-6,4.8C1790,99.9,1787.6,98,1787,94.7z"/>
		<path class="st1" d="M1822.3,83.9l1.6,10.7l0.3,2.2h0.2c0.1-0.7,0.2-1.2,0.5-2.6l2-10.3h2.7l2,10.3c0.3,1.4,0.4,1.9,0.5,2.6h0.2
			l0.3-2.2l1.6-10.7h2.8l-3,15.6h-3.3l-2-10.1c-0.1-0.6-0.2-1.9-0.3-2.6h-0.2c0,0.6-0.2,1.9-0.3,2.6l-2,10.1h-3.3l-3-15.6H1822.3z"
			/>
		<path class="st1" d="M1838.5,91.7c0-5,2.9-8.2,7.3-8.2s7.3,3.2,7.3,8.2s-2.9,8.2-7.3,8.2S1838.5,96.6,1838.5,91.7z M1850.2,91.7
			c0-3.6-1.7-5.9-4.5-5.9s-4.5,2.2-4.5,5.9c0,3.7,1.7,5.9,4.5,5.9S1850.2,95.4,1850.2,91.7z"/>
		<path class="st1" d="M1867.4,83.6c1.1,0,2.2,0.1,2.8,0.3v2.5c-0.6-0.2-1.8-0.3-2.9-0.3c-3.7,0-6.7,2.6-6.7,7.6v5.8h-2.6V83.9h2.6
			V88C1861.6,85.5,1864.1,83.6,1867.4,83.6z"/>
		<path class="st1" d="M1884.8,83.6c1.1,0,2.2,0.1,2.8,0.3v2.5c-0.6-0.2-1.8-0.3-2.9-0.3c-3.7,0-6.7,2.6-6.7,7.6v5.8h-2.6V83.9h2.6
			V88C1879,85.5,1881.6,83.6,1884.8,83.6z"/>
		<path class="st1" d="M1892.3,97.3h5V86.1h-4.5v-2.2h7.2v13.4h5.3v2.2h-12.9V97.3z M1900.3,80.8h-3.7V77h3.7V80.8z"/>
		<path class="st1" d="M1922,92.4h-10.9c0,2.9,1.7,5.1,4.6,5.1c2.1,0,3.3-1.3,4.1-2.8l2.2,1.2c-1.3,2.6-3.4,3.9-6.4,3.9
			c-4.9,0-7.3-3.4-7.3-8.5c0-4.8,2.7-7.9,7.1-7.9c4.8,0,6.6,3.4,6.6,7.7C1922.1,91.6,1922.1,92,1922,92.4z M1915.4,85.6
			c-2.8,0-4.3,2.3-4.3,4.6h8.3C1919.4,87.7,1918.2,85.6,1915.4,85.6z"/>
		<path class="st1" d="M1939,76.9v22.6h-2.5v-2.9c-0.9,2-2.4,3.3-5,3.3c-3.9,0-6.4-3.2-6.4-8.2c0-4.9,2.7-8.1,6.8-8.1
			c2.1,0,3.6,1.2,4.4,2.7v-9.3H1939z M1932.2,85.9c-2.7,0-4.3,2.2-4.3,5.8c0,3.6,1.6,5.9,4.2,5.9c2.6,0,4.3-2.1,4.3-5.5v-0.7
			C1936.5,88,1934.8,85.9,1932.2,85.9z"/>
		<path class="st1" d="M1437.8,136.4l2.7-0.5c0.4,2.3,1.9,3.5,4.2,3.5c2.1,0,3.2-0.9,3.2-2.3c0-1.6-0.8-2.2-2.5-2.4l-2.5-0.3
			c-3.1-0.3-4.6-2.1-4.6-4.5c0-2.8,2.2-4.6,5.9-4.6c3.6,0,6,1.9,6.3,4.7l-2.6,0.6c-0.3-1.9-1.6-3.2-3.7-3.2c-2.1,0-3.3,0.8-3.3,2.3
			c0,1.3,0.9,2.2,2.8,2.4l2.5,0.3c3.1,0.3,4.3,2,4.3,4.4c0,3-2.2,4.8-6,4.8C1440.8,141.6,1438.4,139.7,1437.8,136.4z"/>
		<path class="st1" d="M1455.9,139h5v-11.2h-4.5v-2.2h7.2V139h5.3v2.2h-12.9V139z M1463.8,122.5h-3.7v-3.7h3.7V122.5z"/>
		<path class="st1" d="M1471.9,133.3c0-4.6,2.4-8.1,7.3-8.1c3.5,0,6,2,6.3,5.6l-2.7,0.3c-0.3-2.3-1.6-3.6-3.8-3.6
			c-2.9,0-4.3,2.3-4.3,5.7c0,3.6,1.5,6,4.4,6c2.3,0,3.5-1.4,3.9-3.7l2.5,0.4c-0.5,3.2-2.5,5.7-6.4,5.7
			C1474.4,141.6,1471.9,138,1471.9,133.3z"/>
		<path class="st1" d="M1496,133.6l-2.8,2.9v4.8h-2.6v-22.6h2.6v14.7l7-7.7h3.5l-5.7,6l6.1,9.6h-3.3L1496,133.6z"/>
		<path class="st1" d="M1537.9,141.2h-2.8c-0.1-0.9-0.2-1.9-0.2-2.8c-1,2.2-2.7,3.2-5.3,3.2c-3.1,0-5.2-1.9-5.2-4.6
			c0-1.6,0.7-2.9,2.2-3.7c1-0.6,2.7-1,5.3-1.3l2.8-0.3v-0.3c0-2.8-1-4-3.3-4c-2.2,0-3.5,1.1-3.6,3.1h-2.8c0.3-3.3,2.7-5.3,6.7-5.3
			c4,0,5.8,2,5.8,6.5v4.2C1537.4,138.4,1537.5,140.1,1537.9,141.2z M1531,134.1c-2.7,0.4-3.8,1.2-3.8,2.7c0,1.6,1.1,2.6,2.9,2.6
			c2.8,0,4.6-1.9,4.6-5v-0.8L1531,134.1z"/>
		<path class="st1" d="M1545.4,128.3c0.8-1.8,2.7-3.1,4.8-3.1c4,0,6.4,3.4,6.4,8.1c0,4.9-2.5,8.2-6.5,8.2c-2.1,0-4-1.2-4.9-3.1
			l-0.5,2.7h-2v-22.6h2.7V128.3z M1549.5,139.3c2.7,0,4.3-2.3,4.3-5.9c0-3.5-1.5-5.8-4.3-5.8c-2.6,0-4.2,2.1-4.2,5.5v0.8
			C1545.4,137.1,1546.9,139.3,1549.5,139.3z"/>
		<path class="st1" d="M1559.1,133.4c0-5,2.9-8.2,7.3-8.2s7.3,3.2,7.3,8.2s-2.9,8.2-7.3,8.2S1559.1,138.3,1559.1,133.4z
			 M1570.9,133.4c0-3.6-1.7-5.9-4.5-5.9s-4.5,2.2-4.5,5.9c0,3.7,1.7,5.9,4.5,5.9S1570.9,137.1,1570.9,133.4z"/>
		<path class="st1" d="M1582.8,141.6c-1.4,0-2.9-0.3-4-1.4c-1-1-1.4-2.4-1.4-5v-9.6h2.7v9.5c0,3.4,1.6,4.1,3.2,4.1
			c3.3,0,4.1-3.3,4.1-5.5v-8.1h2.6v15.6h-2.5v-3C1586.9,139.8,1585.1,141.6,1582.8,141.6z"/>
		<path class="st1" d="M1594.4,125.6h4.5v-4.1l2.6-1.1v5.2h6.1v2.2h-6.1v8.1c0,2.1,1,3.1,3,3.1c1,0,2.1-0.1,3.1-0.3v2.4
			c-0.8,0.2-1.7,0.4-3.1,0.4c-3.9,0-5.7-2.2-5.7-5.3v-8.4h-4.5V125.6z"/>
		<path class="st1" d="M1636.5,138.1l4.3-12.5h2.8l-6.2,16.6c-1.4,4-3.3,5.3-5.9,5.3c-0.5,0-0.9,0-1.4-0.1V145
			c0.4,0,0.8,0.1,1.1,0.1c1.9,0,2.9-0.8,3.6-2.9l0.4-1.2l-6.1-15.4h3L1636.5,138.1z"/>
		<path class="st1" d="M1646.4,133.4c0-5,2.9-8.2,7.3-8.2s7.3,3.2,7.3,8.2s-2.9,8.2-7.3,8.2S1646.4,138.3,1646.4,133.4z
			 M1658.1,133.4c0-3.6-1.7-5.9-4.5-5.9s-4.5,2.2-4.5,5.9c0,3.7,1.7,5.9,4.5,5.9S1658.1,137.1,1658.1,133.4z"/>
		<path class="st1" d="M1670.1,141.6c-1.4,0-2.9-0.3-4-1.4c-1-1-1.4-2.4-1.4-5v-9.6h2.7v9.5c0,3.4,1.6,4.1,3.2,4.1
			c3.3,0,4.1-3.3,4.1-5.5v-8.1h2.6v15.6h-2.5v-3C1674.2,139.8,1672.4,141.6,1670.1,141.6z"/>
		<path class="st1" d="M1686.7,144.4c1.7-0.7,2.1-1.5,2.1-3.2h-2.3v-4h4.1v4c0,2.4-0.7,3.6-3.1,4.6L1686.7,144.4z"/>
		<path class="st1" d="M1731,121.6h-10.7v7.1h9.8v2.5h-9.8v10.1h-2.9v-22.1h13.6V121.6z"/>
		<path class="st1" d="M1737.8,119.1v19.6h10.6v2.5h-13.5v-22.1H1737.8z"/>
		<path class="st1" d="M1764.9,141.2h-2.8c-0.1-0.9-0.2-1.9-0.2-2.8c-1,2.2-2.7,3.2-5.3,3.2c-3.1,0-5.2-1.9-5.2-4.6
			c0-1.6,0.7-2.9,2.2-3.7c1-0.6,2.7-1,5.3-1.3l2.8-0.3v-0.3c0-2.8-1-4-3.3-4c-2.2,0-3.5,1.1-3.6,3.1h-2.8c0.3-3.3,2.7-5.3,6.7-5.3
			c4,0,5.8,2,5.8,6.5v4.2C1764.3,138.4,1764.5,140.1,1764.9,141.2z M1758,134.1c-2.7,0.4-3.8,1.2-3.8,2.7c0,1.6,1.1,2.6,2.9,2.6
			c2.8,0,4.6-1.9,4.6-5v-0.8L1758,134.1z"/>
		<path class="st1" d="M1769,125.6h4.5v-4.1l2.6-1.1v5.2h6.1v2.2h-6.1v8.1c0,2.1,1,3.1,3,3.1c1,0,2.1-0.1,3.1-0.3v2.4
			c-0.8,0.2-1.7,0.4-3.1,0.4c-3.9,0-5.7-2.2-5.7-5.3v-8.4h-4.5V125.6z"/>
		<path class="st1" d="M1818.2,125c0,2.1-1.2,4-3.7,4.7c2.7,0.5,4.3,2.4,4.3,5.4c0,2.8-1.7,6.1-7.2,6.1h-7.7v-22.1h7.1
			C1816.7,119.1,1818.2,122.4,1818.2,125z M1806.9,128.7h4.1c3.7,0,4.3-2,4.3-3.6c0-1.8-0.8-3.7-4.3-3.7h-4.1V128.7z M1806.9,138.8
			h4.6c3.3,0,4.4-1.9,4.4-4c0-2.1-1.2-3.7-4.1-3.7h-5V138.8z"/>
		<path class="st1" d="M1832.4,125.3c1.1,0,2.2,0.1,2.8,0.3v2.5c-0.6-0.2-1.8-0.3-2.9-0.3c-3.7,0-6.7,2.6-6.7,7.6v5.8h-2.6v-15.6
			h2.6v4.1C1826.7,127.2,1829.2,125.3,1832.4,125.3z"/>
		<path class="st1" d="M1852.2,141.2h-2.8c-0.1-0.9-0.2-1.9-0.2-2.8c-1,2.2-2.7,3.2-5.3,3.2c-3.1,0-5.2-1.9-5.2-4.6
			c0-1.6,0.7-2.9,2.2-3.7c1-0.6,2.7-1,5.3-1.3l2.8-0.3v-0.3c0-2.8-1-4-3.3-4c-2.2,0-3.5,1.1-3.6,3.1h-2.8c0.3-3.3,2.7-5.3,6.7-5.3
			c4,0,5.8,2,5.8,6.5v4.2C1851.6,138.4,1851.8,140.1,1852.2,141.2z M1845.3,134.1c-2.7,0.4-3.8,1.2-3.8,2.7c0,1.6,1.1,2.6,2.9,2.6
			c2.8,0,4.6-1.9,4.6-5v-0.8L1845.3,134.1z"/>
		<path class="st1" d="M1857.4,139h5v-11.2h-4.5v-2.2h7.2V139h5.3v2.2h-12.9V139z M1865.3,122.5h-3.7v-3.7h3.7V122.5z"/>
		<path class="st1" d="M1881.8,125.3c1.3,0,2.7,0.3,3.8,1.3c1,1,1.5,2.5,1.5,5v9.6h-2.7v-9.5c0-3.4-1.7-4.1-3.2-4.1
			c-3.5,0-4.4,3.3-4.4,5.5v8.1h-2.6v-15.6h2.5v3.1C1877.5,126.7,1879.2,125.3,1881.8,125.3z"/>
		<path class="st1" d="M1900.2,141.2h-4.1v-4h4.1V141.2z M1896.5,119.1h3.1l-0.5,16.3h-2.2L1896.5,119.1z"/>
	</g>
</g>
<g>
	<path class="st0" d="M1956.7,495.6h-403.2c-18.7,0-33.9-15.2-33.9-33.9V240.1c0-18.7,15.2-33.9,33.9-33.9h403.2
		c18.7,0,33.9,15.2,33.9,33.9v221.6C1990.7,480.4,1975.5,495.6,1956.7,495.6z"/>
	<g>
		<g>
			<path class="st1" d="M1553.4,252.1h-2.9v-8.8l-7.2-13.3h3.2l5.4,10.9l5.4-10.9h3.2l-7.2,13.3V252.1z"/>
			<path class="st1" d="M1562.2,244.3c0-5,2.9-8.2,7.3-8.2s7.3,3.2,7.3,8.2s-2.9,8.2-7.3,8.2S1562.2,249.2,1562.2,244.3z
				 M1573.9,244.3c0-3.6-1.7-5.9-4.5-5.9s-4.5,2.2-4.5,5.9c0,3.7,1.7,5.9,4.5,5.9S1573.9,247.9,1573.9,244.3z"/>
			<path class="st1" d="M1585.8,252.4c-1.4,0-2.9-0.3-4-1.4c-1-1-1.4-2.4-1.4-5v-9.6h2.7v9.5c0,3.4,1.6,4.1,3.2,4.1
				c3.3,0,4.1-3.3,4.1-5.5v-8.1h2.6v15.6h-2.5v-3C1589.9,250.6,1588.1,252.4,1585.8,252.4z"/>
			<path class="st1" d="M1608.5,236.2c1.1,0,2.2,0.1,2.8,0.3v2.5c-0.6-0.2-1.8-0.3-2.9-0.3c-3.7,0-6.7,2.6-6.7,7.6v5.8h-2.6v-15.6
				h2.6v4.1C1602.7,238.1,1605.3,236.2,1608.5,236.2z"/>
			<path class="st1" d="M1640.4,236.1c1.3,0,2.7,0.3,3.8,1.3c1,1,1.5,2.5,1.5,5v9.6h-2.7v-9.5c0-3.4-1.7-4.1-3.2-4.1
				c-3.5,0-4.4,3.3-4.4,5.5v8.1h-2.6v-15.6h2.5v3.1C1636.1,237.6,1637.8,236.1,1640.4,236.1z"/>
			<path class="st1" d="M1663.2,244.9h-10.9c0,2.9,1.7,5.1,4.6,5.1c2.1,0,3.3-1.3,4.1-2.8l2.2,1.2c-1.3,2.6-3.4,3.9-6.4,3.9
				c-4.9,0-7.3-3.4-7.3-8.5c0-4.8,2.7-7.9,7.1-7.9c4.8,0,6.6,3.4,6.6,7.7C1663.3,244.1,1663.2,244.5,1663.2,244.9z M1656.5,238.1
				c-2.8,0-4.3,2.3-4.3,4.6h8.3C1660.6,240.3,1659.3,238.1,1656.5,238.1z"/>
			<path class="st1" d="M1668.2,236.5l1.6,10.7l0.3,2.2h0.2c0.1-0.7,0.2-1.2,0.5-2.6l2-10.3h2.7l2,10.3c0.3,1.4,0.4,1.9,0.5,2.6h0.2
				l0.3-2.2l1.6-10.7h2.8l-3,15.6h-3.3l-2-10.1c-0.1-0.6-0.2-1.9-0.3-2.6h-0.2c0,0.6-0.2,1.9-0.3,2.6l-2,10.1h-3.3l-3-15.6H1668.2z"
				/>
			<path class="st1" d="M1705.6,239.2c0.8-1.8,2.7-3.1,4.8-3.1c4,0,6.4,3.4,6.4,8.1c0,4.9-2.5,8.2-6.5,8.2c-2.1,0-4-1.2-4.9-3.1
				l-0.5,2.7h-2v-22.6h2.7V239.2z M1709.7,250.1c2.7,0,4.3-2.3,4.3-5.9c0-3.5-1.5-5.8-4.3-5.8c-2.6,0-4.2,2.1-4.2,5.5v0.8
				C1705.5,247.9,1707,250.1,1709.7,250.1z"/>
			<path class="st1" d="M1719.3,244.3c0-5,2.9-8.2,7.3-8.2s7.3,3.2,7.3,8.2s-2.9,8.2-7.3,8.2S1719.3,249.2,1719.3,244.3z
				 M1731,244.3c0-3.6-1.7-5.9-4.5-5.9s-4.5,2.2-4.5,5.9c0,3.7,1.7,5.9,4.5,5.9S1731,247.9,1731,244.3z"/>
			<path class="st1" d="M1737.7,247.3l2.7-0.5c0.4,2.3,1.9,3.5,4.2,3.5c2.1,0,3.2-0.9,3.2-2.3c0-1.6-0.8-2.2-2.5-2.4l-2.5-0.3
				c-3.1-0.3-4.6-2.1-4.6-4.5c0-2.8,2.2-4.6,5.9-4.6c3.6,0,6,1.9,6.3,4.7l-2.6,0.6c-0.3-1.9-1.6-3.2-3.7-3.2c-2.1,0-3.3,0.8-3.3,2.3
				c0,1.3,0.9,2.2,2.8,2.4l2.5,0.3c3.1,0.3,4.3,2,4.3,4.4c0,3-2.2,4.8-6,4.8C1740.7,252.4,1738.2,250.6,1737.7,247.3z"/>
			<path class="st1" d="M1755.1,247.3l2.7-0.5c0.4,2.3,1.9,3.5,4.2,3.5c2.1,0,3.2-0.9,3.2-2.3c0-1.6-0.8-2.2-2.5-2.4l-2.5-0.3
				c-3.1-0.3-4.6-2.1-4.6-4.5c0-2.8,2.2-4.6,5.9-4.6c3.6,0,6,1.9,6.3,4.7l-2.6,0.6c-0.3-1.9-1.6-3.2-3.7-3.2c-2.1,0-3.3,0.8-3.3,2.3
				c0,1.3,0.9,2.2,2.8,2.4l2.5,0.3c3.1,0.3,4.3,2,4.3,4.4c0,3-2.2,4.8-6,4.8C1758.1,252.4,1755.7,250.6,1755.1,247.3z"/>
			<path class="st1" d="M1790.6,249.9h5v-11.2h-4.5v-2.2h7.2v13.4h5.3v2.2h-12.9V249.9z M1798.5,233.3h-3.7v-3.7h3.7V233.3z"/>
			<path class="st1" d="M1807.5,247.3l2.7-0.5c0.4,2.3,1.9,3.5,4.2,3.5c2.1,0,3.2-0.9,3.2-2.3c0-1.6-0.8-2.2-2.5-2.4l-2.5-0.3
				c-3.1-0.3-4.6-2.1-4.6-4.5c0-2.8,2.2-4.6,5.9-4.6c3.6,0,6,1.9,6.3,4.7l-2.6,0.6c-0.3-1.9-1.6-3.2-3.7-3.2c-2.1,0-3.3,0.8-3.3,2.3
				c0,1.3,0.9,2.2,2.8,2.4l2.5,0.3c3.1,0.3,4.3,2,4.3,4.4c0,3-2.2,4.8-6,4.8C1810.5,252.4,1808,250.6,1807.5,247.3z"/>
			<path class="st1" d="M1842.7,236.5l1.6,10.7l0.3,2.2h0.2c0.1-0.7,0.2-1.2,0.5-2.6l2-10.3h2.7l2,10.3c0.3,1.4,0.4,1.9,0.5,2.6h0.2
				l0.3-2.2l1.6-10.7h2.8l-3,15.6h-3.3l-2-10.1c-0.1-0.6-0.2-1.9-0.3-2.6h-0.2c0,0.6-0.2,1.9-0.3,2.6l-2,10.1h-3.3l-3-15.6H1842.7z"
				/>
			<path class="st1" d="M1872.6,252.1h-2.8c-0.1-0.9-0.2-1.9-0.2-2.8c-1,2.2-2.7,3.2-5.3,3.2c-3.1,0-5.2-1.9-5.2-4.6
				c0-1.6,0.7-2.9,2.2-3.7c1-0.6,2.7-1,5.3-1.3l2.8-0.3v-0.3c0-2.8-1-4-3.3-4c-2.2,0-3.5,1.1-3.6,3.1h-2.8c0.3-3.3,2.7-5.3,6.7-5.3
				c4,0,5.8,2,5.8,6.5v4.2C1872.1,249.3,1872.3,250.9,1872.6,252.1z M1865.8,245c-2.7,0.4-3.8,1.2-3.8,2.7c0,1.6,1.1,2.6,2.9,2.6
				c2.8,0,4.6-1.9,4.6-5v-0.8L1865.8,245z"/>
			<path class="st1" d="M1877.9,249.9h5v-11.2h-4.5v-2.2h7.2v13.4h5.3v2.2h-12.9V249.9z M1885.8,233.3h-3.7v-3.7h3.7V233.3z"/>
			<path class="st1" d="M1894.2,236.5h4.5v-4.1l2.6-1.1v5.2h6.1v2.2h-6.1v8.1c0,2.1,1,3.1,3,3.1c1,0,2.1-0.1,3.1-0.3v2.4
				c-0.8,0.2-1.7,0.4-3.1,0.4c-3.9,0-5.7-2.2-5.7-5.3v-8.4h-4.5V236.5z"/>
			<path class="st1" d="M1912.8,249.9h5v-11.2h-4.5v-2.2h7.2v13.4h5.3v2.2h-12.9V249.9z M1920.8,233.3h-3.7v-3.7h3.7V233.3z"/>
			<path class="st1" d="M1937.2,236.1c1.3,0,2.7,0.3,3.8,1.3c1,1,1.5,2.5,1.5,5v9.6h-2.7v-9.5c0-3.4-1.7-4.1-3.2-4.1
				c-3.5,0-4.4,3.3-4.4,5.5v8.1h-2.6v-15.6h2.5v3.1C1932.9,237.6,1934.6,236.1,1937.2,236.1z"/>
			<path class="st1" d="M1957.8,237.7c0.9,0.9,1.4,2.2,1.4,3.6c0,3.2-2.4,5.3-5.9,5.3c-1.1,0-2.1-0.2-2.9-0.6
				c-0.7,0.3-1.1,0.8-1.1,1.6c0,1,0.8,1.6,2.6,1.6h4c3.2,0,5.1,1.6,5.1,4.2c0,3.3-2.8,5.1-7.7,5.1c-4.4,0-7.1-1.5-7.1-4
				c0-1.7,1.1-2.9,2.7-3.5c-1.3-0.5-2-1.5-2-2.8c0-1.4,0.8-2.5,2.2-3c-1-0.9-1.6-2.2-1.6-3.8c0-3.2,2.3-5.4,5.8-5.4
				c1.2,0,2.2,0.2,3,0.7c0.6-1.8,1.8-2.9,3.8-2.9c0.3,0,0.7,0,1,0.1v2.3c-0.5-0.1-0.7-0.1-1.2-0.1
				C1959,236.2,1958.3,236.7,1957.8,237.7z M1951.9,251.5c-0.5,0-0.9,0-1.3-0.1c-1,0.5-1.7,1.3-1.7,2.4c0,1.7,1.5,2.5,4.7,2.5
				c3.3,0,4.8-0.9,4.8-2.6c0-1.4-1-2.2-3-2.2H1951.9z M1956.8,241.3c0-1.9-1.3-3.2-3.2-3.2c-1.9,0-3.3,1.4-3.3,3.3
				c0,1.9,1.3,3.2,3.2,3.2C1955.4,244.6,1956.8,243.2,1956.8,241.3z"/>
			<path class="st1" d="M1558.5,280.3h-5.9v13.4h-2.6v-13.4h-4.8v-2.2h4.8v-1.7c0-3.6,2-5.4,5.9-5.4c0.9,0,1.7,0.1,2.7,0.3v2.3
				c-0.7-0.1-1.5-0.2-2.7-0.2c-2.4,0-3.2,0.8-3.2,3.2v1.5h5.9V280.3z"/>
			<path class="st1" d="M1562.2,286c0-5,2.9-8.2,7.3-8.2s7.3,3.2,7.3,8.2s-2.9,8.2-7.3,8.2S1562.2,290.9,1562.2,286z M1573.9,286
				c0-3.6-1.7-5.9-4.5-5.9s-4.5,2.2-4.5,5.9c0,3.7,1.7,5.9,4.5,5.9S1573.9,289.7,1573.9,286z"/>
			<path class="st1" d="M1591.1,277.9c1.1,0,2.2,0.1,2.8,0.3v2.5c-0.6-0.2-1.8-0.3-2.9-0.3c-3.7,0-6.7,2.6-6.7,7.6v5.8h-2.6v-15.6
				h2.6v4.1C1585.3,279.8,1587.8,277.9,1591.1,277.9z"/>
			<path class="st1" d="M1622.1,290.7l4.3-12.5h2.8l-6.2,16.6c-1.4,4-3.3,5.3-5.9,5.3c-0.5,0-0.9,0-1.4-0.1v-2.3
				c0.4,0,0.8,0.1,1.1,0.1c1.9,0,2.9-0.8,3.6-2.9l0.4-1.2l-6.1-15.4h3L1622.1,290.7z"/>
			<path class="st1" d="M1632,286c0-5,2.9-8.2,7.3-8.2s7.3,3.2,7.3,8.2s-2.9,8.2-7.3,8.2S1632,290.9,1632,286z M1643.7,286
				c0-3.6-1.7-5.9-4.5-5.9s-4.5,2.2-4.5,5.9c0,3.7,1.7,5.9,4.5,5.9S1643.7,289.7,1643.7,286z"/>
			<path class="st1" d="M1655.6,294.2c-1.4,0-2.9-0.3-4-1.4c-1-1-1.4-2.4-1.4-5v-9.6h2.7v9.5c0,3.4,1.6,4.1,3.2,4.1
				c3.3,0,4.1-3.3,4.1-5.5v-8.1h2.6v15.6h-2.5v-3C1659.8,292.4,1657.9,294.2,1655.6,294.2z"/>
			<path class="st1" d="M1684.7,278.2h4.5v-4.1l2.6-1.1v5.2h6.1v2.2h-6.1v8.1c0,2.1,1,3.1,3,3.1c1,0,2.1-0.1,3.1-0.3v2.4
				c-0.8,0.2-1.7,0.4-3.1,0.4c-3.9,0-5.7-2.2-5.7-5.3v-8.4h-4.5V278.2z"/>
			<path class="st1" d="M1701.8,286c0-5,2.9-8.2,7.3-8.2s7.3,3.2,7.3,8.2s-2.9,8.2-7.3,8.2S1701.8,290.9,1701.8,286z M1713.6,286
				c0-3.6-1.7-5.9-4.5-5.9s-4.5,2.2-4.5,5.9c0,3.7,1.7,5.9,4.5,5.9S1713.6,289.7,1713.6,286z"/>
			<path class="st1" d="M1748.2,277.9c1.1,0,2.2,0.1,2.8,0.3v2.5c-0.6-0.2-1.8-0.3-2.9-0.3c-3.7,0-6.7,2.6-6.7,7.6v5.8h-2.6v-15.6
				h2.6v4.1C1742.4,279.8,1744.9,277.9,1748.2,277.9z"/>
			<path class="st1" d="M1768,286.7H1757c0,2.9,1.7,5.1,4.6,5.1c2.1,0,3.3-1.3,4.1-2.8l2.2,1.2c-1.3,2.6-3.4,3.9-6.4,3.9
				c-4.9,0-7.3-3.4-7.3-8.5c0-4.8,2.7-7.9,7.1-7.9c4.8,0,6.6,3.4,6.6,7.7C1768,285.9,1768,286.3,1768,286.7z M1761.3,279.9
				c-2.8,0-4.3,2.3-4.3,4.6h8.3C1765.3,282,1764.1,279.9,1761.3,279.9z"/>
			<path class="st1" d="M1775.3,281.1c0.8-1.7,2.7-3.3,4.9-3.3c4.1,0,6.5,3.4,6.5,8.1c0,4.9-2.5,8.2-6.6,8.2c-1.9,0-3.9-1.2-4.6-2.8
				v8.5h-2.7v-21.7h2.5V281.1z M1779.6,291.8c2.7,0,4.3-2.3,4.3-5.9c0-3.5-1.4-5.8-4.2-5.8c-2.6,0-4.3,2.1-4.3,5.4v0.7
				C1775.3,289.6,1776.9,291.8,1779.6,291.8z"/>
			<path class="st1" d="M1800.6,277.9c1.1,0,2.2,0.1,2.8,0.3v2.5c-0.6-0.2-1.8-0.3-2.9-0.3c-3.7,0-6.7,2.6-6.7,7.6v5.8h-2.6v-15.6
				h2.6v4.1C1794.8,279.8,1797.3,277.9,1800.6,277.9z"/>
			<path class="st1" d="M1820.3,286.7h-10.9c0,2.9,1.7,5.1,4.6,5.1c2.1,0,3.3-1.3,4.1-2.8l2.2,1.2c-1.3,2.6-3.4,3.9-6.4,3.9
				c-4.9,0-7.3-3.4-7.3-8.5c0-4.8,2.7-7.9,7.1-7.9c4.8,0,6.6,3.4,6.6,7.7C1820.4,285.9,1820.4,286.3,1820.3,286.7z M1813.7,279.9
				c-2.8,0-4.3,2.3-4.3,4.6h8.3C1817.7,282,1816.5,279.9,1813.7,279.9z"/>
			<path class="st1" d="M1824.9,289l2.7-0.5c0.4,2.3,1.9,3.5,4.2,3.5c2.1,0,3.2-0.9,3.2-2.3c0-1.6-0.8-2.2-2.5-2.4l-2.5-0.3
				c-3.1-0.3-4.6-2.1-4.6-4.5c0-2.8,2.2-4.6,5.9-4.6c3.6,0,6,1.9,6.3,4.7l-2.6,0.6c-0.3-1.9-1.6-3.2-3.7-3.2c-2.1,0-3.3,0.8-3.3,2.3
				c0,1.3,0.9,2.2,2.8,2.4l2.5,0.3c3.1,0.3,4.3,2,4.3,4.4c0,3-2.2,4.8-6,4.8C1828,294.2,1825.5,292.3,1824.9,289z"/>
			<path class="st1" d="M1855.2,286.7h-10.9c0,2.9,1.7,5.1,4.6,5.1c2.1,0,3.3-1.3,4.1-2.8l2.2,1.2c-1.3,2.6-3.4,3.9-6.4,3.9
				c-4.9,0-7.3-3.4-7.3-8.5c0-4.8,2.7-7.9,7.1-7.9c4.8,0,6.6,3.4,6.6,7.7C1855.3,285.9,1855.3,286.3,1855.2,286.7z M1848.6,279.9
				c-2.8,0-4.3,2.3-4.3,4.6h8.3C1852.6,282,1851.4,279.9,1848.6,279.9z"/>
			<path class="st1" d="M1867.4,277.8c1.3,0,2.7,0.3,3.8,1.3c1,1,1.5,2.5,1.5,5v9.6h-2.7v-9.5c0-3.4-1.7-4.1-3.2-4.1
				c-3.5,0-4.4,3.3-4.4,5.5v8.1h-2.6v-15.6h2.5v3.1C1863.1,279.3,1864.8,277.8,1867.4,277.8z"/>
			<path class="st1" d="M1876.8,278.2h4.5v-4.1l2.6-1.1v5.2h6.1v2.2h-6.1v8.1c0,2.1,1,3.1,3,3.1c1,0,2.1-0.1,3.1-0.3v2.4
				c-0.8,0.2-1.7,0.4-3.1,0.4c-3.9,0-5.7-2.2-5.7-5.3v-8.4h-4.5V278.2z"/>
			<path class="st1" d="M1919.7,277.8c1.2,0,2.7,0.3,3.8,1.4c1,1,1.5,2.4,1.5,5v9.6h-2.7v-9.5c0-3.4-1.7-4.1-3.4-4.1
				c-3.4,0-4.2,3.3-4.2,5.5v8.1h-2.6v-22.6h2.6v9.9C1915.5,279.2,1917.4,277.8,1919.7,277.8z"/>
			<path class="st1" d="M1930.3,291.6h5v-11.2h-4.5v-2.2h7.2v13.4h5.3v2.2h-12.9V291.6z M1938.2,275.1h-3.7v-3.7h3.7V275.1z"/>
			<path class="st1" d="M1947.2,289l2.7-0.5c0.4,2.3,1.9,3.5,4.2,3.5c2.1,0,3.2-0.9,3.2-2.3c0-1.6-0.8-2.2-2.5-2.4l-2.5-0.3
				c-3.1-0.3-4.6-2.1-4.6-4.5c0-2.8,2.2-4.6,5.9-4.6c3.6,0,6,1.9,6.3,4.7l-2.6,0.6c-0.3-1.9-1.6-3.2-3.7-3.2c-2.1,0-3.3,0.8-3.3,2.3
				c0,1.3,0.9,2.2,2.8,2.4l2.5,0.3c3.1,0.3,4.3,2,4.3,4.4c0,3-2.2,4.8-6,4.8C1950.2,294.2,1947.7,292.3,1947.2,289z"/>
			<path class="st1" d="M1553.2,319.5c1.3,0,2.7,0.3,3.8,1.3c1,1,1.5,2.5,1.5,5v9.6h-2.7V326c0-3.4-1.7-4.1-3.2-4.1
				c-3.5,0-4.4,3.3-4.4,5.5v8.1h-2.6v-15.6h2.5v3.1C1548.8,321,1550.5,319.5,1553.2,319.5z"/>
			<path class="st1" d="M1575.9,328.4H1565c0,2.9,1.7,5.1,4.6,5.1c2.1,0,3.3-1.3,4.1-2.8l2.2,1.2c-1.3,2.6-3.4,3.9-6.4,3.9
				c-4.9,0-7.3-3.4-7.3-8.5c0-4.8,2.7-7.9,7.1-7.9c4.8,0,6.6,3.4,6.6,7.7C1576,327.6,1575.9,328,1575.9,328.4z M1569.2,321.6
				c-2.8,0-4.3,2.3-4.3,4.6h8.3C1573.3,323.7,1572,321.6,1569.2,321.6z"/>
			<path class="st1" d="M1580.9,319.9l1.6,10.7l0.3,2.2h0.2c0.1-0.7,0.2-1.2,0.5-2.6l2-10.3h2.7l2,10.3c0.3,1.4,0.4,1.9,0.5,2.6h0.2
				l0.3-2.2l1.6-10.7h2.8l-3,15.6h-3.3l-2-10.1c-0.1-0.6-0.2-1.9-0.3-2.6h-0.2c0,0.6-0.2,1.9-0.3,2.6l-2,10.1h-3.3l-3-15.6H1580.9z"
				/>
			<path class="st1" d="M1614.9,319.9h4.5v-4.1l2.6-1.1v5.2h6.1v2.2h-6.1v8.1c0,2.1,1,3.1,3,3.1c1,0,2.1-0.1,3.1-0.3v2.4
				c-0.8,0.2-1.7,0.4-3.1,0.4c-3.9,0-5.7-2.2-5.7-5.3v-8.4h-4.5V319.9z"/>
			<path class="st1" d="M1645.7,328.4h-10.9c0,2.9,1.7,5.1,4.6,5.1c2.1,0,3.3-1.3,4.1-2.8l2.2,1.2c-1.3,2.6-3.4,3.9-6.4,3.9
				c-4.9,0-7.3-3.4-7.3-8.5c0-4.8,2.7-7.9,7.1-7.9c4.8,0,6.6,3.4,6.6,7.7C1645.8,327.6,1645.8,328,1645.7,328.4z M1639.1,321.6
				c-2.8,0-4.3,2.3-4.3,4.6h8.3C1643.1,323.7,1641.9,321.6,1639.1,321.6z"/>
			<path class="st1" d="M1649.6,327.6c0-4.6,2.4-8.1,7.3-8.1c3.5,0,6,2,6.3,5.6l-2.7,0.3c-0.3-2.3-1.6-3.6-3.8-3.6
				c-2.9,0-4.3,2.3-4.3,5.7c0,3.6,1.5,6,4.4,6c2.3,0,3.5-1.4,3.9-3.7l2.5,0.4c-0.5,3.2-2.5,5.7-6.4,5.7
				C1652,335.9,1649.6,332.3,1649.6,327.6z"/>
			<path class="st1" d="M1675.3,319.5c1.2,0,2.7,0.3,3.8,1.4c1,1,1.5,2.4,1.5,5v9.6h-2.7V326c0-3.4-1.7-4.1-3.4-4.1
				c-3.4,0-4.2,3.3-4.2,5.5v8.1h-2.6v-22.6h2.6v9.9C1671.1,320.9,1673,319.5,1675.3,319.5z"/>
			<path class="st1" d="M1701.9,327.6c0-4.6,2.4-8.1,7.3-8.1c3.5,0,6,2,6.3,5.6l-2.7,0.3c-0.3-2.3-1.6-3.6-3.8-3.6
				c-2.9,0-4.3,2.3-4.3,5.7c0,3.6,1.5,6,4.4,6c2.3,0,3.5-1.4,3.9-3.7l2.5,0.4c-0.5,3.2-2.5,5.7-6.4,5.7
				C1704.4,335.9,1701.9,332.3,1701.9,327.6z"/>
			<path class="st1" d="M1719.3,327.7c0-5,2.9-8.2,7.3-8.2s7.3,3.2,7.3,8.2s-2.9,8.2-7.3,8.2S1719.3,332.6,1719.3,327.7z
				 M1731,327.7c0-3.6-1.7-5.9-4.5-5.9s-4.5,2.2-4.5,5.9c0,3.7,1.7,5.9,4.5,5.9S1731,331.4,1731,327.7z"/>
			<path class="st1" d="M1741.6,319.5c1.5,0,2.7,1,3.2,2.8c0.7-1.8,2.2-2.8,3.7-2.8c1.9,0,3.7,1.3,3.7,4.6v11.3h-2.6v-11.1
				c0-2-0.9-2.5-1.8-2.5c-1.8,0-2.5,1.3-2.5,3.3v10.3h-2.6v-11.1c0-1.9-0.8-2.5-1.8-2.5c-1.8,0-2.4,1.4-2.4,3.3v10.3h-2.7v-15.6h2.5
				v2.4C1738.9,320.6,1740.1,319.5,1741.6,319.5z"/>
			<path class="st1" d="M1757.8,322.8c0.8-1.7,2.7-3.3,4.9-3.3c4.1,0,6.5,3.4,6.5,8.1c0,4.9-2.5,8.2-6.6,8.2c-1.9,0-3.9-1.2-4.6-2.8
				v8.5h-2.7v-21.7h2.5V322.8z M1762.1,333.5c2.7,0,4.3-2.3,4.3-5.9c0-3.5-1.4-5.8-4.2-5.8c-2.6,0-4.3,2.1-4.3,5.4v0.7
				C1757.9,331.4,1759.5,333.5,1762.1,333.5z"/>
			<path class="st1" d="M1785.4,335.5h-2.8c-0.1-0.9-0.2-1.9-0.2-2.8c-1,2.2-2.7,3.2-5.3,3.2c-3.1,0-5.2-1.9-5.2-4.6
				c0-1.6,0.7-2.9,2.2-3.7c1-0.6,2.7-1,5.3-1.3l2.8-0.3v-0.3c0-2.8-1-4-3.3-4c-2.2,0-3.5,1.1-3.6,3.1h-2.8c0.3-3.3,2.7-5.3,6.7-5.3
				c4,0,5.8,2,5.8,6.5v4.2C1784.8,332.7,1785,334.4,1785.4,335.5z M1778.5,328.4c-2.7,0.4-3.8,1.2-3.8,2.7c0,1.6,1.1,2.6,2.9,2.6
				c2.8,0,4.6-1.9,4.6-5v-0.8L1778.5,328.4z"/>
			<path class="st1" d="M1797.6,319.5c1.3,0,2.7,0.3,3.8,1.3c1,1,1.5,2.5,1.5,5v9.6h-2.7V326c0-3.4-1.7-4.1-3.2-4.1
				c-3.5,0-4.4,3.3-4.4,5.5v8.1h-2.6v-15.6h2.5v3.1C1793.2,321,1795,319.5,1797.6,319.5z"/>
			<path class="st1" d="M1814.1,332.4l4.3-12.5h2.8l-6.2,16.6c-1.4,4-3.3,5.3-5.9,5.3c-0.5,0-0.9,0-1.4-0.1v-2.3
				c0.4,0,0.8,0.1,1.1,0.1c1.9,0,2.9-0.8,3.6-2.9l0.4-1.2l-6.1-15.4h3L1814.1,332.4z"/>
			<path class="st1" d="M1829.4,338.7c1.7-0.7,2.1-1.5,2.1-3.2h-2.3v-4h4.1v4c0,2.4-0.7,3.6-3.1,4.6L1829.4,338.7z"/>
			<path class="st1" d="M1872.6,335.5h-2.8c-0.1-0.9-0.2-1.9-0.2-2.8c-1,2.2-2.7,3.2-5.3,3.2c-3.1,0-5.2-1.9-5.2-4.6
				c0-1.6,0.7-2.9,2.2-3.7c1-0.6,2.7-1,5.3-1.3l2.8-0.3v-0.3c0-2.8-1-4-3.3-4c-2.2,0-3.5,1.1-3.6,3.1h-2.8c0.3-3.3,2.7-5.3,6.7-5.3
				c4,0,5.8,2,5.8,6.5v4.2C1872.1,332.7,1872.3,334.4,1872.6,335.5z M1865.8,328.4c-2.7,0.4-3.8,1.2-3.8,2.7c0,1.6,1.1,2.6,2.9,2.6
				c2.8,0,4.6-1.9,4.6-5v-0.8L1865.8,328.4z"/>
			<path class="st1" d="M1884.9,319.5c1.3,0,2.7,0.3,3.8,1.3c1,1,1.5,2.5,1.5,5v9.6h-2.7V326c0-3.4-1.7-4.1-3.2-4.1
				c-3.5,0-4.4,3.3-4.4,5.5v8.1h-2.6v-15.6h2.5v3.1C1880.5,321,1882.2,319.5,1884.9,319.5z"/>
			<path class="st1" d="M1907.2,312.9v22.6h-2.5v-2.9c-0.9,2-2.4,3.3-5,3.3c-3.9,0-6.4-3.2-6.4-8.2c0-4.9,2.7-8.1,6.8-8.1
				c2.1,0,3.6,1.2,4.4,2.7v-9.3H1907.2z M1900.4,321.9c-2.7,0-4.3,2.2-4.3,5.8c0,3.6,1.6,5.9,4.2,5.9c2.6,0,4.3-2.1,4.3-5.5v-0.7
				C1904.6,324,1902.9,321.9,1900.4,321.9z"/>
			<path class="st1" d="M1937.1,319.5c1.2,0,2.7,0.3,3.8,1.4c1,1,1.5,2.4,1.5,5v9.6h-2.7V326c0-3.4-1.7-4.1-3.4-4.1
				c-3.4,0-4.2,3.3-4.2,5.5v8.1h-2.6v-22.6h2.6v9.9C1933,320.9,1934.9,319.5,1937.1,319.5z"/>
			<path class="st1" d="M1960,328.4h-10.9c0,2.9,1.7,5.1,4.6,5.1c2.1,0,3.3-1.3,4.1-2.8l2.2,1.2c-1.3,2.6-3.4,3.9-6.4,3.9
				c-4.9,0-7.3-3.4-7.3-8.5c0-4.8,2.7-7.9,7.1-7.9c4.8,0,6.6,3.4,6.6,7.7C1960.1,327.6,1960,328,1960,328.4z M1953.3,321.6
				c-2.8,0-4.3,2.3-4.3,4.6h8.3C1957.4,323.7,1956.1,321.6,1953.3,321.6z"/>
			<path class="st1" d="M1553.2,361.3c1.3,0,2.7,0.3,3.8,1.3c1,1,1.5,2.5,1.5,5v9.6h-2.7v-9.5c0-3.4-1.7-4.1-3.2-4.1
				c-3.5,0-4.4,3.3-4.4,5.5v8.1h-2.6v-15.6h2.5v3.1C1548.8,362.8,1550.5,361.3,1553.2,361.3z"/>
			<path class="st1" d="M1575.9,370.1H1565c0,2.9,1.7,5.1,4.6,5.1c2.1,0,3.3-1.3,4.1-2.8l2.2,1.2c-1.3,2.6-3.4,3.9-6.4,3.9
				c-4.9,0-7.3-3.4-7.3-8.5c0-4.8,2.7-7.9,7.1-7.9c4.8,0,6.6,3.4,6.6,7.7C1576,369.3,1575.9,369.7,1575.9,370.1z M1569.2,363.3
				c-2.8,0-4.3,2.3-4.3,4.6h8.3C1573.3,365.4,1572,363.3,1569.2,363.3z"/>
			<path class="st1" d="M1593.4,370.1h-10.9c0,2.9,1.7,5.1,4.6,5.1c2.1,0,3.3-1.3,4.1-2.8l2.2,1.2c-1.3,2.6-3.4,3.9-6.4,3.9
				c-4.9,0-7.3-3.4-7.3-8.5c0-4.8,2.7-7.9,7.1-7.9c4.8,0,6.6,3.4,6.6,7.7C1593.4,369.3,1593.4,369.7,1593.4,370.1z M1586.7,363.3
				c-2.8,0-4.3,2.3-4.3,4.6h8.3C1590.8,365.4,1589.5,363.3,1586.7,363.3z"/>
			<path class="st1" d="M1610.4,354.6v22.6h-2.5v-2.9c-0.9,2-2.4,3.3-5,3.3c-3.9,0-6.4-3.2-6.4-8.2c0-4.9,2.7-8.1,6.8-8.1
				c2.1,0,3.6,1.2,4.4,2.7v-9.3H1610.4z M1603.6,363.6c-2.7,0-4.3,2.2-4.3,5.8c0,3.6,1.6,5.9,4.2,5.9c2.6,0,4.3-2.1,4.3-5.5v-0.7
				C1607.8,365.7,1606.2,363.6,1603.6,363.6z"/>
			<path class="st1" d="M1615.4,372.4l2.7-0.5c0.4,2.3,1.9,3.5,4.2,3.5c2.1,0,3.2-0.9,3.2-2.3c0-1.6-0.8-2.2-2.5-2.4l-2.5-0.3
				c-3.1-0.3-4.6-2.1-4.6-4.5c0-2.8,2.2-4.6,5.9-4.6c3.6,0,6,1.9,6.3,4.7l-2.6,0.6c-0.3-1.9-1.6-3.2-3.7-3.2c-2.1,0-3.3,0.8-3.3,2.3
				c0,1.3,0.9,2.2,2.8,2.4l2.5,0.3c3.1,0.3,4.3,2,4.3,4.4c0,3-2.2,4.8-6,4.8C1618.5,377.6,1616,375.8,1615.4,372.4z"/>
			<path class="st1" d="M1663.1,377.2h-2.8c-0.1-0.9-0.2-1.9-0.2-2.8c-1,2.2-2.7,3.2-5.3,3.2c-3.1,0-5.2-1.9-5.2-4.6
				c0-1.6,0.7-2.9,2.2-3.7c1-0.6,2.7-1,5.3-1.3l2.8-0.3v-0.3c0-2.8-1-4-3.3-4c-2.2,0-3.5,1.1-3.6,3.1h-2.8c0.3-3.3,2.7-5.3,6.7-5.3
				c4,0,5.8,2,5.8,6.5v4.2C1662.6,374.5,1662.8,376.1,1663.1,377.2z M1656.3,370.2c-2.7,0.4-3.8,1.2-3.8,2.7c0,1.6,1.1,2.6,2.9,2.6
				c2.8,0,4.6-1.9,4.6-5v-0.8L1656.3,370.2z"/>
			<path class="st1" d="M1688.1,364.4c0.8-1.8,2.7-3.1,4.8-3.1c4,0,6.4,3.4,6.4,8.1c0,4.9-2.5,8.2-6.5,8.2c-2.1,0-4-1.2-4.9-3.1
				l-0.5,2.7h-2v-22.6h2.7V364.4z M1692.2,375.3c2.7,0,4.3-2.3,4.3-5.9c0-3.5-1.5-5.8-4.3-5.8c-2.6,0-4.2,2.1-4.2,5.5v0.8
				C1688.1,373.1,1689.6,375.3,1692.2,375.3z"/>
			<path class="st1" d="M1713.3,361.3c1.1,0,2.2,0.1,2.8,0.3v2.5c-0.6-0.2-1.8-0.3-2.9-0.3c-3.7,0-6.7,2.6-6.7,7.6v5.8h-2.6v-15.6
				h2.6v4.1C1707.5,363.2,1710,361.3,1713.3,361.3z"/>
			<path class="st1" d="M1720.8,375h5v-11.2h-4.5v-2.2h7.2V375h5.3v2.2h-12.9V375z M1728.7,358.5h-3.7v-3.7h3.7V358.5z"/>
			<path class="st1" d="M1748.3,362.9c0.9,0.9,1.4,2.2,1.4,3.6c0,3.2-2.4,5.3-5.9,5.3c-1.1,0-2.1-0.2-2.9-0.6
				c-0.7,0.3-1.1,0.8-1.1,1.6c0,1,0.8,1.6,2.6,1.6h4c3.2,0,5.1,1.6,5.1,4.2c0,3.3-2.8,5.1-7.7,5.1c-4.4,0-7.1-1.5-7.1-4
				c0-1.7,1.1-2.9,2.7-3.5c-1.3-0.5-2-1.5-2-2.8c0-1.4,0.8-2.5,2.2-3c-1-0.9-1.6-2.2-1.6-3.8c0-3.2,2.3-5.4,5.8-5.4
				c1.2,0,2.2,0.2,3,0.7c0.6-1.8,1.8-2.9,3.8-2.9c0.3,0,0.7,0,1,0.1v2.3c-0.5-0.1-0.7-0.1-1.2-0.1
				C1749.5,361.4,1748.8,361.9,1748.3,362.9z M1742.4,376.7c-0.5,0-0.9,0-1.3-0.1c-1,0.5-1.7,1.3-1.7,2.4c0,1.7,1.5,2.5,4.7,2.5
				c3.3,0,4.8-0.9,4.8-2.6c0-1.4-1-2.2-3-2.2H1742.4z M1747.3,366.5c0-1.9-1.3-3.2-3.2-3.2c-1.9,0-3.3,1.4-3.3,3.3
				c0,1.9,1.3,3.2,3.2,3.2C1745.9,369.8,1747.3,368.4,1747.3,366.5z"/>
			<path class="st1" d="M1762.6,361.3c1.2,0,2.7,0.3,3.8,1.4c1,1,1.5,2.4,1.5,5v9.6h-2.7v-9.5c0-3.4-1.7-4.1-3.4-4.1
				c-3.4,0-4.2,3.3-4.2,5.5v8.1h-2.6v-22.6h2.6v9.9C1758.4,362.6,1760.3,361.3,1762.6,361.3z"/>
			<path class="st1" d="M1772,361.6h4.5v-4.1l2.6-1.1v5.2h6.1v2.2h-6.1v8.1c0,2.1,1,3.1,3,3.1c1,0,2.1-0.1,3.1-0.3v2.4
				c-0.8,0.2-1.7,0.4-3.1,0.4c-3.9,0-5.7-2.2-5.7-5.3v-8.4h-4.5V361.6z"/>
			<path class="st1" d="M1820.4,363.8h-5.9v13.4h-2.6v-13.4h-4.8v-2.2h4.8v-1.7c0-3.6,2-5.4,5.9-5.4c0.9,0,1.7,0.1,2.7,0.3v2.3
				c-0.7-0.1-1.5-0.2-2.7-0.2c-2.4,0-3.2,0.8-3.2,3.2v1.5h5.9V363.8z"/>
			<path class="st1" d="M1837.7,377.2h-2.8c-0.1-0.9-0.2-1.9-0.2-2.8c-1,2.2-2.7,3.2-5.3,3.2c-3.1,0-5.2-1.9-5.2-4.6
				c0-1.6,0.7-2.9,2.2-3.7c1-0.6,2.7-1,5.3-1.3l2.8-0.3v-0.3c0-2.8-1-4-3.3-4c-2.2,0-3.5,1.1-3.6,3.1h-2.8c0.3-3.3,2.7-5.3,6.7-5.3
				c4,0,5.8,2,5.8,6.5v4.2C1837.2,374.5,1837.4,376.1,1837.7,377.2z M1830.8,370.2c-2.7,0.4-3.8,1.2-3.8,2.7c0,1.6,1.1,2.6,2.9,2.6
				c2.8,0,4.6-1.9,4.6-5v-0.8L1830.8,370.2z"/>
			<path class="st1" d="M1841.6,369.3c0-4.6,2.4-8.1,7.3-8.1c3.5,0,6,2,6.3,5.6l-2.7,0.3c-0.3-2.3-1.6-3.6-3.8-3.6
				c-2.9,0-4.3,2.3-4.3,5.7c0,3.6,1.5,6,4.4,6c2.3,0,3.5-1.4,3.9-3.7l2.5,0.4c-0.5,3.2-2.5,5.7-6.4,5.7
				C1844,377.6,1841.6,374,1841.6,369.3z"/>
			<path class="st1" d="M1872.7,370.1h-10.9c0,2.9,1.7,5.1,4.6,5.1c2.1,0,3.3-1.3,4.1-2.8l2.2,1.2c-1.3,2.6-3.4,3.9-6.4,3.9
				c-4.9,0-7.3-3.4-7.3-8.5c0-4.8,2.7-7.9,7.1-7.9c4.8,0,6.6,3.4,6.6,7.7C1872.8,369.3,1872.7,369.7,1872.7,370.1z M1866,363.3
				c-2.8,0-4.3,2.3-4.3,4.6h8.3C1870.1,365.4,1868.8,363.3,1866,363.3z"/>
			<path class="st1" d="M1895.4,375h5v-18.2h-4.7v-2.2h7.3V375h5.3v2.2h-12.9V375z"/>
			<path class="st1" d="M1912.8,375h5v-11.2h-4.5v-2.2h7.2V375h5.3v2.2h-12.9V375z M1920.8,358.5h-3.7v-3.7h3.7V358.5z"/>
			<path class="st1" d="M1935.5,369.6l-2.8,2.9v4.8h-2.6v-22.6h2.6v14.7l7-7.7h3.5l-5.7,6l6.1,9.6h-3.3L1935.5,369.6z"/>
			<path class="st1" d="M1960,370.1h-10.9c0,2.9,1.7,5.1,4.6,5.1c2.1,0,3.3-1.3,4.1-2.8l2.2,1.2c-1.3,2.6-3.4,3.9-6.4,3.9
				c-4.9,0-7.3-3.4-7.3-8.5c0-4.8,2.7-7.9,7.1-7.9c4.8,0,6.6,3.4,6.6,7.7C1960.1,369.3,1960,369.7,1960,370.1z M1953.3,363.3
				c-2.8,0-4.3,2.3-4.3,4.6h8.3C1957.4,365.4,1956.1,363.3,1953.3,363.3z"/>
			<path class="st1" d="M1552.2,415.9l4.3-12.5h2.8l-6.2,16.6c-1.4,4-3.3,5.3-5.9,5.3c-0.5,0-0.9,0-1.4-0.1v-2.3
				c0.4,0,0.8,0.1,1.1,0.1c1.9,0,2.9-0.8,3.6-2.9l0.4-1.2l-6.1-15.4h3L1552.2,415.9z"/>
			<path class="st1" d="M1562.2,411.2c0-5,2.9-8.2,7.3-8.2s7.3,3.2,7.3,8.2c0,5-2.9,8.2-7.3,8.2S1562.2,416.1,1562.2,411.2z
				 M1573.9,411.2c0-3.6-1.7-5.9-4.5-5.9s-4.5,2.2-4.5,5.9c0,3.7,1.7,5.9,4.5,5.9S1573.9,414.8,1573.9,411.2z"/>
			<path class="st1" d="M1585.8,419.3c-1.4,0-2.9-0.3-4-1.4c-1-1-1.4-2.4-1.4-5v-9.6h2.7v9.5c0,3.4,1.6,4.1,3.2,4.1
				c3.3,0,4.1-3.3,4.1-5.5v-8.1h2.6V419h-2.5v-3C1589.9,417.6,1588.1,419.3,1585.8,419.3z"/>
			<path class="st1" d="M1608.5,403.1c1.1,0,2.2,0.1,2.8,0.3v2.5c-0.6-0.2-1.8-0.3-2.9-0.3c-3.7,0-6.7,2.6-6.7,7.6v5.8h-2.6v-15.6
				h2.6v4.1C1602.7,405,1605.3,403.1,1608.5,403.1z"/>
			<path class="st1" d="M1619.9,404c1.7-0.7,2.1-1.5,2.1-3.2h-2.3v-4h4.1v4c0,2.4-0.7,3.6-3.1,4.6L1619.9,404z"/>
			<path class="st1" d="M1632.9,414.2l2.7-0.5c0.4,2.3,1.9,3.5,4.2,3.5c2.1,0,3.2-0.9,3.2-2.3c0-1.6-0.8-2.2-2.5-2.4l-2.5-0.3
				c-3.1-0.3-4.6-2.1-4.6-4.5c0-2.8,2.2-4.6,5.9-4.6c3.6,0,6,1.9,6.3,4.7l-2.6,0.6c-0.3-1.9-1.6-3.2-3.7-3.2c-2.1,0-3.3,0.8-3.3,2.3
				c0,1.3,0.9,2.2,2.8,2.4l2.5,0.3c3.1,0.3,4.3,2,4.3,4.4c0,3-2.2,4.8-6,4.8C1635.9,419.3,1633.5,417.5,1632.9,414.2z"/>
			<path class="st1" d="M1667.3,403.4h4.5v-4.1l2.6-1.1v5.2h6.1v2.2h-6.1v8.1c0,2.1,1,3.1,3,3.1c1,0,2.1-0.1,3.1-0.3v2.4
				c-0.8,0.2-1.7,0.4-3.1,0.4c-3.9,0-5.7-2.2-5.7-5.3v-8.4h-4.5V403.4z"/>
			<path class="st1" d="M1684.4,411.2c0-5,2.9-8.2,7.3-8.2s7.3,3.2,7.3,8.2c0,5-2.9,8.2-7.3,8.2S1684.4,416.1,1684.4,411.2z
				 M1696.1,411.2c0-3.6-1.7-5.9-4.5-5.9s-4.5,2.2-4.5,5.9c0,3.7,1.7,5.9,4.5,5.9S1696.1,414.8,1696.1,411.2z"/>
			<path class="st1" d="M1733,419h-2.8c-0.1-0.9-0.2-1.9-0.2-2.8c-1,2.2-2.7,3.2-5.3,3.2c-3.1,0-5.2-1.9-5.2-4.6
				c0-1.6,0.7-2.9,2.2-3.7c1-0.6,2.7-1,5.3-1.3l2.8-0.3v-0.3c0-2.8-1-4-3.3-4c-2.2,0-3.5,1.1-3.6,3.1h-2.8c0.3-3.3,2.7-5.3,6.7-5.3
				c4,0,5.8,2,5.8,6.5v4.2C1732.4,416.2,1732.6,417.8,1733,419z M1726.1,411.9c-2.7,0.4-3.8,1.2-3.8,2.7c0,1.6,1.1,2.6,2.9,2.6
				c2.8,0,4.6-1.9,4.6-5v-0.8L1726.1,411.9z"/>
			<path class="st1" d="M1740.3,406.3c0.8-1.7,2.7-3.3,4.9-3.3c4.1,0,6.5,3.4,6.5,8.1c0,4.9-2.5,8.2-6.6,8.2c-1.9,0-3.9-1.2-4.6-2.8
				v8.5h-2.7v-21.7h2.5V406.3z M1744.6,417c2.7,0,4.3-2.3,4.3-5.9c0-3.5-1.4-5.8-4.2-5.8c-2.6,0-4.3,2.1-4.3,5.4v0.7
				C1740.4,414.8,1742,417,1744.6,417z"/>
			<path class="st1" d="M1757.8,406.3c0.8-1.7,2.7-3.3,4.9-3.3c4.1,0,6.5,3.4,6.5,8.1c0,4.9-2.5,8.2-6.6,8.2c-1.9,0-3.9-1.2-4.6-2.8
				v8.5h-2.7v-21.7h2.5V406.3z M1762.1,417c2.7,0,4.3-2.3,4.3-5.9c0-3.5-1.4-5.8-4.2-5.8c-2.6,0-4.3,2.1-4.3,5.4v0.7
				C1757.9,414.8,1759.5,417,1762.1,417z"/>
			<path class="st1" d="M1785.4,411.8h-10.9c0,2.9,1.7,5.1,4.6,5.1c2.1,0,3.3-1.3,4.1-2.8l2.2,1.2c-1.3,2.6-3.4,3.9-6.4,3.9
				c-4.9,0-7.3-3.4-7.3-8.5c0-4.8,2.7-7.9,7.1-7.9c4.8,0,6.6,3.4,6.6,7.7C1785.5,411,1785.4,411.4,1785.4,411.8z M1778.7,405.1
				c-2.8,0-4.3,2.3-4.3,4.6h8.3C1782.8,407.2,1781.5,405.1,1778.7,405.1z"/>
			<path class="st1" d="M1802.8,419h-2.8c-0.1-0.9-0.2-1.9-0.2-2.8c-1,2.2-2.7,3.2-5.3,3.2c-3.1,0-5.2-1.9-5.2-4.6
				c0-1.6,0.7-2.9,2.2-3.7c1-0.6,2.7-1,5.3-1.3l2.8-0.3v-0.3c0-2.8-1-4-3.3-4c-2.2,0-3.5,1.1-3.6,3.1h-2.8c0.3-3.3,2.7-5.3,6.7-5.3
				c4,0,5.8,2,5.8,6.5v4.2C1802.3,416.2,1802.4,417.8,1802.8,419z M1795.9,411.9c-2.7,0.4-3.8,1.2-3.8,2.7c0,1.6,1.1,2.6,2.9,2.6
				c2.8,0,4.6-1.9,4.6-5v-0.8L1795.9,411.9z"/>
			<path class="st1" d="M1818,403.1c1.1,0,2.2,0.1,2.8,0.3v2.5c-0.6-0.2-1.8-0.3-2.9-0.3c-3.7,0-6.7,2.6-6.7,7.6v5.8h-2.6v-15.6h2.6
				v4.1C1812.2,405,1814.8,403.1,1818,403.1z"/>
			<path class="st1" d="M1841.5,411.2c0-5,2.9-8.2,7.3-8.2s7.3,3.2,7.3,8.2c0,5-2.9,8.2-7.3,8.2S1841.5,416.1,1841.5,411.2z
				 M1853.2,411.2c0-3.6-1.7-5.9-4.5-5.9s-4.5,2.2-4.5,5.9c0,3.7,1.7,5.9,4.5,5.9S1853.2,414.8,1853.2,411.2z"/>
			<path class="st1" d="M1867.4,403c1.3,0,2.7,0.3,3.8,1.3c1,1,1.5,2.5,1.5,5v9.6h-2.7v-9.5c0-3.4-1.7-4.1-3.2-4.1
				c-3.5,0-4.4,3.3-4.4,5.5v8.1h-2.6v-15.6h2.5v3.1C1863.1,404.5,1864.8,403,1867.4,403z"/>
			<path class="st1" d="M1902.2,403c1.2,0,2.7,0.3,3.8,1.4c1,1,1.5,2.4,1.5,5v9.6h-2.7v-9.5c0-3.4-1.7-4.1-3.4-4.1
				c-3.4,0-4.2,3.3-4.2,5.5v8.1h-2.6v-22.6h2.6v9.9C1898.1,404.3,1900,403,1902.2,403z"/>
			<path class="st1" d="M1912.8,416.8h5v-11.2h-4.5v-2.2h7.2v13.4h5.3v2.2h-12.9V416.8z M1920.8,400.3h-3.7v-3.7h3.7V400.3z"/>
			<path class="st1" d="M1929.7,414.2l2.7-0.5c0.4,2.3,1.9,3.5,4.2,3.5c2.1,0,3.2-0.9,3.2-2.3c0-1.6-0.8-2.2-2.5-2.4l-2.5-0.3
				c-3.1-0.3-4.6-2.1-4.6-4.5c0-2.8,2.2-4.6,5.9-4.6c3.6,0,6,1.9,6.3,4.7l-2.6,0.6c-0.3-1.9-1.6-3.2-3.7-3.2c-2.1,0-3.3,0.8-3.3,2.3
				c0,1.3,0.9,2.2,2.8,2.4l2.5,0.3c3.1,0.3,4.3,2,4.3,4.4c0,3-2.2,4.8-6,4.8C1932.7,419.3,1930.3,417.5,1929.7,414.2z"/>
			<path class="st1" d="M1546,445.1l1.6,10.7l0.3,2.2h0.2c0.1-0.7,0.2-1.2,0.5-2.6l2-10.3h2.7l2,10.3c0.3,1.4,0.4,1.9,0.5,2.6h0.2
				l0.3-2.2l1.6-10.7h2.8l-3,15.6h-3.3l-2-10.1c-0.1-0.6-0.2-1.9-0.3-2.6h-0.2c0,0.6-0.2,1.9-0.3,2.6l-2,10.1h-3.3l-3-15.6H1546z"/>
			<path class="st1" d="M1575.9,453.6H1565c0,2.9,1.7,5.1,4.6,5.1c2.1,0,3.3-1.3,4.1-2.8l2.2,1.2c-1.3,2.6-3.4,3.9-6.4,3.9
				c-4.9,0-7.3-3.4-7.3-8.5c0-4.8,2.7-7.9,7.1-7.9c4.8,0,6.6,3.4,6.6,7.7C1576,452.8,1575.9,453.2,1575.9,453.6z M1569.2,446.8
				c-2.8,0-4.3,2.3-4.3,4.6h8.3C1573.3,448.9,1572,446.8,1569.2,446.8z"/>
			<path class="st1" d="M1583.4,447.8c0.8-1.8,2.7-3.1,4.8-3.1c4,0,6.4,3.4,6.4,8.1c0,4.9-2.5,8.2-6.5,8.2c-2.1,0-4-1.2-4.9-3.1
				l-0.5,2.7h-2v-22.6h2.7V447.8z M1587.4,458.7c2.7,0,4.3-2.3,4.3-5.9c0-3.5-1.5-5.8-4.3-5.8c-2.6,0-4.2,2.1-4.2,5.5v0.8
				C1583.3,456.6,1584.8,458.7,1587.4,458.7z"/>
			<path class="st1" d="M1598,455.9l2.7-0.5c0.4,2.3,1.9,3.5,4.2,3.5c2.1,0,3.2-0.9,3.2-2.3c0-1.6-0.8-2.2-2.5-2.4l-2.5-0.3
				c-3.1-0.3-4.6-2.1-4.6-4.5c0-2.8,2.2-4.6,5.9-4.6c3.6,0,6,1.9,6.3,4.7l-2.6,0.6c-0.3-1.9-1.6-3.2-3.7-3.2c-2.1,0-3.3,0.8-3.3,2.3
				c0,1.3,0.9,2.2,2.8,2.4l2.5,0.3c3.1,0.3,4.3,2,4.3,4.4c0,3-2.2,4.8-6,4.8C1601,461.1,1598.5,459.2,1598,455.9z"/>
			<path class="st1" d="M1616,458.5h5v-11.2h-4.5v-2.2h7.2v13.4h5.3v2.2H1616V458.5z M1624,442h-3.7v-3.7h3.7V442z"/>
			<path class="st1" d="M1632.3,445.1h4.5V441l2.6-1.1v5.2h6.1v2.2h-6.1v8.1c0,2.1,1,3.1,3,3.1c1,0,2.1-0.1,3.1-0.3v2.4
				c-0.8,0.2-1.7,0.4-3.1,0.4c-3.9,0-5.7-2.2-5.7-5.3v-8.4h-4.5V445.1z"/>
			<path class="st1" d="M1663.2,453.6h-10.9c0,2.9,1.7,5.1,4.6,5.1c2.1,0,3.3-1.3,4.1-2.8l2.2,1.2c-1.3,2.6-3.4,3.9-6.4,3.9
				c-4.9,0-7.3-3.4-7.3-8.5c0-4.8,2.7-7.9,7.1-7.9c4.8,0,6.6,3.4,6.6,7.7C1663.3,452.8,1663.2,453.2,1663.2,453.6z M1656.5,446.8
				c-2.8,0-4.3,2.3-4.3,4.6h8.3C1660.6,448.9,1659.3,446.8,1656.5,446.8z"/>
			<path class="st1" d="M1676.2,460.7h-4.1v-4h4.1V460.7z"/>
		</g>
	</g>
</g>
<g>
	<path class="st2" d="M632.8,331.6l11,41.2h43.3c18.1,0,32.7,14.6,32.7,32.7v93.5"/>
	<path class="st2" d="M613,331.6l-11,41.2H492.1c-7.4,0-13.5-6-13.5-13.5v-27.7h17.9c5.2,0,9.4-4.2,9.4-9.4v-21.6
		c0-4.4-3.5-7.9-7.9-7.9h0c-4.4,0-7.9,3.5-7.9,7.9v20.3"/>
	<g>
		<path class="st2" d="M627,262.1c2.5-3.3,4.2-7.4,4.3-10.8c0.1-4.4-6.2-5.6-7.7-1.5c0,0,0,0,0,0.1c-1.1,3.1-2.6,10.5-12,14
			c0,0-24.1,6-24.1,33.5c0,19.5,15.8,35.2,35.2,35.2s35.2-15.8,35.2-35.2c0-13.6-6.9-24.7-16.8-29.7"/>
		<path class="st2" d="M634.7,263.8c2.5-3.3,4.2-8.3,4.3-11.7c0.1-4.4-6.2-5.6-7.7-1.5"/>
		<path class="st2" d="M641.6,267.2c2.5-3.3,4.2-8.3,4.3-11.7c0.1-4.4-5.3-5.6-6.8-1.5"/>
	</g>
	<circle class="st2" cx="633.1" cy="294" r="1.3"/>
	<circle class="st2" cx="648.2" cy="294" r="1.3"/>
	<path class="st2" d="M639.1,300.6h4c1.9,0,3.4,1.5,3.4,3.4v0c0,1.9-1.5,3.4-3.4,3.4h-4"/>
	<line class="st2" x1="626.6" y1="316.9" x2="617.3" y2="316.9"/>
	<path class="st2" d="M606,307.6c-4.7,0-8.5-3.8-8.5-8.5c0-4.7,3.8-8.5,8.5-8.5"/>
</g>
<path class="st2" d="M550.1,495.6l142.2,0.7h0c74.1,0,134.2,60.1,134.2,134.2v49.3"/>
<path class="st2" d="M611.6,560.2l59.7,0.4h0c56.3,0,90,36.4,90,86.1v33.1"/>
<line class="st3" x1="506" y1="316.9" x2="593.4" y2="316.9"/>
<polyline class="st3" points="761.4,646.7 208.7,646.7 208.7,316.9 490.2,316.9 "/>
<polyline class="st3" points="652,316.9 788.1,316.9 788.1,536.4 "/>
<line class="st4" x1="772.7" y1="523" x2="772.7" y2="316.9"/>
<polyline class="st3" points="826.6,618.7 826.6,263.8 645.5,263.8 "/>
<line class="st3" x1="476.6" y1="679.8" x2="476.6" y2="747.3"/>
<line class="st2" x1="626.6" y1="560.3" x2="626.6" y2="646.7"/>
<path class="st2" d="M550.1,646.7V430H483c-34.2,0-61.9-27.7-61.9-61.9v-51.2"/>
<line class="st3" x1="688.4" y1="414.2" x2="688.4" y2="495.6"/>
<line class="st3" x1="688.4" y1="433.4" x2="720" y2="433.4"/>
<line class="st3" x1="519.9" y1="426.7" x2="519.9" y2="372.8"/>
<path class="st2" d="M761.4,679.8l82.1-88.8c8.8-9.5,23.6-10.2,33.3-1.5l0,0c9.8,8.8,10.5,23.9,1.6,33.6l-51.8,56.7"/>
<polyline class="st3" points="608.3,263.8 171.5,263.8 171.5,679.8 1039.5,679.8 1039.5,747.3 171.5,747.3 171.5,679.8 147.3,679.8 
	147.3,263.5 171.5,263.8 "/>
<line class="st3" x1="118" y1="747.3" x2="1791.1" y2="747.3"/>
<path class="st3" d="M1253,362.1"/>
<path class="st3" d="M1295.9,362.1"/>
<line class="st3" x1="1262.7" y1="287.2" x2="1250.9" y2="287.2"/>
<line class="st3" x1="1262.7" y1="293.1" x2="1250.9" y2="293.1"/>
<circle class="st3" cx="1271.5" cy="291.4" r="40.4"/>
<path class="st3" d="M1285,329.3l10.9,32.8l10.6,0.4c-7.2,11.4-20.6,18.5-32.8,18.5s-26.5-6.3-32.9-18.5"/>
<polyline class="st3" points="1260.6,330.1 1253,362.1 1219.4,362.1 "/>
<ellipse class="st2" cx="1234.1" cy="287.2" rx="12.2" ry="14.3"/>
<polyline class="st3" points="1234.1,272.9 1250.8,272.9 1250.8,301.5 1234.1,301.5 "/>
<ellipse class="st2" cx="1267.7" cy="287.2" rx="12.2" ry="14.3"/>
<polyline class="st3" points="1267.7,272.9 1284.5,272.9 1284.5,301.5 1267.7,301.5 "/>
<line class="st3" x1="1311.4" y1="287.2" x2="1285" y2="287.2"/>
<line class="st3" x1="1311.4" y1="293.1" x2="1285" y2="293.1"/>
<line class="st3" x1="1200" y1="705.7" x2="1343.8" y2="705.7"/>
<path class="st3" d="M1256.4,747.8c-14.3,0-21.9-10.1-21.9-20.2c0-13.5,6.7-21.9,24.1-21.6"/>
<line class="st3" x1="1322.8" y1="644.3" x2="1200" y2="644.3"/>
<polyline class="st3" points="1322.8,644.3 1322.8,527.7 1344,527.7 1344,510.2 1322.8,510.2 1322.8,362.5 1306.7,362.5 
	1306.7,408.3 1219.4,408.3 1219.4,362.5 1200,362.5 1200,418.2 "/>
<line class="st3" x1="1274" y1="705.7" x2="1274" y2="644.3"/>
<circle class="st3" cx="1285.1" cy="313.7" r="5.9"/>
<path class="st3" d="M1200.4,418.2V706h-15.3c0,0-21.2-2-21.2,21.6s20.7,20.1,20.7,20.1H1344V416.6h0c52.1,0,94.3-42.2,94.3-94.3
	v-2.2c0-52.1-42.2-94.3-94.3-94.3v-14.5c0-5.2-4.2-9.5-9.5-9.5h0c-5.2,0-9.5,4.2-9.5,9.5v41.3c0,8.2,6.7,14.9,14.9,14.9l0,0
	c26.2,0,47.5,21.3,47.5,47.5v0c0,26.2-21.3,47.5-47.5,47.5h-17.2"/>
<g>
	<path class="st3" d="M1344.1,201.9"/>
	<path class="st3" d="M1353.5,223.3v-11.9c0-5.2-4.2-9.5-9.5-9.5l0,0"/>
</g>
<g>
	<path class="st3" d="M1353.2,201.9"/>
	<path class="st3" d="M1362.7,223.3v-11.9c0-5.2-4.2-9.5-9.5-9.5l0,0"/>
</g>
<g>
	<path class="st3" d="M1363.6,217.6"/>
	<path class="st3" d="M1373.1,227.1c0-5.2-4.2-9.5-9.5-9.5l0,0"/>
</g>
<path class="st3" d="M1197,416.6L1197,416.6c-52.1,0-94.3-42.2-94.3-94.3v-2.2c0-52.1,42.2-94.3,94.3-94.3v-14.5
	c0-5.2,4.2-9.5,9.5-9.5h0c5.2,0,9.5,4.2,9.5,9.5v41.3c0,8.2-6.7,14.9-14.9,14.9l0,0c-26.2,0-47.5,21.3-47.5,47.5v0
	c0,26.2,21.3,47.5,47.5,47.5h17.2"/>
<g>
	<path class="st3" d="M1196.9,201.9"/>
	<path class="st3" d="M1187.5,223.3v-11.9c0-5.2,4.2-9.5,9.5-9.5l0,0"/>
</g>
<g>
	<path class="st3" d="M1187.8,201.9"/>
	<path class="st3" d="M1178.3,223.3v-11.9c0-5.2,4.2-9.5,9.5-9.5l0,0"/>
</g>
<g>
	<path class="st3" d="M1177.4,217.6"/>
	<path class="st3" d="M1167.9,227c0-5.2,4.2-9.5,9.5-9.5l0,0"/>
</g>
<line class="st2" x1="1227.3" y1="169.4" x2="1249.1" y2="220.4"/>
<line class="st2" x1="1313" y1="169.4" x2="1291.2" y2="220.4"/>
<line class="st2" x1="1270.5" y1="155.9" x2="1270.5" y2="209.6"/>
</svg>
