<svg width="1416" height="891" viewBox="0 0 1416 891" fill="none" xmlns="http://www.w3.org/2000/svg">
<path d="M957.12 585.971C986.243 627.121 994.346 663.303 977.993 679.668C956.194 701.485 894.714 675.332 840.679 621.254C786.645 567.176 760.499 505.646 782.312 483.83C802.729 463.396 857.984 485.052 909.31 532.336" stroke="#00BFFF" stroke-width="3" stroke-miterlimit="10" stroke-linecap="round" stroke-linejoin="round"/>
<path d="M642.664 262.483C665.549 262.483 684.156 281.118 684.156 304.008V703.19C684.156 726.094 665.536 744.715 642.664 744.715H243.211C220.325 744.715 201.719 726.081 201.719 703.19V304.022C201.719 281.118 220.339 262.496 243.211 262.496H642.664V262.483ZM642.664 258.455H243.211C218.071 258.455 197.694 278.849 197.694 304.008V703.19C197.694 728.35 218.071 748.743 243.211 748.743H642.664C667.803 748.743 688.18 728.35 688.18 703.19V304.022C688.18 278.849 667.803 258.455 642.664 258.455Z" fill="#00BFFF"/>
<path d="M570.197 368.169H308.433C283.294 368.169 262.917 347.775 262.917 322.616V162.288C262.917 137.129 283.294 116.735 308.433 116.735H570.197C595.336 116.735 615.713 137.129 615.713 162.288V322.616C615.713 347.775 595.336 368.169 570.197 368.169Z" fill="#D7F7FF" stroke="#00BFFF" stroke-width="3" stroke-miterlimit="10" stroke-linecap="round" stroke-linejoin="round"/>
<path d="M1168.27 262.483C1191.15 262.483 1209.76 281.118 1209.76 304.008V703.19C1209.76 726.094 1191.14 744.715 1168.27 744.715H768.829C745.943 744.715 727.337 726.081 727.337 703.19V304.022C727.337 281.118 745.957 262.496 768.829 262.496H1168.27V262.483ZM1168.27 258.455H768.829C743.69 258.455 723.312 278.849 723.312 304.008V703.19C723.312 728.35 743.69 748.743 768.829 748.743H1168.28C1193.42 748.743 1213.8 728.35 1213.8 703.19V304.022C1213.78 278.849 1193.41 258.455 1168.27 258.455Z" fill="#00BFFF"/>
<path d="M461.898 505.016H487.977" stroke="#00BFFF" stroke-width="3" stroke-miterlimit="10" stroke-linecap="round" stroke-linejoin="round"/>
<path d="M461.898 518.065H487.977" stroke="#00BFFF" stroke-width="3" stroke-miterlimit="10" stroke-linecap="round" stroke-linejoin="round"/>
<path d="M442.339 598.793C491.719 598.793 531.749 558.731 531.749 509.312C531.749 459.892 491.719 419.83 442.339 419.83C392.96 419.83 352.93 459.892 352.93 509.312C352.93 558.731 392.96 598.793 442.339 598.793Z" stroke="#00BFFF" stroke-width="3" stroke-miterlimit="10" stroke-linecap="round" stroke-linejoin="round"/>
<path d="M525.23 536.713C540.152 536.713 552.248 522.522 552.248 505.015C552.248 487.509 540.152 473.318 525.23 473.318C510.309 473.318 498.213 487.509 498.213 505.015C498.213 522.522 510.309 536.713 525.23 536.713Z" fill="white" stroke="#00BFFF" stroke-width="3" stroke-miterlimit="10" stroke-linecap="round" stroke-linejoin="round"/>
<path d="M525.23 473.318H488.098V536.713H525.23" stroke="#00BFFF" stroke-width="3" stroke-miterlimit="10" stroke-linecap="round" stroke-linejoin="round"/>
<path d="M450.724 536.713C465.646 536.713 477.742 522.522 477.742 505.015C477.742 487.509 465.646 473.318 450.724 473.318C435.803 473.318 423.707 487.509 423.707 505.015C423.707 522.522 435.803 536.713 450.724 536.713Z" fill="white" stroke="#00BFFF" stroke-width="3" stroke-miterlimit="10" stroke-linecap="round" stroke-linejoin="round"/>
<path d="M450.724 473.318H413.592V536.713H450.724" stroke="#00BFFF" stroke-width="3" stroke-miterlimit="10" stroke-linecap="round" stroke-linejoin="round"/>
<path d="M353.855 505.016H412.532" stroke="#00BFFF" stroke-width="3" stroke-miterlimit="10" stroke-linecap="round" stroke-linejoin="round"/>
<path d="M353.855 518.065H412.532" stroke="#00BFFF" stroke-width="3" stroke-miterlimit="10" stroke-linecap="round" stroke-linejoin="round"/>
<path d="M496.254 552.273C496.254 564.934 486.005 575.191 473.355 575.191C460.705 575.191 450.456 564.934 450.456 552.273" fill="#00BFFF"/>
<path d="M465.668 595.718L488.098 672.177H601.614C637.7 672.177 668.782 694.584 681.74 726.161C674.228 738.217 660.854 746.246 645.614 746.246H240.259C226.536 746.246 214.328 739.734 206.548 729.638C218.581 696.236 250.615 672.177 288.016 672.177H379.652L409.836 592.711" stroke="#00BFFF" stroke-width="3" stroke-miterlimit="10" stroke-linecap="round" stroke-linejoin="round"/>
<path d="M434.773 456.241C441.052 448.709 455.151 446.198 461.898 456.241" stroke="#00BFFF" stroke-width="3" stroke-miterlimit="10" stroke-linecap="round" stroke-linejoin="round"/>
<path d="M501.271 456.241C507.55 448.709 521.649 446.198 528.396 456.241" stroke="#00BFFF" stroke-width="3" stroke-miterlimit="10" stroke-linecap="round" stroke-linejoin="round"/>
<path d="M569.633 671.546V745.615" stroke="#00BFFF" stroke-width="3" stroke-miterlimit="10" stroke-linecap="round" stroke-linejoin="round"/>
<path d="M532.004 671.546V745.615" stroke="#00BFFF" stroke-width="3" stroke-miterlimit="10" stroke-linecap="round" stroke-linejoin="round"/>
<path d="M357.639 671.546V745.615" stroke="#00BFFF" stroke-width="3" stroke-miterlimit="10" stroke-linecap="round" stroke-linejoin="round"/>
<path d="M321.258 671.546V745.615" stroke="#00BFFF" stroke-width="3" stroke-miterlimit="10" stroke-linecap="round" stroke-linejoin="round"/>
<path d="M367.941 672.177C380.216 689.12 397.776 702.693 434.787 703.445C471.799 704.197 489.547 686.623 500.735 672.177" stroke="#00BFFF" stroke-width="3" stroke-miterlimit="10" stroke-linecap="round" stroke-linejoin="round"/>
<path d="M1130.37 260.966L893.104 552.273" stroke="#00BFFF" stroke-width="3" stroke-miterlimit="10" stroke-linecap="round" stroke-linejoin="round"/>
<path d="M899.704 544.151L869.279 513.702C869.279 513.702 847.011 488.932 824.366 509.929C801.722 530.927 821.59 552.287 821.59 552.287L870.607 601.344C870.607 601.344 904.01 642.869 942.551 601.344C981.092 559.819 1088.97 435.525 1088.97 435.525L1140.59 479.655C1141.1 480.165 1141.61 480.662 1142.14 481.158C1146.05 484.864 1171.77 498.303 1152.95 518.387C1152.95 518.387 1145.42 528.43 1136.8 541.452C1130.01 551.696 1131 564.209 1139.14 571.11C1158.8 587.744 1175.53 568.599 1183.05 561.067C1190.58 553.535 1210.65 521.381 1210.65 521.381" stroke="#00BFFF" stroke-width="3" stroke-miterlimit="10" stroke-linecap="round" stroke-linejoin="round"/>
<path d="M1000.58 536.565L1058.87 587.435C1058.87 587.435 1081.45 611.292 1109.04 576.131C1136.64 540.969 1136.64 540.982 1136.64 540.982" stroke="#00BFFF" stroke-width="3" stroke-miterlimit="10" stroke-linecap="round" stroke-linejoin="round"/>
<path d="M1036.88 495.242C1060.12 495.779 1084.1 506.815 1089.67 527.664C1089.67 527.664 1076.79 468.538 1140.59 479.655" stroke="#00BFFF" stroke-width="3" stroke-miterlimit="10" stroke-linecap="round" stroke-linejoin="round"/>
<path d="M1150.44 399.115L1210.65 452.924" stroke="#00BFFF" stroke-width="3" stroke-miterlimit="10" stroke-linecap="round" stroke-linejoin="round"/>
<path d="M1167.99 414.796L1212.54 354.837" stroke="#00BFFF" stroke-width="3" stroke-miterlimit="10" stroke-linecap="round" stroke-linejoin="round"/>
<path d="M937.185 475.694L722.683 301.189" stroke="#00BFFF" stroke-width="3" stroke-miterlimit="10" stroke-linecap="round" stroke-linejoin="round"/>
<path d="M1214.42 710.467L1083.96 605.009" stroke="#00BFFF" stroke-width="3" stroke-miterlimit="10" stroke-linecap="round" stroke-linejoin="round"/>
<path d="M814.775 420.636C814.963 436.827 802.004 450.118 785.813 450.306C769.635 450.494 756.354 437.525 756.166 421.321" stroke="#00BFFF" stroke-width="3" stroke-miterlimit="10" stroke-linecap="round" stroke-linejoin="round"/>
<path d="M870.178 441.607C864.517 456.777 847.641 464.497 832.482 458.845C817.324 453.179 809.61 436.29 815.258 421.119" stroke="#00BFFF" stroke-width="3" stroke-miterlimit="10" stroke-linecap="round" stroke-linejoin="round"/>
<path d="M917.989 476.902C908.545 490.059 890.233 493.053 877.087 483.602C863.94 474.15 860.949 455.824 870.393 442.667" stroke="#00BFFF" stroke-width="3" stroke-miterlimit="10" stroke-linecap="round" stroke-linejoin="round"/>
<path d="M1035.09 616.609C1020.61 623.858 1003.01 617.978 995.767 603.492C988.523 589.006 994.399 571.391 1008.87 564.142" stroke="#00BFFF" stroke-width="3" stroke-miterlimit="10" stroke-linecap="round" stroke-linejoin="round"/>
<path d="M1040.44 675.641C1024.33 677.185 1010.01 665.357 1008.48 649.233C1006.96 633.109 1018.76 618.784 1034.87 617.253" stroke="#00BFFF" stroke-width="3" stroke-miterlimit="10" stroke-linecap="round" stroke-linejoin="round"/>
<path d="M1029.6 734.096C1013.65 731.343 1002.96 716.159 1005.71 700.21C1008.46 684.247 1023.63 673.546 1039.57 676.299" stroke="#00BFFF" stroke-width="3" stroke-miterlimit="10" stroke-linecap="round" stroke-linejoin="round"/>
<path d="M1089.16 520.75C1089.16 520.75 1087.9 493.134 1100.44 487.119C1107.96 483.508 1128.68 474.083 1137.47 479.534C1146.25 484.971 1089.81 436.008 1089.81 436.008L1037.72 495.725C1037.72 495.725 1059.17 499.323 1069.44 503.619C1080.39 508.197 1089.16 520.75 1089.16 520.75Z" fill="#00BFFF"/>
<path d="M978.583 679.078L921.503 738.714L727.619 537.707L782.298 483.817" stroke="#00BFFF" stroke-width="3" stroke-miterlimit="10" stroke-linecap="round" stroke-linejoin="round"/>
<path d="M300.156 151.319V169.296H305.858V171.699H291.49V169.296H297.165V151.319H291.49V148.916H305.858V151.319H300.156Z" fill="#00BFFF"/>
<path d="M340.977 156.931C341.903 157.858 342.426 159.146 342.426 160.65C342.426 163.926 339.985 166.141 336.389 166.141C335.263 166.141 334.243 165.913 333.411 165.497C332.741 165.819 332.285 166.369 332.285 167.108C332.285 168.101 333.116 168.719 334.941 168.719H339.072C342.413 168.719 344.304 170.357 344.304 173.082C344.304 176.452 341.38 178.345 336.376 178.345C331.815 178.345 329.092 176.774 329.092 174.264C329.092 172.532 330.178 171.243 331.882 170.666C330.567 170.115 329.856 169.162 329.856 167.806C329.856 166.329 330.688 165.242 332.164 164.691C331.144 163.765 330.554 162.409 330.554 160.811C330.554 157.535 332.955 155.253 336.524 155.253C337.704 155.253 338.737 155.508 339.609 155.965C340.186 154.072 341.501 153.011 343.486 153.011C343.835 153.011 344.224 153.038 344.519 153.145V155.522C344.036 155.454 343.754 155.387 343.338 155.387C342.171 155.401 341.433 155.871 340.977 156.931ZM334.86 171.122C334.377 171.122 333.935 171.095 333.519 171.055C332.459 171.538 331.815 172.397 331.815 173.498C331.815 175.203 333.385 176.103 336.685 176.103C340.119 176.103 341.594 175.136 341.594 173.378C341.594 171.928 340.562 171.135 338.482 171.135H334.86V171.122ZM339.864 160.664C339.864 158.744 338.482 157.361 336.524 157.361C334.538 157.361 333.156 158.771 333.156 160.758C333.156 162.718 334.498 164.06 336.43 164.06C338.415 164.06 339.864 162.61 339.864 160.664Z" fill="#00BFFF"/>
<path d="M354.326 172.089C352.85 172.089 351.348 171.74 350.221 170.679C349.188 169.686 348.745 168.168 348.745 165.577V155.656H351.535V165.483C351.535 168.987 353.199 169.753 354.876 169.753C358.243 169.753 359.048 166.383 359.048 164.033V155.656H361.771V171.713H359.209V168.665C358.592 170.263 356.7 172.089 354.326 172.089Z" fill="#00BFFF"/>
<path d="M381.048 164.382H369.793C369.793 167.403 371.524 169.686 374.502 169.686C376.621 169.686 377.936 168.37 378.741 166.826L381.048 168.048C379.707 170.706 377.52 172.089 374.502 172.089C369.471 172.089 367.003 168.625 367.003 163.362C367.003 158.448 369.82 155.266 374.314 155.266C379.224 155.266 381.115 158.797 381.115 163.161C381.102 163.55 381.075 163.966 381.048 164.382ZM374.18 157.388C371.255 157.388 369.78 159.791 369.78 162.14H378.285C378.352 159.563 377.064 157.388 374.18 157.388Z" fill="#00BFFF"/>
<path d="M386.749 166.759L389.512 166.275C389.928 168.625 391.431 169.833 393.805 169.833C395.952 169.833 397.146 168.934 397.146 167.43C397.146 165.819 396.314 165.121 394.583 164.933L391.981 164.638C388.802 164.288 387.299 162.489 387.299 160.019C387.299 157.092 389.606 155.266 393.389 155.266C397.052 155.266 399.52 157.186 399.869 160.14L397.172 160.744C396.824 158.824 395.509 157.468 393.322 157.468C391.203 157.468 389.955 158.341 389.955 159.871C389.955 161.254 390.854 162.087 392.839 162.315L395.402 162.61C398.581 162.959 399.828 164.638 399.828 167.175C399.828 170.223 397.588 172.089 393.671 172.089C389.861 172.089 387.326 170.196 386.749 166.759Z" fill="#00BFFF"/>
<path d="M405.678 166.759L408.441 166.275C408.857 168.625 410.373 169.833 412.734 169.833C414.88 169.833 416.074 168.934 416.074 167.43C416.074 165.819 415.242 165.121 413.512 164.933L410.909 164.638C407.73 164.288 406.228 162.489 406.228 160.019C406.228 157.092 408.535 155.266 412.318 155.266C415.98 155.266 418.449 157.186 418.797 160.14L416.101 160.744C415.752 158.824 414.438 157.468 412.251 157.468C410.131 157.468 408.884 158.341 408.884 159.871C408.884 161.254 409.783 162.087 411.768 162.315L414.33 162.61C417.51 162.959 418.757 164.638 418.757 167.175C418.757 170.223 416.517 172.089 412.6 172.089C408.79 172.089 406.255 170.196 405.678 166.759Z" fill="#00BFFF"/>
<path d="M444.124 169.457H449.262V157.898H444.607V155.656H451.985V169.457H457.405V171.699H444.124V169.457ZM452.28 152.447H448.43V148.594H452.28V152.447Z" fill="#00BFFF"/>
<path d="M461.872 155.656H466.46V151.454L469.183 150.299V155.656H475.434V157.871H469.183V166.182C469.183 168.33 470.216 169.363 472.269 169.363C473.328 169.363 474.455 169.269 475.448 169.081V171.579C474.616 171.767 473.717 171.995 472.309 171.995C468.298 171.995 466.473 169.753 466.473 166.571V157.871H461.885V155.656H461.872Z" fill="#00BFFF"/>
<path d="M485.951 156.287C487.749 155.522 488.098 154.783 488.098 153.011H485.75V148.903H490.016V153.011C490.016 155.481 489.251 156.77 486.77 157.764L485.951 156.287Z" fill="#00BFFF"/>
<path d="M500.292 166.759L503.055 166.275C503.471 168.625 504.974 169.833 507.348 169.833C509.495 169.833 510.689 168.934 510.689 167.43C510.689 165.819 509.857 165.121 508.126 164.933L505.524 164.638C502.344 164.288 500.842 162.489 500.842 160.019C500.842 157.092 503.149 155.266 506.932 155.266C510.595 155.266 513.063 157.186 513.412 160.14L510.715 160.744C510.367 158.824 509.052 157.468 506.865 157.468C504.746 157.468 503.498 158.341 503.498 159.871C503.498 161.254 504.397 162.087 506.382 162.315L508.945 162.61C512.124 162.959 513.372 164.638 513.372 167.175C513.372 170.223 511.131 172.089 507.214 172.089C503.404 172.089 500.869 170.196 500.292 166.759Z" fill="#00BFFF"/>
<path d="M291.558 194.174H296.145V189.971L298.869 188.817V194.174H305.12V196.389H298.869V204.699C298.869 206.847 299.902 207.881 301.954 207.881C303.014 207.881 304.141 207.787 305.133 207.599V210.096C304.302 210.284 303.403 210.513 301.994 210.513C297.983 210.513 296.159 208.271 296.159 205.089V196.389H291.571V194.174H291.558Z" fill="#00BFFF"/>
<path d="M311.666 207.975H316.804V196.416H312.149V194.174H319.527V207.975H324.947V210.217H311.666V207.975ZM319.809 190.965H315.959V187.112H319.809V190.965Z" fill="#00BFFF"/>
<path d="M334.083 193.784C335.652 193.784 336.873 194.845 337.423 196.711C338.187 194.845 339.636 193.784 341.206 193.784C343.191 193.784 344.989 195.167 344.989 198.564V210.217H342.266V198.792C342.266 196.738 341.3 196.188 340.374 196.188C338.483 196.188 337.812 197.57 337.812 199.584V210.204H335.156V198.779C335.156 196.819 334.284 196.174 333.264 196.174C331.4 196.174 330.769 197.651 330.769 199.571V210.19H328.046V194.134H330.608V196.604C331.239 194.912 332.486 193.784 334.083 193.784Z" fill="#00BFFF"/>
<path d="M362.12 202.9H350.864C350.864 205.921 352.595 208.203 355.587 208.203C357.706 208.203 359.021 206.888 359.826 205.344L362.133 206.566C360.791 209.224 358.605 210.607 355.587 210.607C350.556 210.607 348.074 207.143 348.074 201.88C348.074 196.966 350.891 193.784 355.385 193.784C360.295 193.784 362.187 197.315 362.187 201.679C362.187 202.068 362.146 202.484 362.12 202.9ZM355.251 195.906C352.327 195.906 350.851 198.309 350.851 200.658H359.356C359.423 198.081 358.149 195.906 355.251 195.906Z" fill="#00BFFF"/>
<path d="M386.172 194.174H390.76V189.971L393.483 188.817V194.174H399.734V196.389H393.483V204.699C393.483 206.847 394.516 207.881 396.568 207.881C397.628 207.881 398.755 207.787 399.748 207.599V210.096C398.916 210.284 398.017 210.513 396.609 210.513C392.598 210.513 390.773 208.271 390.773 205.089V196.389H386.185V194.174H386.172Z" fill="#00BFFF"/>
<path d="M404.738 202.189C404.738 197.087 407.716 193.784 412.21 193.784C416.704 193.784 419.682 197.087 419.682 202.189C419.682 207.291 416.704 210.593 412.21 210.593C407.73 210.607 404.738 207.237 404.738 202.189ZM416.812 202.189C416.812 198.43 415.108 196.147 412.224 196.147C409.34 196.147 407.636 198.389 407.636 202.189C407.636 205.988 409.34 208.23 412.224 208.23C415.108 208.23 416.812 205.988 416.812 202.189Z" fill="#00BFFF"/>
<path d="M446.445 196.966C447.317 195.1 449.235 193.784 451.382 193.784C455.513 193.784 457.995 197.288 457.995 202.162C457.995 207.17 455.46 210.607 451.288 210.607C449.141 210.607 447.156 209.425 446.284 207.465L445.801 210.231H443.722V186.964H446.445V196.966V196.966ZM450.644 208.203C453.434 208.203 455.097 205.827 455.097 202.162C455.097 198.604 453.528 196.187 450.697 196.187C447.974 196.187 446.364 198.336 446.364 201.799V202.632C446.378 205.988 447.947 208.203 450.644 208.203Z" fill="#00BFFF"/>
<path d="M467.869 210.607C466.393 210.607 464.891 210.258 463.764 209.197C462.731 208.203 462.288 206.686 462.288 204.095V194.174H465.078V204.001C465.078 207.505 466.742 208.271 468.419 208.271C471.786 208.271 472.591 204.901 472.591 202.551V194.174H475.314V210.231H472.752V207.183C472.135 208.781 470.243 210.607 467.869 210.607Z" fill="#00BFFF"/>
<path d="M481.98 207.975H487.118V196.416H482.463V194.174H489.842V207.975H495.261V210.217H481.98V207.975ZM490.123 190.965H486.273V187.112H490.123V190.965Z" fill="#00BFFF"/>
<path d="M500.896 207.975H506.033V189.193H501.217V186.951H508.757V207.975H514.176V210.217H500.896V207.975V207.975Z" fill="#00BFFF"/>
<path d="M531.951 186.951V210.217H529.389V207.237C528.423 209.318 526.92 210.607 524.291 210.607C520.28 210.607 517.678 207.264 517.678 202.162C517.678 197.127 520.468 193.784 524.707 193.784C526.894 193.784 528.423 194.966 529.228 196.55V186.951H531.951V186.951ZM524.962 196.188C522.198 196.188 520.562 198.403 520.562 202.162C520.562 205.881 522.199 208.203 524.855 208.203C527.578 208.203 529.281 206.015 529.281 202.551V201.813C529.281 198.376 527.618 196.188 524.962 196.188Z" fill="#00BFFF"/>
<path d="M305.281 248.735H302.424C302.29 247.836 302.196 246.775 302.169 245.808C301.109 248.05 299.379 249.111 296.749 249.111C293.57 249.111 291.356 247.151 291.356 244.385C291.356 242.72 292.121 241.432 293.597 240.599C294.656 240.022 296.387 239.606 299.043 239.284L301.968 238.934V238.639C301.968 235.779 300.908 234.531 298.533 234.531C296.253 234.531 294.911 235.685 294.777 237.713H291.853C292.148 234.276 294.643 232.289 298.721 232.289C302.853 232.289 304.718 234.343 304.718 238.961V243.298C304.744 245.889 304.905 247.554 305.281 248.735ZM298.198 241.458C295.408 241.848 294.254 242.64 294.254 244.251C294.254 245.889 295.381 246.882 297.272 246.882C300.157 246.882 302.021 244.895 302.021 241.74V240.935L298.198 241.458Z" fill="#00BFFF"/>
<path d="M318.816 232.302C320.131 232.302 321.606 232.651 322.693 233.685C323.753 234.679 324.236 236.223 324.236 238.827V248.749H321.513V238.975C321.513 235.471 319.782 234.705 318.172 234.705C314.55 234.705 313.678 238.075 313.678 240.358V248.735H310.955V232.678H313.517V235.86C314.362 233.846 316.12 232.302 318.816 232.302Z" fill="#00BFFF"/>
<path d="M329.052 240.72C329.052 235.618 332.03 232.316 336.524 232.316C341.018 232.316 343.996 235.618 343.996 240.72C343.996 245.822 341.018 249.124 336.524 249.124C332.03 249.124 329.052 245.755 329.052 240.72ZM341.112 240.72C341.112 236.961 339.408 234.679 336.524 234.679C333.64 234.679 331.936 236.921 331.936 240.72C331.936 244.506 333.64 246.762 336.524 246.762C339.408 246.762 341.112 244.506 341.112 240.72Z" fill="#00BFFF"/>
<path d="M348.329 232.692H352.917V228.489L355.64 227.335V232.692H361.891V234.907H355.64V243.217C355.64 245.365 356.673 246.399 358.726 246.399C359.785 246.399 360.912 246.305 361.905 246.117V248.614C361.073 248.802 360.174 249.031 358.766 249.031C354.755 249.031 352.93 246.788 352.93 243.607V234.907H348.343V232.692H348.329Z" fill="#00BFFF"/>
<path d="M375.494 232.302C376.782 232.302 378.311 232.651 379.438 233.712C380.457 234.706 381.007 236.209 381.007 238.814V248.735H378.284V238.975C378.284 235.471 376.514 234.706 374.823 234.706C371.322 234.706 370.463 238.075 370.463 240.358V248.735H367.74V225.469H370.463V235.618C371.201 233.685 373.187 232.302 375.494 232.302Z" fill="#00BFFF"/>
<path d="M399.963 241.418H388.708C388.708 244.439 390.438 246.721 393.417 246.721C395.536 246.721 396.851 245.406 397.656 243.862L399.963 245.083C398.622 247.742 396.435 249.124 393.417 249.124C388.386 249.124 385.904 245.661 385.904 240.398C385.904 235.484 388.721 232.302 393.215 232.302C398.125 232.302 400.017 235.833 400.017 240.196C400.03 240.586 400.003 241.002 399.963 241.418ZM393.108 234.423C390.184 234.423 388.708 236.827 388.708 239.176H397.213C397.267 236.598 395.992 234.423 393.108 234.423Z" fill="#00BFFF"/>
<path d="M416.516 232.369C417.67 232.369 418.73 232.504 419.401 232.692V235.229C418.757 235.068 417.576 234.907 416.423 234.907C412.573 234.907 409.501 237.538 409.501 242.774V248.749H406.777V232.692H409.474V236.867C410.547 234.33 413.176 232.369 416.516 232.369Z" fill="#00BFFF"/>
<path d="M451.181 232.302C452.468 232.302 453.998 232.651 455.125 233.712C456.144 234.706 456.694 236.209 456.694 238.814V248.735H453.971V238.975C453.971 235.471 452.213 234.706 450.51 234.706C447.009 234.706 446.15 238.075 446.15 240.358V248.735H443.427V225.469H446.15V235.618C446.888 233.685 448.873 232.302 451.181 232.302Z" fill="#00BFFF"/>
<path d="M467.869 249.125C466.393 249.125 464.891 248.775 463.764 247.715C462.731 246.721 462.288 245.204 462.288 242.613V232.692H465.078V242.519C465.078 246.023 466.742 246.788 468.419 246.788C471.786 246.788 472.591 243.419 472.591 241.069V232.692H475.314V248.749H472.752V245.688C472.135 247.299 470.243 249.125 467.869 249.125Z" fill="#00BFFF"/>
<path d="M485.469 232.302C487.039 232.302 488.259 233.363 488.809 235.229C489.574 233.363 491.023 232.302 492.592 232.302C494.578 232.302 496.375 233.685 496.375 237.082V248.735H493.652V237.31C493.652 235.256 492.686 234.705 491.761 234.705C489.869 234.705 489.198 236.088 489.198 238.102V248.722H486.542V237.297C486.542 235.336 485.67 234.692 484.651 234.692C482.786 234.692 482.142 236.169 482.142 238.089V248.708H479.419V232.651H481.981V235.122C482.625 233.43 483.873 232.302 485.469 232.302Z" fill="#00BFFF"/>
<path d="M513.438 248.735H510.581C510.447 247.836 510.353 246.775 510.326 245.808C509.266 248.05 507.536 249.111 504.906 249.111C501.727 249.111 499.514 247.151 499.514 244.385C499.514 242.72 500.278 241.432 501.754 240.599C502.814 240.022 504.544 239.606 507.2 239.284L510.125 238.934V238.639C510.125 235.779 509.065 234.531 506.691 234.531C504.41 234.531 503.069 235.685 502.934 237.713H500.01C500.292 234.276 502.8 232.289 506.878 232.289C511.01 232.289 512.875 234.343 512.875 238.961V243.298C512.902 245.889 513.063 247.554 513.438 248.735ZM506.355 241.458C503.565 241.848 502.411 242.64 502.411 244.251C502.411 245.889 503.538 246.882 505.43 246.882C508.314 246.882 510.178 244.895 510.178 241.74V240.935L506.355 241.458Z" fill="#00BFFF"/>
<path d="M526.974 232.302C528.289 232.302 529.765 232.651 530.851 233.685C531.911 234.679 532.394 236.223 532.394 238.827V248.749H529.671V238.975C529.671 235.471 527.94 234.705 526.33 234.705C522.708 234.705 521.836 238.075 521.836 240.358V248.735H519.113V232.678H521.676V235.86C522.521 233.846 524.278 232.302 526.974 232.302Z" fill="#00BFFF"/>
<path d="M546.801 248.735H542.535V244.627H546.801V248.735ZM543.045 225.952H546.291L545.782 242.774H543.568L543.045 225.952Z" fill="#00BFFF"/>
<path d="M295.408 264.47V284.689H306.314V287.253H292.43V264.457H295.408V264.47Z" fill="#00BFFF"/>
<path d="M324.277 279.936H313.022C313.022 282.957 314.752 285.239 317.744 285.239C319.863 285.239 321.178 283.924 321.983 282.38L324.29 283.601C322.949 286.26 320.762 287.642 317.744 287.642C312.713 287.642 310.231 284.179 310.231 278.916C310.231 274.002 313.049 270.82 317.543 270.82C322.452 270.82 324.344 274.351 324.344 278.714C324.344 279.104 324.304 279.52 324.277 279.936ZM317.408 272.941C314.484 272.941 313.008 275.345 313.008 277.694H321.513C321.58 275.13 320.293 272.941 317.408 272.941Z" fill="#00BFFF"/>
<path d="M329.4 271.21H333.988V267.007L336.711 265.853V271.21H342.963V273.425H336.711V281.735C336.711 283.883 337.744 284.917 339.797 284.917C340.857 284.917 341.983 284.823 342.976 284.635V287.132C342.144 287.32 341.246 287.548 339.837 287.548C335.826 287.548 334.002 285.306 334.002 282.125V273.425H329.414V271.21H329.4Z" fill="#00BFFF"/>
<path d="M353.494 271.854C355.292 271.089 355.641 270.35 355.641 268.578H353.293V264.47H357.559V268.578C357.559 271.048 356.794 272.337 354.313 273.331L353.494 271.854Z" fill="#00BFFF"/>
<path d="M367.834 282.312L370.597 281.829C371.013 284.179 372.516 285.387 374.89 285.387C377.037 285.387 378.23 284.487 378.23 282.984C378.23 281.373 377.399 280.675 375.668 280.487L373.066 280.191C369.886 279.842 368.384 278.043 368.384 275.573C368.384 272.646 370.691 270.82 374.474 270.82C378.137 270.82 380.605 272.74 380.954 275.694L378.257 276.298C377.908 274.378 376.594 273.022 374.407 273.022C372.288 273.022 371.04 273.895 371.04 275.425C371.04 276.808 371.939 277.64 373.924 277.869L376.487 278.164C379.666 278.513 380.913 280.191 380.913 282.729C380.913 285.776 378.673 287.642 374.756 287.642C370.946 287.642 368.411 285.749 367.834 282.312Z" fill="#00BFFF"/>
<path d="M418.824 287.253H415.967C415.832 286.354 415.739 285.293 415.712 284.326C414.652 286.568 412.922 287.629 410.292 287.629C407.113 287.629 404.899 285.669 404.899 282.903C404.899 281.238 405.664 279.95 407.14 279.117C408.199 278.54 409.93 278.124 412.586 277.801L415.511 277.452V277.157C415.511 274.297 414.451 273.049 412.076 273.049C409.796 273.049 408.454 274.203 408.32 276.231H405.396C405.691 272.794 408.186 270.807 412.264 270.807C416.396 270.807 418.261 272.861 418.261 277.479V281.816C418.287 284.407 418.435 286.072 418.824 287.253ZM411.741 279.976C408.951 280.366 407.797 281.158 407.797 282.769C407.797 284.407 408.924 285.4 410.815 285.4C413.7 285.4 415.564 283.413 415.564 280.258V279.453L411.741 279.976Z" fill="#00BFFF"/>
<path d="M423.761 279.131C423.761 274.351 426.202 270.82 431.233 270.82C434.788 270.82 437.363 272.874 437.739 276.566L434.949 276.889C434.667 274.512 433.312 273.197 431.032 273.197C428.08 273.197 426.578 275.573 426.578 279.104C426.578 282.769 428.08 285.239 431.139 285.239C433.486 285.239 434.734 283.83 435.11 281.386L437.712 281.802C437.202 285.078 435.11 287.642 431.139 287.642C426.269 287.642 423.761 283.95 423.761 279.131Z" fill="#00BFFF"/>
<path d="M442.943 271.21H447.531V267.007L450.254 265.853V271.21H456.506V273.425H450.254V281.735C450.254 283.883 451.287 284.917 453.34 284.917C454.4 284.917 455.526 284.823 456.519 284.635V287.132C455.687 287.32 454.789 287.548 453.38 287.548C449.369 287.548 447.545 285.306 447.545 282.125V273.425H442.957V271.21H442.943Z" fill="#00BFFF"/>
<path d="M463.053 285.011H468.191V273.452H463.536V271.21H470.914V285.011H476.333V287.253H463.053V285.011ZM471.196 268.001H467.345V264.148H471.196V268.001Z" fill="#00BFFF"/>
<path d="M479.982 271.209H482.84L487.039 282.192C487.361 282.997 487.642 283.803 487.844 284.474H487.978C488.139 283.803 488.367 282.997 488.689 282.192L493.022 271.209H495.812L489.359 287.266H486.408L479.982 271.209Z" fill="#00BFFF"/>
<path d="M513.438 287.253H510.581C510.447 286.354 510.353 285.293 510.326 284.326C509.266 286.568 507.536 287.629 504.906 287.629C501.727 287.629 499.514 285.669 499.514 282.903C499.514 281.238 500.278 279.95 501.754 279.117C502.814 278.54 504.544 278.124 507.2 277.801L510.125 277.452V277.157C510.125 274.297 509.065 273.049 506.691 273.049C504.41 273.049 503.069 274.203 502.934 276.231H500.01C500.292 272.794 502.8 270.807 506.878 270.807C511.01 270.807 512.875 272.861 512.875 277.479V281.816C512.902 284.407 513.063 286.072 513.438 287.253ZM506.355 279.976C503.565 280.366 502.411 281.158 502.411 282.769C502.411 284.407 503.538 285.4 505.43 285.4C508.314 285.4 510.178 283.413 510.178 280.258V279.453L506.355 279.976Z" fill="#00BFFF"/>
<path d="M518.644 271.21H523.231V267.007L525.955 265.853V271.21H532.206V273.425H525.955V281.735C525.955 283.883 526.988 284.917 529.04 284.917C530.1 284.917 531.227 284.823 532.219 284.635V287.132C531.388 287.32 530.489 287.548 529.08 287.548C525.069 287.548 523.245 285.306 523.245 282.125V273.425H518.657V271.21H518.644Z" fill="#00BFFF"/>
<path d="M551.349 279.936H540.094C540.094 282.957 541.824 285.239 544.803 285.239C546.922 285.239 548.237 283.924 549.042 282.38L551.349 283.601C550.008 286.26 547.821 287.642 544.803 287.642C539.772 287.642 537.304 284.179 537.304 278.916C537.304 274.002 540.121 270.82 544.615 270.82C549.525 270.82 551.416 274.351 551.416 278.714C551.416 279.104 551.389 279.52 551.349 279.936ZM544.494 272.941C541.57 272.941 540.094 275.345 540.094 277.694H548.599C548.653 275.13 547.378 272.941 544.494 272.941Z" fill="#00BFFF"/>
<path d="M300.599 303.82C298.801 304.585 298.452 305.324 298.452 307.096H300.8V311.204H296.534V307.096C296.534 304.626 297.299 303.337 299.781 302.343L300.599 303.82Z" fill="#00BFFF"/>
<path d="M326.235 302.988V305.552H319.084V325.771H316.066V305.552H308.916V302.988H326.235Z" fill="#00BFFF"/>
<path d="M343.875 325.771H340.897V315.366H332.177V325.771H329.199V302.974H332.177V312.856H340.897V302.974H343.875V325.771Z" fill="#00BFFF"/>
<path d="M362.186 305.552H351.857V312.842H361.636V315.339H351.857V323.207H362.414V325.771H348.879V302.974H362.186V305.552V305.552Z" fill="#00BFFF"/>
<path d="M400.995 305.552H390.022V312.842H400.123V315.406H390.022V325.771H387.044V302.974H400.995V305.552V305.552Z" fill="#00BFFF"/>
<path d="M408.951 302.988V323.207H419.857V325.771H405.973V302.974H408.951V302.988Z" fill="#00BFFF"/>
<path d="M435.083 319.192H427.155L425.075 325.771H422.124L429.435 302.974H432.829L440.14 325.771H437.189L435.083 319.192ZM427.959 316.628H434.278C432.829 312.104 431.769 308.318 431.166 305.619H431.099C430.495 308.318 429.408 312.104 427.959 316.628Z" fill="#00BFFF"/>
<path d="M458.693 302.988V305.552H451.542V325.771H448.524V305.552H441.374V302.988H458.693Z" fill="#00BFFF"/>
<path d="M477.621 302.988V305.552H470.471V325.771H467.453V305.552H460.303V302.988H477.621Z" fill="#00BFFF"/>
<path d="M494.644 305.552H484.315V312.842H494.094V315.339H484.315V323.207H494.872V325.771H481.337V302.974H494.644V305.552V305.552Z" fill="#00BFFF"/>
<path d="M511.198 321.475H511.266C511.198 320.71 511.198 319.864 511.198 319.031V302.974H514.177V325.771H510.675L503.525 309.365C502.975 308.116 502.492 306.666 502.492 306.666H502.398C502.465 307.271 502.465 307.955 502.465 308.627V325.771H499.487V302.974H503.404L510.112 318.481C510.716 319.931 511.064 320.991 511.198 321.475Z" fill="#00BFFF"/>
<path d="M532.487 305.552H522.158V312.842H531.937V315.339H522.158V323.207H532.715V325.771H519.18V302.974H532.487V305.552V305.552Z" fill="#00BFFF"/>
<path d="M544.615 316.239H540.443V325.771H537.465V302.974H544.776C549.686 302.974 552.476 305.378 552.476 309.62C552.476 312.708 550.678 314.95 547.633 315.755L553.187 325.771H549.887L544.615 316.239ZM540.443 313.862H544.642C547.687 313.862 549.324 312.386 549.324 309.687C549.324 306.962 547.687 305.485 544.642 305.485H540.443V313.862Z" fill="#00BFFF"/>
<path d="M561.651 310.372C563.449 309.607 563.798 308.868 563.798 307.096H561.45V302.988H565.716V307.096C565.716 309.566 564.951 310.855 562.47 311.849L561.651 310.372Z" fill="#00BFFF"/>
<path d="M584.645 325.771H580.379V321.663H584.645V325.771ZM580.889 302.988H584.135L583.625 319.81H581.412L580.889 302.988Z" fill="#00BFFF"/>
</svg>
