<svg width="1542" height="1226" viewBox="0 0 1542 1226" fill="none" xmlns="http://www.w3.org/2000/svg">
<path d="M1041.83 270.889H140.638C109.36 270.889 84 245.526 84 214.246V179.643C84 148.362 109.36 123 140.638 123H1041.83C1073.11 123 1098.47 148.362 1098.47 179.643V214.232C1098.47 245.526 1073.11 270.889 1041.83 270.889Z" fill="#FF931E"/>
<path d="M121.139 166.508C121.139 161.078 122.59 156.905 125.493 154.001C128.396 151.098 132.57 149.646 137.999 149.646H225.621C228.287 149.646 230.325 150.275 231.706 151.517C233.088 152.759 233.772 154.532 233.772 156.835C233.772 159.236 233.074 161.05 231.706 162.293C230.325 163.535 228.301 164.163 225.621 164.163H178.628V190.558H225.621C228.287 190.558 230.325 191.186 231.706 192.429C233.088 193.671 233.772 195.444 233.772 197.747C233.772 200.05 233.074 201.851 231.706 203.135C230.325 204.433 228.301 205.075 225.621 205.075H178.628V229.544C178.628 234.988 177.176 239.147 174.273 242.051C171.37 244.954 167.197 246.406 161.768 246.406H137.999C132.556 246.406 128.396 244.954 125.493 242.051C122.59 239.147 121.139 234.974 121.139 229.544V166.508Z" fill="white"/>
<path d="M242.062 166.369C242.062 160.939 243.514 156.793 246.417 153.932C249.32 151.07 253.493 149.646 258.923 149.646H282.691C288.121 149.646 292.294 151.07 295.197 153.932C298.1 156.793 299.552 160.939 299.552 166.369V231.749H346.545C349.211 231.749 351.248 232.392 352.63 233.69C354.012 234.988 354.71 236.774 354.71 239.078C354.71 241.478 354.012 243.293 352.63 244.535C351.248 245.778 349.225 246.406 346.545 246.406H258.923C253.479 246.406 249.32 244.954 246.417 242.051C243.514 239.147 242.062 234.974 242.062 229.544V166.369Z" fill="white"/>
<path d="M362.986 166.508C362.986 161.078 364.438 156.905 367.341 154.001C370.244 151.098 374.417 149.646 379.846 149.646H475.34C480.77 149.646 484.943 151.098 487.846 154.001C490.749 156.905 492.201 161.078 492.201 166.508V229.53C492.201 234.974 490.749 239.133 487.846 242.037C484.943 244.94 480.77 246.392 475.34 246.392H451.572C446.128 246.392 441.969 244.94 439.066 242.037C436.163 239.133 434.712 234.96 434.712 229.53V205.061H420.475V229.53C420.475 234.974 419.024 239.133 416.121 242.037C413.218 244.94 409.045 246.392 403.615 246.392H379.846C374.403 246.392 370.244 244.94 367.341 242.037C364.438 239.133 362.986 234.96 362.986 229.53V166.508ZM420.475 190.558H434.712V169.97C434.712 168.225 434.209 166.815 433.19 165.754C432.171 164.694 430.748 164.163 428.905 164.163H426.281C424.439 164.163 423.015 164.694 421.997 165.754C420.978 166.815 420.475 168.225 420.475 169.97V190.558Z" fill="white"/>
<path d="M500.49 156.835C500.49 154.532 501.202 152.759 502.626 151.517C504.049 150.275 506.059 149.646 508.641 149.646H619.474C622.056 149.646 624.038 150.275 625.42 151.517C626.801 152.759 627.499 154.532 627.499 156.835C627.499 159.236 626.801 161.05 625.42 162.293C624.038 163.535 622.056 164.163 619.474 164.163H592.816V229.544C592.816 234.988 591.364 239.147 588.461 242.051C585.558 244.954 581.385 246.406 575.956 246.406H552.187C546.744 246.406 542.585 244.954 539.682 242.051C536.778 239.147 535.327 234.974 535.327 229.544V164.163H508.655C506.073 164.163 504.077 163.535 502.64 162.293C501.202 161.05 500.49 159.236 500.49 156.835Z" fill="white"/>
<path d="M635.93 156.835C635.93 154.532 636.641 152.759 638.079 151.517C639.503 150.275 641.512 149.646 644.095 149.646H754.927C757.509 149.646 759.491 150.275 760.873 151.517C762.255 152.759 762.953 154.532 762.953 156.835C762.953 159.236 762.255 161.05 760.873 162.293C759.491 163.535 757.509 164.163 754.927 164.163H728.255V229.544C728.255 234.988 726.804 239.147 723.901 242.051C720.998 244.954 716.825 246.406 711.395 246.406H687.626C682.183 246.406 678.024 244.954 675.121 242.051C672.218 239.147 670.766 234.974 670.766 229.544V164.163H644.095C641.512 164.163 639.517 163.535 638.079 162.293C636.641 161.05 635.93 159.236 635.93 156.835Z" fill="white"/>
<path d="M771.369 217.512C771.369 212.082 772.611 207.936 775.096 205.075C777.58 202.214 781.125 200.79 785.731 200.79V195.262C781.125 195.262 777.58 193.811 775.096 190.907C772.611 188.004 771.369 183.83 771.369 178.401V166.508C771.369 161.078 772.821 156.905 775.724 154.001C778.627 151.098 782.8 149.646 788.229 149.646H875.851C878.517 149.646 880.555 150.275 881.937 151.517C883.318 152.759 884.016 154.532 884.016 156.835C884.016 159.236 883.318 161.05 881.937 162.293C880.555 163.535 878.531 164.163 875.851 164.163H828.858V190.014H875.851C878.517 190.014 880.555 190.642 881.937 191.884C883.318 193.127 884.016 194.899 884.016 197.202C884.016 199.603 883.318 201.418 881.937 202.66C880.555 203.902 878.531 204.531 875.851 204.531H828.858V231.903H875.851C878.517 231.903 880.555 232.531 881.937 233.773C883.318 235.016 884.016 236.788 884.016 239.091C884.016 241.492 883.318 243.307 881.937 244.549C880.555 245.791 878.531 246.42 875.851 246.42H788.229C782.786 246.42 778.627 244.968 775.724 242.065C772.821 239.161 771.369 234.988 771.369 229.558V217.512Z" fill="white"/>
<path d="M892.711 166.508C892.711 161.078 894.162 156.905 897.066 154.001C899.969 151.098 904.142 149.646 909.571 149.646H976.188C981.715 149.646 986 151.098 989.042 154.001C992.085 156.905 993.606 161.078 993.606 166.508V226.361C993.606 228.106 994.109 229.474 995.128 230.437C996.146 231.4 997.528 231.889 999.273 231.889H1001.76C1003.5 231.889 1004.87 231.4 1005.83 230.437C1006.8 229.474 1007.28 228.106 1007.28 226.361V166.508C1007.28 161.078 1008.74 156.905 1011.64 154.001C1014.54 151.098 1018.71 149.646 1024.14 149.646H1047.91C1053.34 149.646 1057.52 151.098 1060.42 154.001C1063.32 156.905 1064.77 161.078 1064.77 166.508V229.53C1064.77 234.974 1063.32 239.133 1060.42 242.037C1057.52 244.94 1053.34 246.392 1047.91 246.392H981.157C975.713 246.392 971.456 244.94 968.372 242.037C965.287 239.133 963.738 234.96 963.738 229.53V169.677C963.738 167.932 963.25 166.564 962.287 165.601C961.324 164.638 959.956 164.149 958.211 164.149H955.727C953.982 164.149 952.6 164.638 951.582 165.601C950.563 166.564 950.06 167.932 950.06 169.677V229.53C950.06 234.974 948.637 239.133 945.775 242.037C942.914 244.94 938.769 246.392 933.34 246.392H909.571C904.128 246.392 899.969 244.94 897.066 242.037C894.162 239.133 892.711 234.96 892.711 229.53V166.508Z" fill="white"/>
</svg>
