<svg width="1123" height="1000" viewBox="0 0 1123 1000" fill="none" xmlns="http://www.w3.org/2000/svg">
<path d="M565.174 290.574V629.846H407.707C399.651 629.846 393.127 623.325 393.127 615.273C393.127 607.221 399.651 600.7 407.707 600.7H564.564" stroke="#00BFFF" stroke-width="3" stroke-miterlimit="10" stroke-linecap="round"/>
<path d="M472.83 629.686C464.774 629.686 458.25 623.165 458.25 615.113C458.25 607.061 464.774 600.54 472.83 600.54" stroke="#00BFFF" stroke-width="3" stroke-miterlimit="10" stroke-linecap="round"/>
<path d="M489.521 600.229V443.479H475.412" stroke="#00BFFF" stroke-width="3" stroke-miterlimit="10" stroke-linecap="round"/>
<path d="M485 211.422L475.187 248.032H429.143C403.197 248.032 382.157 269.062 382.157 294.996V399.031L381.761 464.659V479.125C381.761 482.605 384.707 485.913 388.424 485.913C392.141 485.913 395.152 483.087 395.152 479.607V463.224" stroke="#00BFFF" stroke-width="3" stroke-miterlimit="10" stroke-linecap="round"/>
<path d="M422.748 285.766V600.7" stroke="#00BFFF" stroke-width="3" stroke-miterlimit="10" stroke-linecap="round"/>
<path d="M422.748 339.636H382.232" stroke="#00BFFF" stroke-width="3" stroke-miterlimit="10" stroke-linecap="round"/>
<path d="M502.526 211.369L512.339 247.979H558.382C584.329 247.979 605.369 269.009 605.369 294.943V398.978V464.584V480.967C605.369 484.447 602.358 487.274 598.641 487.274C594.924 487.274 591.913 484.447 591.913 480.967V464.584" stroke="#00BFFF" stroke-width="3" stroke-miterlimit="10" stroke-linecap="round"/>
<path d="M565.742 339.583H605.294" stroke="#00BFFF" stroke-width="3" stroke-miterlimit="10" stroke-linecap="round"/>
<path d="M423.144 406.902H564.885" stroke="#00BFFF" stroke-width="3" stroke-miterlimit="10" stroke-linecap="round"/>
<path d="M512.339 247.979H475.412" stroke="#00BFFF" stroke-width="3" stroke-miterlimit="10" stroke-linecap="round"/>
<path d="M490.11 149.661C487.892 146.716 486.392 143.054 486.296 140.056C486.167 136.158 491.759 135.066 493.141 138.707C493.152 138.728 493.152 138.75 493.163 138.771C494.181 141.534 495.455 148.14 503.843 151.192L503.447 151.149C516.067 155.175 525.216 166.996 525.216 180.949C525.216 198.22 511.203 212.226 493.923 212.226C476.644 212.226 462.631 198.22 462.631 180.949C462.631 168.913 468.738 158.987 477.522 154.597" stroke="#00BFFF" stroke-width="3" stroke-miterlimit="10" stroke-linecap="round"/>
<path d="M483.243 151.181C481.025 148.237 479.525 143.804 479.429 140.805C479.3 136.908 484.892 135.816 486.274 139.456" stroke="#00BFFF" stroke-width="3" stroke-miterlimit="10" stroke-linecap="round"/>
<path d="M477.137 154.233C474.919 151.288 473.419 146.855 473.323 143.857C473.194 139.96 478.026 138.867 479.397 142.508" stroke="#00BFFF" stroke-width="3" stroke-miterlimit="10" stroke-linecap="round"/>
<path d="M578.576 464.584V480.967C578.576 484.447 581.586 487.274 585.304 487.274C589.021 487.274 592.031 484.447 592.031 480.967V464.584" stroke="#00BFFF" stroke-width="3" stroke-miterlimit="10" stroke-linecap="round"/>
<path d="M565.239 464.584V480.967C565.239 484.447 568.249 487.274 571.966 487.274C575.684 487.274 578.694 484.447 578.694 480.967V464.584" stroke="#00BFFF" stroke-width="3" stroke-miterlimit="10" stroke-linecap="round"/>
<path d="M408.489 463.213V479.596C408.489 483.076 405.479 485.903 401.761 485.903C398.044 485.903 395.034 483.076 395.034 479.596V463.213" stroke="#00BFFF" stroke-width="3" stroke-miterlimit="10" stroke-linecap="round"/>
<path d="M421.826 463.213V479.596C421.826 483.076 418.816 485.903 415.099 485.903C411.381 485.903 408.371 483.076 408.371 479.596V463.213" stroke="#00BFFF" stroke-width="3" stroke-miterlimit="10" stroke-linecap="round"/>
<path d="M484.689 179.193C485.334 179.193 485.857 178.67 485.857 178.026C485.857 177.381 485.334 176.858 484.689 176.858C484.044 176.858 483.521 177.381 483.521 178.026C483.521 178.67 484.044 179.193 484.689 179.193Z" stroke="#00BFFF" stroke-width="3" stroke-miterlimit="10" stroke-linecap="round"/>
<path d="M471.298 179.193C471.943 179.193 472.466 178.67 472.466 178.026C472.466 177.381 471.943 176.858 471.298 176.858C470.653 176.858 470.13 177.381 470.13 178.026C470.13 178.67 470.653 179.193 471.298 179.193Z" stroke="#00BFFF" stroke-width="3" stroke-miterlimit="10" stroke-linecap="round"/>
<path d="M479.322 183.818H475.797C474.148 183.818 472.809 185.157 472.809 186.806C472.809 188.455 474.148 189.793 475.797 189.793H479.322" stroke="#00BFFF" stroke-width="3" stroke-miterlimit="10" stroke-linecap="round"/>
<path d="M490.463 198.316H498.755" stroke="#00BFFF" stroke-width="3" stroke-miterlimit="10" stroke-linecap="round"/>
<path d="M508.771 190.082C512.949 190.082 516.345 186.688 516.345 182.512C516.345 178.336 512.949 174.941 508.771 174.941" stroke="#00BFFF" stroke-width="3" stroke-miterlimit="10" stroke-linecap="round"/>
<path d="M653.298 434.174C653.298 434.174 665.275 213.971 668.649 176.848C672.142 138.493 696.556 90.3725 743.821 68.9037C743.821 68.9037 824.585 29.1996 888.422 85.8646C888.422 85.8646 904.545 104.539 909.74 113.501C914.936 122.463 1050.3 361.716 1056.75 383.527C1063.2 405.339 653.298 434.174 653.298 434.174Z" fill="#1C2535"/>
<path d="M793.386 333.625C844.199 327.268 878.597 267.856 870.215 200.924C861.834 133.992 813.847 84.8858 763.034 91.2427C712.221 97.5996 677.823 157.012 686.205 223.944C694.586 290.876 742.573 339.982 793.386 333.625Z" fill="#6998F6"/>
<path d="M760.147 327.023L760.125 420.34L882.648 373.687L843.953 292.33" fill="#6998F6"/>
<path d="M864.232 205.277C883.301 205.277 898.76 189.826 898.76 170.766C898.76 151.706 883.301 136.255 864.232 136.255C845.163 136.255 829.705 151.706 829.705 170.766C829.705 189.826 845.163 205.277 864.232 205.277Z" fill="#6998F6"/>
<path d="M562.453 558.073L910.062 557.377L898.877 630.136H1094.95L1065.1 406.174C1061.77 381.161 1041.08 362.08 1015.87 360.752L872.92 353.246L760.147 369.832L661.075 404.397C650.191 408.198 641.085 415.865 635.514 425.951L562.453 558.073Z" fill="#FBF0E5"/>
<path d="M820.341 387.547C851.299 382.496 874.579 367.274 872.337 353.547C870.095 339.82 843.181 332.787 812.223 337.838C781.264 342.89 757.985 358.112 760.227 371.839C762.468 385.566 789.383 392.599 820.341 387.547Z" fill="#6998F6"/>
<path d="M717.178 220.781C721.337 220.781 724.709 215.484 724.709 208.949C724.709 202.415 721.337 197.117 717.178 197.117C713.019 197.117 709.647 202.415 709.647 208.949C709.647 215.484 713.019 220.781 717.178 220.781Z" fill="#1C2535"/>
<path d="M764.293 220.781C768.452 220.781 771.824 215.484 771.824 208.949C771.824 202.415 768.452 197.117 764.293 197.117C760.134 197.117 756.762 202.415 756.762 208.949C756.762 215.484 760.134 220.781 764.293 220.781Z" fill="#1C2535"/>
<path d="M732.347 210.78L730.044 272.842L747.484 263.077" stroke="#1C2535" stroke-width="6" stroke-miterlimit="10" stroke-linecap="round" stroke-linejoin="round"/>
<path d="M780.405 292.319C791.364 300.693 809.436 295.467 820.771 280.637C832.105 265.818 832.405 247.015 821.445 238.642L780.405 292.319Z" fill="#1C2535"/>
<path d="M700.734 503.217L673.523 554.818" stroke="#F8D089" stroke-width="6" stroke-miterlimit="10" stroke-linecap="round" stroke-linejoin="round"/>
<path d="M563.996 557.045H911.487C927.127 557.045 939.811 569.723 939.811 585.356V658.393C939.811 661.659 937.165 664.303 933.898 664.303C930.63 664.303 927.984 661.659 927.984 658.393V630.125H924.117V658.393C924.117 661.659 921.471 664.303 918.203 664.303H917.786C914.518 664.303 911.872 661.659 911.872 658.393V630.125H907.78V658.393C907.78 661.659 905.134 664.303 901.866 664.303H901.277C898.01 664.303 895.364 661.659 895.364 658.393V630.125H891.207V658.393C891.207 661.659 888.561 664.303 885.294 664.303H884.062C880.794 664.303 878.148 661.659 878.148 658.393V629.429H595.856C563.043 629.429 542.281 594.222 558.179 565.525L562.903 557.002" fill="#6998F6"/>
<path d="M893.329 630.832V658.725" stroke="black" stroke-width="6" stroke-miterlimit="10" stroke-linecap="round" stroke-linejoin="round"/>
<path d="M674.059 556.691H648.991" stroke="black" stroke-width="6" stroke-miterlimit="10" stroke-linecap="round" stroke-linejoin="round"/>
<path d="M910.072 630.832V658.725" stroke="black" stroke-width="6" stroke-miterlimit="10" stroke-linecap="round" stroke-linejoin="round"/>
<path d="M926.12 630.832V658.725" stroke="black" stroke-width="6" stroke-miterlimit="10" stroke-linecap="round" stroke-linejoin="round"/>
<path d="M878.074 629.986L238.756 629.836" stroke="#00BFFF" stroke-width="3" stroke-miterlimit="10" stroke-linecap="round"/>
<path d="M1057.34 630.553H939.747" stroke="#00BFFF" stroke-width="3" stroke-miterlimit="10" stroke-linecap="round"/>
<path d="M883.205 910.773H103.164C83.0882 910.773 66.8154 894.508 66.8154 874.442V783.426C66.8154 763.36 83.0882 747.095 103.164 747.095H883.194C903.27 747.095 919.542 763.36 919.542 783.426V874.442C919.553 894.508 903.28 910.773 883.205 910.773Z" fill="#D7F7FF" stroke="#00BFFF" stroke-width="3" stroke-miterlimit="10" stroke-linecap="round" stroke-linejoin="round"/>
<path d="M109.773 782.302C109.773 784.015 108.799 785.6 106.72 786.189C108.895 786.575 110.277 788.159 110.277 790.644C110.277 792.978 108.895 795.633 104.385 795.633H98.0322V777.452H103.849C108.541 777.462 109.773 780.15 109.773 782.302ZM100.421 785.397H103.828C106.849 785.397 107.342 783.78 107.342 782.474C107.342 780.964 106.677 779.422 103.828 779.422H100.421V785.397ZM100.421 793.674H104.235C106.977 793.674 107.845 792.143 107.845 790.419C107.845 788.673 106.87 787.346 104.492 787.346H100.421V793.674Z" fill="#00BFFF"/>
<path d="M117.615 795.944C116.437 795.944 115.237 795.665 114.337 794.819C113.512 794.027 113.159 792.828 113.159 790.75V782.837H115.387V790.675C115.387 793.47 116.715 794.08 118.054 794.08C120.743 794.08 121.386 791.393 121.386 789.519V782.837H123.561V795.644H121.515V793.213C121.022 794.487 119.511 795.944 117.615 795.944Z" fill="#00BFFF"/>
<path d="M127.653 782.838H131.317V779.486L133.492 778.565V782.838H138.484V784.605H133.492V791.233C133.492 792.946 134.317 793.77 135.956 793.77C136.802 793.77 137.702 793.695 138.495 793.535V795.537C137.83 795.687 137.113 795.869 135.988 795.869C132.785 795.869 131.328 794.081 131.328 791.543V784.605H127.664V782.838H127.653Z" fill="#00BFFF"/>
<path d="M157.777 791.703L159.984 791.318C160.316 793.192 161.516 794.155 163.412 794.155C165.126 794.155 166.08 793.438 166.08 792.239C166.08 790.954 165.416 790.397 164.034 790.236L161.955 790.001C159.416 789.722 158.217 788.288 158.217 786.317C158.217 783.983 160.059 782.527 163.08 782.527C166.005 782.527 167.976 784.058 168.254 786.414L166.101 786.896C165.823 785.364 164.773 784.283 163.027 784.283C161.334 784.283 160.338 784.979 160.338 786.2C160.338 787.302 161.055 787.966 162.641 788.148L164.687 788.373C167.226 788.652 168.222 789.99 168.222 792.014C168.222 794.444 166.433 795.933 163.305 795.933C160.263 795.944 158.238 794.434 157.777 791.703Z" fill="#00BFFF"/>
<path d="M178.721 782.538C179.749 782.538 180.97 782.816 181.87 783.662C182.695 784.454 183.124 785.664 183.124 787.731V795.644H180.949V787.859C180.949 785.065 179.546 784.454 178.185 784.454C175.389 784.454 174.704 787.142 174.704 788.962V795.644H172.529V777.087H174.704V785.182C175.293 783.63 176.878 782.538 178.721 782.538Z" fill="#00BFFF"/>
<path d="M186.691 789.241C186.691 785.172 189.07 782.538 192.658 782.538C196.247 782.538 198.625 785.172 198.625 789.241C198.625 793.31 196.247 795.944 192.658 795.944C189.07 795.944 186.691 793.256 186.691 789.241ZM196.322 789.241C196.322 786.242 194.962 784.422 192.658 784.422C190.355 784.422 188.995 786.21 188.995 789.241C188.995 792.271 190.355 794.059 192.658 794.059C194.962 794.059 196.322 792.26 196.322 789.241Z" fill="#00BFFF"/>
<path d="M210.923 782.581C211.845 782.581 212.691 782.688 213.227 782.838V784.861C212.713 784.733 211.77 784.604 210.848 784.604C207.774 784.604 205.321 786.703 205.321 790.879V795.644H203.146V782.838H205.299V786.168C206.156 784.144 208.256 782.581 210.923 782.581Z" fill="#00BFFF"/>
<path d="M216.633 782.838H220.297V779.486L222.472 778.565V782.838H227.464V784.605H222.472V791.233C222.472 792.946 223.297 793.77 224.936 793.77C225.782 793.77 226.682 793.695 227.475 793.535V795.537C226.81 795.687 226.093 795.869 224.968 795.869C221.765 795.869 220.308 794.081 220.308 791.543V784.605H216.644V782.838H216.633Z" fill="#00BFFF"/>
<path d="M232.414 793.845H236.517V778.876H232.671V777.087H238.691V793.856H243.019V795.644H232.414V793.845Z" fill="#00BFFF"/>
<path d="M252.179 793.106L255.735 782.837H258.071L252.95 796.458C251.772 799.713 250.24 800.783 248.086 800.783C247.701 800.783 247.315 800.762 246.908 800.676V798.76C247.24 798.781 247.551 798.813 247.829 798.813C249.393 798.813 250.186 798.117 250.775 796.436L251.107 795.494L246.115 782.848H248.579L252.179 793.106Z" fill="#00BFFF"/>
<path d="M286.92 795.644H284.638C284.531 794.926 284.456 794.081 284.435 793.31C283.588 795.098 282.207 795.944 280.107 795.944C277.568 795.944 275.8 794.38 275.8 792.185C275.8 790.858 276.411 789.83 277.589 789.166C278.436 788.705 279.818 788.373 281.939 788.116L284.274 787.838V787.613C284.274 785.332 283.428 784.337 281.532 784.337C279.71 784.337 278.639 785.257 278.532 786.874H276.197C276.432 784.133 278.425 782.548 281.682 782.548C284.981 782.548 286.47 784.187 286.47 787.87V791.329C286.481 793.363 286.609 794.691 286.92 795.644ZM281.253 789.83C279.025 790.14 278.104 790.772 278.104 792.057C278.104 793.363 279.003 794.155 280.514 794.155C282.817 794.155 284.306 792.571 284.306 790.054V789.412L281.253 789.83Z" fill="#00BFFF"/>
<path d="M301.821 784.604H296.958V795.644H294.783V784.604H290.862V782.838H294.783V781.424C294.783 778.501 296.422 776.991 299.604 776.991C300.343 776.991 300.964 777.066 301.832 777.248V779.165C301.264 779.09 300.579 778.961 299.604 778.961C297.654 778.961 296.969 779.625 296.969 781.574V782.827H301.832V784.604H301.821Z" fill="#00BFFF"/>
<path d="M305.614 782.838H309.278V779.486L311.452 778.565V782.838H316.444V784.605H311.452V791.233C311.452 792.946 312.277 793.77 313.916 793.77C314.763 793.77 315.662 793.695 316.455 793.535V795.537C315.791 795.687 315.073 795.869 313.948 795.869C310.745 795.869 309.288 794.081 309.288 791.543V784.605H305.624V782.838H305.614Z" fill="#00BFFF"/>
<path d="M331.453 789.808H322.465C322.465 792.217 323.847 794.027 326.225 794.027C327.918 794.027 328.968 792.978 329.61 791.746L331.453 792.721C330.382 794.841 328.636 795.944 326.225 795.944C322.208 795.944 320.226 793.181 320.226 788.984C320.226 785.065 322.476 782.527 326.065 782.527C329.985 782.527 331.496 785.343 331.496 788.823C331.507 789.133 331.485 789.465 331.453 789.808ZM325.979 784.219C323.643 784.219 322.465 786.135 322.465 788.009H329.257C329.3 785.964 328.282 784.219 325.979 784.219Z" fill="#00BFFF"/>
<path d="M344.394 782.581C345.315 782.581 346.162 782.688 346.697 782.838V784.861C346.183 784.733 345.24 784.604 344.319 784.604C341.245 784.604 338.791 786.703 338.791 790.879V795.644H336.617V782.838H338.77V786.168C339.627 784.144 341.727 782.581 344.394 782.581Z" fill="#00BFFF"/>
<path d="M365.499 798.428C367.341 798.834 367.909 798.781 368.445 798.781C370.448 798.781 371.337 798.064 371.337 795.526V784.615H366.473V782.827H373.522V795.654C373.522 798.545 372.398 800.773 368.734 800.773C367.502 800.773 366.484 800.623 365.509 800.312V798.428H365.499ZM373.715 780.278H370.641V777.205H373.715V780.278Z" fill="#00BFFF"/>
<path d="M384.546 795.944C383.367 795.944 382.168 795.665 381.268 794.819C380.443 794.027 380.089 792.828 380.089 790.75V782.837H382.318V790.675C382.318 793.47 383.646 794.08 384.985 794.08C387.674 794.08 388.317 791.393 388.317 789.519V782.837H390.491V795.644H388.445V793.213C387.963 794.487 386.442 795.944 384.546 795.944Z" fill="#00BFFF"/>
<path d="M395.055 791.703L397.262 791.318C397.594 793.192 398.793 794.155 400.69 794.155C402.404 794.155 403.357 793.438 403.357 792.239C403.357 790.954 402.693 790.397 401.311 790.236L399.233 790.001C396.694 789.722 395.494 788.288 395.494 786.317C395.494 783.983 397.337 782.527 400.358 782.527C403.282 782.527 405.253 784.058 405.532 786.414L403.379 786.896C403.1 785.364 402.05 784.283 400.304 784.283C398.611 784.283 397.615 784.979 397.615 786.2C397.615 787.302 398.333 787.966 399.918 788.148L401.964 788.373C404.503 788.652 405.5 789.99 405.5 792.014C405.5 794.444 403.711 795.933 400.582 795.933C397.54 795.944 395.515 794.434 395.055 791.703Z" fill="#00BFFF"/>
<path d="M409.421 782.838H413.085V779.486L415.259 778.565V782.838H420.252V784.605H415.259V791.233C415.259 792.946 416.084 793.77 417.723 793.77C418.57 793.77 419.469 793.695 420.262 793.535V795.537C419.598 795.687 418.88 795.869 417.755 795.869C414.552 795.869 413.095 794.081 413.095 791.543V784.605H409.432V782.838H409.421Z" fill="#00BFFF"/>
<path d="M450.911 779.508H442.148V785.322H450.215V787.367H442.148V795.633H439.77V777.452H450.911V779.508Z" fill="#00BFFF"/>
<path d="M454.854 793.845H458.957V778.876H455.111V777.087H461.131V793.856H465.459V795.644H454.854V793.845Z" fill="#00BFFF"/>
<path d="M479.707 795.644H477.425C477.318 794.926 477.243 794.081 477.222 793.31C476.376 795.098 474.994 795.944 472.894 795.944C470.355 795.944 468.587 794.38 468.587 792.185C468.587 790.858 469.198 789.83 470.376 789.166C471.223 788.705 472.605 788.373 474.726 788.116L477.061 787.838V787.613C477.061 785.332 476.215 784.337 474.319 784.337C472.498 784.337 471.426 785.257 471.319 786.874H468.984C469.219 784.133 471.212 782.548 474.469 782.548C477.768 782.548 479.257 784.187 479.257 787.87V791.329C479.268 793.363 479.397 794.691 479.707 795.644ZM474.04 789.83C471.812 790.14 470.891 790.772 470.891 792.057C470.891 793.363 471.791 794.155 473.301 794.155C475.604 794.155 477.093 792.571 477.093 790.054V789.412L474.04 789.83Z" fill="#00BFFF"/>
<path d="M483.575 782.838H487.238V779.486L489.413 778.565V782.838H494.405V784.605H489.413V791.233C489.413 792.946 490.238 793.77 491.877 793.77C492.723 793.77 493.623 793.695 494.416 793.535V795.537C493.752 795.687 493.034 795.869 491.909 795.869C488.706 795.869 487.249 794.081 487.249 791.543V784.605H483.585V782.838H483.575Z" fill="#00BFFF"/>
<path d="M512.928 777.462H518.252C523.244 777.462 525.987 781.274 525.987 786.521C525.987 791.714 522.987 795.633 518.198 795.633H512.917V777.462H512.928ZM518.177 793.642C521.605 793.642 523.533 790.29 523.533 786.521C523.533 782.656 521.766 779.454 518.231 779.454H515.306V793.642H518.177Z" fill="#00BFFF"/>
<path d="M539.078 789.808H530.09C530.09 792.217 531.472 794.027 533.85 794.027C535.542 794.027 536.592 792.978 537.235 791.746L539.078 792.721C538.006 794.841 536.26 795.944 533.85 795.944C529.832 795.944 527.861 793.181 527.861 788.984C527.861 785.065 530.111 782.527 533.7 782.527C537.621 782.527 539.131 785.343 539.131 788.823C539.121 789.133 539.099 789.465 539.078 789.808ZM533.593 784.219C531.257 784.219 530.079 786.135 530.079 788.009H536.871C536.924 785.964 535.896 784.219 533.593 784.219Z" fill="#00BFFF"/>
<path d="M543.352 791.703L545.559 791.318C545.891 793.192 547.091 794.155 548.987 794.155C550.701 794.155 551.654 793.438 551.654 792.239C551.654 790.954 550.99 790.397 549.608 790.236L547.53 790.001C544.991 789.722 543.791 788.288 543.791 786.317C543.791 783.983 545.634 782.527 548.655 782.527C551.579 782.527 553.551 784.058 553.829 786.414L551.676 786.896C551.397 785.364 550.347 784.283 548.601 784.283C546.909 784.283 545.912 784.979 545.912 786.2C545.912 787.302 546.63 787.966 548.216 788.148L550.262 788.373C552.801 788.652 553.797 789.99 553.797 792.014C553.797 794.444 552.008 795.933 548.88 795.933C545.837 795.944 543.813 794.434 543.352 791.703Z" fill="#00BFFF"/>
<path d="M558.671 793.845H562.774V784.625H559.057V782.837H564.949V793.845H569.277V795.633H558.671V793.845ZM565.174 780.278H562.099V777.205H565.174V780.278Z" fill="#00BFFF"/>
<path d="M581.8 783.865C582.539 784.604 582.957 785.632 582.957 786.831C582.957 789.444 581.007 791.211 578.136 791.211C577.237 791.211 576.422 791.029 575.758 790.697C575.223 790.954 574.858 791.393 574.858 791.982C574.858 792.774 575.522 793.267 576.99 793.267H580.29C582.957 793.267 584.468 794.573 584.468 796.747C584.468 799.434 582.132 800.944 578.136 800.944C574.505 800.944 572.319 799.691 572.319 797.689C572.319 796.308 573.187 795.28 574.548 794.819C573.498 794.38 572.93 793.62 572.93 792.539C572.93 791.361 573.594 790.493 574.773 790.054C573.958 789.316 573.487 788.234 573.487 786.96C573.487 784.347 575.405 782.527 578.254 782.527C579.197 782.527 580.022 782.73 580.707 783.094C581.168 781.585 582.218 780.739 583.804 780.739C584.082 780.739 584.393 780.76 584.628 780.846V782.741C584.243 782.688 584.018 782.634 583.686 782.634C582.743 782.634 582.154 783.019 581.8 783.865ZM576.904 795.183C576.519 795.183 576.165 795.162 575.833 795.13C574.987 795.515 574.473 796.201 574.473 797.079C574.473 798.439 575.726 799.156 578.361 799.156C581.104 799.156 582.282 798.385 582.282 796.982C582.282 795.826 581.457 795.194 579.797 795.194H576.904V795.183ZM580.9 786.831C580.9 785.3 579.797 784.197 578.233 784.197C576.647 784.197 575.544 785.322 575.544 786.917C575.544 788.48 576.615 789.551 578.158 789.551C579.743 789.551 580.9 788.395 580.9 786.831Z" fill="#00BFFF"/>
<path d="M594.034 782.538C595.084 782.538 596.262 782.816 597.13 783.64C597.976 784.433 598.362 785.664 598.362 787.742V795.654H596.187V787.87C596.187 785.075 594.805 784.465 593.52 784.465C590.627 784.465 589.931 787.153 589.931 788.973V795.654H587.756V782.837H589.802V785.375C590.477 783.758 591.891 782.538 594.034 782.538Z" fill="#00BFFF"/>
<path d="M617.785 782.837L619.092 791.618L619.349 793.438H619.531C619.638 792.849 619.713 792.442 619.938 791.286L621.598 782.837H623.827L625.487 791.286C625.723 792.442 625.798 792.849 625.894 793.438H626.076L626.333 791.618L627.64 782.837H629.922L627.437 795.644H624.694L623.034 787.378C622.927 786.864 622.83 785.793 622.798 785.279H622.616C622.595 785.793 622.488 786.864 622.391 787.378L620.731 795.644H617.988L615.503 782.837H617.785Z" fill="#00BFFF"/>
<path d="M642.831 795.644H640.549C640.442 794.926 640.367 794.081 640.345 793.31C639.499 795.098 638.117 795.944 636.017 795.944C633.479 795.944 631.711 794.38 631.711 792.185C631.711 790.858 632.322 789.83 633.5 789.166C634.346 788.705 635.728 788.373 637.86 788.116L640.195 787.838V787.613C640.195 785.332 639.349 784.337 637.453 784.337C635.632 784.337 634.561 785.257 634.453 786.874H632.118C632.354 784.133 634.346 782.548 637.603 782.548C640.903 782.548 642.392 784.187 642.392 787.87V791.329C642.392 793.363 642.52 794.691 642.831 795.644ZM637.174 789.83C634.946 790.14 634.025 790.772 634.025 792.057C634.025 793.363 634.925 794.155 636.435 794.155C638.739 794.155 640.228 792.571 640.228 790.054V789.412L637.174 789.83Z" fill="#00BFFF"/>
<path d="M647.159 791.703L649.366 791.318C649.698 793.192 650.898 794.155 652.794 794.155C654.508 794.155 655.462 793.438 655.462 792.239C655.462 790.954 654.797 790.397 653.415 790.236L651.337 790.012C648.798 789.733 647.598 788.298 647.598 786.328C647.598 783.994 649.441 782.538 652.462 782.538C655.387 782.538 657.358 784.069 657.636 786.424L655.483 786.906C655.204 785.375 654.155 784.294 652.408 784.294C650.716 784.294 649.72 784.99 649.72 786.21C649.72 787.313 650.437 787.977 652.023 788.159L654.069 788.384C656.608 788.662 657.604 790.001 657.604 792.025C657.604 794.455 655.815 795.944 652.687 795.944C649.645 795.944 647.62 794.434 647.159 791.703Z" fill="#00BFFF"/>
<path d="M668.188 782.538C669.238 782.538 670.417 782.816 671.284 783.64C672.131 784.433 672.516 785.664 672.516 787.742V795.654H670.342V787.87C670.342 785.075 668.96 784.465 667.674 784.465C664.782 784.465 664.085 787.153 664.085 788.973V795.654H661.911V782.837H663.957V785.375C664.632 783.758 666.035 782.538 668.188 782.538Z" fill="#00BFFF"/>
<path d="M680.486 783.352C681.922 782.741 682.2 782.152 682.2 780.739H680.326V777.462H683.732V780.739C683.732 782.709 683.122 783.737 681.14 784.529L680.486 783.352Z" fill="#00BFFF"/>
<path d="M691.188 782.838H694.852V779.486L697.027 778.565V782.838H702.019V784.605H697.027V791.233C697.027 792.946 697.841 793.77 699.48 793.77C700.326 793.77 701.226 793.695 702.019 793.535V795.537C701.355 795.687 700.637 795.869 699.512 795.869C696.309 795.869 694.852 794.081 694.852 791.543V784.605H691.188V782.838Z" fill="#00BFFF"/>
<path d="M731.865 789.808H722.877C722.877 792.217 724.259 794.027 726.637 794.027C728.329 794.027 729.379 792.978 730.022 791.746L731.865 792.721C730.793 794.841 729.047 795.944 726.637 795.944C722.62 795.944 720.648 793.181 720.648 788.984C720.648 785.065 722.898 782.527 726.487 782.527C730.408 782.527 731.918 785.343 731.918 788.823C731.918 789.133 731.886 789.465 731.865 789.808ZM726.38 784.219C724.044 784.219 722.866 786.135 722.866 788.009H729.658C729.711 785.964 728.683 784.219 726.38 784.219Z" fill="#00BFFF"/>
<path d="M742.342 782.538C743.392 782.538 744.57 782.816 745.438 783.64C746.284 784.433 746.67 785.664 746.67 787.742V795.654H744.495V787.87C744.495 785.075 743.113 784.465 741.828 784.465C738.935 784.465 738.239 787.153 738.239 788.973V795.654H736.064V782.837H738.111V785.375C738.775 783.758 740.189 782.538 742.342 782.538Z" fill="#00BFFF"/>
<path d="M750.227 789.241C750.227 785.172 752.605 782.538 756.194 782.538C759.782 782.538 762.161 785.172 762.161 789.241C762.161 793.31 759.782 795.944 756.194 795.944C752.605 795.944 750.227 793.256 750.227 789.241ZM759.857 789.241C759.857 786.242 758.497 784.422 756.194 784.422C753.89 784.422 752.53 786.21 752.53 789.241C752.53 792.271 753.89 794.059 756.194 794.059C758.497 794.059 759.857 792.26 759.857 789.241Z" fill="#00BFFF"/>
<path d="M770.131 795.944C768.952 795.944 767.753 795.665 766.853 794.819C766.028 794.027 765.674 792.828 765.674 790.75V782.837H767.903V790.675C767.903 793.47 769.231 794.08 770.57 794.08C773.259 794.08 773.902 791.393 773.902 789.519V782.837H776.076V795.644H774.03V793.213C773.538 794.487 772.027 795.944 770.131 795.944Z" fill="#00BFFF"/>
<path d="M789.414 783.865C790.153 784.604 790.571 785.632 790.571 786.831C790.571 789.444 788.621 791.211 785.75 791.211C784.85 791.211 784.036 791.029 783.372 790.697C782.836 790.954 782.472 791.393 782.472 791.982C782.472 792.774 783.136 793.267 784.593 793.267H787.893C790.56 793.267 792.071 794.573 792.071 796.747C792.071 799.434 789.735 800.944 785.739 800.944C782.097 800.944 779.922 799.691 779.922 797.689C779.922 796.308 780.79 795.28 782.151 794.819C781.101 794.38 780.533 793.62 780.533 792.539C780.533 791.361 781.197 790.493 782.376 790.054C781.551 789.316 781.09 788.234 781.09 786.96C781.09 784.347 783.008 782.527 785.857 782.527C786.8 782.527 787.625 782.73 788.321 783.094C788.782 781.585 789.832 780.739 791.417 780.739C791.696 780.739 792.006 780.76 792.231 780.846V782.741C791.846 782.688 791.621 782.634 791.289 782.634C790.367 782.634 789.778 783.019 789.414 783.865ZM784.529 795.183C784.143 795.183 783.79 795.162 783.458 795.13C782.611 795.515 782.097 796.201 782.097 797.079C782.097 798.439 783.35 799.156 785.986 799.156C788.728 799.156 789.907 798.385 789.907 796.982C789.907 795.826 789.092 795.194 787.421 795.194H784.529V795.183ZM788.514 786.831C788.514 785.3 787.411 784.197 785.846 784.197C784.261 784.197 783.158 785.322 783.158 786.917C783.158 788.48 784.229 789.551 785.771 789.551C787.368 789.551 788.514 788.395 788.514 786.831Z" fill="#00BFFF"/>
<path d="M801.584 782.538C802.612 782.538 803.833 782.816 804.733 783.662C805.558 784.454 805.987 785.664 805.987 787.731V795.644H803.812V787.859C803.812 785.065 802.398 784.454 801.048 784.454C798.252 784.454 797.566 787.142 797.566 788.962V795.644H795.392V777.087H797.566V785.182C798.145 783.63 799.741 782.538 801.584 782.538Z" fill="#00BFFF"/>
<path d="M835.693 784.604H830.829V795.644H828.655V784.604H824.734V782.838H828.655V781.424C828.655 778.501 830.294 776.991 833.476 776.991C834.215 776.991 834.836 777.066 835.704 777.248V779.165C835.136 779.09 834.45 778.961 833.476 778.961C831.526 778.961 830.84 779.625 830.84 781.574V782.827H835.704V784.604H835.693Z" fill="#00BFFF"/>
<path d="M839.207 789.241C839.207 785.172 841.585 782.538 845.174 782.538C848.763 782.538 851.141 785.172 851.141 789.241C851.141 793.31 848.763 795.944 845.174 795.944C841.585 795.944 839.207 793.256 839.207 789.241ZM848.838 789.241C848.838 786.242 847.477 784.422 845.174 784.422C842.871 784.422 841.51 786.21 841.51 789.241C841.51 792.271 842.871 794.059 845.174 794.059C847.477 794.059 848.838 792.26 848.838 789.241Z" fill="#00BFFF"/>
<path d="M863.44 782.581C864.361 782.581 865.207 782.688 865.743 782.838V784.861C865.229 784.733 864.286 784.604 863.365 784.604C860.29 784.604 857.837 786.703 857.837 790.879V795.644H855.662V782.838H857.815V786.168C858.672 784.144 860.772 782.581 863.44 782.581Z" fill="#00BFFF"/>
<path d="M98.4502 825.968L100.657 825.583C100.989 827.456 102.189 828.42 104.085 828.42C105.799 828.42 106.753 827.703 106.753 826.503C106.753 825.218 106.088 824.662 104.706 824.501L102.628 824.265C100.089 823.987 98.8894 822.552 98.8894 820.582C98.8894 818.248 100.732 816.792 103.753 816.792C106.678 816.792 108.649 818.323 108.927 820.678L106.774 821.16C106.495 819.629 105.446 818.548 103.699 818.548C102.007 818.548 101.011 819.244 101.011 820.464C101.011 821.567 101.728 822.231 103.314 822.413L105.36 822.638C107.899 822.916 108.895 824.255 108.895 826.279C108.895 828.709 107.106 830.198 103.978 830.198C100.936 830.208 98.9108 828.698 98.4502 825.968Z" fill="#00BFFF"/>
<path d="M112.538 823.505C112.538 819.436 114.916 816.802 118.505 816.802C122.093 816.802 124.472 819.436 124.472 823.505C124.472 827.574 122.093 830.208 118.505 830.208C114.927 830.208 112.538 827.521 112.538 823.505ZM122.168 823.505C122.168 820.507 120.808 818.687 118.505 818.687C116.201 818.687 114.841 820.475 114.841 823.505C114.841 826.536 116.201 828.324 118.505 828.324C120.808 828.324 122.168 826.525 122.168 823.505Z" fill="#00BFFF"/>
<path d="M131.392 816.802C132.645 816.802 133.62 817.648 134.059 819.137C134.67 817.648 135.827 816.802 137.08 816.802C138.666 816.802 140.102 817.905 140.102 820.614V829.908H137.927V820.796C137.927 819.158 137.155 818.719 136.416 818.719C134.906 818.719 134.37 819.822 134.37 821.439V829.908H132.249V820.796C132.249 819.233 131.553 818.719 130.739 818.719C129.249 818.719 128.735 819.897 128.735 821.439V829.908H126.561V817.102H128.607V819.072C129.11 817.691 130.117 816.802 131.392 816.802Z" fill="#00BFFF"/>
<path d="M153.493 824.073H144.505C144.505 826.482 145.887 828.292 148.265 828.292C149.957 828.292 151.007 827.242 151.65 826.011L153.493 826.985C152.421 829.105 150.675 830.208 148.265 830.208C144.247 830.208 142.266 827.446 142.266 823.248C142.266 819.329 144.515 816.792 148.104 816.792C152.025 816.792 153.535 819.608 153.535 823.088C153.546 823.398 153.525 823.73 153.493 824.073ZM148.018 818.483C145.683 818.483 144.505 820.4 144.505 822.274H151.296C151.35 820.229 150.322 818.483 148.018 818.483Z" fill="#00BFFF"/>
<path d="M183.103 829.908H180.821C180.714 829.191 180.639 828.345 180.617 827.574C179.771 829.362 178.389 830.208 176.289 830.208C173.751 830.208 171.983 828.645 171.983 826.45C171.983 825.122 172.594 824.094 173.772 823.43C174.618 822.97 176 822.638 178.121 822.381L180.457 822.103V821.878C180.457 819.597 179.61 818.601 177.714 818.601C175.893 818.601 174.822 819.522 174.715 821.139H172.379C172.615 818.398 174.608 816.813 177.864 816.813C181.164 816.813 182.653 818.451 182.653 822.135V825.593C182.674 827.628 182.803 828.955 183.103 829.908ZM177.446 824.094C175.218 824.405 174.297 825.036 174.297 826.321C174.297 827.628 175.197 828.42 176.707 828.42C179.01 828.42 180.5 826.835 180.5 824.319V823.677L177.446 824.094Z" fill="#00BFFF"/>
<path d="M189.637 819.49C190.302 818.076 191.844 816.802 193.655 816.802C197.008 816.802 198.979 819.597 198.979 823.484C198.979 827.478 196.933 830.219 193.526 830.219C191.941 830.219 190.355 829.245 189.766 827.885V834.898H187.591V817.102H189.637V819.49ZM193.173 828.292C195.401 828.292 196.686 826.396 196.686 823.473C196.686 820.636 195.508 818.708 193.258 818.708C191.105 818.708 189.723 820.421 189.723 823.163V823.773C189.712 826.503 191.019 828.292 193.173 828.292Z" fill="#00BFFF"/>
<path d="M204.464 819.49C205.128 818.076 206.671 816.802 208.481 816.802C211.835 816.802 213.806 819.597 213.806 823.484C213.806 827.478 211.76 830.219 208.353 830.219C206.767 830.219 205.182 829.245 204.593 827.885V834.898H202.418V817.102H204.464V819.49ZM207.999 828.292C210.228 828.292 211.513 826.396 211.513 823.473C211.513 820.636 210.335 818.708 208.085 818.708C205.932 818.708 204.55 820.421 204.55 823.163V823.773C204.539 826.503 205.846 828.292 207.999 828.292Z" fill="#00BFFF"/>
<path d="M217.576 828.11H221.679V813.14H217.833V811.352H223.854V828.12H228.182V829.908H217.576V828.11Z" fill="#00BFFF"/>
<path d="M232.414 828.109H236.517V818.89H232.799V817.102H238.691V828.109H243.019V829.898H232.414V828.109ZM238.916 814.543H235.842V811.47H238.916V814.543Z" fill="#00BFFF"/>
<path d="M246.083 823.43C246.083 819.618 248.033 816.802 252.05 816.802C254.889 816.802 256.946 818.44 257.246 821.385L255.017 821.642C254.782 819.747 253.711 818.698 251.889 818.698C249.533 818.698 248.333 820.593 248.333 823.409C248.333 826.332 249.533 828.302 251.975 828.302C253.85 828.302 254.846 827.178 255.146 825.229L257.224 825.561C256.817 828.174 255.146 830.219 251.975 830.219C248.086 830.208 246.083 827.264 246.083 823.43Z" fill="#00BFFF"/>
<path d="M272.083 829.908H269.801C269.694 829.191 269.619 828.345 269.598 827.574C268.752 829.362 267.37 830.208 265.27 830.208C262.731 830.208 260.963 828.645 260.963 826.45C260.963 825.122 261.574 824.094 262.752 823.43C263.599 822.97 264.981 822.638 267.102 822.381L269.437 822.103V821.878C269.437 819.597 268.591 818.601 266.695 818.601C264.874 818.601 263.802 819.522 263.695 821.139H261.36C261.595 818.398 263.588 816.813 266.845 816.813C270.144 816.813 271.633 818.451 271.633 822.135V825.593C271.655 827.628 271.773 828.955 272.083 829.908ZM266.427 824.094C264.199 824.405 263.277 825.036 263.277 826.321C263.277 827.628 264.177 828.42 265.688 828.42C267.991 828.42 269.48 826.835 269.48 824.319V823.677L266.427 824.094Z" fill="#00BFFF"/>
<path d="M275.95 817.102H279.614V813.75L281.789 812.83V817.102H286.781V818.869H281.789V825.497C281.789 827.21 282.614 828.034 284.253 828.034C285.099 828.034 285.999 827.96 286.792 827.799V829.801C286.127 829.951 285.41 830.133 284.285 830.133C281.082 830.133 279.625 828.345 279.625 825.807V818.869H275.961V817.102H275.95Z" fill="#00BFFF"/>
<path d="M291.73 828.109H295.833V818.89H292.116V817.102H298.008V828.109H302.336V829.898H291.73V828.109ZM298.233 814.543H295.159V811.47H298.233V814.543Z" fill="#00BFFF"/>
<path d="M305.335 823.505C305.335 819.436 307.714 816.802 311.302 816.802C314.891 816.802 317.269 819.436 317.269 823.505C317.269 827.574 314.891 830.208 311.302 830.208C307.714 830.208 305.335 827.521 305.335 823.505ZM314.966 823.505C314.966 820.507 313.606 818.687 311.302 818.687C308.999 818.687 307.639 820.475 307.639 823.505C307.639 826.536 308.999 828.324 311.302 828.324C313.606 828.324 314.966 826.525 314.966 823.505Z" fill="#00BFFF"/>
<path d="M327.104 816.802C328.154 816.802 329.332 817.081 330.2 817.905C331.046 818.697 331.432 819.929 331.432 822.006V829.919H329.257V822.135C329.257 819.34 327.875 818.73 326.59 818.73C323.697 818.73 323.001 821.417 323.001 823.238V829.919H320.826V817.102H322.872V819.64C323.537 818.023 324.951 816.802 327.104 816.802Z" fill="#00BFFF"/>
<path d="M335.738 825.968L337.945 825.583C338.277 827.456 339.477 828.42 341.373 828.42C343.087 828.42 344.041 827.703 344.041 826.503C344.041 825.218 343.376 824.662 341.995 824.501L339.916 824.265C337.377 823.987 336.178 822.552 336.178 820.582C336.178 818.248 338.02 816.792 341.041 816.792C343.966 816.792 345.937 818.323 346.215 820.678L344.062 821.16C343.784 819.629 342.734 818.548 340.988 818.548C339.295 818.548 338.299 819.244 338.299 820.464C338.299 821.567 339.016 822.231 340.602 822.413L342.648 822.638C345.187 822.916 346.183 824.255 346.183 826.279C346.183 828.709 344.394 830.198 341.266 830.198C338.213 830.208 336.199 828.698 335.738 825.968Z" fill="#00BFFF"/>
<path d="M357.475 829.908H354.068V826.632H357.475V829.908Z" fill="#00BFFF"/>
<path d="M386.624 813.643V827.981H391.188V829.897H379.714V827.981H384.246V813.643H379.714V811.727H391.188V813.643H386.624Z" fill="#00BFFF"/>
<path d="M394.594 817.102H398.258V813.75L400.433 812.83V817.102H405.425V818.869H400.433V825.497C400.433 827.21 401.258 828.034 402.897 828.034C403.743 828.034 404.643 827.96 405.436 827.799V829.801C404.771 829.951 404.054 830.133 402.929 830.133C399.726 830.133 398.269 828.345 398.269 825.807V818.869H394.605V817.102H394.594Z" fill="#00BFFF"/>
<path d="M427.986 816.802C429.24 816.802 430.214 817.648 430.654 819.137C431.264 817.648 432.421 816.802 433.675 816.802C435.26 816.802 436.696 817.905 436.696 820.614V829.908H434.521V820.796C434.521 819.158 433.75 818.719 433.011 818.719C431.5 818.719 430.964 819.822 430.964 821.439V829.908H428.843V820.796C428.843 819.233 428.147 818.719 427.333 818.719C425.844 818.719 425.34 819.897 425.34 821.439V829.908H423.155V817.102H425.201V819.072C425.715 817.691 426.711 816.802 427.986 816.802Z" fill="#00BFFF"/>
<path d="M440.027 828.109H444.13V818.89H440.413V817.102H446.305V828.109H450.633V829.898H440.027V828.109ZM446.53 814.543H443.455V811.47H446.53V814.543Z" fill="#00BFFF"/>
<path d="M454.372 825.968L456.579 825.583C456.911 827.456 458.111 828.42 460.007 828.42C461.721 828.42 462.674 827.703 462.674 826.503C462.674 825.218 462.01 824.662 460.628 824.501L458.55 824.265C456.011 823.987 454.811 822.552 454.811 820.582C454.811 818.248 456.654 816.792 459.675 816.792C462.599 816.792 464.571 818.323 464.849 820.678L462.696 821.16C462.417 819.629 461.368 818.548 459.621 818.548C457.929 818.548 456.932 819.244 456.932 820.464C456.932 821.567 457.65 822.231 459.236 822.413L461.282 822.638C463.821 822.916 464.817 824.255 464.817 826.279C464.817 828.709 463.028 830.198 459.9 830.198C456.857 830.208 454.833 828.698 454.372 825.968Z" fill="#00BFFF"/>
<path d="M469.198 825.968L471.405 825.583C471.737 827.456 472.937 828.42 474.833 828.42C476.547 828.42 477.501 827.703 477.501 826.503C477.501 825.218 476.836 824.662 475.455 824.501L473.376 824.265C470.837 823.987 469.637 822.552 469.637 820.582C469.637 818.248 471.48 816.792 474.501 816.792C477.426 816.792 479.397 818.323 479.675 820.678L477.522 821.16C477.244 819.629 476.194 818.548 474.448 818.548C472.755 818.548 471.759 819.244 471.759 820.464C471.759 821.567 472.476 822.231 474.062 822.413L476.108 822.638C478.647 822.916 479.643 824.255 479.643 826.279C479.643 828.709 477.854 830.198 474.726 830.198C471.684 830.208 469.659 828.698 469.198 825.968Z" fill="#00BFFF"/>
<path d="M494.587 824.073H485.599C485.599 826.482 486.981 828.292 489.36 828.292C491.052 828.292 492.102 827.242 492.745 826.011L494.587 826.985C493.516 829.105 491.77 830.208 489.36 830.208C485.342 830.208 483.371 827.446 483.371 823.248C483.371 819.329 485.621 816.792 489.21 816.792C493.13 816.792 494.641 819.608 494.641 823.088C494.641 823.398 494.609 823.73 494.587 824.073ZM489.102 818.483C486.767 818.483 485.589 820.4 485.589 822.274H492.381C492.434 820.229 491.406 818.483 489.102 818.483Z" fill="#00BFFF"/>
<path d="M509.028 811.341V829.898H506.982V827.521C506.211 829.18 505.011 830.208 502.911 830.208C499.708 830.208 497.63 827.542 497.63 823.473C497.63 819.458 499.858 816.792 503.243 816.792C504.99 816.792 506.211 817.734 506.854 818.997V811.341H509.028ZM503.447 818.719C501.24 818.719 499.933 820.486 499.933 823.484C499.933 826.45 501.24 828.302 503.361 828.302C505.536 828.302 506.896 826.568 506.896 823.794V823.205C506.907 820.454 505.568 818.719 503.447 818.719Z" fill="#00BFFF"/>
<path d="M539.024 829.908H536.742C536.635 829.191 536.56 828.345 536.539 827.574C535.692 829.362 534.311 830.208 532.211 830.208C529.672 830.208 527.904 828.645 527.904 826.45C527.904 825.122 528.515 824.094 529.693 823.43C530.54 822.97 531.922 822.638 534.043 822.381L536.378 822.103V821.878C536.378 819.597 535.532 818.601 533.636 818.601C531.814 818.601 530.743 819.522 530.636 821.139H528.301C528.536 818.398 530.529 816.813 533.786 816.813C537.085 816.813 538.574 818.451 538.574 822.135V825.593C538.585 827.628 538.713 828.955 539.024 829.908ZM533.368 824.094C531.14 824.405 530.218 825.036 530.218 826.321C530.218 827.628 531.118 828.42 532.629 828.42C534.932 828.42 536.421 826.835 536.421 824.319V823.677L533.368 824.094Z" fill="#00BFFF"/>
<path d="M564.306 816.802C565.335 816.802 566.556 817.081 567.456 817.927C568.281 818.719 568.709 819.929 568.709 821.995V829.908H566.535V822.124C566.535 819.329 565.12 818.719 563.771 818.719C560.975 818.719 560.289 821.407 560.289 823.227V829.908H558.114V811.352H560.278V819.447C560.867 817.894 562.464 816.802 564.306 816.802Z" fill="#00BFFF"/>
<path d="M577.344 830.208C576.165 830.208 574.965 829.93 574.066 829.084C573.251 828.292 572.887 827.092 572.887 825.015V817.102H575.115V824.94C575.115 827.735 576.444 828.345 577.783 828.345C580.472 828.345 581.115 825.658 581.115 823.784V817.102H583.289V829.908H581.243V827.478C580.75 828.752 579.24 830.208 577.344 830.208Z" fill="#00BFFF"/>
<path d="M591.12 816.802C592.374 816.802 593.349 817.648 593.788 819.137C594.399 817.648 595.556 816.802 596.809 816.802C598.394 816.802 599.83 817.905 599.83 820.614V829.908H597.655V820.796C597.655 819.158 596.884 818.719 596.145 818.719C594.634 818.719 594.099 819.822 594.099 821.439V829.908H591.978V820.796C591.978 819.233 591.281 818.719 590.467 818.719C588.978 818.719 588.464 819.897 588.464 821.439V829.908H586.289V817.102H588.335V819.072C588.839 817.691 589.835 816.802 591.12 816.802Z" fill="#00BFFF"/>
<path d="M613.178 829.908H610.896C610.789 829.191 610.714 828.345 610.693 827.574C609.846 829.362 608.464 830.208 606.365 830.208C603.826 830.208 602.058 828.645 602.058 826.45C602.058 825.122 602.669 824.094 603.847 823.43C604.693 822.97 606.075 822.638 608.197 822.381L610.532 822.103V821.878C610.532 819.597 609.686 818.601 607.789 818.601C605.968 818.601 604.897 819.522 604.79 821.139H602.454C602.679 818.398 604.683 816.813 607.939 816.813C611.239 816.813 612.728 818.451 612.728 822.135V825.593C612.739 827.628 612.867 828.955 613.178 829.908ZM607.511 824.094C605.283 824.405 604.361 825.036 604.361 826.321C604.361 827.628 605.261 828.42 606.772 828.42C609.075 828.42 610.564 826.835 610.564 824.319V823.677L607.511 824.094Z" fill="#00BFFF"/>
<path d="M623.698 816.802C624.748 816.802 625.926 817.081 626.794 817.905C627.64 818.697 628.026 819.929 628.026 822.006V829.919H625.851V822.135C625.851 819.34 624.469 818.73 623.184 818.73C620.291 818.73 619.595 821.417 619.595 823.238V829.919H617.42V817.102H619.467V819.64C620.141 818.023 621.545 816.802 623.698 816.802Z" fill="#00BFFF"/>
<path d="M646.495 823.43C646.495 819.618 648.445 816.802 652.462 816.802C655.301 816.802 657.358 818.44 657.658 821.385L655.43 821.642C655.205 819.747 654.123 818.698 652.301 818.698C649.945 818.698 648.745 820.593 648.745 823.409C648.745 826.332 649.945 828.302 652.376 828.302C654.251 828.302 655.247 827.178 655.547 825.229L657.626 825.561C657.219 828.174 655.547 830.219 652.376 830.219C648.488 830.208 646.495 827.264 646.495 823.43Z" fill="#00BFFF"/>
<path d="M661.247 823.505C661.247 819.436 663.625 816.802 667.214 816.802C670.802 816.802 673.181 819.436 673.181 823.505C673.181 827.574 670.802 830.208 667.214 830.208C663.625 830.208 661.247 827.521 661.247 823.505ZM670.877 823.505C670.877 820.507 669.517 818.687 667.214 818.687C664.91 818.687 663.55 820.475 663.55 823.505C663.55 826.536 664.91 828.324 667.214 828.324C669.517 828.324 670.877 826.525 670.877 823.505Z" fill="#00BFFF"/>
<path d="M683.015 816.802C684.065 816.802 685.243 817.081 686.111 817.905C686.957 818.697 687.343 819.929 687.343 822.006V829.919H685.168V822.135C685.168 819.34 683.786 818.73 682.501 818.73C679.608 818.73 678.912 821.417 678.912 823.238V829.919H676.737V817.102H678.783V819.64C679.458 818.023 680.872 816.802 683.015 816.802Z" fill="#00BFFF"/>
<path d="M697.852 816.802C698.902 816.802 700.08 817.081 700.948 817.905C701.794 818.697 702.18 819.929 702.18 822.006V829.919H700.005V822.135C700.005 819.34 698.623 818.73 697.338 818.73C694.445 818.73 693.749 821.417 693.749 823.238V829.919H691.574V817.102H693.62V819.64C694.285 818.023 695.699 816.802 697.852 816.802Z" fill="#00BFFF"/>
<path d="M717.039 824.073H708.051C708.051 826.482 709.433 828.292 711.811 828.292C713.503 828.292 714.553 827.242 715.196 826.011L717.039 826.985C715.967 829.105 714.221 830.208 711.811 830.208C707.793 830.208 705.822 827.446 705.822 823.248C705.822 819.329 708.072 816.792 711.661 816.792C715.582 816.792 717.092 819.608 717.092 823.088C717.081 823.398 717.06 823.73 717.039 824.073ZM711.554 818.483C709.218 818.483 708.04 820.4 708.04 822.274H714.832C714.885 820.229 713.857 818.483 711.554 818.483Z" fill="#00BFFF"/>
<path d="M720.649 823.43C720.649 819.618 722.599 816.802 726.616 816.802C729.455 816.802 731.512 818.44 731.812 821.385L729.583 821.642C729.348 819.747 728.276 818.698 726.455 818.698C724.098 818.698 722.899 820.593 722.899 823.409C722.899 826.332 724.098 828.302 726.541 828.302C728.416 828.302 729.412 827.178 729.712 825.229L731.79 825.561C731.383 828.174 729.712 830.219 726.541 830.219C722.642 830.208 720.649 827.264 720.649 823.43Z" fill="#00BFFF"/>
<path d="M735.679 817.102H739.343V813.75L741.517 812.83V817.102H746.509V818.869H741.517V825.497C741.517 827.21 742.342 828.034 743.981 828.034C744.827 828.034 745.727 827.96 746.52 827.799V829.801C745.856 829.951 745.138 830.133 744.013 830.133C740.81 830.133 739.353 828.345 739.353 825.807V818.869H735.689V817.102H735.679Z" fill="#00BFFF"/>
<path d="M751.459 828.109H755.562V818.89H751.845V817.102H757.737V828.109H762.065V829.898H751.459V828.109ZM757.962 814.543H754.887V811.47H757.962V814.543Z" fill="#00BFFF"/>
<path d="M765.053 823.505C765.053 819.436 767.431 816.802 771.02 816.802C774.609 816.802 776.987 819.436 776.987 823.505C776.987 827.574 774.609 830.208 771.02 830.208C767.431 830.208 765.053 827.521 765.053 823.505ZM774.684 823.505C774.684 820.507 773.323 818.687 771.02 818.687C768.717 818.687 767.356 820.475 767.356 823.505C767.356 826.536 768.717 828.324 771.02 828.324C773.323 828.324 774.684 826.525 774.684 823.505Z" fill="#00BFFF"/>
<path d="M786.832 816.802C787.882 816.802 789.061 817.081 789.928 817.905C790.775 818.697 791.16 819.929 791.16 822.006V829.919H788.986V822.135C788.986 819.34 787.604 818.73 786.318 818.73C783.426 818.73 782.729 821.417 782.729 823.238V829.919H780.555V817.102H782.601V819.64C783.265 818.023 784.679 816.802 786.832 816.802Z" fill="#00BFFF"/>
<path d="M802.376 829.908H798.97V826.632H802.376V829.908Z" fill="#00BFFF"/>
<path d="M833.497 824.661H827.166L825.506 829.908H823.149L828.987 811.727H831.708L837.547 829.908H835.19L833.497 824.661ZM827.809 822.606H832.855C831.698 818.997 830.862 815.977 830.369 813.825H830.316C829.834 815.977 828.966 818.997 827.809 822.606Z" fill="#00BFFF"/>
<path d="M846.149 816.802C847.199 816.802 848.378 817.081 849.245 817.905C850.092 818.697 850.477 819.929 850.477 822.006V829.919H848.303V822.135C848.303 819.34 846.921 818.73 845.635 818.73C842.743 818.73 842.046 821.417 842.046 823.238V829.919H839.872V817.102H841.918V819.64C842.593 818.023 843.996 816.802 846.149 816.802Z" fill="#00BFFF"/>
<path d="M864.95 811.341V829.898H862.904V827.521C862.133 829.18 860.933 830.208 858.833 830.208C855.63 830.208 853.552 827.542 853.552 823.473C853.552 819.458 855.78 816.792 859.165 816.792C860.911 816.792 862.133 817.734 862.775 818.997V811.341H864.95ZM859.369 818.719C857.162 818.719 855.855 820.486 855.855 823.484C855.855 826.45 857.162 828.302 859.283 828.302C861.458 828.302 862.818 826.568 862.818 823.794V823.205C862.818 820.454 861.49 818.719 859.369 818.719Z" fill="#00BFFF"/>
<path d="M97.9893 851.367H101.653V848.015L103.828 847.094V851.367H108.82V853.133H103.828V859.761C103.828 861.475 104.653 862.299 106.292 862.299C107.138 862.299 108.038 862.224 108.831 862.064V864.066C108.166 864.216 107.449 864.398 106.324 864.398C103.121 864.398 101.664 862.61 101.664 860.072V853.133H98V851.367H97.9893Z" fill="#00BFFF"/>
<path d="M119.404 851.067C120.432 851.067 121.654 851.345 122.553 852.191C123.378 852.984 123.807 854.194 123.807 856.26V864.173H121.632V856.389C121.632 853.594 120.218 852.984 118.868 852.984C116.072 852.984 115.387 855.671 115.387 857.492V864.173H113.212V845.617H115.387V853.712C115.976 852.159 117.561 851.067 119.404 851.067Z" fill="#00BFFF"/>
<path d="M132.441 864.473C131.263 864.473 130.063 864.194 129.163 863.349C128.338 862.556 127.985 861.357 127.985 859.28V851.367H130.213V859.205C130.213 861.999 131.542 862.61 132.881 862.61C135.57 862.61 136.212 859.922 136.212 858.048V851.367H138.387V864.173H136.341V861.742C135.848 863.017 134.338 864.473 132.441 864.473Z" fill="#00BFFF"/>
<path d="M142.94 860.233L145.147 859.847C145.479 861.721 146.679 862.685 148.575 862.685C150.289 862.685 151.242 861.967 151.242 860.768C151.242 859.483 150.578 858.926 149.196 858.766L147.118 858.53C144.579 858.252 143.379 856.817 143.379 854.847C143.379 852.512 145.222 851.056 148.243 851.056C151.167 851.056 153.139 852.587 153.417 854.943L151.264 855.425C150.985 853.894 149.935 852.812 148.189 852.812C146.497 852.812 145.5 853.508 145.5 854.729C145.5 855.832 146.218 856.496 147.804 856.678L149.85 856.903C152.389 857.181 153.385 858.519 153.385 860.543C153.385 862.974 151.596 864.462 148.468 864.462C145.425 864.473 143.401 862.963 142.94 860.233Z" fill="#00BFFF"/>
<path d="M172.882 851.367L174.189 860.147L174.446 861.967H174.629C174.736 861.378 174.811 860.971 175.036 859.815L176.696 851.367H178.924L180.585 859.815C180.821 860.971 180.896 861.378 180.992 861.967H181.174L181.431 860.147L182.738 851.367H185.02L182.535 864.173H179.792L178.132 855.907C178.025 855.393 177.928 854.322 177.896 853.808H177.714C177.692 854.322 177.585 855.393 177.489 855.907L175.828 864.173H173.086L170.601 851.367H172.882Z" fill="#00BFFF"/>
<path d="M197.982 858.337H188.994C188.994 860.747 190.376 862.556 192.755 862.556C194.447 862.556 195.497 861.507 196.14 860.275L197.982 861.25C196.911 863.37 195.165 864.473 192.755 864.473C188.737 864.473 186.755 861.71 186.755 857.513C186.755 853.594 189.005 851.056 192.594 851.056C196.515 851.056 198.025 853.872 198.025 857.352C198.036 857.663 198.015 857.995 197.982 858.337ZM192.508 852.748C190.173 852.748 188.994 854.665 188.994 856.538H195.786C195.84 854.493 194.811 852.748 192.508 852.748Z" fill="#00BFFF"/>
<path d="M217.373 851.367L218.68 860.147L218.937 861.967H219.119C219.226 861.378 219.301 860.971 219.526 859.815L221.186 851.367H223.415L225.075 859.815C225.311 860.971 225.386 861.378 225.482 861.967H225.664L225.921 860.147L227.228 851.367H229.51L227.025 864.173H224.282L222.622 855.907C222.515 855.393 222.418 854.322 222.386 853.808H222.204C222.183 854.322 222.076 855.393 221.979 855.907L220.319 864.173H217.576L215.091 851.367H217.373Z" fill="#00BFFF"/>
<path d="M242.473 858.337H233.485C233.485 860.747 234.867 862.556 237.245 862.556C238.937 862.556 239.987 861.507 240.63 860.275L242.473 861.25C241.401 863.37 239.655 864.473 237.245 864.473C233.228 864.473 231.256 861.71 231.256 857.513C231.256 853.594 233.506 851.056 237.095 851.056C241.016 851.056 242.526 853.872 242.526 857.352C242.526 857.663 242.505 857.995 242.473 858.337ZM236.998 852.748C234.663 852.748 233.485 854.665 233.485 856.538H240.277C240.319 854.493 239.302 852.748 236.998 852.748Z" fill="#00BFFF"/>
<path d="M255.414 851.11C256.335 851.11 257.181 851.217 257.717 851.367V853.391C257.203 853.262 256.26 853.134 255.339 853.134C252.264 853.134 249.811 855.232 249.811 859.408V864.173H247.636V851.367H249.789V854.697C250.647 852.673 252.746 851.11 255.414 851.11Z" fill="#00BFFF"/>
<path d="M272.136 858.337H263.148C263.148 860.747 264.53 862.556 266.908 862.556C268.601 862.556 269.651 861.507 270.294 860.275L272.136 861.25C271.065 863.37 269.319 864.473 266.908 864.473C262.891 864.473 260.909 861.71 260.909 857.513C260.909 853.594 263.159 851.056 266.748 851.056C270.669 851.056 272.179 853.872 272.179 857.352C272.19 857.663 272.158 857.995 272.136 858.337ZM266.651 852.748C264.316 852.748 263.137 854.665 263.137 856.538H269.929C269.983 854.493 268.954 852.748 266.651 852.748Z" fill="#00BFFF"/>
<path d="M293.444 853.755C294.108 852.341 295.651 851.067 297.461 851.067C300.814 851.067 302.786 853.862 302.786 857.748C302.786 861.742 300.739 864.484 297.333 864.484C295.747 864.484 294.162 863.509 293.573 862.149V869.163H291.398V851.367H293.444V853.755ZM296.979 862.556C299.208 862.556 300.493 860.661 300.493 857.738C300.493 854.9 299.315 852.973 297.065 852.973C294.912 852.973 293.53 854.686 293.53 857.427V858.038C293.519 860.768 294.826 862.556 296.979 862.556Z" fill="#00BFFF"/>
<path d="M310.402 864.473C309.224 864.473 308.024 864.194 307.124 863.349C306.299 862.556 305.946 861.357 305.946 859.28V851.367H308.174V859.205C308.174 861.999 309.502 862.61 310.842 862.61C313.53 862.61 314.173 859.922 314.173 858.048V851.367H316.348V864.173H314.302V861.742C313.809 863.017 312.298 864.473 310.402 864.473Z" fill="#00BFFF"/>
<path d="M320.44 851.367H324.104V848.015L326.279 847.094V851.367H331.271V853.133H326.279V859.761C326.279 861.475 327.104 862.299 328.743 862.299C329.589 862.299 330.489 862.224 331.282 862.064V864.066C330.618 864.216 329.9 864.398 328.775 864.398C325.572 864.398 324.115 862.61 324.115 860.072V853.133H320.451V851.367H320.44Z" fill="#00BFFF"/>
<path d="M350.104 851.367H353.768V848.015L355.942 847.094V851.367H360.935V853.133H355.942V859.761C355.942 861.475 356.767 862.299 358.406 862.299C359.253 862.299 360.153 862.224 360.945 862.064V864.066C360.281 864.216 359.563 864.398 358.439 864.398C355.235 864.398 353.778 862.61 353.778 860.072V853.133H350.115V851.367H350.104Z" fill="#00BFFF"/>
<path d="M364.652 857.77C364.652 853.701 367.03 851.067 370.619 851.067C374.208 851.067 376.586 853.701 376.586 857.77C376.586 861.839 374.208 864.473 370.619 864.473C367.03 864.473 364.652 861.785 364.652 857.77ZM374.283 857.77C374.283 854.772 372.922 852.951 370.619 852.951C368.316 852.951 366.955 854.74 366.955 857.77C366.955 860.8 368.316 862.588 370.619 862.588C372.922 862.588 374.283 860.789 374.283 857.77Z" fill="#00BFFF"/>
<path d="M394.594 851.367H398.258V848.015L400.433 847.094V851.367H405.425V853.133H400.433V859.761C400.433 861.475 401.258 862.299 402.897 862.299C403.743 862.299 404.643 862.224 405.436 862.064V864.066C404.771 864.216 404.054 864.398 402.929 864.398C399.726 864.398 398.269 862.61 398.269 860.072V853.133H394.605V851.367H394.594Z" fill="#00BFFF"/>
<path d="M416.009 851.067C417.037 851.067 418.259 851.345 419.158 852.191C419.983 852.984 420.412 854.194 420.412 856.26V864.173H418.237V856.389C418.237 853.594 416.834 852.984 415.473 852.984C412.677 852.984 411.992 855.671 411.992 857.492V864.173H409.817V845.617H411.992V853.712C412.57 852.159 414.156 851.067 416.009 851.067Z" fill="#00BFFF"/>
<path d="M435.27 858.337H426.282C426.282 860.747 427.664 862.556 430.043 862.556C431.735 862.556 432.785 861.507 433.428 860.275L435.27 861.25C434.199 863.37 432.453 864.473 430.043 864.473C426.025 864.473 424.043 861.71 424.043 857.513C424.043 853.594 426.293 851.056 429.882 851.056C433.803 851.056 435.313 853.872 435.313 857.352C435.313 857.663 435.292 857.995 435.27 858.337ZM429.786 852.748C427.45 852.748 426.272 854.665 426.272 856.538H433.064C433.117 854.493 432.089 852.748 429.786 852.748Z" fill="#00BFFF"/>
<path d="M463.027 851.11C463.949 851.11 464.795 851.217 465.331 851.367V853.391C464.817 853.262 463.874 853.134 462.952 853.134C459.878 853.134 457.425 855.232 457.425 859.408V864.173H455.25V851.367H457.403V854.697C458.26 852.673 460.36 851.11 463.027 851.11Z" fill="#00BFFF"/>
<path d="M473.526 864.473C472.347 864.473 471.148 864.194 470.248 863.349C469.423 862.556 469.069 861.357 469.069 859.28V851.367H471.298V859.205C471.298 861.999 472.626 862.61 473.965 862.61C476.654 862.61 477.297 859.922 477.297 858.048V851.367H479.471V864.173H477.425V861.742C476.933 863.017 475.422 864.473 473.526 864.473Z" fill="#00BFFF"/>
<path d="M484.518 862.374H488.621V847.405H484.775V845.617H490.795V862.385H495.123V864.173H484.518V862.374Z" fill="#00BFFF"/>
<path d="M509.414 858.337H500.426C500.426 860.747 501.808 862.556 504.186 862.556C505.879 862.556 506.929 861.507 507.571 860.275L509.414 861.25C508.343 863.37 506.597 864.473 504.186 864.473C500.169 864.473 498.187 861.71 498.187 857.513C498.187 853.594 500.437 851.056 504.025 851.056C507.946 851.056 509.457 853.872 509.457 857.352C509.468 857.663 509.435 857.995 509.414 858.337ZM503.929 852.748C501.594 852.748 500.415 854.665 500.415 856.538H507.207C507.261 854.493 506.243 852.748 503.929 852.748Z" fill="#00BFFF"/>
<path d="M513.688 860.233L515.895 859.847C516.227 861.721 517.427 862.685 519.323 862.685C521.037 862.685 521.991 861.967 521.991 860.768C521.991 859.483 521.327 858.926 519.945 858.766L517.866 858.53C515.328 858.252 514.128 856.817 514.128 854.847C514.128 852.512 515.97 851.056 518.991 851.056C521.916 851.056 523.887 852.587 524.166 854.943L522.012 855.425C521.734 853.894 520.684 852.812 518.938 852.812C517.245 852.812 516.249 853.508 516.249 854.729C516.249 855.832 516.967 856.496 518.552 856.678L520.598 856.903C523.137 857.181 524.133 858.519 524.133 860.543C524.133 862.974 522.344 864.462 519.216 864.462C516.174 864.473 514.149 862.963 513.688 860.233Z" fill="#00BFFF"/>
<path d="M553.85 864.173H551.569C551.461 863.456 551.386 862.61 551.365 861.839C550.519 863.627 549.137 864.473 547.037 864.473C544.498 864.473 542.73 862.91 542.73 860.715C542.73 859.387 543.341 858.359 544.52 857.695C545.366 857.235 546.748 856.903 548.869 856.646L551.204 856.367V856.142C551.204 853.862 550.358 852.866 548.462 852.866C546.641 852.866 545.569 853.787 545.462 855.403H543.127C543.363 852.662 545.355 851.078 548.612 851.078C551.911 851.078 553.4 852.716 553.4 856.399V859.858C553.422 861.892 553.55 863.22 553.85 864.173ZM548.194 858.359C545.966 858.669 545.044 859.301 545.044 860.586C545.044 861.892 545.944 862.685 547.455 862.685C549.758 862.685 551.247 861.1 551.247 858.584V857.941L548.194 858.359Z" fill="#00BFFF"/>
<path d="M564.381 851.067C565.431 851.067 566.609 851.345 567.477 852.17C568.323 852.962 568.709 854.194 568.709 856.271V864.184H566.535V856.399C566.535 853.605 565.153 852.994 563.867 852.994C560.975 852.994 560.278 855.682 560.278 857.502V864.184H558.104V851.367H560.15V853.904C560.814 852.288 562.228 851.067 564.381 851.067Z" fill="#00BFFF"/>
<path d="M583.182 845.606V864.162H581.136V861.785C580.365 863.445 579.165 864.473 577.065 864.473C573.862 864.473 571.784 861.807 571.784 857.738C571.784 853.722 574.012 851.056 577.397 851.056C579.143 851.056 580.365 851.998 581.007 853.262V845.606H583.182ZM577.601 852.984C575.394 852.984 574.087 854.75 574.087 857.748C574.087 860.714 575.394 862.567 577.515 862.567C579.69 862.567 581.05 860.832 581.05 858.059V857.47C581.05 854.718 579.722 852.984 577.601 852.984Z" fill="#00BFFF"/>
<path d="M611.453 852.395C612.192 853.134 612.61 854.161 612.61 855.361C612.61 857.973 610.66 859.74 607.789 859.74C606.889 859.74 606.075 859.558 605.411 859.226C604.875 859.483 604.511 859.922 604.511 860.511C604.511 861.303 605.175 861.796 606.643 861.796H609.943C612.61 861.796 614.121 863.102 614.121 865.276C614.121 867.964 611.785 869.473 607.789 869.473C604.158 869.473 601.972 868.221 601.972 866.218C601.972 864.837 602.84 863.809 604.2 863.349C603.151 862.91 602.583 862.149 602.583 861.068C602.583 859.89 603.247 859.023 604.425 858.584C603.611 857.845 603.14 856.763 603.14 855.489C603.14 852.877 605.058 851.056 607.907 851.056C608.85 851.056 609.675 851.26 610.36 851.624C610.821 850.114 611.871 849.268 613.456 849.268C613.735 849.268 614.046 849.289 614.281 849.375V851.27C613.896 851.217 613.671 851.163 613.339 851.163C612.407 851.163 611.817 851.549 611.453 852.395ZM606.568 863.713C606.182 863.713 605.829 863.691 605.497 863.659C604.65 864.045 604.136 864.73 604.136 865.608C604.136 866.968 605.39 867.685 608.025 867.685C610.767 867.685 611.946 866.914 611.946 865.512C611.946 864.355 611.121 863.723 609.46 863.723H606.568V863.713ZM610.564 855.361C610.564 853.83 609.46 852.727 607.896 852.727C606.311 852.727 605.207 853.851 605.207 855.446C605.207 857.01 606.279 858.08 607.821 858.08C609.407 858.08 610.564 856.924 610.564 855.361Z" fill="#00BFFF"/>
<path d="M626.162 851.11C627.083 851.11 627.929 851.217 628.465 851.367V853.391C627.951 853.262 627.008 853.134 626.087 853.134C623.012 853.134 620.559 855.232 620.559 859.408V864.173H618.384V851.367H620.538V854.697C621.395 852.673 623.494 851.11 626.162 851.11Z" fill="#00BFFF"/>
<path d="M632.814 862.374H636.917V853.155H633.2V851.367H639.092V862.374H643.42V864.162H632.814V862.374ZM639.328 848.807H636.253V845.734H639.328V848.807Z" fill="#00BFFF"/>
<path d="M657.325 845.606V864.162H655.279V861.785C654.508 863.445 653.308 864.473 651.208 864.473C648.005 864.473 645.927 861.807 645.927 857.738C645.927 853.722 648.155 851.056 651.54 851.056C653.286 851.056 654.508 851.998 655.15 853.262V845.606H657.325ZM651.744 852.984C649.537 852.984 648.23 854.75 648.23 857.748C648.23 860.714 649.537 862.567 651.658 862.567C653.833 862.567 655.193 860.832 655.193 858.059V857.47C655.204 854.718 653.876 852.984 651.744 852.984Z" fill="#00BFFF"/>
<path d="M661.985 860.233L664.192 859.847C664.524 861.721 665.724 862.685 667.62 862.685C669.334 862.685 670.288 861.967 670.288 860.768C670.288 859.483 669.624 858.926 668.242 858.766L666.163 858.53C663.624 858.252 662.425 856.817 662.425 854.847C662.425 852.512 664.267 851.056 667.288 851.056C670.213 851.056 672.184 852.587 672.462 854.943L670.309 855.425C670.031 853.894 668.981 852.812 667.235 852.812C665.542 852.812 664.546 853.508 664.546 854.729C664.546 855.832 665.263 856.496 666.849 856.678L668.895 856.903C671.434 857.181 672.43 858.519 672.43 860.543C672.43 862.974 670.641 864.462 667.513 864.462C664.471 864.473 662.457 862.963 661.985 860.233Z" fill="#00BFFF"/>
<path d="M683.732 864.173H680.326V860.896H683.732V864.173Z" fill="#00BFFF"/>
</svg>
