<?xml version="1.0" encoding="utf-8"?>
<!-- Generator: Adobe Illustrator 25.2.3, SVG Export Plug-In . SVG Version: 6.00 Build 0)  -->
<svg version="1.1" id="Camada_1" xmlns="http://www.w3.org/2000/svg" xmlns:xlink="http://www.w3.org/1999/xlink" x="0px" y="0px"
	 viewBox="0 0 2107 1172.8" style="enable-background:new 0 0 2107 1172.8;" xml:space="preserve">
<style type="text/css">
	.st0{fill:#D5F5FF;stroke:#00BDFF;stroke-width:3;stroke-linecap:round;stroke-linejoin:round;stroke-miterlimit:10;}
	.st1{fill:none;}
	.st2{fill:#00BDFF;}
	.st3{font-family:'GTAmericaMono-Regular';}
	.st4{font-size:31.0688px;}
	.st5{letter-spacing:-1;}
	.st6{fill:#FFFFFF;stroke:#00BDFF;stroke-width:3;stroke-linecap:round;stroke-linejoin:round;stroke-miterlimit:10;}
	.st7{fill:none;stroke:#00BDFF;stroke-width:3;stroke-linecap:round;stroke-linejoin:round;stroke-miterlimit:10;}
	
		.st8{fill:none;stroke:#00BDFF;stroke-width:3;stroke-linecap:round;stroke-linejoin:round;stroke-miterlimit:10;stroke-dasharray:7;}
	.st9{fill:#028EC2;}
	.st10{opacity:0.24;fill:#00BDFF;}
</style>
<path class="st0" d="M723.1,646.5H202.8c-18.7,0-33.9-15.2-33.9-33.9V382.9c0-18.7,15.2-33.9,33.9-33.9h520.4
	c18.7,0,33.9,15.2,33.9,33.9v229.7C757.1,631.3,741.9,646.5,723.1,646.5z"/>
<g>
	<rect x="191.5" y="374.8" class="st1" width="537.7" height="265.9"/>
	<text transform="matrix(1 0 0 1 191.4526 397.2944)"><tspan x="0" y="0" class="st2 st3 st4 st5">It is not us Humans of Flat </tspan><tspan x="0" y="41.6" class="st2 st3 st4 st5">that are the problem, rather </tspan><tspan x="0" y="83.2" class="st2 st3 st4 st5">these companies that manipu</tspan><tspan x="469.8" y="83.2" class="st2 st3 st4 st5">-</tspan><tspan x="0" y="124.7" class="st2 st3 st4 st5">late us in the name of profit. </tspan><tspan x="0" y="166.3" class="st2 st3 st4 st5">It’s them who should be taken </tspan><tspan x="0" y="207.9" class="st2 st3 st4 st5">down. </tspan></text>
</g>
<g>
	<g>
		<polyline class="st6" points="1174.5,235.4 1140.4,168.5 1180.7,186.5 1159.9,140.3 1218.6,171.2 1204.4,146.5 1271.1,174.2 
			1266.3,147.7 1299.3,166.2 1299.3,147.7 1334.3,166.2 1320.3,132.5 1361.1,166.2 1362,142 1430.2,176.1 		"/>
		<polyline class="st6" points="1761.9,142.5 1727.8,75.7 1768.2,93.7 1747.4,47.5 1806.1,78.3 1791.8,53.7 1858.6,81.4 
			1853.8,54.9 1886.7,73.4 1886.7,54.9 1921.8,73.4 1907.8,39.7 1948.6,73.4 1949.5,49.2 2017.7,83.3 		"/>
		<polyline class="st6" points="1503.3,428.6 1480.8,389.4 1507.4,400 1493.7,372.9 1532.5,391 1523,376.5 1567.1,392.8 
			1563.9,377.3 1585.7,388.1 1585.7,377.3 1608.8,388.1 1599.6,368.4 1626.5,388.1 1627.1,373.9 1672.1,393.9 		"/>
		<line class="st7" x1="1051.3" y1="1032.3" x2="2098.4" y2="1032.3"/>
		<line class="st7" x1="683.8" y1="1072.1" x2="916.5" y2="1072.1"/>
		<polyline class="st7" points="1159.9,1032.3 1159.9,509.5 1482.1,509.5 1482.1,1032.3 		"/>
		<line class="st7" x1="1482.1" y1="643.3" x2="1729.3" y2="643.3"/>
		<polyline class="st7" points="1729.3,1032.3 1729.3,420.4 2098.4,420.4 		"/>
		<polyline class="st7" points="1191.2,598.1 1230.5,598.1 1230.5,556 		"/>
		<path class="st7" d="M1191.2,587.7c-12.8-13.4-10.2-31.7-10.2-31.7l10.2,8.5c0,0-1.3-19.5-5.2-30.4c0,0,18.9,1.1,24.9,16.1v-19.7
			c0,0,11.5,1.8,13.3,18.2"/>
		<path class="st7" d="M1210.5,584.9c0,0-8.6-9.9-5.4-20.5c0,0,9.9,2.6,13.5,9.9"/>
		<polyline class="st7" points="1266.3,598.1 1305.6,598.1 1305.6,556 		"/>
		<path class="st7" d="M1266.3,587.7c-12.8-13.4-10.2-31.7-10.2-31.7l10.2,8.5c0,0-1.3-19.5-5.2-30.4c0,0,18.9,1.1,24.9,16.1v-19.7
			c0,0,11.5,1.8,13.3,18.2"/>
		<path class="st7" d="M1285.6,584.9c0,0-8.6-9.9-5.4-20.5c0,0,9.9,2.6,13.5,9.9"/>
		<polyline class="st7" points="1341.4,598.1 1380.7,598.1 1380.7,556 		"/>
		<path class="st7" d="M1341.4,587.7c-12.8-13.4-10.2-31.7-10.2-31.7l10.2,8.5c0,0-1.3-19.5-5.2-30.4c0,0,18.9,1.1,24.9,16.1v-19.7
			c0,0,11.5,1.8,13.3,18.2"/>
		<path class="st7" d="M1360.7,584.9c0,0-8.6-9.9-5.4-20.5c0,0,9.9,2.6,13.5,9.9"/>
		<polyline class="st7" points="1416.5,598.1 1455.9,598.1 1455.9,556 		"/>
		<path class="st7" d="M1416.5,587.7c-12.8-13.4-10.2-31.7-10.2-31.7l10.2,8.5c0,0-1.3-19.5-5.2-30.4c0,0,18.9,1.1,24.9,16.1v-19.7
			c0,0,11.5,1.8,13.3,18.2"/>
		<path class="st7" d="M1435.9,584.9c0,0-8.6-9.9-5.4-20.5c0,0,9.9,2.6,13.5,9.9"/>
		<polyline class="st7" points="1191.2,686.1 1230.5,686.1 1230.5,643.9 		"/>
		<path class="st7" d="M1191.2,675.7c-12.8-13.4-10.2-31.7-10.2-31.7l10.2,8.5c0,0-1.3-19.5-5.2-30.4c0,0,18.9,1.1,24.9,16.1v-19.7
			c0,0,11.5,1.8,13.3,18.2"/>
		<path class="st7" d="M1210.5,672.8c0,0-8.6-9.9-5.4-20.5c0,0,9.9,2.6,13.5,9.9"/>
		<polyline class="st7" points="1266.3,686.1 1305.6,686.1 1305.6,643.9 		"/>
		<path class="st7" d="M1266.3,675.7c-12.8-13.4-10.2-31.7-10.2-31.7l10.2,8.5c0,0-1.3-19.5-5.2-30.4c0,0,18.9,1.1,24.9,16.1v-19.7
			c0,0,11.5,1.8,13.3,18.2"/>
		<path class="st7" d="M1285.6,672.8c0,0-8.6-9.9-5.4-20.5c0,0,9.9,2.6,13.5,9.9"/>
		<polyline class="st7" points="1341.4,686.1 1380.7,686.1 1380.7,643.9 		"/>
		<path class="st7" d="M1341.4,675.7c-12.8-13.4-10.2-31.7-10.2-31.7l10.2,8.5c0,0-1.3-19.5-5.2-30.4c0,0,18.9,1.1,24.9,16.1v-19.7
			c0,0,11.5,1.8,13.3,18.2"/>
		<path class="st7" d="M1360.7,672.8c0,0-8.6-9.9-5.4-20.5c0,0,9.9,2.6,13.5,9.9"/>
		<polyline class="st7" points="1416.5,686.1 1455.9,686.1 1455.9,643.9 		"/>
		<path class="st7" d="M1416.5,675.7c-12.8-13.4-10.2-31.7-10.2-31.7l10.2,8.5c0,0-1.3-19.5-5.2-30.4c0,0,18.9,1.1,24.9,16.1v-19.7
			c0,0,11.5,1.8,13.3,18.2"/>
		<path class="st7" d="M1435.9,672.8c0,0-8.6-9.9-5.4-20.5c0,0,9.9,2.6,13.5,9.9"/>
		<polyline class="st7" points="1191.2,774 1230.5,774 1230.5,731.9 		"/>
		<path class="st7" d="M1191.2,763.6c-12.8-13.4-10.2-31.7-10.2-31.7l10.2,8.5c0,0-1.3-19.5-5.2-30.4c0,0,18.9,1.1,24.9,16.1v-19.7
			c0,0,11.5,1.8,13.3,18.2"/>
		<path class="st7" d="M1210.5,760.8c0,0-8.6-9.9-5.4-20.5c0,0,9.9,2.6,13.5,9.9"/>
		<polyline class="st7" points="1266.3,774 1305.6,774 1305.6,731.9 		"/>
		<path class="st7" d="M1266.3,763.6c-12.8-13.4-10.2-31.7-10.2-31.7l10.2,8.5c0,0-1.3-19.5-5.2-30.4c0,0,18.9,1.1,24.9,16.1v-19.7
			c0,0,11.5,1.8,13.3,18.2"/>
		<path class="st7" d="M1285.6,760.8c0,0-8.6-9.9-5.4-20.5c0,0,9.9,2.6,13.5,9.9"/>
		<polyline class="st7" points="1341.4,774 1380.7,774 1380.7,731.9 		"/>
		<path class="st7" d="M1341.4,763.6c-12.8-13.4-10.2-31.7-10.2-31.7l10.2,8.5c0,0-1.3-19.5-5.2-30.4c0,0,18.9,1.1,24.9,16.1v-19.7
			c0,0,11.5,1.8,13.3,18.2"/>
		<path class="st7" d="M1360.7,760.8c0,0-8.6-9.9-5.4-20.5c0,0,9.9,2.6,13.5,9.9"/>
		<polyline class="st7" points="1416.5,774 1455.9,774 1455.9,731.9 		"/>
		<path class="st7" d="M1416.5,763.6c-12.8-13.4-10.2-31.7-10.2-31.7l10.2,8.5c0,0-1.3-19.5-5.2-30.4c0,0,18.9,1.1,24.9,16.1v-19.7
			c0,0,11.5,1.8,13.3,18.2"/>
		<path class="st7" d="M1435.9,760.8c0,0-8.6-9.9-5.4-20.5c0,0,9.9,2.6,13.5,9.9"/>
		<polyline class="st7" points="1191.2,862 1230.5,862 1230.5,819.8 		"/>
		<path class="st7" d="M1210.5,848.7c0,0-8.6-9.9-5.4-20.5c0,0,9.9,2.6,13.5,9.9"/>
		<path class="st7" d="M1191.2,851.6c-12.8-13.4-10.2-31.7-10.2-31.7l10.2,8.5c0,0-1.3-19.5-5.2-30.4c0,0,18.9,1.1,24.9,16.1v-19.7
			c0,0,11.5,1.8,13.3,18.2"/>
		<polyline class="st7" points="1266.3,862 1305.6,862 1305.6,819.8 		"/>
		<path class="st7" d="M1266.3,851.6c-12.8-13.4-10.2-31.7-10.2-31.7l10.2,8.5c0,0-1.3-19.5-5.2-30.4c0,0,18.9,1.1,24.9,16.1v-19.7
			c0,0,11.5,1.8,13.3,18.2"/>
		<path class="st7" d="M1285.6,848.7c0,0-8.6-9.9-5.4-20.5c0,0,9.9,2.6,13.5,9.9"/>
		<polyline class="st7" points="1341.4,862 1380.7,862 1380.7,819.8 		"/>
		<path class="st7" d="M1341.4,851.6c-12.8-13.4-10.2-31.7-10.2-31.7l10.2,8.5c0,0-1.3-19.5-5.2-30.4c0,0,18.9,1.1,24.9,16.1v-19.7
			c0,0,11.5,1.8,13.3,18.2"/>
		<path class="st7" d="M1360.7,848.7c0,0-8.6-9.9-5.4-20.5c0,0,9.9,2.6,13.5,9.9"/>
		<polyline class="st7" points="1416.5,862 1455.9,862 1455.9,819.8 		"/>
		<path class="st7" d="M1416.5,851.6c-12.8-13.4-10.2-31.7-10.2-31.7l10.2,8.5c0,0-1.3-19.5-5.2-30.4c0,0,18.9,1.1,24.9,16.1v-19.7
			c0,0,11.5,1.8,13.3,18.2"/>
		<path class="st7" d="M1435.9,848.7c0,0-8.6-9.9-5.4-20.5c0,0,9.9,2.6,13.5,9.9"/>
		<polyline class="st7" points="1191.2,949.9 1230.5,949.9 1230.5,907.8 		"/>
		<path class="st7" d="M1191.2,939.5c-12.8-13.4-10.2-31.7-10.2-31.7l10.2,8.5c0,0-1.3-19.5-5.2-30.4c0,0,18.9,1.1,24.9,16.1v-19.7
			c0,0,11.5,1.8,13.3,18.2"/>
		<path class="st7" d="M1210.5,936.7c0,0-8.6-9.9-5.4-20.5c0,0,9.9,2.6,13.5,9.9"/>
		<polyline class="st7" points="1266.3,949.9 1305.6,949.9 1305.6,907.8 		"/>
		<path class="st7" d="M1266.3,939.5c-12.8-13.4-10.2-31.7-10.2-31.7l10.2,8.5c0,0-1.3-19.5-5.2-30.4c0,0,18.9,1.1,24.9,16.1v-19.7
			c0,0,11.5,1.8,13.3,18.2"/>
		<path class="st7" d="M1285.6,936.7c0,0-8.6-9.9-5.4-20.5c0,0,9.9,2.6,13.5,9.9"/>
		<polyline class="st7" points="1341.4,949.9 1380.7,949.9 1380.7,907.8 		"/>
		<path class="st7" d="M1341.4,939.5c-12.8-13.4-10.2-31.7-10.2-31.7l10.2,8.5c0,0-1.3-19.5-5.2-30.4c0,0,18.9,1.1,24.9,16.1v-19.7
			c0,0,11.5,1.8,13.3,18.2"/>
		<path class="st7" d="M1360.7,936.7c0,0-8.6-9.9-5.4-20.5c0,0,9.9,2.6,13.5,9.9"/>
		<polyline class="st7" points="1416.5,949.9 1455.9,949.9 1455.9,907.8 		"/>
		<path class="st7" d="M1416.5,939.5c-12.8-13.4-10.2-31.7-10.2-31.7l10.2,8.5c0,0-1.3-19.5-5.2-30.4c0,0,18.9,1.1,24.9,16.1v-19.7
			c0,0,11.5,1.8,13.3,18.2"/>
		<path class="st7" d="M1435.9,936.7c0,0-8.6-9.9-5.4-20.5c0,0,9.9,2.6,13.5,9.9"/>
		<polyline class="st7" points="1512.6,736.1 1551.9,736.1 1551.9,694 		"/>
		<path class="st7" d="M1512.6,725.7c-12.8-13.4-10.2-31.7-10.2-31.7l10.2,8.5c0,0-1.3-19.5-5.2-30.4c0,0,18.9,1.1,24.9,16.1v-19.7
			c0,0,11.5,1.8,13.3,18.2"/>
		<path class="st7" d="M1531.9,722.9c0,0-8.6-9.9-5.4-20.5c0,0,9.9,2.6,13.5,9.9"/>
		<polyline class="st7" points="1587.7,736.1 1627,736.1 1627,694 		"/>
		<path class="st7" d="M1587.7,725.7c-12.8-13.4-10.2-31.7-10.2-31.7l10.2,8.5c0,0-1.3-19.5-5.2-30.4c0,0,18.9,1.1,24.9,16.1v-19.7
			c0,0,11.5,1.8,13.3,18.2"/>
		<path class="st7" d="M1607,722.9c0,0-8.6-9.9-5.4-20.5c0,0,9.9,2.6,13.5,9.9"/>
		<polyline class="st7" points="1662.8,736.1 1702.1,736.1 1702.1,694 		"/>
		<path class="st7" d="M1662.8,725.7c-12.8-13.4-10.2-31.7-10.2-31.7l10.2,8.5c0,0-1.3-19.5-5.2-30.4c0,0,18.9,1.1,24.9,16.1v-19.7
			c0,0,11.5,1.8,13.3,18.2"/>
		<path class="st7" d="M1682.1,722.9c0,0-8.6-9.9-5.4-20.5c0,0,9.9,2.6,13.5,9.9"/>
		<polyline class="st7" points="1512.6,824.1 1551.9,824.1 1551.9,781.9 		"/>
		<path class="st7" d="M1512.6,813.7c-12.8-13.4-10.2-31.7-10.2-31.7l10.2,8.5c0,0-1.3-19.5-5.2-30.4c0,0,18.9,1.1,24.9,16.1v-19.7
			c0,0,11.5,1.8,13.3,18.2"/>
		<path class="st7" d="M1531.9,810.8c0,0-8.6-9.9-5.4-20.5c0,0,9.9,2.6,13.5,9.9"/>
		<polyline class="st7" points="1587.7,824.1 1627,824.1 1627,781.9 		"/>
		<path class="st7" d="M1587.7,813.7c-12.8-13.4-10.2-31.7-10.2-31.7l10.2,8.5c0,0-1.3-19.5-5.2-30.4c0,0,18.9,1.1,24.9,16.1v-19.7
			c0,0,11.5,1.8,13.3,18.2"/>
		<path class="st7" d="M1607,810.8c0,0-8.6-9.9-5.4-20.5c0,0,9.9,2.6,13.5,9.9"/>
		<polyline class="st7" points="1662.8,824.1 1702.1,824.1 1702.1,781.9 		"/>
		<path class="st7" d="M1662.8,813.7c-12.8-13.4-10.2-31.7-10.2-31.7l10.2,8.5c0,0-1.3-19.5-5.2-30.4c0,0,18.9,1.1,24.9,16.1v-19.7
			c0,0,11.5,1.8,13.3,18.2"/>
		<path class="st7" d="M1682.1,810.8c0,0-8.6-9.9-5.4-20.5c0,0,9.9,2.6,13.5,9.9"/>
		<polyline class="st7" points="1512.6,912 1551.9,912 1551.9,869.9 		"/>
		<path class="st7" d="M1512.6,901.6c-12.8-13.4-10.2-31.7-10.2-31.7l10.2,8.5c0,0-1.3-19.5-5.2-30.4c0,0,18.9,1.1,24.9,16.1v-19.7
			c0,0,11.5,1.8,13.3,18.2"/>
		<path class="st7" d="M1531.9,898.8c0,0-8.6-9.9-5.4-20.5c0,0,9.9,2.6,13.5,9.9"/>
		<polyline class="st7" points="1587.7,912 1627,912 1627,869.9 		"/>
		<path class="st7" d="M1587.7,901.6c-12.8-13.4-10.2-31.7-10.2-31.7l10.2,8.5c0,0-1.3-19.5-5.2-30.4c0,0,18.9,1.1,24.9,16.1v-19.7
			c0,0,11.5,1.8,13.3,18.2"/>
		<path class="st7" d="M1607,898.8c0,0-8.6-9.9-5.4-20.5c0,0,9.9,2.6,13.5,9.9"/>
		<polyline class="st7" points="1662.8,912 1702.1,912 1702.1,869.9 		"/>
		<path class="st7" d="M1662.8,901.6c-12.8-13.4-10.2-31.7-10.2-31.7l10.2,8.5c0,0-1.3-19.5-5.2-30.4c0,0,18.9,1.1,24.9,16.1v-19.7
			c0,0,11.5,1.8,13.3,18.2"/>
		<path class="st7" d="M1682.1,898.8c0,0-8.6-9.9-5.4-20.5c0,0,9.9,2.6,13.5,9.9"/>
		<polyline class="st7" points="1765.2,511 1804.5,511 1804.5,468.8 		"/>
		<path class="st7" d="M1765.2,500.6c-12.8-13.4-10.2-31.7-10.2-31.7l10.2,8.5c0,0-1.3-19.5-5.2-30.4c0,0,18.9,1.1,24.9,16.1v-19.7
			c0,0,11.5,1.8,13.3,18.2"/>
		<path class="st7" d="M1784.5,497.7c0,0-8.6-9.9-5.4-20.5c0,0,9.9,2.6,13.5,9.9"/>
		<polyline class="st7" points="1840.3,511 1879.6,511 1879.6,468.8 		"/>
		<path class="st7" d="M1840.3,500.6c-12.8-13.4-10.2-31.7-10.2-31.7l10.2,8.5c0,0-1.3-19.5-5.2-30.4c0,0,18.9,1.1,24.9,16.1v-19.7
			c0,0,11.5,1.8,13.3,18.2"/>
		<path class="st7" d="M1859.6,497.7c0,0-8.6-9.9-5.4-20.5c0,0,9.9,2.6,13.5,9.9"/>
		<polyline class="st7" points="1915.4,511 1954.7,511 1954.7,468.8 		"/>
		<path class="st7" d="M1915.4,500.6c-12.8-13.4-10.2-31.7-10.2-31.7l10.2,8.5c0,0-1.3-19.5-5.2-30.4c0,0,18.9,1.1,24.9,16.1v-19.7
			c0,0,11.5,1.8,13.3,18.2"/>
		<path class="st7" d="M1934.7,497.7c0,0-8.6-9.9-5.4-20.5c0,0,9.9,2.6,13.5,9.9"/>
		<polyline class="st7" points="1990.5,511 2029.9,511 2029.9,468.8 		"/>
		<path class="st7" d="M1990.5,500.6c-12.8-13.4-10.2-31.7-10.2-31.7l10.2,8.5c0,0-1.3-19.5-5.2-30.4c0,0,18.9,1.1,24.9,16.1v-19.7
			c0,0,11.5,1.8,13.3,18.2"/>
		<path class="st7" d="M2009.8,497.7c0,0-8.6-9.9-5.4-20.5c0,0,9.9,2.6,13.5,9.9"/>
		<polyline class="st7" points="1765.2,598.9 1804.5,598.9 1804.5,556.8 		"/>
		<path class="st7" d="M1765.2,588.5c-12.8-13.4-10.2-31.7-10.2-31.7l10.2,8.5c0,0-1.3-19.5-5.2-30.4c0,0,18.9,1.1,24.9,16.1v-19.7
			c0,0,11.5,1.8,13.3,18.2"/>
		<path class="st7" d="M1784.5,585.7c0,0-8.6-9.9-5.4-20.5c0,0,9.9,2.6,13.5,9.9"/>
		<polyline class="st7" points="1840.3,598.9 1879.6,598.9 1879.6,556.8 		"/>
		<path class="st7" d="M1840.3,588.5c-12.8-13.4-10.2-31.7-10.2-31.7l10.2,8.5c0,0-1.3-19.5-5.2-30.4c0,0,18.9,1.1,24.9,16.1v-19.7
			c0,0,11.5,1.8,13.3,18.2"/>
		<path class="st7" d="M1859.6,585.7c0,0-8.6-9.9-5.4-20.5c0,0,9.9,2.6,13.5,9.9"/>
		<polyline class="st7" points="1915.4,598.9 1954.7,598.9 1954.7,556.8 		"/>
		<path class="st7" d="M1915.4,588.5c-12.8-13.4-10.2-31.7-10.2-31.7l10.2,8.5c0,0-1.3-19.5-5.2-30.4c0,0,18.9,1.1,24.9,16.1v-19.7
			c0,0,11.5,1.8,13.3,18.2"/>
		<path class="st7" d="M1934.7,585.7c0,0-8.6-9.9-5.4-20.5c0,0,9.9,2.6,13.5,9.9"/>
		<polyline class="st7" points="1990.5,598.9 2029.9,598.9 2029.9,556.8 		"/>
		<path class="st7" d="M1990.5,588.5c-12.8-13.4-10.2-31.7-10.2-31.7l10.2,8.5c0,0-1.3-19.5-5.2-30.4c0,0,18.9,1.1,24.9,16.1v-19.7
			c0,0,11.5,1.8,13.3,18.2"/>
		<path class="st7" d="M2009.8,585.7c0,0-8.6-9.9-5.4-20.5c0,0,9.9,2.6,13.5,9.9"/>
		<polyline class="st7" points="1765.2,686.9 1804.5,686.9 1804.5,644.7 		"/>
		<path class="st7" d="M1765.2,676.5c-12.8-13.4-10.2-31.7-10.2-31.7l10.2,8.5c0,0-1.3-19.5-5.2-30.4c0,0,18.9,1.1,24.9,16.1v-19.7
			c0,0,11.5,1.8,13.3,18.2"/>
		<path class="st7" d="M1784.5,673.6c0,0-8.6-9.9-5.4-20.5c0,0,9.9,2.6,13.5,9.9"/>
		<polyline class="st7" points="1840.3,686.9 1879.6,686.9 1879.6,644.7 		"/>
		<path class="st7" d="M1840.3,676.5c-12.8-13.4-10.2-31.7-10.2-31.7l10.2,8.5c0,0-1.3-19.5-5.2-30.4c0,0,18.9,1.1,24.9,16.1v-19.7
			c0,0,11.5,1.8,13.3,18.2"/>
		<path class="st7" d="M1859.6,673.6c0,0-8.6-9.9-5.4-20.5c0,0,9.9,2.6,13.5,9.9"/>
		<polyline class="st7" points="1915.4,686.9 1954.7,686.9 1954.7,644.7 		"/>
		<path class="st7" d="M1915.4,676.5c-12.8-13.4-10.2-31.7-10.2-31.7l10.2,8.5c0,0-1.3-19.5-5.2-30.4c0,0,18.9,1.1,24.9,16.1v-19.7
			c0,0,11.5,1.8,13.3,18.2"/>
		<path class="st7" d="M1934.7,673.6c0,0-8.6-9.9-5.4-20.5c0,0,9.9,2.6,13.5,9.9"/>
		<polyline class="st7" points="1990.5,686.9 2029.9,686.9 2029.9,644.7 		"/>
		<path class="st7" d="M1990.5,676.5c-12.8-13.4-10.2-31.7-10.2-31.7l10.2,8.5c0,0-1.3-19.5-5.2-30.4c0,0,18.9,1.1,24.9,16.1v-19.7
			c0,0,11.5,1.8,13.3,18.2"/>
		<path class="st7" d="M2009.8,673.6c0,0-8.6-9.9-5.4-20.5c0,0,9.9,2.6,13.5,9.9"/>
		<polyline class="st7" points="1765.2,774.8 1804.5,774.8 1804.5,732.7 		"/>
		<path class="st7" d="M1765.2,764.4c-12.8-13.4-10.2-31.7-10.2-31.7l10.2,8.5c0,0-1.3-19.5-5.2-30.4c0,0,18.9,1.1,24.9,16.1v-19.7
			c0,0,11.5,1.8,13.3,18.2"/>
		<path class="st7" d="M1784.5,761.6c0,0-8.6-9.9-5.4-20.5c0,0,9.9,2.6,13.5,9.9"/>
		<polyline class="st7" points="1840.3,774.8 1879.6,774.8 1879.6,732.7 		"/>
		<path class="st7" d="M1840.3,764.4c-12.8-13.4-10.2-31.7-10.2-31.7l10.2,8.5c0,0-1.3-19.5-5.2-30.4c0,0,18.9,1.1,24.9,16.1v-19.7
			c0,0,11.5,1.8,13.3,18.2"/>
		<path class="st7" d="M1859.6,761.6c0,0-8.6-9.9-5.4-20.5c0,0,9.9,2.6,13.5,9.9"/>
		<polyline class="st7" points="1915.4,774.8 1954.7,774.8 1954.7,732.7 		"/>
		<path class="st7" d="M1915.4,764.4c-12.8-13.4-10.2-31.7-10.2-31.7l10.2,8.5c0,0-1.3-19.5-5.2-30.4c0,0,18.9,1.1,24.9,16.1v-19.7
			c0,0,11.5,1.8,13.3,18.2"/>
		<path class="st7" d="M1934.7,761.6c0,0-8.6-9.9-5.4-20.5c0,0,9.9,2.6,13.5,9.9"/>
		<polyline class="st7" points="1990.5,774.8 2029.9,774.8 2029.9,732.7 		"/>
		<path class="st7" d="M1990.5,764.4c-12.8-13.4-10.2-31.7-10.2-31.7l10.2,8.5c0,0-1.3-19.5-5.2-30.4c0,0,18.9,1.1,24.9,16.1v-19.7
			c0,0,11.5,1.8,13.3,18.2"/>
		<path class="st7" d="M2009.8,761.6c0,0-8.6-9.9-5.4-20.5c0,0,9.9,2.6,13.5,9.9"/>
		<polyline class="st7" points="1765.2,862.8 1804.5,862.8 1804.5,820.6 		"/>
		<path class="st7" d="M1765.2,852.4c-12.8-13.4-10.2-31.7-10.2-31.7l10.2,8.5c0,0-1.3-19.5-5.2-30.4c0,0,18.9,1.1,24.9,16.1v-19.7
			c0,0,11.5,1.8,13.3,18.2"/>
		<path class="st7" d="M1784.5,849.5c0,0-8.6-9.9-5.4-20.5c0,0,9.9,2.6,13.5,9.9"/>
		<polyline class="st7" points="1840.3,862.8 1879.6,862.8 1879.6,820.6 		"/>
		<path class="st7" d="M1840.3,852.4c-12.8-13.4-10.2-31.7-10.2-31.7l10.2,8.5c0,0-1.3-19.5-5.2-30.4c0,0,18.9,1.1,24.9,16.1v-19.7
			c0,0,11.5,1.8,13.3,18.2"/>
		<path class="st7" d="M1859.6,849.5c0,0-8.6-9.9-5.4-20.5c0,0,9.9,2.6,13.5,9.9"/>
		<polyline class="st7" points="1915.4,862.8 1954.7,862.8 1954.7,820.6 		"/>
		<path class="st7" d="M1915.4,852.4c-12.8-13.4-10.2-31.7-10.2-31.7l10.2,8.5c0,0-1.3-19.5-5.2-30.4c0,0,18.9,1.1,24.9,16.1v-19.7
			c0,0,11.5,1.8,13.3,18.2"/>
		<path class="st7" d="M1934.7,849.5c0,0-8.6-9.9-5.4-20.5c0,0,9.9,2.6,13.5,9.9"/>
		<polyline class="st7" points="1990.5,862.8 2029.9,862.8 2029.9,820.6 		"/>
		<path class="st7" d="M1990.5,852.4c-12.8-13.4-10.2-31.7-10.2-31.7l10.2,8.5c0,0-1.3-19.5-5.2-30.4c0,0,18.9,1.1,24.9,16.1v-19.7
			c0,0,11.5,1.8,13.3,18.2"/>
		<path class="st7" d="M2009.8,849.5c0,0-8.6-9.9-5.4-20.5c0,0,9.9,2.6,13.5,9.9"/>
		<polyline class="st7" points="1765.2,948 1804.5,948 1804.5,905.9 		"/>
		<path class="st7" d="M1765.2,937.6c-12.8-13.4-10.2-31.7-10.2-31.7l10.2,8.5c0,0-1.3-19.5-5.2-30.4c0,0,18.9,1.1,24.9,16.1v-19.7
			c0,0,11.5,1.8,13.3,18.2"/>
		<path class="st7" d="M1784.5,934.8c0,0-8.6-9.9-5.4-20.5c0,0,9.9,2.6,13.5,9.9"/>
		<polyline class="st7" points="1840.3,948 1879.6,948 1879.6,905.9 		"/>
		<path class="st7" d="M1840.3,937.6c-12.8-13.4-10.2-31.7-10.2-31.7l10.2,8.5c0,0-1.3-19.5-5.2-30.4c0,0,18.9,1.1,24.9,16.1v-19.7
			c0,0,11.5,1.8,13.3,18.2"/>
		<path class="st7" d="M1859.6,934.8c0,0-8.6-9.9-5.4-20.5c0,0,9.9,2.6,13.5,9.9"/>
		<polyline class="st7" points="1915.4,948 1954.7,948 1954.7,905.9 		"/>
		<path class="st7" d="M1915.4,937.6c-12.8-13.4-10.2-31.7-10.2-31.7l10.2,8.5c0,0-1.3-19.5-5.2-30.4c0,0,18.9,1.1,24.9,16.1v-19.7
			c0,0,11.5,1.8,13.3,18.2"/>
		<path class="st7" d="M1934.7,934.8c0,0-8.6-9.9-5.4-20.5c0,0,9.9,2.6,13.5,9.9"/>
		<polyline class="st7" points="1990.5,948 2029.9,948 2029.9,905.9 		"/>
		<path class="st7" d="M1990.5,937.6c-12.8-13.4-10.2-31.7-10.2-31.7l10.2,8.5c0,0-1.3-19.5-5.2-30.4c0,0,18.9,1.1,24.9,16.1v-19.7
			c0,0,11.5,1.8,13.3,18.2"/>
		<path class="st7" d="M2009.8,934.8c0,0-8.6-9.9-5.4-20.5c0,0,9.9,2.6,13.5,9.9"/>
		<polyline class="st7" points="2066.3,511 2105.6,511 2105.6,468.8 		"/>
		<path class="st7" d="M2066.3,500.6c-12.8-13.4-10.2-31.7-10.2-31.7l10.2,8.5c0,0-1.3-19.5-5.2-30.4c0,0,18.9,1.1,24.9,16.1v-19.7
			c0,0,11.5,1.8,13.3,18.2"/>
		<path class="st7" d="M2085.6,497.7c0,0-8.6-9.9-5.4-20.5c0,0,9.9,2.6,13.5,9.9"/>
		<polyline class="st7" points="2066.3,598.9 2105.6,598.9 2105.6,556.8 		"/>
		<path class="st7" d="M2066.3,588.5c-12.8-13.4-10.2-31.7-10.2-31.7l10.2,8.5c0,0-1.3-19.5-5.2-30.4c0,0,18.9,1.1,24.9,16.1v-19.7
			c0,0,11.5,1.8,13.3,18.2"/>
		<path class="st7" d="M2085.6,585.7c0,0-8.6-9.9-5.4-20.5c0,0,9.9,2.6,13.5,9.9"/>
		<polyline class="st7" points="2066.3,686.9 2105.6,686.9 2105.6,644.7 		"/>
		<path class="st7" d="M2066.3,676.5c-12.8-13.4-10.2-31.7-10.2-31.7l10.2,8.5c0,0-1.3-19.5-5.2-30.4c0,0,18.9,1.1,24.9,16.1v-19.7
			c0,0,11.5,1.8,13.3,18.2"/>
		<path class="st7" d="M2085.6,673.6c0,0-8.6-9.9-5.4-20.5c0,0,9.9,2.6,13.5,9.9"/>
		<polyline class="st7" points="2066.3,774.8 2105.6,774.8 2105.6,732.7 		"/>
		<path class="st7" d="M2066.3,764.4c-12.8-13.4-10.2-31.7-10.2-31.7l10.2,8.5c0,0-1.3-19.5-5.2-30.4c0,0,18.9,1.1,24.9,16.1v-19.7
			c0,0,11.5,1.8,13.3,18.2"/>
		<path class="st7" d="M2085.6,761.6c0,0-8.6-9.9-5.4-20.5c0,0,9.9,2.6,13.5,9.9"/>
		<polyline class="st7" points="2066.3,862.8 2105.6,862.8 2105.6,820.6 		"/>
		<path class="st7" d="M2066.3,852.4c-12.8-13.4-10.2-31.7-10.2-31.7l10.2,8.5c0,0-1.3-19.5-5.2-30.4c0,0,18.9,1.1,24.9,16.1v-19.7
			c0,0,11.5,1.8,13.3,18.2"/>
		<path class="st7" d="M2085.6,849.5c0,0-8.6-9.9-5.4-20.5c0,0,9.9,2.6,13.5,9.9"/>
		<polyline class="st7" points="2066.3,948 2105.6,948 2105.6,905.9 		"/>
		<path class="st7" d="M2066.3,937.6c-12.8-13.4-10.2-31.7-10.2-31.7l10.2,8.5c0,0-1.3-19.5-5.2-30.4c0,0,18.9,1.1,24.9,16.1v-19.7
			c0,0,11.5,1.8,13.3,18.2"/>
		<path class="st7" d="M2085.6,934.8c0,0-8.6-9.9-5.4-20.5c0,0,9.9,2.6,13.5,9.9"/>
		<path class="st6" d="M1680.9,599.9h-132.2c-12.7,0-23-10.3-23-23V433.8c0-12.7,10.3-23,23-23h132.2c12.7,0,23,10.3,23,23v143.1
			C1703.9,589.6,1693.6,599.9,1680.9,599.9z"/>
		<path class="st6" d="M1665.4,599.9h-132.2c-12.7,0-23-10.3-23-23V433.8c0-12.7,10.3-23,23-23h132.2c12.7,0,23,10.3,23,23v143.1
			C1688.4,589.6,1678.1,599.9,1665.4,599.9z"/>
		<line class="st7" x1="1543.5" y1="599.9" x2="1543.5" y2="641.7"/>
		<line class="st7" x1="1552" y1="599.9" x2="1552" y2="641.7"/>
		<line class="st7" x1="1658.2" y1="599.9" x2="1658.2" y2="641.7"/>
		<line class="st7" x1="1666.7" y1="599.9" x2="1666.7" y2="641.7"/>
		<path class="st6" d="M1435.8,450.7h-203c-12.7,0-23-10.3-23-23V209.5c0-12.7,10.3-23,23-23h203c12.7,0,23,10.3,23,23v218.1
			C1458.8,440.3,1448.5,450.7,1435.8,450.7z"/>
		<path class="st6" d="M1414.1,450.7h-203c-12.7,0-23-10.3-23-23V209.5c0-12.7,10.3-23,23-23h203c12.7,0,23,10.3,23,23v218.1
			C1437.1,440.3,1426.8,450.7,1414.1,450.7z"/>
		<line class="st7" x1="1234.7" y1="450.7" x2="1234.7" y2="509.1"/>
		<line class="st7" x1="1246.6" y1="450.7" x2="1246.6" y2="509.1"/>
		<line class="st7" x1="1394.9" y1="450.7" x2="1394.9" y2="509.1"/>
		<line class="st7" x1="1406.8" y1="450.7" x2="1406.8" y2="509.1"/>
		<path class="st6" d="M2026.8,361.6h-203c-12.7,0-23-10.3-23-23V120.5c0-12.7,10.3-23,23-23h203c12.7,0,23,10.3,23,23v218.1
			C2049.8,351.3,2039.5,361.6,2026.8,361.6z"/>
		<path class="st6" d="M2005.1,361.6h-203c-12.7,0-23-10.3-23-23V120.5c0-12.7,10.3-23,23-23h203c12.7,0,23,10.3,23,23v218.1
			C2028.2,351.3,2017.9,361.6,2005.1,361.6z"/>
		<line class="st7" x1="1825.7" y1="361.6" x2="1825.7" y2="420.1"/>
		<line class="st7" x1="1837.6" y1="361.6" x2="1837.6" y2="420.1"/>
		<line class="st7" x1="1985.9" y1="361.6" x2="1985.9" y2="420.1"/>
		<line class="st7" x1="1997.9" y1="361.6" x2="1997.9" y2="420.1"/>
		<line class="st7" x1="1482.1" y1="509.5" x2="1510.2" y2="509.5"/>
		<path class="st7" d="M723.5,1072.1V844.3h-0.4c-14.8,0-26.8,12-26.8,26.8v0c0,14.8,12,26.7,26.7,26.8l0.5,0"/>
		<path class="st7" d="M723.5,949.9h-0.4c-41.6,0-75.3-33.7-75.3-75.3v0c0-41.6,33.7-75.3,75.3-75.3h84c19.8,0,35.8,16,35.8,35.8
			v60.2h61.2c3.9,0,7,3.1,7,7v17.1c0,3.9-3.1,7-7,7h0c-3.9,0-7-3.1-7-7v-8.6"/>
		<line class="st7" x1="822.1" y1="856.1" x2="822.1" y2="1050.8"/>
		<path class="st7" d="M723.5,1050.8h117.7c5.9,0,10.6,4.8,10.6,10.6l0,0c0,5.9-4.8,10.6-10.6,10.6h-19.1"/>
		<line class="st7" x1="723.6" y1="898.5" x2="822.1" y2="898.5"/>
		<line class="st7" x1="772.9" y1="927.9" x2="772.9" y2="1050.8"/>
		<line class="st7" x1="663" y1="827.7" x2="700.9" y2="856.1"/>
		<path class="st7" d="M911.2,910.9l10.6,10.1c3.1,3,3.1,8-0.1,10.9l0,0c-2.9,2.7-7.5,2.6-10.3-0.2l-5.4-5.3"/>
		<path class="st7" d="M897.9,922.2l10.6,10.1c3.1,3,3.1,8-0.1,10.9l0,0c-2.9,2.7-7.5,2.6-10.3-0.2l-5.4-5.3"/>
		<path class="st7" d="M892.2,937.6l6.8,6c3.1,3,3.1,8-0.1,10.9l0,0c-2.9,2.7-7.5,2.6-10.3-0.2l-5.4-5.3"/>
		<path class="st7" d="M884.9,950.9l-6.8-6c-3.1-3-3.1-8,0.1-10.9l0,0c2.9-2.7,7.5-2.6,10.3,0.2l5.4,5.3"/>
		<path class="st7" d="M894.4,939.5l-6.8-6c-3.1-3-3.1-8,0.1-10.9l0,0c2.9-2.7,7.5-2.6,10.3,0.2l5.4,5.3"/>
		<line class="st7" x1="875.7" y1="941.4" x2="822.1" y2="941.4"/>
		<polyline class="st7" points="883.3,949.2 856.5,976 912.9,1032.4 998.5,946.9 960,908.4 916,915.4 		"/>
		<polygon class="st7" points="957.6,965 954.4,953.2 936,958 940.5,940.9 928.6,937.8 922.4,961.6 896.2,968.5 899.3,980.3 
			918.8,975.2 913.3,996.1 925.2,999.2 932.4,971.6 		"/>
		<polyline class="st7" points="979.6,927.9 1000.4,907.1 1033.8,907.1 1033.8,920.6 1006.7,920.6 991,936.2 		"/>
		<path class="st8" d="M1047.3,922.2c19.2,0,85.5,34.3,85.5,79.8"/>
		<path class="st8" d="M1045.7,910.9c32.2,0,72.1,7.8,93.8,28.7"/>
		<path class="st8" d="M1045.7,899.8c20.8-3.9,66.4-10.8,93.8-1.6"/>
		<line class="st6" x1="760.9" y1="776.5" x2="753.9" y2="799.3"/>
		<line class="st6" x1="778.8" y1="776.4" x2="784.2" y2="801.2"/>
		<g>
			<path class="st6" d="M766.1,713.3c-2.3-3-3.8-6.8-3.9-9.8c-0.1-4,5.6-5.1,7-1.4c0,0,0,0,0,0.1c1,2.8,2.3,9.6,10.9,12.7
				c0,0,21.8,5.5,21.8,30.4c0,17.7-14.3,32-32,32c-17.7,0-32-14.3-32-32c0-12.3,6.2-22.4,15.2-26.9"/>
			<path class="st6" d="M759.1,714.9c-2.3-3-3.8-7.5-3.9-10.6c-0.1-4,5.6-5.1,7-1.4"/>
			<path class="st6" d="M752.8,718c-2.3-3-3.8-7.5-3.9-10.6c-0.1-4,4.8-5.1,6.2-1.4"/>
		</g>
		<circle class="st6" cx="760.5" cy="746.1" r="1.2"/>
		<circle class="st6" cx="746.9" cy="746.1" r="1.2"/>
		<path class="st6" d="M785.2,754.7c4.3,0,7.7-3.5,7.7-7.7c0-4.3-3.5-7.7-7.7-7.7"/>
		<path class="st6" d="M762.1,767.3c5.4,1.4,12.5,0.8,15-8.9"/>
		<line class="st7" x1="755.8" y1="738.7" x2="761.5" y2="733"/>
		<line class="st7" x1="748.7" y1="738" x2="743.1" y2="732.3"/>
		<path class="st6" d="M1060.9,873c0,0-29.8-92.5-35.8-120l46.9,37.4l-73.5-160l73.5,55.7l-26.3-86.2l54.9,36.5l-66.8-80.4
			l-35.2-94.7l68.6,36.5l-10.1-67.8l87.8,42l-18.5-51.8l40.7,30.6l-21-81.4l28.4,21.6"/>
		<polyline class="st6" points="1765.2,253.9 1729.3,235.4 1743.5,284.7 1672.7,234.8 1703.9,287.2 1743.5,340.3 1690.3,310.6 
			1743.5,398.5 1695.8,374.8 1711.4,420.4 		"/>
	</g>
	<g id="poWKJa.tif_3_">
		<g>
			<path class="st9" d="M1256.5,339c1.8,3.8,3.3,7.8,5.4,11.4c9,15.1,22.2,24.8,39.5,28.3c14.4,2.9,28.4,1.2,41.7-5.1
				c1.5-0.7,3-1.6,4.5-2.3c0.5,0.4,0.9,0.9,1.4,1.3c10.2,7.9,20.4,15.8,30.6,23.7c-0.3,0.3-0.6,0.7-0.9,1
				c-14.2,12.7-30.9,20.2-49.6,23.1c-2.5,0.4-5,0.8-7.5,1.2c-5.3,0-10.6,0-15.9,0c-2.4-0.4-4.7-0.8-7.1-1.1
				c-24-3.7-44.2-14.5-60.6-32.3c-6.2-6.7-11.2-14.3-15.4-22.5c-0.1-0.2-0.1-0.5-0.2-0.7c1.3-1,2.6-2,3.9-3
				C1236.5,354.3,1246.5,346.7,1256.5,339z"/>
			<path class="st2" d="M1379.7,396.3c-10.2-7.9-20.4-15.8-30.6-23.7c-0.5-0.4-1-0.9-1.4-1.3c1.4-1.1,2.9-2.2,4.3-3.4
				c8.3-6.7,13.4-15.3,15.9-25.6c0.4-1.8-0.6-1.5-1.6-1.5c-14.7,0-29.3,0-44,0c-2.2,0-4.5-0.1-6.7,0c-1.4,0.1-1.9-0.3-1.9-1.8
				c0.1-5.5,0-11.1,0-16.6c0-6.3,0-12.7,0-19c0-1.4,0.4-1.8,1.8-1.8c30.4,0,60.8,0,91.1,0c1.4,0,2,0.5,2.2,1.8
				c0.5,3.8,1.1,7.6,1.7,11.3c0.1,0.5,0.3,0.9,0.4,1.4c0,3.4,0,6.9,0,10.3c-0.1,0.4-0.3,0.8-0.4,1.2c-0.5,4.5-0.9,8.9-1.6,13.4
				c-2.7,16.5-8.9,31.6-19.4,44.7C1386.6,389.5,1383,392.8,1379.7,396.3z"/>
			<path class="st2" d="M1222.6,275.3c2.4-4.2,4.5-8.5,7.2-12.5c10.5-15.5,24.4-27.1,41.4-35c9.8-4.5,20.2-7.3,30.9-8.5
				c19.3-2.2,37.6,0.9,55.1,9.2c8.1,3.9,15.5,8.8,22.4,14.5c1.1,0.9,0.7,1.3,0,2.1c-6.9,6.9-13.9,13.8-20.8,20.7
				c-2.2,2.1-4.4,4.2-6.4,6.5c-0.9,1-1.5,1-2.6,0.2c-5.6-4.4-11.8-7.7-18.7-9.7c-17.7-5.1-34.4-2.9-49.9,6.9
				c-11.3,7.2-19.2,17.2-23.8,29.8c-0.2,0.6-0.5,1.1-0.7,1.6c-1.7-1.3-3.4-2.5-5.1-3.8C1241.9,290,1232.2,282.6,1222.6,275.3z"/>
			<path class="st10" d="M1222.6,275.3c9.7,7.4,19.3,14.7,29,22.1c1.7,1.3,3.4,2.5,5.1,3.8c-0.8,3.9-1.8,7.7-2.4,11.6
				c-1.2,8.1-0.4,16,1.7,23.9c0.2,0.8,0.4,1.7,0.6,2.5c-10,7.6-20,15.3-30,22.9c-1.3,1-2.6,2-3.9,3c-3-5.4-5-11.2-6.7-17.1
				c-3.3-11.3-4.3-22.9-3.6-34.7c0.8-13.1,4.2-25.6,9.9-37.4C1222.3,275.5,1222.4,275.4,1222.6,275.3z"/>
		</g>
	</g>
	<g id="tauLeQ.tif_3_">
		<g>
			<g>
				<path class="st2" d="M1796.9,235.9c0-3.6,0-7.2,0-10.8c0.1-0.2,0.2-0.4,0.2-0.6c0.4-5.4,1-10.8,2.2-16.1
					c2.1-9.8,5.5-19.2,10.3-28.1c6.2-11.6,14.4-21.8,24.4-30.4c7.6-6.6,16-12,25.2-16.2c12.4-5.7,25.4-8.8,39-9.6
					c7.6-0.4,15.1,0.1,22.6,1.3c8.2,1.3,16.2,3.6,23.9,6.8c10.4,4.3,19.8,10.1,28.4,17.5c10.2,8.7,18.5,19,24.8,30.9
					c7.4,13.8,11.5,28.6,12.3,44.2c0.5,9.5-0.2,18.8-2.2,28.1c-2.6,12.1-7.1,23.4-13.6,33.9c-6.4,10.4-14.4,19.4-23.9,27.1
					c-6.8,5.5-14.3,10.1-22.2,13.8c-7.3,3.4-14.9,5.9-22.8,7.5c-1.6,0.3-3.3,0.6-5,0.9c0-24.9,0-49.6,0-74.5c8.3,0,16.5,0,24.8,0
					c1.6-10.3,3.1-20.5,4.7-30.9c-9.9,0-19.7,0-29.6,0c0-0.4,0-0.7,0-0.9c0-6.2,0-12.4,0-18.6c0-1.4,0.1-2.9,0.3-4.3
					c1-5.6,4-9.7,9.5-11.6c2-0.7,4.1-1.1,6.3-1.1c4.6,0,9.3,0,13.9,0c0.3,0,0.5,0,0.8,0c0-8.8,0-17.5,0-26.2
					c-0.3-0.1-0.6-0.1-0.9-0.2c-7.2-1.1-14.4-1.8-21.7-1.9c-5.9-0.1-11.7,0.5-17.4,2.5c-9.3,3.3-16.1,9.4-20.2,18.4
					c-2.6,5.8-3.9,12-3.9,18.4c-0.1,8.2,0,16.4,0,24.5c0,0.3,0,0.6,0,1c-9.1,0-18,0-27,0c0,10.3,0,20.6,0,30.8c9,0,18,0,27,0
					c0,24.8,0,49.6,0,74.4c-1.2-0.2-2.4-0.4-3.6-0.6c-11.1-2.2-21.6-6-31.5-11.5c-12.4-6.9-23-15.9-31.8-27.1
					c-7.5-9.5-13.2-19.9-17.1-31.3c-3.1-8.9-5-18.1-5.6-27.6C1797.1,237.1,1797,236.5,1796.9,235.9z"/>
			</g>
		</g>
	</g>
	<g id="ApqPuv_1_">
		<g>
			<path class="st2" d="M1557.4,515.4c6.4,0,12.8,0.1,19.1,0c2.7,0,3.9,1,3.7,3.7c-0.1,1.5,0,3,0,4.5c0.1,3.8,1.5,5.3,5.3,5.4
				c4.7,0.2,9.4,0.1,14.1,0.1c5.4,0,10.8,0.1,16.2,0c4.3-0.1,5.5-1.4,5.5-5.6c0-10.1,0-20.1,0-30.2c0-4.2-1.3-5.5-5.6-5.6
				c-9.9-0.1-19.7-0.1-29.6,0c-4.4,0-5.8,1.6-5.8,6.1c-0.1,8.2,0.8,7.5-7.6,7.5c-11.4,0-22.7,0-34.1,0c-3.9,0-4.2-0.4-3.6-4.2
				c5-31.2,32.1-54.4,63.6-55.5c32.4-1.1,60.6,21.1,67.5,52c8.6,38.8-17.2,76.1-56.8,81.1c-38.7,4.9-68.9-22.4-74.3-54.8
				c-0.7-4.1-0.5-4.4,3.9-4.4C1545,515.4,1551.2,515.4,1557.4,515.4z"/>
		</g>
	</g>
</g>
</svg>
