<?xml version="1.0" encoding="utf-8"?>
<!-- Generator: Adobe Illustrator 25.2.3, SVG Export Plug-In . SVG Version: 6.00 Build 0)  -->
<svg version="1.1" id="Camada_1" xmlns="http://www.w3.org/2000/svg" xmlns:xlink="http://www.w3.org/1999/xlink" x="0px" y="0px"
	 viewBox="0 0 1861.8 1050" style="enable-background:new 0 0 1861.8 1050;" xml:space="preserve">
<style type="text/css">
	.st0{fill:none;stroke:#00BFFF;stroke-width:3;stroke-linecap:round;stroke-miterlimit:10;}
	.st1{fill:#6998F6;}
	.st2{fill:#00BFFF;}
	.st3{fill:none;stroke:#000000;stroke-width:6;stroke-linecap:round;stroke-linejoin:round;stroke-miterlimit:10;}
	.st4{fill:#D7F7FF;stroke:#00BFFF;stroke-width:3;stroke-linecap:round;stroke-linejoin:round;stroke-miterlimit:10;}
</style>
<path class="st0" d="M1528.1,1047.6H995.6c-34.7,0-62.9-28.2-62.9-62.9V402.4c0-34.7,28.1-62.9,62.9-62.9h532.5
	c34.7,0,62.9,28.1,62.9,62.9v582.3C1591,1019.5,1562.8,1047.6,1528.1,1047.6z"/>
<path class="st1" d="M1352.3,570.3l1.6,24c-0.2,20.1-4,48.4-22.1,66.7c0,0,15-1,19.4,6c4.4,7,10.5,9,0,24.5l9.3,2.3L1860.9,258V15.6
	L1352.3,570.3z"/>
<path class="st0" d="M592.2,570.2c16,0,29.1,13,29.1,29.1c0,16-13,29.1-29.1,29.1"/>
<path class="st0" d="M509.3,575.1c-13.2,0-23.9-10.7-23.9-23.9"/>
<path class="st0" d="M450.2,575.1c13.2,0,23.9-10.7,23.9-23.9"/>
<path class="st0" d="M479.2,613h-11.8c-4.2,0-7.7,3.4-7.7,7.7c0,4.2,3.4,7.7,7.7,7.7h11.8"/>
<path class="st0" d="M1197,613h-11.8c-4.2,0-7.7,3.4-7.7,7.7c0,4.2,3.4,7.7,7.7,7.7h11.8"/>
<path class="st0" d="M1310,566.9c16,0,29.1,13,29.1,29.1c0,16-13,29.1-29.1,29.1"/>
<path class="st0" d="M1282.6,930.4c8.2-8.2,18.1-11.5,22.3-7.4c4.1,4.1,0.8,14.1-7.4,22.3"/>
<path class="st0" d="M1318,964.2c8.2-8.2,18.1-11.5,22.3-7.4c4.1,4.1,0.8,14.1-7.4,22.3"/>
<path class="st0" d="M813.7,1047.6H281.2c-34.7,0-62.9-28.2-62.9-62.9V402.4c0-34.7,28.1-62.9,62.9-62.9h532.5
	c34.7,0,62.9,28.1,62.9,62.9v582.3C876.6,1019.5,848.4,1047.6,813.7,1047.6z"/>
<path class="st0" d="M377.4,1047.6V923H221.7"/>
<path class="st0" d="M731.5,1047.6V923"/>
<path class="st0" d="M833.8,1045.9V930.2c0-71.8-58.2-130-130-130H600.3"/>
<path class="st0" d="M733.2,993.1h100.6"/>
<path class="st0" d="M292.2,800.1h200l26.2-99"/>
<path class="st0" d="M334.1,800.3v122.4"/>
<path class="st0" d="M221.7,800.3l238.1-142.5"/>
<path class="st0" d="M441.3,800.1l62.1-41.8"/>
<path class="st0" d="M614.8,800c-11.9,30.4-41.4,51.9-76,51.9c-34.7,0-64.3-21.6-76.1-52.1"/>
<path class="st0" d="M528.6,501c-7.1-9.4-11.8-21.1-12.1-30.6c-0.4-12.4,17.4-15.9,21.8-4.3c0,0.1,0.1,0.1,0.1,0.2
	c3.2,8.8,7.3,29.9,34.1,39.6l-1.2-0.1c40.2,12.8,69.4,50.5,69.4,95c0,55.1-44.6,99.7-99.7,99.7c-55.1,0-99.7-44.6-99.7-99.7
	c0-38.4,19.4-70,47.4-84"/>
<path class="st0" d="M506.7,505.9c-7.1-9.4-11.8-23.5-12.1-33.1c-0.4-12.4,17.4-15.9,21.8-4.3"/>
<path class="st0" d="M487.3,515.6c-7.1-9.4-11.8-23.5-12.1-33.1c-0.4-12.4,15-15.9,19.4-4.3"/>
<path class="st0" d="M636.6,695.1L589.7,742c-6.9,6.9-18,6.9-24.9,0c-6.9-6.9-6.9-18,0-24.9l46.9-46.9c6.9-6.9,18-6.9,24.9,0
	C643.5,677,643.5,688.2,636.6,695.1z"/>
<path class="st0" d="M653.4,726.9l-46.9,46.9c-6.9,6.9-18,6.9-24.9,0c-6.9-6.9-6.9-18,0-24.9l46.9-46.9c6.9-6.9,18-6.9,24.9,0
	C660.3,708.9,660.3,720,653.4,726.9z"/>
<path class="st0" d="M673.5,757.1L626.6,804c-6.9,6.9-18,6.9-24.9,0c-6.9-6.9-6.9-18,0-24.9l46.9-46.9c6.9-6.9,18-6.9,24.9,0
	C680.4,739.1,680.4,750.2,673.5,757.1z"/>
<path class="st0" d="M1091.8,1044.3V919.7H936.1"/>
<path class="st0" d="M1445.8,1044.3V919.7"/>
<path class="st0" d="M1548.2,1042.5V926.8c0-71.8-58.2-130-130-130h-103.4"/>
<path class="st0" d="M1445.9,991.5h100.6"/>
<path class="st0" d="M1006.6,796.8h200l26.2-99"/>
<path class="st0" d="M1048.5,796.9v122.4"/>
<path class="st0" d="M936.1,796.9l238.1-142.5"/>
<path class="st0" d="M1155.7,796.8l62.1-41.8"/>
<path class="st0" d="M1329.2,796.6c-11.9,30.4-41.4,51.9-76,51.9c-34.7,0-64.3-21.6-76.1-52.1"/>
<path class="st0" d="M1243,497.6c-7.1-9.4-11.8-21.1-12.1-30.6c-0.4-12.4,17.4-15.9,21.8-4.3c0,0.1,0,0.1,0.1,0.2
	c3.2,8.8,7.3,29.9,34.1,39.6l-1.2-0.1c40.2,12.8,69.4,50.5,69.4,95c0,55.1-44.6,99.7-99.7,99.7c-55.1,0-99.7-44.6-99.7-99.7
	c0-38.4,19.4-70,47.4-84"/>
<path class="st0" d="M1221.1,502.5c-7.1-9.4-11.8-23.5-12.1-33.1c-0.4-12.4,17.4-15.9,21.8-4.3"/>
<path class="st0" d="M1201.7,512.2c-7.1-9.4-11.8-23.5-12.1-33.1c-0.4-12.4,15-15.9,19.4-4.3"/>
<path class="st0" d="M1351,691.7l-46.9,46.9c-6.9,6.9-18,6.9-24.9,0c-6.9-6.9-6.9-18,0-24.9l46.9-46.9c6.9-6.9,18-6.9,24.9,0
	C1357.9,673.7,1357.9,684.8,1351,691.7z"/>
<path class="st0" d="M1367.8,723.6l-46.9,46.9c-6.9,6.9-18,6.9-24.9,0c-6.9-6.9-6.9-18,0-24.9l46.9-46.9c6.9-6.9,18-6.9,24.9,0
	C1374.7,705.5,1374.7,716.7,1367.8,723.6z"/>
<path class="st0" d="M1387.9,753.8l-46.9,46.9c-6.9,6.9-18,6.9-24.9,0c-6.9-6.9-6.9-18,0-24.9l46.9-46.9c6.9-6.9,18-6.9,24.9,0
	C1394.8,735.7,1394.8,746.9,1387.9,753.8z"/>
<path class="st0" d="M1197.4,554.6c0-14.8,6.3-26.8,14-26.8c7.7,0,14,12,14,26.8"/>
<path class="st0" d="M1151.6,554.6c0-14.8,6.3-26.8,14-26.8c7.8,0,14,12,14,26.8"/>
<path class="st0" d="M1258.9,658.5c-4.8,0-8.7-3.9-8.7-8.7c0-4.8,3.9-8.7,8.7-8.7c4.8,0,8.7,3.9,8.7,8.7
	C1267.7,654.6,1263.8,658.5,1258.9,658.5z"/>
<path class="st0" d="M1175.9,592.3c2.8,0,5-4.1,5-9.2c0-5.1-2.3-9.2-5-9.2c-2.8,0-5,4.1-5,9.2
	C1170.9,588.2,1173.1,592.3,1175.9,592.3z"/>
<path class="st0" d="M1206.9,593.1c2.8,0,5-4.1,5-9.2s-2.3-9.2-5-9.2c-2.8,0-5,4.1-5,9.2S1204.1,593.1,1206.9,593.1z"/>
<path class="st2" d="M461.5,605.7c2.8,0,5-4.1,5-9.2c0-5.1-2.3-9.2-5-9.2c-2.8,0-5,4.1-5,9.2C456.5,601.6,458.7,605.7,461.5,605.7z"
	/>
<path class="st2" d="M492.5,606.6c2.8,0,5-4.1,5-9.2s-2.3-9.2-5-9.2s-5,4.1-5,9.2S489.8,606.6,492.5,606.6z"/>
<path class="st0" d="M525.2,651H570c7,0,12.7,5.7,12.7,12.7H554"/>
<path class="st0" d="M453.6,589.8h19.9"/>
<path class="st0" d="M485.4,589.8h19.9"/>
<path class="st0" d="M974.7,565.5h72.1"/>
<path class="st0" d="M1026.7,422.9l54.5,54.5"/>
<path class="st0" d="M1147.4,372.6v68.8"/>
<path class="st0" d="M1270.5,901.1l9.6-9.6c12.9-12.9,33.8-12.9,46.7,0l44.5,44.5c12.9,12.9,12.9,33.8,0,46.7l-4,4"/>
<path class="st1" d="M1859.2,315.2l-526.1,556.9c-16.5,17.4-16.1,44.7,0.9,61.7c16.3,16.3,42.4,17.4,59.9,2.4l465.3-395.1
	L1859.2,315.2L1859.2,315.2z"/>
<path class="st3" d="M1334.2,902.8l-9.4,10.6"/>
<path class="st3" d="M1345.7,920.9l-9.4,10.6"/>
<path class="st3" d="M1362.2,932.4l-9.4,10.6"/>
<path class="st4" d="M392.3,432.4H43c-23.7,0-43-19.2-43-43v-78.3c0-23.7,19.2-43,43-43h349.3c23.7,0,43,19.2,43,43v78.3
	C435.2,413.2,416,432.4,392.3,432.4z"/>
<path class="st2" d="M42.2,295.8v18.1H48v2.4H33.5v-2.4h5.7v-18.1h-5.7v-2.4H48v2.4H42.2z"/>
<path class="st2" d="M84.8,292.9v23.4h-2.6v-3c-1,2.1-2.5,3.4-5.1,3.4c-4,0-6.7-3.4-6.7-8.5c0-5.1,2.8-8.4,7.1-8.4
	c2.2,0,3.7,1.2,4.6,2.8v-9.7H84.8z M77.8,302.2c-2.8,0-4.4,2.2-4.4,6c0,3.7,1.6,6.1,4.3,6.1c2.7,0,4.5-2.2,4.5-5.7v-0.7
	C82.1,304.4,80.5,302.2,77.8,302.2z"/>
<path class="st2" d="M90,308.2c0-5.1,3-8.5,7.5-8.5c4.5,0,7.5,3.3,7.5,8.5s-3,8.5-7.5,8.5C93,316.7,90,313.3,90,308.2z M102.1,308.2
	c0-3.8-1.7-6.1-4.6-6.1c-2.9,0-4.6,2.3-4.6,6.1c0,3.8,1.7,6.1,4.6,6.1C100.4,314.3,102.1,312,102.1,308.2z"/>
<path class="st2" d="M117.7,299.7c1.3,0,2.8,0.4,3.9,1.4c1.1,1,1.6,2.6,1.6,5.2v10h-2.7v-9.8c0-3.5-1.7-4.3-3.4-4.3
	c-3.7,0-4.5,3.4-4.5,5.7v8.4h-2.7v-16.2h2.6v3.2C113.2,301.3,115,299.7,117.7,299.7z"/>
<path class="st2" d="M133.4,300.8c1.8-0.8,2.2-1.5,2.2-3.3h-2.4v-4.1h4.3v4.1c0,2.5-0.8,3.8-3.3,4.8L133.4,300.8z"/>
<path class="st2" d="M147.1,300.1h4.6v-4.2l2.7-1.2v5.4h6.3v2.2h-6.3v8.4c0,2.2,1,3.2,3.1,3.2c1.1,0,2.2-0.1,3.2-0.3v2.5
	c-0.8,0.2-1.7,0.4-3.2,0.4c-4,0-5.9-2.3-5.9-5.5v-8.8h-4.6V300.1z"/>
<path class="st2" d="M191.6,308.4l-2.9,3v4.9h-2.7v-23.4h2.7v15.2l7.2-8h3.6l-5.9,6.2l6.3,9.9h-3.4L191.6,308.4z"/>
<path class="st2" d="M212.3,299.7c1.3,0,2.8,0.4,3.9,1.4c1.1,1,1.6,2.6,1.6,5.2v10H215v-9.8c0-3.5-1.7-4.3-3.4-4.3
	c-3.7,0-4.5,3.4-4.5,5.7v8.4h-2.7v-16.2h2.6v3.2C207.8,301.3,209.6,299.7,212.3,299.7z"/>
<path class="st2" d="M222.5,308.2c0-5.1,3-8.5,7.5-8.5c4.5,0,7.5,3.3,7.5,8.5s-3,8.5-7.5,8.5C225.5,316.7,222.5,313.3,222.5,308.2z
	 M234.6,308.2c0-3.8-1.7-6.1-4.6-6.1s-4.6,2.3-4.6,6.1c0,3.8,1.7,6.1,4.6,6.1S234.6,312,234.6,308.2z"/>
<path class="st2" d="M242.7,300.1l1.6,11.1l0.3,2.3h0.2c0.1-0.7,0.2-1.3,0.5-2.7l2.1-10.7h2.8l2.1,10.7c0.3,1.5,0.4,2,0.5,2.7h0.2
	l0.3-2.3l1.6-11.1h2.9l-3.1,16.2h-3.5l-2.1-10.4c-0.1-0.6-0.3-2-0.3-2.7h-0.2c0,0.6-0.2,2-0.3,2.7l-2.1,10.4H243l-3.1-16.2H242.7z"
	/>
<path class="st2" d="M280.8,314h5.2v-11.6h-4.7v-2.3h7.4V314h5.5v2.3h-13.4V314z M289,296.9h-3.9V293h3.9V296.9z"/>
<path class="st2" d="M312.5,302.4h-6.1v13.9h-2.7v-13.9h-4.9v-2.2h4.9v-1.8c0-3.7,2.1-5.6,6.1-5.6c0.9,0,1.7,0.1,2.8,0.3v2.4
	c-0.7-0.1-1.6-0.3-2.8-0.3c-2.5,0-3.3,0.8-3.3,3.3v1.6h6.1L312.5,302.4L312.5,302.4z"/>
<path class="st2" d="M336.4,300.1h4.6v-4.2l2.7-1.2v5.4h6.3v2.2h-6.3v8.4c0,2.2,1,3.2,3.1,3.2c1.1,0,2.2-0.1,3.2-0.3v2.5
	c-0.8,0.2-1.7,0.4-3.2,0.4c-4,0-5.9-2.3-5.9-5.5v-8.8h-4.6V300.1z"/>
<path class="st2" d="M363.7,299.7c1.3,0,2.8,0.4,4,1.4c1,1,1.6,2.5,1.6,5.1v10h-2.7v-9.8c0-3.5-1.8-4.3-3.5-4.3
	c-3.5,0-4.4,3.4-4.4,5.7v8.4h-2.7v-23.4h2.7v10.2C359.3,301.1,361.3,299.7,363.7,299.7z"/>
<path class="st2" d="M375.5,314h5.2v-11.6H376v-2.3h7.4V314h5.5v2.3h-13.4V314z M383.7,296.9h-3.9V293h3.9V296.9z"/>
<path class="st2" d="M393.8,311.3l2.8-0.5c0.4,2.4,1.9,3.6,4.3,3.6c2.2,0,3.4-0.9,3.4-2.4c0-1.6-0.8-2.3-2.6-2.5l-2.6-0.3
	c-3.2-0.4-4.7-2.2-4.7-4.7c0-2.9,2.3-4.8,6.1-4.8c3.7,0,6.2,1.9,6.5,4.9l-2.7,0.6c-0.4-1.9-1.7-3.3-3.9-3.3c-2.1,0-3.4,0.9-3.4,2.4
	c0,1.4,0.9,2.2,2.9,2.5l2.6,0.3c3.2,0.4,4.5,2,4.5,4.6c0,3.1-2.3,4.9-6.2,4.9C396.9,316.7,394.4,314.8,393.8,311.3z"/>
<path class="st2" d="M34.8,352.8h5.2v-11.6h-4.7v-2.3h7.4v13.9h5.5v2.3H34.8V352.8z M43,335.7h-3.9v-3.9H43V335.7z"/>
<path class="st2" d="M53.1,350.1l2.8-0.5c0.4,2.4,1.9,3.6,4.3,3.6c2.2,0,3.4-0.9,3.4-2.4c0-1.6-0.8-2.3-2.6-2.5l-2.6-0.3
	c-3.2-0.4-4.7-2.2-4.7-4.7c0-2.9,2.3-4.8,6.1-4.8c3.7,0,6.2,1.9,6.5,4.9l-2.7,0.6c-0.4-1.9-1.7-3.3-3.9-3.3c-2.1,0-3.4,0.9-3.4,2.4
	c0,1.4,0.9,2.2,2.9,2.5l2.6,0.3c3.2,0.4,4.5,2,4.5,4.6c0,3.1-2.3,4.9-6.2,4.9C56.2,355.4,53.7,353.5,53.1,350.1z"/>
<path class="st2" d="M90.9,350.1l2.8-0.5c0.4,2.4,1.9,3.6,4.3,3.6c2.2,0,3.4-0.9,3.4-2.4c0-1.6-0.8-2.3-2.6-2.5l-2.6-0.3
	c-3.2-0.4-4.7-2.2-4.7-4.7c0-2.9,2.3-4.8,6.1-4.8c3.7,0,6.2,1.9,6.5,4.9l-2.7,0.6c-0.4-1.9-1.7-3.3-3.9-3.3c-2.1,0-3.4,0.9-3.4,2.4
	c0,1.4,0.9,2.2,2.9,2.5l2.6,0.3c3.2,0.4,4.5,2,4.5,4.6c0,3.1-2.3,4.9-6.2,4.9C94.1,355.4,91.5,353.5,90.9,350.1z"/>
<path class="st2" d="M115.3,355.4c-1.5,0-3-0.4-4.1-1.4c-1-1-1.5-2.5-1.5-5.1v-10h2.8v9.9c0,3.5,1.7,4.3,3.4,4.3
	c3.4,0,4.2-3.4,4.2-5.8v-8.4h2.7v16.2h-2.6V352C119.6,353.6,117.7,355.4,115.3,355.4z"/>
<path class="st2" d="M127.9,346.9c0-4.8,2.5-8.4,7.5-8.4c3.6,0,6.2,2.1,6.6,5.8l-2.8,0.3c-0.3-2.4-1.6-3.7-3.9-3.7
	c-3,0-4.5,2.4-4.5,5.9c0,3.7,1.5,6.2,4.6,6.2c2.4,0,3.6-1.4,4-3.9l2.6,0.4c-0.5,3.3-2.6,5.9-6.6,5.9
	C130.5,355.4,127.9,351.7,127.9,346.9z"/>
<path class="st2" d="M155.4,338.5c1.3,0,2.8,0.4,4,1.4c1,1,1.6,2.5,1.6,5.1v10h-2.7v-9.8c0-3.5-1.8-4.3-3.5-4.3
	c-3.5,0-4.4,3.4-4.4,5.7v8.4h-2.7v-23.4h2.7v10.2C151.1,339.9,153.1,338.5,155.4,338.5z"/>
<path class="st2" d="M198.8,355.1h-2.9c-0.1-0.9-0.2-2-0.3-2.9c-1.1,2.3-2.8,3.3-5.5,3.3c-3.2,0-5.4-2-5.4-4.8c0-1.7,0.8-3,2.3-3.8
	c1.1-0.6,2.8-1,5.5-1.3l2.9-0.4v-0.3c0-2.9-1.1-4.1-3.5-4.1c-2.3,0-3.7,1.2-3.8,3.2h-2.9c0.3-3.5,2.8-5.5,6.9-5.5c4.2,0,6,2.1,6,6.7
	v4.4C198.3,352.2,198.4,353.9,198.8,355.1z M191.7,347.7c-2.8,0.4-4,1.2-4,2.8c0,1.6,1.1,2.7,3,2.7c2.9,0,4.8-2,4.8-5.2v-0.8
	L191.7,347.7z"/>
<path class="st2" d="M234.5,340.2c0.9,0.9,1.5,2.2,1.5,3.7c0,3.3-2.5,5.5-6.1,5.5c-1.1,0-2.2-0.2-3-0.6c-0.7,0.3-1.1,0.9-1.1,1.6
	c0,1,0.8,1.6,2.7,1.6h4.2c3.4,0,5.3,1.6,5.3,4.4c0,3.4-2.9,5.3-8,5.3c-4.6,0-7.3-1.6-7.3-4.1c0-1.7,1.1-3,2.8-3.6
	c-1.3-0.5-2-1.5-2-2.9c0-1.5,0.8-2.6,2.3-3.1c-1-0.9-1.6-2.3-1.6-3.9c0-3.3,2.4-5.6,6-5.6c1.2,0,2.2,0.3,3.1,0.7
	c0.6-1.9,1.9-3,3.9-3c0.4,0,0.7,0,1,0.1v2.4c-0.5-0.1-0.8-0.1-1.2-0.1C235.7,338.6,235,339.1,234.5,340.2z M228.3,354.5
	c-0.5,0-0.9,0-1.4-0.1c-1.1,0.5-1.7,1.4-1.7,2.5c0,1.7,1.6,2.6,4.9,2.6c3.5,0,4.9-1,4.9-2.7c0-1.5-1-2.3-3.1-2.3H228.3z
	 M233.4,343.9c0-1.9-1.4-3.3-3.4-3.3c-2,0-3.4,1.4-3.4,3.4c0,2,1.4,3.3,3.3,3.3C231.9,347.4,233.4,345.9,233.4,343.9z"/>
<path class="st2" d="M241.4,347c0-5.1,3-8.5,7.5-8.5c4.5,0,7.5,3.3,7.5,8.5c0,5.1-3,8.5-7.5,8.5C244.4,355.4,241.4,352,241.4,347z
	 M253.6,347c0-3.8-1.7-6.1-4.6-6.1c-2.9,0-4.6,2.3-4.6,6.1s1.7,6.1,4.6,6.1C251.9,353,253.6,350.8,253.6,347z"/>
<path class="st2" d="M260.4,347c0-5.1,3-8.5,7.5-8.5c4.5,0,7.5,3.3,7.5,8.5c0,5.1-3,8.5-7.5,8.5C263.4,355.4,260.4,352,260.4,347z
	 M272.5,347c0-3.8-1.7-6.1-4.6-6.1c-2.9,0-4.6,2.3-4.6,6.1s1.7,6.1,4.6,6.1C270.8,353,272.5,350.8,272.5,347z"/>
<path class="st2" d="M293,331.6v23.4h-2.6v-3c-1,2.1-2.5,3.4-5.1,3.4c-4,0-6.7-3.4-6.7-8.5c0-5.1,2.8-8.4,7.1-8.4
	c2.2,0,3.7,1.2,4.6,2.8v-9.7H293z M286,340.9c-2.8,0-4.4,2.2-4.4,6c0,3.7,1.6,6.1,4.3,6.1c2.7,0,4.5-2.2,4.5-5.7v-0.7
	C290.4,343.1,288.7,340.9,286,340.9z"/>
<path class="st2" d="M318.7,352.8h5.2v-11.6h-4.7v-2.3h7.4v13.9h5.5v2.3h-13.4V352.8z M326.9,335.7H323v-3.9h3.9V335.7z"/>
<path class="st2" d="M349.8,331.6v23.4h-2.6v-3c-1,2.1-2.5,3.4-5.1,3.4c-4,0-6.7-3.4-6.7-8.5c0-5.1,2.8-8.4,7.1-8.4
	c2.2,0,3.7,1.2,4.6,2.8v-9.7H349.8z M342.8,340.9c-2.8,0-4.4,2.2-4.4,6c0,3.7,1.6,6.1,4.3,6.1c2.7,0,4.5-2.2,4.5-5.7v-0.7
	C347.2,343.1,345.5,340.9,342.8,340.9z"/>
<path class="st2" d="M369.3,347.7h-11.3c0,3,1.7,5.3,4.8,5.3c2.1,0,3.5-1.3,4.3-2.9l2.3,1.2c-1.4,2.7-3.6,4.1-6.6,4.1
	c-5.1,0-7.6-3.5-7.6-8.8c0-4.9,2.8-8.1,7.4-8.1c4.9,0,6.9,3.6,6.9,8C369.3,346.9,369.3,347.3,369.3,347.7z M362.3,340.6
	c-2.9,0-4.4,2.4-4.4,4.8h8.6C366.5,342.8,365.2,340.6,362.3,340.6z"/>
<path class="st2" d="M388.1,355.1h-2.9c-0.1-0.9-0.2-2-0.3-2.9c-1.1,2.3-2.8,3.3-5.5,3.3c-3.2,0-5.4-2-5.4-4.8c0-1.7,0.8-3,2.3-3.8
	c1.1-0.6,2.8-1,5.5-1.3l2.9-0.4v-0.3c0-2.9-1.1-4.1-3.5-4.1c-2.3,0-3.7,1.2-3.8,3.2h-2.9c0.3-3.5,2.8-5.5,6.9-5.5c4.2,0,6,2.1,6,6.7
	v4.4C387.6,352.2,387.7,353.9,388.1,355.1z M381,347.7c-2.8,0.4-4,1.2-4,2.8c0,1.6,1.1,2.7,3,2.7c2.9,0,4.8-2,4.8-5.2v-0.8
	L381,347.7z"/>
<path class="st2" d="M402.5,355.1h-4.3v-4.1h4.3V355.1z"/>
<path class="st2" d="M37.4,370.9v20.4h11v2.6h-14v-22.9L37.4,370.9L37.4,370.9z"/>
<path class="st2" d="M66.4,386.4H55c0,3,1.7,5.3,4.8,5.3c2.1,0,3.5-1.3,4.3-2.9l2.3,1.2c-1.4,2.7-3.6,4.1-6.6,4.1
	c-5.1,0-7.6-3.5-7.6-8.8c0-4.9,2.8-8.1,7.4-8.1c4.9,0,6.9,3.6,6.9,8C66.4,385.6,66.4,386,66.4,386.4z M59.5,379.4
	c-2.9,0-4.4,2.4-4.4,4.8h8.6C63.7,381.6,62.4,379.4,59.5,379.4z"/>
<path class="st2" d="M71.4,377.7H76v-4.2l2.7-1.2v5.4h6.3v2.2h-6.3v8.4c0,2.2,1,3.2,3.1,3.2c1.1,0,2.2-0.1,3.2-0.3v2.5
	c-0.8,0.2-1.7,0.4-3.2,0.4c-4,0-5.9-2.3-5.9-5.5v-8.8h-4.6V377.7z"/>
<path class="st2" d="M114,377.3c1.6,0,2.8,1.1,3.4,2.9c0.8-1.9,2.2-2.9,3.8-2.9c2,0,3.8,1.4,3.8,4.8v11.7h-2.7v-11.5
	c0-2.1-1-2.6-1.9-2.6c-1.9,0-2.6,1.4-2.6,3.4v10.7h-2.7v-11.5c0-2-0.9-2.6-1.9-2.6c-1.9,0-2.5,1.5-2.5,3.4v10.7h-2.7v-16.2h2.6v2.5
	C111.1,378.4,112.4,377.3,114,377.3z"/>
<path class="st2" d="M142.1,386.4h-11.3c0,3,1.7,5.3,4.8,5.3c2.1,0,3.5-1.3,4.3-2.9l2.3,1.2c-1.4,2.7-3.6,4.1-6.6,4.1
	c-5.1,0-7.6-3.5-7.6-8.8c0-4.9,2.8-8.1,7.4-8.1c4.9,0,6.9,3.6,6.9,8C142.2,385.6,142.1,386,142.1,386.4z M135.2,379.4
	c-2.9,0-4.4,2.4-4.4,4.8h8.6C139.4,381.6,138.1,379.4,135.2,379.4z"/>
<path class="st2" d="M179.9,393.8H177c-0.1-0.9-0.2-2-0.3-2.9c-1.1,2.3-2.8,3.3-5.5,3.3c-3.2,0-5.4-2-5.4-4.8c0-1.7,0.8-3,2.3-3.8
	c1.1-0.6,2.8-1,5.5-1.3l2.9-0.4v-0.3c0-2.9-1.1-4.1-3.5-4.1c-2.3,0-3.7,1.2-3.8,3.2h-2.9c0.3-3.5,2.8-5.5,6.9-5.5c4.2,0,6,2.1,6,6.7
	v4.4C179.3,391,179.5,392.6,179.9,393.8z M172.8,386.5c-2.8,0.4-4,1.2-4,2.8c0,1.6,1.1,2.7,3,2.7c2.9,0,4.8-2,4.8-5.2V386
	L172.8,386.5z"/>
<path class="st2" d="M185.6,388.8l2.8-0.5c0.4,2.4,1.9,3.6,4.3,3.6c2.2,0,3.4-0.9,3.4-2.4c0-1.6-0.8-2.3-2.6-2.5l-2.6-0.3
	c-3.2-0.4-4.7-2.2-4.7-4.7c0-2.9,2.3-4.8,6.1-4.8c3.7,0,6.2,1.9,6.5,4.9l-2.7,0.6c-0.4-1.9-1.7-3.3-3.9-3.3c-2.1,0-3.4,0.9-3.4,2.4
	c0,1.4,0.9,2.2,2.9,2.5l2.6,0.3c3.2,0.4,4.5,2,4.5,4.6c0,3.1-2.3,4.9-6.2,4.9C188.7,394.2,186.2,392.3,185.6,388.8z"/>
<path class="st2" d="M210.6,385.9l-2.9,3v4.9h-2.7v-23.4h2.7v15.2l7.2-8h3.6l-5.9,6.2l6.3,9.9h-3.4L210.6,385.9z"/>
<path class="st2" d="M236.7,383.8v2.1h-13.3v-2.1H236.7z"/>
</svg>
