<svg width="1974" height="1096" viewBox="0 0 1974 1096" fill="none" xmlns="http://www.w3.org/2000/svg">
<path d="M1620.55 1093.61H1056.55C1019.77 1093.61 989.962 1063.79 989.962 1027.01V410.228C989.962 373.448 1019.77 343.635 1056.55 343.635H1620.55C1657.33 343.635 1687.14 373.448 1687.14 410.228V1027.01C1687.16 1063.78 1657.33 1093.61 1620.55 1093.61Z" stroke="#00BFFF" stroke-width="3" stroke-miterlimit="10" stroke-linecap="round"/>
<path d="M1434.38 588.026L1436.07 613.482C1435.91 634.776 1431.81 664.727 1412.71 684.118C1412.71 684.118 1428.61 683.038 1433.22 690.437C1437.85 697.837 1444.29 699.976 1433.22 716.345L1443.07 718.759L1973.02 257.258V0.522461L1434.38 588.026Z" fill="#6998F6"/>
<path d="M629.266 587.948C646.261 587.948 660.038 601.726 660.038 618.722C660.038 635.719 646.261 649.497 629.266 649.497" stroke="#00BFFF" stroke-width="3" stroke-miterlimit="10" stroke-linecap="round"/>
<path d="M541.461 593.09C527.488 593.09 516.184 581.765 516.184 567.811" stroke="#00BFFF" stroke-width="3" stroke-miterlimit="10" stroke-linecap="round"/>
<path d="M478.876 593.09C492.849 593.09 504.153 581.765 504.153 567.811" stroke="#00BFFF" stroke-width="3" stroke-miterlimit="10" stroke-linecap="round"/>
<path d="M509.59 633.266H497.068C492.574 633.266 488.943 636.897 488.943 641.391C488.943 645.886 492.574 649.516 497.068 649.516H509.59" stroke="#00BFFF" stroke-width="3" stroke-miterlimit="10" stroke-linecap="round"/>
<path d="M1269.82 633.266H1257.3C1252.81 633.266 1249.18 636.897 1249.18 641.391C1249.18 645.886 1252.81 649.516 1257.3 649.516H1269.82" stroke="#00BFFF" stroke-width="3" stroke-miterlimit="10" stroke-linecap="round"/>
<path d="M1389.5 584.395C1406.49 584.395 1420.27 598.173 1420.27 615.17C1420.27 632.166 1406.49 645.944 1389.5 645.944" stroke="#00BFFF" stroke-width="3" stroke-miterlimit="10" stroke-linecap="round"/>
<path d="M1360.49 969.411C1369.17 960.736 1379.7 957.242 1384.06 961.599C1388.42 965.956 1384.91 976.496 1376.25 985.171" stroke="#00BFFF" stroke-width="3" stroke-miterlimit="10" stroke-linecap="round"/>
<path d="M1398.05 1005.25C1406.73 996.574 1417.27 993.081 1421.62 997.438C1425.98 1001.79 1422.47 1012.33 1413.81 1021.01" stroke="#00BFFF" stroke-width="3" stroke-miterlimit="10" stroke-linecap="round"/>
<path d="M863.868 1093.61H299.872C263.094 1093.61 233.283 1063.79 233.283 1027.01V410.228C233.283 373.448 263.094 343.635 299.872 343.635H863.868C900.647 343.635 930.458 373.448 930.458 410.228V1027.01C930.458 1063.78 900.647 1093.61 863.868 1093.61Z" stroke="#00BFFF" stroke-width="3" stroke-miterlimit="10" stroke-linecap="round"/>
<path d="M401.767 1093.61V961.639H236.815" stroke="#00BFFF" stroke-width="3" stroke-miterlimit="10" stroke-linecap="round"/>
<path d="M776.751 1093.61V961.639" stroke="#00BFFF" stroke-width="3" stroke-miterlimit="10" stroke-linecap="round"/>
<path d="M885.162 1091.72V969.175C885.162 893.102 823.499 831.436 747.431 831.436H637.862" stroke="#00BFFF" stroke-width="3" stroke-miterlimit="10" stroke-linecap="round"/>
<path d="M778.596 1035.87H885.162" stroke="#00BFFF" stroke-width="3" stroke-miterlimit="10" stroke-linecap="round"/>
<path d="M311.49 831.435H523.288L551.058 726.609" stroke="#00BFFF" stroke-width="3" stroke-miterlimit="10" stroke-linecap="round"/>
<path d="M355.844 831.592V961.265" stroke="#00BFFF" stroke-width="3" stroke-miterlimit="10" stroke-linecap="round"/>
<path d="M236.815 831.593L489.061 680.605" stroke="#00BFFF" stroke-width="3" stroke-miterlimit="10" stroke-linecap="round"/>
<path d="M469.455 831.435L535.24 787.177" stroke="#00BFFF" stroke-width="3" stroke-miterlimit="10" stroke-linecap="round"/>
<path d="M653.169 831.278C640.57 863.466 609.267 886.253 572.627 886.253C535.907 886.253 504.546 863.368 492.005 831.082" stroke="#00BFFF" stroke-width="3" stroke-miterlimit="10" stroke-linecap="round"/>
<path d="M561.911 514.603C554.434 504.652 549.39 492.287 549.056 482.16C548.625 469.01 567.504 465.301 572.136 477.607C572.156 477.685 572.195 477.744 572.214 477.823C575.629 487.145 579.947 509.441 608.286 519.745L606.971 519.608C649.558 533.209 680.429 573.11 680.429 620.214C680.429 678.544 633.152 725.825 574.825 725.825C516.498 725.825 469.22 678.544 469.22 620.214C469.22 579.587 489.807 546.064 519.461 531.246" stroke="#00BFFF" stroke-width="3" stroke-miterlimit="10" stroke-linecap="round"/>
<path d="M538.714 519.765C531.236 509.814 526.193 494.859 525.859 484.751C525.427 471.601 544.307 467.892 548.939 480.197" stroke="#00BFFF" stroke-width="3" stroke-miterlimit="10" stroke-linecap="round"/>
<path d="M518.107 530.068C510.63 520.118 505.586 505.162 505.252 495.055C504.821 481.905 521.129 478.195 525.761 490.501" stroke="#00BFFF" stroke-width="3" stroke-miterlimit="10" stroke-linecap="round"/>
<path d="M676.308 720.172L626.636 769.847C619.355 777.129 607.54 777.129 600.24 769.847C592.959 762.566 592.959 750.751 600.24 743.45L649.931 693.775C657.212 686.493 669.027 686.493 676.328 693.775C683.609 701.056 683.609 712.871 676.308 720.172Z" stroke="#00BFFF" stroke-width="3" stroke-miterlimit="10" stroke-linecap="round"/>
<path d="M694.069 753.91L644.397 803.585C637.116 810.867 625.301 810.867 618.001 803.585C610.72 796.304 610.72 784.488 618.001 777.187L667.673 727.512C674.954 720.231 686.768 720.231 694.069 727.512C701.37 734.813 701.37 746.629 694.069 753.91Z" stroke="#00BFFF" stroke-width="3" stroke-miterlimit="10" stroke-linecap="round"/>
<path d="M715.402 785.882L665.73 835.557C658.449 842.838 646.634 842.838 639.333 835.557C632.052 828.275 632.052 816.46 639.333 809.159L689.006 759.484C696.287 752.203 708.101 752.203 715.402 759.484C722.683 766.785 722.683 778.6 715.402 785.882Z" stroke="#00BFFF" stroke-width="3" stroke-miterlimit="10" stroke-linecap="round"/>
<path d="M1158.45 1090.04V958.086H993.514" stroke="#00BFFF" stroke-width="3" stroke-miterlimit="10" stroke-linecap="round"/>
<path d="M1533.43 1090.04V958.086" stroke="#00BFFF" stroke-width="3" stroke-miterlimit="10" stroke-linecap="round"/>
<path d="M1641.84 1088.17V965.623C1641.84 889.55 1580.18 827.883 1504.11 827.883H1394.54" stroke="#00BFFF" stroke-width="3" stroke-miterlimit="10" stroke-linecap="round"/>
<path d="M1533.51 1034.1H1640.08" stroke="#00BFFF" stroke-width="3" stroke-miterlimit="10" stroke-linecap="round"/>
<path d="M1068.17 827.883H1279.97L1307.74 723.058" stroke="#00BFFF" stroke-width="3" stroke-miterlimit="10" stroke-linecap="round"/>
<path d="M1112.52 828.04V957.713" stroke="#00BFFF" stroke-width="3" stroke-miterlimit="10" stroke-linecap="round"/>
<path d="M993.514 828.04L1245.74 677.052" stroke="#00BFFF" stroke-width="3" stroke-miterlimit="10" stroke-linecap="round"/>
<path d="M1226.15 827.883L1291.94 783.625" stroke="#00BFFF" stroke-width="3" stroke-miterlimit="10" stroke-linecap="round"/>
<path d="M1409.87 827.726C1397.27 859.914 1365.97 882.7 1329.33 882.7C1292.61 882.7 1261.25 859.816 1248.7 827.53" stroke="#00BFFF" stroke-width="3" stroke-miterlimit="10" stroke-linecap="round"/>
<path d="M1318.59 511.051C1311.11 501.1 1306.07 488.735 1305.74 478.608C1305.3 465.458 1324.18 461.748 1328.82 474.054C1328.84 474.133 1328.87 474.192 1328.89 474.27C1332.31 483.593 1336.63 505.889 1364.97 516.193L1363.65 516.055C1406.24 529.657 1437.11 569.558 1437.11 616.661C1437.11 674.992 1389.83 722.272 1331.5 722.272C1273.18 722.272 1225.9 674.992 1225.9 616.661C1225.9 576.034 1246.49 542.512 1276.14 527.694" stroke="#00BFFF" stroke-width="3" stroke-miterlimit="10" stroke-linecap="round"/>
<path d="M1295.41 516.213C1287.94 506.262 1282.89 491.306 1282.56 481.199C1282.13 468.049 1301.01 464.339 1305.64 476.645" stroke="#00BFFF" stroke-width="3" stroke-miterlimit="10" stroke-linecap="round"/>
<path d="M1274.81 526.516C1267.33 516.565 1262.29 501.61 1261.95 491.502C1261.52 478.352 1277.83 474.643 1282.46 486.949" stroke="#00BFFF" stroke-width="3" stroke-miterlimit="10" stroke-linecap="round"/>
<path d="M1433.01 716.62L1383.33 766.295C1376.05 773.576 1364.24 773.576 1356.94 766.295C1349.66 759.013 1349.66 747.198 1356.94 739.897L1406.61 690.222C1413.89 682.94 1425.71 682.94 1433.01 690.222C1440.29 697.503 1440.29 709.319 1433.01 716.62Z" stroke="#00BFFF" stroke-width="3" stroke-miterlimit="10" stroke-linecap="round"/>
<path d="M1450.77 750.358L1401.1 800.033C1393.81 807.315 1382 807.315 1374.7 800.033C1367.42 792.752 1367.42 780.936 1374.7 773.635L1424.37 723.96C1431.65 716.679 1443.47 716.679 1450.77 723.96C1458.05 731.261 1458.05 743.076 1450.77 750.358Z" stroke="#00BFFF" stroke-width="3" stroke-miterlimit="10" stroke-linecap="round"/>
<path d="M1472.08 782.33L1422.41 832.005C1415.13 839.286 1403.31 839.286 1396.01 832.005C1388.73 824.723 1388.73 812.908 1396.01 805.607L1445.69 755.932C1452.97 748.65 1464.78 748.65 1472.08 755.932C1479.36 763.233 1479.36 775.048 1472.08 782.33Z" stroke="#00BFFF" stroke-width="3" stroke-miterlimit="10" stroke-linecap="round"/>
<path d="M1270.23 571.344C1270.23 555.642 1276.89 542.924 1285.09 542.924C1293.29 542.924 1299.95 555.642 1299.95 571.344" stroke="#00BFFF" stroke-width="3" stroke-miterlimit="10" stroke-linecap="round"/>
<path d="M1221.78 571.344C1221.78 555.642 1228.43 542.924 1236.63 542.924C1244.84 542.924 1251.49 555.642 1251.49 571.344" stroke="#00BFFF" stroke-width="3" stroke-miterlimit="10" stroke-linecap="round"/>
<path d="M1335.47 681.488C1330.37 681.488 1326.22 677.347 1326.22 672.244C1326.22 667.141 1330.37 663 1335.47 663C1340.57 663 1344.71 667.141 1344.71 672.244C1344.71 677.347 1340.59 681.488 1335.47 681.488Z" stroke="#00BFFF" stroke-width="3" stroke-miterlimit="10" stroke-linecap="round"/>
<path d="M1247.53 611.322C1250.48 611.322 1252.87 606.947 1252.87 601.548C1252.87 596.15 1250.48 591.774 1247.53 591.774C1244.58 591.774 1242.19 596.15 1242.19 601.548C1242.19 606.947 1244.58 611.322 1247.53 611.322Z" stroke="#00BFFF" stroke-width="3" stroke-miterlimit="10" stroke-linecap="round"/>
<path d="M1280.38 612.206C1283.33 612.206 1285.72 607.83 1285.72 602.432C1285.72 597.034 1283.33 592.658 1280.38 592.658C1277.43 592.658 1275.04 597.034 1275.04 602.432C1275.04 607.83 1277.43 612.206 1280.38 612.206Z" stroke="#00BFFF" stroke-width="3" stroke-miterlimit="10" stroke-linecap="round"/>
<path d="M490.847 625.533C493.795 625.533 496.185 621.157 496.185 615.758C496.185 610.36 493.795 605.984 490.847 605.984C487.899 605.984 485.509 610.36 485.509 615.758C485.509 621.157 487.899 625.533 490.847 625.533Z" fill="#00BFFF"/>
<path d="M523.7 626.416C526.648 626.416 529.038 622.04 529.038 616.642C529.038 611.244 526.648 606.868 523.7 606.868C520.752 606.868 518.362 611.244 518.362 616.642C518.362 622.04 520.752 626.416 523.7 626.416Z" fill="#00BFFF"/>
<path d="M558.339 673.48H605.695C613.133 673.48 619.158 679.506 619.158 686.944H588.759" stroke="#00BFFF" stroke-width="3" stroke-miterlimit="10" stroke-linecap="round"/>
<path d="M482.428 608.654H503.466" stroke="#00BFFF" stroke-width="3" stroke-miterlimit="10" stroke-linecap="round"/>
<path d="M516.184 608.654H537.222" stroke="#00BFFF" stroke-width="3" stroke-miterlimit="10" stroke-linecap="round"/>
<path d="M1034.37 582.903H1110.76" stroke="#00BFFF" stroke-width="3" stroke-miterlimit="10" stroke-linecap="round"/>
<path d="M1089.44 431.896L1147.16 489.638" stroke="#00BFFF" stroke-width="3" stroke-miterlimit="10" stroke-linecap="round"/>
<path d="M1217.32 378.61V451.444" stroke="#00BFFF" stroke-width="3" stroke-miterlimit="10" stroke-linecap="round"/>
<path d="M1347.68 938.42L1357.88 928.214C1371.54 914.554 1393.7 914.554 1407.38 928.214L1454.5 975.338C1468.16 988.998 1468.16 1011.16 1454.5 1024.84L1450.24 1029.1" stroke="#00BFFF" stroke-width="3" stroke-miterlimit="10" stroke-linecap="round"/>
<path d="M1971.29 317.826L1414.03 907.744C1396.6 926.193 1397.01 955.142 1414.95 973.081C1432.22 990.352 1459.83 991.471 1478.44 975.671L1971.27 557.134V317.826H1971.29Z" fill="#6998F6"/>
<path d="M1415.21 940.187L1405.26 951.452" stroke="black" stroke-width="6" stroke-miterlimit="10" stroke-linecap="round" stroke-linejoin="round"/>
<path d="M1427.41 959.362L1417.46 970.627" stroke="black" stroke-width="6" stroke-miterlimit="10" stroke-linecap="round" stroke-linejoin="round"/>
<path d="M1444.84 971.57L1434.89 982.836" stroke="black" stroke-width="6" stroke-miterlimit="10" stroke-linecap="round" stroke-linejoin="round"/>
<path d="M417.495 442H47.5045C22.3718 442 2 421.619 2 396.474V313.526C2 288.381 22.3718 268 47.5045 268H417.495C442.628 268 463 288.381 463 313.526V396.474C463 421.619 442.628 442 417.495 442Z" fill="#D7F7FF" stroke="#00BFFF" stroke-width="3" stroke-miterlimit="10" stroke-linecap="round" stroke-linejoin="round"/>
<path d="M46.7126 297.246V316.408H52.805V318.979H37.4734V316.408H43.5257V297.246H37.4734V294.675H52.805V297.246H46.7126Z" fill="#00BFFF"/>
<path d="M91.8503 294.152V318.965H89.1053V315.778C88.0743 318.001 86.4675 319.367 83.669 319.367C79.3975 319.367 76.6124 315.805 76.6124 310.369C76.6124 304.999 79.585 301.437 84.1108 301.437C86.4407 301.437 88.0743 302.709 88.9312 304.383V294.152H91.8503ZM84.392 304.021C81.4462 304.021 79.7055 306.378 79.7055 310.382C79.7055 314.346 81.4462 316.81 84.2849 316.81C87.1905 316.81 89.0116 314.48 89.0116 310.784V309.994C89.0116 306.338 87.2307 304.021 84.392 304.021Z" fill="#00BFFF"/>
<path d="M97.3134 310.408C97.3134 304.972 100.5 301.437 105.294 301.437C110.087 301.437 113.274 304.958 113.274 310.408C113.274 315.858 110.087 319.38 105.294 319.38C100.5 319.38 97.3134 315.791 97.3134 310.408ZM110.181 310.408C110.181 306.405 108.374 303.967 105.28 303.967C102.201 303.967 100.393 306.364 100.393 310.408C100.393 314.452 102.201 316.849 105.28 316.849C108.374 316.849 110.181 314.452 110.181 310.408Z" fill="#00BFFF"/>
<path d="M126.638 301.45C128.043 301.45 129.61 301.825 130.775 302.923C131.9 303.981 132.422 305.628 132.422 308.4V318.979H129.516V308.574C129.516 304.838 127.669 304.021 125.955 304.021C122.085 304.021 121.161 307.61 121.161 310.047V318.979H118.255V301.865H120.987V305.253C121.884 303.097 123.772 301.45 126.638 301.45Z" fill="#00BFFF"/>
<path d="M143.308 302.549C145.223 301.732 145.598 300.942 145.598 299.054H143.094V294.675H147.646V299.054C147.646 301.692 146.83 303.057 144.192 304.115L143.308 302.549Z" fill="#00BFFF"/>
<path d="M157.85 301.865H162.737V297.379L165.643 296.147V301.865H172.311V304.222H165.643V313.087C165.643 315.377 166.741 316.475 168.923 316.475C170.048 316.475 171.253 316.368 172.311 316.167V318.831C171.427 319.032 170.463 319.273 168.963 319.273C164.692 319.273 162.737 316.876 162.737 313.489V304.209H157.85V301.865Z" fill="#00BFFF"/>
<path d="M204.956 310.583L201.836 313.73V318.966H198.93V294.152H201.836V310.275L209.508 301.852H213.311L207.044 308.454L213.713 318.966H210.124L204.956 310.583Z" fill="#00BFFF"/>
<path d="M226.888 301.45C228.294 301.45 229.861 301.825 231.026 302.923C232.151 303.981 232.673 305.628 232.673 308.4V318.979H229.767V308.574C229.767 304.838 227.92 304.021 226.206 304.021C222.336 304.021 221.412 307.61 221.412 310.047V318.979H218.506V301.865H221.238V305.253C222.135 303.097 224.023 301.45 226.888 301.45Z" fill="#00BFFF"/>
<path d="M237.667 310.408C237.667 304.972 240.854 301.437 245.648 301.437C250.441 301.437 253.628 304.958 253.628 310.408C253.628 315.858 250.441 319.38 245.648 319.38C240.854 319.38 237.667 315.791 237.667 310.408ZM250.535 310.408C250.535 306.405 248.728 303.967 245.648 303.967C242.568 303.967 240.761 306.364 240.761 310.408C240.761 314.452 242.568 316.849 245.648 316.849C248.728 316.849 250.535 314.452 250.535 310.408Z" fill="#00BFFF"/>
<path d="M259.091 301.865L260.832 313.609L261.18 316.033H261.421C261.555 315.243 261.662 314.694 261.97 313.154L264.193 301.865H267.166L269.388 313.154C269.696 314.694 269.803 315.243 269.937 316.033H270.178L270.527 313.609L272.267 301.865H275.307L271.986 318.979H268.331L266.108 307.918C265.974 307.235 265.84 305.802 265.8 305.106H265.559C265.519 305.789 265.385 307.222 265.251 307.918L263.028 318.979H259.373L256.052 301.865H259.091Z" fill="#00BFFF"/>
<path d="M299.462 316.582H304.939V304.262H299.971V301.865H307.844V316.582H313.629V318.979H299.462V316.582ZM308.152 298.437H304.042V294.326H308.152V298.437Z" fill="#00BFFF"/>
<path d="M332.991 304.222H326.483V318.979H323.578V304.222H318.342V301.865H323.578V299.977C323.578 296.081 325.774 294.059 330.018 294.059C331.009 294.059 331.826 294.166 332.991 294.407V296.978C332.241 296.871 331.317 296.71 330.018 296.71C327.421 296.71 326.497 297.594 326.497 300.205V301.879H333.004V304.222H332.991Z" fill="#00BFFF"/>
<path d="M358.338 301.865H363.226V297.379L366.131 296.147V301.865H372.799V304.222H366.131V313.087C366.131 315.377 367.229 316.475 369.412 316.475C370.536 316.475 371.742 316.368 372.799 316.167V318.831C371.916 319.032 370.952 319.273 369.452 319.273C365.18 319.273 363.226 316.876 363.226 313.489V304.209H358.338V301.865Z" fill="#00BFFF"/>
<path d="M387.194 301.45C388.559 301.45 390.206 301.825 391.398 302.95C392.496 304.008 393.072 305.615 393.072 308.387V318.966H390.166V308.561C390.166 304.825 388.278 304.008 386.471 304.008C382.735 304.008 381.811 307.597 381.811 310.034V318.966H378.905V294.152H381.811V304.972C382.601 302.923 384.73 301.45 387.194 301.45Z" fill="#00BFFF"/>
<path d="M399.713 316.582H405.19V304.262H400.222V301.865H408.095V316.582H413.88V318.979H399.713V316.582ZM408.403 298.437H404.293V294.326H408.403V298.437Z" fill="#00BFFF"/>
<path d="M419.115 313.703L422.061 313.194C422.503 315.698 424.11 316.997 426.641 316.997C428.93 316.997 430.202 316.033 430.202 314.426C430.202 312.712 429.305 311.962 427.471 311.761L424.699 311.453C421.311 311.078 419.705 309.163 419.705 306.525C419.705 303.405 422.168 301.463 426.212 301.463C430.109 301.463 432.746 303.512 433.121 306.659L430.243 307.315C429.868 305.266 428.462 303.82 426.132 303.82C423.869 303.82 422.543 304.744 422.543 306.391C422.543 307.864 423.507 308.748 425.623 308.989L428.354 309.297C431.742 309.672 433.081 311.453 433.081 314.158C433.081 317.412 430.684 319.394 426.507 319.394C422.423 319.38 419.731 317.358 419.115 313.703Z" fill="#00BFFF"/>
<path d="M38.8125 357.638H44.289V345.318H39.3213V342.921H47.1946V357.638H52.9791V360.035H38.8125V357.638ZM47.5026 339.493H43.3919V335.382H47.5026V339.493Z" fill="#00BFFF"/>
<path d="M58.2146 354.759L61.1604 354.25C61.6023 356.754 63.2091 358.053 65.7398 358.053C68.0295 358.053 69.3015 357.089 69.3015 355.482C69.3015 353.768 68.4044 353.018 66.57 352.817L63.7982 352.509C60.4106 352.134 58.8038 350.219 58.8038 347.581C58.8038 344.461 61.2675 342.52 65.3113 342.52C69.2078 342.52 71.8456 344.568 72.2206 347.715L69.3417 348.371C68.9668 346.323 67.5608 344.876 65.231 344.876C62.9681 344.876 61.6425 345.8 61.6425 347.447C61.6425 348.92 62.6065 349.804 64.7221 350.045L67.4537 350.353C70.8414 350.728 72.1804 352.509 72.1804 355.214C72.1804 358.468 69.7836 360.45 65.6059 360.45C61.5353 360.436 58.8305 358.428 58.2146 354.759Z" fill="#00BFFF"/>
<path d="M98.3177 354.759L101.263 354.25C101.705 356.754 103.312 358.053 105.843 358.053C108.133 358.053 109.405 357.089 109.405 355.482C109.405 353.768 108.521 353.018 106.673 352.817L103.901 352.509C100.514 352.134 98.9068 350.219 98.9068 347.581C98.9068 344.461 101.371 342.52 105.414 342.52C109.311 342.52 111.949 344.568 112.324 347.715L109.445 348.371C109.07 346.323 107.664 344.876 105.334 344.876C103.071 344.876 101.746 345.8 101.746 347.447C101.746 348.92 102.71 349.804 104.825 350.045L107.557 350.353C110.944 350.728 112.283 352.509 112.283 355.214C112.283 358.468 109.887 360.45 105.709 360.45C101.625 360.436 98.9336 358.428 98.3177 354.759Z" fill="#00BFFF"/>
<path d="M124.147 360.437C122.567 360.437 120.96 360.062 119.768 358.937C118.67 357.879 118.188 356.272 118.188 353.5V342.921H121.161V353.393C121.161 357.129 122.942 357.946 124.723 357.946C128.311 357.946 129.168 354.357 129.168 351.853V342.921H132.074V360.035H129.342V356.781C128.7 358.495 126.678 360.437 124.147 360.437Z" fill="#00BFFF"/>
<path d="M137.524 351.371C137.524 346.269 140.121 342.506 145.504 342.506C149.307 342.506 152.038 344.702 152.453 348.639L149.481 348.987C149.173 346.457 147.74 345.051 145.303 345.051C142.157 345.051 140.55 347.581 140.55 351.344C140.55 355.241 142.157 357.879 145.41 357.879C147.914 357.879 149.24 356.379 149.655 353.768L152.427 354.21C151.878 357.705 149.655 360.437 145.41 360.437C140.188 360.437 137.524 356.513 137.524 351.371Z" fill="#00BFFF"/>
<path d="M166.647 342.506C168.013 342.506 169.66 342.881 170.851 344.006C171.949 345.064 172.525 346.671 172.525 349.443V360.022H169.619V349.617C169.619 345.881 167.731 345.064 165.924 345.064C162.188 345.064 161.264 348.653 161.264 351.09V360.022H158.358V335.208H161.264V346.028C162.054 343.979 164.183 342.506 166.647 342.506Z" fill="#00BFFF"/>
<path d="M212.588 360.035H209.548C209.415 359.071 209.307 357.946 209.281 356.915C208.156 359.312 206.308 360.437 203.496 360.437C200.108 360.437 197.752 358.348 197.752 355.402C197.752 353.621 198.569 352.255 200.149 351.358C201.273 350.742 203.121 350.3 205.96 349.952L209.08 349.577V349.269C209.08 346.229 207.955 344.89 205.411 344.89C202.987 344.89 201.541 346.122 201.407 348.278H198.287C198.595 344.622 201.26 342.493 205.612 342.493C210.03 342.493 212.012 344.689 212.012 349.617V354.237C212.012 356.982 212.186 358.763 212.588 360.035ZM205.023 352.268C202.05 352.684 200.818 353.541 200.818 355.241C200.818 356.982 202.01 358.053 204.032 358.053C207.111 358.053 209.093 355.938 209.093 352.576V351.719L205.023 352.268Z" fill="#00BFFF"/>
<path d="M250.401 344.288C251.392 345.279 251.941 346.644 251.941 348.251C251.941 351.746 249.344 354.103 245.501 354.103C244.309 354.103 243.211 353.862 242.314 353.42C241.591 353.768 241.122 354.344 241.122 355.134C241.122 356.192 242.019 356.848 243.961 356.848H248.379C251.941 356.848 253.963 358.589 253.963 361.508C253.963 365.097 250.843 367.119 245.514 367.119C240.653 367.119 237.748 365.445 237.748 362.767C237.748 360.919 238.913 359.553 240.72 358.937C239.314 358.361 238.565 357.33 238.565 355.897C238.565 354.317 239.448 353.166 241.028 352.576C239.93 351.586 239.314 350.153 239.314 348.439C239.314 344.944 241.885 342.52 245.675 342.52C246.947 342.52 248.031 342.788 248.955 343.27C249.571 341.248 250.977 340.123 253.093 340.123C253.468 340.123 253.883 340.163 254.191 340.257V342.788C253.682 342.721 253.374 342.654 252.919 342.654C251.66 342.641 250.883 343.163 250.401 344.288ZM243.867 359.419C243.358 359.419 242.876 359.379 242.434 359.352C241.31 359.861 240.627 360.785 240.627 361.95C240.627 363.758 242.3 364.722 245.822 364.722C249.477 364.722 251.057 363.691 251.057 361.816C251.057 360.276 249.959 359.419 247.737 359.419H243.867ZM249.196 348.265C249.196 346.216 247.723 344.743 245.635 344.743C243.519 344.743 242.046 346.243 242.046 348.372C242.046 350.461 243.479 351.894 245.541 351.894C247.656 351.88 249.196 350.34 249.196 348.265Z" fill="#00BFFF"/>
<path d="M257.712 351.478C257.712 346.042 260.899 342.506 265.693 342.506C270.486 342.506 273.673 346.028 273.673 351.478C273.673 356.928 270.486 360.45 265.693 360.45C260.899 360.45 257.712 356.848 257.712 351.478ZM270.58 351.478C270.58 347.474 268.772 345.037 265.679 345.037C262.6 345.037 260.792 347.434 260.792 351.478C260.792 355.522 262.6 357.919 265.679 357.919C268.772 357.906 270.58 355.509 270.58 351.478Z" fill="#00BFFF"/>
<path d="M277.77 351.478C277.77 346.042 280.957 342.506 285.751 342.506C290.544 342.506 293.731 346.028 293.731 351.478C293.731 356.928 290.544 360.45 285.751 360.45C280.957 360.45 277.77 356.848 277.77 351.478ZM290.638 351.478C290.638 347.474 288.831 345.037 285.737 345.037C282.658 345.037 280.85 347.434 280.85 351.478C280.85 355.522 282.658 357.919 285.737 357.919C288.817 357.906 290.638 355.509 290.638 351.478Z" fill="#00BFFF"/>
<path d="M312.397 335.222V360.035H309.666V356.848C308.634 359.071 307.028 360.437 304.229 360.437C299.958 360.437 297.173 356.875 297.173 351.438C297.173 346.068 300.145 342.506 304.671 342.506C307.001 342.506 308.634 343.778 309.491 345.452V335.222H312.397ZM304.939 345.077C301.993 345.077 300.252 347.434 300.252 351.438C300.252 355.402 301.993 357.866 304.832 357.866C307.737 357.866 309.558 355.536 309.558 351.84V351.05C309.558 347.407 307.778 345.077 304.939 345.077Z" fill="#00BFFF"/>
<path d="M339.565 357.638H345.042V345.318H340.074V342.921H347.948V357.638H353.732V360.035H339.565V357.638ZM348.256 339.493H344.145V335.382H348.256V339.493Z" fill="#00BFFF"/>
<path d="M372.545 335.222V360.035H369.813V356.848C368.782 359.071 367.176 360.437 364.377 360.437C360.106 360.437 357.321 356.875 357.321 351.438C357.321 346.068 360.293 342.506 364.819 342.506C367.149 342.506 368.782 343.778 369.639 345.452V335.222H372.545ZM365.087 345.077C362.141 345.077 360.4 347.434 360.4 351.438C360.4 355.402 362.141 357.866 364.98 357.866C367.885 357.866 369.706 355.536 369.706 351.84V351.05C369.706 347.407 367.925 345.077 365.087 345.077Z" fill="#00BFFF"/>
<path d="M393.112 352.228H381.101C381.101 355.442 382.949 357.879 386.136 357.879C388.399 357.879 389.791 356.473 390.648 354.839L393.112 356.138C391.679 358.977 389.349 360.45 386.136 360.45C380.766 360.45 378.129 356.754 378.129 351.143C378.129 345.907 381.141 342.52 385.935 342.52C391.17 342.52 393.192 346.282 393.192 350.942C393.179 351.344 393.139 351.786 393.112 352.228ZM385.788 344.769C382.668 344.769 381.101 347.34 381.101 349.831H390.166C390.233 347.099 388.867 344.769 385.788 344.769Z" fill="#00BFFF"/>
<path d="M413.09 360.035H410.05C409.917 359.071 409.809 357.946 409.783 356.915C408.658 359.312 406.81 360.437 403.998 360.437C400.61 360.437 398.254 358.348 398.254 355.402C398.254 353.621 399.071 352.255 400.651 351.358C401.775 350.742 403.623 350.3 406.462 349.952L409.582 349.577V349.269C409.582 346.229 408.457 344.89 405.913 344.89C403.489 344.89 402.043 346.122 401.909 348.278H398.789C399.097 344.622 401.762 342.493 406.114 342.493C410.533 342.493 412.514 344.689 412.514 349.617V354.237C412.514 356.982 412.675 358.763 413.09 360.035ZM405.525 352.268C402.552 352.684 401.32 353.541 401.32 355.241C401.32 356.982 402.512 358.053 404.534 358.053C407.613 358.053 409.595 355.938 409.595 352.576V351.719L405.525 352.268Z" fill="#00BFFF"/>
<path d="M428.355 360.036H423.802V355.657H428.355V360.036Z" fill="#00BFFF"/>
<path d="M41.6512 376.787V398.346H53.2871V401.078H38.4644V376.773H41.6512V376.787Z" fill="#00BFFF"/>
<path d="M72.3142 393.285H60.3034C60.3034 396.498 62.1512 398.935 65.338 398.935C67.6009 398.935 68.9935 397.529 69.8505 395.896L72.3142 397.195C70.8815 400.033 68.5516 401.506 65.338 401.506C59.9686 401.506 57.3308 397.811 57.3308 392.2C57.3308 386.964 60.3436 383.576 65.1372 383.576C70.3727 383.576 72.3946 387.339 72.3946 391.999C72.3812 392.401 72.341 392.843 72.3142 393.285ZM64.9899 385.826C61.87 385.826 60.3034 388.397 60.3034 390.888H69.3684C69.4354 388.156 68.0696 385.826 64.9899 385.826Z" fill="#00BFFF"/>
<path d="M77.6435 383.978H82.5442V379.492L85.4499 378.26V383.978H92.1181V386.334H85.4499V395.199C85.4499 397.489 86.5478 398.587 88.7304 398.587C89.8552 398.587 91.0603 398.48 92.1181 398.279V400.944C91.221 401.145 90.2703 401.386 88.7706 401.386C84.4992 401.386 82.5442 398.989 82.5442 395.601V386.321H77.6435V383.978Z" fill="#00BFFF"/>
<path d="M122.741 383.563C124.415 383.563 125.714 384.688 126.303 386.683C127.12 384.701 128.659 383.563 130.347 383.563C132.462 383.563 134.39 385.036 134.39 388.665V401.092H131.485V388.906C131.485 386.71 130.454 386.134 129.463 386.134C127.441 386.134 126.731 387.607 126.731 389.763V401.092H123.893V388.906C123.893 386.817 122.969 386.134 121.871 386.134C119.889 386.134 119.206 387.714 119.206 389.763V401.092H116.3V383.978H119.032V386.616C119.701 384.768 121.027 383.563 122.741 383.563Z" fill="#00BFFF"/>
<path d="M152.507 393.285H140.496C140.496 396.498 142.344 398.935 145.531 398.935C147.794 398.935 149.186 397.529 150.043 395.896L152.507 397.195C151.074 400.033 148.744 401.506 145.531 401.506C140.161 401.506 137.524 397.811 137.524 392.2C137.524 386.964 140.536 383.576 145.33 383.576C150.566 383.576 152.587 387.339 152.587 391.999C152.574 392.401 152.547 392.843 152.507 393.285ZM145.183 385.826C142.063 385.826 140.496 388.397 140.496 390.888H149.561C149.642 388.156 148.262 385.826 145.183 385.826Z" fill="#00BFFF"/>
<path d="M192.543 401.091H189.504C189.37 400.127 189.263 399.002 189.236 397.971C188.111 400.368 186.263 401.493 183.451 401.493C180.064 401.493 177.707 399.404 177.707 396.458C177.707 394.677 178.524 393.311 180.104 392.414C181.229 391.798 183.076 391.356 185.928 391.008L189.048 390.633V390.325C189.048 387.285 187.924 385.946 185.393 385.946C182.969 385.946 181.523 387.178 181.389 389.334H178.269C178.577 385.678 181.242 383.549 185.594 383.549C190.012 383.549 191.994 385.745 191.994 390.673V395.293C191.954 398.052 192.128 399.819 192.543 401.091ZM184.978 393.325C182.005 393.74 180.773 394.597 180.773 396.297C180.773 398.038 181.965 399.109 183.987 399.109C187.067 399.109 189.048 396.994 189.048 393.633V392.776L184.978 393.325Z" fill="#00BFFF"/>
<path d="M198.555 395.815L201.501 395.307C201.943 397.811 203.55 399.11 206.08 399.11C208.37 399.11 209.642 398.145 209.642 396.538C209.642 394.824 208.745 394.075 206.911 393.874L204.139 393.566C200.751 393.191 199.144 391.276 199.144 388.638C199.144 385.518 201.608 383.576 205.652 383.576C209.548 383.576 212.186 385.625 212.561 388.772L209.682 389.428C209.307 387.379 207.901 385.933 205.572 385.933C203.309 385.933 201.983 386.857 201.983 388.504C201.983 389.977 202.947 390.861 205.063 391.102L207.794 391.41C211.182 391.785 212.521 393.566 212.521 396.271C212.521 399.525 210.124 401.506 205.947 401.506C201.876 401.506 199.171 399.484 198.555 395.815Z" fill="#00BFFF"/>
<path d="M225.014 392.708L221.894 395.855V401.091H218.988V376.278H221.894V392.4L229.566 383.978H233.369L227.103 390.579L233.771 401.091H230.182L225.014 392.708Z" fill="#00BFFF"/>
<path d="M252.691 390.485V392.681H238.591V390.485H252.691Z" fill="#00BFFF"/>
</svg>
