<?xml version="1.0" encoding="utf-8"?>
<!-- Generator: Adobe Illustrator 25.2.3, SVG Export Plug-In . SVG Version: 6.00 Build 0)  -->
<svg version="1.1" id="Camada_1" xmlns="http://www.w3.org/2000/svg" xmlns:xlink="http://www.w3.org/1999/xlink" x="0px" y="0px"
	 viewBox="0 0 2107 1699" style="enable-background:new 0 0 2107 1699;" xml:space="preserve">
<style type="text/css">
	.st0{fill:none;stroke:#00BFFF;stroke-width:3;stroke-linecap:round;stroke-miterlimit:10;}
	.st1{fill:#FFFFFF;}
	.st2{fill:#1C2535;}
	.st3{fill:#6996F4;}
	.st4{fill:#F9EEE3;}
	.st5{fill:none;stroke:#1C2535;stroke-width:6;stroke-linecap:round;stroke-linejoin:round;stroke-miterlimit:10;}
	.st6{fill:none;stroke:#F6CE87;stroke-width:6;stroke-linecap:round;stroke-linejoin:round;stroke-miterlimit:10;}
	.st7{fill:none;stroke:#000000;stroke-width:6;stroke-linecap:round;stroke-linejoin:round;stroke-miterlimit:10;}
	.st8{fill:none;stroke:#000000;stroke-width:3;stroke-linecap:round;stroke-linejoin:round;stroke-miterlimit:10;}
	.st9{fill:#D5F5FF;stroke:#00BDFF;stroke-width:3;stroke-linecap:round;stroke-linejoin:round;stroke-miterlimit:10;}
	.st10{fill:#00BDFF;}
</style>
<path class="st0" d="M1196.7,462.7c0,388.1-145.2,727.6-320,902.6l0.3-900.6v1131.2c0,24.2-19.5,43.8-43.8,43.8
	c-24.2,0-43.8-19.5-43.8-43.8V462.7"/>
<path class="st0" d="M789.4,462.7v1143.2c0-24.2-19.5-43.8-43.8-43.8c-24.2,0-43.8,19.5-43.8,43.8V462.7"/>
<path class="st0" d="M614.3,462.7v1133.1c0,24.2,19.5,43.8,43.8,43.8c24.2,0,43.8-19.5,43.8-43.8V462.7"/>
<path class="st0" d="M614.3,462.7v1143.2c0-24.2-19.5-43.8-43.8-43.8s-43.8,19.5-43.8,43.8V462.7"/>
<path class="st0" d="M439.3,462.7v1133.1c0,24.2,19.5,43.8,43.8,43.8c24.2,0,43.8-19.5,43.8-43.8V462.7"/>
<path class="st0" d="M439.3,462.7v1143.2c0-24.2-19.5-43.8-43.8-43.8c-24.2,0-43.8,19.5-43.8,43.8V462.7"/>
<path class="st0" d="M264.2,462.7v1133.1c0,24.2,19.5,43.8,43.8,43.8c24.2,0,43.8-19.5,43.8-43.8V462.7"/>
<path class="st0" d="M264.2,462.7v1143.2c0-24.2-19.5-43.8-43.8-43.8s-43.8,19.5-43.8,43.8V462.7"/>
<path class="st0" d="M89.1,462.7v1133.1c0,24.2,19.5,43.8,43.8,43.8c24.2,0,43.8-19.5,43.8-43.8V462.7"/>
<path class="st0" d="M89.1,462.7v1143.2c0-24.2-19.5-43.8-43.8-43.8s-43.7,19.5-43.7,43.8V462.7"/>
<path class="st0" d="M1113.2,462.7c0.5,348.2-77.1,649.6-236.3,897.4"/>
<path class="st0" d="M958,1396.2v-96.4c0-26,21.1-47.1,47.1-47.1h48.1l9.8-36.7"/>
<path class="st0" d="M1000.6,1318.1V1672"/>
<path class="st0" d="M1000.6,1344.7H958"/>
<path class="st0" d="M1185.6,1483.7v16.2c0,3.4-2.8,6.3-6.3,6.3c-3.4,0-6.3-2.8-6.3-6.3v-15.6"/>
<path class="st0" d="M1173.6,1483.7v16.2c0,3.4-2.8,6.3-6.3,6.3c-3.4,0-6.3-2.8-6.3-6.3v-15.6"/>
<path class="st0" d="M1159.7,1483.7v16.2c0,3.4-2.8,6.3-6.3,6.3c-3.4,0-6.3-2.8-6.3-6.3v-15.6"/>
<path class="st0" d="M1080.5,1215.9l9.8,36.7h48.1c26,0,47.1,21.1,47.1,47.1v183.9"/>
<path class="st0" d="M1142.9,1318.1v379.2H979.6c-6.9,0-12.5-5.6-12.5-12.6c0-6.9,5.5-12.5,12.5-12.5h20.9"/>
<path class="st0" d="M1142.9,1344.5h42.5"/>
<path class="st0" d="M1090.4,1252.6h-37.1"/>
<path class="st0" d="M1068.1,1154c-2.2-2.9-3.7-6.6-3.8-9.6c-0.1-4,5.5-5,6.9-1.3c1.1,2.8,2.2,9.4,10.7,12.4h-0.4
	c12.7,4.1,21.8,15.8,21.8,29.8c0,17.3-14,31.4-31.4,31.4c-17.4,0-31.3-14-31.3-31.3c0-12,6.1-22.1,14.9-26.4"/>
<path class="st0" d="M1061.2,1155.6c-2.2-2.9-3.7-7.4-3.8-10.4c-0.1-4,5.6-5,6.9-1.3"/>
<path class="st0" d="M1055,1158.6c-2.2-2.9-3.7-7.4-3.8-10.4c-0.1-4,4.8-5,6.1-1.3"/>
<path class="st0" d="M1089.6,1179.2c4.6,0,8.3,3.7,8.3,8.3c0,4.6-3.7,8.3-8.3,8.3"/>
<path class="st0" d="M1052.9,1446.5h18.5v225.7"/>
<path class="st0" d="M1142.9,1409.2h-142.3"/>
<path class="st0" d="M958,1387.7h-51.9v-11.4c0-6.1-5-11.1-11.1-11.1h-18.4"/>
<path class="st0" d="M2016.9,462.7v1133.1c0,24.2,19.5,43.8,43.8,43.8c24.2,0,43.8-19.5,43.8-43.8V462.7"/>
<path class="st0" d="M2016.9,462.7v1143.2c0-24.2-19.5-43.8-43.8-43.8c-24.3,0-43.8,19.5-43.8,43.8V462.7"/>
<path class="st0" d="M1841.8,462.7v1133.1c0,24.2,19.5,43.8,43.8,43.8c24.2,0,43.8-19.5,43.8-43.8V462.7"/>
<path class="st0" d="M1841.8,462.7v1143.2c0-24.2-19.5-43.8-43.8-43.8s-43.8,19.5-43.8,43.8V462.7"/>
<path class="st0" d="M1666.8,462.7v1133.1c0,24.2,19.5,43.8,43.8,43.8c24.2,0,43.8-19.5,43.8-43.8V462.7"/>
<path class="st0" d="M1666.8,462.7v1143.2c0-24.2-19.5-43.8-43.8-43.8c-24.2,0-43.8,19.5-43.8,43.8V462.7"/>
<path class="st0" d="M1491.7,462.7v1133.1c0,24.2,19.5,43.8,43.8,43.8c24.2,0,43.8-19.5,43.8-43.8V462.7"/>
<path class="st0" d="M1491.7,462.7v1143.2c0-24.2-19.5-43.8-43.8-43.8s-43.8,19.5-43.8,43.8V462.7"/>
<path class="st0" d="M1316.7,462.7v1133.1c0,24.2,19.5,43.8,43.8,43.8c24.2,0,43.8-19.5,43.8-43.8V462.7"/>
<path class="st0" d="M1316.7,462.7v1143.2c0-24.2-19.5-43.8-43.8-43.8c-24.2,0-43.8,19.5-43.8,43.8V462.7"/>
<path class="st1" d="M1000.6,1431.8H867.7c-5.8,0-10.6-4.8-10.6-10.6v-28c0-5.8,4.8-10.6,10.6-10.6h20.2"/>
<path class="st0" d="M1000.6,1431.8H867.7c-5.8,0-10.6-4.8-10.6-10.6v-28c0-5.8,4.8-10.6,10.6-10.6h20.2"/>
<path class="st0" d="M1029.7,462.7c0,284.6-29.3,603.9-152.6,891.2"/>
<path class="st0" d="M946.4,462.7c0,314.4,12.1,492.4-69.7,883.7"/>
<path class="st0" d="M1447.9,1697.4H658"/>
<path class="st1" d="M789.8,462.7v1133.1c0,24.2,19.5,43.8,43.8,43.8c24.2,0,43.8-19.5,43.8-43.8V462.7"/>
<path class="st0" d="M789.8,462.7v1133.1c0,24.2,19.5,43.8,43.8,43.8c24.2,0,43.8-19.5,43.8-43.8V462.7"/>
<path class="st0" d="M967.2,1684.8c0-6.9,5.5-12.5,12.5-12.5h20.9"/>
<path class="st0" d="M1143.1,1697.4h-92.9c-6.9,0-12.5-5.6-12.5-12.6c0-6.9,5.6-12.5,12.5-12.5h20.9"/>
<path class="st0" d="M1037.6,1684.8c0-6.9,5.6-12.5,12.5-12.5h20.9"/>
<path class="st0" d="M1063.6,1184.9c0.7,0,1.3-0.6,1.3-1.3c0-0.7-0.6-1.3-1.3-1.3s-1.3,0.6-1.3,1.3
	C1062.3,1184.3,1062.9,1184.9,1063.6,1184.9z"/>
<path class="st0" d="M1048.8,1184.9c0.7,0,1.3-0.6,1.3-1.3c0-0.7-0.6-1.3-1.3-1.3c-0.7,0-1.3,0.6-1.3,1.3
	C1047.5,1184.3,1048.1,1184.9,1048.8,1184.9z"/>
<path class="st0" d="M1057.7,1190h-4c-1.8,0-3.3,1.4-3.3,3.3c0,1.9,1.4,3.3,3.3,3.3h4"/>
<path class="st0" d="M1068.9,1204.9h9.2"/>
<path class="st2" d="M1774,324.3c0,0,10.2-188,13.1-219.7c3-32.7,23.8-73.8,64.2-92.2c0,0,68.9-33.9,123.4,14.5
	c0,0,13.7,16,18.2,23.6s106.5,193.7,112.1,212.3C2110.5,281.2,1774,324.3,1774,324.3z"/>
<path class="st3" d="M1893.5,238.3c43.3-5.4,72.7-56.2,65.5-113.3c-7.2-57.2-48.1-99.1-91.4-93.7s-72.7,56.2-65.5,113.3
	C1809.3,201.8,1850.2,243.8,1893.5,238.3z"/>
<path class="st3" d="M1865.2,232.8v79.6l104.6-39.9l-33-69.5"/>
<path class="st3" d="M1954,128.7c16.3,0,29.4-13.2,29.4-29.4c0-16.3-13.2-29.4-29.4-29.4s-29.4,13.2-29.4,29.4
	C1924.6,115.5,1937.8,128.7,1954,128.7z"/>
<path class="st4" d="M1696.5,430.1l296.6-0.7l-9.5,62.2h120.9l0.5-229c0,0,0,0-21.5-1.2l-122-6.5l-96.2,14.1l-84.5,29.6
	c-9.2,3.3-17,9.8-21.8,18.4L1696.5,430.1z"/>
<path class="st3" d="M1916.5,284.4c26.4-4.3,46.3-17.3,44.3-29.1c-1.9-11.7-24.9-17.7-51.3-13.4c-26.4,4.3-46.3,17.3-44.4,29.1
	C1867.1,282.7,1890.1,288.8,1916.5,284.4z"/>
<path class="st2" d="M1828.5,142.1c3.6,0,6.5-4.6,6.5-10.2c0-5.6-2.9-10.2-6.5-10.2c-3.6,0-6.5,4.6-6.5,10.2
	C1822,137.5,1824.9,142.1,1828.5,142.1z"/>
<path class="st2" d="M1868.8,142.1c3.6,0,6.5-4.6,6.5-10.2c0-5.6-2.9-10.2-6.5-10.2s-6.5,4.6-6.5,10.2
	C1862.3,137.5,1865.2,142.1,1868.8,142.1z"/>
<path class="st5" d="M1841.4,133.5l-2,53l14.9-8.3"/>
<path class="st2" d="M1882.5,203.1c9.4,7.1,24.8,2.6,34.5-10c9.6-12.7,9.9-28.7,0.5-35.9L1882.5,203.1z"/>
<path class="st6" d="M1814.5,383.2l-23.2,44.1"/>
<path class="st3" d="M1697.8,429.1h296.5c13.3,0,24.2,10.8,24.2,24.2v62.3c0,2.8-2.2,5-5,5c-2.8,0-5-2.2-5-5v-24.2h-3.3v24.2
	c0,2.8-2.2,5-5,5h-0.4c-2.8,0-5-2.2-5-5v-24.2h-3.4v24.2c0,2.8-2.2,5-5,5h-0.5c-2.8,0-5-2.2-5-5v-24.2h-3.6v24.2c0,2.8-2.2,5-5,5
	h-1.1c-2.8,0-5-2.2-5-5v-24.7h-240.9c-28,0-45.7-30.1-32.2-54.5l4.1-7.3"/>
<path class="st7" d="M1978.8,492.3V516"/>
<path class="st7" d="M1791.7,428.9h-21.4"/>
<path class="st7" d="M1993.1,492.3V516"/>
<path class="st7" d="M2006.8,492.3V516"/>
<path class="st8" d="M2104.4,492h-85.9"/>
<path class="st9" d="M1932.8,980.6h-635.4c-18.7,0-33.9-15.2-33.9-33.9V670.8c0-18.7,15.2-33.9,33.9-33.9h635.4
	c18.7,0,33.9,15.2,33.9,33.9v275.8C1966.7,965.4,1951.5,980.6,1932.8,980.6z"/>
<g>
	<g>
		<path class="st10" d="M1291.4,678.9v-2c0-6.5,2.7-10.5,8-10.5c5.3,0,8,4,8,10.5v2c0,6.5-2.7,10.5-8,10.5
			C1294,689.4,1291.4,685.4,1291.4,678.9z M1304.4,678.9v-2c0-5.5-1.6-8-5-8c-3.4,0-5,2.5-5,8v2c0,5.5,1.6,8,5,8
			C1302.8,686.9,1304.4,684.4,1304.4,678.9z"/>
		<path class="st10" d="M1315.6,689.2c-1.4,0-2.9-0.3-4-1.4c-1-1-1.4-2.4-1.4-4.9v-9.5h2.7v9.5c0,3.4,1.6,4.1,3.2,4.1
			c3.2,0,4-3.2,4-5.5v-8.1h2.6v15.4h-2.5v-2.9C1319.7,687.4,1317.9,689.2,1315.6,689.2z"/>
		<path class="st10" d="M1338.1,673.1c1.1,0,2.1,0.1,2.8,0.3v2.4c-0.6-0.2-1.8-0.3-2.9-0.3c-3.7,0-6.7,2.5-6.7,7.6v5.7h-2.6v-15.4
			h2.6v4C1332.4,675,1334.9,673.1,1338.1,673.1z"/>
		<path class="st10" d="M1361.5,681c0-4.6,2.3-8,7.2-8c3.4,0,5.9,2,6.3,5.5l-2.7,0.3c-0.3-2.3-1.6-3.6-3.8-3.6
			c-2.8,0-4.3,2.3-4.3,5.7c0,3.5,1.5,5.9,4.4,5.9c2.3,0,3.5-1.4,3.8-3.7l2.5,0.4c-0.5,3.2-2.5,5.6-6.3,5.6
			C1363.9,689.2,1361.5,685.7,1361.5,681z"/>
		<path class="st10" d="M1384.8,689.2c-1.4,0-2.9-0.3-4-1.4c-1-1-1.4-2.4-1.4-4.9v-9.5h2.7v9.5c0,3.4,1.6,4.1,3.2,4.1
			c3.2,0,4-3.2,4-5.5v-8.1h2.6v15.4h-2.5v-2.9C1388.9,687.4,1387.1,689.2,1384.8,689.2z"/>
		<path class="st10" d="M1396.3,673.4h4.4v-4l2.6-1.1v5.2h6v2.1h-6v8c0,2.1,1,3.1,3,3.1c1,0,2.1-0.1,3.1-0.3v2.4
			c-0.8,0.2-1.7,0.4-3,0.4c-3.9,0-5.6-2.2-5.6-5.2v-8.4h-4.4V673.4z"/>
		<path class="st10" d="M1426.9,681.8h-10.8c0,2.9,1.7,5.1,4.5,5.1c2,0,3.3-1.3,4.1-2.8l2.2,1.2c-1.3,2.6-3.4,3.9-6.3,3.9
			c-4.9,0-7.2-3.3-7.2-8.4c0-4.7,2.7-7.8,7-7.8c4.7,0,6.6,3.4,6.6,7.6C1427,681,1426.9,681.4,1426.9,681.8z M1420.3,675.1
			c-2.8,0-4.2,2.3-4.2,4.6h8.2C1424.3,677.2,1423.1,675.1,1420.3,675.1z"/>
		<path class="st10" d="M1439,673c1.3,0,2.7,0.3,3.7,1.3c1,1,1.5,2.4,1.5,4.9v9.5h-2.6v-9.4c0-3.4-1.7-4.1-3.2-4.1
			c-3.5,0-4.3,3.2-4.3,5.4v8.1h-2.6v-15.4h2.5v3.1C1434.7,674.5,1436.4,673,1439,673z"/>
		<path class="st10" d="M1461.5,681.8h-10.8c0,2.9,1.7,5.1,4.5,5.1c2,0,3.3-1.3,4.1-2.8l2.2,1.2c-1.3,2.6-3.4,3.9-6.3,3.9
			c-4.9,0-7.2-3.3-7.2-8.4c0-4.7,2.7-7.8,7-7.8c4.7,0,6.6,3.4,6.6,7.6C1461.6,681,1461.5,681.4,1461.5,681.8z M1454.9,675.1
			c-2.8,0-4.2,2.3-4.2,4.6h8.2C1458.9,677.2,1457.7,675.1,1454.9,675.1z"/>
		<path class="st10" d="M1466.1,684.1l2.7-0.5c0.4,2.3,1.9,3.4,4.1,3.4c2.1,0,3.2-0.9,3.2-2.3c0-1.5-0.8-2.2-2.5-2.4l-2.5-0.3
			c-3.1-0.3-4.5-2.1-4.5-4.4c0-2.8,2.2-4.6,5.9-4.6c3.5,0,5.9,1.9,6.2,4.7l-2.6,0.6c-0.3-1.9-1.6-3.2-3.7-3.2c-2,0-3.2,0.8-3.2,2.3
			c0,1.3,0.9,2.1,2.8,2.3l2.5,0.3c3.1,0.3,4.3,1.9,4.3,4.4c0,2.9-2.2,4.7-5.9,4.7C1469.1,689.2,1466.6,687.4,1466.1,684.1z"/>
		<path class="st10" d="M1483.4,684.1l2.7-0.5c0.4,2.3,1.9,3.4,4.1,3.4c2.1,0,3.2-0.9,3.2-2.3c0-1.5-0.8-2.2-2.5-2.4l-2.5-0.3
			c-3.1-0.3-4.5-2.1-4.5-4.4c0-2.8,2.2-4.6,5.9-4.6c3.5,0,5.9,1.9,6.2,4.7l-2.6,0.6c-0.3-1.9-1.6-3.2-3.7-3.2c-2,0-3.2,0.8-3.2,2.3
			c0,1.3,0.9,2.1,2.8,2.3l2.5,0.3c3.1,0.3,4.3,1.9,4.3,4.4c0,2.9-2.2,4.7-5.9,4.7C1486.4,689.2,1483.9,687.4,1483.4,684.1z"/>
		<path class="st10" d="M1530.6,688.8h-2.8c-0.1-0.9-0.2-1.9-0.2-2.8c-1,2.2-2.7,3.2-5.2,3.2c-3.1,0-5.2-1.9-5.2-4.5
			c0-1.6,0.7-2.8,2.2-3.6c1-0.6,2.7-1,5.3-1.3l2.8-0.3v-0.3c0-2.8-1-4-3.3-4c-2.2,0-3.5,1.1-3.6,3.1h-2.8c0.3-3.3,2.7-5.2,6.6-5.2
			c4,0,5.8,2,5.8,6.4v4.2C1530.1,686.1,1530.3,687.7,1530.6,688.8z M1523.8,681.8c-2.7,0.4-3.8,1.1-3.8,2.7c0,1.6,1.1,2.5,2.9,2.5
			c2.8,0,4.6-1.9,4.6-4.9v-0.8L1523.8,681.8z"/>
		<path class="st10" d="M1542.8,673c1.3,0,2.7,0.3,3.7,1.3c1,1,1.5,2.4,1.5,4.9v9.5h-2.6v-9.4c0-3.4-1.7-4.1-3.2-4.1
			c-3.5,0-4.3,3.2-4.3,5.4v8.1h-2.6v-15.4h2.5v3.1C1538.5,674.5,1540.2,673,1542.8,673z"/>
		<path class="st10" d="M1564.8,666.4v22.4h-2.5V686c-0.9,2-2.4,3.2-4.9,3.2c-3.9,0-6.4-3.2-6.4-8.1c0-4.9,2.7-8.1,6.8-8.1
			c2.1,0,3.6,1.1,4.4,2.7v-9.2H1564.8z M1558.1,675.3c-2.7,0-4.2,2.1-4.2,5.7c0,3.6,1.6,5.8,4.1,5.8c2.6,0,4.3-2.1,4.3-5.4v-0.7
			C1562.3,677.4,1560.7,675.3,1558.1,675.3z"/>
		<path class="st10" d="M1587.2,684.1l2.7-0.5c0.4,2.3,1.9,3.4,4.1,3.4c2.1,0,3.2-0.9,3.2-2.3c0-1.5-0.8-2.2-2.5-2.4l-2.5-0.3
			c-3.1-0.3-4.5-2.1-4.5-4.4c0-2.8,2.2-4.6,5.9-4.6c3.5,0,5.9,1.9,6.2,4.7l-2.6,0.6c-0.3-1.9-1.6-3.2-3.7-3.2c-2,0-3.2,0.8-3.2,2.3
			c0,1.3,0.9,2.1,2.8,2.3l2.5,0.3c3.1,0.3,4.3,1.9,4.3,4.4c0,2.9-2.2,4.7-5.9,4.7C1590.2,689.2,1587.7,687.4,1587.2,684.1z"/>
		<path class="st10" d="M1603.6,681.1c0-4.9,2.9-8.1,7.2-8.1c4.3,0,7.2,3.2,7.2,8.1c0,4.9-2.9,8.1-7.2,8.1
			C1606.5,689.2,1603.6,686,1603.6,681.1z M1615.2,681.1c0-3.6-1.6-5.8-4.4-5.8c-2.8,0-4.4,2.2-4.4,5.8s1.6,5.8,4.4,5.8
			C1613.6,686.9,1615.2,684.8,1615.2,681.1z"/>
		<path class="st10" d="M1621,681c0-4.6,2.3-8,7.2-8c3.4,0,5.9,2,6.3,5.5l-2.7,0.3c-0.3-2.3-1.6-3.6-3.8-3.6c-2.8,0-4.3,2.3-4.3,5.7
			c0,3.5,1.5,5.9,4.4,5.9c2.3,0,3.5-1.4,3.8-3.7l2.5,0.4c-0.5,3.2-2.5,5.6-6.3,5.6C1623.4,689.2,1621,685.7,1621,681z"/>
		<path class="st10" d="M1639.7,686.7h4.9v-11.1h-4.5v-2.2h7.1v13.3h5.2v2.2h-12.8V686.7z M1647.5,670.3h-3.7v-3.7h3.7V670.3z"/>
		<path class="st10" d="M1669,688.8h-2.8c-0.1-0.9-0.2-1.9-0.2-2.8c-1,2.2-2.7,3.2-5.2,3.2c-3.1,0-5.2-1.9-5.2-4.5
			c0-1.6,0.7-2.8,2.2-3.6c1-0.6,2.7-1,5.3-1.3l2.8-0.3v-0.3c0-2.8-1-4-3.3-4c-2.2,0-3.5,1.1-3.6,3.1h-2.8c0.3-3.3,2.7-5.2,6.6-5.2
			c4,0,5.8,2,5.8,6.4v4.2C1668.5,686.1,1668.7,687.7,1669,688.8z M1662.2,681.8c-2.7,0.4-3.8,1.1-3.8,2.7c0,1.6,1.1,2.5,2.9,2.5
			c2.8,0,4.6-1.9,4.6-4.9v-0.8L1662.2,681.8z"/>
		<path class="st10" d="M1674.3,686.7h4.9v-18.1h-4.6v-2.2h7.3v20.2h5.2v2.2h-12.8V686.7z"/>
		<path class="st10" d="M1720.9,688.8h-2.8c-0.1-0.9-0.2-1.9-0.2-2.8c-1,2.2-2.7,3.2-5.2,3.2c-3.1,0-5.2-1.9-5.2-4.5
			c0-1.6,0.7-2.8,2.2-3.6c1-0.6,2.7-1,5.3-1.3l2.8-0.3v-0.3c0-2.8-1-4-3.3-4c-2.2,0-3.5,1.1-3.6,3.1h-2.8c0.3-3.3,2.7-5.2,6.6-5.2
			c4,0,5.8,2,5.8,6.4v4.2C1720.4,686.1,1720.6,687.7,1720.9,688.8z M1714.1,681.8c-2.7,0.4-3.8,1.1-3.8,2.7c0,1.6,1.1,2.5,2.9,2.5
			c2.8,0,4.6-1.9,4.6-4.9v-0.8L1714.1,681.8z"/>
		<path class="st10" d="M1725.9,673.4l1.6,10.6l0.3,2.2h0.2c0.1-0.7,0.2-1.2,0.5-2.6l2-10.2h2.7l2,10.2c0.3,1.4,0.4,1.9,0.5,2.6h0.2
			l0.3-2.2l1.6-10.6h2.8l-3,15.4h-3.3l-2-10c-0.1-0.6-0.2-1.9-0.3-2.5h-0.2c0,0.6-0.2,1.9-0.3,2.5l-2,10h-3.3l-3-15.4H1725.9z"/>
		<path class="st10" d="M1755.5,688.8h-2.8c-0.1-0.9-0.2-1.9-0.2-2.8c-1,2.2-2.7,3.2-5.2,3.2c-3.1,0-5.2-1.9-5.2-4.5
			c0-1.6,0.7-2.8,2.2-3.6c1-0.6,2.7-1,5.3-1.3l2.8-0.3v-0.3c0-2.8-1-4-3.3-4c-2.2,0-3.5,1.1-3.6,3.1h-2.8c0.3-3.3,2.7-5.2,6.6-5.2
			c4,0,5.8,2,5.8,6.4v4.2C1755,686.1,1755.2,687.7,1755.5,688.8z M1748.7,681.8c-2.7,0.4-3.8,1.1-3.8,2.7c0,1.6,1.1,2.5,2.9,2.5
			c2.8,0,4.6-1.9,4.6-4.9v-0.8L1748.7,681.8z"/>
		<path class="st10" d="M1770.6,673.1c1.1,0,2.1,0.1,2.8,0.3v2.4c-0.6-0.2-1.8-0.3-2.9-0.3c-3.7,0-6.7,2.5-6.7,7.6v5.7h-2.6v-15.4
			h2.6v4C1764.9,675,1767.4,673.1,1770.6,673.1z"/>
		<path class="st10" d="M1790.2,681.8h-10.8c0,2.9,1.7,5.1,4.5,5.1c2,0,3.3-1.3,4.1-2.8l2.2,1.2c-1.3,2.6-3.4,3.9-6.3,3.9
			c-4.9,0-7.2-3.3-7.2-8.4c0-4.7,2.7-7.8,7-7.8c4.7,0,6.6,3.4,6.6,7.6C1790.3,681,1790.2,681.4,1790.2,681.8z M1783.6,675.1
			c-2.8,0-4.2,2.3-4.2,4.6h8.2C1787.6,677.2,1786.4,675.1,1783.6,675.1z"/>
		<path class="st10" d="M1802.3,673c1.3,0,2.7,0.3,3.7,1.3c1,1,1.5,2.4,1.5,4.9v9.5h-2.6v-9.4c0-3.4-1.7-4.1-3.2-4.1
			c-3.5,0-4.3,3.2-4.3,5.4v8.1h-2.6v-15.4h2.5v3.1C1798,674.5,1799.7,673,1802.3,673z"/>
		<path class="st10" d="M1824.8,681.8H1814c0,2.9,1.7,5.1,4.5,5.1c2,0,3.3-1.3,4.1-2.8l2.2,1.2c-1.3,2.6-3.4,3.9-6.3,3.9
			c-4.9,0-7.2-3.3-7.2-8.4c0-4.7,2.7-7.8,7-7.8c4.7,0,6.6,3.4,6.6,7.6C1824.9,681,1824.8,681.4,1824.8,681.8z M1818.2,675.1
			c-2.8,0-4.2,2.3-4.2,4.6h8.2C1822.2,677.2,1821,675.1,1818.2,675.1z"/>
		<path class="st10" d="M1829.4,684.1l2.7-0.5c0.4,2.3,1.9,3.4,4.1,3.4c2.1,0,3.2-0.9,3.2-2.3c0-1.5-0.8-2.2-2.5-2.4l-2.5-0.3
			c-3.1-0.3-4.5-2.1-4.5-4.4c0-2.8,2.2-4.6,5.9-4.6c3.5,0,5.9,1.9,6.2,4.7l-2.6,0.6c-0.3-1.9-1.6-3.2-3.7-3.2c-2,0-3.2,0.8-3.2,2.3
			c0,1.3,0.9,2.1,2.8,2.3l2.5,0.3c3.1,0.3,4.3,1.9,4.3,4.4c0,2.9-2.2,4.7-5.9,4.7C1832.4,689.2,1829.9,687.4,1829.4,684.1z"/>
		<path class="st10" d="M1846.7,684.1l2.7-0.5c0.4,2.3,1.9,3.4,4.1,3.4c2.1,0,3.2-0.9,3.2-2.3c0-1.5-0.8-2.2-2.5-2.4l-2.5-0.3
			c-3.1-0.3-4.5-2.1-4.5-4.4c0-2.8,2.2-4.6,5.9-4.6c3.5,0,5.9,1.9,6.2,4.7l-2.6,0.6c-0.3-1.9-1.6-3.2-3.7-3.2c-2,0-3.2,0.8-3.2,2.3
			c0,1.3,0.9,2.1,2.8,2.3l2.5,0.3c3.1,0.3,4.3,1.9,4.3,4.4c0,2.9-2.2,4.7-5.9,4.7C1849.7,689.2,1847.2,687.4,1846.7,684.1z"/>
		<path class="st10" d="M1888.7,673c1.2,0,2.7,0.3,3.8,1.4c1,1,1.5,2.4,1.5,4.9v9.5h-2.6v-9.4c0-3.4-1.7-4.1-3.3-4.1
			c-3.4,0-4.2,3.2-4.2,5.4v8.1h-2.6v-22.4h2.6v9.8C1884.5,674.3,1886.4,673,1888.7,673z"/>
		<path class="st10" d="M1911.2,688.8h-2.8c-0.1-0.9-0.2-1.9-0.2-2.8c-1,2.2-2.7,3.2-5.2,3.2c-3.1,0-5.2-1.9-5.2-4.5
			c0-1.6,0.7-2.8,2.2-3.6c1-0.6,2.7-1,5.3-1.3l2.8-0.3v-0.3c0-2.8-1-4-3.3-4c-2.2,0-3.5,1.1-3.6,3.1h-2.8c0.3-3.3,2.7-5.2,6.6-5.2
			c4,0,5.8,2,5.8,6.4v4.2C1910.7,686.1,1910.9,687.7,1911.2,688.8z M1904.4,681.8c-2.7,0.4-3.8,1.1-3.8,2.7c0,1.6,1.1,2.5,2.9,2.5
			c2.8,0,4.6-1.9,4.6-4.9v-0.8L1904.4,681.8z"/>
		<path class="st10" d="M1915.9,684.1l2.7-0.5c0.4,2.3,1.9,3.4,4.1,3.4c2.1,0,3.2-0.9,3.2-2.3c0-1.5-0.8-2.2-2.5-2.4l-2.5-0.3
			c-3.1-0.3-4.5-2.1-4.5-4.4c0-2.8,2.2-4.6,5.9-4.6c3.5,0,5.9,1.9,6.2,4.7l-2.6,0.6c-0.3-1.9-1.6-3.2-3.7-3.2c-2,0-3.2,0.8-3.2,2.3
			c0,1.3,0.9,2.1,2.8,2.3l2.5,0.3c3.1,0.3,4.3,1.9,4.3,4.4c0,2.9-2.2,4.7-5.9,4.7C1918.9,689.2,1916.4,687.4,1915.9,684.1z"/>
		<path class="st10" d="M1303.7,716c0.9,0.9,1.4,2.1,1.4,3.6c0,3.2-2.3,5.3-5.8,5.3c-1.1,0-2.1-0.2-2.9-0.6
			c-0.6,0.3-1.1,0.8-1.1,1.5c0,1,0.8,1.5,2.6,1.5h4c3.2,0,5,1.6,5,4.2c0,3.2-2.8,5.1-7.6,5.1c-4.4,0-7-1.5-7-3.9
			c0-1.7,1-2.9,2.7-3.5c-1.3-0.5-1.9-1.5-1.9-2.8c0-1.4,0.8-2.5,2.2-3c-1-0.9-1.5-2.2-1.5-3.7c0-3.2,2.3-5.3,5.7-5.3
			c1.1,0,2.1,0.2,3,0.7c0.6-1.8,1.8-2.8,3.7-2.8c0.3,0,0.7,0,1,0.1v2.3c-0.5-0.1-0.7-0.1-1.1-0.1
			C1304.8,714.5,1304.1,715,1303.7,716z M1297.8,729.6c-0.5,0-0.9,0-1.3-0.1c-1,0.5-1.6,1.3-1.6,2.3c0,1.6,1.5,2.5,4.7,2.5
			c3.3,0,4.7-0.9,4.7-2.6c0-1.4-1-2.2-3-2.2H1297.8z M1302.6,719.6c0-1.9-1.3-3.2-3.2-3.2c-1.9,0-3.2,1.4-3.2,3.3
			c0,1.9,1.3,3.2,3.2,3.2C1301.2,722.8,1302.6,721.4,1302.6,719.6z"/>
		<path class="st10" d="M1320.8,714.4c1.1,0,2.1,0.1,2.8,0.3v2.4c-0.6-0.2-1.8-0.3-2.9-0.3c-3.7,0-6.7,2.5-6.7,7.6v5.7h-2.6v-15.4
			h2.6v4C1315.1,716.3,1317.6,714.4,1320.8,714.4z"/>
		<path class="st10" d="M1340.4,723.1h-10.8c0,2.9,1.7,5.1,4.5,5.1c2,0,3.3-1.3,4.1-2.8l2.2,1.2c-1.3,2.6-3.4,3.9-6.3,3.9
			c-4.9,0-7.2-3.3-7.2-8.4c0-4.7,2.7-7.8,7-7.8c4.7,0,6.6,3.4,6.6,7.6C1340.5,722.3,1340.4,722.7,1340.4,723.1z M1333.8,716.4
			c-2.8,0-4.2,2.3-4.2,4.6h8.2C1337.8,718.5,1336.6,716.4,1333.8,716.4z"/>
		<path class="st10" d="M1357.6,730.2h-2.8c-0.1-0.9-0.2-1.9-0.2-2.8c-1,2.2-2.7,3.2-5.2,3.2c-3.1,0-5.2-1.9-5.2-4.5
			c0-1.6,0.7-2.8,2.2-3.6c1-0.6,2.7-1,5.3-1.3l2.8-0.3v-0.3c0-2.8-1-4-3.3-4c-2.2,0-3.5,1.1-3.6,3.1h-2.8c0.3-3.3,2.7-5.2,6.6-5.2
			c4,0,5.8,2,5.8,6.4v4.2C1357.1,727.4,1357.3,729,1357.6,730.2z M1350.8,723.2c-2.7,0.4-3.8,1.1-3.8,2.7c0,1.6,1.1,2.5,2.9,2.5
			c2.8,0,4.6-1.9,4.6-4.9v-0.8L1350.8,723.2z"/>
		<path class="st10" d="M1361.7,714.7h4.4v-4l2.6-1.1v5.2h6v2.1h-6v8c0,2.1,1,3.1,3,3.1c1,0,2.1-0.1,3.1-0.3v2.4
			c-0.8,0.2-1.7,0.4-3,0.4c-3.9,0-5.6-2.2-5.6-5.2v-8.4h-4.4V714.7z"/>
		<path class="st10" d="M1399.5,717.6c0.8-1.7,2.7-3.2,4.9-3.2c4,0,6.4,3.4,6.4,8.1c0,4.8-2.5,8.1-6.6,8.1c-1.9,0-3.8-1.2-4.5-2.8
			v8.5h-2.6v-21.5h2.5V717.6z M1403.8,728.2c2.7,0,4.2-2.3,4.2-5.8c0-3.4-1.4-5.7-4.1-5.7c-2.6,0-4.3,2.1-4.3,5.4v0.7
			C1399.6,726.1,1401.2,728.2,1403.8,728.2z"/>
		<path class="st10" d="M1413.3,722.5c0-4.9,2.9-8.1,7.2-8.1c4.3,0,7.2,3.2,7.2,8.1c0,4.9-2.9,8.1-7.2,8.1
			C1416.2,730.6,1413.3,727.3,1413.3,722.5z M1424.9,722.5c0-3.6-1.6-5.8-4.4-5.8c-2.8,0-4.4,2.2-4.4,5.8c0,3.6,1.6,5.8,4.4,5.8
			C1423.3,728.3,1424.9,726.1,1424.9,722.5z"/>
		<path class="st10" d="M1431.8,714.7l1.6,10.6l0.3,2.2h0.2c0.1-0.7,0.2-1.2,0.5-2.6l2-10.2h2.7l2,10.2c0.3,1.4,0.4,1.9,0.5,2.6h0.2
			l0.3-2.2l1.6-10.6h2.8l-3,15.4h-3.3l-2-10c-0.1-0.6-0.2-1.9-0.3-2.5h-0.2c0,0.6-0.2,1.9-0.3,2.5l-2,10h-3.3l-3-15.4H1431.8z"/>
		<path class="st10" d="M1461.5,723.1h-10.8c0,2.9,1.7,5.1,4.5,5.1c2,0,3.3-1.3,4.1-2.8l2.2,1.2c-1.3,2.6-3.4,3.9-6.3,3.9
			c-4.9,0-7.2-3.3-7.2-8.4c0-4.7,2.7-7.8,7-7.8c4.7,0,6.6,3.4,6.6,7.6C1461.6,722.3,1461.5,722.7,1461.5,723.1z M1454.9,716.4
			c-2.8,0-4.2,2.3-4.2,4.6h8.2C1458.9,718.5,1457.7,716.4,1454.9,716.4z"/>
		<path class="st10" d="M1476.5,714.4c1.1,0,2.1,0.1,2.8,0.3v2.4c-0.6-0.2-1.8-0.3-2.9-0.3c-3.7,0-6.7,2.5-6.7,7.6v5.7h-2.6v-15.4
			h2.6v4C1470.8,716.3,1473.3,714.4,1476.5,714.4z"/>
		<path class="st10" d="M1501.3,728h4.9v-11.1h-4.5v-2.2h7.1V728h5.2v2.2h-12.8V728z M1509.1,711.6h-3.7v-3.7h3.7V711.6z"/>
		<path class="st10" d="M1525.5,714.4c1.3,0,2.7,0.3,3.7,1.3c1,1,1.5,2.4,1.5,4.9v9.5h-2.6v-9.4c0-3.4-1.7-4.1-3.2-4.1
			c-3.5,0-4.3,3.2-4.3,5.4v8.1h-2.6v-15.4h2.5v3.1C1521.2,715.8,1522.9,714.4,1525.5,714.4z"/>
		<path class="st10" d="M1552,714.7h4.4v-4l2.6-1.1v5.2h6v2.1h-6v8c0,2.1,1,3.1,3,3.1c1,0,2.1-0.1,3.1-0.3v2.4
			c-0.8,0.2-1.7,0.4-3,0.4c-3.9,0-5.6-2.2-5.6-5.2v-8.4h-4.4V714.7z"/>
		<path class="st10" d="M1577.3,714.4c1.2,0,2.7,0.3,3.8,1.4c1,1,1.5,2.4,1.5,4.9v9.5h-2.6v-9.4c0-3.4-1.7-4.1-3.3-4.1
			c-3.4,0-4.2,3.2-4.2,5.4v8.1h-2.6v-22.4h2.6v9.8C1573.1,715.7,1575,714.4,1577.3,714.4z"/>
		<path class="st10" d="M1599.9,723.1h-10.8c0,2.9,1.7,5.1,4.5,5.1c2,0,3.3-1.3,4.1-2.8l2.2,1.2c-1.3,2.6-3.4,3.9-6.3,3.9
			c-4.9,0-7.2-3.3-7.2-8.4c0-4.7,2.7-7.8,7-7.8c4.7,0,6.6,3.4,6.6,7.6C1600,722.3,1599.9,722.7,1599.9,723.1z M1593.3,716.4
			c-2.8,0-4.2,2.3-4.2,4.6h8.2C1597.3,718.5,1596.1,716.4,1593.3,716.4z"/>
		<path class="st10" d="M1604.5,725.4l2.7-0.5c0.4,2.3,1.9,3.4,4.1,3.4c2.1,0,3.2-0.9,3.2-2.3c0-1.5-0.8-2.2-2.5-2.4l-2.5-0.3
			c-3.1-0.3-4.5-2.1-4.5-4.4c0-2.8,2.2-4.6,5.9-4.6c3.5,0,5.9,1.9,6.2,4.7l-2.6,0.6c-0.3-1.9-1.6-3.2-3.7-3.2c-2,0-3.2,0.8-3.2,2.3
			c0,1.3,0.9,2.1,2.8,2.3l2.5,0.3c3.1,0.3,4.3,1.9,4.3,4.4c0,2.9-2.2,4.7-5.9,4.7C1607.5,730.6,1605,728.7,1604.5,725.4z"/>
		<path class="st10" d="M1634.5,723.1h-10.8c0,2.9,1.7,5.1,4.5,5.1c2,0,3.3-1.3,4.1-2.8l2.2,1.2c-1.3,2.6-3.4,3.9-6.3,3.9
			c-4.9,0-7.2-3.3-7.2-8.4c0-4.7,2.7-7.8,7-7.8c4.7,0,6.6,3.4,6.6,7.6C1634.6,722.3,1634.5,722.7,1634.5,723.1z M1627.9,716.4
			c-2.8,0-4.2,2.3-4.2,4.6h8.2C1631.9,718.5,1630.7,716.4,1627.9,716.4z"/>
		<path class="st10" d="M1657,728h4.9v-18.1h-4.6v-2.2h7.3V728h5.2v2.2H1657V728z"/>
		<path class="st10" d="M1686.3,730.2h-2.8c-0.1-0.9-0.2-1.9-0.2-2.8c-1,2.2-2.7,3.2-5.2,3.2c-3.1,0-5.2-1.9-5.2-4.5
			c0-1.6,0.7-2.8,2.2-3.6c1-0.6,2.7-1,5.3-1.3l2.8-0.3v-0.3c0-2.8-1-4-3.3-4c-2.2,0-3.5,1.1-3.6,3.1h-2.8c0.3-3.3,2.7-5.2,6.6-5.2
			c4,0,5.8,2,5.8,6.4v4.2C1685.8,727.4,1686,729,1686.3,730.2z M1679.5,723.2c-2.7,0.4-3.8,1.1-3.8,2.7c0,1.6,1.1,2.5,2.9,2.5
			c2.8,0,4.6-1.9,4.6-4.9v-0.8L1679.5,723.2z"/>
		<path class="st10" d="M1698.5,714.4c1.3,0,2.7,0.3,3.7,1.3c1,1,1.5,2.4,1.5,4.9v9.5h-2.6v-9.4c0-3.4-1.7-4.1-3.2-4.1
			c-3.5,0-4.3,3.2-4.3,5.4v8.1h-2.6v-15.4h2.5v3.1C1694.2,715.8,1695.9,714.4,1698.5,714.4z"/>
		<path class="st10" d="M1720.5,707.8v22.4h-2.5v-2.9c-0.9,2-2.4,3.2-4.9,3.2c-3.9,0-6.4-3.2-6.4-8.1c0-4.9,2.7-8.1,6.8-8.1
			c2.1,0,3.6,1.1,4.4,2.7v-9.2H1720.5z M1713.8,716.7c-2.7,0-4.2,2.1-4.2,5.7c0,3.6,1.6,5.8,4.1,5.8c2.6,0,4.3-2.1,4.3-5.4v-0.7
			C1718,718.8,1716.4,716.7,1713.8,716.7z"/>
		<path class="st10" d="M1725.6,725.4l2.7-0.5c0.4,2.3,1.9,3.4,4.1,3.4c2.1,0,3.2-0.9,3.2-2.3c0-1.5-0.8-2.2-2.5-2.4l-2.5-0.3
			c-3.1-0.3-4.5-2.1-4.5-4.4c0-2.8,2.2-4.6,5.9-4.6c3.5,0,5.9,1.9,6.2,4.7l-2.6,0.6c-0.3-1.9-1.6-3.2-3.7-3.2c-2,0-3.2,0.8-3.2,2.3
			c0,1.3,0.9,2.1,2.8,2.3l2.5,0.3c3.1,0.3,4.3,1.9,4.3,4.4c0,2.9-2.2,4.7-5.9,4.7C1728.6,730.6,1726.1,728.7,1725.6,725.4z"/>
		<path class="st10" d="M1751.2,730.2h-4.1v-4h4.1V730.2z"/>
		<path class="st10" d="M1775.6,708.2h2.9l0.7,15.6c0.1,2.3,0.1,3.4,0.1,3.9h0.3c0-0.7,0.2-1.9,0.6-4.1l2.1-9.9h2.7l2.1,9.9
			c0.5,2.2,0.6,3.4,0.6,4.1h0.3c0-0.5,0-1.6,0.1-3.9l0.7-15.6h2.9l-1.7,21.9h-3.8l-2-9.4c-0.4-1.9-0.5-3.1-0.6-4.4h-0.3
			c-0.1,1.3-0.2,2.4-0.6,4.4l-2,9.4h-3.8L1775.6,708.2z"/>
		<path class="st10" d="M1807.5,723.1h-10.8c0,2.9,1.7,5.1,4.5,5.1c2,0,3.3-1.3,4.1-2.8l2.2,1.2c-1.3,2.6-3.4,3.9-6.3,3.9
			c-4.9,0-7.2-3.3-7.2-8.4c0-4.7,2.7-7.8,7-7.8c4.7,0,6.6,3.4,6.6,7.6C1807.6,722.3,1807.5,722.7,1807.5,723.1z M1800.9,716.4
			c-2.8,0-4.2,2.3-4.2,4.6h8.2C1804.9,718.5,1803.7,716.4,1800.9,716.4z"/>
		<path class="st10" d="M1832,717.6c0.8-1.7,2.7-3.2,4.9-3.2c4,0,6.4,3.4,6.4,8.1c0,4.8-2.5,8.1-6.6,8.1c-1.9,0-3.8-1.2-4.5-2.8v8.5
			h-2.6v-21.5h2.5V717.6z M1836.3,728.2c2.7,0,4.2-2.3,4.2-5.8c0-3.4-1.4-5.7-4.1-5.7c-2.6,0-4.3,2.1-4.3,5.4v0.7
			C1832.1,726.1,1833.7,728.2,1836.3,728.2z"/>
		<path class="st10" d="M1857.1,714.4c1.1,0,2.1,0.1,2.8,0.3v2.4c-0.6-0.2-1.8-0.3-2.9-0.3c-3.7,0-6.7,2.5-6.7,7.6v5.7h-2.6v-15.4
			h2.6v4C1851.4,716.3,1853.9,714.4,1857.1,714.4z"/>
		<path class="st10" d="M1863.1,722.5c0-4.9,2.9-8.1,7.2-8.1c4.3,0,7.2,3.2,7.2,8.1c0,4.9-2.9,8.1-7.2,8.1
			C1865.9,730.6,1863.1,727.3,1863.1,722.5z M1874.7,722.5c0-3.6-1.6-5.8-4.4-5.8c-2.8,0-4.4,2.2-4.4,5.8c0,3.6,1.6,5.8,4.4,5.8
			C1873.1,728.3,1874.7,726.1,1874.7,722.5z"/>
		<path class="st10" d="M1892,720.4v2.5h-8.9v-2.5H1892z"/>
		<path class="st10" d="M1291.8,756.1h2.8l4,10.6c0.3,0.8,0.6,1.5,0.8,2.2h0.1c0.2-0.6,0.4-1.4,0.7-2.2l4.2-10.6h2.7l-6.2,15.4h-2.8
			L1291.8,756.1z"/>
		<path class="st10" d="M1311,769.4h4.9v-11.1h-4.5v-2.2h7.1v13.3h5.2v2.2H1311V769.4z M1318.8,753h-3.7v-3.7h3.7V753z"/>
		<path class="st10" d="M1339.9,749.1v22.4h-2.5v-2.9c-0.9,2-2.4,3.2-4.9,3.2c-3.9,0-6.4-3.2-6.4-8.1c0-4.9,2.7-8.1,6.8-8.1
			c2.1,0,3.6,1.1,4.4,2.7v-9.2H1339.9z M1333.2,758c-2.7,0-4.2,2.1-4.2,5.7c0,3.6,1.6,5.8,4.1,5.8c2.6,0,4.3-2.1,4.3-5.4v-0.7
			C1337.4,760.1,1335.8,758,1333.2,758z"/>
		<path class="st10" d="M1357.7,764.5h-10.8c0,2.9,1.7,5.1,4.5,5.1c2,0,3.3-1.3,4.1-2.8l2.2,1.2c-1.3,2.6-3.4,3.9-6.3,3.9
			c-4.9,0-7.2-3.3-7.2-8.4c0-4.7,2.7-7.8,7-7.8c4.7,0,6.6,3.4,6.6,7.6C1357.8,763.7,1357.7,764.1,1357.7,764.5z M1351.1,757.8
			c-2.8,0-4.2,2.3-4.2,4.6h8.2C1355.1,759.9,1353.9,757.8,1351.1,757.8z"/>
		<path class="st10" d="M1379,756.1h4.4v-4l2.6-1.1v5.2h6v2.1h-6v8c0,2.1,1,3.1,3,3.1c1,0,2.1-0.1,3.1-0.3v2.4
			c-0.8,0.2-1.7,0.4-3,0.4c-3.9,0-5.6-2.2-5.6-5.2v-8.4h-4.4V756.1z"/>
		<path class="st10" d="M1407.3,755.8c1.1,0,2.1,0.1,2.8,0.3v2.4c-0.6-0.2-1.8-0.3-2.9-0.3c-3.7,0-6.7,2.5-6.7,7.6v5.7h-2.6v-15.4
			h2.6v4C1401.6,757.7,1404.1,755.8,1407.3,755.8z"/>
		<path class="st10" d="M1419.4,771.9c-1.4,0-2.9-0.3-4-1.4c-1-1-1.4-2.4-1.4-4.9v-9.5h2.7v9.5c0,3.4,1.6,4.1,3.2,4.1
			c3.2,0,4-3.2,4-5.5v-8.1h2.6v15.4h-2.5v-2.9C1423.5,770.1,1421.7,771.9,1419.4,771.9z"/>
		<path class="st10" d="M1431.5,766.8l2.7-0.5c0.4,2.3,1.9,3.4,4.1,3.4c2.1,0,3.2-0.9,3.2-2.3c0-1.5-0.8-2.2-2.5-2.4l-2.5-0.3
			c-3.1-0.3-4.5-2.1-4.5-4.4c0-2.8,2.2-4.6,5.9-4.6c3.5,0,5.9,1.9,6.2,4.7l-2.6,0.6c-0.3-1.9-1.6-3.2-3.7-3.2c-2,0-3.2,0.8-3.2,2.3
			c0,1.3,0.9,2.1,2.8,2.3l2.5,0.3c3.1,0.3,4.3,1.9,4.3,4.4c0,2.9-2.2,4.7-5.9,4.7C1434.5,771.9,1432,770.1,1431.5,766.8z"/>
		<path class="st10" d="M1448.2,756.1h4.4v-4l2.6-1.1v5.2h6v2.1h-6v8c0,2.1,1,3.1,3,3.1c1,0,2.1-0.1,3.1-0.3v2.4
			c-0.8,0.2-1.7,0.4-3,0.4c-3.9,0-5.6-2.2-5.6-5.2v-8.4h-4.4V756.1z"/>
		<path class="st10" d="M1496,771.5h-2.8c-0.1-0.9-0.2-1.9-0.2-2.8c-1,2.2-2.7,3.2-5.2,3.2c-3.1,0-5.2-1.9-5.2-4.5
			c0-1.6,0.7-2.8,2.2-3.6c1-0.6,2.7-1,5.3-1.3l2.8-0.3v-0.3c0-2.8-1-4-3.3-4c-2.2,0-3.5,1.1-3.6,3.1h-2.8c0.3-3.3,2.7-5.2,6.6-5.2
			c4,0,5.8,2,5.8,6.4v4.2C1495.5,768.8,1495.7,770.4,1496,771.5z M1489.2,764.5c-2.7,0.4-3.8,1.1-3.8,2.7c0,1.6,1.1,2.5,2.9,2.5
			c2.8,0,4.6-1.9,4.6-4.9V764L1489.2,764.5z"/>
		<path class="st10" d="M1508.2,755.7c1.3,0,2.7,0.3,3.7,1.3c1,1,1.5,2.4,1.5,4.9v9.5h-2.6v-9.4c0-3.4-1.7-4.1-3.2-4.1
			c-3.5,0-4.3,3.2-4.3,5.4v8.1h-2.6v-15.4h2.5v3.1C1503.9,757.2,1505.6,755.7,1508.2,755.7z"/>
		<path class="st10" d="M1530.2,749.1v22.4h-2.5v-2.9c-0.9,2-2.4,3.2-4.9,3.2c-3.9,0-6.4-3.2-6.4-8.1c0-4.9,2.7-8.1,6.8-8.1
			c2.1,0,3.6,1.1,4.4,2.7v-9.2H1530.2z M1523.5,758c-2.7,0-4.2,2.1-4.2,5.7c0,3.6,1.6,5.8,4.1,5.8c2.6,0,4.3-2.1,4.3-5.4v-0.7
			C1527.7,760.1,1526.1,758,1523.5,758z"/>
		<path class="st10" d="M1551.8,763.7c0-4.6,2.3-8,7.2-8c3.4,0,5.9,2,6.3,5.5l-2.7,0.3c-0.3-2.3-1.6-3.6-3.8-3.6
			c-2.8,0-4.3,2.3-4.3,5.7c0,3.5,1.5,5.9,4.4,5.9c2.3,0,3.5-1.4,3.8-3.7l2.5,0.4c-0.5,3.2-2.5,5.6-6.3,5.6
			C1554.2,771.9,1551.8,768.4,1551.8,763.7z"/>
		<path class="st10" d="M1569,763.8c0-4.9,2.9-8.1,7.2-8.1c4.3,0,7.2,3.2,7.2,8.1c0,4.9-2.9,8.1-7.2,8.1
			C1571.9,771.9,1569,768.7,1569,763.8z M1580.6,763.8c0-3.6-1.6-5.8-4.4-5.8c-2.8,0-4.4,2.2-4.4,5.8c0,3.6,1.6,5.8,4.4,5.8
			C1579,769.6,1580.6,767.5,1580.6,763.8z"/>
		<path class="st10" d="M1594.7,755.7c1.3,0,2.7,0.3,3.7,1.3c1,1,1.5,2.4,1.5,4.9v9.5h-2.6v-9.4c0-3.4-1.7-4.1-3.2-4.1
			c-3.5,0-4.3,3.2-4.3,5.4v8.1h-2.6v-15.4h2.5v3.1C1590.4,757.2,1592.1,755.7,1594.7,755.7z"/>
		<path class="st10" d="M1617.2,758.2h-5.9v13.3h-2.6v-13.3h-4.7v-2.1h4.7v-1.7c0-3.5,2-5.3,5.8-5.3c0.9,0,1.6,0.1,2.7,0.3v2.3
			c-0.7-0.1-1.5-0.2-2.7-0.2c-2.3,0-3.2,0.8-3.2,3.2v1.5h5.9V758.2z"/>
		<path class="st10" d="M1620.9,763.8c0-4.9,2.9-8.1,7.2-8.1c4.3,0,7.2,3.2,7.2,8.1c0,4.9-2.9,8.1-7.2,8.1
			C1623.8,771.9,1620.9,768.7,1620.9,763.8z M1632.5,763.8c0-3.6-1.6-5.8-4.4-5.8c-2.8,0-4.4,2.2-4.4,5.8c0,3.6,1.6,5.8,4.4,5.8
			C1630.9,769.6,1632.5,767.5,1632.5,763.8z"/>
		<path class="st10" d="M1649.5,755.8c1.1,0,2.1,0.1,2.8,0.3v2.4c-0.6-0.2-1.8-0.3-2.9-0.3c-3.7,0-6.7,2.5-6.7,7.6v5.7h-2.6v-15.4
			h2.6v4C1643.8,757.7,1646.3,755.8,1649.5,755.8z"/>
		<path class="st10" d="M1655.8,756.1h4.4v-4l2.6-1.1v5.2h6v2.1h-6v8c0,2.1,1,3.1,3,3.1c1,0,2.1-0.1,3.1-0.3v2.4
			c-0.8,0.2-1.7,0.4-3,0.4c-3.9,0-5.6-2.2-5.6-5.2v-8.4h-4.4V756.1z"/>
		<path class="st10" d="M1678.1,774.7c1.7-0.7,2.1-1.5,2.1-3.2h-2.3v-4h4.1v4c0,2.4-0.7,3.6-3.1,4.6L1678.1,774.7z"/>
		<path class="st10" d="M1707.7,756.1h4.4v-4l2.6-1.1v5.2h6v2.1h-6v8c0,2.1,1,3.1,3,3.1c1,0,2.1-0.1,3.1-0.3v2.4
			c-0.8,0.2-1.7,0.4-3,0.4c-3.9,0-5.6-2.2-5.6-5.2v-8.4h-4.4V756.1z"/>
		<path class="st10" d="M1733,755.7c1.2,0,2.7,0.3,3.8,1.4c1,1,1.5,2.4,1.5,4.9v9.5h-2.6v-9.4c0-3.4-1.7-4.1-3.3-4.1
			c-3.4,0-4.2,3.2-4.2,5.4v8.1h-2.6v-22.4h2.6v9.8C1728.8,757,1730.7,755.7,1733,755.7z"/>
		<path class="st10" d="M1755.5,771.5h-2.8c-0.1-0.9-0.2-1.9-0.2-2.8c-1,2.2-2.7,3.2-5.2,3.2c-3.1,0-5.2-1.9-5.2-4.5
			c0-1.6,0.7-2.8,2.2-3.6c1-0.6,2.7-1,5.3-1.3l2.8-0.3v-0.3c0-2.8-1-4-3.3-4c-2.2,0-3.5,1.1-3.6,3.1h-2.8c0.3-3.3,2.7-5.2,6.6-5.2
			c4,0,5.8,2,5.8,6.4v4.2C1755,768.8,1755.2,770.4,1755.5,771.5z M1748.7,764.5c-2.7,0.4-3.8,1.1-3.8,2.7c0,1.6,1.1,2.5,2.9,2.5
			c2.8,0,4.6-1.9,4.6-4.9V764L1748.7,764.5z"/>
		<path class="st10" d="M1759.6,756.1h4.4v-4l2.6-1.1v5.2h6v2.1h-6v8c0,2.1,1,3.1,3,3.1c1,0,2.1-0.1,3.1-0.3v2.4
			c-0.8,0.2-1.7,0.4-3,0.4c-3.9,0-5.6-2.2-5.6-5.2v-8.4h-4.4V756.1z"/>
		<path class="st10" d="M1795.4,769.4h4.9v-11.1h-4.5v-2.2h7.1v13.3h5.2v2.2h-12.8V769.4z M1803.2,753h-3.7v-3.7h3.7V753z"/>
		<path class="st10" d="M1812.1,766.8l2.7-0.5c0.4,2.3,1.9,3.4,4.1,3.4c2.1,0,3.2-0.9,3.2-2.3c0-1.5-0.8-2.2-2.5-2.4l-2.5-0.3
			c-3.1-0.3-4.5-2.1-4.5-4.4c0-2.8,2.2-4.6,5.9-4.6c3.5,0,5.9,1.9,6.2,4.7l-2.6,0.6c-0.3-1.9-1.6-3.2-3.7-3.2c-2,0-3.2,0.8-3.2,2.3
			c0,1.3,0.9,2.1,2.8,2.3l2.5,0.3c3.1,0.3,4.3,1.9,4.3,4.4c0,2.9-2.2,4.7-5.9,4.7C1815.1,771.9,1812.6,770.1,1812.1,766.8z"/>
		<path class="st10" d="M1846.8,774.9c2.2,0.5,2.9,0.4,3.6,0.4c2.4,0,3.5-0.9,3.5-3.9v-13.2h-5.9v-2.2h8.5v15.5
			c0,3.5-1.4,6.2-5.8,6.2c-1.5,0-2.7-0.2-3.9-0.6V774.9z M1856.7,753h-3.7v-3.7h3.7V753z"/>
		<path class="st10" d="M1869.2,771.9c-1.4,0-2.9-0.3-4-1.4c-1-1-1.4-2.4-1.4-4.9v-9.5h2.7v9.5c0,3.4,1.6,4.1,3.2,4.1
			c3.2,0,4-3.2,4-5.5v-8.1h2.6v15.4h-2.5v-2.9C1873.3,770.1,1871.5,771.9,1869.2,771.9z"/>
		<path class="st10" d="M1881.3,766.8l2.7-0.5c0.4,2.3,1.9,3.4,4.1,3.4c2.1,0,3.2-0.9,3.2-2.3c0-1.5-0.8-2.2-2.5-2.4l-2.5-0.3
			c-3.1-0.3-4.5-2.1-4.5-4.4c0-2.8,2.2-4.6,5.9-4.6c3.5,0,5.9,1.9,6.2,4.7l-2.6,0.6c-0.3-1.9-1.6-3.2-3.7-3.2c-2,0-3.2,0.8-3.2,2.3
			c0,1.3,0.9,2.1,2.8,2.3l2.5,0.3c3.1,0.3,4.3,1.9,4.3,4.4c0,2.9-2.2,4.7-5.9,4.7C1884.3,771.9,1881.8,770.1,1881.3,766.8z"/>
		<path class="st10" d="M1898,756.1h4.4v-4l2.6-1.1v5.2h6v2.1h-6v8c0,2.1,1,3.1,3,3.1c1,0,2.1-0.1,3.1-0.3v2.4
			c-0.8,0.2-1.7,0.4-3,0.4c-3.9,0-5.6-2.2-5.6-5.2v-8.4h-4.4V756.1z"/>
		<path class="st10" d="M1292.2,805.2c0-4.9,2.9-8.1,7.2-8.1c4.3,0,7.2,3.2,7.2,8.1c0,4.9-2.9,8.1-7.2,8.1
			C1295.1,813.3,1292.2,810,1292.2,805.2z M1303.8,805.2c0-3.6-1.6-5.8-4.4-5.8c-2.8,0-4.4,2.2-4.4,5.8s1.6,5.8,4.4,5.8
			C1302.2,811,1303.8,808.8,1303.8,805.2z"/>
		<path class="st10" d="M1315.6,813.3c-1.4,0-2.9-0.3-4-1.4c-1-1-1.4-2.4-1.4-4.9v-9.5h2.7v9.5c0,3.4,1.6,4.1,3.2,4.1
			c3.2,0,4-3.2,4-5.5v-8.1h2.6v15.4h-2.5v-2.9C1319.7,811.5,1317.9,813.3,1315.6,813.3z"/>
		<path class="st10" d="M1338.1,797.1c1.1,0,2.1,0.1,2.8,0.3v2.4c-0.6-0.2-1.8-0.3-2.9-0.3c-3.7,0-6.7,2.5-6.7,7.6v5.7h-2.6v-15.4
			h2.6v4C1332.4,799,1334.9,797.1,1338.1,797.1z"/>
		<path class="st10" d="M1369.8,797.1c1.3,0,2.7,0.3,3.7,1.3c1,1,1.5,2.4,1.5,4.9v9.5h-2.6v-9.4c0-3.4-1.7-4.1-3.2-4.1
			c-3.5,0-4.3,3.2-4.3,5.4v8.1h-2.6v-15.4h2.5v3.1C1365.5,798.5,1367.2,797.1,1369.8,797.1z"/>
		<path class="st10" d="M1392.2,812.9h-2.8c-0.1-0.9-0.2-1.9-0.2-2.8c-1,2.2-2.7,3.2-5.2,3.2c-3.1,0-5.2-1.9-5.2-4.5
			c0-1.6,0.7-2.8,2.2-3.6c1-0.6,2.7-1,5.3-1.3l2.8-0.3v-0.3c0-2.8-1-4-3.3-4c-2.2,0-3.5,1.1-3.6,3.1h-2.8c0.3-3.3,2.7-5.2,6.6-5.2
			c4,0,5.8,2,5.8,6.4v4.2C1391.7,810.1,1391.9,811.7,1392.2,812.9z M1385.4,805.9c-2.7,0.4-3.8,1.1-3.8,2.7c0,1.6,1.1,2.5,2.9,2.5
			c2.8,0,4.6-1.9,4.6-4.9v-0.8L1385.4,805.9z"/>
		<path class="st10" d="M1396.3,797.4h4.4v-4l2.6-1.1v5.2h6v2.1h-6v8c0,2.1,1,3.1,3,3.1c1,0,2.1-0.1,3.1-0.3v2.4
			c-0.8,0.2-1.7,0.4-3,0.4c-3.9,0-5.6-2.2-5.6-5.2v-8.4h-4.4V797.4z"/>
		<path class="st10" d="M1419.4,813.3c-1.4,0-2.9-0.3-4-1.4c-1-1-1.4-2.4-1.4-4.9v-9.5h2.7v9.5c0,3.4,1.6,4.1,3.2,4.1
			c3.2,0,4-3.2,4-5.5v-8.1h2.6v15.4h-2.5v-2.9C1423.5,811.5,1421.7,813.3,1419.4,813.3z"/>
		<path class="st10" d="M1441.9,797.1c1.1,0,2.1,0.1,2.8,0.3v2.4c-0.6-0.2-1.8-0.3-2.9-0.3c-3.7,0-6.7,2.5-6.7,7.6v5.7h-2.6v-15.4
			h2.6v4C1436.2,799,1438.7,797.1,1441.9,797.1z"/>
		<path class="st10" d="M1461.5,805.8h-10.8c0,2.9,1.7,5.1,4.5,5.1c2,0,3.3-1.3,4.1-2.8l2.2,1.2c-1.3,2.6-3.4,3.9-6.3,3.9
			c-4.9,0-7.2-3.3-7.2-8.4c0-4.7,2.7-7.8,7-7.8c4.7,0,6.6,3.4,6.6,7.6C1461.6,805,1461.5,805.4,1461.5,805.8z M1454.9,799.1
			c-2.8,0-4.2,2.3-4.2,4.6h8.2C1458.9,801.2,1457.7,799.1,1454.9,799.1z"/>
		<path class="st10" d="M1474.4,812.9h-4.1v-4h4.1V812.9z"/>
		<path class="st10" d="M1514.3,796.8c0,2.1-1.2,4-3.7,4.7c2.6,0.5,4.3,2.4,4.3,5.4c0,2.8-1.7,6-7.1,6h-7.7v-21.9h7
			C1512.9,790.9,1514.3,794.2,1514.3,796.8z M1503.1,800.5h4.1c3.6,0,4.2-1.9,4.2-3.5c0-1.8-0.8-3.7-4.2-3.7h-4.1V800.5z
			 M1503.1,810.5h4.6c3.3,0,4.4-1.9,4.4-3.9c0-2.1-1.2-3.7-4-3.7h-4.9V810.5z"/>
		<path class="st10" d="M1523.2,813.3c-1.4,0-2.9-0.3-4-1.4c-1-1-1.4-2.4-1.4-4.9v-9.5h2.7v9.5c0,3.4,1.6,4.1,3.2,4.1
			c3.2,0,4-3.2,4-5.5v-8.1h2.6v15.4h-2.5v-2.9C1527.3,811.5,1525.5,813.3,1523.2,813.3z"/>
		<path class="st10" d="M1534.7,797.4h4.4v-4l2.6-1.1v5.2h6v2.1h-6v8c0,2.1,1,3.1,3,3.1c1,0,2.1-0.1,3.1-0.3v2.4
			c-0.8,0.2-1.7,0.4-3,0.4c-3.9,0-5.6-2.2-5.6-5.2v-8.4h-4.4V797.4z"/>
		<path class="st10" d="M1570.5,810.7h4.9v-11.1h-4.5v-2.2h7.1v13.3h5.2v2.2h-12.8V810.7z M1578.3,794.3h-3.7v-3.7h3.7V794.3z"/>
		<path class="st10" d="M1594.7,797.1c1.3,0,2.7,0.3,3.7,1.3c1,1,1.5,2.4,1.5,4.9v9.5h-2.6v-9.4c0-3.4-1.7-4.1-3.2-4.1
			c-3.5,0-4.3,3.2-4.3,5.4v8.1h-2.6v-15.4h2.5v3.1C1590.4,798.5,1592.1,797.1,1594.7,797.1z"/>
		<path class="st10" d="M1632.2,797.1c1.1,0,2.1,0.1,2.8,0.3v2.4c-0.6-0.2-1.8-0.3-2.9-0.3c-3.7,0-6.7,2.5-6.7,7.6v5.7h-2.6v-15.4
			h2.6v4C1626.5,799,1629,797.1,1632.2,797.1z"/>
		<path class="st10" d="M1651.8,805.8H1641c0,2.9,1.7,5.1,4.5,5.1c2,0,3.3-1.3,4.1-2.8l2.2,1.2c-1.3,2.6-3.4,3.9-6.3,3.9
			c-4.9,0-7.2-3.3-7.2-8.4c0-4.7,2.7-7.8,7-7.8c4.7,0,6.6,3.4,6.6,7.6C1651.9,805,1651.8,805.4,1651.8,805.8z M1645.2,799.1
			c-2.8,0-4.2,2.3-4.2,4.6h8.2C1649.2,801.2,1648,799.1,1645.2,799.1z"/>
		<path class="st10" d="M1669,812.9h-2.8c-0.1-0.9-0.2-1.9-0.2-2.8c-1,2.2-2.7,3.2-5.2,3.2c-3.1,0-5.2-1.9-5.2-4.5
			c0-1.6,0.7-2.8,2.2-3.6c1-0.6,2.7-1,5.3-1.3l2.8-0.3v-0.3c0-2.8-1-4-3.3-4c-2.2,0-3.5,1.1-3.6,3.1h-2.8c0.3-3.3,2.7-5.2,6.6-5.2
			c4,0,5.8,2,5.8,6.4v4.2C1668.5,810.1,1668.7,811.7,1669,812.9z M1662.2,805.9c-2.7,0.4-3.8,1.1-3.8,2.7c0,1.6,1.1,2.5,2.9,2.5
			c2.8,0,4.6-1.9,4.6-4.9v-0.8L1662.2,805.9z"/>
		<path class="st10" d="M1674.3,810.7h4.9v-18.1h-4.6v-2.2h7.3v20.2h5.2v2.2h-12.8V810.7z"/>
		<path class="st10" d="M1691.6,810.7h4.9v-11.1h-4.5v-2.2h7.1v13.3h5.2v2.2h-12.8V810.7z M1699.4,794.3h-3.7v-3.7h3.7V794.3z"/>
		<path class="st10" d="M1707.7,797.4h4.4v-4l2.6-1.1v5.2h6v2.1h-6v8c0,2.1,1,3.1,3,3.1c1,0,2.1-0.1,3.1-0.3v2.4
			c-0.8,0.2-1.7,0.4-3,0.4c-3.9,0-5.6-2.2-5.6-5.2v-8.4h-4.4V797.4z"/>
		<path class="st10" d="M1732.1,809.8l4.3-12.4h2.8l-6.2,16.4c-1.4,3.9-3.3,5.2-5.9,5.2c-0.5,0-0.9,0-1.4-0.1v-2.3
			c0.4,0,0.8,0.1,1.1,0.1c1.9,0,2.8-0.8,3.6-2.9l0.4-1.1l-6-15.3h3L1732.1,809.8z"/>
		<path class="st10" d="M1760.5,797.4l1.6,10.6l0.3,2.2h0.2c0.1-0.7,0.2-1.2,0.5-2.6l2-10.2h2.7l2,10.2c0.3,1.4,0.4,1.9,0.5,2.6h0.2
			l0.3-2.2l1.6-10.6h2.8l-3,15.4h-3.3l-2-10c-0.1-0.6-0.2-1.9-0.3-2.5h-0.2c0,0.6-0.2,1.9-0.3,2.5l-2,10h-3.3l-3-15.4H1760.5z"/>
		<path class="st10" d="M1790.2,805.8h-10.8c0,2.9,1.7,5.1,4.5,5.1c2,0,3.3-1.3,4.1-2.8l2.2,1.2c-1.3,2.6-3.4,3.9-6.3,3.9
			c-4.9,0-7.2-3.3-7.2-8.4c0-4.7,2.7-7.8,7-7.8c4.7,0,6.6,3.4,6.6,7.6C1790.3,805,1790.2,805.4,1790.2,805.8z M1783.6,799.1
			c-2.8,0-4.2,2.3-4.2,4.6h8.2C1787.6,801.2,1786.4,799.1,1783.6,799.1z"/>
		<path class="st10" d="M1824.7,812.9h-2.8c-0.1-0.9-0.2-1.9-0.2-2.8c-1,2.2-2.7,3.2-5.2,3.2c-3.1,0-5.2-1.9-5.2-4.5
			c0-1.6,0.7-2.8,2.2-3.6c1-0.6,2.7-1,5.3-1.3l2.8-0.3v-0.3c0-2.8-1-4-3.3-4c-2.2,0-3.5,1.1-3.6,3.1h-2.8c0.3-3.3,2.7-5.2,6.6-5.2
			c4,0,5.8,2,5.8,6.4v4.2C1824.2,810.1,1824.4,811.7,1824.7,812.9z M1817.9,805.9c-2.7,0.4-3.8,1.1-3.8,2.7c0,1.6,1.1,2.5,2.9,2.5
			c2.8,0,4.6-1.9,4.6-4.9v-0.8L1817.9,805.9z"/>
		<path class="st10" d="M1839.8,797.1c1.1,0,2.1,0.1,2.8,0.3v2.4c-0.6-0.2-1.8-0.3-2.9-0.3c-3.7,0-6.7,2.5-6.7,7.6v5.7h-2.6v-15.4
			h2.6v4C1834.1,799,1836.6,797.1,1839.8,797.1z"/>
		<path class="st10" d="M1859.4,805.8h-10.8c0,2.9,1.7,5.1,4.5,5.1c2,0,3.3-1.3,4.1-2.8l2.2,1.2c-1.3,2.6-3.4,3.9-6.3,3.9
			c-4.9,0-7.2-3.3-7.2-8.4c0-4.7,2.7-7.8,7-7.8c4.7,0,6.6,3.4,6.6,7.6C1859.5,805,1859.4,805.4,1859.4,805.8z M1852.8,799.1
			c-2.8,0-4.2,2.3-4.2,4.6h8.2C1856.8,801.2,1855.6,799.1,1852.8,799.1z"/>
		<path class="st10" d="M1295.9,841.5c0.8-1.8,2.7-3.1,4.8-3.1c4,0,6.4,3.4,6.4,8.1c0,4.8-2.4,8.1-6.5,8.1c-2.1,0-4-1.1-4.8-3
			l-0.5,2.7h-2v-22.4h2.6V841.5z M1299.9,852.3c2.7,0,4.3-2.3,4.3-5.8c0-3.4-1.5-5.7-4.2-5.7c-2.6,0-4.2,2.1-4.2,5.4v0.8
			C1295.8,850.1,1297.3,852.3,1299.9,852.3z"/>
		<path class="st10" d="M1323.1,847.2h-10.8c0,2.9,1.7,5.1,4.5,5.1c2,0,3.3-1.3,4.1-2.8l2.2,1.2c-1.3,2.6-3.4,3.9-6.3,3.9
			c-4.9,0-7.2-3.3-7.2-8.4c0-4.7,2.7-7.8,7-7.8c4.7,0,6.6,3.4,6.6,7.6C1323.2,846.4,1323.1,846.8,1323.1,847.2z M1316.5,840.4
			c-2.8,0-4.2,2.3-4.2,4.6h8.2C1320.5,842.5,1319.3,840.4,1316.5,840.4z"/>
		<path class="st10" d="M1328.3,852.1h4.9v-11.1h-4.5v-2.2h7.1v13.3h5.2v2.2h-12.8V852.1z M1336.1,835.7h-3.7V832h3.7V835.7z"/>
		<path class="st10" d="M1352.5,838.4c1.3,0,2.7,0.3,3.7,1.3c1,1,1.5,2.4,1.5,4.9v9.5h-2.6v-9.4c0-3.4-1.7-4.1-3.2-4.1
			c-3.5,0-4.3,3.2-4.3,5.4v8.1h-2.6v-15.4h2.5v3.1C1348.2,839.9,1349.9,838.4,1352.5,838.4z"/>
		<path class="st10" d="M1372.9,840c0.9,0.9,1.4,2.1,1.4,3.6c0,3.2-2.3,5.3-5.8,5.3c-1.1,0-2.1-0.2-2.9-0.6
			c-0.6,0.3-1.1,0.8-1.1,1.5c0,1,0.8,1.5,2.6,1.5h4c3.2,0,5,1.6,5,4.2c0,3.2-2.8,5.1-7.6,5.1c-4.4,0-7-1.5-7-3.9
			c0-1.7,1-2.9,2.7-3.5c-1.3-0.5-1.9-1.5-1.9-2.8c0-1.4,0.8-2.5,2.2-3c-1-0.9-1.5-2.2-1.5-3.7c0-3.2,2.3-5.3,5.7-5.3
			c1.1,0,2.1,0.2,3,0.7c0.6-1.8,1.8-2.8,3.7-2.8c0.3,0,0.7,0,1,0.1v2.3c-0.5-0.1-0.7-0.1-1.1-0.1C1374,838.5,1373.3,839,1372.9,840z
			 M1367,853.7c-0.5,0-0.9,0-1.3-0.1c-1,0.5-1.6,1.3-1.6,2.3c0,1.6,1.5,2.5,4.7,2.5c3.3,0,4.7-0.9,4.7-2.6c0-1.4-1-2.2-3-2.2H1367z
			 M1371.8,843.6c0-1.9-1.3-3.2-3.2-3.2c-1.9,0-3.2,1.4-3.2,3.3c0,1.9,1.3,3.2,3.2,3.2C1370.4,846.9,1371.8,845.5,1371.8,843.6z"/>
		<path class="st10" d="M1402.1,854.6c-1.4,0-2.9-0.3-4-1.4c-1-1-1.4-2.4-1.4-4.9v-9.5h2.7v9.5c0,3.4,1.6,4.1,3.2,4.1
			c3.2,0,4-3.2,4-5.5v-8.1h2.6v15.4h-2.5v-2.9C1406.2,852.8,1404.4,854.6,1402.1,854.6z"/>
		<path class="st10" d="M1414.2,849.5l2.7-0.5c0.4,2.3,1.9,3.4,4.1,3.4c2.1,0,3.2-0.9,3.2-2.3c0-1.5-0.8-2.2-2.5-2.4l-2.5-0.3
			c-3.1-0.3-4.5-2.1-4.5-4.4c0-2.8,2.2-4.6,5.9-4.6c3.5,0,5.9,1.9,6.2,4.7l-2.6,0.6c-0.3-1.9-1.6-3.2-3.7-3.2c-2,0-3.2,0.8-3.2,2.3
			c0,1.3,0.9,2.1,2.8,2.3l2.5,0.3c3.1,0.3,4.3,1.9,4.3,4.4c0,2.9-2.2,4.7-5.9,4.7C1417.2,854.6,1414.7,852.8,1414.2,849.5z"/>
		<path class="st10" d="M1444.2,847.2h-10.8c0,2.9,1.7,5.1,4.5,5.1c2,0,3.3-1.3,4.1-2.8l2.2,1.2c-1.3,2.6-3.4,3.9-6.3,3.9
			c-4.9,0-7.2-3.3-7.2-8.4c0-4.7,2.7-7.8,7-7.8c4.7,0,6.6,3.4,6.6,7.6C1444.3,846.4,1444.2,846.8,1444.2,847.2z M1437.6,840.4
			c-2.8,0-4.2,2.3-4.2,4.6h8.2C1441.6,842.5,1440.4,840.4,1437.6,840.4z"/>
		<path class="st10" d="M1461,831.8v22.4h-2.5v-2.9c-0.9,2-2.4,3.2-4.9,3.2c-3.9,0-6.4-3.2-6.4-8.1c0-4.9,2.7-8.1,6.8-8.1
			c2.1,0,3.6,1.1,4.4,2.7v-9.2H1461z M1454.3,840.7c-2.7,0-4.2,2.1-4.2,5.7c0,3.6,1.6,5.8,4.1,5.8c2.6,0,4.3-2.1,4.3-5.4v-0.7
			C1458.5,842.8,1456.9,840.7,1454.3,840.7z"/>
		<path class="st10" d="M1486.2,841.5c0.8-1.8,2.7-3.1,4.8-3.1c4,0,6.4,3.4,6.4,8.1c0,4.8-2.4,8.1-6.5,8.1c-2.1,0-4-1.1-4.8-3
			l-0.5,2.7h-2v-22.4h2.6V841.5z M1490.2,852.3c2.7,0,4.3-2.3,4.3-5.8c0-3.4-1.5-5.7-4.2-5.7c-2.6,0-4.2,2.1-4.2,5.4v0.8
			C1486.1,850.1,1487.6,852.3,1490.2,852.3z"/>
		<path class="st10" d="M1507.2,851.2l4.3-12.4h2.8l-6.2,16.4c-1.4,3.9-3.3,5.2-5.9,5.2c-0.5,0-0.9,0-1.4-0.1V858
			c0.4,0,0.8,0.1,1.1,0.1c1.9,0,2.8-0.8,3.6-2.9l0.4-1.1l-6-15.3h3L1507.2,851.2z"/>
		<path class="st10" d="M1534.7,838.8h4.4v-4l2.6-1.1v5.2h6v2.1h-6v8c0,2.1,1,3.1,3,3.1c1,0,2.1-0.1,3.1-0.3v2.4
			c-0.8,0.2-1.7,0.4-3,0.4c-3.9,0-5.6-2.2-5.6-5.2v-8.4h-4.4V838.8z"/>
		<path class="st10" d="M1560,838.4c1.2,0,2.7,0.3,3.8,1.4c1,1,1.5,2.4,1.5,4.9v9.5h-2.6v-9.4c0-3.4-1.7-4.1-3.3-4.1
			c-3.4,0-4.2,3.2-4.2,5.4v8.1h-2.6v-22.4h2.6v9.8C1555.8,839.7,1557.7,838.4,1560,838.4z"/>
		<path class="st10" d="M1582.6,847.2h-10.8c0,2.9,1.7,5.1,4.5,5.1c2,0,3.3-1.3,4.1-2.8l2.2,1.2c-1.3,2.6-3.4,3.9-6.3,3.9
			c-4.9,0-7.2-3.3-7.2-8.4c0-4.7,2.7-7.8,7-7.8c4.7,0,6.6,3.4,6.6,7.6C1582.7,846.4,1582.6,846.8,1582.6,847.2z M1576,840.4
			c-2.8,0-4.2,2.3-4.2,4.6h8.2C1580,842.5,1578.8,840.4,1576,840.4z"/>
		<path class="st10" d="M1587.2,849.5l2.7-0.5c0.4,2.3,1.9,3.4,4.1,3.4c2.1,0,3.2-0.9,3.2-2.3c0-1.5-0.8-2.2-2.5-2.4l-2.5-0.3
			c-3.1-0.3-4.5-2.1-4.5-4.4c0-2.8,2.2-4.6,5.9-4.6c3.5,0,5.9,1.9,6.2,4.7l-2.6,0.6c-0.3-1.9-1.6-3.2-3.7-3.2c-2,0-3.2,0.8-3.2,2.3
			c0,1.3,0.9,2.1,2.8,2.3l2.5,0.3c3.1,0.3,4.3,1.9,4.3,4.4c0,2.9-2.2,4.7-5.9,4.7C1590.2,854.6,1587.7,852.8,1587.2,849.5z"/>
		<path class="st10" d="M1617.2,847.2h-10.8c0,2.9,1.7,5.1,4.5,5.1c2,0,3.3-1.3,4.1-2.8l2.2,1.2c-1.3,2.6-3.4,3.9-6.3,3.9
			c-4.9,0-7.2-3.3-7.2-8.4c0-4.7,2.7-7.8,7-7.8c4.7,0,6.6,3.4,6.6,7.6C1617.3,846.4,1617.2,846.8,1617.2,847.2z M1610.6,840.4
			c-2.8,0-4.2,2.3-4.2,4.6h8.2C1614.6,842.5,1613.4,840.4,1610.6,840.4z"/>
		<path class="st10" d="M1638.3,846.4c0-4.6,2.3-8,7.2-8c3.4,0,5.9,2,6.3,5.5l-2.7,0.3c-0.3-2.3-1.6-3.6-3.8-3.6
			c-2.8,0-4.3,2.3-4.3,5.7c0,3.5,1.5,5.9,4.4,5.9c2.3,0,3.5-1.4,3.8-3.7l2.5,0.4c-0.5,3.2-2.5,5.6-6.3,5.6
			C1640.7,854.6,1638.3,851,1638.3,846.4z"/>
		<path class="st10" d="M1655.5,846.5c0-4.9,2.9-8.1,7.2-8.1c4.3,0,7.2,3.2,7.2,8.1s-2.9,8.1-7.2,8.1
			C1658.4,854.6,1655.5,851.4,1655.5,846.5z M1667.1,846.5c0-3.6-1.6-5.8-4.4-5.8c-2.8,0-4.4,2.2-4.4,5.8c0,3.6,1.6,5.8,4.4,5.8
			C1665.5,852.3,1667.1,850.1,1667.1,846.5z"/>
		<path class="st10" d="M1684.1,838.5c1.1,0,2.1,0.1,2.8,0.3v2.4c-0.6-0.2-1.8-0.3-2.9-0.3c-3.7,0-6.7,2.5-6.7,7.6v5.7h-2.6v-15.4
			h2.6v4C1678.4,840.4,1680.9,838.5,1684.1,838.5z"/>
		<path class="st10" d="M1693.6,841.7c0.8-1.7,2.7-3.2,4.9-3.2c4,0,6.4,3.4,6.4,8.1c0,4.8-2.5,8.1-6.6,8.1c-1.9,0-3.8-1.2-4.5-2.8
			v8.5h-2.6v-21.5h2.5V841.7z M1697.9,852.3c2.7,0,4.2-2.3,4.2-5.8c0-3.4-1.4-5.7-4.1-5.7c-2.6,0-4.3,2.1-4.3,5.4v0.7
			C1693.7,850.1,1695.3,852.3,1697.9,852.3z"/>
		<path class="st10" d="M1707.4,846.5c0-4.9,2.9-8.1,7.2-8.1c4.3,0,7.2,3.2,7.2,8.1s-2.9,8.1-7.2,8.1
			C1710.3,854.6,1707.4,851.4,1707.4,846.5z M1719,846.5c0-3.6-1.6-5.8-4.4-5.8c-2.8,0-4.4,2.2-4.4,5.8c0,3.6,1.6,5.8,4.4,5.8
			C1717.4,852.3,1719,850.1,1719,846.5z"/>
		<path class="st10" d="M1736,838.5c1.1,0,2.1,0.1,2.8,0.3v2.4c-0.6-0.2-1.8-0.3-2.9-0.3c-3.7,0-6.7,2.5-6.7,7.6v5.7h-2.6v-15.4h2.6
			v4C1730.3,840.4,1732.8,838.5,1736,838.5z"/>
		<path class="st10" d="M1755.5,854.2h-2.8c-0.1-0.9-0.2-1.9-0.2-2.8c-1,2.2-2.7,3.2-5.2,3.2c-3.1,0-5.2-1.9-5.2-4.5
			c0-1.6,0.7-2.8,2.2-3.6c1-0.6,2.7-1,5.3-1.3l2.8-0.3v-0.3c0-2.8-1-4-3.3-4c-2.2,0-3.5,1.1-3.6,3.1h-2.8c0.3-3.3,2.7-5.2,6.6-5.2
			c4,0,5.8,2,5.8,6.4v4.2C1755,851.5,1755.2,853.1,1755.5,854.2z M1748.7,847.2c-2.7,0.4-3.8,1.1-3.8,2.7c0,1.6,1.1,2.5,2.9,2.5
			c2.8,0,4.6-1.9,4.6-4.9v-0.8L1748.7,847.2z"/>
		<path class="st10" d="M1759.6,838.8h4.4v-4l2.6-1.1v5.2h6v2.1h-6v8c0,2.1,1,3.1,3,3.1c1,0,2.1-0.1,3.1-0.3v2.4
			c-0.8,0.2-1.7,0.4-3,0.4c-3.9,0-5.6-2.2-5.6-5.2v-8.4h-4.4V838.8z"/>
		<path class="st10" d="M1778.1,852.1h4.9v-11.1h-4.5v-2.2h7.1v13.3h5.2v2.2h-12.8V852.1z M1785.9,835.7h-3.7V832h3.7V835.7z"/>
		<path class="st10" d="M1793.9,846.5c0-4.9,2.9-8.1,7.2-8.1c4.3,0,7.2,3.2,7.2,8.1s-2.9,8.1-7.2,8.1
			C1796.8,854.6,1793.9,851.4,1793.9,846.5z M1805.5,846.5c0-3.6-1.6-5.8-4.4-5.8c-2.8,0-4.4,2.2-4.4,5.8c0,3.6,1.6,5.8,4.4,5.8
			C1803.9,852.3,1805.5,850.1,1805.5,846.5z"/>
		<path class="st10" d="M1819.6,838.4c1.3,0,2.7,0.3,3.7,1.3c1,1,1.5,2.4,1.5,4.9v9.5h-2.6v-9.4c0-3.4-1.7-4.1-3.2-4.1
			c-3.5,0-4.3,3.2-4.3,5.4v8.1h-2.6v-15.4h2.5v3.1C1815.3,839.9,1817,838.4,1819.6,838.4z"/>
		<path class="st10" d="M1829.4,849.5l2.7-0.5c0.4,2.3,1.9,3.4,4.1,3.4c2.1,0,3.2-0.9,3.2-2.3c0-1.5-0.8-2.2-2.5-2.4l-2.5-0.3
			c-3.1-0.3-4.5-2.1-4.5-4.4c0-2.8,2.2-4.6,5.9-4.6c3.5,0,5.9,1.9,6.2,4.7l-2.6,0.6c-0.3-1.9-1.6-3.2-3.7-3.2c-2,0-3.2,0.8-3.2,2.3
			c0,1.3,0.9,2.1,2.8,2.3l2.5,0.3c3.1,0.3,4.3,1.9,4.3,4.4c0,2.9-2.2,4.7-5.9,4.7C1832.4,854.6,1829.9,852.8,1829.4,849.5z"/>
		<path class="st10" d="M1863.4,838.8h4.4v-4l2.6-1.1v5.2h6v2.1h-6v8c0,2.1,1,3.1,3,3.1c1,0,2.1-0.1,3.1-0.3v2.4
			c-0.8,0.2-1.7,0.4-3,0.4c-3.9,0-5.6-2.2-5.6-5.2v-8.4h-4.4V838.8z"/>
		<path class="st10" d="M1888.7,838.4c1.2,0,2.7,0.3,3.8,1.4c1,1,1.5,2.4,1.5,4.9v9.5h-2.6v-9.4c0-3.4-1.7-4.1-3.3-4.1
			c-3.4,0-4.2,3.2-4.2,5.4v8.1h-2.6v-22.4h2.6v9.8C1884.5,839.7,1886.4,838.4,1888.7,838.4z"/>
		<path class="st10" d="M1911.2,854.2h-2.8c-0.1-0.9-0.2-1.9-0.2-2.8c-1,2.2-2.7,3.2-5.2,3.2c-3.1,0-5.2-1.9-5.2-4.5
			c0-1.6,0.7-2.8,2.2-3.6c1-0.6,2.7-1,5.3-1.3l2.8-0.3v-0.3c0-2.8-1-4-3.3-4c-2.2,0-3.5,1.1-3.6,3.1h-2.8c0.3-3.3,2.7-5.2,6.6-5.2
			c4,0,5.8,2,5.8,6.4v4.2C1910.7,851.5,1910.9,853.1,1911.2,854.2z M1904.4,847.2c-2.7,0.4-3.8,1.1-3.8,2.7c0,1.6,1.1,2.5,2.9,2.5
			c2.8,0,4.6-1.9,4.6-4.9v-0.8L1904.4,847.2z"/>
		<path class="st10" d="M1915.3,838.8h4.4v-4l2.6-1.1v5.2h6v2.1h-6v8c0,2.1,1,3.1,3,3.1c1,0,2.1-0.1,3.1-0.3v2.4
			c-0.8,0.2-1.7,0.4-3,0.4c-3.9,0-5.6-2.2-5.6-5.2v-8.4h-4.4V838.8z"/>
		<path class="st10" d="M1300.5,879.8c1.2,0,2.7,0.3,3.8,1.4c1,1,1.5,2.4,1.5,4.9v9.5h-2.6v-9.4c0-3.4-1.7-4.1-3.3-4.1
			c-3.4,0-4.2,3.2-4.2,5.4v8.1h-2.6v-22.4h2.6v9.8C1296.3,881.1,1298.2,879.8,1300.5,879.8z"/>
		<path class="st10" d="M1311,893.4h4.9v-11.1h-4.5v-2.2h7.1v13.3h5.2v2.2H1311V893.4z M1318.8,877h-3.7v-3.7h3.7V877z"/>
		<path class="st10" d="M1338.1,879.8c1.1,0,2.1,0.1,2.8,0.3v2.4c-0.6-0.2-1.8-0.3-2.9-0.3c-3.7,0-6.7,2.5-6.7,7.6v5.7h-2.6v-15.4
			h2.6v4C1332.4,881.7,1334.9,879.8,1338.1,879.8z"/>
		<path class="st10" d="M1357.7,888.5h-10.8c0,2.9,1.7,5.1,4.5,5.1c2,0,3.3-1.3,4.1-2.8l2.2,1.2c-1.3,2.6-3.4,3.9-6.3,3.9
			c-4.9,0-7.2-3.3-7.2-8.4c0-4.7,2.7-7.8,7-7.8c4.7,0,6.6,3.4,6.6,7.6C1357.8,887.7,1357.7,888.1,1357.7,888.5z M1351.1,881.8
			c-2.8,0-4.2,2.3-4.2,4.6h8.2C1355.1,883.9,1353.9,881.8,1351.1,881.8z"/>
		<path class="st10" d="M1384.8,895.9c-1.4,0-2.9-0.3-4-1.4c-1-1-1.4-2.4-1.4-4.9v-9.5h2.7v9.5c0,3.4,1.6,4.1,3.2,4.1
			c3.2,0,4-3.2,4-5.5v-8.1h2.6v15.4h-2.5v-2.9C1388.9,894.2,1387.1,895.9,1384.8,895.9z"/>
		<path class="st10" d="M1396.9,890.8l2.7-0.5c0.4,2.3,1.9,3.4,4.1,3.4c2.1,0,3.2-0.9,3.2-2.3c0-1.5-0.8-2.2-2.5-2.4l-2.5-0.3
			c-3.1-0.3-4.5-2.1-4.5-4.4c0-2.8,2.2-4.6,5.9-4.6c3.5,0,5.9,1.9,6.2,4.7l-2.6,0.6c-0.3-1.9-1.6-3.2-3.7-3.2c-2,0-3.2,0.8-3.2,2.3
			c0,1.3,0.9,2.1,2.8,2.3l2.5,0.3c3.1,0.3,4.3,1.9,4.3,4.4c0,2.9-2.2,4.7-5.9,4.7C1399.9,895.9,1397.4,894.1,1396.9,890.8z"/>
		<path class="st10" d="M1431.6,898.9c2.2,0.5,2.9,0.4,3.6,0.4c2.4,0,3.5-0.9,3.5-3.9v-13.2h-5.9v-2.2h8.5v15.5
			c0,3.5-1.4,6.2-5.8,6.2c-1.5,0-2.7-0.2-3.9-0.6V898.9z M1441.5,877h-3.7v-3.7h3.7V877z"/>
		<path class="st10" d="M1454,895.9c-1.4,0-2.9-0.3-4-1.4c-1-1-1.4-2.4-1.4-4.9v-9.5h2.7v9.5c0,3.4,1.6,4.1,3.2,4.1
			c3.2,0,4-3.2,4-5.5v-8.1h2.6v15.4h-2.5v-2.9C1458.1,894.2,1456.3,895.9,1454,895.9z"/>
		<path class="st10" d="M1466.1,890.8l2.7-0.5c0.4,2.3,1.9,3.4,4.1,3.4c2.1,0,3.2-0.9,3.2-2.3c0-1.5-0.8-2.2-2.5-2.4l-2.5-0.3
			c-3.1-0.3-4.5-2.1-4.5-4.4c0-2.8,2.2-4.6,5.9-4.6c3.5,0,5.9,1.9,6.2,4.7l-2.6,0.6c-0.3-1.9-1.6-3.2-3.7-3.2c-2,0-3.2,0.8-3.2,2.3
			c0,1.3,0.9,2.1,2.8,2.3l2.5,0.3c3.1,0.3,4.3,1.9,4.3,4.4c0,2.9-2.2,4.7-5.9,4.7C1469.1,895.9,1466.6,894.1,1466.1,890.8z"/>
		<path class="st10" d="M1482.8,880.1h4.4v-4l2.6-1.1v5.2h6v2.1h-6v8c0,2.1,1,3.1,3,3.1c1,0,2.1-0.1,3.1-0.3v2.4
			c-0.8,0.2-1.7,0.4-3,0.4c-3.9,0-5.6-2.2-5.6-5.2v-8.4h-4.4V880.1z"/>
		<path class="st10" d="M1518,890.8l2.7-0.5c0.4,2.3,1.9,3.4,4.1,3.4c2.1,0,3.2-0.9,3.2-2.3c0-1.5-0.8-2.2-2.5-2.4l-2.5-0.3
			c-3.1-0.3-4.5-2.1-4.5-4.4c0-2.8,2.2-4.6,5.9-4.6c3.5,0,5.9,1.9,6.2,4.7l-2.6,0.6c-0.3-1.9-1.6-3.2-3.7-3.2c-2,0-3.2,0.8-3.2,2.3
			c0,1.3,0.9,2.1,2.8,2.3l2.5,0.3c3.1,0.3,4.3,1.9,4.3,4.4c0,2.9-2.2,4.7-5.9,4.7C1521,895.9,1518.5,894.1,1518,890.8z"/>
		<path class="st10" d="M1534.4,887.8c0-4.9,2.9-8.1,7.2-8.1c4.3,0,7.2,3.2,7.2,8.1c0,4.9-2.9,8.1-7.2,8.1
			C1537.3,895.9,1534.4,892.7,1534.4,887.8z M1546,887.8c0-3.6-1.6-5.8-4.4-5.8c-2.8,0-4.4,2.2-4.4,5.8s1.6,5.8,4.4,5.8
			C1544.4,893.7,1546,891.5,1546,887.8z"/>
		<path class="st10" d="M1569.3,880.1h4.4v-4l2.6-1.1v5.2h6v2.1h-6v8c0,2.1,1,3.1,3,3.1c1,0,2.1-0.1,3.1-0.3v2.4
			c-0.8,0.2-1.7,0.4-3,0.4c-3.9,0-5.6-2.2-5.6-5.2v-8.4h-4.4V880.1z"/>
		<path class="st10" d="M1594.6,879.8c1.2,0,2.7,0.3,3.8,1.4c1,1,1.5,2.4,1.5,4.9v9.5h-2.6v-9.4c0-3.4-1.7-4.1-3.3-4.1
			c-3.4,0-4.2,3.2-4.2,5.4v8.1h-2.6v-22.4h2.6v9.8C1590.4,881.1,1592.3,879.8,1594.6,879.8z"/>
		<path class="st10" d="M1617.2,888.5h-10.8c0,2.9,1.7,5.1,4.5,5.1c2,0,3.3-1.3,4.1-2.8l2.2,1.2c-1.3,2.6-3.4,3.9-6.3,3.9
			c-4.9,0-7.2-3.3-7.2-8.4c0-4.7,2.7-7.8,7-7.8c4.7,0,6.6,3.4,6.6,7.6C1617.3,887.7,1617.2,888.1,1617.2,888.5z M1610.6,881.8
			c-2.8,0-4.2,2.3-4.2,4.6h8.2C1614.6,883.9,1613.4,881.8,1610.6,881.8z"/>
		<path class="st10" d="M1628.3,892.5l4.3-12.4h2.8l-6.2,16.4c-1.4,3.9-3.3,5.2-5.9,5.2c-0.5,0-0.9,0-1.4-0.1v-2.3
			c0.4,0,0.8,0.1,1.1,0.1c1.9,0,2.8-0.8,3.6-2.9l0.4-1.1l-6-15.3h3L1628.3,892.5z"/>
		<path class="st10" d="M1655.6,887.8c0-4.6,2.3-8,7.2-8c3.4,0,5.9,2,6.3,5.5l-2.7,0.3c-0.3-2.3-1.6-3.6-3.8-3.6
			c-2.8,0-4.3,2.3-4.3,5.7c0,3.5,1.5,5.9,4.4,5.9c2.3,0,3.5-1.4,3.8-3.7l2.5,0.4c-0.5,3.2-2.5,5.6-6.3,5.6
			C1658,895.9,1655.6,892.4,1655.6,887.8z"/>
		<path class="st10" d="M1686.3,895.6h-2.8c-0.1-0.9-0.2-1.9-0.2-2.8c-1,2.2-2.7,3.2-5.2,3.2c-3.1,0-5.2-1.9-5.2-4.5
			c0-1.6,0.7-2.8,2.2-3.6c1-0.6,2.7-1,5.3-1.3l2.8-0.3v-0.3c0-2.8-1-4-3.3-4c-2.2,0-3.5,1.1-3.6,3.1h-2.8c0.3-3.3,2.7-5.2,6.6-5.2
			c4,0,5.8,2,5.8,6.4v4.2C1685.8,892.8,1686,894.4,1686.3,895.6z M1679.5,888.6c-2.7,0.4-3.8,1.1-3.8,2.7c0,1.6,1.1,2.5,2.9,2.5
			c2.8,0,4.6-1.9,4.6-4.9v-0.8L1679.5,888.6z"/>
		<path class="st10" d="M1698.5,879.8c1.3,0,2.7,0.3,3.7,1.3c1,1,1.5,2.4,1.5,4.9v9.5h-2.6v-9.4c0-3.4-1.7-4.1-3.2-4.1
			c-3.5,0-4.3,3.2-4.3,5.4v8.1h-2.6v-15.4h2.5v3.1C1694.2,881.2,1695.9,879.8,1698.5,879.8z"/>
		<path class="st10" d="M1736.2,881.4c0.9,0.9,1.4,2.1,1.4,3.6c0,3.2-2.3,5.3-5.8,5.3c-1.1,0-2.1-0.2-2.9-0.6
			c-0.6,0.3-1.1,0.8-1.1,1.5c0,1,0.8,1.5,2.6,1.5h4c3.2,0,5,1.6,5,4.2c0,3.2-2.8,5.1-7.6,5.1c-4.4,0-7-1.5-7-3.9
			c0-1.7,1-2.9,2.7-3.5c-1.3-0.5-1.9-1.5-1.9-2.8c0-1.4,0.8-2.5,2.2-3c-1-0.9-1.5-2.2-1.5-3.7c0-3.2,2.3-5.3,5.7-5.3
			c1.1,0,2.1,0.2,3,0.7c0.6-1.8,1.8-2.8,3.7-2.8c0.3,0,0.7,0,1,0.1v2.3c-0.5-0.1-0.7-0.1-1.1-0.1
			C1737.3,879.9,1736.6,880.3,1736.2,881.4z M1730.3,895c-0.5,0-0.9,0-1.3-0.1c-1,0.5-1.6,1.3-1.6,2.3c0,1.6,1.5,2.5,4.7,2.5
			c3.3,0,4.7-0.9,4.7-2.6c0-1.4-1-2.2-3-2.2H1730.3z M1735.1,884.9c0-1.9-1.3-3.2-3.2-3.2c-1.9,0-3.2,1.4-3.2,3.3
			c0,1.9,1.3,3.2,3.2,3.2C1733.7,888.2,1735.1,886.8,1735.1,884.9z"/>
		<path class="st10" d="M1755.6,888.5h-10.8c0,2.9,1.7,5.1,4.5,5.1c2,0,3.3-1.3,4.1-2.8l2.2,1.2c-1.3,2.6-3.4,3.9-6.3,3.9
			c-4.9,0-7.2-3.3-7.2-8.4c0-4.7,2.7-7.8,7-7.8c4.7,0,6.6,3.4,6.6,7.6C1755.7,887.7,1755.6,888.1,1755.6,888.5z M1749,881.8
			c-2.8,0-4.2,2.3-4.2,4.6h8.2C1753,883.9,1751.8,881.8,1749,881.8z"/>
		<path class="st10" d="M1759.6,880.1h4.4v-4l2.6-1.1v5.2h6v2.1h-6v8c0,2.1,1,3.1,3,3.1c1,0,2.1-0.1,3.1-0.3v2.4
			c-0.8,0.2-1.7,0.4-3,0.4c-3.9,0-5.6-2.2-5.6-5.2v-8.4h-4.4V880.1z"/>
		<path class="st10" d="M1807.4,895.6h-2.8c-0.1-0.9-0.2-1.9-0.2-2.8c-1,2.2-2.7,3.2-5.2,3.2c-3.1,0-5.2-1.9-5.2-4.5
			c0-1.6,0.7-2.8,2.2-3.6c1-0.6,2.7-1,5.3-1.3l2.8-0.3v-0.3c0-2.8-1-4-3.3-4c-2.2,0-3.5,1.1-3.6,3.1h-2.8c0.3-3.3,2.7-5.2,6.6-5.2
			c4,0,5.8,2,5.8,6.4v4.2C1806.9,892.8,1807.1,894.4,1807.4,895.6z M1800.6,888.6c-2.7,0.4-3.8,1.1-3.8,2.7c0,1.6,1.1,2.5,2.9,2.5
			c2.8,0,4.6-1.9,4.6-4.9v-0.8L1800.6,888.6z"/>
		<path class="st10" d="M1812.4,880.1l1.6,10.6l0.3,2.2h0.2c0.1-0.7,0.2-1.2,0.5-2.6l2-10.2h2.7l2,10.2c0.3,1.4,0.4,1.9,0.5,2.6h0.2
			l0.3-2.2l1.6-10.6h2.8l-3,15.4h-3.3l-2-10c-0.1-0.6-0.2-1.9-0.3-2.5h-0.2c0,0.6-0.2,1.9-0.3,2.5l-2,10h-3.3l-3-15.4H1812.4z"/>
		<path class="st10" d="M1842,895.6h-2.8c-0.1-0.9-0.2-1.9-0.2-2.8c-1,2.2-2.7,3.2-5.2,3.2c-3.1,0-5.2-1.9-5.2-4.5
			c0-1.6,0.7-2.8,2.2-3.6c1-0.6,2.7-1,5.3-1.3l2.8-0.3v-0.3c0-2.8-1-4-3.3-4c-2.2,0-3.5,1.1-3.6,3.1h-2.8c0.3-3.3,2.7-5.2,6.6-5.2
			c4,0,5.8,2,5.8,6.4v4.2C1841.5,892.8,1841.7,894.4,1842,895.6z M1835.2,888.6c-2.7,0.4-3.8,1.1-3.8,2.7c0,1.6,1.1,2.5,2.9,2.5
			c2.8,0,4.6-1.9,4.6-4.9v-0.8L1835.2,888.6z"/>
		<path class="st10" d="M1853.2,892.5l4.3-12.4h2.8l-6.2,16.4c-1.4,3.9-3.3,5.2-5.9,5.2c-0.5,0-0.9,0-1.4-0.1v-2.3
			c0.4,0,0.8,0.1,1.1,0.1c1.9,0,2.8-0.8,3.6-2.9l0.4-1.1l-6-15.3h3L1853.2,892.5z"/>
		<path class="st10" d="M1293.4,921.5l1.6,10.6l0.3,2.2h0.2c0.1-0.7,0.2-1.2,0.5-2.6l2-10.2h2.7l2,10.2c0.3,1.4,0.4,1.9,0.5,2.6h0.2
			l0.3-2.2l1.6-10.6h2.8l-3,15.4h-3.3l-2-10c-0.1-0.6-0.2-1.9-0.3-2.5h-0.2c0,0.6-0.2,1.9-0.3,2.5l-2,10h-3.3l-3-15.4H1293.4z"/>
		<path class="st10" d="M1311,934.8h4.9v-11.1h-4.5v-2.2h7.1v13.3h5.2v2.2H1311V934.8z M1318.8,918.4h-3.7v-3.7h3.7V918.4z"/>
		<path class="st10" d="M1327.1,921.5h4.4v-4l2.6-1.1v5.2h6v2.1h-6v8c0,2.1,1,3.1,3,3.1c1,0,2.1-0.1,3.1-0.3v2.4
			c-0.8,0.2-1.7,0.4-3,0.4c-3.9,0-5.6-2.2-5.6-5.2v-8.4h-4.4V921.5z"/>
		<path class="st10" d="M1352.4,921.1c1.2,0,2.7,0.3,3.8,1.4c1,1,1.5,2.4,1.5,4.9v9.5h-2.6v-9.4c0-3.4-1.7-4.1-3.3-4.1
			c-3.4,0-4.2,3.2-4.2,5.4v8.1h-2.6v-22.4h2.6v9.8C1348.2,922.4,1350.1,921.1,1352.4,921.1z"/>
		<path class="st10" d="M1379,921.5h4.4v-4l2.6-1.1v5.2h6v2.1h-6v8c0,2.1,1,3.1,3,3.1c1,0,2.1-0.1,3.1-0.3v2.4
			c-0.8,0.2-1.7,0.4-3,0.4c-3.9,0-5.6-2.2-5.6-5.2v-8.4h-4.4V921.5z"/>
		<path class="st10" d="M1404.3,921.1c1.2,0,2.7,0.3,3.8,1.4c1,1,1.5,2.4,1.5,4.9v9.5h-2.6v-9.4c0-3.4-1.7-4.1-3.3-4.1
			c-3.4,0-4.2,3.2-4.2,5.4v8.1h-2.6v-22.4h2.6v9.8C1400.1,922.4,1402,921.1,1404.3,921.1z"/>
		<path class="st10" d="M1426.9,929.9h-10.8c0,2.9,1.7,5.1,4.5,5.1c2,0,3.3-1.3,4.1-2.8l2.2,1.2c-1.3,2.6-3.4,3.9-6.3,3.9
			c-4.9,0-7.2-3.3-7.2-8.4c0-4.7,2.7-7.8,7-7.8c4.7,0,6.6,3.4,6.6,7.6C1427,929.1,1426.9,929.5,1426.9,929.9z M1420.3,923.1
			c-2.8,0-4.2,2.3-4.2,4.6h8.2C1424.3,925.2,1423.1,923.1,1420.3,923.1z"/>
		<path class="st10" d="M1432.1,934.8h4.9v-11.1h-4.5v-2.2h7.1v13.3h5.2v2.2h-12.8V934.8z M1439.9,918.4h-3.7v-3.7h3.7V918.4z"/>
		<path class="st10" d="M1459.2,921.2c1.1,0,2.1,0.1,2.8,0.3v2.4c-0.6-0.2-1.8-0.3-2.9-0.3c-3.7,0-6.7,2.5-6.7,7.6v5.7h-2.6v-15.4
			h2.6v4C1453.5,923,1456,921.2,1459.2,921.2z"/>
		<path class="st10" d="M1496.1,929.9h-10.8c0,2.9,1.7,5.1,4.5,5.1c2,0,3.3-1.3,4.1-2.8l2.2,1.2c-1.3,2.6-3.4,3.9-6.3,3.9
			c-4.9,0-7.2-3.3-7.2-8.4c0-4.7,2.7-7.8,7-7.8c4.7,0,6.6,3.4,6.6,7.6C1496.2,929.1,1496.1,929.5,1496.1,929.9z M1489.5,923.1
			c-2.8,0-4.2,2.3-4.2,4.6h8.2C1493.5,925.2,1492.3,923.1,1489.5,923.1z"/>
		<path class="st10" d="M1499.3,921.5h2.8l4,10.6c0.3,0.8,0.6,1.5,0.8,2.2h0.1c0.2-0.6,0.4-1.4,0.7-2.2l4.2-10.6h2.7l-6.2,15.4h-2.8
			L1499.3,921.5z"/>
		<path class="st10" d="M1518.6,934.8h4.9v-11.1h-4.5v-2.2h7.1v13.3h5.2v2.2h-12.8V934.8z M1526.4,918.4h-3.7v-3.7h3.7V918.4z"/>
		<path class="st10" d="M1535.9,934.8h4.9v-18.1h-4.6v-2.2h7.3v20.2h5.2v2.2h-12.8V934.8z"/>
		<path class="st10" d="M1582.1,914.5v22.4h-2.5V934c-0.9,2-2.4,3.2-4.9,3.2c-3.9,0-6.4-3.2-6.4-8.1c0-4.9,2.7-8.1,6.8-8.1
			c2.1,0,3.6,1.1,4.4,2.7v-9.2H1582.1z M1575.4,923.4c-2.7,0-4.2,2.1-4.2,5.7c0,3.6,1.6,5.8,4.1,5.8c2.6,0,4.3-2.1,4.3-5.4v-0.7
			C1579.6,925.5,1578,923.4,1575.4,923.4z"/>
		<path class="st10" d="M1586.3,929.2c0-4.9,2.9-8.1,7.2-8.1c4.3,0,7.2,3.2,7.2,8.1s-2.9,8.1-7.2,8.1
			C1589.2,937.3,1586.3,934,1586.3,929.2z M1597.9,929.2c0-3.6-1.6-5.8-4.4-5.8c-2.8,0-4.4,2.2-4.4,5.8c0,3.6,1.6,5.8,4.4,5.8
			C1596.3,935,1597.9,932.8,1597.9,929.2z"/>
		<path class="st10" d="M1605.1,934.8h4.9v-11.1h-4.5v-2.2h7.1v13.3h5.2v2.2h-12.8V934.8z M1612.9,918.4h-3.7v-3.7h3.7V918.4z"/>
		<path class="st10" d="M1629.3,921.1c1.3,0,2.7,0.3,3.7,1.3c1,1,1.5,2.4,1.5,4.9v9.5h-2.6v-9.4c0-3.4-1.7-4.1-3.2-4.1
			c-3.5,0-4.3,3.2-4.3,5.4v8.1h-2.6v-15.4h2.5v3.1C1625,922.6,1626.7,921.1,1629.3,921.1z"/>
		<path class="st10" d="M1649.7,922.7c0.9,0.9,1.4,2.1,1.4,3.6c0,3.2-2.3,5.3-5.8,5.3c-1.1,0-2.1-0.2-2.9-0.6
			c-0.6,0.3-1.1,0.8-1.1,1.5c0,1,0.8,1.5,2.6,1.5h4c3.2,0,5,1.6,5,4.2c0,3.2-2.8,5.1-7.6,5.1c-4.4,0-7-1.5-7-3.9
			c0-1.7,1-2.9,2.7-3.5c-1.3-0.5-1.9-1.5-1.9-2.8c0-1.4,0.8-2.5,2.2-3c-1-0.9-1.5-2.2-1.5-3.7c0-3.2,2.3-5.3,5.7-5.3
			c1.1,0,2.1,0.2,3,0.7c0.6-1.8,1.8-2.8,3.7-2.8c0.3,0,0.7,0,1,0.1v2.3c-0.5-0.1-0.7-0.1-1.1-0.1
			C1650.8,921.2,1650.1,921.7,1649.7,922.7z M1643.8,936.4c-0.5,0-0.9,0-1.3-0.1c-1,0.5-1.6,1.3-1.6,2.3c0,1.6,1.5,2.5,4.7,2.5
			c3.3,0,4.7-0.9,4.7-2.6c0-1.4-1-2.2-3-2.2H1643.8z M1648.6,926.3c0-1.9-1.3-3.2-3.2-3.2c-1.9,0-3.2,1.4-3.2,3.3
			c0,1.9,1.3,3.2,3.2,3.2C1647.2,929.6,1648.6,928.2,1648.6,926.3z"/>
		<path class="st10" d="M1656.4,932.2l2.7-0.5c0.4,2.3,1.9,3.4,4.1,3.4c2.1,0,3.2-0.9,3.2-2.3c0-1.5-0.8-2.2-2.5-2.4l-2.5-0.3
			c-3.1-0.3-4.5-2.1-4.5-4.4c0-2.8,2.2-4.6,5.9-4.6c3.5,0,5.9,1.9,6.2,4.7l-2.6,0.6c-0.3-1.9-1.6-3.2-3.7-3.2c-2,0-3.2,0.8-3.2,2.3
			c0,1.3,0.9,2.1,2.8,2.3l2.5,0.3c3.1,0.3,4.3,1.9,4.3,4.4c0,2.9-2.2,4.7-5.9,4.7C1659.4,937.3,1656.9,935.5,1656.4,932.2z"/>
		<path class="st10" d="M1682,936.9h-4.1v-4h4.1V936.9z"/>
	</g>
</g>
</svg>
