<?xml version="1.0" encoding="utf-8"?>
<!-- Generator: Adobe Illustrator 25.2.3, SVG Export Plug-In . SVG Version: 6.00 Build 0)  -->
<svg version="1.1" id="Camada_1" xmlns="http://www.w3.org/2000/svg" xmlns:xlink="http://www.w3.org/1999/xlink" x="0px" y="0px"
	 viewBox="0 0 1458 1655" style="enable-background:new 0 0 1458 1655;" xml:space="preserve">
<style type="text/css">
	.st0{fill:#D7F7FF;stroke:#00BFFF;stroke-width:3;stroke-linecap:round;stroke-linejoin:round;stroke-miterlimit:10;}
	.st1{fill:none;stroke:#00BFFF;stroke-width:3;stroke-miterlimit:10;}
	.st2{fill:none;stroke:#00BFFF;stroke-width:3;stroke-linecap:round;stroke-linejoin:round;stroke-miterlimit:10;}
	.st3{fill:#FFFFFF;stroke:#00BFFF;stroke-width:3;stroke-linecap:round;stroke-linejoin:round;stroke-miterlimit:10;}
	.st4{fill:#00BFFF;}
	.st5{fill:none;stroke:#00BDFF;stroke-width:3;stroke-linecap:round;stroke-linejoin:round;stroke-miterlimit:10;}
	.st6{fill:#00BDFF;}
	.st7{fill:#FFFFFF;stroke:#00BDFF;stroke-width:3;stroke-linecap:round;stroke-linejoin:round;stroke-miterlimit:10;}
	.st8{fill:#D5F5FF;stroke:#00BDFF;stroke-width:3;stroke-linecap:round;stroke-linejoin:round;stroke-miterlimit:10;}
</style>
<g id="comic_seq_4">
	<g id="comic_seq_5">
		<path id="Vector_54" class="st0" d="M1417.9,2.2h-295.7c-19.2,0-35.2,14.2-37.9,32.7H1043c-2.7-18.5-18.6-32.7-37.9-32.7H709.4
			c-21.1,0-38.3,17.1-38.3,38.2v55.4c0,21.1,17.1,38.2,38.3,38.2h295.7c21.1,0,38.3-17.1,38.3-38.2V56.3h40.6v76.7
			c0,21.1,17.1,38.2,38.3,38.2h295.7c21.2,0,38.3-17.1,38.3-38.2V40.5C1456.2,19.4,1439.1,2.2,1417.9,2.2z"/>
		<path id="Vector_55" class="st1" d="M0.6,836.8h1454.4"/>
		<path id="Vector_56" class="st2" d="M1039.4,344.4H863.1l0.4-69.9c0,0,11.7,0,18.2,0c7.7,0,13.3-4.5,13.3-13.5
			c0-9-5.6-14.7-13.5-14.7c-7.9,0-27.1,0-27.1,0s-27.1-1.1-27.1,21.4"/>
		<path id="Vector_57" class="st2" d="M1096.9,344.4h183.1l-0.4-69.9c0,0-11.7,0-18.2,0c-7.7,0-13.3-4.5-13.3-13.5
			c0-9,5.6-14.7,13.5-14.7c7.9,0,27.1,0,27.1,0s27.1-1.1,27.1,21.4"/>
		<path id="Vector_58" class="st1" d="M862.1,246.3v-15.2v-20.9c0,0,0.3-14.6-11.7-14.6s-12,13.5-12,13.5v22"/>
		<path id="Vector_59" class="st1" d="M1351.6,344.9V231.1v-20.9c0,0,0.3-14.6-11.7-14.6c-12,0-12,13.5-12,13.5v22"/>
		<path id="Vector_60" class="st1" d="M1327.9,231.1v-20.9c0,0,0.3-14.6-11.7-14.6c-12,0-12,13.5-12,13.5v22"/>
		<path id="Vector_61" class="st1" d="M1304.2,231.1v-20.9c0,0,0.3-14.6-11.7-14.6c-12,0-12,13.5-12,13.5v37.2"/>
		<path id="Vector_62" class="st1" d="M838.4,231.4v-20.9c0,0,0.3-14.6-11.7-14.6s-12,13.5-12,13.5v22"/>
		<path id="Vector_63" class="st1" d="M814.4,231.4v-20.9c0,0,0.3-14.6-11.7-14.6s-12,13.5-12,13.5v135.6c0,0-3.9,74.7,71.4,74.7
			h106.8V781h-20.6c0,0-28.5-2.7-28.5,28.9c0,31.6,27.7,26.9,27.7,26.9h213.9V417.4h117.1c0,0,73.3,7,73.3-73.1"/>
		<path id="Vector_64" class="st2" d="M802.6,231.4h45.3"/>
		<path id="Vector_65" class="st2" d="M1052.4,244h-15.8"/>
		<path id="Vector_66" class="st2" d="M1052.4,251.9h-15.8"/>
		<path id="Vector_67" class="st2" d="M1292.4,231.1h45.9"/>
		<path id="Vector_68" class="st2" d="M1064.2,303.8c29.9,0,54.1-24.2,54.1-54.1s-24.2-54.1-54.1-54.1c-29.9,0-54.1,24.2-54.1,54.1
			S1034.3,303.8,1064.2,303.8z"/>
		<path id="Vector_69" class="st2" d="M1096.9,344.4l-14.7-44"/>
		<path id="Vector_70" class="st2" d="M1039.4,344.4l10.2-42.8"/>
		<path id="Vector_71" class="st3" d="M1014,263.2c9,0,16.4-8.6,16.4-19.2c0-10.6-7.3-19.2-16.4-19.2c-9,0-16.4,8.6-16.4,19.2
			C997.7,254.6,1005,263.2,1014,263.2z"/>
		<path id="Vector_72" class="st2" d="M1014,224.9h22.5v38.3H1014"/>
		<path id="Vector_73" class="st3" d="M1059.2,263.2c9,0,16.4-8.6,16.4-19.2c0-10.6-7.3-19.2-16.4-19.2c-9,0-16.4,8.6-16.4,19.2
			C1042.8,254.6,1050.1,263.2,1059.2,263.2z"/>
		<path id="Vector_74" class="st2" d="M1059.2,224.9h22.5v38.3h-22.5"/>
		<path id="Vector_75" class="st2" d="M1117.8,244h-35.5"/>
		<path id="Vector_76" class="st2" d="M1117.8,251.9h-35.5"/>
		<path id="Vector_77" class="st2" d="M1057.5,284.6c12.4,0,23.7-1.9,32.1-13.4c0,0,5.4,1.1,5.2,6.7c-0.1,5.5-4.7,10.1-9.2,11.2
			c-4.5,1.1-7.8-0.7-9.5-1.5"/>
		<path id="Vector_78" class="st2" d="M968.4,780.6h192.9"/>
		<path id="Vector_79" class="st2" d="M1043.9,837c-19.2,0-29.3-13.5-29.3-27.1c0-18,9-29.3,32.4-29"/>
		<path id="Vector_80" class="st2" d="M1133,698.3H968.4"/>
		<path id="Vector_81" class="st2" d="M1133,698.3V566.4h28.4V543H1133V344.9h-21.5v61.5H994.3v-61.5h-25.9v74.7"/>
		<path id="Vector_82" class="st2" d="M1067.6,780.6v-82.3"/>
		<path id="Vector_83" class="st2" d="M1279.7,307.2h72.2"/>
		<path id="Vector_84" class="st2" d="M862.3,307.2h-71.1"/>
		<path id="Vector_85" class="st2" d="M1022.9,344.9c8.6,16.4,27.8,24.8,44.1,24.8c16.4,0,34.4-9.5,44-24.8"/>
		<g id="Group_4">
			<path id="Vector_86" class="st2" d="M415.7,229.4l1.6-0.5c2.5-4.9,3.7-10.6,3.1-14.9c-0.8-5.7-9.2-5.9-10.3-0.2c0,0,0,0.1,0,0.1
				c-0.8,4.3-1,14.2-12.4,20.8l0.6-0.2c-17.4,9.1-27.7,28.6-24.1,48.9c4.4,25.1,28.3,42,53.5,37.6c25.2-4.4,42-28.3,37.6-53.5
				C461,243.7,439.3,227.4,415.7,229.4z"/>
			<path id="Vector_87" class="st2" d="M427.6,229.4c2.5-4.9,3.5-11.7,2.9-16.1c-0.8-5.7-9.2-5.9-10.3-0.2"/>
			<path id="Vector_88" class="st2" d="M437.3,232.3c2.5-4.9,3.5-11.7,2.9-16.1c-0.8-5.7-8.1-6.1-9.2-0.4"/>
		</g>
		<path id="Vector_89" class="st2" d="M427.3,271.8c0.9,0,1.7-0.8,1.7-1.7c0-0.9-0.8-1.7-1.7-1.7c-0.9,0-1.7,0.8-1.7,1.7
			C425.6,271.1,426.4,271.8,427.3,271.8z"/>
		<path id="Vector_90" class="st2" d="M446.7,268.5c0.9,0,1.7-0.8,1.7-1.7c0-0.9-0.8-1.7-1.7-1.7c-0.9,0-1.7,0.8-1.7,1.7
			C445,267.7,445.8,268.5,446.7,268.5z"/>
		<path id="Vector_91" class="st2" d="M436.5,277.2l5.1-0.9c2.4-0.4,4.7,1.2,5.1,3.6c0.4,2.4-1.2,4.7-3.6,5.1l-5.1,0.9"/>
		<path id="Vector_92" class="st2" d="M395.5,293.7c-6.1,1.1-11.8-3-12.9-9.1c-1.1-6.1,3-11.8,9.1-12.9"/>
		<g id="Group_5">
			<path id="Vector_93" class="st4" d="M707.9,30.9h3.1l0.8,17c0.1,2.5,0.1,3.7,0.1,4.3h0.3c0-0.8,0.2-2.1,0.7-4.5l2.3-10.9h3
				l2.3,10.9c0.5,2.4,0.6,3.7,0.7,4.5h0.3c0-0.5,0-1.8,0.1-4.3l0.8-17h3.1l-1.8,24h-4.1l-2.2-10.3c-0.4-2.1-0.6-3.4-0.6-4.8h-0.3
				c-0.1,1.4-0.2,2.7-0.6,4.8l-2.2,10.3h-4.1L707.9,30.9z"/>
			<path id="Vector_94" class="st4" d="M744.8,47.2H733c0,3.2,1.8,5.6,5,5.6c2.2,0,3.6-1.4,4.5-3l2.4,1.3c-1.4,2.8-3.7,4.3-6.9,4.3
				c-5.3,0-7.9-3.6-7.9-9.2c0-5.2,3-8.5,7.7-8.5c5.2,0,7.2,3.7,7.2,8.3C744.9,46.3,744.9,46.8,744.8,47.2z M737.6,39.8
				c-3.1,0-4.6,2.5-4.6,5h9C742,42.1,740.6,39.8,737.6,39.8z"/>
			<path id="Vector_95" class="st4" d="M752.5,52.6h5.4V32.8h-5.1v-2.4h8v22.2h5.7v2.4h-14V52.6z"/>
			<path id="Vector_96" class="st4" d="M772,46.4c0-5,2.6-8.8,7.9-8.8c3.8,0,6.5,2.2,6.9,6.1l-2.9,0.3c-0.3-2.5-1.7-3.9-4.1-3.9
				c-3.1,0-4.7,2.5-4.7,6.2c0,3.9,1.6,6.5,4.8,6.5c2.5,0,3.8-1.5,4.2-4.1l2.7,0.4c-0.5,3.5-2.7,6.2-6.9,6.2
				C774.6,55.3,772,51.4,772,46.4z"/>
			<path id="Vector_97" class="st4" d="M792.8,46.5c0-5.4,3.1-8.9,7.9-8.9c4.7,0,7.9,3.5,7.9,8.9s-3.1,8.9-7.9,8.9
				C796,55.3,792.8,51.8,792.8,46.5z M805.6,46.5c0-4-1.8-6.4-4.8-6.4c-3,0-4.8,2.4-4.8,6.4c0,4,1.8,6.4,4.8,6.4
				C803.8,52.8,805.6,50.5,805.6,46.5z"/>
			<path id="Vector_98" class="st4" d="M819.1,37.6c1.7,0,2.9,1.1,3.5,3.1c0.8-2,2.3-3.1,4-3.1c2.1,0,4,1.5,4,5v12.3h-2.9v-12
				c0-2.2-1-2.7-2-2.7c-2,0-2.7,1.5-2.7,3.6v11.2h-2.8v-12c0-2.1-0.9-2.7-2-2.7c-2,0-2.6,1.6-2.6,3.6v11.2h-2.9V38h2.7v2.6
				C816.1,38.8,817.4,37.6,819.1,37.6z"/>
			<path id="Vector_99" class="st4" d="M849.7,47.2h-11.9c0,3.2,1.8,5.6,5,5.6c2.2,0,3.6-1.4,4.5-3l2.4,1.3
				c-1.4,2.8-3.7,4.3-6.9,4.3c-5.3,0-7.9-3.6-7.9-9.2c0-5.2,3-8.5,7.7-8.5c5.2,0,7.2,3.7,7.2,8.3C849.8,46.3,849.7,46.8,849.7,47.2z
				 M842.5,39.8c-3.1,0-4.6,2.5-4.6,5h9C846.9,42.1,845.5,39.8,842.5,39.8z"/>
			<path id="Vector_100" class="st4" d="M882.1,37.6c1.7,0,2.9,1.1,3.5,3.1c0.8-2,2.3-3.1,4-3.1c2.1,0,4,1.5,4,5v12.3h-2.9v-12
				c0-2.2-1-2.7-2-2.7c-2,0-2.7,1.5-2.7,3.6v11.2h-2.8v-12c0-2.1-0.9-2.7-2-2.7c-2,0-2.6,1.6-2.6,3.6v11.2h-2.9V38h2.7v2.6
				C879,38.8,880.4,37.6,882.1,37.6z"/>
			<path id="Vector_101" class="st4" d="M905.9,51.6l4.7-13.6h3.1l-6.8,18c-1.6,4.3-3.6,5.7-6.4,5.7c-0.5,0-1,0-1.6-0.1V59
				c0.4,0,0.8,0.1,1.2,0.1c2.1,0,3.1-0.9,3.9-3.1l0.4-1.2L897.9,38h3.3L905.9,51.6z"/>
			<path id="Vector_102" class="st4" d="M954.6,40.4h-6.4v14.6h-2.9V40.4h-5.2V38h5.2v-1.9c0-3.9,2.2-5.9,6.4-5.9
				c1,0,1.8,0.1,2.9,0.3v2.5c-0.8-0.1-1.7-0.3-2.9-0.3c-2.6,0-3.5,0.9-3.5,3.5V38h6.4L954.6,40.4L954.6,40.4z M962.3,52.6h5.4V32.8
				h-5.1v-2.4h8v22.2h5.7v2.4h-14V52.6z"/>
			<path id="Vector_103" class="st4" d="M996.5,54.9h-3c-0.1-0.9-0.2-2.1-0.3-3.1c-1.1,2.4-2.9,3.5-5.7,3.5c-3.4,0-5.7-2.1-5.7-5
				c0-1.8,0.8-3.1,2.4-4c1.1-0.6,2.9-1,5.7-1.4l3.1-0.4v-0.3c0-3-1.1-4.3-3.6-4.3c-2.4,0-3.8,1.2-4,3.4h-3.1
				c0.3-3.6,2.9-5.7,7.2-5.7c4.4,0,6.3,2.2,6.3,7v4.6C995.9,51.9,996.1,53.7,996.5,54.9z M989,47.3c-2.9,0.4-4.2,1.2-4.2,2.9
				c0,1.7,1.2,2.8,3.2,2.8c3,0,5-2.1,5-5.4v-0.8L989,47.3z"/>
			<path id="Vector_104" class="st4" d="M1003,38h4.8v-4.4l2.9-1.2V38h6.6v2.3h-6.6v8.8c0,2.3,1.1,3.4,3.3,3.4
				c1.1,0,2.3-0.1,3.3-0.3v2.6c-0.9,0.2-1.8,0.4-3.3,0.4c-4.2,0-6.2-2.4-6.2-5.7v-9.2h-4.8L1003,38L1003,38z"/>
		</g>
		<g id="Group_6">
			<path id="Vector_105" class="st4" d="M723.9,80.9h-6.4v14.6h-2.9V80.9h-5.2v-2.3h5.2v-1.9c0-3.9,2.2-5.9,6.4-5.9
				c1,0,1.8,0.1,2.9,0.3v2.5c-0.8-0.1-1.7-0.3-2.9-0.3c-2.6,0-3.5,0.9-3.5,3.5v1.7h6.4L723.9,80.9L723.9,80.9z"/>
			<path id="Vector_106" class="st4" d="M742.3,78.3c1.2,0,2.3,0.1,3,0.3v2.7c-0.7-0.2-1.9-0.3-3.1-0.3c-4.1,0-7.3,2.8-7.3,8.3v6.3
				H732V78.6h2.8V83C736,80.3,738.8,78.3,742.3,78.3z"/>
			<path id="Vector_107" class="st4" d="M752.5,93.1h5.4V81H753v-2.4h7.8v14.5h5.7v2.4h-14V93.1z M761.1,75.2H757v-4.1h4.1V75.2z"/>
			<path id="Vector_108" class="st4" d="M786.8,87.8h-11.9c0,3.2,1.8,5.6,5,5.6c2.2,0,3.6-1.4,4.5-3l2.4,1.3
				c-1.4,2.8-3.7,4.3-6.9,4.3c-5.3,0-7.9-3.6-7.9-9.2c0-5.2,3-8.5,7.7-8.5c5.2,0,7.2,3.7,7.2,8.3C786.8,86.9,786.8,87.4,786.8,87.8z
				 M779.5,80.4c-3.1,0-4.6,2.5-4.6,5h9C783.9,82.7,782.6,80.4,779.5,80.4z"/>
			<path id="Vector_109" class="st4" d="M802,78.2c1.4,0,2.9,0.4,4.1,1.5c1.1,1,1.6,2.7,1.6,5.4v10.5h-2.9V85.2
				c0-3.7-1.8-4.5-3.5-4.5c-3.8,0-4.7,3.6-4.7,6v8.8h-2.9V78.6h2.7v3.4C797.3,79.8,799.2,78.2,802,78.2z"/>
			<path id="Vector_110" class="st4" d="M828.2,71v24.5h-2.7v-3.1c-1,2.2-2.6,3.6-5.4,3.6c-4.2,0-7-3.5-7-8.9c0-5.3,2.9-8.8,7.4-8.8
				c2.3,0,3.9,1.2,4.8,2.9V71H828.2z M820.8,80.7c-2.9,0-4.6,2.3-4.6,6.3c0,3.9,1.7,6.4,4.5,6.4c2.9,0,4.7-2.3,4.7-6v-0.8
				C825.4,83,823.7,80.7,820.8,80.7z"/>
			<path id="Vector_111" class="st4" d="M844.9,95.5h-4.5v-4.3h4.5V95.5z M840.9,71.5h3.4l-0.5,17.7h-2.3L840.9,71.5z"/>
		</g>
		<g id="Group_7">
			<path id="Vector_112" class="st4" d="M1126.2,30.9v21.3h11.5v2.7H1123v-24L1126.2,30.9L1126.2,30.9z"/>
			<path id="Vector_113" class="st4" d="M1157.6,47.2h-11.9c0,3.2,1.8,5.6,5,5.6c2.2,0,3.6-1.4,4.5-3l2.4,1.3
				c-1.4,2.8-3.7,4.3-6.9,4.3c-5.3,0-7.9-3.6-7.9-9.2c0-5.2,3-8.5,7.7-8.5c5.2,0,7.2,3.7,7.2,8.3
				C1157.7,46.3,1157.7,46.8,1157.6,47.2z M1150.4,39.8c-3.1,0-4.7,2.5-4.7,5h9C1154.8,42.1,1153.4,39.8,1150.4,39.8z"/>
			<path id="Vector_114" class="st4" d="M1164.1,38h4.8v-4.4l2.9-1.2V38h6.6v2.3h-6.6v8.8c0,2.3,1.1,3.4,3.2,3.4
				c1.1,0,2.3-0.1,3.4-0.3v2.6c-0.9,0.2-1.8,0.4-3.3,0.4c-4.2,0-6.2-2.4-6.2-5.7v-9.2h-4.8L1164.1,38L1164.1,38z"/>
			<path id="Vector_115" class="st4" d="M1211,37.6c1.7,0,2.9,1.1,3.5,3.1c0.8-2,2.3-3.1,4-3.1c2.1,0,4,1.5,4,5v12.3h-2.9v-12
				c0-2.2-1-2.7-2-2.7c-2,0-2.7,1.5-2.7,3.6v11.2h-2.8v-12c0-2.1-0.9-2.7-2-2.7c-2,0-2.6,1.6-2.6,3.6v11.2h-2.9V38h2.7v2.6
				C1207.9,38.8,1209.3,37.6,1211,37.6z"/>
			<path id="Vector_116" class="st4" d="M1241.5,47.2h-11.9c0,3.2,1.8,5.6,5,5.6c2.2,0,3.6-1.4,4.5-3l2.4,1.3
				c-1.4,2.8-3.7,4.3-6.9,4.3c-5.3,0-7.9-3.6-7.9-9.2c0-5.2,3-8.5,7.7-8.5c5.2,0,7.2,3.7,7.2,8.3
				C1241.6,46.3,1241.6,46.8,1241.5,47.2z M1234.3,39.8c-3.1,0-4.6,2.5-4.6,5h9C1238.7,42.1,1237.3,39.8,1234.3,39.8z"/>
			<path id="Vector_117" class="st4" d="M1269.6,49.7l2.9-0.5c0.4,2.5,2,3.7,4.5,3.7c2.3,0,3.5-0.9,3.5-2.5c0-1.7-0.9-2.4-2.7-2.6
				l-2.8-0.3c-3.3-0.4-4.9-2.3-4.9-4.9c0-3.1,2.4-5,6.4-5c3.9,0,6.5,2,6.8,5.1l-2.8,0.6c-0.4-2-1.8-3.5-4.1-3.5
				c-2.2,0-3.6,0.9-3.6,2.5c0,1.5,1,2.3,3.1,2.6l2.7,0.3c3.4,0.4,4.7,2.1,4.7,4.8c0,3.2-2.4,5.2-6.5,5.2
				C1272.8,55.3,1270.2,53.3,1269.6,49.7z"/>
			<path id="Vector_118" class="st4" d="M1298.6,37.6c1.4,0,3,0.4,4.2,1.5c1.1,1,1.7,2.6,1.7,5.4v10.5h-2.9V44.6
				c0-3.7-1.9-4.5-3.7-4.5c-3.7,0-4.6,3.6-4.6,6v8.8h-2.9V30.4h2.9v10.7C1294.1,39.1,1296.2,37.6,1298.6,37.6z"/>
			<path id="Vector_119" class="st4" d="M1310.5,46.5c0-5.4,3.2-8.9,7.9-8.9s7.9,3.5,7.9,8.9s-3.1,8.9-7.9,8.9
				S1310.5,51.8,1310.5,46.5z M1323.3,46.5c0-4-1.8-6.4-4.8-6.4c-3.1,0-4.8,2.4-4.8,6.4c0,4,1.8,6.4,4.8,6.4
				C1321.5,52.8,1323.3,50.5,1323.3,46.5z"/>
			<path id="Vector_120" class="st4" d="M1332.9,38l1.7,11.6l0.3,2.4h0.2c0.1-0.8,0.2-1.3,0.5-2.8l2.2-11.2h2.9l2.2,11.2
				c0.3,1.5,0.4,2.1,0.5,2.8h0.2l0.3-2.4l1.7-11.6h3l-3.3,16.9h-3.6l-2.2-10.9c-0.1-0.7-0.3-2.1-0.3-2.8h-0.2c0,0.7-0.2,2.1-0.3,2.8
				l-2.2,10.9h-3.6l-3.3-16.9H1332.9z"/>
			<path id="Vector_121" class="st4" d="M1381.6,51.6l4.7-13.6h3.1l-6.8,18c-1.6,4.3-3.6,5.7-6.4,5.7c-0.5,0-1,0-1.5-0.1V59
				c0.4,0,0.8,0.1,1.2,0.1c2.1,0,3.1-0.9,3.9-3.1l0.4-1.2l-6.6-16.7h3.2L1381.6,51.6z"/>
			<path id="Vector_122" class="st4" d="M1394.4,46.5c0-5.4,3.1-8.9,7.9-8.9c4.8,0,7.9,3.5,7.9,8.9s-3.1,8.9-7.9,8.9
				C1397.6,55.3,1394.4,51.8,1394.4,46.5z M1407.2,46.5c0-4-1.8-6.4-4.8-6.4c-3,0-4.8,2.4-4.8,6.4c0,4,1.8,6.4,4.8,6.4
				C1405.4,52.8,1407.2,50.5,1407.2,46.5z"/>
			<path id="Vector_123" class="st4" d="M1422.1,55.3c-1.6,0-3.1-0.4-4.3-1.5c-1.1-1-1.6-2.6-1.6-5.4V38h2.9v10.4
				c0,3.7,1.8,4.5,3.5,4.5c3.6,0,4.4-3.6,4.4-6V38h2.9v16.9h-2.7v-3.2C1426.6,53.4,1424.6,55.3,1422.1,55.3z"/>
		</g>
		<g id="Group_8">
			<path id="Vector_124" class="st4" d="M1136.6,95.5h-3c-0.1-0.9-0.2-2.1-0.3-3.1c-1.1,2.4-2.9,3.5-5.7,3.5c-3.3,0-5.7-2.1-5.7-5
				c0-1.8,0.8-3.1,2.4-4c1.1-0.6,2.9-1,5.7-1.4l3.1-0.4v-0.3c0-3-1.1-4.3-3.6-4.3c-2.4,0-3.8,1.2-4,3.4h-3.1
				c0.3-3.6,2.9-5.7,7.2-5.7c4.4,0,6.3,2.2,6.3,7v4.6C1136,92.5,1136.2,94.3,1136.6,95.5z M1129.1,87.8c-2.9,0.4-4.2,1.2-4.2,2.9
				c0,1.7,1.2,2.8,3.2,2.8c3.1,0,5-2.1,5-5.4v-0.8L1129.1,87.8z"/>
			<path id="Vector_125" class="st4" d="M1155.1,78.3c1.2,0,2.3,0.1,3,0.3v2.7c-0.7-0.2-1.9-0.3-3.1-0.3c-4.1,0-7.3,2.8-7.3,8.3v6.3
				h-2.9V78.6h2.8V83C1148.8,80.3,1151.6,78.3,1155.1,78.3z"/>
			<path id="Vector_126" class="st4" d="M1163.7,87.1c0-5.4,3.1-8.9,7.9-8.9c4.7,0,7.9,3.5,7.9,8.9s-3.1,8.9-7.9,8.9
				C1166.8,95.9,1163.7,92.4,1163.7,87.1z M1176.4,87.1c0-4-1.8-6.4-4.8-6.4c-3.1,0-4.8,2.4-4.8,6.4s1.8,6.4,4.8,6.4
				C1174.6,93.4,1176.4,91,1176.4,87.1z"/>
			<path id="Vector_127" class="st4" d="M1191.4,95.9c-1.6,0-3.2-0.4-4.3-1.5c-1.1-1-1.6-2.6-1.6-5.4V78.6h2.9V89
				c0,3.7,1.8,4.5,3.5,4.5c3.6,0,4.4-3.6,4.4-6v-8.8h2.9v16.9h-2.7v-3.2C1195.9,94,1193.9,95.9,1191.4,95.9z"/>
			<path id="Vector_128" class="st4" d="M1214.8,78.2c1.4,0,2.9,0.4,4.1,1.5c1.1,1,1.6,2.7,1.6,5.4v10.5h-2.9V85.2
				c0-3.7-1.8-4.5-3.5-4.5c-3.8,0-4.7,3.6-4.7,6v8.8h-2.9V78.6h2.7v3.4C1210.1,79.8,1212,78.2,1214.8,78.2z"/>
			<path id="Vector_129" class="st4" d="M1241,71v24.5h-2.7v-3.1c-1,2.2-2.6,3.6-5.4,3.6c-4.2,0-7-3.5-7-8.9c0-5.3,3-8.8,7.4-8.8
				c2.3,0,3.9,1.2,4.8,2.9V71H1241z M1233.7,80.7c-2.9,0-4.6,2.3-4.6,6.3c0,3.9,1.7,6.4,4.5,6.4c2.9,0,4.7-2.3,4.7-6v-0.8
				C1238.2,83,1236.5,80.7,1233.7,80.7z"/>
			<path id="Vector_130" class="st4" d="M1276.7,92.2l4.7-13.6h3.1l-6.8,18c-1.6,4.3-3.6,5.7-6.4,5.7c-0.5,0-1,0-1.6-0.1v-2.5
				c0.4,0,0.8,0.1,1.2,0.1c2.1,0,3.1-0.9,3.9-3.1l0.4-1.2l-6.6-16.7h3.3L1276.7,92.2z"/>
			<path id="Vector_131" class="st4" d="M1289.5,87.1c0-5.4,3.1-8.9,7.9-8.9c4.7,0,7.9,3.5,7.9,8.9s-3.1,8.9-7.9,8.9
				C1292.7,95.9,1289.5,92.4,1289.5,87.1z M1302.3,87.1c0-4-1.8-6.4-4.8-6.4c-3,0-4.8,2.4-4.8,6.4s1.8,6.4,4.8,6.4
				C1300.5,93.4,1302.3,91,1302.3,87.1z"/>
			<path id="Vector_132" class="st4" d="M1317.2,95.9c-1.6,0-3.1-0.4-4.3-1.5c-1.1-1-1.6-2.6-1.6-5.4V78.6h2.9V89
				c0,3.7,1.8,4.5,3.5,4.5c3.5,0,4.4-3.6,4.4-6v-8.8h2.9v16.9h-2.7v-3.2C1321.7,94,1319.7,95.9,1317.2,95.9z"/>
			<path id="Vector_133" class="st4" d="M1343.9,78.3c1.2,0,2.3,0.1,3,0.3v2.7c-0.7-0.2-1.9-0.3-3.2-0.3c-4.1,0-7.3,2.8-7.3,8.3v6.3
				h-2.9V78.6h2.8V83C1337.6,80.3,1340.4,78.3,1343.9,78.3z"/>
			<path id="Vector_134" class="st4" d="M1382.6,78.2c1.4,0,2.9,0.4,4.1,1.5c1.1,1,1.6,2.7,1.6,5.4v10.5h-2.9V85.2
				c0-3.7-1.8-4.5-3.5-4.5c-3.8,0-4.7,3.6-4.7,6v8.8h-2.9V78.6h2.7v3.4C1377.9,79.8,1379.8,78.2,1382.6,78.2z"/>
			<path id="Vector_135" class="st4" d="M1409.4,87.8h-11.9c0,3.2,1.8,5.6,5,5.6c2.2,0,3.6-1.4,4.5-3l2.4,1.3
				c-1.4,2.8-3.7,4.3-6.9,4.3c-5.3,0-7.9-3.6-7.9-9.2c0-5.2,3-8.5,7.7-8.5c5.2,0,7.2,3.7,7.2,8.3
				C1409.4,86.9,1409.4,87.4,1409.4,87.8z M1402.1,80.4c-3.1,0-4.7,2.5-4.7,5h9C1406.5,82.7,1405.2,80.4,1402.1,80.4z"/>
			<path id="Vector_136" class="st4" d="M1416.8,78.6l1.7,11.6l0.3,2.4h0.2c0.1-0.8,0.2-1.3,0.5-2.8l2.2-11.2h2.9l2.2,11.2
				c0.3,1.5,0.4,2.1,0.5,2.8h0.2l0.3-2.4l1.7-11.6h3l-3.3,16.9h-3.6l-2.2-10.9c-0.1-0.7-0.3-2.1-0.3-2.8h-0.2c0,0.7-0.2,2.1-0.3,2.8
				l-2.2,10.9h-3.6l-3.3-16.9H1416.8z"/>
		</g>
		<g id="Group_9">
			<path id="Vector_137" class="st4" d="M1130.8,118.8c1.4,0,3,0.4,4.2,1.5c1.1,1,1.7,2.6,1.7,5.4v10.5h-2.9v-10.3
				c0-3.7-1.8-4.5-3.7-4.5c-3.7,0-4.6,3.5-4.6,6v8.8h-2.9v-24.5h2.9v10.7C1126.3,120.2,1128.3,118.8,1130.8,118.8z"/>
			<path id="Vector_138" class="st4" d="M1142.7,127.6c0-5.4,3.1-8.9,7.9-8.9s7.9,3.5,7.9,8.9c0,5.4-3.2,8.9-7.9,8.9
				S1142.7,132.9,1142.7,127.6z M1155.4,127.6c0-4-1.8-6.4-4.8-6.4c-3,0-4.8,2.4-4.8,6.4s1.8,6.4,4.8,6.4
				C1153.6,134,1155.4,131.6,1155.4,127.6z"/>
			<path id="Vector_139" class="st4" d="M1169,118.8c1.7,0,2.9,1.1,3.5,3.1c0.8-2,2.3-3.1,4-3.1c2.1,0,4,1.5,4,5v12.3h-2.9v-12
				c0-2.2-1-2.7-2-2.7c-2,0-2.7,1.5-2.7,3.6v11.2h-2.8v-12c0-2.1-0.9-2.7-2-2.7c-2,0-2.6,1.6-2.6,3.6v11.2h-2.9v-16.9h2.7v2.6
				C1166,120,1167.3,118.8,1169,118.8z"/>
			<path id="Vector_140" class="st4" d="M1199.6,128.4h-11.9c0,3.2,1.8,5.6,5,5.6c2.2,0,3.6-1.4,4.5-3l2.4,1.3
				c-1.4,2.8-3.7,4.3-6.9,4.3c-5.3,0-7.9-3.6-7.9-9.2c0-5.2,3-8.5,7.7-8.5c5.2,0,7.2,3.7,7.2,8.3
				C1199.7,127.5,1199.6,127.9,1199.6,128.4z M1192.3,121c-3.1,0-4.6,2.5-4.6,5h9C1196.7,123.3,1195.4,121,1192.3,121z"/>
			<path id="Vector_141" class="st4" d="M1215.8,136.1h-4.5v-4.3h4.5V136.1z"/>
		</g>
		<path id="Vector_142" class="st2" d="M436.5,318.5l23.1,36h75.5c24.4,0,46.4,14.8,55.6,37.5l82,202.6c0,0,20.1,41.8,3.4,60.9
			c-7.9,9-17.3,0-17.3,0"/>
		<path id="Vector_143" class="st2" d="M662.7,632.9c0,7.9-0.1,21.5-10.8,26.5"/>
		<path id="Vector_144" class="st2" d="M563.4,446.9l124.1,310l34.4-15c10.8-4.7,23.4,0.4,27.9,11.3c4.3,10.3-0.3,22.2-10.4,27
			l-118.7,56.6l-15.5-39.3"/>
		<path id="Vector_145" class="st2" d="M527.4,601.4l62,155.6l34.4-15c10.8-4.7,23.4,0.4,27.9,11.3c4.3,10.3-0.3,22.2-10.4,27
			l-118.7,56.6L372.8,446.9"/>
		<path id="Vector_146" class="st2" d="M432.8,603c12.3,39,1.9,50.9-2.2,55.4c-4.1,4.4-12.6,6.1-17.9,0"/>
		<path id="Vector_147" class="st2" d="M415.7,628.4c2.3,10.1-1.1,33.8-12.4,36.1c-11.3,2.2-14.7-7.9-14.7-7.9"/>
		<path id="Vector_148" class="st2" d="M392,628.4c2.2,10.1-1.1,33.8-12.4,36.1c0,0-20.3,5.6-13.5-32.7l-79.6-199
			c-14.8-37,12.4-77.2,52.3-77.2h90.9"/>
		<path id="Vector_149" class="st2" d="M413.5,321.3v34.4"/>
		<path id="Vector_150" class="st2" d="M340.2,567.1c7.9-35.6,44.1-44.6,68.2-27.8"/>
		<path id="Vector_151" class="st2" d="M352.6,596.4c7.9-35.6,43-43.4,67-26.6"/>
		<path id="Vector_152" class="st2" d="M645.1,526.7c-11.8-7.6-35.7-3.8-43.5,16.3"/>
		<path id="Vector_153" class="st2" d="M657.5,558.2c-11.8-7.6-35.7-3.8-43.5,16.3"/>
		<path id="Vector_154" class="st2" d="M477.6,719.8c6.9-33.9,53.5-55.4,82.1-37.3"/>
		<path id="Vector_155" class="st2" d="M494.6,762.6c6.9-33.9,53.5-55.4,82.1-37.3"/>
		<path id="Vector_156" class="st2" d="M571.2,710.8c6.9-33.9,53.5-55.4,82.1-37.3"/>
		<path id="Vector_157" class="st2" d="M588.2,753.6c6.9-33.9,53.5-55.4,82.1-37.3"/>
		<path id="Vector_158" class="st2" d="M382.8,246.3H183.3"/>
		<path id="Vector_159" class="st2" d="M790.7,836.8L546,246.3h-90.4"/>
		<path id="Vector_160" class="st2" d="M399.1,836.4L166.4,275.6l16.2-29.7l244.7,590.6"/>
		<path id="Vector_161" class="st2" d="M505.9,601.4h29.3"/>
		<path id="Vector_162" class="st2" d="M505.9,541.6l3.9,9.6"/>
		<path id="Vector_163" class="st2" d="M533.5,448.1l1.7,5.1"/>
		<path id="Vector_164" class="st2" d="M418.5,448.1l1.7,5.1"/>
		<path id="Vector_165" class="st2" d="M270.2,804.3V531.5h-32.7v272.8H189V837h124.1v-32.7H270.2z"/>
		<path id="Vector_166" class="st2" d="M333.4,837v-32.7h-42.9v-230"/>
		<path id="Vector_167" class="st2" d="M237.5,620.6c-19.9-26.5-31.6-59.7-31.6-95.9c0-32.9,10-63.4,27.1-88.7"/>
		<path id="Vector_168" class="st2" d="M333.7,679.9c-15.2-2.8-29.5-7.7-42.7-14.4"/>
	</g>
</g>
<line class="st5" x1="494.5" y1="1311.3" x2="483" y2="1311.3"/>
<line class="st5" x1="494.5" y1="1317" x2="483" y2="1317"/>
<line class="st5" x1="542" y1="1311.3" x2="516.2" y2="1311.3"/>
<line class="st5" x1="542" y1="1317" x2="516.2" y2="1317"/>
<path class="st6" d="M693.9,1574.7v29.9c0,16.8-13.7,30.5-30.5,30.5H175.9c-16.8,0-30.5-13.7-30.5-30.5V1191
	c0-16.8,13.7-30.5,30.5-30.5h487.5c16.8,0,30.5,13.7,30.5,30.5v335.3c1,0,2,0,3,0V1191c0-18.5-15-33.5-33.5-33.5H175.9
	c-18.5,0-33.5,15-33.5,33.5v413.5c0,18.5,15,33.5,33.5,33.5h487.5c18.5,0,33.5-15,33.5-33.5v-29.9
	C695.9,1574.7,694.9,1574.7,693.9,1574.7z"/>
<line class="st5" x1="258.7" y1="1636.6" x2="258.7" y2="1605.2"/>
<line class="st5" x1="430.2" y1="1635.6" x2="430.2" y2="1545.4"/>
<path class="st5" d="M462.7,1484.5H354.6c0,0-8.3-21.7-21.1-26.6c-5-1.9-9.9-1-11.8,3.9c-2.5,6.1,2.1,9.8,2.1,9.8s7.6,6.8,1.9,11.9
	c-4.5,4-13.6,3.5-19.7-11.8c-2-4.9-6.9-4.9-9.9-3.9c-4.8,1.6-7.9,5.9-7.9,12.8c0,10.8,7.9,20.7,14.8,24.7"/>
<path class="st5" d="M288.6,1486.3c-6-2.8-8.9,1.1-8.9,1.1s-4.8,3.9-3.8,12.8c0.8,7.9,8.6,14.8,17.1,18.7"/>
<path class="st5" d="M388,1543.6h66c0,0,64.3,0.7,64.3-58.3s-54.1-64.2-64.2-64.2c-10.1,0-68.2,0-68.2,0l-10.4-46.6"/>
<path class="st5" d="M282.5,1512.5c-3.3-2.4-7.7-1.9-10.2,0.6c-3,3-3,6.9-2,9.9c2,6,4.9,8.9,11.8,13.8c0,0,10.8,6.9,29.6,6.9h17"/>
<g>
	<path class="st5" d="M363.6,1295.3l1.4-0.2c2.9-3.8,4.8-8.5,4.9-12.4c0.2-5-7.1-6.5-8.8-1.7c0,0,0,0.1,0,0.1
		c-1.3,3.6-3,12.1-13.8,16l0.5-0.1c-16.3,5.2-28.1,20.5-28.1,38.5c0,22.3,18.1,40.4,40.4,40.4s40.4-18.1,40.4-40.4
		C400.5,1314.4,384.3,1297.1,363.6,1295.3z"/>
	<path class="st5" d="M373.9,1297.1c2.9-3.8,4.8-9.5,4.9-13.4c0.2-5-7.1-6.5-8.8-1.7"/>
	<path class="st5" d="M381.8,1301.1c2.9-3.8,4.8-9.5,4.9-13.4c0.2-5-6.1-6.5-7.9-1.7"/>
</g>
<circle class="st5" cx="367.5" cy="1332.1" r="1.5"/>
<circle class="st5" cx="384.7" cy="1332.1" r="1.5"/>
<path class="st5" d="M374.4,1339.6h4.5c2.1,0,3.8,1.7,3.8,3.8l0,0c0,2.1-1.7,3.8-3.8,3.8h-4.5"/>
<line class="st5" x1="374.9" y1="1356.3" x2="346.5" y2="1356.3"/>
<path class="st5" d="M363.1,1356.8c0,4.6-3.8,8.4-8.4,8.4s-8.4-3.8-8.4-8.4"/>
<path class="st5" d="M336.6,1347.6c-5.4,0-9.7-4.4-9.7-9.7s4.4-9.7,9.7-9.7"/>
<polyline class="st5" points="288.1,1421.4 336.4,1421.4 346.5,1373.6 "/>
<path class="st5" d="M233.9,1427.3c-18.7,16.8-40.4,42.4-40.4,87.8c0,48.3,39.4,94,94.7,94c49.3,0,99-37.5,99-88.9
	c0-8-4.3-11-8.3-11c-5.9,0-9,4.9-9,10c0,0,1.1,10.8-4.8,19.6"/>
<path class="st5" d="M370.1,1520.1c0-8-4.3-11-8.3-11c-5.9,0-9,4.9-9,10c0,0,1.1,10.8-4.8,19.6"/>
<path class="st5" d="M353.3,1520.1c0-8-4.3-11-8.3-11c-5.9,0-9,4.9-9,10c0,0-1.6,15.7-7.5,24.5"/>
<path class="st5" d="M254.6,1499.3c-3.9,14.8-2,35.5,12.8,49.3c14.8,13.8,35.5,14.8,48.3,4.9l-8.1-9.9"/>
<path class="st5" d="M336.6,1394.2h-93.7c-4.9,0-8.8,3.9-8.8,8.8v23.9c0,4.9,3.9,8.8,8.8,8.8h0c4.9,0,8.8-3.9,8.8-8.8v-16.4"/>
<path class="st5" d="M336.6,1394.2"/>
<polyline class="st5" points="386.2,1394.2 481.8,1394.2 492.2,1352.3 "/>
<g>
	<path class="st5" d="M260.8,1435.7c4.9,0,8.8-3.9,8.8-8.8v-16.4"/>
	<path class="st5" d="M252,1412.8v14c0,4.9,3.9,8.8,8.8,8.8"/>
</g>
<g>
	<path class="st5" d="M278.5,1435.7c4.9,0,8.8-3.9,8.8-8.8v-16.4"/>
	<path class="st5" d="M269.7,1412.8v14c0,4.9,3.9,8.8,8.8,8.8"/>
</g>
<line class="st5" x1="309.8" y1="1394.7" x2="309.8" y2="1421.4"/>
<circle class="st5" cx="503.6" cy="1314.4" r="38.9"/>
<path class="st5" d="M514.3,1351.8l11.5,42.6h64c0,0,53.2-3.6,53.2,55.6c0,57.2,0,77.3,0,77.3h69.1v-13.6c0,0-1.1-10.5,7.8-10.5
	c8.9,0,8.9,9.9,8.9,9.9v28.5c0,0,0,14.9-11.8,14.9"/>
<ellipse class="st7" cx="466.6" cy="1311.3" rx="11.9" ry="13.9"/>
<polyline class="st5" points="466.6,1297.3 483,1297.3 483,1325.2 466.6,1325.2 "/>
<ellipse class="st7" cx="499.4" cy="1311.3" rx="11.9" ry="13.9"/>
<polyline class="st5" points="499.4,1297.3 515.8,1297.3 515.8,1325.2 499.4,1325.2 "/>
<path class="st5" d="M512.1,1339.8c8.4,0,15.2-6.8,15.2-15.2"/>
<line class="st5" x1="589.9" y1="1394.7" x2="589.9" y2="1637.3"/>
<polyline class="st5" points="457.7,1543.6 457.7,1585.9 430.2,1585.9 "/>
<polyline class="st5" points="430.2,1602.6 457.7,1602.6 457.7,1636.3 "/>
<polyline class="st5" points="575.4,1394.4 575.4,1449 508.7,1449 "/>
<line class="st5" x1="476.4" y1="1394.4" x2="476.4" y2="1425.1"/>
<line class="st5" x1="462.7" y1="1394.2" x2="462.7" y2="1421.7"/>
<path class="st5" d="M728.9,1528.3h24.9c4.2,0,7.7,3.4,7.7,7.7l0,0c0,4.2-3.4,7.7-7.7,7.7h-14.2"/>
<path class="st5" d="M739.7,1544h20c4.2,0,7.7,3.4,7.7,7.7l0,0c0,4.2-3.4,7.7-7.7,7.7h-20"/>
<path class="st5" d="M739.7,1559.8h14.1c4.2,0,7.7,3.4,7.7,7.7l0,0c0,4.2-3.4,7.7-7.7,7.7H589.9"/>
<line class="st5" x1="682.5" y1="1527.8" x2="682.5" y2="1575.2"/>
<line class="st5" x1="738.8" y1="1538.7" x2="738.8" y2="1566.3"/>
<path class="st5" d="M535.4,1394.4c-4.6,11.7-16,20.1-29.4,20.1c-13.4,0-24.8-8.4-29.4-20.1"/>
<path class="st8" d="M372.6,1256.1H53.5c-18.7,0-33.9-15.2-33.9-33.9v-151.4c0-18.7,15.2-33.9,33.9-33.9h319.1
	c18.7,0,33.9,15.2,33.9,33.9v151.4C406.5,1240.9,391.3,1256.1,372.6,1256.1z"/>
<g>
	<path class="st6" d="M49.5,1064.3h3.3l0.8,17.7c0.1,2.6,0.1,3.9,0.1,4.5h0.4c0-0.8,0.2-2.2,0.7-4.7l2.4-11.3h3.1l2.4,11.3
		c0.5,2.5,0.7,3.9,0.7,4.7h0.4c0-0.6,0-1.8,0.1-4.5l0.8-17.7h3.3l-1.9,25h-4.3l-2.3-10.7c-0.5-2.2-0.6-3.6-0.7-5h-0.4
		c-0.1,1.4-0.2,2.8-0.7,5l-2.3,10.7h-4.3L49.5,1064.3z"/>
	<path class="st6" d="M80.8,1071.3c1.4,0,3.1,0.4,4.3,1.5c1.1,1.1,1.7,2.7,1.7,5.6v10.9h-3v-10.7c0-3.8-1.9-4.7-3.8-4.7
		c-3.8,0-4.8,3.7-4.8,6.2v9.2h-3v-25.5h3v11.1C76.1,1072.8,78.3,1071.3,80.8,1071.3z"/>
	<path class="st6" d="M107.6,1089.3h-3.1c-0.1-1-0.2-2.1-0.3-3.2c-1.2,2.5-3.1,3.6-5.9,3.6c-3.5,0-5.9-2.1-5.9-5.2
		c0-1.8,0.8-3.2,2.5-4.2c1.2-0.6,3.1-1.1,6-1.4l3.2-0.4v-0.3c0-3.1-1.2-4.5-3.8-4.5c-2.5,0-4,1.3-4.1,3.5h-3.2
		c0.3-3.8,3.1-5.9,7.5-5.9c4.5,0,6.6,2.3,6.6,7.3v4.7C107,1086.1,107.2,1088,107.6,1089.3z M99.8,1081.3c-3.1,0.4-4.3,1.3-4.3,3.1
		c0,1.8,1.2,2.9,3.3,2.9c3.2,0,5.2-2.2,5.2-5.6v-0.9L99.8,1081.3z"/>
	<path class="st6" d="M113.3,1071.7h5v-4.6l3-1.3v5.9h6.9v2.4h-6.9v9.1c0,2.4,1.1,3.5,3.4,3.5c1.2,0,2.4-0.1,3.5-0.3v2.7
		c-0.9,0.2-1.9,0.5-3.4,0.5c-4.4,0-6.4-2.5-6.4-5.9v-9.5h-5V1071.7z"/>
	<path class="st6" d="M156.1,1086.8h5.6v-12.7h-5.1v-2.5h8.1v15.1h5.9v2.5h-14.6V1086.8z M165,1068.2h-4.2v-4.2h4.2V1068.2z"/>
	<path class="st6" d="M176.2,1083.9l3-0.5c0.5,2.6,2.1,3.9,4.7,3.9c2.4,0,3.7-1,3.7-2.6c0-1.8-0.9-2.5-2.8-2.7l-2.8-0.3
		c-3.5-0.4-5.1-2.4-5.1-5.1c0-3.2,2.5-5.2,6.7-5.2c4,0,6.7,2.1,7.1,5.3l-3,0.7c-0.4-2.1-1.8-3.6-4.2-3.6c-2.3,0-3.7,1-3.7,2.6
		c0,1.5,1,2.4,3.2,2.7l2.8,0.3c3.5,0.4,4.9,2.2,4.9,5c0,3.3-2.5,5.4-6.8,5.4C179.6,1089.7,176.8,1087.6,176.2,1083.9z"/>
	<path class="st6" d="M217.1,1071.7h5v-4.6l3-1.3v5.9h6.9v2.4h-6.9v9.1c0,2.4,1.1,3.5,3.4,3.5c1.2,0,2.4-0.1,3.5-0.3v2.7
		c-0.9,0.2-1.9,0.5-3.4,0.5c-4.4,0-6.4-2.5-6.4-5.9v-9.5h-5V1071.7z"/>
	<path class="st6" d="M246.8,1071.3c1.4,0,3.1,0.4,4.3,1.5c1.1,1.1,1.7,2.7,1.7,5.6v10.9h-3v-10.7c0-3.8-1.9-4.7-3.8-4.7
		c-3.8,0-4.8,3.7-4.8,6.2v9.2h-3v-25.5h3v11.1C242.1,1072.8,244.3,1071.3,246.8,1071.3z"/>
	<path class="st6" d="M259.9,1086.8h5.6v-12.7h-5.1v-2.5h8.1v15.1h5.9v2.5h-14.6V1086.8z M268.8,1068.2h-4.2v-4.2h4.2V1068.2z"/>
	<path class="st6" d="M280,1083.9l3-0.5c0.5,2.6,2.1,3.9,4.7,3.9c2.4,0,3.7-1,3.7-2.6c0-1.8-0.9-2.5-2.8-2.7l-2.8-0.3
		c-3.5-0.4-5.1-2.4-5.1-5.1c0-3.2,2.5-5.2,6.7-5.2c4,0,6.7,2.1,7.1,5.3l-3,0.7c-0.4-2.1-1.8-3.6-4.2-3.6c-2.3,0-3.7,1-3.7,2.6
		c0,1.5,1,2.4,3.2,2.7l2.8,0.3c3.5,0.4,4.9,2.2,4.9,5c0,3.3-2.5,5.4-6.8,5.4C283.4,1089.7,280.6,1087.6,280,1083.9z"/>
	<path class="st6" d="M300.1,1070.8c0-4.3,2.9-7.1,7.9-7.1c4.7,0,7.7,2.4,7.7,6.6c0,2.5-1.7,4.5-3.3,6.1l-1.8,1.8
		c-1,1-1.4,2.2-1.4,3.9v0.6h-3v-1.5c0-1.2,0.2-2.5,2-4.4l1.7-1.8c1.2-1.2,2.4-2.5,2.4-4.8c0-2.4-1.9-3.9-4.4-3.9
		c-2.8,0-4.7,1.5-4.7,4.8c0,0.6,0.1,1.4,0.2,1.9l-3.2-0.4C300.1,1072.2,300.1,1071.2,300.1,1070.8z M310.2,1089.3h-4.7v-4.5h4.7
		V1089.3z"/>
	<path class="st6" d="M49.5,1106.5h3.3l0.8,17.7c0.1,2.6,0.1,3.9,0.1,4.5h0.4c0-0.8,0.2-2.2,0.7-4.7l2.4-11.3h3.1l2.4,11.3
		c0.5,2.5,0.7,3.9,0.7,4.7h0.4c0-0.6,0-1.8,0.1-4.5l0.8-17.7h3.3l-1.9,25h-4.3l-2.3-10.7c-0.5-2.2-0.6-3.6-0.7-5h-0.4
		c-0.1,1.4-0.2,2.8-0.7,5l-2.3,10.7h-4.3L49.5,1106.5z"/>
	<path class="st6" d="M80.8,1113.5c1.4,0,3.1,0.4,4.3,1.5c1.1,1.1,1.7,2.7,1.7,5.6v10.9h-3v-10.7c0-3.8-1.9-4.7-3.8-4.7
		c-3.8,0-4.8,3.7-4.8,6.2v9.2h-3V1106h3v11.1C76.1,1115,78.3,1113.5,80.8,1113.5z"/>
	<path class="st6" d="M107.7,1123.5H95.3c0,3.3,1.9,5.8,5.2,5.8c2.3,0,3.8-1.4,4.6-3.1l2.5,1.3c-1.5,2.9-3.9,4.4-7.2,4.4
		c-5.5,0-8.2-3.8-8.2-9.6c0-5.4,3.1-8.9,8-8.9c5.4,0,7.5,3.9,7.5,8.7C107.7,1122.6,107.7,1123,107.7,1123.5z M100.1,1115.8
		c-3.2,0-4.8,2.6-4.8,5.2h9.3C104.7,1118.2,103.3,1115.8,100.1,1115.8z"/>
	<path class="st6" d="M125.8,1113.6c1.3,0,2.4,0.1,3.2,0.4v2.8c-0.7-0.2-2-0.4-3.3-0.4c-4.2,0-7.6,2.9-7.6,8.6v6.5h-3v-17.6h3v4.6
		C119.3,1115.7,122.2,1113.6,125.8,1113.6z"/>
	<path class="st6" d="M149.2,1123.5h-12.3c0,3.3,1.9,5.8,5.2,5.8c2.3,0,3.8-1.4,4.6-3.1l2.5,1.3c-1.5,2.9-3.9,4.4-7.2,4.4
		c-5.5,0-8.2-3.8-8.2-9.6c0-5.4,3.1-8.9,8-8.9c5.4,0,7.5,3.9,7.5,8.7C149.2,1122.6,149.2,1123,149.2,1123.5z M141.6,1115.8
		c-3.2,0-4.8,2.6-4.8,5.2h9.3C146.2,1118.2,144.8,1115.8,141.6,1115.8z"/>
	<path class="st6" d="M190.6,1131.5h-3.1c-0.1-1-0.2-2.1-0.3-3.2c-1.2,2.5-3.1,3.6-5.9,3.6c-3.5,0-5.9-2.1-5.9-5.2
		c0-1.8,0.8-3.2,2.5-4.2c1.2-0.6,3.1-1.1,6-1.4l3.2-0.4v-0.3c0-3.1-1.2-4.5-3.8-4.5c-2.5,0-4,1.3-4.1,3.5h-3.2
		c0.3-3.8,3.1-5.9,7.5-5.9c4.5,0,6.6,2.3,6.6,7.3v4.7C190,1128.4,190.2,1130.2,190.6,1131.5z M182.8,1123.5
		c-3.1,0.4-4.3,1.3-4.3,3.1c0,1.8,1.2,2.9,3.3,2.9c3.2,0,5.2-2.2,5.2-5.6v-0.9L182.8,1123.5z"/>
	<path class="st6" d="M201.4,1113.5c1.7,0,3.1,1.2,3.7,3.2c0.8-2,2.4-3.2,4.1-3.2c2.2,0,4.2,1.5,4.2,5.2v12.8h-3V1119
		c0-2.3-1.1-2.8-2.1-2.8c-2.1,0-2.8,1.5-2.8,3.7v11.6h-2.9V1119c0-2.1-0.9-2.8-2.1-2.8c-2,0-2.7,1.6-2.7,3.7v11.6h-3v-17.6h2.8v2.7
		C198.3,1114.7,199.7,1113.5,201.4,1113.5z"/>
	<path class="st6" d="M247.2,1109.2v19.7h6.3v2.6h-15.8v-2.6h6.2v-19.7h-6.2v-2.6h15.8v2.6H247.2z"/>
	<path class="st6" d="M258.6,1113c0-4.3,2.9-7.1,7.9-7.1c4.7,0,7.7,2.4,7.7,6.6c0,2.5-1.7,4.5-3.3,6.1l-1.8,1.8
		c-1,1-1.4,2.2-1.4,3.9v0.6h-3v-1.5c0-1.2,0.2-2.5,2-4.4l1.7-1.8c1.2-1.2,2.4-2.5,2.4-4.8c0-2.4-1.9-3.9-4.4-3.9
		c-2.8,0-4.7,1.5-4.7,4.8c0,0.6,0.1,1.4,0.2,1.9l-3.2-0.4C258.6,1114.4,258.6,1113.4,258.6,1113z M268.7,1131.5H264v-4.5h4.7V1131.5
		z"/>
	<path class="st6" d="M298.6,1106.5h3.3l0.8,17.7c0.1,2.6,0.1,3.9,0.1,4.5h0.4c0-0.8,0.2-2.2,0.7-4.7l2.4-11.3h3.1l2.4,11.3
		c0.5,2.5,0.7,3.9,0.7,4.7h0.4c0-0.6,0-1.8,0.1-4.5l0.8-17.7h3.3l-1.9,25H311l-2.3-10.7c-0.5-2.2-0.6-3.6-0.7-5h-0.4
		c-0.1,1.4-0.2,2.8-0.7,5l-2.3,10.7h-4.3L298.6,1106.5z"/>
	<path class="st6" d="M329.9,1113.5c1.4,0,3.1,0.4,4.3,1.5c1.1,1.1,1.7,2.7,1.7,5.6v10.9h-3v-10.7c0-3.8-1.9-4.7-3.8-4.7
		c-3.8,0-4.8,3.7-4.8,6.2v9.2h-3V1106h3v11.1C325.2,1115,327.3,1113.5,329.9,1113.5z"/>
	<path class="st6" d="M349.7,1128l4.9-14.1h3.2l-7,18.7c-1.6,4.5-3.7,5.9-6.7,5.9c-0.5,0-1.1,0-1.6-0.1v-2.6c0.5,0,0.9,0.1,1.3,0.1
		c2.1,0,3.2-0.9,4-3.3l0.5-1.3l-6.9-17.4h3.4L349.7,1128z"/>
	<path class="st6" d="M66.1,1173.7h-3.1c-0.1-1-0.2-2.1-0.3-3.2c-1.2,2.5-3.1,3.6-5.9,3.6c-3.5,0-5.9-2.1-5.9-5.2
		c0-1.8,0.8-3.2,2.5-4.2c1.2-0.6,3.1-1.1,6-1.4l3.2-0.4v-0.3c0-3.1-1.2-4.5-3.8-4.5c-2.5,0-4,1.3-4.1,3.5h-3.2
		c0.3-3.8,3.1-5.9,7.5-5.9c4.5,0,6.6,2.3,6.6,7.3v4.7C65.5,1170.6,65.7,1172.4,66.1,1173.7z M58.3,1165.7c-3.1,0.4-4.3,1.3-4.3,3.1
		c0,1.8,1.2,2.9,3.3,2.9c3.2,0,5.2-2.2,5.2-5.6v-0.9L58.3,1165.7z"/>
	<path class="st6" d="M76.9,1155.7c1.7,0,3.1,1.2,3.7,3.2c0.8-2,2.4-3.2,4.1-3.2c2.2,0,4.2,1.5,4.2,5.2v12.8h-3v-12.5
		c0-2.3-1.1-2.8-2.1-2.8c-2.1,0-2.8,1.5-2.8,3.7v11.6h-2.9v-12.5c0-2.1-0.9-2.8-2.1-2.8c-2,0-2.7,1.6-2.7,3.7v11.6h-3v-17.6h2.8v2.7
		C73.8,1156.9,75.2,1155.7,76.9,1155.7z"/>
	<path class="st6" d="M122.7,1151.4v19.7h6.3v2.6h-15.8v-2.6h6.2v-19.7h-6.2v-2.6H129v2.6H122.7z"/>
	<path class="st6" d="M163.8,1155.7c1.4,0,3.1,0.4,4.3,1.5c1.1,1.1,1.7,2.7,1.7,5.6v10.9h-3V1163c0-3.8-1.9-4.7-3.8-4.7
		c-3.8,0-4.8,3.7-4.8,6.2v9.2h-3v-25.5h3v11.1C159.1,1157.2,161.3,1155.7,163.8,1155.7z"/>
	<path class="st6" d="M190.7,1165.7h-12.3c0,3.3,1.9,5.8,5.2,5.8c2.3,0,3.8-1.4,4.6-3.1l2.5,1.3c-1.5,2.9-3.9,4.4-7.2,4.4
		c-5.5,0-8.2-3.8-8.2-9.6c0-5.4,3.1-8.9,8-8.9c5.4,0,7.5,3.9,7.5,8.7C190.7,1164.8,190.7,1165.2,190.7,1165.7z M183.1,1158
		c-3.2,0-4.8,2.6-4.8,5.2h9.3C187.7,1160.4,186.3,1158,183.1,1158z"/>
	<path class="st6" d="M208.8,1155.8c1.3,0,2.4,0.1,3.2,0.4v2.8c-0.7-0.2-2-0.4-3.3-0.4c-4.2,0-7.6,2.9-7.6,8.6v6.5h-3v-17.6h3v4.6
		C202.3,1157.9,205.2,1155.8,208.8,1155.8z"/>
	<path class="st6" d="M232.2,1165.7h-12.3c0,3.3,1.9,5.8,5.2,5.8c2.3,0,3.8-1.4,4.6-3.1l2.5,1.3c-1.5,2.9-3.9,4.4-7.2,4.4
		c-5.5,0-8.2-3.8-8.2-9.6c0-5.4,3.1-8.9,8-8.9c5.4,0,7.5,3.9,7.5,8.7C232.2,1164.8,232.2,1165.2,232.2,1165.7z M224.7,1158
		c-3.2,0-4.8,2.6-4.8,5.2h9.3C229.2,1160.4,227.8,1158,224.7,1158z"/>
	<path class="st6" d="M237.8,1155.2c0-4.3,2.9-7.1,7.9-7.1c4.7,0,7.7,2.4,7.7,6.6c0,2.5-1.7,4.5-3.3,6.1l-1.8,1.8
		c-1,1-1.4,2.2-1.4,3.9v0.6h-3v-1.5c0-1.2,0.2-2.5,2-4.4l1.7-1.8c1.2-1.2,2.4-2.5,2.4-4.8c0-2.4-1.9-3.9-4.4-3.9
		c-2.8,0-4.7,1.5-4.7,4.8c0,0.6,0.1,1.4,0.2,1.9l-3.2-0.4C237.9,1156.6,237.8,1155.7,237.8,1155.2z M247.9,1173.7h-4.7v-4.5h4.7
		V1173.7z"/>
	<path class="st6" d="M277.8,1148.7h3.3l0.8,17.7c0.1,2.6,0.1,3.9,0.1,4.5h0.4c0-0.8,0.2-2.2,0.7-4.7l2.4-11.3h3.1l2.4,11.3
		c0.5,2.5,0.7,3.9,0.7,4.7h0.4c0-0.6,0-1.8,0.1-4.5l0.8-17.7h3.3l-1.9,25h-4.3L288,1163c-0.5-2.2-0.6-3.6-0.7-5H287
		c-0.1,1.4-0.2,2.8-0.7,5l-2.3,10.7h-4.3L277.8,1148.7z"/>
	<path class="st6" d="M309.1,1155.7c1.4,0,3.1,0.4,4.3,1.5c1.1,1.1,1.7,2.7,1.7,5.6v10.9h-3V1163c0-3.8-1.9-4.7-3.8-4.7
		c-3.8,0-4.8,3.7-4.8,6.2v9.2h-3v-25.5h3v11.1C304.4,1157.2,306.6,1155.7,309.1,1155.7z"/>
	<path class="st6" d="M320.4,1164.9c0-5.6,3.3-9.2,8.2-9.2c4.9,0,8.2,3.6,8.2,9.2c0,5.6-3.3,9.2-8.2,9.2
		C323.7,1174.1,320.4,1170.4,320.4,1164.9z M333.7,1164.9c0-4.1-1.9-6.6-5-6.6s-5,2.5-5,6.6s1.9,6.6,5,6.6
		S333.7,1169.1,333.7,1164.9z"/>
	<path class="st6" d="M66.1,1215.9h-3.1c-0.1-1-0.2-2.1-0.3-3.2c-1.2,2.5-3.1,3.6-5.9,3.6c-3.5,0-5.9-2.1-5.9-5.2
		c0-1.8,0.8-3.2,2.5-4.2c1.2-0.6,3.1-1.1,6-1.4l3.2-0.4v-0.3c0-3.1-1.2-4.5-3.8-4.5c-2.5,0-4,1.3-4.1,3.5h-3.2
		c0.3-3.8,3.1-5.9,7.5-5.9c4.5,0,6.6,2.3,6.6,7.3v4.7C65.5,1212.8,65.7,1214.6,66.1,1215.9z M58.3,1207.9c-3.1,0.4-4.3,1.3-4.3,3.1
		c0,1.8,1.2,2.9,3.3,2.9c3.2,0,5.2-2.2,5.2-5.6v-0.9L58.3,1207.9z"/>
	<path class="st6" d="M76.9,1197.9c1.7,0,3.1,1.2,3.7,3.2c0.8-2,2.4-3.2,4.1-3.2c2.2,0,4.2,1.5,4.2,5.2v12.8h-3v-12.5
		c0-2.3-1.1-2.8-2.1-2.8c-2.1,0-2.8,1.5-2.8,3.7v11.6h-2.9v-12.5c0-2.1-0.9-2.8-2.1-2.8c-2,0-2.7,1.6-2.7,3.7v11.6h-3v-17.6h2.8v2.7
		C73.8,1199.1,75.2,1197.9,76.9,1197.9z"/>
	<path class="st6" d="M122.7,1193.6v19.7h6.3v2.6h-15.8v-2.6h6.2v-19.7h-6.2v-2.6H129v2.6H122.7z"/>
	<path class="st6" d="M134,1197.4c0-4.3,2.9-7.1,7.9-7.1c4.7,0,7.7,2.4,7.7,6.6c0,2.5-1.7,4.5-3.3,6.1l-1.8,1.8
		c-1,1-1.4,2.2-1.4,3.9v0.6h-3v-1.5c0-1.2,0.2-2.5,2-4.4l1.7-1.8c1.2-1.2,2.4-2.5,2.4-4.8c0-2.4-1.9-3.9-4.4-3.9
		c-2.8,0-4.7,1.5-4.7,4.8c0,0.6,0.1,1.4,0.2,1.9l-3.2-0.4C134.1,1198.8,134,1197.9,134,1197.4z M144.1,1215.9h-4.7v-4.5h4.7V1215.9z
		"/>
</g>
<path class="st8" d="M1411.5,1365.1c22,0,39.8-17.8,39.8-39.8v-203c0-22-17.8-39.8-39.8-39.8h-794c-22,0-39.8,17.8-39.8,39.8v203
	c0,22,17.8,39.8,39.8,39.8h717.7v28.1H848.5c-22,0-39.8,17.8-39.8,39.8v174.9c0,22,17.8,39.8,39.8,38.6h563
	c22,1.2,39.8-16.6,39.8-38.6V1433c0-22-17.8-39.8-39.8-39.8h-48.2v-28.1H1411.5z"/>
<g>
	<path class="st6" d="M621.3,1121.9h-8.7l-2.3,7.2h-3.2l8-25h3.7l8,25h-3.2L621.3,1121.9z M613.5,1119.1h6.9
		c-1.6-5-2.7-9.1-3.4-12.1h-0.1C616.3,1110,615.1,1114.2,613.5,1119.1z"/>
	<path class="st6" d="M631.2,1126.7h5.6v-20.6h-5.3v-2.5h8.3v23h5.9v2.5h-14.6V1126.7z"/>
	<path class="st6" d="M652,1126.7h5.6v-20.6h-5.3v-2.5h8.3v23h5.9v2.5H652V1126.7z"/>
	<path class="st6" d="M693.5,1126.7h5.6V1114H694v-2.5h8.1v15.1h5.9v2.5h-14.6V1126.7z M702.4,1108h-4.2v-4.2h4.2V1108z"/>
	<path class="st6" d="M722.1,1111.1c1.4,0,3.1,0.4,4.3,1.5c1.2,1.1,1.7,2.8,1.7,5.6v10.9h-3v-10.7c0-3.8-1.9-4.7-3.7-4.7
		c-4,0-4.9,3.7-4.9,6.2v9.2h-3v-17.6h2.8v3.5C717.2,1112.8,719.1,1111.1,722.1,1111.1z"/>
	<path class="st6" d="M769,1103.6v25.5h-2.8v-3.3c-1.1,2.3-2.7,3.7-5.6,3.7c-4.4,0-7.2-3.7-7.2-9.2c0-5.5,3.1-9.2,7.7-9.2
		c2.4,0,4.1,1.3,5,3v-10.5H769z M761.4,1113.8c-3,0-4.8,2.4-4.8,6.5c0,4.1,1.8,6.6,4.7,6.6c3,0,4.9-2.4,4.9-6.2v-0.8
		C766.1,1116.2,764.3,1113.8,761.4,1113.8z"/>
	<path class="st6" d="M781.8,1129.6c-1.6,0-3.3-0.4-4.5-1.5c-1.1-1.1-1.6-2.7-1.6-5.6v-10.9h3.1v10.8c0,3.8,1.8,4.7,3.7,4.7
		c3.7,0,4.6-3.7,4.6-6.3v-9.2h3v17.6h-2.8v-3.3C786.4,1127.6,784.4,1129.6,781.8,1129.6z"/>
	<path class="st6" d="M811.1,1121.1h-12.3c0,3.3,1.9,5.8,5.2,5.8c2.3,0,3.8-1.4,4.6-3.1l2.5,1.3c-1.5,2.9-3.9,4.4-7.2,4.4
		c-5.5,0-8.2-3.8-8.2-9.6c0-5.4,3.1-8.9,8-8.9c5.4,0,7.5,3.9,7.5,8.7C811.1,1120.2,811.1,1120.7,811.1,1121.1z M803.5,1113.5
		c-3.2,0-4.8,2.6-4.8,5.2h9.3C808.1,1115.8,806.7,1113.5,803.5,1113.5z"/>
	<path class="st6" d="M837.4,1111.6h5v-4.6l3-1.3v5.9h6.9v2.4h-6.9v9.1c0,2.4,1.1,3.5,3.4,3.5c1.2,0,2.4-0.1,3.5-0.3v2.7
		c-0.9,0.2-1.9,0.5-3.4,0.5c-4.4,0-6.4-2.5-6.4-5.9v-9.5h-5V1111.6z"/>
	<path class="st6" d="M859.5,1126.7h5.6V1114H860v-2.5h8.1v15.1h5.9v2.5h-14.6V1126.7z M868.4,1108h-4.2v-4.2h4.2V1108z"/>
	<path class="st6" d="M884.1,1111.1c1.7,0,3.1,1.2,3.7,3.2c0.8-2,2.4-3.2,4.2-3.2c2.2,0,4.2,1.5,4.2,5.2v12.8h-3v-12.5
		c0-2.3-1.1-2.8-2.1-2.8c-2.1,0-2.8,1.5-2.8,3.7v11.6h-2.9v-12.5c0-2.1-0.9-2.8-2.1-2.8c-2,0-2.7,1.6-2.7,3.7v11.6h-3v-17.6h2.8v2.7
		C881,1112.4,882.3,1111.1,884.1,1111.1z"/>
	<path class="st6" d="M914.8,1121.1h-12.3c0,3.3,1.9,5.8,5.2,5.8c2.3,0,3.8-1.4,4.6-3.1l2.5,1.3c-1.5,2.9-3.9,4.4-7.2,4.4
		c-5.5,0-8.2-3.8-8.2-9.6c0-5.4,3.1-8.9,8-8.9c5.4,0,7.5,3.9,7.5,8.7C914.9,1120.2,914.9,1120.7,914.8,1121.1z M907.3,1113.5
		c-3.2,0-4.8,2.6-4.8,5.2h9.3C911.9,1115.8,910.5,1113.5,907.3,1113.5z"/>
	<path class="st6" d="M926.1,1132.7c2-0.8,2.4-1.7,2.4-3.6h-2.6v-4.5h4.7v4.5c0,2.7-0.8,4.1-3.6,5.2L926.1,1132.7z"/>
	<path class="st6" d="M967.1,1111.1c1.7,0,3.1,1.2,3.7,3.2c0.8-2,2.4-3.2,4.2-3.2c2.2,0,4.2,1.5,4.2,5.2v12.8h-3v-12.5
		c0-2.3-1.1-2.8-2.1-2.8c-2.1,0-2.8,1.5-2.8,3.7v11.6h-2.9v-12.5c0-2.1-0.9-2.8-2.1-2.8c-2,0-2.7,1.6-2.7,3.7v11.6h-3v-17.6h2.8v2.7
		C964,1112.4,965.3,1111.1,967.1,1111.1z"/>
	<path class="st6" d="M990.8,1125.7l4.9-14.1h3.2l-7,18.7c-1.6,4.5-3.7,5.9-6.7,5.9c-0.5,0-1.1,0-1.6-0.1v-2.6
		c0.5,0,0.9,0.1,1.3,0.1c2.1,0,3.2-0.9,4-3.3l0.5-1.3l-6.9-17.4h3.4L990.8,1125.7z"/>
	<path class="st6" d="M1039.4,1114h-6.7v15.2h-3V1114h-5.4v-2.4h5.4v-1.9c0-4,2.3-6.1,6.6-6.1c1,0,1.9,0.1,3.1,0.4v2.6
		c-0.8-0.1-1.7-0.3-3.1-0.3c-2.7,0-3.6,0.9-3.6,3.6v1.7h6.7V1114z"/>
	<path class="st6" d="M1057.5,1111.2c1.3,0,2.4,0.1,3.2,0.4v2.8c-0.7-0.2-2-0.4-3.3-0.4c-4.2,0-7.6,2.9-7.6,8.6v6.5h-3v-17.6h3v4.6
		C1051,1113.4,1053.8,1111.2,1057.5,1111.2z"/>
	<path class="st6" d="M1067,1126.7h5.6V1114h-5.1v-2.5h8.1v15.1h5.9v2.5H1067V1126.7z M1076,1108h-4.2v-4.2h4.2V1108z"/>
	<path class="st6" d="M1101.6,1121.1h-12.3c0,3.3,1.9,5.8,5.2,5.8c2.3,0,3.8-1.4,4.6-3.1l2.5,1.3c-1.5,2.9-3.9,4.4-7.2,4.4
		c-5.5,0-8.2-3.8-8.2-9.6c0-5.4,3.1-8.9,8-8.9c5.4,0,7.5,3.9,7.5,8.7C1101.7,1120.2,1101.6,1120.7,1101.6,1121.1z M1094.1,1113.5
		c-3.2,0-4.8,2.6-4.8,5.2h9.3C1098.7,1115.8,1097.2,1113.5,1094.1,1113.5z"/>
	<path class="st6" d="M1116.4,1111.1c1.4,0,3.1,0.4,4.3,1.5c1.2,1.1,1.7,2.8,1.7,5.6v10.9h-3v-10.7c0-3.8-1.9-4.7-3.7-4.7
		c-4,0-4.9,3.7-4.9,6.2v9.2h-3v-17.6h2.8v3.5C1111.5,1112.8,1113.4,1111.1,1116.4,1111.1z"/>
	<path class="st6" d="M1142.6,1103.6v25.5h-2.8v-3.3c-1.1,2.3-2.7,3.7-5.6,3.7c-4.4,0-7.2-3.7-7.2-9.2c0-5.5,3.1-9.2,7.7-9.2
		c2.4,0,4.1,1.3,5,3v-10.5H1142.6z M1134.9,1113.8c-3,0-4.8,2.4-4.8,6.5c0,4.1,1.8,6.6,4.7,6.6c3,0,4.9-2.4,4.9-6.2v-0.8
		C1139.7,1116.2,1137.8,1113.8,1134.9,1113.8z"/>
	<path class="st6" d="M1158.9,1129.1h-4.7v-4.5h4.7V1129.1z"/>
	<path class="st6" d="M1188.8,1104.2h3.3l0.8,17.7c0.1,2.6,0.1,3.9,0.1,4.5h0.4c0-0.8,0.2-2.2,0.7-4.7l2.4-11.3h3.1l2.4,11.3
		c0.5,2.5,0.7,3.9,0.7,4.7h0.4c0-0.6,0-1.8,0.1-4.5l0.8-17.7h3.3l-1.9,25h-4.3l-2.3-10.7c-0.5-2.2-0.6-3.6-0.7-5h-0.4
		c-0.1,1.4-0.2,2.8-0.7,5l-2.3,10.7h-4.3L1188.8,1104.2z"/>
	<path class="st6" d="M1226.1,1121.1h-12.3c0,3.3,1.9,5.8,5.2,5.8c2.3,0,3.8-1.4,4.6-3.1l2.5,1.3c-1.5,2.9-3.9,4.4-7.2,4.4
		c-5.5,0-8.2-3.8-8.2-9.6c0-5.4,3.1-8.9,8-8.9c5.4,0,7.5,3.9,7.5,8.7C1226.2,1120.2,1226.2,1120.7,1226.1,1121.1z M1218.6,1113.5
		c-3.2,0-4.8,2.6-4.8,5.2h9.3C1223.2,1115.8,1221.8,1113.5,1218.6,1113.5z"/>
	<path class="st6" d="M1261.5,1111.1c1.4,0,3.1,0.4,4.3,1.5c1.1,1.1,1.7,2.7,1.7,5.6v10.9h-3v-10.7c0-3.8-1.9-4.7-3.8-4.7
		c-3.8,0-4.8,3.7-4.8,6.2v9.2h-3v-25.5h3v11.1C1256.8,1112.6,1259,1111.1,1261.5,1111.1z"/>
	<path class="st6" d="M1288.4,1121.1H1276c0,3.3,1.9,5.8,5.2,5.8c2.3,0,3.8-1.4,4.6-3.1l2.5,1.3c-1.5,2.9-3.9,4.4-7.2,4.4
		c-5.5,0-8.2-3.8-8.2-9.6c0-5.4,3.1-8.9,8-8.9c5.4,0,7.5,3.9,7.5,8.7C1288.5,1120.2,1288.4,1120.7,1288.4,1121.1z M1280.9,1113.5
		c-3.2,0-4.8,2.6-4.8,5.2h9.3C1285.4,1115.8,1284,1113.5,1280.9,1113.5z"/>
	<path class="st6" d="M1306.5,1111.2c1.3,0,2.4,0.1,3.2,0.4v2.8c-0.7-0.2-2-0.4-3.3-0.4c-4.2,0-7.6,2.9-7.6,8.6v6.5h-3v-17.6h3v4.6
		C1300,1113.4,1302.9,1111.2,1306.5,1111.2z"/>
	<path class="st6" d="M1329.9,1121.1h-12.3c0,3.3,1.9,5.8,5.2,5.8c2.3,0,3.8-1.4,4.6-3.1l2.5,1.3c-1.5,2.9-3.9,4.4-7.2,4.4
		c-5.5,0-8.2-3.8-8.2-9.6c0-5.4,3.1-8.9,8-8.9c5.4,0,7.5,3.9,7.5,8.7C1330,1120.2,1329.9,1120.7,1329.9,1121.1z M1322.4,1113.5
		c-3.2,0-4.8,2.6-4.8,5.2h9.3C1326.9,1115.8,1325.5,1113.5,1322.4,1113.5z"/>
	<path class="st6" d="M1371.3,1129.1h-3.1c-0.1-1-0.2-2.1-0.3-3.2c-1.2,2.5-3.1,3.6-5.9,3.6c-3.5,0-5.9-2.1-5.9-5.2
		c0-1.8,0.8-3.2,2.5-4.2c1.2-0.6,3.1-1.1,6-1.4l3.2-0.4v-0.3c0-3.1-1.2-4.5-3.8-4.5c-2.5,0-4,1.3-4.1,3.5h-3.2
		c0.3-3.8,3.1-5.9,7.5-5.9c4.5,0,6.6,2.3,6.6,7.3v4.7C1370.7,1126,1370.9,1127.8,1371.3,1129.1z M1363.6,1121.2
		c-3.1,0.4-4.3,1.3-4.3,3.1c0,1.8,1.2,2.9,3.3,2.9c3.2,0,5.2-2.2,5.2-5.6v-0.9L1363.6,1121.2z"/>
	<path class="st6" d="M1389.5,1111.2c1.3,0,2.4,0.1,3.2,0.4v2.8c-0.7-0.2-2-0.4-3.3-0.4c-4.2,0-7.6,2.9-7.6,8.6v6.5h-3v-17.6h3v4.6
		C1383,1113.4,1385.9,1111.2,1389.5,1111.2z"/>
	<path class="st6" d="M1412.9,1121.1h-12.3c0,3.3,1.9,5.8,5.2,5.8c2.3,0,3.8-1.4,4.6-3.1l2.5,1.3c-1.5,2.9-3.9,4.4-7.2,4.4
		c-5.5,0-8.2-3.8-8.2-9.6c0-5.4,3.1-8.9,8-8.9c5.4,0,7.5,3.9,7.5,8.7C1413,1120.2,1412.9,1120.7,1412.9,1121.1z M1405.4,1113.5
		c-3.2,0-4.8,2.6-4.8,5.2h9.3C1410,1115.8,1408.5,1113.5,1405.4,1113.5z"/>
	<path class="st6" d="M608.9,1162.5c0-5.2,2.7-9.1,8.2-9.1c3.9,0,6.7,2.3,7.1,6.3l-3.1,0.4c-0.3-2.6-1.8-4-4.3-4
		c-3.2,0-4.9,2.6-4.9,6.5c0,4,1.7,6.7,5,6.7c2.6,0,3.9-1.5,4.4-4.2l2.8,0.5c-0.6,3.6-2.8,6.4-7.2,6.4
		C611.6,1171.8,608.9,1167.7,608.9,1162.5z"/>
	<path class="st6" d="M645,1171.4h-3.1c-0.1-1-0.2-2.1-0.3-3.2c-1.2,2.5-3.1,3.6-5.9,3.6c-3.5,0-5.9-2.1-5.9-5.2
		c0-1.8,0.8-3.2,2.5-4.2c1.2-0.6,3.1-1.1,6-1.4l3.2-0.4v-0.3c0-3.1-1.2-4.5-3.8-4.5c-2.5,0-4,1.3-4.1,3.5h-3.2
		c0.3-3.8,3.1-5.9,7.5-5.9c4.5,0,6.6,2.3,6.6,7.3v4.7C644.4,1168.2,644.5,1170.1,645,1171.4z M637.2,1163.4
		c-3.1,0.4-4.3,1.3-4.3,3.1c0,1.8,1.2,2.9,3.3,2.9c3.2,0,5.2-2.2,5.2-5.6v-0.9L637.2,1163.4z"/>
	<path class="st6" d="M652,1168.9h5.6v-20.6h-5.3v-2.5h8.3v23h5.9v2.5H652V1168.9z"/>
	<path class="st6" d="M672.7,1168.9h5.6v-20.6h-5.3v-2.5h8.3v23h5.9v2.5h-14.6V1168.9z"/>
	<path class="st6" d="M707.3,1163.3h-12.3c0,3.3,1.9,5.8,5.2,5.8c2.3,0,3.8-1.4,4.6-3.1l2.5,1.3c-1.5,2.9-3.9,4.4-7.2,4.4
		c-5.5,0-8.2-3.8-8.2-9.6c0-5.4,3.1-8.9,8-8.9c5.4,0,7.5,3.9,7.5,8.7C707.4,1162.4,707.3,1162.9,707.3,1163.3z M699.8,1155.7
		c-3.2,0-4.8,2.6-4.8,5.2h9.3C704.3,1158.1,702.9,1155.7,699.8,1155.7z"/>
	<path class="st6" d="M727.5,1145.9v25.5h-2.8v-3.3c-1.1,2.3-2.7,3.7-5.6,3.7c-4.4,0-7.2-3.7-7.2-9.2c0-5.5,3.1-9.2,7.7-9.2
		c2.4,0,4.1,1.3,5,3v-10.5H727.5z M719.8,1156c-3,0-4.8,2.4-4.8,6.5c0,4.1,1.8,6.6,4.7,6.6c3,0,4.9-2.4,4.9-6.2v-0.8
		C724.6,1158.4,722.8,1156,719.8,1156z"/>
	<path class="st6" d="M754.4,1153.8h5v-4.6l3-1.3v5.9h6.9v2.4h-6.9v9.1c0,2.4,1.1,3.5,3.4,3.5c1.2,0,2.4-0.1,3.5-0.3v2.7
		c-0.9,0.2-1.9,0.5-3.4,0.5c-4.4,0-6.4-2.5-6.4-5.9v-9.5h-5V1153.8z"/>
	<path class="st6" d="M784.2,1153.3c1.4,0,3.1,0.4,4.3,1.5c1.1,1.1,1.7,2.7,1.7,5.6v10.9h-3v-10.7c0-3.8-1.9-4.7-3.8-4.7
		c-3.8,0-4.8,3.7-4.8,6.2v9.2h-3v-25.5h3v11.1C779.5,1154.9,781.7,1153.3,784.2,1153.3z"/>
	<path class="st6" d="M811.1,1163.3h-12.3c0,3.3,1.9,5.8,5.2,5.8c2.3,0,3.8-1.4,4.6-3.1l2.5,1.3c-1.5,2.9-3.9,4.4-7.2,4.4
		c-5.5,0-8.2-3.8-8.2-9.6c0-5.4,3.1-8.9,8-8.9c5.4,0,7.5,3.9,7.5,8.7C811.1,1162.4,811.1,1162.9,811.1,1163.3z M803.5,1155.7
		c-3.2,0-4.8,2.6-4.8,5.2h9.3C808.1,1158.1,806.7,1155.7,803.5,1155.7z"/>
	<path class="st6" d="M853.3,1171.4H850V1160h-9.6v11.4h-3.3v-25h3.3v10.8h9.6v-10.8h3.3V1171.4z"/>
	<path class="st6" d="M864.8,1171.8c-1.6,0-3.3-0.4-4.5-1.5c-1.1-1.1-1.6-2.7-1.6-5.6v-10.9h3.1v10.8c0,3.8,1.8,4.7,3.7,4.7
		c3.7,0,4.6-3.7,4.6-6.3v-9.2h3v17.6h-2.8v-3.3C869.4,1169.8,867.4,1171.8,864.8,1171.8z"/>
	<path class="st6" d="M884.1,1153.3c1.7,0,3.1,1.2,3.7,3.2c0.8-2,2.4-3.2,4.2-3.2c2.2,0,4.2,1.5,4.2,5.2v12.8h-3v-12.5
		c0-2.3-1.1-2.8-2.1-2.8c-2.1,0-2.8,1.5-2.8,3.7v11.6h-2.9v-12.5c0-2.1-0.9-2.8-2.1-2.8c-2,0-2.7,1.6-2.7,3.7v11.6h-3v-17.6h2.8v2.7
		C881,1154.6,882.3,1153.3,884.1,1153.3z"/>
	<path class="st6" d="M914.8,1171.4h-3.1c-0.1-1-0.2-2.1-0.3-3.2c-1.2,2.5-3.1,3.6-5.9,3.6c-3.5,0-5.9-2.1-5.9-5.2
		c0-1.8,0.8-3.2,2.5-4.2c1.2-0.6,3.1-1.1,6-1.4l3.2-0.4v-0.3c0-3.1-1.2-4.5-3.8-4.5c-2.5,0-4,1.3-4.1,3.5h-3.2
		c0.3-3.8,3.1-5.9,7.5-5.9c4.5,0,6.6,2.3,6.6,7.3v4.7C914.2,1168.2,914.3,1170.1,914.8,1171.4z M907,1163.4
		c-3.1,0.4-4.3,1.3-4.3,3.1c0,1.8,1.2,2.9,3.3,2.9c3.2,0,5.2-2.2,5.2-5.6v-0.9L907,1163.4z"/>
	<path class="st6" d="M929.6,1153.3c1.4,0,3.1,0.4,4.3,1.5c1.2,1.1,1.7,2.8,1.7,5.6v10.9h-3v-10.7c0-3.8-1.9-4.7-3.7-4.7
		c-4,0-4.9,3.7-4.9,6.2v9.2h-3v-17.6h2.8v3.5C924.7,1155,926.6,1153.3,929.6,1153.3z"/>
	<path class="st6" d="M941.8,1165.9l3-0.5c0.5,2.6,2.1,3.9,4.7,3.9c2.4,0,3.7-1,3.7-2.6c0-1.8-0.9-2.5-2.8-2.7l-2.8-0.3
		c-3.5-0.4-5.1-2.4-5.1-5.1c0-3.2,2.5-5.2,6.7-5.2c4,0,6.7,2.1,7.1,5.3l-3,0.7c-0.4-2.1-1.8-3.6-4.2-3.6c-2.3,0-3.7,0.9-3.7,2.6
		c0,1.5,1,2.4,3.2,2.7l2.8,0.3c3.5,0.4,4.9,2.2,4.9,5c0,3.3-2.5,5.4-6.8,5.4C945.3,1171.8,942.5,1169.7,941.8,1165.9z"/>
	<path class="st6" d="M982.3,1162.6c0-5.6,3.3-9.2,8.2-9.2s8.2,3.6,8.2,9.2c0,5.6-3.3,9.2-8.2,9.2S982.3,1168.1,982.3,1162.6z
		 M995.6,1162.6c0-4.1-1.9-6.6-5-6.6c-3.2,0-5,2.5-5,6.6s1.9,6.6,5,6.6C993.7,1169.2,995.6,1166.7,995.6,1162.6z"/>
	<path class="st6" d="M1018.6,1156.2h-6.7v15.2h-3v-15.2h-5.4v-2.4h5.4v-1.9c0-4,2.3-6.1,6.6-6.1c1,0,1.9,0.1,3.1,0.4v2.6
		c-0.8-0.1-1.7-0.3-3.1-0.3c-2.7,0-3.6,0.9-3.6,3.6v1.7h6.7V1156.2z"/>
	<path class="st6" d="M1061.2,1149.2h-12v8h11.1v2.8h-11.1v11.4h-3.3v-25h15.3V1149.2z"/>
	<path class="st6" d="M1067,1168.9h5.6v-20.6h-5.3v-2.5h8.3v23h5.9v2.5H1067V1168.9z"/>
	<path class="st6" d="M1101.5,1171.4h-3.1c-0.1-1-0.2-2.1-0.3-3.2c-1.2,2.5-3.1,3.6-5.9,3.6c-3.5,0-5.9-2.1-5.9-5.2
		c0-1.8,0.8-3.2,2.5-4.2c1.2-0.6,3.1-1.1,6-1.4l3.2-0.4v-0.3c0-3.1-1.2-4.5-3.8-4.5c-2.5,0-4,1.3-4.1,3.5h-3.2
		c0.3-3.8,3.1-5.9,7.5-5.9c4.5,0,6.6,2.3,6.6,7.3v4.7C1100.9,1168.2,1101.1,1170.1,1101.5,1171.4z M1093.8,1163.4
		c-3.1,0.4-4.3,1.3-4.3,3.1c0,1.8,1.2,2.9,3.3,2.9c3.2,0,5.2-2.2,5.2-5.6v-0.9L1093.8,1163.4z"/>
	<path class="st6" d="M1107.2,1153.8h5v-4.6l3-1.3v5.9h6.9v2.4h-6.9v9.1c0,2.4,1.1,3.5,3.4,3.5c1.2,0,2.4-0.1,3.5-0.3v2.7
		c-0.9,0.2-1.9,0.5-3.4,0.5c-4.4,0-6.4-2.5-6.4-5.9v-9.5h-5V1153.8z"/>
	<path class="st6" d="M1129.2,1153.1c0-3.8,1.9-7.4,5.2-9.5l1,1c-3,2.3-4.3,4.9-4.3,8.5s1.4,6.2,4.3,8.5l-1,1
		C1131.1,1160.5,1129.2,1156.8,1129.2,1153.1z"/>
	<path class="st6" d="M1148.1,1158v1.7h-9.2v-1.7h4v-9.7c-0.5,0.6-1.4,1.1-3.1,1.1h-0.7v-1.7h0.6c2.1,0,3.1-1.1,3.5-2.3h1.5v12.6
		H1148.1z"/>
	<path class="st6" d="M1151.3,1161.5c3-2.3,4.3-4.9,4.3-8.5s-1.4-6.2-4.3-8.5l1-1c3.3,2,5.2,5.7,5.2,9.5s-1.9,7.4-5.2,9.5
		L1151.3,1161.5z"/>
	<path class="st6" d="M1174.4,1171.4h-4.7v-4.5h4.7V1171.4z"/>
	<path class="st6" d="M1204.3,1146.4h3.3l0.8,17.7c0.1,2.6,0.1,3.9,0.1,4.5h0.4c0-0.8,0.2-2.2,0.7-4.7l2.4-11.3h3.1l2.4,11.3
		c0.5,2.5,0.7,3.9,0.7,4.7h0.4c0-0.6,0-1.8,0.1-4.5l0.8-17.7h3.3l-1.9,25h-4.3l-2.3-10.7c-0.5-2.2-0.6-3.6-0.7-5h-0.4
		c-0.1,1.4-0.2,2.8-0.7,5l-2.3,10.7h-4.3L1204.3,1146.4z"/>
	<path class="st6" d="M1241.7,1163.3h-12.3c0,3.3,1.9,5.8,5.2,5.8c2.3,0,3.8-1.4,4.6-3.1l2.5,1.3c-1.5,2.9-3.9,4.4-7.2,4.4
		c-5.5,0-8.2-3.8-8.2-9.6c0-5.4,3.1-8.9,8-8.9c5.4,0,7.5,3.9,7.5,8.7C1241.7,1162.4,1241.7,1162.9,1241.7,1163.3z M1234.1,1155.7
		c-3.2,0-4.8,2.6-4.8,5.2h9.3C1238.7,1158.1,1237.3,1155.7,1234.1,1155.7z"/>
	<path class="st6" d="M1269.4,1168.9h5.6v-20.6h-5.3v-2.5h8.3v23h5.9v2.5h-14.6V1168.9z"/>
	<path class="st6" d="M1290.1,1168.9h5.6v-12.7h-5.1v-2.5h8.1v15.1h5.9v2.5h-14.6V1168.9z M1299,1150.3h-4.2v-4.2h4.2V1150.3z"/>
	<path class="st6" d="M1308.7,1153.8h3.1l4.6,12c0.4,0.9,0.7,1.8,0.9,2.5h0.1c0.2-0.7,0.4-1.6,0.8-2.5l4.7-12h3.1l-7.1,17.6h-3.2
		L1308.7,1153.8z"/>
	<path class="st6" d="M1345.4,1163.3h-12.3c0,3.3,1.9,5.8,5.2,5.8c2.3,0,3.8-1.4,4.6-3.1l2.5,1.3c-1.5,2.9-3.9,4.4-7.2,4.4
		c-5.5,0-8.2-3.8-8.2-9.6c0-5.4,3.1-8.9,8-8.9c5.4,0,7.5,3.9,7.5,8.7C1345.5,1162.4,1345.5,1162.9,1345.4,1163.3z M1337.9,1155.7
		c-3.2,0-4.8,2.6-4.8,5.2h9.3C1342.5,1158.1,1341.1,1155.7,1337.9,1155.7z"/>
	<path class="st6" d="M618.2,1195.6c1.4,0,3.1,0.4,4.3,1.5c1.1,1.1,1.7,2.7,1.7,5.6v10.9h-3v-10.7c0-3.8-1.9-4.7-3.8-4.7
		c-3.8,0-4.8,3.7-4.8,6.2v9.2h-3v-25.5h3v11.1C613.5,1197.1,615.7,1195.6,618.2,1195.6z"/>
	<path class="st6" d="M645,1205.5h-12.3c0,3.3,1.9,5.8,5.2,5.8c2.3,0,3.8-1.4,4.6-3.1l2.5,1.3c-1.5,2.9-3.9,4.4-7.2,4.4
		c-5.5,0-8.2-3.8-8.2-9.6c0-5.4,3.1-8.9,8-8.9c5.4,0,7.5,3.9,7.5,8.7C645.1,1204.6,645.1,1205.1,645,1205.5z M637.5,1197.9
		c-3.2,0-4.8,2.6-4.8,5.2h9.3C642.1,1200.3,640.7,1197.9,637.5,1197.9z"/>
	<path class="st6" d="M663.2,1195.6c1.3,0,2.4,0.1,3.2,0.4v2.8c-0.7-0.2-2-0.4-3.3-0.4c-4.2,0-7.6,2.9-7.6,8.6v6.5h-3V1196h3v4.6
		C656.6,1197.8,659.5,1195.6,663.2,1195.6z"/>
	<path class="st6" d="M686.5,1205.5h-12.3c0,3.3,1.9,5.8,5.2,5.8c2.3,0,3.8-1.4,4.6-3.1l2.5,1.3c-1.5,2.9-3.9,4.4-7.2,4.4
		c-5.5,0-8.2-3.8-8.2-9.6c0-5.4,3.1-8.9,8-8.9c5.4,0,7.5,3.9,7.5,8.7C686.6,1204.6,686.6,1205.1,686.5,1205.5z M679,1197.9
		c-3.2,0-4.8,2.6-4.8,5.2h9.3C683.6,1200.3,682.2,1197.9,679,1197.9z"/>
	<path class="st6" d="M714.2,1211.1h5.6v-12.7h-5.1v-2.5h8.1v15.1h5.9v2.5h-14.6V1211.1z M723.2,1192.5h-4.2v-4.2h4.2V1192.5z"/>
	<path class="st6" d="M742.8,1195.6c1.4,0,3.1,0.4,4.3,1.5c1.2,1.1,1.7,2.8,1.7,5.6v10.9h-3v-10.7c0-3.8-1.9-4.7-3.7-4.7
		c-4,0-4.9,3.7-4.9,6.2v9.2h-3V1196h2.8v3.5C737.9,1197.2,739.9,1195.6,742.8,1195.6z"/>
	<path class="st6" d="M791.4,1191.4h-12v8h11.1v2.8h-11.1v11.4h-3.3v-25h15.3V1191.4z"/>
	<path class="st6" d="M797.2,1211.1h5.6v-20.6h-5.3v-2.5h8.3v23h5.9v2.5h-14.6V1211.1z"/>
	<path class="st6" d="M831.7,1213.6h-3.1c-0.1-1-0.2-2.1-0.3-3.2c-1.2,2.5-3.1,3.6-5.9,3.6c-3.5,0-5.9-2.1-5.9-5.2
		c0-1.8,0.8-3.2,2.5-4.2c1.2-0.6,3.1-1.1,6-1.4l3.2-0.4v-0.3c0-3.1-1.2-4.5-3.8-4.5c-2.5,0-4,1.3-4.1,3.5H817
		c0.3-3.8,3.1-5.9,7.5-5.9c4.5,0,6.6,2.3,6.6,7.3v4.7C831.1,1210.4,831.3,1212.3,831.7,1213.6z M824,1205.6
		c-3.1,0.4-4.3,1.3-4.3,3.1c0,1.8,1.2,2.9,3.3,2.9c3.2,0,5.2-2.2,5.2-5.6v-0.9L824,1205.6z"/>
	<path class="st6" d="M837.4,1196h5v-4.6l3-1.3v5.9h6.9v2.4h-6.9v9.1c0,2.4,1.1,3.5,3.4,3.5c1.2,0,2.4-0.1,3.5-0.3v2.7
		c-0.9,0.2-1.9,0.5-3.4,0.5c-4.4,0-6.4-2.5-6.4-5.9v-9.5h-5V1196z"/>
	<path class="st6" d="M877.5,1188.6h3.3l0.8,17.7c0.1,2.6,0.1,3.9,0.1,4.5h0.4c0-0.8,0.2-2.2,0.7-4.7l2.4-11.3h3.1l2.4,11.3
		c0.5,2.5,0.7,3.9,0.7,4.7h0.4c0-0.6,0-1.8,0.1-4.5l0.8-17.7h3.3l-1.9,25h-4.3l-2.3-10.7c-0.5-2.2-0.6-3.6-0.7-5h-0.4
		c-0.1,1.4-0.2,2.8-0.7,5l-2.3,10.7h-4.3L877.5,1188.6z"/>
	<path class="st6" d="M899.3,1204.8c0-5.6,3.3-9.2,8.2-9.2s8.2,3.6,8.2,9.2c0,5.6-3.3,9.2-8.2,9.2S899.3,1210.3,899.3,1204.8z
		 M912.5,1204.8c0-4.1-1.9-6.6-5-6.6c-3.2,0-5,2.5-5,6.6s1.9,6.6,5,6.6C910.7,1211.4,912.5,1208.9,912.5,1204.8z"/>
	<path class="st6" d="M933,1195.6c1.3,0,2.4,0.1,3.2,0.4v2.8c-0.7-0.2-2-0.4-3.3-0.4c-4.2,0-7.6,2.9-7.6,8.6v6.5h-3V1196h3v4.6
		C926.4,1197.8,929.3,1195.6,933,1195.6z"/>
	<path class="st6" d="M942.5,1211.1h5.6v-20.6h-5.3v-2.5h8.3v23h5.9v2.5h-14.6V1211.1z"/>
	<path class="st6" d="M976.6,1188.1v25.5h-2.8v-3.3c-1.1,2.3-2.7,3.7-5.6,3.7c-4.4,0-7.2-3.7-7.2-9.2c0-5.5,3.1-9.2,7.7-9.2
		c2.4,0,4.1,1.3,5,3v-10.5H976.6z M968.9,1198.2c-3,0-4.8,2.4-4.8,6.5c0,4.1,1.8,6.6,4.7,6.6c3,0,4.9-2.4,4.9-6.2v-0.8
		C973.6,1200.6,971.8,1198.2,968.9,1198.2z"/>
	<path class="st6" d="M988.4,1217.2c2-0.8,2.4-1.7,2.4-3.6h-2.6v-4.5h4.7v4.5c0,2.7-0.8,4.1-3.6,5.2L988.4,1217.2z"/>
	<path class="st6" d="M1039.3,1213.6h-3.1c-0.1-1-0.2-2.1-0.3-3.2c-1.2,2.5-3.1,3.6-5.9,3.6c-3.5,0-5.9-2.1-5.9-5.2
		c0-1.8,0.8-3.2,2.5-4.2c1.2-0.6,3.1-1.1,6-1.4l3.2-0.4v-0.3c0-3.1-1.2-4.5-3.8-4.5c-2.5,0-4,1.3-4.1,3.5h-3.2
		c0.3-3.8,3.1-5.9,7.5-5.9c4.5,0,6.6,2.3,6.6,7.3v4.7C1038.7,1210.4,1038.9,1212.3,1039.3,1213.6z M1031.5,1205.6
		c-3.1,0.4-4.3,1.3-4.3,3.1c0,1.8,1.2,2.9,3.3,2.9c3.2,0,5.2-2.2,5.2-5.6v-0.9L1031.5,1205.6z"/>
	<path class="st6" d="M1066.7,1196l1.8,12.1l0.4,2.5h0.2c0.1-0.8,0.2-1.4,0.6-3l2.3-11.6h3.1l2.3,11.6c0.3,1.6,0.4,2.1,0.6,3h0.2
		l0.4-2.5l1.8-12.1h3.1l-3.4,17.6h-3.8l-2.3-11.4c-0.1-0.7-0.3-2.2-0.3-2.9h-0.2c0,0.7-0.2,2.2-0.3,2.9l-2.3,11.4h-3.8l-3.4-17.6
		H1066.7z"/>
	<path class="st6" d="M1086.1,1204.8c0-5.6,3.3-9.2,8.2-9.2s8.2,3.6,8.2,9.2c0,5.6-3.3,9.2-8.2,9.2S1086.1,1210.3,1086.1,1204.8z
		 M1099.3,1204.8c0-4.1-1.9-6.6-5-6.6c-3.2,0-5,2.5-5,6.6s1.9,6.6,5,6.6C1097.5,1211.4,1099.3,1208.9,1099.3,1204.8z"/>
	<path class="st6" d="M1119.8,1195.6c1.3,0,2.4,0.1,3.2,0.4v2.8c-0.7-0.2-2-0.4-3.3-0.4c-4.2,0-7.6,2.9-7.6,8.6v6.5h-3V1196h3v4.6
		C1113.2,1197.8,1116.1,1195.6,1119.8,1195.6z"/>
	<path class="st6" d="M1129.3,1211.1h5.6v-20.6h-5.3v-2.5h8.3v23h5.9v2.5h-14.6V1211.1z"/>
	<path class="st6" d="M1163.3,1188.1v25.5h-2.8v-3.3c-1.1,2.3-2.7,3.7-5.6,3.7c-4.4,0-7.2-3.7-7.2-9.2c0-5.5,3.1-9.2,7.7-9.2
		c2.4,0,4.1,1.3,5,3v-10.5H1163.3z M1155.7,1198.2c-3,0-4.8,2.4-4.8,6.5c0,4.1,1.8,6.6,4.7,6.6c3,0,4.9-2.4,4.9-6.2v-0.8
		C1160.4,1200.6,1158.6,1198.2,1155.7,1198.2z"/>
	<path class="st6" d="M1191.3,1196l1.8,12.1l0.4,2.5h0.2c0.1-0.8,0.2-1.4,0.6-3l2.3-11.6h3.1l2.3,11.6c0.3,1.6,0.4,2.1,0.6,3h0.2
		l0.4-2.5l1.8-12.1h3.1l-3.4,17.6h-3.8l-2.3-11.4c-0.1-0.7-0.3-2.2-0.3-2.9h-0.2c0,0.7-0.2,2.2-0.3,2.9l-2.3,11.4h-3.8l-3.4-17.6
		H1191.3z"/>
	<path class="st6" d="M1220,1195.6c1.4,0,3.1,0.4,4.3,1.5c1.1,1.1,1.7,2.7,1.7,5.6v10.9h-3v-10.7c0-3.8-1.9-4.7-3.8-4.7
		c-3.8,0-4.8,3.7-4.8,6.2v9.2h-3v-25.5h3v11.1C1215.3,1197.1,1217.5,1195.6,1220,1195.6z"/>
	<path class="st6" d="M1246.9,1205.5h-12.3c0,3.3,1.9,5.8,5.2,5.8c2.3,0,3.8-1.4,4.6-3.1l2.5,1.3c-1.5,2.9-3.9,4.4-7.2,4.4
		c-5.5,0-8.2-3.8-8.2-9.6c0-5.4,3.1-8.9,8-8.9c5.4,0,7.5,3.9,7.5,8.7C1246.9,1204.6,1246.9,1205.1,1246.9,1205.5z M1239.4,1197.9
		c-3.2,0-4.8,2.6-4.8,5.2h9.3C1243.9,1200.3,1242.5,1197.9,1239.4,1197.9z"/>
	<path class="st6" d="M1265,1195.6c1.3,0,2.4,0.1,3.2,0.4v2.8c-0.7-0.2-2-0.4-3.3-0.4c-4.2,0-7.6,2.9-7.6,8.6v6.5h-3V1196h3v4.6
		C1258.5,1197.8,1261.4,1195.6,1265,1195.6z"/>
	<path class="st6" d="M1288.4,1205.5H1276c0,3.3,1.9,5.8,5.2,5.8c2.3,0,3.8-1.4,4.6-3.1l2.5,1.3c-1.5,2.9-3.9,4.4-7.2,4.4
		c-5.5,0-8.2-3.8-8.2-9.6c0-5.4,3.1-8.9,8-8.9c5.4,0,7.5,3.9,7.5,8.7C1288.5,1204.6,1288.4,1205.1,1288.4,1205.5z M1280.9,1197.9
		c-3.2,0-4.8,2.6-4.8,5.2h9.3C1285.4,1200.3,1284,1197.9,1280.9,1197.9z"/>
	<path class="st6" d="M1314.8,1196h5v-4.6l3-1.3v5.9h6.9v2.4h-6.9v9.1c0,2.4,1.1,3.5,3.4,3.5c1.2,0,2.4-0.1,3.5-0.3v2.7
		c-0.9,0.2-1.9,0.5-3.4,0.5c-4.4,0-6.4-2.5-6.4-5.9v-9.5h-5V1196z"/>
	<path class="st6" d="M1344.6,1195.6c1.4,0,3.1,0.4,4.3,1.5c1.1,1.1,1.7,2.7,1.7,5.6v10.9h-3v-10.7c0-3.8-1.9-4.7-3.8-4.7
		c-3.8,0-4.8,3.7-4.8,6.2v9.2h-3v-25.5h3v11.1C1339.8,1197.1,1342,1195.6,1344.6,1195.6z"/>
	<path class="st6" d="M1371.4,1205.5h-12.3c0,3.3,1.9,5.8,5.2,5.8c2.3,0,3.8-1.4,4.6-3.1l2.5,1.3c-1.5,2.9-3.9,4.4-7.2,4.4
		c-5.5,0-8.2-3.8-8.2-9.6c0-5.4,3.1-8.9,8-8.9c5.4,0,7.5,3.9,7.5,8.7C1371.5,1204.6,1371.4,1205.1,1371.4,1205.5z M1363.9,1197.9
		c-3.2,0-4.8,2.6-4.8,5.2h9.3C1368.4,1200.3,1367,1197.9,1363.9,1197.9z"/>
	<path class="st6" d="M1389.5,1195.6c1.3,0,2.4,0.1,3.2,0.4v2.8c-0.7-0.2-2-0.4-3.3-0.4c-4.2,0-7.6,2.9-7.6,8.6v6.5h-3V1196h3v4.6
		C1383,1197.8,1385.9,1195.6,1389.5,1195.6z"/>
	<path class="st6" d="M1412.9,1205.5h-12.3c0,3.3,1.9,5.8,5.2,5.8c2.3,0,3.8-1.4,4.6-3.1l2.5,1.3c-1.5,2.9-3.9,4.4-7.2,4.4
		c-5.5,0-8.2-3.8-8.2-9.6c0-5.4,3.1-8.9,8-8.9c5.4,0,7.5,3.9,7.5,8.7C1413,1204.6,1412.9,1205.1,1412.9,1205.5z M1405.4,1197.9
		c-3.2,0-4.8,2.6-4.8,5.2h9.3C1410,1200.3,1408.5,1197.9,1405.4,1197.9z"/>
	<path class="st6" d="M610.5,1253.3h5.6v-12.7H611v-2.5h8.1v15.1h5.9v2.5h-14.6V1253.3z M619.4,1234.7h-4.2v-4.2h4.2V1234.7z"/>
	<path class="st6" d="M630.5,1250.4l3-0.5c0.5,2.6,2.1,3.9,4.7,3.9c2.4,0,3.7-1,3.7-2.6c0-1.8-0.9-2.5-2.8-2.7l-2.8-0.3
		c-3.5-0.4-5.1-2.4-5.1-5.1c0-3.2,2.5-5.2,6.7-5.2c4,0,6.7,2.1,7.1,5.3l-3,0.7c-0.4-2.1-1.8-3.6-4.2-3.6c-2.3,0-3.7,0.9-3.7,2.6
		c0,1.5,1,2.4,3.2,2.7l2.8,0.3c3.5,0.4,4.9,2.2,4.9,5c0,3.3-2.5,5.4-6.8,5.4C634,1256.2,631.2,1254.1,630.5,1250.4z"/>
	<path class="st6" d="M680.6,1237.8c1.4,0,3.1,0.4,4.3,1.5c1.2,1.1,1.7,2.8,1.7,5.6v10.9h-3v-10.7c0-3.8-1.9-4.7-3.7-4.7
		c-4,0-4.9,3.7-4.9,6.2v9.2h-3v-17.6h2.8v3.5C675.7,1239.5,677.6,1237.8,680.6,1237.8z"/>
	<path class="st6" d="M691.8,1247c0-5.6,3.3-9.2,8.2-9.2c4.9,0,8.2,3.6,8.2,9.2c0,5.6-3.3,9.2-8.2,9.2
		C695.1,1256.2,691.8,1252.5,691.8,1247z M705,1247c0-4.1-1.9-6.6-5-6.6s-5,2.5-5,6.6s1.9,6.6,5,6.6S705,1251.1,705,1247z"/>
	<path class="st6" d="M732.9,1248.8l3.1-0.4c0.1,3.1,2.1,5.2,5.6,5.2c3.3,0,5.2-1.8,5.2-4.8c0-2.6-1.8-4.5-5.3-4.5H740v-2.6h1.4
		c3.2,0,4.6-1.9,4.6-4.3c0-2.5-1.5-4-4.5-4c-3.2,0-5.1,2.1-5.1,5.7l-3-0.6c0-4.7,3.3-7.7,8.3-7.7c4.7,0,7.5,2.6,7.5,6.7
		c0,2.4-1.7,4.6-4.2,5.2c3.2,0.6,5.1,2.8,5.1,6.1c0,4.4-3.3,7.5-8.5,7.5C736.2,1256.3,733.1,1253.2,732.9,1248.8z"/>
	<path class="st6" d="M766.9,1237.8c1.3,0,2.4,0.1,3.2,0.4v2.8c-0.7-0.2-2-0.4-3.3-0.4c-4.2,0-7.6,2.9-7.6,8.6v6.5h-3v-17.6h3v4.6
		C760.4,1240,763.3,1237.8,766.9,1237.8z"/>
	<path class="st6" d="M789.8,1230.3v25.5H787v-3.3c-1.1,2.3-2.7,3.7-5.6,3.7c-4.4,0-7.2-3.7-7.2-9.2c0-5.5,3.1-9.2,7.7-9.2
		c2.4,0,4.1,1.3,5,3v-10.5H789.8z M782.1,1240.4c-3,0-4.8,2.4-4.8,6.5c0,4.1,1.8,6.6,4.7,6.6c3,0,4.9-2.4,4.9-6.2v-0.8
		C786.9,1242.8,785,1240.4,782.1,1240.4z"/>
	<path class="st6" d="M831.3,1230.3v25.5h-2.8v-3.3c-1.1,2.3-2.7,3.7-5.6,3.7c-4.4,0-7.2-3.7-7.2-9.2c0-5.5,3.1-9.2,7.7-9.2
		c2.4,0,4.1,1.3,5,3v-10.5H831.3z M823.6,1240.4c-3,0-4.8,2.4-4.8,6.5c0,4.1,1.8,6.6,4.7,6.6c3,0,4.9-2.4,4.9-6.2v-0.8
		C828.4,1242.8,826.5,1240.4,823.6,1240.4z"/>
	<path class="st6" d="M838.7,1253.3h5.6v-12.7h-5.1v-2.5h8.1v15.1h5.9v2.5h-14.6V1253.3z M847.7,1234.7h-4.2v-4.2h4.2V1234.7z"/>
	<path class="st6" d="M863.3,1237.8c1.7,0,3.1,1.2,3.7,3.2c0.8-2,2.4-3.2,4.2-3.2c2.2,0,4.2,1.5,4.2,5.2v12.8h-3v-12.5
		c0-2.3-1.1-2.8-2.1-2.8c-2.1,0-2.8,1.5-2.8,3.7v11.6h-2.9v-12.5c0-2.1-0.9-2.8-2.1-2.8c-2,0-2.7,1.6-2.7,3.7v11.6h-3v-17.6h2.8v2.7
		C860.2,1239,861.6,1237.8,863.3,1237.8z"/>
	<path class="st6" d="M894.1,1247.8h-12.3c0,3.3,1.9,5.8,5.2,5.8c2.3,0,3.8-1.4,4.6-3.1l2.5,1.3c-1.5,2.9-3.9,4.4-7.2,4.4
		c-5.5,0-8.2-3.8-8.2-9.6c0-5.4,3.1-8.9,8-8.9c5.4,0,7.5,3.9,7.5,8.7C894.1,1246.8,894.1,1247.3,894.1,1247.8z M886.5,1240.1
		c-3.2,0-4.8,2.6-4.8,5.2h9.3C891.1,1242.5,889.7,1240.1,886.5,1240.1z"/>
	<path class="st6" d="M908.8,1237.8c1.4,0,3.1,0.4,4.3,1.5c1.2,1.1,1.7,2.8,1.7,5.6v10.9h-3v-10.7c0-3.8-1.9-4.7-3.7-4.7
		c-4,0-4.9,3.7-4.9,6.2v9.2h-3v-17.6h2.8v3.5C904,1239.5,905.9,1237.8,908.8,1237.8z"/>
	<path class="st6" d="M921.1,1250.4l3-0.5c0.5,2.6,2.1,3.9,4.7,3.9c2.4,0,3.7-1,3.7-2.6c0-1.8-0.9-2.5-2.8-2.7l-2.8-0.3
		c-3.5-0.4-5.1-2.4-5.1-5.1c0-3.2,2.5-5.2,6.7-5.2c4,0,6.7,2.1,7.1,5.3l-3,0.7c-0.4-2.1-1.8-3.6-4.2-3.6c-2.3,0-3.7,0.9-3.7,2.6
		c0,1.5,1,2.4,3.2,2.7l2.8,0.3c3.5,0.4,4.9,2.2,4.9,5c0,3.3-2.5,5.4-6.8,5.4C924.5,1256.2,921.7,1254.1,921.1,1250.4z"/>
	<path class="st6" d="M942.5,1253.3h5.6v-12.7H943v-2.5h8.1v15.1h5.9v2.5h-14.6V1253.3z M951.4,1234.7h-4.2v-4.2h4.2V1234.7z"/>
	<path class="st6" d="M961.6,1247c0-5.6,3.3-9.2,8.2-9.2s8.2,3.6,8.2,9.2c0,5.6-3.3,9.2-8.2,9.2S961.6,1252.5,961.6,1247z
		 M974.8,1247c0-4.1-1.9-6.6-5-6.6c-3.2,0-5,2.5-5,6.6s1.9,6.6,5,6.6C972.9,1253.6,974.8,1251.1,974.8,1247z"/>
	<path class="st6" d="M991.9,1237.8c1.4,0,3.1,0.4,4.3,1.5c1.2,1.1,1.7,2.8,1.7,5.6v10.9h-3v-10.7c0-3.8-1.9-4.7-3.7-4.7
		c-4,0-4.9,3.7-4.9,6.2v9.2h-3v-17.6h2.8v3.5C987,1239.5,988.9,1237.8,991.9,1237.8z"/>
	<path class="st6" d="M1009.1,1259.4c2-0.8,2.4-1.7,2.4-3.6h-2.6v-4.5h4.7v4.5c0,2.7-0.8,4.1-3.6,5.2L1009.1,1259.4z"/>
	<path class="st6" d="M1048.8,1241.3c1-2,3.1-3.5,5.4-3.5c4.5,0,7.2,3.8,7.2,9.2c0,5.5-2.8,9.2-7.4,9.2c-2.4,0-4.5-1.3-5.5-3.4
		l-0.5,3h-2.3v-25.5h3V1241.3z M1053.4,1253.6c3.1,0,4.9-2.6,4.9-6.6c0-3.9-1.7-6.5-4.8-6.5c-3,0-4.7,2.4-4.7,6.2v0.9
		C1048.7,1251.1,1050.5,1253.6,1053.4,1253.6z"/>
	<path class="st6" d="M1080.9,1247.8h-12.3c0,3.3,1.9,5.8,5.2,5.8c2.3,0,3.8-1.4,4.6-3.1l2.5,1.3c-1.5,2.9-3.9,4.4-7.2,4.4
		c-5.5,0-8.2-3.8-8.2-9.6c0-5.4,3.1-8.9,8-8.9c5.4,0,7.5,3.9,7.5,8.7C1080.9,1246.8,1080.9,1247.3,1080.9,1247.8z M1073.3,1240.1
		c-3.2,0-4.8,2.6-4.8,5.2h9.3C1077.9,1242.5,1076.5,1240.1,1073.3,1240.1z"/>
	<path class="st6" d="M1086.2,1246.9c0-5.2,2.7-9.1,8.2-9.1c3.9,0,6.7,2.3,7.1,6.3l-3.1,0.4c-0.3-2.6-1.8-4-4.3-4
		c-3.2,0-4.9,2.6-4.9,6.5c0,4,1.7,6.7,5,6.7c2.6,0,3.9-1.5,4.4-4.2l2.8,0.5c-0.6,3.6-2.8,6.4-7.2,6.4
		C1088.9,1256.2,1086.2,1252.2,1086.2,1246.9z"/>
	<path class="st6" d="M1122.3,1255.8h-3.1c-0.1-1-0.2-2.1-0.3-3.2c-1.2,2.5-3.1,3.6-5.9,3.6c-3.5,0-5.9-2.1-5.9-5.2
		c0-1.8,0.8-3.2,2.5-4.2c1.2-0.6,3.1-1.1,6-1.4l3.2-0.4v-0.3c0-3.1-1.2-4.5-3.8-4.5c-2.5,0-4,1.3-4.1,3.5h-3.2
		c0.3-3.8,3.1-5.9,7.5-5.9c4.5,0,6.6,2.3,6.6,7.3v4.7C1121.7,1252.6,1121.9,1254.5,1122.3,1255.8z M1114.5,1247.8
		c-3.1,0.4-4.3,1.3-4.3,3.1c0,1.8,1.2,2.9,3.3,2.9c3.2,0,5.2-2.2,5.2-5.6v-0.9L1114.5,1247.8z"/>
	<path class="st6" d="M1134.6,1256.2c-1.6,0-3.3-0.4-4.5-1.5c-1.1-1.1-1.6-2.7-1.6-5.6v-10.9h3.1v10.8c0,3.8,1.8,4.7,3.7,4.7
		c3.7,0,4.6-3.7,4.6-6.3v-9.2h3v17.6h-2.8v-3.3C1139.2,1254.2,1137.2,1256.2,1134.6,1256.2z"/>
	<path class="st6" d="M1149.4,1250.4l3-0.5c0.5,2.6,2.1,3.9,4.7,3.9c2.4,0,3.7-1,3.7-2.6c0-1.8-0.9-2.5-2.8-2.7l-2.8-0.3
		c-3.5-0.4-5.1-2.4-5.1-5.1c0-3.2,2.5-5.2,6.7-5.2c4,0,6.7,2.1,7.1,5.3l-3,0.7c-0.4-2.1-1.8-3.6-4.2-3.6c-2.3,0-3.7,0.9-3.7,2.6
		c0,1.5,1,2.4,3.2,2.7l2.8,0.3c3.5,0.4,4.9,2.2,4.9,5c0,3.3-2.5,5.4-6.8,5.4C1152.8,1256.2,1150,1254.1,1149.4,1250.4z"/>
	<path class="st6" d="M1184.6,1247.8h-12.3c0,3.3,1.9,5.8,5.2,5.8c2.3,0,3.8-1.4,4.6-3.1l2.5,1.3c-1.5,2.9-3.9,4.4-7.2,4.4
		c-5.5,0-8.2-3.8-8.2-9.6c0-5.4,3.1-8.9,8-8.9c5.4,0,7.5,3.9,7.5,8.7C1184.7,1246.8,1184.7,1247.3,1184.6,1247.8z M1177.1,1240.1
		c-3.2,0-4.8,2.6-4.8,5.2h9.3C1181.7,1242.5,1180.3,1240.1,1177.1,1240.1z"/>
	<path class="st6" d="M1214.8,1241.3c0.9-2,3.1-3.5,5.4-3.5c4.5,0,7.2,3.8,7.2,9.2c0,5.5-2.8,9.2-7.4,9.2c-2.4,0-4.5-1.3-5.5-3.4
		l-0.5,3h-2.3v-25.5h3V1241.3z M1219.4,1253.6c3.1,0,4.9-2.6,4.9-6.6c0-3.9-1.7-6.5-4.8-6.5c-3,0-4.7,2.4-4.7,6.2v0.9
		C1214.8,1251.1,1216.5,1253.6,1219.4,1253.6z"/>
	<path class="st6" d="M1246.9,1247.8h-12.3c0,3.3,1.9,5.8,5.2,5.8c2.3,0,3.8-1.4,4.6-3.1l2.5,1.3c-1.5,2.9-3.9,4.4-7.2,4.4
		c-5.5,0-8.2-3.8-8.2-9.6c0-5.4,3.1-8.9,8-8.9c5.4,0,7.5,3.9,7.5,8.7C1246.9,1246.8,1246.9,1247.3,1246.9,1247.8z M1239.4,1240.1
		c-3.2,0-4.8,2.6-4.8,5.2h9.3C1243.9,1242.5,1242.5,1240.1,1239.4,1240.1z"/>
	<path class="st6" d="M1253.8,1253.3h5.6v-20.6h-5.3v-2.5h8.3v23h5.9v2.5h-14.6V1253.3z"/>
	<path class="st6" d="M1274.6,1253.3h5.6v-12.7h-5.1v-2.5h8.1v15.1h5.9v2.5h-14.6V1253.3z M1283.5,1234.7h-4.2v-4.2h4.2V1234.7z"/>
	<path class="st6" d="M1309.1,1247.8h-12.3c0,3.3,1.9,5.8,5.2,5.8c2.3,0,3.8-1.4,4.6-3.1l2.5,1.3c-1.5,2.9-3.9,4.4-7.2,4.4
		c-5.5,0-8.2-3.8-8.2-9.6c0-5.4,3.1-8.9,8-8.9c5.4,0,7.5,3.9,7.5,8.7C1309.2,1246.8,1309.2,1247.3,1309.1,1247.8z M1301.6,1240.1
		c-3.2,0-4.8,2.6-4.8,5.2h9.3C1306.2,1242.5,1304.8,1240.1,1301.6,1240.1z"/>
	<path class="st6" d="M1313.9,1238.2h3.1l4.6,12c0.4,0.9,0.7,1.8,0.9,2.5h0.1c0.2-0.7,0.4-1.6,0.8-2.5l4.7-12h3.1l-7.1,17.6h-3.2
		L1313.9,1238.2z"/>
	<path class="st6" d="M1350.6,1247.8h-12.3c0,3.3,1.9,5.8,5.2,5.8c2.3,0,3.8-1.4,4.6-3.1l2.5,1.3c-1.5,2.9-3.9,4.4-7.2,4.4
		c-5.5,0-8.2-3.8-8.2-9.6c0-5.4,3.1-8.9,8-8.9c5.4,0,7.5,3.9,7.5,8.7C1350.7,1246.8,1350.7,1247.3,1350.6,1247.8z M1343.1,1240.1
		c-3.2,0-4.8,2.6-4.8,5.2h9.3C1347.7,1242.5,1346.3,1240.1,1343.1,1240.1z"/>
	<path class="st6" d="M1378.3,1253.3h5.6v-12.7h-5.1v-2.5h8.1v15.1h5.9v2.5h-14.6V1253.3z M1387.3,1234.7h-4.2v-4.2h4.2V1234.7z"/>
	<path class="st6" d="M1397.8,1238.2h5v-4.6l3-1.3v5.9h6.9v2.4h-6.9v9.1c0,2.4,1.1,3.5,3.4,3.5c1.2,0,2.4-0.1,3.5-0.3v2.7
		c-0.9,0.2-1.9,0.5-3.4,0.5c-4.4,0-6.4-2.5-6.4-5.9v-9.5h-5V1238.2z"/>
	<path class="st6" d="M608.8,1289.2c0-5.6,3.3-9.2,8.2-9.2c4.9,0,8.2,3.6,8.2,9.2c0,5.6-3.3,9.2-8.2,9.2
		C612,1298.4,608.8,1294.7,608.8,1289.2z M622,1289.2c0-4.1-1.9-6.6-5-6.6c-3.2,0-5,2.5-5,6.6s1.9,6.6,5,6.6
		C620.1,1295.8,622,1293.3,622,1289.2z"/>
	<path class="st6" d="M642.4,1280.1c1.3,0,2.4,0.1,3.2,0.4v2.8c-0.7-0.2-2-0.4-3.3-0.4c-4.2,0-7.6,2.9-7.6,8.6v6.5h-3v-17.6h3v4.6
		C635.9,1282.2,638.8,1280.1,642.4,1280.1z"/>
	<path class="st6" d="M680.6,1280c1.4,0,3.1,0.4,4.3,1.5c1.2,1.1,1.7,2.8,1.7,5.6v10.9h-3v-10.7c0-3.8-1.9-4.7-3.7-4.7
		c-4,0-4.9,3.7-4.9,6.2v9.2h-3v-17.6h2.8v3.5C675.7,1281.7,677.6,1280,680.6,1280z"/>
	<path class="st6" d="M691.8,1289.2c0-5.6,3.3-9.2,8.2-9.2c4.9,0,8.2,3.6,8.2,9.2c0,5.6-3.3,9.2-8.2,9.2
		C695.1,1298.4,691.8,1294.7,691.8,1289.2z M705,1289.2c0-4.1-1.9-6.6-5-6.6s-5,2.5-5,6.6s1.9,6.6,5,6.6S705,1293.3,705,1289.2z"/>
	<path class="st6" d="M712.9,1280.4h5v-4.6l3-1.3v5.9h6.9v2.4h-6.9v9.1c0,2.4,1.1,3.5,3.4,3.5c1.2,0,2.4-0.1,3.5-0.3v2.7
		c-0.9,0.2-1.9,0.5-3.4,0.5c-4.4,0-6.4-2.5-6.4-5.9v-9.5h-5V1280.4z"/>
	<path class="st6" d="M739.3,1301.6c2-0.8,2.4-1.7,2.4-3.6h-2.6v-4.5h4.7v4.5c0,2.7-0.8,4.1-3.6,5.2L739.3,1301.6z"/>
	<path class="st6" d="M776.2,1280.4l1.8,12.1l0.4,2.5h0.2c0.1-0.8,0.2-1.4,0.6-3l2.3-11.6h3.1l2.3,11.6c0.3,1.6,0.4,2.1,0.6,3h0.2
		l0.4-2.5l1.8-12.1h3.1l-3.4,17.6h-3.8l-2.3-11.4c-0.1-0.7-0.3-2.2-0.3-2.9h-0.2c0,0.7-0.2,2.2-0.3,2.9l-2.3,11.4h-3.8l-3.4-17.6
		H776.2z"/>
	<path class="st6" d="M811.1,1290h-12.3c0,3.3,1.9,5.8,5.2,5.8c2.3,0,3.8-1.4,4.6-3.1l2.5,1.3c-1.5,2.9-3.9,4.4-7.2,4.4
		c-5.5,0-8.2-3.8-8.2-9.6c0-5.4,3.1-8.9,8-8.9c5.4,0,7.5,3.9,7.5,8.7C811.1,1289.1,811.1,1289.5,811.1,1290z M803.5,1282.3
		c-3.2,0-4.8,2.6-4.8,5.2h9.3C808.1,1284.7,806.7,1282.3,803.5,1282.3z"/>
	<path class="st6" d="M852.5,1298h-3.1c-0.1-1-0.2-2.1-0.3-3.2c-1.2,2.5-3.1,3.6-5.9,3.6c-3.5,0-5.9-2.1-5.9-5.2
		c0-1.8,0.8-3.2,2.5-4.2c1.2-0.6,3.1-1.1,6-1.4l3.2-0.4v-0.3c0-3.1-1.2-4.5-3.8-4.5c-2.5,0-4,1.3-4.1,3.5h-3.2
		c0.3-3.8,3.1-5.9,7.5-5.9c4.5,0,6.6,2.3,6.6,7.3v4.7C851.9,1294.9,852.1,1296.7,852.5,1298z M844.7,1290c-3.1,0.4-4.3,1.3-4.3,3.1
		c0,1.8,1.2,2.9,3.3,2.9c3.2,0,5.2-2.2,5.2-5.6v-0.9L844.7,1290z"/>
	<path class="st6" d="M870.7,1280.1c1.3,0,2.4,0.1,3.2,0.4v2.8c-0.7-0.2-2-0.4-3.3-0.4c-4.2,0-7.6,2.9-7.6,8.6v6.5h-3v-17.6h3v4.6
		C864.2,1282.2,867.1,1280.1,870.7,1280.1z"/>
	<path class="st6" d="M894.1,1290h-12.3c0,3.3,1.9,5.8,5.2,5.8c2.3,0,3.8-1.4,4.6-3.1l2.5,1.3c-1.5,2.9-3.9,4.4-7.2,4.4
		c-5.5,0-8.2-3.8-8.2-9.6c0-5.4,3.1-8.9,8-8.9c5.4,0,7.5,3.9,7.5,8.7C894.1,1289.1,894.1,1289.5,894.1,1290z M886.5,1282.3
		c-3.2,0-4.8,2.6-4.8,5.2h9.3C891.1,1284.7,889.7,1282.3,886.5,1282.3z"/>
	<path class="st6" d="M921.8,1295.5h5.6v-12.7h-5.1v-2.5h8.1v15.1h5.9v2.5h-14.6V1295.5z M930.7,1276.9h-4.2v-4.2h4.2V1276.9z"/>
	<path class="st6" d="M950.4,1280c1.4,0,3.1,0.4,4.3,1.5c1.2,1.1,1.7,2.8,1.7,5.6v10.9h-3v-10.7c0-3.8-1.9-4.7-3.7-4.7
		c-4,0-4.9,3.7-4.9,6.2v9.2h-3v-17.6h2.8v3.5C945.5,1281.7,947.4,1280,950.4,1280z"/>
	<path class="st6" d="M962.6,1292.6l3-0.5c0.5,2.6,2.1,3.9,4.7,3.9c2.4,0,3.7-1,3.7-2.6c0-1.8-0.9-2.5-2.8-2.7l-2.8-0.3
		c-3.5-0.4-5.1-2.4-5.1-5.1c0-3.2,2.5-5.2,6.7-5.2c4,0,6.7,2.1,7.1,5.3l-3,0.7c-0.4-2.1-1.8-3.6-4.2-3.6c-2.3,0-3.7,1-3.7,2.6
		c0,1.5,1,2.4,3.2,2.7l2.8,0.3c3.5,0.4,4.9,2.2,4.9,5c0,3.3-2.5,5.4-6.8,5.4C966,1298.4,963.2,1296.3,962.6,1292.6z"/>
	<path class="st6" d="M984,1295.5h5.6v-12.7h-5.1v-2.5h8.1v15.1h5.9v2.5H984V1295.5z M992.9,1276.9h-4.2v-4.2h4.2V1276.9z"/>
	<path class="st6" d="M1018.1,1272.5v25.5h-2.8v-3.3c-1.1,2.3-2.7,3.7-5.6,3.7c-4.4,0-7.2-3.7-7.2-9.2c0-5.5,3.1-9.2,7.7-9.2
		c2.4,0,4.1,1.3,5,3v-10.5H1018.1z M1010.4,1282.6c-3,0-4.8,2.4-4.8,6.5c0,4.1,1.8,6.6,4.7,6.6c3,0,4.9-2.4,4.9-6.2v-0.8
		C1015.1,1285,1013.3,1282.6,1010.4,1282.6z"/>
	<path class="st6" d="M1039.3,1290H1027c0,3.3,1.9,5.8,5.2,5.8c2.3,0,3.8-1.4,4.6-3.1l2.5,1.3c-1.5,2.9-3.9,4.4-7.2,4.4
		c-5.5,0-8.2-3.8-8.2-9.6c0-5.4,3.1-8.9,8-8.9c5.4,0,7.5,3.9,7.5,8.7C1039.4,1289.1,1039.4,1289.5,1039.3,1290z M1031.8,1282.3
		c-3.2,0-4.8,2.6-4.8,5.2h9.3C1036.4,1284.7,1035,1282.3,1031.8,1282.3z"/>
	<path class="st6" d="M1080.8,1298h-3.1c-0.1-1-0.2-2.1-0.3-3.2c-1.2,2.5-3.1,3.6-5.9,3.6c-3.5,0-5.9-2.1-5.9-5.2
		c0-1.8,0.8-3.2,2.5-4.2c1.2-0.6,3.1-1.1,6-1.4l3.2-0.4v-0.3c0-3.1-1.2-4.5-3.8-4.5c-2.5,0-4,1.3-4.1,3.5h-3.2
		c0.3-3.8,3.1-5.9,7.5-5.9c4.5,0,6.6,2.3,6.6,7.3v4.7C1080.2,1294.9,1080.4,1296.7,1080.8,1298z M1073,1290
		c-3.1,0.4-4.3,1.3-4.3,3.1c0,1.8,1.2,2.9,3.3,2.9c3.2,0,5.2-2.2,5.2-5.6v-0.9L1073,1290z"/>
	<path class="st6" d="M1107,1289.1c0-5.2,2.7-9.1,8.2-9.1c3.9,0,6.7,2.3,7.1,6.3l-3.1,0.4c-0.3-2.6-1.8-4-4.3-4
		c-3.2,0-4.9,2.6-4.9,6.5c0,4,1.7,6.7,5,6.7c2.6,0,3.9-1.5,4.4-4.2l2.8,0.5c-0.6,3.6-2.8,6.4-7.2,6.4
		C1109.7,1298.4,1107,1294.4,1107,1289.1z"/>
	<path class="st6" d="M1127.6,1289.2c0-5.6,3.3-9.2,8.2-9.2s8.2,3.6,8.2,9.2c0,5.6-3.3,9.2-8.2,9.2S1127.6,1294.7,1127.6,1289.2z
		 M1140.8,1289.2c0-4.1-1.9-6.6-5-6.6c-3.2,0-5,2.5-5,6.6s1.9,6.6,5,6.6C1139,1295.8,1140.8,1293.3,1140.8,1289.2z"/>
	<path class="st6" d="M1153.9,1280c1.7,0,3.1,1.2,3.7,3.2c0.8-2,2.4-3.2,4.2-3.2c2.2,0,4.2,1.5,4.2,5.2v12.8h-3v-12.5
		c0-2.3-1.1-2.8-2.1-2.8c-2.1,0-2.8,1.5-2.8,3.7v11.6h-2.9v-12.5c0-2.1-0.9-2.8-2.1-2.8c-2,0-2.7,1.6-2.7,3.7v11.6h-3v-17.6h2.8v2.7
		C1150.7,1281.2,1152.1,1280,1153.9,1280z"/>
	<path class="st6" d="M1173.2,1283.7c0.9-1.9,3-3.7,5.5-3.7c4.6,0,7.3,3.8,7.3,9.2c0,5.5-2.8,9.2-7.5,9.2c-2.2,0-4.4-1.3-5.2-3.2
		v9.6h-3v-24.4h2.8V1283.7z M1178,1295.8c3.1,0,4.8-2.6,4.8-6.6c0-3.9-1.6-6.5-4.7-6.5c-3,0-4.9,2.4-4.9,6.1v0.8
		C1173.3,1293.3,1175.1,1295.8,1178,1295.8z"/>
	<path class="st6" d="M1196.8,1298.4c-1.6,0-3.3-0.4-4.5-1.5c-1.1-1.1-1.6-2.7-1.6-5.6v-10.9h3.1v10.8c0,3.8,1.8,4.7,3.7,4.7
		c3.7,0,4.6-3.7,4.6-6.3v-9.2h3v17.6h-2.8v-3.3C1201.5,1296.4,1199.4,1298.4,1196.8,1298.4z"/>
	<path class="st6" d="M1211,1280.4h5v-4.6l3-1.3v5.9h6.9v2.4h-6.9v9.1c0,2.4,1.1,3.5,3.4,3.5c1.2,0,2.4-0.1,3.5-0.3v2.7
		c-0.9,0.2-1.9,0.5-3.4,0.5c-4.4,0-6.4-2.5-6.4-5.9v-9.5h-5V1280.4z"/>
	<path class="st6" d="M1246.9,1290h-12.3c0,3.3,1.9,5.8,5.2,5.8c2.3,0,3.8-1.4,4.6-3.1l2.5,1.3c-1.5,2.9-3.9,4.4-7.2,4.4
		c-5.5,0-8.2-3.8-8.2-9.6c0-5.4,3.1-8.9,8-8.9c5.4,0,7.5,3.9,7.5,8.7C1246.9,1289.1,1246.9,1289.5,1246.9,1290z M1239.4,1282.3
		c-3.2,0-4.8,2.6-4.8,5.2h9.3C1243.9,1284.7,1242.5,1282.3,1239.4,1282.3z"/>
	<path class="st6" d="M1265,1280.1c1.3,0,2.4,0.1,3.2,0.4v2.8c-0.7-0.2-2-0.4-3.3-0.4c-4.2,0-7.6,2.9-7.6,8.6v6.5h-3v-17.6h3v4.6
		C1258.5,1282.2,1261.4,1280.1,1265,1280.1z"/>
	<path class="st6" d="M609.8,1334.8l3-0.5c0.5,2.6,2.1,3.9,4.7,3.9c2.4,0,3.7-1,3.7-2.6c0-1.8-0.9-2.5-2.8-2.7l-2.8-0.3
		c-3.5-0.4-5.1-2.4-5.1-5.1c0-3.2,2.5-5.2,6.7-5.2c4,0,6.7,2.1,7.1,5.3l-3,0.7c-0.4-2.1-1.8-3.6-4.2-3.6c-2.3,0-3.7,1-3.7,2.6
		c0,1.5,1,2.4,3.2,2.7l2.8,0.3c3.5,0.4,4.9,2.2,4.9,5c0,3.3-2.5,5.4-6.8,5.4C613.2,1340.6,610.4,1338.5,609.8,1334.8z"/>
	<path class="st6" d="M629.6,1331.3c0-5.2,2.7-9.1,8.2-9.1c3.9,0,6.7,2.3,7.1,6.3l-3.1,0.4c-0.3-2.6-1.8-4-4.3-4
		c-3.2,0-4.9,2.6-4.9,6.5c0,4,1.7,6.7,5,6.7c2.6,0,3.9-1.5,4.4-4.2l2.8,0.5c-0.6,3.6-2.8,6.4-7.2,6.4
		C632.4,1340.6,629.6,1336.6,629.6,1331.3z"/>
	<path class="st6" d="M663.2,1322.3c1.3,0,2.4,0.1,3.2,0.4v2.8c-0.7-0.2-2-0.4-3.3-0.4c-4.2,0-7.6,2.9-7.6,8.6v6.5h-3v-17.6h3v4.6
		C656.6,1324.4,659.5,1322.3,663.2,1322.3z"/>
	<path class="st6" d="M686.5,1332.2h-12.3c0,3.3,1.9,5.8,5.2,5.8c2.3,0,3.8-1.4,4.6-3.1l2.5,1.3c-1.5,2.9-3.9,4.4-7.2,4.4
		c-5.5,0-8.2-3.8-8.2-9.6c0-5.4,3.1-8.9,8-8.9c5.4,0,7.5,3.9,7.5,8.7C686.6,1331.3,686.6,1331.7,686.5,1332.2z M679,1324.5
		c-3.2,0-4.8,2.6-4.8,5.2h9.3C683.6,1326.9,682.2,1324.5,679,1324.5z"/>
	<path class="st6" d="M707.3,1332.2h-12.3c0,3.3,1.9,5.8,5.2,5.8c2.3,0,3.8-1.4,4.6-3.1l2.5,1.3c-1.5,2.9-3.9,4.4-7.2,4.4
		c-5.5,0-8.2-3.8-8.2-9.6c0-5.4,3.1-8.9,8-8.9c5.4,0,7.5,3.9,7.5,8.7C707.4,1331.3,707.3,1331.7,707.3,1332.2z M699.8,1324.5
		c-3.2,0-4.8,2.6-4.8,5.2h9.3C704.3,1326.9,702.9,1324.5,699.8,1324.5z"/>
	<path class="st6" d="M722.1,1322.2c1.4,0,3.1,0.4,4.3,1.5c1.2,1.1,1.7,2.8,1.7,5.6v10.9h-3v-10.7c0-3.8-1.9-4.7-3.7-4.7
		c-4,0-4.9,3.7-4.9,6.2v9.2h-3v-17.6h2.8v3.5C717.2,1323.9,719.1,1322.2,722.1,1322.2z"/>
	<path class="st6" d="M743.8,1340.2h-4.7v-4.5h4.7V1340.2z M739.7,1315.2h3.6l-0.6,18.4h-2.4L739.7,1315.2z"/>
</g>
<g>
	<path class="st6" d="M851.7,1422.2v19.7h6.3v2.6h-15.8v-2.6h6.2v-19.7h-6.2v-2.6H858v2.6H851.7z"/>
	<path class="st6" d="M868.7,1427.7c2-0.8,2.4-1.7,2.4-3.6h-2.6v-4.5h4.7v4.5c0,2.7-0.8,4.1-3.6,5.2L868.7,1427.7z"/>
	<path class="st6" d="M885.1,1442.1h5.6v-20.6h-5.3v-2.5h8.3v23h5.9v2.5h-14.6V1442.1z"/>
	<path class="st6" d="M905.9,1442.1h5.6v-20.6h-5.3v-2.5h8.3v23h5.9v2.5h-14.6V1442.1z"/>
	<path class="st6" d="M946.7,1439.1l3-0.5c0.5,2.6,2.1,3.9,4.7,3.9c2.4,0,3.7-1,3.7-2.6c0-1.8-0.9-2.5-2.8-2.7l-2.8-0.3
		c-3.5-0.4-5.1-2.4-5.1-5.1c0-3.2,2.5-5.2,6.7-5.2c4,0,6.7,2.1,7.1,5.3l-3,0.7c-0.4-2.1-1.8-3.6-4.2-3.6c-2.3,0-3.7,1-3.7,2.6
		c0,1.5,1,2.4,3.2,2.7l2.8,0.3c3.5,0.4,4.9,2.2,4.9,5c0,3.3-2.5,5.4-6.8,5.4C950.1,1445,947.3,1442.9,946.7,1439.1z"/>
	<path class="st6" d="M975.9,1426.5c1.4,0,3.1,0.4,4.3,1.5c1.1,1.1,1.7,2.7,1.7,5.6v10.9h-3v-10.7c0-3.8-1.9-4.7-3.8-4.7
		c-3.8,0-4.8,3.7-4.8,6.2v9.2h-3v-25.5h3v11.1C971.1,1428.1,973.3,1426.5,975.9,1426.5z"/>
	<path class="st6" d="M987.2,1435.8c0-5.6,3.3-9.2,8.2-9.2s8.2,3.6,8.2,9.2c0,5.6-3.3,9.2-8.2,9.2S987.2,1441.3,987.2,1435.8z
		 M1000.4,1435.8c0-4.1-1.9-6.6-5-6.6c-3.2,0-5,2.5-5,6.6s1.9,6.6,5,6.6C998.5,1442.4,1000.4,1439.9,1000.4,1435.8z"/>
	<path class="st6" d="M1009.3,1427l1.8,12.1l0.4,2.5h0.2c0.1-0.8,0.2-1.4,0.6-3l2.3-11.6h3.1l2.3,11.6c0.3,1.6,0.4,2.1,0.6,3h0.2
		l0.4-2.5l1.8-12.1h3.1l-3.4,17.6h-3.8l-2.3-11.4c-0.1-0.7-0.3-2.2-0.3-2.9h-0.2c0,0.7-0.2,2.2-0.3,2.9l-2.3,11.4h-3.8l-3.4-17.6
		H1009.3z"/>
	<path class="st6" d="M1057.9,1441.1l4.9-14.1h3.2l-7,18.7c-1.6,4.5-3.7,5.9-6.7,5.9c-0.5,0-1.1,0-1.6-0.1v-2.6
		c0.5,0,0.9,0.1,1.3,0.1c2.1,0,3.2-0.9,4-3.3l0.5-1.3l-6.9-17.4h3.4L1057.9,1441.1z"/>
	<path class="st6" d="M1070.2,1435.8c0-5.6,3.3-9.2,8.2-9.2s8.2,3.6,8.2,9.2c0,5.6-3.3,9.2-8.2,9.2S1070.2,1441.3,1070.2,1435.8z
		 M1083.4,1435.8c0-4.1-1.9-6.6-5-6.6c-3.2,0-5,2.5-5,6.6s1.9,6.6,5,6.6C1081.6,1442.4,1083.4,1439.9,1083.4,1435.8z"/>
	<path class="st6" d="M1097.9,1445c-1.6,0-3.3-0.4-4.5-1.5c-1.1-1.1-1.6-2.7-1.6-5.6V1427h3.1v10.8c0,3.8,1.8,4.7,3.7,4.7
		c3.7,0,4.6-3.7,4.6-6.3v-9.2h3v17.6h-2.8v-3.3C1102.6,1443,1100.5,1445,1097.9,1445z"/>
	<path class="st6" d="M1147.9,1444.6h-3.1c-0.1-1-0.2-2.1-0.3-3.2c-1.2,2.5-3.1,3.6-5.9,3.6c-3.5,0-5.9-2.1-5.9-5.2
		c0-1.8,0.8-3.2,2.5-4.2c1.2-0.6,3.1-1.1,6-1.4l3.2-0.4v-0.3c0-3.1-1.2-4.5-3.8-4.5c-2.5,0-4,1.3-4.1,3.5h-3.2
		c0.3-3.8,3.1-5.9,7.5-5.9c4.5,0,6.6,2.3,6.6,7.3v4.7C1147.3,1441.4,1147.5,1443.3,1147.9,1444.6z M1140.1,1436.6
		c-3.1,0.4-4.3,1.3-4.3,3.1c0,1.8,1.2,2.9,3.3,2.9c3.2,0,5.2-2.2,5.2-5.6v-0.9L1140.1,1436.6z"/>
	<path class="st6" d="M1166.1,1426.6c1.3,0,2.4,0.1,3.2,0.4v2.8c-0.7-0.2-2-0.4-3.3-0.4c-4.2,0-7.6,2.9-7.6,8.6v6.5h-3V1427h3v4.6
		C1159.6,1428.8,1162.5,1426.6,1166.1,1426.6z"/>
	<path class="st6" d="M1174,1435.8c0-5.6,3.3-9.2,8.2-9.2s8.2,3.6,8.2,9.2c0,5.6-3.3,9.2-8.2,9.2S1174,1441.3,1174,1435.8z
		 M1187.2,1435.8c0-4.1-1.9-6.6-5-6.6c-3.2,0-5,2.5-5,6.6s1.9,6.6,5,6.6C1185.3,1442.4,1187.2,1439.9,1187.2,1435.8z"/>
	<path class="st6" d="M1201.7,1445c-1.6,0-3.3-0.4-4.5-1.5c-1.1-1.1-1.6-2.7-1.6-5.6V1427h3.1v10.8c0,3.8,1.8,4.7,3.7,4.7
		c3.7,0,4.6-3.7,4.6-6.3v-9.2h3v17.6h-2.8v-3.3C1206.4,1443,1204.3,1445,1201.7,1445z"/>
	<path class="st6" d="M1225,1426.5c1.4,0,3.1,0.4,4.3,1.5c1.2,1.1,1.7,2.8,1.7,5.6v10.9h-3v-10.7c0-3.8-1.9-4.7-3.7-4.7
		c-4,0-4.9,3.7-4.9,6.2v9.2h-3V1427h2.8v3.5C1220.1,1428.2,1222.1,1426.5,1225,1426.5z"/>
	<path class="st6" d="M1251.2,1419.1v25.5h-2.8v-3.3c-1.1,2.3-2.7,3.7-5.6,3.7c-4.4,0-7.2-3.7-7.2-9.2c0-5.5,3.1-9.2,7.7-9.2
		c2.4,0,4.1,1.3,5,3v-10.5H1251.2z M1243.5,1429.2c-3,0-4.8,2.4-4.8,6.5c0,4.1,1.8,6.6,4.7,6.6c3,0,4.9-2.4,4.9-6.2v-0.8
		C1248.3,1431.6,1246.5,1429.2,1243.5,1429.2z"/>
	<path class="st6" d="M1278.1,1427h5v-4.6l3-1.3v5.9h6.9v2.4h-6.9v9.1c0,2.4,1.1,3.5,3.4,3.5c1.2,0,2.4-0.1,3.5-0.3v2.7
		c-0.9,0.2-1.9,0.5-3.4,0.5c-4.4,0-6.4-2.5-6.4-5.9v-9.5h-5V1427z"/>
	<path class="st6" d="M1307.9,1426.5c1.4,0,3.1,0.4,4.3,1.5c1.1,1.1,1.7,2.7,1.7,5.6v10.9h-3v-10.7c0-3.8-1.9-4.7-3.8-4.7
		c-3.8,0-4.8,3.7-4.8,6.2v9.2h-3v-25.5h3v11.1C1303.2,1428.1,1305.4,1426.5,1307.9,1426.5z"/>
	<path class="st6" d="M1334.8,1436.5h-12.3c0,3.3,1.9,5.8,5.2,5.8c2.3,0,3.8-1.4,4.6-3.1l2.5,1.3c-1.5,2.9-3.9,4.4-7.2,4.4
		c-5.5,0-8.2-3.8-8.2-9.6c0-5.4,3.1-8.9,8-8.9c5.4,0,7.5,3.9,7.5,8.7C1334.8,1435.6,1334.8,1436.1,1334.8,1436.5z M1327.2,1428.9
		c-3.2,0-4.8,2.6-4.8,5.2h9.3C1331.8,1431.3,1330.4,1428.9,1327.2,1428.9z"/>
	<path class="st6" d="M843.6,1484.3h5.6v-20.6H844v-2.5h8.3v23h5.9v2.5h-14.6V1484.3z"/>
	<path class="st6" d="M878.1,1486.8H875c-0.1-1-0.2-2.1-0.3-3.2c-1.2,2.5-3.1,3.6-5.9,3.6c-3.5,0-5.9-2.1-5.9-5.2
		c0-1.8,0.8-3.2,2.5-4.2c1.2-0.6,3.1-1.1,6-1.4l3.2-0.4v-0.3c0-3.1-1.2-4.5-3.8-4.5c-2.5,0-4,1.3-4.1,3.5h-3.2
		c0.3-3.8,3.1-5.9,7.5-5.9c4.5,0,6.6,2.3,6.6,7.3v4.7C877.5,1483.6,877.7,1485.5,878.1,1486.8z M870.3,1478.8
		c-3.1,0.4-4.3,1.3-4.3,3.1c0,1.8,1.2,2.9,3.3,2.9c3.2,0,5.2-2.2,5.2-5.6v-0.9L870.3,1478.8z"/>
	<path class="st6" d="M887.6,1472.2c1-2,3.1-3.5,5.4-3.5c4.5,0,7.2,3.8,7.2,9.2c0,5.5-2.8,9.2-7.4,9.2c-2.4,0-4.5-1.3-5.5-3.4
		l-0.5,3h-2.3v-25.5h3V1472.2z M892.2,1484.6c3.1,0,4.9-2.6,4.9-6.6c0-3.9-1.7-6.5-4.8-6.5c-3,0-4.7,2.4-4.7,6.2v0.9
		C887.6,1482.1,889.3,1484.6,892.2,1484.6z"/>
	<path class="st6" d="M925.9,1481.4l3-0.5c0.5,2.6,2.1,3.9,4.7,3.9c2.4,0,3.7-1,3.7-2.6c0-1.8-0.9-2.5-2.8-2.7l-2.8-0.3
		c-3.5-0.4-5.1-2.4-5.1-5.1c0-3.2,2.5-5.2,6.7-5.2c4,0,6.7,2.1,7.1,5.3l-3,0.7c-0.4-2.1-1.8-3.6-4.2-3.6c-2.3,0-3.7,0.9-3.7,2.6
		c0,1.5,1,2.4,3.2,2.7l2.8,0.3c3.5,0.4,4.9,2.2,4.9,5c0,3.3-2.5,5.4-6.8,5.4C929.4,1487.2,926.6,1485.1,925.9,1481.4z"/>
	<path class="st6" d="M945.7,1478c0-5.6,3.3-9.2,8.2-9.2s8.2,3.6,8.2,9.2c0,5.6-3.3,9.2-8.2,9.2S945.7,1483.5,945.7,1478z
		 M958.9,1478c0-4.1-1.9-6.6-5-6.6c-3.2,0-5,2.5-5,6.6s1.9,6.6,5,6.6C957,1484.6,958.9,1482.1,958.9,1478z"/>
	<path class="st6" d="M995.7,1483.3l4.9-14.1h3.2l-7,18.7c-1.6,4.5-3.7,5.9-6.7,5.9c-0.5,0-1.1,0-1.6-0.1v-2.6
		c0.5,0,0.9,0.1,1.3,0.1c2.1,0,3.2-0.9,4-3.3l0.5-1.3l-6.9-17.4h3.4L995.7,1483.3z"/>
	<path class="st6" d="M1007.9,1478c0-5.6,3.3-9.2,8.2-9.2s8.2,3.6,8.2,9.2c0,5.6-3.3,9.2-8.2,9.2S1007.9,1483.5,1007.9,1478z
		 M1021.2,1478c0-4.1-1.9-6.6-5-6.6c-3.2,0-5,2.5-5,6.6s1.9,6.6,5,6.6C1019.3,1484.6,1021.2,1482.1,1021.2,1478z"/>
	<path class="st6" d="M1035.7,1487.2c-1.6,0-3.3-0.4-4.5-1.5c-1.1-1.1-1.6-2.7-1.6-5.6v-10.9h3.1v10.8c0,3.8,1.8,4.7,3.7,4.7
		c3.7,0,4.6-3.7,4.6-6.3v-9.2h3v17.6h-2.8v-3.3C1040.3,1485.2,1038.3,1487.2,1035.7,1487.2z"/>
	<path class="st6" d="M1077.2,1487.2c-1.6,0-3.3-0.4-4.5-1.5c-1.1-1.1-1.6-2.7-1.6-5.6v-10.9h3.1v10.8c0,3.8,1.8,4.7,3.7,4.7
		c3.7,0,4.6-3.7,4.6-6.3v-9.2h3v17.6h-2.8v-3.3C1081.8,1485.2,1079.8,1487.2,1077.2,1487.2z"/>
	<path class="st6" d="M1100.5,1468.8c1.4,0,3.1,0.4,4.3,1.5c1.2,1.1,1.7,2.8,1.7,5.6v10.9h-3v-10.7c0-3.8-1.9-4.7-3.7-4.7
		c-4,0-4.9,3.7-4.9,6.2v9.2h-3v-17.6h2.8v3.5C1095.6,1470.5,1097.5,1468.8,1100.5,1468.8z"/>
	<path class="st6" d="M1126.7,1461.3v25.5h-2.8v-3.3c-1.1,2.3-2.7,3.7-5.6,3.7c-4.4,0-7.2-3.7-7.2-9.2c0-5.5,3.1-9.2,7.7-9.2
		c2.4,0,4.1,1.3,5,3v-10.5H1126.7z M1119,1471.4c-3,0-4.8,2.4-4.8,6.5c0,4.1,1.8,6.6,4.7,6.6c3,0,4.9-2.4,4.9-6.2v-0.8
		C1123.8,1473.8,1121.9,1471.4,1119,1471.4z"/>
	<path class="st6" d="M1148,1478.8h-12.3c0,3.3,1.9,5.8,5.2,5.8c2.3,0,3.8-1.4,4.6-3.1l2.5,1.3c-1.5,2.9-3.9,4.4-7.2,4.4
		c-5.5,0-8.2-3.8-8.2-9.6c0-5.4,3.1-8.9,8-8.9c5.4,0,7.5,3.9,7.5,8.7C1148,1477.8,1148,1478.3,1148,1478.8z M1140.4,1471.1
		c-3.2,0-4.8,2.6-4.8,5.2h9.3C1145,1473.5,1143.6,1471.1,1140.4,1471.1z"/>
	<path class="st6" d="M1166.1,1468.8c1.3,0,2.4,0.1,3.2,0.4v2.8c-0.7-0.2-2-0.4-3.3-0.4c-4.2,0-7.6,2.9-7.6,8.6v6.5h-3v-17.6h3v4.6
		C1159.6,1471,1162.5,1468.8,1166.1,1468.8z"/>
	<path class="st6" d="M1175,1481.4l3-0.5c0.5,2.6,2.1,3.9,4.7,3.9c2.4,0,3.7-1,3.7-2.6c0-1.8-0.9-2.5-2.8-2.7l-2.8-0.3
		c-3.5-0.4-5.1-2.4-5.1-5.1c0-3.2,2.5-5.2,6.7-5.2c4,0,6.7,2.1,7.1,5.3l-3,0.7c-0.4-2.1-1.8-3.6-4.2-3.6c-2.3,0-3.7,0.9-3.7,2.6
		c0,1.5,1,2.4,3.2,2.7l2.8,0.3c3.5,0.4,4.9,2.2,4.9,5c0,3.3-2.5,5.4-6.8,5.4C1178.4,1487.2,1175.6,1485.1,1175,1481.4z"/>
	<path class="st6" d="M1195.1,1469.2h5v-4.6l3-1.3v5.9h6.9v2.4h-6.9v9.1c0,2.4,1.1,3.5,3.4,3.5c1.2,0,2.4-0.1,3.5-0.3v2.7
		c-0.9,0.2-1.9,0.5-3.4,0.5c-4.4,0-6.4-2.5-6.4-5.9v-9.5h-5V1469.2z"/>
	<path class="st6" d="M1230.9,1486.8h-3.1c-0.1-1-0.2-2.1-0.3-3.2c-1.2,2.5-3.1,3.6-5.9,3.6c-3.5,0-5.9-2.1-5.9-5.2
		c0-1.8,0.8-3.2,2.5-4.2c1.2-0.6,3.1-1.1,6-1.4l3.2-0.4v-0.3c0-3.1-1.2-4.5-3.8-4.5c-2.5,0-4,1.3-4.1,3.5h-3.2
		c0.3-3.8,3.1-5.9,7.5-5.9c4.5,0,6.6,2.3,6.6,7.3v4.7C1230.3,1483.6,1230.5,1485.5,1230.9,1486.8z M1223.1,1478.8
		c-3.1,0.4-4.3,1.3-4.3,3.1c0,1.8,1.2,2.9,3.3,2.9c3.2,0,5.2-2.2,5.2-5.6v-0.9L1223.1,1478.8z"/>
	<path class="st6" d="M1245.8,1468.8c1.4,0,3.1,0.4,4.3,1.5c1.2,1.1,1.7,2.8,1.7,5.6v10.9h-3v-10.7c0-3.8-1.9-4.7-3.7-4.7
		c-4,0-4.9,3.7-4.9,6.2v9.2h-3v-17.6h2.8v3.5C1240.9,1470.5,1242.8,1468.8,1245.8,1468.8z"/>
	<path class="st6" d="M1272,1461.3v25.5h-2.8v-3.3c-1.1,2.3-2.7,3.7-5.6,3.7c-4.4,0-7.2-3.7-7.2-9.2c0-5.5,3.1-9.2,7.7-9.2
		c2.4,0,4.1,1.3,5,3v-10.5H1272z M1264.3,1471.4c-3,0-4.8,2.4-4.8,6.5c0,4.1,1.8,6.6,4.7,6.6c3,0,4.9-2.4,4.9-6.2v-0.8
		C1269,1473.8,1267.2,1471.4,1264.3,1471.4z"/>
	<path class="st6" d="M1313.9,1486.8h-3.1c-0.1-1-0.2-2.1-0.3-3.2c-1.2,2.5-3.1,3.6-5.9,3.6c-3.5,0-5.9-2.1-5.9-5.2
		c0-1.8,0.8-3.2,2.5-4.2c1.2-0.6,3.1-1.1,6-1.4l3.2-0.4v-0.3c0-3.1-1.2-4.5-3.8-4.5c-2.5,0-4,1.3-4.1,3.5h-3.2
		c0.3-3.8,3.1-5.9,7.5-5.9c4.5,0,6.6,2.3,6.6,7.3v4.7C1313.3,1483.6,1313.5,1485.5,1313.9,1486.8z M1306.2,1478.8
		c-3.1,0.4-4.3,1.3-4.3,3.1c0,1.8,1.2,2.9,3.3,2.9c3.2,0,5.2-2.2,5.2-5.6v-0.9L1306.2,1478.8z"/>
	<path class="st6" d="M1344.2,1472.2c1-2,3.1-3.5,5.4-3.5c4.5,0,7.2,3.8,7.2,9.2c0,5.5-2.8,9.2-7.4,9.2c-2.4,0-4.5-1.3-5.5-3.4
		l-0.5,3h-2.3v-25.5h3V1472.2z M1348.8,1484.6c3.1,0,4.9-2.6,4.9-6.6c0-3.9-1.7-6.5-4.8-6.5c-3,0-4.7,2.4-4.7,6.2v0.9
		C1344.1,1482.1,1345.9,1484.6,1348.8,1484.6z"/>
	<path class="st6" d="M1362.4,1484.3h5.6v-12.7h-5.1v-2.5h8.1v15.1h5.9v2.5h-14.6V1484.3z M1371.4,1465.7h-4.2v-4.2h4.2V1465.7z"/>
	<path class="st6" d="M1381.9,1469.2h5v-4.6l3-1.3v5.9h6.9v2.4h-6.9v9.1c0,2.4,1.1,3.5,3.4,3.5c1.2,0,2.4-0.1,3.5-0.3v2.7
		c-0.9,0.2-1.9,0.5-3.4,0.5c-4.4,0-6.4-2.5-6.4-5.9v-9.5h-5V1469.2z"/>
	<path class="st6" d="M847.4,1511c1.7,0,3.1,1.2,3.7,3.2c0.8-2,2.4-3.2,4.2-3.2c2.2,0,4.2,1.5,4.2,5.2v12.8h-3v-12.5
		c0-2.3-1.1-2.8-2.1-2.8c-2.1,0-2.8,1.5-2.8,3.7v11.6h-2.9v-12.5c0-2.1-0.9-2.8-2.1-2.8c-2,0-2.7,1.6-2.7,3.7v11.6h-3v-17.6h2.8v2.7
		C844.3,1512.2,845.7,1511,847.4,1511z"/>
	<path class="st6" d="M862.7,1520.2c0-5.6,3.3-9.2,8.2-9.2s8.2,3.6,8.2,9.2c0,5.6-3.3,9.2-8.2,9.2S862.7,1525.7,862.7,1520.2z
		 M875.9,1520.2c0-4.1-1.9-6.6-5-6.6c-3.2,0-5,2.5-5,6.6s1.9,6.6,5,6.6C874,1526.8,875.9,1524.3,875.9,1520.2z"/>
	<path class="st6" d="M896.3,1511c1.3,0,2.4,0.1,3.2,0.4v2.8c-0.7-0.2-2-0.4-3.3-0.4c-4.2,0-7.6,2.9-7.6,8.6v6.5h-3v-17.6h3v4.6
		C889.8,1513.2,892.7,1511,896.3,1511z"/>
	<path class="st6" d="M919.7,1521h-12.3c0,3.3,1.9,5.8,5.2,5.8c2.3,0,3.8-1.4,4.6-3.1l2.5,1.3c-1.5,2.9-3.9,4.4-7.2,4.4
		c-5.5,0-8.2-3.8-8.2-9.6c0-5.4,3.1-8.9,8-8.9c5.4,0,7.5,3.9,7.5,8.7C919.8,1520,919.7,1520.5,919.7,1521z M912.2,1513.3
		c-3.2,0-4.8,2.6-4.8,5.2h9.3C916.7,1515.7,915.3,1513.3,912.2,1513.3z"/>
	<path class="st6" d="M945.7,1520.2c0-5.6,3.3-9.2,8.2-9.2s8.2,3.6,8.2,9.2c0,5.6-3.3,9.2-8.2,9.2S945.7,1525.7,945.7,1520.2z
		 M958.9,1520.2c0-4.1-1.9-6.6-5-6.6c-3.2,0-5,2.5-5,6.6s1.9,6.6,5,6.6C957,1526.8,958.9,1524.3,958.9,1520.2z"/>
	<path class="st6" d="M982,1513.8h-6.7v15.2h-3v-15.2h-5.4v-2.4h5.4v-1.9c0-4,2.3-6.1,6.6-6.1c1,0,1.9,0.1,3.1,0.4v2.6
		c-0.8-0.1-1.7-0.3-3.1-0.3c-2.7,0-3.6,0.9-3.6,3.6v1.7h6.7V1513.8z"/>
	<path class="st6" d="M1009.3,1511.4l1.8,12.1l0.4,2.5h0.2c0.1-0.8,0.2-1.4,0.6-3l2.3-11.6h3.1l2.3,11.6c0.3,1.6,0.4,2.1,0.6,3h0.2
		l0.4-2.5l1.8-12.1h3.1l-3.4,17.6h-3.8l-2.3-11.4c-0.1-0.7-0.3-2.2-0.3-2.9h-0.2c0,0.7-0.2,2.2-0.3,2.9l-2.3,11.4h-3.8l-3.4-17.6
		H1009.3z"/>
	<path class="st6" d="M1038.1,1511c1.4,0,3.1,0.4,4.3,1.5c1.1,1.1,1.7,2.7,1.7,5.6v10.9h-3v-10.7c0-3.8-1.9-4.7-3.8-4.7
		c-3.8,0-4.8,3.7-4.8,6.2v9.2h-3v-25.5h3v11.1C1033.4,1512.5,1035.6,1511,1038.1,1511z"/>
	<path class="st6" d="M1049.4,1520.2c0-5.6,3.3-9.2,8.2-9.2s8.2,3.6,8.2,9.2c0,5.6-3.3,9.2-8.2,9.2S1049.4,1525.7,1049.4,1520.2z
		 M1062.7,1520.2c0-4.1-1.9-6.6-5-6.6c-3.2,0-5,2.5-5,6.6s1.9,6.6,5,6.6C1060.8,1526.8,1062.7,1524.3,1062.7,1520.2z"/>
	<path class="st6" d="M1099.4,1525.5l4.9-14.1h3.2l-7,18.7c-1.6,4.5-3.7,5.9-6.7,5.9c-0.5,0-1.1,0-1.6-0.1v-2.6
		c0.5,0,0.9,0.1,1.3,0.1c2.1,0,3.2-0.9,4-3.3l0.5-1.3l-6.9-17.4h3.4L1099.4,1525.5z"/>
	<path class="st6" d="M1111.7,1520.2c0-5.6,3.3-9.2,8.2-9.2s8.2,3.6,8.2,9.2c0,5.6-3.3,9.2-8.2,9.2S1111.7,1525.7,1111.7,1520.2z
		 M1124.9,1520.2c0-4.1-1.9-6.6-5-6.6c-3.2,0-5,2.5-5,6.6s1.9,6.6,5,6.6C1123.1,1526.8,1124.9,1524.3,1124.9,1520.2z"/>
	<path class="st6" d="M1139.4,1529.4c-1.6,0-3.3-0.4-4.5-1.5c-1.1-1.1-1.6-2.7-1.6-5.6v-10.9h3.1v10.8c0,3.8,1.8,4.7,3.7,4.7
		c3.7,0,4.6-3.7,4.6-6.3v-9.2h3v17.6h-2.8v-3.3C1144.1,1527.4,1142,1529.4,1139.4,1529.4z"/>
	<path class="st6" d="M1189.4,1529h-3.1c-0.1-1-0.2-2.1-0.3-3.2c-1.2,2.5-3.1,3.6-5.9,3.6c-3.5,0-5.9-2.1-5.9-5.2
		c0-1.8,0.8-3.2,2.5-4.2c1.2-0.6,3.1-1.1,6-1.4l3.2-0.4v-0.3c0-3.1-1.2-4.5-3.8-4.5c-2.5,0-4,1.3-4.1,3.5h-3.2
		c0.3-3.8,3.1-5.9,7.5-5.9c4.5,0,6.6,2.3,6.6,7.3v4.7C1188.8,1525.9,1189,1527.7,1189.4,1529z M1181.6,1521
		c-3.1,0.4-4.3,1.3-4.3,3.1c0,1.8,1.2,2.9,3.3,2.9c3.2,0,5.2-2.2,5.2-5.6v-0.9L1181.6,1521z"/>
	<path class="st6" d="M1207.6,1511c1.3,0,2.4,0.1,3.2,0.4v2.8c-0.7-0.2-2-0.4-3.3-0.4c-4.2,0-7.6,2.9-7.6,8.6v6.5h-3v-17.6h3v4.6
		C1201.1,1513.2,1204,1511,1207.6,1511z"/>
	<path class="st6" d="M1231,1521h-12.3c0,3.3,1.9,5.8,5.2,5.8c2.3,0,3.8-1.4,4.6-3.1l2.5,1.3c-1.5,2.9-3.9,4.4-7.2,4.4
		c-5.5,0-8.2-3.8-8.2-9.6c0-5.4,3.1-8.9,8-8.9c5.4,0,7.5,3.9,7.5,8.7C1231.1,1520,1231,1520.5,1231,1521z M1223.5,1513.3
		c-3.2,0-4.8,2.6-4.8,5.2h9.3C1228,1515.7,1226.6,1513.3,1223.5,1513.3z"/>
	<path class="st6" d="M1242.3,1532.6c2-0.8,2.4-1.7,2.4-3.6h-2.6v-4.5h4.7v4.5c0,2.7-0.8,4.1-3.6,5.2L1242.3,1532.6z"/>
	<path class="st6" d="M1278.1,1511.4h5v-4.6l3-1.3v5.9h6.9v2.4h-6.9v9.1c0,2.4,1.1,3.5,3.4,3.5c1.2,0,2.4-0.1,3.5-0.3v2.7
		c-0.9,0.2-1.9,0.5-3.4,0.5c-4.4,0-6.4-2.5-6.4-5.9v-9.5h-5V1511.4z"/>
	<path class="st6" d="M1307.9,1511c1.4,0,3.1,0.4,4.3,1.5c1.1,1.1,1.7,2.7,1.7,5.6v10.9h-3v-10.7c0-3.8-1.9-4.7-3.8-4.7
		c-3.8,0-4.8,3.7-4.8,6.2v9.2h-3v-25.5h3v11.1C1303.2,1512.5,1305.4,1511,1307.9,1511z"/>
	<path class="st6" d="M1334.8,1521h-12.3c0,3.3,1.9,5.8,5.2,5.8c2.3,0,3.8-1.4,4.6-3.1l2.5,1.3c-1.5,2.9-3.9,4.4-7.2,4.4
		c-5.5,0-8.2-3.8-8.2-9.6c0-5.4,3.1-8.9,8-8.9c5.4,0,7.5,3.9,7.5,8.7C1334.8,1520,1334.8,1520.5,1334.8,1521z M1327.2,1513.3
		c-3.2,0-4.8,2.6-4.8,5.2h9.3C1331.8,1515.7,1330.4,1513.3,1327.2,1513.3z"/>
	<path class="st6" d="M1349.5,1511c1.4,0,3.1,0.4,4.3,1.5c1.2,1.1,1.7,2.8,1.7,5.6v10.9h-3v-10.7c0-3.8-1.9-4.7-3.7-4.7
		c-4,0-4.9,3.7-4.9,6.2v9.2h-3v-17.6h2.8v3.5C1344.6,1512.7,1346.6,1511,1349.5,1511z"/>
	<path class="st6" d="M1391.3,1506.6v19.7h6.3v2.6h-15.8v-2.6h6.2v-19.7h-6.2v-2.6h15.8v2.6H1391.3z"/>
	<path class="st6" d="M842,1562.3c0-5.2,2.7-9.1,8.2-9.1c3.9,0,6.7,2.3,7.1,6.3l-3.1,0.4c-0.3-2.6-1.8-4-4.3-4
		c-3.2,0-4.9,2.6-4.9,6.5c0,4,1.7,6.7,5,6.7c2.6,0,3.9-1.5,4.4-4.2l2.8,0.5c-0.6,3.6-2.8,6.4-7.2,6.4
		C844.8,1571.6,842,1567.6,842,1562.3z"/>
	<path class="st6" d="M878.1,1571.2H875c-0.1-1-0.2-2.1-0.3-3.2c-1.2,2.5-3.1,3.6-5.9,3.6c-3.5,0-5.9-2.1-5.9-5.2
		c0-1.8,0.8-3.2,2.5-4.2c1.2-0.6,3.1-1.1,6-1.4l3.2-0.4v-0.3c0-3.1-1.2-4.5-3.8-4.5c-2.5,0-4,1.3-4.1,3.5h-3.2
		c0.3-3.8,3.1-5.9,7.5-5.9c4.5,0,6.6,2.3,6.6,7.3v4.7C877.5,1568.1,877.7,1569.9,878.1,1571.2z M870.3,1563.2
		c-3.1,0.4-4.3,1.3-4.3,3.1c0,1.8,1.2,2.9,3.3,2.9c3.2,0,5.2-2.2,5.2-5.6v-0.9L870.3,1563.2z"/>
	<path class="st6" d="M893,1553.2c1.4,0,3.1,0.4,4.3,1.5c1.2,1.1,1.7,2.8,1.7,5.6v10.9h-3v-10.7c0-3.8-1.9-4.7-3.7-4.7
		c-4,0-4.9,3.7-4.9,6.2v9.2h-3v-17.6h2.8v3.5C888.1,1554.9,890,1553.2,893,1553.2z"/>
	<path class="st6" d="M925.3,1553.6h5v-4.6l3-1.3v5.9h6.9v2.4h-6.9v9.1c0,2.4,1.1,3.5,3.4,3.5c1.2,0,2.4-0.1,3.5-0.3v2.7
		c-0.9,0.2-1.9,0.5-3.4,0.5c-4.4,0-6.4-2.5-6.4-5.9v-9.5h-5V1553.6z"/>
	<path class="st6" d="M961.1,1571.2H958c-0.1-1-0.2-2.1-0.3-3.2c-1.2,2.5-3.1,3.6-5.9,3.6c-3.5,0-5.9-2.1-5.9-5.2
		c0-1.8,0.8-3.2,2.5-4.2c1.2-0.6,3.1-1.1,6-1.4l3.2-0.4v-0.3c0-3.1-1.2-4.5-3.8-4.5c-2.5,0-4,1.3-4.1,3.5h-3.2
		c0.3-3.8,3.1-5.9,7.5-5.9c4.5,0,6.6,2.3,6.6,7.3v4.7C960.5,1568.1,960.7,1569.9,961.1,1571.2z M953.3,1563.2
		c-3.1,0.4-4.3,1.3-4.3,3.1c0,1.8,1.2,2.9,3.3,2.9c3.2,0,5.2-2.2,5.2-5.6v-0.9L953.3,1563.2z"/>
	<path class="st6" d="M974,1562.6l-3.2,3.2v5.4h-3v-25.5h3v16.6l7.9-8.7h3.9l-6.4,6.8l6.9,10.8h-3.7L974,1562.6z"/>
	<path class="st6" d="M1002.7,1563.2h-12.3c0,3.3,1.9,5.8,5.2,5.8c2.3,0,3.8-1.4,4.6-3.1l2.5,1.3c-1.5,2.9-3.9,4.4-7.2,4.4
		c-5.5,0-8.2-3.8-8.2-9.6c0-5.4,3.1-8.9,8-8.9c5.4,0,7.5,3.9,7.5,8.7C1002.8,1562.3,1002.7,1562.7,1002.7,1563.2z M995.2,1555.5
		c-3.2,0-4.8,2.6-4.8,5.2h9.3C999.7,1557.9,998.3,1555.5,995.2,1555.5z"/>
	<path class="st6" d="M1037.2,1567.7l4.9-14.1h3.2l-7,18.7c-1.6,4.5-3.7,5.9-6.7,5.9c-0.5,0-1.1,0-1.6-0.1v-2.6
		c0.5,0,0.9,0.1,1.3,0.1c2.1,0,3.2-0.9,4-3.3l0.5-1.3l-6.9-17.4h3.4L1037.2,1567.7z"/>
	<path class="st6" d="M1049.4,1562.4c0-5.6,3.3-9.2,8.2-9.2s8.2,3.6,8.2,9.2c0,5.6-3.3,9.2-8.2,9.2S1049.4,1567.9,1049.4,1562.4z
		 M1062.7,1562.4c0-4.1-1.9-6.6-5-6.6c-3.2,0-5,2.5-5,6.6s1.9,6.6,5,6.6C1060.8,1569,1062.7,1566.5,1062.7,1562.4z"/>
	<path class="st6" d="M1077.2,1571.6c-1.6,0-3.3-0.4-4.5-1.5c-1.1-1.1-1.6-2.7-1.6-5.6v-10.9h3.1v10.8c0,3.8,1.8,4.7,3.7,4.7
		c3.7,0,4.6-3.7,4.6-6.3v-9.2h3v17.6h-2.8v-3.3C1081.8,1569.6,1079.8,1571.6,1077.2,1571.6z"/>
	<path class="st6" d="M1111.7,1562.4c0-5.6,3.3-9.2,8.2-9.2s8.2,3.6,8.2,9.2c0,5.6-3.3,9.2-8.2,9.2S1111.7,1567.9,1111.7,1562.4z
		 M1124.9,1562.4c0-4.1-1.9-6.6-5-6.6c-3.2,0-5,2.5-5,6.6s1.9,6.6,5,6.6C1123.1,1569,1124.9,1566.5,1124.9,1562.4z"/>
	<path class="st6" d="M1139.4,1571.6c-1.6,0-3.3-0.4-4.5-1.5c-1.1-1.1-1.6-2.7-1.6-5.6v-10.9h3.1v10.8c0,3.8,1.8,4.7,3.7,4.7
		c3.7,0,4.6-3.7,4.6-6.3v-9.2h3v17.6h-2.8v-3.3C1144.1,1569.6,1142,1571.6,1139.4,1571.6z"/>
	<path class="st6" d="M1153.6,1553.6h5v-4.6l3-1.3v5.9h6.9v2.4h-6.9v9.1c0,2.4,1.1,3.5,3.4,3.5c1.2,0,2.4-0.1,3.5-0.3v2.7
		c-0.9,0.2-1.9,0.5-3.4,0.5c-4.4,0-6.4-2.5-6.4-5.9v-9.5h-5V1553.6z"/>
	<path class="st6" d="M1175,1565.8l3-0.5c0.5,2.6,2.1,3.9,4.7,3.9c2.4,0,3.7-1,3.7-2.6c0-1.8-0.9-2.5-2.8-2.7l-2.8-0.3
		c-3.5-0.4-5.1-2.4-5.1-5.1c0-3.2,2.5-5.2,6.7-5.2c4,0,6.7,2.1,7.1,5.3l-3,0.7c-0.4-2.1-1.8-3.6-4.2-3.6c-2.3,0-3.7,0.9-3.7,2.6
		c0,1.5,1,2.4,3.2,2.7l2.8,0.3c3.5,0.4,4.9,2.2,4.9,5c0,3.3-2.5,5.4-6.8,5.4C1178.4,1571.6,1175.6,1569.5,1175,1565.8z"/>
	<path class="st6" d="M1196.4,1568.7h5.6v-12.7h-5.1v-2.5h8.1v15.1h5.9v2.5h-14.6V1568.7z M1205.3,1550.1h-4.2v-4.2h4.2V1550.1z"/>
	<path class="st6" d="M1230.5,1545.7v25.5h-2.8v-3.3c-1.1,2.3-2.7,3.7-5.6,3.7c-4.4,0-7.2-3.7-7.2-9.2c0-5.5,3.1-9.2,7.7-9.2
		c2.4,0,4.1,1.3,5,3v-10.5H1230.5z M1222.8,1555.8c-3,0-4.8,2.4-4.8,6.5c0,4.1,1.8,6.6,4.7,6.6c3,0,4.9-2.4,4.9-6.2v-0.8
		C1227.5,1558.2,1225.7,1555.8,1222.8,1555.8z"/>
	<path class="st6" d="M1251.7,1563.2h-12.3c0,3.3,1.9,5.8,5.2,5.8c2.3,0,3.8-1.4,4.6-3.1l2.5,1.3c-1.5,2.9-3.9,4.4-7.2,4.4
		c-5.5,0-8.2-3.8-8.2-9.6c0-5.4,3.1-8.9,8-8.9c5.4,0,7.5,3.9,7.5,8.7C1251.8,1562.3,1251.8,1562.7,1251.7,1563.2z M1244.2,1555.5
		c-3.2,0-4.8,2.6-4.8,5.2h9.3C1248.8,1557.9,1247.4,1555.5,1244.2,1555.5z"/>
	<path class="st6" d="M1278.1,1553.6h5v-4.6l3-1.3v5.9h6.9v2.4h-6.9v9.1c0,2.4,1.1,3.5,3.4,3.5c1.2,0,2.4-0.1,3.5-0.3v2.7
		c-0.9,0.2-1.9,0.5-3.4,0.5c-4.4,0-6.4-2.5-6.4-5.9v-9.5h-5V1553.6z"/>
	<path class="st6" d="M1298.5,1562.4c0-5.6,3.3-9.2,8.2-9.2s8.2,3.6,8.2,9.2c0,5.6-3.3,9.2-8.2,9.2S1298.5,1567.9,1298.5,1562.4z
		 M1311.7,1562.4c0-4.1-1.9-6.6-5-6.6c-3.2,0-5,2.5-5,6.6s1.9,6.6,5,6.6C1309.8,1569,1311.7,1566.5,1311.7,1562.4z"/>
	<path class="st6" d="M1341,1565.8l3-0.5c0.5,2.6,2.1,3.9,4.7,3.9c2.4,0,3.7-1,3.7-2.6c0-1.8-0.9-2.5-2.8-2.7l-2.8-0.3
		c-3.5-0.4-5.1-2.4-5.1-5.1c0-3.2,2.5-5.2,6.7-5.2c4,0,6.7,2.1,7.1,5.3l-3,0.7c-0.4-2.1-1.8-3.6-4.2-3.6c-2.3,0-3.7,0.9-3.7,2.6
		c0,1.5,1,2.4,3.2,2.7l2.8,0.3c3.5,0.4,4.9,2.2,4.9,5c0,3.3-2.5,5.4-6.8,5.4C1344.4,1571.6,1341.6,1569.5,1341,1565.8z"/>
	<path class="st6" d="M1376.3,1563.2h-12.3c0,3.3,1.9,5.8,5.2,5.8c2.3,0,3.8-1.4,4.6-3.1l2.5,1.3c-1.5,2.9-3.9,4.4-7.2,4.4
		c-5.5,0-8.2-3.8-8.2-9.6c0-5.4,3.1-8.9,8-8.9c5.4,0,7.5,3.9,7.5,8.7C1376.3,1562.3,1376.3,1562.7,1376.3,1563.2z M1368.7,1555.5
		c-3.2,0-4.8,2.6-4.8,5.2h9.3C1373.3,1557.9,1371.9,1555.5,1368.7,1555.5z"/>
	<path class="st6" d="M1397,1563.2h-12.3c0,3.3,1.9,5.8,5.2,5.8c2.3,0,3.8-1.4,4.6-3.1l2.5,1.3c-1.5,2.9-3.9,4.4-7.2,4.4
		c-5.5,0-8.2-3.8-8.2-9.6c0-5.4,3.1-8.9,8-8.9c5.4,0,7.5,3.9,7.5,8.7C1397.1,1562.3,1397,1562.7,1397,1563.2z M1389.5,1555.5
		c-3.2,0-4.8,2.6-4.8,5.2h9.3C1394.1,1557.9,1392.6,1555.5,1389.5,1555.5z"/>
	<path class="st6" d="M841.9,1604.6c0-5.6,3.3-9.2,8.2-9.2s8.2,3.6,8.2,9.2c0,5.6-3.3,9.2-8.2,9.2S841.9,1610.1,841.9,1604.6z
		 M855.1,1604.6c0-4.1-1.9-6.6-5-6.6c-3.2,0-5,2.5-5,6.6s1.9,6.6,5,6.6C853.3,1611.2,855.1,1608.8,855.1,1604.6z"/>
	<path class="st6" d="M869.6,1613.8c-1.6,0-3.3-0.4-4.5-1.5c-1.1-1.1-1.6-2.7-1.6-5.6v-10.9h3.1v10.8c0,3.8,1.8,4.7,3.7,4.7
		c3.7,0,4.6-3.7,4.6-6.3v-9.2h3v17.6H875v-3.3C874.3,1611.8,872.2,1613.8,869.6,1613.8z"/>
	<path class="st6" d="M896.3,1595.5c1.3,0,2.4,0.1,3.2,0.4v2.8c-0.7-0.2-2-0.4-3.3-0.4c-4.2,0-7.6,2.9-7.6,8.6v6.5h-3v-17.6h3v4.6
		C889.8,1597.6,892.7,1595.5,896.3,1595.5z"/>
	<path class="st6" d="M941.6,1591.2h-12v8h11.1v2.8h-11.1v11.4h-3.3v-25h15.3V1591.2z"/>
	<path class="st6" d="M947.4,1610.9h5.6v-20.6h-5.3v-2.5h8.3v23h5.9v2.5h-14.6V1610.9z"/>
	<path class="st6" d="M981.9,1613.4h-3.1c-0.1-1-0.2-2.1-0.3-3.2c-1.2,2.5-3.1,3.6-5.9,3.6c-3.5,0-5.9-2.1-5.9-5.2
		c0-1.8,0.8-3.2,2.5-4.2c1.2-0.6,3.1-1.1,6-1.4l3.2-0.4v-0.3c0-3.1-1.2-4.5-3.8-4.5c-2.5,0-4,1.3-4.1,3.5h-3.2
		c0.3-3.8,3.1-5.9,7.5-5.9c4.5,0,6.6,2.3,6.6,7.3v4.7C981.3,1610.3,981.5,1612.1,981.9,1613.4z M974.1,1605.4
		c-3.1,0.4-4.3,1.3-4.3,3.1c0,1.8,1.2,2.9,3.3,2.9c3.2,0,5.2-2.2,5.2-5.6v-0.9L974.1,1605.4z"/>
	<path class="st6" d="M987.6,1595.8h5v-4.6l3-1.3v5.9h6.9v2.4h-6.9v9.1c0,2.4,1.1,3.5,3.4,3.5c1.2,0,2.4-0.1,3.5-0.3v2.7
		c-0.9,0.2-1.9,0.5-3.4,0.5c-4.4,0-6.4-2.5-6.4-5.9v-9.5h-5V1595.8z"/>
	<path class="st6" d="M1027.6,1588.4h3.3l0.8,17.7c0.1,2.6,0.1,3.9,0.1,4.5h0.4c0-0.8,0.2-2.2,0.7-4.7l2.4-11.3h3.1l2.4,11.3
		c0.5,2.5,0.7,3.9,0.7,4.7h0.4c0-0.6,0-1.8,0.1-4.5l0.8-17.7h3.3l-1.9,25h-4.3l-2.3-10.7c-0.5-2.2-0.6-3.6-0.7-5h-0.4
		c-0.1,1.4-0.2,2.8-0.7,5l-2.3,10.7h-4.3L1027.6,1588.4z"/>
	<path class="st6" d="M1049.4,1604.6c0-5.6,3.3-9.2,8.2-9.2s8.2,3.6,8.2,9.2c0,5.6-3.3,9.2-8.2,9.2S1049.4,1610.1,1049.4,1604.6z
		 M1062.7,1604.6c0-4.1-1.9-6.6-5-6.6c-3.2,0-5,2.5-5,6.6s1.9,6.6,5,6.6C1060.8,1611.2,1062.7,1608.8,1062.7,1604.6z"/>
	<path class="st6" d="M1083.1,1595.5c1.3,0,2.4,0.1,3.2,0.4v2.8c-0.7-0.2-2-0.4-3.3-0.4c-4.2,0-7.6,2.9-7.6,8.6v6.5h-3v-17.6h3v4.6
		C1076.6,1597.6,1079.5,1595.5,1083.1,1595.5z"/>
	<path class="st6" d="M1092.6,1610.9h5.6v-20.6h-5.3v-2.5h8.3v23h5.9v2.5h-14.6V1610.9z"/>
	<path class="st6" d="M1126.7,1587.9v25.5h-2.8v-3.3c-1.1,2.3-2.7,3.7-5.6,3.7c-4.4,0-7.2-3.7-7.2-9.2c0-5.5,3.1-9.2,7.7-9.2
		c2.4,0,4.1,1.3,5,3v-10.5H1126.7z M1119,1598c-3,0-4.8,2.4-4.8,6.5c0,4.1,1.8,6.6,4.7,6.6c3,0,4.9-2.4,4.9-6.2v-0.8
		C1123.8,1600.4,1121.9,1598,1119,1598z"/>
	<path class="st6" d="M1143,1613.4h-4.7v-4.5h4.7V1613.4z"/>
</g>
</svg>
