<svg width="866" height="992" viewBox="0 0 866 992" fill="none" xmlns="http://www.w3.org/2000/svg">
<path d="M699.51 794V811.564C699.51 815.209 702.47 818.18 706.13 818.18C709.777 818.18 712.75 815.221 712.75 811.564V811.389" stroke="#00BFFF" stroke-width="3" stroke-miterlimit="10" stroke-linecap="round"/>
<path d="M712.587 811.364C712.587 815.009 715.547 817.98 719.207 817.98C722.854 817.98 725.826 815.022 725.826 811.364V811.189" stroke="#00BFFF" stroke-width="3" stroke-miterlimit="10" stroke-linecap="round"/>
<path d="M392.734 488.396H43.893C20.487 488.396 1.51489 469.435 1.51489 446.042V43.8821C1.51489 20.4893 20.487 1.52783 43.893 1.52783H392.734C416.14 1.52783 435.113 20.4893 435.113 43.8821V446.042C435.113 469.435 416.14 488.396 392.734 488.396Z" fill="#D7F7FF" stroke="#00BFFF" stroke-width="3" stroke-miterlimit="10" stroke-linecap="round" stroke-linejoin="round"/>
<path d="M40.5332 47.4266H37.5981V37.2281H29.0301V47.4266H26.095V25.0698H29.0301V34.769H37.5981V25.0698H40.5332V47.4266Z" fill="#00BFFF"/>
<path d="M43.4559 39.5627C43.4559 34.5571 46.391 31.3115 50.8 31.3115C55.2089 31.3115 58.144 34.5571 58.144 39.5627C58.144 44.5683 55.2089 47.8138 50.8 47.8138C46.391 47.8138 43.4559 44.5059 43.4559 39.5627ZM55.3088 39.5627C55.3088 35.8802 53.6352 33.6458 50.8 33.6458C47.9648 33.6458 46.2911 35.8553 46.2911 39.5627C46.2911 43.2826 47.9648 45.4795 50.8 45.4795C53.6352 45.4795 55.3088 43.2701 55.3088 39.5627Z" fill="#00BFFF"/>
<path d="M62.2031 31.686L63.8143 42.4837L64.1265 44.7181H64.3513C64.4762 43.9941 64.5762 43.4948 64.8509 42.0718L66.8993 31.686H69.6345L71.6829 42.0718C71.9702 43.4948 72.0576 43.9941 72.1825 44.7181H72.4073L72.7195 42.4837L74.3307 31.686H77.141L74.0809 47.4269H70.7087L68.6603 37.2534C68.5354 36.6292 68.4105 35.3061 68.3731 34.6694H68.1483C68.1108 35.2936 67.9859 36.6168 67.861 37.2534L65.8127 47.4269H62.4404L59.3804 31.686H62.2031Z" fill="#00BFFF"/>
<path d="M92.3161 40.249H81.2626C81.2626 43.2074 82.9612 45.4419 85.8964 45.4419C87.9822 45.4419 89.2686 44.1561 90.0555 42.6332L92.3286 43.8316C91.0047 46.4405 88.8689 47.8011 85.8964 47.8011C80.9504 47.8011 78.5273 44.4058 78.5273 39.2379C78.5273 34.4195 81.3001 31.2988 85.709 31.2988C90.5301 31.2988 92.3911 34.7566 92.3911 39.0382C92.3786 39.4376 92.3411 39.8371 92.3161 40.249ZM85.5716 33.3835C82.7114 33.3835 81.2501 35.7427 81.2501 38.0396H89.5933C89.6683 35.5305 88.4068 33.3835 85.5716 33.3835Z" fill="#00BFFF"/>
<path d="M95.4636 31.686H98.2738L102.396 42.4587C102.708 43.2451 102.995 44.0316 103.182 44.6931H103.307C103.47 44.0316 103.682 43.2451 103.994 42.4587L108.253 31.686H110.989L104.656 47.4269H101.759L95.4636 31.686Z" fill="#00BFFF"/>
<path d="M127.275 40.249H116.222C116.222 43.2074 117.92 45.4419 120.855 45.4419C122.929 45.4419 124.228 44.1561 125.015 42.6332L127.288 43.8316C125.964 46.4405 123.828 47.8011 120.855 47.8011C115.909 47.8011 113.486 44.4058 113.486 39.2379C113.486 34.4195 116.259 31.2988 120.668 31.2988C125.489 31.2988 127.35 34.7566 127.35 39.0382C127.338 39.4376 127.3 39.8371 127.275 40.249ZM120.531 33.3835C117.658 33.3835 116.209 35.7427 116.209 38.0396H124.552C124.627 35.5305 123.366 33.3835 120.531 33.3835Z" fill="#00BFFF"/>
<path d="M142.425 31.374C143.562 31.374 144.599 31.4989 145.261 31.6861V34.1702C144.636 34.0079 143.462 33.8581 142.326 33.8581C138.541 33.8581 135.519 36.4421 135.519 41.5725V47.427H132.846V31.6861H135.494V35.7805C136.568 33.2964 139.153 31.374 142.425 31.374Z" fill="#00BFFF"/>
<path d="M153.766 50.6351C155.527 49.8736 155.877 49.1496 155.877 47.427H153.579V43.395H157.763V47.427C157.763 49.8486 157.014 51.1094 154.578 52.0831L153.766 50.6351Z" fill="#00BFFF"/>
<path d="M184.217 42.5835L186.927 42.1092C187.339 44.406 188.813 45.6044 191.148 45.6044C193.259 45.6044 194.421 44.7181 194.421 43.2451C194.421 41.6723 193.596 40.9732 191.898 40.786L189.35 40.4989C186.227 40.1494 184.754 38.3893 184.754 35.9676C184.754 33.0966 187.027 31.3115 190.736 31.3115C194.333 31.3115 196.756 33.1964 197.094 36.0925L194.446 36.6916C194.096 34.8067 192.81 33.4835 190.661 33.4835C188.588 33.4835 187.351 34.3324 187.351 35.8428C187.351 37.1909 188.238 38.0148 190.187 38.2395L192.71 38.5266C195.832 38.8761 197.056 40.5114 197.056 42.9955C197.056 45.9913 194.845 47.8138 191.011 47.8138C187.277 47.8014 184.791 45.9539 184.217 42.5835Z" fill="#00BFFF"/>
<path d="M200.791 39.5627C200.791 34.5571 203.726 31.3115 208.135 31.3115C212.543 31.3115 215.479 34.5571 215.479 39.5627C215.479 44.5683 212.543 47.8138 208.135 47.8138C203.726 47.8138 200.791 44.5059 200.791 39.5627ZM212.631 39.5627C212.631 35.8802 210.957 33.6458 208.122 33.6458C205.287 33.6458 203.613 35.8553 203.613 39.5627C203.613 43.2826 205.287 45.4795 208.122 45.4795C210.957 45.4795 212.631 43.2701 212.631 39.5627Z" fill="#00BFFF"/>
<path d="M223.21 31.3115C224.759 31.3115 225.945 32.3476 226.482 34.1826C227.244 32.3601 228.655 31.3115 230.204 31.3115C232.153 31.3115 233.926 32.6597 233.926 36.0051V47.4393H231.253V36.2298C231.253 34.22 230.304 33.6833 229.392 33.6833C227.531 33.6833 226.869 35.0314 226.869 37.0162V47.4393H224.259V36.2298C224.259 34.3074 223.41 33.6833 222.398 33.6833C220.574 33.6833 219.937 35.1313 219.937 37.0162V47.4393H217.265V31.686H219.788V34.1077C220.412 32.41 221.636 31.3115 223.21 31.3115Z" fill="#00BFFF"/>
<path d="M249.638 40.249H238.585C238.585 43.2074 240.283 45.4419 243.219 45.4419C245.292 45.4419 246.591 44.1561 247.378 42.6332L249.651 43.8316C248.327 46.4405 246.191 47.8011 243.219 47.8011C238.273 47.8011 235.849 44.4058 235.849 39.2379C235.849 34.4195 238.622 31.2988 243.031 31.2988C247.852 31.2988 249.713 34.7566 249.713 39.0382C249.701 39.4376 249.676 39.8371 249.638 40.249ZM242.894 33.3835C240.021 33.3835 238.572 35.7427 238.572 38.0396H246.916C246.99 35.5305 245.729 33.3835 242.894 33.3835Z" fill="#00BFFF"/>
<path d="M270.709 39.5627C270.709 34.5571 273.644 31.3115 278.053 31.3115C282.462 31.3115 285.397 34.5571 285.397 39.5627C285.397 44.5683 282.462 47.8138 278.053 47.8138C273.644 47.8014 270.709 44.5059 270.709 39.5627ZM282.549 39.5627C282.549 35.8802 280.875 33.6458 278.04 33.6458C275.205 33.6458 273.531 35.8553 273.531 39.5627C273.531 43.2826 275.205 45.4795 278.04 45.4795C280.875 45.4795 282.549 43.2701 282.549 39.5627Z" fill="#00BFFF"/>
<path d="M302.108 33.8579H296.126V47.4268H293.453V33.8579H288.632V31.6859H293.453V29.9508C293.453 26.3558 295.464 24.5083 299.373 24.5083C300.285 24.5083 301.046 24.6082 302.108 24.8204V27.1796C301.409 27.0798 300.559 26.93 299.373 26.93C296.975 26.93 296.126 27.7538 296.126 30.1381V31.6859H302.108V33.8579Z" fill="#00BFFF"/>
<path d="M329.386 47.8014C327.937 47.8014 326.451 47.4519 325.352 46.4158C324.34 45.4421 323.903 43.9567 323.903 41.4102V31.686H326.638V41.3228C326.638 44.7556 328.275 45.5045 329.911 45.5045C333.221 45.5045 334.007 42.1966 334.007 39.8997V31.686H336.68V47.4269H334.157V44.431C333.583 46.0163 331.722 47.8014 329.386 47.8014Z" fill="#00BFFF"/>
<path d="M341.551 42.5835L344.261 42.1092C344.674 44.406 346.147 45.6044 348.483 45.6044C350.594 45.6044 351.755 44.7181 351.755 43.2451C351.755 41.6723 350.931 40.9732 349.232 40.786L346.684 40.4989C343.562 40.1494 342.088 38.3893 342.088 35.9676C342.088 33.0966 344.361 31.3115 348.071 31.3115C351.668 31.3115 354.091 33.1964 354.441 36.0925L351.793 36.6916C351.443 34.8067 350.157 33.4835 348.008 33.4835C345.935 33.4835 344.699 34.3324 344.699 35.8428C344.699 37.1909 345.585 38.0148 347.534 38.2395L350.057 38.5266C353.179 38.8761 354.403 40.5114 354.403 42.9955C354.403 45.9913 352.192 47.8138 348.358 47.8138C344.599 47.8014 342.113 45.9539 341.551 42.5835Z" fill="#00BFFF"/>
<path d="M37.698 70.7197C38.6098 71.6309 39.1094 72.8917 39.1094 74.3771C39.1094 77.5852 36.7113 79.7572 33.1892 79.7572C32.0901 79.7572 31.0784 79.5325 30.2541 79.1331C29.5921 79.4452 29.155 79.9819 29.155 80.7059C29.155 81.6796 29.9793 82.2788 31.7653 82.2788H35.8245C39.0969 82.2788 40.9579 83.889 40.9579 86.5604C40.9579 89.8683 38.0852 91.7283 33.1767 91.7283C28.7053 91.7283 26.02 90.1804 26.02 87.7338C26.02 86.0361 27.0941 84.7753 28.7553 84.2136C27.4688 83.6768 26.7694 82.7282 26.7694 81.4175C26.7694 79.9694 27.5937 78.8959 29.0426 78.3592C28.0309 77.4479 27.4688 76.1247 27.4688 74.5519C27.4688 71.3438 29.8294 69.1094 33.3266 69.1094C34.4881 69.1094 35.4998 69.359 36.3491 69.7959C36.9112 67.936 38.2101 66.8999 40.1585 66.8999C40.5082 66.8999 40.8829 66.9373 41.1702 67.0247V69.359C40.6956 69.2966 40.4083 69.2342 40.0086 69.2342C38.8596 69.2092 38.1352 69.6836 37.698 70.7197ZM31.6779 84.638C31.2033 84.638 30.7662 84.6131 30.354 84.5756C29.3173 85.05 28.6804 85.8988 28.6804 86.9723C28.6804 88.645 30.2291 89.5188 33.464 89.5188C36.8362 89.5188 38.285 88.5701 38.285 86.8475C38.285 85.4369 37.2734 84.638 35.225 84.638H31.6779ZM36.5989 74.3771C36.5989 72.4922 35.25 71.1316 33.3266 71.1316C31.3782 71.1316 30.0168 72.5172 30.0168 74.4645C30.0168 76.3869 31.3407 77.71 33.2267 77.71C35.1751 77.71 36.5989 76.2995 36.5989 74.3771Z" fill="#00BFFF"/>
<path d="M57.3571 78.0225H46.2911C46.2911 80.9809 47.9897 83.2153 50.9248 83.2153C52.9981 83.2153 54.2971 81.9296 55.0839 80.4067L57.3571 81.605C56.0331 84.2139 53.8974 85.5746 50.9248 85.5746C45.9788 85.5746 43.5558 82.1792 43.5558 77.0113C43.5558 72.193 46.3285 69.0723 50.7375 69.0723C55.5585 69.0723 57.4195 72.53 57.4195 76.8116C57.4195 77.2111 57.3821 77.623 57.3571 78.0225ZM50.6126 71.1569C47.7399 71.1569 46.2911 73.5161 46.2911 75.813H54.6343C54.7092 73.3039 53.4478 71.1569 50.6126 71.1569Z" fill="#00BFFF"/>
<path d="M61.2914 69.4589H65.8002V65.3395L68.473 64.2036V69.4589H74.618V71.6309H68.473V79.7822C68.473 81.8918 69.4847 82.9029 71.4956 82.9029C72.5322 82.9029 73.6313 82.803 74.618 82.6158V85.0749C73.7937 85.2622 72.9194 85.4869 71.5331 85.4869C67.5988 85.4869 65.8002 83.2774 65.8002 80.1692V71.6309H61.2914V69.4589Z" fill="#00BFFF"/>
<path d="M96.0007 77.2358C96.0007 72.5422 98.3988 69.0845 103.345 69.0845C106.842 69.0845 109.365 71.0942 109.74 74.7142L107.004 75.0263C106.717 72.692 105.393 71.4063 103.157 71.4063C100.26 71.4063 98.7735 73.7406 98.7735 77.1983C98.7735 80.7934 100.26 83.215 103.245 83.215C105.543 83.215 106.767 81.8294 107.154 79.4327L109.702 79.8447C109.203 83.0528 107.154 85.5743 103.245 85.5743C98.4487 85.5868 96.0007 81.9668 96.0007 77.2358Z" fill="#00BFFF"/>
<path d="M113.387 77.3356C113.387 72.33 116.322 69.0845 120.731 69.0845C125.14 69.0845 128.075 72.33 128.075 77.3356C128.075 82.3412 125.14 85.5868 120.731 85.5868C116.322 85.5868 113.387 82.2788 113.387 77.3356ZM125.227 77.3356C125.227 73.6532 123.553 71.4188 120.718 71.4188C117.883 71.4188 116.209 73.6282 116.209 77.3356C116.209 81.0555 117.883 83.2525 120.718 83.2525C123.553 83.2525 125.227 81.043 125.227 77.3356Z" fill="#00BFFF"/>
<path d="M142.425 69.147C143.562 69.147 144.599 69.2718 145.261 69.459V71.9431C144.636 71.7809 143.462 71.6311 142.326 71.6311C138.541 71.6311 135.519 74.215 135.519 79.3455V85.1999H132.846V69.459H135.494V73.5534C136.568 71.0693 139.153 69.147 142.425 69.147Z" fill="#00BFFF"/>
<path d="M159.911 69.147C161.048 69.147 162.084 69.2718 162.746 69.459V71.9431C162.122 71.7809 160.948 71.6311 159.811 71.6311C156.027 71.6311 153.004 74.215 153.004 79.3455V85.1999H150.332V69.459H152.979V73.5534C154.041 71.0693 156.626 69.147 159.911 69.147Z" fill="#00BFFF"/>
<path d="M172.064 85.587C170.615 85.587 169.129 85.2375 168.03 84.2014C167.018 83.2278 166.581 81.7423 166.581 79.1958V69.4717H169.316V79.1084C169.316 82.5412 170.952 83.2902 172.588 83.2902C175.898 83.2902 176.685 79.9822 176.685 77.6854V69.4717H179.358V85.2125H176.835V82.2167C176.248 83.7895 174.387 85.587 172.064 85.587Z" fill="#00BFFF"/>
<path d="M186.927 72.3924C187.751 70.6573 189.637 69.0845 191.873 69.0845C195.994 69.0845 198.43 72.5173 198.43 77.2982C198.43 82.2164 195.907 85.5743 191.723 85.5743C189.774 85.5743 187.813 84.376 187.089 82.7033V91.3289H184.416V69.459H186.939V72.3924H186.927ZM191.273 83.215C194.008 83.215 195.595 80.8808 195.595 77.2982C195.595 73.803 194.146 71.4437 191.373 71.4437C188.725 71.4437 187.027 73.5533 187.027 76.9237V77.6851C187.027 81.0181 188.625 83.215 191.273 83.215Z" fill="#00BFFF"/>
<path d="M201.128 69.4589H205.637V65.3395L208.309 64.2036V69.4589H214.454V71.6309H208.309V79.7822C208.309 81.8918 209.321 82.9029 211.332 82.9029C212.369 82.9029 213.468 82.803 214.454 82.6158V85.0749C213.63 85.2622 212.756 85.4869 211.369 85.4869C207.435 85.4869 205.637 83.2774 205.637 80.1692V71.6309H201.128V69.4589Z" fill="#00BFFF"/>
<path d="M232.153 78.0225H221.099C221.099 80.9809 222.798 83.2153 225.733 83.2153C227.819 83.2153 229.105 81.9296 229.892 80.4067L232.165 81.605C230.841 84.2139 228.705 85.5746 225.733 85.5746C220.787 85.5746 218.364 82.1792 218.364 77.0113C218.364 72.193 221.137 69.0723 225.545 69.0723C230.367 69.0723 232.228 72.53 232.228 76.8116C232.215 77.2111 232.19 77.623 232.153 78.0225ZM225.421 71.1569C222.548 71.1569 221.099 73.5161 221.099 75.813H229.442C229.517 73.3039 228.256 71.1569 225.421 71.1569Z" fill="#00BFFF"/>
<path d="M249.164 62.3813V85.2125H246.641V82.279C245.692 84.3262 244.218 85.5869 241.632 85.5869C237.698 85.5869 235.138 82.3164 235.138 77.3108C235.138 72.3676 237.873 69.0971 242.032 69.0971C244.18 69.0971 245.692 70.258 246.478 71.8059V62.3938H249.164V62.3813ZM242.294 71.4439C239.584 71.4439 237.973 73.6159 237.973 77.2983C237.973 80.9558 239.584 83.2152 242.194 83.2152C244.867 83.2152 246.541 81.0682 246.541 77.6728V76.9613C246.553 73.5909 244.917 71.4439 242.294 71.4439Z" fill="#00BFFF"/>
<path d="M274.493 72.2053C275.342 70.3828 277.228 69.0846 279.339 69.0846C283.398 69.0846 285.834 72.5174 285.834 77.2983C285.834 82.2166 283.348 85.5744 279.252 85.5744C277.141 85.5744 275.193 84.4136 274.343 82.4912L273.869 85.2H271.82V62.3813H274.493V72.2053ZM278.615 83.2152C281.35 83.2152 282.999 80.8809 282.999 77.2983C282.999 73.8031 281.45 71.4439 278.677 71.4439C276.004 71.4439 274.418 73.5535 274.418 76.9488V77.7727C274.431 81.0432 275.967 83.2152 278.615 83.2152Z" fill="#00BFFF"/>
<path d="M295.776 82.0918L300.16 69.4717H303.033L296.738 86.2236C295.289 90.2182 293.403 91.5413 290.755 91.5413C290.28 91.5413 289.806 91.5039 289.306 91.4165V89.0573C289.718 89.0947 290.093 89.1197 290.443 89.1197C292.366 89.1197 293.34 88.2708 294.065 86.1862L294.477 85.0253L288.332 69.4717H291.354L295.776 82.0918Z" fill="#00BFFF"/>
<path d="M29.6047 110.165C30.429 108.43 32.315 106.857 34.5507 106.857C38.6723 106.857 41.1079 110.29 41.1079 115.071C41.1079 119.989 38.5849 123.347 34.4008 123.347C32.4524 123.347 30.4915 122.149 29.7671 120.476V129.102H27.0942V107.219H29.6172V110.165H29.6047ZM33.9512 121C36.6864 121 38.2727 118.666 38.2727 115.084C38.2727 111.588 36.8238 109.229 34.0511 109.229C31.4032 109.229 29.7046 111.339 29.7046 114.709V115.471C29.6921 118.791 31.3033 121 33.9512 121Z" fill="#00BFFF"/>
<path d="M57.3571 115.795H46.2911C46.2911 118.754 47.9897 120.988 50.9248 120.988C52.9981 120.988 54.2971 119.703 55.0839 118.18L57.3571 119.378C56.0331 121.987 53.8974 123.348 50.9248 123.348C45.9788 123.348 43.5558 119.952 43.5558 114.784C43.5558 109.966 46.3285 106.845 50.7375 106.845C55.5585 106.845 57.4195 110.303 57.4195 114.585C57.4195 114.984 57.3821 115.396 57.3571 115.795ZM50.6126 108.942C47.7399 108.942 46.2911 111.302 46.2911 113.598H54.6343C54.7092 111.077 53.4478 108.942 50.6126 108.942Z" fill="#00BFFF"/>
<path d="M60.9417 115.109C60.9417 110.103 63.8768 106.857 68.2857 106.857C72.6946 106.857 75.6297 110.103 75.6297 115.109C75.6297 120.114 72.6946 123.36 68.2857 123.36C63.8768 123.36 60.9417 120.052 60.9417 115.109ZM72.782 115.109C72.782 111.426 71.1084 109.192 68.2732 109.192C65.438 109.192 63.7644 111.401 63.7644 115.109C63.7644 118.828 65.438 121.025 68.2732 121.025C71.1209 121.025 72.782 118.828 72.782 115.109Z" fill="#00BFFF"/>
<path d="M82.0495 110.165C82.8739 108.43 84.7598 106.857 86.9955 106.857C91.1172 106.857 93.5527 110.29 93.5527 115.071C93.5527 119.989 91.0297 123.347 86.8456 123.347C84.8972 123.347 82.9363 122.149 82.2119 120.476V129.102H79.5391V107.219H82.062V110.165H82.0495ZM86.396 121C89.1313 121 90.7175 118.666 90.7175 115.084C90.7175 111.588 89.2687 109.229 86.4959 109.229C83.8481 109.229 82.1494 111.339 82.1494 114.709V115.471C82.137 118.791 83.7481 121 86.396 121Z" fill="#00BFFF"/>
<path d="M97.4121 120.776H102.458V102.351H97.7368V100.142H105.143V120.763H110.464V122.973H97.4246V120.776H97.4121Z" fill="#00BFFF"/>
<path d="M127.275 115.795H116.222C116.222 118.754 117.92 120.988 120.855 120.988C122.929 120.988 124.228 119.703 125.015 118.18L127.288 119.378C125.964 121.987 123.828 123.348 120.855 123.348C115.909 123.348 113.486 119.952 113.486 114.784C113.486 109.966 116.259 106.845 120.668 106.845C125.489 106.845 127.35 110.303 127.35 114.585C127.338 114.984 127.3 115.396 127.275 115.795ZM120.531 108.942C117.658 108.942 116.209 111.302 116.209 113.598H124.552C124.627 111.077 123.366 108.942 120.531 108.942Z" fill="#00BFFF"/>
<path d="M151.968 110.165C152.792 108.43 154.678 106.857 156.914 106.857C161.035 106.857 163.471 110.29 163.471 115.071C163.471 119.989 160.948 123.347 156.764 123.347C154.815 123.347 152.855 122.149 152.13 120.476V129.102H149.457V107.219H151.98V110.165H151.968ZM156.314 121C159.049 121 160.636 118.666 160.636 115.084C160.636 111.588 159.187 109.229 156.414 109.229C153.766 109.229 152.068 111.339 152.068 114.709V115.471C152.055 118.791 153.666 121 156.314 121Z" fill="#00BFFF"/>
<path d="M179.72 115.795H168.667C168.667 118.754 170.365 120.988 173.3 120.988C175.386 120.988 176.673 119.703 177.46 118.18L179.733 119.378C178.409 121.987 176.273 123.348 173.3 123.348C168.354 123.348 165.931 119.952 165.931 114.784C165.931 109.966 168.704 106.845 173.113 106.845C177.934 106.845 179.795 110.303 179.795 114.585C179.783 114.984 179.745 115.396 179.72 115.795ZM172.976 108.942C170.103 108.942 168.654 111.302 168.654 113.598H176.997C177.072 111.077 175.811 108.942 172.976 108.942Z" fill="#00BFFF"/>
<path d="M183.305 115.109C183.305 110.103 186.24 106.857 190.649 106.857C195.058 106.857 197.993 110.103 197.993 115.109C197.993 120.114 195.058 123.36 190.649 123.36C186.24 123.36 183.305 120.052 183.305 115.109ZM195.145 115.109C195.145 111.426 193.471 109.192 190.636 109.192C187.801 109.192 186.127 111.401 186.127 115.109C186.127 118.828 187.801 121.025 190.636 121.025C193.471 121.025 195.145 118.828 195.145 115.109Z" fill="#00BFFF"/>
<path d="M204.413 110.165C205.237 108.43 207.123 106.857 209.359 106.857C213.48 106.857 215.916 110.29 215.916 115.071C215.916 119.989 213.393 123.347 209.209 123.347C207.26 123.347 205.299 122.149 204.575 120.476V129.102H201.902V107.219H204.425V110.165H204.413ZM208.759 121C211.494 121 213.081 118.666 213.081 115.084C213.081 111.588 211.632 109.229 208.859 109.229C206.211 109.229 204.512 111.339 204.512 114.709V115.471C204.5 118.791 206.111 121 208.759 121Z" fill="#00BFFF"/>
<path d="M219.775 120.776H224.821V102.351H220.1V100.142H227.506V120.763H232.827V122.973H219.775V120.776Z" fill="#00BFFF"/>
<path d="M249.638 115.795H238.585C238.585 118.754 240.283 120.988 243.219 120.988C245.292 120.988 246.591 119.703 247.378 118.18L249.651 119.378C248.327 121.987 246.191 123.348 243.219 123.348C238.273 123.348 235.849 119.952 235.849 114.784C235.849 109.966 238.622 106.845 243.031 106.845C247.852 106.845 249.713 110.303 249.713 114.585C249.701 114.984 249.676 115.396 249.638 115.795ZM242.894 108.942C240.021 108.942 238.572 111.302 238.572 113.598H246.916C246.99 111.077 245.729 108.942 242.894 108.942Z" fill="#00BFFF"/>
<path d="M270.709 115.109C270.709 110.103 273.644 106.857 278.053 106.857C282.462 106.857 285.397 110.103 285.397 115.109C285.397 120.114 282.462 123.36 278.053 123.36C273.644 123.36 270.709 120.052 270.709 115.109ZM282.549 115.109C282.549 111.426 280.875 109.192 278.04 109.192C275.205 109.192 273.531 111.401 273.531 115.109C273.531 118.828 275.205 121.025 278.04 121.025C280.875 121.025 282.549 118.828 282.549 115.109Z" fill="#00BFFF"/>
<path d="M296.725 106.857C298.011 106.857 299.46 107.207 300.534 108.206C301.571 109.179 302.046 110.69 302.046 113.249V122.973H299.373V113.398C299.373 109.966 297.674 109.217 296.101 109.217C292.541 109.217 291.692 112.525 291.692 114.759V122.973H289.019V107.232H291.542V110.353C292.354 108.368 294.077 106.857 296.725 106.857Z" fill="#00BFFF"/>
<path d="M323.503 107.232H328.012V103.113L330.685 101.977V107.232H336.83V109.404H330.685V117.556C330.685 119.665 331.697 120.676 333.708 120.676C334.744 120.676 335.856 120.576 336.83 120.389V122.848C336.006 123.036 335.131 123.26 333.745 123.26C329.811 123.26 328.012 121.051 328.012 117.943V109.404H323.503V107.232Z" fill="#00BFFF"/>
<path d="M349.07 106.857C350.332 106.857 351.843 107.207 352.942 108.243C353.954 109.217 354.491 110.702 354.491 113.249V122.973H351.818V113.398C351.818 109.966 350.082 109.217 348.421 109.217C344.986 109.217 344.137 112.525 344.137 114.759V122.973H341.464V100.142H344.137V110.09C344.849 108.218 346.809 106.857 349.07 106.857Z" fill="#00BFFF"/>
<path d="M372.001 115.795H360.948C360.948 118.754 362.647 120.988 365.582 120.988C367.655 120.988 368.954 119.703 369.741 118.18L372.014 119.378C370.69 121.987 368.554 123.348 365.582 123.348C360.636 123.348 358.213 119.952 358.213 114.784C358.213 109.966 360.985 106.845 365.394 106.845C370.215 106.845 372.076 110.303 372.076 114.585C372.064 114.984 372.039 115.396 372.001 115.795ZM365.269 108.942C362.397 108.942 360.948 111.302 360.948 113.598H369.291C369.354 111.077 368.105 108.942 365.269 108.942Z" fill="#00BFFF"/>
<path d="M25.9825 152.882C25.9825 147.876 28.9177 144.631 33.3266 144.631C37.7355 144.631 40.6706 147.876 40.6706 152.882C40.6706 157.888 37.7355 161.133 33.3266 161.133C28.9177 161.133 25.9825 157.825 25.9825 152.882ZM37.8229 152.882C37.8229 149.2 36.1493 146.965 33.3141 146.965C30.4789 146.965 28.8052 149.175 28.8052 152.882C28.8052 156.602 30.4789 158.799 33.3141 158.799C36.1493 158.799 37.8229 156.602 37.8229 152.882Z" fill="#00BFFF"/>
<path d="M43.8057 145.017H48.3145V140.898L50.9873 139.762V145.017H57.1323V147.189H50.9873V155.341C50.9873 157.45 51.999 158.462 54.0099 158.462C55.0465 158.462 56.1456 158.362 57.1323 158.174V160.634C56.308 160.821 55.4337 161.045 54.0474 161.045C50.113 161.045 48.3145 158.836 48.3145 155.728V147.189H43.8057V145.017Z" fill="#00BFFF"/>
<path d="M69.3848 144.631C70.6462 144.631 72.1575 144.98 73.2566 146.016C74.2683 146.99 74.8054 148.476 74.8054 151.022V160.746H72.1325V151.172C72.1325 147.739 70.3964 146.99 68.7353 146.99C65.3006 146.99 64.4513 150.298 64.4513 152.532V160.746H61.7784V137.915H64.4513V147.864C65.1632 145.991 67.1116 144.631 69.3848 144.631Z" fill="#00BFFF"/>
<path d="M92.3161 153.581H81.2626C81.2626 156.539 82.9612 158.774 85.8964 158.774C87.9822 158.774 89.2686 157.488 90.0555 155.965L92.3286 157.164C91.0047 159.773 88.8689 161.133 85.8964 161.133C80.9504 161.133 78.5273 157.738 78.5273 152.57C78.5273 147.752 81.3001 144.631 85.709 144.631C90.5301 144.631 92.3911 148.089 92.3911 152.37C92.3786 152.757 92.3411 153.169 92.3161 153.581ZM85.5716 146.715C82.7114 146.715 81.2501 149.075 81.2501 151.372H89.5933C89.6683 148.85 88.4068 146.715 85.5716 146.715Z" fill="#00BFFF"/>
<path d="M107.466 144.693C108.603 144.693 109.64 144.818 110.302 145.005V147.489C109.677 147.327 108.503 147.177 107.367 147.177C103.582 147.177 100.56 149.761 100.56 154.891V160.746H97.8867V145.005H100.535V149.099C101.609 146.615 104.182 144.693 107.466 144.693Z" fill="#00BFFF"/>
<path d="M131.772 155.903L134.482 155.429C134.894 157.725 136.368 158.924 138.703 158.924C140.814 158.924 141.976 158.037 141.976 156.564C141.976 154.992 141.151 154.293 139.453 154.105L136.905 153.818C133.782 153.469 132.309 151.709 132.309 149.287C132.309 146.416 134.582 144.631 138.291 144.631C141.888 144.631 144.311 146.516 144.649 149.412L142.001 150.011C141.651 148.126 140.365 146.803 138.216 146.803C136.143 146.803 134.907 147.652 134.907 149.162C134.907 150.51 135.793 151.334 137.742 151.559L140.265 151.846C143.387 152.195 144.611 153.831 144.611 156.315C144.611 159.311 142.4 161.133 138.566 161.133C134.832 161.133 132.346 159.273 131.772 155.903Z" fill="#00BFFF"/>
<path d="M149.857 158.549H154.903V147.215H150.332V145.005H157.576V158.549H162.896V160.758H149.857V158.549ZM157.863 141.859H154.079V138.077H157.863V141.859Z" fill="#00BFFF"/>
<path d="M179.246 137.927V160.758H176.723V157.825C175.773 159.872 174.3 161.133 171.714 161.133C167.78 161.133 165.219 157.862 165.219 152.857C165.219 147.914 167.955 144.643 172.114 144.643C174.262 144.643 175.773 145.804 176.56 147.352V137.94H179.246V137.927ZM172.376 146.99C169.666 146.99 168.055 149.162 168.055 152.844C168.055 156.502 169.666 158.761 172.276 158.761C174.949 158.761 176.623 156.614 176.623 153.219V152.495C176.635 149.137 174.987 146.99 172.376 146.99Z" fill="#00BFFF"/>
<path d="M197.193 153.581H186.14C186.14 156.539 187.839 158.774 190.774 158.774C192.847 158.774 194.146 157.488 194.933 155.965L197.206 157.164C195.882 159.773 193.746 161.133 190.774 161.133C185.828 161.133 183.405 157.738 183.405 152.57C183.405 147.752 186.177 144.631 190.586 144.631C195.407 144.631 197.268 148.089 197.268 152.37C197.256 152.757 197.231 153.169 197.193 153.581ZM190.461 146.715C187.589 146.715 186.14 149.075 186.14 151.372H194.483C194.546 148.85 193.297 146.715 190.461 146.715Z" fill="#00BFFF"/>
<path d="M218.264 152.882C218.264 147.876 221.199 144.631 225.608 144.631C230.017 144.631 232.952 147.876 232.952 152.882C232.952 157.888 230.017 161.133 225.608 161.133C221.199 161.133 218.264 157.825 218.264 152.882ZM230.117 152.882C230.117 149.2 228.443 146.965 225.608 146.965C222.773 146.965 221.099 149.175 221.099 152.882C221.099 156.602 222.773 158.799 225.608 158.799C228.443 158.799 230.117 156.602 230.117 152.882Z" fill="#00BFFF"/>
<path d="M249.676 147.189H243.693V160.758H241.02V147.189H236.199V145.017H241.02V143.282C241.02 139.687 243.031 137.84 246.94 137.84C247.852 137.84 248.614 137.94 249.676 138.152V140.511C248.989 140.411 248.127 140.261 246.94 140.261C244.542 140.261 243.693 141.085 243.693 143.47V145.017H249.676V147.189Z" fill="#00BFFF"/>
<path d="M271.058 145.017H275.567V140.898L278.24 139.762V145.017H284.385V147.189H278.24V155.341C278.24 157.45 279.252 158.462 281.263 158.462C282.299 158.462 283.411 158.362 284.385 158.174V160.634C283.561 160.821 282.687 161.045 281.3 161.045C277.366 161.045 275.567 158.836 275.567 155.728V147.189H271.058V145.017Z" fill="#00BFFF"/>
<path d="M296.638 144.631C297.899 144.631 299.41 144.98 300.51 146.016C301.521 146.99 302.058 148.476 302.058 151.022V160.746H299.385V151.172C299.385 147.739 297.649 146.99 295.988 146.99C292.554 146.99 291.704 150.298 291.704 152.532V160.746H289.031V137.915H291.704V147.864C292.416 145.991 294.365 144.631 296.638 144.631Z" fill="#00BFFF"/>
<path d="M319.569 153.581H308.516C308.516 156.539 310.214 158.774 313.149 158.774C315.223 158.774 316.522 157.488 317.308 155.965L319.582 157.164C318.258 159.773 316.122 161.133 313.149 161.133C308.203 161.133 305.78 157.738 305.78 152.57C305.78 147.752 308.553 144.631 312.962 144.631C317.783 144.631 319.644 148.089 319.644 152.37C319.632 152.757 319.594 153.169 319.569 153.581ZM312.825 146.715C309.952 146.715 308.503 149.075 308.503 151.372H316.846C316.921 148.85 315.66 146.715 312.825 146.715Z" fill="#00BFFF"/>
<path d="M26.8943 193.676L29.6046 193.201C30.0167 195.498 31.4906 196.697 33.8262 196.697C35.9369 196.697 37.0985 195.81 37.0985 194.337C37.0985 192.765 36.2742 192.066 34.5755 191.878L32.0276 191.591C28.9052 191.242 27.4314 189.482 27.4314 187.06C27.4314 184.189 29.7045 182.404 33.414 182.404C37.0111 182.404 39.4341 184.289 39.7838 187.185L37.136 187.784C36.7863 185.899 35.4998 184.576 33.3515 184.576C31.2782 184.576 30.0417 185.425 30.0417 186.935C30.0417 188.283 30.9285 189.107 32.8769 189.332L35.3999 189.619C38.5223 189.968 39.7463 191.604 39.7463 194.088C39.7463 197.084 37.5356 198.906 33.7013 198.906C29.9543 198.906 27.4563 197.046 26.8943 193.676Z" fill="#00BFFF"/>
<path d="M43.5558 190.567C43.5558 185.874 45.9538 182.416 50.8998 182.416C54.397 182.416 56.9199 184.426 57.2946 188.046L54.5593 188.358C54.2721 186.024 52.9481 184.738 50.7125 184.738C47.8148 184.738 46.3285 187.072 46.3285 190.53C46.3285 194.125 47.8148 196.547 50.7999 196.547C53.098 196.547 54.322 195.161 54.7092 192.764L57.2572 193.176C56.7576 196.384 54.7092 198.906 50.7999 198.906C46.0163 198.906 43.5558 195.286 43.5558 190.567Z" fill="#00BFFF"/>
<path d="M72.5073 182.479C73.6439 182.479 74.6806 182.603 75.3425 182.791V185.275C74.718 185.112 73.544 184.963 72.4074 184.963C68.623 184.963 65.6005 187.547 65.6005 192.677V198.531H62.9276V182.791H65.5755V186.885C66.6371 184.388 69.2225 182.479 72.5073 182.479Z" fill="#00BFFF"/>
<path d="M92.3161 191.354H81.2626C81.2626 194.312 82.9612 196.547 85.8964 196.547C87.9822 196.547 89.2686 195.261 90.0555 193.738L92.3286 194.937C91.0047 197.545 88.8689 198.906 85.8964 198.906C80.9504 198.906 78.5273 195.511 78.5273 190.343C78.5273 185.525 81.3001 182.404 85.709 182.404C90.5301 182.404 92.3911 185.862 92.3911 190.143C92.3786 190.53 92.3411 190.942 92.3161 191.354ZM85.5716 184.488C82.7114 184.488 81.2501 186.848 81.2501 189.145H89.5933C89.6683 186.623 88.4068 184.488 85.5716 184.488Z" fill="#00BFFF"/>
<path d="M109.79 191.354H98.736C98.736 194.312 100.435 196.547 103.37 196.547C105.456 196.547 106.742 195.261 107.529 193.738L109.802 194.937C108.478 197.545 106.342 198.906 103.37 198.906C98.4238 198.906 96.0007 195.511 96.0007 190.343C96.0007 185.525 98.7735 182.404 103.182 182.404C108.004 182.404 109.865 185.862 109.865 190.143C109.852 190.53 109.827 190.942 109.79 191.354ZM103.058 184.488C100.185 184.488 98.736 186.848 98.736 189.145H107.079C107.154 186.623 105.893 184.488 103.058 184.488Z" fill="#00BFFF"/>
<path d="M121.917 182.404C123.204 182.404 124.652 182.753 125.727 183.752C126.763 184.726 127.238 186.236 127.238 188.795V198.519H124.565V188.945C124.565 185.512 122.866 184.763 121.293 184.763C117.733 184.763 116.884 188.071 116.884 190.305V198.519H114.211V182.778H116.734V185.899C117.546 183.927 119.269 182.404 121.917 182.404Z" fill="#00BFFF"/>
<path d="M162.172 198.532H159.374C159.249 197.645 159.149 196.609 159.124 195.661C158.088 197.87 156.389 198.906 153.804 198.906C150.681 198.906 148.508 196.984 148.508 194.275C148.508 192.64 149.27 191.379 150.719 190.555C151.755 189.993 153.454 189.581 156.077 189.269L158.937 188.92V188.633C158.937 185.837 157.9 184.601 155.565 184.601C153.329 184.601 152.005 185.737 151.88 187.721H149.008C149.295 184.351 151.743 182.404 155.752 182.404C159.811 182.404 161.647 184.414 161.647 188.957V193.214C161.635 195.723 161.797 197.371 162.172 198.532ZM155.215 191.379C152.48 191.753 151.343 192.54 151.343 194.113C151.343 195.723 152.442 196.697 154.303 196.697C157.139 196.697 158.962 194.749 158.962 191.654V190.867L155.215 191.379Z" fill="#00BFFF"/>
<path d="M174.362 182.404C175.648 182.404 177.097 182.753 178.171 183.752C179.208 184.726 179.683 186.236 179.683 188.795V198.519H177.01V188.945C177.01 185.512 175.311 184.763 173.738 184.763C170.178 184.763 169.329 188.071 169.329 190.305V198.519H166.656V182.778H169.179V185.899C169.978 183.927 171.714 182.404 174.362 182.404Z" fill="#00BFFF"/>
<path d="M196.719 175.701V198.532H194.196V195.598C193.247 197.646 191.773 198.906 189.187 198.906C185.253 198.906 182.693 195.636 182.693 190.63C182.693 185.687 185.428 182.416 189.587 182.416C191.735 182.416 193.247 183.577 194.034 185.125V175.713H196.719V175.701ZM189.862 184.776C187.152 184.776 185.54 186.948 185.54 190.63C185.54 194.288 187.152 196.547 189.762 196.547C192.435 196.547 194.108 194.4 194.108 191.005V190.281C194.108 186.91 192.472 184.776 189.862 184.776Z" fill="#00BFFF"/>
<path d="M223.21 182.404C224.759 182.404 225.945 183.44 226.482 185.275C227.244 183.452 228.655 182.404 230.204 182.404C232.153 182.404 233.926 183.752 233.926 187.097V198.532H231.253V187.322C231.253 185.312 230.304 184.776 229.392 184.776C227.531 184.776 226.869 186.124 226.869 188.108V198.532H224.259V187.322C224.259 185.4 223.41 184.776 222.398 184.776C220.574 184.776 219.937 186.224 219.937 188.108V198.532H217.265V182.791H219.788V185.212C220.412 183.515 221.636 182.404 223.21 182.404Z" fill="#00BFFF"/>
<path d="M249.576 198.532H246.778C246.653 197.645 246.553 196.609 246.528 195.661C245.492 197.87 243.793 198.906 241.208 198.906C238.085 198.906 235.912 196.984 235.912 194.275C235.912 192.64 236.661 191.379 238.123 190.555C239.159 189.993 240.858 189.581 243.481 189.269L246.354 188.92V188.633C246.354 185.837 245.317 184.601 242.981 184.601C240.746 184.601 239.422 185.737 239.297 187.721H236.437C236.724 184.351 239.172 182.404 243.181 182.404C247.24 182.404 249.076 184.414 249.076 188.957V193.214C249.039 195.723 249.201 197.371 249.576 198.532ZM242.619 191.379C239.884 191.753 238.747 192.54 238.747 194.113C238.747 195.723 239.846 196.697 241.707 196.697C244.542 196.697 246.366 194.749 246.366 191.654V190.867L242.619 191.379Z" fill="#00BFFF"/>
<path d="M260.03 190.817L257.17 193.713V198.532H254.497V175.701H257.17V190.53L264.227 182.791H267.724L261.953 188.87L268.098 198.532H264.789L260.03 190.817Z" fill="#00BFFF"/>
<path d="M284.597 191.354H273.544C273.544 194.312 275.242 196.547 278.178 196.547C280.251 196.547 281.55 195.261 282.337 193.738L284.61 194.937C283.286 197.545 281.15 198.906 278.178 198.906C273.232 198.906 270.809 195.511 270.809 190.343C270.809 185.525 273.581 182.404 277.99 182.404C282.811 182.404 284.672 185.862 284.672 190.143C284.66 190.53 284.635 190.942 284.597 191.354ZM277.865 184.488C274.993 184.488 273.544 186.848 273.544 189.145H281.887C281.95 186.623 280.701 184.488 277.865 184.488Z" fill="#00BFFF"/>
<path d="M289.106 193.676L291.817 193.201C292.229 195.498 293.702 196.697 296.038 196.697C298.149 196.697 299.31 195.81 299.31 194.337C299.31 192.765 298.486 192.066 296.787 191.878L294.24 191.591C291.117 191.242 289.643 189.482 289.643 187.06C289.643 184.189 291.916 182.404 295.626 182.404C299.223 182.404 301.646 184.289 301.996 187.185L299.348 187.784C298.998 185.899 297.712 184.576 295.563 184.576C293.49 184.576 292.254 185.425 292.254 186.935C292.254 188.283 293.14 189.107 295.089 189.332L297.612 189.619C300.734 189.968 301.958 191.604 301.958 194.088C301.958 197.084 299.748 198.906 295.913 198.906C292.154 198.906 289.668 197.046 289.106 193.676Z" fill="#00BFFF"/>
<path d="M329.386 198.906C327.937 198.906 326.451 198.556 325.352 197.52C324.34 196.547 323.903 195.061 323.903 192.515V182.791H326.638V192.427C326.638 195.86 328.275 196.609 329.911 196.609C333.221 196.609 334.007 193.301 334.007 191.004V182.791H336.68V198.531H334.157V195.535C333.583 197.108 331.722 198.906 329.386 198.906Z" fill="#00BFFF"/>
<path d="M341.551 193.676L344.261 193.201C344.674 195.498 346.147 196.697 348.483 196.697C350.594 196.697 351.755 195.81 351.755 194.337C351.755 192.765 350.931 192.066 349.232 191.878L346.684 191.591C343.562 191.242 342.088 189.482 342.088 187.06C342.088 184.189 344.361 182.404 348.071 182.404C351.668 182.404 354.091 184.289 354.441 187.185L351.793 187.784C351.443 185.899 350.157 184.576 348.008 184.576C345.935 184.576 344.699 185.425 344.699 186.935C344.699 188.283 345.585 189.107 347.534 189.332L350.057 189.619C353.179 189.968 354.403 191.604 354.403 194.088C354.403 197.084 352.192 198.906 348.358 198.906C344.599 198.906 342.113 197.046 341.551 193.676Z" fill="#00BFFF"/>
<path d="M389.013 175.701V198.532H386.49V195.598C385.54 197.646 384.067 198.906 381.481 198.906C377.547 198.906 374.987 195.636 374.987 190.63C374.987 185.687 377.722 182.416 381.881 182.416C384.017 182.416 385.54 183.577 386.327 185.125V175.713H389.013V175.701ZM382.143 184.776C379.433 184.776 377.822 186.948 377.822 190.63C377.822 194.288 379.433 196.547 382.043 196.547C384.716 196.547 386.39 194.4 386.39 191.005V190.281C386.402 186.91 384.766 184.776 382.143 184.776Z" fill="#00BFFF"/>
<path d="M393.072 190.655C393.072 185.649 396.007 182.404 400.416 182.404C404.825 182.404 407.76 185.649 407.76 190.655C407.76 195.661 404.825 198.906 400.416 198.906C396.007 198.906 393.072 195.598 393.072 190.655ZM404.925 190.655C404.925 186.973 403.251 184.738 400.416 184.738C397.581 184.738 395.907 186.948 395.907 190.655C395.907 194.375 397.581 196.572 400.416 196.572C403.251 196.572 404.925 194.375 404.925 190.655Z" fill="#00BFFF"/>
<path d="M26.3198 220.564H30.8287V216.445L33.5015 215.309V220.564H39.6465V222.736H33.5015V230.887C33.5015 232.997 34.5132 234.008 36.524 234.008C37.5607 234.008 38.6723 233.908 39.6465 233.721V236.18C38.8222 236.367 37.9479 236.592 36.5615 236.592C32.6272 236.592 30.8287 234.382 30.8287 231.274V222.736H26.3198V220.564Z" fill="#00BFFF"/>
<path d="M51.899 220.189C53.1605 220.189 54.6718 220.539 55.7709 221.575C56.7826 222.549 57.3196 224.034 57.3196 226.581V236.305H54.6468V226.73C54.6468 223.298 52.9107 222.549 51.2496 222.549C47.8149 222.549 46.9656 225.857 46.9656 228.091V236.305H44.2927V213.474H46.9656V223.422C47.6775 221.538 49.6384 220.189 51.899 220.189Z" fill="#00BFFF"/>
<path d="M74.8304 229.127H63.7769C63.7769 232.085 65.4755 234.32 68.4106 234.32C70.484 234.32 71.7829 233.034 72.5698 231.511L74.8429 232.71C73.519 235.318 71.3832 236.679 68.4106 236.679C63.4647 236.679 61.0416 233.284 61.0416 228.116C61.0416 223.297 63.8144 220.177 68.2233 220.177C73.0444 220.177 74.9054 223.635 74.9054 227.916C74.8929 228.303 74.8679 228.715 74.8304 229.127ZM68.0859 222.261C65.2257 222.261 63.7644 224.621 63.7644 226.917H72.1076C72.1826 224.408 70.9211 222.261 68.0859 222.261Z" fill="#00BFFF"/>
<path d="M79.3392 231.461L82.0495 230.987C82.4617 233.284 83.9355 234.482 86.2711 234.482C88.3819 234.482 89.5434 233.596 89.5434 232.123C89.5434 230.55 88.7191 229.851 87.0205 229.664L84.4725 229.377C81.3501 229.027 79.8763 227.267 79.8763 224.846C79.8763 221.975 82.1494 220.189 85.8589 220.189C89.456 220.189 91.879 222.074 92.2287 224.97L89.5809 225.57C89.2312 223.685 87.9447 222.361 85.7965 222.361C83.7107 222.361 82.4867 223.21 82.4867 224.721C82.4867 226.069 83.3734 226.893 85.3219 227.117L87.8448 227.405C90.9673 227.754 92.1913 229.389 92.1913 231.873C92.1913 234.869 89.9806 236.692 86.1462 236.692C82.3867 236.679 79.9013 234.819 79.3392 231.461Z" fill="#00BFFF"/>
<path d="M109.79 229.127H98.736C98.736 232.085 100.435 234.32 103.37 234.32C105.456 234.32 106.742 233.034 107.529 231.511L109.802 232.71C108.478 235.318 106.342 236.679 103.37 236.679C98.4238 236.679 96.0007 233.284 96.0007 228.116C96.0007 223.297 98.7735 220.177 103.182 220.177C108.004 220.177 109.865 223.635 109.865 227.916C109.852 228.303 109.827 228.715 109.79 229.127ZM103.058 222.261C100.185 222.261 98.736 224.621 98.736 226.917H107.079C107.154 224.408 105.893 222.261 103.058 222.261Z" fill="#00BFFF"/>
<path d="M131.21 220.564H135.718V216.445L138.391 215.309V220.564H144.536V222.736H138.391V230.887C138.391 232.997 139.403 234.008 141.414 234.008C142.45 234.008 143.55 233.908 144.536 233.721V236.18C143.712 236.367 142.838 236.592 141.451 236.592C137.517 236.592 135.718 234.382 135.718 231.274V222.736H131.21V220.564Z" fill="#00BFFF"/>
<path d="M156.789 220.189C158.05 220.189 159.562 220.539 160.661 221.575C161.672 222.549 162.209 224.034 162.209 226.581V236.305H159.537V226.73C159.537 223.298 157.8 222.549 156.139 222.549C152.705 222.549 151.855 225.857 151.855 228.091V236.305H149.182V213.474H151.855V223.422C152.567 221.538 154.516 220.189 156.789 220.189Z" fill="#00BFFF"/>
<path d="M167.33 234.095H172.376V222.761H167.805V220.551H175.049V234.095H180.37V236.305H167.33V234.095ZM175.336 217.418H171.552V213.636H175.336V217.418Z" fill="#00BFFF"/>
<path d="M191.848 220.189C193.134 220.189 194.583 220.539 195.657 221.538C196.694 222.511 197.169 224.022 197.169 226.581V236.305H194.496V226.73C194.496 223.298 192.797 222.549 191.223 222.549C187.664 222.549 186.814 225.857 186.814 228.091V236.305H184.142V220.564H186.665V223.685C187.464 221.7 189.2 220.189 191.848 220.189Z" fill="#00BFFF"/>
<path d="M212.506 221.824C213.418 222.736 213.93 223.996 213.93 225.482C213.93 228.69 211.532 230.862 208.01 230.862C206.911 230.862 205.899 230.637 205.075 230.238C204.413 230.55 203.975 231.087 203.975 231.811C203.975 232.784 204.8 233.384 206.586 233.384H210.645C213.917 233.384 215.778 234.994 215.778 237.665C215.778 240.973 212.906 242.833 207.997 242.833C203.526 242.833 200.84 241.285 200.84 238.839C200.84 237.141 201.915 235.88 203.576 235.306C202.289 234.769 201.59 233.82 201.59 232.51C201.59 231.062 202.414 229.988 203.863 229.451C202.851 228.54 202.289 227.217 202.289 225.644C202.289 222.436 204.65 220.202 208.147 220.202C209.309 220.202 210.32 220.451 211.17 220.888C211.732 219.028 213.031 217.992 214.979 217.992C215.329 217.992 215.703 218.03 215.991 218.117V220.451C215.516 220.389 215.241 220.326 214.829 220.326C213.668 220.314 212.943 220.788 212.506 221.824ZM206.486 235.743C206.011 235.743 205.574 235.718 205.162 235.68C204.125 236.155 203.488 237.004 203.488 238.077C203.488 239.75 205.037 240.624 208.272 240.624C211.644 240.624 213.093 239.675 213.093 237.952C213.093 236.542 212.081 235.743 210.033 235.743H206.486ZM211.407 225.469C211.407 223.585 210.058 222.224 208.135 222.224C206.186 222.224 204.825 223.609 204.825 225.557C204.825 227.479 206.149 228.802 208.035 228.802C209.983 228.815 211.407 227.392 211.407 225.469Z" fill="#00BFFF"/>
<path d="M219.176 231.461L221.886 230.987C222.298 233.284 223.772 234.482 226.108 234.482C228.218 234.482 229.38 233.596 229.38 232.123C229.38 230.55 228.556 229.851 226.857 229.664L224.309 229.377C221.187 229.027 219.713 227.267 219.713 224.846C219.713 221.975 221.986 220.189 225.695 220.189C229.292 220.189 231.715 222.074 232.065 224.97L229.417 225.57C229.068 223.685 227.781 222.361 225.633 222.361C223.56 222.361 222.323 223.21 222.323 224.721C222.323 226.069 223.21 226.893 225.158 227.117L227.681 227.405C230.804 227.754 232.028 229.389 232.028 231.873C232.028 234.869 229.817 236.692 225.983 236.692C222.236 236.679 219.75 234.819 219.176 231.461Z" fill="#00BFFF"/>
<path d="M253.573 220.564H258.081V216.445L260.754 215.309V220.564H266.899V222.736H260.754V230.887C260.754 232.997 261.766 234.008 263.777 234.008C264.813 234.008 265.925 233.908 266.899 233.721V236.18C266.075 236.367 265.201 236.592 263.814 236.592C259.88 236.592 258.081 234.382 258.081 231.274V222.736H253.573V220.564Z" fill="#00BFFF"/>
<path d="M279.152 220.189C280.413 220.189 281.925 220.539 283.024 221.575C284.035 222.549 284.573 224.034 284.573 226.581V236.305H281.9V226.73C281.9 223.298 280.164 222.549 278.502 222.549C275.068 222.549 274.218 225.857 274.218 228.091V236.305H271.546V213.474H274.218V223.422C274.93 221.538 276.879 220.189 279.152 220.189Z" fill="#00BFFF"/>
<path d="M302.021 236.305H299.211C299.086 235.418 298.986 234.382 298.961 233.434C297.924 235.643 296.226 236.679 293.64 236.679C290.518 236.679 288.344 234.757 288.344 232.048C288.344 230.413 289.106 229.152 290.555 228.328C291.592 227.766 293.29 227.354 295.913 227.042L298.786 226.693V226.406C298.786 223.61 297.749 222.374 295.414 222.374C293.178 222.374 291.854 223.51 291.729 225.494H288.857C289.144 222.124 291.592 220.177 295.601 220.177C299.66 220.177 301.496 222.186 301.496 226.73V230.974C301.484 233.508 301.646 235.144 302.021 236.305ZM295.052 229.152C292.316 229.526 291.18 230.313 291.18 231.886C291.18 233.496 292.279 234.47 294.14 234.47C296.975 234.47 298.798 232.522 298.798 229.427V228.64L295.052 229.152Z" fill="#00BFFF"/>
<path d="M306.018 220.564H310.526V216.445L313.199 215.309V220.564H319.344V222.736H313.199V230.887C313.199 232.997 314.211 234.008 316.222 234.008C317.258 234.008 318.37 233.908 319.344 233.721V236.18C318.52 236.367 317.646 236.592 316.259 236.592C312.325 236.592 310.526 234.382 310.526 231.274V222.736H306.018V220.564Z" fill="#00BFFF"/>
<path d="M354.466 236.305H351.656C351.531 235.418 351.431 234.382 351.406 233.434C350.369 235.643 348.67 236.679 346.085 236.679C342.963 236.679 340.789 234.757 340.789 232.048C340.789 230.413 341.551 229.152 343 228.328C344.037 227.766 345.735 227.354 348.358 227.042L351.231 226.693V226.406C351.231 223.61 350.194 222.374 347.859 222.374C345.623 222.374 344.299 223.51 344.174 225.494H341.301C341.589 222.124 344.037 220.177 348.046 220.177C352.105 220.177 353.941 222.186 353.941 226.73V230.974C353.929 233.508 354.079 235.144 354.466 236.305ZM347.496 229.152C344.761 229.526 343.625 230.313 343.625 231.886C343.625 233.496 344.724 234.47 346.585 234.47C349.42 234.47 351.243 232.522 351.243 229.427V228.64L347.496 229.152Z" fill="#00BFFF"/>
<path d="M369.678 220.251C370.815 220.251 371.852 220.376 372.514 220.564V223.048C371.889 222.885 370.715 222.736 369.578 222.736C365.794 222.736 362.771 225.319 362.771 230.45V236.304H360.099V220.564H362.746V224.658C363.821 222.161 366.394 220.251 369.678 220.251Z" fill="#00BFFF"/>
<path d="M389.487 229.127H378.434C378.434 232.085 380.132 234.32 383.067 234.32C385.141 234.32 386.44 233.034 387.227 231.511L389.5 232.71C388.176 235.318 386.04 236.679 383.067 236.679C378.121 236.679 375.698 233.284 375.698 228.116C375.698 223.297 378.471 220.177 382.88 220.177C387.701 220.177 389.562 223.635 389.562 227.916C389.55 228.303 389.512 228.715 389.487 229.127ZM382.743 222.261C379.87 222.261 378.421 224.621 378.421 226.917H386.764C386.839 224.408 385.578 222.261 382.743 222.261Z" fill="#00BFFF"/>
<path d="M39.8088 274.078H37.0111C36.8862 273.191 36.7862 272.155 36.7613 271.207C35.7246 273.416 34.026 274.452 31.4406 274.452C28.3181 274.452 26.1449 272.53 26.1449 269.821C26.1449 268.186 26.9068 266.925 28.3556 266.101C29.3923 265.539 31.0909 265.127 33.7137 264.815L36.5739 264.466V264.179C36.5739 261.383 35.5373 260.147 33.2017 260.147C30.966 260.147 29.6421 261.283 29.5172 263.267H26.6445C26.9318 259.897 29.3798 257.95 33.389 257.95C37.4482 257.95 39.2842 259.959 39.2842 264.503V268.747C39.2717 271.281 39.4341 272.917 39.8088 274.078ZM32.8519 266.937C30.1167 267.312 28.9801 268.098 28.9801 269.671C28.9801 271.281 30.0792 272.255 31.9402 272.255C34.7754 272.255 36.5989 270.308 36.5989 267.212V266.426L32.8519 266.937Z" fill="#00BFFF"/>
<path d="M55.1838 259.597C56.0956 260.509 56.6077 261.769 56.6077 263.255C56.6077 266.463 54.2096 268.635 50.6875 268.635C49.5884 268.635 48.5767 268.41 47.7524 268.011C47.0904 268.323 46.6533 268.86 46.6533 269.584C46.6533 270.557 47.4776 271.156 49.2636 271.156H53.3228C56.5952 271.156 58.4562 272.767 58.4562 275.438C58.4562 278.746 55.5835 280.606 50.675 280.606C46.2036 280.606 43.5183 279.058 43.5183 276.611C43.5183 274.914 44.5924 273.653 46.2536 273.079C44.9671 272.542 44.2677 271.593 44.2677 270.283C44.2677 268.835 45.092 267.761 46.5409 267.224C45.5292 266.313 44.9671 264.99 44.9671 263.417C44.9671 260.209 47.3277 257.975 50.8249 257.975C51.9864 257.975 52.9981 258.224 53.8474 258.661C54.4095 256.801 55.7084 255.765 57.6568 255.765C58.0065 255.765 58.3812 255.803 58.6685 255.89V258.224C58.1939 258.162 57.9066 258.099 57.5069 258.099C56.3454 258.087 55.621 258.561 55.1838 259.597ZM49.1637 273.516C48.6891 273.516 48.252 273.491 47.8398 273.453C46.8031 273.928 46.1662 274.777 46.1662 275.85C46.1662 277.523 47.7149 278.397 50.9498 278.397C54.322 278.397 55.7709 277.448 55.7709 275.725C55.7709 274.315 54.7592 273.516 52.7108 273.516H49.1637ZM54.0722 263.255C54.0722 261.37 52.7233 260.009 50.7999 260.009C48.8515 260.009 47.4901 261.395 47.4901 263.342C47.4901 265.265 48.814 266.588 50.7 266.588C52.6609 266.588 54.0722 265.165 54.0722 263.255Z" fill="#00BFFF"/>
<path d="M74.7679 274.078H71.9577C71.8328 273.191 71.7329 272.155 71.7079 271.207C70.6713 273.416 68.9726 274.452 66.3872 274.452C63.2648 274.452 61.0916 272.53 61.0916 269.821C61.0916 268.186 61.8409 266.925 63.3023 266.101C64.3389 265.539 66.0375 265.127 68.6604 264.815L71.5331 264.466V264.179C71.5331 261.383 70.4964 260.147 68.1608 260.147C65.9251 260.147 64.6012 261.283 64.4763 263.267H61.6161C61.9034 259.897 64.3514 257.95 68.3606 257.95C72.4198 257.95 74.2558 259.959 74.2558 264.503V268.747C74.2309 271.281 74.3932 272.917 74.7679 274.078ZM67.8111 266.937C65.0758 267.312 63.9392 268.098 63.9392 269.671C63.9392 271.281 65.0383 272.255 66.8993 272.255C69.7345 272.255 71.558 270.308 71.558 267.212V266.426L67.8111 266.937Z" fill="#00BFFF"/>
<path d="M79.9387 271.881H84.9846V260.546H80.4133V258.337H87.6575V271.881H92.9781V274.09H79.9387V271.881ZM87.9322 255.191H84.1478V251.409H87.9322V255.191Z" fill="#00BFFF"/>
<path d="M104.444 257.962C105.73 257.962 107.179 258.312 108.253 259.311C109.29 260.284 109.764 261.795 109.764 264.354V274.078H107.092V264.503C107.092 261.071 105.393 260.322 103.819 260.322C100.26 260.322 99.4104 263.63 99.4104 265.864V274.078H96.7375V258.337H99.2605V261.458C100.06 259.473 101.796 257.962 104.444 257.962Z" fill="#00BFFF"/>
<path d="M114.298 269.234L117.009 268.76C117.421 271.057 118.895 272.255 121.23 272.255C123.341 272.255 124.503 271.369 124.503 269.896C124.503 268.323 123.678 267.624 121.98 267.437L119.432 267.15C116.309 266.8 114.835 265.04 114.835 262.618C114.835 259.747 117.109 257.962 120.818 257.962C124.415 257.962 126.838 259.847 127.175 262.743L124.528 263.343C124.178 261.458 122.891 260.134 120.743 260.134C118.67 260.134 117.433 260.983 117.433 262.494C117.433 263.842 118.32 264.666 120.268 264.89L122.791 265.177C125.914 265.527 127.138 267.162 127.138 269.646C127.138 272.642 124.927 274.465 121.093 274.465C117.346 274.452 114.86 272.605 114.298 269.234Z" fill="#00BFFF"/>
<path d="M131.21 258.337H135.718V254.217L138.391 253.082V258.337H144.536V260.509H138.391V268.66C138.391 270.77 139.403 271.781 141.414 271.781C142.45 271.781 143.55 271.681 144.536 271.494V273.953C143.712 274.14 142.838 274.365 141.451 274.365C137.517 274.365 135.718 272.155 135.718 269.047V260.509H131.21V258.337Z" fill="#00BFFF"/>
<path d="M165.819 266.214C165.819 261.208 168.754 257.962 173.163 257.962C177.572 257.962 180.507 261.208 180.507 266.214C180.507 271.219 177.572 274.465 173.163 274.465C168.754 274.465 165.819 271.157 165.819 266.214ZM177.672 266.214C177.672 262.531 175.998 260.297 173.163 260.297C170.328 260.297 168.654 262.506 168.654 266.214C168.654 269.921 170.328 272.13 173.163 272.13C175.998 272.13 177.672 269.921 177.672 266.214Z" fill="#00BFFF"/>
<path d="M189.537 274.452C188.088 274.452 186.602 274.103 185.503 273.067C184.491 272.093 184.054 270.608 184.054 268.061V258.337H186.789V267.974C186.789 271.406 188.426 272.155 190.062 272.155C193.372 272.155 194.158 268.847 194.158 266.551V258.337H196.831V274.078H194.308V271.082C193.734 272.667 191.873 274.452 189.537 274.452Z" fill="#00BFFF"/>
<path d="M212.344 258.025C213.48 258.025 214.517 258.15 215.179 258.337V260.821C214.554 260.659 213.38 260.509 212.244 260.509C208.459 260.509 205.437 263.093 205.437 268.223V274.078H202.764V258.337H205.412V262.431C206.486 259.947 209.071 258.025 212.344 258.025Z" fill="#00BFFF"/>
<path d="M235.837 266.114C235.837 261.42 238.235 257.962 243.181 257.962C246.678 257.962 249.201 259.972 249.576 263.592L246.841 263.904C246.553 261.57 245.229 260.284 242.994 260.284C240.096 260.284 238.61 262.618 238.61 266.076C238.61 269.671 240.096 272.093 243.081 272.093C245.379 272.093 246.603 270.707 246.99 268.311L249.538 268.723C249.039 271.931 246.99 274.452 243.081 274.452C238.298 274.452 235.837 270.832 235.837 266.114Z" fill="#00BFFF"/>
<path d="M253.223 266.214C253.223 261.208 256.158 257.962 260.567 257.962C264.976 257.962 267.911 261.208 267.911 266.214C267.911 271.219 264.976 274.465 260.567 274.465C256.158 274.452 253.223 271.157 253.223 266.214ZM265.076 266.214C265.076 262.531 263.402 260.297 260.567 260.297C257.732 260.297 256.058 262.506 256.058 266.214C256.058 269.921 257.732 272.13 260.567 272.13C263.402 272.13 265.076 269.921 265.076 266.214Z" fill="#00BFFF"/>
<path d="M282.274 258.025C283.411 258.025 284.448 258.15 285.109 258.337V260.821C284.485 260.659 283.311 260.509 282.174 260.509C278.39 260.509 275.367 263.093 275.367 268.223V274.078H272.695V258.337H275.342V262.431C276.404 259.947 278.989 258.025 282.274 258.025Z" fill="#00BFFF"/>
<path d="M302.083 266.9H291.03C291.03 269.858 292.728 272.093 295.663 272.093C297.737 272.093 299.036 270.807 299.823 269.284L302.096 270.483C300.772 273.091 298.636 274.452 295.663 274.452C290.717 274.452 288.294 271.057 288.294 265.889C288.294 261.07 291.067 257.95 295.476 257.95C300.297 257.95 302.158 261.407 302.158 265.689C302.146 266.089 302.108 266.488 302.083 266.9ZM295.339 260.034C292.466 260.034 291.017 262.394 291.017 264.69H299.36C299.435 262.181 298.174 260.034 295.339 260.034Z" fill="#00BFFF"/>
<path d="M25.533 296.11H28.3432L32.4648 306.883C32.7771 307.669 33.0643 308.455 33.2517 309.117H33.3766C33.5389 308.455 33.7513 307.669 34.0635 306.883L38.3226 296.11H41.0578L34.7255 311.851H31.8278L25.533 296.11Z" fill="#00BFFF"/>
<path d="M57.2947 311.851H54.4845C54.3596 310.965 54.2596 309.929 54.2347 308.98C53.198 311.189 51.4994 312.225 48.914 312.225C45.7915 312.225 43.6183 310.303 43.6183 307.594C43.6183 305.959 44.3677 304.698 45.829 303.874C46.8657 303.313 48.5643 302.901 51.1871 302.589L54.0598 302.239V301.952C54.0598 299.156 53.0232 297.92 50.6876 297.92C48.4519 297.92 47.1279 299.056 47.003 301.041H44.1429C44.4301 297.67 46.8781 295.723 50.8874 295.723C54.9466 295.723 56.7826 297.733 56.7826 302.277V306.521C56.7576 309.055 56.9075 310.69 57.2947 311.851ZM50.3253 304.711C47.5901 305.085 46.4535 305.872 46.4535 307.445C46.4535 309.055 47.5526 310.028 49.4136 310.028C52.2488 310.028 54.0723 308.081 54.0723 304.985V304.199L50.3253 304.711Z" fill="#00BFFF"/>
<path d="M62.4529 309.654H67.4988V291.229H62.7776V289.02H70.1841V309.641H75.5048V311.851H62.4529V309.654Z" fill="#00BFFF"/>
<path d="M84.6599 312.237C83.2111 312.237 81.7248 311.888 80.6257 310.852C79.614 309.878 79.1769 308.393 79.1769 305.846V296.122H81.9122V305.759C81.9122 309.192 83.5483 309.941 85.1845 309.941C88.4943 309.941 89.2812 306.633 89.2812 304.336V296.122H91.954V311.863H89.4311V308.867C88.844 310.44 86.9955 312.237 84.6599 312.237Z" fill="#00BFFF"/>
<path d="M109.79 304.673H98.736C98.736 307.632 100.435 309.866 103.37 309.866C105.456 309.866 106.742 308.58 107.529 307.058L109.802 308.256C108.478 310.865 106.342 312.225 103.37 312.225C98.4238 312.225 96.0007 308.83 96.0007 303.662C96.0007 298.844 98.7735 295.723 103.182 295.723C108.004 295.723 109.865 299.181 109.865 303.463C109.852 303.862 109.827 304.274 109.79 304.673ZM103.058 297.808C100.185 297.808 98.736 300.167 98.736 302.464H107.079C107.154 299.955 105.893 297.808 103.058 297.808Z" fill="#00BFFF"/>
<path d="M114.298 307.007L117.009 306.533C117.421 308.83 118.895 310.028 121.23 310.028C123.341 310.028 124.503 309.142 124.503 307.669C124.503 306.096 123.678 305.397 121.98 305.21L119.432 304.923C116.309 304.573 114.835 302.813 114.835 300.391C114.835 297.52 117.109 295.735 120.818 295.735C124.415 295.735 126.838 297.62 127.175 300.516L124.528 301.115C124.178 299.231 122.891 297.907 120.743 297.907C118.67 297.907 117.433 298.756 117.433 300.267C117.433 301.615 118.32 302.439 120.268 302.663L122.791 302.95C125.914 303.3 127.138 304.935 127.138 307.419C127.138 310.415 124.927 312.238 121.093 312.238C117.346 312.238 114.86 310.378 114.298 307.007Z" fill="#00BFFF"/>
<path d="M140.277 311.851H136.093V307.819H140.277V311.851Z" fill="#00BFFF"/>
<path d="M181.644 289.506V292.028H174.624V311.863H171.664V292.028H164.645V289.506H181.644Z" fill="#00BFFF"/>
<path d="M191.748 295.735C193.009 295.735 194.521 296.085 195.62 297.121C196.631 298.095 197.169 299.58 197.169 302.126V311.851H194.496V302.276C194.496 298.844 192.76 298.095 191.098 298.095C187.664 298.095 186.814 301.403 186.814 303.637V311.851H184.142V289.02H186.814V298.968C187.526 297.083 189.475 295.735 191.748 295.735Z" fill="#00BFFF"/>
<path d="M214.679 304.673H203.626C203.626 307.632 205.324 309.866 208.26 309.866C210.333 309.866 211.632 308.58 212.419 307.058L214.692 308.256C213.368 310.865 211.232 312.225 208.26 312.225C203.314 312.225 200.891 308.83 200.891 303.662C200.891 298.844 203.663 295.723 208.072 295.723C212.893 295.723 214.754 299.181 214.754 303.463C214.742 303.862 214.704 304.274 214.679 304.673ZM207.935 297.808C205.075 297.808 203.613 300.167 203.613 302.464H211.957C212.031 299.955 210.77 297.808 207.935 297.808Z" fill="#00BFFF"/>
<path d="M225.858 308.742L230.242 296.122H233.114L226.819 312.874C225.371 316.869 223.485 318.192 220.837 318.192C220.362 318.192 219.888 318.154 219.388 318.067V315.708C219.8 315.745 220.175 315.77 220.524 315.77C222.448 315.77 223.422 314.921 224.147 312.837L224.559 311.676L218.414 296.122H221.436L225.858 308.742Z" fill="#00BFFF"/>
<path d="M266.65 289.032V311.863H264.127V308.93C263.177 310.977 261.704 312.238 259.118 312.238C255.184 312.238 252.623 308.967 252.623 303.962C252.623 299.018 255.359 295.748 259.518 295.748C261.654 295.748 263.177 296.909 263.964 298.457V289.045H266.65V289.032ZM259.78 298.095C257.07 298.095 255.459 300.267 255.459 303.949C255.459 307.607 257.07 309.866 259.68 309.866C262.353 309.866 264.027 307.719 264.027 304.324V303.6C264.039 300.242 262.39 298.095 259.78 298.095Z" fill="#00BFFF"/>
<path d="M270.709 303.987C270.709 298.981 273.644 295.735 278.053 295.735C282.462 295.735 285.397 298.981 285.397 303.987C285.397 308.992 282.462 312.238 278.053 312.238C273.644 312.238 270.709 308.93 270.709 303.987ZM282.549 303.987C282.549 300.304 280.875 298.07 278.04 298.07C275.205 298.07 273.531 300.279 273.531 303.987C273.531 307.694 275.205 309.903 278.04 309.903C280.875 309.903 282.549 307.694 282.549 303.987Z" fill="#00BFFF"/>
<path d="M306.018 296.11H310.526V291.99L313.199 290.854V296.11H319.344V298.282H313.199V306.433C313.199 308.543 314.211 309.554 316.222 309.554C317.258 309.554 318.37 309.454 319.344 309.267V311.726C318.52 311.913 317.646 312.138 316.259 312.138C312.325 312.138 310.526 309.928 310.526 306.82V298.282H306.018V296.11Z" fill="#00BFFF"/>
<path d="M331.597 295.735C332.858 295.735 334.37 296.085 335.469 297.121C336.48 298.095 337.017 299.58 337.017 302.126V311.851H334.345V302.276C334.345 298.844 332.608 298.095 330.947 298.095C327.513 298.095 326.663 301.403 326.663 303.637V311.851H323.99V289.02H326.663V298.968C327.375 297.083 329.324 295.735 331.597 295.735Z" fill="#00BFFF"/>
<path d="M342.138 309.653H347.184V298.319H342.613V296.11H349.857V309.653H355.178V311.863H342.138V309.653ZM350.144 292.964H346.36V289.182H350.144V292.964Z" fill="#00BFFF"/>
<path d="M359.024 307.007L361.735 306.533C362.147 308.83 363.621 310.028 365.956 310.028C368.067 310.028 369.229 309.142 369.229 307.669C369.229 306.096 368.404 305.397 366.706 305.21L364.158 304.923C361.035 304.573 359.561 302.813 359.561 300.391C359.561 297.52 361.835 295.735 365.544 295.735C369.141 295.735 371.564 297.62 371.914 300.516L369.266 301.115C368.916 299.231 367.63 297.907 365.482 297.907C363.408 297.907 362.172 298.756 362.172 300.267C362.172 301.615 363.059 302.439 365.007 302.663L367.53 302.95C370.652 303.3 371.876 304.935 371.876 307.419C371.876 310.415 369.666 312.238 365.831 312.238C362.084 312.238 359.599 310.378 359.024 307.007Z" fill="#00BFFF"/>
<path d="M27.4939 347.427H32.5398V336.093H27.9685V333.883H35.2126V347.427H40.5333V349.636H27.4939V347.427ZM35.4874 330.737H31.703V326.955H35.4874V330.737Z" fill="#00BFFF"/>
<path d="M51.999 333.508C53.2854 333.508 54.7342 333.858 55.8084 334.856C56.845 335.83 57.3196 337.341 57.3196 339.9V349.624H54.6468V340.049C54.6468 336.617 52.9482 335.868 51.3745 335.868C47.8149 335.868 46.9656 339.175 46.9656 341.41V349.624H44.2927V333.883H46.8157V337.003C47.615 335.019 49.3511 333.508 51.999 333.508Z" fill="#00BFFF"/>
<path d="M78.4149 341.759C78.4149 336.754 81.35 333.508 85.759 333.508C90.1679 333.508 93.103 336.754 93.103 341.759C93.103 346.765 90.1679 350.011 85.759 350.011C81.35 350.011 78.4149 346.703 78.4149 341.759ZM90.2678 341.759C90.2678 338.077 88.5942 335.843 85.759 335.843C82.9238 335.843 81.2501 338.052 81.2501 341.759C81.2501 345.467 82.9238 347.676 85.759 347.676C88.5942 347.676 90.2678 345.479 90.2678 341.759Z" fill="#00BFFF"/>
<path d="M107.466 333.571C108.603 333.571 109.64 333.696 110.302 333.883V336.367C109.677 336.205 108.503 336.055 107.367 336.055C103.582 336.055 100.56 338.639 100.56 343.769V349.624H97.8867V333.883H100.535V337.977C101.609 335.493 104.182 333.571 107.466 333.571Z" fill="#00BFFF"/>
<path d="M126.801 326.805V349.636H124.278V346.703C123.328 348.75 121.855 350.011 119.269 350.011C115.335 350.011 112.775 346.74 112.775 341.735C112.775 336.791 115.51 333.521 119.669 333.521C121.817 333.521 123.328 334.682 124.115 336.23V326.818H126.801V326.805ZM119.931 335.868C117.221 335.868 115.61 338.04 115.61 341.722C115.61 345.38 117.221 347.639 119.831 347.639C122.504 347.639 124.178 345.492 124.178 342.097V341.373C124.19 338.015 122.554 335.868 119.931 335.868Z" fill="#00BFFF"/>
<path d="M144.761 342.446H133.708C133.708 345.405 135.406 347.639 138.341 347.639C140.415 347.639 141.714 346.353 142.5 344.831L144.774 346.029C143.45 348.638 141.314 349.998 138.341 349.998C133.395 349.998 130.972 346.603 130.972 341.435C130.972 336.617 133.745 333.496 138.154 333.496C142.975 333.496 144.836 336.954 144.836 341.235C144.824 341.635 144.786 342.047 144.761 342.446ZM138.017 335.593C135.156 335.593 133.695 337.952 133.695 340.249H142.038C142.113 337.728 140.852 335.593 138.017 335.593Z" fill="#00BFFF"/>
<path d="M159.911 333.571C161.048 333.571 162.084 333.696 162.746 333.883V336.367C162.122 336.205 160.948 336.055 159.811 336.055C156.027 336.055 153.004 338.639 153.004 343.769V349.624H150.332V333.883H152.979V337.977C154.041 335.493 156.626 333.571 159.911 333.571Z" fill="#00BFFF"/>
<path d="M183.654 333.883H188.163V329.764L190.836 328.628V333.883H196.981V336.055H190.836V344.207C190.836 346.316 191.848 347.327 193.859 347.327C194.895 347.327 195.994 347.227 196.981 347.04V349.499C196.157 349.686 195.282 349.911 193.896 349.911C189.962 349.911 188.163 347.702 188.163 344.593V336.055H183.654V333.883Z" fill="#00BFFF"/>
<path d="M200.791 341.759C200.791 336.754 203.726 333.508 208.135 333.508C212.543 333.508 215.479 336.754 215.479 341.759C215.479 346.765 212.543 350.011 208.135 350.011C203.726 350.011 200.791 346.703 200.791 341.759ZM212.631 341.759C212.631 338.077 210.957 335.843 208.122 335.843C205.287 335.843 203.613 338.052 203.613 341.759C203.613 345.467 205.287 347.676 208.122 347.676C210.957 347.676 212.631 345.479 212.631 341.759Z" fill="#00BFFF"/>
<path d="M235.837 341.66C235.837 336.966 238.235 333.508 243.181 333.508C246.678 333.508 249.201 335.518 249.576 339.138L246.841 339.45C246.553 337.116 245.229 335.83 242.994 335.83C240.096 335.83 238.61 338.164 238.61 341.622C238.61 345.217 240.096 347.639 243.081 347.639C245.379 347.639 246.603 346.253 246.99 343.857L249.538 344.269C249.039 347.477 246.99 349.998 243.081 349.998C238.298 350.011 235.837 346.391 235.837 341.66Z" fill="#00BFFF"/>
<path d="M264.789 333.571C265.925 333.571 266.962 333.696 267.624 333.883V336.367C266.999 336.205 265.825 336.055 264.689 336.055C260.904 336.055 257.882 338.639 257.882 343.769V349.624H255.209V333.883H257.857V337.977C258.931 335.493 261.516 333.571 264.789 333.571Z" fill="#00BFFF"/>
<path d="M272.22 347.427H277.266V336.093H272.695V333.883H279.939V347.427H285.259V349.636H272.22V347.427ZM280.226 330.737H276.442V326.955H280.226V330.737Z" fill="#00BFFF"/>
<path d="M288.532 333.883H293.041V329.764L295.713 328.628V333.883H301.858V336.055H295.713V344.207C295.713 346.316 296.725 347.327 298.736 347.327C299.773 347.327 300.884 347.227 301.858 347.04V349.499C301.034 349.686 300.16 349.911 298.773 349.911C294.839 349.911 293.041 347.702 293.041 344.593V336.055H288.532V333.883Z" fill="#00BFFF"/>
<path d="M307.179 347.427H312.225V336.093H307.654V333.883H314.898V347.427H320.218V349.636H307.179V347.427ZM315.185 330.737H311.401V326.955H315.185V330.737Z" fill="#00BFFF"/>
<path d="M323.241 341.66C323.241 336.966 325.639 333.508 330.585 333.508C334.082 333.508 336.605 335.518 336.98 339.138L334.245 339.45C333.957 337.116 332.633 335.83 330.398 335.83C327.5 335.83 326.014 338.164 326.014 341.622C326.014 345.217 327.5 347.639 330.485 347.639C332.783 347.639 334.02 346.253 334.394 343.857L336.942 344.269C336.443 347.477 334.394 349.998 330.485 349.998C325.701 350.011 323.241 346.391 323.241 341.66Z" fill="#00BFFF"/>
<path d="M342.138 347.427H347.184V336.093H342.613V333.883H349.857V347.427H355.178V349.636H342.138V347.427ZM350.144 330.737H346.36V326.955H350.144V330.737Z" fill="#00BFFF"/>
<path d="M368.13 336.155H359.212V333.883H371.339V335.868L362.209 347.327H371.814V349.624H358.9V347.576L368.13 336.155Z" fill="#00BFFF"/>
<path d="M389.487 342.446H378.434C378.434 345.405 380.132 347.639 383.067 347.639C385.141 347.639 386.44 346.353 387.227 344.831L389.5 346.029C388.176 348.638 386.04 349.998 383.067 349.998C378.121 349.998 375.698 346.603 375.698 341.435C375.698 336.617 378.471 333.496 382.88 333.496C387.701 333.496 389.562 336.954 389.562 341.235C389.55 341.635 389.512 342.047 389.487 342.446ZM382.743 335.593C379.87 335.593 378.421 337.952 378.421 340.249H386.764C386.839 337.728 385.578 335.593 382.743 335.593Z" fill="#00BFFF"/>
<path d="M32.215 387.784C30.7662 387.784 29.2799 387.434 28.1808 386.398C27.1691 385.425 26.7319 383.939 26.7319 381.393V371.668H29.4672V381.305C29.4672 384.738 31.1034 385.487 32.7396 385.487C36.0494 385.487 36.8362 382.179 36.8362 379.882V371.668H39.509V387.409H36.9861V384.413C36.4116 385.986 34.5506 387.784 32.215 387.784Z" fill="#00BFFF"/>
<path d="M44.3677 382.553L47.078 382.079C47.4901 384.376 48.9639 385.574 51.2995 385.574C53.4103 385.574 54.5719 384.688 54.5719 383.215C54.5719 381.642 53.7475 380.943 52.0489 380.756L49.501 380.469C46.3785 380.119 44.9047 378.359 44.9047 375.937C44.9047 373.066 47.1779 371.281 50.8874 371.281C54.4844 371.281 56.9075 373.166 57.2447 376.062L54.5969 376.661C54.2471 374.776 52.9607 373.453 50.8124 373.453C48.7391 373.453 47.5026 374.302 47.5026 375.813C47.5026 377.161 48.3894 377.985 50.3378 378.209L52.8608 378.496C55.9832 378.846 57.2072 380.481 57.2072 382.965C57.2072 385.961 54.9965 387.784 51.1621 387.784C47.4277 387.784 44.9422 385.924 44.3677 382.553Z" fill="#00BFFF"/>
<path d="M79.6765 371.668L81.2877 382.466L81.5999 384.701H81.8247C81.9496 383.977 82.0495 383.477 82.3243 382.054L84.3727 371.668H87.1079L89.1563 382.054C89.4435 383.477 89.531 383.977 89.6559 384.701H89.8807L90.1929 382.466L91.8041 371.668H94.6143L91.5543 387.409H88.1821L86.1337 377.236C86.0088 376.612 85.8839 375.288 85.8465 374.652H85.6216C85.5842 375.276 85.4593 376.599 85.3344 377.236L83.286 387.409H79.9138L76.8538 371.668H79.6765Z" fill="#00BFFF"/>
<path d="M104.344 371.281C105.605 371.281 107.117 371.631 108.216 372.667C109.227 373.641 109.764 375.126 109.764 377.673V387.409H107.092V377.835C107.092 374.402 105.356 373.653 103.694 373.653C100.26 373.653 99.4104 376.961 99.4104 379.196V387.409H96.7375V364.578H99.4104V374.527C100.122 372.642 102.071 371.281 104.344 371.281Z" fill="#00BFFF"/>
<path d="M114.898 385.2H119.944V373.865H115.372V371.656H122.617V385.2H127.937V387.409H114.898V385.2ZM122.891 368.51H119.107V364.728H122.891V368.51Z" fill="#00BFFF"/>
<path d="M132.371 385.2H137.417V366.775H132.696V364.566H140.102V385.188H145.423V387.409H132.384V385.2H132.371Z" fill="#00BFFF"/>
<path d="M162.234 380.231H151.181C151.181 383.19 152.879 385.424 155.815 385.424C157.9 385.424 159.187 384.139 159.974 382.616L162.247 383.814C160.923 386.423 158.787 387.784 155.815 387.784C150.869 387.784 148.446 384.388 148.446 379.22C148.446 374.402 151.218 371.281 155.627 371.281C160.448 371.281 162.309 374.739 162.309 379.021C162.297 379.408 162.272 379.82 162.234 380.231ZM155.49 373.366C152.63 373.366 151.168 375.725 151.168 378.022H159.512C159.587 375.5 158.325 373.366 155.49 373.366Z" fill="#00BFFF"/>
<path d="M188.251 371.281C189.799 371.281 190.986 372.317 191.523 374.152C192.272 372.33 193.696 371.281 195.245 371.281C197.193 371.281 198.967 372.629 198.967 375.975V387.409H196.294V376.199C196.294 374.19 195.345 373.653 194.433 373.653C192.572 373.653 191.91 375.001 191.91 376.986V387.409H189.3V376.199C189.3 374.277 188.451 373.653 187.439 373.653C185.615 373.653 184.978 375.101 184.978 376.986V387.409H182.306V371.668H184.828V374.09C185.453 372.392 186.677 371.281 188.251 371.281Z" fill="#00BFFF"/>
<path d="M214.617 387.409H211.807C211.682 386.523 211.582 385.487 211.557 384.538C210.52 386.748 208.822 387.784 206.236 387.784C203.114 387.784 200.94 385.861 200.94 383.152C200.94 381.517 201.69 380.256 203.151 379.433C204.188 378.871 205.886 378.459 208.509 378.147L211.382 377.797V377.51C211.382 374.714 210.345 373.478 208.01 373.478C205.774 373.478 204.45 374.614 204.325 376.599H201.465C201.752 373.229 204.2 371.281 208.21 371.281C212.269 371.281 214.105 373.291 214.105 377.835V382.079C214.08 384.6 214.242 386.236 214.617 387.409ZM207.647 380.256C204.912 380.631 203.776 381.417 203.776 382.99C203.776 384.6 204.875 385.574 206.736 385.574C209.571 385.574 211.394 383.627 211.394 380.531V379.745L207.647 380.256Z" fill="#00BFFF"/>
<path d="M225.071 379.695L222.198 382.591V387.409H219.525V364.578H222.198V379.408L229.255 371.668H232.752L226.982 377.748L233.127 387.409H229.817L225.071 379.695Z" fill="#00BFFF"/>
<path d="M237.261 385.2H242.307V373.865H237.735V371.656H244.98V385.2H250.3V387.409H237.261V385.2ZM245.254 368.51H241.47V364.728H245.254V368.51Z" fill="#00BFFF"/>
<path d="M261.766 371.281C263.052 371.281 264.501 371.631 265.575 372.629C266.612 373.603 267.087 375.114 267.087 377.673V387.409H264.414V377.835C264.414 374.402 262.715 373.653 261.141 373.653C257.582 373.653 256.733 376.961 256.733 379.195V387.409H254.06V371.668H256.583V374.789C257.382 372.792 259.118 371.281 261.766 371.281Z" fill="#00BFFF"/>
<path d="M282.424 372.917C283.336 373.828 283.836 375.089 283.836 376.574C283.836 379.782 281.438 381.954 277.915 381.954C276.816 381.954 275.805 381.73 274.98 381.33C274.318 381.642 273.881 382.179 273.881 382.903C273.881 383.877 274.706 384.476 276.492 384.476H280.551C283.823 384.476 285.684 386.086 285.684 388.757C285.684 392.065 282.811 393.925 277.903 393.925C273.432 393.925 270.746 392.377 270.746 389.931C270.746 388.233 271.82 386.972 273.481 386.398C272.195 385.861 271.496 384.913 271.496 383.602C271.496 382.154 272.32 381.08 273.769 380.544C272.757 379.632 272.195 378.309 272.195 376.736C272.195 373.528 274.556 371.294 278.053 371.294C279.214 371.294 280.226 371.544 281.075 371.981C281.637 370.121 282.936 369.084 284.885 369.084C285.234 369.084 285.609 369.122 285.896 369.209V371.544C285.422 371.481 285.135 371.419 284.735 371.419C283.598 371.406 282.874 371.881 282.424 372.917ZM276.404 386.835C275.93 386.835 275.492 386.81 275.08 386.773C274.044 387.247 273.407 388.096 273.407 389.169C273.407 390.842 274.955 391.716 278.19 391.716C281.562 391.716 283.011 390.767 283.011 389.045C283.011 387.634 282 386.835 279.951 386.835H276.404ZM281.325 376.574C281.325 374.689 279.976 373.329 278.053 373.329C276.104 373.329 274.743 374.714 274.743 376.662C274.743 378.584 276.067 379.907 277.953 379.907C279.901 379.907 281.325 378.497 281.325 376.574Z" fill="#00BFFF"/>
<path d="M319.494 387.409H316.684C316.559 386.523 316.459 385.487 316.434 384.538C315.397 386.748 313.699 387.784 311.113 387.784C307.991 387.784 305.818 385.861 305.818 383.152C305.818 381.517 306.58 380.256 308.028 379.433C309.065 378.871 310.764 378.459 313.386 378.147L316.259 377.797V377.51C316.259 374.714 315.222 373.478 312.887 373.478C310.651 373.478 309.327 374.614 309.202 376.599H306.33C306.617 373.229 309.065 371.281 313.074 371.281C317.133 371.281 318.969 373.291 318.969 377.835V382.079C318.969 384.6 319.119 386.236 319.494 387.409ZM312.537 380.256C309.802 380.631 308.665 381.417 308.665 382.99C308.665 384.6 309.764 385.574 311.625 385.574C314.461 385.574 316.284 383.627 316.284 380.531V379.745L312.537 380.256Z" fill="#00BFFF"/>
<path d="M341.676 390.842C343.949 391.341 344.636 391.279 345.298 391.279C347.759 391.279 348.858 390.393 348.858 387.285V373.878H342.875V371.669H351.543V387.447C351.543 391.004 350.157 393.738 345.648 393.738C344.137 393.738 342.875 393.551 341.676 393.176V390.842ZM351.78 368.51H347.996V364.728H351.78V368.51Z" fill="#00BFFF"/>
<path d="M358.113 379.532C358.113 374.527 361.048 371.281 365.457 371.281C369.866 371.281 372.801 374.527 372.801 379.532C372.801 384.538 369.866 387.784 365.457 387.784C361.048 387.784 358.113 384.476 358.113 379.532ZM369.953 379.532C369.953 375.85 368.279 373.616 365.444 373.616C362.609 373.616 360.935 375.825 360.935 379.532C360.935 383.24 362.609 385.449 365.444 385.449C368.279 385.449 369.953 383.252 369.953 379.532Z" fill="#00BFFF"/>
<path d="M382.393 379.695L379.533 382.591V387.409H376.86V364.578H379.533V379.408L386.589 371.668H390.087L384.316 377.748L390.461 387.409H387.151L382.393 379.695Z" fill="#00BFFF"/>
<path d="M406.973 380.231H395.919C395.919 383.19 397.618 385.424 400.553 385.424C402.626 385.424 403.925 384.139 404.712 382.616L406.985 383.814C405.661 386.423 403.526 387.784 400.553 387.784C395.607 387.784 393.184 384.388 393.184 379.22C393.184 374.402 395.957 371.281 400.366 371.281C405.187 371.281 407.048 374.739 407.048 379.021C407.035 379.408 406.998 379.82 406.973 380.231ZM400.228 373.366C397.356 373.366 395.907 375.725 395.907 378.022H404.25C404.325 375.5 403.064 373.366 400.228 373.366Z" fill="#00BFFF"/>
<path d="M25.9825 417.306C25.9825 412.3 28.9177 409.055 33.3266 409.055C37.7355 409.055 40.6706 412.3 40.6706 417.306C40.6706 422.311 37.7355 425.557 33.3266 425.557C28.9177 425.557 25.9825 422.249 25.9825 417.306ZM37.8229 417.306C37.8229 413.623 36.1493 411.389 33.3141 411.389C30.4789 411.389 28.8052 413.598 28.8052 417.306C28.8052 421.026 30.4789 423.223 33.3141 423.223C36.1493 423.223 37.8229 421.026 37.8229 417.306Z" fill="#00BFFF"/>
<path d="M49.7008 425.557C48.252 425.557 46.7657 425.207 45.6666 424.171C44.6549 423.197 44.2178 421.712 44.2178 419.166V409.441H46.9531V419.078C46.9531 422.511 48.5892 423.26 50.2254 423.26C53.5352 423.26 54.3221 419.952 54.3221 417.655V409.441H56.9949V425.182H54.4719V422.186C53.8849 423.759 52.0239 425.557 49.7008 425.557Z" fill="#00BFFF"/>
<path d="M61.2914 409.442H65.8002V405.322L68.473 404.187V409.442H74.618V411.614H68.473V419.765C68.473 421.875 69.4847 422.886 71.4956 422.886C72.5322 422.886 73.6313 422.786 74.618 422.599V425.058C73.7937 425.245 72.9194 425.47 71.5331 425.47C67.5988 425.47 65.8002 423.26 65.8002 420.152V411.614H61.2914V409.442Z" fill="#00BFFF"/>
<path d="M95.9008 417.306C95.9008 412.3 98.8359 409.055 103.245 409.055C107.654 409.055 110.589 412.3 110.589 417.306C110.589 422.311 107.654 425.557 103.245 425.557C98.8359 425.557 95.9008 422.249 95.9008 417.306ZM107.741 417.306C107.741 413.623 106.067 411.389 103.232 411.389C100.397 411.389 98.7235 413.598 98.7235 417.306C98.7235 421.026 100.397 423.223 103.232 423.223C106.08 423.223 107.741 421.026 107.741 417.306Z" fill="#00BFFF"/>
<path d="M127.3 411.613H121.318V425.182H118.645V411.613H113.824V409.441H118.645V407.706C118.645 404.111 120.656 402.264 124.565 402.264C125.477 402.264 126.239 402.364 127.3 402.576V404.935C126.601 404.835 125.752 404.685 124.565 404.685C122.167 404.685 121.318 405.509 121.318 407.893V409.441H127.3V411.613Z" fill="#00BFFF"/>
<path d="M149.857 422.973H154.903V411.638H150.332V409.429H157.576V422.973H162.896V425.182H149.857V422.973ZM157.863 406.283H154.079V402.501H157.863V406.283Z" fill="#00BFFF"/>
<path d="M166.169 409.442H170.678V405.322L173.35 404.187V409.442H179.495V411.614H173.35V419.765C173.35 421.875 174.362 422.886 176.373 422.886C177.41 422.886 178.521 422.786 179.495 422.599V425.058C178.671 425.245 177.797 425.47 176.41 425.47C172.476 425.47 170.678 423.26 170.678 420.152V411.614H166.169V409.442Z" fill="#00BFFF"/>
<path d="M188.725 428.39C190.486 427.629 190.836 426.905 190.836 425.182H188.538V421.15H192.722V425.182C192.722 427.604 191.96 428.865 189.537 429.838L188.725 428.39Z" fill="#00BFFF"/>
<path d="M219.775 422.973H224.821V411.638H220.25V409.429H227.494V422.973H232.814V425.182H219.775V422.973ZM227.781 406.283H223.997V402.501H227.781V406.283Z" fill="#00BFFF"/>
<path d="M244.28 409.055C245.567 409.055 247.015 409.404 248.09 410.403C249.126 411.377 249.601 412.887 249.601 415.446V425.17H246.928V415.596C246.928 412.163 245.229 411.414 243.656 411.414C240.096 411.414 239.247 414.722 239.247 416.956V425.17H236.574V409.429H239.097V412.55C239.909 410.578 241.632 409.055 244.28 409.055Z" fill="#00BFFF"/>
<path d="M271.97 409.441L273.581 420.239L273.894 422.473H274.118C274.243 421.749 274.343 421.25 274.618 419.827L276.666 409.441H279.402L281.45 419.827C281.737 421.25 281.825 421.749 281.95 422.473H282.174L282.487 420.239L284.098 409.441H286.908L283.848 425.182H280.476L278.427 415.009C278.302 414.385 278.178 413.061 278.14 412.425H277.915C277.878 413.049 277.753 414.372 277.628 415.009L275.58 425.182H272.207L269.147 409.441H271.97Z" fill="#00BFFF"/>
<path d="M296.638 409.055C297.899 409.055 299.41 409.404 300.51 410.44C301.521 411.414 302.058 412.899 302.058 415.446V425.17H299.385V415.596C299.385 412.163 297.649 411.414 295.988 411.414C292.554 411.414 291.704 414.722 291.704 416.956V425.17H289.031V402.339H291.704V412.288C292.416 410.415 294.365 409.055 296.638 409.055Z" fill="#00BFFF"/>
<path d="M319.494 425.183H316.684C316.559 424.296 316.459 423.26 316.434 422.311C315.397 424.521 313.699 425.557 311.113 425.557C307.991 425.557 305.818 423.635 305.818 420.926C305.818 419.291 306.58 418.03 308.028 417.206C309.065 416.644 310.764 416.232 313.386 415.92L316.259 415.571V415.284C316.259 412.487 315.222 411.252 312.887 411.252C310.651 411.252 309.327 412.388 309.202 414.372H306.33C306.617 411.002 309.065 409.055 313.074 409.055C317.133 409.055 318.969 411.064 318.969 415.608V419.865C318.969 422.374 319.119 424.022 319.494 425.183ZM312.537 418.03C309.802 418.404 308.665 419.191 308.665 420.764C308.665 422.374 309.764 423.348 311.625 423.348C314.461 423.348 316.284 421.4 316.284 418.304V417.518L312.537 418.03Z" fill="#00BFFF"/>
<path d="M323.503 409.442H328.012V405.322L330.685 404.187V409.442H336.83V411.614H330.685V419.765C330.685 421.875 331.697 422.886 333.708 422.886C334.744 422.886 335.856 422.786 336.83 422.599V425.058C336.006 425.245 335.131 425.47 333.745 425.47C329.811 425.47 328.012 423.26 328.012 420.152V411.614H323.503V409.442Z" fill="#00BFFF"/>
<path d="M26.3198 447.215H30.8287V443.095L33.5015 441.959V447.215H39.6465V449.387H33.5015V457.538C33.5015 459.648 34.5132 460.659 36.524 460.659C37.5607 460.659 38.6723 460.559 39.6465 460.372V462.831C38.8222 463.018 37.9479 463.243 36.5615 463.243C32.6272 463.243 30.8287 461.033 30.8287 457.925V449.387H26.3198V447.215Z" fill="#00BFFF"/>
<path d="M51.899 446.84C53.1605 446.84 54.6718 447.19 55.7709 448.226C56.7826 449.2 57.3196 450.685 57.3196 453.231V462.956H54.6468V453.381C54.6468 449.948 52.9107 449.2 51.2496 449.2C47.8149 449.2 46.9656 452.507 46.9656 454.742V462.956H44.2927V440.125H46.9656V450.073C47.6775 448.188 49.6384 446.84 51.899 446.84Z" fill="#00BFFF"/>
<path d="M74.8304 455.778H63.7769C63.7769 458.736 65.4755 460.971 68.4106 460.971C70.484 460.971 71.7829 459.685 72.5698 458.162L74.8429 459.36C73.519 461.969 71.3832 463.33 68.4106 463.33C63.4647 463.33 61.0416 459.935 61.0416 454.767C61.0416 449.948 63.8144 446.828 68.2233 446.828C73.0444 446.828 74.9054 450.285 74.9054 454.567C74.8929 454.954 74.8679 455.366 74.8304 455.778ZM68.0859 448.912C65.2257 448.912 63.7644 451.272 63.7644 453.568H72.1076C72.1826 451.059 70.9211 448.912 68.0859 448.912Z" fill="#00BFFF"/>
<path d="M86.0088 459.835L90.3927 447.215H93.2529L86.958 463.967C85.5092 467.961 83.6232 469.285 80.9754 469.285C80.5008 469.285 80.0262 469.247 79.5266 469.16V466.8C79.9387 466.838 80.3134 466.863 80.6632 466.863C82.5866 466.863 83.5608 466.014 84.2852 463.929L84.6974 462.768L78.5524 447.215H81.5749L86.0088 459.835Z" fill="#00BFFF"/>
<path d="M113.474 454.992C113.474 450.298 115.872 446.84 120.818 446.84C124.315 446.84 126.838 448.85 127.213 452.47L124.478 452.782C124.19 450.448 122.866 449.162 120.631 449.162C117.733 449.162 116.247 451.496 116.247 454.954C116.247 458.549 117.733 460.971 120.718 460.971C123.016 460.971 124.24 459.585 124.627 457.189L127.175 457.601C126.676 460.809 124.627 463.33 120.718 463.33C115.934 463.33 113.474 459.71 113.474 454.992Z" fill="#00BFFF"/>
<path d="M144.699 462.955H141.888C141.764 462.069 141.664 461.033 141.639 460.084C140.602 462.294 138.903 463.33 136.318 463.33C133.195 463.33 131.022 461.408 131.022 458.699C131.022 457.064 131.772 455.803 133.233 454.979C134.27 454.417 135.968 454.005 138.591 453.693L141.464 453.344V453.057C141.464 450.26 140.427 449.025 138.091 449.025C135.856 449.025 134.532 450.161 134.407 452.145H131.547C131.834 448.775 134.282 446.828 138.291 446.828C142.351 446.828 144.187 448.837 144.187 453.381V457.638C144.162 460.159 144.311 461.795 144.699 462.955ZM137.729 455.803C134.994 456.177 133.857 456.964 133.857 458.537C133.857 460.147 134.957 461.12 136.818 461.12C139.653 461.12 141.476 459.173 141.476 456.077V455.291L137.729 455.803Z" fill="#00BFFF"/>
<path d="M149.857 460.746H154.903V442.334H150.182V440.125H157.588V460.746H162.909V462.956H149.869V460.746H149.857Z" fill="#00BFFF"/>
<path d="M167.33 460.746H172.376V442.334H167.655V440.125H175.061V460.746H180.382V462.956H167.343V460.746H167.33Z" fill="#00BFFF"/>
<path d="M210.021 441.423C208.259 442.184 207.91 442.908 207.91 444.631H210.208V448.663H206.024V444.631C206.024 442.209 206.773 440.948 209.209 439.975L210.021 441.423Z" fill="#00BFFF"/>
<path d="M223.21 446.84C224.759 446.84 225.945 447.876 226.482 449.711C227.244 447.889 228.655 446.84 230.204 446.84C232.153 446.84 233.926 448.188 233.926 451.534V462.968H231.253V451.759C231.253 449.749 230.304 449.212 229.392 449.212C227.531 449.212 226.869 450.56 226.869 452.545V462.968H224.259V451.759C224.259 449.836 223.41 449.212 222.398 449.212C220.574 449.212 219.937 450.66 219.937 452.545V462.968H217.265V447.227H219.788V449.649C220.412 447.939 221.636 446.84 223.21 446.84Z" fill="#00BFFF"/>
<path d="M249.638 455.778H238.585C238.585 458.736 240.283 460.971 243.219 460.971C245.292 460.971 246.591 459.685 247.378 458.162L249.651 459.36C248.327 461.969 246.191 463.33 243.219 463.33C238.273 463.33 235.849 459.935 235.849 454.767C235.849 449.948 238.622 446.828 243.031 446.828C247.852 446.828 249.713 450.285 249.713 454.567C249.701 454.954 249.676 455.366 249.638 455.778ZM242.894 448.912C240.021 448.912 238.572 451.272 238.572 453.568H246.916C246.99 451.059 245.729 448.912 242.894 448.912Z" fill="#00BFFF"/>
<path d="M258.169 446.84C259.718 446.84 260.904 447.876 261.441 449.711C262.203 447.889 263.614 446.84 265.163 446.84C267.112 446.84 268.885 448.188 268.885 451.534V462.968H266.212V451.759C266.212 449.749 265.263 449.212 264.351 449.212C262.49 449.212 261.828 450.56 261.828 452.545V462.968H259.218V451.759C259.218 449.836 258.369 449.212 257.357 449.212C255.534 449.212 254.897 450.66 254.897 452.545V462.968H252.224V447.227H254.747V449.649C255.371 447.939 256.595 446.84 258.169 446.84Z" fill="#00BFFF"/>
<path d="M284.597 455.778H273.544C273.544 458.736 275.242 460.971 278.178 460.971C280.251 460.971 281.55 459.685 282.337 458.162L284.61 459.36C283.286 461.969 281.15 463.33 278.178 463.33C273.232 463.33 270.809 459.935 270.809 454.767C270.809 449.948 273.581 446.828 277.99 446.828C282.811 446.828 284.672 450.285 284.672 454.567C284.66 454.954 284.635 455.366 284.597 455.778ZM277.865 448.912C274.993 448.912 273.544 451.272 273.544 453.568H281.887C281.95 451.059 280.701 448.912 277.865 448.912Z" fill="#00BFFF"/>
<path d="M289.106 458.112L291.817 457.638C292.229 459.935 293.702 461.133 296.038 461.133C298.149 461.133 299.31 460.247 299.31 458.774C299.31 457.201 298.486 456.502 296.787 456.315L294.24 456.028C291.117 455.678 289.643 453.918 289.643 451.496C289.643 448.625 291.916 446.84 295.626 446.84C299.223 446.84 301.646 448.725 301.996 451.621L299.348 452.22C298.998 450.336 297.712 449.012 295.563 449.012C293.49 449.012 292.254 449.861 292.254 451.372C292.254 452.72 293.14 453.544 295.089 453.768L297.612 454.055C300.734 454.405 301.958 456.04 301.958 458.524C301.958 461.52 299.748 463.343 295.913 463.343C292.154 463.33 289.668 461.47 289.106 458.112Z" fill="#00BFFF"/>
<path d="M311.088 447.839C312.85 447.077 313.199 446.353 313.199 444.631H310.901V440.599H315.085V444.631C315.085 447.052 314.323 448.313 311.9 449.287L311.088 447.839Z" fill="#00BFFF"/>
<path d="M332.571 462.956H328.387V458.924H332.571V462.956Z" fill="#00BFFF"/>
<path d="M865.575 499.893H743.362C743.362 499.893 688.132 495.96 688.132 555.092V618.305C688.132 625.17 693.702 630.725 700.559 630.725C707.429 630.725 712.987 625.158 712.987 618.305V596.322H756.889C765.169 596.322 771.889 589.607 771.889 581.331V560.035H865.55V499.893H865.575Z" fill="#6998F6"/>
<path d="M712.65 592.415V559.723H746.759V589.17" stroke="black" stroke-width="3" stroke-miterlimit="10" stroke-linecap="round" stroke-linejoin="round"/>
<path d="M745.373 582.741C741.739 574.24 727.2 569.397 721.143 576.662C721.143 576.662 729.511 569.397 725.327 559.71" stroke="black" stroke-width="3" stroke-miterlimit="10" stroke-linecap="round" stroke-linejoin="round"/>
<path d="M23.4722 989.956H861.903" stroke="#00BFFF" stroke-width="3" stroke-miterlimit="10" stroke-linecap="round"/>
<path d="M607.223 575.988C605.249 573.354 603.913 570.083 603.813 567.412C603.701 563.929 608.697 562.956 609.921 566.214C609.933 566.239 609.933 566.251 609.946 566.276C610.857 568.748 611.994 574.639 619.488 577.361L619.138 577.323C630.404 580.918 638.572 591.466 638.572 603.937C638.572 619.366 626.057 631.873 610.62 631.873C595.183 631.873 582.668 619.366 582.668 603.937C582.668 593.189 588.113 584.326 595.969 580.407" stroke="#00BFFF" stroke-width="3" stroke-miterlimit="10" stroke-linecap="round"/>
<path d="M601.078 577.348C599.104 574.714 597.768 570.77 597.668 568.086C597.556 564.603 602.552 563.629 603.776 566.887" stroke="#00BFFF" stroke-width="3" stroke-miterlimit="10" stroke-linecap="round"/>
<path d="M595.632 580.082C593.659 577.448 592.322 573.503 592.222 570.82C592.11 567.337 596.419 566.363 597.656 569.621" stroke="#00BFFF" stroke-width="3" stroke-miterlimit="10" stroke-linecap="round"/>
<path d="M197.968 642.271V788.633L107.978 928.54" stroke="#00BFFF" stroke-width="3" stroke-miterlimit="10" stroke-linecap="round"/>
<path d="M154.066 966.963L89.9181 916.008C84.1977 911.464 75.8545 912.575 71.5205 918.454C67.3864 924.072 68.4605 931.948 73.956 936.242L139.815 987.759L154.066 966.963Z" stroke="#00BFFF" stroke-width="3" stroke-miterlimit="10" stroke-linecap="round"/>
<path d="M528.287 966.963L464.139 916.008C458.419 911.464 450.075 912.575 445.741 918.454C441.607 924.072 442.681 931.948 448.177 936.242L516.234 988.845L528.287 966.963Z" stroke="#00BFFF" stroke-width="3" stroke-miterlimit="10" stroke-linecap="round"/>
<path d="M314.348 990.168C307.379 990.031 301.771 984.364 301.708 977.399C301.646 970.096 307.654 964.204 314.96 964.404H333.395" stroke="#00BFFF" stroke-width="3" stroke-miterlimit="10" stroke-linecap="round"/>
<path d="M154.066 966.963L215.529 875.888" stroke="#00BFFF" stroke-width="3" stroke-miterlimit="10" stroke-linecap="round"/>
<path d="M141.838 875.888H303.37V785.4H324.103L382.33 942.796" stroke="#00BFFF" stroke-width="3" stroke-miterlimit="10" stroke-linecap="round"/>
<path d="M324.103 772.917H303.37V642.271" stroke="#00BFFF" stroke-width="3" stroke-miterlimit="10" stroke-linecap="round"/>
<path d="M298.411 875.888L332.296 964.766L382.331 942.796L391.323 966.514L335.906 989.956" stroke="#00BFFF" stroke-width="3" stroke-miterlimit="10" stroke-linecap="round"/>
<path d="M649.701 990.493C642.731 990.356 637.123 984.689 637.061 977.723C636.999 970.421 643.006 964.529 650.313 964.729H668.748" stroke="#00BFFF" stroke-width="3" stroke-miterlimit="10" stroke-linecap="round"/>
<path d="M612.781 822.149L667.661 965.103L717.683 943.121L726.676 966.838L671.258 990.281" stroke="#00BFFF" stroke-width="3" stroke-miterlimit="10" stroke-linecap="round"/>
<path d="M324.103 785.4V687.784H386.752C404.912 687.784 419.65 673.067 419.65 654.904V560.422C419.65 556.552 416.515 553.419 412.643 553.419C408.771 553.419 405.637 556.552 405.637 560.422V577.548" stroke="#00BFFF" stroke-width="3" stroke-miterlimit="10" stroke-linecap="round"/>
<path d="M405.674 577.561V560.022C405.674 556.153 402.539 553.02 398.667 553.02C394.795 553.02 391.66 556.153 391.66 560.022V577.149" stroke="#00BFFF" stroke-width="3" stroke-miterlimit="10" stroke-linecap="round"/>
<path d="M391.398 577.561V560.022C391.398 556.153 388.263 553.02 384.391 553.02C380.519 553.02 377.385 556.153 377.385 560.022V590.718" stroke="#00BFFF" stroke-width="3" stroke-miterlimit="10" stroke-linecap="round"/>
<path d="M395.37 602.826V597.845C395.37 593.913 392.185 590.718 388.238 590.718H355.54C351.606 590.718 348.408 593.901 348.408 597.845C348.408 601.778 351.593 604.973 355.54 604.973H373.538V642.272H282.274L271.496 610.466" stroke="#00BFFF" stroke-width="3" stroke-miterlimit="10" stroke-linecap="round"/>
<path d="M373.55 619.241H419.638" stroke="#00BFFF" stroke-width="3" stroke-miterlimit="10" stroke-linecap="round"/>
<path d="M385.628 577.561H410.857" stroke="#00BFFF" stroke-width="3" stroke-miterlimit="10" stroke-linecap="round"/>
<path d="M198.005 687.771H135.356C117.196 687.771 102.458 673.054 102.458 654.892V560.409C102.458 556.539 105.593 553.406 109.465 553.406C113.337 553.406 116.472 556.539 116.472 560.409V577.536" stroke="#00BFFF" stroke-width="3" stroke-miterlimit="10" stroke-linecap="round"/>
<path d="M116.434 577.535V559.997C116.434 556.127 119.569 552.994 123.441 552.994C127.313 552.994 130.448 556.127 130.448 559.997V577.123" stroke="#00BFFF" stroke-width="3" stroke-miterlimit="10" stroke-linecap="round"/>
<path d="M130.698 577.535V559.997C130.698 556.127 133.832 552.994 137.704 552.994C141.576 552.994 144.711 556.127 144.711 559.997V590.692" stroke="#00BFFF" stroke-width="3" stroke-miterlimit="10" stroke-linecap="round"/>
<path d="M126.738 602.801V597.821C126.738 593.888 129.923 590.693 133.87 590.693H166.568C170.503 590.693 173.7 593.876 173.7 597.821C173.7 601.753 170.515 604.948 166.568 604.948H148.57V642.247H247.515L258.294 610.441" stroke="#00BFFF" stroke-width="3" stroke-miterlimit="10" stroke-linecap="round"/>
<path d="M148.558 619.216H102.458" stroke="#00BFFF" stroke-width="3" stroke-miterlimit="10" stroke-linecap="round"/>
<path d="M136.48 577.536H111.238" stroke="#00BFFF" stroke-width="3" stroke-miterlimit="10" stroke-linecap="round"/>
<path d="M264.526 611.052C280.191 611.052 292.891 598.36 292.891 582.704C292.891 567.047 280.191 554.355 264.526 554.355C248.861 554.355 236.162 567.047 236.162 582.704C236.162 598.36 248.861 611.052 264.526 611.052Z" stroke="#00BFFF" stroke-width="3" stroke-miterlimit="10" stroke-linecap="round"/>
<path d="M257.919 580.469H249.563" stroke="#00BFFF" stroke-width="3" stroke-miterlimit="10" stroke-linecap="round"/>
<path d="M257.919 584.639H249.563" stroke="#00BFFF" stroke-width="3" stroke-miterlimit="10" stroke-linecap="round"/>
<path d="M237.623 590.605C242.403 590.605 246.279 586.067 246.279 580.469C246.279 574.871 242.403 570.333 237.623 570.333C232.843 570.333 228.968 574.871 228.968 580.469C228.968 586.067 232.843 590.605 237.623 590.605Z" fill="white" stroke="#00BFFF" stroke-width="3" stroke-miterlimit="10" stroke-linecap="round"/>
<path d="M237.623 570.321H249.513V590.605H237.623" stroke="#00BFFF" stroke-width="3" stroke-miterlimit="10" stroke-linecap="round"/>
<path d="M261.491 590.605C266.272 590.605 270.147 586.067 270.147 580.469C270.147 574.871 266.272 570.333 261.491 570.333C256.711 570.333 252.836 574.871 252.836 580.469C252.836 586.067 256.711 590.605 261.491 590.605Z" fill="white" stroke="#00BFFF" stroke-width="3" stroke-miterlimit="10" stroke-linecap="round"/>
<path d="M261.491 570.321H273.394V590.605H261.491" stroke="#00BFFF" stroke-width="3" stroke-miterlimit="10" stroke-linecap="round"/>
<path d="M292.528 580.469H273.731" stroke="#00BFFF" stroke-width="3" stroke-miterlimit="10" stroke-linecap="round"/>
<path d="M292.528 584.639H273.731" stroke="#00BFFF" stroke-width="3" stroke-miterlimit="10" stroke-linecap="round"/>
<path d="M259.018 597.059H278.49C278.49 597.059 278.078 603.488 271.496 603.488C271.496 603.488 266.013 603.887 266.013 598.395" stroke="#00BFFF" stroke-width="3" stroke-miterlimit="10" stroke-linecap="round"/>
<path d="M211.844 642.271V678.934H290.143V642.271" stroke="#00BFFF" stroke-width="3" stroke-miterlimit="10" stroke-linecap="round"/>
<path d="M287.757 642.172C283.586 652.82 273.219 660.372 261.079 660.372C248.914 660.372 238.522 652.795 234.376 642.109" stroke="#00BFFF" stroke-width="3" stroke-miterlimit="10" stroke-linecap="round"/>
<path d="M637.823 661.92C633.651 672.568 623.285 680.12 611.145 680.12C598.98 680.12 588.588 672.543 584.441 661.857" stroke="#00BFFF" stroke-width="3" stroke-miterlimit="10" stroke-linecap="round"/>
<path d="M528.287 966.963L605.836 822.149" stroke="#00BFFF" stroke-width="3" stroke-miterlimit="10" stroke-linecap="round"/>
<path d="M717.683 943.12L661.066 792.54V699.306" stroke="#00BFFF" stroke-width="3" stroke-miterlimit="10" stroke-linecap="round"/>
<path d="M482.399 930.513L558.313 792.54V699.306" stroke="#00BFFF" stroke-width="3" stroke-miterlimit="10" stroke-linecap="round"/>
<path d="M661.066 708.693H699.498V782.666H694.976C689.968 782.666 685.909 786.723 685.909 791.729C685.909 796.734 689.968 800.791 694.976 800.791H699.498" stroke="#00BFFF" stroke-width="3" stroke-miterlimit="10" stroke-linecap="round"/>
<path d="M725.664 811.302V811.477C725.664 815.122 728.624 818.093 732.284 818.093C735.931 818.093 738.903 815.134 738.903 811.477V702.339C738.903 680.07 720.843 662.007 698.549 662.007H626.22L618.576 630.7" stroke="#00BFFF" stroke-width="3" stroke-miterlimit="10" stroke-linecap="round"/>
<path d="M684.123 662.02V708.081" stroke="#00BFFF" stroke-width="3" stroke-miterlimit="10" stroke-linecap="round"/>
<path d="M603.876 630.7L596.232 662.007H555.69C537.529 662.007 522.804 676.724 522.804 694.874V785.4" stroke="#00BFFF" stroke-width="3" stroke-miterlimit="10" stroke-linecap="round"/>
<path d="M522.804 724.534H557.913" stroke="#00BFFF" stroke-width="3" stroke-miterlimit="10" stroke-linecap="round"/>
<path d="M528.287 785.4H497.15V774.689C497.15 771.132 494.264 768.261 490.717 768.261H482.137C478.577 768.261 475.705 771.144 475.705 774.689V799.643C475.705 803.2 478.59 806.071 482.137 806.071C485.696 806.071 488.569 803.188 488.569 799.643V782.653" stroke="#00BFFF" stroke-width="3" stroke-miterlimit="10" stroke-linecap="round"/>
<path d="M469.609 796.921H452.636C449.326 796.921 446.628 794.238 446.628 790.917V790.855C446.628 787.547 449.313 784.851 452.636 784.851H469.609C472.919 784.851 475.617 787.534 475.617 790.855V790.917C475.605 794.238 472.919 796.921 469.609 796.921Z" stroke="#00BFFF" stroke-width="3" stroke-miterlimit="10" stroke-linecap="round"/>
<path d="M469.609 808.98H452.636C449.326 808.98 446.628 806.296 446.628 802.976V802.913C446.628 799.605 449.313 796.909 452.636 796.909H469.609C472.919 796.909 475.617 799.593 475.617 802.913V802.976C475.605 806.296 472.919 808.98 469.609 808.98Z" stroke="#00BFFF" stroke-width="3" stroke-miterlimit="10" stroke-linecap="round"/>
<path d="M469.609 821.051H452.636C449.326 821.051 446.628 818.367 446.628 815.047V814.984C446.628 811.676 449.313 808.98 452.636 808.98H469.609C472.919 808.98 475.617 811.664 475.617 814.984V815.047C475.605 818.367 472.919 821.051 469.609 821.051Z" stroke="#00BFFF" stroke-width="3" stroke-miterlimit="10" stroke-linecap="round"/>
<path d="M470.122 821.051H542.613" stroke="#00BFFF" stroke-width="3" stroke-miterlimit="10" stroke-linecap="round"/>
<path d="M595.232 822.149H620.462" stroke="#00BFFF" stroke-width="3" stroke-miterlimit="10" stroke-linecap="round"/>
<path d="M557.913 792.54H661.067" stroke="#00BFFF" stroke-width="3" stroke-miterlimit="10" stroke-linecap="round"/>
<path d="M588.963 604.511C589.363 604.511 589.687 604.187 589.687 603.787C589.687 603.387 589.363 603.063 588.963 603.063C588.563 603.063 588.238 603.387 588.238 603.787C588.238 604.187 588.563 604.511 588.963 604.511Z" stroke="#00BFFF" stroke-width="3" stroke-miterlimit="10" stroke-linecap="round"/>
<path d="M597.318 604.511C597.718 604.511 598.043 604.187 598.043 603.787C598.043 603.387 597.718 603.063 597.318 603.063C596.918 603.063 596.594 603.387 596.594 603.787C596.594 604.187 596.918 604.511 597.318 604.511Z" stroke="#00BFFF" stroke-width="3" stroke-miterlimit="10" stroke-linecap="round"/>
<path d="M621.436 599.006C626.057 599.006 629.792 602.751 629.792 607.357C629.792 611.964 626.045 615.708 621.436 615.708" stroke="#00BFFF" stroke-width="3" stroke-miterlimit="10" stroke-linecap="round"/>
<path d="M594.208 595.661C594.208 592.727 596.032 590.355 598.28 590.355C600.528 590.355 602.352 592.727 602.352 595.661" stroke="#00BFFF" stroke-width="3" stroke-miterlimit="10" stroke-linecap="round"/>
<path d="M579.945 595.661C579.945 592.727 581.768 590.355 584.016 590.355C586.265 590.355 588.088 592.727 588.088 595.661" stroke="#00BFFF" stroke-width="3" stroke-miterlimit="10" stroke-linecap="round"/>
<path d="M607.31 620.964C607.71 620.964 608.035 620.639 608.035 620.24C608.035 619.84 607.71 619.516 607.31 619.516C606.91 619.516 606.586 619.84 606.586 620.24C606.586 620.639 606.91 620.964 607.31 620.964Z" stroke="#00BFFF" stroke-width="3" stroke-miterlimit="10" stroke-linecap="round"/>
<path d="M675.018 638.977L686.558 647.377" stroke="#00BFFF" stroke-width="3" stroke-miterlimit="10" stroke-linecap="round"/>
<path d="M547.983 555.029L559.524 563.43" stroke="#00BFFF" stroke-width="3" stroke-miterlimit="10" stroke-linecap="round"/>
<path d="M539.265 587.56H553.541" stroke="#00BFFF" stroke-width="3" stroke-miterlimit="10" stroke-linecap="round"/>
<path d="M730.173 638.926L718.632 647.315" stroke="#00BFFF" stroke-width="3" stroke-miterlimit="10" stroke-linecap="round"/>
<path d="M576.498 535.631L581.406 549.037" stroke="#00BFFF" stroke-width="3" stroke-miterlimit="10" stroke-linecap="round"/>
</svg>
