<svg width="1802" height="1162" viewBox="0 0 1802 1162" fill="none" xmlns="http://www.w3.org/2000/svg">
<path d="M1493.28 705.409C1450.5 686.177 1429.93 654.773 1419.03 632.986L1369.21 636.172C1365.25 636.422 1362.17 639.71 1362.17 643.689C1362.17 647.183 1364.57 650.222 1367.98 651.015L1398.48 658.15C1398.48 658.15 1415.42 687.439 1444.15 700.198L1493.28 705.409Z" stroke="#00BFFF" stroke-width="3" stroke-miterlimit="10" stroke-linecap="round"/>
<path d="M43.5928 426.171H1287.73" stroke="#00BFFF" stroke-width="3" stroke-miterlimit="10" stroke-linecap="round"/>
<path d="M214.043 167.618C226.847 167.618 237.227 157.239 237.227 144.436C237.227 131.633 226.847 121.254 214.043 121.254C201.239 121.254 190.859 131.633 190.859 144.436C190.859 157.239 201.239 167.618 214.043 167.618Z" stroke="#00BFFF" stroke-width="3" stroke-miterlimit="10" stroke-linecap="round"/>
<path d="M165.708 426.171L187.38 346.172H115.728C88.9619 346.172 71.4015 318.175 83.0595 294.082L131.571 193.794C142.568 171.053 172.491 165.503 190.903 182.798L248.826 237.192H285.93V234.667C285.93 231.011 288.895 228.031 292.566 228.031H299.496C302.888 228.031 305.648 230.776 305.648 234.183V234.461" stroke="#00BFFF" stroke-width="3" stroke-miterlimit="10" stroke-linecap="round"/>
<path d="M210.02 426.171L234.276 342.546C240.531 320.964 224.336 299.397 201.857 299.397H139.015" stroke="#00BFFF" stroke-width="3" stroke-miterlimit="10" stroke-linecap="round"/>
<path d="M143.317 346.172H64.4717V356.61H143.317V346.172Z" stroke="#00BFFF" stroke-width="3" stroke-miterlimit="10" stroke-linecap="round"/>
<path d="M67.9956 426.171V367.475C67.9956 361.47 72.8556 356.61 78.8608 356.61H129.149C135.154 356.61 140.014 361.47 140.014 367.475V426.171H131.704V369.28C131.704 366.77 129.663 364.729 127.152 364.729H81.7826C79.2719 364.729 77.231 366.77 77.231 369.28V426.171" stroke="#00BFFF" stroke-width="3" stroke-miterlimit="10" stroke-linecap="round"/>
<path d="M68.3771 364.671H59.3032C53.8706 364.671 49.4658 360.267 49.4658 354.835V267.95H57.6734V352.691C57.6734 354.849 59.4207 356.611 61.5937 356.611H64.4715" stroke="#00BFFF" stroke-width="3" stroke-miterlimit="10" stroke-linecap="round"/>
<path d="M67.9511 245.296H57.5117V306.737H67.9511V245.296Z" stroke="#00BFFF" stroke-width="3" stroke-miterlimit="10" stroke-linecap="round"/>
<path d="M294.049 236.032H313.489C316.205 236.032 318.393 238.234 318.393 240.936V242.008C318.393 244.724 316.191 246.911 313.489 246.911H312.593" stroke="#00BFFF" stroke-width="3" stroke-miterlimit="10" stroke-linecap="round"/>
<path d="M313.21 246.721C315.926 246.721 318.114 248.923 318.114 251.624V252.696C318.114 255.412 315.912 257.6 313.21 257.6H312.314" stroke="#00BFFF" stroke-width="3" stroke-miterlimit="10" stroke-linecap="round"/>
<path d="M313.489 257.599C316.205 257.599 318.393 259.801 318.393 262.503V263.574C318.393 266.29 316.19 268.478 313.489 268.478H241.867C238.138 268.478 234.555 267.083 231.809 264.573L181.58 218.62" stroke="#00BFFF" stroke-width="3" stroke-miterlimit="10" stroke-linecap="round"/>
<path d="M157.647 299.397L192.519 228.647" stroke="#00BFFF" stroke-width="3" stroke-miterlimit="10" stroke-linecap="round"/>
<path d="M190.889 182.798L200.961 163.58" stroke="#00BFFF" stroke-width="3" stroke-miterlimit="10" stroke-linecap="round"/>
<path d="M193.4 155.006L164.945 172.638" stroke="#00BFFF" stroke-width="3" stroke-miterlimit="10" stroke-linecap="round"/>
<path d="M301.567 236.032L287.09 209.356L282.45 211.676L295.899 236.032H301.567Z" stroke="#00BFFF" stroke-width="3" stroke-miterlimit="10" stroke-linecap="round"/>
<path d="M522.467 268.492H210.564V280.09H522.467V268.492Z" stroke="#00BFFF" stroke-width="3" stroke-miterlimit="10" stroke-linecap="round"/>
<path d="M243.027 280.076V426.17" stroke="#00BFFF" stroke-width="3" stroke-miterlimit="10" stroke-linecap="round"/>
<path d="M255.786 280.076V426.17" stroke="#00BFFF" stroke-width="3" stroke-miterlimit="10" stroke-linecap="round"/>
<path d="M476.084 280.076V426.17" stroke="#00BFFF" stroke-width="3" stroke-miterlimit="10" stroke-linecap="round"/>
<path d="M488.829 280.076V426.17" stroke="#00BFFF" stroke-width="3" stroke-miterlimit="10" stroke-linecap="round"/>
<path d="M366.508 268.493V241.993C366.508 173.167 422.317 117.363 491.149 117.363H491.546C511.587 117.363 527.841 133.616 527.841 153.656V252.167H541.32C545.725 252.167 548.412 257.012 546.062 260.756L535.006 278.359C533.244 281.178 529.456 281.897 526.784 279.93C524.361 278.153 523.73 274.791 525.345 272.252L532.907 260.389" stroke="#00BFFF" stroke-width="3" stroke-miterlimit="10" stroke-linecap="round"/>
<path d="M436.427 268.492V240.128C436.427 209.048 461.622 183.854 492.705 183.854" stroke="#00BFFF" stroke-width="3" stroke-miterlimit="10" stroke-linecap="round"/>
<path d="M492.705 165.327V251.301C492.705 260.785 500.399 268.478 509.884 268.478H527.723" stroke="#00BFFF" stroke-width="3" stroke-miterlimit="10" stroke-linecap="round"/>
<path d="M482.516 186.16V254.898C482.516 262.4 488.594 268.479 496.097 268.479H502.631" stroke="#00BFFF" stroke-width="3" stroke-miterlimit="10" stroke-linecap="round"/>
<path d="M527.723 246.544H541.76C544.094 246.544 545.592 249.04 544.491 251.11" stroke="#00BFFF" stroke-width="3" stroke-miterlimit="10" stroke-linecap="round"/>
<path d="M528.252 240.656H538.809C541.143 240.656 542.641 243.152 541.54 245.222" stroke="#00BFFF" stroke-width="3" stroke-miterlimit="10" stroke-linecap="round"/>
<path d="M543.331 127.053C552.94 127.053 560.73 119.264 560.73 109.655C560.73 100.047 552.94 92.2578 543.331 92.2578C533.722 92.2578 525.932 100.047 525.932 109.655C525.932 119.264 533.722 127.053 543.331 127.053Z" stroke="#00BFFF" stroke-width="3" stroke-miterlimit="10" stroke-linecap="round"/>
<path d="M741.605 113.135C751.214 113.135 759.004 105.346 759.004 95.7372C759.004 86.1289 751.214 78.3398 741.605 78.3398C731.996 78.3398 724.206 86.1289 724.206 95.7372C724.206 105.346 731.996 113.135 741.605 113.135Z" stroke="#00BFFF" stroke-width="3" stroke-miterlimit="10" stroke-linecap="round"/>
<path d="M1104.52 113.135C1114.13 113.135 1121.92 105.346 1121.92 95.7372C1121.92 86.1289 1114.13 78.3398 1104.52 78.3398C1094.91 78.3398 1087.12 86.1289 1087.12 95.7372C1087.12 105.346 1094.91 113.135 1104.52 113.135Z" stroke="#00BFFF" stroke-width="3" stroke-miterlimit="10" stroke-linecap="round"/>
<path d="M523.818 137.035L533.934 124.277" stroke="#00BFFF" stroke-width="3" stroke-miterlimit="10" stroke-linecap="round"/>
<path d="M527.268 116.335L510.222 122.53" stroke="#00BFFF" stroke-width="3" stroke-miterlimit="10" stroke-linecap="round"/>
<path d="M727.686 296.313H749.446L828.013 426.17L880.033 390.171C885.642 386.281 887.286 378.72 883.792 372.847C880.018 366.52 871.723 364.596 865.541 368.634L845.294 381.862" stroke="#00BFFF" stroke-width="3" stroke-miterlimit="10" stroke-linecap="round"/>
<path d="M698.674 269.961C697.088 327.468 643.951 361.44 622.118 372.995C616.906 375.755 614.527 381.921 616.539 387.471L630.59 426.171H682.229C689.6 426.171 695.561 420.195 695.561 412.84C695.561 405.47 689.585 399.509 682.229 399.509H651.16" stroke="#00BFFF" stroke-width="3" stroke-miterlimit="10" stroke-linecap="round"/>
<path d="M850.888 376.841L785.668 269.653V153.832C785.668 142.879 776.785 133.997 765.832 133.997H698.703C662.76 133.997 633.615 163.14 633.615 199.08V202.236C633.615 238.176 662.76 267.318 698.703 267.318H717.012C726.115 267.318 733.486 259.948 733.486 250.846V246.691C733.486 237.589 726.115 230.219 717.012 230.219H698.703C685.254 230.219 674.359 219.325 674.359 205.877V202.897C674.359 189.449 685.254 178.555 698.703 178.555C698.703 178.555 698.703 187.672 698.703 228.222" stroke="#00BFFF" stroke-width="3" stroke-miterlimit="10" stroke-linecap="round"/>
<path d="M786.02 250.861C793.802 254.149 801.216 255.97 810.202 255.97H828.512C837.615 255.97 844.985 248.6 844.985 239.497V235.342C844.985 226.24 837.615 218.87 828.512 218.87H810.188C796.738 218.87 785.844 207.976 785.844 194.528V191.548" stroke="#00BFFF" stroke-width="3" stroke-miterlimit="10" stroke-linecap="round"/>
<path d="M753.733 133.997L747.346 112.166" stroke="#00BFFF" stroke-width="3" stroke-miterlimit="10" stroke-linecap="round"/>
<path d="M735.864 112.166L729.184 133.997" stroke="#00BFFF" stroke-width="3" stroke-miterlimit="10" stroke-linecap="round"/>
<path d="M735.233 297.121C733.867 346.935 687.823 376.371 668.911 386.369C664.389 388.762 662.334 394.106 664.081 398.907" stroke="#00BFFF" stroke-width="3" stroke-miterlimit="10" stroke-linecap="round"/>
<path d="M965.266 133.997H1247.07V121.518C1247.07 118.39 1249.61 115.851 1252.74 115.851C1255.86 115.851 1258.4 118.39 1258.4 121.518V133.997H1273.88C1276.6 133.997 1278.81 136.199 1278.81 138.93C1278.81 141.646 1276.61 143.863 1273.88 143.863H1265.2" stroke="#00BFFF" stroke-width="3" stroke-miterlimit="10" stroke-linecap="round"/>
<path d="M1264.53 143.893H1273.31C1276.02 143.893 1278.24 146.095 1278.24 148.826C1278.24 151.542 1276.04 153.758 1273.31 153.758H1264.63" stroke="#00BFFF" stroke-width="3" stroke-miterlimit="10" stroke-linecap="round"/>
<path d="M1264.53 154.33H1273.31C1276.02 154.33 1278.24 156.532 1278.24 159.263C1278.24 161.979 1276.04 164.196 1273.31 164.196H1155.54" stroke="#00BFFF" stroke-width="3" stroke-miterlimit="10" stroke-linecap="round"/>
<path d="M1056.68 133.85H964.649V121.371C964.649 118.244 962.109 115.704 958.982 115.704C955.854 115.704 953.314 118.244 953.314 121.371V133.85H937.839C935.122 133.85 932.905 136.052 932.905 138.783C932.905 141.499 935.108 143.716 937.839 143.716H946.516" stroke="#00BFFF" stroke-width="3" stroke-miterlimit="10" stroke-linecap="round"/>
<path d="M947.191 143.745H938.411C935.695 143.745 933.478 145.947 933.478 148.678C933.478 151.394 935.68 153.611 938.411 153.611H947.089" stroke="#00BFFF" stroke-width="3" stroke-miterlimit="10" stroke-linecap="round"/>
<path d="M947.192 154.184H938.411C935.695 154.184 933.478 156.386 933.478 159.117C933.478 161.833 935.68 164.049 938.411 164.049H1056.18" stroke="#00BFFF" stroke-width="3" stroke-miterlimit="10" stroke-linecap="round"/>
<path d="M1056.18 154.33V426.17" stroke="#00BFFF" stroke-width="3" stroke-miterlimit="10" stroke-linecap="round"/>
<path d="M1154.75 154.33L1154.38 404.133L1171.22 403.854C1177.44 403.752 1182.55 408.773 1182.55 415.012C1182.55 421.178 1177.56 426.17 1171.4 426.17H1136.07" stroke="#00BFFF" stroke-width="3" stroke-miterlimit="10" stroke-linecap="round"/>
<path d="M1110.57 112.048L1117.13 133.996" stroke="#00BFFF" stroke-width="3" stroke-miterlimit="10" stroke-linecap="round"/>
<path d="M1098.47 112.048L1092.95 133.996" stroke="#00BFFF" stroke-width="3" stroke-miterlimit="10" stroke-linecap="round"/>
<path d="M1110.57 285.067L1110.32 402.973L1124.9 402.929C1131.06 402.915 1136.08 407.906 1136.08 414.087V414.997C1136.08 421.164 1131.09 426.155 1124.92 426.155H1105.54" stroke="#00BFFF" stroke-width="3" stroke-miterlimit="10" stroke-linecap="round"/>
<path d="M1154.38 404.134H1145.1" stroke="#00BFFF" stroke-width="3" stroke-miterlimit="10" stroke-linecap="round"/>
<path d="M1110.32 402.974H1102.2" stroke="#00BFFF" stroke-width="3" stroke-miterlimit="10" stroke-linecap="round"/>
<path d="M1110.32 284.716H1118.43" stroke="#00BFFF" stroke-width="3" stroke-miterlimit="10" stroke-linecap="round"/>
<path d="M1583.39 351.971L1570.63 369.353" stroke="#00BFFF" stroke-width="3" stroke-miterlimit="10" stroke-linecap="round"/>
<path d="M1569.47 345.012L1549.77 353.13" stroke="#00BFFF" stroke-width="3" stroke-miterlimit="10" stroke-linecap="round"/>
<path d="M1583.39 351.971C1593 351.971 1600.79 344.182 1600.79 334.573C1600.79 324.965 1593 317.176 1583.39 317.176C1573.78 317.176 1565.99 324.965 1565.99 334.573C1565.99 344.182 1573.78 351.971 1583.39 351.971Z" stroke="#00BFFF" stroke-width="3" stroke-miterlimit="10" stroke-linecap="round"/>
<path d="M1639.04 684.709C1648.65 684.709 1656.44 676.92 1656.44 667.311C1656.44 657.703 1648.65 649.914 1639.04 649.914C1629.43 649.914 1621.64 657.703 1621.64 667.311C1621.64 676.92 1629.43 684.709 1639.04 684.709Z" stroke="#00BFFF" stroke-width="3" stroke-miterlimit="10" stroke-linecap="round"/>
<path d="M1661.3 266.79C1664.79 275.393 1666.19 284.554 1665.04 293.848C1661.27 324.561 1631.04 347.141 1593.04 350.694" stroke="#00BFFF" stroke-width="3" stroke-miterlimit="10" stroke-linecap="round"/>
<path d="M1558.36 347.611C1516.99 337.187 1483.71 305.519 1487.82 272.119C1488.64 265.425 1490.71 259.126 1493.86 253.312" stroke="#00BFFF" stroke-width="3" stroke-miterlimit="10" stroke-linecap="round"/>
<path d="M1466.41 245.884C1460.85 254.81 1457.21 264.705 1455.9 275.305C1451.6 310.408 1474.09 344.087 1510.62 363.907C1510.62 363.907 1487.15 391.391 1452.36 391.391C1419 391.391 1389.9 378.589 1372.61 363.232C1371.34 362.101 1369.45 362.072 1368.13 363.144L1331.76 392.536C1328.37 395.281 1327.27 399.979 1329.1 403.929C1331.24 408.583 1336.69 410.697 1341.42 408.729L1369.42 397.014" stroke="#00BFFF" stroke-width="3" stroke-miterlimit="10" stroke-linecap="round"/>
<path d="M1685.41 258.833C1693.32 273.03 1696.89 288.68 1694.93 304.624C1689.56 348.419 1644.28 379.954 1588.93 381.863C1588.93 381.863 1552.2 449.177 1477.87 463.271C1410.62 476.029 1372.36 451.673 1372.36 451.673" stroke="#00BFFF" stroke-width="3" stroke-miterlimit="10" stroke-linecap="round"/>
<path d="M1484.83 248.775C1481.35 253.415 1477.87 261.533 1477.87 266.173" stroke="#00BFFF" stroke-width="3" stroke-miterlimit="10" stroke-linecap="round"/>
<path d="M1475.56 247.616C1472.08 252.256 1468.6 260.374 1468.6 265.014" stroke="#00BFFF" stroke-width="3" stroke-miterlimit="10" stroke-linecap="round"/>
<path d="M1669.2 263.854C1671.52 266.173 1673.84 271.972 1673.84 275.452" stroke="#00BFFF" stroke-width="3" stroke-miterlimit="10" stroke-linecap="round"/>
<path d="M1677.3 261.534C1679.62 263.854 1681.94 269.653 1681.94 273.132" stroke="#00BFFF" stroke-width="3" stroke-miterlimit="10" stroke-linecap="round"/>
<path d="M1505.7 421.531L1501.06 414.572C1501.06 414.572 1473.24 429.65 1433.82 425.01C1394.4 420.371 1372.37 398.349 1365.41 392.55" stroke="#00BFFF" stroke-width="3" stroke-miterlimit="10" stroke-linecap="round"/>
<path d="M1477.88 422.603C1477.88 422.603 1446.24 451.892 1375.16 421.502C1373.5 420.797 1371.56 421.223 1370.39 422.603L1345.03 452.392C1341.43 456.605 1341.57 462.845 1345.33 466.911C1349.39 471.316 1356.23 471.639 1360.7 467.631L1376.17 453.742" stroke="#00BFFF" stroke-width="3" stroke-miterlimit="10" stroke-linecap="round"/>
<path d="M1698.21 618.027C1733.43 627.452 1754.99 640.093 1754.99 653.982C1754.99 683.109 1660.25 706.732 1543.38 706.732C1426.51 706.732 1331.77 683.109 1331.77 653.982C1331.77 624.854 1426.51 601.231 1543.38 601.231C1587.69 601.231 1628.83 604.623 1662.82 610.437" stroke="#00BFFF" stroke-width="3" stroke-miterlimit="10" stroke-linecap="round"/>
<path d="M1754.99 653.981L1669.2 1025.01H1410.15L1331.77 653.981" stroke="#00BFFF" stroke-width="3" stroke-miterlimit="10" stroke-linecap="round"/>
<path d="M1631.01 884.067C1630.92 884.492 1630.84 884.933 1630.73 885.359C1629.27 891.187 1626.1 895.826 1621.08 899.13C1618.51 900.833 1615.59 901.626 1612.56 902.022C1610.99 902.228 1609.41 902.301 1607.82 902.316C1603.99 902.36 1600.16 902.316 1596.33 902.345C1595.71 902.345 1595.37 902.169 1595.05 901.626C1587.44 888.427 1579.81 875.243 1572.19 862.059C1572.07 861.854 1571.97 861.648 1571.81 861.355C1584.56 854.073 1597.29 846.805 1610.08 839.509C1610.24 839.744 1610.39 839.964 1610.52 840.184C1616.44 850.388 1622.34 860.577 1628.26 870.78C1629.36 872.674 1630.21 874.685 1630.68 876.843C1630.79 877.328 1630.89 877.827 1630.99 878.326C1631.01 880.235 1631.01 882.158 1631.01 884.067Z" stroke="#00BFFF" stroke-width="3" stroke-miterlimit="10" stroke-linecap="round"/>
<path d="M1543.7 928.977C1551.13 916.571 1558.55 904.195 1566.03 891.687C1566.26 892.641 1566.12 893.448 1566.15 894.256C1566.18 895.122 1566.15 895.988 1566.15 896.854C1566.15 897.691 1566.15 898.528 1566.15 899.365C1566.15 900.202 1566.15 901.039 1566.15 901.875C1566.15 902.742 1566.15 903.608 1566.15 904.474C1566.15 905.311 1566.15 906.133 1566.15 907.029C1566.52 907.043 1566.81 907.073 1567.11 907.087C1581.1 907.087 1595.08 907.087 1609.07 907.087C1613.17 907.087 1617.12 906.383 1620.8 904.533C1621.65 904.107 1622.46 903.578 1623.28 903.094C1623.5 902.962 1623.72 902.83 1624.05 902.8C1623.94 903.021 1623.84 903.27 1623.72 903.476C1615.71 917.438 1607.69 931.414 1599.66 945.362C1597.46 949.179 1594.05 951.014 1589.72 951.043C1582.26 951.102 1574.8 951.058 1567.34 951.058C1566.99 951.058 1566.64 951.058 1566.2 951.058C1566.2 956.123 1566.2 961.115 1566.2 966.18C1565.55 965.651 1545.67 932.692 1543.7 928.977Z" stroke="#00BFFF" stroke-width="3" stroke-miterlimit="10" stroke-linecap="round"/>
<path d="M1456.33 857.142C1451.94 854.646 1447.62 852.194 1443.29 849.757C1443.29 849.713 1443.29 849.654 1443.29 849.61C1443.52 849.581 1443.77 849.537 1444.01 849.537C1449.54 849.419 1455.09 849.316 1460.63 849.214C1468.89 849.052 1477.16 848.891 1485.43 848.744C1485.81 848.729 1486.21 848.744 1486.66 848.744C1493.69 861.414 1500.73 874.084 1507.76 886.754C1507.72 886.798 1507.67 886.842 1507.63 886.871C1503.21 884.331 1498.77 881.806 1494.31 879.237C1494.12 879.545 1493.96 879.795 1493.81 880.059C1486.88 892.024 1479.94 903.99 1473.05 915.97C1470.82 919.86 1469.45 924.059 1469.23 928.566C1469.19 929.521 1469.23 930.475 1469.23 931.488C1468.92 931.356 1468.85 931.033 1468.7 930.783C1463.58 921.989 1458.47 913.195 1453.35 904.401C1450.45 899.439 1447.59 894.462 1444.67 889.499C1443.67 887.811 1443.01 886.02 1442.91 884.082C1442.8 881.924 1443.38 879.868 1444.45 877.989C1445.92 875.42 1447.38 872.836 1448.85 870.267C1451.19 866.185 1453.52 862.104 1455.84 858.022C1455.99 857.758 1456.14 857.494 1456.33 857.142Z" stroke="#00BFFF" stroke-width="3" stroke-miterlimit="10" stroke-linecap="round"/>
<path d="M1592.68 808.767C1597.02 806.212 1601.27 803.687 1605.53 801.176C1605.58 801.22 1605.62 801.264 1605.66 801.294C1605.59 801.47 1605.52 801.646 1605.43 801.822C1598.62 814.022 1591.8 826.237 1585 838.438C1584.74 838.907 1584.45 839.113 1583.89 839.098C1570 838.878 1556.11 838.672 1542.2 838.467C1541.97 838.467 1541.74 838.438 1541.47 838.349C1545.74 835.795 1550.09 833.387 1554.46 830.877C1554.35 830.627 1554.26 830.421 1554.14 830.216C1547.11 818.001 1540.09 805.772 1533.04 793.557C1530.81 789.681 1527.92 786.422 1524.03 784.117C1523.26 783.661 1522.47 783.265 1521.52 782.751C1521.91 782.722 1522.13 782.678 1522.35 782.678C1538.4 782.678 1554.45 782.678 1570.51 782.692C1571.53 782.692 1572.55 782.795 1573.54 783.001C1576.61 783.632 1578.93 785.35 1580.51 788.066C1582.96 792.25 1585.42 796.434 1587.87 800.618C1589.31 803.07 1590.75 805.522 1592.18 807.974C1592.33 808.194 1592.48 808.429 1592.68 808.767Z" stroke="#00BFFF" stroke-width="3" stroke-miterlimit="10" stroke-linecap="round"/>
<path d="M1531.4 906.721C1531.4 921.534 1531.4 936.23 1531.4 951.058C1531.05 951.073 1530.71 951.088 1530.37 951.088C1522.85 951.088 1515.34 951.088 1507.82 951.088C1503.56 951.088 1499.32 951.146 1495.06 951.073C1487.35 950.956 1481.37 947.594 1477.18 941.148C1475.06 937.904 1474.05 934.292 1474.02 930.431C1474 927.377 1474.77 924.441 1475.84 921.593C1476.27 920.477 1476.76 919.376 1477.34 918.334C1479.35 914.693 1481.4 911.081 1483.42 907.44C1483.71 906.897 1484.03 906.691 1484.66 906.691C1499.93 906.706 1515.22 906.706 1530.49 906.706C1530.75 906.721 1531.02 906.721 1531.4 906.721Z" stroke="#00BFFF" stroke-width="3" stroke-miterlimit="10" stroke-linecap="round"/>
<path d="M1473.81 826.238C1474.06 825.783 1474.25 825.46 1474.44 825.122C1480.27 815.08 1486.1 805.038 1491.92 794.981C1493.86 791.619 1496.38 788.844 1499.8 786.936C1502.52 785.423 1505.45 784.66 1508.55 784.513C1510.84 784.41 1513.1 784.587 1515.32 785.13C1519.95 786.29 1523.63 788.874 1526.57 792.573C1527.42 793.645 1528.2 794.79 1528.92 795.965C1531.11 799.576 1533.23 803.217 1535.42 806.829C1535.74 807.357 1535.74 807.739 1535.42 808.282C1527.79 821.437 1520.18 834.591 1512.56 847.76C1512.43 847.995 1512.28 848.216 1512.11 848.495C1499.36 841.08 1486.63 833.696 1473.81 826.238Z" stroke="#00BFFF" stroke-width="3" stroke-miterlimit="10" stroke-linecap="round"/>
<path d="M1643.68 684.709L1642.52 700.932" stroke="#00BFFF" stroke-width="3" stroke-miterlimit="10" stroke-linecap="round"/>
<path d="M1630.93 682.39L1612.37 703.252" stroke="#00BFFF" stroke-width="3" stroke-miterlimit="10" stroke-linecap="round"/>
<path d="M1667.42 605.87C1669.69 614.327 1670.93 623.517 1670.93 633.104C1670.93 662.158 1659.52 687.425 1642.71 700.389" stroke="#00BFFF" stroke-width="3" stroke-miterlimit="10" stroke-linecap="round"/>
<path d="M1693.99 601.231C1696.4 612.022 1697.71 623.518 1697.71 635.439C1697.71 656.624 1693.55 677.751 1682.98 693.372" stroke="#00BFFF" stroke-width="3" stroke-miterlimit="10" stroke-linecap="round"/>
<path d="M1607.16 704.294C1579.91 689.348 1554.41 663.832 1554.41 609.35" stroke="#00BFFF" stroke-width="3" stroke-miterlimit="10" stroke-linecap="round"/>
<path d="M1568.9 705.454C1542.5 690.773 1521.78 650.003 1525.42 611.67" stroke="#00BFFF" stroke-width="3" stroke-miterlimit="10" stroke-linecap="round"/>
<path d="M1534.32 609.35C1533.53 613.989 1533.53 622.108 1534.32 626.145" stroke="#00BFFF" stroke-width="3" stroke-miterlimit="10" stroke-linecap="round"/>
<path d="M1544.76 608.19C1543.97 612.83 1543.97 620.948 1544.76 624.986" stroke="#00BFFF" stroke-width="3" stroke-miterlimit="10" stroke-linecap="round"/>
<path d="M1687.89 619.627C1687.99 614.929 1686.8 606.898 1685.42 603.008" stroke="#00BFFF" stroke-width="3" stroke-miterlimit="10" stroke-linecap="round"/>
<path d="M1678.87 620.978C1678.97 616.28 1677.78 608.249 1676.4 604.358" stroke="#00BFFF" stroke-width="3" stroke-miterlimit="10" stroke-linecap="round"/>
<path d="M1550.91 706.203C1506.16 687.426 1469.85 649.929 1458.97 588.224L1408.67 581.044C1403.73 580.34 1399.2 583.834 1398.61 588.782L1398.52 589.53C1398.1 593.127 1399.92 596.621 1403.1 598.354L1433.55 614.856C1433.55 614.856 1443.23 668.09 1497.63 704.941L1550.91 706.203Z" fill="white" stroke="#00BFFF" stroke-width="3" stroke-miterlimit="10" stroke-linecap="round"/>
<path d="M1410.15 1025.01H1312.17C1304.11 1025.01 1297.58 1017.99 1297.58 1009.34C1297.58 1000.7 1304.11 993.679 1312.17 993.679H1403.13" fill="#00BFFF"/>
</svg>
