<?xml version="1.0" encoding="utf-8"?>
<!-- Generator: Adobe Illustrator 25.2.3, SVG Export Plug-In . SVG Version: 6.00 Build 0)  -->
<svg version="1.1" id="Camada_1" xmlns="http://www.w3.org/2000/svg" xmlns:xlink="http://www.w3.org/1999/xlink" x="0px" y="0px"
	 viewBox="0 0 910 464" style="enable-background:new 0 0 910 464;" xml:space="preserve">
<style type="text/css">
	.st0{fill:none;stroke:#00BFFF;stroke-width:3;stroke-miterlimit:10;}
	.st1{fill:none;stroke:#00BFFF;stroke-width:3;stroke-linecap:round;stroke-linejoin:round;stroke-miterlimit:10;}
	.st2{fill:#FFFFFF;stroke:#00BFFF;stroke-width:3;stroke-linecap:round;stroke-linejoin:round;stroke-miterlimit:10;}
	.st3{fill:#D7F7FF;stroke:#00BFFF;stroke-width:3;stroke-linecap:round;stroke-linejoin:round;stroke-miterlimit:10;}
	.st4{fill:#00BFFF;}
</style>
<path class="st0" d="M63.8,415.4V257"/>
<path class="st1" d="M455.7,149.8c-12.6-6.8-21.1-20.1-21.1-35.4c0-22.2,18-40.1,40.2-40.1s40.2,18,40.2,40.1
	c0,21.6-17.1,39.2-38.4,40.1"/>
<path class="st0" d="M63.8,79.6V33.7c0-17.7,14.4-32,32.1-32h467.3c17.7,0,32.1,14.3,32.1,32v396.1c0,17.7-14.4,32-32.1,32H95.8
	c-17.7,0-32.1-14.3-32.1-32v-14.4"/>
<path class="st1" d="M466.1,114h-11.3"/>
<path class="st1" d="M466.1,119.6h-11.3"/>
<path class="st2" d="M438.7,127.7c6.5,0,11.7-6.1,11.7-13.7s-5.2-13.7-11.7-13.7c-6.5,0-11.7,6.1-11.7,13.7S432.3,127.7,438.7,127.7
	z"/>
<path class="st1" d="M438.7,100.3h16.1v27.4h-16.1"/>
<path class="st2" d="M471,127.7c6.5,0,11.7-6.1,11.7-13.7s-5.2-13.7-11.7-13.7c-6.5,0-11.7,6.1-11.7,13.7S464.5,127.7,471,127.7z"/>
<path class="st1" d="M471,100.3H487v27.4H471"/>
<path class="st1" d="M512.9,114h-25.4"/>
<path class="st1" d="M512.9,119.6h-25.4"/>
<path class="st1" d="M63.8,78.1c0,0-62,8.2-62,91.2c0,83,62,88.9,62,88.9h31.3"/>
<path class="st0" d="M186.7,461.1V257"/>
<path class="st1" d="M186.7,78.1c0,0-62,8.2-62,91.2c0,83,62,88.9,62,88.9H218"/>
<path class="st1" d="M148.2,74.3c5.5,1.9,13.1,9,15.1,13"/>
<path class="st1" d="M352.3,1.6v460.9"/>
<path class="st1" d="M165.7,128.2c7.6,0,13.7-6.1,13.7-13.7c0-7.6-6.1-13.7-13.7-13.7c-7.6,0-13.7,6.1-13.7,13.7
	C151.9,122,158.1,128.2,165.7,128.2z"/>
<path class="st1" d="M42.8,128.2c7.6,0,13.7-6.1,13.7-13.7c0-7.6-6.1-13.7-13.7-13.7c-7.6,0-13.7,6.1-13.7,13.7
	C29.1,122,35.2,128.2,42.8,128.2z"/>
<path class="st1" d="M491.2,143.9c-2.8-2.8-2.8-7.3,0-10c2.8-2.8,7.3-2.8,10,0"/>
<path class="st0" d="M142.5,142.3c-2.2,3.6-6.6,17-5.7,27.4c0.9,10.4,11.3,12.3,11.3,12.3s11.8,1,13.2-10.4
	c0.9-7.6,0.6-13.1,2.8-17.9c4.7-10.4-1.9-15.1-5.7-17C154.8,134.8,147.2,134.8,142.5,142.3z"/>
<path class="st0" d="M16.8,142.3c-2.2,3.6-6.6,17-5.7,27.4c0.9,10.4,11.3,12.3,11.3,12.3s11.8,1,13.2-10.4
	c0.9-7.6,0.6-13.1,2.8-17.9c4.7-10.4-1.9-15.1-5.7-17C29.1,134.8,21.5,134.8,16.8,142.3z"/>
<path class="st1" d="M569.9,466.9v-98.5"/>
<path class="st1" d="M385.5,461.9V352"/>
<path class="st1" d="M409.7,461.9v-40h-24.2"/>
<path class="st1" d="M409.7,356.7v48.5h-24.2"/>
<path class="st1" d="M552.8,461.9v-40h16.9"/>
<path class="st1" d="M552.8,365.2v40h16.9"/>
<path class="st1" d="M595.2,351c-12.2,6.6-25.1,13.2-50.8,13.2c-25.7,0-49.6-12.3-61.8-27.4"/>
<path class="st1" d="M595.3,284.9c-5.7,22.7-20.8,33.1-46.3,34c-18,0.7-33.1-8.5-40.6-17"/>
<path class="st1" d="M588.6,255.9c0,0,6.6,7.6,6.6,14.9"/>
<path class="st1" d="M352.3,331.7c0,0,21.3,25,73,25s84.8-37.8,84.8-68.9c0-31.2,0-91.5,0-91.5l19.8-22.8c0,0,3.8-4.7,0-9.4
	c-3.8-4.7-8.6,0-8.6,0l-8.4,9"/>
<path class="st1" d="M506.4,161.2l11.1-11.5c0,0,4.8-4.7,8.6,0c3.8,4.7,0,9.4,0,9.4l-6.6,6.9"/>
<path class="st1" d="M513.9,153.8l6.6-6.9c0,0,3.8-4.7,0-9.4c-3.8-4.7-8.6,0-8.6,0l-28.1,28.5"/>
<path class="st1" d="M483.7,166l-14.8-14.9c0,0-5.9-5.7-10.4,0c-4.6,5.7,0,11.5,0,11.5l8,8.3c0,0,0,97,0,107.4
	c0,14.2-11,32.1-42.1,30.2"/>
<path class="st1" d="M466.3,267.7c0,0-12.3-9.4-34.3-9.3c-22,0.1-43.8,18.1-49.4,35.1c0,0-4.7,15.1,9.4,12.3"/>
<path class="st1" d="M401.5,286.8c-4.7,5.7-9.4,14.2-8.5,20.8c1,6.6,4.7,8.5,11.3,5.7"/>
<path class="st1" d="M411.9,294.4c-3.8,5.7-6.9,14.8-5.8,20.2c1.1,5.3,4.9,5.5,5.8,5.4c1-0.1,6.7,0.6,8.5-5.4
	c1.9-6,6.6-14.5,13.2-15.5c6.6-0.9,13.2,2,16,5.3"/>
<path class="st1" d="M552.7,319.9V191.4"/>
<path class="st1" d="M412.8,262.3v-70.8"/>
<path class="st1" d="M393.9,256.6c-2.8,6.6-3.1,14.4-1.1,19.5"/>
<path class="st1" d="M352.3,225.4c7.6-14.1,26.5-34.9,52-34.9h62"/>
<path class="st1" d="M514.4,191.4c5.2,0,53.2,0,53.2,0s17.2-1.4,27.6,10.2"/>
<path class="st1" d="M466.7,206.5h43.5"/>
<path class="st1" d="M535.4,191.4v44.9h-25.2"/>
<path class="st1" d="M466.3,236.3h-34v-45.8"/>
<path class="st1" d="M452.5,190.5l6.5-27.2"/>
<path class="st3" d="M859.9,418.2H584.7c-26.4,0-47.9-21.4-47.9-47.8V256c0-26.4,21.4-47.8,47.9-47.8h275.2
	c26.4,0,47.9,21.4,47.9,47.8v114.4C907.7,396.8,886.3,418.2,859.9,418.2z"/>
<path class="st4" d="M582.1,263.5H579v-10.9h-9.2v10.9h-3.1v-23.9h3.1v10.4h9.2v-10.4h3.1V263.5z"/>
<path class="st4" d="M592.8,246.2c1.7,0,2.9,1.1,3.5,3.1c0.8-2,2.3-3.1,4-3.1c2.1,0,4,1.5,4,5v12.2h-2.9v-12c0-2.2-1-2.7-2-2.7
	c-2,0-2.7,1.5-2.7,3.6v11.1h-2.8v-12c0-2.1-0.9-2.7-2-2.7c-2,0-2.6,1.6-2.6,3.6v11.1h-2.9v-16.8h2.7v2.6
	C589.8,247.4,591.1,246.2,592.8,246.2z"/>
<path class="st4" d="M613.7,246.2c1.7,0,2.9,1.1,3.5,3.1c0.8-2,2.3-3.1,4-3.1c2.1,0,4,1.5,4,5v12.2h-2.9v-12c0-2.2-1-2.7-2-2.7
	c-2,0-2.7,1.5-2.7,3.6v11.1h-2.8v-12c0-2.1-0.9-2.7-2-2.7c-2,0-2.6,1.6-2.6,3.6v11.1h-2.9v-16.8h2.7v2.6
	C610.7,247.4,612,246.2,613.7,246.2z"/>
<path class="st4" d="M634.6,246.2c1.7,0,2.9,1.1,3.5,3.1c0.8-2,2.3-3.1,4-3.1c2.1,0,4,1.5,4,5v12.2h-2.9v-12c0-2.2-1-2.7-2-2.7
	c-2,0-2.7,1.5-2.7,3.6v11.1h-2.8v-12c0-2.1-0.9-2.7-2-2.7c-2,0-2.6,1.6-2.6,3.6v11.1h-2.9v-16.8h2.7v2.6
	C631.6,247.4,632.9,246.2,634.6,246.2z"/>
<path class="st4" d="M656,266.9c1.9-0.8,2.3-1.6,2.3-3.4h-2.5v-4.3h4.5v4.3c0,2.6-0.8,3.9-3.4,5L656,266.9z"/>
<path class="st4" d="M696.1,249.5c0.9-2,2.9-3.3,5.2-3.3c4.4,0,6.9,3.7,6.9,8.8c0,5.3-2.7,8.9-7.1,8.9c-2.3,0-4.4-1.2-5.3-3.3
	l-0.5,2.9h-2.2V239h2.9L696.1,249.5L696.1,249.5z M700.5,261.3c2.9,0,4.7-2.5,4.7-6.3c0-3.7-1.7-6.3-4.6-6.3c-2.9,0-4.5,2.3-4.5,5.9
	v0.9C696,259,697.6,261.3,700.5,261.3z"/>
<path class="st4" d="M719.6,263.9c-1.6,0-3.1-0.4-4.3-1.5c-1.1-1-1.6-2.6-1.6-5.4v-10.4h2.9v10.3c0,3.7,1.8,4.5,3.5,4.5
	c3.5,0,4.4-3.5,4.4-6v-8.8h2.9v16.8h-2.7v-3.2C724.1,261.9,722.1,263.9,719.6,263.9z"/>
<path class="st4" d="M734.2,246.6h4.8v-4.4l2.9-1.2v5.6h6.6v2.3h-6.6v8.7c0,2.3,1.1,3.3,3.2,3.3c1.1,0,2.3-0.1,3.3-0.3v2.6
	c-0.9,0.2-1.8,0.4-3.3,0.4c-4.2,0-6.1-2.4-6.1-5.7v-9.1h-4.8L734.2,246.6L734.2,246.6z"/>
<path class="st4" d="M780.9,246.2c1.7,0,2.9,1.1,3.5,3.1c0.8-2,2.3-3.1,4-3.1c2.1,0,4,1.5,4,5v12.2h-2.9v-12c0-2.2-1-2.7-2-2.7
	c-2,0-2.7,1.5-2.7,3.6v11.1h-2.8v-12c0-2.1-0.9-2.7-2-2.7c-2,0-2.6,1.6-2.6,3.6v11.1h-2.9v-16.8h2.7v2.6
	C777.9,247.4,779.2,246.2,780.9,246.2z"/>
<path class="st4" d="M811.3,263.5h-3c-0.1-0.9-0.2-2.1-0.3-3.1c-1.1,2.4-2.9,3.5-5.7,3.5c-3.3,0-5.7-2.1-5.7-5c0-1.7,0.8-3.1,2.4-4
	c1.1-0.6,2.9-1,5.7-1.4l3.1-0.4v-0.3c0-3-1.1-4.3-3.6-4.3c-2.4,0-3.8,1.2-3.9,3.3h-3.1c0.3-3.6,2.9-5.7,7.2-5.7c4.4,0,6.3,2.2,6.3,7
	v4.5C810.8,260.4,810.9,262.2,811.3,263.5z M803.9,255.8c-2.9,0.4-4.1,1.2-4.1,2.9c0,1.7,1.2,2.8,3.2,2.8c3,0,5-2.1,5-5.4v-0.8
	L803.9,255.8z"/>
<path class="st4" d="M825.6,260.1l4.7-13.5h3.1l-6.7,17.9c-1.6,4.3-3.6,5.7-6.4,5.7c-0.5,0-1,0-1.6-0.1v-2.5c0.4,0,0.8,0.1,1.2,0.1
	c2.1,0,3.1-0.9,3.9-3.1l0.4-1.2l-6.6-16.6h3.2L825.6,260.1z"/>
<path class="st4" d="M842.4,249.5c0.9-2,2.9-3.3,5.2-3.3c4.4,0,6.9,3.7,6.9,8.8c0,5.3-2.7,8.9-7.1,8.9c-2.3,0-4.4-1.2-5.3-3.3
	l-0.5,2.9h-2.2V239h2.9L842.4,249.5L842.4,249.5z M846.8,261.3c2.9,0,4.7-2.5,4.7-6.3c0-3.7-1.7-6.3-4.6-6.3c-2.9,0-4.5,2.3-4.5,5.9
	v0.9C842.3,259,844,261.3,846.8,261.3z"/>
<path class="st4" d="M874.1,255.8h-11.8c0,3.2,1.8,5.6,5,5.6c2.2,0,3.6-1.4,4.5-3l2.4,1.3c-1.4,2.8-3.7,4.3-6.9,4.3
	c-5.3,0-7.9-3.6-7.9-9.2c0-5.2,3-8.5,7.7-8.5c5.2,0,7.2,3.7,7.2,8.3C874.2,254.9,874.2,255.3,874.1,255.8z M866.9,248.4
	c-3.1,0-4.6,2.5-4.6,5h8.9C871.3,250.7,869.9,248.4,866.9,248.4z"/>
<path class="st4" d="M567.9,287l1.7,11.6l0.3,2.4h0.2c0.1-0.8,0.2-1.3,0.5-2.8l2.2-11.1h2.9l2.2,11.1c0.3,1.5,0.4,2.1,0.5,2.8h0.2
	l0.3-2.4l1.7-11.6h3l-3.3,16.8H577l-2.2-10.9c-0.1-0.7-0.3-2.1-0.3-2.8h-0.2c0,0.7-0.2,2.1-0.3,2.8l-2.2,10.9h-3.6l-3.3-16.8H567.9z
	"/>
<path class="st4" d="M602.3,296.2h-11.8c0,3.2,1.8,5.6,5,5.6c2.2,0,3.6-1.4,4.5-3l2.4,1.3c-1.4,2.8-3.7,4.3-6.9,4.3
	c-5.3,0-7.9-3.6-7.9-9.2c0-5.2,3-8.5,7.7-8.5c5.2,0,7.2,3.7,7.2,8.3C602.4,295.3,602.4,295.8,602.3,296.2z M595.1,288.8
	c-3.1,0-4.6,2.5-4.6,5h8.9C599.5,291.1,598.2,288.8,595.1,288.8z"/>
<path class="st4" d="M630.3,298.7l2.9-0.5c0.4,2.5,2,3.7,4.5,3.7c2.3,0,3.5-0.9,3.5-2.5c0-1.7-0.9-2.4-2.7-2.6l-2.7-0.3
	c-3.3-0.4-4.9-2.3-4.9-4.9c0-3.1,2.4-5,6.4-5c3.8,0,6.4,2,6.8,5.1l-2.8,0.6c-0.4-2-1.8-3.4-4-3.4c-2.2,0-3.5,0.9-3.5,2.5
	c0,1.4,1,2.3,3,2.6l2.7,0.3c3.3,0.4,4.6,2.1,4.6,4.8c0,3.2-2.4,5.2-6.5,5.2C633.5,304.3,630.9,302.3,630.3,298.7z"/>
<path class="st4" d="M659.2,286.6c1.3,0,3,0.4,4.1,1.5c1.1,1,1.7,2.6,1.7,5.4v10.4h-2.9v-10.2c0-3.7-1.9-4.5-3.6-4.5
	c-3.7,0-4.6,3.5-4.6,5.9v8.8h-2.9v-24.4h2.9v10.6C654.7,288.1,656.8,286.6,659.2,286.6z"/>
<path class="st4" d="M671.1,295.5c0-5.4,3.1-8.8,7.9-8.8c4.7,0,7.9,3.5,7.9,8.8c0,5.4-3.1,8.8-7.9,8.8
	C674.2,304.3,671.1,300.7,671.1,295.5z M683.8,295.5c0-3.9-1.8-6.3-4.8-6.3c-3,0-4.8,2.4-4.8,6.3c0,4,1.8,6.3,4.8,6.3
	C682,301.8,683.8,299.4,683.8,295.5z"/>
<path class="st4" d="M698.7,304.3c-1.6,0-3.1-0.4-4.3-1.5c-1.1-1-1.6-2.6-1.6-5.4V287h2.9v10.3c0,3.7,1.8,4.5,3.5,4.5
	c3.5,0,4.4-3.5,4.4-6V287h2.9v16.8h-2.7v-3.2C703.2,302.4,701.2,304.3,698.7,304.3z"/>
<path class="st4" d="M714.5,301.5h5.4v-19.7h-5.1v-2.4h7.9v22.1h5.7v2.4h-14V301.5z"/>
<path class="st4" d="M748.2,279.4v24.4h-2.7v-3.1c-1,2.2-2.6,3.5-5.4,3.5c-4.2,0-6.9-3.5-6.9-8.9c0-5.3,2.9-8.8,7.4-8.8
	c2.3,0,3.9,1.2,4.8,2.9v-10.1H748.2z M740.8,289.2c-2.9,0-4.6,2.3-4.6,6.3c0,3.9,1.7,6.3,4.5,6.3c2.9,0,4.6-2.3,4.6-5.9v-0.8
	C745.4,291.4,743.6,289.2,740.8,289.2z"/>
<path class="st4" d="M788.2,288.4c1,1,1.5,2.3,1.5,3.9c0,3.4-2.6,5.8-6.3,5.8c-1.2,0-2.3-0.2-3.1-0.7c-0.7,0.3-1.2,0.9-1.2,1.7
	c0,1,0.9,1.7,2.8,1.7h4.4c3.5,0,5.5,1.7,5.5,4.6c0,3.5-3.1,5.5-8.3,5.5c-4.8,0-7.7-1.7-7.7-4.3c0-1.8,1.1-3.2,2.9-3.8
	c-1.4-0.6-2.1-1.6-2.1-3c0-1.6,0.9-2.7,2.4-3.3c-1.1-1-1.7-2.4-1.7-4.1c0-3.4,2.5-5.8,6.3-5.8c1.2,0,2.3,0.3,3.2,0.7
	c0.6-2,2-3.1,4.1-3.1c0.4,0,0.8,0,1.1,0.1v2.5c-0.5-0.1-0.8-0.1-1.2-0.1C789.4,286.8,788.6,287.3,788.2,288.4z M781.7,303.3
	c-0.5,0-1,0-1.4-0.1c-1.1,0.5-1.8,1.4-1.8,2.6c0,1.8,1.7,2.7,5.1,2.7c3.6,0,5.2-1,5.2-2.9c0-1.5-1.1-2.4-3.3-2.4L781.7,303.3
	L781.7,303.3z M787,292.3c0-2-1.5-3.5-3.5-3.5c-2.1,0-3.5,1.5-3.5,3.6c0,2.1,1.4,3.5,3.4,3.5C785.5,295.9,787,294.3,787,292.3z"/>
<path class="st4" d="M811.4,296.2h-11.8c0,3.2,1.8,5.6,5,5.6c2.2,0,3.6-1.4,4.5-3l2.4,1.3c-1.4,2.8-3.7,4.3-6.9,4.3
	c-5.3,0-7.9-3.6-7.9-9.2c0-5.2,3-8.5,7.7-8.5c5.2,0,7.2,3.7,7.2,8.3C811.5,295.3,811.4,295.8,811.4,296.2z M804.2,288.8
	c-3.1,0-4.6,2.5-4.6,5h8.9C808.6,291.1,807.2,288.8,804.2,288.8z"/>
<path class="st4" d="M817.8,287h4.8v-4.4l2.9-1.2v5.6h6.6v2.3h-6.6v8.7c0,2.3,1.1,3.3,3.2,3.3c1.1,0,2.3-0.1,3.3-0.3v2.6
	c-0.9,0.2-1.8,0.4-3.3,0.4c-4.2,0-6.1-2.4-6.1-5.7v-9.1h-4.8V287z"/>
<path class="st4" d="M574.7,341l4.7-13.5h3.1l-6.7,17.9c-1.6,4.3-3.6,5.7-6.4,5.7c-0.5,0-1,0-1.6-0.1v-2.5c0.4,0,0.8,0.1,1.2,0.1
	c2.1,0,3.1-0.9,3.9-3.1l0.4-1.2l-6.6-16.6h3.2L574.7,341z"/>
<path class="st4" d="M587.5,335.9c0-5.4,3.1-8.8,7.9-8.8c4.7,0,7.9,3.5,7.9,8.8c0,5.4-3.1,8.8-7.9,8.8
	C590.6,344.7,587.5,341.2,587.5,335.9z M600.2,335.9c0-3.9-1.8-6.3-4.8-6.3c-3,0-4.8,2.4-4.8,6.3s1.8,6.3,4.8,6.3
	C598.4,342.2,600.2,339.9,600.2,335.9z"/>
<path class="st4" d="M615.1,344.7c-1.6,0-3.1-0.4-4.3-1.5c-1.1-1-1.6-2.6-1.6-5.4v-10.4h2.9v10.3c0,3.7,1.8,4.5,3.5,4.5
	c3.5,0,4.4-3.5,4.4-6v-8.8h2.9v16.8h-2.7v-3.2C619.5,342.8,617.6,344.7,615.1,344.7z"/>
<path class="st4" d="M664.6,319.9v24.4h-2.7v-3.1c-1,2.2-2.6,3.5-5.4,3.5c-4.2,0-6.9-3.5-6.9-8.9c0-5.3,2.9-8.8,7.4-8.8
	c2.3,0,3.9,1.2,4.8,2.9v-10.1H664.6z M657.2,329.6c-2.9,0-4.6,2.3-4.6,6.3c0,3.9,1.7,6.3,4.5,6.3c2.9,0,4.6-2.3,4.6-5.9v-0.8
	C661.8,331.9,660,329.6,657.2,329.6z"/>
<path class="st4" d="M683.5,327.1c1.2,0,2.3,0.1,3,0.3v2.7c-0.7-0.2-1.9-0.3-3.1-0.3c-4,0-7.3,2.8-7.3,8.3v6.3h-2.9v-16.8h2.8v4.4
	C677.2,329.2,680,327.1,683.5,327.1z"/>
<path class="st4" d="M706.9,336.6H695c0,3.2,1.8,5.6,5,5.6c2.2,0,3.6-1.4,4.5-3l2.4,1.3c-1.4,2.8-3.7,4.2-6.9,4.2
	c-5.3,0-7.9-3.6-7.9-9.2c0-5.2,3-8.5,7.7-8.5c5.2,0,7.2,3.7,7.2,8.3C707,335.8,706.9,336.2,706.9,336.6z M699.7,329.3
	c-3.1,0-4.6,2.5-4.6,5h8.9C704,331.6,702.7,329.3,699.7,329.3z"/>
<path class="st4" d="M713.9,339.1l2.9-0.5c0.4,2.5,2,3.7,4.5,3.7c2.3,0,3.5-0.9,3.5-2.5c0-1.7-0.9-2.4-2.7-2.6l-2.7-0.3
	c-3.3-0.4-4.9-2.3-4.9-4.9c0-3.1,2.4-5,6.4-5c3.8,0,6.4,2,6.8,5.1l-2.8,0.6c-0.4-2-1.8-3.4-4-3.4c-2.2,0-3.5,0.9-3.5,2.5
	c0,1.5,0.9,2.3,3,2.6l2.7,0.3c3.3,0.4,4.6,2.1,4.6,4.8c0,3.2-2.4,5.2-6.5,5.2C717.2,344.7,714.5,342.7,713.9,339.1z"/>
<path class="st4" d="M734.8,339.1l2.9-0.5c0.4,2.5,2,3.7,4.5,3.7c2.3,0,3.5-0.9,3.5-2.5c0-1.7-0.9-2.4-2.7-2.6l-2.7-0.3
	c-3.3-0.4-4.9-2.3-4.9-4.9c0-3.1,2.4-5,6.4-5c3.8,0,6.4,2,6.8,5.1l-2.8,0.6c-0.4-2-1.8-3.4-4-3.4c-2.2,0-3.5,0.9-3.5,2.5
	c0,1.5,0.9,2.3,3,2.6l2.7,0.3c3.3,0.4,4.6,2.1,4.6,4.8c0,3.2-2.4,5.2-6.5,5.2C738.1,344.7,735.4,342.7,734.8,339.1z"/>
<path class="st4" d="M769.6,336.6h-11.8c0,3.2,1.8,5.6,5,5.6c2.2,0,3.6-1.4,4.5-3l2.4,1.3c-1.4,2.8-3.7,4.2-6.9,4.2
	c-5.3,0-7.9-3.6-7.9-9.2c0-5.2,3-8.5,7.7-8.5c5.2,0,7.2,3.7,7.2,8.3C769.7,335.8,769.6,336.2,769.6,336.6z M762.4,329.3
	c-3.1,0-4.6,2.5-4.6,5h8.9C766.8,331.6,765.4,329.3,762.4,329.3z"/>
<path class="st4" d="M790,319.9v24.4h-2.7v-3.1c-1,2.2-2.6,3.5-5.4,3.5c-4.2,0-6.9-3.5-6.9-8.9c0-5.3,2.9-8.8,7.4-8.8
	c2.3,0,3.9,1.2,4.8,2.9v-10.1H790z M782.6,329.6c-2.9,0-4.6,2.3-4.6,6.3c0,3.9,1.7,6.3,4.5,6.3c2.9,0,4.6-2.3,4.6-5.9v-0.8
	C787.2,331.9,785.4,329.6,782.6,329.6z"/>
<path class="st4" d="M581.5,370.2h-6.4v14.5h-2.9v-14.5h-5.2v-2.3h5.2V366c0-3.8,2.2-5.8,6.3-5.8c1,0,1.8,0.1,2.9,0.3v2.5
	c-0.7-0.1-1.7-0.3-2.9-0.3c-2.6,0-3.5,0.9-3.5,3.4v1.7h6.4V370.2z M589.1,382.4h5.4v-12.1h-4.9v-2.4h7.8v14.5h5.7v2.4h-14
	L589.1,382.4L589.1,382.4z M597.7,364.5h-4v-4h4V364.5z"/>
<path class="st4" d="M620.8,367.6c1.2,0,2.3,0.1,3,0.3v2.7c-0.7-0.2-1.9-0.3-3.1-0.3c-4,0-7.3,2.8-7.3,8.3v6.3h-2.9v-16.8h2.8v4.4
	C614.5,369.6,617.3,367.6,620.8,367.6z"/>
<path class="st4" d="M630.3,379.5l2.9-0.5c0.4,2.5,2,3.7,4.5,3.7c2.3,0,3.5-0.9,3.5-2.5c0-1.7-0.9-2.4-2.7-2.6l-2.7-0.3
	c-3.3-0.4-4.9-2.3-4.9-4.9c0-3.1,2.4-5,6.4-5c3.8,0,6.4,2,6.8,5.1l-2.8,0.6c-0.4-2-1.8-3.4-4-3.4c-2.2,0-3.5,0.9-3.5,2.5
	c0,1.5,0.9,2.3,3,2.6l2.7,0.3c3.3,0.4,4.6,2.1,4.6,4.8c0,3.2-2.4,5.1-6.5,5.1C633.5,385.1,630.9,383.2,630.3,379.5z"/>
<path class="st4" d="M650.6,367.9h4.8v-4.4l2.9-1.2v5.6h6.6v2.3h-6.6v8.7c0,2.3,1.1,3.3,3.2,3.3c1.1,0,2.3-0.1,3.3-0.3v2.6
	c-0.9,0.2-1.8,0.4-3.3,0.4c-4.2,0-6.1-2.4-6.1-5.7v-9.1h-4.8L650.6,367.9L650.6,367.9z"/>
<path class="st4" d="M681.2,384.7h-4.5v-4.3h4.5V384.7z"/>
</svg>
