<svg width="899" height="801" viewBox="0 0 899 801" fill="none" xmlns="http://www.w3.org/2000/svg">
<path d="M558.197 686.38C521.994 726.329 469.678 751.429 411.516 751.429C352.842 751.429 300.136 725.902 263.896 685.343" stroke="#00BFFF" stroke-width="3" stroke-miterlimit="10" stroke-linecap="round" stroke-linejoin="round"/>
<path d="M385.505 796.869V704.073H439.517V796.869" fill="white"/>
<path d="M385.505 796.869V704.073H439.517V796.869" stroke="#00BFFF" stroke-width="3" stroke-miterlimit="10" stroke-linecap="round" stroke-linejoin="round"/>
<path d="M773.182 314.037C794.006 314.037 810.935 330.973 810.935 351.777V757.286C810.935 778.103 793.993 795.027 773.182 795.027H41.5749C20.7513 795.027 3.82149 778.09 3.82149 757.286V351.79C3.82149 330.973 20.7635 314.049 41.5749 314.049H773.182V314.037ZM773.182 310.376H41.5749C18.7007 310.376 0.159668 328.911 0.159668 351.777V757.286C0.159668 780.152 18.7007 798.687 41.5749 798.687H773.182C796.056 798.687 814.597 780.152 814.597 757.286V351.79C814.597 328.911 796.056 310.376 773.182 310.376Z" fill="#00BFFF"/>
<path d="M557.037 685.343H34.9104V656.876H557.037" stroke="#00BFFF" stroke-width="3" stroke-miterlimit="10" stroke-linecap="round" stroke-linejoin="round"/>
<path d="M159.412 656.888H114.506C96.7342 656.888 82.3188 642.49 82.3188 624.712V612.876C82.3188 595.11 96.722 580.699 114.506 580.699H159.412C177.184 580.699 191.6 595.098 191.6 612.876V624.712C191.6 642.478 177.184 656.888 159.412 656.888Z" stroke="#00BFFF" stroke-width="3" stroke-miterlimit="10" stroke-linecap="round" stroke-linejoin="round"/>
<path d="M221.578 656.876V608.287C221.578 586.458 239.276 568.777 261.101 568.777H568.059" stroke="#00BFFF" stroke-width="3" stroke-miterlimit="10" stroke-linecap="round" stroke-linejoin="round"/>
<path d="M240.265 631.178V617.183C240.265 604.09 250.884 593.462 263.994 593.462H498.326C507.432 593.462 514.816 600.844 514.816 609.947V647.858C514.816 652.837 510.776 656.863 505.808 656.863C500.828 656.863 496.8 652.825 496.8 647.858V630.3" stroke="#00BFFF" stroke-width="3" stroke-miterlimit="10" stroke-linecap="round" stroke-linejoin="round"/>
<path d="M487.438 657.315C482.458 657.315 478.43 653.276 478.43 648.31V630.751" stroke="#00BFFF" stroke-width="3" stroke-miterlimit="10" stroke-linecap="round" stroke-linejoin="round"/>
<path d="M496.446 631.093V648.31C496.446 653.288 492.406 657.315 487.438 657.315" stroke="#00BFFF" stroke-width="3" stroke-miterlimit="10" stroke-linecap="round" stroke-linejoin="round"/>
<path d="M469.08 657.315C464.1 657.315 460.072 653.276 460.072 648.31V630.751" stroke="#00BFFF" stroke-width="3" stroke-miterlimit="10" stroke-linecap="round" stroke-linejoin="round"/>
<path d="M478.088 631.093V648.31C478.088 653.288 474.048 657.315 469.08 657.315" stroke="#00BFFF" stroke-width="3" stroke-miterlimit="10" stroke-linecap="round" stroke-linejoin="round"/>
<path d="M163.135 581.614V604.566" stroke="#00BFFF" stroke-width="3" stroke-miterlimit="10" stroke-linecap="round" stroke-linejoin="round"/>
<path d="M124.564 593.548V604.566" stroke="#00BFFF" stroke-width="3" stroke-miterlimit="10" stroke-linecap="round" stroke-linejoin="round"/>
<path d="M131.229 580.698L147.304 571.535C149.477 570.302 152.162 571.864 152.162 574.353V580.686" stroke="#00BFFF" stroke-width="3" stroke-miterlimit="10" stroke-linecap="round" stroke-linejoin="round"/>
<path d="M237.58 395.582L238.922 395.436C241.583 391.885 243.39 387.48 243.512 383.88C243.671 379.195 236.933 377.877 235.285 382.258C235.273 382.282 235.261 382.306 235.261 382.331C234.04 385.65 232.502 393.593 222.408 397.266L222.884 397.217C207.699 402.061 196.702 416.277 196.702 433.067C196.702 453.847 213.558 470.698 234.345 470.698C255.132 470.698 271.989 453.847 271.989 433.067C271.976 413.373 256.853 397.229 237.58 395.582Z" stroke="#00BFFF" stroke-width="3" stroke-miterlimit="10" stroke-linecap="round" stroke-linejoin="round"/>
<path d="M247.186 397.266C249.847 393.716 251.653 388.396 251.776 384.784C251.934 380.098 245.196 378.78 243.549 383.161" stroke="#00BFFF" stroke-width="3" stroke-miterlimit="10" stroke-linecap="round" stroke-linejoin="round"/>
<path d="M254.534 400.939C257.195 397.388 259.001 392.068 259.123 388.457C259.282 383.771 253.46 382.453 251.812 386.834" stroke="#00BFFF" stroke-width="3" stroke-miterlimit="10" stroke-linecap="round" stroke-linejoin="round"/>
<path d="M241.242 431.261C242.01 431.261 242.633 430.638 242.633 429.87C242.633 429.101 242.01 428.479 241.242 428.479C240.473 428.479 239.85 429.101 239.85 429.87C239.85 430.638 240.473 431.261 241.242 431.261Z" stroke="#00BFFF" stroke-width="3" stroke-miterlimit="10" stroke-linecap="round" stroke-linejoin="round"/>
<path d="M257.268 431.261C258.037 431.261 258.66 430.638 258.66 429.87C258.66 429.101 258.037 428.479 257.268 428.479C256.5 428.479 255.877 429.101 255.877 429.87C255.877 430.638 256.5 431.261 257.268 431.261Z" stroke="#00BFFF" stroke-width="3" stroke-miterlimit="10" stroke-linecap="round" stroke-linejoin="round"/>
<path d="M247.662 436.813H251.885C253.863 436.813 255.462 438.412 255.462 440.389C255.462 442.365 253.863 443.964 251.885 443.964H247.662" stroke="#00BFFF" stroke-width="3" stroke-miterlimit="10" stroke-linecap="round" stroke-linejoin="round"/>
<path d="M234.333 454.177H224.409" stroke="#00BFFF" stroke-width="3" stroke-miterlimit="10" stroke-linecap="round" stroke-linejoin="round"/>
<path d="M212.411 444.305C207.406 444.305 203.342 440.242 203.342 435.239C203.342 430.236 207.406 426.173 212.411 426.173" stroke="#00BFFF" stroke-width="3" stroke-miterlimit="10" stroke-linecap="round" stroke-linejoin="round"/>
<path d="M158.997 622.601C158.997 630.117 152.907 636.206 145.388 636.206C137.869 636.206 131.778 630.117 131.778 622.601" stroke="#00BFFF" stroke-width="3" stroke-miterlimit="10" stroke-linecap="round" stroke-linejoin="round"/>
<path d="M191.6 622.918H220.98" stroke="#00BFFF" stroke-width="3" stroke-miterlimit="10" stroke-linecap="round" stroke-linejoin="round"/>
<path d="M724.321 482.997C754.34 482.997 778.675 458.67 778.675 428.662C778.675 398.653 754.34 374.326 724.321 374.326C694.303 374.326 669.968 398.653 669.968 428.662C669.968 458.67 694.303 482.997 724.321 482.997Z" stroke="#00BFFF" stroke-width="3" stroke-miterlimit="10" stroke-linecap="round" stroke-linejoin="round"/>
<path d="M673.324 409.834H659.007V449.564H673.324" stroke="#00BFFF" stroke-width="3" stroke-miterlimit="10" stroke-linecap="round" stroke-linejoin="round"/>
<path d="M778.675 422.098H669.968" stroke="#00BFFF" stroke-width="3" stroke-miterlimit="10" stroke-linecap="round" stroke-linejoin="round"/>
<path d="M778.675 432.848H669.968" stroke="#00BFFF" stroke-width="3" stroke-miterlimit="10" stroke-linecap="round" stroke-linejoin="round"/>
<path d="M558.197 796.869V609.239C558.197 561.542 596.878 522.886 644.579 522.886H812.754" stroke="#00BFFF" stroke-width="3" stroke-miterlimit="10" stroke-linecap="round" stroke-linejoin="round"/>
<path d="M711.298 481.57L701.203 522.874" stroke="#00BFFF" stroke-width="3" stroke-miterlimit="10" stroke-linecap="round" stroke-linejoin="round"/>
<path d="M744.351 478.812L759.963 522.874" stroke="#00BFFF" stroke-width="3" stroke-miterlimit="10" stroke-linecap="round" stroke-linejoin="round"/>
<path d="M256.792 513.026H312.11C336.29 513.026 355.881 532.623 355.881 556.783V568.765" stroke="#00BFFF" stroke-width="3" stroke-miterlimit="10" stroke-linecap="round" stroke-linejoin="round"/>
<path d="M120.438 580.699V556.783C120.438 532.611 140.041 513.026 164.209 513.026H213.632" stroke="#00BFFF" stroke-width="3" stroke-miterlimit="10" stroke-linecap="round" stroke-linejoin="round"/>
<path d="M355.881 743.51V790.146C355.881 793.867 352.866 796.869 349.155 796.869C345.433 796.869 342.43 793.855 342.43 790.146V774.783" stroke="#00BFFF" stroke-width="3" stroke-miterlimit="10" stroke-linecap="round" stroke-linejoin="round"/>
<path d="M342.113 774.711V790.134C342.113 793.856 339.098 796.857 335.387 796.857C331.664 796.857 328.662 793.844 328.662 790.134V774.772" stroke="#00BFFF" stroke-width="3" stroke-miterlimit="10" stroke-linecap="round" stroke-linejoin="round"/>
<path d="M328.344 774.71V790.133C328.344 793.855 325.329 796.857 321.619 796.857C317.896 796.857 314.893 793.843 314.893 790.133V726.646" stroke="#00BFFF" stroke-width="3" stroke-miterlimit="10" stroke-linecap="round" stroke-linejoin="round"/>
<path d="M161.231 685.343V790.133C161.231 793.855 158.216 796.857 154.505 796.857C150.782 796.857 147.78 793.843 147.78 790.133V774.771" stroke="#00BFFF" stroke-width="3" stroke-miterlimit="10" stroke-linecap="round" stroke-linejoin="round"/>
<path d="M147.45 774.711V790.134C147.45 793.856 144.435 796.857 140.725 796.857C137.002 796.857 133.999 793.844 133.999 790.134V774.772" stroke="#00BFFF" stroke-width="3" stroke-miterlimit="10" stroke-linecap="round" stroke-linejoin="round"/>
<path d="M133.682 774.71V790.133C133.682 793.855 130.667 796.857 126.956 796.857C123.233 796.857 120.231 793.843 120.231 790.133V685.343" stroke="#00BFFF" stroke-width="3" stroke-miterlimit="10" stroke-linecap="round" stroke-linejoin="round"/>
<path d="M161.292 750.514H314.637" stroke="#00BFFF" stroke-width="3" stroke-miterlimit="10" stroke-linecap="round" stroke-linejoin="round"/>
<path d="M267.351 513.429C262.297 526.338 249.725 535.49 235.017 535.49C220.284 535.49 207.687 526.302 202.646 513.355" stroke="#00BFFF" stroke-width="3" stroke-miterlimit="10" stroke-linecap="round" stroke-linejoin="round"/>
<path d="M222.823 470.552L213.632 512.771" stroke="#00BFFF" stroke-width="3" stroke-miterlimit="10" stroke-linecap="round" stroke-linejoin="round"/>
<path d="M244.855 469.637L256.792 512.771" stroke="#00BFFF" stroke-width="3" stroke-miterlimit="10" stroke-linecap="round" stroke-linejoin="round"/>
<path d="M629.578 638.524V797.321" stroke="#00BFFF" stroke-width="3" stroke-miterlimit="10" stroke-linecap="round" stroke-linejoin="round"/>
<path d="M652.537 522.874V799.164" stroke="#00BFFF" stroke-width="3" stroke-miterlimit="10" stroke-linecap="round" stroke-linejoin="round"/>
<path d="M677.328 522.874V799.164" stroke="#00BFFF" stroke-width="3" stroke-miterlimit="10" stroke-linecap="round" stroke-linejoin="round"/>
<path d="M788.427 522.874V796.406" stroke="#00BFFF" stroke-width="3" stroke-miterlimit="10" stroke-linecap="round" stroke-linejoin="round"/>
<path d="M855.671 359.378H473.523C450.649 359.378 432.108 340.844 432.108 317.977V42.9199C432.108 20.0534 450.649 1.51855 473.523 1.51855H855.671C878.545 1.51855 897.086 20.0534 897.086 42.9199V317.977C897.098 340.831 878.545 359.378 855.671 359.378Z" fill="#D7F7FF" stroke="#00BFFF" stroke-width="3" stroke-miterlimit="10" stroke-linecap="round" stroke-linejoin="round"/>
<path d="M474.304 46.9589H474.365C474.304 46.2634 474.304 45.4947 474.304 44.7381V30.1445H477.014V50.8635H473.828L467.322 35.9527C466.822 34.8179 466.383 33.5001 466.383 33.5001H466.297C466.358 34.0492 466.358 34.6715 466.358 35.2816V50.8635H463.648V30.1445H467.213L473.316 44.2378C473.865 45.5557 474.182 46.5196 474.304 46.9589Z" fill="#00BFFF"/>
<path d="M480.432 43.5789C480.432 38.9421 483.141 35.9404 487.23 35.9404C491.319 35.9404 494.029 38.9421 494.029 43.5789C494.029 48.2156 491.319 51.2173 487.23 51.2173C483.141 51.2173 480.432 48.1546 480.432 43.5789ZM491.405 43.5789C491.405 40.1623 489.855 38.088 487.23 38.088C484.606 38.088 483.056 40.1257 483.056 43.5789C483.056 47.032 484.606 49.0698 487.23 49.0698C489.855 49.0698 491.405 47.0198 491.405 43.5789Z" fill="#00BFFF"/>
<path d="M498.497 36.2822L499.986 46.2879L500.279 48.3622H500.486C500.608 47.6911 500.694 47.2274 500.95 45.9096L502.842 36.2822H505.381L507.273 45.9096C507.542 47.2274 507.627 47.6911 507.737 48.3622H507.944L508.237 46.2879L509.726 36.2822H512.326L509.494 50.8758H506.37L504.478 41.4559C504.356 40.8702 504.246 39.65 504.209 39.0643H504.002C503.977 39.65 503.855 40.8702 503.745 41.4559L501.853 50.8758H498.729L495.897 36.2822H498.497Z" fill="#00BFFF"/>
<path d="M531.441 36.2827H535.615V32.4634L538.093 31.4141V36.2827H543.781V38.296H538.093V45.849C538.093 47.8013 539.033 48.7409 540.901 48.7409C541.865 48.7409 542.89 48.6555 543.793 48.4724V50.7542C543.037 50.925 542.219 51.1325 540.937 51.1325C537.288 51.1325 535.628 49.0947 535.628 46.2029V38.296H531.453V36.2827H531.441Z" fill="#00BFFF"/>
<path d="M555.841 35.9286C557.013 35.9286 558.404 36.2458 559.429 37.2098C560.369 38.1127 560.857 39.4916 560.857 41.8465V50.8638H558.38V41.993C558.38 38.8083 556.781 38.1127 555.23 38.1127C552.045 38.1127 551.264 41.1754 551.264 43.2498V50.8638H548.786V29.7178H551.264V38.9425C551.935 37.1854 553.741 35.9286 555.841 35.9286Z" fill="#00BFFF"/>
<path d="M577.726 50.8635H575.126C575.004 50.0459 574.919 49.082 574.894 48.2034C573.93 50.2412 572.356 51.2051 569.963 51.2051C567.07 51.2051 565.056 49.4236 565.056 46.9222C565.056 45.4092 565.752 44.2378 567.095 43.4813C568.059 42.9566 569.634 42.5783 572.051 42.2855L574.711 41.9682V41.712C574.711 39.113 573.747 37.9782 571.587 37.9782C569.512 37.9782 568.291 39.0275 568.169 40.87H565.508C565.777 37.7463 568.047 35.9404 571.758 35.9404C575.517 35.9404 577.214 37.8073 577.214 42.0048V45.9461C577.238 48.2644 577.385 49.7897 577.726 50.8635ZM571.282 44.2378C568.743 44.5916 567.693 45.3116 567.693 46.7758C567.693 48.2644 568.718 49.1674 570.439 49.1674C573.064 49.1674 574.76 47.3615 574.76 44.494V43.7619L571.282 44.2378Z" fill="#00BFFF"/>
<path d="M582.133 36.2827H586.307V32.4634L588.785 31.4141V36.2827H594.473V38.296H588.785V45.849C588.785 47.8013 589.725 48.7409 591.593 48.7409C592.557 48.7409 593.582 48.6555 594.485 48.4724V50.7542C593.729 50.925 592.911 51.1325 591.629 51.1325C587.98 51.1325 586.319 49.0947 586.319 46.2029V38.296H582.145V36.2827H582.133Z" fill="#00BFFF"/>
<path d="M622.645 47.9839L626.697 36.2822H629.358L623.524 51.8032C622.181 55.5126 620.435 56.7328 617.982 56.7328C617.543 56.7328 617.103 56.7084 616.639 56.6107V54.4266C617.018 54.451 617.372 54.4876 617.689 54.4876C619.471 54.4876 620.374 53.6945 621.046 51.7788L621.424 50.705L615.736 36.2944H618.543L622.645 47.9839Z" fill="#00BFFF"/>
<path d="M632.507 43.5789C632.507 38.9421 635.217 35.9404 639.306 35.9404C643.395 35.9404 646.105 38.9421 646.105 43.5789C646.105 48.2156 643.395 51.2173 639.306 51.2173C635.217 51.2173 632.507 48.1546 632.507 43.5789ZM643.48 43.5789C643.48 40.1623 641.93 38.088 639.306 38.088C636.682 38.088 635.131 40.1257 635.131 43.5789C635.131 47.032 636.682 49.0698 639.306 49.0698C641.93 49.0576 643.48 47.0198 643.48 43.5789Z" fill="#00BFFF"/>
<path d="M655.186 51.2175C653.843 51.2175 652.476 50.9002 651.451 49.9363C650.511 49.0333 650.108 47.6667 650.108 45.2995V36.2822H652.647V45.2141C652.647 48.3988 654.161 49.0943 655.687 49.0943C658.75 49.0943 659.483 46.0316 659.483 43.8963V36.2822H661.961V50.8758H659.629V48.106C659.068 49.558 657.347 51.2175 655.186 51.2175Z" fill="#00BFFF"/>
<path d="M696.015 50.8635H693.415C693.293 50.0459 693.208 49.082 693.184 48.2034C692.219 50.2412 690.645 51.2051 688.252 51.2051C685.359 51.2051 683.345 49.4236 683.345 46.9222C683.345 45.4092 684.041 44.2378 685.384 43.4813C686.348 42.9566 687.923 42.5783 690.34 42.2855L693 41.9682V41.712C693 39.113 692.036 37.9782 689.876 37.9782C687.801 37.9782 686.58 39.0275 686.458 40.87H683.797C684.066 37.7463 686.336 35.9404 690.047 35.9404C693.806 35.9404 695.503 37.8073 695.503 42.0048V45.9461C695.515 48.2644 695.661 49.7897 696.015 50.8635ZM689.558 44.2378C687.019 44.5916 685.97 45.3116 685.97 46.7758C685.97 48.2644 686.995 49.1674 688.716 49.1674C691.34 49.1674 693.037 47.3615 693.037 44.494V43.7619L689.558 44.2378Z" fill="#00BFFF"/>
<path d="M710.809 35.9893C711.859 35.9893 712.823 36.1113 713.433 36.2821V38.5883C712.848 38.4419 711.773 38.2954 710.724 38.2954C707.221 38.2954 704.425 40.687 704.425 45.4458V50.8757H701.948V36.2821H704.401V40.0769C705.377 37.7707 707.77 35.9893 710.809 35.9893Z" fill="#00BFFF"/>
<path d="M729.863 44.2134H719.622C719.622 46.9588 721.196 49.021 723.906 49.021C725.835 49.021 727.031 47.8252 727.763 46.4219L729.863 47.5323C728.642 49.9483 726.653 51.2051 723.906 51.2051C719.329 51.2051 717.071 48.057 717.071 43.2738C717.071 38.8079 719.634 35.916 723.723 35.916C728.191 35.916 729.912 39.1251 729.912 43.0908C729.924 43.4568 729.887 43.8351 729.863 44.2134ZM723.613 37.8561C720.952 37.8561 719.61 40.0403 719.61 42.1756H727.348C727.409 39.8329 726.238 37.8561 723.613 37.8561Z" fill="#00BFFF"/>
<path d="M754.141 38.9914C754.897 37.3807 756.655 35.9287 758.718 35.9287C762.538 35.9287 764.784 39.1134 764.784 43.5427C764.784 48.0941 762.453 51.2178 758.572 51.2178C756.765 51.2178 754.959 50.1074 754.287 48.5578V56.5501H751.809V36.2704H754.141V38.9914ZM758.169 49.0336C760.708 49.0336 762.172 46.8739 762.172 43.5427C762.172 40.3092 760.83 38.1129 758.266 38.1129C755.813 38.1129 754.238 40.0652 754.238 43.1889V43.8844C754.226 46.9837 755.715 49.0336 758.169 49.0336Z" fill="#00BFFF"/>
<path d="M778.394 35.9893C779.444 35.9893 780.408 36.1113 781.018 36.2821V38.5883C780.432 38.4419 779.358 38.2954 778.309 38.2954C774.805 38.2954 772.01 40.687 772.01 45.4458V50.8757H769.532V36.2821H771.986V40.0769C772.962 37.7707 775.355 35.9893 778.394 35.9893Z" fill="#00BFFF"/>
<path d="M784.583 43.5789C784.583 38.9421 787.292 35.9404 791.381 35.9404C795.47 35.9404 798.18 38.9421 798.18 43.5789C798.18 48.2156 795.47 51.2173 791.381 51.2173C787.292 51.2173 784.583 48.1546 784.583 43.5789ZM795.556 43.5789C795.556 40.1623 794.006 38.088 791.381 38.088C788.757 38.088 787.207 40.1257 787.207 43.5789C787.207 47.032 788.757 49.0698 791.381 49.0698C794.006 49.0576 795.556 47.0198 795.556 43.5789Z" fill="#00BFFF"/>
<path d="M804.832 38.9914C805.589 37.3807 807.347 35.9287 809.41 35.9287C813.23 35.9287 815.476 39.1134 815.476 43.5427C815.476 48.0941 813.145 51.2178 809.263 51.2178C807.457 51.2178 805.65 50.1074 804.979 48.5578V56.5501H802.501V36.2704H804.832V38.9914ZM808.86 49.0336C811.399 49.0336 812.864 46.8739 812.864 43.5427C812.864 40.3092 811.521 38.1129 808.958 38.1129C806.505 38.1129 804.93 40.0652 804.93 43.1889V43.8844C804.918 46.9837 806.407 49.0336 808.86 49.0336Z" fill="#00BFFF"/>
<path d="M831.246 44.2134H821.005C821.005 46.9588 822.58 49.021 825.29 49.021C827.218 49.021 828.415 47.8252 829.147 46.4219L831.246 47.5323C830.026 49.9483 828.036 51.2051 825.29 51.2051C820.713 51.2051 818.467 48.057 818.467 43.2738C818.467 38.8079 821.03 35.916 825.119 35.916C829.586 35.916 831.307 39.1251 831.307 43.0908C831.307 43.4568 831.271 43.8351 831.246 44.2134ZM824.997 37.8561C822.336 37.8561 820.993 40.0403 820.993 42.1756H828.732C828.793 39.8329 827.621 37.8561 824.997 37.8561Z" fill="#00BFFF"/>
<path d="M845.979 35.9893C847.029 35.9893 847.993 36.1113 848.603 36.2821V38.5883C848.017 38.4419 846.943 38.2954 845.894 38.2954C842.39 38.2954 839.595 40.687 839.595 45.4458V50.8757H837.117V36.2821H839.571V40.0769C840.547 37.7707 842.952 35.9893 845.979 35.9893Z" fill="#00BFFF"/>
<path d="M853.571 48.8261H858.246V31.7555H853.864V29.7178H860.724V48.8261H865.655V50.8638H853.571V48.8261Z" fill="#00BFFF"/>
<path d="M876.104 47.9839L880.156 36.2822H882.817L876.983 51.8032C875.64 55.5126 873.882 56.7328 871.441 56.7328C871.002 56.7328 870.562 56.7084 870.098 56.6107V54.4266C870.477 54.451 870.831 54.4876 871.148 54.4876C872.93 54.4876 873.833 53.6945 874.505 51.7788L874.883 50.705L869.195 36.2944H872.003L876.104 47.9839Z" fill="#00BFFF"/>
<path d="M475.964 64.7256V85.8716H473.633V83.1628C472.754 85.0541 471.387 86.2255 468.995 86.2255C465.345 86.2255 462.977 83.1872 462.977 78.5504C462.977 73.9747 465.516 70.9364 469.373 70.9364C471.363 70.9364 472.754 72.0102 473.487 73.45V64.7256H475.964ZM469.605 73.1206C467.091 73.1206 465.601 75.1339 465.601 78.5504C465.601 81.9304 467.09 84.0413 469.507 84.0413C471.985 84.0413 473.535 82.0646 473.535 78.9043V78.2332C473.548 75.1095 472.022 73.1206 469.605 73.1206Z" fill="#00BFFF"/>
<path d="M491.149 70.9971C492.198 70.9971 493.163 71.1191 493.773 71.2899V73.5961C493.187 73.4497 492.113 73.3033 491.063 73.3033C487.56 73.3033 484.765 75.6948 484.765 80.4536V85.8835H482.287V71.2899H484.741V75.0847C485.717 72.7786 488.109 70.9971 491.149 70.9971Z" fill="#00BFFF"/>
<path d="M510.202 79.2212H499.961C499.961 81.9666 501.536 84.0288 504.246 84.0288C506.174 84.0288 507.371 82.833 508.103 81.4297L510.202 82.5401C508.982 84.9561 506.992 86.2129 504.246 86.2129C499.669 86.2129 497.423 83.0648 497.423 78.2816C497.423 73.8157 499.986 70.9238 504.075 70.9238C508.542 70.9238 510.263 74.133 510.263 78.0986C510.263 78.4647 510.227 78.8429 510.202 79.2212ZM503.953 72.864C501.292 72.864 499.949 75.0481 499.949 77.1835H507.688C507.749 74.8407 506.577 72.864 503.953 72.864Z" fill="#00BFFF"/>
<path d="M515.073 81.3809L517.587 80.9417C517.965 83.077 519.332 84.1752 521.493 84.1752C523.446 84.1752 524.532 83.3577 524.532 81.991C524.532 80.5268 523.776 79.8923 522.201 79.7093L519.833 79.4408C516.94 79.1236 515.573 77.4885 515.573 75.2433C515.573 72.5833 517.672 70.9238 521.115 70.9238C524.447 70.9238 526.693 72.6687 527.01 75.3532L524.557 75.9022C524.239 74.1574 523.043 72.925 521.054 72.925C519.125 72.925 517.99 73.7181 517.99 75.1091C517.99 76.3659 518.808 77.1224 520.614 77.3299L522.945 77.5861C525.838 77.9034 526.973 79.4286 526.973 81.7348C526.973 84.5046 524.935 86.2007 521.371 86.2007C517.904 86.2251 515.597 84.5046 515.073 81.3809Z" fill="#00BFFF"/>
<path d="M531.966 81.3809L534.48 80.9417C534.859 83.077 536.226 84.1752 538.386 84.1752C540.339 84.1752 541.426 83.3577 541.426 81.991C541.426 80.5268 540.669 79.8923 539.094 79.7093L536.726 79.4408C533.833 79.1236 532.466 77.4885 532.466 75.2433C532.466 72.5833 534.566 70.9238 538.008 70.9238C541.34 70.9238 543.586 72.6687 543.903 75.3532L541.45 75.9022C541.133 74.1574 539.936 72.925 537.947 72.925C536.018 72.925 534.883 73.7181 534.883 75.1091C534.883 76.3659 535.701 77.1224 537.507 77.3299L539.839 77.5861C542.732 77.9034 543.867 79.4286 543.867 81.7348C543.867 84.5046 541.828 86.2007 538.264 86.2007C534.798 86.2251 532.491 84.5046 531.966 81.3809Z" fill="#00BFFF"/>
<path d="M560.894 79.2212H550.653C550.653 81.9666 552.228 84.0288 554.938 84.0288C556.866 84.0288 558.062 82.833 558.795 81.4297L560.894 82.5401C559.674 84.9561 557.684 86.2129 554.938 86.2129C550.36 86.2129 548.114 83.0648 548.114 78.2816C548.114 73.8157 550.678 70.9238 554.767 70.9238C559.234 70.9238 560.955 74.133 560.955 78.0986C560.955 78.4647 560.919 78.8429 560.894 79.2212ZM554.645 72.864C551.984 72.864 550.641 75.0481 550.641 77.1835H558.38C558.441 74.8407 557.269 72.864 554.645 72.864Z" fill="#00BFFF"/>
<path d="M577.348 64.7256V85.8716H575.017V83.1628C574.138 85.0541 572.771 86.2255 570.378 86.2255C566.729 86.2255 564.361 83.1872 564.361 78.5504C564.361 73.9747 566.899 70.9364 570.757 70.9364C572.746 70.9364 574.138 72.0102 574.87 73.45V64.7256H577.348ZM570.988 73.1206C568.474 73.1206 566.985 75.1339 566.985 78.5504C566.985 81.9304 568.474 84.0413 570.891 84.0413C573.369 84.0413 574.919 82.0646 574.919 78.9043V78.2332C574.931 75.1095 573.405 73.1206 570.988 73.1206Z" fill="#00BFFF"/>
<path d="M586.832 88.8488C588.468 88.1533 588.785 87.4822 588.785 85.8715H586.649V82.1377H590.53V85.8715C590.53 88.1167 589.835 89.2881 587.577 90.191L586.832 88.8488Z" fill="#00BFFF"/>
<path d="M617.005 83.8339H621.68V66.7633H617.298V64.7256H624.158V83.8339H629.089V85.8716H617.005V83.8339Z" fill="#00BFFF"/>
<path d="M645.372 79.2212H635.131C635.131 81.9666 636.706 84.0288 639.416 84.0288C641.344 84.0288 642.541 82.833 643.273 81.4297L645.372 82.5401C644.152 84.9561 642.162 86.2129 639.416 86.2129C634.838 86.2129 632.593 83.0648 632.593 78.2816C632.593 73.8157 635.156 70.9238 639.245 70.9238C643.712 70.9238 645.433 74.133 645.433 78.0986C645.433 78.4647 645.409 78.8429 645.372 79.2212ZM639.135 72.864C636.474 72.864 635.131 75.0481 635.131 77.1835H642.87C642.919 74.8407 641.759 72.864 639.135 72.864Z" fill="#00BFFF"/>
<path d="M649.718 71.2905H653.892V67.4712L656.37 66.4219V71.2905H662.058V73.3038H656.37V80.8568C656.37 82.8091 657.31 83.7487 659.177 83.7487C660.142 83.7487 661.167 83.6633 662.07 83.4803V85.762C661.314 85.9329 660.496 86.1403 659.214 86.1403C655.565 86.1403 653.905 84.1026 653.905 81.2107V73.3038H649.73V71.2905H649.718Z" fill="#00BFFF"/>
<path d="M671.322 71.8761C672.958 71.1806 673.275 70.5095 673.275 68.8989H671.139V65.165H675.021V68.8989C675.021 71.144 674.325 72.3154 672.067 73.2184L671.322 71.8761Z" fill="#00BFFF"/>
<path d="M684.041 81.3809L686.556 80.9417C686.934 83.077 688.301 84.1752 690.462 84.1752C692.415 84.1752 693.501 83.3577 693.501 81.991C693.501 80.5268 692.744 79.8923 691.17 79.7093L688.802 79.4408C685.909 79.1236 684.542 77.4885 684.542 75.2433C684.542 72.5833 686.641 70.9238 690.083 70.9238C693.415 70.9238 695.661 72.6687 695.979 75.3532L693.525 75.9022C693.208 74.1574 692.012 72.925 690.022 72.925C688.094 72.925 686.958 73.7181 686.958 75.1091C686.958 76.3659 687.776 77.1224 689.583 77.3299L691.914 77.5861C694.807 77.9034 695.942 79.4286 695.942 81.7348C695.942 84.5046 693.904 86.2007 690.34 86.2007C686.873 86.2251 684.566 84.5046 684.041 81.3809Z" fill="#00BFFF"/>
<path d="M717.315 71.2905H721.489V67.4712L723.967 66.4219V71.2905H729.655V73.3038H723.967V80.8568C723.967 82.8091 724.907 83.7487 726.775 83.7487C727.739 83.7487 728.764 83.6633 729.667 83.4803V85.762C728.911 85.9329 728.093 86.1403 726.811 86.1403C723.162 86.1403 721.502 84.1026 721.502 81.2107V73.3038H717.327V71.2905H717.315Z" fill="#00BFFF"/>
<path d="M746.695 85.8713H744.095C743.973 85.0537 743.887 84.0898 743.863 83.2112C742.899 85.249 741.324 86.2129 738.932 86.2129C736.039 86.2129 734.025 84.4314 734.025 81.93C734.025 80.417 734.721 79.2456 736.063 78.4891C737.028 77.9644 738.602 77.5861 741.019 77.2933L743.68 76.976V76.7198C743.68 74.1208 742.716 72.986 740.555 72.986C738.48 72.986 737.26 74.0353 737.138 75.8778H734.477C734.745 72.7541 737.015 70.9482 740.726 70.9482C744.486 70.9482 746.182 72.8151 746.182 77.0126V80.9539C746.207 83.2722 746.353 84.7975 746.695 85.8713ZM740.25 79.2456C737.711 79.5995 736.662 80.3194 736.662 81.7836C736.662 83.2723 737.687 84.1752 739.408 84.1752C742.032 84.1752 743.729 82.3693 743.729 79.5018V78.7697L740.25 79.2456Z" fill="#00BFFF"/>
<path d="M752.188 83.8339H756.863V66.7633H752.481V64.7256H759.34V83.8339H764.272V85.8716H752.188V83.8339Z" fill="#00BFFF"/>
<path d="M773.988 78.7213L771.327 81.4057V85.8716H768.849V64.7256H771.327V78.465L777.869 71.2903H781.104L775.757 76.9154L781.446 85.8716H778.382L773.988 78.7213Z" fill="#00BFFF"/>
<path d="M814.292 85.8713H811.692C811.57 85.0537 811.485 84.0898 811.46 83.2112C810.496 85.249 808.921 86.2129 806.529 86.2129C803.636 86.2129 801.622 84.4314 801.622 81.93C801.622 80.417 802.318 79.2456 803.661 78.4891C804.625 77.9644 806.199 77.5861 808.616 77.2933L811.277 76.976V76.7198C811.277 74.1208 810.313 72.986 808.152 72.986C806.077 72.986 804.857 74.0353 804.735 75.8778H802.074C802.342 72.7541 804.613 70.9482 808.323 70.9482C812.083 70.9482 813.779 72.8151 813.779 77.0126V80.9539C813.792 83.2722 813.938 84.7975 814.292 85.8713ZM807.835 79.2456C805.296 79.5995 804.246 80.3194 804.246 81.7836C804.246 83.2723 805.272 84.1752 806.993 84.1752C809.617 84.1752 811.314 82.3693 811.314 79.5018V78.7697L807.835 79.2456Z" fill="#00BFFF"/>
<path d="M821.872 73.8278C822.666 72.1317 824.411 70.9359 826.364 70.9359C830.123 70.9359 832.382 74.1206 832.382 78.5499C832.382 83.1013 830.075 86.225 826.279 86.225C824.326 86.225 822.519 85.1512 821.726 83.3697L821.286 85.8833H819.394V64.7373H821.872V73.8278ZM825.705 84.0408C828.244 84.0408 829.757 81.8811 829.757 78.5499C829.757 75.3164 828.329 73.1201 825.754 73.1201C823.276 73.1201 821.811 75.0724 821.811 78.2205V78.977C821.823 82.0275 823.251 84.0408 825.705 84.0408Z" fill="#00BFFF"/>
<path d="M835.274 78.5867C835.274 73.9499 837.984 70.9482 842.073 70.9482C846.162 70.9482 848.872 73.9499 848.872 78.5867C848.872 83.2234 846.162 86.2251 842.073 86.2251C837.984 86.2251 835.274 83.1624 835.274 78.5867ZM846.248 78.5867C846.248 75.1701 844.697 73.0958 842.073 73.0958C839.449 73.0958 837.899 75.1335 837.899 78.5867C837.899 82.0398 839.449 84.0776 842.073 84.0776C844.697 84.0776 846.248 82.0276 846.248 78.5867Z" fill="#00BFFF"/>
<path d="M857.941 86.2253C856.598 86.2253 855.231 85.908 854.206 84.9441C853.278 84.0411 852.863 82.6745 852.863 80.3073V71.29H855.402V80.2219C855.402 83.4066 856.916 84.1021 858.441 84.1021C861.505 84.1021 862.238 81.0394 862.238 78.9041V71.29H864.715V85.8836H862.384V83.1138C861.823 84.5658 860.101 86.2253 857.941 86.2253Z" fill="#00BFFF"/>
<path d="M869.39 71.2905H873.565V67.4712L876.043 66.4219V71.2905H881.731V73.3038H876.043V80.8568C876.043 82.8091 876.983 83.7487 878.85 83.7487C879.814 83.7487 880.84 83.6633 881.743 83.4803V85.762C880.986 85.9329 880.168 86.1403 878.887 86.1403C875.237 86.1403 873.577 84.1026 873.577 81.2107V73.3038H869.403V71.2905H869.39Z" fill="#00BFFF"/>
<path d="M464.698 106.297L466.187 116.302L466.48 118.377H466.688C466.81 117.706 466.895 117.242 467.152 115.924L469.044 106.297H471.582L473.474 115.924C473.743 117.242 473.828 117.706 473.938 118.377H474.146L474.439 116.302L475.928 106.297H478.528L475.696 120.89H472.571L470.679 111.471C470.557 110.885 470.447 109.665 470.411 109.079H470.203C470.179 109.665 470.057 110.885 469.947 111.471L468.055 120.89H464.93L462.098 106.297H464.698Z" fill="#00BFFF"/>
<path d="M488.256 105.943C489.428 105.943 490.819 106.26 491.844 107.224C492.784 108.127 493.273 109.506 493.273 111.861V120.878H490.795V112.008C490.795 108.823 489.183 108.127 487.646 108.127C484.46 108.127 483.679 111.19 483.679 113.264V120.878H481.201V99.7324H483.679V108.957C484.338 107.2 486.156 105.943 488.256 105.943Z" fill="#00BFFF"/>
<path d="M510.142 120.878H507.542C507.42 120.061 507.334 119.097 507.31 118.218C506.345 120.256 504.771 121.22 502.379 121.22C499.486 121.22 497.472 119.438 497.472 116.937C497.472 115.424 498.167 114.252 499.51 113.496C500.474 112.971 502.049 112.593 504.466 112.3L507.127 111.983V111.727C507.127 109.128 506.162 107.993 504.002 107.993C501.927 107.993 500.706 109.042 500.584 110.885H497.923C498.192 107.761 500.462 105.955 504.173 105.955C507.932 105.955 509.629 107.822 509.629 112.019V115.961C509.641 118.279 509.788 119.804 510.142 120.878ZM503.697 114.252C501.158 114.606 500.108 115.326 500.108 116.79C500.108 118.279 501.133 119.182 502.855 119.182C505.479 119.182 507.175 117.376 507.175 114.509V113.777L503.697 114.252Z" fill="#00BFFF"/>
<path d="M514.548 106.297H518.722V102.478L521.2 101.429V106.297H526.888V108.311H521.2V115.864C521.2 117.816 522.14 118.756 524.008 118.756C524.972 118.756 525.997 118.67 526.9 118.487V120.769C526.144 120.94 525.326 121.147 524.044 121.147C520.395 121.147 518.734 119.109 518.734 116.218V108.311H514.56V106.297H514.548Z" fill="#00BFFF"/>
<path d="M548.102 113.496C548.102 109.152 550.324 105.943 554.901 105.943C558.136 105.943 560.479 107.81 560.821 111.166L558.282 111.459C558.014 109.299 556.793 108.103 554.718 108.103C552.033 108.103 550.666 110.263 550.666 113.472C550.666 116.803 552.033 119.048 554.816 119.048C556.952 119.048 558.087 117.767 558.429 115.546L560.797 115.925C560.333 118.902 558.429 121.232 554.816 121.232C550.385 121.232 548.102 117.877 548.102 113.496Z" fill="#00BFFF"/>
<path d="M564.922 113.594C564.922 108.957 567.632 105.955 571.721 105.955C575.81 105.955 578.52 108.957 578.52 113.594C578.52 118.23 575.81 121.232 571.721 121.232C567.632 121.232 564.922 118.169 564.922 113.594ZM575.896 113.594C575.896 110.177 574.345 108.103 571.721 108.103C569.097 108.103 567.547 110.14 567.547 113.594C567.547 117.047 569.097 119.084 571.721 119.084C574.345 119.084 575.896 117.034 575.896 113.594Z" fill="#00BFFF"/>
<path d="M589.725 105.943C590.921 105.943 592.264 106.261 593.253 107.2C594.217 108.103 594.656 109.506 594.656 111.874V120.891H592.178V112.02C592.178 108.835 590.604 108.14 589.139 108.14C585.844 108.14 585.05 111.202 585.05 113.277V120.891H582.572V106.297H584.904V109.189C585.673 107.347 587.272 105.943 589.725 105.943Z" fill="#00BFFF"/>
<path d="M599.563 116.388L602.077 115.949C602.456 118.084 603.823 119.182 605.983 119.182C607.936 119.182 609.023 118.364 609.023 116.998C609.023 115.534 608.266 114.899 606.691 114.716L604.323 114.448C601.43 114.13 600.063 112.495 600.063 110.25C600.063 107.59 602.163 105.931 605.605 105.931C608.937 105.931 611.183 107.676 611.5 110.36L609.047 110.909C608.73 109.164 607.534 107.932 605.544 107.932C603.615 107.932 602.48 108.725 602.48 110.116C602.48 111.373 603.298 112.129 605.105 112.337L607.436 112.593C610.329 112.91 611.464 114.435 611.464 116.742C611.464 119.511 609.425 121.208 605.861 121.208C602.395 121.232 600.088 119.511 599.563 116.388Z" fill="#00BFFF"/>
<path d="M615.931 106.297H620.106V102.478L622.584 101.429V106.297H628.272V108.311H622.584V115.864C622.584 117.816 623.524 118.756 625.391 118.756C626.355 118.756 627.381 118.67 628.284 118.487V120.769C627.527 120.94 626.709 121.147 625.428 121.147C621.778 121.147 620.118 119.109 620.118 116.218V108.311H615.944V106.297H615.931Z" fill="#00BFFF"/>
<path d="M633.911 118.841H638.586V108.335H634.351V106.297H641.064V118.841H645.995V120.879H633.911V118.841ZM641.32 103.381H637.817V99.8789H641.32V103.381Z" fill="#00BFFF"/>
<path d="M649.718 106.297H653.892V102.478L656.37 101.429V106.297H662.058V108.311H656.37V115.864C656.37 117.816 657.31 118.756 659.177 118.756C660.142 118.756 661.167 118.67 662.07 118.487V120.769C661.314 120.94 660.496 121.147 659.214 121.147C655.565 121.147 653.905 119.109 653.905 116.218V108.311H649.73V106.297H649.718Z" fill="#00BFFF"/>
<path d="M672.079 121.232C670.737 121.232 669.37 120.915 668.344 119.951C667.404 119.048 667.002 117.681 667.002 115.314V106.297H669.541V115.229C669.541 118.413 671.054 119.109 672.58 119.109C675.644 119.109 676.376 116.046 676.376 113.911V106.297H678.854V120.89H676.522V118.121C675.961 119.573 674.24 121.232 672.079 121.232Z" fill="#00BFFF"/>
<path d="M683.516 106.297H687.691V102.478L690.169 101.429V106.297H695.857V108.311H690.169V115.864C690.169 117.816 691.109 118.756 692.976 118.756C693.94 118.756 694.966 118.67 695.869 118.487V120.769C695.112 120.94 694.294 121.147 693.013 121.147C689.363 121.147 687.703 119.109 687.703 116.218V108.311H683.529V106.297H683.516Z" fill="#00BFFF"/>
<path d="M712.97 114.228H702.729C702.729 116.973 704.303 119.036 707.013 119.036C708.942 119.036 710.138 117.84 710.87 116.437L712.97 117.547C711.749 119.963 709.76 121.22 707.013 121.22C702.436 121.22 700.19 118.072 700.19 113.288C700.19 108.823 702.753 105.931 706.842 105.931C711.31 105.931 713.031 109.14 713.031 113.105C713.019 113.472 712.994 113.85 712.97 114.228ZM706.72 107.871C704.059 107.871 702.717 110.055 702.717 112.19H710.455C710.516 109.848 709.345 107.871 706.72 107.871Z" fill="#00BFFF"/>
<path d="M717.84 116.388L720.354 115.949C720.733 118.084 722.1 119.182 724.26 119.182C726.213 119.182 727.3 118.364 727.3 116.998C727.3 115.534 726.543 114.899 724.968 114.716L722.6 114.448C719.707 114.13 718.34 112.495 718.34 110.25C718.34 107.59 720.44 105.931 723.882 105.931C727.214 105.931 729.46 107.676 729.777 110.36L727.324 110.909C727.007 109.164 725.81 107.932 723.821 107.932C721.892 107.932 720.757 108.725 720.757 110.116C720.757 111.373 721.575 112.129 723.381 112.337L725.713 112.593C728.606 112.91 729.741 114.435 729.741 116.742C729.741 119.511 727.702 121.208 724.138 121.208C720.672 121.232 718.365 119.511 717.84 116.388Z" fill="#00BFFF"/>
<path d="M756.558 121.232C755.215 121.232 753.848 120.915 752.822 119.951C751.883 119.048 751.48 117.681 751.48 115.314V106.297H754.019V115.229C754.019 118.413 755.532 119.109 757.058 119.109C760.122 119.109 760.854 116.046 760.854 113.911V106.297H763.332V120.89H761.001V118.121C760.451 119.573 758.718 121.232 756.558 121.232Z" fill="#00BFFF"/>
<path d="M768.532 116.388L771.046 115.949C771.425 118.084 772.792 119.182 774.952 119.182C776.905 119.182 777.991 118.364 777.991 116.998C777.991 115.534 777.235 114.899 775.66 114.716L773.292 114.448C770.399 114.13 769.032 112.495 769.032 110.25C769.032 107.59 771.132 105.931 774.574 105.931C777.906 105.931 780.152 107.676 780.469 110.36L778.016 110.909C777.699 109.164 776.502 107.932 774.513 107.932C772.584 107.932 771.449 108.725 771.449 110.116C771.449 111.373 772.267 112.129 774.073 112.337L776.405 112.593C779.298 112.91 780.433 114.435 780.433 116.742C780.433 119.511 778.394 121.208 774.83 121.208C771.364 121.232 769.057 119.511 768.532 116.388Z" fill="#00BFFF"/>
<path d="M814.378 108.31H808.836V120.891H806.358V108.31H801.891V106.297H806.358V104.686C806.358 101.355 808.226 99.6348 811.851 99.6348C812.693 99.6348 813.401 99.7202 814.39 99.9276V102.112C813.743 102.026 812.962 101.88 811.851 101.88C809.629 101.88 808.848 102.636 808.848 104.857V106.285H814.39V108.31H814.378ZM820.969 118.841H825.644V101.77H821.262V99.7324H828.122V118.841H833.053V120.878H820.969V118.841Z" fill="#00BFFF"/>
<path d="M849.275 120.878H846.675C846.553 120.061 846.467 119.097 846.443 118.218C845.479 120.256 843.904 121.22 841.512 121.22C838.619 121.22 836.605 119.438 836.605 116.937C836.605 115.424 837.301 114.252 838.643 113.496C839.608 112.971 841.182 112.593 843.599 112.3L846.26 111.983V111.727C846.26 109.128 845.296 107.993 843.135 107.993C841.06 107.993 839.84 109.042 839.718 110.885H837.057C837.313 107.761 839.595 105.955 843.306 105.955C847.066 105.955 848.762 107.822 848.762 112.019V115.961C848.787 118.279 848.933 119.804 849.275 120.878ZM842.83 114.252C840.291 114.606 839.241 115.326 839.241 116.79C839.241 118.279 840.267 119.182 841.988 119.182C844.612 119.182 846.309 117.376 846.309 114.509V113.777L842.83 114.252Z" fill="#00BFFF"/>
<path d="M853.681 106.297H857.856V102.478L860.333 101.429V106.297H866.021V108.311H860.333V115.864C860.333 117.816 861.261 118.756 863.141 118.756C864.105 118.756 865.118 118.67 866.034 118.487V120.769C865.277 120.94 864.459 121.147 863.177 121.147C859.528 121.147 857.868 119.109 857.868 116.218V108.311H853.693V106.297H853.681Z" fill="#00BFFF"/>
<path d="M471.351 140.951C472.522 140.951 473.914 141.268 474.939 142.232C475.879 143.135 476.367 144.514 476.367 146.869V155.886H473.889V147.015C473.889 143.831 472.29 143.135 470.74 143.135C467.554 143.135 466.773 146.198 466.773 148.272V155.886H464.295V134.74H466.773V143.965C467.445 142.208 469.251 140.951 471.351 140.951Z" fill="#00BFFF"/>
<path d="M486.205 156.24C484.863 156.24 483.496 155.923 482.47 154.959C481.53 154.056 481.128 152.689 481.128 150.322V141.305H483.667V150.237C483.667 153.421 485.18 154.117 486.706 154.117C489.77 154.117 490.502 151.054 490.502 148.919V141.305H492.98V155.898H490.648V153.128C490.087 154.58 488.366 156.24 486.205 156.24Z" fill="#00BFFF"/>
<path d="M501.915 140.951C503.343 140.951 504.453 141.915 504.954 143.611C505.65 141.915 506.968 140.951 508.396 140.951C510.203 140.951 511.838 142.208 511.838 145.295V155.886H509.36V145.503C509.36 143.636 508.481 143.135 507.639 143.135C505.918 143.135 505.308 144.392 505.308 146.235V155.886H502.891V145.503C502.891 143.721 502.098 143.135 501.17 143.135C499.473 143.135 498.887 144.478 498.887 146.235V155.886H496.41V141.305H498.741V143.55C499.315 141.976 500.45 140.951 501.915 140.951Z" fill="#00BFFF"/>
<path d="M527.035 155.886H524.435C524.313 155.068 524.227 154.104 524.203 153.226C523.239 155.264 521.664 156.228 519.272 156.228C516.379 156.228 514.365 154.446 514.365 151.945C514.365 150.432 515.061 149.26 516.403 148.504C517.367 147.979 518.942 147.601 521.359 147.308L524.02 146.991V146.734C524.02 144.135 523.056 143.001 520.895 143.001C518.82 143.001 517.599 144.05 517.477 145.892H514.816C515.085 142.769 517.355 140.963 521.066 140.963C524.825 140.963 526.522 142.83 526.522 147.027V150.969C526.546 153.287 526.693 154.812 527.035 155.886ZM520.59 149.26C518.051 149.614 517.001 150.334 517.001 151.798C517.001 153.287 518.027 154.19 519.748 154.19C522.372 154.19 524.069 152.384 524.069 149.516V148.784L520.59 149.26Z" fill="#00BFFF"/>
<path d="M539.033 140.951C540.229 140.951 541.572 141.268 542.561 142.208C543.525 143.111 543.964 144.514 543.964 146.881V155.899H541.487V147.028C541.487 143.843 539.912 143.148 538.447 143.148C535.152 143.148 534.358 146.21 534.358 148.285V155.899H531.88V141.305H534.212V144.197C534.981 142.354 536.58 140.951 539.033 140.951Z" fill="#00BFFF"/>
<path d="M548.871 151.396L551.386 150.956C551.764 153.092 553.131 154.19 555.291 154.19C557.244 154.19 558.331 153.372 558.331 152.006C558.331 150.541 557.574 149.907 555.999 149.724L553.631 149.455C550.739 149.138 549.372 147.503 549.372 145.258C549.372 142.598 551.471 140.938 554.913 140.938C558.245 140.938 560.491 142.683 560.809 145.368L558.355 145.917C558.038 144.172 556.842 142.94 554.852 142.94C552.924 142.94 551.788 143.733 551.788 145.124C551.788 146.381 552.606 147.137 554.413 147.345L556.744 147.601C559.637 147.918 560.772 149.443 560.772 151.749C560.772 154.519 558.734 156.215 555.169 156.215C551.703 156.24 549.396 154.519 548.871 151.396Z" fill="#00BFFF"/>
<path d="M573.65 155.886H569.768V152.152H573.65V155.886Z" fill="#00BFFF"/>
<path d="M602.529 135.179V153.555H612.453V155.886H599.819V135.167H602.529V135.179Z" fill="#00BFFF"/>
<path d="M628.479 149.236H618.238C618.238 151.981 619.813 154.043 622.523 154.043C624.451 154.043 625.647 152.848 626.38 151.444L628.479 152.555C627.259 154.971 625.269 156.228 622.523 156.228C617.945 156.228 615.699 153.079 615.699 148.296C615.699 143.83 618.263 140.938 622.352 140.938C626.819 140.938 628.54 144.148 628.54 148.113C628.54 148.479 628.504 148.858 628.479 149.236ZM622.23 142.879C619.569 142.879 618.226 145.063 618.226 147.198H625.965C626.026 144.855 624.866 142.879 622.23 142.879Z" fill="#00BFFF"/>
<path d="M632.825 141.305H636.999V137.486L639.477 136.437V141.305H645.165V143.318H639.477V150.871C639.477 152.824 640.417 153.763 642.284 153.763C643.249 153.763 644.274 153.678 645.177 153.495V155.777C644.42 155.948 643.603 156.155 642.321 156.155C638.671 156.155 637.011 154.117 637.011 151.225V143.318H632.837V141.305H632.825Z" fill="#00BFFF"/>
<path d="M654.417 141.891C656.053 141.195 656.37 140.524 656.37 138.913H654.234V135.18H658.115V138.913C658.115 141.159 657.42 142.33 655.162 143.233L654.417 141.891Z" fill="#00BFFF"/>
<path d="M667.148 151.396L669.662 150.956C670.041 153.092 671.408 154.19 673.568 154.19C675.521 154.19 676.608 153.372 676.608 152.006C676.608 150.541 675.851 149.907 674.276 149.724L671.908 149.455C669.016 149.138 667.648 147.503 667.648 145.258C667.648 142.598 669.748 140.938 673.19 140.938C676.522 140.938 678.768 142.683 679.085 145.368L676.632 145.917C676.315 144.172 675.119 142.94 673.129 142.94C671.2 142.94 670.065 143.733 670.065 145.124C670.065 146.381 670.883 147.137 672.689 147.345L675.021 147.601C677.914 147.918 679.049 149.443 679.049 151.749C679.049 154.519 677.01 156.215 673.446 156.215C669.98 156.24 667.673 154.519 667.148 151.396Z" fill="#00BFFF"/>
<path d="M700.41 141.305H704.584V137.486L707.062 136.437V141.305H712.75V143.318H707.062V150.871C707.062 152.824 708.002 153.763 709.869 153.763C710.834 153.763 711.859 153.678 712.762 153.495V155.777C712.005 155.948 711.188 156.155 709.906 156.155C706.256 156.155 704.596 154.117 704.596 151.225V143.318H700.422V141.305H700.41Z" fill="#00BFFF"/>
<path d="M729.802 155.886H727.202C727.08 155.068 726.994 154.104 726.97 153.226C726.006 155.264 724.431 156.228 722.039 156.228C719.146 156.228 717.132 154.446 717.132 151.945C717.132 150.432 717.828 149.26 719.17 148.504C720.135 147.979 721.709 147.601 724.126 147.308L726.787 146.991V146.734C726.787 144.135 725.823 143.001 723.662 143.001C721.587 143.001 720.367 144.05 720.244 145.892H717.584C717.852 142.769 720.122 140.963 723.833 140.963C727.593 140.963 729.289 142.83 729.289 147.027V150.969C729.301 153.287 729.448 154.812 729.802 155.886ZM723.357 149.26C720.818 149.614 719.768 150.334 719.768 151.798C719.768 153.287 720.794 154.19 722.515 154.19C725.139 154.19 726.836 152.384 726.836 149.516V148.784L723.357 149.26Z" fill="#00BFFF"/>
<path d="M740.189 148.736L737.528 151.42V155.886H735.05V134.74H737.528V148.48L744.071 141.305H747.305L741.959 146.93L747.647 155.886H744.583L740.189 148.736Z" fill="#00BFFF"/>
<path d="M763.661 149.236H753.42C753.42 151.981 754.995 154.043 757.705 154.043C759.633 154.043 760.83 152.848 761.562 151.444L763.661 152.555C762.441 154.971 760.451 156.228 757.705 156.228C753.128 156.228 750.882 153.079 750.882 148.296C750.882 143.83 753.445 140.938 757.534 140.938C762.001 140.938 763.722 144.148 763.722 148.113C763.71 148.479 763.686 148.858 763.661 149.236ZM757.412 142.879C754.751 142.879 753.408 145.063 753.408 147.198H761.147C761.208 144.855 760.036 142.879 757.412 142.879Z" fill="#00BFFF"/>
<path d="M797.387 155.886H794.787C794.665 155.068 794.579 154.104 794.555 153.226C793.591 155.264 792.016 156.228 789.624 156.228C786.731 156.228 784.717 154.446 784.717 151.945C784.717 150.432 785.413 149.26 786.755 148.504C787.72 147.979 789.294 147.601 791.711 147.308L794.372 146.991V146.734C794.372 144.135 793.408 143.001 791.247 143.001C789.172 143.001 787.952 144.05 787.829 145.892H785.169C785.437 142.769 787.707 140.963 791.418 140.963C795.177 140.963 796.874 142.83 796.874 147.027V150.969C796.898 153.287 797.045 154.812 797.387 155.886ZM790.942 149.26C788.403 149.614 787.353 150.334 787.353 151.798C787.353 153.287 788.379 154.19 790.1 154.19C792.724 154.19 794.421 152.384 794.421 149.516V148.784L790.942 149.26Z" fill="#00BFFF"/>
<path d="M819.773 153.849H824.448V136.778H820.066V134.74H826.926V153.849H831.857V155.886H819.773V153.849Z" fill="#00BFFF"/>
<path d="M835.274 148.59C835.274 143.953 837.984 140.951 842.073 140.951C846.162 140.951 848.872 143.953 848.872 148.59C848.872 153.226 846.162 156.228 842.073 156.228C837.984 156.24 835.274 153.178 835.274 148.59ZM846.248 148.59C846.248 145.173 844.698 143.099 842.073 143.099C839.449 143.099 837.899 145.136 837.899 148.59C837.899 152.043 839.449 154.081 842.073 154.081C844.698 154.081 846.248 152.043 846.248 148.59Z" fill="#00BFFF"/>
<path d="M852.168 148.59C852.168 143.953 854.877 140.951 858.966 140.951C863.055 140.951 865.765 143.953 865.765 148.59C865.765 153.226 863.055 156.228 858.966 156.228C854.877 156.228 852.168 153.178 852.168 148.59ZM863.141 148.59C863.141 145.173 861.591 143.099 858.966 143.099C856.342 143.099 854.792 145.136 854.792 148.59C854.792 152.043 856.342 154.081 858.966 154.081C861.591 154.081 863.141 152.043 863.141 148.59Z" fill="#00BFFF"/>
<path d="M875.371 148.736L872.71 151.42V155.886H870.233V134.74H872.71V148.48L879.253 141.305H882.488L877.141 146.93L882.829 155.886H879.766L875.371 148.736Z" fill="#00BFFF"/>
<path d="M476.343 190.894H473.743C473.621 190.076 473.535 189.112 473.511 188.234C472.547 190.271 470.972 191.235 468.58 191.235C465.687 191.235 463.673 189.454 463.673 186.953C463.673 185.439 464.369 184.268 465.711 183.512C466.676 182.987 468.25 182.609 470.667 182.316L473.328 181.998V181.742C473.328 179.143 472.364 178.008 470.203 178.008C468.128 178.008 466.907 179.058 466.785 180.9H464.124C464.393 177.777 466.663 175.971 470.374 175.971C474.133 175.971 475.83 177.838 475.83 182.035V185.976C475.855 188.295 476.001 189.82 476.343 190.894ZM469.898 184.268C467.359 184.622 466.309 185.342 466.309 186.806C466.309 188.295 467.335 189.198 469.056 189.198C471.68 189.198 473.377 187.392 473.377 184.524V183.792L469.898 184.268Z" fill="#00BFFF"/>
<path d="M480.749 176.313H484.923V172.494L487.401 171.444V176.313H493.089V178.326H487.401V185.879C487.401 187.832 488.341 188.771 490.209 188.771C491.173 188.771 492.198 188.686 493.102 188.503V190.784C492.345 190.955 491.527 191.163 490.245 191.163C486.596 191.163 484.936 189.125 484.936 186.233V178.326H480.761V176.313H480.749Z" fill="#00BFFF"/>
<path d="M514.548 176.313H518.722V172.494L521.2 171.444V176.313H526.888V178.326H521.2V185.879C521.2 187.832 522.14 188.771 524.008 188.771C524.972 188.771 525.997 188.686 526.9 188.503V190.784C526.144 190.955 525.326 191.163 524.044 191.163C520.395 191.163 518.734 189.125 518.734 186.233V178.326H514.56V176.313H514.548Z" fill="#00BFFF"/>
<path d="M538.948 175.959C540.119 175.959 541.511 176.276 542.536 177.24C543.476 178.143 543.964 179.522 543.964 181.877V190.894H541.487V182.023C541.487 178.839 539.875 178.143 538.337 178.143C535.152 178.143 534.37 181.206 534.37 183.28V190.894H531.893V169.748H534.37V178.973C535.03 177.216 536.848 175.959 538.948 175.959Z" fill="#00BFFF"/>
<path d="M549.42 188.856H554.095V178.351H549.86V176.313H556.573V188.856H561.504V190.894H549.42V188.856ZM556.83 173.397H553.326V169.895H556.83V173.397Z" fill="#00BFFF"/>
<path d="M565.764 186.403L568.279 185.964C568.657 188.099 570.024 189.198 572.185 189.198C574.138 189.198 575.224 188.38 575.224 187.013C575.224 185.549 574.467 184.915 572.893 184.732L570.525 184.463C567.632 184.146 566.265 182.511 566.265 180.266C566.265 177.606 568.364 175.946 571.806 175.946C575.139 175.946 577.385 177.691 577.702 180.376L575.249 180.925C574.931 179.18 573.735 177.947 571.745 177.947C569.817 177.947 568.682 178.741 568.682 180.132C568.682 181.388 569.499 182.145 571.306 182.352L573.637 182.609C576.53 182.926 577.665 184.451 577.665 186.757C577.665 189.527 575.627 191.223 572.063 191.223C568.596 191.248 566.289 189.527 565.764 186.403Z" fill="#00BFFF"/>
<path d="M611.61 178.326H606.069V190.906H603.591V178.326H599.124V176.313H603.591V174.702C603.591 171.371 605.458 169.65 609.084 169.65C609.926 169.65 610.634 169.736 611.623 169.943V172.127C610.976 172.042 610.194 171.896 609.084 171.896C606.862 171.896 606.081 172.652 606.081 174.873V176.3H611.623V178.326H611.61Z" fill="#00BFFF"/>
<path d="M628.479 184.244H618.238C618.238 186.989 619.813 189.051 622.523 189.051C624.451 189.051 625.647 187.855 626.38 186.452L628.479 187.563C627.259 189.979 625.269 191.235 622.523 191.235C617.945 191.235 615.699 188.087 615.699 183.304C615.699 178.838 618.263 175.946 622.352 175.946C626.819 175.946 628.54 179.155 628.54 183.121C628.54 183.487 628.504 183.865 628.479 184.244ZM622.23 177.886C619.569 177.886 618.226 180.071 618.226 182.206H625.965C626.026 179.863 624.866 177.886 622.23 177.886Z" fill="#00BFFF"/>
<path d="M633.911 188.856H638.586V171.786H634.204V169.748H641.064V188.856H645.995V190.894H633.911V188.856Z" fill="#00BFFF"/>
<path d="M650.804 188.856H655.479V171.786H651.097V169.748H657.957V188.856H662.888V190.894H650.804V188.856Z" fill="#00BFFF"/>
<path d="M666.306 183.597C666.306 178.961 669.015 175.959 673.104 175.959C677.193 175.959 679.903 178.961 679.903 183.597C679.903 188.234 677.193 191.236 673.104 191.236C669.015 191.248 666.306 188.185 666.306 183.597ZM677.279 183.597C677.279 180.181 675.729 178.107 673.104 178.107C670.48 178.107 668.93 180.144 668.93 183.597C668.93 187.051 670.48 189.088 673.104 189.088C675.729 189.088 677.279 187.051 677.279 183.597Z" fill="#00BFFF"/>
<path d="M684.358 176.312L685.848 186.318L686.141 188.392H686.348C686.47 187.721 686.556 187.258 686.812 185.94L688.704 176.312H691.243L693.135 185.94C693.403 187.258 693.489 187.721 693.598 188.392H693.806L694.099 186.318L695.588 176.312H698.188L695.356 190.906H692.231L690.339 181.486C690.217 180.9 690.107 179.68 690.071 179.095H689.863C689.839 179.68 689.717 180.9 689.607 181.486L687.715 190.906H684.59L681.759 176.312H684.358Z" fill="#00BFFF"/>
<path d="M724.809 175.959C725.981 175.959 727.373 176.276 728.398 177.24C729.338 178.143 729.826 179.522 729.826 181.877V190.894H727.348V182.023C727.348 178.839 725.737 178.143 724.199 178.143C721.013 178.143 720.232 181.206 720.232 183.28V190.894H717.754V169.748H720.232V178.973C720.904 177.216 722.71 175.959 724.809 175.959Z" fill="#00BFFF"/>
<path d="M739.664 191.248C738.321 191.248 736.954 190.93 735.929 189.966C734.989 189.064 734.586 187.697 734.586 185.33V176.312H737.125V185.244C737.125 188.429 738.639 189.125 740.165 189.125C743.228 189.125 743.961 186.062 743.961 183.927V176.312H746.439V190.906H744.107V188.136C743.546 189.588 741.825 191.248 739.664 191.248Z" fill="#00BFFF"/>
<path d="M755.361 175.959C756.789 175.959 757.9 176.923 758.4 178.619C759.096 176.923 760.414 175.959 761.843 175.959C763.649 175.959 765.285 177.216 765.285 180.303V190.894H762.807V180.51C762.807 178.643 761.928 178.143 761.086 178.143C759.365 178.143 758.754 179.4 758.754 181.242V190.894H756.338V180.51C756.338 178.729 755.544 178.143 754.617 178.143C752.92 178.143 752.334 179.485 752.334 181.242V190.894H749.856V176.301H752.188V178.546C752.773 176.984 753.909 175.959 755.361 175.959Z" fill="#00BFFF"/>
<path d="M780.493 190.894H777.894C777.771 190.076 777.686 189.112 777.662 188.234C776.697 190.271 775.123 191.235 772.73 191.235C769.838 191.235 767.823 189.454 767.823 186.953C767.823 185.439 768.519 184.268 769.862 183.512C770.826 182.987 772.401 182.609 774.818 182.316L777.479 181.998V181.742C777.479 179.143 776.514 178.008 774.354 178.008C772.279 178.008 771.058 179.058 770.936 180.9H768.275C768.544 177.777 770.814 175.971 774.525 175.971C778.284 175.971 779.981 177.838 779.981 182.035V185.976C779.993 188.295 780.139 189.82 780.493 190.894ZM774.049 184.268C771.51 184.622 770.46 185.342 770.46 186.806C770.46 188.295 771.485 189.198 773.206 189.198C775.831 189.198 777.527 187.392 777.527 184.524V183.792L774.049 184.268Z" fill="#00BFFF"/>
<path d="M792.492 175.959C793.688 175.959 795.031 176.276 796.02 177.216C796.984 178.119 797.423 179.522 797.423 181.889V190.906H794.946V182.036C794.946 178.851 793.371 178.155 791.906 178.155C788.611 178.155 787.817 181.218 787.817 183.292V190.906H785.339V176.313H787.671V179.205C788.427 177.362 790.039 175.959 792.492 175.959Z" fill="#00BFFF"/>
<path d="M810.203 190.894H806.322V187.16H810.203V190.894Z" fill="#00BFFF"/>
<path d="M834.371 170.188H837.081L837.777 184.891C837.899 187.075 837.899 188.124 837.899 188.6H838.192C838.216 187.929 838.338 186.758 838.777 184.696L840.791 175.3H843.355L845.369 184.696C845.808 186.77 845.918 187.929 845.955 188.6H846.248C846.248 188.137 846.248 187.087 846.37 184.891L847.065 170.188H849.775L848.201 190.906H844.636L842.769 182.011C842.39 180.169 842.268 179.058 842.22 177.863H841.927C841.866 179.058 841.756 180.169 841.377 182.011L839.51 190.906H835.946L834.371 170.188Z" fill="#00BFFF"/>
<path d="M865.033 184.244H854.792C854.792 186.989 856.366 189.051 859.076 189.051C861.005 189.051 862.201 187.855 862.933 186.452L865.033 187.563C863.812 189.979 861.823 191.235 859.076 191.235C854.499 191.235 852.241 188.087 852.241 183.304C852.241 178.838 854.816 175.946 858.893 175.946C863.361 175.946 865.082 179.155 865.082 183.121C865.094 183.487 865.069 183.865 865.033 184.244ZM858.795 177.886C856.135 177.886 854.792 180.071 854.792 182.206H862.531C862.592 179.863 861.42 177.886 858.795 177.886Z" fill="#00BFFF"/>
<path d="M464.381 221.41L466.895 220.971C467.274 223.106 468.641 224.204 470.801 224.204C472.754 224.204 473.841 223.387 473.841 222.02C473.841 220.556 473.084 219.922 471.509 219.739L469.141 219.47C466.248 219.153 464.881 217.518 464.881 215.273C464.881 212.613 466.981 210.953 470.423 210.953C473.755 210.953 476.001 212.698 476.318 215.382L473.865 215.932C473.548 214.187 472.351 212.954 470.362 212.954C468.433 212.954 467.298 213.747 467.298 215.138C467.298 216.395 468.116 217.152 469.922 217.359L472.254 217.615C475.147 217.933 476.282 219.458 476.282 221.764C476.282 224.534 474.243 226.23 470.679 226.23C467.213 226.254 464.906 224.534 464.381 221.41Z" fill="#00BFFF"/>
<path d="M493.297 219.25H483.056C483.056 221.996 484.631 224.058 487.341 224.058C489.269 224.058 490.465 222.862 491.198 221.459L493.297 222.569C492.077 224.985 490.087 226.242 487.341 226.242C482.763 226.242 480.505 223.094 480.505 218.311C480.505 213.845 483.068 210.953 487.157 210.953C491.625 210.953 493.346 214.162 493.346 218.128C493.358 218.494 493.334 218.872 493.297 219.25ZM487.06 212.893C484.399 212.893 483.056 215.077 483.056 217.213H490.795C490.856 214.87 489.684 212.893 487.06 212.893Z" fill="#00BFFF"/>
<path d="M508.042 211.026C509.092 211.026 510.056 211.148 510.666 211.319V213.625C510.08 213.479 509.006 213.333 507.957 213.333C504.453 213.333 501.658 215.724 501.658 220.483V225.913H499.18V211.319H501.634V215.114C502.61 212.808 505.003 211.026 508.042 211.026Z" fill="#00BFFF"/>
<path d="M513.815 211.319H516.415L520.236 221.301C520.529 222.033 520.785 222.765 520.968 223.375H521.09C521.237 222.765 521.444 222.033 521.737 221.301L525.68 211.319H528.219L522.347 225.913H519.662L513.815 211.319Z" fill="#00BFFF"/>
<path d="M543.989 219.25H533.748C533.748 221.996 535.322 224.058 538.032 224.058C539.961 224.058 541.157 222.862 541.889 221.459L543.989 222.569C542.768 224.985 540.779 226.242 538.032 226.242C533.455 226.242 531.197 223.094 531.197 218.311C531.197 213.845 533.76 210.953 537.849 210.953C542.317 210.953 544.038 214.162 544.038 218.128C544.05 218.494 544.025 218.872 543.989 219.25ZM537.751 212.893C535.091 212.893 533.748 215.077 533.748 217.213H541.486C541.548 214.87 540.376 212.893 537.751 212.893Z" fill="#00BFFF"/>
<path d="M577.727 225.901H575.127C575.005 225.083 574.919 224.119 574.895 223.241C573.93 225.278 572.356 226.242 569.964 226.242C567.071 226.242 565.057 224.461 565.057 221.959C565.057 220.446 565.752 219.275 567.095 218.518C568.059 217.994 569.634 217.615 572.051 217.323L574.712 217.005V216.749C574.712 214.15 573.747 213.015 571.587 213.015C569.512 213.015 568.291 214.065 568.169 215.907H565.508C565.777 212.783 568.047 210.978 571.758 210.978C575.517 210.978 577.214 212.844 577.214 217.042V220.983C577.238 223.302 577.385 224.827 577.727 225.901ZM571.282 219.287C568.743 219.641 567.693 220.361 567.693 221.825C567.693 223.314 568.719 224.217 570.44 224.217C573.064 224.217 574.76 222.411 574.76 219.543V218.811L571.282 219.287Z" fill="#00BFFF"/>
<path d="M598.306 211.319H600.906L604.726 221.301C605.019 222.033 605.275 222.765 605.458 223.375H605.581C605.727 222.765 605.935 222.033 606.227 221.301L610.17 211.319H612.709L606.838 225.913H604.152L598.306 211.319Z" fill="#00BFFF"/>
<path d="M628.479 219.25H618.238C618.238 221.996 619.813 224.058 622.523 224.058C624.451 224.058 625.647 222.862 626.38 221.459L628.479 222.569C627.259 224.985 625.269 226.242 622.523 226.242C617.945 226.242 615.699 223.094 615.699 218.311C615.699 213.845 618.263 210.953 622.352 210.953C626.819 210.953 628.54 214.162 628.54 218.128C628.54 218.494 628.504 218.872 628.479 219.25ZM622.23 212.893C619.569 212.893 618.226 215.077 618.226 217.213H625.965C626.026 214.87 624.866 212.893 622.23 212.893Z" fill="#00BFFF"/>
<path d="M643.212 211.026C644.262 211.026 645.226 211.148 645.836 211.319V213.625C645.25 213.479 644.176 213.333 643.126 213.333C639.623 213.333 636.828 215.724 636.828 220.483V225.913H634.35V211.319H636.804V215.114C637.792 212.808 640.185 211.026 643.212 211.026Z" fill="#00BFFF"/>
<path d="M656.431 223.021L660.483 211.319H663.144L657.31 226.84C655.967 230.55 654.222 231.77 651.768 231.77C651.329 231.77 650.89 231.745 650.426 231.648V229.464C650.804 229.488 651.158 229.525 651.475 229.525C653.257 229.525 654.161 228.732 654.832 226.816L655.21 225.742L649.522 211.332H652.33L656.431 223.021Z" fill="#00BFFF"/>
<path d="M684.041 221.41L686.556 220.971C686.934 223.106 688.301 224.204 690.462 224.204C692.415 224.204 693.501 223.387 693.501 222.02C693.501 220.556 692.744 219.922 691.17 219.739L688.802 219.47C685.909 219.153 684.542 217.518 684.542 215.273C684.542 212.613 686.641 210.953 690.083 210.953C693.415 210.953 695.661 212.698 695.979 215.382L693.525 215.932C693.208 214.187 692.012 212.954 690.022 212.954C688.094 212.954 686.958 213.747 686.958 215.138C686.958 216.395 687.776 217.152 689.583 217.359L691.914 217.615C694.807 217.933 695.942 219.458 695.942 221.764C695.942 224.534 693.904 226.23 690.34 226.23C686.873 226.254 684.566 224.534 684.041 221.41Z" fill="#00BFFF"/>
<path d="M703.449 214.029C704.206 212.418 705.963 210.966 708.026 210.966C711.847 210.966 714.093 214.151 714.093 218.58C714.093 223.131 711.761 226.255 707.88 226.255C706.073 226.255 704.267 225.145 703.595 223.595V231.587H701.117V211.307H703.449V214.029ZM707.477 224.071C710.016 224.071 711.48 221.911 711.48 218.58C711.48 215.346 710.138 213.15 707.574 213.15C705.121 213.15 703.546 215.102 703.546 218.226V218.922C703.534 222.021 705.023 224.071 707.477 224.071Z" fill="#00BFFF"/>
<path d="M729.863 219.25H719.622C719.622 221.996 721.197 224.058 723.906 224.058C725.835 224.058 727.031 222.862 727.763 221.459L729.863 222.569C728.642 224.985 726.653 226.242 723.906 226.242C719.329 226.242 717.071 223.094 717.071 218.311C717.071 213.845 719.634 210.953 723.723 210.953C728.191 210.953 729.912 214.162 729.912 218.128C729.924 218.494 729.887 218.872 729.863 219.25ZM723.613 212.893C720.952 212.893 719.61 215.077 719.61 217.213H727.348C727.409 214.87 726.238 212.893 723.613 212.893Z" fill="#00BFFF"/>
<path d="M733.976 218.519C733.976 214.175 736.198 210.966 740.775 210.966C744.01 210.966 746.353 212.833 746.695 216.188L744.156 216.481C743.888 214.321 742.667 213.126 740.592 213.126C737.907 213.126 736.539 215.285 736.539 218.494C736.539 221.826 737.907 224.071 740.69 224.071C742.826 224.071 743.961 222.79 744.303 220.569L746.671 220.947C746.207 223.924 744.303 226.255 740.69 226.255C736.247 226.255 733.976 222.899 733.976 218.519Z" fill="#00BFFF"/>
<path d="M752.188 223.863H756.863V213.357H752.627V211.32H759.34V223.863H764.272V225.901H752.188V223.863ZM759.597 208.403H756.094V204.901H759.597V208.403Z" fill="#00BFFF"/>
<path d="M780.579 213.333H775.038V225.913H772.56V213.333H768.092V211.32H772.56V209.709C772.56 206.378 774.427 204.657 778.052 204.657C778.895 204.657 779.603 204.743 780.591 204.95V207.134C779.944 207.049 779.163 206.902 778.052 206.902C775.831 206.902 775.05 207.659 775.05 209.88V211.307H780.591V213.333H780.579ZM787.183 223.863H791.857V213.357H787.622V211.32H794.335V223.863H799.267V225.901H787.183V223.863ZM794.592 208.403H791.089V204.901H794.592V208.403Z" fill="#00BFFF"/>
<path d="M802.757 218.519C802.757 214.175 804.979 210.966 809.556 210.966C812.791 210.966 815.134 212.833 815.476 216.188L812.937 216.481C812.669 214.321 811.448 213.126 809.373 213.126C806.688 213.126 805.321 215.285 805.321 218.494C805.321 221.826 806.688 224.071 809.471 224.071C811.607 224.071 812.742 222.79 813.084 220.569L815.452 220.947C814.988 223.924 813.084 226.255 809.471 226.255C805.04 226.255 802.757 222.899 802.757 218.519Z" fill="#00BFFF"/>
<path d="M476.44 248.341H470.899V260.921H468.421V248.341H463.954V246.327H468.421V244.717C468.421 241.385 470.289 239.665 473.914 239.665C474.756 239.665 475.464 239.75 476.453 239.958V242.142C475.806 242.057 475.024 241.91 473.914 241.91C471.692 241.91 470.911 242.667 470.911 244.887V246.315H476.453V248.341H476.44Z" fill="#00BFFF"/>
<path d="M486.205 261.262C484.863 261.262 483.496 260.945 482.47 259.981C481.53 259.078 481.128 257.712 481.128 255.344V246.327H483.667V255.259C483.667 258.444 485.18 259.139 486.706 259.139C489.77 259.139 490.502 256.077 490.502 253.941V246.327H492.98V260.909H490.648V258.139C490.087 259.603 488.366 261.262 486.205 261.262Z" fill="#00BFFF"/>
<path d="M505.235 245.974C506.431 245.974 507.773 246.291 508.762 247.23C509.726 248.133 510.166 249.537 510.166 251.892V260.909H507.688V252.038C507.688 248.853 506.113 248.158 504.649 248.158C501.353 248.158 500.56 251.22 500.56 253.295V260.909H498.082V246.328H500.413V249.219C501.182 247.377 502.781 245.974 505.235 245.974Z" fill="#00BFFF"/>
<path d="M514.316 253.527C514.316 249.183 516.537 245.974 521.115 245.974C524.349 245.974 526.693 247.841 527.035 251.196L524.496 251.489C524.227 249.329 523.007 248.133 520.932 248.133C518.246 248.133 516.879 250.293 516.879 253.502C516.879 256.833 518.246 259.079 521.029 259.079C523.165 259.079 524.301 257.797 524.642 255.577L527.01 255.955C526.546 258.932 524.642 261.263 521.029 261.263C516.586 261.263 514.316 257.907 514.316 253.527Z" fill="#00BFFF"/>
<path d="M531.441 246.328H535.615V242.508L538.093 241.459V246.328H543.781V248.341H538.093V255.894C538.093 257.846 539.033 258.786 540.901 258.786C541.865 258.786 542.89 258.7 543.793 258.517V260.799C543.037 260.97 542.219 261.177 540.937 261.177C537.288 261.177 535.628 259.14 535.628 256.248V248.341H531.453V246.328H531.441Z" fill="#00BFFF"/>
<path d="M549.42 258.871H554.095V248.365H549.86V246.327H556.573V258.871H561.504V260.909H549.42V258.871ZM556.83 243.411H553.326V239.909H556.83V243.411Z" fill="#00BFFF"/>
<path d="M564.922 253.612C564.922 248.975 567.632 245.974 571.721 245.974C575.81 245.974 578.52 248.975 578.52 253.612C578.52 258.249 575.81 261.251 571.721 261.251C567.632 261.263 564.922 258.2 564.922 253.612ZM575.895 253.612C575.895 250.196 574.345 248.133 571.721 248.133C569.097 248.133 567.546 250.171 567.546 253.612C567.546 257.053 569.097 259.103 571.721 259.103C574.345 259.103 575.895 257.065 575.895 253.612Z" fill="#00BFFF"/>
<path d="M589.725 245.974C590.921 245.974 592.264 246.291 593.253 247.23C594.217 248.133 594.656 249.537 594.656 251.892V260.909H592.178V252.038C592.178 248.853 590.604 248.158 589.139 248.158C585.844 248.158 585.05 251.22 585.05 253.295V260.909H582.572V246.328H584.904V249.219C585.673 247.377 587.272 245.974 589.725 245.974Z" fill="#00BFFF"/>
<path d="M615.614 253.612C615.614 248.975 618.324 245.974 622.413 245.974C626.502 245.974 629.212 248.975 629.212 253.612C629.212 258.249 626.502 261.251 622.413 261.251C618.324 261.263 615.614 258.2 615.614 253.612ZM626.587 253.612C626.587 250.196 625.037 248.133 622.413 248.133C619.789 248.133 618.238 250.171 618.238 253.612C618.238 257.053 619.789 259.103 622.413 259.103C625.037 259.103 626.587 257.065 626.587 253.612Z" fill="#00BFFF"/>
<path d="M640.417 245.974C641.613 245.974 642.956 246.291 643.944 247.23C644.909 248.133 645.348 249.537 645.348 251.892V260.909H642.87V252.038C642.87 248.853 641.296 248.158 639.831 248.158C636.535 248.158 635.742 251.22 635.742 253.295V260.909H633.264V246.328H635.595V249.219C636.352 247.377 637.963 245.974 640.417 245.974Z" fill="#00BFFF"/>
<path d="M666.623 246.328H670.798V242.508L673.275 241.459V246.328H678.963V248.341H673.275V255.894C673.275 257.846 674.215 258.786 676.083 258.786C677.047 258.786 678.072 258.7 678.976 258.517V260.799C678.219 260.97 677.401 261.177 676.119 261.177C672.47 261.177 670.81 259.14 670.81 256.248V248.341H666.635V246.328H666.623Z" fill="#00BFFF"/>
<path d="M691.023 245.974C692.195 245.974 693.586 246.291 694.612 247.255C695.552 248.158 696.04 249.524 696.04 251.891V260.909H693.562V252.038C693.562 248.853 691.951 248.158 690.413 248.158C687.227 248.158 686.446 251.22 686.446 253.295V260.909H683.968V239.763H686.446V248.987C687.105 247.23 688.912 245.974 691.023 245.974Z" fill="#00BFFF"/>
<path d="M712.97 254.259H702.729C702.729 257.004 704.303 259.066 707.013 259.066C708.942 259.066 710.138 257.871 710.87 256.467L712.97 257.578C711.749 259.994 709.76 261.251 707.013 261.251C702.436 261.251 700.19 258.102 700.19 253.319C700.19 248.853 702.753 245.974 706.842 245.974C711.31 245.974 713.031 249.183 713.031 253.148C713.019 253.502 712.994 253.881 712.97 254.259ZM706.72 247.902C704.059 247.902 702.717 250.086 702.717 252.221H710.455C710.516 249.878 709.345 247.902 706.72 247.902Z" fill="#00BFFF"/>
<path d="M734.733 256.418L737.247 255.979C737.626 258.114 738.993 259.212 741.153 259.212C743.106 259.212 744.193 258.395 744.193 257.028C744.193 255.564 743.436 254.929 741.861 254.746L739.493 254.478C736.601 254.161 735.233 252.526 735.233 250.28C735.233 247.62 737.333 245.961 740.775 245.961C744.107 245.961 746.353 247.706 746.671 250.39L744.217 250.939C743.9 249.194 742.704 247.962 740.714 247.962C738.785 247.962 737.65 248.755 737.65 250.146C737.65 251.403 738.468 252.16 740.275 252.367L742.606 252.623C745.499 252.94 746.634 254.466 746.634 256.772C746.634 259.542 744.595 261.238 741.031 261.238C737.565 261.262 735.258 259.542 734.733 256.418Z" fill="#00BFFF"/>
<path d="M750.87 253.527C750.87 249.183 753.091 245.974 757.668 245.974C760.903 245.974 763.246 247.841 763.588 251.196L761.049 251.489C760.781 249.329 759.56 248.133 757.485 248.133C754.8 248.133 753.433 250.293 753.433 253.502C753.433 256.833 754.8 259.079 757.583 259.079C759.719 259.079 760.854 257.797 761.196 255.577L763.564 255.955C763.1 258.932 761.196 261.263 757.583 261.263C753.152 261.263 750.87 257.907 750.87 253.527Z" fill="#00BFFF"/>
<path d="M778.394 246.034C779.444 246.034 780.408 246.156 781.018 246.327V248.633C780.433 248.487 779.358 248.34 778.309 248.34C774.806 248.34 772.01 250.732 772.01 255.491V260.921H769.533V246.339H771.986V250.134C772.962 247.816 775.355 246.034 778.394 246.034Z" fill="#00BFFF"/>
<path d="M797.448 254.259H787.207C787.207 257.004 788.781 259.066 791.491 259.066C793.42 259.066 794.616 257.871 795.348 256.467L797.448 257.578C796.227 259.994 794.238 261.251 791.491 261.251C786.914 261.251 784.668 258.102 784.668 253.319C784.668 248.853 787.231 245.974 791.32 245.974C795.788 245.974 797.509 249.183 797.509 253.148C797.509 253.502 797.484 253.881 797.448 254.259ZM791.198 247.902C788.537 247.902 787.195 250.086 787.195 252.221H794.933C794.994 249.878 793.835 247.902 791.198 247.902Z" fill="#00BFFF"/>
<path d="M814.353 254.259H804.112C804.112 257.004 805.687 259.066 808.397 259.066C810.325 259.066 811.521 257.871 812.254 256.467L814.353 257.578C813.133 259.994 811.143 261.251 808.397 261.251C803.819 261.251 801.561 258.102 801.561 253.319C801.561 248.853 804.125 245.974 808.214 245.974C812.681 245.974 814.402 249.183 814.402 253.148C814.402 253.502 814.378 253.881 814.353 254.259ZM808.104 247.902C805.443 247.902 804.1 250.086 804.1 252.221H811.839C811.9 249.878 810.728 247.902 808.104 247.902Z" fill="#00BFFF"/>
<path d="M826.278 245.974C827.475 245.974 828.817 246.291 829.806 247.23C830.77 248.133 831.21 249.537 831.21 251.892V260.909H828.732V252.038C828.732 248.853 827.157 248.158 825.693 248.158C822.397 248.158 821.604 251.22 821.604 253.295V260.909H819.126V246.328H821.457V249.219C822.226 247.377 823.837 245.974 826.278 245.974Z" fill="#00BFFF"/>
<path d="M836.117 256.418L838.631 255.979C839.01 258.114 840.377 259.212 842.537 259.212C844.49 259.212 845.576 258.395 845.576 257.028C845.576 255.564 844.82 254.929 843.245 254.746L840.877 254.478C837.984 254.161 836.617 252.526 836.617 250.28C836.617 247.62 838.717 245.961 842.159 245.961C845.491 245.961 847.737 247.706 848.054 250.39L845.601 250.939C845.283 249.194 844.087 247.962 842.098 247.962C840.169 247.962 839.034 248.755 839.034 250.146C839.034 251.403 839.852 252.16 841.658 252.367L843.99 252.623C846.882 252.94 848.018 254.466 848.018 256.772C848.018 259.542 845.979 261.238 842.415 261.238C838.949 261.262 836.642 259.542 836.117 256.418Z" fill="#00BFFF"/>
<path d="M476.343 295.916H473.743C473.621 295.099 473.535 294.135 473.511 293.256C472.547 295.294 470.972 296.258 468.58 296.258C465.687 296.258 463.673 294.476 463.673 291.975C463.673 290.462 464.369 289.29 465.711 288.534C466.676 288.009 468.25 287.631 470.667 287.338L473.328 287.021V286.765C473.328 284.166 472.364 283.031 470.203 283.031C468.128 283.031 466.907 284.08 466.785 285.923H464.124C464.393 282.799 466.663 280.993 470.374 280.993C474.133 280.993 475.83 282.86 475.83 287.058V290.999C475.855 293.317 476.001 294.842 476.343 295.916ZM469.898 289.303C467.359 289.657 466.309 290.376 466.309 291.841C466.309 293.329 467.335 294.232 469.056 294.232C471.68 294.232 473.377 292.426 473.377 289.559V288.827L469.898 289.303Z" fill="#00BFFF"/>
<path d="M488.341 280.981C489.537 280.981 490.88 281.299 491.869 282.238C492.833 283.141 493.272 284.544 493.272 286.912V295.929H490.795V287.058C490.795 283.873 489.22 283.178 487.755 283.178C484.46 283.178 483.666 286.241 483.666 288.315V295.929H481.188V281.335H483.52V284.227C484.289 282.385 485.888 280.981 488.341 280.981Z" fill="#00BFFF"/>
<path d="M509.763 274.771V295.917H507.432V293.208C506.553 295.099 505.186 296.27 502.793 296.27C499.144 296.27 496.776 293.232 496.776 288.595C496.776 284.02 499.315 280.981 503.172 280.981C505.161 280.981 506.553 282.055 507.285 283.495V274.771H509.763ZM503.404 283.165C500.889 283.165 499.4 285.179 499.4 288.595C499.4 291.975 500.889 294.086 503.306 294.086C505.784 294.086 507.334 292.11 507.334 288.949V288.278C507.334 285.154 505.82 283.165 503.404 283.165Z" fill="#00BFFF"/>
<path d="M544.025 283.348H538.484V295.929H536.006V283.348H531.539V281.335H536.006V279.724C536.006 276.393 537.874 274.673 541.499 274.673C542.341 274.673 543.049 274.758 544.038 274.966V277.15C543.391 277.064 542.61 276.918 541.499 276.918C539.277 276.918 538.496 277.675 538.496 279.895V281.323H544.038V283.348H544.025Z" fill="#00BFFF"/>
<path d="M548.017 288.632C548.017 283.995 550.727 280.993 554.816 280.993C558.905 280.993 561.614 283.995 561.614 288.632C561.614 293.268 558.905 296.27 554.816 296.27C550.739 296.27 548.017 293.207 548.017 288.632ZM558.99 288.632C558.99 285.215 557.44 283.141 554.816 283.141C552.191 283.141 550.641 285.178 550.641 288.632C550.641 292.085 552.191 294.123 554.816 294.123C557.452 294.11 558.99 292.073 558.99 288.632Z" fill="#00BFFF"/>
<path d="M575.627 281.042C576.677 281.042 577.641 281.164 578.251 281.335V283.641C577.665 283.495 576.591 283.348 575.542 283.348C572.038 283.348 569.243 285.74 569.243 290.499V295.928H566.765V281.335H569.219V285.13C570.195 282.823 572.588 281.042 575.627 281.042Z" fill="#00BFFF"/>
<path d="M599.038 281.335H603.213V277.516L605.69 276.467V281.335H611.378V283.349H605.69V290.902C605.69 292.854 606.63 293.794 608.498 293.794C609.462 293.794 610.487 293.708 611.391 293.525V295.807C610.634 295.978 609.816 296.185 608.534 296.185C604.885 296.185 603.225 294.147 603.225 291.256V283.349H599.05V281.335H599.038Z" fill="#00BFFF"/>
<path d="M623.426 280.981C624.598 280.981 625.989 281.299 627.014 282.263C627.954 283.165 628.443 284.544 628.443 286.899V295.917H625.965V287.046C625.965 283.861 624.366 283.165 622.816 283.165C619.63 283.165 618.849 286.228 618.849 288.303V295.917H616.371V274.771H618.849V283.995C619.52 282.238 621.326 280.981 623.426 280.981Z" fill="#00BFFF"/>
<path d="M645.323 295.916H642.724C642.602 295.099 642.516 294.135 642.492 293.256C641.527 295.294 639.953 296.258 637.56 296.258C634.668 296.258 632.654 294.476 632.654 291.975C632.654 290.462 633.349 289.29 634.692 288.534C635.656 288.009 637.231 287.631 639.648 287.338L642.309 287.021V286.765C642.309 284.166 641.344 283.031 639.184 283.031C637.109 283.031 635.888 284.08 635.766 285.923H633.105C633.374 282.799 635.644 280.993 639.355 280.993C643.114 280.993 644.811 282.86 644.811 287.058V290.999C644.823 293.317 644.97 294.842 645.323 295.916ZM638.866 289.303C636.328 289.657 635.278 290.376 635.278 291.841C635.278 293.329 636.303 294.232 638.024 294.232C640.649 294.232 642.345 292.426 642.345 289.559V288.827L638.866 289.303Z" fill="#00BFFF"/>
<path d="M649.718 281.335H653.892V277.516L656.37 276.467V281.335H662.058V283.349H656.37V290.902C656.37 292.854 657.31 293.794 659.177 293.794C660.142 293.794 661.167 293.708 662.07 293.525V295.807C661.314 295.978 660.496 296.185 659.214 296.185C655.565 296.185 653.905 294.147 653.905 291.256V283.349H649.73V281.335H649.718Z" fill="#00BFFF"/>
<path d="M684.358 281.335L685.848 291.341L686.141 293.415H686.348C686.47 292.744 686.556 292.28 686.812 290.962L688.704 281.335H691.243L693.135 290.962C693.403 292.28 693.489 292.744 693.598 293.415H693.806L694.099 291.341L695.588 281.335H698.188L695.356 295.929H692.231L690.339 286.509C690.217 285.923 690.107 284.703 690.071 284.117H689.863C689.839 284.703 689.717 285.923 689.607 286.509L687.715 295.929H684.59L681.759 281.335H684.358Z" fill="#00BFFF"/>
<path d="M712.969 289.266H702.729C702.729 292.012 704.303 294.074 707.013 294.074C708.941 294.074 710.138 292.878 710.87 291.475L712.969 292.585C711.749 295.001 709.759 296.258 707.013 296.258C702.436 296.258 700.19 293.11 700.19 288.327C700.19 283.861 702.753 280.969 706.842 280.969C711.31 280.969 713.031 284.178 713.031 288.144C713.018 288.51 712.994 288.888 712.969 289.266ZM706.72 282.909C704.059 282.909 702.716 285.093 702.716 287.228H710.455C710.516 284.886 709.344 282.909 706.72 282.909Z" fill="#00BFFF"/>
<path d="M738.468 280.981C739.896 280.981 741.007 281.945 741.507 283.642C742.203 281.945 743.521 280.981 744.949 280.981C746.756 280.981 748.392 282.238 748.392 285.325V295.917H745.914V285.533C745.914 283.666 745.035 283.166 744.193 283.166C742.472 283.166 741.861 284.422 741.861 286.265V295.917H739.445V285.533C739.445 283.751 738.651 283.166 737.724 283.166C736.027 283.166 735.441 284.508 735.441 286.265V295.917H732.963V281.323H735.295V283.568C735.868 282.006 737.016 280.981 738.468 280.981Z" fill="#00BFFF"/>
<path d="M756.557 296.27C755.215 296.27 753.848 295.953 752.822 294.989C751.883 294.086 751.48 292.719 751.48 290.352V281.335H754.019V290.267C754.019 293.452 755.532 294.147 757.058 294.147C760.122 294.147 760.854 291.084 760.854 288.949V281.335H763.332V295.929H761V293.159C760.451 294.611 758.718 296.27 756.557 296.27Z" fill="#00BFFF"/>
<path d="M768.531 291.426L771.046 290.987C771.424 293.122 772.791 294.22 774.952 294.22C776.905 294.22 777.991 293.403 777.991 292.036C777.991 290.572 777.234 289.937 775.66 289.754L773.292 289.486C770.399 289.168 769.032 287.533 769.032 285.288C769.032 282.628 771.131 280.969 774.574 280.969C777.906 280.969 780.152 282.714 780.469 285.398L778.016 285.947C777.698 284.202 776.502 282.97 774.513 282.97C772.584 282.97 771.449 283.763 771.449 285.154C771.449 286.411 772.267 287.167 774.073 287.375L776.404 287.631C779.297 287.948 780.432 289.474 780.432 291.78C780.432 294.55 778.394 296.246 774.83 296.246C771.363 296.27 769.056 294.55 768.531 291.426Z" fill="#00BFFF"/>
<path d="M784.9 281.335H789.074V277.516L791.552 276.467V281.335H797.24V283.349H791.552V290.902C791.552 292.854 792.492 293.794 794.36 293.794C795.324 293.794 796.349 293.708 797.253 293.525V295.807C796.496 295.978 795.678 296.185 794.396 296.185C790.747 296.185 789.087 294.147 789.087 291.256V283.349H784.912V281.335H784.9Z" fill="#00BFFF"/>
<path d="M821.872 283.873C822.666 282.177 824.411 280.981 826.364 280.981C830.123 280.981 832.382 284.166 832.382 288.595C832.382 293.146 830.075 296.27 826.279 296.27C824.326 296.27 822.519 295.196 821.726 293.415L821.286 295.928H819.394V274.782H821.872V283.873ZM825.705 294.086C828.244 294.086 829.757 291.926 829.757 288.595C829.757 285.361 828.329 283.165 825.754 283.165C823.276 283.165 821.811 285.117 821.811 288.265V289.022C821.823 292.072 823.251 294.086 825.705 294.086Z" fill="#00BFFF"/>
<path d="M848.14 289.266H837.899C837.899 292.012 839.473 294.074 842.183 294.074C844.112 294.074 845.308 292.878 846.04 291.475L848.14 292.585C846.919 295.001 844.929 296.258 842.183 296.258C837.606 296.258 835.36 293.11 835.36 288.327C835.36 283.861 837.923 280.969 842.012 280.969C846.48 280.969 848.201 284.178 848.201 288.144C848.201 288.51 848.176 288.888 848.14 289.266ZM841.89 282.909C839.229 282.909 837.886 285.093 837.886 287.228H845.625C845.686 284.886 844.527 282.909 841.89 282.909Z" fill="#00BFFF"/>
<path d="M476.343 330.936H473.743C473.621 330.118 473.535 329.154 473.511 328.276C472.547 330.313 470.972 331.277 468.58 331.277C465.687 331.277 463.673 329.496 463.673 326.994C463.673 325.481 464.369 324.31 465.711 323.554C466.676 323.029 468.25 322.651 470.667 322.358L473.328 322.04V321.784C473.328 319.185 472.364 318.05 470.203 318.05C468.128 318.05 466.907 319.1 466.785 320.942H464.124C464.393 317.819 466.663 316.013 470.374 316.013C474.133 316.013 475.83 317.88 475.83 322.077V326.018C475.855 328.349 476.001 329.862 476.343 330.936ZM469.898 324.322C467.359 324.676 466.309 325.396 466.309 326.86C466.309 328.349 467.335 329.252 469.056 329.252C471.68 329.252 473.377 327.446 473.377 324.578V323.846L469.898 324.322Z" fill="#00BFFF"/>
<path d="M488.341 316.001C489.537 316.001 490.88 316.318 491.869 317.258C492.833 318.161 493.272 319.564 493.272 321.931V330.948H490.795V322.078C490.795 318.893 489.22 318.197 487.755 318.197C484.46 318.197 483.666 321.26 483.666 323.334V330.948H481.188V316.355H483.52V319.247C484.289 317.404 485.888 316.001 488.341 316.001Z" fill="#00BFFF"/>
<path d="M509.763 309.79V330.936H507.432V328.227C506.553 330.119 505.186 331.29 502.793 331.29C499.144 331.29 496.776 328.252 496.776 323.615C496.776 319.039 499.315 316.001 503.172 316.001C505.161 316.001 506.553 317.075 507.285 318.514V309.79H509.763ZM503.404 318.185C500.889 318.185 499.4 320.198 499.4 323.615C499.4 326.995 500.889 329.106 503.306 329.106C505.784 329.106 507.334 327.129 507.334 323.969V323.298C507.334 320.174 505.82 318.185 503.404 318.185Z" fill="#00BFFF"/>
<path d="M543.94 330.936H541.34C541.218 330.118 541.132 329.154 541.108 328.276C540.144 330.313 538.569 331.277 536.177 331.277C533.284 331.277 531.27 329.496 531.27 326.994C531.27 325.481 531.966 324.31 533.308 323.554C534.273 323.029 535.847 322.651 538.264 322.358L540.925 322.04V321.784C540.925 319.185 539.961 318.05 537.8 318.05C535.725 318.05 534.505 319.1 534.383 320.942H531.722C531.99 317.819 534.26 316.013 537.971 316.013C541.731 316.013 543.427 317.88 543.427 322.077V326.018C543.439 328.349 543.586 329.862 543.94 330.936ZM537.483 324.322C534.944 324.676 533.894 325.396 533.894 326.86C533.894 328.349 534.92 329.252 536.641 329.252C539.265 329.252 540.962 327.446 540.962 324.578V323.846L537.483 324.322Z" fill="#00BFFF"/>
<path d="M548.102 323.554C548.102 319.21 550.324 316.001 554.901 316.001C558.135 316.001 560.479 317.868 560.821 321.223L558.282 321.516C558.013 319.357 556.793 318.161 554.718 318.161C552.032 318.161 550.665 320.32 550.665 323.53C550.665 326.861 552.032 329.106 554.815 329.106C556.951 329.106 558.087 327.825 558.428 325.604L560.796 325.982C560.333 328.959 558.428 331.29 554.815 331.29C550.385 331.29 548.102 327.935 548.102 323.554Z" fill="#00BFFF"/>
<path d="M565.24 316.355H569.414V312.536L571.892 311.486V316.355H577.58V318.368H571.892V325.921C571.892 327.874 572.832 328.813 574.699 328.813C575.663 328.813 576.689 328.728 577.592 328.545V330.826C576.835 330.997 576.017 331.205 574.736 331.205C571.086 331.205 569.426 329.167 569.426 326.275V318.368H565.252V316.355H565.24Z" fill="#00BFFF"/>
<path d="M611.525 330.936H608.925C608.803 330.118 608.717 329.154 608.693 328.276C607.729 330.313 606.154 331.277 603.762 331.277C600.869 331.277 598.855 329.496 598.855 326.994C598.855 325.481 599.551 324.31 600.893 323.554C601.858 323.029 603.432 322.651 605.849 322.358L608.51 322.04V321.784C608.51 319.185 607.546 318.05 605.385 318.05C603.31 318.05 602.09 319.1 601.968 320.942H599.307C599.575 317.819 601.845 316.013 605.556 316.013C609.316 316.013 611.012 317.88 611.012 322.077V326.018C611.024 328.349 611.171 329.862 611.525 330.936ZM605.08 324.322C602.541 324.676 601.492 325.396 601.492 326.86C601.492 328.349 602.517 329.252 604.238 329.252C606.862 329.252 608.559 327.446 608.559 324.578V323.846L605.08 324.322Z" fill="#00BFFF"/>
<path d="M615.699 323.554C615.699 319.21 617.921 316.001 622.498 316.001C625.733 316.001 628.077 317.868 628.418 321.223L625.879 321.516C625.611 319.357 624.39 318.161 622.315 318.161C619.63 318.161 618.263 320.32 618.263 323.53C618.263 326.861 619.63 329.106 622.413 329.106C624.549 329.106 625.684 327.825 626.026 325.604L628.394 325.982C627.93 328.959 626.026 331.29 622.413 331.29C617.97 331.29 615.699 327.935 615.699 323.554Z" fill="#00BFFF"/>
<path d="M632.593 323.554C632.593 319.21 634.814 316.001 639.391 316.001C642.626 316.001 644.97 317.868 645.311 321.223L642.772 321.516C642.504 319.357 641.283 318.161 639.208 318.161C636.523 318.161 635.156 320.32 635.156 323.53C635.156 326.861 636.523 329.106 639.306 329.106C641.442 329.106 642.577 327.825 642.919 325.604L645.287 325.982C644.823 328.959 642.919 331.29 639.306 331.29C634.875 331.29 632.593 327.935 632.593 323.554Z" fill="#00BFFF"/>
<path d="M649.4 323.651C649.4 319.014 652.11 316.013 656.199 316.013C660.288 316.013 662.998 319.014 662.998 323.651C662.998 328.288 660.288 331.29 656.199 331.29C652.122 331.29 649.4 328.227 649.4 323.651ZM660.374 323.651C660.374 320.235 658.823 318.16 656.199 318.16C653.575 318.16 652.025 320.198 652.025 323.651C652.025 327.104 653.575 329.142 656.199 329.142C658.823 329.142 660.374 327.092 660.374 323.651Z" fill="#00BFFF"/>
<path d="M677.011 316.062C678.06 316.062 679.024 316.184 679.635 316.354V318.661C679.049 318.514 677.975 318.368 676.925 318.368C673.422 318.368 670.627 320.759 670.627 325.518V330.948H668.149V316.354H670.602V320.149C671.579 317.843 673.971 316.062 677.011 316.062Z" fill="#00BFFF"/>
<path d="M695.625 309.79V330.936H693.293V328.227C692.415 330.119 691.047 331.29 688.655 331.29C685.005 331.29 682.637 328.252 682.637 323.615C682.637 319.039 685.176 316.001 689.033 316.001C691.023 316.001 692.415 317.075 693.147 318.514V309.79H695.625ZM689.265 318.185C686.751 318.185 685.262 320.198 685.262 323.615C685.262 326.995 686.751 329.106 689.168 329.106C691.646 329.106 693.196 327.129 693.196 323.969V323.298C693.208 320.174 691.694 318.185 689.265 318.185Z" fill="#00BFFF"/>
<path d="M701.496 328.898H706.171V318.393H701.935V316.355H708.649V328.898H713.58V330.936H701.496V328.898ZM708.905 313.438H705.402V309.937H708.905V313.438Z" fill="#00BFFF"/>
<path d="M724.895 316.001C726.091 316.001 727.434 316.318 728.422 317.258C729.387 318.161 729.826 319.564 729.826 321.931V330.948H727.348V322.078C727.348 318.893 725.774 318.197 724.309 318.197C721.013 318.197 720.22 321.26 720.22 323.334V330.948H717.742V316.355H720.074V319.247C720.842 317.404 722.454 316.001 724.895 316.001Z" fill="#00BFFF"/>
<path d="M744.742 317.514C745.584 318.356 746.06 319.527 746.06 320.894C746.06 323.871 743.839 325.885 740.567 325.885C739.542 325.885 738.614 325.677 737.858 325.299C737.247 325.592 736.832 326.092 736.832 326.763C736.832 327.666 737.589 328.227 739.249 328.227H743.009C746.048 328.227 747.769 329.716 747.769 332.193C747.769 335.256 745.108 336.976 740.555 336.976C736.405 336.976 733.927 335.549 733.927 333.267C733.927 331.693 734.916 330.521 736.466 329.997C735.27 329.496 734.623 328.63 734.623 327.398C734.623 326.056 735.38 325.067 736.723 324.567C735.783 323.725 735.258 322.493 735.258 321.041C735.258 318.063 737.443 315.989 740.69 315.989C741.764 315.989 742.704 316.221 743.497 316.636C744.022 314.915 745.218 313.951 747.024 313.951C747.342 313.951 747.696 313.976 747.952 314.073V316.233C747.513 316.172 747.256 316.111 746.878 316.111C745.828 316.123 745.157 316.55 744.742 317.514ZM739.176 330.412C738.737 330.412 738.334 330.387 737.955 330.351C736.991 330.79 736.405 331.571 736.405 332.571C736.405 334.121 737.833 334.939 740.836 334.939C743.961 334.939 745.303 334.06 745.303 332.462C745.303 331.144 744.364 330.424 742.472 330.424H739.176V330.412ZM743.729 320.906C743.729 319.161 742.472 317.905 740.69 317.905C738.883 317.905 737.626 319.186 737.626 321.004C737.626 322.785 738.846 324.006 740.604 324.006C742.411 323.993 743.729 322.688 743.729 320.906Z" fill="#00BFFF"/>
<path d="M752.188 328.898H756.863V311.828H752.481V309.79H759.34V328.898H764.272V330.936H752.188V328.898Z" fill="#00BFFF"/>
<path d="M774.72 328.056L778.772 316.354H781.433L775.599 331.875C774.256 335.585 772.511 336.805 770.057 336.805C769.618 336.805 769.179 336.781 768.715 336.683V334.499C769.093 334.523 769.447 334.56 769.764 334.56C771.546 334.56 772.45 333.767 773.121 331.851L773.499 330.777L767.811 316.367H770.619L774.72 328.056Z" fill="#00BFFF"/>
</svg>
