<svg width="2103" height="1719" viewBox="0 0 2103 1719" fill="none" xmlns="http://www.w3.org/2000/svg">
<g id="comic_seq_6-3">
<path id="curtain" d="M1402.29 484.281V1625.26C1402.29 1601.13 1382.73 1581.57 1358.6 1581.57C1334.47 1581.57 1314.91 1601.13 1314.91 1625.26V484.281V1615.34C1314.91 1639.47 1295.34 1659.03 1271.21 1659.03C1247.09 1659.03 1227.52 1639.47 1227.52 1615.34V486.266L1227.83 1385.12C1053.35 1210.53 908.382 871.601 908.382 484.281M1402.3 484.281V1615.34C1402.3 1639.47 1421.87 1659.03 1446 1659.03C1470.12 1659.03 1489.69 1639.47 1489.69 1615.34V484.281V1625.26C1489.69 1601.13 1509.25 1581.57 1533.38 1581.57C1557.51 1581.57 1577.07 1601.13 1577.07 1625.26V484.281M1577.09 484.281V1615.34C1577.09 1639.47 1596.65 1659.03 1620.78 1659.03C1644.91 1659.03 1664.47 1639.47 1664.47 1615.34V484.281L1664.47 1625.26C1664.47 1601.13 1684.04 1581.57 1708.16 1581.57C1732.29 1581.57 1751.86 1601.13 1751.86 1625.26V484.281M1751.87 484.281V1615.34C1751.87 1639.47 1771.43 1659.03 1795.56 1659.03C1819.69 1659.03 1839.25 1639.47 1839.25 1615.34V484.281V1625.26C1839.25 1601.13 1858.82 1581.57 1882.95 1581.57C1907.07 1581.57 1926.64 1601.13 1926.64 1625.26V484.281M1926.65 484.281V1615.34C1926.65 1639.47 1946.22 1659.03 1970.34 1659.03C1994.47 1659.03 2014.04 1639.47 2014.04 1615.34V484.281V1625.26C2014.04 1601.13 2033.6 1581.57 2057.73 1581.57C2081.86 1581.57 2101.42 1601.13 2101.42 1625.26V484.281M991.639 484.281C991.163 831.876 1068.63 1132.68 1227.52 1380.06M1146.65 1416.06V1319.85C1146.65 1293.88 1125.6 1272.84 1099.63 1272.84H1051.64L1041.83 1236.19M1104.1 1338.12V1698.11M1104.1 1364.55H1146.58M931.994 1504.11V1519.68C931.994 1523.15 929.19 1525.95 925.724 1525.95C922.258 1525.95 919.454 1523.15 919.454 1519.68V1319.8C919.454 1293.83 940.5 1272.78 966.466 1272.78H1014.46L1024.27 1236.14M931.372 1503.44V1519.68C931.372 1523.15 934.177 1525.95 937.642 1525.95C941.108 1525.95 943.913 1523.15 943.913 1519.68V1504.11M945.275 1503.44V1519.68C945.275 1523.15 948.079 1525.95 951.545 1525.95C955.011 1525.95 957.815 1523.15 957.815 1519.68V1504.11M961.995 1338.07V1716.63H1124.98C1131.87 1716.63 1137.47 1711.05 1137.47 1704.14C1137.47 1697.25 1131.88 1691.65 1124.98 1691.65H1104.1M961.995 1364.5H919.52M1014.47 1272.78H1051.42M1036.71 1174.36C1038.92 1171.41 1040.42 1167.75 1040.52 1164.75C1040.65 1160.84 1035.04 1159.75 1033.68 1163.4C1033.66 1163.42 1033.66 1163.44 1033.65 1163.46C1032.63 1166.23 1031.36 1172.84 1022.96 1175.9L1023.36 1175.86C1010.73 1179.89 1001.59 1191.72 1001.59 1205.69C1001.59 1222.98 1015.61 1237 1032.9 1237C1050.19 1237 1064.21 1222.98 1064.21 1205.69C1064.21 1193.64 1058.1 1183.7 1049.31 1179.31M1043.57 1175.89C1045.78 1172.94 1047.29 1168.5 1047.38 1165.5C1047.51 1161.6 1041.91 1160.5 1040.54 1164.15M1049.68 1178.94C1051.89 1175.99 1053.4 1171.56 1053.49 1168.56C1053.63 1164.65 1048.78 1163.56 1047.41 1167.21M1049.3 1199.46C1053.85 1199.46 1057.54 1203.15 1057.54 1207.7C1057.54 1212.25 1053.85 1215.94 1049.3 1215.94M1014.47 1466.23H1032.88V1716.63M961.995 1429.13H1104.1M1146.65 1407.56H1198.5V1396.21C1198.5 1390.08 1203.46 1385.14 1209.57 1385.14H1227.83M2.06201 484.281V1615.34C2.06201 1639.47 21.6263 1659.03 45.7543 1659.03C69.8822 1659.03 89.4465 1639.47 89.4465 1615.34V484.281L89.4465 1625.26C89.4465 1601.13 109.011 1581.57 133.139 1581.57C157.267 1581.57 176.831 1601.13 176.831 1625.26V484.281M176.844 484.281V1615.34C176.844 1639.47 196.409 1659.03 220.536 1659.03C244.664 1659.03 264.229 1639.47 264.229 1615.34V484.281L264.229 1625.26C264.229 1601.13 283.793 1581.57 307.921 1581.57C332.049 1581.57 351.613 1601.13 351.613 1625.26V484.281M351.627 484.281V1615.34C351.627 1639.47 371.191 1659.03 395.319 1659.03C419.447 1659.03 439.011 1639.47 439.011 1615.34V484.281L439.011 1625.26C439.011 1601.13 458.575 1581.57 482.703 1581.57C506.831 1581.57 526.395 1601.13 526.395 1625.26V484.281M526.409 484.281V1615.34C526.409 1639.47 545.973 1659.03 570.101 1659.03C594.229 1659.03 613.793 1639.47 613.793 1615.34V484.281V1625.26C613.793 1601.13 633.358 1581.57 657.486 1581.57C681.614 1581.57 701.178 1601.13 701.178 1625.26V484.281M701.191 484.281V1615.34C701.191 1639.47 720.755 1659.03 744.883 1659.03C769.011 1659.03 788.576 1639.47 788.576 1615.34V484.281L788.576 1625.26C788.576 1601.13 808.14 1581.57 832.268 1581.57C856.396 1581.57 875.96 1601.13 875.96 1625.26V484.281M1104.1 1451.56H1236.77C1242.63 1451.56 1247.38 1446.81 1247.38 1440.95V1412.98C1247.38 1407.12 1242.63 1402.37 1236.77 1402.37H1216.6M1075.11 484.281C1075.11 768.312 1104.38 1086.99 1227.52 1373.88M1158.26 484.281C1158.26 798.103 1146.08 975.763 1227.83 1366.34M657.485 1716.63H1446" stroke="#00BFFF" stroke-width="3" stroke-miterlimit="10" stroke-linecap="round"/>
<g id="lady">
<g id="Group">
<path id="Vector" d="M376.945 323.818C376.945 323.818 366.746 136.104 363.862 104.461C360.886 71.7599 340.078 30.7513 299.812 12.4429C299.812 12.4429 231 -21.4091 176.606 26.9017C176.606 26.9017 162.862 42.8157 158.444 50.4619C154.012 58.0948 38.6903 262.066 33.1874 280.653C27.6845 299.239 376.945 323.818 376.945 323.818Z" fill="#1C2535"/>
<path id="Vector_2" d="M348.96 144.575C356.101 87.5202 326.794 36.875 283.5 31.456C240.207 26.037 199.322 67.8963 192.181 124.951C185.04 182.007 214.347 232.652 257.641 238.071C300.934 243.49 341.819 201.63 348.96 144.575Z" fill="#6997F5"/>
<path id="Vector_3" d="M285.896 232.475L285.923 312.018L181.527 272.24L214.504 202.896" fill="#6997F5"/>
<path id="Vector_4" d="M197.216 128.683C213.463 128.683 226.635 115.511 226.635 99.2622C226.635 83.0138 213.463 69.8418 197.216 69.8418C180.968 69.8418 167.796 83.0138 167.796 99.2622C167.796 115.511 180.968 128.683 197.216 128.683Z" fill="#6997F5"/>
<path id="Vector_5" d="M454.342 429.435L158.166 428.839L167.704 490.855H0.633301L26.0708 299.94C28.9149 278.616 46.5346 262.344 68.017 261.22L189.821 254.817L285.909 268.959L370.318 298.419C379.59 301.66 387.342 308.195 392.091 316.793L454.342 429.435Z" fill="#FAEFE4"/>
<path id="Vector_6" d="M285.764 270.674C287.675 258.972 267.837 245.994 241.456 241.688C215.075 237.381 192.14 243.377 190.23 255.079C188.319 266.781 208.157 279.759 234.538 284.065C260.92 288.372 283.854 282.377 285.764 270.674Z" fill="#6997F5"/>
<path id="Vector_7" d="M322.511 141.911C326.055 141.911 328.927 137.392 328.927 131.818C328.927 126.244 326.055 121.725 322.511 121.725C318.968 121.725 316.096 126.244 316.096 131.818C316.096 137.392 318.968 141.911 322.511 141.911Z" fill="#1C2535"/>
<path id="Vector_8" d="M282.364 141.911C285.908 141.911 288.78 137.392 288.78 131.818C288.78 126.244 285.908 121.725 282.364 121.725C278.821 121.725 275.949 126.244 275.949 131.818C275.949 137.392 278.821 141.911 282.364 141.911Z" fill="#1C2535"/>
<path id="Vector_9" d="M309.588 133.379L311.559 186.28L296.69 177.959" stroke="#1C2535" stroke-width="6" stroke-miterlimit="10" stroke-linecap="round" stroke-linejoin="round"/>
<path id="Vector_10" d="M268.647 202.882C259.308 210.012 243.91 205.567 234.254 192.921C224.597 180.287 224.346 164.254 233.685 157.124L268.647 202.882Z" fill="#1C2535"/>
<path id="Vector_11" d="M336.52 382.658L359.709 426.656" stroke="#F7CF88" stroke-width="6" stroke-miterlimit="10" stroke-linecap="round" stroke-linejoin="round"/>
<path id="Vector_12" d="M453.033 428.561H156.962C143.629 428.561 132.821 439.369 132.821 452.703V514.957C132.821 517.735 135.07 519.997 137.861 519.997C140.639 519.997 142.901 517.748 142.901 514.957V490.868H146.195V514.957C146.195 517.735 148.444 519.997 151.235 519.997H151.592C154.37 519.997 156.632 517.748 156.632 514.957V490.868H160.124V514.957C160.124 517.735 162.373 519.997 165.164 519.997H165.667C168.444 519.997 170.706 517.748 170.706 514.957V490.868H174.252V514.957C174.252 517.735 176.5 519.997 179.291 519.997H180.35C183.128 519.997 185.39 517.748 185.39 514.957V490.273H425.928C453.879 490.273 471.578 460.257 458.033 435.797L454.012 428.521" fill="#6997F5"/>
<path id="Vector_13" d="M172.439 491.451V515.236" stroke="black" stroke-width="6" stroke-miterlimit="10" stroke-linecap="round" stroke-linejoin="round"/>
<path id="Vector_14" d="M359.246 428.258H380.609" stroke="black" stroke-width="6" stroke-miterlimit="10" stroke-linecap="round" stroke-linejoin="round"/>
<path id="Vector_15" d="M158.166 491.451V515.236" stroke="black" stroke-width="6" stroke-miterlimit="10" stroke-linecap="round" stroke-linejoin="round"/>
<path id="Vector_16" d="M144.488 491.451V515.236" stroke="black" stroke-width="6" stroke-miterlimit="10" stroke-linecap="round" stroke-linejoin="round"/>
</g>
<path id="Vector_17" d="M32.6851 491.225H132.888" stroke="black" stroke-width="3" stroke-miterlimit="10" stroke-linecap="round" stroke-linejoin="round"/>
</g>
<g id="text-blob">
<path id="Vector_18" d="M776.657 792.64H149.025C124.236 792.64 104.143 772.546 104.143 747.756V622.904C104.143 598.114 124.236 578.02 149.025 578.02H776.657C801.446 578.02 821.539 598.114 821.539 622.904V747.756C821.539 772.546 801.446 792.64 776.657 792.64Z" fill="#D7F7FF" stroke="#00BFFF" stroke-width="3" stroke-miterlimit="10" stroke-linecap="round" stroke-linejoin="round"/>
<g id="Vector_19">
<path d="M145.203 626.82H145.269C145.203 626.066 145.203 625.233 145.203 624.412V608.591H148.14V631.053H144.687L137.636 614.888C137.094 613.658 136.618 612.229 136.618 612.229H136.525C136.591 612.824 136.591 613.499 136.591 614.16V631.053H133.655V608.591H137.517L144.131 623.87C144.727 625.312 145.071 626.344 145.203 626.82Z" fill="#00BFFF"/>
<path d="M151.248 623.155C151.248 618.128 154.185 614.874 158.616 614.874C163.047 614.874 165.984 618.128 165.984 623.155C165.984 628.182 163.047 631.436 158.616 631.436C154.185 631.436 151.248 628.115 151.248 623.155ZM163.14 623.155C163.14 619.451 161.46 617.202 158.616 617.202C155.772 617.202 154.092 619.411 154.092 623.155C154.092 626.885 155.772 629.108 158.616 629.108C161.46 629.094 163.14 626.885 163.14 623.155Z" fill="#00BFFF"/>
<path d="M170.217 615.244L171.831 626.092L172.148 628.341H172.373C172.506 627.613 172.598 627.11 172.876 625.682L174.926 615.244H177.678L179.728 625.682C180.019 627.11 180.112 627.613 180.231 628.341H180.456L180.773 626.092L182.387 615.244H185.204L182.136 631.066H178.749L176.699 620.853C176.567 620.218 176.447 618.895 176.408 618.26H176.183C176.156 618.895 176.024 620.218 175.905 620.853L173.855 631.066H170.468L167.399 615.244H170.217Z" fill="#00BFFF"/>
<path d="M204.729 615.244H209.253V611.104L211.938 609.966V615.244H218.103V617.427H211.938V625.629C211.938 627.745 212.957 628.764 214.981 628.764C216.026 628.764 217.137 628.671 218.116 628.473V630.946C217.296 631.132 216.41 631.357 215.021 631.357C211.065 631.357 209.266 629.147 209.266 626.012V617.44H204.742V615.244H204.729Z" fill="#00BFFF"/>
<path d="M230.563 614.874C231.833 614.874 233.341 615.218 234.453 616.263C235.471 617.242 236 618.737 236 621.29V631.066H233.315V621.448C233.315 617.996 231.582 617.242 229.902 617.242C226.45 617.242 225.603 620.562 225.603 622.811V631.066H222.918V608.14H225.603V618.141C226.317 616.223 228.288 614.874 230.563 614.874Z" fill="#00BFFF"/>
<path d="M253.686 631.066H250.869C250.736 630.179 250.644 629.134 250.617 628.182C249.572 630.391 247.866 631.436 245.273 631.436C242.138 631.436 239.955 629.505 239.955 626.793C239.955 625.153 240.709 623.883 242.164 623.062C243.209 622.494 244.916 622.084 247.535 621.766L250.419 621.422V621.144C250.419 618.327 249.374 617.096 247.032 617.096C244.784 617.096 243.461 618.234 243.329 620.232H240.445C240.736 616.845 243.196 614.887 247.218 614.887C251.292 614.887 253.131 616.911 253.131 621.462V625.735C253.144 628.248 253.302 629.888 253.686 631.066ZM246.688 623.883C243.937 624.266 242.799 625.047 242.799 626.634C242.799 628.248 243.911 629.227 245.776 629.227C248.62 629.227 250.458 627.269 250.458 624.16V623.367L246.688 623.883Z" fill="#00BFFF"/>
<path d="M257.853 615.244H262.377V611.104L265.062 609.966V615.244H271.227V617.427H265.062V625.629C265.062 627.745 266.081 628.764 268.105 628.764C269.15 628.764 270.261 628.671 271.24 628.473V630.946C270.42 631.132 269.533 631.357 268.144 631.357C264.189 631.357 262.39 629.147 262.39 626.012V617.44H257.866V615.244H257.853Z" fill="#00BFFF"/>
<path d="M300.553 627.93L304.945 615.244H307.829L301.505 632.071C300.05 636.092 298.159 637.415 295.5 637.415C295.024 637.415 294.547 637.389 294.045 637.283V634.915C294.455 634.942 294.839 634.981 295.182 634.981C297.114 634.981 298.093 634.121 298.82 632.044L299.23 630.88L293.066 615.258H296.108L300.553 627.93Z" fill="#00BFFF"/>
<path d="M310.646 623.155C310.646 618.128 313.583 614.874 318.014 614.874C322.446 614.874 325.382 618.128 325.382 623.155C325.382 628.182 322.446 631.436 318.014 631.436C313.583 631.436 310.646 628.115 310.646 623.155ZM322.538 623.155C322.538 619.451 320.858 617.202 318.014 617.202C315.17 617.202 313.49 619.411 313.49 623.155C313.49 626.885 315.17 629.108 318.014 629.108C320.858 629.094 322.538 626.885 322.538 623.155Z" fill="#00BFFF"/>
<path d="M334.615 631.436C333.16 631.436 331.679 631.092 330.568 630.047C329.549 629.068 329.112 627.586 329.112 625.02V615.244H331.864V624.928C331.864 628.38 333.504 629.134 335.158 629.134C338.478 629.134 339.272 625.814 339.272 623.499V615.244H341.957V631.066H339.43V628.063C338.822 629.637 336.957 631.436 334.615 631.436Z" fill="#00BFFF"/>
<path d="M370.609 623.314L367.725 626.224V631.066H365.04V608.14H367.725V623.036L374.815 615.257H378.321L372.527 621.356L378.691 631.066H375.371L370.609 623.314Z" fill="#00BFFF"/>
<path d="M390.054 614.874C391.351 614.874 392.806 615.218 393.877 616.236C394.922 617.215 395.398 618.736 395.398 621.303V631.079H392.713V621.462C392.713 618.009 391.007 617.255 389.419 617.255C385.848 617.255 384.988 620.575 384.988 622.824V631.079H382.303V615.257H384.829V618.392C385.662 616.382 387.395 614.874 390.054 614.874Z" fill="#00BFFF"/>
<path d="M399.195 623.155C399.195 618.128 402.131 614.874 406.563 614.874C410.994 614.874 413.931 618.128 413.931 623.155C413.931 628.182 410.994 631.436 406.563 631.436C402.131 631.436 399.195 628.115 399.195 623.155ZM411.087 623.155C411.087 619.451 409.407 617.202 406.563 617.202C403.719 617.202 402.039 619.411 402.039 623.155C402.039 626.885 403.719 629.108 406.563 629.108C409.407 629.108 411.087 626.885 411.087 623.155Z" fill="#00BFFF"/>
<path d="M418.164 615.244L419.778 626.092L420.095 628.341H420.32C420.452 627.613 420.545 627.11 420.823 625.682L422.873 615.244H425.625L427.675 625.682C427.966 627.11 428.058 627.613 428.178 628.341H428.402L428.72 626.092L430.334 615.244H433.151L430.082 631.066H426.696L424.646 620.853C424.513 620.218 424.394 618.895 424.355 618.26H424.13C424.103 618.895 423.971 620.218 423.852 620.853L421.802 631.066H418.415L415.346 615.244H418.164Z" fill="#00BFFF"/>
<path d="M452.319 623.155C452.319 618.128 455.255 614.874 459.687 614.874C464.118 614.874 467.055 618.128 467.055 623.155C467.055 628.182 464.118 631.436 459.687 631.436C455.268 631.436 452.319 628.115 452.319 623.155ZM464.211 623.155C464.211 619.451 462.531 617.202 459.687 617.202C456.843 617.202 455.163 619.411 455.163 623.155C455.163 626.885 456.843 629.108 459.687 629.108C462.531 629.108 464.211 626.885 464.211 623.155Z" fill="#00BFFF"/>
<path d="M478.007 617.427V631.066H475.322V617.427H470.481V615.244H475.322V613.498C475.322 609.887 477.346 608.021 481.275 608.021C482.187 608.021 482.955 608.114 484.026 608.339V610.707C483.325 610.614 482.478 610.456 481.275 610.456C478.867 610.456 478.021 611.276 478.021 613.683V615.231H484.026V617.427H478.007Z" fill="#00BFFF"/>
<path d="M505.8 615.244H510.324V611.104L513.009 609.966V615.244H519.173V617.427H513.009V625.629C513.009 627.745 514.027 628.764 516.051 628.764C517.096 628.764 518.208 628.671 519.186 628.473V630.946C518.366 631.132 517.48 631.357 516.091 631.357C512.136 631.357 510.337 629.147 510.337 626.012V617.44H505.8V615.244Z" fill="#00BFFF"/>
<path d="M531.647 614.874C532.917 614.874 534.425 615.218 535.536 616.263C536.555 617.242 537.084 618.737 537.084 621.29V631.066H534.399V621.448C534.399 617.996 532.653 617.242 530.986 617.242C527.533 617.242 526.687 620.562 526.687 622.811V631.066H524.001V608.14H526.687V618.141C527.401 616.223 529.372 614.874 531.647 614.874Z" fill="#00BFFF"/>
<path d="M554.823 623.856H543.724C543.724 626.832 545.431 629.068 548.368 629.068C550.458 629.068 551.754 627.772 552.548 626.25L554.823 627.454C553.5 630.073 551.344 631.436 548.368 631.436C543.407 631.436 540.96 628.023 540.96 622.837C540.96 617.996 543.738 614.86 548.169 614.86C553.011 614.86 554.876 618.34 554.876 622.639C554.889 623.023 554.863 623.433 554.823 623.856ZM548.063 616.951C545.18 616.951 543.724 619.319 543.724 621.634H552.111C552.164 619.107 550.907 616.951 548.063 616.951Z" fill="#00BFFF"/>
<path d="M576.305 623.155C576.305 618.128 579.242 614.874 583.673 614.874C588.104 614.874 591.041 618.128 591.041 623.155C591.041 628.182 588.104 631.436 583.673 631.436C579.242 631.436 576.305 628.115 576.305 623.155ZM588.197 623.155C588.197 619.451 586.517 617.202 583.673 617.202C580.829 617.202 579.149 619.411 579.149 623.155C579.149 626.885 580.829 629.108 583.673 629.108C586.517 629.094 588.197 626.885 588.197 623.155Z" fill="#00BFFF"/>
<path d="M605.619 614.927C606.756 614.927 607.801 615.059 608.463 615.244V617.744C607.828 617.586 606.664 617.427 605.526 617.427C601.73 617.427 598.7 620.02 598.7 625.179V631.065H596.015V615.244H598.674V619.358C599.732 616.858 602.325 614.927 605.619 614.927Z" fill="#00BFFF"/>
<path d="M613.238 628.843H618.304V617.453H613.714V615.244H620.989V628.843H626.334V631.052H613.238V628.843ZM621.267 612.083H617.471V608.286H621.267V612.083Z" fill="#00BFFF"/>
<path d="M641.202 616.514C642.115 617.427 642.631 618.697 642.631 620.178C642.631 623.406 640.223 625.589 636.678 625.589C635.567 625.589 634.561 625.364 633.741 624.954C633.08 625.271 632.63 625.814 632.63 626.541C632.63 627.52 633.45 628.129 635.249 628.129H639.324C642.617 628.129 644.483 629.743 644.483 632.428C644.483 635.749 641.599 637.614 636.665 637.614C632.167 637.614 629.482 636.066 629.482 633.592C629.482 631.886 630.553 630.616 632.233 630.047C630.937 629.505 630.236 628.565 630.236 627.229C630.236 625.774 631.056 624.703 632.511 624.16C631.493 623.248 630.924 621.911 630.924 620.337C630.924 617.109 633.292 614.861 636.81 614.861C637.974 614.861 638.993 615.112 639.853 615.562C640.421 613.697 641.718 612.651 643.676 612.651C644.02 612.651 644.403 612.678 644.681 612.784V615.125C644.205 615.059 643.927 614.993 643.517 614.993C642.366 614.993 641.638 615.469 641.202 616.514ZM635.157 630.497C634.681 630.497 634.244 630.47 633.834 630.431C632.789 630.907 632.154 631.754 632.154 632.838C632.154 634.518 633.702 635.405 636.956 635.405C640.342 635.405 641.797 634.452 641.797 632.719C641.797 631.29 640.779 630.51 638.728 630.51H635.157V630.497ZM640.091 620.178C640.091 618.287 638.728 616.924 636.797 616.924C634.839 616.924 633.477 618.313 633.477 620.284C633.477 622.216 634.8 623.539 636.704 623.539C638.662 623.539 640.091 622.11 640.091 620.178Z" fill="#00BFFF"/>
<path d="M648.663 628.843H653.729V617.453H649.139V615.244H656.414V628.843H661.758V631.052H648.663V628.843ZM656.692 612.083H652.896V608.286H656.692V612.083Z" fill="#00BFFF"/>
<path d="M673.425 614.874C674.722 614.874 676.177 615.218 677.248 616.236C678.293 617.215 678.77 618.736 678.77 621.303V631.079H676.084V621.462C676.084 618.009 674.378 617.255 672.791 617.255C669.219 617.255 668.359 620.575 668.359 622.824V631.079H665.674V615.257H668.2V618.392C669.021 616.382 670.767 614.874 673.425 614.874Z" fill="#00BFFF"/>
<path d="M683.479 626.184L686.204 625.708C686.614 628.023 688.095 629.214 690.437 629.214C692.553 629.214 693.731 628.327 693.731 626.846C693.731 625.258 692.91 624.57 691.204 624.372L688.638 624.081C685.503 623.737 684.021 621.964 684.021 619.53C684.021 616.647 686.296 614.847 690.027 614.847C693.638 614.847 696.072 616.739 696.416 619.649L693.757 620.245C693.413 618.353 692.117 617.017 689.96 617.017C687.87 617.017 686.64 617.877 686.64 619.385C686.64 620.747 687.526 621.568 689.484 621.792L692.011 622.07C695.146 622.414 696.376 624.068 696.376 626.568C696.376 629.571 694.167 631.41 690.304 631.41C686.548 631.436 684.048 629.571 683.479 626.184Z" fill="#00BFFF"/>
<path d="M717.991 623.155C717.991 618.128 720.927 614.874 725.359 614.874C729.79 614.874 732.727 618.128 732.727 623.155C732.727 628.182 729.79 631.436 725.359 631.436C720.927 631.436 717.991 628.115 717.991 623.155ZM729.883 623.155C729.883 619.451 728.203 617.202 725.359 617.202C722.515 617.202 720.835 619.411 720.835 623.155C720.835 626.885 722.515 629.108 725.359 629.108C728.203 629.094 729.883 626.885 729.883 623.155Z" fill="#00BFFF"/>
<path d="M743.667 617.427V631.066H740.981V617.427H736.14V615.244H740.981V613.498C740.981 609.887 743.005 608.021 746.934 608.021C747.847 608.021 748.614 608.114 749.685 608.339V610.707C748.984 610.614 748.138 610.456 746.934 610.456C744.526 610.456 743.68 611.276 743.68 613.683V615.231H749.685V617.427H743.667Z" fill="#00BFFF"/>
<path d="M133.88 657.576H138.404V653.435L141.089 652.297V657.576H147.253V659.758H141.089V667.96C141.089 670.077 142.107 671.095 144.131 671.095C145.176 671.095 146.288 671.003 147.266 670.804V673.278C146.446 673.463 145.56 673.688 144.171 673.688C140.216 673.688 138.417 671.479 138.417 668.344V659.772H133.893V657.576H133.88Z" fill="#00BFFF"/>
<path d="M159.714 657.205C160.984 657.205 162.492 657.549 163.603 658.594C164.622 659.573 165.151 661.068 165.151 663.621V673.397H162.465V663.78C162.465 660.327 160.733 659.573 159.053 659.573C155.6 659.573 154.754 662.893 154.754 665.142V673.397H152.068V650.472H154.754V660.473C155.481 658.555 157.439 657.205 159.714 657.205Z" fill="#00BFFF"/>
<path d="M182.903 666.187H171.804C171.804 669.164 173.511 671.4 176.447 671.4C178.538 671.4 179.834 670.103 180.628 668.582L182.903 669.786C181.58 672.405 179.424 673.768 176.447 673.768C171.487 673.768 169.053 670.355 169.053 665.169C169.053 660.327 171.831 657.192 176.262 657.192C181.104 657.192 182.969 660.671 182.969 664.97C182.969 665.354 182.929 665.764 182.903 666.187ZM176.13 659.282C173.246 659.282 171.791 661.65 171.791 663.965H180.178C180.244 661.438 178.974 659.282 176.13 659.282Z" fill="#00BFFF"/>
<path d="M218.989 673.397H216.052V663.145H207.454V673.397H204.517V650.935H207.454V660.671H216.052V650.935H218.989V673.397Z" fill="#00BFFF"/>
<path d="M228.354 673.768C226.899 673.768 225.418 673.424 224.307 672.379C223.288 671.4 222.852 669.918 222.852 667.352V657.576H225.603V667.259C225.603 670.712 227.243 671.466 228.897 671.466C232.217 671.466 233.011 668.145 233.011 665.83V657.576H235.696V673.397H233.169V670.394C232.561 671.968 230.683 673.768 228.354 673.768Z" fill="#00BFFF"/>
<path d="M244.757 657.205C246.305 657.205 247.509 658.25 248.051 660.089C248.805 658.25 250.234 657.205 251.781 657.205C253.739 657.205 255.512 658.568 255.512 661.915V673.397H252.826V662.139C252.826 660.115 251.874 659.573 250.961 659.573C249.096 659.573 248.435 660.936 248.435 662.933V673.397H245.815V662.139C245.815 660.208 244.956 659.573 243.95 659.573C242.112 659.573 241.477 661.028 241.477 662.933V673.397H238.791V657.576H241.318V660.01C241.953 658.303 243.183 657.205 244.757 657.205Z" fill="#00BFFF"/>
<path d="M271.399 673.397H268.581C268.449 672.511 268.356 671.466 268.33 670.513C267.285 672.723 265.578 673.768 262.985 673.768C259.85 673.768 257.668 671.836 257.668 669.124C257.668 667.484 258.422 666.214 259.877 665.394C260.922 664.825 262.628 664.415 265.247 664.098L268.131 663.754V663.476C268.131 660.658 267.086 659.428 264.745 659.428C262.496 659.428 261.173 660.565 261.041 662.563H258.157C258.448 659.176 260.909 657.219 264.93 657.219C269.004 657.219 270.843 659.243 270.843 663.793V668.066C270.856 670.58 271.015 672.22 271.399 673.397ZM264.401 666.214C261.649 666.598 260.512 667.378 260.512 668.966C260.512 670.58 261.623 671.558 263.488 671.558C266.332 671.558 268.171 669.601 268.171 666.492V665.698L264.401 666.214Z" fill="#00BFFF"/>
<path d="M283.793 657.205C285.09 657.205 286.545 657.549 287.616 658.568C288.661 659.547 289.137 661.068 289.137 663.634V673.41H286.452V663.793C286.452 660.34 284.746 659.586 283.158 659.586C279.587 659.586 278.727 662.907 278.727 665.156V673.41H276.042V657.589H278.568V660.724C279.388 658.713 281.134 657.205 283.793 657.205Z" fill="#00BFFF"/>
<path d="M293.847 668.516L296.572 668.04C296.982 670.355 298.463 671.545 300.804 671.545C302.921 671.545 304.098 670.659 304.098 669.177C304.098 667.59 303.278 666.902 301.572 666.703L299.005 666.412C295.87 666.069 294.389 664.296 294.389 661.862C294.389 658.978 296.664 657.179 300.394 657.179C304.006 657.179 306.44 659.071 306.784 661.981L304.125 662.576C303.781 660.684 302.484 659.348 300.328 659.348C298.238 659.348 297.008 660.208 297.008 661.716C297.008 663.079 297.894 663.899 299.852 664.124L302.379 664.402C305.514 664.746 306.744 666.399 306.744 668.899C306.744 671.902 304.535 673.741 300.672 673.741C296.915 673.768 294.415 671.902 293.847 668.516Z" fill="#00BFFF"/>
<path d="M328.345 665.486C328.345 660.459 331.282 657.205 335.713 657.205C340.145 657.205 343.081 660.459 343.081 665.486C343.081 670.513 340.145 673.767 335.713 673.767C331.295 673.767 328.345 670.447 328.345 665.486ZM340.237 665.486C340.237 661.782 338.557 659.533 335.713 659.533C332.869 659.533 331.189 661.743 331.189 665.486C331.189 669.23 332.869 671.439 335.713 671.439C338.557 671.439 340.237 669.217 340.237 665.486Z" fill="#00BFFF"/>
<path d="M354.034 659.758V673.397H351.349V659.758H346.507V657.576H351.349V655.83C351.349 652.218 353.373 650.353 357.302 650.353C358.214 650.353 358.982 650.446 360.053 650.67V653.038C359.352 652.946 358.505 652.787 357.302 652.787C354.894 652.787 354.047 653.607 354.047 656.015V657.563H360.053V659.758H354.034Z" fill="#00BFFF"/>
<path d="M396.443 653.461H385.623V660.645H395.583V663.171H385.623V673.384H382.686V650.922H396.443V653.461Z" fill="#00BFFF"/>
<path d="M400.716 671.175H405.782V652.668H401.033V650.459H408.468V671.175H413.812V673.384H400.716V671.175Z" fill="#00BFFF"/>
<path d="M430.783 673.397H427.966C427.834 672.511 427.741 671.466 427.715 670.513C426.67 672.723 424.963 673.768 422.37 673.768C419.235 673.768 417.053 671.836 417.053 669.124C417.053 667.484 417.807 666.214 419.262 665.394C420.307 664.825 422.013 664.415 424.632 664.098L427.516 663.754V663.476C427.516 660.658 426.471 659.428 424.13 659.428C421.881 659.428 420.558 660.565 420.426 662.563H417.542C417.833 659.176 420.294 657.219 424.315 657.219C428.389 657.219 430.228 659.243 430.228 663.793V668.066C430.254 670.58 430.413 672.22 430.783 673.397ZM423.799 666.214C421.048 666.598 419.91 667.378 419.91 668.966C419.91 670.58 421.021 671.558 422.886 671.558C425.73 671.558 427.569 669.601 427.569 666.492V665.698L423.799 666.214Z" fill="#00BFFF"/>
<path d="M434.963 657.576H439.487V653.435L442.173 652.297V657.576H448.337V659.758H442.173V667.96C442.173 670.077 443.191 671.095 445.215 671.095C446.26 671.095 447.371 671.003 448.35 670.804V673.278C447.53 673.463 446.644 673.688 445.255 673.688C441.3 673.688 439.501 671.479 439.501 668.344V659.772H434.977V657.576H434.963Z" fill="#00BFFF"/>
<path d="M470.388 657.576H474.912V653.435L477.597 652.297V657.576H483.762V659.758H477.597V667.96C477.597 670.077 478.616 671.095 480.64 671.095C481.685 671.095 482.796 671.003 483.775 670.804V673.278C482.955 673.463 482.069 673.688 480.68 673.688C476.724 673.688 474.925 671.479 474.925 668.344V659.772H470.401V657.576H470.388Z" fill="#00BFFF"/>
<path d="M501.633 673.397H498.815C498.683 672.511 498.59 671.466 498.564 670.513C497.519 672.723 495.812 673.768 493.22 673.768C490.085 673.768 487.902 671.836 487.902 669.124C487.902 667.484 488.656 666.214 490.111 665.394C491.156 664.825 492.863 664.415 495.482 664.098L498.365 663.754V663.476C498.365 660.658 497.32 659.428 494.979 659.428C492.73 659.428 491.407 660.565 491.275 662.563H488.391C488.682 659.176 491.143 657.219 495.164 657.219C499.238 657.219 501.077 659.243 501.077 663.793V668.066C501.09 670.58 501.249 672.22 501.633 673.397ZM494.635 666.214C491.884 666.598 490.746 667.378 490.746 668.966C490.746 670.58 491.857 671.558 493.722 671.558C496.566 671.558 498.405 669.601 498.405 666.492V665.698L494.635 666.214Z" fill="#00BFFF"/>
<path d="M512.295 665.645L509.411 668.555V673.397H506.726V650.472H509.411V665.367L516.501 657.589H520.007L514.213 663.687L520.377 673.397H517.057L512.295 665.645Z" fill="#00BFFF"/>
<path d="M537.11 666.187H526.012C526.012 669.164 527.719 671.4 530.655 671.4C532.745 671.4 534.042 670.103 534.835 668.582L537.11 669.786C535.788 672.405 533.631 673.768 530.655 673.768C525.695 673.768 523.247 670.355 523.247 665.169C523.247 660.327 526.025 657.192 530.457 657.192C535.298 657.192 537.163 660.671 537.163 664.97C537.177 665.354 537.15 665.764 537.11 666.187ZM530.351 659.282C527.467 659.282 526.012 661.65 526.012 663.965H534.399C534.452 661.438 533.195 659.282 530.351 659.282Z" fill="#00BFFF"/>
<path d="M572.469 673.397H569.651C569.519 672.511 569.427 671.466 569.4 670.513C568.355 672.723 566.649 673.768 564.056 673.768C560.921 673.768 558.738 671.836 558.738 669.124C558.738 667.484 559.492 666.214 560.947 665.394C561.992 664.825 563.699 664.415 566.318 664.098L569.202 663.754V663.476C569.202 660.658 568.157 659.428 565.815 659.428C563.566 659.428 562.244 660.565 562.111 662.563H559.228C559.519 659.176 561.979 657.219 566 657.219C570.075 657.219 571.913 659.243 571.913 663.793V668.066C571.94 670.58 572.099 672.22 572.469 673.397ZM565.485 666.214C562.733 666.598 561.595 667.378 561.595 668.966C561.595 670.58 562.707 671.558 564.572 671.558C567.416 671.558 569.255 669.601 569.255 666.492V665.698L565.485 666.214Z" fill="#00BFFF"/>
<path d="M595.525 671.175H600.592V652.668H595.843V650.459H603.277V671.175H608.621V673.384H595.525V671.175Z" fill="#00BFFF"/>
<path d="M611.717 665.486C611.717 660.459 614.653 657.205 619.085 657.205C623.516 657.205 626.453 660.459 626.453 665.486C626.453 670.513 623.516 673.767 619.085 673.767C614.667 673.767 611.717 670.447 611.717 665.486ZM623.609 665.486C623.609 661.782 621.929 659.533 619.085 659.533C616.241 659.533 614.561 661.743 614.561 665.486C614.561 669.23 616.241 671.439 619.085 671.439C621.942 671.426 623.609 669.217 623.609 665.486Z" fill="#00BFFF"/>
<path d="M629.429 665.486C629.429 660.459 632.366 657.205 636.797 657.205C641.228 657.205 644.165 660.459 644.165 665.486C644.165 670.513 641.228 673.767 636.797 673.767C632.379 673.767 629.429 670.447 629.429 665.486ZM641.321 665.486C641.321 661.782 639.641 659.533 636.797 659.533C633.953 659.533 632.273 661.743 632.273 665.486C632.273 669.23 633.953 671.439 636.797 671.439C639.641 671.426 641.321 669.217 641.321 665.486Z" fill="#00BFFF"/>
<path d="M653.967 665.645L651.083 668.555V673.397H648.398V650.472H651.083V665.367L658.174 657.589H661.679L655.885 663.687L662.049 673.397H658.729L653.967 665.645Z" fill="#00BFFF"/>
<path d="M686.362 660.327C687.222 658.488 689.114 657.192 691.23 657.192C695.305 657.192 697.752 660.645 697.752 665.447C697.752 670.381 695.252 673.768 691.138 673.768C689.021 673.768 687.064 672.603 686.204 670.672L685.728 673.397H683.677V650.472H686.362V660.327ZM690.503 671.4C693.254 671.4 694.895 669.058 694.895 665.447C694.895 661.941 693.347 659.56 690.556 659.56C687.87 659.56 686.283 661.676 686.283 665.089V665.91C686.296 669.217 687.844 671.4 690.503 671.4Z" fill="#00BFFF"/>
<path d="M714.221 666.187H703.122C703.122 669.164 704.829 671.4 707.766 671.4C709.856 671.4 711.152 670.103 711.946 668.582L714.221 669.786C712.898 672.405 710.742 673.768 707.766 673.768C702.805 673.768 700.371 670.355 700.371 665.169C700.371 660.327 703.149 657.192 707.58 657.192C712.422 657.192 714.287 660.671 714.287 664.97C714.287 665.354 714.247 665.764 714.221 666.187ZM707.448 659.282C704.564 659.282 703.109 661.65 703.109 663.965H711.496C711.562 661.438 710.305 659.282 707.448 659.282Z" fill="#00BFFF"/>
<path d="M726.457 657.205C727.727 657.205 729.235 657.549 730.346 658.594C731.364 659.573 731.893 661.068 731.893 663.621V673.397H729.208V663.78C729.208 660.327 727.475 659.573 725.795 659.573C722.343 659.573 721.496 662.893 721.496 665.142V673.397H718.811V650.472H721.496V660.473C722.224 658.555 724.181 657.205 726.457 657.205Z" fill="#00BFFF"/>
<path d="M737.211 671.175H742.278V659.785H737.687V657.576H744.963V671.175H750.307V673.384H737.211V671.175ZM745.241 654.414H741.444V650.618H745.241V654.414Z" fill="#00BFFF"/>
<path d="M761.974 657.205C763.27 657.205 764.725 657.549 765.797 658.568C766.842 659.547 767.318 661.068 767.318 663.634V673.41H764.633V663.793C764.633 660.34 762.926 659.586 761.339 659.586C757.767 659.586 756.908 662.907 756.908 665.156V673.41H754.222V657.589H756.749V660.724C757.582 658.713 759.315 657.205 761.974 657.205Z" fill="#00BFFF"/>
<path d="M784.594 650.459V673.384H782.068V670.447C781.115 672.498 779.634 673.768 777.041 673.768C773.086 673.768 770.519 670.474 770.519 665.447C770.519 660.486 773.271 657.192 777.451 657.192C779.607 657.192 781.115 658.356 781.909 659.917V650.459H784.594ZM777.689 659.573C774.964 659.573 773.35 661.756 773.35 665.46C773.35 669.124 774.964 671.413 777.583 671.413C780.269 671.413 781.948 669.27 781.948 665.844V665.116C781.962 661.716 780.321 659.573 777.689 659.573Z" fill="#00BFFF"/>
<path d="M133.88 699.907H138.404V695.767L141.089 694.629V699.907H147.253V702.09H141.089V710.292C141.089 712.408 142.107 713.427 144.131 713.427C145.176 713.427 146.288 713.334 147.266 713.136V715.609C146.446 715.795 145.56 716.02 144.171 716.02C140.216 716.02 138.417 713.81 138.417 710.675V702.103H133.893V699.907H133.88Z" fill="#00BFFF"/>
<path d="M159.714 699.537C160.984 699.537 162.492 699.881 163.603 700.926C164.622 701.905 165.151 703.399 165.151 705.953V715.729H162.465V706.111C162.465 702.659 160.733 701.905 159.053 701.905C155.6 701.905 154.754 705.225 154.754 707.474V715.729H152.068V692.803H154.754V702.804C155.481 700.886 157.439 699.537 159.714 699.537Z" fill="#00BFFF"/>
<path d="M182.903 708.519H171.804C171.804 711.495 173.511 713.731 176.447 713.731C178.538 713.731 179.834 712.435 180.628 710.913L182.903 712.117C181.58 714.736 179.424 716.099 176.447 716.099C171.487 716.099 169.053 712.686 169.053 707.5C169.053 702.659 171.831 699.523 176.262 699.523C181.104 699.523 182.969 703.003 182.969 707.302C182.969 707.686 182.929 708.096 182.903 708.519ZM176.13 701.614C173.246 701.614 171.791 703.982 171.791 706.297H180.178C180.244 703.77 178.974 701.614 176.13 701.614Z" fill="#00BFFF"/>
<path d="M204.464 707.725C204.464 703.016 206.872 699.537 211.833 699.537C215.338 699.537 217.878 701.561 218.248 705.199L215.497 705.516C215.206 703.175 213.883 701.878 211.634 701.878C208.724 701.878 207.242 704.22 207.242 707.699C207.242 711.31 208.724 713.744 211.74 713.744C214.055 713.744 215.285 712.355 215.655 709.948L218.222 710.358C217.719 713.585 215.655 716.112 211.74 716.112C206.938 716.099 204.464 712.461 204.464 707.725Z" fill="#00BFFF"/>
<path d="M228.354 716.099C226.899 716.099 225.418 715.755 224.307 714.71C223.288 713.731 222.852 712.249 222.852 709.683V699.907H225.603V709.59C225.603 713.043 227.243 713.797 228.897 713.797C232.217 713.797 233.011 710.477 233.011 708.162V699.907H235.696V715.729H233.169V712.726C232.561 714.3 230.683 716.099 228.354 716.099Z" fill="#00BFFF"/>
<path d="M251.398 699.59C252.535 699.59 253.58 699.722 254.242 699.907V702.407C253.607 702.249 252.443 702.09 251.305 702.09C247.509 702.09 244.479 704.683 244.479 709.842V715.729H241.794V699.907H244.453V704.021C245.524 701.521 248.117 699.59 251.398 699.59Z" fill="#00BFFF"/>
<path d="M257.853 699.907H262.377V695.767L265.062 694.629V699.907H271.227V702.09H265.062V710.292C265.062 712.408 266.081 713.427 268.105 713.427C269.15 713.427 270.261 713.334 271.24 713.136V715.609C270.42 715.795 269.533 716.02 268.144 716.02C264.189 716.02 262.39 713.81 262.39 710.675V702.103H257.866V699.907H257.853Z" fill="#00BFFF"/>
<path d="M289.098 715.729H286.28C286.148 714.842 286.055 713.797 286.029 712.845C284.984 715.054 283.277 716.099 280.685 716.099C277.55 716.099 275.367 714.168 275.367 711.456C275.367 709.816 276.121 708.546 277.576 707.725C278.621 707.157 280.327 706.747 282.947 706.429L285.83 706.085V705.807C285.83 702.99 284.785 701.759 282.444 701.759C280.195 701.759 278.872 702.897 278.74 704.895H275.856C276.147 701.508 278.608 699.55 282.629 699.55C286.703 699.55 288.542 701.574 288.542 706.125V710.398C288.568 712.911 288.727 714.551 289.098 715.729ZM282.113 708.546C279.362 708.929 278.224 709.71 278.224 711.297C278.224 712.911 279.335 713.89 281.2 713.89C284.044 713.89 285.883 711.932 285.883 708.823V708.03L282.113 708.546Z" fill="#00BFFF"/>
<path d="M294.442 713.506H299.508V702.116H294.918V699.907H302.193V713.506H307.537V715.715H294.442V713.506ZM302.484 696.746H298.688V692.949H302.484V696.746Z" fill="#00BFFF"/>
<path d="M319.205 699.537C320.501 699.537 321.956 699.881 323.028 700.899C324.073 701.878 324.549 703.399 324.549 705.966V715.742H321.864V706.125C321.864 702.672 320.157 701.918 318.57 701.918C314.998 701.918 314.138 705.238 314.138 707.487V715.742H311.453V699.92H313.993V703.056C314.813 701.045 316.559 699.537 319.205 699.537Z" fill="#00BFFF"/>
<path d="M346.415 699.907H350.939V695.767L353.624 694.629V699.907H359.788V702.09H353.624V710.292C353.624 712.408 354.643 713.427 356.667 713.427C357.712 713.427 358.823 713.334 359.802 713.136V715.609C358.981 715.795 358.095 716.02 356.706 716.02C352.751 716.02 350.952 713.81 350.952 710.675V702.103H346.428V699.907H346.415Z" fill="#00BFFF"/>
<path d="M363.77 707.818C363.77 702.791 366.707 699.537 371.138 699.537C375.569 699.537 378.506 702.791 378.506 707.818C378.506 712.845 375.569 716.099 371.138 716.099C366.707 716.099 363.77 712.779 363.77 707.818ZM375.662 707.818C375.662 704.114 373.982 701.865 371.138 701.865C368.294 701.865 366.614 704.074 366.614 707.818C366.614 711.562 368.294 713.771 371.138 713.771C373.982 713.771 375.662 711.548 375.662 707.818Z" fill="#00BFFF"/>
<path d="M400.108 710.847L402.833 710.371C403.243 712.686 404.724 713.877 407.065 713.877C409.182 713.877 410.359 712.99 410.359 711.509C410.359 709.921 409.539 709.233 407.833 709.035L405.266 708.744C402.131 708.4 400.65 706.627 400.65 704.193C400.65 701.309 402.925 699.51 406.655 699.51C410.267 699.51 412.701 701.402 413.045 704.312L410.386 704.908C410.042 703.016 408.745 701.68 406.589 701.68C404.499 701.68 403.269 702.54 403.269 704.048C403.269 705.41 404.155 706.23 406.113 706.455L408.64 706.733C411.775 707.077 413.005 708.731 413.005 711.231C413.005 714.234 410.796 716.073 406.933 716.073C403.176 716.099 400.676 714.234 400.108 710.847Z" fill="#00BFFF"/>
<path d="M430.849 708.519H419.751C419.751 711.495 421.457 713.731 424.394 713.731C426.484 713.731 427.781 712.435 428.574 710.913L430.849 712.117C429.527 714.736 427.37 716.099 424.394 716.099C419.434 716.099 416.986 712.686 416.986 707.5C416.986 702.659 419.764 699.523 424.196 699.523C429.037 699.523 430.902 703.003 430.902 707.302C430.916 707.686 430.889 708.096 430.849 708.519ZM424.077 701.614C421.193 701.614 419.738 703.982 419.738 706.297H428.124C428.191 703.77 426.934 701.614 424.077 701.614Z" fill="#00BFFF"/>
<path d="M448.562 708.519H437.464C437.464 711.495 439.17 713.731 442.107 713.731C444.197 713.731 445.493 712.435 446.287 710.913L448.562 712.117C447.239 714.736 445.083 716.099 442.107 716.099C437.146 716.099 434.699 712.686 434.699 707.5C434.699 702.659 437.477 699.523 441.908 699.523C446.75 699.523 448.615 703.003 448.615 707.302C448.628 707.686 448.588 708.096 448.562 708.519ZM441.789 701.614C438.905 701.614 437.45 703.982 437.45 706.297H445.837C445.903 703.77 444.646 701.614 441.789 701.614Z" fill="#00BFFF"/>
<path d="M470.388 699.907H474.912V695.767L477.597 694.629V699.907H483.762V702.09H477.597V710.292C477.597 712.408 478.616 713.427 480.64 713.427C481.685 713.427 482.796 713.334 483.775 713.136V715.609C482.955 715.795 482.069 716.02 480.68 716.02C476.724 716.02 474.925 713.81 474.925 710.675V702.103H470.401V699.907H470.388Z" fill="#00BFFF"/>
<path d="M496.222 699.537C497.492 699.537 499 699.881 500.112 700.926C501.13 701.905 501.659 703.399 501.659 705.953V715.729H498.974V706.111C498.974 702.659 497.228 701.905 495.561 701.905C492.109 701.905 491.262 705.225 491.262 707.474V715.729H488.577V692.803H491.262V702.804C491.989 700.886 493.947 699.537 496.222 699.537Z" fill="#00BFFF"/>
<path d="M519.398 708.519H508.3C508.3 711.495 510.006 713.731 512.943 713.731C515.033 713.731 516.329 712.435 517.123 710.913L519.398 712.117C518.075 714.736 515.919 716.099 512.943 716.099C507.982 716.099 505.535 712.686 505.535 707.5C505.535 702.659 508.313 699.523 512.744 699.523C517.586 699.523 519.451 703.003 519.451 707.302C519.464 707.686 519.438 708.096 519.398 708.519ZM512.639 701.614C509.755 701.614 508.3 703.982 508.3 706.297H516.686C516.752 703.77 515.483 701.614 512.639 701.614Z" fill="#00BFFF"/>
<path d="M524.689 713.506H529.756V702.116H525.165V699.907H532.441V713.506H537.785V715.715H524.689V713.506ZM532.719 696.746H528.922V692.949H532.719V696.746Z" fill="#00BFFF"/>
<path d="M552.481 699.59C553.619 699.59 554.664 699.722 555.325 699.907V702.407C554.69 702.249 553.526 702.09 552.389 702.09C548.592 702.09 545.563 704.683 545.563 709.842V715.729H542.878V699.907H545.537V704.021C546.608 701.521 549.201 699.59 552.481 699.59Z" fill="#00BFFF"/>
<path d="M576.649 699.907H581.173V695.767L583.858 694.629V699.907H590.023V702.09H583.858V710.292C583.858 712.408 584.877 713.427 586.901 713.427C587.946 713.427 589.057 713.334 590.036 713.136V715.609C589.216 715.795 588.329 716.02 586.941 716.02C582.985 716.02 581.186 713.81 581.186 710.675V702.103H576.662V699.907H576.649Z" fill="#00BFFF"/>
<path d="M605.619 699.59C606.756 699.59 607.801 699.722 608.463 699.907V702.407C607.828 702.249 606.664 702.09 605.526 702.09C601.73 702.09 598.7 704.683 598.7 709.842V715.729H596.015V699.907H598.674V704.021C599.732 701.521 602.325 699.59 605.619 699.59Z" fill="#00BFFF"/>
<path d="M617.987 716.099C616.532 716.099 615.05 715.755 613.939 714.71C612.92 713.731 612.484 712.249 612.484 709.683V699.907H615.235V709.59C615.235 713.043 616.876 713.797 618.529 713.797C621.849 713.797 622.643 710.477 622.643 708.162V699.907H625.328V715.729H622.802V712.726C622.193 714.3 620.328 716.099 617.987 716.099Z" fill="#00BFFF"/>
<path d="M643.385 708.519H632.286C632.286 711.495 633.993 713.731 636.929 713.731C639.019 713.731 640.316 712.435 641.109 710.913L643.385 712.117C642.062 714.736 639.906 716.099 636.929 716.099C631.969 716.099 629.535 712.686 629.535 707.5C629.535 702.659 632.313 699.523 636.744 699.523C641.586 699.523 643.451 703.003 643.451 707.302C643.437 707.686 643.411 708.096 643.385 708.519ZM636.612 701.614C633.728 701.614 632.273 703.982 632.273 706.297H640.66C640.726 703.77 639.456 701.614 636.612 701.614Z" fill="#00BFFF"/>
<path d="M666.375 713.506H671.441V702.116H666.851V699.907H674.127V713.506H679.471V715.715H666.375V713.506ZM674.404 696.746H670.608V692.949H674.404V696.746Z" fill="#00BFFF"/>
<path d="M691.138 699.537C692.434 699.537 693.889 699.881 694.961 700.899C696.006 701.878 696.482 703.399 696.482 705.966V715.742H693.797V706.125C693.797 702.672 692.09 701.918 690.503 701.918C686.931 701.918 686.072 705.238 686.072 707.487V715.742H683.386V699.92H685.913V703.056C686.733 701.045 688.479 699.537 691.138 699.537Z" fill="#00BFFF"/>
<path d="M700.622 699.907H705.146V695.767L707.832 694.629V699.907H713.996V702.09H707.832V710.292C707.832 712.408 708.85 713.427 710.874 713.427C711.919 713.427 713.03 713.334 714.009 713.136V715.609C713.189 715.795 712.303 716.02 710.914 716.02C706.959 716.02 705.16 713.81 705.16 710.675V702.103H700.635V699.907H700.622Z" fill="#00BFFF"/>
<path d="M731.933 708.519H720.835C720.835 711.495 722.541 713.731 725.478 713.731C727.568 713.731 728.864 712.435 729.658 710.913L731.933 712.117C730.61 714.736 728.454 716.099 725.478 716.099C720.517 716.099 718.083 712.686 718.083 707.5C718.083 702.659 720.861 699.523 725.293 699.523C730.134 699.523 731.999 703.003 731.999 707.302C731.999 707.686 731.96 708.096 731.933 708.519ZM725.161 701.614C722.277 701.614 720.822 703.982 720.822 706.297H729.208C729.274 703.77 728.005 701.614 725.161 701.614Z" fill="#00BFFF"/>
<path d="M744.262 699.537C745.558 699.537 747.013 699.881 748.085 700.899C749.13 701.878 749.606 703.399 749.606 705.966V715.742H746.921V706.125C746.921 702.672 745.214 701.918 743.627 701.918C740.055 701.918 739.195 705.238 739.195 707.487V715.742H736.51V699.92H739.037V703.056C739.87 701.045 741.603 699.537 744.262 699.537Z" fill="#00BFFF"/>
<path d="M765.334 705.661V708.188H756.193V705.661H765.334Z" fill="#00BFFF"/>
<path d="M133.88 742.239H138.404V738.098L141.089 736.96V742.239H147.253V744.421H141.089V752.623C141.089 754.74 142.107 755.758 144.131 755.758C145.176 755.758 146.288 755.666 147.266 755.467V757.941C146.446 758.126 145.56 758.351 144.171 758.351C140.216 758.351 138.417 756.142 138.417 753.007V744.435H133.893V742.239H133.88Z" fill="#00BFFF"/>
<path d="M152.756 755.838H157.822V744.448H153.232V742.239H160.508V755.838H165.852V758.047H152.756V755.838ZM160.799 739.077H157.002V735.281H160.799V739.077Z" fill="#00BFFF"/>
<path d="M168.96 750.149C168.96 745.122 171.897 741.868 176.328 741.868C180.76 741.868 183.697 745.122 183.697 750.149C183.697 755.176 180.76 758.43 176.328 758.43C171.897 758.43 168.96 755.11 168.96 750.149ZM180.852 750.149C180.852 746.445 179.172 744.196 176.328 744.196C173.484 744.196 171.804 746.406 171.804 750.149C171.804 753.893 173.484 756.102 176.328 756.102C179.172 756.089 180.852 753.88 180.852 750.149Z" fill="#00BFFF"/>
<path d="M195.231 741.868C196.528 741.868 197.983 742.212 199.054 743.231C200.099 744.21 200.576 745.731 200.576 748.297V758.073H197.89V748.456C197.89 745.003 196.184 744.249 194.596 744.249C191.025 744.249 190.165 747.57 190.165 749.819V758.073H187.48V742.252H190.006V745.387C190.84 743.376 192.586 741.868 195.231 741.868Z" fill="#00BFFF"/>
<path d="M205.298 753.179L208.023 752.703C208.433 755.018 209.915 756.208 212.256 756.208C214.372 756.208 215.55 755.322 215.55 753.84C215.55 752.253 214.73 751.565 213.023 751.366L210.457 751.076C207.322 750.732 205.84 748.959 205.84 746.525C205.84 743.641 208.116 741.842 211.846 741.842C215.457 741.842 217.891 743.734 218.235 746.644L215.576 747.239C215.232 745.347 213.936 744.011 211.78 744.011C209.69 744.011 208.459 744.871 208.459 746.379C208.459 747.742 209.346 748.562 211.304 748.787L213.83 749.065C216.965 749.409 218.195 751.062 218.195 753.562C218.195 756.565 215.986 758.404 212.124 758.404C208.367 758.431 205.867 756.565 205.298 753.179Z" fill="#00BFFF"/>
<path d="M241.067 742.239L242.68 753.086L242.998 755.335H243.223C243.355 754.607 243.448 754.105 243.725 752.676L245.776 742.239H248.527L250.577 752.676C250.869 754.105 250.961 754.607 251.08 755.335H251.305L251.623 753.086L253.236 742.239H256.054L252.985 758.06H249.599L247.548 747.848C247.416 747.213 247.297 745.89 247.257 745.255H247.032C247.006 745.89 246.874 747.213 246.755 747.848L244.704 758.06H241.318L238.249 742.239H241.067Z" fill="#00BFFF"/>
<path d="M259.03 755.838H264.097V744.448H259.506V742.239H266.782V755.838H272.126V758.047H259.03V755.838ZM267.06 739.077H263.263V735.281H267.06V739.077Z" fill="#00BFFF"/>
<path d="M275.565 742.239H280.089V738.098L282.775 736.96V742.239H288.939V744.421H282.775V752.623C282.775 754.74 283.793 755.758 285.817 755.758C286.862 755.758 287.973 755.666 288.952 755.467V757.941C288.132 758.126 287.246 758.351 285.857 758.351C281.902 758.351 280.103 756.142 280.103 753.007V744.435H275.579V742.239H275.565Z" fill="#00BFFF"/>
<path d="M301.4 741.868C302.67 741.868 304.178 742.212 305.289 743.257C306.307 744.236 306.836 745.731 306.836 748.284V758.06H304.151V748.443C304.151 744.99 302.405 744.236 300.738 744.236C297.286 744.236 296.439 747.557 296.439 749.805V758.06H293.754V735.135H296.439V745.136C297.167 743.218 299.124 741.868 301.4 741.868Z" fill="#00BFFF"/>
<path d="M328.702 742.239H333.227V738.098L335.912 736.96V742.239H342.076V744.421H335.912V752.623C335.912 754.74 336.93 755.758 338.954 755.758C339.999 755.758 341.11 755.666 342.089 755.467V757.941C341.269 758.126 340.383 758.351 338.994 758.351C335.039 758.351 333.24 756.142 333.24 753.007V744.435H328.716V742.239H328.702Z" fill="#00BFFF"/>
<path d="M354.537 741.868C355.807 741.868 357.315 742.212 358.426 743.257C359.444 744.236 359.974 745.731 359.974 748.284V758.06H357.288V748.443C357.288 744.99 355.542 744.236 353.875 744.236C350.423 744.236 349.576 747.557 349.576 749.805V758.06H346.891V735.135H349.576V745.136C350.304 743.218 352.262 741.868 354.537 741.868Z" fill="#00BFFF"/>
<path d="M377.725 750.85H366.627C366.627 753.827 368.334 756.062 371.27 756.062C373.36 756.062 374.657 754.766 375.45 753.245L377.725 754.449C376.403 757.068 374.247 758.43 371.27 758.43C366.31 758.43 363.863 755.017 363.863 749.832C363.863 744.99 366.64 741.855 371.072 741.855C375.913 741.855 377.778 745.334 377.778 749.633C377.778 750.017 377.752 750.427 377.725 750.85ZM370.953 743.945C368.069 743.945 366.614 746.313 366.614 748.628H375.001C375.067 746.101 373.797 743.945 370.953 743.945Z" fill="#00BFFF"/>
<path d="M400.716 755.838H405.782V737.331H401.033V735.122H408.468V755.838H413.812V758.047H400.716V755.838Z" fill="#00BFFF"/>
<path d="M418.415 755.838H423.481V744.448H418.891V742.239H426.167V755.838H431.511V758.047H418.415V755.838ZM426.458 739.077H422.661V735.281H426.458V739.077Z" fill="#00BFFF"/>
<path d="M441.445 750.308L438.562 753.218V758.06H435.876V735.135H438.562V750.03L445.652 742.252H449.157L443.363 748.35L449.527 758.06H446.207L441.445 750.308Z" fill="#00BFFF"/>
<path d="M466.274 750.85H455.176C455.176 753.827 456.882 756.062 459.819 756.062C461.909 756.062 463.205 754.766 463.999 753.245L466.274 754.449C464.951 757.068 462.795 758.43 459.819 758.43C454.858 758.43 452.411 755.017 452.411 749.832C452.411 744.99 455.189 741.855 459.621 741.855C464.462 741.855 466.327 745.334 466.327 749.633C466.34 750.017 466.301 750.427 466.274 750.85ZM459.501 743.945C456.618 743.945 455.163 746.313 455.163 748.628H463.549C463.615 746.101 462.345 743.945 459.501 743.945Z" fill="#00BFFF"/>
<path d="M470.957 753.179L473.682 752.703C474.092 755.018 475.574 756.208 477.915 756.208C480.031 756.208 481.209 755.322 481.209 753.84C481.209 752.253 480.389 751.565 478.682 751.366L476.116 751.076C472.981 750.732 471.499 748.959 471.499 746.525C471.499 743.641 473.775 741.842 477.505 741.842C481.116 741.842 483.55 743.734 483.894 746.644L481.235 747.239C480.891 745.347 479.595 744.011 477.439 744.011C475.349 744.011 474.118 744.871 474.118 746.379C474.118 747.742 475.005 748.562 476.963 748.787L479.489 749.065C482.624 749.409 483.854 751.062 483.854 753.562C483.854 756.565 481.645 758.404 477.783 758.404C474.026 758.431 471.526 756.565 470.957 753.179Z" fill="#00BFFF"/>
<path d="M505.456 750.149C505.456 745.122 508.392 741.868 512.824 741.868C517.255 741.868 520.192 745.122 520.192 750.149C520.192 755.176 517.255 758.43 512.824 758.43C508.392 758.43 505.456 755.11 505.456 750.149ZM517.348 750.149C517.348 746.445 515.668 744.196 512.824 744.196C509.98 744.196 508.3 746.406 508.3 750.149C508.3 753.893 509.98 756.102 512.824 756.102C515.668 756.102 517.348 753.88 517.348 750.149Z" fill="#00BFFF"/>
<path d="M531.144 744.421V758.06H528.459V744.421H523.618V742.239H528.459V740.493C528.459 736.881 530.483 735.016 534.412 735.016C535.325 735.016 536.092 735.108 537.163 735.333V737.701C536.462 737.609 535.616 737.45 534.412 737.45C532.004 737.45 531.158 738.27 531.158 740.678V742.225H537.163V744.421H531.144Z" fill="#00BFFF"/>
<path d="M564.85 758.43C563.395 758.43 561.913 758.087 560.802 757.042C559.783 756.063 559.347 754.581 559.347 752.015V742.239H562.098V751.922C562.098 755.375 563.738 756.129 565.392 756.129C568.712 756.129 569.506 752.808 569.506 750.493V742.239H572.191V758.06H569.665V755.057C569.056 756.631 567.191 758.43 564.85 758.43Z" fill="#00BFFF"/>
<path d="M577.218 753.179L579.943 752.703C580.353 755.018 581.834 756.208 584.176 756.208C586.292 756.208 587.47 755.322 587.47 753.84C587.47 752.253 586.649 751.565 584.943 751.366L582.377 751.076C579.242 750.732 577.76 748.959 577.76 746.525C577.76 743.641 580.035 741.842 583.766 741.842C587.377 741.842 589.811 743.734 590.155 746.644L587.496 747.239C587.152 745.347 585.856 744.011 583.7 744.011C581.61 744.011 580.379 744.871 580.379 746.379C580.379 747.742 581.266 748.562 583.223 748.787L585.75 749.065C588.885 749.409 590.115 751.062 590.115 753.562C590.115 756.565 587.906 758.404 584.043 758.404C580.287 758.431 577.787 756.565 577.218 753.179Z" fill="#00BFFF"/>
<path d="M603.462 758.06H599.256V754.012H603.462V758.06Z" fill="#00BFFF"/>
</g>
</g>
<path id="button-hole" d="M1954.69 1075.62H1197.07C1181.21 1081.21 1168.34 1068.34 1168.34 1052.47V851.479C1168.34 835.618 1181.2 822.747 1197.07 817.164H1953.57C1969.43 822.747 1982.3 835.605 1982.3 851.479V1053.59C1982.3 1068.84 1969.95 1081.21 1954.69 1075.62Z" fill="white" stroke="#FF931E" stroke-width="3" stroke-miterlimit="10"/>
<g id="take-a-peak-button">
<path id="Vector_20" d="M1953.23 1076.24H1196.73C1180.87 1081.82 1168 1068.95 1168 1053.09V851.315C1168 835.454 1180.86 822.582 1196.73 817H1953.23C1969.09 822.582 1981.96 835.441 1981.96 851.315V1053.08C1981.96 1068.95 1969.1 1081.81 1953.23 1076.24Z" fill="#FF931E"/>
<g id="Vector_21">
<path d="M1302.01 869.212C1302.01 867.453 1302.54 866.103 1303.59 865.164C1304.63 864.225 1306.14 863.749 1308.1 863.749H1392.84C1394.79 863.749 1396.3 864.225 1397.35 865.164C1398.39 866.117 1398.92 867.466 1398.92 869.212C1398.92 870.972 1398.39 872.334 1397.35 873.313C1396.3 874.292 1394.79 874.781 1392.84 874.781H1372.47V922.021C1372.47 926.148 1371.37 929.283 1369.17 931.44C1366.98 933.609 1363.85 934.681 1359.79 934.681H1341.14C1337.08 934.681 1333.96 933.596 1331.76 931.44C1329.57 929.283 1328.47 926.135 1328.47 922.021V874.781H1308.1C1306.14 874.781 1304.63 874.292 1303.59 873.313C1302.53 872.334 1302.01 870.972 1302.01 869.212Z" fill="white"/>
<path d="M1405.19 876.409C1405.19 872.282 1406.29 869.147 1408.49 866.977C1410.68 864.821 1413.8 863.736 1417.86 863.736H1491.24C1495.29 863.736 1498.42 864.821 1500.62 866.977C1502.82 869.147 1503.91 872.282 1503.91 876.409V922.021C1503.91 926.149 1502.82 929.284 1500.62 931.44C1498.42 933.61 1495.3 934.681 1491.24 934.681H1472.59C1468.54 934.681 1465.41 933.596 1463.21 931.44C1461.01 929.284 1459.92 926.136 1459.92 922.021V904.48H1449.18V922.021C1449.18 926.149 1448.08 929.284 1445.88 931.44C1443.69 933.61 1440.56 934.681 1436.5 934.681H1417.85C1413.79 934.681 1410.67 933.596 1408.47 931.44C1406.28 929.284 1405.18 926.136 1405.18 922.021V876.409H1405.19ZM1449.18 893.54H1459.92V879.148C1459.92 877.798 1459.53 876.727 1458.75 875.96C1457.97 875.179 1456.91 874.795 1455.56 874.795H1453.54C1452.19 874.795 1451.12 875.179 1450.35 875.96C1449.57 876.74 1449.19 877.798 1449.19 879.148V893.54H1449.18Z" fill="white"/>
<path d="M1523.37 934.694C1519.32 934.694 1516.19 933.61 1513.99 931.453C1511.8 929.297 1510.7 926.149 1510.7 922.035V876.422C1510.7 872.295 1511.8 869.16 1513.99 866.99C1516.19 864.834 1519.31 863.749 1523.37 863.749H1542.02C1546.08 863.749 1549.21 864.834 1551.4 866.99C1553.6 869.16 1554.7 872.295 1554.7 876.422V885.643C1554.7 886.992 1555.08 888.064 1555.86 888.831C1556.64 889.611 1557.7 889.995 1559.05 889.995H1561.07C1562.49 889.995 1563.58 889.611 1564.37 888.831C1565.15 888.05 1565.53 886.992 1565.53 885.643V876.422C1565.53 872.295 1566.61 869.16 1568.77 866.99C1570.93 864.834 1574.07 863.749 1578.2 863.749H1597.77C1601.48 863.749 1604.35 864.834 1606.38 866.99C1608.4 869.16 1609.42 872.163 1609.42 876.012V883.315C1609.42 886.688 1608.36 889.36 1606.23 891.318C1604.1 893.276 1601.28 894.255 1597.77 894.255H1574.46V899.731H1597.77C1601.55 899.731 1604.43 900.71 1606.43 902.668C1608.43 904.626 1609.42 907.536 1609.42 911.386V922.021C1609.42 926.149 1608.34 929.284 1606.18 931.44C1604.01 933.61 1600.87 934.681 1596.75 934.681H1578.2C1574.07 934.681 1570.94 933.596 1568.77 931.44C1566.6 929.284 1565.53 926.136 1565.53 922.021V908.846C1565.53 907.43 1565.15 906.332 1564.37 905.552C1563.58 904.771 1562.49 904.388 1561.07 904.388H1559.05C1557.7 904.388 1556.63 904.771 1555.86 905.552C1555.08 906.332 1554.7 907.43 1554.7 908.846V922.021C1554.7 926.149 1553.6 929.284 1551.4 931.44C1549.21 933.61 1546.08 934.681 1542.02 934.681H1523.37V934.694Z" fill="white"/>
<path d="M1616.31 913.912C1616.31 909.851 1617.24 906.729 1619.1 904.533C1620.95 902.337 1623.64 901.239 1627.16 901.239V897.085C1623.64 897.085 1620.95 896.001 1619.1 893.844C1617.24 891.688 1616.31 888.54 1616.31 884.426V876.422C1616.31 872.295 1617.41 869.16 1619.61 866.99C1621.8 864.834 1624.92 863.749 1628.98 863.749H1696.59C1698.55 863.749 1700.06 864.226 1701.1 865.165C1702.15 866.117 1702.68 867.467 1702.68 869.213C1702.68 870.972 1702.15 872.335 1701.1 873.314C1700.06 874.293 1698.55 874.782 1696.59 874.782H1660.31V893.13H1696.59C1698.55 893.13 1700.06 893.606 1701.1 894.546C1702.15 895.485 1702.68 896.847 1702.68 898.594C1702.68 900.34 1702.15 901.715 1701.1 902.694C1700.06 903.673 1698.55 904.163 1696.59 904.163H1660.31V923.622H1696.59C1698.55 923.622 1700.06 924.098 1701.1 925.038C1702.15 925.977 1702.68 927.366 1702.68 929.191C1702.68 930.951 1702.15 932.3 1701.1 933.253C1700.06 934.192 1698.55 934.668 1696.59 934.668H1628.98C1624.94 934.668 1621.8 933.583 1619.61 931.427C1617.41 929.271 1616.31 926.122 1616.31 922.008V913.912Z" fill="white"/>
<path d="M1759.43 876.409C1759.43 872.282 1760.52 869.147 1762.72 866.977C1764.92 864.821 1768.04 863.736 1772.1 863.736H1845.47C1849.52 863.736 1852.66 864.821 1854.85 866.977C1857.05 869.147 1858.15 872.282 1858.15 876.409V922.021C1858.15 926.149 1857.05 929.284 1854.85 931.44C1852.66 933.61 1849.54 934.681 1845.47 934.681H1826.82C1822.78 934.681 1819.64 933.596 1817.44 931.44C1815.25 929.284 1814.15 926.136 1814.15 922.021V904.48H1803.41V922.021C1803.41 926.149 1802.31 929.284 1800.12 931.44C1797.92 933.61 1794.8 934.681 1790.74 934.681H1772.09C1768.02 934.681 1764.9 933.596 1762.71 931.44C1760.51 929.284 1759.41 926.136 1759.41 922.021V876.409H1759.43ZM1803.41 893.54H1814.15V879.148C1814.15 877.798 1813.77 876.727 1812.99 875.96C1812.21 875.179 1811.15 874.795 1809.8 874.795H1807.77C1806.43 874.795 1805.35 875.179 1804.59 875.96C1803.81 876.74 1803.42 877.798 1803.42 879.148V893.54H1803.41Z" fill="white"/>
<path d="M1319.49 1024.9C1314.42 1024.9 1310.53 1023.55 1307.83 1020.85C1305.13 1018.15 1303.79 1014.26 1303.79 1009.2V969.671C1303.79 964.604 1305.13 960.715 1307.83 958.016C1310.53 955.318 1314.42 953.968 1319.49 953.968H1423.88C1428.95 953.968 1432.84 955.318 1435.54 958.016C1438.24 960.715 1439.58 964.604 1439.58 969.671V980.624C1439.58 985.691 1438.24 989.58 1435.54 992.279C1432.84 994.977 1428.95 996.327 1423.88 996.327H1364.6V1009.2C1364.6 1014.26 1363.25 1018.15 1360.55 1020.85C1357.85 1023.55 1353.96 1024.9 1348.89 1024.9H1319.49ZM1373.21 983.138C1374.97 983.138 1376.33 982.648 1377.31 981.669C1378.29 980.69 1378.78 979.328 1378.78 977.568V972.7C1378.78 970.941 1378.29 969.578 1377.31 968.599C1376.33 967.62 1374.95 967.131 1373.21 967.131H1364.6V983.151H1373.21V983.138Z" fill="white"/>
<path d="M1447.1 1007.68C1447.1 1002.61 1448.32 998.721 1450.75 996.022C1453.18 993.323 1456.7 991.974 1461.29 991.974V986.908C1456.7 986.908 1453.18 985.558 1450.75 982.86C1448.32 980.161 1447.1 976.272 1447.1 971.205V969.684C1447.1 964.617 1448.45 960.728 1451.15 958.03C1453.84 955.331 1457.73 953.982 1462.8 953.982H1561.11C1563.55 953.982 1565.42 954.59 1566.73 955.807C1568.06 957.024 1568.7 958.784 1568.7 961.072C1568.7 963.361 1568.04 965.12 1566.73 966.337C1565.41 967.554 1563.55 968.163 1561.11 968.163H1507.89V981.537H1561.11C1563.55 981.537 1565.42 982.145 1566.73 983.362C1568.06 984.579 1568.7 986.339 1568.7 988.627C1568.7 990.929 1568.04 992.688 1566.73 993.892C1565.41 995.109 1563.55 995.718 1561.11 995.718H1507.89V1010.72H1561.11C1563.55 1010.72 1565.42 1011.33 1566.73 1012.54C1568.06 1013.76 1568.7 1015.52 1568.7 1017.81C1568.7 1020.1 1568.04 1021.86 1566.73 1023.07C1565.41 1024.29 1563.55 1024.9 1561.11 1024.9H1462.8C1457.73 1024.9 1453.84 1023.55 1451.15 1020.85C1448.45 1018.15 1447.1 1014.26 1447.1 1009.2V1007.68Z" fill="white"/>
<path d="M1576.22 969.658C1576.22 964.591 1577.57 960.702 1580.28 958.003C1582.98 955.305 1586.87 953.955 1591.93 953.955H1696.33C1701.39 953.955 1705.28 955.305 1707.98 958.003C1710.68 960.702 1712.03 964.591 1712.03 969.658V1009.18C1712.03 1014.25 1710.68 1018.14 1707.98 1020.84C1705.28 1023.54 1701.39 1024.89 1696.33 1024.89H1666.94C1661.87 1024.89 1657.98 1023.54 1655.28 1020.84C1652.58 1018.14 1651.22 1014.25 1651.22 1009.18V996.313H1637.03V1009.18C1637.03 1014.25 1635.68 1018.14 1632.97 1020.84C1630.25 1023.54 1626.38 1024.89 1621.31 1024.89H1591.92C1586.85 1024.89 1582.96 1023.54 1580.27 1020.84C1577.57 1018.14 1576.2 1014.25 1576.2 1009.18V969.658H1576.22ZM1637.04 982.132H1651.23V973.719C1651.23 971.959 1650.74 970.597 1649.77 969.618C1648.79 968.639 1647.41 968.15 1645.66 968.15H1642.62C1640.86 968.15 1639.5 968.639 1638.52 969.618C1637.54 970.597 1637.05 971.973 1637.05 973.719V982.132H1637.04Z" fill="white"/>
<path d="M1735.76 1024.9C1730.69 1024.9 1726.81 1023.55 1724.11 1020.85C1721.41 1018.15 1720.06 1014.26 1720.06 1009.2V969.671C1720.06 964.604 1721.41 960.715 1724.11 958.016C1726.81 955.318 1730.69 953.968 1735.76 953.968H1765.15C1770.22 953.968 1774.11 955.318 1776.81 958.016C1779.51 960.715 1780.87 964.604 1780.87 969.671V974.539C1780.87 976.298 1781.36 977.661 1782.34 978.64C1783.32 979.619 1784.68 980.108 1786.44 980.108H1789.48C1791.24 980.108 1792.6 979.619 1793.58 978.64C1794.56 977.661 1795.05 976.298 1795.05 974.539V969.671C1795.05 964.604 1796.4 960.715 1799.11 958.016C1801.81 955.318 1805.7 953.968 1810.76 953.968H1841.78C1846.24 953.968 1849.71 955.318 1852.17 958.016C1854.63 960.715 1855.87 964.406 1855.87 969.062V971.192C1855.87 975.174 1854.55 978.349 1851.92 980.717C1849.28 983.085 1845.9 984.262 1841.78 984.262H1809.24V991.366H1841.78C1846.37 991.366 1849.88 992.57 1852.27 994.964C1854.67 997.358 1855.87 1000.86 1855.87 1005.45V1009.2C1855.87 1014.26 1854.52 1018.15 1851.81 1020.85C1849.1 1023.55 1845.22 1024.9 1840.16 1024.9H1810.76C1805.7 1024.9 1801.81 1023.55 1799.11 1020.85C1796.41 1018.15 1795.05 1014.26 1795.05 1009.2V1001.9C1795.05 1000.14 1794.56 998.774 1793.58 997.795C1792.6 996.816 1791.23 996.327 1789.48 996.327H1786.44C1784.68 996.327 1783.32 996.816 1782.34 997.795C1781.36 998.774 1780.87 1000.15 1780.87 1001.9V1009.2C1780.87 1014.26 1779.52 1018.15 1776.81 1020.85C1774.1 1023.55 1770.22 1024.9 1765.15 1024.9H1735.76Z" fill="white"/>
</g>
</g>
</g>
</svg>
