<svg width="1892" height="2168" viewBox="0 0 1892 2168" fill="none" xmlns="http://www.w3.org/2000/svg">
<path d="M1831.03 81.0229H90.3213V1587.44H1831.03V81.0229Z" stroke="#00BFFF" stroke-width="3" stroke-miterlimit="10" stroke-linecap="round"/>
<path d="M1696.96 80.2915V1586.7" stroke="#00BFFF" stroke-width="3" stroke-miterlimit="10" stroke-linecap="round"/>
<path d="M1090.35 80.2915V1586.7" stroke="#00BFFF" stroke-width="3" stroke-miterlimit="10" stroke-linecap="round"/>
<path d="M926.245 80.2915V1586.7" stroke="#00BFFF" stroke-width="3" stroke-miterlimit="10" stroke-linecap="round"/>
<path d="M1229.55 370.43V1586.7" stroke="#00BFFF" stroke-width="3" stroke-miterlimit="10" stroke-linecap="round"/>
<path d="M1528.46 80.2915V1013.74" stroke="#00BFFF" stroke-width="3" stroke-miterlimit="10" stroke-linecap="round"/>
<path d="M1364.34 370.43V1013.74" stroke="#00BFFF" stroke-width="3" stroke-miterlimit="10" stroke-linecap="round"/>
<path d="M1090.35 370.43H1364.34" stroke="#00BFFF" stroke-width="3" stroke-miterlimit="10" stroke-linecap="round"/>
<path d="M1091.08 833.49H1528.46" stroke="#00BFFF" stroke-width="3" stroke-miterlimit="10" stroke-linecap="round"/>
<path d="M1091.08 1013.74H1696.96" stroke="#00BFFF" stroke-width="3" stroke-miterlimit="10" stroke-linecap="round"/>
<path d="M90.3215 81.0229C89.5904 80.2917 142.336 116.927 142.336 210.715C142.336 311.83 89.5904 370.445 90.3215 370.445C90.3215 370.445 142.336 464.98 142.336 583.308C142.336 701.636 112.727 786.574 90.9003 843.011C90.9003 843.011 151.125 974.18 151.125 1196.91C151.125 1419.65 90.3215 1587.44 90.3215 1587.44" stroke="#00BFFF" stroke-width="3" stroke-miterlimit="10" stroke-linecap="round"/>
<path d="M855.176 1528.56C828.064 1528.56 791.539 1528.56 791.539 1528.56L655.859 1013.74V648.854C655.859 648.854 842.991 594.641 842.991 370.43C842.991 146.219 661.952 53.3145 652.234 46.5817C633.561 33.649 619.121 57.3512 632.388 69.3242C613.927 57.9453 600.174 82.0435 614.521 93.5138C595.467 80.3222 580.815 105.243 595.467 116.957C595.467 116.957 633.18 141.817 637.582 149.144C637.582 149.144 625.93 162.396 617.202 174.156C605.337 190.166 627.316 204.652 639.044 190.166L659.56 166.722C659.56 166.722 741.611 206.282 741.611 345.494C741.611 478.842 659.56 531.593 599.488 531.593C594.005 531.593 576.245 531.593 552.652 531.593L540.04 472.048C562.446 462.847 578.225 440.821 578.225 415.092C578.225 381.108 550.672 353.552 516.691 353.552C482.71 353.552 455.156 381.108 455.156 415.092C455.156 441.43 471.698 463.883 494.941 472.672L481.842 531.593C420.186 531.593 357.707 531.593 357.707 531.593C357.707 531.593 146.738 531.623 146.738 741.18C146.738 741.18 140.874 960.989 387.042 960.989V1015.2L277.148 1528.09C276.143 1528.09 270.828 1528.09 247.234 1528.09C212.674 1528.09 208.973 1587.44 248.194 1587.44C287.414 1587.44 413.362 1586.7 413.362 1586.7L514.878 1013.74H533.978L663.505 1587.44C663.505 1587.44 828.079 1587.44 855.191 1587.44C882.287 1587.44 882.288 1528.56 855.176 1528.56ZM386.296 832.759C311.571 832.759 282.266 792.743 282.266 743.374C282.266 694.004 317.435 653.988 386.296 653.988V832.759Z" fill="#00BFFF"/>
<g clip-path="url(#clip0)">
<path d="M822.75 2126.47H110.018C86.794 2126.47 67.9697 2107.64 67.9697 2084.4V1826.94C67.9697 1803.7 86.794 1784.87 110.018 1784.87H822.75C845.974 1784.87 864.798 1803.7 864.798 1826.94V2084.39C864.81 2107.64 845.974 2126.47 822.75 2126.47Z" fill="#D7F7FF" stroke="#00BFFF" stroke-width="3" stroke-miterlimit="10" stroke-linecap="round" stroke-linejoin="round"/>
<path d="M110.736 1841.2H103.412L101.491 1847.28H98.7651L105.519 1826.22H108.654L115.408 1847.28H112.682L110.736 1841.2ZM104.156 1838.83H109.993C108.654 1834.65 107.688 1831.16 107.118 1828.66H107.056C106.498 1831.14 105.494 1834.65 104.156 1838.83Z" fill="#00BFFF"/>
<path d="M118.767 1845.21H123.513V1827.86H119.064V1825.79H126.029V1845.21H131.035V1847.28H118.767V1845.21Z" fill="#00BFFF"/>
<path d="M135.918 1845.21H140.664V1827.86H136.215V1825.79H143.18V1845.21H148.187V1847.28H135.918V1845.21Z" fill="#00BFFF"/>
<path d="M169.13 1832.46H173.368V1828.58L175.884 1827.51V1832.46H181.659V1834.51H175.884V1842.18C175.884 1844.16 176.838 1845.12 178.734 1845.12C179.713 1845.12 180.754 1845.03 181.671 1844.85V1847.16C180.903 1847.34 180.073 1847.55 178.771 1847.55C175.066 1847.55 173.381 1845.48 173.381 1842.54V1834.51H169.142V1832.46H169.13Z" fill="#00BFFF"/>
<path d="M193.903 1832.1C195.092 1832.1 196.505 1832.42 197.546 1833.4C198.5 1834.32 198.996 1835.72 198.996 1838.11V1847.28H196.48V1838.26C196.48 1835.03 194.857 1834.32 193.283 1834.32C190.049 1834.32 189.255 1837.43 189.255 1839.54V1847.28H186.74V1825.79H189.255V1835.16C189.937 1833.38 191.771 1832.1 193.903 1832.1Z" fill="#00BFFF"/>
<path d="M216.185 1840.52H205.787C205.787 1843.31 207.386 1845.4 210.137 1845.4C212.095 1845.4 213.31 1844.19 214.053 1842.76L216.185 1843.89C214.945 1846.35 212.925 1847.62 210.137 1847.62C205.49 1847.62 203.197 1844.42 203.197 1839.56C203.197 1835.03 205.8 1832.09 209.951 1832.09C214.487 1832.09 216.234 1835.35 216.234 1839.38C216.247 1839.75 216.209 1840.13 216.185 1840.52ZM209.84 1834.06C207.138 1834.06 205.775 1836.28 205.775 1838.45H213.632C213.694 1836.07 212.516 1834.06 209.84 1834.06Z" fill="#00BFFF"/>
<path d="M221.129 1842.71L223.682 1842.27C224.066 1844.44 225.454 1845.55 227.648 1845.55C229.631 1845.55 230.734 1844.72 230.734 1843.33C230.734 1841.85 229.965 1841.2 228.367 1841.01L225.962 1840.74C223.025 1840.42 221.637 1838.76 221.637 1836.48C221.637 1833.77 223.769 1832.09 227.264 1832.09C230.647 1832.09 232.927 1833.86 233.249 1836.59L230.758 1837.15C230.436 1835.37 229.222 1834.12 227.202 1834.12C225.244 1834.12 224.091 1834.93 224.091 1836.34C224.091 1837.62 224.922 1838.39 226.756 1838.6L229.123 1838.86C232.06 1839.18 233.212 1840.73 233.212 1843.07C233.212 1845.89 231.143 1847.61 227.524 1847.61C224.004 1847.64 221.662 1845.89 221.129 1842.71Z" fill="#00BFFF"/>
<path d="M250.5 1840.52H240.102C240.102 1843.31 241.701 1845.4 244.452 1845.4C246.41 1845.4 247.625 1844.19 248.368 1842.76L250.5 1843.89C249.26 1846.35 247.24 1847.62 244.452 1847.62C239.805 1847.62 237.512 1844.42 237.512 1839.56C237.512 1835.03 240.115 1832.09 244.266 1832.09C248.802 1832.09 250.549 1835.35 250.549 1839.38C250.549 1839.75 250.524 1840.13 250.5 1840.52ZM244.155 1834.06C241.453 1834.06 240.09 1836.28 240.09 1838.45H247.947C248.009 1836.07 246.819 1834.06 244.155 1834.06Z" fill="#00BFFF"/>
<path d="M282.608 1832.16C283.674 1832.16 284.653 1832.29 285.273 1832.46V1834.8C284.678 1834.65 283.587 1834.5 282.522 1834.5C278.965 1834.5 276.127 1836.93 276.127 1841.77V1847.29H273.611V1832.46H276.102V1836.31C277.106 1833.97 279.535 1832.16 282.608 1832.16Z" fill="#00BFFF"/>
<path d="M294.766 1847.64C293.402 1847.64 292.015 1847.31 290.974 1846.33C290.019 1845.42 289.61 1844.03 289.61 1841.62V1832.46H292.188V1841.54C292.188 1844.77 293.725 1845.48 295.274 1845.48C298.384 1845.48 299.128 1842.37 299.128 1840.2V1832.46H301.644V1847.29H299.277V1844.47C298.707 1845.95 296.959 1847.64 294.766 1847.64Z" fill="#00BFFF"/>
<path d="M307.468 1845.21H312.215V1827.86H307.766V1825.79H314.73V1845.21H319.737V1847.28H307.468V1845.21Z" fill="#00BFFF"/>
<path d="M336.268 1840.52H325.871C325.871 1843.31 327.469 1845.4 330.221 1845.4C332.179 1845.4 333.393 1844.19 334.137 1842.76L336.268 1843.89C335.029 1846.35 333.009 1847.62 330.221 1847.62C325.573 1847.62 323.281 1844.42 323.281 1839.56C323.281 1835.03 325.883 1832.09 330.035 1832.09C334.57 1832.09 336.318 1835.35 336.318 1839.38C336.33 1839.75 336.305 1840.13 336.268 1840.52ZM329.936 1834.06C327.234 1834.06 325.871 1836.28 325.871 1838.45H333.728C333.777 1836.07 332.6 1834.06 329.936 1834.06Z" fill="#00BFFF"/>
<path d="M341.213 1842.71L343.766 1842.27C344.15 1844.44 345.538 1845.55 347.731 1845.55C349.714 1845.55 350.817 1844.72 350.817 1843.33C350.817 1841.85 350.049 1841.2 348.45 1841.01L346.046 1840.74C343.109 1840.42 341.721 1838.76 341.721 1836.48C341.721 1833.77 343.852 1832.09 347.347 1832.09C350.73 1832.09 353.011 1833.86 353.333 1836.59L350.842 1837.15C350.52 1835.37 349.305 1834.12 347.285 1834.12C345.327 1834.12 344.175 1834.93 344.175 1836.34C344.175 1837.62 345.005 1838.39 346.839 1838.6L349.206 1838.86C352.143 1839.18 353.296 1840.73 353.296 1843.07C353.296 1845.89 351.226 1847.61 347.607 1847.61C344.088 1847.64 341.758 1845.89 341.213 1842.71Z" fill="#00BFFF"/>
<path d="M387.673 1847.28H385.033C384.909 1846.45 384.822 1845.47 384.797 1844.57C383.818 1846.64 382.22 1847.62 379.791 1847.62C376.854 1847.62 374.809 1845.81 374.809 1843.27C374.809 1841.73 375.515 1840.54 376.879 1839.77C377.858 1839.24 379.456 1838.86 381.91 1838.56L384.612 1838.24V1837.98C384.612 1835.34 383.633 1834.18 381.439 1834.18C379.332 1834.18 378.093 1835.25 377.969 1837.12H375.268C375.54 1833.95 377.845 1832.11 381.613 1832.11C385.43 1832.11 387.152 1834.01 387.152 1838.27V1842.28C387.177 1844.63 387.326 1846.18 387.673 1847.28ZM381.129 1840.56C378.552 1840.91 377.486 1841.65 377.486 1843.13C377.486 1844.65 378.527 1845.56 380.274 1845.56C382.939 1845.56 384.661 1843.73 384.661 1840.82V1840.07L381.129 1840.56Z" fill="#00BFFF"/>
<path d="M399.854 1832.1C401.069 1832.1 402.432 1832.42 403.436 1833.38C404.415 1834.29 404.861 1835.72 404.861 1838.13V1847.29H402.345V1838.27C402.345 1835.04 400.747 1834.33 399.259 1834.33C395.913 1834.33 395.108 1837.44 395.108 1839.55V1847.29H392.592V1832.46H394.959V1835.4C395.74 1833.53 397.363 1832.1 399.854 1832.1Z" fill="#00BFFF"/>
<path d="M421.603 1825.79V1847.28H419.236V1844.52C418.344 1846.45 416.956 1847.64 414.527 1847.64C410.822 1847.64 408.417 1844.55 408.417 1839.84C408.417 1835.19 410.995 1832.1 414.911 1832.1C416.931 1832.1 418.344 1833.19 419.087 1834.65V1825.79H421.603ZM415.147 1834.32C412.594 1834.32 411.082 1836.36 411.082 1839.84C411.082 1843.27 412.594 1845.42 415.047 1845.42C417.563 1845.42 419.137 1843.41 419.137 1840.2V1839.51C419.149 1836.34 417.6 1834.32 415.147 1834.32Z" fill="#00BFFF"/>
<path d="M443.377 1839.77C443.377 1835.36 445.632 1832.1 450.28 1832.1C453.564 1832.1 455.943 1834 456.29 1837.41L453.712 1837.7C453.44 1835.51 452.2 1834.29 450.094 1834.29C447.367 1834.29 445.979 1836.49 445.979 1839.75C445.979 1843.14 447.367 1845.42 450.193 1845.42C452.362 1845.42 453.514 1844.11 453.861 1841.86L456.265 1842.24C455.794 1845.27 453.861 1847.64 450.193 1847.64C445.694 1847.64 443.377 1844.23 443.377 1839.77Z" fill="#00BFFF"/>
<path d="M460.441 1839.87C460.441 1835.16 463.193 1832.11 467.344 1832.11C471.496 1832.11 474.247 1835.16 474.247 1839.87C474.247 1844.59 471.496 1847.64 467.344 1847.64C463.205 1847.64 460.441 1844.52 460.441 1839.87ZM471.582 1839.87C471.582 1836.4 470.008 1834.29 467.344 1834.29C464.68 1834.29 463.106 1836.36 463.106 1839.87C463.106 1843.38 464.68 1845.45 467.344 1845.45C470.021 1845.44 471.582 1843.37 471.582 1839.87Z" fill="#00BFFF"/>
<path d="M482.252 1832.1C483.702 1832.1 484.83 1833.08 485.338 1834.8C486.045 1833.08 487.383 1832.1 488.833 1832.1C490.667 1832.1 492.328 1833.38 492.328 1836.51V1847.28H489.812V1836.72C489.812 1834.83 488.92 1834.32 488.065 1834.32C486.317 1834.32 485.698 1835.6 485.698 1837.47V1847.28H483.244V1836.72C483.244 1834.91 482.438 1834.32 481.496 1834.32C479.774 1834.32 479.191 1835.68 479.191 1837.47V1847.28H476.676V1832.46H479.043V1834.74C479.613 1833.14 480.778 1832.1 482.252 1832.1Z" fill="#00BFFF"/>
<path d="M499.404 1832.1C500.854 1832.1 501.981 1833.08 502.49 1834.8C503.196 1833.08 504.534 1832.1 505.984 1832.1C507.818 1832.1 509.479 1833.38 509.479 1836.51V1847.28H506.963V1836.72C506.963 1834.83 506.071 1834.32 505.216 1834.32C503.469 1834.32 502.849 1835.6 502.849 1837.47V1847.28H500.395V1836.72C500.395 1834.91 499.59 1834.32 498.648 1834.32C496.925 1834.32 496.343 1835.68 496.343 1837.47V1847.28H493.827V1832.46H496.194V1834.74C496.777 1833.14 497.929 1832.1 499.404 1832.1Z" fill="#00BFFF"/>
<path d="M524.92 1847.28H522.281C522.157 1846.45 522.07 1845.47 522.045 1844.57C521.066 1846.64 519.467 1847.62 517.038 1847.62C514.101 1847.62 512.057 1845.81 512.057 1843.27C512.057 1841.73 512.763 1840.54 514.126 1839.77C515.105 1839.24 516.704 1838.86 519.158 1838.56L521.859 1838.24V1837.98C521.859 1835.34 520.88 1834.18 518.687 1834.18C516.58 1834.18 515.341 1835.25 515.217 1837.12H512.515C512.775 1833.95 515.093 1832.11 518.86 1832.11C522.677 1832.11 524.4 1834.01 524.4 1838.27V1842.28C524.412 1844.63 524.561 1846.18 524.92 1847.28ZM518.377 1840.56C515.799 1840.91 514.733 1841.65 514.733 1843.13C514.733 1844.65 515.774 1845.56 517.522 1845.56C520.186 1845.56 521.909 1843.73 521.909 1840.82V1840.07L518.377 1840.56Z" fill="#00BFFF"/>
<path d="M537.102 1832.1C538.316 1832.1 539.679 1832.42 540.683 1833.38C541.662 1834.29 542.108 1835.72 542.108 1838.13V1847.29H539.593V1838.27C539.593 1835.04 537.994 1834.33 536.507 1834.33C533.161 1834.33 532.356 1837.44 532.356 1839.55V1847.29H529.84V1832.46H532.207V1835.4C532.975 1833.53 534.611 1832.1 537.102 1832.1Z" fill="#00BFFF"/>
<path d="M558.851 1825.79V1847.28H556.484V1844.52C555.591 1846.45 554.204 1847.64 551.775 1847.64C548.069 1847.64 545.665 1844.55 545.665 1839.84C545.665 1835.19 548.243 1832.1 552.159 1832.1C554.179 1832.1 555.591 1833.19 556.335 1834.65V1825.79H558.851ZM552.382 1834.32C549.829 1834.32 548.317 1836.36 548.317 1839.84C548.317 1843.27 549.829 1845.42 552.283 1845.42C554.798 1845.42 556.372 1843.41 556.372 1840.2V1839.51C556.385 1836.34 554.848 1834.32 552.382 1834.32Z" fill="#00BFFF"/>
<path d="M568.034 1832.1C569.484 1832.1 570.611 1833.08 571.119 1834.8C571.826 1833.08 573.164 1832.1 574.614 1832.1C576.448 1832.1 578.109 1833.38 578.109 1836.51V1847.28H575.593V1836.72C575.593 1834.83 574.701 1834.32 573.846 1834.32C572.098 1834.32 571.479 1835.6 571.479 1837.47V1847.28H569.025V1836.72C569.025 1834.91 568.22 1834.32 567.278 1834.32C565.555 1834.32 564.973 1835.68 564.973 1837.47V1847.28H562.457V1832.46H564.824V1834.74C565.394 1833.14 566.547 1832.1 568.034 1832.1Z" fill="#00BFFF"/>
<path d="M593.599 1840.52H583.202C583.202 1843.31 584.801 1845.4 587.552 1845.4C589.51 1845.4 590.724 1844.19 591.468 1842.76L593.599 1843.89C592.36 1846.35 590.34 1847.62 587.552 1847.62C582.905 1847.62 580.625 1844.42 580.625 1839.56C580.625 1835.03 583.227 1832.09 587.378 1832.09C591.914 1832.09 593.661 1835.35 593.661 1839.38C593.661 1839.75 593.624 1840.13 593.599 1840.52ZM587.254 1834.06C584.553 1834.06 583.19 1836.28 583.19 1838.45H591.047C591.109 1836.07 589.931 1834.06 587.254 1834.06Z" fill="#00BFFF"/>
<path d="M605.72 1832.1C606.934 1832.1 608.297 1832.42 609.301 1833.38C610.28 1834.29 610.726 1835.72 610.726 1838.13V1847.29H608.21V1838.27C608.21 1835.04 606.612 1834.33 605.125 1834.33C601.779 1834.33 600.973 1837.44 600.973 1839.55V1847.29H598.458V1832.46H600.825V1835.4C601.593 1833.53 603.229 1832.1 605.72 1832.1Z" fill="#00BFFF"/>
<path d="M615.163 1832.46H619.401V1828.58L621.917 1827.51V1832.46H627.691V1834.51H621.917V1842.18C621.917 1844.16 622.858 1845.12 624.754 1845.12C625.733 1845.12 626.774 1845.03 627.691 1844.85V1847.16C626.923 1847.34 626.093 1847.55 624.792 1847.55C621.086 1847.55 619.401 1845.48 619.401 1842.54V1834.51H615.163V1832.46Z" fill="#00BFFF"/>
<path d="M632.859 1842.71L635.412 1842.27C635.796 1844.44 637.184 1845.55 639.377 1845.55C641.36 1845.55 642.463 1844.72 642.463 1843.33C642.463 1841.85 641.695 1841.2 640.096 1841.01L637.692 1840.74C634.755 1840.42 633.367 1838.76 633.367 1836.48C633.367 1833.77 635.498 1832.09 638.993 1832.09C642.376 1832.09 644.657 1833.86 644.979 1836.59L642.488 1837.15C642.166 1835.37 640.951 1834.12 638.931 1834.12C636.973 1834.12 635.821 1834.93 635.821 1836.34C635.821 1837.62 636.651 1838.39 638.485 1838.6L640.852 1838.86C643.789 1839.18 644.942 1840.73 644.942 1843.07C644.942 1845.89 642.872 1847.61 639.253 1847.61C635.734 1847.64 633.392 1845.89 632.859 1842.71Z" fill="#00BFFF"/>
<path d="M679.319 1847.28H676.679C676.555 1846.45 676.468 1845.47 676.443 1844.57C675.464 1846.64 673.866 1847.62 671.437 1847.62C668.5 1847.62 666.455 1845.81 666.455 1843.27C666.455 1841.73 667.161 1840.54 668.525 1839.77C669.504 1839.24 671.102 1838.86 673.556 1838.56L676.258 1838.24V1837.98C676.258 1835.34 675.279 1834.18 673.085 1834.18C670.978 1834.18 669.739 1835.25 669.615 1837.12H666.914C667.174 1833.95 669.491 1832.11 673.259 1832.11C677.075 1832.11 678.798 1834.01 678.798 1838.27V1842.28C678.81 1844.63 678.959 1846.18 679.319 1847.28ZM672.763 1840.56C670.185 1840.91 669.12 1841.65 669.12 1843.13C669.12 1844.65 670.16 1845.56 671.908 1845.56C674.572 1845.56 676.295 1843.73 676.295 1840.82V1840.07L672.763 1840.56Z" fill="#00BFFF"/>
<path d="M684.325 1842.71L686.878 1842.27C687.262 1844.44 688.65 1845.55 690.844 1845.55C692.826 1845.55 693.929 1844.72 693.929 1843.33C693.929 1841.85 693.161 1841.2 691.562 1841.01L689.158 1840.74C686.221 1840.42 684.833 1838.76 684.833 1836.48C684.833 1833.77 686.965 1832.09 690.46 1832.09C693.843 1832.09 696.123 1833.86 696.445 1836.59L693.954 1837.15C693.632 1835.37 692.418 1834.12 690.398 1834.12C688.44 1834.12 687.287 1834.93 687.287 1836.34C687.287 1837.62 688.117 1838.39 689.951 1838.6L692.318 1838.86C695.255 1839.18 696.408 1840.73 696.408 1843.07C696.408 1845.89 694.338 1847.61 690.72 1847.61C687.2 1847.64 684.858 1845.89 684.325 1842.71Z" fill="#00BFFF"/>
<path d="M718.095 1832.46H722.333V1828.58L724.849 1827.51V1832.46H730.624V1834.51H724.849V1842.18C724.849 1844.16 725.803 1845.12 727.699 1845.12C728.678 1845.12 729.719 1845.03 730.636 1844.85V1847.16C729.868 1847.34 729.037 1847.55 727.736 1847.55C724.031 1847.55 722.345 1845.48 722.345 1842.54V1834.51H718.107V1832.46H718.095Z" fill="#00BFFF"/>
<path d="M734.924 1839.87C734.924 1835.16 737.675 1832.11 741.826 1832.11C745.978 1832.11 748.729 1835.16 748.729 1839.87C748.729 1844.59 745.978 1847.64 741.826 1847.64C737.675 1847.64 734.924 1844.52 734.924 1839.87ZM746.065 1839.87C746.065 1836.4 744.491 1834.29 741.826 1834.29C739.162 1834.29 737.588 1836.36 737.588 1839.87C737.588 1843.38 739.162 1845.45 741.826 1845.45C744.503 1845.44 746.065 1843.37 746.065 1839.87Z" fill="#00BFFF"/>
<path d="M777.182 1832.1C778.372 1832.1 779.785 1832.42 780.826 1833.4C781.78 1834.32 782.276 1835.72 782.276 1838.11V1847.28H779.76V1838.26C779.76 1835.03 778.124 1834.32 776.563 1834.32C773.328 1834.32 772.535 1837.43 772.535 1839.54V1847.28H770.02V1825.79H772.535V1835.16C773.204 1833.38 775.051 1832.1 777.182 1832.1Z" fill="#00BFFF"/>
<path d="M786.391 1839.87C786.391 1835.16 789.142 1832.11 793.293 1832.11C797.445 1832.11 800.196 1835.16 800.196 1839.87C800.196 1844.59 797.445 1847.64 793.293 1847.64C789.154 1847.64 786.391 1844.52 786.391 1839.87ZM797.531 1839.87C797.531 1836.4 795.958 1834.29 793.293 1834.29C790.629 1834.29 789.055 1836.36 789.055 1839.87C789.055 1843.38 790.629 1845.45 793.293 1845.45C795.97 1845.44 797.531 1843.37 797.531 1839.87Z" fill="#00BFFF"/>
<path d="M804.731 1832.46L806.243 1842.63L806.541 1844.73H806.751C806.875 1844.05 806.962 1843.58 807.222 1842.24L809.143 1832.46H811.721L813.642 1842.24C813.914 1843.58 814.001 1844.05 814.113 1844.73H814.323L814.621 1842.63L816.133 1832.46H818.772L815.897 1847.29H812.725L810.804 1837.72C810.68 1837.12 810.568 1835.88 810.531 1835.29H810.32C810.296 1835.88 810.172 1837.12 810.06 1837.72L808.139 1847.29H804.967L802.092 1832.46H804.731Z" fill="#00BFFF"/>
<path d="M100.513 1872.14H104.751V1868.26L107.267 1867.19V1872.14H113.042V1874.18H107.267V1881.86C107.267 1883.84 108.221 1884.8 110.117 1884.8C111.096 1884.8 112.137 1884.71 113.054 1884.52V1886.84C112.286 1887.02 111.455 1887.23 110.154 1887.23C106.449 1887.23 104.763 1885.16 104.763 1882.22V1874.18H100.525V1872.14H100.513Z" fill="#00BFFF"/>
<path d="M117.342 1879.55C117.342 1874.84 120.093 1871.79 124.244 1871.79C128.396 1871.79 131.147 1874.84 131.147 1879.55C131.147 1884.26 128.396 1887.31 124.244 1887.31C120.093 1887.31 117.342 1884.2 117.342 1879.55ZM128.483 1879.55C128.483 1876.08 126.909 1873.97 124.244 1873.97C121.58 1873.97 120.006 1876.04 120.006 1879.55C120.006 1883.06 121.58 1885.13 124.244 1885.13C126.909 1885.13 128.483 1883.05 128.483 1879.55Z" fill="#00BFFF"/>
<path d="M164.273 1865.47V1886.95H161.906V1884.2C161.013 1886.12 159.625 1887.31 157.196 1887.31C153.491 1887.31 151.087 1884.23 151.087 1879.52C151.087 1874.87 153.665 1871.78 157.581 1871.78C159.601 1871.78 161.013 1872.87 161.757 1874.33V1865.47H164.273ZM157.816 1874C155.263 1874 153.751 1876.04 153.751 1879.52C153.751 1882.95 155.263 1885.1 157.717 1885.1C160.233 1885.1 161.806 1883.09 161.806 1879.87V1879.19C161.819 1876.02 160.27 1874 157.816 1874Z" fill="#00BFFF"/>
<path d="M181.87 1880.2H171.472C171.472 1882.99 173.071 1885.08 175.822 1885.08C177.78 1885.08 178.995 1883.87 179.738 1882.44L181.87 1883.57C180.63 1886.02 178.61 1887.3 175.822 1887.3C171.175 1887.3 168.882 1884.1 168.882 1879.24C168.882 1874.7 171.485 1871.77 175.636 1871.77C180.172 1871.77 181.919 1875.03 181.919 1879.06C181.932 1879.43 181.907 1879.81 181.87 1880.2ZM175.537 1873.74C172.836 1873.74 171.472 1875.96 171.472 1878.13H179.329C179.391 1875.75 178.202 1873.74 175.537 1873.74Z" fill="#00BFFF"/>
<path d="M186.827 1882.39L189.38 1881.95C189.764 1884.12 191.152 1885.23 193.345 1885.23C195.328 1885.23 196.431 1884.4 196.431 1883.01C196.431 1881.52 195.663 1880.88 194.064 1880.69L191.66 1880.42C188.723 1880.1 187.335 1878.44 187.335 1876.16C187.335 1873.45 189.466 1871.77 192.961 1871.77C196.344 1871.77 198.624 1873.54 198.947 1876.27L196.456 1876.82C196.133 1875.05 194.919 1873.8 192.899 1873.8C190.941 1873.8 189.788 1874.61 189.788 1876.02C189.788 1877.3 190.619 1878.06 192.453 1878.28L194.82 1878.54C197.757 1878.86 198.909 1880.41 198.909 1882.75C198.909 1885.57 196.84 1887.29 193.221 1887.29C189.702 1887.31 187.36 1885.57 186.827 1882.39Z" fill="#00BFFF"/>
<path d="M204.536 1884.88H209.282V1874.21H204.982V1872.14H211.798V1884.88H216.804V1886.95H204.536V1884.88ZM212.07 1869.17H208.514V1865.62H212.07V1869.17Z" fill="#00BFFF"/>
<path d="M231.291 1873.31C232.146 1874.17 232.63 1875.36 232.63 1876.75C232.63 1879.78 230.374 1881.82 227.053 1881.82C226.012 1881.82 225.07 1881.61 224.302 1881.23C223.682 1881.52 223.261 1882.03 223.261 1882.71C223.261 1883.63 224.029 1884.2 225.715 1884.2H229.532C232.617 1884.2 234.365 1885.71 234.365 1888.23C234.365 1891.34 231.663 1893.09 227.041 1893.09C222.827 1893.09 220.312 1891.64 220.312 1889.32C220.312 1887.72 221.315 1886.53 222.889 1886C221.675 1885.49 221.018 1884.61 221.018 1883.36C221.018 1881.99 221.786 1880.99 223.149 1880.48C222.195 1879.63 221.662 1878.37 221.662 1876.9C221.662 1873.87 223.881 1871.77 227.177 1871.77C228.268 1871.77 229.222 1872 230.027 1872.42C230.56 1870.67 231.775 1869.69 233.609 1869.69C233.931 1869.69 234.29 1869.72 234.551 1869.82V1872.01C234.104 1871.95 233.844 1871.89 233.46 1871.89C232.394 1871.9 231.713 1872.34 231.291 1873.31ZM225.64 1886.42C225.194 1886.42 224.785 1886.4 224.401 1886.36C223.422 1886.81 222.827 1887.6 222.827 1888.62C222.827 1890.19 224.277 1891.02 227.326 1891.02C230.498 1891.02 231.861 1890.13 231.861 1888.5C231.861 1887.17 230.907 1886.43 228.986 1886.43H225.64V1886.42ZM230.263 1876.76C230.263 1874.99 228.986 1873.71 227.177 1873.71C225.343 1873.71 224.066 1875.01 224.066 1876.86C224.066 1878.67 225.306 1879.91 227.09 1879.91C228.924 1879.9 230.263 1878.57 230.263 1876.76Z" fill="#00BFFF"/>
<path d="M245.456 1871.78C246.67 1871.78 248.034 1872.1 249.037 1873.05C250.016 1873.97 250.462 1875.4 250.462 1877.8V1886.97H247.947V1877.95C247.947 1874.72 246.348 1874.01 244.861 1874.01C241.515 1874.01 240.71 1877.12 240.71 1879.23V1886.97H238.194V1872.14H240.561V1875.08C241.342 1873.2 242.965 1871.78 245.456 1871.78Z" fill="#00BFFF"/>
<path d="M284.753 1886.95H282.113C281.989 1886.12 281.902 1885.14 281.878 1884.25C280.899 1886.32 279.3 1887.3 276.871 1887.3C273.934 1887.3 271.889 1885.49 271.889 1882.95C271.889 1881.41 272.596 1880.22 273.959 1879.45C274.938 1878.92 276.536 1878.54 278.99 1878.24L281.692 1877.92V1877.65C281.692 1875.01 280.713 1873.86 278.519 1873.86C276.412 1873.86 275.173 1874.93 275.049 1876.8H272.348C272.62 1873.63 274.925 1871.79 278.693 1871.79C282.51 1871.79 284.232 1873.69 284.232 1877.95V1881.96C284.245 1884.31 284.393 1885.86 284.753 1886.95ZM278.197 1880.23C275.619 1880.59 274.554 1881.33 274.554 1882.81C274.554 1884.33 275.595 1885.24 277.342 1885.24C280.006 1885.24 281.729 1883.41 281.729 1880.49V1879.75L278.197 1880.23Z" fill="#00BFFF"/>
<path d="M296.922 1871.78C298.137 1871.78 299.5 1872.1 300.504 1873.05C301.483 1873.97 301.929 1875.4 301.929 1877.8V1886.97H299.413V1877.95C299.413 1874.72 297.814 1874.01 296.327 1874.01C292.981 1874.01 292.176 1877.12 292.176 1879.23V1886.97H289.66V1872.14H292.027V1875.08C292.808 1873.2 294.431 1871.78 296.922 1871.78Z" fill="#00BFFF"/>
<path d="M313.193 1884.03L317.308 1872.14H320.009L314.086 1887.91C312.722 1891.68 310.95 1892.92 308.459 1892.92C308.013 1892.92 307.567 1892.89 307.096 1892.8V1890.58C307.48 1890.6 307.84 1890.64 308.162 1890.64C309.971 1890.64 310.888 1889.83 311.57 1887.88L311.954 1886.79L306.179 1872.15H309.029L313.193 1884.03Z" fill="#00BFFF"/>
<path d="M323.529 1872.14H327.767V1868.26L330.283 1867.19V1872.14H336.058V1874.18H330.283V1881.86C330.283 1883.84 331.237 1884.8 333.133 1884.8C334.112 1884.8 335.153 1884.71 336.07 1884.52V1886.84C335.302 1887.02 334.471 1887.23 333.17 1887.23C329.465 1887.23 327.779 1885.16 327.779 1882.22V1874.18H323.541V1872.14H323.529Z" fill="#00BFFF"/>
<path d="M348.302 1871.78C349.491 1871.78 350.904 1872.1 351.945 1873.08C352.899 1874 353.395 1875.4 353.395 1877.79V1886.95H350.879V1877.94C350.879 1874.7 349.256 1874 347.682 1874C344.447 1874 343.654 1877.11 343.654 1879.22V1886.95H341.139V1865.47H343.654V1874.84C344.336 1873.06 346.17 1871.78 348.302 1871.78Z" fill="#00BFFF"/>
<path d="M358.935 1884.88H363.681V1874.21H359.381V1872.14H366.197V1884.88H371.203V1886.95H358.935V1884.88ZM366.469 1869.17H362.913V1865.62H366.469V1869.17Z" fill="#00BFFF"/>
<path d="M382.703 1871.78C383.918 1871.78 385.281 1872.1 386.285 1873.05C387.264 1873.97 387.71 1875.4 387.71 1877.8V1886.97H385.194V1877.95C385.194 1874.72 383.596 1874.01 382.109 1874.01C378.763 1874.01 377.957 1877.12 377.957 1879.23V1886.97H375.441V1872.14H377.808V1875.08C378.577 1873.2 380.213 1871.78 382.703 1871.78Z" fill="#00BFFF"/>
<path d="M402.854 1873.31C403.709 1874.17 404.192 1875.36 404.192 1876.75C404.192 1879.78 401.937 1881.82 398.616 1881.82C397.575 1881.82 396.633 1881.61 395.864 1881.23C395.245 1881.52 394.823 1882.03 394.823 1882.71C394.823 1883.63 395.592 1884.2 397.277 1884.2H401.094C404.18 1884.2 405.927 1885.71 405.927 1888.23C405.927 1891.34 403.226 1893.09 398.603 1893.09C394.39 1893.09 391.874 1891.64 391.874 1889.32C391.874 1887.72 392.878 1886.53 394.452 1886C393.237 1885.49 392.58 1884.61 392.58 1883.36C392.58 1881.99 393.349 1880.99 394.712 1880.48C393.758 1879.63 393.225 1878.37 393.225 1876.9C393.225 1873.87 395.443 1871.77 398.739 1871.77C399.83 1871.77 400.784 1872 401.59 1872.42C402.123 1870.67 403.337 1869.69 405.171 1869.69C405.493 1869.69 405.853 1869.72 406.113 1869.82V1872.01C405.667 1871.95 405.407 1871.89 405.023 1871.89C403.944 1871.9 403.263 1872.34 402.854 1873.31ZM397.19 1886.42C396.744 1886.42 396.335 1886.4 395.951 1886.36C394.972 1886.81 394.377 1887.6 394.377 1888.62C394.377 1890.19 395.827 1891.02 398.876 1891.02C402.048 1891.02 403.411 1890.13 403.411 1888.5C403.411 1887.17 402.457 1886.43 400.536 1886.43H397.19V1886.42ZM401.813 1876.76C401.813 1874.99 400.536 1873.71 398.727 1873.71C396.893 1873.71 395.617 1875.01 395.617 1876.86C395.617 1878.67 396.856 1879.91 398.64 1879.91C400.474 1879.9 401.813 1878.57 401.813 1876.76Z" fill="#00BFFF"/>
<path d="M439.238 1874.18H433.612V1886.97H431.096V1874.18H426.561V1872.14H431.096V1870.5C431.096 1867.12 432.992 1865.37 436.673 1865.37C437.528 1865.37 438.247 1865.45 439.251 1865.66V1867.88C438.594 1867.8 437.801 1867.65 436.673 1867.65C434.417 1867.65 433.624 1868.42 433.624 1870.67V1872.12H439.251V1874.18H439.238Z" fill="#00BFFF"/>
<path d="M443.291 1879.55C443.291 1874.84 446.042 1871.79 450.193 1871.79C454.345 1871.79 457.096 1874.84 457.096 1879.55C457.096 1884.26 454.345 1887.31 450.193 1887.31C446.042 1887.31 443.291 1884.2 443.291 1879.55ZM454.431 1879.55C454.431 1876.08 452.858 1873.97 450.193 1873.97C447.529 1873.97 445.955 1876.04 445.955 1879.55C445.955 1883.06 447.529 1885.13 450.193 1885.13C452.858 1885.13 454.431 1883.05 454.431 1879.55Z" fill="#00BFFF"/>
<path d="M471.322 1871.84C472.388 1871.84 473.367 1871.96 473.987 1872.14V1874.48C473.392 1874.33 472.301 1874.18 471.235 1874.18C467.679 1874.18 464.841 1876.61 464.841 1881.45V1886.97H462.325V1872.14H464.816V1875.99C465.808 1873.65 468.236 1871.84 471.322 1871.84Z" fill="#00BFFF"/>
<path d="M495.079 1872.14H499.317V1868.26L501.833 1867.19V1872.14H507.608V1874.18H501.833V1881.86C501.833 1883.84 502.775 1884.8 504.671 1884.8C505.65 1884.8 506.691 1884.71 507.608 1884.52V1886.84C506.84 1887.02 506.009 1887.23 504.708 1887.23C501.003 1887.23 499.317 1885.16 499.317 1882.22V1874.18H495.079V1872.14Z" fill="#00BFFF"/>
<path d="M519.852 1871.78C521.042 1871.78 522.454 1872.1 523.495 1873.08C524.437 1874 524.945 1875.4 524.945 1877.79V1886.95H522.429V1877.94C522.429 1874.7 520.806 1874 519.232 1874C515.998 1874 515.205 1877.11 515.205 1879.22V1886.95H512.689V1865.47H515.205V1874.84C515.886 1873.06 517.72 1871.78 519.852 1871.78Z" fill="#00BFFF"/>
<path d="M542.133 1880.2H531.736C531.736 1882.99 533.335 1885.08 536.086 1885.08C538.044 1885.08 539.258 1883.87 540.002 1882.44L542.133 1883.57C540.894 1886.02 538.874 1887.3 536.086 1887.3C531.439 1887.3 529.146 1884.1 529.146 1879.24C529.146 1874.7 531.748 1871.77 535.9 1871.77C540.436 1871.77 542.183 1875.03 542.183 1879.06C542.195 1879.43 542.158 1879.81 542.133 1880.2ZM535.788 1873.74C533.087 1873.74 531.724 1875.96 531.724 1878.13H539.58C539.642 1875.75 538.465 1873.74 535.788 1873.74Z" fill="#00BFFF"/>
<path d="M564.242 1882.39L566.795 1881.95C567.179 1884.12 568.567 1885.23 570.76 1885.23C572.743 1885.23 573.846 1884.4 573.846 1883.01C573.846 1881.52 573.078 1880.88 571.479 1880.69L569.075 1880.42C566.138 1880.1 564.75 1878.44 564.75 1876.16C564.75 1873.45 566.881 1871.77 570.376 1871.77C573.759 1871.77 576.039 1873.54 576.362 1876.27L573.871 1876.82C573.548 1875.05 572.334 1873.8 570.314 1873.8C568.356 1873.8 567.203 1874.61 567.203 1876.02C567.203 1877.3 568.034 1878.06 569.868 1878.28L572.235 1878.54C575.172 1878.86 576.324 1880.41 576.324 1882.75C576.324 1885.57 574.255 1887.29 570.636 1887.29C567.117 1887.31 564.775 1885.57 564.242 1882.39Z" fill="#00BFFF"/>
<path d="M580.625 1879.45C580.625 1875.04 582.88 1871.78 587.527 1871.78C590.811 1871.78 593.19 1873.67 593.537 1877.08L590.96 1877.38C590.7 1875.19 589.448 1873.97 587.341 1873.97C584.615 1873.97 583.227 1876.17 583.227 1879.43C583.227 1882.81 584.615 1885.09 587.428 1885.09C589.597 1885.09 590.749 1883.79 591.096 1881.54L593.5 1881.92C593.029 1884.95 591.096 1887.31 587.428 1887.31C582.93 1887.31 580.625 1883.9 580.625 1879.45Z" fill="#00BFFF"/>
<path d="M608.557 1871.84C609.623 1871.84 610.602 1871.96 611.222 1872.14V1874.48C610.627 1874.33 609.536 1874.18 608.47 1874.18C604.914 1874.18 602.064 1876.61 602.064 1881.45V1886.97H599.548V1872.14H602.039V1875.99C603.055 1873.65 605.484 1871.84 608.557 1871.84Z" fill="#00BFFF"/>
<path d="M627.915 1880.2H617.517C617.517 1882.99 619.116 1885.08 621.867 1885.08C623.825 1885.08 625.04 1883.87 625.783 1882.44L627.915 1883.57C626.675 1886.02 624.655 1887.3 621.867 1887.3C617.22 1887.3 614.927 1884.1 614.927 1879.24C614.927 1874.7 617.53 1871.77 621.681 1871.77C626.217 1871.77 627.964 1875.03 627.964 1879.06C627.964 1879.43 627.939 1879.81 627.915 1880.2ZM621.57 1873.74C618.868 1873.74 617.505 1875.96 617.505 1878.13H625.362C625.424 1875.75 624.234 1873.74 621.57 1873.74Z" fill="#00BFFF"/>
<path d="M645.066 1880.2H634.668C634.668 1882.99 636.267 1885.08 639.018 1885.08C640.976 1885.08 642.191 1883.87 642.934 1882.44L645.066 1883.57C643.827 1886.02 641.807 1887.3 639.018 1887.3C634.371 1887.3 632.091 1884.1 632.091 1879.24C632.091 1874.7 634.693 1871.77 638.845 1871.77C643.38 1871.77 645.128 1875.03 645.128 1879.06C645.128 1879.43 645.091 1879.81 645.066 1880.2ZM638.721 1873.74C636.019 1873.74 634.656 1875.96 634.656 1878.13H642.513C642.575 1875.75 641.385 1873.74 638.721 1873.74Z" fill="#00BFFF"/>
<path d="M657.186 1871.78C658.4 1871.78 659.763 1872.1 660.767 1873.05C661.746 1873.97 662.192 1875.4 662.192 1877.8V1886.97H659.677V1877.95C659.677 1874.72 658.078 1874.01 656.591 1874.01C653.245 1874.01 652.439 1877.12 652.439 1879.23V1886.97H649.924V1872.14H652.291V1875.08C653.059 1873.2 654.695 1871.78 657.186 1871.78Z" fill="#00BFFF"/>
<path d="M684.326 1882.39L686.879 1881.95C687.263 1884.12 688.651 1885.23 690.844 1885.23C692.827 1885.23 693.93 1884.4 693.93 1883.01C693.93 1881.52 693.162 1880.88 691.563 1880.69L689.159 1880.42C686.222 1880.1 684.834 1878.44 684.834 1876.16C684.834 1873.45 686.965 1871.77 690.46 1871.77C693.843 1871.77 696.123 1873.54 696.446 1876.27L693.955 1876.82C693.633 1875.05 692.418 1873.8 690.398 1873.8C688.44 1873.8 687.288 1874.61 687.288 1876.02C687.288 1877.3 688.118 1878.06 689.952 1878.28L692.319 1878.54C695.256 1878.86 696.408 1880.41 696.408 1882.75C696.408 1885.57 694.339 1887.29 690.72 1887.29C687.201 1887.31 684.859 1885.57 684.326 1882.39Z" fill="#00BFFF"/>
<path d="M700.944 1872.14H705.182V1868.26L707.698 1867.19V1872.14H713.473V1874.18H707.698V1881.86C707.698 1883.84 708.652 1884.8 710.548 1884.8C711.527 1884.8 712.568 1884.71 713.485 1884.52V1886.84C712.717 1887.02 711.886 1887.23 710.585 1887.23C706.88 1887.23 705.194 1885.16 705.194 1882.22V1874.18H700.956V1872.14H700.944Z" fill="#00BFFF"/>
<path d="M730.785 1886.95H728.146C728.022 1886.12 727.935 1885.14 727.91 1884.25C726.931 1886.32 725.333 1887.3 722.904 1887.3C719.967 1887.3 717.922 1885.49 717.922 1882.95C717.922 1881.41 718.628 1880.22 719.991 1879.45C720.97 1878.92 722.569 1878.54 725.023 1878.24L727.724 1877.92V1877.65C727.724 1875.01 726.745 1873.86 724.552 1873.86C722.445 1873.86 721.206 1874.93 721.082 1876.8H718.38C718.641 1873.63 720.958 1871.79 724.725 1871.79C728.542 1871.79 730.265 1873.69 730.265 1877.95V1881.96C730.277 1884.31 730.426 1885.86 730.785 1886.95ZM724.23 1880.23C721.652 1880.59 720.586 1881.33 720.586 1882.81C720.586 1884.33 721.627 1885.24 723.375 1885.24C726.039 1885.24 727.762 1883.41 727.762 1880.49V1879.75L724.23 1880.23Z" fill="#00BFFF"/>
<path d="M745.805 1871.84C746.871 1871.84 747.85 1871.96 748.469 1872.14V1874.48C747.875 1874.33 746.784 1874.18 745.718 1874.18C742.162 1874.18 739.324 1876.61 739.324 1881.45V1886.97H736.808V1872.14H739.299V1875.99C740.29 1873.65 742.719 1871.84 745.805 1871.84Z" fill="#00BFFF"/>
<path d="M752.41 1872.14H756.648V1868.26L759.164 1867.19V1872.14H764.939V1874.18H759.164V1881.86C759.164 1883.84 760.118 1884.8 762.014 1884.8C762.993 1884.8 764.034 1884.71 764.951 1884.52V1886.84C764.183 1887.02 763.353 1887.23 762.052 1887.23C758.346 1887.23 756.661 1885.16 756.661 1882.22V1874.18H752.423V1872.14H752.41Z" fill="#00BFFF"/>
<path d="M782.314 1880.2H771.916C771.916 1882.99 773.515 1885.08 776.266 1885.08C778.224 1885.08 779.439 1883.87 780.182 1882.44L782.314 1883.57C781.074 1886.02 779.054 1887.3 776.266 1887.3C771.619 1887.3 769.326 1884.1 769.326 1879.24C769.326 1874.7 771.929 1871.77 776.08 1871.77C780.616 1871.77 782.363 1875.03 782.363 1879.06C782.363 1879.43 782.338 1879.81 782.314 1880.2ZM775.969 1873.74C773.267 1873.74 771.904 1875.96 771.904 1878.13H779.761C779.823 1875.75 778.633 1873.74 775.969 1873.74Z" fill="#00BFFF"/>
<path d="M799.019 1865.47V1886.95H796.652V1884.2C795.759 1886.12 794.371 1887.31 791.943 1887.31C788.237 1887.31 785.833 1884.23 785.833 1879.52C785.833 1874.87 788.411 1871.78 792.327 1871.78C794.347 1871.78 795.759 1872.87 796.503 1874.33V1865.47H799.019ZM792.562 1874C790.009 1874 788.497 1876.04 788.497 1879.52C788.497 1882.95 790.009 1885.1 792.463 1885.1C794.979 1885.1 796.552 1883.09 796.552 1879.87V1879.19C796.565 1876.02 795.016 1874 792.562 1874Z" fill="#00BFFF"/>
<path d="M100.513 1911.81H104.751V1907.93L107.267 1906.87V1911.81H113.042V1913.86H107.267V1921.54C107.267 1923.52 108.221 1924.47 110.117 1924.47C111.096 1924.47 112.137 1924.39 113.054 1924.2V1926.52C112.286 1926.69 111.455 1926.9 110.154 1926.9C106.449 1926.9 104.763 1924.83 104.763 1921.9V1913.86H100.525V1911.81H100.513Z" fill="#00BFFF"/>
<path d="M117.342 1919.23C117.342 1914.52 120.093 1911.47 124.244 1911.47C128.396 1911.47 131.147 1914.52 131.147 1919.23C131.147 1923.94 128.396 1926.99 124.244 1926.99C120.093 1926.99 117.342 1923.88 117.342 1919.23ZM128.483 1919.23C128.483 1915.76 126.909 1913.65 124.244 1913.65C121.58 1913.65 120.006 1915.72 120.006 1919.23C120.006 1922.74 121.58 1924.81 124.244 1924.81C126.909 1924.81 128.483 1922.73 128.483 1919.23Z" fill="#00BFFF"/>
<path d="M151.744 1919.13C151.744 1914.72 153.999 1911.46 158.646 1911.46C161.93 1911.46 164.31 1913.35 164.657 1916.76L162.079 1917.06C161.806 1914.86 160.567 1913.65 158.46 1913.65C155.734 1913.65 154.346 1915.84 154.346 1919.11C154.346 1922.49 155.734 1924.77 158.56 1924.77C160.728 1924.77 161.881 1923.47 162.228 1921.21L164.632 1921.6C164.161 1924.62 162.228 1926.99 158.56 1926.99C154.049 1926.99 151.744 1923.58 151.744 1919.13Z" fill="#00BFFF"/>
<path d="M179.676 1911.52C180.742 1911.52 181.721 1911.64 182.341 1911.82V1914.16C181.746 1914.01 180.655 1913.86 179.589 1913.86C176.033 1913.86 173.195 1916.29 173.195 1921.13V1926.64H170.679V1911.82H173.17V1915.67C174.174 1913.33 176.603 1911.52 179.676 1911.52Z" fill="#00BFFF"/>
<path d="M199.034 1919.87H188.636C188.636 1922.66 190.235 1924.76 192.986 1924.76C194.944 1924.76 196.159 1923.55 196.902 1922.12L199.034 1923.25C197.794 1925.7 195.774 1926.98 192.986 1926.98C188.339 1926.98 186.059 1923.78 186.059 1918.92C186.059 1914.38 188.661 1911.44 192.813 1911.44C197.348 1911.44 199.096 1914.7 199.096 1918.73C199.083 1919.11 199.058 1919.49 199.034 1919.87ZM192.689 1913.41C189.987 1913.41 188.624 1915.63 188.624 1917.8H196.481C196.543 1915.42 195.353 1913.41 192.689 1913.41Z" fill="#00BFFF"/>
<path d="M216.123 1926.63H213.483C213.359 1925.8 213.272 1924.82 213.248 1923.93C212.269 1926 210.67 1926.98 208.241 1926.98C205.304 1926.98 203.259 1925.17 203.259 1922.63C203.259 1921.09 203.966 1919.9 205.329 1919.13C206.308 1918.6 207.906 1918.21 210.36 1917.92L213.062 1917.59V1917.33C213.062 1914.69 212.083 1913.54 209.889 1913.54C207.783 1913.54 206.543 1914.6 206.419 1916.48H203.718C203.99 1913.3 206.295 1911.47 210.063 1911.47C213.88 1911.47 215.602 1913.36 215.602 1917.63V1921.64C215.627 1923.99 215.776 1925.54 216.123 1926.63ZM209.579 1919.91C207.002 1920.27 205.936 1921 205.936 1922.49C205.936 1924 206.977 1924.92 208.724 1924.92C211.389 1924.92 213.111 1923.09 213.111 1920.17V1919.43L209.579 1919.91Z" fill="#00BFFF"/>
<path d="M220.597 1911.81H224.835V1907.93L227.351 1906.87V1911.81H233.126V1913.86H227.351V1921.54C227.351 1923.52 228.305 1924.47 230.201 1924.47C231.18 1924.47 232.221 1924.39 233.138 1924.2V1926.52C232.37 1926.69 231.539 1926.9 230.238 1926.9C226.533 1926.9 224.847 1924.83 224.847 1921.9V1913.86H220.609V1911.81H220.597Z" fill="#00BFFF"/>
<path d="M250.5 1919.87H240.102C240.102 1922.66 241.701 1924.76 244.452 1924.76C246.41 1924.76 247.625 1923.55 248.368 1922.12L250.5 1923.25C249.26 1925.7 247.24 1926.98 244.452 1926.98C239.805 1926.98 237.512 1923.78 237.512 1918.92C237.512 1914.38 240.115 1911.44 244.266 1911.44C248.802 1911.44 250.549 1914.7 250.549 1918.73C250.549 1919.11 250.524 1919.49 250.5 1919.87ZM244.155 1913.41C241.453 1913.41 240.09 1915.63 240.09 1917.8H247.947C248.009 1915.42 246.819 1913.41 244.155 1913.41Z" fill="#00BFFF"/>
<path d="M284.753 1926.63H282.113C281.989 1925.8 281.902 1924.82 281.878 1923.93C280.899 1926 279.3 1926.98 276.871 1926.98C273.934 1926.98 271.889 1925.17 271.889 1922.63C271.889 1921.09 272.596 1919.9 273.959 1919.13C274.938 1918.6 276.536 1918.21 278.99 1917.92L281.692 1917.59V1917.33C281.692 1914.69 280.713 1913.54 278.519 1913.54C276.412 1913.54 275.173 1914.6 275.049 1916.48H272.348C272.62 1913.3 274.925 1911.47 278.693 1911.47C282.51 1911.47 284.232 1913.36 284.232 1917.63V1921.64C284.245 1923.99 284.393 1925.54 284.753 1926.63ZM278.197 1919.91C275.619 1920.27 274.554 1921 274.554 1922.49C274.554 1924 275.595 1924.92 277.342 1924.92C280.006 1924.92 281.729 1923.09 281.729 1920.17V1919.43L278.197 1919.91Z" fill="#00BFFF"/>
<path d="M289.759 1922.07L292.312 1921.62C292.696 1923.79 294.084 1924.91 296.278 1924.91C298.261 1924.91 299.364 1924.08 299.364 1922.69C299.364 1921.2 298.595 1920.56 296.997 1920.37L294.592 1920.1C291.655 1919.78 290.267 1918.11 290.267 1915.83C290.267 1913.13 292.399 1911.44 295.894 1911.44C299.277 1911.44 301.557 1913.22 301.879 1915.94L299.388 1916.5C299.066 1914.73 297.852 1913.48 295.832 1913.48C293.874 1913.48 292.721 1914.28 292.721 1915.7C292.721 1916.97 293.551 1917.74 295.385 1917.95L297.752 1918.21C300.69 1918.54 301.842 1920.09 301.842 1922.43C301.842 1925.24 299.772 1926.97 296.154 1926.97C292.622 1926.99 290.292 1925.24 289.759 1922.07Z" fill="#00BFFF"/>
<path d="M324.632 1924.56H329.378V1913.89H325.078V1911.82H331.894V1924.56H336.9V1926.63H324.632V1924.56ZM332.154 1908.85H328.597V1905.29H332.154V1908.85Z" fill="#00BFFF"/>
<path d="M353.457 1913.86H347.831V1926.64H345.315V1913.86H340.779V1911.82H345.315V1910.18C345.315 1906.79 347.211 1905.04 350.892 1905.04C351.747 1905.04 352.465 1905.13 353.469 1905.34V1907.56C352.812 1907.48 352.019 1907.33 350.892 1907.33C348.636 1907.33 347.843 1908.1 347.843 1910.35V1911.8H353.469V1913.86H353.457Z" fill="#00BFFF"/>
<path d="M387.673 1926.63H385.033C384.909 1925.8 384.822 1924.82 384.797 1923.93C383.818 1926 382.22 1926.98 379.791 1926.98C376.854 1926.98 374.809 1925.17 374.809 1922.63C374.809 1921.09 375.515 1919.9 376.879 1919.13C377.858 1918.6 379.456 1918.21 381.91 1917.92L384.612 1917.59V1917.33C384.612 1914.69 383.633 1913.54 381.439 1913.54C379.332 1913.54 378.093 1914.6 377.969 1916.48H375.268C375.54 1913.3 377.845 1911.47 381.613 1911.47C385.43 1911.47 387.152 1913.36 387.152 1917.63V1921.64C387.177 1923.99 387.326 1925.54 387.673 1926.63ZM381.129 1919.91C378.552 1920.27 377.486 1921 377.486 1922.49C377.486 1924 378.527 1924.92 380.274 1924.92C382.939 1924.92 384.661 1923.09 384.661 1920.17V1919.43L381.129 1919.91Z" fill="#00BFFF"/>
<path d="M419.856 1911.52C420.922 1911.52 421.901 1911.64 422.521 1911.82V1914.16C421.926 1914.01 420.835 1913.86 419.77 1913.86C416.213 1913.86 413.375 1916.29 413.375 1921.13V1926.64H410.859V1911.82H413.35V1915.67C414.342 1913.33 416.771 1911.52 419.856 1911.52Z" fill="#00BFFF"/>
<path d="M439.201 1919.87H428.804C428.804 1922.66 430.402 1924.76 433.153 1924.76C435.112 1924.76 436.326 1923.55 437.07 1922.12L439.201 1923.25C437.962 1925.7 435.942 1926.98 433.153 1926.98C428.506 1926.98 426.226 1923.78 426.226 1918.92C426.226 1914.38 428.828 1911.44 432.98 1911.44C437.516 1911.44 439.263 1914.7 439.263 1918.73C439.263 1919.11 439.238 1919.49 439.201 1919.87ZM432.856 1913.41C430.154 1913.41 428.791 1915.63 428.791 1917.8H436.648C436.71 1915.42 435.533 1913.41 432.856 1913.41Z" fill="#00BFFF"/>
<path d="M444.716 1924.56H449.462V1907.22H445.013V1905.14H451.978V1924.56H456.984V1926.63H444.716V1924.56Z" fill="#00BFFF"/>
<path d="M461.867 1924.56H466.613V1913.89H462.313V1911.82H469.129V1924.56H474.135V1926.63H461.867V1924.56ZM469.389 1908.85H465.832V1905.29H469.389V1908.85Z" fill="#00BFFF"/>
<path d="M488.622 1912.99C489.477 1913.85 489.961 1915.04 489.961 1916.43C489.961 1919.45 487.705 1921.5 484.384 1921.5C483.343 1921.5 482.401 1921.29 481.633 1920.9C481.013 1921.2 480.592 1921.71 480.592 1922.39C480.592 1923.31 481.36 1923.88 483.046 1923.88H486.863C489.948 1923.88 491.696 1925.39 491.696 1927.91C491.696 1931.02 488.994 1932.77 484.372 1932.77C480.158 1932.77 477.643 1931.32 477.643 1929C477.643 1927.4 478.646 1926.21 480.22 1925.68C479.006 1925.17 478.349 1924.29 478.349 1923.04C478.349 1921.67 479.117 1920.67 480.48 1920.16C479.526 1919.3 478.993 1918.05 478.993 1916.58C478.993 1913.55 481.212 1911.44 484.508 1911.44C485.599 1911.44 486.553 1911.68 487.358 1912.1C487.891 1910.35 489.106 1909.37 490.94 1909.37C491.262 1909.37 491.621 1909.4 491.894 1909.5V1911.69C491.448 1911.63 491.188 1911.57 490.803 1911.57C489.725 1911.58 489.044 1912.01 488.622 1912.99ZM482.959 1926.1C482.513 1926.1 482.104 1926.07 481.72 1926.04C480.741 1926.48 480.146 1927.28 480.146 1928.29C480.146 1929.87 481.596 1930.7 484.644 1930.7C487.817 1930.7 489.18 1929.81 489.18 1928.18C489.18 1926.84 488.238 1926.11 486.305 1926.11H482.959V1926.1ZM487.581 1916.44C487.581 1914.67 486.305 1913.39 484.496 1913.39C482.662 1913.39 481.385 1914.69 481.385 1916.54C481.385 1918.35 482.624 1919.59 484.409 1919.59C486.255 1919.58 487.581 1918.25 487.581 1916.44Z" fill="#00BFFF"/>
<path d="M496.182 1924.56H500.928V1913.89H496.628V1911.82H503.444V1924.56H508.45V1926.63H496.182V1924.56ZM503.704 1908.85H500.147V1905.29H503.704V1908.85Z" fill="#00BFFF"/>
<path d="M511.908 1919.23C511.908 1914.52 514.659 1911.47 518.811 1911.47C522.962 1911.47 525.714 1914.52 525.714 1919.23C525.714 1923.94 522.962 1926.99 518.811 1926.99C514.672 1926.99 511.908 1923.88 511.908 1919.23ZM523.049 1919.23C523.049 1915.76 521.475 1913.65 518.811 1913.65C516.146 1913.65 514.573 1915.72 514.573 1919.23C514.573 1922.74 516.146 1924.81 518.811 1924.81C521.488 1924.8 523.049 1922.73 523.049 1919.23Z" fill="#00BFFF"/>
<path d="M537.102 1911.46C538.316 1911.46 539.679 1911.78 540.683 1912.73C541.662 1913.65 542.108 1915.08 542.108 1917.48V1926.64H539.593V1917.63C539.593 1914.39 537.994 1913.69 536.507 1913.69C533.161 1913.69 532.356 1916.8 532.356 1918.91V1926.64H529.84V1911.81H532.207V1914.75C532.975 1912.88 534.611 1911.46 537.102 1911.46Z" fill="#00BFFF"/>
<path d="M576.386 1926.63H573.747C573.623 1925.8 573.536 1924.82 573.511 1923.93C572.532 1926 570.934 1926.98 568.505 1926.98C565.568 1926.98 563.523 1925.17 563.523 1922.63C563.523 1921.09 564.229 1919.9 565.593 1919.13C566.572 1918.6 568.17 1918.21 570.636 1917.92L573.338 1917.59V1917.33C573.338 1914.69 572.359 1913.54 570.165 1913.54C568.059 1913.54 566.819 1914.6 566.695 1916.48H563.994C564.267 1913.3 566.572 1911.47 570.339 1911.47C574.156 1911.47 575.878 1913.36 575.878 1917.63V1921.64C575.878 1923.99 576.027 1925.54 576.386 1926.63ZM569.843 1919.91C567.266 1920.27 566.2 1921 566.2 1922.49C566.2 1924 567.241 1924.92 568.988 1924.92C571.652 1924.92 573.375 1923.09 573.375 1920.17V1919.43L569.843 1919.91Z" fill="#00BFFF"/>
<path d="M591.406 1911.52C592.472 1911.52 593.451 1911.64 594.071 1911.82V1914.16C593.476 1914.01 592.385 1913.86 591.32 1913.86C587.763 1913.86 584.913 1916.29 584.913 1921.13V1926.64H582.397V1911.82H584.888V1915.67C585.892 1913.33 588.321 1911.52 591.406 1911.52Z" fill="#00BFFF"/>
<path d="M597.689 1919.23C597.689 1914.52 600.441 1911.47 604.592 1911.47C608.744 1911.47 611.495 1914.52 611.495 1919.23C611.495 1923.94 608.744 1926.99 604.592 1926.99C600.441 1926.99 597.689 1923.88 597.689 1919.23ZM608.83 1919.23C608.83 1915.76 607.256 1913.65 604.592 1913.65C601.928 1913.65 600.354 1915.72 600.354 1919.23C600.354 1922.74 601.928 1924.81 604.592 1924.81C607.256 1924.8 608.83 1922.73 608.83 1919.23Z" fill="#00BFFF"/>
<path d="M620.714 1926.99C619.351 1926.99 617.963 1926.67 616.922 1925.69C615.968 1924.77 615.559 1923.38 615.559 1920.98V1911.82H618.137V1920.89C618.137 1924.13 619.673 1924.83 621.222 1924.83C624.333 1924.83 625.077 1921.72 625.077 1919.55V1911.82H627.592V1926.65H625.225V1923.83C624.655 1925.31 622.908 1926.99 620.714 1926.99Z" fill="#00BFFF"/>
<path d="M640.034 1911.46C641.249 1911.46 642.612 1911.78 643.616 1912.73C644.595 1913.65 645.041 1915.08 645.041 1917.48V1926.64H642.525V1917.63C642.525 1914.39 640.927 1913.69 639.44 1913.69C636.094 1913.69 635.288 1916.8 635.288 1918.91V1926.64H632.772V1911.81H635.139V1914.75C635.908 1912.88 637.544 1911.46 640.034 1911.46Z" fill="#00BFFF"/>
<path d="M661.771 1905.14V1926.63H659.404V1923.88C658.512 1925.8 657.124 1926.99 654.695 1926.99C650.99 1926.99 648.585 1923.9 648.585 1919.19C648.585 1914.54 651.163 1911.46 655.079 1911.46C657.099 1911.46 658.512 1912.55 659.255 1914.01V1905.14H661.771ZM655.315 1913.68C652.762 1913.68 651.25 1915.72 651.25 1919.19C651.25 1922.63 652.762 1924.77 655.215 1924.77C657.731 1924.77 659.305 1922.76 659.305 1919.55V1918.87C659.317 1915.7 657.781 1913.68 655.315 1913.68Z" fill="#00BFFF"/>
<path d="M697.474 1907.96H687.337V1914.69H696.669V1917.06H687.337V1926.63H684.586V1905.58H697.474V1907.96Z" fill="#00BFFF"/>
<path d="M702.047 1924.56H706.793V1907.22H702.344V1905.14H709.309V1924.56H714.315V1926.63H702.047V1924.56Z" fill="#00BFFF"/>
<path d="M730.785 1926.63H728.146C728.022 1925.8 727.935 1924.82 727.91 1923.93C726.931 1926 725.333 1926.98 722.904 1926.98C719.967 1926.98 717.922 1925.17 717.922 1922.63C717.922 1921.09 718.628 1919.9 719.991 1919.13C720.97 1918.6 722.569 1918.21 725.023 1917.92L727.724 1917.59V1917.33C727.724 1914.69 726.745 1913.54 724.552 1913.54C722.445 1913.54 721.206 1914.6 721.082 1916.48H718.38C718.641 1913.3 720.958 1911.47 724.725 1911.47C728.542 1911.47 730.265 1913.36 730.265 1917.63V1921.64C730.277 1923.99 730.426 1925.54 730.785 1926.63ZM724.23 1919.91C721.652 1920.27 720.586 1921 720.586 1922.49C720.586 1924 721.627 1924.92 723.375 1924.92C726.039 1924.92 727.762 1923.09 727.762 1920.17V1919.43L724.23 1919.91Z" fill="#00BFFF"/>
<path d="M735.259 1911.81H739.497V1907.93L742.013 1906.87V1911.81H747.788V1913.86H742.013V1921.54C742.013 1923.52 742.955 1924.47 744.851 1924.47C745.83 1924.47 746.871 1924.39 747.788 1924.2V1926.52C747.019 1926.69 746.189 1926.9 744.888 1926.9C741.182 1926.9 739.497 1924.83 739.497 1921.9V1913.86H735.259V1911.81Z" fill="#00BFFF"/>
<path d="M100.153 1945.27H106.312C112.087 1945.27 115.26 1949.68 115.26 1955.76C115.26 1961.77 111.79 1966.31 106.25 1966.31H100.141V1945.27H100.153ZM106.225 1964C110.191 1964 112.422 1960.12 112.422 1955.76C112.422 1951.28 110.377 1947.57 106.287 1947.57H102.904V1964H106.225Z" fill="#00BFFF"/>
<path d="M130.403 1959.55H120.006C120.006 1962.34 121.605 1964.44 124.356 1964.44C126.314 1964.44 127.528 1963.22 128.272 1961.8L130.403 1962.93C129.164 1965.38 127.144 1966.66 124.356 1966.66C119.709 1966.66 117.416 1963.46 117.416 1958.6C117.416 1954.06 120.018 1951.12 124.17 1951.12C128.706 1951.12 130.453 1954.38 130.453 1958.41C130.465 1958.78 130.441 1959.17 130.403 1959.55ZM124.071 1953.09C121.369 1953.09 120.006 1955.31 120.006 1957.48H127.863C127.925 1955.1 126.735 1953.09 124.071 1953.09Z" fill="#00BFFF"/>
<path d="M135.36 1961.75L137.913 1961.3C138.297 1963.47 139.685 1964.59 141.879 1964.59C143.862 1964.59 144.965 1963.76 144.965 1962.37C144.965 1960.88 144.196 1960.23 142.598 1960.05L140.193 1959.78C137.256 1959.45 135.868 1957.79 135.868 1955.51C135.868 1952.81 138 1951.12 141.495 1951.12C144.878 1951.12 147.158 1952.89 147.48 1955.62L144.989 1956.18C144.667 1954.41 143.453 1953.15 141.433 1953.15C139.475 1953.15 138.322 1953.96 138.322 1955.37C138.322 1956.65 139.152 1957.42 140.987 1957.63L143.354 1957.89C146.291 1958.21 147.443 1959.76 147.443 1962.11C147.443 1964.92 145.374 1966.65 141.755 1966.65C138.235 1966.67 135.893 1964.92 135.36 1961.75Z" fill="#00BFFF"/>
<path d="M153.069 1964.24H157.816V1953.56H153.515V1951.49H160.331V1964.24H165.338V1966.31H153.069V1964.24ZM160.604 1948.53H157.047V1944.97H160.604V1948.53Z" fill="#00BFFF"/>
<path d="M179.825 1952.67C180.68 1953.53 181.163 1954.72 181.163 1956.11C181.163 1959.13 178.907 1961.18 175.586 1961.18C174.545 1961.18 173.603 1960.97 172.835 1960.58C172.215 1960.88 171.794 1961.39 171.794 1962.07C171.794 1962.99 172.562 1963.56 174.248 1963.56H178.065C181.151 1963.56 182.898 1965.07 182.898 1967.59C182.898 1970.7 180.196 1972.45 175.574 1972.45C171.36 1972.45 168.845 1971 168.845 1968.68C168.845 1967.08 169.849 1965.89 171.422 1965.36C170.208 1964.85 169.551 1963.97 169.551 1962.71C169.551 1961.35 170.319 1960.35 171.683 1959.84C170.728 1958.98 170.196 1957.73 170.196 1956.25C170.196 1953.23 172.414 1951.12 175.71 1951.12C176.801 1951.12 177.755 1951.36 178.56 1951.78C179.093 1950.03 180.308 1949.05 182.142 1949.05C182.464 1949.05 182.824 1949.08 183.096 1949.17V1951.37C182.65 1951.31 182.39 1951.25 182.006 1951.25C180.927 1951.26 180.246 1951.69 179.825 1952.67ZM174.174 1965.78C173.727 1965.78 173.318 1965.75 172.934 1965.72C171.955 1966.16 171.36 1966.96 171.36 1967.97C171.36 1969.55 172.81 1970.38 175.859 1970.38C179.031 1970.38 180.395 1969.49 180.395 1967.86C180.395 1966.52 179.44 1965.79 177.52 1965.79H174.174V1965.78ZM178.796 1956.12C178.796 1954.35 177.52 1953.07 175.71 1953.07C173.876 1953.07 172.6 1954.37 172.6 1956.22C172.6 1958.03 173.839 1959.27 175.623 1959.27C177.458 1959.26 178.796 1957.93 178.796 1956.12Z" fill="#00BFFF"/>
<path d="M193.99 1951.13C195.204 1951.13 196.567 1951.46 197.571 1952.41C198.55 1953.33 198.996 1954.75 198.996 1957.16V1966.32H196.48V1957.31C196.48 1954.07 194.882 1953.37 193.395 1953.37C190.049 1953.37 189.243 1956.48 189.243 1958.59V1966.32H186.728V1951.49H189.095V1954.43C189.875 1952.56 191.499 1951.13 193.99 1951.13Z" fill="#00BFFF"/>
<path d="M211.971 1966.31H208.03V1962.52H211.971V1966.31Z" fill="#00BFFF"/>
<path d="M245.691 1947.49V1964.09H250.97V1966.31H237.698V1964.09H242.94V1947.49H237.698V1945.27H250.97V1947.49H245.691Z" fill="#00BFFF"/>
<path d="M254.911 1951.49H259.149V1947.61L261.665 1946.55V1951.49H267.44V1953.54H261.665V1961.21C261.665 1963.2 262.619 1964.15 264.515 1964.15C265.494 1964.15 266.535 1964.07 267.452 1963.88V1966.2C266.684 1966.37 265.854 1966.58 264.553 1966.58C260.847 1966.58 259.162 1964.51 259.162 1961.57V1953.54H254.924V1951.49H254.911Z" fill="#00BFFF"/>
<path d="M290.081 1951.49L291.593 1961.66L291.89 1963.77H292.101C292.225 1963.09 292.312 1962.62 292.572 1961.28L294.493 1951.49H297.07L298.991 1961.28C299.264 1962.62 299.351 1963.09 299.462 1963.77H299.673L299.97 1961.66L301.482 1951.49H304.122L301.247 1966.32H298.074L296.153 1956.75C296.029 1956.16 295.918 1954.92 295.881 1954.32H295.67C295.645 1954.92 295.521 1956.16 295.41 1956.75L293.489 1966.32H290.316L287.441 1951.49H290.081Z" fill="#00BFFF"/>
<path d="M319.055 1966.31H316.415C316.291 1965.48 316.205 1964.5 316.18 1963.61C315.201 1965.68 313.602 1966.66 311.173 1966.66C308.236 1966.66 306.191 1964.85 306.191 1962.3C306.191 1960.77 306.898 1959.58 308.261 1958.81C309.24 1958.28 310.839 1957.89 313.292 1957.59L315.994 1957.27V1957.01C315.994 1954.37 315.015 1953.22 312.821 1953.22C310.715 1953.22 309.475 1954.28 309.352 1956.15H306.65C306.923 1952.98 309.228 1951.15 312.995 1951.15C316.812 1951.15 318.534 1953.04 318.534 1957.31V1961.31C318.547 1963.67 318.695 1965.22 319.055 1966.31ZM312.512 1959.59C309.934 1959.95 308.868 1960.68 308.868 1962.17C308.868 1963.68 309.909 1964.6 311.657 1964.6C314.321 1964.6 316.043 1962.76 316.043 1959.85V1959.11L312.512 1959.59Z" fill="#00BFFF"/>
<path d="M324.062 1961.75L326.614 1961.3C326.999 1963.47 328.387 1964.59 330.58 1964.59C332.563 1964.59 333.666 1963.76 333.666 1962.37C333.666 1960.88 332.897 1960.23 331.299 1960.05L328.895 1959.78C325.958 1959.45 324.57 1957.79 324.57 1955.51C324.57 1952.81 326.701 1951.12 330.196 1951.12C333.579 1951.12 335.859 1952.89 336.181 1955.62L333.691 1956.18C333.368 1954.41 332.154 1953.15 330.134 1953.15C328.176 1953.15 327.023 1953.96 327.023 1955.37C327.023 1956.65 327.854 1957.42 329.688 1957.63L332.055 1957.89C334.992 1958.21 336.144 1959.76 336.144 1962.11C336.144 1964.92 334.075 1966.65 330.456 1966.65C326.937 1966.67 324.594 1964.92 324.062 1961.75Z" fill="#00BFFF"/>
<path d="M357.844 1951.49H362.082V1947.61L364.598 1946.55V1951.49H370.373V1953.54H364.598V1961.21C364.598 1963.2 365.552 1964.15 367.448 1964.15C368.427 1964.15 369.468 1964.07 370.385 1963.88V1966.2C369.617 1966.37 368.786 1966.58 367.485 1966.58C363.78 1966.58 362.094 1964.51 362.094 1961.57V1953.54H357.856V1951.49H357.844Z" fill="#00BFFF"/>
<path d="M382.617 1951.13C383.806 1951.13 385.219 1951.46 386.26 1952.44C387.214 1953.35 387.71 1954.75 387.71 1957.15V1966.31H385.194V1957.3C385.194 1954.06 383.571 1953.35 381.997 1953.35C378.762 1953.35 377.969 1956.47 377.969 1958.57V1966.31H375.454V1944.82H377.969V1954.2C378.639 1952.41 380.473 1951.13 382.617 1951.13Z" fill="#00BFFF"/>
<path d="M404.898 1959.55H394.501C394.501 1962.34 396.1 1964.44 398.851 1964.44C400.809 1964.44 402.023 1963.22 402.767 1961.8L404.898 1962.93C403.659 1965.38 401.639 1966.66 398.851 1966.66C394.204 1966.66 391.923 1963.46 391.923 1958.6C391.923 1954.06 394.526 1951.12 398.677 1951.12C403.213 1951.12 404.96 1954.38 404.96 1958.41C404.948 1958.78 404.923 1959.17 404.898 1959.55ZM398.553 1953.09C395.852 1953.09 394.489 1955.31 394.489 1957.48H402.346C402.407 1955.1 401.218 1953.09 398.553 1953.09Z" fill="#00BFFF"/>
<path d="M426.139 1958.91C426.139 1954.2 428.89 1951.15 433.042 1951.15C437.193 1951.15 439.944 1954.2 439.944 1958.91C439.944 1963.62 437.193 1966.67 433.042 1966.67C428.89 1966.67 426.139 1963.56 426.139 1958.91ZM437.28 1958.91C437.28 1955.44 435.706 1953.33 433.042 1953.33C430.377 1953.33 428.804 1955.4 428.804 1958.91C428.804 1962.42 430.377 1964.49 433.042 1964.49C435.706 1964.47 437.28 1962.4 437.28 1958.91Z" fill="#00BFFF"/>
<path d="M451.321 1951.13C452.535 1951.13 453.898 1951.46 454.902 1952.41C455.881 1953.33 456.327 1954.75 456.327 1957.16V1966.32H453.811V1957.31C453.811 1954.07 452.213 1953.37 450.726 1953.37C447.38 1953.37 446.574 1956.48 446.574 1958.59V1966.32H444.059V1951.49H446.426V1954.43C447.206 1952.56 448.83 1951.13 451.321 1951.13Z" fill="#00BFFF"/>
<path d="M461.867 1964.24H466.613V1946.89H462.164V1944.82H469.129V1964.24H474.135V1966.31H461.867V1964.24Z" fill="#00BFFF"/>
<path d="M484.743 1963.38L488.857 1951.49H491.559L485.635 1967.27C484.272 1971.03 482.5 1972.27 480.009 1972.27C479.563 1972.27 479.117 1972.25 478.646 1972.15V1969.93C479.03 1969.96 479.39 1969.99 479.712 1969.99C481.521 1969.99 482.438 1969.19 483.12 1967.24L483.504 1966.15L477.729 1951.51H480.567L484.743 1963.38Z" fill="#00BFFF"/>
<path d="M513.097 1951.49L514.609 1961.66L514.907 1963.77H515.117C515.241 1963.09 515.328 1962.62 515.588 1961.28L517.509 1951.49H520.087L522.008 1961.28C522.268 1962.62 522.367 1963.09 522.479 1963.77H522.689L522.987 1961.66L524.499 1951.49H527.138L524.263 1966.32H521.091L519.17 1956.75C519.046 1956.16 518.934 1954.92 518.91 1954.32H518.699C518.674 1954.92 518.55 1956.16 518.439 1956.75L516.518 1966.32H513.345L510.47 1951.49H513.097Z" fill="#00BFFF"/>
<path d="M542.071 1966.31H539.444C539.32 1965.48 539.233 1964.5 539.209 1963.61C538.23 1965.68 536.631 1966.66 534.202 1966.66C531.265 1966.66 529.22 1964.85 529.22 1962.3C529.22 1960.77 529.927 1959.58 531.29 1958.81C532.269 1958.28 533.867 1957.89 536.334 1957.59L539.035 1957.27V1957.01C539.035 1954.37 538.056 1953.22 535.863 1953.22C533.756 1953.22 532.517 1954.28 532.393 1956.15H529.691C529.964 1952.98 532.269 1951.15 536.036 1951.15C539.853 1951.15 541.576 1953.04 541.576 1957.31V1961.31C541.576 1963.67 541.724 1965.22 542.071 1966.31ZM535.528 1959.59C532.95 1959.95 531.885 1960.68 531.885 1962.17C531.885 1963.68 532.926 1964.6 534.673 1964.6C537.337 1964.6 539.06 1962.76 539.06 1959.85V1959.11L535.528 1959.59Z" fill="#00BFFF"/>
<path d="M553.361 1963.38L557.475 1951.49H560.177L554.253 1967.27C552.89 1971.03 551.105 1972.27 548.627 1972.27C548.181 1972.27 547.735 1972.25 547.264 1972.15V1969.93C547.648 1969.96 548.007 1969.99 548.329 1969.99C550.139 1969.99 551.056 1969.19 551.737 1967.24L552.122 1966.15L546.347 1951.51H549.197L553.361 1963.38Z" fill="#00BFFF"/>
<path d="M580.86 1951.49H585.098V1947.61L587.614 1946.55V1951.49H593.389V1953.54H587.614V1961.21C587.614 1963.2 588.568 1964.15 590.464 1964.15C591.443 1964.15 592.484 1964.07 593.401 1963.88V1966.2C592.633 1966.37 591.802 1966.58 590.501 1966.58C586.796 1966.58 585.11 1964.51 585.11 1961.57V1953.54H580.872V1951.49H580.86Z" fill="#00BFFF"/>
<path d="M605.633 1951.13C606.822 1951.13 608.235 1951.46 609.276 1952.44C610.218 1953.35 610.726 1954.75 610.726 1957.15V1966.31H608.21V1957.3C608.21 1954.06 606.587 1953.35 605.013 1953.35C601.779 1953.35 600.985 1956.47 600.985 1958.57V1966.31H598.47V1944.82H600.985V1954.2C601.655 1952.41 603.489 1951.13 605.633 1951.13Z" fill="#00BFFF"/>
<path d="M627.914 1959.55H617.517C617.517 1962.34 619.115 1964.44 621.867 1964.44C623.825 1964.44 625.039 1963.22 625.783 1961.8L627.914 1962.93C626.675 1965.38 624.655 1966.66 621.867 1966.66C617.219 1966.66 614.927 1963.46 614.927 1958.6C614.927 1954.06 617.529 1951.12 621.681 1951.12C626.216 1951.12 627.964 1954.38 627.964 1958.41C627.964 1958.78 627.939 1959.17 627.914 1959.55ZM621.569 1953.09C618.868 1953.09 617.504 1955.31 617.504 1957.48H625.361C625.423 1955.1 624.234 1953.09 621.569 1953.09Z" fill="#00BFFF"/>
<path d="M650.332 1951.49L651.844 1961.66L652.142 1963.77H652.352C652.476 1963.09 652.563 1962.62 652.823 1961.28L654.744 1951.49H657.322L659.243 1961.28C659.515 1962.62 659.602 1963.09 659.713 1963.77H659.924L660.222 1961.66L661.733 1951.49H664.373L661.498 1966.32H658.326L656.405 1956.75C656.281 1956.16 656.169 1954.92 656.132 1954.32H655.934C655.909 1954.92 655.785 1956.16 655.673 1956.75L653.753 1966.32H650.58L647.705 1951.49H650.332Z" fill="#00BFFF"/>
<path d="M666.307 1958.91C666.307 1954.2 669.058 1951.15 673.209 1951.15C677.361 1951.15 680.112 1954.2 680.112 1958.91C680.112 1963.62 677.361 1966.67 673.209 1966.67C669.07 1966.67 666.307 1963.56 666.307 1958.91ZM677.448 1958.91C677.448 1955.44 675.874 1953.33 673.209 1953.33C670.545 1953.33 668.971 1955.4 668.971 1958.91C668.971 1962.42 670.545 1964.49 673.209 1964.49C675.874 1964.47 677.448 1962.4 677.448 1958.91Z" fill="#00BFFF"/>
<path d="M694.338 1951.2C695.404 1951.2 696.383 1951.32 697.003 1951.49V1953.84C696.408 1953.69 695.317 1953.54 694.252 1953.54C690.695 1953.54 687.857 1955.97 687.857 1960.8V1966.32H685.341V1951.49H687.832V1955.35C688.824 1953.01 691.253 1951.2 694.338 1951.2Z" fill="#00BFFF"/>
<path d="M702.047 1964.24H706.793V1946.89H702.344V1944.82H709.309V1964.24H714.315V1966.31H702.047V1964.24Z" fill="#00BFFF"/>
<path d="M730.401 1944.82V1966.31H728.033V1963.56C727.141 1965.48 725.753 1966.67 723.324 1966.67C719.619 1966.67 717.215 1963.58 717.215 1958.87C717.215 1954.22 719.792 1951.13 723.709 1951.13C725.728 1951.13 727.141 1952.22 727.885 1953.69V1944.82H730.401ZM723.932 1953.35C721.379 1953.35 719.867 1955.4 719.867 1958.87C719.867 1962.31 721.379 1964.45 723.832 1964.45C726.348 1964.45 727.922 1962.44 727.922 1959.23V1958.55C727.934 1955.37 726.398 1953.35 723.932 1953.35Z" fill="#00BFFF"/>
<path d="M101.603 2003.92H106.349V1993.24H102.049V1991.17H108.865V2003.92H113.872V2005.99H101.603V2003.92ZM109.138 1988.21H105.581V1984.65H109.138V1988.21Z" fill="#00BFFF"/>
<path d="M125.372 1990.81C126.586 1990.81 127.95 1991.13 128.953 1992.09C129.932 1993.01 130.378 1994.43 130.378 1996.84V2006H127.863V1996.99C127.863 1993.75 126.264 1993.04 124.777 1993.04C121.431 1993.04 120.626 1996.16 120.626 1998.26V2006H118.11V1991.17H120.477V1994.11C121.258 1992.24 122.881 1990.81 125.372 1990.81Z" fill="#00BFFF"/>
<path d="M135.36 2001.43L137.913 2000.98C138.297 2003.15 139.685 2004.27 141.879 2004.27C143.862 2004.27 144.965 2003.43 144.965 2002.05C144.965 2000.56 144.196 1999.91 142.598 1999.73L140.193 1999.45C137.256 1999.13 135.868 1997.47 135.868 1995.19C135.868 1992.49 138 1990.8 141.495 1990.8C144.878 1990.8 147.158 1992.57 147.48 1995.3L144.989 1995.86C144.667 1994.09 143.453 1992.83 141.433 1992.83C139.475 1992.83 138.322 1993.64 138.322 1995.05C138.322 1996.33 139.152 1997.1 140.987 1997.31L143.354 1997.57C146.291 1997.89 147.443 1999.44 147.443 2001.79C147.443 2004.6 145.374 2006.32 141.755 2006.32C138.235 2006.35 135.893 2004.6 135.36 2001.43Z" fill="#00BFFF"/>
<path d="M153.069 2003.92H157.816V1993.24H153.515V1991.17H160.331V2003.92H165.338V2005.99H153.069V2003.92ZM160.604 1988.21H157.047V1984.65H160.604V1988.21Z" fill="#00BFFF"/>
<path d="M181.423 1984.5V2005.99H179.056V2003.24C178.164 2005.16 176.776 2006.35 174.347 2006.35C170.642 2006.35 168.238 2003.26 168.238 1998.55C168.238 1993.9 170.815 1990.81 174.731 1990.81C176.751 1990.81 178.164 1991.9 178.908 1993.37V1984.5H181.423ZM174.967 1993.03C172.414 1993.03 170.902 1995.08 170.902 1998.55C170.902 2001.98 172.414 2004.13 174.868 2004.13C177.383 2004.13 178.957 2002.12 178.957 1998.91V1998.23C178.97 1995.05 177.433 1993.03 174.967 1993.03Z" fill="#00BFFF"/>
<path d="M199.033 1999.23H188.636C188.636 2002.02 190.234 2004.12 192.986 2004.12C194.944 2004.12 196.158 2002.9 196.902 2001.48L199.033 2002.6C197.794 2005.06 195.774 2006.34 192.986 2006.34C188.338 2006.34 186.058 2003.14 186.058 1998.28C186.058 1993.74 188.661 1990.8 192.812 1990.8C197.348 1990.8 199.095 1994.06 199.095 1998.09C199.083 1998.46 199.058 1998.85 199.033 1999.23ZM192.688 1992.77C189.987 1992.77 188.623 1994.99 188.623 1997.16H196.48C196.542 1994.78 195.353 1992.77 192.688 1992.77Z" fill="#00BFFF"/>
<path d="M220.596 1991.17H224.834V1987.29L227.35 1986.22V1991.17H233.125V1993.22H227.35V2000.89C227.35 2002.88 228.304 2003.83 230.2 2003.83C231.179 2003.83 232.22 2003.75 233.137 2003.56V2005.88C232.369 2006.05 231.539 2006.26 230.238 2006.26C226.532 2006.26 224.847 2004.19 224.847 2001.25V1993.22H220.609V1991.17H220.596Z" fill="#00BFFF"/>
<path d="M245.369 1990.81C246.559 1990.81 247.971 1991.13 249.012 1992.11C249.967 1993.03 250.462 1994.43 250.462 1996.83V2005.99H247.947V1996.97C247.947 1993.74 246.311 1993.03 244.749 1993.03C241.515 1993.03 240.722 1996.14 240.722 1998.25V2005.99H238.206V1984.5H240.722V1993.87C241.403 1992.09 243.237 1990.81 245.369 1990.81Z" fill="#00BFFF"/>
<path d="M267.651 1999.23H257.253C257.253 2002.02 258.852 2004.12 261.603 2004.12C263.561 2004.12 264.776 2002.9 265.519 2001.48L267.651 2002.6C266.412 2005.06 264.392 2006.34 261.603 2006.34C256.956 2006.34 254.676 2003.14 254.676 1998.28C254.676 1993.74 257.278 1990.8 261.43 1990.8C265.965 1990.8 267.713 1994.06 267.713 1998.09C267.713 1998.46 267.676 1998.85 267.651 1999.23ZM261.306 1992.77C258.604 1992.77 257.241 1994.99 257.241 1997.16H265.098C265.16 1994.78 263.983 1992.77 261.306 1992.77Z" fill="#00BFFF"/>
<path d="M289.759 2001.43L292.312 2000.98C292.696 2003.15 294.084 2004.27 296.278 2004.27C298.261 2004.27 299.364 2003.43 299.364 2002.05C299.364 2000.56 298.595 1999.91 296.997 1999.73L294.592 1999.45C291.655 1999.13 290.267 1997.47 290.267 1995.19C290.267 1992.49 292.399 1990.8 295.894 1990.8C299.277 1990.8 301.557 1992.57 301.879 1995.3L299.388 1995.86C299.066 1994.09 297.852 1992.83 295.832 1992.83C293.874 1992.83 292.721 1993.64 292.721 1995.05C292.721 1996.33 293.551 1997.1 295.385 1997.31L297.752 1997.57C300.69 1997.89 301.842 1999.44 301.842 2001.79C301.842 2004.6 299.772 2006.32 296.154 2006.32C292.622 2006.35 290.292 2004.6 289.759 2001.43Z" fill="#00BFFF"/>
<path d="M306.142 1998.49C306.142 1994.07 308.398 1990.81 313.045 1990.81C316.329 1990.81 318.708 1992.71 319.055 1996.12L316.477 1996.42C316.205 1994.22 314.966 1993.01 312.859 1993.01C310.132 1993.01 308.745 1995.2 308.745 1998.46C308.745 2001.85 310.132 2004.13 312.958 2004.13C315.127 2004.13 316.279 2002.83 316.626 2000.57L319.03 2000.96C318.559 2003.98 316.626 2006.35 312.958 2006.35C308.447 2006.35 306.142 2002.94 306.142 1998.49Z" fill="#00BFFF"/>
<path d="M334.075 1990.87C335.14 1990.87 336.119 1991 336.739 1991.17V1993.52C336.144 1993.37 335.054 1993.22 333.988 1993.22C330.431 1993.22 327.593 1995.65 327.593 2000.48V2006H325.078V1991.17H327.569V1995.03C328.572 1992.68 331.001 1990.87 334.075 1990.87Z" fill="#00BFFF"/>
<path d="M353.432 1999.23H343.035C343.035 2002.02 344.633 2004.12 347.384 2004.12C349.342 2004.12 350.557 2002.9 351.3 2001.48L353.432 2002.6C352.193 2005.06 350.173 2006.34 347.384 2006.34C342.737 2006.34 340.457 2003.14 340.457 1998.28C340.457 1993.74 343.059 1990.8 347.211 1990.8C351.747 1990.8 353.494 1994.06 353.494 1998.09C353.482 1998.46 353.457 1998.85 353.432 1999.23ZM347.087 1992.77C344.385 1992.77 343.022 1994.99 343.022 1997.16H350.879C350.941 1994.78 349.751 1992.77 347.087 1992.77Z" fill="#00BFFF"/>
<path d="M370.583 1999.23H360.186C360.186 2002.02 361.784 2004.12 364.535 2004.12C366.494 2004.12 367.708 2002.9 368.452 2001.48L370.583 2002.6C369.344 2005.06 367.324 2006.34 364.535 2006.34C359.888 2006.34 357.596 2003.14 357.596 1998.28C357.596 1993.74 360.198 1990.8 364.35 1990.8C368.885 1990.8 370.633 1994.06 370.633 1998.09C370.645 1998.46 370.608 1998.85 370.583 1999.23ZM364.238 1992.77C361.537 1992.77 360.173 1994.99 360.173 1997.16H368.03C368.092 1994.78 366.902 1992.77 364.238 1992.77Z" fill="#00BFFF"/>
<path d="M382.703 1990.81C383.918 1990.81 385.281 1991.13 386.285 1992.09C387.264 1993.01 387.71 1994.43 387.71 1996.84V2006H385.194V1996.99C385.194 1993.75 383.596 1993.04 382.109 1993.04C378.763 1993.04 377.957 1996.16 377.957 1998.26V2006H375.441V1991.17H377.808V1994.11C378.577 1992.24 380.213 1990.81 382.703 1990.81Z" fill="#00BFFF"/>
<path d="M409.074 1998.49C409.074 1994.07 411.33 1990.81 415.977 1990.81C419.261 1990.81 421.64 1992.71 421.987 1996.12L419.41 1996.42C419.137 1994.22 417.898 1993.01 415.791 1993.01C413.065 1993.01 411.677 1995.2 411.677 1998.46C411.677 2001.85 413.065 2004.13 415.89 2004.13C418.059 2004.13 419.211 2002.83 419.558 2000.57L421.963 2000.96C421.492 2003.98 419.558 2006.35 415.89 2006.35C411.379 2006.35 409.074 2002.94 409.074 1998.49Z" fill="#00BFFF"/>
<path d="M426.139 1998.59C426.139 1993.87 428.89 1990.82 433.042 1990.82C437.193 1990.82 439.944 1993.87 439.944 1998.59C439.944 2003.3 437.193 2006.35 433.042 2006.35C428.89 2006.35 426.139 2003.24 426.139 1998.59ZM437.28 1998.59C437.28 1995.11 435.706 1993.01 433.042 1993.01C430.377 1993.01 428.804 1995.08 428.804 1998.59C428.804 2002.1 430.377 2004.17 433.042 2004.17C435.706 2004.15 437.28 2002.08 437.28 1998.59Z" fill="#00BFFF"/>
<path d="M449.152 2006.35C447.789 2006.35 446.401 2006.03 445.36 2005.05C444.406 2004.13 443.997 2002.74 443.997 2000.34V1991.17H446.574V2000.25C446.574 2003.48 448.111 2004.19 449.66 2004.19C452.77 2004.19 453.514 2001.08 453.514 1998.91V1991.17H456.03V2006H453.663V2003.19C453.093 2004.66 451.345 2006.35 449.152 2006.35Z" fill="#00BFFF"/>
<path d="M461.867 2003.92H466.613V1986.57H462.164V1984.5H469.129V2003.92H474.135V2005.99H461.867V2003.92Z" fill="#00BFFF"/>
<path d="M490.221 1984.5V2005.99H487.854V2003.24C486.962 2005.16 485.574 2006.35 483.145 2006.35C479.439 2006.35 477.035 2003.26 477.035 1998.55C477.035 1993.9 479.613 1990.81 483.529 1990.81C485.549 1990.81 486.962 1991.9 487.705 1993.37V1984.5H490.221ZM483.764 1993.03C481.211 1993.03 479.7 1995.08 479.7 1998.55C479.7 2001.98 481.211 2004.13 483.665 2004.13C486.181 2004.13 487.755 2002.12 487.755 1998.91V1998.23C487.767 1995.05 486.218 1993.03 483.764 1993.03Z" fill="#00BFFF"/>
<path d="M513.333 2003.92H518.079V1986.57H513.63V1984.5H520.595V2003.92H525.602V2005.99H513.333V2003.92Z" fill="#00BFFF"/>
<path d="M529.071 1998.59C529.071 1993.87 531.822 1990.82 535.974 1990.82C540.125 1990.82 542.877 1993.87 542.877 1998.59C542.877 2003.3 540.125 2006.35 535.974 2006.35C531.822 2006.35 529.071 2003.24 529.071 1998.59ZM540.212 1998.59C540.212 1995.11 538.638 1993.01 535.974 1993.01C533.31 1993.01 531.736 1995.08 531.736 1998.59C531.736 2002.1 533.31 2004.17 535.974 2004.17C538.638 2004.15 540.212 2002.08 540.212 1998.59Z" fill="#00BFFF"/>
<path d="M546.223 1998.59C546.223 1993.87 548.974 1990.82 553.125 1990.82C557.277 1990.82 560.028 1993.87 560.028 1998.59C560.028 2003.3 557.277 2006.35 553.125 2006.35C548.974 2006.35 546.223 2003.24 546.223 1998.59ZM557.364 1998.59C557.364 1995.11 555.79 1993.01 553.125 1993.01C550.461 1993.01 548.887 1995.08 548.887 1998.59C548.887 2002.1 550.461 2004.17 553.125 2004.17C555.79 2004.15 557.364 2002.08 557.364 1998.59Z" fill="#00BFFF"/>
<path d="M569.781 1998.72L567.079 2001.45V2005.99H564.563V1984.5H567.079V1998.46L573.722 1991.17H577.006L571.578 1996.89L577.353 2005.99H574.242L569.781 1998.72Z" fill="#00BFFF"/>
<path d="M599.114 2003.92H603.86V1986.57H599.411V1984.5H606.364V2003.92H611.37V2005.99H599.102V2003.92H599.114Z" fill="#00BFFF"/>
<path d="M616.266 2003.92H621.012V1993.24H616.712V1991.17H623.528V2003.92H628.534V2005.99H616.266V2003.92ZM623.788 1988.21H620.231V1984.65H623.788V1988.21Z" fill="#00BFFF"/>
<path d="M638.398 1998.72L635.697 2001.45V2005.99H633.181V1984.5H635.697V1998.46L642.339 1991.17H645.623L640.195 1996.89L645.97 2005.99H642.86L638.398 1998.72Z" fill="#00BFFF"/>
<path d="M662.217 1999.23H651.819C651.819 2002.02 653.418 2004.12 656.169 2004.12C658.127 2004.12 659.342 2002.9 660.085 2001.48L662.217 2002.6C660.978 2005.06 658.958 2006.34 656.169 2006.34C651.522 2006.34 649.229 2003.14 649.229 1998.28C649.229 1993.74 651.832 1990.8 655.983 1990.8C660.519 1990.8 662.266 1994.06 662.266 1998.09C662.279 1998.46 662.254 1998.85 662.217 1999.23ZM655.884 1992.77C653.183 1992.77 651.819 1994.99 651.819 1997.16H659.676C659.726 1994.78 658.549 1992.77 655.884 1992.77Z" fill="#00BFFF"/>
<path d="M675.167 2005.99H671.227V2002.2H675.167V2005.99Z" fill="#00BFFF"/>
<path d="M708.801 2000.96H706.248L704.414 1992.71C704.116 1991.47 703.645 1988.77 703.46 1987.28H703.286C703.311 1988.62 703.348 1991.13 703.348 1992.91V2005.98H700.746V1984.92H704.748L707.115 1995.92C707.239 1996.58 707.376 1997.37 707.438 1997.79H707.611C707.673 1997.38 707.822 1996.58 707.933 1995.92L710.3 1984.92H714.303V2005.98H711.701V1992.91C711.701 1991.13 711.725 1988.61 711.763 1987.28H711.589C711.416 1988.77 710.932 1991.46 710.635 1992.71L708.801 2000.96Z" fill="#00BFFF"/>
<path d="M723.634 2006.35C722.271 2006.35 720.883 2006.03 719.842 2005.05C718.9 2004.13 718.479 2002.74 718.479 2000.34V1991.17H721.057V2000.25C721.057 2003.48 722.593 2004.19 724.142 2004.19C727.253 2004.19 727.997 2001.08 727.997 1998.91V1991.17H730.512V2006H728.145V2003.19C727.588 2004.66 725.828 2006.35 723.634 2006.35Z" fill="#00BFFF"/>
<path d="M735.023 1998.49C735.023 1994.07 737.279 1990.81 741.926 1990.81C745.21 1990.81 747.589 1992.71 747.936 1996.12L745.359 1996.42C745.086 1994.22 743.847 1993.01 741.74 1993.01C739.014 1993.01 737.626 1995.2 737.626 1998.46C737.626 2001.85 739.014 2004.13 741.839 2004.13C744.008 2004.13 745.161 2002.83 745.508 2000.57L747.912 2000.96C747.441 2003.98 745.507 2006.35 741.839 2006.35C737.328 2006.35 735.023 2002.94 735.023 1998.49Z" fill="#00BFFF"/>
<path d="M760.031 1990.81C761.221 1990.81 762.634 1991.13 763.674 1992.11C764.616 1993.03 765.124 1994.43 765.124 1996.83V2005.99H762.609V1996.97C762.609 1993.74 760.985 1993.03 759.411 1993.03C756.177 1993.03 755.384 1996.14 755.384 1998.25V2005.99H752.868V1984.5H755.384V1993.87C756.053 1992.09 757.887 1990.81 760.031 1990.81Z" fill="#00BFFF"/>
<path d="M101.603 2043.6H106.349V2026.25H101.9V2024.18H108.865V2043.6H113.872V2045.67H101.603V2043.6Z" fill="#00BFFF"/>
<path d="M118.767 2043.6H123.513V2032.92H119.213V2030.85H126.029V2043.6H131.035V2045.67H118.767V2043.6ZM126.289 2027.89H122.732V2024.33H126.289V2027.89Z" fill="#00BFFF"/>
<path d="M140.9 2038.4L138.198 2041.13V2045.67H135.683V2024.18H138.198V2038.14L144.841 2030.85H148.125L142.697 2036.57L148.472 2045.67H145.361L140.9 2038.4Z" fill="#00BFFF"/>
<path d="M164.718 2038.91H154.321C154.321 2041.7 155.92 2043.79 158.671 2043.79C160.629 2043.79 161.843 2042.58 162.587 2041.15L164.718 2042.28C163.479 2044.74 161.459 2046.01 158.671 2046.01C154.024 2046.01 151.731 2042.81 151.731 2037.95C151.731 2033.42 154.333 2030.48 158.485 2030.48C163.021 2030.48 164.768 2033.74 164.768 2037.77C164.78 2038.14 164.756 2038.52 164.718 2038.91ZM158.373 2032.45C155.672 2032.45 154.309 2034.67 154.309 2036.84H162.165C162.227 2034.46 161.05 2032.45 158.373 2032.45Z" fill="#00BFFF"/>
<path d="M190.619 2030.49C192.068 2030.49 193.196 2031.47 193.704 2033.19C194.411 2031.47 195.749 2030.49 197.199 2030.49C199.033 2030.49 200.694 2031.77 200.694 2034.9V2045.67H198.178V2035.12C198.178 2033.22 197.286 2032.71 196.431 2032.71C194.683 2032.71 194.064 2033.99 194.064 2035.86V2045.67H191.61V2035.12C191.61 2033.3 190.804 2032.71 189.863 2032.71C188.14 2032.71 187.545 2034.07 187.545 2035.86V2045.67H185.017V2030.84H187.384V2033.12C187.979 2031.53 189.131 2030.49 190.619 2030.49Z" fill="#00BFFF"/>
<path d="M203.123 2038.26C203.123 2033.55 205.874 2030.5 210.025 2030.5C214.177 2030.5 216.928 2033.55 216.928 2038.26C216.928 2042.98 214.177 2046.03 210.025 2046.03C205.874 2046.03 203.123 2042.91 203.123 2038.26ZM214.263 2038.26C214.263 2034.79 212.69 2032.68 210.025 2032.68C207.361 2032.68 205.787 2034.75 205.787 2038.26C205.787 2041.77 207.361 2043.84 210.025 2043.84C212.69 2043.84 214.263 2041.76 214.263 2038.26Z" fill="#00BFFF"/>
<path d="M232.89 2024.18V2045.67H230.523V2042.91C229.631 2044.84 228.243 2046.03 225.814 2046.03C222.108 2046.03 219.704 2042.94 219.704 2038.23C219.704 2033.58 222.282 2030.49 226.198 2030.49C228.218 2030.49 229.631 2031.58 230.374 2033.04V2024.18H232.89ZM226.433 2032.71C223.88 2032.71 222.368 2034.76 222.368 2038.23C222.368 2041.66 223.88 2043.81 226.334 2043.81C228.85 2043.81 230.424 2041.8 230.424 2038.59V2037.9C230.436 2034.73 228.899 2032.71 226.433 2032.71Z" fill="#00BFFF"/>
<path d="M250.5 2038.91H240.102C240.102 2041.7 241.701 2043.79 244.452 2043.79C246.41 2043.79 247.625 2042.58 248.368 2041.15L250.5 2042.28C249.26 2044.74 247.24 2046.01 244.452 2046.01C239.805 2046.01 237.512 2042.81 237.512 2037.95C237.512 2033.42 240.115 2030.48 244.266 2030.48C248.802 2030.48 250.549 2033.74 250.549 2037.77C250.549 2038.14 250.524 2038.52 250.5 2038.91ZM244.155 2032.45C241.453 2032.45 240.09 2034.67 240.09 2036.84H247.947C248.009 2034.46 246.819 2032.45 244.155 2032.45Z" fill="#00BFFF"/>
<path d="M265.457 2030.55C266.523 2030.55 267.502 2030.68 268.122 2030.85V2033.19C267.527 2033.04 266.436 2032.9 265.371 2032.9C261.814 2032.9 258.976 2035.33 258.976 2040.16V2045.68H256.46V2030.85H258.951V2034.71C259.943 2032.36 262.372 2030.55 265.457 2030.55Z" fill="#00BFFF"/>
<path d="M279.771 2030.49C280.985 2030.49 282.348 2030.81 283.352 2031.77C284.331 2032.68 284.777 2034.11 284.777 2036.52V2045.68H282.262V2036.67C282.262 2033.43 280.663 2032.72 279.176 2032.72C275.83 2032.72 275.024 2035.83 275.024 2037.94V2045.68H272.509V2030.85H274.876V2033.79C275.644 2031.92 277.28 2030.49 279.771 2030.49Z" fill="#00BFFF"/>
<path d="M290.317 2043.6H295.063V2032.92H290.763V2030.85H297.579V2043.6H302.586V2045.67H290.317V2043.6ZM297.839 2027.89H294.283V2024.33H297.839V2027.89Z" fill="#00BFFF"/>
<path d="M306.91 2041.1L309.463 2040.66C309.847 2042.83 311.235 2043.94 313.429 2043.94C315.411 2043.94 316.514 2043.11 316.514 2041.72C316.514 2040.24 315.746 2039.59 314.147 2039.41L311.743 2039.13C308.806 2038.81 307.418 2037.15 307.418 2034.87C307.418 2032.16 309.55 2030.48 313.044 2030.48C316.428 2030.48 318.708 2032.25 319.03 2034.98L316.539 2035.54C316.217 2033.76 315.002 2032.51 312.983 2032.51C311.024 2032.51 309.872 2033.32 309.872 2034.73C309.872 2036.01 310.702 2036.78 312.536 2036.99L314.903 2037.25C317.84 2037.57 318.993 2039.12 318.993 2041.46C318.993 2044.28 316.923 2046 313.305 2046C309.785 2046.03 307.443 2044.28 306.91 2041.1Z" fill="#00BFFF"/>
<path d="M327.853 2030.49C329.303 2030.49 330.431 2031.47 330.939 2033.19C331.646 2031.47 332.984 2030.49 334.434 2030.49C336.268 2030.49 337.929 2031.77 337.929 2034.9V2045.67H335.413V2035.12C335.413 2033.22 334.521 2032.71 333.666 2032.71C331.918 2032.71 331.299 2033.99 331.299 2035.86V2045.67H328.845V2035.12C328.845 2033.3 328.039 2032.71 327.098 2032.71C325.375 2032.71 324.793 2034.07 324.793 2035.86V2045.67H322.277V2030.84H324.644V2033.12C325.214 2031.53 326.379 2030.49 327.853 2030.49Z" fill="#00BFFF"/>
<path d="M358.699 2030.85L360.211 2041.02L360.508 2043.13H360.719C360.843 2042.44 360.929 2041.97 361.19 2040.63L363.11 2030.85H365.688L367.609 2040.63C367.882 2041.97 367.968 2042.44 368.08 2043.13H368.291L368.588 2041.02L370.1 2030.85H372.74L369.864 2045.68H366.692L364.771 2036.11C364.647 2035.51 364.536 2034.27 364.498 2033.68H364.288C364.263 2034.27 364.139 2035.51 364.028 2036.11L362.107 2045.68H358.934L356.059 2030.85H358.699Z" fill="#00BFFF"/>
<path d="M387.673 2045.67H385.033C384.909 2044.84 384.822 2043.86 384.797 2042.96C383.818 2045.03 382.22 2046.01 379.791 2046.01C376.854 2046.01 374.809 2044.2 374.809 2041.66C374.809 2040.12 375.515 2038.93 376.879 2038.16C377.858 2037.63 379.456 2037.25 381.91 2036.95L384.612 2036.63V2036.37C384.612 2033.73 383.633 2032.57 381.439 2032.57C379.332 2032.57 378.093 2033.64 377.969 2035.51H375.268C375.54 2032.34 377.845 2030.5 381.613 2030.5C385.43 2030.5 387.152 2032.4 387.152 2036.66V2040.67C387.177 2043.03 387.326 2044.58 387.673 2045.67ZM381.129 2038.95C378.552 2039.31 377.486 2040.04 377.486 2041.53C377.486 2043.04 378.527 2043.96 380.274 2043.96C382.939 2043.96 384.661 2042.12 384.661 2039.21V2038.46L381.129 2038.95Z" fill="#00BFFF"/>
<path d="M392.679 2041.1L395.232 2040.66C395.616 2042.83 397.004 2043.94 399.198 2043.94C401.18 2043.94 402.283 2043.11 402.283 2041.72C402.283 2040.24 401.515 2039.59 399.916 2039.41L397.512 2039.13C394.575 2038.81 393.187 2037.15 393.187 2034.87C393.187 2032.16 395.319 2030.48 398.813 2030.48C402.197 2030.48 404.477 2032.25 404.799 2034.98L402.308 2035.54C401.986 2033.76 400.772 2032.51 398.752 2032.51C396.794 2032.51 395.641 2033.32 395.641 2034.73C395.641 2036.01 396.471 2036.78 398.305 2036.99L400.672 2037.25C403.609 2037.57 404.762 2039.12 404.762 2041.46C404.762 2044.28 402.692 2046 399.074 2046C395.554 2046.03 393.212 2044.28 392.679 2041.1Z" fill="#00BFFF"/>
<path d="M437.007 2030.55C438.073 2030.55 439.052 2030.68 439.672 2030.85V2033.19C439.077 2033.04 437.986 2032.9 436.92 2032.9C433.364 2032.9 430.526 2035.33 430.526 2040.16V2045.68H428.01V2030.85H430.501V2034.71C431.505 2032.36 433.934 2030.55 437.007 2030.55Z" fill="#00BFFF"/>
<path d="M456.364 2038.91H445.967C445.967 2041.7 447.566 2043.79 450.317 2043.79C452.275 2043.79 453.489 2042.58 454.233 2041.15L456.364 2042.28C455.125 2044.74 453.105 2046.01 450.317 2046.01C445.67 2046.01 443.377 2042.81 443.377 2037.95C443.377 2033.42 445.979 2030.48 450.131 2030.48C454.667 2030.48 456.414 2033.74 456.414 2037.77C456.414 2038.14 456.389 2038.52 456.364 2038.91ZM450.019 2032.45C447.318 2032.45 445.955 2034.67 445.955 2036.84H453.811C453.873 2034.46 452.684 2032.45 450.019 2032.45Z" fill="#00BFFF"/>
<path d="M471.471 2032.03C472.326 2032.88 472.809 2034.07 472.809 2035.46C472.809 2038.49 470.554 2040.53 467.233 2040.53C466.192 2040.53 465.25 2040.32 464.482 2039.94C463.862 2040.24 463.441 2040.74 463.441 2041.43C463.441 2042.34 464.209 2042.91 465.894 2042.91H469.711C472.797 2042.91 474.544 2044.43 474.544 2046.94C474.544 2050.06 471.843 2051.8 467.22 2051.8C463.019 2051.8 460.491 2050.35 460.491 2048.04C460.491 2046.44 461.495 2045.25 463.069 2044.71C461.854 2044.2 461.198 2043.32 461.198 2042.07C461.198 2040.71 461.966 2039.7 463.329 2039.19C462.375 2038.34 461.842 2037.09 461.842 2035.61C461.842 2032.59 464.06 2030.48 467.357 2030.48C468.447 2030.48 469.401 2030.71 470.195 2031.14C470.727 2029.39 471.942 2028.41 473.776 2028.41C474.098 2028.41 474.458 2028.43 474.718 2028.53V2030.73C474.272 2030.66 474.011 2030.6 473.627 2030.6C472.562 2030.61 471.88 2031.05 471.471 2032.03ZM465.808 2045.13C465.361 2045.13 464.953 2045.11 464.568 2045.07C463.589 2045.52 462.994 2046.31 462.994 2047.33C462.994 2048.9 464.444 2049.73 467.493 2049.73C470.665 2049.73 472.029 2048.84 472.029 2047.22C472.029 2045.88 471.074 2045.15 469.154 2045.15H465.808V2045.13ZM470.43 2035.47C470.43 2033.7 469.154 2032.42 467.344 2032.42C465.51 2032.42 464.234 2033.73 464.234 2035.57C464.234 2037.38 465.473 2038.62 467.258 2038.62C469.104 2038.61 470.43 2037.29 470.43 2035.47Z" fill="#00BFFF"/>
<path d="M490.605 2045.67H487.966C487.842 2044.84 487.755 2043.86 487.73 2042.96C486.751 2045.03 485.152 2046.01 482.724 2046.01C479.786 2046.01 477.742 2044.2 477.742 2041.66C477.742 2040.12 478.448 2038.93 479.811 2038.16C480.79 2037.63 482.389 2037.25 484.855 2036.95L487.557 2036.63V2036.37C487.557 2033.73 486.578 2032.57 484.384 2032.57C482.277 2032.57 481.038 2033.64 480.914 2035.51H478.213C478.485 2032.34 480.79 2030.5 484.558 2030.5C488.374 2030.5 490.097 2032.4 490.097 2036.66V2040.67C490.109 2043.03 490.258 2044.58 490.605 2045.67ZM484.062 2038.95C481.484 2039.31 480.418 2040.04 480.418 2041.53C480.418 2043.04 481.459 2043.96 483.207 2043.96C485.871 2043.96 487.594 2042.12 487.594 2039.21V2038.46L484.062 2038.95Z" fill="#00BFFF"/>
<path d="M505.625 2030.55C506.691 2030.55 507.67 2030.68 508.289 2030.85V2033.19C507.694 2033.04 506.604 2032.9 505.538 2032.9C501.982 2032.9 499.144 2035.33 499.144 2040.16V2045.68H496.628V2030.85H499.119V2034.71C500.123 2032.36 502.552 2030.55 505.625 2030.55Z" fill="#00BFFF"/>
<path d="M524.536 2024.18V2045.67H522.169V2042.91C521.277 2044.84 519.889 2046.03 517.46 2046.03C513.754 2046.03 511.35 2042.94 511.35 2038.23C511.35 2033.58 513.928 2030.49 517.844 2030.49C519.864 2030.49 521.277 2031.58 522.02 2033.04V2024.18H524.536ZM518.079 2032.71C515.526 2032.71 514.015 2034.76 514.015 2038.23C514.015 2041.66 515.526 2043.81 517.98 2043.81C520.496 2043.81 522.07 2041.8 522.07 2038.59V2037.9C522.07 2034.73 520.533 2032.71 518.079 2032.71Z" fill="#00BFFF"/>
<path d="M542.133 2038.91H531.736C531.736 2041.7 533.335 2043.79 536.086 2043.79C538.044 2043.79 539.258 2042.58 540.002 2041.15L542.133 2042.28C540.894 2044.74 538.874 2046.01 536.086 2046.01C531.439 2046.01 529.146 2042.81 529.146 2037.95C529.146 2033.42 531.748 2030.48 535.9 2030.48C540.436 2030.48 542.183 2033.74 542.183 2037.77C542.195 2038.14 542.158 2038.52 542.133 2038.91ZM535.788 2032.45C533.087 2032.45 531.724 2034.67 531.724 2036.84H539.58C539.642 2034.46 538.465 2032.45 535.788 2032.45Z" fill="#00BFFF"/>
<path d="M558.851 2024.18V2045.67H556.484V2042.91C555.591 2044.84 554.204 2046.03 551.775 2046.03C548.069 2046.03 545.665 2042.94 545.665 2038.23C545.665 2033.58 548.243 2030.49 552.159 2030.49C554.179 2030.49 555.591 2031.58 556.335 2033.04V2024.18H558.851ZM552.382 2032.71C549.829 2032.71 548.317 2034.76 548.317 2038.23C548.317 2041.66 549.829 2043.81 552.283 2043.81C554.798 2043.81 556.372 2041.8 556.372 2038.59V2037.9C556.385 2034.73 554.848 2032.71 552.382 2032.71Z" fill="#00BFFF"/>
<path d="M593.537 2045.67H590.898C590.774 2044.84 590.687 2043.86 590.662 2042.96C589.683 2045.03 588.085 2046.01 585.656 2046.01C582.719 2046.01 580.674 2044.2 580.674 2041.66C580.674 2040.12 581.38 2038.93 582.743 2038.16C583.722 2037.63 585.321 2037.25 587.775 2036.95L590.476 2036.63V2036.37C590.476 2033.73 589.497 2032.57 587.304 2032.57C585.197 2032.57 583.958 2033.64 583.834 2035.51H581.132C581.393 2032.34 583.71 2030.5 587.477 2030.5C591.294 2030.5 593.017 2032.4 593.017 2036.66V2040.67C593.042 2043.03 593.19 2044.58 593.537 2045.67ZM586.994 2038.95C584.416 2039.31 583.351 2040.04 583.351 2041.53C583.351 2043.04 584.392 2043.96 586.139 2043.96C588.803 2043.96 590.526 2042.12 590.526 2039.21V2038.46L586.994 2038.95Z" fill="#00BFFF"/>
<path d="M598.544 2041.1L601.097 2040.66C601.481 2042.83 602.869 2043.94 605.062 2043.94C607.045 2043.94 608.148 2043.11 608.148 2041.72C608.148 2040.24 607.38 2039.59 605.781 2039.41L603.377 2039.13C600.44 2038.81 599.052 2037.15 599.052 2034.87C599.052 2032.16 601.184 2030.48 604.678 2030.48C608.061 2030.48 610.342 2032.25 610.664 2034.98L608.173 2035.54C607.851 2033.76 606.636 2032.51 604.616 2032.51C602.658 2032.51 601.506 2033.32 601.506 2034.73C601.506 2036.01 602.336 2036.78 604.17 2036.99L606.537 2037.25C609.474 2037.57 610.627 2039.12 610.627 2041.46C610.627 2044.28 608.557 2046 604.939 2046C601.419 2046.03 599.077 2044.28 598.544 2041.1Z" fill="#00BFFF"/>
<path d="M632.326 2030.85H636.564V2026.97L639.08 2025.9V2030.85H644.855V2032.9H639.08V2040.57C639.08 2042.55 640.034 2043.51 641.93 2043.51C642.909 2043.51 643.95 2043.42 644.867 2043.24V2045.56C644.099 2045.73 643.269 2045.94 641.968 2045.94C638.262 2045.94 636.577 2043.87 636.577 2040.93V2032.9H632.339V2030.85H632.326Z" fill="#00BFFF"/>
<path d="M657.099 2030.49C658.289 2030.49 659.701 2030.81 660.742 2031.79C661.697 2032.71 662.192 2034.11 662.192 2036.5V2045.67H659.677V2036.65C659.677 2033.42 658.041 2032.71 656.479 2032.71C653.245 2032.71 652.452 2035.82 652.452 2037.93V2045.67H649.936V2024.18H652.452V2033.55C653.121 2031.77 654.955 2030.49 657.099 2030.49Z" fill="#00BFFF"/>
<path d="M679.381 2038.91H668.983C668.983 2041.7 670.582 2043.79 673.333 2043.79C675.291 2043.79 676.506 2042.58 677.249 2041.15L679.381 2042.28C678.141 2044.74 676.121 2046.01 673.333 2046.01C668.686 2046.01 666.406 2042.81 666.406 2037.95C666.406 2033.42 669.008 2030.48 673.16 2030.48C677.695 2030.48 679.443 2033.74 679.443 2037.77C679.43 2038.14 679.406 2038.52 679.381 2038.91ZM673.036 2032.45C670.334 2032.45 668.971 2034.67 668.971 2036.84H676.828C676.89 2034.46 675.7 2032.45 673.036 2032.45Z" fill="#00BFFF"/>
<path d="M706.483 2046.03C705.12 2046.03 703.732 2045.7 702.691 2044.72C701.749 2043.81 701.328 2042.42 701.328 2040.01V2030.85H703.906V2039.93C703.906 2043.16 705.442 2043.87 706.992 2043.87C710.102 2043.87 710.846 2040.76 710.846 2038.59V2030.85H713.361V2045.68H710.994V2042.86C710.424 2044.34 708.677 2046.03 706.483 2046.03Z" fill="#00BFFF"/>
<path d="M719.198 2043.6H723.944V2026.25H719.495V2024.18H726.46V2043.6H731.466V2045.67H719.198V2043.6Z" fill="#00BFFF"/>
<path d="M735.259 2030.85H739.497V2026.97L742.013 2025.9V2030.85H747.788V2032.9H742.013V2040.57C742.013 2042.55 742.955 2043.51 744.851 2043.51C745.83 2043.51 746.871 2043.42 747.788 2043.24V2045.56C747.019 2045.73 746.189 2045.94 744.888 2045.94C741.182 2045.94 739.497 2043.87 739.497 2040.93V2032.9H735.259V2030.85Z" fill="#00BFFF"/>
<path d="M753.513 2043.6H758.259V2032.92H753.959V2030.85H760.775V2043.6H765.781V2045.67H753.513V2043.6ZM761.035 2027.89H757.478V2024.33H761.035V2027.89Z" fill="#00BFFF"/>
<path d="M773.886 2030.49C775.336 2030.49 776.464 2031.47 776.972 2033.19C777.678 2031.47 779.017 2030.49 780.467 2030.49C782.301 2030.49 783.961 2031.77 783.961 2034.9V2045.67H781.446V2035.12C781.446 2033.22 780.553 2032.71 779.698 2032.71C777.951 2032.71 777.331 2033.99 777.331 2035.86V2045.67H774.878V2035.12C774.878 2033.3 774.072 2032.71 773.13 2032.71C771.408 2032.71 770.825 2034.07 770.825 2035.86V2045.67H768.31V2030.84H770.677V2033.12C771.259 2031.53 772.412 2030.49 773.886 2030.49Z" fill="#00BFFF"/>
<path d="M799.403 2045.67H796.763C796.639 2044.84 796.552 2043.86 796.527 2042.96C795.548 2045.03 793.95 2046.01 791.521 2046.01C788.584 2046.01 786.539 2044.2 786.539 2041.66C786.539 2040.12 787.245 2038.93 788.609 2038.16C789.588 2037.63 791.186 2037.25 793.64 2036.95L796.342 2036.63V2036.37C796.342 2033.73 795.363 2032.57 793.169 2032.57C791.062 2032.57 789.823 2033.64 789.699 2035.51H786.998C787.258 2032.34 789.575 2030.5 793.343 2030.5C797.159 2030.5 798.882 2032.4 798.882 2036.66V2040.67C798.894 2043.03 799.043 2044.58 799.403 2045.67ZM792.859 2038.95C790.282 2039.31 789.216 2040.04 789.216 2041.53C789.216 2043.04 790.257 2043.96 792.004 2043.96C794.669 2043.96 796.391 2042.12 796.391 2039.21V2038.46L792.859 2038.95Z" fill="#00BFFF"/>
<path d="M803.876 2030.85H808.114V2026.97L810.63 2025.9V2030.85H816.405V2032.9H810.63V2040.57C810.63 2042.55 811.572 2043.51 813.468 2043.51C814.447 2043.51 815.488 2043.42 816.405 2043.24V2045.56C815.636 2045.73 814.806 2045.94 813.505 2045.94C809.8 2045.94 808.114 2043.87 808.114 2040.93V2032.9H803.876V2030.85Z" fill="#00BFFF"/>
<path d="M833.767 2038.91H823.37C823.37 2041.7 824.968 2043.79 827.719 2043.79C829.677 2043.79 830.892 2042.58 831.635 2041.15L833.767 2042.28C832.528 2044.74 830.508 2046.01 827.719 2046.01C823.072 2046.01 820.792 2042.81 820.792 2037.95C820.792 2033.42 823.394 2030.48 827.546 2030.48C832.082 2030.48 833.829 2033.74 833.829 2037.77C833.829 2038.14 833.804 2038.52 833.767 2038.91ZM827.434 2032.45C824.733 2032.45 823.37 2034.67 823.37 2036.84H831.226C831.288 2034.46 830.099 2032.45 827.434 2032.45Z" fill="#00BFFF"/>
<path d="M101.368 2070.53L102.88 2080.7L103.177 2082.8H103.388C103.512 2082.12 103.598 2081.65 103.859 2080.31L105.779 2070.53H108.357L110.278 2080.31C110.551 2081.65 110.637 2082.12 110.749 2082.8H110.959L111.257 2080.7L112.769 2070.53H115.408L112.533 2085.36H109.361L107.44 2075.79C107.316 2075.19 107.205 2073.95 107.167 2073.36H106.957C106.932 2073.95 106.808 2075.19 106.696 2075.79L104.776 2085.36H101.603L98.728 2070.53H101.368Z" fill="#00BFFF"/>
<path d="M130.354 2085.35H127.714C127.59 2084.51 127.503 2083.53 127.479 2082.64C126.5 2084.71 124.901 2085.69 122.472 2085.69C119.535 2085.69 117.49 2083.88 117.49 2081.34C117.49 2079.8 118.197 2078.61 119.56 2077.84C120.539 2077.31 122.137 2076.93 124.591 2076.63L127.293 2076.31V2076.05C127.293 2073.4 126.314 2072.25 124.12 2072.25C122.014 2072.25 120.774 2073.32 120.65 2075.19H117.949C118.221 2072.02 120.526 2070.18 124.294 2070.18C128.111 2070.18 129.833 2072.08 129.833 2076.34V2080.35C129.846 2082.7 129.994 2084.25 130.354 2085.35ZM123.798 2078.62C121.22 2078.98 120.155 2079.72 120.155 2081.2C120.155 2082.72 121.196 2083.63 122.943 2083.63C125.607 2083.63 127.33 2081.8 127.33 2078.89V2078.14L123.798 2078.62Z" fill="#00BFFF"/>
<path d="M141.644 2082.42L145.758 2070.53H148.459L142.536 2086.3C141.173 2090.07 139.401 2091.31 136.91 2091.31C136.463 2091.31 136.017 2091.28 135.546 2091.19V2088.97C135.931 2088.99 136.29 2089.03 136.612 2089.03C138.422 2089.03 139.339 2088.22 140.02 2086.28L140.404 2085.18L134.629 2070.54H137.48L141.644 2082.42Z" fill="#00BFFF"/>
<path d="M169.13 2070.53H173.368V2066.65L175.884 2065.58V2070.53H181.659V2072.57H175.884V2080.25C175.884 2082.23 176.838 2083.19 178.734 2083.19C179.713 2083.19 180.754 2083.1 181.671 2082.91V2085.23C180.903 2085.41 180.073 2085.62 178.771 2085.62C175.066 2085.62 173.381 2083.55 173.381 2080.61V2072.57H169.142V2070.53H169.13Z" fill="#00BFFF"/>
<path d="M185.959 2077.94C185.959 2073.23 188.71 2070.18 192.862 2070.18C197.013 2070.18 199.764 2073.23 199.764 2077.94C199.764 2082.65 197.013 2085.7 192.862 2085.7C188.723 2085.7 185.959 2082.59 185.959 2077.94ZM197.1 2077.94C197.1 2074.47 195.526 2072.36 192.862 2072.36C190.197 2072.36 188.623 2074.43 188.623 2077.94C188.623 2081.45 190.197 2083.52 192.862 2083.52C195.538 2083.51 197.1 2081.44 197.1 2077.94Z" fill="#00BFFF"/>
<path d="M232.89 2063.86V2085.35H230.523V2082.59C229.631 2084.51 228.243 2085.71 225.814 2085.71C222.108 2085.71 219.704 2082.62 219.704 2077.91C219.704 2073.26 222.282 2070.17 226.198 2070.17C228.218 2070.17 229.631 2071.26 230.374 2072.72V2063.86H232.89ZM226.433 2072.39C223.88 2072.39 222.368 2074.43 222.368 2077.91C222.368 2081.34 223.88 2083.49 226.334 2083.49C228.85 2083.49 230.424 2081.48 230.424 2078.27V2077.58C230.436 2074.41 228.899 2072.39 226.433 2072.39Z" fill="#00BFFF"/>
<path d="M250.5 2078.59H240.102C240.102 2081.38 241.701 2083.47 244.452 2083.47C246.41 2083.47 247.625 2082.26 248.368 2080.83L250.5 2081.96C249.26 2084.42 247.24 2085.69 244.452 2085.69C239.805 2085.69 237.512 2082.49 237.512 2077.63C237.512 2073.09 240.115 2070.16 244.266 2070.16C248.802 2070.16 250.549 2073.42 250.549 2077.45C250.549 2077.82 250.524 2078.2 250.5 2078.59ZM244.155 2072.13C241.453 2072.13 240.09 2074.35 240.09 2076.52H247.947C248.009 2074.14 246.819 2072.13 244.155 2072.13Z" fill="#00BFFF"/>
<path d="M255.444 2080.78L257.997 2080.34C258.381 2082.51 259.769 2083.62 261.963 2083.62C263.946 2083.62 265.049 2082.79 265.049 2081.4C265.049 2079.91 264.28 2079.27 262.682 2079.08L260.277 2078.81C257.34 2078.49 255.952 2076.83 255.952 2074.55C255.952 2071.84 258.084 2070.16 261.579 2070.16C264.962 2070.16 267.242 2071.93 267.564 2074.66L265.073 2075.22C264.751 2073.44 263.537 2072.19 261.517 2072.19C259.559 2072.19 258.406 2073 258.406 2074.41C258.406 2075.69 259.236 2076.46 261.071 2076.67L263.438 2076.93C266.375 2077.25 267.527 2078.8 267.527 2081.14C267.527 2083.96 265.458 2085.68 261.839 2085.68C258.319 2085.71 255.977 2083.96 255.444 2080.78Z" fill="#00BFFF"/>
<path d="M273.166 2083.27H277.912V2072.6H273.612V2070.53H280.428V2083.27H285.434V2085.35H273.166V2083.27ZM280.688 2067.56H277.131V2064.01H280.688V2067.56Z" fill="#00BFFF"/>
<path d="M299.921 2071.71C300.776 2072.56 301.26 2073.75 301.26 2075.14C301.26 2078.17 299.004 2080.21 295.683 2080.21C294.642 2080.21 293.7 2080 292.932 2079.62C292.312 2079.91 291.891 2080.42 291.891 2081.1C291.891 2082.02 292.659 2082.59 294.345 2082.59H298.161C301.247 2082.59 302.995 2084.11 302.995 2086.62C302.995 2089.73 300.293 2091.48 295.671 2091.48C291.457 2091.48 288.941 2090.03 288.941 2087.71C288.941 2086.11 289.945 2084.92 291.519 2084.39C290.305 2083.88 289.648 2083 289.648 2081.75C289.648 2080.39 290.416 2079.38 291.779 2078.87C290.825 2078.02 290.292 2076.76 290.292 2075.29C290.292 2072.26 292.51 2070.16 295.807 2070.16C296.897 2070.16 297.852 2070.39 298.657 2070.81C299.19 2069.06 300.405 2068.08 302.239 2068.08C302.561 2068.08 302.92 2068.11 303.193 2068.21V2070.4C302.747 2070.34 302.486 2070.28 302.102 2070.28C301.012 2070.29 300.33 2070.73 299.921 2071.71ZM294.258 2084.81C293.812 2084.81 293.403 2084.79 293.019 2084.75C292.04 2085.2 291.445 2085.99 291.445 2087.01C291.445 2088.58 292.895 2089.41 295.943 2089.41C299.116 2089.41 300.479 2088.52 300.479 2086.89C300.479 2085.56 299.525 2084.82 297.604 2084.82H294.258V2084.81ZM298.88 2075.15C298.88 2073.38 297.604 2072.1 295.794 2072.1C293.96 2072.1 292.684 2073.4 292.684 2075.25C292.684 2077.06 293.923 2078.3 295.708 2078.3C297.542 2078.29 298.88 2076.96 298.88 2075.15Z" fill="#00BFFF"/>
<path d="M314.074 2070.17C315.288 2070.17 316.651 2070.49 317.655 2071.45C318.634 2072.36 319.08 2073.79 319.08 2076.19V2085.36H316.564V2076.34C316.564 2073.11 314.966 2072.4 313.479 2072.4C310.133 2072.4 309.327 2075.51 309.327 2077.62V2085.36H306.812V2070.53H309.179V2073.47C309.959 2071.59 311.595 2070.17 314.074 2070.17Z" fill="#00BFFF"/>
<path d="M341.783 2083.27H346.53V2065.93H342.081V2063.86H349.045V2083.27H354.052V2085.35H341.783V2083.27Z" fill="#00BFFF"/>
<path d="M358.935 2083.27H363.681V2072.6H359.381V2070.53H366.197V2083.27H371.203V2085.35H358.935V2083.27ZM366.469 2067.56H362.913V2064.01H366.469V2067.56Z" fill="#00BFFF"/>
<path d="M387.772 2072.57H382.146V2085.36H379.63V2072.57H375.094V2070.53H379.63V2068.89C379.63 2065.51 381.526 2063.76 385.207 2063.76C386.062 2063.76 386.78 2063.84 387.784 2064.06V2066.27C387.127 2066.19 386.334 2066.04 385.207 2066.04C382.951 2066.04 382.158 2066.81 382.158 2069.06V2070.52H387.784V2072.57H387.772Z" fill="#00BFFF"/>
<path d="M404.898 2078.59H394.501C394.501 2081.38 396.1 2083.47 398.851 2083.47C400.809 2083.47 402.023 2082.26 402.767 2080.83L404.898 2081.96C403.659 2084.42 401.639 2085.69 398.851 2085.69C394.204 2085.69 391.923 2082.49 391.923 2077.63C391.923 2073.09 394.526 2070.16 398.677 2070.16C403.213 2070.16 404.96 2073.42 404.96 2077.45C404.948 2077.82 404.923 2078.2 404.898 2078.59ZM398.553 2072.13C395.852 2072.13 394.489 2074.35 394.489 2076.52H402.346C402.407 2074.14 401.218 2072.13 398.553 2072.13Z" fill="#00BFFF"/>
<path d="M417.836 2085.35H413.895V2081.55H417.836V2085.35Z" fill="#00BFFF"/>
</g>
<defs>
<clipPath id="clip0">
<rect width="901" height="430" fill="white" transform="translate(14 1738)"/>
</clipPath>
</defs>
</svg>
