<?xml version="1.0" encoding="utf-8"?>
<!-- Generator: Adobe Illustrator 25.2.3, SVG Export Plug-In . SVG Version: 6.00 Build 0)  -->
<svg version="1.1" id="Camada_1" xmlns="http://www.w3.org/2000/svg" xmlns:xlink="http://www.w3.org/1999/xlink" x="0px" y="0px"
	 viewBox="0 0 2060 2015" style="enable-background:new 0 0 2060 2015;" xml:space="preserve">
<style type="text/css">
	.st0{fill:none;stroke:#00BFFF;stroke-width:3;stroke-linecap:round;stroke-miterlimit:10;}
	.st1{fill:#FFFFFF;stroke:#00BFFF;stroke-width:3;stroke-linecap:round;stroke-miterlimit:10;}
	.st2{fill:#D7F7FF;stroke:#00BFFF;stroke-width:3;stroke-linecap:round;stroke-linejoin:round;stroke-miterlimit:10;}
	.st3{fill:#00BFFF;}
	.st4{fill:#1C2535;}
	.st5{fill:#6997F5;}
	.st6{fill:#FAEFE4;}
	.st7{fill:none;stroke:#1C2535;stroke-width:6;stroke-linecap:round;stroke-linejoin:round;stroke-miterlimit:10;}
	.st8{fill:none;stroke:#F7CF88;stroke-width:6;stroke-linecap:round;stroke-linejoin:round;stroke-miterlimit:10;}
	.st9{fill:none;stroke:#000000;stroke-width:6;stroke-linecap:round;stroke-linejoin:round;stroke-miterlimit:10;}
</style>
<path class="st0" d="M1957,774H18.7"/>
<path class="st0" d="M1561.6,773.5h242.1c55.3,0,100.1-44.8,100.1-100.1V102c0-55.3-44.8-100.1-100.1-100.1h-242.1
	c-55.3,0-100.1,44.8-100.1,100.1v571.3C1461.5,728.6,1506.3,773.5,1561.6,773.5z"/>
<path class="st1" d="M1522.8,773.5h242.1c55.3,0,100.1-44.8,100.1-100.1V102c0-55.3-44.8-100.1-100.1-100.1h-242.1
	c-55.3,0-100.1,44.8-100.1,100.1v571.3C1422.7,728.6,1467.5,773.5,1522.8,773.5z"/>
<path class="st2" d="M1449.6,630.3h391.7v-551h-391.7V630.3z"/>
<path class="st0" d="M1645.5,748.7c24.4,0,44.1-19.8,44.1-44.1c0-24.4-19.8-44.1-44.1-44.1s-44.1,19.8-44.1,44.1
	C1601.4,729,1621.1,748.7,1645.5,748.7z"/>
<path class="st1" d="M1623.1,218.2h42.7c17.3,0,31.4-14.1,31.4-31.4v-42.7c0-17.3-14.1-31.4-31.4-31.4h-42.7
	c-17.3,0-31.4,14.1-31.4,31.4v42.7C1591.7,204.1,1605.7,218.2,1623.1,218.2z"/>
<path class="st1" d="M1623.1,339.8h42.7c17.3,0,31.4-14.1,31.4-31.4v-42.7c0-17.3-14.1-31.4-31.4-31.4h-42.7
	c-17.3,0-31.4,14.1-31.4,31.4v42.7C1591.7,325.7,1605.7,339.8,1623.1,339.8z"/>
<path class="st1" d="M1623.1,461.4h42.7c17.3,0,31.4-14.1,31.4-31.4v-42.7c0-17.3-14.1-31.4-31.4-31.4h-42.7
	c-17.3,0-31.4,14.1-31.4,31.4V430C1591.7,447.3,1605.7,461.4,1623.1,461.4z"/>
<path class="st1" d="M1623.1,583h42.7c17.3,0,31.4-14.1,31.4-31.4v-42.7c0-17.3-14.1-31.4-31.4-31.4h-42.7
	c-17.3,0-31.4,14.1-31.4,31.4v42.7C1591.7,568.9,1605.7,583,1623.1,583z"/>
<path class="st1" d="M1819.8,308.4v-42.7c0-17.3-14.1-31.4-31.4-31.4h-42.7c-17.3,0-31.4,14.1-31.4,31.4v42.7
	c0,17.3,14.1,31.4,31.4,31.4h42.7C1805.7,339.8,1819.8,325.7,1819.8,308.4z"/>
<path class="st1" d="M1576.6,308.4v-42.7c0-17.3-14.1-31.4-31.4-31.4h-42.7c-17.3,0-31.4,14.1-31.4,31.4v42.7
	c0,17.3,14.1,31.4,31.4,31.4h42.7C1562.5,339.8,1576.6,325.7,1576.6,308.4z"/>
<path class="st0" d="M1251.6,668c14.3,0,25.8-11.6,25.8-25.8c0-14.3-11.6-25.8-25.8-25.8c-14.3,0-25.8,11.6-25.8,25.8
	C1225.8,656.4,1237.3,668,1251.6,668z"/>
<path class="st0" d="M1311.4,774c5.9,0,6-8.9,0-8.9c-6,0-17,0-17,0l-103-140.1c0,0-9.7-15.1-25.8-3.2l-90.4,60.3
	c0,0-20.4,11.8-6.5,32.3c14,20.4,19.4,28,19.4,28"/>
<path class="st0" d="M1087,673.9c0,0-20.4,11.6-4.2,35.2c16.2,23.7,22.6,32.6,22.6,32.6"/>
<path class="st0" d="M1179.5,670.2l77.5,103.3"/>
<path class="st0" d="M1177.4,689.5l63.5,83.9"/>
<path class="st0" d="M1124.7,699.2l34.4,47.3c0,0,10.5,14-2.8,27.4"/>
<path class="st0" d="M1188.1,682l-50.6,34.4"/>
<path class="st0" d="M1117.1,742.2c-67.8,0-67.8,0-80.8,0c-20.6,0-23.8,31.7,0,31.7"/>
<path class="st0" d="M1098.8,742.2c0,0-66.8,0-80.8,0c-20.6,0-23.8,31.7,0,31.7"/>
<path class="st0" d="M1226.9,634.6l-31.2-4.3"/>
<path class="st0" d="M1226.9,650.8l-12.9,4.3"/>
<path class="st0" d="M920.2,668c14.3,0,25.8-11.6,25.8-25.8c0-14.3-11.6-25.8-25.8-25.8c-14.3,0-25.8,11.6-25.8,25.8
	C894.4,656.4,905.9,668,920.2,668z"/>
<path class="st0" d="M980,774c5.9,0,6-8.9,0-8.9c-6,0-17,0-17,0L859.9,625c0,0-9.7-15.1-25.8-3.2L743.7,682c0,0-20.4,11.8-6.5,32.3
	c14,20.4,19.4,28,19.4,28"/>
<path class="st0" d="M755.5,673.9c0,0-20.4,11.6-4.2,35.2c16.2,23.7,22.6,32.6,22.6,32.6"/>
<path class="st0" d="M848.1,670.2l77.5,103.3"/>
<path class="st0" d="M845.9,689.5l63.5,83.9"/>
<path class="st0" d="M793.2,699.2l34.4,47.3c0,0,10.5,14-2.8,27.4"/>
<path class="st0" d="M856.7,682l-50.6,34.4"/>
<path class="st0" d="M785.7,742.2c-67.8,0-67.8,0-80.9,0c-20.6,0-23.8,31.7,0,31.7"/>
<path class="st0" d="M767.4,742.2c0,0-66.7,0-80.9,0c-20.6,0-23.8,31.7,0,31.7"/>
<path class="st0" d="M895.4,634.6l-31.2-4.3"/>
<path class="st0" d="M895.4,650.8l-12.9,4.3"/>
<path class="st0" d="M588.8,668c14.3,0,25.8-11.6,25.8-25.8c0-14.3-11.6-25.8-25.8-25.8c-14.3,0-25.8,11.6-25.8,25.8
	C562.9,656.4,574.5,668,588.8,668z"/>
<path class="st0" d="M648.5,774c5.9,0,6-8.9,0-8.9s-17,0-17,0L528.5,625c0,0-9.7-15.1-25.8-3.2L412.3,682c0,0-20.4,11.8-6.5,32.3
	c14,20.4,19.4,28,19.4,28"/>
<path class="st0" d="M424.1,673.9c0,0-20.4,11.6-4.2,35.2c16.2,23.7,22.6,32.6,22.6,32.6"/>
<path class="st0" d="M516.7,670.2l77.5,103.3"/>
<path class="st0" d="M514.5,689.5l63.5,83.9"/>
<path class="st0" d="M461.8,699.2l34.4,47.3c0,0,10.5,14-2.8,27.4"/>
<path class="st0" d="M525.3,682l-50.6,34.4"/>
<path class="st0" d="M454.2,742.2c-67.8,0-67.8,0-80.9,0c-20.6,0-23.8,31.7,0,31.7"/>
<path class="st0" d="M436,742.2c0,0-66.7,0-80.9,0c-20.6,0-23.8,31.7,0,31.7"/>
<path class="st0" d="M564,634.6l-31.2-4.3"/>
<path class="st0" d="M564,650.8l-12.9,4.3"/>
<path class="st0" d="M252.3,668c14.3,0,25.8-11.6,25.8-25.8c0-14.3-11.6-25.8-25.8-25.8s-25.8,11.6-25.8,25.8
	C226.5,656.4,238,668,252.3,668z"/>
<path class="st0" d="M312.1,774c5.9,0,6-8.9,0-8.9c-6,0-17,0-17,0L192.1,625c0,0-9.7-15.1-25.8-3.2L75.8,682c0,0-20.4,11.8-6.5,32.3
	c14,20.4,19.4,28,19.4,28"/>
<path class="st0" d="M87.7,673.9c0,0-20.4,11.6-4.2,35.2c16.2,23.7,22.6,32.6,22.6,32.6"/>
<path class="st0" d="M180.2,670.2l77.5,103.3"/>
<path class="st0" d="M178.1,689.5l63.5,83.9"/>
<path class="st0" d="M125.3,699.2l34.4,47.3c0,0,10.5,14-2.8,27.4"/>
<path class="st0" d="M188.8,682l-50.6,34.4"/>
<path class="st0" d="M117.8,742.2c-67.8,0-67.8,0-80.9,0c-20.6,0-23.8,31.7,0,31.7"/>
<path class="st0" d="M99.5,742.2c0,0-66.7,0-80.9,0c-20.6,0-23.8,31.7,0,31.7"/>
<path class="st0" d="M227.6,634.6l-31.2-4.3"/>
<path class="st0" d="M227.6,650.8l-12.9,4.3"/>
<path class="st2" d="M1874.9,1811.3h-519.3c-22.1,0-40.1-17.9-40.1-40v-240.2c0-22.1,17.9-40,40.1-40h519.3
	c22.1,0,40.1,17.9,40.1,40v240.2C1914.9,1793.4,1897,1811.3,1874.9,1811.3z"/>
<path class="st3" d="M1354.3,1518.5v2.2h-6.3v17.8h-2.7v-17.8h-6.3v-2.2H1354.3z"/>
<path class="st3" d="M1363.6,1524.1c1.1,0,2.5,0.3,3.5,1.2c0.9,0.9,1.4,2.2,1.4,4.5v8.7h-2.4v-8.6c0-3.1-1.6-3.8-3-3.8
	c-3.1,0-3.8,3-3.8,5v7.4h-2.4v-20.4h2.4v8.9C1359.8,1525.3,1361.5,1524.1,1363.6,1524.1z"/>
<path class="st3" d="M1373.1,1536.6h4.5v-10.2h-4.1v-2h6.5v12.1h4.8v2h-11.7V1536.6z M1380.3,1521.6h-3.4v-3.4h3.4V1521.6z"/>
<path class="st3" d="M1388.4,1534.2l2.4-0.4c0.4,2.1,1.7,3.1,3.8,3.1c1.9,0,2.9-0.8,2.9-2.1c0-1.4-0.7-2-2.3-2.2l-2.3-0.2
	c-2.8-0.3-4.1-1.9-4.1-4.1c0-2.6,2-4.2,5.4-4.2c3.2,0,5.4,1.7,5.7,4.3l-2.4,0.5c-0.3-1.7-1.5-2.9-3.4-2.9c-1.9,0-3,0.8-3,2.1
	c0,1.2,0.8,1.9,2.5,2.2l2.2,0.2c2.8,0.3,3.9,1.8,3.9,4c0,2.7-2,4.3-5.4,4.3C1391.2,1538.9,1388.9,1537.2,1388.4,1534.2z"/>
<path class="st3" d="M1431.6,1538.5h-2.5c-0.1-0.8-0.2-1.7-0.2-2.6c-0.9,2-2.5,2.9-4.8,2.9c-2.8,0-4.8-1.7-4.8-4.1
	c0-1.5,0.7-2.6,2-3.3c0.9-0.5,2.5-0.9,4.8-1.2l2.6-0.3v-0.2c0-2.5-0.9-3.6-3-3.6c-2,0-3.2,1-3.3,2.8h-2.6c0.3-3,2.4-4.8,6-4.8
	c3.6,0,5.3,1.8,5.3,5.9v3.8C1431.1,1536,1431.3,1537.5,1431.6,1538.5z M1425.4,1532.1c-2.5,0.3-3.5,1-3.5,2.4c0,1.4,1,2.3,2.7,2.3
	c2.5,0,4.2-1.8,4.2-4.5v-0.7L1425.4,1532.1z"/>
<path class="st3" d="M1436.4,1536.6h4.5v-16.5h-4.2v-2h6.6v18.5h4.8v2h-11.7V1536.6z"/>
<path class="st3" d="M1451.6,1534.2l2.4-0.4c0.4,2.1,1.7,3.1,3.8,3.1c1.9,0,2.9-0.8,2.9-2.1c0-1.4-0.7-2-2.3-2.2l-2.3-0.2
	c-2.8-0.3-4.1-1.9-4.1-4.1c0-2.6,2-4.2,5.4-4.2c3.2,0,5.4,1.7,5.7,4.3l-2.4,0.5c-0.3-1.7-1.5-2.9-3.4-2.9c-1.9,0-3,0.8-3,2.1
	c0,1.2,0.8,1.9,2.5,2.2l2.2,0.2c2.8,0.3,3.9,1.8,3.9,4c0,2.7-2,4.3-5.4,4.3C1454.4,1538.9,1452.2,1537.2,1451.6,1534.2z"/>
<path class="st3" d="M1466.6,1531.5c0-4.5,2.6-7.4,6.6-7.4c4,0,6.6,2.9,6.6,7.4c0,4.5-2.6,7.4-6.6,7.4
	C1469.2,1538.9,1466.6,1535.9,1466.6,1531.5z M1477.2,1531.5c0-3.3-1.5-5.3-4-5.3c-2.5,0-4,2-4,5.3c0,3.3,1.5,5.3,4,5.3
	C1475.8,1536.8,1477.2,1534.8,1477.2,1531.5z"/>
<path class="st3" d="M1505.8,1524.1c1.1,0,2.5,0.3,3.5,1.2c0.9,0.9,1.4,2.2,1.4,4.5v8.7h-2.4v-8.6c0-3.1-1.6-3.8-3.1-3.8
	c-3.1,0-3.8,3-3.8,5v7.4h-2.4v-20.4h2.4v8.9C1502,1525.3,1503.8,1524.1,1505.8,1524.1z"/>
<path class="st3" d="M1526.4,1538.5h-2.5c-0.1-0.8-0.2-1.7-0.2-2.6c-0.9,2-2.5,2.9-4.8,2.9c-2.8,0-4.8-1.7-4.8-4.1
	c0-1.5,0.7-2.6,2-3.3c0.9-0.5,2.4-0.9,4.8-1.2l2.6-0.3v-0.2c0-2.5-0.9-3.6-3-3.6c-2,0-3.2,1-3.3,2.8h-2.6c0.2-3,2.5-4.8,6.1-4.8
	c3.6,0,5.3,1.8,5.3,5.9v3.8C1525.9,1536,1526.1,1537.5,1526.4,1538.5z M1520.2,1532.1c-2.5,0.3-3.5,1-3.5,2.4c0,1.4,1,2.3,2.7,2.3
	c2.5,0,4.2-1.8,4.2-4.5v-0.7L1520.2,1532.1z"/>
<path class="st3" d="M1541.9,1518.1v20.4h-2.2v-2.6c-0.8,1.8-2.2,3-4.5,3c-3.5,0-5.8-2.9-5.8-7.4c0-4.4,2.5-7.3,6.2-7.3
	c1.9,0,3.3,1,4,2.4v-8.4H1541.9z M1535.7,1526.2c-2.4,0-3.9,1.9-3.9,5.2c0,3.3,1.4,5.3,3.8,5.3c2.4,0,3.9-1.9,3.9-5v-0.7
	C1539.5,1528.1,1538.1,1526.2,1535.7,1526.2z"/>
<path class="st3" d="M1573.9,1538.5h-2.5c-0.1-0.8-0.2-1.7-0.2-2.6c-0.9,2-2.4,2.9-4.8,2.9c-2.8,0-4.7-1.7-4.7-4.1
	c0-1.5,0.7-2.6,2-3.3c0.9-0.5,2.5-0.9,4.8-1.2l2.6-0.3v-0.2c0-2.5-0.9-3.6-3-3.6c-2,0-3.2,1-3.3,2.8h-2.6c0.2-3,2.5-4.8,6-4.8
	c3.6,0,5.3,1.8,5.3,5.9v3.8C1573.4,1536,1573.5,1537.5,1573.9,1538.5z M1567.6,1532.1c-2.5,0.3-3.5,1-3.5,2.4c0,1.4,1,2.3,2.7,2.3
	c2.5,0,4.2-1.8,4.2-4.5v-0.7L1567.6,1532.1z"/>
<path class="st3" d="M1593.2,1531.4c0-4.2,2.2-7.3,6.6-7.3c3.1,0,5.4,1.8,5.7,5l-2.4,0.3c-0.2-2.1-1.4-3.2-3.4-3.2
	c-2.6,0-3.9,2.1-3.9,5.2c0,3.2,1.3,5.4,4,5.4c2.1,0,3.2-1.2,3.5-3.4l2.3,0.4c-0.5,2.9-2.3,5.1-5.8,5.1
	C1595.4,1538.9,1593.2,1535.6,1593.2,1531.4z"/>
<path class="st3" d="M1608.9,1531.5c0-4.5,2.6-7.4,6.6-7.4c4,0,6.6,2.9,6.6,7.4c0,4.5-2.6,7.4-6.6,7.4
	C1611.5,1538.9,1608.9,1535.9,1608.9,1531.5z M1619.5,1531.5c0-3.3-1.5-5.3-4-5.3c-2.5,0-4,2-4,5.3c0,3.3,1.5,5.3,4,5.3
	C1618,1536.8,1619.5,1534.8,1619.5,1531.5z"/>
<path class="st3" d="M1632.3,1524.1c1.2,0,2.5,0.3,3.4,1.2c0.9,0.9,1.3,2.2,1.3,4.5v8.7h-2.4v-8.6c0-3.1-1.5-3.8-2.9-3.8
	c-3.2,0-4,3-4,5v7.4h-2.4v-14.1h2.2v2.8C1628.4,1525.4,1630,1524.1,1632.3,1524.1z"/>
<path class="st3" d="M1641.3,1534.2l2.4-0.4c0.4,2.1,1.7,3.1,3.8,3.1c1.9,0,2.9-0.8,2.9-2.1c0-1.4-0.7-2-2.3-2.2l-2.3-0.2
	c-2.8-0.3-4.1-1.9-4.1-4.1c0-2.6,2-4.2,5.4-4.2c3.2,0,5.4,1.7,5.7,4.3l-2.4,0.5c-0.3-1.7-1.5-2.9-3.4-2.9c-1.9,0-3,0.8-3,2.1
	c0,1.2,0.8,1.9,2.5,2.2l2.2,0.2c2.8,0.3,3.9,1.8,3.9,4c0,2.7-2,4.3-5.4,4.3C1644.1,1538.9,1641.8,1537.2,1641.3,1534.2z"/>
<path class="st3" d="M1668.8,1532.1h-9.9c0,2.7,1.5,4.7,4.1,4.7c1.9,0,3-1.2,3.7-2.5l2,1.1c-1.2,2.3-3.1,3.6-5.8,3.6
	c-4.4,0-6.6-3-6.6-7.7c0-4.3,2.5-7.1,6.4-7.1c4.3,0,6,3.1,6,6.9C1668.8,1531.4,1668.8,1531.7,1668.8,1532.1z M1662.7,1526
	c-2.6,0-3.9,2.1-3.9,4.2h7.5C1666.4,1527.9,1665.2,1526,1662.7,1526z"/>
<path class="st3" d="M1684.3,1524.4v19.6h-2.4v-7.9c-0.8,1.6-2.4,2.8-4.4,2.8c-3.5,0-5.8-3-5.8-7.4c0-4.3,2.3-7.3,6.1-7.3
	c1.8,0,3.4,1.1,4.1,2.4l0.5-2.1H1684.3z M1678,1526.2c-2.4,0-3.7,2.1-3.7,5.2c0,3.2,1.5,5.3,3.6,5.3c2.5,0,4-1.9,4-4.9v-0.8
	C1681.9,1528.1,1680.3,1526.2,1678,1526.2z"/>
<path class="st3" d="M1693.5,1538.9c-1.3,0-2.6-0.3-3.6-1.2c-0.9-0.9-1.3-2.2-1.3-4.5v-8.7h2.5v8.6c0,3.1,1.5,3.8,2.9,3.8
	c3,0,3.7-3,3.7-5v-7.4h2.4v14.1h-2.2v-2.7C1697.2,1537.2,1695.6,1538.9,1693.5,1538.9z"/>
<path class="st3" d="M1716.2,1532.1h-9.9c0,2.7,1.5,4.7,4.1,4.7c1.9,0,3-1.2,3.7-2.5l2,1.1c-1.2,2.3-3.1,3.6-5.8,3.6
	c-4.4,0-6.6-3-6.6-7.7c0-4.3,2.5-7.1,6.4-7.1c4.3,0,6,3.1,6,6.9C1716.2,1531.4,1716.2,1531.7,1716.2,1532.1z M1710.1,1526
	c-2.6,0-3.9,2.1-3.9,4.2h7.5C1713.8,1527.9,1712.7,1526,1710.1,1526z"/>
<path class="st3" d="M1727.2,1524.1c1.2,0,2.4,0.3,3.4,1.2c0.9,0.9,1.4,2.2,1.4,4.5v8.7h-2.4v-8.6c0-3.1-1.5-3.8-2.9-3.8
	c-3.2,0-3.9,3-3.9,5v7.4h-2.4v-14.1h2.3v2.8C1723.2,1525.4,1724.8,1524.1,1727.2,1524.1z"/>
<path class="st3" d="M1735.4,1531.4c0-4.2,2.1-7.3,6.6-7.3c3.1,0,5.4,1.8,5.7,5l-2.4,0.3c-0.3-2.1-1.5-3.2-3.5-3.2
	c-2.6,0-3.9,2.1-3.9,5.2c0,3.2,1.3,5.4,4,5.4c2.1,0,3.2-1.2,3.5-3.4l2.3,0.4c-0.4,2.9-2.3,5.1-5.8,5.1
	C1737.6,1538.9,1735.4,1535.6,1735.4,1531.4z"/>
<path class="st3" d="M1763.6,1532.1h-9.9c0,2.7,1.5,4.7,4.1,4.7c1.9,0,3-1.2,3.7-2.5l2,1.1c-1.2,2.3-3.1,3.6-5.8,3.6
	c-4.4,0-6.6-3-6.6-7.7c0-4.3,2.5-7.1,6.4-7.1c4.3,0,6,3.1,6,6.9C1763.7,1531.4,1763.6,1531.7,1763.6,1532.1z M1757.5,1526
	c-2.6,0-3.9,2.1-3.9,4.2h7.5C1761.2,1527.9,1760.1,1526,1757.5,1526z"/>
<path class="st3" d="M1782.8,1531.5c0-4.5,2.6-7.4,6.6-7.4c4,0,6.6,2.9,6.6,7.4c0,4.5-2.6,7.4-6.6,7.4
	C1785.4,1538.9,1782.8,1535.9,1782.8,1531.5z M1793.4,1531.5c0-3.3-1.5-5.3-4-5.3c-2.5,0-4,2-4,5.3c0,3.3,1.5,5.3,4,5.3
	C1791.9,1536.8,1793.4,1534.8,1793.4,1531.5z"/>
<path class="st3" d="M1806.2,1524.1c1.2,0,2.5,0.3,3.4,1.2c0.9,0.9,1.3,2.2,1.3,4.5v8.7h-2.4v-8.6c0-3.1-1.5-3.8-2.9-3.8
	c-3.2,0-4,3-4,5v7.4h-2.4v-14.1h2.2v2.8C1802.3,1525.4,1803.8,1524.1,1806.2,1524.1z"/>
<path class="st3" d="M1831.5,1536.6h4.5v-10.2h-4.1v-2h6.5v12.1h4.8v2h-11.7V1536.6z M1838.7,1521.6h-3.4v-3.4h3.4V1521.6z"/>
<path class="st3" d="M1847.3,1536.6h4.5v-16.5h-4.2v-2h6.6v18.5h4.8v2h-11.7V1536.6z"/>
<path class="st3" d="M1872.4,1529.6v2.2h-8.2v-2.2H1872.4z"/>
<path class="st3" d="M1341.5,1574.3h4.5v-16.5h-4.2v-2h6.6v18.5h4.8v2h-11.7V1574.3z"/>
<path class="st3" d="M1361.6,1576.6c-1.3,0-2.6-0.3-3.6-1.2c-0.9-0.9-1.3-2.2-1.3-4.5v-8.7h2.5v8.6c0,3.1,1.5,3.8,2.9,3.8
	c3,0,3.7-3,3.7-5v-7.4h2.4v14.1h-2.3v-2.7C1365.3,1575,1363.7,1576.6,1361.6,1576.6z"/>
<path class="st3" d="M1372.6,1571.9l2.4-0.4c0.4,2.1,1.7,3.1,3.8,3.1c1.9,0,2.9-0.8,2.9-2.1c0-1.4-0.7-2-2.2-2.2l-2.3-0.2
	c-2.8-0.3-4.1-1.9-4.1-4.1c0-2.6,2-4.2,5.4-4.2c3.2,0,5.4,1.7,5.7,4.3l-2.4,0.5c-0.3-1.7-1.5-2.9-3.4-2.9c-1.9,0-3,0.8-3,2.1
	c0,1.2,0.8,1.9,2.5,2.1l2.3,0.2c2.8,0.3,3.9,1.8,3.9,4c0,2.7-2,4.3-5.4,4.3C1375.3,1576.6,1373.1,1574.9,1372.6,1571.9z"/>
<path class="st3" d="M1387.9,1562.2h4v-3.7l2.4-1v4.7h5.5v1.9h-5.5v7.3c0,1.9,0.9,2.8,2.7,2.8c0.9,0,1.9-0.1,2.8-0.3v2.2
	c-0.7,0.2-1.5,0.4-2.8,0.4c-3.5,0-5.1-2-5.1-4.8v-7.6h-4V1562.2z"/>
<path class="st3" d="M1413.8,1561.9c1,0,1.9,0.1,2.5,0.3v2.2c-0.6-0.1-1.6-0.3-2.6-0.3c-3.4,0-6.1,2.3-6.1,6.9v5.2h-2.4v-14.1h2.4
	v3.7C1408.5,1563.6,1410.8,1561.9,1413.8,1561.9z"/>
<path class="st3" d="M1431.6,1576.2h-2.5c-0.1-0.8-0.2-1.7-0.2-2.6c-0.9,2-2.5,2.9-4.8,2.9c-2.8,0-4.8-1.7-4.8-4.1
	c0-1.5,0.7-2.6,2-3.3c0.9-0.5,2.5-0.9,4.8-1.2l2.6-0.3v-0.2c0-2.5-0.9-3.6-3-3.6c-2,0-3.2,1-3.3,2.8h-2.6c0.3-3,2.4-4.8,6-4.8
	c3.6,0,5.3,1.8,5.3,5.9v3.8C1431.1,1573.7,1431.3,1575.2,1431.6,1576.2z M1425.4,1569.8c-2.5,0.3-3.5,1-3.5,2.5c0,1.4,1,2.3,2.7,2.3
	c2.5,0,4.2-1.7,4.2-4.5v-0.7L1425.4,1569.8z"/>
<path class="st3" d="M1435.3,1562.2h4v-3.7l2.4-1v4.7h5.5v1.9h-5.5v7.3c0,1.9,0.9,2.8,2.7,2.8c0.9,0,1.9-0.1,2.8-0.3v2.2
	c-0.7,0.2-1.5,0.4-2.8,0.4c-3.5,0-5.1-2-5.1-4.8v-7.6h-4V1562.2z"/>
<path class="st3" d="M1450.8,1569.2c0-4.5,2.6-7.4,6.6-7.4c3.9,0,6.6,2.9,6.6,7.4c0,4.5-2.6,7.4-6.6,7.4
	C1453.4,1576.6,1450.8,1573.6,1450.8,1569.2z M1461.4,1569.2c0-3.3-1.5-5.3-4-5.3c-2.5,0-4,2-4,5.3c0,3.3,1.5,5.3,4,5.3
	C1459.9,1574.5,1461.4,1572.5,1461.4,1569.2z"/>
<path class="st3" d="M1477,1561.9c1,0,2,0.1,2.5,0.3v2.2c-0.6-0.1-1.6-0.3-2.6-0.3c-3.4,0-6.1,2.3-6.1,6.9v5.2h-2.4v-14.1h2.4v3.7
	C1471.7,1563.6,1474.1,1561.9,1477,1561.9z"/>
<path class="st3" d="M1483.2,1571.9l2.4-0.4c0.4,2.1,1.7,3.1,3.8,3.1c1.9,0,2.9-0.8,2.9-2.1c0-1.4-0.7-2-2.2-2.2l-2.3-0.2
	c-2.8-0.3-4.1-1.9-4.1-4.1c0-2.6,2-4.2,5.4-4.2c3.2,0,5.4,1.7,5.7,4.3l-2.4,0.5c-0.3-1.7-1.5-2.9-3.4-2.9c-1.9,0-3,0.8-3,2.1
	c0,1.2,0.8,1.9,2.5,2.1l2.3,0.2c2.8,0.3,3.9,1.8,3.9,4c0,2.7-2,4.3-5.4,4.3C1486,1576.6,1483.8,1574.9,1483.2,1571.9z"/>
<path class="st3" d="M1503.1,1579.1c1.6-0.7,1.9-1.3,1.9-2.9h-2.1v-3.6h3.8v3.6c0,2.2-0.7,3.3-2.9,4.2L1503.1,1579.1z"/>
<path class="st3" d="M1530.2,1562.2h4v-3.7l2.4-1v4.7h5.5v1.9h-5.5v7.3c0,1.9,0.9,2.8,2.7,2.8c0.9,0,1.9-0.1,2.8-0.3v2.2
	c-0.7,0.2-1.5,0.4-2.8,0.4c-3.5,0-5.1-2-5.1-4.8v-7.6h-4L1530.2,1562.2L1530.2,1562.2z"/>
<path class="st3" d="M1553.2,1561.8c1.1,0,2.5,0.3,3.5,1.2c0.9,0.9,1.4,2.2,1.4,4.5v8.7h-2.4v-8.6c0-3.1-1.6-3.8-3.1-3.8
	c-3.1,0-3.8,3-3.8,5v7.4h-2.4v-20.4h2.4v8.9C1549.4,1563,1551.2,1561.8,1553.2,1561.8z"/>
<path class="st3" d="M1562.8,1574.3h4.5v-10.2h-4.1v-2h6.5v12.1h4.8v2h-11.7V1574.3z M1570,1559.3h-3.4v-3.4h3.4V1559.3z"/>
<path class="st3" d="M1578.1,1571.9l2.4-0.4c0.4,2.1,1.7,3.1,3.8,3.1c1.9,0,2.9-0.8,2.9-2.1c0-1.4-0.7-2-2.3-2.2l-2.3-0.2
	c-2.8-0.3-4.1-1.9-4.1-4.1c0-2.6,2-4.2,5.4-4.2c3.2,0,5.4,1.7,5.7,4.3l-2.4,0.5c-0.3-1.7-1.5-2.9-3.4-2.9c-1.9,0-3,0.8-3,2.1
	c0,1.2,0.8,1.9,2.5,2.1l2.2,0.2c2.8,0.3,3.9,1.8,3.9,4c0,2.7-2,4.3-5.4,4.3C1580.8,1576.6,1578.6,1574.9,1578.1,1571.9z"/>
<path class="st3" d="M1616.5,1561.8c1.2,0,2.4,0.3,3.4,1.2c0.9,0.9,1.4,2.2,1.4,4.5v8.7h-2.4v-8.6c0-3.1-1.5-3.8-2.9-3.8
	c-3.2,0-3.9,3-3.9,5v7.4h-2.4v-14.1h2.2v2.8C1612.6,1563.2,1614.2,1561.8,1616.5,1561.8z"/>
<path class="st3" d="M1637.1,1569.8h-9.9c0,2.7,1.5,4.7,4.2,4.7c1.9,0,3-1.2,3.7-2.5l2,1.1c-1.2,2.3-3.1,3.5-5.8,3.5
	c-4.4,0-6.6-3-6.6-7.7c0-4.3,2.5-7.1,6.4-7.1c4.3,0,6,3.1,6,6.9C1637.2,1569.1,1637.2,1569.5,1637.1,1569.8z M1631.1,1563.7
	c-2.6,0-3.9,2.1-3.9,4.2h7.5C1634.8,1565.6,1633.6,1563.7,1631.1,1563.7z"/>
<path class="st3" d="M1641.6,1562.2l1.4,9.7l0.3,2h0.2c0.1-0.6,0.2-1.1,0.4-2.4l1.8-9.3h2.5l1.8,9.3c0.2,1.3,0.3,1.7,0.5,2.4h0.2
	l0.3-2l1.4-9.7h2.5l-2.7,14.1h-3l-1.8-9.1c-0.1-0.6-0.2-1.7-0.2-2.3h-0.2c0,0.6-0.1,1.7-0.2,2.3l-1.8,9.1h-3l-2.8-14.1H1641.6z"/>
<path class="st3" d="M1682.5,1561.9c1,0,2,0.1,2.5,0.3v2.2c-0.6-0.1-1.6-0.3-2.6-0.3c-3.4,0-6.1,2.3-6.1,6.9v5.2h-2.4v-14.1h2.4v3.7
	C1677.2,1563.6,1679.5,1561.9,1682.5,1561.9z"/>
<path class="st3" d="M1700.4,1569.8h-9.9c0,2.7,1.5,4.7,4.2,4.7c1.9,0,3-1.2,3.7-2.5l2,1.1c-1.2,2.3-3.1,3.5-5.8,3.5
	c-4.4,0-6.6-3-6.6-7.7c0-4.3,2.5-7.1,6.4-7.1c4.3,0,6,3.1,6,6.9C1700.4,1569.1,1700.4,1569.5,1700.4,1569.8z M1694.3,1563.7
	c-2.6,0-3.9,2.1-3.9,4.2h7.5C1698,1565.6,1696.9,1563.7,1694.3,1563.7z"/>
<path class="st3" d="M1705.1,1574.3h4.5v-16.5h-4.2v-2h6.6v18.5h4.8v2h-11.7V1574.3z"/>
<path class="st3" d="M1720.9,1574.3h4.5v-10.2h-4.1v-2h6.5v12.1h4.8v2h-11.7V1574.3z M1728.1,1559.3h-3.4v-3.4h3.4V1559.3z"/>
<path class="st3" d="M1745.8,1563.3c0.8,0.8,1.3,1.9,1.3,3.3c0,2.9-2.2,4.8-5.3,4.8c-1,0-1.9-0.2-2.6-0.6c-0.6,0.3-1,0.8-1,1.4
	c0,0.9,0.7,1.4,2.3,1.4h3.6c2.9,0,4.6,1.4,4.6,3.8c0,3-2.6,4.6-7,4.6c-4,0-6.4-1.4-6.4-3.6c0-1.5,1-2.7,2.5-3.2
	c-1.2-0.5-1.8-1.3-1.8-2.5c0-1.3,0.7-2.2,2-2.7c-0.9-0.8-1.4-2-1.4-3.4c0-2.9,2.1-4.9,5.2-4.9c1,0,1.9,0.2,2.7,0.6
	c0.5-1.7,1.7-2.6,3.4-2.6c0.3,0,0.6,0,0.9,0.1v2.1c-0.4-0.1-0.7-0.1-1-0.1C1746.9,1561.9,1746.2,1562.3,1745.8,1563.3z
	 M1740.4,1575.7c-0.4,0-0.8,0-1.2-0.1c-0.9,0.4-1.5,1.2-1.5,2.1c0,1.5,1.4,2.3,4.3,2.3c3,0,4.3-0.8,4.3-2.4c0-1.3-0.9-2-2.7-2
	L1740.4,1575.7L1740.4,1575.7z M1744.8,1566.6c0-1.7-1.2-2.9-2.9-2.9c-1.8,0-3,1.2-3,3c0,1.7,1.2,2.9,2.9,2.9
	C1743.6,1569.5,1744.8,1568.3,1744.8,1566.6z"/>
<path class="st3" d="M1752.5,1574.3h4.5v-10.2h-4.1v-2h6.5v12.1h4.8v2h-11.7V1574.3z M1759.7,1559.3h-3.4v-3.4h3.4V1559.3z"/>
<path class="st3" d="M1766.9,1569.2c0-4.5,2.6-7.4,6.6-7.4c3.9,0,6.6,2.9,6.6,7.4c0,4.5-2.6,7.4-6.6,7.4
	C1769.6,1576.6,1766.9,1573.6,1766.9,1569.2z M1777.6,1569.2c0-3.3-1.5-5.3-4-5.3c-2.5,0-4,2-4,5.3c0,3.3,1.5,5.3,4,5.3
	C1776.1,1574.5,1777.6,1572.5,1777.6,1569.2z"/>
<path class="st3" d="M1790.4,1561.8c1.2,0,2.4,0.3,3.4,1.2c0.9,0.9,1.4,2.2,1.4,4.5v8.7h-2.4v-8.6c0-3.1-1.5-3.8-2.9-3.8
	c-3.2,0-3.9,3-3.9,5v7.4h-2.4v-14.1h2.2v2.8C1786.5,1563.2,1788,1561.8,1790.4,1561.8z"/>
<path class="st3" d="M1821.9,1561.8c1.1,0,2.5,0.3,3.5,1.2c0.9,0.9,1.4,2.2,1.4,4.5v8.7h-2.4v-8.6c0-3.1-1.6-3.8-3.1-3.8
	c-3.1,0-3.8,3-3.8,5v7.4h-2.4v-20.4h2.4v8.9C1818.1,1563,1819.9,1561.8,1821.9,1561.8z"/>
<path class="st3" d="M1842.6,1576.2h-2.5c-0.1-0.8-0.2-1.7-0.2-2.6c-0.9,2-2.5,2.9-4.8,2.9c-2.8,0-4.8-1.7-4.8-4.1
	c0-1.5,0.7-2.6,2-3.3c0.9-0.5,2.5-0.9,4.8-1.2l2.6-0.3v-0.2c0-2.5-0.9-3.6-3-3.6c-2,0-3.2,1-3.3,2.8h-2.6c0.3-3,2.4-4.8,6-4.8
	c3.6,0,5.3,1.8,5.3,5.9v3.8C1842.1,1573.7,1842.2,1575.2,1842.6,1576.2z M1836.3,1569.8c-2.4,0.3-3.5,1-3.5,2.5c0,1.4,1,2.3,2.7,2.3
	c2.5,0,4.2-1.7,4.2-4.5v-0.7L1836.3,1569.8z"/>
<path class="st3" d="M1846.8,1571.9l2.4-0.4c0.4,2.1,1.7,3.1,3.8,3.1c1.9,0,2.9-0.8,2.9-2.1c0-1.4-0.7-2-2.2-2.2l-2.3-0.2
	c-2.8-0.3-4.1-1.9-4.1-4.1c0-2.6,2-4.2,5.4-4.2c3.2,0,5.4,1.7,5.7,4.3l-2.4,0.5c-0.3-1.7-1.5-2.9-3.4-2.9c-1.9,0-3,0.8-3,2.1
	c0,1.2,0.8,1.9,2.5,2.1l2.3,0.2c2.8,0.3,3.9,1.8,3.9,4c0,2.7-2,4.3-5.4,4.3C1849.5,1576.6,1847.3,1574.9,1846.8,1571.9z"/>
<path class="st3" d="M1352.6,1614h-2.5c-0.1-0.8-0.2-1.7-0.2-2.6c-0.9,2-2.5,2.9-4.8,2.9c-2.8,0-4.8-1.7-4.8-4.1
	c0-1.5,0.7-2.6,2-3.3c0.9-0.5,2.5-0.9,4.8-1.2l2.6-0.3v-0.2c0-2.5-0.9-3.6-3-3.6c-2,0-3.2,1-3.3,2.8h-2.6c0.3-3,2.5-4.8,6.1-4.8
	c3.6,0,5.3,1.8,5.3,5.9v3.8C1352.1,1611.5,1352.2,1612.9,1352.6,1614z M1346.3,1607.6c-2.4,0.3-3.5,1-3.5,2.5c0,1.4,1,2.3,2.7,2.3
	c2.5,0,4.2-1.7,4.2-4.5v-0.7L1346.3,1607.6z"/>
<path class="st3" d="M1379.3,1599.5c1.1,0,2.5,0.3,3.5,1.2c0.9,0.9,1.4,2.2,1.4,4.5v8.7h-2.4v-8.6c0-3.1-1.6-3.8-3.1-3.8
	c-3.1,0-3.8,3-3.8,5v7.4h-2.4v-20.4h2.4v8.9C1375.6,1600.8,1377.3,1599.5,1379.3,1599.5z"/>
<path class="st3" d="M1388.9,1612h4.5v-10.2h-4.1v-2h6.5v12.1h4.8v2h-11.7V1612z M1396.1,1597.1h-3.4v-3.4h3.4V1597.1z"/>
<path class="st3" d="M1413.9,1601c0.8,0.8,1.3,1.9,1.3,3.3c0,2.9-2.2,4.8-5.3,4.8c-1,0-1.9-0.2-2.6-0.6c-0.6,0.3-1,0.8-1,1.4
	c0,0.9,0.7,1.4,2.3,1.4h3.6c2.9,0,4.6,1.4,4.6,3.8c0,3-2.6,4.6-7,4.6c-4,0-6.4-1.4-6.4-3.6c0-1.5,1-2.7,2.5-3.2
	c-1.2-0.5-1.8-1.3-1.8-2.5c0-1.3,0.7-2.2,2-2.7c-0.9-0.8-1.4-2-1.4-3.4c0-2.9,2.1-4.9,5.2-4.9c1,0,1.9,0.2,2.7,0.6
	c0.5-1.7,1.7-2.6,3.4-2.6c0.3,0,0.7,0,0.9,0.1v2.1c-0.4-0.1-0.7-0.1-1-0.1C1414.9,1599.7,1414.3,1600.1,1413.9,1601z M1408.5,1613.5
	c-0.4,0-0.8,0-1.2-0.1c-0.9,0.4-1.5,1.2-1.5,2.2c0,1.5,1.4,2.3,4.3,2.3c3,0,4.3-0.8,4.3-2.4c0-1.3-0.9-2-2.7-2L1408.5,1613.5
	L1408.5,1613.5z M1412.9,1604.3c0-1.7-1.2-2.9-2.9-2.9c-1.8,0-3,1.2-3,3c0,1.7,1.2,2.9,2.9,2.9
	C1411.6,1607.3,1412.9,1606,1412.9,1604.3z"/>
<path class="st3" d="M1426.8,1599.5c1.1,0,2.5,0.3,3.5,1.2c0.9,0.9,1.4,2.2,1.4,4.5v8.7h-2.4v-8.6c0-3.1-1.6-3.8-3-3.8
	c-3.1,0-3.8,3-3.8,5v7.4h-2.4v-20.4h2.4v8.9C1423,1600.8,1424.8,1599.5,1426.8,1599.5z"/>
<path class="st3" d="M1462.8,1593.5v20.4h-2.2v-2.6c-0.8,1.8-2.2,3-4.5,3c-3.5,0-5.8-2.9-5.8-7.4c0-4.4,2.5-7.4,6.2-7.4
	c1.9,0,3.3,1,4,2.4v-8.4H1462.8z M1456.7,1601.7c-2.4,0-3.9,1.9-3.9,5.2c0,3.3,1.4,5.3,3.8,5.3c2.4,0,3.9-1.9,3.9-5v-0.7
	C1460.5,1603.6,1459,1601.7,1456.7,1601.7z"/>
<path class="st3" d="M1479.1,1607.6h-9.9c0,2.6,1.5,4.6,4.1,4.6c1.9,0,3-1.1,3.7-2.5l2,1.1c-1.2,2.3-3.1,3.6-5.8,3.6
	c-4.4,0-6.6-3-6.6-7.7c0-4.3,2.5-7.1,6.4-7.1c4.3,0,6,3.1,6,6.9C1479.1,1606.8,1479.1,1607.2,1479.1,1607.6z M1473,1601.4
	c-2.6,0-3.9,2.1-3.9,4.2h7.5C1476.7,1603.3,1475.6,1601.4,1473,1601.4z"/>
<path class="st3" d="M1486.9,1599.5c1.4,0,2.4,0.9,2.9,2.6c0.7-1.6,1.9-2.6,3.3-2.6c1.7,0,3.3,1.2,3.3,4.2v10.2h-2.4v-10
	c0-1.8-0.8-2.3-1.7-2.3c-1.7,0-2.2,1.2-2.2,3v9.3h-2.3v-10c0-1.7-0.8-2.3-1.7-2.3c-1.6,0-2.2,1.3-2.2,3v9.3h-2.4v-14.1h2.3v2.2
	C1484.3,1600.5,1485.4,1599.5,1486.9,1599.5z"/>
<path class="st3" d="M1510.6,1614h-2.5c-0.1-0.8-0.2-1.7-0.2-2.6c-0.9,2-2.5,2.9-4.8,2.9c-2.8,0-4.7-1.7-4.7-4.1
	c0-1.5,0.7-2.6,2-3.3c0.9-0.5,2.5-0.9,4.8-1.2l2.6-0.3v-0.2c0-2.5-0.9-3.6-3-3.6c-2,0-3.2,1-3.3,2.8h-2.6c0.2-3,2.5-4.8,6-4.8
	c3.6,0,5.3,1.8,5.3,5.9v3.8C1510.2,1611.5,1510.3,1612.9,1510.6,1614z M1504.4,1607.6c-2.5,0.3-3.5,1-3.5,2.5c0,1.4,1,2.3,2.6,2.3
	c2.5,0,4.2-1.7,4.2-4.5v-0.7L1504.4,1607.6z"/>
<path class="st3" d="M1521.7,1599.5c1.2,0,2.5,0.3,3.4,1.2c0.9,0.9,1.4,2.2,1.4,4.5v8.7h-2.4v-8.6c0-3.1-1.5-3.8-2.9-3.8
	c-3.2,0-4,3-4,5v7.4h-2.4v-14.1h2.3v2.8C1517.8,1600.9,1519.3,1599.5,1521.7,1599.5z"/>
<path class="st3" d="M1541.9,1593.5v20.4h-2.2v-2.6c-0.8,1.8-2.2,3-4.5,3c-3.5,0-5.8-2.9-5.8-7.4c0-4.4,2.5-7.4,6.2-7.4
	c1.9,0,3.3,1,4,2.4v-8.4H1541.9z M1535.7,1601.7c-2.4,0-3.9,1.9-3.9,5.2c0,3.3,1.4,5.3,3.8,5.3c2.4,0,3.9-1.9,3.9-5v-0.7
	C1539.5,1603.6,1538.1,1601.7,1535.7,1601.7z"/>
<path class="st3" d="M1554.1,1614h-3.8v-3.6h3.8V1614z"/>
<path class="st3" d="M1576.7,1608.2l2.5-0.5c0.4,2.4,1.8,4.5,4.9,4.5c1.9,0,4.1-0.7,4.1-3.2c0-2.7-1.7-3.3-3.2-3.7l-2.7-0.7
	c-2.8-0.8-4.9-2.5-4.9-5.6c0-3,2.5-5.6,6.4-5.6c3.7,0,6.6,1.5,7,5.6l-2.5,0.7c-0.3-3.2-2.3-4.1-4.4-4.1c-2.9,0-3.8,1.7-3.8,3.2
	c0,1.8,1.4,2.9,3.1,3.4l2.6,0.7c2.7,0.7,5.2,1.9,5.2,5.8c0,2.8-2,5.8-6.8,5.8C1579.2,1614.4,1577.1,1611.5,1576.7,1608.2z"/>
<path class="st3" d="M1593.1,1606.9c0-4.5,2.6-7.4,6.6-7.4c3.9,0,6.6,2.9,6.6,7.4c0,4.5-2.6,7.4-6.6,7.4
	C1595.7,1614.3,1593.1,1611.3,1593.1,1606.9z M1603.7,1606.9c0-3.3-1.5-5.3-4-5.3c-2.5,0-4,2-4,5.3c0,3.3,1.5,5.3,4,5.3
	C1602.2,1612.2,1603.7,1610.2,1603.7,1606.9z"/>
<path class="st3" d="M1608.9,1606.9c0-4.5,2.6-7.4,6.6-7.4c4,0,6.6,2.9,6.6,7.4c0,4.5-2.6,7.4-6.6,7.4
	C1611.5,1614.3,1608.9,1611.3,1608.9,1606.9z M1619.5,1606.9c0-3.3-1.5-5.3-4-5.3c-2.5,0-4,2-4,5.3c0,3.3,1.5,5.3,4,5.3
	C1618,1612.2,1619.5,1610.2,1619.5,1606.9z"/>
<path class="st3" d="M1632.3,1599.5c1.2,0,2.5,0.3,3.4,1.2c0.9,0.9,1.3,2.2,1.3,4.5v8.7h-2.4v-8.6c0-3.1-1.5-3.8-2.9-3.8
	c-3.2,0-4,3-4,5v7.4h-2.4v-14.1h2.2v2.8C1628.4,1600.9,1630,1599.5,1632.3,1599.5z"/>
<path class="st3" d="M1657.7,1612h4.5v-10.2h-4.1v-2h6.5v12.1h4.8v2h-11.7V1612z M1664.8,1597.1h-3.4v-3.4h3.4V1597.1z"/>
<path class="st3" d="M1673.5,1612h4.5v-16.5h-4.2v-2h6.6v18.5h4.8v2h-11.7V1612z"/>
<path class="st3" d="M1689.3,1612h4.5v-16.5h-4.2v-2h6.6v18.5h4.8v2h-11.7V1612z"/>
<path class="st3" d="M1709.3,1614.3c-1.3,0-2.6-0.3-3.6-1.2c-0.9-0.9-1.3-2.2-1.3-4.5v-8.7h2.5v8.6c0,3.1,1.5,3.8,2.9,3.8
	c3,0,3.7-3,3.7-5v-7.4h2.4v14.1h-2.3v-2.7C1713.1,1612.7,1711.4,1614.3,1709.3,1614.3z"/>
<path class="st3" d="M1720.3,1609.6l2.4-0.4c0.4,2.1,1.7,3.1,3.8,3.1c1.9,0,2.9-0.8,2.9-2.1c0-1.4-0.7-2-2.2-2.2l-2.3-0.2
	c-2.8-0.3-4.1-1.9-4.1-4.1c0-2.6,2-4.2,5.4-4.2c3.2,0,5.4,1.7,5.7,4.3l-2.4,0.5c-0.3-1.7-1.5-2.9-3.4-2.9c-1.9,0-3,0.8-3,2.1
	c0,1.2,0.8,1.9,2.5,2.1l2.3,0.2c2.8,0.3,3.9,1.8,3.9,4c0,2.7-2,4.3-5.4,4.3C1723.1,1614.3,1720.8,1612.7,1720.3,1609.6z"/>
<path class="st3" d="M1735.6,1599.9h4v-3.7l2.4-1v4.7h5.5v1.9h-5.5v7.3c0,1.9,0.9,2.8,2.7,2.8c0.9,0,1.9-0.1,2.8-0.3v2.2
	c-0.7,0.2-1.5,0.4-2.8,0.4c-3.5,0-5.1-2-5.1-4.8v-7.6h-4V1599.9z"/>
<path class="st3" d="M1761.5,1599.6c1,0,1.9,0.1,2.5,0.3v2.2c-0.6-0.1-1.6-0.3-2.6-0.3c-3.4,0-6.1,2.3-6.1,6.9v5.2h-2.4v-14.1h2.4
	v3.7C1756.2,1601.3,1758.6,1599.6,1761.5,1599.6z"/>
<path class="st3" d="M1779.3,1614h-2.5c-0.1-0.8-0.2-1.7-0.2-2.6c-0.9,2-2.5,2.9-4.8,2.9c-2.8,0-4.8-1.7-4.8-4.1
	c0-1.5,0.7-2.6,2-3.3c0.9-0.5,2.5-0.9,4.8-1.2l2.6-0.3v-0.2c0-2.5-0.9-3.6-3-3.6c-2,0-3.2,1-3.3,2.8h-2.6c0.3-3,2.5-4.8,6-4.8
	c3.6,0,5.3,1.8,5.3,5.9v3.8C1778.8,1611.5,1779,1612.9,1779.3,1614z M1773.1,1607.6c-2.4,0.3-3.5,1-3.5,2.5c0,1.4,1,2.3,2.7,2.3
	c2.5,0,4.2-1.7,4.2-4.5v-0.7L1773.1,1607.6z"/>
<path class="st3" d="M1783.1,1599.9h4v-3.7l2.4-1v4.7h5.5v1.9h-5.5v7.3c0,1.9,0.9,2.8,2.7,2.8c0.9,0,1.9-0.1,2.8-0.3v2.2
	c-0.7,0.2-1.5,0.4-2.8,0.4c-3.5,0-5.1-2-5.1-4.8v-7.6h-4V1599.9z"/>
<path class="st3" d="M1798.6,1606.9c0-4.5,2.6-7.4,6.6-7.4c4,0,6.6,2.9,6.6,7.4c0,4.5-2.6,7.4-6.6,7.4
	C1801.2,1614.3,1798.6,1611.3,1798.6,1606.9z M1809.2,1606.9c0-3.3-1.5-5.3-4-5.3s-4,2-4,5.3c0,3.3,1.5,5.3,4,5.3
	C1807.7,1612.2,1809.2,1610.2,1809.2,1606.9z"/>
<path class="st3" d="M1824.7,1599.6c1,0,1.9,0.1,2.5,0.3v2.2c-0.6-0.1-1.6-0.3-2.6-0.3c-3.4,0-6.1,2.3-6.1,6.9v5.2h-2.4v-14.1h2.4
	v3.7C1819.5,1601.3,1821.8,1599.6,1824.7,1599.6z"/>
<path class="st3" d="M1831,1609.6l2.4-0.4c0.4,2.1,1.7,3.1,3.8,3.1c1.9,0,2.9-0.8,2.9-2.1c0-1.4-0.7-2-2.2-2.2l-2.3-0.2
	c-2.8-0.3-4.1-1.9-4.1-4.1c0-2.6,2-4.2,5.4-4.2c3.2,0,5.4,1.7,5.7,4.3l-2.4,0.5c-0.3-1.7-1.5-2.9-3.4-2.9c-1.9,0-3,0.8-3,2.1
	c0,1.2,0.8,1.9,2.5,2.1l2.3,0.2c2.8,0.3,3.9,1.8,3.9,4c0,2.7-2,4.3-5.4,4.3C1833.7,1614.3,1831.5,1612.7,1831,1609.6z"/>
<path class="st3" d="M1341.3,1637.6l1.4,9.7l0.3,2h0.2c0.1-0.7,0.2-1.1,0.5-2.4l1.8-9.3h2.4l1.8,9.3c0.3,1.3,0.3,1.7,0.4,2.4h0.2
	l0.3-2l1.4-9.7h2.5l-2.7,14.1h-3l-1.8-9.1c-0.1-0.6-0.2-1.7-0.3-2.3h-0.2c0,0.6-0.1,1.8-0.2,2.3l-1.8,9.1h-3l-2.7-14.1H1341.3z"/>
<path class="st3" d="M1368.4,1645.3h-9.9c0,2.7,1.5,4.7,4.1,4.7c1.9,0,3-1.2,3.7-2.5l2,1.1c-1.2,2.3-3.1,3.5-5.8,3.5
	c-4.4,0-6.6-3-6.6-7.7c0-4.3,2.5-7.1,6.4-7.1c4.3,0,6,3.1,6,6.9C1368.5,1644.5,1368.5,1644.9,1368.4,1645.3z M1362.4,1639.1
	c-2.6,0-3.9,2.1-3.9,4.2h7.5C1366.1,1641,1364.9,1639.1,1362.4,1639.1z"/>
<path class="st3" d="M1382.2,1637.3c1,0,1.9,0.1,2.5,0.3v2.2c-0.6-0.1-1.6-0.3-2.6-0.3c-3.4,0-6.1,2.3-6.1,6.9v5.2h-2.4v-14.1h2.4
	v3.7C1376.9,1639,1379.2,1637.3,1382.2,1637.3z"/>
<path class="st3" d="M1400.1,1645.3h-9.9c0,2.7,1.5,4.7,4.2,4.7c1.9,0,3-1.2,3.7-2.5l2,1.1c-1.2,2.3-3.1,3.5-5.8,3.5
	c-4.4,0-6.6-3-6.6-7.7c0-4.3,2.5-7.1,6.4-7.1c4.3,0,6,3.1,6,6.9C1400.1,1644.5,1400.1,1644.9,1400.1,1645.3z M1394,1639.1
	c-2.6,0-3.9,2.1-3.9,4.2h7.5C1397.7,1641,1396.5,1639.1,1394,1639.1z"/>
<path class="st3" d="M1420.1,1654.8c2,0.4,2.7,0.4,3.2,0.4c2.2,0,3.2-0.8,3.2-3.6v-12h-5.4v-2h7.8v14.1c0,3.2-1.2,5.6-5.3,5.6
	c-1.4,0-2.5-0.2-3.6-0.5L1420.1,1654.8L1420.1,1654.8z M1429.2,1634.8h-3.4v-3.4h3.4V1634.8z"/>
<path class="st3" d="M1440.6,1652c-1.3,0-2.6-0.3-3.6-1.2c-0.9-0.9-1.3-2.2-1.3-4.5v-8.7h2.5v8.6c0,3.1,1.5,3.8,2.9,3.8
	c3,0,3.7-3,3.7-5v-7.3h2.4v14.1h-2.2v-2.7C1444.3,1650.4,1442.7,1652,1440.6,1652z"/>
<path class="st3" d="M1451.6,1647.3l2.4-0.4c0.4,2.1,1.7,3.1,3.8,3.1c1.9,0,2.9-0.8,2.9-2.1c0-1.4-0.7-2-2.3-2.2l-2.3-0.2
	c-2.8-0.3-4.1-1.9-4.1-4.1c0-2.6,2-4.2,5.4-4.2c3.2,0,5.4,1.7,5.7,4.3l-2.4,0.5c-0.3-1.7-1.5-2.9-3.4-2.9c-1.9,0-3,0.8-3,2.1
	c0,1.2,0.8,1.9,2.5,2.1l2.2,0.2c2.8,0.3,3.9,1.8,3.9,4c0,2.7-2,4.3-5.4,4.3C1454.4,1652,1452.2,1650.4,1451.6,1647.3z"/>
<path class="st3" d="M1466.9,1637.6h4v-3.7l2.4-1v4.7h5.5v1.9h-5.5v7.3c0,1.9,0.9,2.8,2.7,2.8c0.9,0,1.9-0.1,2.8-0.3v2.2
	c-0.7,0.2-1.5,0.4-2.8,0.4c-3.5,0-5.1-2-5.1-4.8v-7.6h-4L1466.9,1637.6L1466.9,1637.6z"/>
<path class="st3" d="M1508.6,1637.3c1,0,2,0.1,2.5,0.3v2.2c-0.6-0.1-1.6-0.3-2.6-0.3c-3.4,0-6.1,2.3-6.1,6.9v5.2h-2.4v-14.1h2.4v3.7
	C1503.3,1639,1505.7,1637.3,1508.6,1637.3z"/>
<path class="st3" d="M1526.5,1645.3h-9.9c0,2.7,1.5,4.7,4.2,4.7c1.9,0,3-1.2,3.7-2.5l2,1.1c-1.2,2.3-3.1,3.5-5.8,3.5
	c-4.4,0-6.6-3-6.6-7.7c0-4.3,2.5-7.1,6.4-7.1c4.3,0,6,3.1,6,6.9C1526.6,1644.5,1526.5,1644.9,1526.5,1645.3z M1520.4,1639.1
	c-2.6,0-3.9,2.1-3.9,4.2h7.5C1524.1,1641,1523,1639.1,1520.4,1639.1z"/>
<path class="st3" d="M1529.9,1644.6c0-4.2,2.1-7.3,6.6-7.3c3.1,0,5.4,1.8,5.7,5.1l-2.4,0.3c-0.2-2.1-1.4-3.2-3.5-3.2
	c-2.6,0-3.9,2.1-3.9,5.2c0,3.2,1.3,5.4,4,5.4c2.1,0,3.2-1.2,3.5-3.4l2.3,0.4c-0.4,2.9-2.3,5.1-5.8,5.1
	C1532.1,1652,1529.9,1648.8,1529.9,1644.6z"/>
<path class="st3" d="M1552.5,1648.9l3.9-11.3h2.6l-5.6,15c-1.3,3.6-3,4.8-5.4,4.8c-0.4,0-0.8,0-1.3-0.1v-2.1c0.4,0,0.7,0.1,1,0.1
	c1.7,0,2.6-0.8,3.2-2.6l0.4-1l-5.5-13.9h2.7L1552.5,1648.9z"/>
<path class="st3" d="M1561.6,1644.6c0-4.2,2.1-7.3,6.6-7.3c3.1,0,5.4,1.8,5.7,5.1l-2.5,0.3c-0.2-2.1-1.4-3.2-3.4-3.2
	c-2.6,0-3.9,2.1-3.9,5.2c0,3.2,1.3,5.4,4,5.4c2.1,0,3.2-1.2,3.5-3.4l2.3,0.4c-0.4,2.9-2.3,5.1-5.8,5.1
	C1563.8,1652,1561.6,1648.8,1561.6,1644.6z"/>
<path class="st3" d="M1578.6,1649.7h4.5v-16.5h-4.2v-2h6.6v18.5h4.8v2h-11.7V1649.7z"/>
<path class="st3" d="M1594.4,1649.7h4.5v-10.2h-4.1v-2h6.5v12.1h4.8v2h-11.7V1649.7z M1601.6,1634.8h-3.4v-3.4h3.4V1634.8z"/>
<path class="st3" d="M1616.5,1637.3c1.2,0,2.4,0.3,3.4,1.2c0.9,0.9,1.4,2.2,1.4,4.5v8.7h-2.4v-8.6c0-3.1-1.5-3.8-2.9-3.8
	c-3.2,0-3.9,3-3.9,5v7.3h-2.4v-14.1h2.2v2.8C1612.6,1638.6,1614.2,1637.3,1616.5,1637.3z"/>
<path class="st3" d="M1635.2,1638.7c0.8,0.8,1.3,1.9,1.3,3.3c0,2.9-2.2,4.8-5.3,4.8c-1,0-1.9-0.2-2.6-0.6c-0.6,0.3-1,0.8-1,1.4
	c0,0.9,0.7,1.4,2.3,1.4h3.6c2.9,0,4.6,1.4,4.6,3.8c0,3-2.6,4.6-7,4.6c-4,0-6.4-1.4-6.4-3.6c0-1.5,1-2.6,2.5-3.2
	c-1.2-0.5-1.8-1.3-1.8-2.5c0-1.3,0.7-2.2,2-2.7c-0.9-0.8-1.4-2-1.4-3.4c0-2.9,2.1-4.9,5.2-4.9c1,0,1.9,0.2,2.7,0.6
	c0.5-1.7,1.7-2.6,3.4-2.6c0.3,0,0.7,0,0.9,0.1v2.1c-0.4-0.1-0.7-0.1-1-0.1C1636.2,1637.4,1635.6,1637.8,1635.2,1638.7z
	 M1629.8,1651.2c-0.4,0-0.8,0-1.2-0.1c-0.9,0.4-1.5,1.2-1.5,2.1c0,1.5,1.4,2.3,4.3,2.3c3,0,4.3-0.9,4.3-2.4c0-1.3-0.9-2-2.7-2
	L1629.8,1651.2L1629.8,1651.2z M1634.2,1642c0-1.7-1.2-2.9-2.9-2.9c-1.8,0-3,1.2-3,3c0,1.7,1.2,2.9,2.9,2.9
	C1632.9,1645,1634.2,1643.7,1634.2,1642z"/>
<path class="st3" d="M1668.8,1639.6h-5.4v12.1h-2.4v-12.1h-4.3v-1.9h4.3v-1.5c0-3.2,1.8-4.9,5.3-4.9c0.8,0,1.5,0.1,2.5,0.3v2.1
	c-0.6-0.1-1.4-0.2-2.5-0.2c-2.1,0-2.9,0.7-2.9,2.9v1.4h5.4L1668.8,1639.6L1668.8,1639.6z M1675.2,1649.7h4.5v-16.5h-4.2v-2h6.6v18.5
	h4.8v2h-11.7V1649.7z"/>
<path class="st3" d="M1702,1651.7h-2.5c-0.1-0.8-0.2-1.7-0.2-2.6c-0.9,2-2.5,2.9-4.8,2.9c-2.8,0-4.8-1.7-4.8-4.1
	c0-1.5,0.7-2.6,2-3.3c0.9-0.5,2.5-0.9,4.8-1.2l2.6-0.3v-0.2c0-2.5-0.9-3.6-3-3.6c-2,0-3.2,1-3.3,2.8h-2.6c0.3-3,2.5-4.8,6.1-4.8
	c3.6,0,5.3,1.8,5.3,5.8v3.8C1701.5,1649.2,1701.7,1650.7,1702,1651.7z M1695.8,1645.3c-2.4,0.3-3.5,1-3.5,2.4c0,1.4,1,2.3,2.7,2.3
	c2.5,0,4.2-1.7,4.2-4.5v-0.7L1695.8,1645.3z"/>
<path class="st3" d="M1705.7,1637.6h4v-3.7l2.4-1v4.7h5.5v1.9h-5.5v7.3c0,1.9,0.9,2.8,2.7,2.8c0.9,0,1.9-0.1,2.8-0.3v2.2
	c-0.7,0.2-1.5,0.4-2.8,0.4c-3.5,0-5.1-2-5.1-4.8v-7.6h-4V1637.6z"/>
<path class="st3" d="M1722,1647.3l2.4-0.4c0.4,2.1,1.7,3.1,3.8,3.1c1.9,0,2.9-0.8,2.9-2.1c0-1.4-0.7-2-2.2-2.2l-2.3-0.2
	c-2.8-0.3-4.1-1.9-4.1-4.1c0-2.6,2-4.2,5.4-4.2c3.2,0,5.4,1.7,5.7,4.3l-2.4,0.5c-0.3-1.7-1.5-2.9-3.4-2.9c-1.9,0-3,0.8-3,2.1
	c0,1.2,0.8,1.9,2.5,2.1l2.3,0.2c2.8,0.3,3.9,1.8,3.9,4c0,2.7-2,4.3-5.4,4.3C1724.8,1652,1722.6,1650.4,1722,1647.3z"/>
<path class="st3" d="M1741.9,1654.6c1.6-0.7,1.9-1.3,1.9-2.9h-2.1v-3.6h3.8v3.6c0,2.2-0.7,3.3-2.8,4.2L1741.9,1654.6z"/>
<path class="st3" d="M1769.8,1637.6l1.4,9.7l0.3,2h0.2c0.1-0.7,0.2-1.1,0.4-2.4l1.8-9.3h2.5l1.8,9.3c0.2,1.3,0.3,1.7,0.4,2.4h0.2
	l0.3-2l1.4-9.7h2.5l-2.7,14.1h-3l-1.8-9.1c-0.1-0.6-0.2-1.7-0.2-2.3h-0.2c0,0.6-0.1,1.8-0.2,2.3l-1.8,9.1h-3l-2.7-14.1H1769.8z"/>
<path class="st3" d="M1792,1637.3c1.1,0,2.5,0.3,3.5,1.2c0.9,0.9,1.4,2.2,1.4,4.5v8.7h-2.4v-8.6c0-3.1-1.5-3.8-3-3.8
	c-3.1,0-3.8,3-3.8,5v7.3h-2.4v-20.4h2.4v8.9C1788.2,1638.5,1790,1637.3,1792,1637.3z"/>
<path class="st3" d="M1801.6,1649.7h4.5v-10.2h-4.1v-2h6.5v12.1h4.8v2h-11.7V1649.7z M1808.8,1634.8h-3.4v-3.4h3.4V1634.8z"/>
<path class="st3" d="M1816.2,1644.6c0-4.2,2.1-7.3,6.6-7.3c3.1,0,5.4,1.8,5.7,5.1l-2.5,0.3c-0.2-2.1-1.4-3.2-3.4-3.2
	c-2.6,0-3.9,2.1-3.9,5.2c0,3.2,1.3,5.4,4,5.4c2.1,0,3.2-1.2,3.5-3.4l2.3,0.4c-0.5,2.9-2.3,5.1-5.8,5.1
	C1818.3,1652,1816.2,1648.8,1816.2,1644.6z"/>
<path class="st3" d="M1839.4,1637.3c1.1,0,2.5,0.3,3.5,1.2c0.9,0.9,1.4,2.2,1.4,4.5v8.7h-2.4v-8.6c0-3.1-1.5-3.8-3-3.8
	c-3.1,0-3.8,3-3.8,5v7.3h-2.4v-20.4h2.4v8.9C1835.7,1638.5,1837.4,1637.3,1839.4,1637.3z"/>
<path class="st3" d="M1347.8,1675c1.1,0,2.5,0.3,3.5,1.2c0.9,0.9,1.4,2.2,1.4,4.5v8.7h-2.4v-8.6c0-3.1-1.6-3.7-3-3.7
	c-3.1,0-3.8,3-3.8,5v7.3h-2.4V1669h2.4v8.9C1344,1676.2,1345.7,1675,1347.8,1675z"/>
<path class="st3" d="M1368.4,1689.4h-2.5c-0.1-0.8-0.2-1.7-0.2-2.6c-0.9,2-2.5,2.9-4.8,2.9c-2.8,0-4.8-1.7-4.8-4.1
	c0-1.5,0.7-2.6,2-3.3c0.9-0.5,2.5-0.9,4.8-1.2l2.6-0.3v-0.2c0-2.5-0.9-3.6-3-3.6c-2,0-3.2,1-3.3,2.8h-2.6c0.3-3,2.5-4.8,6.1-4.8
	c3.6,0,5.3,1.8,5.3,5.9v3.8C1367.9,1686.9,1368,1688.4,1368.4,1689.4z M1362.1,1683c-2.5,0.3-3.5,1-3.5,2.4c0,1.4,1,2.3,2.7,2.3
	c2.5,0,4.2-1.8,4.2-4.5v-0.7L1362.1,1683z"/>
<path class="st3" d="M1372.6,1685.1l2.4-0.4c0.4,2.1,1.7,3.1,3.8,3.1c1.9,0,2.9-0.8,2.9-2.1c0-1.4-0.7-2-2.2-2.2l-2.3-0.2
	c-2.8-0.3-4.1-1.9-4.1-4c0-2.6,2-4.2,5.4-4.2c3.2,0,5.4,1.7,5.7,4.3l-2.4,0.6c-0.3-1.7-1.5-2.9-3.4-2.9c-1.9,0-3,0.8-3,2.1
	c0,1.2,0.8,1.9,2.5,2.1l2.3,0.2c2.8,0.3,3.9,1.8,3.9,4c0,2.7-2,4.3-5.4,4.3C1375.3,1689.8,1373.1,1688.1,1372.6,1685.1z"/>
<path class="st3" d="M1404.8,1687.4h4.5v-16.5h-4.2v-2h6.6v18.5h4.8v2h-11.7V1687.4z"/>
<path class="st3" d="M1431.7,1683h-9.9c0,2.7,1.5,4.7,4.1,4.7c1.9,0,3-1.2,3.7-2.5l2,1.1c-1.2,2.3-3.1,3.6-5.8,3.6
	c-4.4,0-6.6-3.1-6.6-7.7c0-4.3,2.5-7.1,6.4-7.1c4.3,0,6,3.1,6,6.9C1431.7,1682.3,1431.7,1682.6,1431.7,1683z M1425.6,1676.8
	c-2.6,0-3.9,2.1-3.9,4.2h7.5C1429.3,1678.8,1428.2,1676.8,1425.6,1676.8z"/>
<path class="st3" d="M1447,1669v20.4h-2.2v-2.6c-0.8,1.8-2.2,3-4.5,3c-3.5,0-5.8-2.9-5.8-7.4c0-4.4,2.5-7.3,6.2-7.3
	c1.9,0,3.3,1,4,2.4v-8.4H1447z M1440.9,1677.1c-2.4,0-3.9,1.9-3.9,5.2c0,3.3,1.4,5.3,3.8,5.3c2.4,0,3.9-1.9,3.9-5v-0.7
	C1444.7,1679,1443.2,1677.1,1440.9,1677.1z"/>
<path class="st3" d="M1466.9,1675.3h4v-3.7l2.4-1v4.7h5.5v1.9h-5.5v7.3c0,1.9,0.9,2.8,2.7,2.8c0.9,0,1.9-0.1,2.8-0.3v2.2
	c-0.7,0.2-1.5,0.4-2.8,0.4c-3.5,0-5.1-2-5.1-4.8v-7.6h-4L1466.9,1675.3L1466.9,1675.3z"/>
<path class="st3" d="M1482.4,1682.4c0-4.5,2.6-7.4,6.6-7.4c3.9,0,6.6,2.9,6.6,7.4c0,4.5-2.6,7.4-6.6,7.4
	C1485.1,1689.8,1482.4,1686.8,1482.4,1682.4z M1493.1,1682.4c0-3.3-1.5-5.3-4-5.3c-2.5,0-4,2-4,5.3s1.5,5.3,4,5.3
	C1491.6,1687.7,1493.1,1685.7,1493.1,1682.4z"/>
<path class="st3" d="M1514.4,1675.3h4v-3.7l2.4-1v4.7h5.5v1.9h-5.5v7.3c0,1.9,0.9,2.8,2.7,2.8c0.9,0,1.9-0.1,2.8-0.3v2.2
	c-0.7,0.2-1.5,0.4-2.8,0.4c-3.5,0-5.1-2-5.1-4.8v-7.6h-4L1514.4,1675.3L1514.4,1675.3z"/>
<path class="st3" d="M1537.4,1675c1.1,0,2.5,0.3,3.5,1.2c0.9,0.9,1.4,2.2,1.4,4.5v8.7h-2.4v-8.6c0-3.1-1.5-3.7-3-3.7
	c-3.1,0-3.8,3-3.8,5v7.3h-2.4V1669h2.4v8.9C1533.6,1676.2,1535.4,1675,1537.4,1675z"/>
<path class="st3" d="M1558.1,1683h-9.9c0,2.7,1.5,4.7,4.1,4.7c1.9,0,3-1.2,3.7-2.5l2,1.1c-1.2,2.3-3.1,3.6-5.8,3.6
	c-4.4,0-6.6-3.1-6.6-7.7c0-4.3,2.5-7.1,6.4-7.1c4.3,0,6,3.1,6,6.9C1558.2,1682.3,1558.1,1682.6,1558.1,1683z M1552.1,1676.8
	c-2.6,0-3.9,2.1-3.9,4.2h7.5C1555.7,1678.8,1554.6,1676.8,1552.1,1676.8z"/>
<path class="st3" d="M1587.6,1675c1,0,1.9,0.1,2.5,0.3v2.2c-0.6-0.2-1.6-0.3-2.6-0.3c-3.4,0-6.1,2.3-6.1,6.9v5.2h-2.4v-14.1h2.4v3.7
	C1582.4,1676.8,1584.7,1675,1587.6,1675z"/>
<path class="st3" d="M1594.4,1687.4h4.5v-10.1h-4.1v-2h6.5v12.1h4.8v2h-11.7V1687.4z M1601.6,1672.5h-3.4v-3.4h3.4V1672.5z"/>
<path class="st3" d="M1609.7,1685.1l2.4-0.4c0.4,2.1,1.7,3.1,3.8,3.1c1.9,0,2.9-0.8,2.9-2.1c0-1.4-0.7-2-2.2-2.2l-2.3-0.2
	c-2.8-0.3-4.1-1.9-4.1-4c0-2.6,2-4.2,5.4-4.2c3.2,0,5.4,1.7,5.7,4.3l-2.4,0.6c-0.3-1.7-1.5-2.9-3.4-2.9c-1.9,0-3,0.8-3,2.1
	c0,1.2,0.8,1.9,2.5,2.1l2.3,0.2c2.8,0.3,3.9,1.8,3.9,4c0,2.7-2,4.3-5.4,4.3C1612.4,1689.8,1610.2,1688.1,1609.7,1685.1z"/>
<path class="st3" d="M1637.1,1683h-9.9c0,2.7,1.5,4.7,4.2,4.7c1.9,0,3-1.2,3.7-2.5l2,1.1c-1.2,2.3-3.1,3.6-5.8,3.6
	c-4.4,0-6.6-3.1-6.6-7.7c0-4.3,2.5-7.1,6.4-7.1c4.3,0,6,3.1,6,6.9C1637.2,1682.3,1637.2,1682.6,1637.1,1683z M1631.1,1676.8
	c-2.6,0-3.9,2.1-3.9,4.2h7.5C1634.8,1678.8,1633.6,1676.8,1631.1,1676.8z"/>
<path class="st3" d="M1656.3,1682.4c0-4.5,2.6-7.4,6.6-7.4c4,0,6.6,2.9,6.6,7.4c0,4.5-2.6,7.4-6.6,7.4
	C1658.9,1689.8,1656.3,1686.8,1656.3,1682.4z M1666.9,1682.4c0-3.3-1.5-5.3-4-5.3c-2.5,0-4,2-4,5.3s1.5,5.3,4,5.3
	C1665.4,1687.7,1666.9,1685.7,1666.9,1682.4z"/>
<path class="st3" d="M1684.6,1677.3h-5.3v12.1h-2.4v-12.1h-4.3v-1.9h4.3v-1.5c0-3.2,1.8-4.9,5.3-4.9c0.8,0,1.5,0.1,2.4,0.3v2.1
	c-0.6-0.1-1.4-0.2-2.4-0.2c-2.2,0-2.9,0.7-2.9,2.9v1.4h5.3V1677.3z"/>
<path class="st3" d="M1716.1,1689.4h-2.5c-0.1-0.8-0.2-1.7-0.2-2.6c-0.9,2-2.5,2.9-4.8,2.9c-2.8,0-4.8-1.7-4.8-4.1
	c0-1.5,0.7-2.6,2-3.3c0.9-0.5,2.5-0.9,4.8-1.2l2.6-0.3v-0.2c0-2.5-0.9-3.6-3-3.6c-2,0-3.2,1-3.3,2.8h-2.6c0.2-3,2.4-4.8,6-4.8
	c3.6,0,5.3,1.8,5.3,5.9v3.8C1715.6,1686.9,1715.8,1688.4,1716.1,1689.4z M1709.9,1683c-2.4,0.3-3.5,1-3.5,2.4c0,1.4,1,2.3,2.7,2.3
	c2.5,0,4.2-1.8,4.2-4.5v-0.7L1709.9,1683z"/>
<path class="st3" d="M1720.3,1685.1l2.4-0.4c0.4,2.1,1.7,3.1,3.8,3.1c1.9,0,2.9-0.8,2.9-2.1c0-1.4-0.7-2-2.2-2.2l-2.3-0.2
	c-2.8-0.3-4.1-1.9-4.1-4c0-2.6,2-4.2,5.4-4.2c3.2,0,5.4,1.7,5.7,4.3l-2.4,0.6c-0.3-1.7-1.5-2.9-3.4-2.9c-1.9,0-3,0.8-3,2.1
	c0,1.2,0.8,1.9,2.5,2.1l2.3,0.2c2.8,0.3,3.9,1.8,3.9,4c0,2.7-2,4.3-5.4,4.3C1723.1,1689.8,1720.8,1688.1,1720.3,1685.1z"/>
<path class="st3" d="M1736.2,1685.1l2.4-0.4c0.4,2.1,1.7,3.1,3.8,3.1c1.9,0,2.9-0.8,2.9-2.1c0-1.4-0.7-2-2.2-2.2l-2.3-0.2
	c-2.8-0.3-4.1-1.9-4.1-4c0-2.6,2-4.2,5.4-4.2c3.2,0,5.4,1.7,5.7,4.3l-2.4,0.6c-0.3-1.7-1.5-2.9-3.4-2.9c-1.9,0-3,0.8-3,2.1
	c0,1.2,0.8,1.9,2.5,2.1l2.3,0.2c2.8,0.3,3.9,1.8,3.9,4c0,2.7-2,4.3-5.4,4.3C1738.9,1689.8,1736.7,1688.1,1736.2,1685.1z"/>
<path class="st3" d="M1763.6,1683h-9.9c0,2.7,1.5,4.7,4.1,4.7c1.9,0,3-1.2,3.7-2.5l2,1.1c-1.2,2.3-3.1,3.6-5.8,3.6
	c-4.4,0-6.6-3.1-6.6-7.7c0-4.3,2.5-7.1,6.4-7.1c4.3,0,6,3.1,6,6.9C1763.7,1682.3,1763.6,1682.6,1763.6,1683z M1757.5,1676.8
	c-2.6,0-3.9,2.1-3.9,4.2h7.5C1761.2,1678.8,1760.1,1676.8,1757.5,1676.8z"/>
<path class="st3" d="M1767.3,1675.3h4v-3.7l2.4-1v4.7h5.5v1.9h-5.5v7.3c0,1.9,0.9,2.8,2.7,2.8c0.9,0,1.9-0.1,2.8-0.3v2.2
	c-0.7,0.2-1.5,0.4-2.8,0.4c-3.5,0-5.1-2-5.1-4.8v-7.6h-4V1675.3z"/>
<path class="st3" d="M1799.9,1687.4h4.5v-16.5h-4.2v-2h6.6v18.5h4.8v2h-11.7V1687.4z"/>
<path class="st3" d="M1815.7,1687.4h4.5v-10.1h-4.1v-2h6.5v12.1h4.8v2h-11.7V1687.4z M1822.9,1672.5h-3.4v-3.4h3.4V1672.5z"/>
<path class="st3" d="M1840.8,1680.5v2.2h-8.2v-2.2H1840.8z"/>
<path class="st3" d="M1343.6,1715.5c0.8-1.6,2.5-2.8,4.4-2.8c3.6,0,5.8,3.1,5.8,7.4c0,4.4-2.2,7.4-5.9,7.4c-1.9,0-3.6-1-4.4-2.8
	l-0.4,2.4h-1.8v-20.4h2.4V1715.5z M1347.3,1725.4c2.4,0,3.9-2.1,3.9-5.3c0-3.1-1.4-5.2-3.9-5.2c-2.4,0-3.8,1.9-3.8,4.9v0.7
	C1343.5,1723.4,1344.9,1725.4,1347.3,1725.4z"/>
<path class="st3" d="M1366.3,1712.8c1,0,2,0.1,2.5,0.3v2.2c-0.6-0.1-1.6-0.3-2.6-0.3c-3.4,0-6.1,2.3-6.1,6.9v5.2h-2.4v-14.1h2.4v3.7
	C1361.1,1714.5,1363.4,1712.8,1366.3,1712.8z"/>
<path class="st3" d="M1384.2,1727.1h-2.5c-0.1-0.8-0.2-1.7-0.2-2.6c-0.9,2-2.4,2.9-4.8,2.9c-2.8,0-4.7-1.7-4.7-4.1
	c0-1.5,0.7-2.6,2-3.3c0.9-0.5,2.5-0.9,4.8-1.2l2.6-0.3v-0.2c0-2.5-0.9-3.6-3-3.6c-2,0-3.2,1-3.3,2.8h-2.6c0.3-3,2.4-4.8,6-4.8
	c3.6,0,5.3,1.8,5.3,5.9v3.8C1383.7,1724.6,1383.8,1726.1,1384.2,1727.1z M1377.9,1720.7c-2.5,0.3-3.5,1-3.5,2.5c0,1.4,1,2.3,2.7,2.3
	c2.5,0,4.2-1.8,4.2-4.5v-0.7L1377.9,1720.7z"/>
<path class="st3" d="M1398,1712.8c1,0,2,0.1,2.5,0.3v2.2c-0.6-0.1-1.6-0.3-2.6-0.3c-3.4,0-6.1,2.3-6.1,6.9v5.2h-2.4v-14.1h2.4v3.7
	C1392.7,1714.5,1395,1712.8,1398,1712.8z"/>
<path class="st3" d="M1404.8,1725.2h4.5V1715h-4.1v-2h6.5v12.1h4.8v2h-11.7V1725.2z M1411.9,1710.2h-3.4v-3.4h3.4V1710.2z"/>
<path class="st3" d="M1431.7,1720.7h-9.9c0,2.7,1.5,4.7,4.1,4.7c1.9,0,3-1.2,3.7-2.5l2,1.1c-1.2,2.3-3.1,3.5-5.8,3.5
	c-4.4,0-6.6-3-6.6-7.7c0-4.3,2.5-7.1,6.4-7.1c4.3,0,6,3.1,6,6.9C1431.7,1720,1431.7,1720.3,1431.7,1720.7z M1425.6,1714.6
	c-2.6,0-3.9,2.1-3.9,4.2h7.5C1429.3,1716.5,1428.2,1714.6,1425.6,1714.6z"/>
<path class="st3" d="M1435.8,1722.8l2.4-0.4c0.4,2.1,1.7,3.1,3.8,3.1c1.9,0,2.9-0.8,2.9-2.1c0-1.4-0.7-2-2.2-2.2l-2.3-0.2
	c-2.8-0.3-4.1-1.9-4.1-4.1c0-2.6,2-4.2,5.4-4.2c3.2,0,5.4,1.7,5.7,4.3l-2.4,0.5c-0.3-1.7-1.5-2.9-3.4-2.9c-1.9,0-3,0.8-3,2.1
	c0,1.2,0.8,1.9,2.5,2.2l2.3,0.2c2.8,0.3,3.9,1.8,3.9,4c0,2.7-2,4.3-5.4,4.3C1438.6,1727.5,1436.3,1725.8,1435.8,1722.8z"/>
<path class="st3" d="M1479.1,1715h-5.4v12.2h-2.4V1715h-4.3v-1.9h4.3v-1.5c0-3.2,1.8-4.9,5.3-4.9c0.8,0,1.5,0.1,2.4,0.3v2.1
	c-0.6-0.1-1.4-0.2-2.4-0.2c-2.2,0-2.9,0.7-2.9,2.9v1.4h5.4L1479.1,1715L1479.1,1715z"/>
<path class="st3" d="M1482.4,1720.1c0-4.5,2.6-7.4,6.6-7.4c3.9,0,6.6,2.9,6.6,7.4c0,4.5-2.6,7.4-6.6,7.4
	C1485.1,1727.5,1482.4,1724.5,1482.4,1720.1z M1493.1,1720.1c0-3.3-1.5-5.3-4-5.3c-2.5,0-4,2-4,5.3c0,3.3,1.5,5.3,4,5.3
	C1491.6,1725.4,1493.1,1723.4,1493.1,1720.1z"/>
<path class="st3" d="M1508.6,1712.8c1,0,2,0.1,2.5,0.3v2.2c-0.6-0.1-1.6-0.3-2.6-0.3c-3.4,0-6.1,2.3-6.1,6.9v5.2h-2.4v-14.1h2.4v3.7
	C1503.3,1714.5,1505.7,1712.8,1508.6,1712.8z"/>
<path class="st3" d="M1529.9,1720c0-4.2,2.1-7.3,6.6-7.3c3.1,0,5.4,1.8,5.7,5l-2.4,0.3c-0.2-2.1-1.4-3.2-3.5-3.2
	c-2.6,0-3.9,2.1-3.9,5.2c0,3.2,1.3,5.4,4,5.4c2.1,0,3.2-1.2,3.5-3.4l2.3,0.4c-0.4,2.9-2.3,5.1-5.8,5.1
	C1532.1,1727.5,1529.9,1724.2,1529.9,1720z"/>
<path class="st3" d="M1556,1712.8c1,0,1.9,0.1,2.5,0.3v2.2c-0.6-0.1-1.6-0.3-2.6-0.3c-3.4,0-6.1,2.3-6.1,6.9v5.2h-2.4v-14.1h2.4v3.7
	C1550.8,1714.5,1553.1,1712.8,1556,1712.8z"/>
<path class="st3" d="M1573.9,1720.7h-9.9c0,2.7,1.5,4.7,4.2,4.7c1.9,0,3-1.2,3.7-2.5l2,1.1c-1.2,2.3-3.1,3.5-5.8,3.5
	c-4.4,0-6.6-3-6.6-7.7c0-4.3,2.5-7.1,6.4-7.1c4.3,0,6,3.1,6,6.9C1574,1720,1573.9,1720.3,1573.9,1720.7z M1567.9,1714.6
	c-2.6,0-3.9,2.1-3.9,4.2h7.5C1571.5,1716.5,1570.4,1714.6,1567.9,1714.6z"/>
<path class="st3" d="M1589.7,1727.1h-2.5c-0.1-0.8-0.2-1.7-0.2-2.6c-0.9,2-2.5,2.9-4.8,2.9c-2.8,0-4.8-1.7-4.8-4.1
	c0-1.5,0.7-2.6,2-3.3c0.9-0.5,2.5-0.9,4.8-1.2l2.6-0.3v-0.2c0-2.5-0.9-3.6-3-3.6c-2,0-3.2,1-3.3,2.8h-2.6c0.2-3,2.5-4.8,6-4.8
	c3.6,0,5.3,1.8,5.3,5.9v3.8C1589.2,1724.6,1589.3,1726.1,1589.7,1727.1z M1583.4,1720.7c-2.5,0.3-3.5,1-3.5,2.5c0,1.4,1,2.3,2.7,2.3
	c2.5,0,4.2-1.8,4.2-4.5v-0.7L1583.4,1720.7z"/>
<path class="st3" d="M1593.4,1713.1h4v-3.7l2.4-1v4.7h5.5v1.9h-5.5v7.3c0,1.9,0.9,2.8,2.7,2.8c0.9,0,1.9-0.1,2.8-0.2v2.2
	c-0.7,0.2-1.5,0.4-2.8,0.4c-3.5,0-5.1-2-5.1-4.8v-7.6h-4L1593.4,1713.1L1593.4,1713.1z"/>
<path class="st3" d="M1610.2,1725.2h4.5V1715h-4.1v-2h6.5v12.1h4.8v2h-11.7V1725.2z M1617.4,1710.2h-3.4v-3.4h3.4V1710.2z"/>
<path class="st3" d="M1632.3,1712.7c1.2,0,2.5,0.3,3.4,1.2c0.9,0.9,1.3,2.2,1.3,4.5v8.7h-2.4v-8.6c0-3.1-1.5-3.8-2.9-3.8
	c-3.2,0-4,3-4,5v7.4h-2.4v-14.1h2.2v2.8C1628.4,1714.1,1630,1712.7,1632.3,1712.7z"/>
<path class="st3" d="M1651,1714.2c0.8,0.8,1.3,1.9,1.3,3.3c0,2.9-2.2,4.8-5.3,4.8c-1,0-1.9-0.2-2.6-0.6c-0.6,0.3-1,0.8-1,1.4
	c0,0.9,0.7,1.4,2.3,1.4h3.6c2.9,0,4.6,1.4,4.6,3.8c0,3-2.6,4.6-7,4.6c-4,0-6.4-1.4-6.4-3.6c0-1.5,1-2.7,2.5-3.2
	c-1.2-0.5-1.8-1.3-1.8-2.5c0-1.3,0.7-2.2,2-2.7c-0.9-0.8-1.4-2-1.4-3.4c0-2.9,2.1-4.9,5.2-4.9c1,0,2,0.2,2.7,0.6
	c0.5-1.7,1.7-2.6,3.4-2.6c0.3,0,0.7,0,0.9,0.1v2.1c-0.4-0.1-0.7-0.1-1-0.1C1652,1712.8,1651.4,1713.2,1651,1714.2z M1645.6,1726.6
	c-0.4,0-0.8,0-1.2-0.1c-0.9,0.4-1.5,1.2-1.5,2.2c0,1.5,1.4,2.3,4.3,2.3c3,0,4.3-0.8,4.3-2.4c0-1.3-0.9-2-2.7-2L1645.6,1726.6
	L1645.6,1726.6z M1650,1717.4c0-1.7-1.2-2.9-2.9-2.9c-1.8,0-3,1.2-3,3c0,1.7,1.2,2.9,2.9,2.9C1648.7,1720.4,1650,1719.2,1650,1717.4
	z"/>
<path class="st3" d="M1679.7,1712.7c1.1,0,2.5,0.3,3.5,1.2c0.9,0.9,1.4,2.2,1.4,4.5v8.7h-2.4v-8.6c0-3.1-1.6-3.8-3.1-3.8
	c-3.1,0-3.8,3-3.8,5v7.4h-2.4v-20.4h2.4v8.9C1675.9,1713.9,1677.6,1712.7,1679.7,1712.7z"/>
<path class="st3" d="M1693.5,1727.5c-1.3,0-2.6-0.3-3.6-1.2c-0.9-0.9-1.3-2.2-1.3-4.5v-8.7h2.5v8.6c0,3.1,1.5,3.8,2.9,3.8
	c3,0,3.7-3,3.7-5v-7.3h2.4v14.1h-2.2v-2.7C1697.2,1725.9,1695.6,1727.5,1693.5,1727.5z"/>
<path class="st3" d="M1708.2,1712.7c1.4,0,2.4,0.9,2.9,2.6c0.7-1.6,2-2.6,3.3-2.6c1.7,0,3.3,1.2,3.3,4.2v10.2h-2.4v-10
	c0-1.8-0.8-2.3-1.7-2.3c-1.7,0-2.3,1.2-2.3,3v9.3h-2.3v-10c0-1.7-0.8-2.3-1.7-2.3c-1.6,0-2.2,1.3-2.2,3v9.3h-2.4v-14.1h2.3v2.2
	C1705.6,1713.7,1706.7,1712.7,1708.2,1712.7z"/>
<path class="st3" d="M1731.9,1727.1h-2.5c-0.1-0.8-0.2-1.7-0.2-2.6c-0.9,2-2.5,2.9-4.8,2.9c-2.8,0-4.7-1.7-4.7-4.1
	c0-1.5,0.7-2.6,2-3.3c0.9-0.5,2.5-0.9,4.8-1.2l2.6-0.3v-0.2c0-2.5-0.9-3.6-3-3.6c-2,0-3.2,1-3.3,2.8h-2.6c0.2-3,2.5-4.8,6-4.8
	c3.6,0,5.3,1.8,5.3,5.9v3.8C1731.4,1724.6,1731.6,1726.1,1731.9,1727.1z M1725.7,1720.7c-2.5,0.3-3.5,1-3.5,2.5c0,1.4,1,2.3,2.7,2.3
	c2.5,0,4.2-1.8,4.2-4.5v-0.7L1725.7,1720.7z"/>
<path class="st3" d="M1743,1712.7c1.2,0,2.5,0.3,3.4,1.2c0.9,0.9,1.3,2.2,1.3,4.5v8.7h-2.4v-8.6c0-3.1-1.5-3.8-2.9-3.8
	c-3.2,0-4,3-4,5v7.4h-2.4v-14.1h2.2v2.8C1739.1,1714.1,1740.6,1712.7,1743,1712.7z"/>
<path class="st3" d="M1752,1722.8l2.4-0.4c0.4,2.1,1.7,3.1,3.8,3.1c1.9,0,2.9-0.8,2.9-2.1c0-1.4-0.7-2-2.3-2.2l-2.3-0.2
	c-2.8-0.3-4.1-1.9-4.1-4.1c0-2.6,2-4.2,5.4-4.2c3.2,0,5.4,1.7,5.7,4.3l-2.4,0.5c-0.3-1.7-1.5-2.9-3.4-2.9c-1.9,0-3,0.8-3,2.1
	c0,1.2,0.8,1.9,2.5,2.2l2.2,0.2c2.8,0.3,3.9,1.8,3.9,4c0,2.7-2,4.3-5.4,4.3C1754.7,1727.5,1752.5,1725.8,1752,1722.8z"/>
<path class="st3" d="M1771.8,1730c1.6-0.7,1.9-1.3,1.9-2.9h-2.1v-3.6h3.8v3.6c0,2.2-0.7,3.3-2.9,4.2L1771.8,1730z"/>
<path class="st3" d="M1810.9,1727.1h-2.5c-0.1-0.8-0.2-1.7-0.2-2.6c-0.9,2-2.4,2.9-4.8,2.9c-2.8,0-4.7-1.7-4.7-4.1
	c0-1.5,0.7-2.6,2-3.3c0.9-0.5,2.4-0.9,4.8-1.2l2.6-0.3v-0.2c0-2.5-0.9-3.6-3-3.6c-2,0-3.2,1-3.3,2.8h-2.6c0.3-3,2.4-4.8,6-4.8
	c3.6,0,5.3,1.8,5.3,5.9v3.8C1810.5,1724.6,1810.6,1726.1,1810.9,1727.1z M1804.7,1720.7c-2.5,0.3-3.5,1-3.5,2.5c0,1.4,1,2.3,2.7,2.3
	c2.5,0,4.2-1.8,4.2-4.5v-0.7L1804.7,1720.7z"/>
<path class="st3" d="M1815.2,1722.8l2.4-0.4c0.4,2.1,1.7,3.1,3.8,3.1c1.9,0,2.9-0.8,2.9-2.1c0-1.4-0.7-2-2.3-2.2l-2.3-0.2
	c-2.8-0.3-4.1-1.9-4.1-4.1c0-2.6,2-4.2,5.4-4.2c3.2,0,5.4,1.7,5.7,4.3l-2.4,0.5c-0.3-1.7-1.5-2.9-3.4-2.9c-1.9,0-3,0.8-3,2.1
	c0,1.2,0.8,1.9,2.5,2.2l2.2,0.2c2.8,0.3,3.9,1.8,3.9,4c0,2.7-2,4.3-5.4,4.3C1817.9,1727.5,1815.7,1725.8,1815.2,1722.8z"/>
<path class="st3" d="M1347,1762.1l3.9-11.3h2.6l-5.7,15c-1.3,3.6-3,4.8-5.4,4.8c-0.4,0-0.8,0-1.3-0.1v-2.1c0.4,0,0.7,0.1,1,0.1
	c1.7,0,2.6-0.8,3.2-2.6l0.4-1l-5.5-13.9h2.7L1347,1762.1z"/>
<path class="st3" d="M1356,1757.8c0-4.5,2.6-7.4,6.6-7.4c4,0,6.6,2.9,6.6,7.4c0,4.5-2.6,7.4-6.6,7.4
	C1358.6,1765.2,1356,1762.2,1356,1757.8z M1366.6,1757.8c0-3.3-1.5-5.3-4-5.3c-2.5,0-4,2-4,5.3c0,3.3,1.5,5.3,4,5.3
	C1365.1,1763.1,1366.6,1761.1,1366.6,1757.8z"/>
<path class="st3" d="M1377.4,1765.2c-1.3,0-2.6-0.3-3.6-1.2c-0.9-0.9-1.3-2.2-1.3-4.5v-8.7h2.5v8.6c0,3.1,1.5,3.8,2.9,3.8
	c3,0,3.7-3,3.7-5v-7.4h2.4v14.1h-2.2v-2.7C1381.1,1763.6,1379.5,1765.2,1377.4,1765.2z"/>
<path class="st3" d="M1411,1750.4c1.1,0,2.5,0.3,3.5,1.2c0.9,0.9,1.4,2.2,1.4,4.5v8.7h-2.4v-8.6c0-3.1-1.6-3.8-3-3.8
	c-3.1,0-3.8,3-3.8,5v7.4h-2.4v-20.4h2.4v8.9C1407.2,1751.6,1408.9,1750.4,1411,1750.4z"/>
<path class="st3" d="M1431.6,1764.9h-2.5c-0.1-0.8-0.2-1.7-0.2-2.6c-0.9,2-2.5,2.9-4.8,2.9c-2.8,0-4.8-1.7-4.8-4.1
	c0-1.5,0.7-2.6,2-3.3c0.9-0.5,2.5-0.9,4.8-1.2l2.6-0.3v-0.2c0-2.5-0.9-3.6-3-3.6c-2,0-3.2,1-3.3,2.8h-2.6c0.3-3,2.4-4.8,6-4.8
	c3.6,0,5.3,1.8,5.3,5.9v3.8C1431.1,1762.3,1431.3,1763.8,1431.6,1764.9z M1425.4,1758.5c-2.5,0.3-3.5,1-3.5,2.5c0,1.4,1,2.3,2.7,2.3
	c2.5,0,4.2-1.8,4.2-4.5v-0.7L1425.4,1758.5z"/>
<path class="st3" d="M1434.6,1750.8h2.5l3.7,9.6c0.3,0.7,0.5,1.4,0.7,2h0.1c0.1-0.6,0.3-1.3,0.6-2l3.8-9.6h2.5l-5.7,14.1h-2.6
	L1434.6,1750.8z"/>
<path class="st3" d="M1463.3,1758.4h-9.9c0,2.7,1.5,4.7,4.2,4.7c1.9,0,3-1.2,3.7-2.5l2,1.1c-1.2,2.3-3.1,3.5-5.8,3.5
	c-4.4,0-6.6-3-6.6-7.7c0-4.3,2.5-7.1,6.4-7.1c4.3,0,6,3.1,6,6.9C1463.3,1757.7,1463.3,1758.1,1463.3,1758.4z M1457.2,1752.3
	c-2.6,0-3.9,2.1-3.9,4.2h7.5C1460.9,1754.2,1459.8,1752.3,1457.2,1752.3z"/>
<path class="st3" d="M1483.2,1760.5l2.4-0.4c0.4,2.1,1.7,3.1,3.8,3.1c1.9,0,2.9-0.8,2.9-2.1c0-1.4-0.7-2-2.2-2.2l-2.3-0.2
	c-2.8-0.3-4.1-1.9-4.1-4.1c0-2.6,2-4.2,5.4-4.2c3.2,0,5.4,1.7,5.7,4.3l-2.4,0.5c-0.3-1.7-1.5-2.9-3.4-2.9c-1.9,0-3,0.8-3,2.1
	c0,1.2,0.8,2,2.5,2.2l2.3,0.2c2.8,0.3,3.9,1.8,3.9,4c0,2.7-2,4.3-5.4,4.3C1486,1765.2,1483.8,1763.5,1483.2,1760.5z"/>
<path class="st3" d="M1510.7,1758.4h-9.9c0,2.7,1.5,4.7,4.1,4.7c1.9,0,3-1.2,3.7-2.5l2,1.1c-1.2,2.3-3.1,3.5-5.8,3.5
	c-4.4,0-6.6-3-6.6-7.7c0-4.3,2.5-7.1,6.4-7.1c4.3,0,6,3.1,6,6.9C1510.8,1757.7,1510.7,1758.1,1510.7,1758.4z M1504.7,1752.3
	c-2.6,0-3.9,2.1-3.9,4.2h7.5C1508.3,1754.2,1507.2,1752.3,1504.7,1752.3z"/>
<path class="st3" d="M1526.5,1758.4h-9.9c0,2.7,1.5,4.7,4.2,4.7c1.9,0,3-1.2,3.7-2.5l2,1.1c-1.2,2.3-3.1,3.5-5.8,3.5
	c-4.4,0-6.6-3-6.6-7.7c0-4.3,2.5-7.1,6.4-7.1c4.3,0,6,3.1,6,6.9C1526.6,1757.7,1526.5,1758.1,1526.5,1758.4z M1520.4,1752.3
	c-2.6,0-3.9,2.1-3.9,4.2h7.5C1524.1,1754.2,1523,1752.3,1520.4,1752.3z"/>
<path class="st3" d="M1537.5,1750.4c1.2,0,2.5,0.3,3.4,1.2c0.9,0.9,1.4,2.2,1.4,4.5v8.7h-2.4v-8.6c0-3.1-1.5-3.8-2.9-3.8
	c-3.2,0-4,3-4,5v7.4h-2.4v-14.1h2.3v2.8C1533.6,1751.8,1535.1,1750.4,1537.5,1750.4z"/>
<path class="st3" d="M1562.8,1762.9h4.5v-10.2h-4.1v-2h6.5v12.1h4.8v2h-11.7V1762.9z M1570,1747.9h-3.4v-3.4h3.4V1747.9z"/>
<path class="st3" d="M1584.9,1750.4c1.2,0,2.5,0.3,3.4,1.2c0.9,0.9,1.4,2.2,1.4,4.5v8.7h-2.4v-8.6c0-3.1-1.5-3.8-2.9-3.8
	c-3.2,0-4,3-4,5v7.4h-2.4v-14.1h2.3v2.8C1581,1751.8,1582.6,1750.4,1584.9,1750.4z"/>
<path class="st3" d="M1622.2,1747.1h-9.7v6.4h8.9v2.2h-8.9v9.1h-2.6v-20h12.3V1747.1z"/>
<path class="st3" d="M1626,1762.9h4.5v-16.5h-4.2v-2h6.6v18.5h4.8v2H1626V1762.9z"/>
<path class="st3" d="M1652.9,1764.9h-2.5c-0.1-0.8-0.2-1.7-0.2-2.6c-0.9,2-2.5,2.9-4.8,2.9c-2.8,0-4.8-1.7-4.8-4.1
	c0-1.5,0.7-2.6,2-3.3c0.9-0.5,2.5-0.9,4.8-1.2l2.6-0.3v-0.2c0-2.5-0.9-3.6-3-3.6c-2,0-3.2,1-3.3,2.8h-2.6c0.2-3,2.5-4.8,6-4.8
	c3.6,0,5.3,1.8,5.3,5.9v3.8C1652.4,1762.3,1652.5,1763.8,1652.9,1764.9z M1646.6,1758.5c-2.5,0.3-3.5,1-3.5,2.5c0,1.4,1,2.3,2.7,2.3
	c2.5,0,4.2-1.8,4.2-4.5v-0.7L1646.6,1758.5z"/>
<path class="st3" d="M1656.6,1750.8h4v-3.7l2.4-1v4.7h5.5v1.9h-5.5v7.3c0,1.9,0.9,2.8,2.7,2.8c0.9,0,1.9-0.1,2.8-0.3v2.2
	c-0.7,0.2-1.5,0.4-2.8,0.4c-3.5,0-5.1-2-5.1-4.8v-7.6h-4L1656.6,1750.8L1656.6,1750.8z"/>
<path class="st3" d="M1687,1744.8h2.6l0.7,14.2c0.1,2.1,0.1,3.1,0.1,3.6h0.3c0-0.7,0.1-1.8,0.6-3.8l1.9-9.1h2.5l2,9.1
	c0.4,2,0.5,3.1,0.6,3.8h0.3c0-0.4,0-1.5,0.1-3.6l0.7-14.2h2.6l-1.5,20h-3.5l-1.8-8.6c-0.4-1.8-0.5-2.8-0.5-4h-0.3
	c-0.1,1.2-0.2,2.2-0.5,4l-1.8,8.6h-3.4L1687,1744.8z"/>
<path class="st3" d="M1703.7,1757.8c0-4.5,2.6-7.4,6.6-7.4c3.9,0,6.6,2.9,6.6,7.4c0,4.5-2.6,7.4-6.6,7.4
	C1706.3,1765.2,1703.7,1762.2,1703.7,1757.8z M1714.3,1757.8c0-3.3-1.5-5.3-4-5.3c-2.5,0-4,2-4,5.3c0,3.3,1.5,5.3,4,5.3
	C1712.8,1763.1,1714.3,1761.1,1714.3,1757.8z"/>
<path class="st3" d="M1729.9,1750.5c1,0,1.9,0.1,2.5,0.3v2.2c-0.6-0.1-1.6-0.3-2.6-0.3c-3.4,0-6.1,2.3-6.1,6.9v5.2h-2.4v-14.1h2.4
	v3.7C1724.6,1752.2,1726.9,1750.5,1729.9,1750.5z"/>
<path class="st3" d="M1736.7,1762.9h4.5v-16.5h-4.2v-2h6.6v18.5h4.8v2h-11.7V1762.9z"/>
<path class="st3" d="M1763.2,1744.4v20.4h-2.2v-2.6c-0.8,1.8-2.2,3-4.5,3c-3.5,0-5.8-2.9-5.8-7.4c0-4.4,2.5-7.3,6.2-7.3
	c1.9,0,3.3,1,4,2.4v-8.4H1763.2z M1757,1752.5c-2.4,0-3.9,1.9-3.9,5.2c0,3.3,1.4,5.3,3.8,5.3c2.4,0,3.9-1.9,3.9-5v-0.7
	C1760.8,1754.5,1759.3,1752.5,1757,1752.5z"/>
<path class="st3" d="M1775.4,1764.9h-3.8v-3.6h3.8V1764.9z"/>
<path class="st0" d="M1579,1136.7v271.8h-126.3c-6.5,0-11.7-5.2-11.7-11.7c0-6.4,5.2-11.7,11.7-11.7h125.8"/>
<path class="st0" d="M1504.9,1408.4c-6.5,0-11.7-5.2-11.7-11.7c0-6.4,5.2-11.7,11.7-11.7"/>
<path class="st0" d="M1518.3,1384.8v-125.6H1507"/>
<path class="st0" d="M1514.7,1073.2l-7.9,29.3h-36.9c-20.8,0-37.7,16.9-37.7,37.6v83.4l-0.3,52.6v11.6c0,2.8,2.4,5.4,5.3,5.4
	c3,0,5.4-2.3,5.4-5.1V1275"/>
<path class="st0" d="M1464.8,1132.8v252.3"/>
<path class="st0" d="M1464.8,1176h-32.5"/>
<path class="st0" d="M1528.7,1073.2l7.9,29.3h36.9c20.8,0,37.7,16.8,37.7,37.6v83.3v52.6v13.1c0,2.8-2.4,5-5.4,5c-3,0-5.4-2.3-5.4-5
	v-13.1"/>
<path class="st0" d="M1579.4,1175.9h31.7"/>
<path class="st0" d="M1465.1,1229.9h113.7"/>
<path class="st0" d="M1536.6,1102.5H1507"/>
<path class="st0" d="M1518.8,1023.8c-1.8-2.4-3-5.3-3.1-7.7c-0.1-3.1,4.4-4,5.5-1.1c0,0,0,0,0,0c0.8,2.2,1.8,7.5,8.6,9.9l-0.3,0
	c10.1,3.2,17.5,12.7,17.5,23.9c0,13.8-11.2,25.1-25.1,25.1s-25.1-11.2-25.1-25.1c0-9.6,4.9-17.6,11.9-21.1"/>
<path class="st0" d="M1513.3,1025c-1.8-2.3-3-5.9-3.1-8.3c-0.1-3.1,4.4-4,5.5-1.1"/>
<path class="st0" d="M1508.4,1027.4c-1.8-2.4-3-5.9-3.1-8.3c-0.1-3.1,3.8-4,4.9-1.1"/>
<path class="st0" d="M1589.7,1276.1v13.1c0,2.8,2.4,5.1,5.4,5.1c3,0,5.4-2.3,5.4-5.1v-13.1"/>
<path class="st0" d="M1579,1276.1v13.1c0,2.8,2.4,5.1,5.4,5.1c3,0,5.4-2.3,5.4-5.1v-13.1"/>
<path class="st0" d="M1453.3,1275v13.1c0,2.8-2.4,5-5.4,5c-3,0-5.4-2.3-5.4-5V1275"/>
<path class="st0" d="M1464,1275v13.1c0,2.8-2.4,5-5.4,5c-3,0-5.4-2.3-5.4-5V1275"/>
<path class="st0" d="M1514.4,1047.4c0.5,0,0.9-0.4,0.9-0.9c0-0.5-0.4-0.9-0.9-0.9c-0.5,0-0.9,0.4-0.9,0.9
	C1513.5,1047,1513.9,1047.4,1514.4,1047.4z"/>
<path class="st0" d="M1503.7,1047.4c0.5,0,0.9-0.4,0.9-0.9c0-0.5-0.4-0.9-0.9-0.9c-0.5,0-0.9,0.4-0.9,0.9
	C1502.8,1047,1503.2,1047.4,1503.7,1047.4z"/>
<path class="st0" d="M1510.1,1051.1h-2.8c-1.3,0-2.4,1.1-2.4,2.4c0,1.3,1.1,2.4,2.4,2.4h2.8"/>
<path class="st0" d="M1519.1,1062.8h6.7"/>
<path class="st0" d="M1533.8,1056.2c3.3,0,6.1-2.7,6.1-6.1c0-3.3-2.7-6.1-6.1-6.1"/>
<path class="st4" d="M1649.7,1250.9c0,0,9.6-176.4,12.3-206.2c2.8-30.7,22.4-69.3,60.3-86.5c0,0,64.8-31.8,116,13.6
	c0,0,12.9,15,17.1,22.1c4.2,7.2,112.7,198.9,117.9,216.3S1649.7,1250.9,1649.7,1250.9z"/>
<path class="st5" d="M1762,1170.3c40.8-5.1,68.3-52.7,61.6-106.3s-45.2-93-86-87.9c-40.8,5.1-68.3,52.7-61.6,106.3
	C1682.8,1136.1,1721.2,1175.4,1762,1170.3z"/>
<path class="st5" d="M1735.4,1165l0,74.8l98.3-37.4l-31-65.2"/>
<path class="st5" d="M1818.8,1067.4c15.3,0,27.7-12.4,27.7-27.6c0-15.3-12.4-27.6-27.7-27.6c-15.3,0-27.7,12.4-27.7,27.6
	C1791.2,1055.1,1803.6,1067.4,1818.8,1067.4z"/>
<path class="st6" d="M1576.8,1350.1l278.8-0.6l-9,58.3h157.2l-23.9-179.4c-2.7-20-19.3-35.3-39.5-36.4l-114.7-6l-90.4,13.3
	l-79.5,27.7c-8.7,3.1-16,9.2-20.5,17.3L1576.8,1350.1z"/>
<path class="st5" d="M1783.7,1213.5c24.8-4.1,43.5-16.2,41.7-27.2s-23.4-16.6-48.2-12.6c-24.8,4-43.5,16.2-41.7,27.2
	C1737.2,1211.9,1758.8,1217.6,1783.7,1213.5z"/>
<path class="st4" d="M1700.9,1079.9c3.3,0,6-4.2,6-9.5s-2.7-9.5-6-9.5s-6,4.2-6,9.5S1697.6,1079.9,1700.9,1079.9z"/>
<path class="st4" d="M1738.7,1079.9c3.3,0,6-4.2,6-9.5s-2.7-9.5-6-9.5c-3.3,0-6,4.2-6,9.5S1735.3,1079.9,1738.7,1079.9z"/>
<path class="st7" d="M1713.1,1071.9l-1.8,49.7l14-7.8"/>
<path class="st4" d="M1751.6,1137.2c8.8,6.7,23.3,2.5,32.4-9.3c9.1-11.9,9.3-26.9,0.5-33.7L1751.6,1137.2z"/>
<path class="st8" d="M1687.7,1306.2l-21.8,41.3"/>
<path class="st5" d="M1578,1349.3h278.7c12.6,0,22.7,10.2,22.7,22.7v58.5c0,2.6-2.1,4.7-4.7,4.7c-2.6,0-4.7-2.1-4.7-4.7v-22.6h-3.1
	v22.6c0,2.6-2.1,4.7-4.7,4.7h-0.3c-2.6,0-4.7-2.1-4.7-4.7v-22.6h-3.3v22.6c0,2.6-2.1,4.7-4.7,4.7h-0.5c-2.6,0-4.7-2.1-4.7-4.7v-22.6
	h-3.3v22.6c0,2.6-2.1,4.7-4.7,4.7h-1c-2.6,0-4.7-2.1-4.7-4.7v-23.2h-226.4c-26.3,0-43-28.2-30.2-51.2l3.8-6.8"/>
<path class="st9" d="M1842.2,1408.4v22.3"/>
<path class="st9" d="M1666.3,1349h-20.1"/>
<path class="st9" d="M1855.6,1408.4v22.3"/>
<path class="st9" d="M1868.5,1408.4v22.3"/>
<path class="st0" d="M1829.9,1407.8l-469.8-0.1"/>
<path class="st0" d="M1973.7,1408.2h-94.3"/>
</svg>
