<?xml version="1.0" encoding="utf-8"?>
<!-- Generator: Adobe Illustrator 25.2.3, SVG Export Plug-In . SVG Version: 6.00 Build 0)  -->
<svg version="1.1" id="Camada_1" xmlns="http://www.w3.org/2000/svg" xmlns:xlink="http://www.w3.org/1999/xlink" x="0px" y="0px"
	 viewBox="0 0 2107 1846" style="enable-background:new 0 0 2107 1846;" xml:space="preserve">
<style type="text/css">
	.st0{fill:#D5F5FF;stroke:#00BDFF;stroke-width:3;stroke-linecap:round;stroke-linejoin:round;stroke-miterlimit:10;}
	.st1{fill:#00BDFF;}
	.st2{fill:none;stroke:#00BDFF;stroke-width:3;stroke-linecap:round;stroke-linejoin:round;stroke-miterlimit:10;}
	.st3{fill:none;stroke:#00BDFF;stroke-width:3;stroke-miterlimit:10;}
</style>
<path class="st0" d="M1897.5,684.3h-535.8c-18.7,0-33.9-15.2-33.9-33.9V339.4c0-18.7,15.2-33.9,33.9-33.9h535.8
	c18.7,0,33.9,15.2,33.9,33.9v310.9C1931.4,669.1,1916.2,684.3,1897.5,684.3z"/>
<g>
	<g>
		<path class="st1" d="M1365.2,350.8L1365.2,350.8c0-0.8,0-1.6,0-2.4v-15.9h3v22.6h-3.5l-7.1-16.3c-0.5-1.2-1-2.7-1-2.7h-0.1
			c0.1,0.6,0.1,1.3,0.1,1.9v17h-3v-22.6h3.9l6.7,15.4C1364.7,349.3,1365,350.4,1365.2,350.8z"/>
		<path class="st1" d="M1371.2,347.1c0-5.1,3-8.4,7.4-8.4c4.5,0,7.4,3.3,7.4,8.4s-3,8.4-7.4,8.4
			C1374.2,355.5,1371.2,352.1,1371.2,347.1z M1383.2,347.1c0-3.7-1.7-6-4.6-6s-4.6,2.2-4.6,6s1.7,6,4.6,6S1383.2,350.9,1383.2,347.1
			z"/>
		<path class="st1" d="M1390.4,339.2l1.6,10.9l0.3,2.3h0.2c0.1-0.7,0.2-1.2,0.5-2.7l2.1-10.5h2.8l2.1,10.5c0.3,1.4,0.4,1.9,0.5,2.7
			h0.2l0.3-2.3l1.6-10.9h2.8l-3.1,15.9h-3.4l-2.1-10.3c-0.1-0.6-0.3-2-0.3-2.6h-0.2c0,0.6-0.2,2-0.3,2.6l-2.1,10.3h-3.4l-3.1-15.9
			H1390.4z"/>
		<path class="st1" d="M1433.7,334.9v17.9h5.7v2.4h-14.3v-2.4h5.6v-17.9h-5.6v-2.4h14.3v2.4H1433.7z"/>
		<path class="st1" d="M1469.1,338.8c1.3,0,2.8,0.4,3.9,1.4c1,1,1.6,2.5,1.6,5.1v9.9h-2.7v-9.7c0-3.5-1.8-4.2-3.4-4.2
			c-3.5,0-4.3,3.3-4.3,5.6v8.3h-2.7V332h2.7v10.1C1464.8,340.2,1466.8,338.8,1469.1,338.8z"/>
		<path class="st1" d="M1492.4,355.1h-2.8c-0.1-0.9-0.2-1.9-0.3-2.9c-1.1,2.2-2.8,3.3-5.4,3.3c-3.2,0-5.4-1.9-5.4-4.7
			c0-1.7,0.8-2.9,2.2-3.8c1.1-0.6,2.8-1,5.4-1.3l2.9-0.4v-0.3c0-2.8-1.1-4.1-3.4-4.1c-2.3,0-3.6,1.1-3.7,3.2h-2.9
			c0.3-3.4,2.8-5.4,6.8-5.4c4.1,0,6,2,6,6.6v4.3C1491.8,352.3,1492,353.9,1492.4,355.1z M1485.3,347.9c-2.8,0.4-3.9,1.2-3.9,2.8
			c0,1.6,1.1,2.6,3,2.6c2.9,0,4.7-2,4.7-5.1v-0.8L1485.3,347.9z"/>
		<path class="st1" d="M1495.8,339.2h2.8l4.2,10.9c0.3,0.8,0.6,1.6,0.8,2.3h0.1c0.2-0.7,0.4-1.5,0.7-2.3l4.3-10.9h2.8l-6.4,15.9
			h-2.9L1495.8,339.2z"/>
		<path class="st1" d="M1528.2,347.8H1517c0,3,1.7,5.3,4.7,5.3c2.1,0,3.4-1.3,4.2-2.8l2.3,1.2c-1.3,2.6-3.5,4-6.5,4
			c-5,0-7.5-3.4-7.5-8.7c0-4.9,2.8-8,7.3-8c4.9,0,6.8,3.5,6.8,7.8C1528.2,347,1528.2,347.4,1528.2,347.8z M1521.3,340.9
			c-2.9,0-4.4,2.4-4.4,4.7h8.5C1525.5,343.1,1524.2,340.9,1521.3,340.9z"/>
		<path class="st1" d="M1550.7,350.2l2.7-0.5c0.4,2.3,1.9,3.5,4.3,3.5c2.1,0,3.3-0.9,3.3-2.4c0-1.6-0.8-2.3-2.6-2.5l-2.6-0.3
			c-3.2-0.4-4.7-2.1-4.7-4.6c0-2.9,2.3-4.7,6.1-4.7c3.6,0,6.1,1.9,6.4,4.8l-2.7,0.6c-0.4-1.9-1.7-3.3-3.8-3.3
			c-2.1,0-3.3,0.9-3.3,2.4c0,1.4,0.9,2.2,2.9,2.4l2.6,0.3c3.2,0.4,4.4,2,4.4,4.5c0,3-2.2,4.9-6.1,4.9
			C1553.8,355.5,1551.3,353.6,1550.7,350.2z"/>
		<path class="st1" d="M1581.7,347.8h-11.2c0,3,1.7,5.3,4.7,5.3c2.1,0,3.4-1.3,4.2-2.8l2.3,1.2c-1.3,2.6-3.5,4-6.5,4
			c-5,0-7.5-3.4-7.5-8.7c0-4.9,2.8-8,7.3-8c4.9,0,6.8,3.5,6.8,7.8C1581.8,347,1581.8,347.4,1581.7,347.8z M1574.9,340.9
			c-2.9,0-4.4,2.4-4.4,4.7h8.5C1579,343.1,1577.8,340.9,1574.9,340.9z"/>
		<path class="st1" d="M1599.6,347.8h-11.2c0,3,1.7,5.3,4.7,5.3c2.1,0,3.4-1.3,4.2-2.8l2.3,1.2c-1.3,2.6-3.5,4-6.5,4
			c-5,0-7.5-3.4-7.5-8.7c0-4.9,2.8-8,7.3-8c4.9,0,6.8,3.5,6.8,7.8C1599.6,347,1599.6,347.4,1599.6,347.8z M1592.8,340.9
			c-2.9,0-4.4,2.4-4.4,4.7h8.5C1596.9,343.1,1595.6,340.9,1592.8,340.9z"/>
		<path class="st1" d="M1612,338.8c1.3,0,2.8,0.4,3.9,1.4c1.1,1,1.5,2.5,1.5,5.1v9.9h-2.7v-9.7c0-3.5-1.7-4.2-3.3-4.2
			c-3.6,0-4.5,3.3-4.5,5.6v8.3h-2.7v-15.9h2.6v3.2C1607.6,340.3,1609.3,338.8,1612,338.8z"/>
		<path class="st1" d="M1647.6,338.8c1.3,0,2.8,0.4,3.9,1.4c1,1,1.6,2.5,1.6,5.1v9.9h-2.7v-9.7c0-3.5-1.8-4.2-3.4-4.2
			c-3.5,0-4.3,3.3-4.3,5.6v8.3h-2.7V332h2.7v10.1C1643.4,340.2,1645.3,338.8,1647.6,338.8z"/>
		<path class="st1" d="M1656.9,347.1c0-5.1,3-8.4,7.4-8.4c4.5,0,7.4,3.3,7.4,8.4s-3,8.4-7.4,8.4
			C1659.9,355.5,1656.9,352.1,1656.9,347.1z M1668.9,347.1c0-3.7-1.7-6-4.6-6s-4.6,2.2-4.6,6s1.7,6,4.6,6S1668.9,350.9,1668.9,347.1
			z"/>
		<path class="st1" d="M1676.1,339.2l1.6,10.9l0.3,2.3h0.2c0.1-0.7,0.2-1.2,0.5-2.7l2.1-10.5h2.8l2.1,10.5c0.3,1.4,0.4,1.9,0.5,2.7
			h0.2l0.3-2.3l1.6-10.9h2.8l-3.1,15.9h-3.4l-2.1-10.3c-0.1-0.6-0.3-2-0.3-2.6h-0.2c0,0.6-0.2,2-0.3,2.6l-2.1,10.3h-3.4l-3.1-15.9
			H1676.1z"/>
		<path class="st1" d="M1711.8,339.2l1.6,10.9l0.3,2.3h0.2c0.1-0.7,0.2-1.2,0.5-2.7l2.1-10.5h2.8l2.1,10.5c0.3,1.4,0.4,1.9,0.5,2.7
			h0.2l0.3-2.3l1.6-10.9h2.8l-3.1,15.9h-3.4l-2.1-10.3c-0.1-0.6-0.3-2-0.3-2.6h-0.2c0,0.6-0.2,2-0.3,2.6l-2.1,10.3h-3.4l-3.1-15.9
			H1711.8z"/>
		<path class="st1" d="M1742.4,347.8h-11.2c0,3,1.7,5.3,4.7,5.3c2.1,0,3.4-1.3,4.2-2.8l2.3,1.2c-1.3,2.6-3.5,4-6.5,4
			c-5,0-7.5-3.4-7.5-8.7c0-4.9,2.8-8,7.3-8c4.9,0,6.8,3.5,6.8,7.8C1742.5,347,1742.5,347.4,1742.4,347.8z M1735.6,340.9
			c-2.9,0-4.4,2.4-4.4,4.7h8.5C1739.8,343.1,1738.5,340.9,1735.6,340.9z"/>
		<path class="st1" d="M1778.8,355.1h-3v-10.3h-8.7v10.3h-3v-22.6h3v9.8h8.7v-9.8h3V355.1z"/>
		<path class="st1" d="M1788.2,355.5c-1.5,0-3-0.4-4.1-1.4c-1-1-1.5-2.5-1.5-5.1v-9.9h2.8v9.8c0,3.5,1.7,4.2,3.3,4.2
			c3.3,0,4.1-3.3,4.1-5.7v-8.3h2.7v15.9h-2.6v-3C1792.5,353.7,1790.6,355.5,1788.2,355.5z"/>
		<path class="st1" d="M1804.8,338.8c1.6,0,2.8,1.1,3.3,2.9c0.8-1.8,2.2-2.9,3.8-2.9c2,0,3.8,1.4,3.8,4.8v11.6h-2.7v-11.4
			c0-2-1-2.6-1.9-2.6c-1.9,0-2.6,1.4-2.6,3.4v10.6h-2.6v-11.4c0-1.9-0.9-2.6-1.9-2.6c-1.9,0-2.5,1.5-2.5,3.4v10.6h-2.7v-15.9h2.6
			v2.5C1802,339.9,1803.2,338.8,1804.8,338.8z"/>
		<path class="st1" d="M1831.6,355.1h-2.8c-0.1-0.9-0.2-1.9-0.3-2.9c-1.1,2.2-2.8,3.3-5.4,3.3c-3.2,0-5.4-1.9-5.4-4.7
			c0-1.7,0.8-2.9,2.2-3.8c1.1-0.6,2.8-1,5.4-1.3l2.9-0.4v-0.3c0-2.8-1.1-4.1-3.4-4.1c-2.3,0-3.6,1.1-3.7,3.2h-2.9
			c0.3-3.4,2.8-5.4,6.8-5.4c4.1,0,6,2,6,6.6v4.3C1831.1,352.3,1831.3,353.9,1831.6,355.1z M1824.6,347.9c-2.8,0.4-3.9,1.2-3.9,2.8
			c0,1.6,1.1,2.6,3,2.6c2.9,0,4.7-2,4.7-5.1v-0.8L1824.6,347.9z"/>
		<path class="st1" d="M1844.1,338.8c1.3,0,2.8,0.4,3.9,1.4c1.1,1,1.5,2.5,1.5,5.1v9.9h-2.7v-9.7c0-3.5-1.7-4.2-3.3-4.2
			c-3.6,0-4.5,3.3-4.5,5.6v8.3h-2.7v-15.9h2.6v3.2C1839.7,340.3,1841.5,338.8,1844.1,338.8z"/>
		<path class="st1" d="M1854.3,350.2l2.7-0.5c0.4,2.3,1.9,3.5,4.3,3.5c2.1,0,3.3-0.9,3.3-2.4c0-1.6-0.8-2.3-2.6-2.5l-2.6-0.3
			c-3.2-0.4-4.7-2.1-4.7-4.6c0-2.9,2.3-4.7,6.1-4.7c3.6,0,6.1,1.9,6.4,4.8l-2.7,0.6c-0.4-1.9-1.7-3.3-3.8-3.3
			c-2.1,0-3.3,0.9-3.3,2.4c0,1.4,0.9,2.2,2.9,2.4l2.6,0.3c3.2,0.4,4.4,2,4.4,4.5c0,3-2.2,4.9-6.1,4.9
			C1857.4,355.5,1854.9,353.6,1854.3,350.2z"/>
		<path class="st1" d="M1353.4,389.8c0-5.1,3-8.4,7.4-8.4c4.5,0,7.4,3.3,7.4,8.4s-3,8.4-7.4,8.4
			C1356.3,398.2,1353.4,394.8,1353.4,389.8z M1365.4,389.8c0-3.7-1.7-6-4.6-6c-2.9,0-4.6,2.2-4.6,6s1.7,6,4.6,6
			C1363.7,395.8,1365.4,393.6,1365.4,389.8z"/>
		<path class="st1" d="M1385.3,384h-6.1v13.7h-2.7V384h-4.9v-2.2h4.9v-1.8c0-3.6,2-5.5,6-5.5c0.9,0,1.7,0.1,2.8,0.3v2.4
			c-0.7-0.1-1.6-0.3-2.8-0.3c-2.4,0-3.3,0.8-3.3,3.3v1.6h6.1V384z"/>
		<path class="st1" d="M1422,377.7h-10.9v7.2h10v2.6h-10v10.3h-3v-22.6h13.9V377.7z"/>
		<path class="st1" d="M1426.3,395.6h5.1v-18.7h-4.8v-2.2h7.5v20.9h5.4v2.2h-13.2V395.6z"/>
		<path class="st1" d="M1456.7,397.8h-2.8c-0.1-0.9-0.2-1.9-0.3-2.9c-1.1,2.2-2.8,3.3-5.4,3.3c-3.2,0-5.4-1.9-5.4-4.7
			c0-1.7,0.8-2.9,2.2-3.8c1.1-0.6,2.8-1,5.4-1.3l2.9-0.4v-0.3c0-2.8-1.1-4.1-3.4-4.1c-2.3,0-3.6,1.1-3.7,3.2h-2.9
			c0.3-3.4,2.8-5.4,6.8-5.4c4.1,0,6,2,6,6.6v4.3C1456.1,394.9,1456.3,396.6,1456.7,397.8z M1449.6,390.5c-2.8,0.4-3.9,1.2-3.9,2.8
			c0,1.6,1.1,2.6,3,2.6c2.9,0,4.7-2,4.7-5.1V390L1449.6,390.5z"/>
		<path class="st1" d="M1460.9,381.8h4.6v-4.2l2.7-1.1v5.3h6.2v2.2h-6.2v8.3c0,2.1,1,3.2,3.1,3.2c1.1,0,2.2-0.1,3.2-0.3v2.5
			c-0.8,0.2-1.7,0.4-3.1,0.4c-4,0-5.8-2.2-5.8-5.4V384h-4.6V381.8z"/>
		<path class="st1" d="M1510.2,397.8h-2.8c-0.1-0.9-0.2-1.9-0.3-2.9c-1.1,2.2-2.8,3.3-5.4,3.3c-3.2,0-5.4-1.9-5.4-4.7
			c0-1.7,0.8-2.9,2.2-3.8c1.1-0.6,2.8-1,5.4-1.3l2.9-0.4v-0.3c0-2.8-1.1-4.1-3.4-4.1c-2.3,0-3.6,1.1-3.7,3.2h-2.9
			c0.3-3.4,2.8-5.4,6.8-5.4c4.1,0,6,2,6,6.6v4.3C1509.7,394.9,1509.9,396.6,1510.2,397.8z M1503.2,390.5c-2.8,0.4-3.9,1.2-3.9,2.8
			c0,1.6,1.1,2.6,3,2.6c2.9,0,4.7-2,4.7-5.1V390L1503.2,390.5z"/>
		<path class="st1" d="M1525.8,381.5c1.1,0,2.2,0.1,2.9,0.3v2.5c-0.6-0.2-1.8-0.3-3-0.3c-3.8,0-6.9,2.6-6.9,7.8v5.9h-2.7v-15.9h2.7
			v4.1C1519.9,383.5,1522.5,381.5,1525.8,381.5z"/>
		<path class="st1" d="M1546,390.5h-11.2c0,3,1.7,5.3,4.7,5.3c2.1,0,3.4-1.3,4.2-2.8l2.3,1.2c-1.3,2.6-3.5,4-6.5,4
			c-5,0-7.5-3.4-7.5-8.7c0-4.9,2.8-8,7.3-8c4.9,0,6.8,3.5,6.8,7.8C1546.1,389.7,1546,390.1,1546,390.5z M1539.2,383.6
			c-2.9,0-4.4,2.4-4.4,4.7h8.5C1543.3,385.7,1542.1,383.6,1539.2,383.6z"/>
		<path class="st1" d="M1571.5,384.6c0.9-1.8,2.8-3.2,4.9-3.2c4.1,0,6.6,3.5,6.6,8.3c0,5-2.5,8.4-6.7,8.4c-2.1,0-4.1-1.2-5-3.1
			l-0.5,2.7h-2.1v-23.1h2.7V384.6z M1575.7,395.8c2.8,0,4.4-2.4,4.4-6c0-3.5-1.6-5.9-4.4-5.9c-2.7,0-4.3,2.1-4.3,5.6v0.8
			C1571.4,393.6,1573,395.8,1575.7,395.8z"/>
		<path class="st1" d="M1599.6,390.5h-11.2c0,3,1.7,5.3,4.7,5.3c2.1,0,3.4-1.3,4.2-2.8l2.3,1.2c-1.3,2.6-3.5,4-6.5,4
			c-5,0-7.5-3.4-7.5-8.7c0-4.9,2.8-8,7.3-8c4.9,0,6.8,3.5,6.8,7.8C1599.6,389.7,1599.6,390.1,1599.6,390.5z M1592.8,383.6
			c-2.9,0-4.4,2.4-4.4,4.7h8.5C1596.9,385.7,1595.6,383.6,1592.8,383.6z"/>
		<path class="st1" d="M1604.9,395.6h5.1v-11.5h-4.6v-2.2h7.3v13.7h5.4v2.2h-13.2V395.6z M1613,378.6h-3.8v-3.8h3.8V378.6z"/>
		<path class="st1" d="M1629.9,381.5c1.3,0,2.8,0.4,3.9,1.4c1.1,1,1.5,2.5,1.5,5.1v9.9h-2.7v-9.7c0-3.5-1.7-4.2-3.3-4.2
			c-3.6,0-4.5,3.3-4.5,5.6v8.3h-2.7v-15.9h2.6v3.2C1625.4,383,1627.2,381.5,1629.9,381.5z"/>
		<path class="st1" d="M1650.9,383.1c0.9,0.9,1.4,2.2,1.4,3.7c0,3.3-2.4,5.5-6,5.5c-1.1,0-2.1-0.2-3-0.6c-0.7,0.3-1.1,0.9-1.1,1.6
			c0,1,0.8,1.6,2.6,1.6h4.1c3.3,0,5.2,1.6,5.2,4.3c0,3.3-2.9,5.2-7.9,5.2c-4.5,0-7.2-1.6-7.2-4.1c0-1.7,1.1-3,2.8-3.6
			c-1.3-0.5-2-1.5-2-2.8c0-1.5,0.8-2.6,2.3-3.1c-1-0.9-1.6-2.3-1.6-3.9c0-3.3,2.4-5.5,5.9-5.5c1.2,0,2.2,0.3,3.1,0.7
			c0.6-1.9,1.9-2.9,3.9-2.9c0.4,0,0.7,0,1,0.1v2.4c-0.5-0.1-0.8-0.1-1.2-0.1C1652.1,381.6,1651.4,382.1,1650.9,383.1z M1644.9,397.2
			c-0.5,0-0.9,0-1.3-0.1c-1.1,0.5-1.7,1.3-1.7,2.4c0,1.7,1.6,2.6,4.8,2.6c3.4,0,4.9-1,4.9-2.7c0-1.4-1-2.2-3.1-2.2H1644.9z
			 M1649.8,386.8c0-1.9-1.4-3.3-3.3-3.3c-2,0-3.3,1.4-3.3,3.4c0,1.9,1.3,3.3,3.3,3.3C1648.4,390.2,1649.8,388.8,1649.8,386.8z"/>
		<path class="st1" d="M1681.1,398.2c-1.5,0-3-0.4-4.1-1.4c-1-1-1.5-2.5-1.5-5.1v-9.9h2.8v9.8c0,3.5,1.7,4.2,3.3,4.2
			c3.3,0,4.1-3.3,4.1-5.7v-8.3h2.7v15.9h-2.6v-3C1685.4,396.3,1683.5,398.2,1681.1,398.2z"/>
		<path class="st1" d="M1693.6,392.9l2.7-0.5c0.4,2.3,1.9,3.5,4.3,3.5c2.1,0,3.3-0.9,3.3-2.4c0-1.6-0.8-2.3-2.6-2.5l-2.6-0.3
			c-3.2-0.4-4.7-2.1-4.7-4.6c0-2.9,2.3-4.7,6.1-4.7c3.6,0,6.1,1.9,6.4,4.8l-2.7,0.6c-0.4-1.9-1.7-3.3-3.8-3.3
			c-2.1,0-3.3,0.9-3.3,2.4c0,1.4,0.9,2.2,2.9,2.4l2.6,0.3c3.2,0.4,4.4,2,4.4,4.5c0,3-2.2,4.9-6.1,4.9
			C1696.7,398.2,1694.2,396.3,1693.6,392.9z"/>
		<path class="st1" d="M1724.6,390.5h-11.2c0,3,1.7,5.3,4.7,5.3c2.1,0,3.4-1.3,4.2-2.8l2.3,1.2c-1.3,2.6-3.5,4-6.5,4
			c-5,0-7.5-3.4-7.5-8.7c0-4.9,2.8-8,7.3-8c4.9,0,6.8,3.5,6.8,7.8C1724.6,389.7,1724.6,390.1,1724.6,390.5z M1717.7,383.6
			c-2.9,0-4.4,2.4-4.4,4.7h8.5C1721.9,385.7,1720.6,383.6,1717.7,383.6z"/>
		<path class="st1" d="M1742,374.7v23.1h-2.6v-3c-1,2.1-2.5,3.3-5.1,3.3c-4,0-6.6-3.3-6.6-8.4c0-5,2.8-8.3,7-8.3
			c2.2,0,3.7,1.2,4.5,2.7v-9.5H1742z M1735,383.8c-2.7,0-4.4,2.2-4.4,5.9c0,3.7,1.6,6,4.3,6c2.7,0,4.4-2.2,4.4-5.6v-0.7
			C1739.3,386,1737.6,383.8,1735,383.8z"/>
		<path class="st1" d="M1778.1,397.8h-2.8c-0.1-0.9-0.2-1.9-0.3-2.9c-1.1,2.2-2.8,3.3-5.4,3.3c-3.2,0-5.4-1.9-5.4-4.7
			c0-1.7,0.8-2.9,2.2-3.8c1.1-0.6,2.8-1,5.4-1.3l2.9-0.4v-0.3c0-2.8-1.1-4.1-3.4-4.1c-2.3,0-3.6,1.1-3.7,3.2h-2.9
			c0.3-3.4,2.8-5.4,6.8-5.4c4.1,0,6,2,6,6.6v4.3C1777.5,394.9,1777.7,396.6,1778.1,397.8z M1771,390.5c-2.8,0.4-3.9,1.2-3.9,2.8
			c0,1.6,1.1,2.6,3,2.6c2.9,0,4.7-2,4.7-5.1V390L1771,390.5z"/>
		<path class="st1" d="M1790.6,381.5c1.3,0,2.8,0.4,3.9,1.4c1.1,1,1.5,2.5,1.5,5.1v9.9h-2.7v-9.7c0-3.5-1.7-4.2-3.3-4.2
			c-3.6,0-4.5,3.3-4.5,5.6v8.3h-2.7v-15.9h2.6v3.2C1786.1,383,1787.9,381.5,1790.6,381.5z"/>
		<path class="st1" d="M1813.4,374.7v23.1h-2.6v-3c-1,2.1-2.5,3.3-5.1,3.3c-4,0-6.6-3.3-6.6-8.4c0-5,2.8-8.3,7-8.3
			c2.2,0,3.7,1.2,4.5,2.7v-9.5H1813.4z M1806.4,383.8c-2.7,0-4.4,2.2-4.4,5.9c0,3.7,1.6,6,4.3,6c2.7,0,4.4-2.2,4.4-5.6v-0.7
			C1810.7,386,1809.1,383.8,1806.4,383.8z"/>
		<path class="st1" d="M1840.5,381.5c1.6,0,2.8,1.1,3.3,2.9c0.8-1.8,2.2-2.9,3.8-2.9c2,0,3.8,1.4,3.8,4.8v11.6h-2.7v-11.4
			c0-2-1-2.6-1.9-2.6c-1.9,0-2.6,1.4-2.6,3.4v10.6h-2.6v-11.4c0-1.9-0.9-2.6-1.9-2.6c-1.9,0-2.5,1.5-2.5,3.4v10.6h-2.7v-15.9h2.6
			v2.5C1837.7,382.6,1838.9,381.5,1840.5,381.5z"/>
		<path class="st1" d="M1867.4,397.8h-2.8c-0.1-0.9-0.2-1.9-0.3-2.9c-1.1,2.2-2.8,3.3-5.4,3.3c-3.2,0-5.4-1.9-5.4-4.7
			c0-1.7,0.8-2.9,2.2-3.8c1.1-0.6,2.8-1,5.4-1.3l2.9-0.4v-0.3c0-2.8-1.1-4.1-3.4-4.1c-2.3,0-3.6,1.1-3.7,3.2h-2.9
			c0.3-3.4,2.8-5.4,6.8-5.4c4.1,0,6,2,6,6.6v4.3C1866.8,394.9,1867,396.6,1867.4,397.8z M1860.3,390.5c-2.8,0.4-3.9,1.2-3.9,2.8
			c0,1.6,1.1,2.6,3,2.6c2.9,0,4.7-2,4.7-5.1V390L1860.3,390.5z"/>
		<path class="st1" d="M1883.2,387.6v2.6h-9.2v-2.6H1883.2z"/>
		<path class="st1" d="M1362,424.1c1.3,0,2.8,0.4,3.9,1.4c1.1,1,1.5,2.5,1.5,5.1v9.9h-2.7v-9.7c0-3.5-1.7-4.2-3.3-4.2
			c-3.6,0-4.5,3.3-4.5,5.6v8.3h-2.7v-15.9h2.6v3.2C1357.6,425.7,1359.3,424.1,1362,424.1z"/>
		<path class="st1" d="M1372.8,438.2h5.1v-11.5h-4.6v-2.2h7.3v13.7h5.4v2.2h-13.2V438.2z M1380.9,421.3h-3.8v-3.8h3.8V421.3z"/>
		<path class="st1" d="M1392.8,427.5c0.8-1.8,2.7-3.3,5-3.3c4.2,0,6.6,3.5,6.6,8.3c0,5-2.6,8.4-6.8,8.4c-2,0-4-1.2-4.7-2.9v8.7h-2.7
			v-22.2h2.6V427.5z M1397.2,438.5c2.8,0,4.4-2.4,4.4-6c0-3.5-1.5-5.9-4.3-5.9c-2.7,0-4.4,2.1-4.4,5.5v0.8
			C1392.9,436.2,1394.5,438.5,1397.2,438.5z"/>
		<path class="st1" d="M1413.3,440.8c-1.5,0-3-0.4-4.1-1.4c-1-1-1.5-2.5-1.5-5.1v-9.9h2.8v9.8c0,3.5,1.7,4.2,3.3,4.2
			c3.3,0,4.1-3.3,4.1-5.7v-8.3h2.7v15.9h-2.6v-3C1417.5,439,1415.6,440.8,1413.3,440.8z"/>
		<path class="st1" d="M1426.3,438.2h5.1v-18.7h-4.8v-2.2h7.5v20.9h5.4v2.2h-13.2V438.2z"/>
		<path class="st1" d="M1456.7,440.5h-2.8c-0.1-0.9-0.2-1.9-0.3-2.9c-1.1,2.2-2.8,3.3-5.4,3.3c-3.2,0-5.4-1.9-5.4-4.7
			c0-1.7,0.8-2.9,2.2-3.8c1.1-0.6,2.8-1,5.4-1.3l2.9-0.4v-0.3c0-2.8-1.1-4.1-3.4-4.1c-2.3,0-3.6,1.1-3.7,3.2h-2.9
			c0.3-3.4,2.8-5.4,6.8-5.4c4.1,0,6,2,6,6.6v4.3C1456.1,437.6,1456.3,439.3,1456.7,440.5z M1449.6,433.2c-2.8,0.4-3.9,1.2-3.9,2.8
			c0,1.6,1.1,2.6,3,2.6c2.9,0,4.7-2,4.7-5.1v-0.8L1449.6,433.2z"/>
		<path class="st1" d="M1460.9,424.5h4.6v-4.2l2.7-1.1v5.3h6.2v2.2h-6.2v8.3c0,2.1,1,3.2,3.1,3.2c1.1,0,2.2-0.1,3.2-0.3v2.5
			c-0.8,0.2-1.7,0.4-3.1,0.4c-4,0-5.8-2.2-5.8-5.4v-8.6h-4.6V424.5z"/>
		<path class="st1" d="M1492.4,433.2h-11.2c0,3,1.7,5.3,4.7,5.3c2.1,0,3.4-1.3,4.2-2.8l2.3,1.2c-1.3,2.6-3.5,4-6.5,4
			c-5,0-7.5-3.4-7.5-8.7c0-4.9,2.8-8,7.3-8c4.9,0,6.8,3.5,6.8,7.8C1492.5,432.4,1492.5,432.8,1492.4,433.2z M1485.6,426.2
			c-2.9,0-4.4,2.4-4.4,4.7h8.5C1489.8,428.4,1488.5,426.2,1485.6,426.2z"/>
		<path class="st1" d="M1509.8,417.3v23.1h-2.6v-3c-1,2.1-2.5,3.3-5.1,3.3c-4,0-6.6-3.3-6.6-8.4c0-5,2.8-8.3,7-8.3
			c2.2,0,3.7,1.2,4.5,2.7v-9.5H1509.8z M1502.9,426.5c-2.7,0-4.4,2.2-4.4,5.9c0,3.7,1.6,6,4.3,6c2.7,0,4.4-2.2,4.4-5.6v-0.7
			C1507.2,428.7,1505.5,426.5,1502.9,426.5z"/>
		<path class="st1" d="M1533.5,438.2h5.1v-11.5h-4.6v-2.2h7.3v13.7h5.4v2.2h-13.2V438.2z M1541.6,421.3h-3.8v-3.8h3.8V421.3z"/>
		<path class="st1" d="M1558.4,424.1c1.3,0,2.8,0.4,3.9,1.4c1.1,1,1.5,2.5,1.5,5.1v9.9h-2.7v-9.7c0-3.5-1.7-4.2-3.3-4.2
			c-3.6,0-4.5,3.3-4.5,5.6v8.3h-2.7v-15.9h2.6v3.2C1554,425.7,1555.8,424.1,1558.4,424.1z"/>
		<path class="st1" d="M1585.9,424.5h4.6v-4.2l2.7-1.1v5.3h6.2v2.2h-6.2v8.3c0,2.1,1,3.2,3.1,3.2c1.1,0,2.2-0.1,3.2-0.3v2.5
			c-0.8,0.2-1.7,0.4-3.1,0.4c-4,0-5.8-2.2-5.8-5.4v-8.6h-4.6V424.5z"/>
		<path class="st1" d="M1611.9,424.1c1.3,0,2.8,0.4,3.9,1.4c1,1,1.6,2.5,1.6,5.1v9.9h-2.7v-9.7c0-3.5-1.8-4.2-3.4-4.2
			c-3.5,0-4.3,3.3-4.3,5.6v8.3h-2.7v-23.1h2.7v10.1C1607.6,425.5,1609.6,424.1,1611.9,424.1z"/>
		<path class="st1" d="M1635.3,433.2h-11.2c0,3,1.7,5.3,4.7,5.3c2.1,0,3.4-1.3,4.2-2.8l2.3,1.2c-1.3,2.6-3.5,4-6.5,4
			c-5,0-7.5-3.4-7.5-8.7c0-4.9,2.8-8,7.3-8c4.9,0,6.8,3.5,6.8,7.8C1635.4,432.4,1635.3,432.8,1635.3,433.2z M1628.5,426.2
			c-2.9,0-4.4,2.4-4.4,4.7h8.5C1632.6,428.4,1631.3,426.2,1628.5,426.2z"/>
		<path class="st1" d="M1668.6,424.2c1.1,0,2.2,0.1,2.9,0.3v2.5c-0.6-0.2-1.8-0.3-3-0.3c-3.8,0-6.9,2.6-6.9,7.8v5.9h-2.7v-15.9h2.7
			v4.1C1662.7,426.1,1665.3,424.2,1668.6,424.2z"/>
		<path class="st1" d="M1688.9,433.2h-11.2c0,3,1.7,5.3,4.7,5.3c2.1,0,3.4-1.3,4.2-2.8l2.3,1.2c-1.3,2.6-3.5,4-6.5,4
			c-5,0-7.5-3.4-7.5-8.7c0-4.9,2.8-8,7.3-8c4.9,0,6.8,3.5,6.8,7.8C1688.9,432.4,1688.9,432.8,1688.9,433.2z M1682,426.2
			c-2.9,0-4.4,2.4-4.4,4.7h8.5C1686.2,428.4,1684.9,426.2,1682,426.2z"/>
		<path class="st1" d="M1706.7,440.5h-2.8c-0.1-0.9-0.2-1.9-0.3-2.9c-1.1,2.2-2.8,3.3-5.4,3.3c-3.2,0-5.4-1.9-5.4-4.7
			c0-1.7,0.8-2.9,2.2-3.8c1.1-0.6,2.8-1,5.4-1.3l2.9-0.4v-0.3c0-2.8-1.1-4.1-3.4-4.1c-2.3,0-3.6,1.1-3.7,3.2h-2.9
			c0.3-3.4,2.8-5.4,6.8-5.4c4.1,0,6,2,6,6.6v4.3C1706.1,437.6,1706.3,439.3,1706.7,440.5z M1699.6,433.2c-2.8,0.4-3.9,1.2-3.9,2.8
			c0,1.6,1.1,2.6,3,2.6c2.9,0,4.7-2,4.7-5.1v-0.8L1699.6,433.2z"/>
		<path class="st1" d="M1712,438.2h5.1v-18.7h-4.8v-2.2h7.5v20.9h5.4v2.2H1712V438.2z"/>
		<path class="st1" d="M1747.5,424.5l1.6,10.9l0.3,2.3h0.2c0.1-0.7,0.2-1.2,0.5-2.7l2.1-10.5h2.8l2.1,10.5c0.3,1.4,0.4,1.9,0.5,2.7
			h0.2l0.3-2.3l1.6-10.9h2.8l-3.1,15.9h-3.4l-2.1-10.3c-0.1-0.6-0.3-2-0.3-2.6h-0.2c0,0.6-0.2,2-0.3,2.6l-2.1,10.3h-3.4l-3.1-15.9
			H1747.5z"/>
		<path class="st1" d="M1764.1,432.5c0-5.1,3-8.4,7.4-8.4c4.5,0,7.4,3.3,7.4,8.4s-3,8.4-7.4,8.4
			C1767,440.8,1764.1,437.5,1764.1,432.5z M1776.1,432.5c0-3.7-1.7-6-4.6-6s-4.6,2.2-4.6,6s1.7,6,4.6,6S1776.1,436.3,1776.1,432.5z"
			/>
		<path class="st1" d="M1793.6,424.2c1.1,0,2.2,0.1,2.9,0.3v2.5c-0.6-0.2-1.8-0.3-3-0.3c-3.8,0-6.9,2.6-6.9,7.8v5.9h-2.7v-15.9h2.7
			v4.1C1787.7,426.1,1790.3,424.2,1793.6,424.2z"/>
		<path class="st1" d="M1801.3,438.2h5.1v-18.7h-4.8v-2.2h7.5v20.9h5.4v2.2h-13.2V438.2z"/>
		<path class="st1" d="M1831.2,417.3v23.1h-2.6v-3c-1,2.1-2.5,3.3-5.1,3.3c-4,0-6.6-3.3-6.6-8.4c0-5,2.8-8.3,7-8.3
			c2.2,0,3.7,1.2,4.5,2.7v-9.5H1831.2z M1824.3,426.5c-2.7,0-4.4,2.2-4.4,5.9c0,3.7,1.6,6,4.3,6c2.7,0,4.4-2.2,4.4-5.6v-0.7
			C1828.6,428.7,1826.9,426.5,1824.3,426.5z"/>
		<path class="st1" d="M1845,440.5h-4.2v-4.1h4.2V440.5z M1841.3,417.8h3.2l-0.5,16.7h-2.2L1841.3,417.8z"/>
		<path class="st1" d="M1880.1,420.2v17.9h5.7v2.4h-14.3v-2.4h5.6v-17.9h-5.6v-2.4h14.3v2.4H1880.1z"/>
		<path class="st1" d="M1354.7,467.2l1.6,10.9l0.3,2.3h0.2c0.1-0.7,0.2-1.2,0.5-2.7l2.1-10.5h2.8l2.1,10.5c0.3,1.4,0.4,1.9,0.5,2.7
			h0.2l0.3-2.3l1.6-10.9h2.8l-3.1,15.9h-3.4l-2.1-10.3c-0.1-0.6-0.3-2-0.3-2.6h-0.2c0,0.6-0.2,2-0.3,2.6l-2.1,10.3h-3.4l-3.1-15.9
			H1354.7z"/>
		<path class="st1" d="M1372.8,480.9h5.1v-11.5h-4.6v-2.2h7.3v13.7h5.4v2.2h-13.2V480.9z M1380.9,464h-3.8v-3.8h3.8V464z"/>
		<path class="st1" d="M1390.6,480.9h5.1v-18.7h-4.8V460h7.5v20.9h5.4v2.2h-13.2V480.9z"/>
		<path class="st1" d="M1408.5,480.9h5.1v-18.7h-4.8V460h7.5v20.9h5.4v2.2h-13.2V480.9z"/>
		<path class="st1" d="M1451.3,466.8c1.3,0,2.8,0.4,3.9,1.4c1.1,1,1.5,2.5,1.5,5.1v9.9h-2.7v-9.7c0-3.5-1.7-4.2-3.3-4.2
			c-3.6,0-4.5,3.3-4.5,5.6v8.3h-2.7v-15.9h2.6v3.2C1446.9,468.3,1448.6,466.8,1451.3,466.8z"/>
		<path class="st1" d="M1460.5,475.2c0-5.1,3-8.4,7.4-8.4c4.5,0,7.4,3.3,7.4,8.4s-3,8.4-7.4,8.4
			C1463.5,483.5,1460.5,480.2,1460.5,475.2z M1472.5,475.2c0-3.7-1.7-6-4.6-6s-4.6,2.2-4.6,6s1.7,6,4.6,6S1472.5,478.9,1472.5,475.2
			z"/>
		<path class="st1" d="M1478.7,467.2h4.6V463l2.7-1.1v5.3h6.2v2.2h-6.2v8.3c0,2.1,1,3.2,3.1,3.2c1.1,0,2.2-0.1,3.2-0.3v2.5
			c-0.8,0.2-1.7,0.4-3.1,0.4c-4,0-5.8-2.2-5.8-5.4v-8.6h-4.6V467.2z"/>
		<path class="st1" d="M1528.1,483.1h-2.8c-0.1-0.9-0.2-1.9-0.3-2.9c-1.1,2.2-2.8,3.3-5.4,3.3c-3.2,0-5.4-1.9-5.4-4.7
			c0-1.7,0.8-2.9,2.2-3.8c1.1-0.6,2.8-1,5.4-1.3l2.9-0.4v-0.3c0-2.8-1.1-4.1-3.4-4.1c-2.3,0-3.6,1.1-3.7,3.2h-2.9
			c0.3-3.4,2.8-5.4,6.8-5.4c4.1,0,6,2,6,6.6v4.3C1527.5,480.3,1527.7,482,1528.1,483.1z M1521,475.9c-2.8,0.4-3.9,1.2-3.9,2.8
			c0,1.6,1.1,2.6,3,2.6c2.9,0,4.7-2,4.7-5.1v-0.8L1521,475.9z"/>
		<path class="st1" d="M1533.5,480.9h5.1v-18.7h-4.8V460h7.5v20.9h5.4v2.2h-13.2V480.9z"/>
		<path class="st1" d="M1551.3,480.9h5.1v-18.7h-4.8V460h7.5v20.9h5.4v2.2h-13.2V480.9z"/>
		<path class="st1" d="M1567.7,475.2c0-5.1,3-8.4,7.4-8.4c4.5,0,7.4,3.3,7.4,8.4s-3,8.4-7.4,8.4
			C1570.6,483.5,1567.7,480.2,1567.7,475.2z M1579.6,475.2c0-3.7-1.7-6-4.6-6s-4.6,2.2-4.6,6s1.7,6,4.6,6S1579.6,478.9,1579.6,475.2
			z"/>
		<path class="st1" d="M1586.8,467.2l1.6,10.9l0.3,2.3h0.2c0.1-0.7,0.2-1.2,0.5-2.7l2.1-10.5h2.8l2.1,10.5c0.3,1.4,0.4,1.9,0.5,2.7
			h0.2l0.3-2.3l1.6-10.9h2.8l-3.1,15.9h-3.4l-2.1-10.3c-0.1-0.6-0.3-2-0.3-2.6h-0.2c0,0.6-0.2,2-0.3,2.6l-2.1,10.3h-3.4l-3.1-15.9
			H1586.8z"/>
		<path class="st1" d="M1626.2,466.8c1.6,0,2.8,1.1,3.3,2.9c0.8-1.8,2.2-2.9,3.8-2.9c2,0,3.8,1.4,3.8,4.8v11.6h-2.7v-11.4
			c0-2-1-2.6-1.9-2.6c-1.9,0-2.6,1.4-2.6,3.4v10.6h-2.6v-11.4c0-1.9-0.9-2.6-1.9-2.6c-1.8,0-2.5,1.5-2.5,3.4v10.6h-2.7v-15.9h2.6
			v2.5C1623.4,467.9,1624.6,466.8,1626.2,466.8z"/>
		<path class="st1" d="M1646.8,480l4.4-12.8h2.9l-6.4,17c-1.5,4.1-3.4,5.4-6.1,5.4c-0.5,0-1,0-1.5-0.1V487c0.4,0,0.8,0.1,1.1,0.1
			c1.9,0,2.9-0.9,3.7-3l0.4-1.2l-6.2-15.8h3.1L1646.8,480z"/>
		<path class="st1" d="M1657.9,478.2l2.7-0.5c0.4,2.3,1.9,3.5,4.3,3.5c2.1,0,3.3-0.9,3.3-2.4c0-1.6-0.8-2.3-2.6-2.5l-2.6-0.3
			c-3.2-0.4-4.7-2.1-4.7-4.6c0-2.9,2.3-4.7,6.1-4.7c3.6,0,6.1,1.9,6.4,4.8l-2.7,0.6c-0.4-1.9-1.7-3.3-3.8-3.3
			c-2.1,0-3.3,0.9-3.3,2.4c0,1.4,0.9,2.2,2.9,2.4l2.6,0.3c3.2,0.4,4.4,2,4.4,4.5c0,3-2.2,4.9-6.1,4.9
			C1661,483.5,1658.4,481.6,1657.9,478.2z"/>
		<path class="st1" d="M1688.9,475.9h-11.2c0,3,1.7,5.3,4.7,5.3c2.1,0,3.4-1.3,4.2-2.8l2.3,1.2c-1.3,2.6-3.5,4-6.5,4
			c-5,0-7.5-3.4-7.5-8.7c0-4.9,2.8-8,7.3-8c4.9,0,6.8,3.5,6.8,7.8C1688.9,475,1688.9,475.5,1688.9,475.9z M1682,468.9
			c-2.9,0-4.4,2.4-4.4,4.7h8.5C1686.2,471.1,1684.9,468.9,1682,468.9z"/>
		<path class="st1" d="M1694.2,480.9h5.1v-18.7h-4.8V460h7.5v20.9h5.4v2.2h-13.2V480.9z"/>
		<path class="st1" d="M1724.6,469.4h-6.1v13.7h-2.7v-13.7h-4.9v-2.2h4.9v-1.8c0-3.6,2-5.5,6-5.5c0.9,0,1.7,0.1,2.8,0.3v2.4
			c-0.7-0.1-1.6-0.3-2.8-0.3c-2.4,0-3.3,0.8-3.3,3.3v1.6h6.1V469.4z"/>
		<path class="st1" d="M1746.6,467.2h4.6V463l2.7-1.1v5.3h6.2v2.2h-6.2v8.3c0,2.1,1,3.2,3.1,3.2c1.1,0,2.2-0.1,3.2-0.3v2.5
			c-0.8,0.2-1.7,0.4-3.1,0.4c-4,0-5.8-2.2-5.8-5.4v-8.6h-4.6V467.2z"/>
		<path class="st1" d="M1764.1,475.2c0-5.1,3-8.4,7.4-8.4c4.5,0,7.4,3.3,7.4,8.4s-3,8.4-7.4,8.4
			C1767,483.5,1764.1,480.2,1764.1,475.2z M1776.1,475.2c0-3.7-1.7-6-4.6-6s-4.6,2.2-4.6,6s1.7,6,4.6,6S1776.1,478.9,1776.1,475.2z"
			/>
		<path class="st1" d="M1803.6,470c0.9-1.8,2.8-3.2,4.9-3.2c4.1,0,6.6,3.5,6.6,8.3c0,5-2.5,8.4-6.7,8.4c-2.1,0-4.1-1.2-5-3.1
			l-0.5,2.7h-2.1V460h2.7V470z M1807.8,481.1c2.8,0,4.4-2.4,4.4-6c0-3.5-1.6-5.9-4.4-5.9c-2.7,0-4.3,2.1-4.3,5.6v0.8
			C1803.6,478.9,1805.1,481.1,1807.8,481.1z"/>
		<path class="st1" d="M1831.7,475.9h-11.2c0,3,1.7,5.3,4.7,5.3c2.1,0,3.4-1.3,4.2-2.8l2.3,1.2c-1.3,2.6-3.5,4-6.5,4
			c-5,0-7.5-3.4-7.5-8.7c0-4.9,2.8-8,7.3-8c4.9,0,6.8,3.5,6.8,7.8C1831.8,475,1831.7,475.5,1831.7,475.9z M1824.9,468.9
			c-2.9,0-4.4,2.4-4.4,4.7h8.5C1829,471.1,1827.8,468.9,1824.9,468.9z"/>
		<path class="st1" d="M1867.4,483.1h-2.8c-0.1-0.9-0.2-1.9-0.3-2.9c-1.1,2.2-2.8,3.3-5.4,3.3c-3.2,0-5.4-1.9-5.4-4.7
			c0-1.7,0.8-2.9,2.2-3.8c1.1-0.6,2.8-1,5.4-1.3l2.9-0.4v-0.3c0-2.8-1.1-4.1-3.4-4.1c-2.3,0-3.6,1.1-3.7,3.2h-2.9
			c0.3-3.4,2.8-5.4,6.8-5.4c4.1,0,6,2,6,6.6v4.3C1866.8,480.3,1867,482,1867.4,483.1z M1860.3,475.9c-2.8,0.4-3.9,1.2-3.9,2.8
			c0,1.6,1.1,2.6,3,2.6c2.9,0,4.7-2,4.7-5.1v-0.8L1860.3,475.9z"/>
		<path class="st1" d="M1353.7,509.9h4.6v-4.2l2.7-1.1v5.3h6.2v2.2h-6.2v8.3c0,2.1,1,3.2,3.1,3.2c1.1,0,2.2-0.1,3.2-0.3v2.5
			c-0.8,0.2-1.7,0.4-3.1,0.4c-4,0-5.8-2.2-5.8-5.4v-8.6h-4.6V509.9z"/>
		<path class="st1" d="M1371.2,517.8c0-5.1,3-8.4,7.4-8.4c4.5,0,7.4,3.3,7.4,8.4s-3,8.4-7.4,8.4
			C1374.2,526.2,1371.2,522.9,1371.2,517.8z M1383.2,517.8c0-3.7-1.7-6-4.6-6s-4.6,2.2-4.6,6s1.7,6,4.6,6S1383.2,521.6,1383.2,517.8
			z"/>
		<path class="st1" d="M1389.1,517.8c0-5.1,3-8.4,7.4-8.4c4.5,0,7.4,3.3,7.4,8.4s-3,8.4-7.4,8.4
			C1392.1,526.2,1389.1,522.9,1389.1,517.8z M1401.1,517.8c0-3.7-1.7-6-4.6-6c-2.9,0-4.6,2.2-4.6,6s1.7,6,4.6,6
			C1399.4,523.8,1401.1,521.6,1401.1,517.8z"/>
		<path class="st1" d="M1408.5,523.6h5.1v-18.7h-4.8v-2.2h7.5v20.9h5.4v2.2h-13.2V523.6z"/>
		<path class="st1" d="M1456.8,512.1h-6.1v13.7h-2.7v-13.7h-4.9v-2.2h4.9v-1.8c0-3.6,2-5.5,6-5.5c0.9,0,1.7,0.1,2.8,0.3v2.4
			c-0.7-0.1-1.6-0.3-2.8-0.3c-2.4,0-3.3,0.8-3.3,3.3v1.6h6.1V512.1z"/>
		<path class="st1" d="M1460.5,517.8c0-5.1,3-8.4,7.4-8.4c4.5,0,7.4,3.3,7.4,8.4s-3,8.4-7.4,8.4
			C1463.5,526.2,1460.5,522.9,1460.5,517.8z M1472.5,517.8c0-3.7-1.7-6-4.6-6s-4.6,2.2-4.6,6s1.7,6,4.6,6S1472.5,521.6,1472.5,517.8
			z"/>
		<path class="st1" d="M1490.1,509.6c1.1,0,2.2,0.1,2.9,0.3v2.5c-0.6-0.2-1.8-0.3-3-0.3c-3.8,0-6.9,2.6-6.9,7.8v5.9h-2.7v-15.9h2.7
			v4.1C1484.1,511.5,1486.8,509.6,1490.1,509.6z"/>
		<path class="st1" d="M1514.4,509.9h4.6v-4.2l2.7-1.1v5.3h6.2v2.2h-6.2v8.3c0,2.1,1,3.2,3.1,3.2c1.1,0,2.2-0.1,3.2-0.3v2.5
			c-0.8,0.2-1.7,0.4-3.1,0.4c-4,0-5.8-2.2-5.8-5.4v-8.6h-4.6V509.9z"/>
		<path class="st1" d="M1540.5,509.5c1.3,0,2.8,0.4,3.9,1.4c1,1,1.6,2.5,1.6,5.1v9.9h-2.7v-9.7c0-3.5-1.8-4.2-3.4-4.2
			c-3.5,0-4.3,3.3-4.3,5.6v8.3h-2.7v-23.1h2.7v10.1C1536.2,510.9,1538.2,509.5,1540.5,509.5z"/>
		<path class="st1" d="M1563.9,518.5h-11.2c0,3,1.7,5.3,4.7,5.3c2.1,0,3.4-1.3,4.2-2.8l2.3,1.2c-1.3,2.6-3.5,4-6.5,4
			c-5,0-7.5-3.4-7.5-8.7c0-4.9,2.8-8,7.3-8c4.9,0,6.8,3.5,6.8,7.8C1563.9,517.7,1563.9,518.1,1563.9,518.5z M1557,511.6
			c-2.9,0-4.4,2.4-4.4,4.7h8.5C1561.2,513.8,1559.9,511.6,1557,511.6z"/>
		<path class="st1" d="M1568.6,520.9l2.7-0.5c0.4,2.3,1.9,3.5,4.3,3.5c2.1,0,3.3-0.9,3.3-2.4c0-1.6-0.8-2.3-2.6-2.5l-2.6-0.3
			c-3.2-0.4-4.7-2.1-4.7-4.6c0-2.9,2.3-4.7,6.1-4.7c3.6,0,6.1,1.9,6.4,4.8l-2.7,0.6c-0.4-1.9-1.7-3.3-3.8-3.3
			c-2.1,0-3.3,0.9-3.3,2.4c0,1.4,0.9,2.2,2.9,2.4l2.6,0.3c3.2,0.4,4.4,2,4.4,4.5c0,3-2.2,4.9-6.1,4.9
			C1571.7,526.2,1569.2,524.3,1568.6,520.9z"/>
		<path class="st1" d="M1599.6,518.5h-11.2c0,3,1.7,5.3,4.7,5.3c2.1,0,3.4-1.3,4.2-2.8l2.3,1.2c-1.3,2.6-3.5,4-6.5,4
			c-5,0-7.5-3.4-7.5-8.7c0-4.9,2.8-8,7.3-8c4.9,0,6.8,3.5,6.8,7.8C1599.6,517.7,1599.6,518.1,1599.6,518.5z M1592.8,511.6
			c-2.9,0-4.4,2.4-4.4,4.7h8.5C1596.9,513.8,1595.6,511.6,1592.8,511.6z"/>
		<path class="st1" d="M1626.2,509.5c1.6,0,2.8,1.1,3.3,2.9c0.8-1.8,2.2-2.9,3.8-2.9c2,0,3.8,1.4,3.8,4.8v11.6h-2.7v-11.4
			c0-2-1-2.6-1.9-2.6c-1.9,0-2.6,1.4-2.6,3.4v10.6h-2.6v-11.4c0-1.9-0.9-2.6-1.9-2.6c-1.8,0-2.5,1.5-2.5,3.4v10.6h-2.7v-15.9h2.6
			v2.5C1623.4,510.6,1624.6,509.5,1626.2,509.5z"/>
		<path class="st1" d="M1653.1,525.8h-2.8c-0.1-0.9-0.2-1.9-0.3-2.9c-1.1,2.2-2.8,3.3-5.4,3.3c-3.2,0-5.4-1.9-5.4-4.7
			c0-1.7,0.8-2.9,2.2-3.8c1.1-0.6,2.8-1,5.4-1.3l2.9-0.4v-0.3c0-2.8-1.1-4.1-3.4-4.1c-2.3,0-3.6,1.1-3.7,3.2h-2.9
			c0.3-3.4,2.8-5.4,6.8-5.4c4.1,0,6,2,6,6.6v4.3C1652.5,523,1652.7,524.6,1653.1,525.8z M1646,518.6c-2.8,0.4-3.9,1.2-3.9,2.8
			c0,1.6,1.1,2.6,3,2.6c2.9,0,4.7-2,4.7-5.1v-0.8L1646,518.6z"/>
		<path class="st1" d="M1670.7,509.9V532h-2.7v-9c-0.9,1.8-2.7,3.1-5,3.1c-4,0-6.5-3.4-6.5-8.4c0-4.8,2.6-8.3,6.9-8.3
			c2,0,3.9,1.3,4.6,2.7l0.5-2.4H1670.7z M1663.6,511.9c-2.7,0-4.2,2.4-4.2,5.9c0,3.6,1.7,6,4.1,6c2.9,0,4.6-2.2,4.6-5.5v-0.9
			C1668,514,1666.3,511.9,1663.6,511.9z"/>
		<path class="st1" d="M1681.1,526.2c-1.5,0-3-0.4-4.1-1.4c-1-1-1.5-2.5-1.5-5.1v-9.9h2.8v9.8c0,3.5,1.7,4.2,3.3,4.2
			c3.3,0,4.1-3.3,4.1-5.7v-8.3h2.7v15.9h-2.6v-3C1685.4,524.4,1683.5,526.2,1681.1,526.2z"/>
		<path class="st1" d="M1694.2,523.6h5.1v-11.5h-4.6v-2.2h7.3v13.7h5.4v2.2h-13.2V523.6z M1702.3,506.7h-3.8v-3.8h3.8V506.7z"/>
		<path class="st1" d="M1724.5,525.8h-2.8c-0.1-0.9-0.2-1.9-0.3-2.9c-1.1,2.2-2.8,3.3-5.4,3.3c-3.2,0-5.4-1.9-5.4-4.7
			c0-1.7,0.8-2.9,2.2-3.8c1.1-0.6,2.8-1,5.4-1.3l2.9-0.4v-0.3c0-2.8-1.1-4.1-3.4-4.1c-2.3,0-3.6,1.1-3.7,3.2h-2.9
			c0.3-3.4,2.8-5.4,6.8-5.4c4.1,0,6,2,6,6.6v4.3C1724,523,1724.1,524.6,1724.5,525.8z M1717.5,518.6c-2.8,0.4-3.9,1.2-3.9,2.8
			c0,1.6,1.1,2.6,3,2.6c2.9,0,4.7-2,4.7-5.1v-0.8L1717.5,518.6z"/>
		<path class="st1" d="M1727.9,509.9h2.8l4.2,10.9c0.3,0.8,0.6,1.6,0.8,2.3h0.1c0.2-0.7,0.4-1.5,0.7-2.3l4.3-10.9h2.8l-6.4,15.9
			h-2.9L1727.9,509.9z"/>
		<path class="st1" d="M1760.3,518.5h-11.2c0,3,1.7,5.3,4.7,5.3c2.1,0,3.4-1.3,4.2-2.8l2.3,1.2c-1.3,2.6-3.5,4-6.5,4
			c-5,0-7.5-3.4-7.5-8.7c0-4.9,2.8-8,7.3-8c4.9,0,6.8,3.5,6.8,7.8C1760.3,517.7,1760.3,518.1,1760.3,518.5z M1753.5,511.6
			c-2.9,0-4.4,2.4-4.4,4.7h8.5C1757.6,513.8,1756.3,511.6,1753.5,511.6z"/>
		<path class="st1" d="M1765.6,523.6h5.1v-18.7h-4.8v-2.2h7.5v20.9h5.4v2.2h-13.2V523.6z"/>
		<path class="st1" d="M1783.5,523.6h5.1v-11.5h-4.6v-2.2h7.3v13.7h5.4v2.2h-13.2V523.6z M1791.6,506.7h-3.8v-3.8h3.8V506.7z"/>
		<path class="st1" d="M1799.9,517.7c0-4.8,2.4-8.3,7.4-8.3c3.5,0,6.1,2,6.5,5.7l-2.8,0.3c-0.3-2.4-1.6-3.7-3.9-3.7
			c-2.9,0-4.4,2.4-4.4,5.9c0,3.6,1.5,6.1,4.5,6.1c2.3,0,3.6-1.4,4-3.8l2.6,0.4c-0.5,3.3-2.6,5.8-6.5,5.8
			C1802.4,526.2,1799.9,522.5,1799.9,517.7z"/>
		<path class="st1" d="M1353.5,560.4c0-4.8,2.4-8.3,7.4-8.3c3.5,0,6.1,2,6.5,5.7l-2.8,0.3c-0.3-2.4-1.6-3.7-3.9-3.7
			c-2.9,0-4.4,2.4-4.4,5.9c0,3.6,1.5,6.1,4.5,6.1c2.3,0,3.6-1.4,4-3.8l2.6,0.4c-0.5,3.3-2.6,5.8-6.5,5.8
			C1356,568.9,1353.5,565.2,1353.5,560.4z"/>
		<path class="st1" d="M1371.2,560.5c0-5.1,3-8.4,7.4-8.4c4.5,0,7.4,3.3,7.4,8.4s-3,8.4-7.4,8.4
			C1374.2,568.9,1371.2,565.5,1371.2,560.5z M1383.2,560.5c0-3.7-1.7-6-4.6-6s-4.6,2.2-4.6,6s1.7,6,4.6,6S1383.2,564.3,1383.2,560.5
			z"/>
		<path class="st1" d="M1400.8,552.2c1.1,0,2.2,0.1,2.9,0.3v2.5c-0.6-0.2-1.8-0.3-3-0.3c-3.8,0-6.9,2.6-6.9,7.8v5.9h-2.7v-15.9h2.7
			v4.1C1394.9,554.2,1397.5,552.2,1400.8,552.2z"/>
		<path class="st1" d="M1410.6,555.5c0.8-1.8,2.7-3.3,5-3.3c4.2,0,6.6,3.5,6.6,8.3c0,5-2.6,8.4-6.8,8.4c-2,0-4-1.2-4.7-2.9v8.7h-2.7
			v-22.2h2.6V555.5z M1415,566.5c2.8,0,4.4-2.4,4.4-6c0-3.5-1.5-5.9-4.3-5.9c-2.7,0-4.4,2.1-4.4,5.5v0.8
			C1410.7,564.3,1412.3,566.5,1415,566.5z"/>
		<path class="st1" d="M1424.8,560.5c0-5.1,3-8.4,7.4-8.4c4.5,0,7.4,3.3,7.4,8.4s-3,8.4-7.4,8.4
			C1427.8,568.9,1424.8,565.5,1424.8,560.5z M1436.8,560.5c0-3.7-1.7-6-4.6-6c-2.9,0-4.6,2.2-4.6,6s1.7,6,4.6,6
			C1435.1,566.5,1436.8,564.3,1436.8,560.5z"/>
		<path class="st1" d="M1454.4,552.2c1.1,0,2.2,0.1,2.9,0.3v2.5c-0.6-0.2-1.8-0.3-3-0.3c-3.8,0-6.9,2.6-6.9,7.8v5.9h-2.7v-15.9h2.7
			v4.1C1448.4,554.2,1451.1,552.2,1454.4,552.2z"/>
		<path class="st1" d="M1474.5,568.5h-2.8c-0.1-0.9-0.2-1.9-0.3-2.9c-1.1,2.2-2.8,3.3-5.4,3.3c-3.2,0-5.4-1.9-5.4-4.7
			c0-1.7,0.8-2.9,2.2-3.8c1.1-0.6,2.8-1,5.4-1.3l2.9-0.4v-0.3c0-2.8-1.1-4.1-3.4-4.1c-2.3,0-3.6,1.1-3.7,3.2h-2.9
			c0.3-3.4,2.8-5.4,6.8-5.4c4.1,0,6,2,6,6.6v4.3C1474,565.7,1474.1,567.3,1474.5,568.5z M1467.5,561.3c-2.8,0.4-3.9,1.2-3.9,2.8
			c0,1.6,1.1,2.6,3,2.6c2.9,0,4.7-2,4.7-5.1v-0.8L1467.5,561.3z"/>
		<path class="st1" d="M1478.7,552.5h4.6v-4.2l2.7-1.1v5.3h6.2v2.2h-6.2v8.3c0,2.1,1,3.2,3.1,3.2c1.1,0,2.2-0.1,3.2-0.3v2.5
			c-0.8,0.2-1.7,0.4-3.1,0.4c-4,0-5.8-2.2-5.8-5.4v-8.6h-4.6V552.5z"/>
		<path class="st1" d="M1497.8,566.3h5.1v-11.5h-4.6v-2.2h7.3v13.7h5.4v2.2h-13.2V566.3z M1505.9,549.4h-3.8v-3.8h3.8V549.4z"/>
		<path class="st1" d="M1514.1,560.5c0-5.1,3-8.4,7.4-8.4c4.5,0,7.4,3.3,7.4,8.4s-3,8.4-7.4,8.4
			C1517.1,568.9,1514.1,565.5,1514.1,560.5z M1526.1,560.5c0-3.7-1.7-6-4.6-6c-2.9,0-4.6,2.2-4.6,6s1.7,6,4.6,6
			C1524.4,566.5,1526.1,564.3,1526.1,560.5z"/>
		<path class="st1" d="M1540.6,552.2c1.3,0,2.8,0.4,3.9,1.4c1.1,1,1.5,2.5,1.5,5.1v9.9h-2.7v-9.7c0-3.5-1.7-4.2-3.3-4.2
			c-3.6,0-4.5,3.3-4.5,5.6v8.3h-2.7v-15.9h2.6v3.2C1536.2,553.7,1537.9,552.2,1540.6,552.2z"/>
		<path class="st1" d="M1550.7,563.6l2.7-0.5c0.4,2.3,1.9,3.5,4.3,3.5c2.1,0,3.3-0.9,3.3-2.4c0-1.6-0.8-2.3-2.6-2.5l-2.6-0.3
			c-3.2-0.4-4.7-2.1-4.7-4.6c0-2.9,2.3-4.7,6.1-4.7c3.6,0,6.1,1.9,6.4,4.8l-2.7,0.6c-0.4-1.9-1.7-3.3-3.8-3.3
			c-2.1,0-3.3,0.9-3.3,2.4c0,1.4,0.9,2.2,2.9,2.4l2.6,0.3c3.2,0.4,4.4,2,4.4,4.5c0,3-2.2,4.9-6.1,4.9
			C1553.8,568.9,1551.3,567,1550.7,563.6z"/>
		<path class="st1" d="M1573.1,571.7c1.8-0.8,2.1-1.5,2.1-3.3h-2.3v-4.1h4.2v4.1c0,2.5-0.8,3.7-3.2,4.7L1573.1,571.7z"/>
		<path class="st1" d="M1604.9,566.3h5.1v-11.5h-4.6v-2.2h7.3v13.7h5.4v2.2h-13.2V566.3z M1613,549.4h-3.8v-3.8h3.8V549.4z"/>
		<path class="st1" d="M1629.9,552.2c1.3,0,2.8,0.4,3.9,1.4c1.1,1,1.5,2.5,1.5,5.1v9.9h-2.7v-9.7c0-3.5-1.7-4.2-3.3-4.2
			c-3.6,0-4.5,3.3-4.5,5.6v8.3h-2.7v-15.9h2.6v3.2C1625.4,553.7,1627.2,552.2,1629.9,552.2z"/>
		<path class="st1" d="M1656.9,560.5c0-5.1,3-8.4,7.4-8.4c4.5,0,7.4,3.3,7.4,8.4s-3,8.4-7.4,8.4
			C1659.9,568.9,1656.9,565.5,1656.9,560.5z M1668.9,560.5c0-3.7-1.7-6-4.6-6s-4.6,2.2-4.6,6s1.7,6,4.6,6S1668.9,564.3,1668.9,560.5
			z"/>
		<path class="st1" d="M1686.5,552.2c1.1,0,2.2,0.1,2.9,0.3v2.5c-0.6-0.2-1.8-0.3-3-0.3c-3.8,0-6.9,2.6-6.9,7.8v5.9h-2.7v-15.9h2.7
			v4.1C1680.6,554.2,1683.2,552.2,1686.5,552.2z"/>
		<path class="st1" d="M1706.2,545.4v23.1h-2.6v-3c-1,2.1-2.5,3.3-5.1,3.3c-4,0-6.6-3.3-6.6-8.4c0-5,2.8-8.3,7-8.3
			c2.2,0,3.7,1.2,4.5,2.7v-9.5H1706.2z M1699.3,554.6c-2.7,0-4.4,2.2-4.4,5.9c0,3.7,1.6,6,4.3,6c2.7,0,4.4-2.2,4.4-5.6v-0.7
			C1703.6,556.7,1701.9,554.6,1699.3,554.6z"/>
		<path class="st1" d="M1724.6,561.2h-11.2c0,3,1.7,5.3,4.7,5.3c2.1,0,3.4-1.3,4.2-2.8l2.3,1.2c-1.3,2.6-3.5,4-6.5,4
			c-5,0-7.5-3.4-7.5-8.7c0-4.9,2.8-8,7.3-8c4.9,0,6.8,3.5,6.8,7.8C1724.6,560.4,1724.6,560.8,1724.6,561.2z M1717.7,554.3
			c-2.9,0-4.4,2.4-4.4,4.7h8.5C1721.9,556.4,1720.6,554.3,1717.7,554.3z"/>
		<path class="st1" d="M1740.1,552.2c1.1,0,2.2,0.1,2.9,0.3v2.5c-0.6-0.2-1.8-0.3-3-0.3c-3.8,0-6.9,2.6-6.9,7.8v5.9h-2.7v-15.9h2.7
			v4.1C1734.1,554.2,1736.8,552.2,1740.1,552.2z"/>
		<path class="st1" d="M1778.2,554.7h-6.1v13.7h-2.7v-13.7h-4.9v-2.2h4.9v-1.8c0-3.6,2-5.5,6-5.5c0.9,0,1.7,0.1,2.8,0.3v2.4
			c-0.7-0.1-1.6-0.3-2.8-0.3c-2.4,0-3.3,0.8-3.3,3.3v1.6h6.1V554.7z"/>
		<path class="st1" d="M1781.9,560.5c0-5.1,3-8.4,7.4-8.4c4.5,0,7.4,3.3,7.4,8.4s-3,8.4-7.4,8.4
			C1784.9,568.9,1781.9,565.5,1781.9,560.5z M1793.9,560.5c0-3.7-1.7-6-4.6-6s-4.6,2.2-4.6,6s1.7,6,4.6,6S1793.9,564.3,1793.9,560.5
			z"/>
		<path class="st1" d="M1811.5,552.2c1.1,0,2.2,0.1,2.9,0.3v2.5c-0.6-0.2-1.8-0.3-3-0.3c-3.8,0-6.9,2.6-6.9,7.8v5.9h-2.7v-15.9h2.7
			v4.1C1805.6,554.2,1808.2,552.2,1811.5,552.2z"/>
		<path class="st1" d="M1353.7,595.2h4.6V591l2.7-1.1v5.3h6.2v2.2h-6.2v8.3c0,2.1,1,3.2,3.1,3.2c1.1,0,2.2-0.1,3.2-0.3v2.5
			c-0.8,0.2-1.7,0.4-3.1,0.4c-4,0-5.8-2.2-5.8-5.4v-8.6h-4.6V595.2z"/>
		<path class="st1" d="M1379.8,594.8c1.3,0,2.8,0.4,3.9,1.4c1,1,1.6,2.5,1.6,5.1v9.9h-2.7v-9.7c0-3.5-1.8-4.2-3.4-4.2
			c-3.5,0-4.3,3.3-4.3,5.6v8.3h-2.7V588h2.7v10.1C1375.5,596.2,1377.5,594.8,1379.8,594.8z"/>
		<path class="st1" d="M1403.2,603.9H1392c0,3,1.7,5.3,4.7,5.3c2.1,0,3.4-1.3,4.2-2.8l2.3,1.2c-1.3,2.6-3.5,4-6.5,4
			c-5,0-7.5-3.4-7.5-8.7c0-4.9,2.8-8,7.3-8c4.9,0,6.8,3.5,6.8,7.8C1403.2,603.1,1403.2,603.5,1403.2,603.9z M1396.3,596.9
			c-2.9,0-4.4,2.4-4.4,4.7h8.5C1400.5,599.1,1399.2,596.9,1396.3,596.9z"/>
		<path class="st1" d="M1412,594.8c1.6,0,2.8,1.1,3.3,2.9c0.8-1.8,2.2-2.9,3.8-2.9c2,0,3.8,1.4,3.8,4.8v11.6h-2.7v-11.4
			c0-2-1-2.6-1.9-2.6c-1.9,0-2.6,1.4-2.6,3.4v10.6h-2.6v-11.4c0-1.9-0.9-2.6-1.9-2.6c-1.8,0-2.5,1.5-2.5,3.4v10.6h-2.7v-15.9h2.6
			v2.5C1409.1,596,1410.4,594.8,1412,594.8z"/>
		<path class="st1" d="M1443,595.2h4.6V591l2.7-1.1v5.3h6.2v2.2h-6.2v8.3c0,2.1,1,3.2,3.1,3.2c1.1,0,2.2-0.1,3.2-0.3v2.5
			c-0.8,0.2-1.7,0.4-3.1,0.4c-4,0-5.8-2.2-5.8-5.4v-8.6h-4.6V595.2z"/>
		<path class="st1" d="M1460.5,603.2c0-5.1,3-8.4,7.4-8.4c4.5,0,7.4,3.3,7.4,8.4s-3,8.4-7.4,8.4
			C1463.5,611.6,1460.5,608.2,1460.5,603.2z M1472.5,603.2c0-3.7-1.7-6-4.6-6s-4.6,2.2-4.6,6s1.7,6,4.6,6S1472.5,607,1472.5,603.2z"
			/>
		<path class="st1" d="M1510.2,611.2h-2.8c-0.1-0.9-0.2-1.9-0.3-2.9c-1.1,2.2-2.8,3.3-5.4,3.3c-3.2,0-5.4-1.9-5.4-4.7
			c0-1.7,0.8-2.9,2.2-3.8c1.1-0.6,2.8-1,5.4-1.3l2.9-0.4v-0.3c0-2.8-1.1-4.1-3.4-4.1c-2.3,0-3.6,1.1-3.7,3.2h-2.9
			c0.3-3.4,2.8-5.4,6.8-5.4c4.1,0,6,2,6,6.6v4.3C1509.7,608.3,1509.9,610,1510.2,611.2z M1503.2,603.9c-2.8,0.4-3.9,1.2-3.9,2.8
			c0,1.6,1.1,2.6,3,2.6c2.9,0,4.7-2,4.7-5.1v-0.8L1503.2,603.9z"/>
		<path class="st1" d="M1517.8,598.2c0.8-1.8,2.7-3.3,5-3.3c4.2,0,6.6,3.5,6.6,8.3c0,5-2.6,8.4-6.8,8.4c-2,0-4-1.2-4.7-2.9v8.7h-2.7
			v-22.2h2.6V598.2z M1522.2,609.2c2.8,0,4.4-2.4,4.4-6c0-3.5-1.5-5.9-4.3-5.9c-2.7,0-4.4,2.1-4.4,5.5v0.8
			C1517.9,606.9,1519.5,609.2,1522.2,609.2z"/>
		<path class="st1" d="M1535.6,598.2c0.8-1.8,2.7-3.3,5-3.3c4.2,0,6.6,3.5,6.6,8.3c0,5-2.6,8.4-6.8,8.4c-2,0-4-1.2-4.7-2.9v8.7h-2.7
			v-22.2h2.6V598.2z M1540,609.2c2.8,0,4.4-2.4,4.4-6c0-3.5-1.5-5.9-4.3-5.9c-2.7,0-4.4,2.1-4.4,5.5v0.8
			C1535.7,606.9,1537.3,609.2,1540,609.2z"/>
		<path class="st1" d="M1563.9,603.9h-11.2c0,3,1.7,5.3,4.7,5.3c2.1,0,3.4-1.3,4.2-2.8l2.3,1.2c-1.3,2.6-3.5,4-6.5,4
			c-5,0-7.5-3.4-7.5-8.7c0-4.9,2.8-8,7.3-8c4.9,0,6.8,3.5,6.8,7.8C1563.9,603.1,1563.9,603.5,1563.9,603.9z M1557,596.9
			c-2.9,0-4.4,2.4-4.4,4.7h8.5C1561.2,599.1,1559.9,596.9,1557,596.9z"/>
		<path class="st1" d="M1581.7,611.2h-2.8c-0.1-0.9-0.2-1.9-0.3-2.9c-1.1,2.2-2.8,3.3-5.4,3.3c-3.2,0-5.4-1.9-5.4-4.7
			c0-1.7,0.8-2.9,2.2-3.8c1.1-0.6,2.8-1,5.4-1.3l2.9-0.4v-0.3c0-2.8-1.1-4.1-3.4-4.1c-2.3,0-3.6,1.1-3.7,3.2h-2.9
			c0.3-3.4,2.8-5.4,6.8-5.4c4.1,0,6,2,6,6.6v4.3C1581.1,608.3,1581.3,610,1581.7,611.2z M1574.6,603.9c-2.8,0.4-3.9,1.2-3.9,2.8
			c0,1.6,1.1,2.6,3,2.6c2.9,0,4.7-2,4.7-5.1v-0.8L1574.6,603.9z"/>
		<path class="st1" d="M1597.2,594.9c1.1,0,2.2,0.1,2.9,0.3v2.5c-0.6-0.2-1.8-0.3-3-0.3c-3.8,0-6.9,2.6-6.9,7.8v5.9h-2.7v-15.9h2.7
			v4.1C1591.3,596.9,1593.9,594.9,1597.2,594.9z"/>
		<path class="st1" d="M1635.2,611.2h-2.8c-0.1-0.9-0.2-1.9-0.3-2.9c-1.1,2.2-2.8,3.3-5.4,3.3c-3.2,0-5.4-1.9-5.4-4.7
			c0-1.7,0.8-2.9,2.2-3.8c1.1-0.6,2.8-1,5.4-1.3l2.9-0.4v-0.3c0-2.8-1.1-4.1-3.4-4.1c-2.3,0-3.6,1.1-3.7,3.2h-2.9
			c0.3-3.4,2.8-5.4,6.8-5.4c4.1,0,6,2,6,6.6v4.3C1634.7,608.3,1634.8,610,1635.2,611.2z M1628.2,603.9c-2.8,0.4-3.9,1.2-3.9,2.8
			c0,1.6,1.1,2.6,3,2.6c2.9,0,4.7-2,4.7-5.1v-0.8L1628.2,603.9z"/>
		<path class="st1" d="M1640,606.3l2.7-0.5c0.4,2.3,1.9,3.5,4.3,3.5c2.1,0,3.3-0.9,3.3-2.4c0-1.6-0.8-2.3-2.6-2.5l-2.6-0.3
			c-3.2-0.4-4.7-2.1-4.7-4.6c0-2.9,2.3-4.7,6.1-4.7c3.6,0,6.1,1.9,6.4,4.8l-2.7,0.6c-0.4-1.9-1.7-3.3-3.8-3.3
			c-2.1,0-3.3,0.9-3.3,2.4c0,1.4,0.9,2.2,2.9,2.4l2.6,0.3c3.2,0.4,4.4,2,4.4,4.5c0,3-2.2,4.9-6.1,4.9
			C1643.1,611.6,1640.6,609.7,1640,606.3z"/>
		<path class="st1" d="M1686.7,596.5c0.9,0.9,1.4,2.2,1.4,3.7c0,3.3-2.4,5.5-6,5.5c-1.1,0-2.1-0.2-3-0.6c-0.7,0.3-1.1,0.9-1.1,1.6
			c0,1,0.8,1.6,2.6,1.6h4.1c3.3,0,5.2,1.6,5.2,4.3c0,3.3-2.9,5.2-7.9,5.2c-4.5,0-7.2-1.6-7.2-4.1c0-1.7,1.1-3,2.8-3.6
			c-1.3-0.5-2-1.5-2-2.8c0-1.5,0.8-2.6,2.3-3.1c-1-0.9-1.6-2.3-1.6-3.9c0-3.3,2.4-5.5,5.9-5.5c1.2,0,2.2,0.3,3.1,0.7
			c0.6-1.9,1.9-2.9,3.9-2.9c0.4,0,0.7,0,1,0.1v2.4c-0.5-0.1-0.8-0.1-1.2-0.1C1687.8,595,1687.1,595.4,1686.7,596.5z M1680.6,610.6
			c-0.5,0-0.9,0-1.3-0.1c-1.1,0.5-1.7,1.3-1.7,2.4c0,1.7,1.6,2.6,4.8,2.6c3.4,0,4.9-1,4.9-2.7c0-1.4-1-2.2-3.1-2.2H1680.6z
			 M1685.5,600.2c0-1.9-1.4-3.3-3.3-3.3c-2,0-3.3,1.4-3.3,3.4c0,1.9,1.3,3.3,3.3,3.3C1684.1,603.6,1685.5,602.1,1685.5,600.2z"/>
		<path class="st1" d="M1692.7,603.2c0-5.1,3-8.4,7.4-8.4c4.5,0,7.4,3.3,7.4,8.4s-3,8.4-7.4,8.4
			C1695.6,611.6,1692.7,608.2,1692.7,603.2z M1704.6,603.2c0-3.7-1.7-6-4.6-6s-4.6,2.2-4.6,6s1.7,6,4.6,6S1704.6,607,1704.6,603.2z"
			/>
		<path class="st1" d="M1710.5,603.2c0-5.1,3-8.4,7.4-8.4c4.5,0,7.4,3.3,7.4,8.4s-3,8.4-7.4,8.4
			C1713.5,611.6,1710.5,608.2,1710.5,603.2z M1722.5,603.2c0-3.7-1.7-6-4.6-6c-2.9,0-4.6,2.2-4.6,6s1.7,6,4.6,6
			C1720.8,609.2,1722.5,607,1722.5,603.2z"/>
		<path class="st1" d="M1742,588v23.1h-2.6v-3c-1,2.1-2.5,3.3-5.1,3.3c-4,0-6.6-3.3-6.6-8.4c0-5,2.8-8.3,7-8.3
			c2.2,0,3.7,1.2,4.5,2.7V588H1742z M1735,597.2c-2.7,0-4.4,2.2-4.4,5.9c0,3.7,1.6,6,4.3,6c2.7,0,4.4-2.2,4.4-5.6v-0.7
			C1739.3,599.4,1737.6,597.2,1735,597.2z"/>
		<path class="st1" d="M1775.9,596.5c0.9,0.9,1.4,2.2,1.4,3.7c0,3.3-2.4,5.5-6,5.5c-1.1,0-2.1-0.2-3-0.6c-0.7,0.3-1.1,0.9-1.1,1.6
			c0,1,0.8,1.6,2.6,1.6h4.1c3.3,0,5.2,1.6,5.2,4.3c0,3.3-2.9,5.2-7.9,5.2c-4.5,0-7.2-1.6-7.2-4.1c0-1.7,1.1-3,2.8-3.6
			c-1.3-0.5-2-1.5-2-2.8c0-1.5,0.8-2.6,2.3-3.1c-1-0.9-1.6-2.3-1.6-3.9c0-3.3,2.4-5.5,5.9-5.5c1.2,0,2.2,0.3,3.1,0.7
			c0.6-1.9,1.9-2.9,3.9-2.9c0.4,0,0.7,0,1,0.1v2.4c-0.5-0.1-0.8-0.1-1.2-0.1C1777.1,595,1776.4,595.4,1775.9,596.5z M1769.9,610.6
			c-0.5,0-0.9,0-1.3-0.1c-1.1,0.5-1.7,1.3-1.7,2.4c0,1.7,1.6,2.6,4.8,2.6c3.4,0,4.9-1,4.9-2.7c0-1.4-1-2.2-3.1-2.2H1769.9z
			 M1774.8,600.2c0-1.9-1.4-3.3-3.3-3.3c-2,0-3.3,1.4-3.3,3.4c0,1.9,1.3,3.3,3.3,3.3C1773.4,603.6,1774.8,602.1,1774.8,600.2z"/>
		<path class="st1" d="M1788.2,611.6c-1.5,0-3-0.4-4.1-1.4c-1-1-1.5-2.5-1.5-5.1v-9.9h2.8v9.8c0,3.5,1.7,4.2,3.3,4.2
			c3.3,0,4.1-3.3,4.1-5.7v-8.3h2.7v15.9h-2.6v-3C1792.5,609.7,1790.6,611.6,1788.2,611.6z"/>
		<path class="st1" d="M1807.5,608l4.4-12.8h2.9l-6.4,17c-1.5,4.1-3.4,5.4-6.1,5.4c-0.5,0-1,0-1.5-0.1v-2.4c0.4,0,0.8,0.1,1.1,0.1
			c1.9,0,2.9-0.9,3.7-3l0.4-1.2l-6.2-15.8h3.1L1807.5,608z"/>
		<path class="st1" d="M1818.6,606.3l2.7-0.5c0.4,2.3,1.9,3.5,4.3,3.5c2.1,0,3.3-0.9,3.3-2.4c0-1.6-0.8-2.3-2.6-2.5l-2.6-0.3
			c-3.2-0.4-4.7-2.1-4.7-4.6c0-2.9,2.3-4.7,6.1-4.7c3.6,0,6.1,1.9,6.4,4.8l-2.7,0.6c-0.4-1.9-1.7-3.3-3.8-3.3
			c-2.1,0-3.3,0.9-3.3,2.4c0,1.4,0.9,2.2,2.9,2.4l2.6,0.3c3.2,0.4,4.4,2,4.4,4.5c0,3-2.2,4.9-6.1,4.9
			C1821.7,611.6,1819.1,609.7,1818.6,606.3z"/>
		<path class="st1" d="M1853.4,603.2c0-5.1,3-8.4,7.4-8.4c4.5,0,7.4,3.3,7.4,8.4s-3,8.4-7.4,8.4
			C1856.3,611.6,1853.4,608.2,1853.4,603.2z M1865.4,603.2c0-3.7-1.7-6-4.6-6s-4.6,2.2-4.6,6s1.7,6,4.6,6S1865.4,607,1865.4,603.2z"
			/>
		<path class="st1" d="M1879.9,594.8c1.3,0,2.8,0.4,3.9,1.4c1.1,1,1.5,2.5,1.5,5.1v9.9h-2.7v-9.7c0-3.5-1.7-4.2-3.3-4.2
			c-3.6,0-4.5,3.3-4.5,5.6v8.3h-2.7v-15.9h2.6v3.2C1875.4,596.4,1877.2,594.8,1879.9,594.8z"/>
		<path class="st1" d="M1353.4,645.9c0-5.1,3-8.4,7.4-8.4c4.5,0,7.4,3.3,7.4,8.4s-3,8.4-7.4,8.4
			C1356.3,654.2,1353.4,650.9,1353.4,645.9z M1365.4,645.9c0-3.7-1.7-6-4.6-6c-2.9,0-4.6,2.2-4.6,6s1.7,6,4.6,6
			C1363.7,651.9,1365.4,649.6,1365.4,645.9z"/>
		<path class="st1" d="M1377.6,654.2c-1.5,0-3-0.4-4.1-1.4c-1-1-1.5-2.5-1.5-5.1v-9.9h2.8v9.8c0,3.5,1.7,4.2,3.3,4.2
			c3.3,0,4.1-3.3,4.1-5.7v-8.3h2.7v15.9h-2.6v-3C1381.8,652.4,1379.9,654.2,1377.6,654.2z"/>
		<path class="st1" d="M1400.8,637.6c1.1,0,2.2,0.1,2.9,0.3v2.5c-0.6-0.2-1.8-0.3-3-0.3c-3.8,0-6.9,2.6-6.9,7.8v5.9h-2.7v-15.9h2.7
			v4.1C1394.9,639.5,1397.5,637.6,1400.8,637.6z"/>
		<path class="st1" d="M1428.6,640.7c0.9-1.8,2.8-3.2,4.9-3.2c4.1,0,6.6,3.5,6.6,8.3c0,5-2.5,8.4-6.7,8.4c-2.1,0-4.1-1.2-5-3.1
			l-0.5,2.7h-2.1v-23.1h2.7V640.7z M1432.8,651.8c2.8,0,4.4-2.4,4.4-6c0-3.5-1.6-5.9-4.4-5.9c-2.7,0-4.3,2.1-4.3,5.6v0.8
			C1428.6,649.6,1430.1,651.8,1432.8,651.8z"/>
		<path class="st1" d="M1456.7,646.6h-11.2c0,3,1.7,5.3,4.7,5.3c2.1,0,3.4-1.3,4.2-2.8l2.3,1.2c-1.3,2.6-3.5,4-6.5,4
			c-5,0-7.5-3.4-7.5-8.7c0-4.9,2.8-8,7.3-8c4.9,0,6.8,3.5,6.8,7.8C1456.8,645.7,1456.8,646.2,1456.7,646.6z M1449.9,639.6
			c-2.9,0-4.4,2.4-4.4,4.7h8.5C1454,641.8,1452.8,639.6,1449.9,639.6z"/>
		<path class="st1" d="M1469.1,637.5c1.3,0,2.8,0.4,3.9,1.4c1,1,1.6,2.5,1.6,5.1v9.9h-2.7v-9.7c0-3.5-1.8-4.2-3.4-4.2
			c-3.5,0-4.3,3.3-4.3,5.6v8.3h-2.7v-23.1h2.7v10.1C1464.8,638.9,1466.8,637.5,1469.1,637.5z"/>
		<path class="st1" d="M1492.4,653.8h-2.8c-0.1-0.9-0.2-1.9-0.3-2.9c-1.1,2.2-2.8,3.3-5.4,3.3c-3.2,0-5.4-1.9-5.4-4.7
			c0-1.7,0.8-2.9,2.2-3.8c1.1-0.6,2.8-1,5.4-1.3l2.9-0.4v-0.3c0-2.8-1.1-4.1-3.4-4.1c-2.3,0-3.6,1.1-3.7,3.2h-2.9
			c0.3-3.4,2.8-5.4,6.8-5.4c4.1,0,6,2,6,6.6v4.3C1491.8,651,1492,652.7,1492.4,653.8z M1485.3,646.6c-2.8,0.4-3.9,1.2-3.9,2.8
			c0,1.6,1.1,2.6,3,2.6c2.9,0,4.7-2,4.7-5.1v-0.8L1485.3,646.6z"/>
		<path class="st1" d="M1497.8,651.6h5.1V633h-4.8v-2.2h7.5v20.9h5.4v2.2h-13.2V651.6z"/>
		<path class="st1" d="M1528.2,640.1h-6.1v13.7h-2.7v-13.7h-4.9v-2.2h4.9v-1.8c0-3.6,2-5.5,6-5.5c0.9,0,1.7,0.1,2.8,0.3v2.4
			c-0.7-0.1-1.6-0.3-2.8-0.3c-2.4,0-3.3,0.8-3.3,3.3v1.6h6.1V640.1z"/>
		<path class="st1" d="M1541.5,653.8h-4.2v-4.1h4.2V653.8z M1537.8,631.2h3.2l-0.5,16.7h-2.2L1537.8,631.2z"/>
	</g>
</g>
<path class="st0" d="M1892.4,1057.7h-535.8c-18.7,0-33.9-15.2-33.9-33.9V748.9c0-18.7,15.2-33.9,33.9-33.9h535.8
	c18.7,0,33.9,15.2,33.9,33.9v274.9C1926.3,1042.5,1911.1,1057.7,1892.4,1057.7z"/>
<g>
	<g>
		<path class="st1" d="M1363.3,747.1h-10.9v7.2h10v2.6h-10v10.3h-3v-22.6h13.9V747.1z"/>
		<path class="st1" d="M1367.6,765h5.1v-18.7h-4.8v-2.2h7.5V765h5.4v2.2h-13.2V765z"/>
		<path class="st1" d="M1398,767.2h-2.8c-0.1-0.9-0.2-1.9-0.3-2.9c-1.1,2.2-2.8,3.3-5.4,3.3c-3.2,0-5.4-1.9-5.4-4.7
			c0-1.7,0.8-2.9,2.2-3.8c1.1-0.6,2.8-1,5.4-1.3l2.9-0.4v-0.3c0-2.8-1.1-4.1-3.4-4.1c-2.3,0-3.6,1.1-3.7,3.2h-2.9
			c0.3-3.4,2.8-5.4,6.8-5.4c4.1,0,6,2,6,6.6v4.3C1397.4,764.4,1397.6,766,1398,767.2z M1390.9,760c-2.8,0.4-3.9,1.2-3.9,2.8
			c0,1.6,1.1,2.6,3,2.6c2.9,0,4.7-2,4.7-5.1v-0.8L1390.9,760z"/>
		<path class="st1" d="M1402.2,751.3h4.6v-4.2l2.7-1.1v5.3h6.2v2.2h-6.2v8.3c0,2.1,1,3.2,3.1,3.2c1.1,0,2.2-0.1,3.2-0.3v2.5
			c-0.8,0.2-1.7,0.4-3.1,0.4c-4,0-5.8-2.2-5.8-5.4v-8.6h-4.6V751.3z"/>
		<path class="st1" d="M1436.6,744.6h3l0.8,16.1c0.1,2.4,0.1,3.5,0.1,4h0.3c0-0.7,0.2-2,0.6-4.3l2.2-10.3h2.8l2.2,10.3
			c0.5,2.3,0.6,3.5,0.6,4.3h0.3c0-0.5,0-1.7,0.1-4l0.8-16.1h3l-1.7,22.6h-3.9l-2-9.7c-0.4-2-0.5-3.2-0.6-4.5h-0.3
			c-0.1,1.3-0.2,2.5-0.6,4.5l-2,9.7h-3.9L1436.6,744.6z"/>
		<path class="st1" d="M1455.4,759.2c0-5.1,3-8.4,7.4-8.4c4.5,0,7.4,3.3,7.4,8.4s-3,8.4-7.4,8.4
			C1458.4,767.6,1455.4,764.2,1455.4,759.2z M1467.4,759.2c0-3.7-1.7-6-4.6-6c-2.9,0-4.6,2.2-4.6,6s1.7,6,4.6,6
			C1465.7,765.2,1467.4,763,1467.4,759.2z"/>
		<path class="st1" d="M1485,750.9c1.1,0,2.2,0.1,2.9,0.3v2.5c-0.6-0.2-1.8-0.3-3-0.3c-3.8,0-6.9,2.6-6.9,7.8v5.9h-2.7v-15.9h2.7
			v4.1C1479,752.9,1481.6,750.9,1485,750.9z"/>
		<path class="st1" d="M1492.6,765h5.1v-18.7h-4.8v-2.2h7.5V765h5.4v2.2h-13.2V765z"/>
		<path class="st1" d="M1522.6,744.1v23.1h-2.6v-3c-1,2.1-2.5,3.3-5.1,3.3c-4,0-6.6-3.3-6.6-8.4c0-5,2.8-8.3,7-8.3
			c2.2,0,3.7,1.2,4.5,2.7v-9.5H1522.6z M1515.6,753.3c-2.7,0-4.4,2.2-4.4,5.9c0,3.7,1.6,6,4.3,6c2.7,0,4.4-2.2,4.4-5.6v-0.7
			C1519.9,755.4,1518.2,753.3,1515.6,753.3z"/>
		<path class="st1" d="M1558.7,767.2h-2.8c-0.1-0.9-0.2-1.9-0.3-2.9c-1.1,2.2-2.8,3.3-5.4,3.3c-3.2,0-5.4-1.9-5.4-4.7
			c0-1.7,0.8-2.9,2.2-3.8c1.1-0.6,2.8-1,5.4-1.3l2.9-0.4v-0.3c0-2.8-1.1-4.1-3.4-4.1c-2.3,0-3.6,1.1-3.7,3.2h-2.9
			c0.3-3.4,2.8-5.4,6.8-5.4c4.1,0,6,2,6,6.6v4.3C1558.1,764.4,1558.3,766,1558.7,767.2z M1551.6,760c-2.8,0.4-3.9,1.2-3.9,2.8
			c0,1.6,1.1,2.6,3,2.6c2.9,0,4.7-2,4.7-5.1v-0.8L1551.6,760z"/>
		<path class="st1" d="M1563.5,762.3l2.7-0.5c0.4,2.3,1.9,3.5,4.3,3.5c2.1,0,3.3-0.9,3.3-2.4c0-1.6-0.8-2.3-2.6-2.5l-2.6-0.3
			c-3.2-0.4-4.7-2.1-4.7-4.6c0-2.9,2.3-4.7,6.1-4.7c3.6,0,6.1,1.9,6.4,4.8l-2.7,0.6c-0.4-1.9-1.7-3.3-3.8-3.3
			c-2.1,0-3.3,0.9-3.3,2.4c0,1.4,0.9,2.2,2.9,2.4l2.6,0.3c3.2,0.4,4.4,2,4.4,4.5c0,3-2.2,4.9-6.1,4.9
			C1566.6,767.6,1564,765.7,1563.5,762.3z"/>
		<path class="st1" d="M1599.8,765h5.1v-11.5h-4.6v-2.2h7.3V765h5.4v2.2h-13.2V765z M1607.9,748.1h-3.8v-3.8h3.8V748.1z"/>
		<path class="st1" d="M1616.5,751.3h4.6v-4.2l2.7-1.1v5.3h6.2v2.2h-6.2v8.3c0,2.1,1,3.2,3.1,3.2c1.1,0,2.2-0.1,3.2-0.3v2.5
			c-0.8,0.2-1.7,0.4-3.1,0.4c-4,0-5.8-2.2-5.8-5.4v-8.6h-4.6V751.3z"/>
		<path class="st1" d="M1653.3,765h5.1v-11.5h-4.6v-2.2h7.3V765h5.4v2.2h-13.2V765z M1661.4,748.1h-3.8v-3.8h3.8V748.1z"/>
		<path class="st1" d="M1670.6,762.3l2.7-0.5c0.4,2.3,1.9,3.5,4.3,3.5c2.1,0,3.3-0.9,3.3-2.4c0-1.6-0.8-2.3-2.6-2.5l-2.6-0.3
			c-3.2-0.4-4.7-2.1-4.7-4.6c0-2.9,2.3-4.7,6.1-4.7c3.6,0,6.1,1.9,6.4,4.8l-2.7,0.6c-0.4-1.9-1.7-3.3-3.8-3.3
			c-2.1,0-3.3,0.9-3.3,2.4c0,1.4,0.9,2.2,2.9,2.4l2.6,0.3c3.2,0.4,4.4,2,4.4,4.5c0,3-2.2,4.9-6.1,4.9
			C1673.7,767.6,1671.2,765.7,1670.6,762.3z"/>
		<path class="st1" d="M1713.9,750.9c1.3,0,2.8,0.4,3.9,1.4c1,1,1.6,2.5,1.6,5.1v9.9h-2.7v-9.7c0-3.5-1.8-4.2-3.4-4.2
			c-3.5,0-4.3,3.3-4.3,5.6v8.3h-2.7v-23.1h2.7v10.1C1709.7,752.3,1711.6,750.9,1713.9,750.9z"/>
		<path class="st1" d="M1737.2,767.2h-2.8c-0.1-0.9-0.2-1.9-0.3-2.9c-1.1,2.2-2.8,3.3-5.4,3.3c-3.2,0-5.4-1.9-5.4-4.7
			c0-1.7,0.8-2.9,2.2-3.8c1.1-0.6,2.8-1,5.4-1.3l2.9-0.4v-0.3c0-2.8-1.1-4.1-3.4-4.1c-2.3,0-3.6,1.1-3.7,3.2h-2.9
			c0.3-3.4,2.8-5.4,6.8-5.4c4.1,0,6,2,6,6.6v4.3C1736.7,764.4,1736.9,766,1737.2,767.2z M1730.2,760c-2.8,0.4-3.9,1.2-3.9,2.8
			c0,1.6,1.1,2.6,3,2.6c2.9,0,4.7-2,4.7-5.1v-0.8L1730.2,760z"/>
		<path class="st1" d="M1742,762.3l2.7-0.5c0.4,2.3,1.9,3.5,4.3,3.5c2.1,0,3.3-0.9,3.3-2.4c0-1.6-0.8-2.3-2.6-2.5l-2.6-0.3
			c-3.2-0.4-4.7-2.1-4.7-4.6c0-2.9,2.3-4.7,6.1-4.7c3.6,0,6.1,1.9,6.4,4.8l-2.7,0.6c-0.4-1.9-1.7-3.3-3.8-3.3
			c-2.1,0-3.3,0.9-3.3,2.4c0,1.4,0.9,2.2,2.9,2.4l2.6,0.3c3.2,0.4,4.4,2,4.4,4.5c0,3-2.2,4.9-6.1,4.9
			C1745.1,767.6,1742.6,765.7,1742,762.3z"/>
		<path class="st1" d="M1780.6,754c0.9-1.8,2.8-3.2,4.9-3.2c4.1,0,6.6,3.5,6.6,8.3c0,5-2.5,8.4-6.7,8.4c-2.1,0-4.1-1.2-5-3.1
			l-0.5,2.7h-2.1v-23.1h2.7V754z M1784.8,765.2c2.8,0,4.4-2.4,4.4-6c0-3.5-1.6-5.9-4.4-5.9c-2.7,0-4.3,2.1-4.3,5.6v0.8
			C1780.6,763,1782.1,765.2,1784.8,765.2z"/>
		<path class="st1" d="M1808.7,759.9h-11.2c0,3,1.7,5.3,4.7,5.3c2.1,0,3.4-1.3,4.2-2.8l2.3,1.2c-1.3,2.6-3.5,4-6.5,4
			c-5,0-7.5-3.4-7.5-8.7c0-4.9,2.8-8,7.3-8c4.9,0,6.8,3.5,6.8,7.8C1808.8,759.1,1808.8,759.5,1808.7,759.9z M1801.9,753
			c-2.9,0-4.4,2.4-4.4,4.7h8.5C1806.1,755.2,1804.8,753,1801.9,753z"/>
		<path class="st1" d="M1812.6,759.1c0-4.8,2.4-8.3,7.4-8.3c3.5,0,6.1,2,6.5,5.7l-2.8,0.3c-0.3-2.4-1.6-3.7-3.9-3.7
			c-2.9,0-4.4,2.4-4.4,5.9c0,3.6,1.5,6.1,4.5,6.1c2.3,0,3.6-1.4,4-3.8l2.6,0.4c-0.5,3.3-2.6,5.8-6.5,5.8
			C1815.1,767.6,1812.6,763.9,1812.6,759.1z"/>
		<path class="st1" d="M1830.4,759.2c0-5.1,3-8.4,7.4-8.4c4.5,0,7.4,3.3,7.4,8.4s-3,8.4-7.4,8.4
			C1833.3,767.6,1830.4,764.2,1830.4,759.2z M1842.4,759.2c0-3.7-1.7-6-4.6-6s-4.6,2.2-4.6,6s1.7,6,4.6,6S1842.4,763,1842.4,759.2z"
			/>
		<path class="st1" d="M1853.2,750.9c1.6,0,2.8,1.1,3.3,2.9c0.8-1.8,2.2-2.9,3.8-2.9c2,0,3.8,1.4,3.8,4.8v11.6h-2.7v-11.4
			c0-2-1-2.6-1.9-2.6c-1.9,0-2.6,1.4-2.6,3.4v10.6h-2.6v-11.4c0-1.9-0.9-2.6-1.9-2.6c-1.9,0-2.5,1.5-2.5,3.4v10.6h-2.7v-15.9h2.6
			v2.5C1850.4,752,1851.6,750.9,1853.2,750.9z"/>
		<path class="st1" d="M1880.2,759.9H1869c0,3,1.7,5.3,4.7,5.3c2.1,0,3.4-1.3,4.2-2.8l2.3,1.2c-1.3,2.6-3.5,4-6.5,4
			c-5,0-7.5-3.4-7.5-8.7c0-4.9,2.8-8,7.3-8c4.9,0,6.8,3.5,6.8,7.8C1880.2,759.1,1880.2,759.5,1880.2,759.9z M1873.3,753
			c-2.9,0-4.4,2.4-4.4,4.7h8.5C1877.5,755.2,1876.2,753,1873.3,753z"/>
		<path class="st1" d="M1348.4,801.8c0-4.8,2.4-8.3,7.4-8.3c3.5,0,6.1,2,6.5,5.7l-2.8,0.3c-0.3-2.4-1.6-3.7-3.9-3.7
			c-2.9,0-4.4,2.4-4.4,5.9c0,3.6,1.5,6.1,4.5,6.1c2.3,0,3.6-1.4,4-3.8l2.6,0.4c-0.5,3.3-2.6,5.8-6.5,5.8
			C1350.8,810.3,1348.4,806.6,1348.4,801.8z"/>
		<path class="st1" d="M1366.1,801.9c0-5.1,3-8.4,7.4-8.4c4.5,0,7.4,3.3,7.4,8.4s-3,8.4-7.4,8.4
			C1369.1,810.3,1366.1,806.9,1366.1,801.9z M1378.1,801.9c0-3.7-1.7-6-4.6-6c-2.9,0-4.6,2.2-4.6,6s1.7,6,4.6,6
			C1376.4,807.9,1378.1,805.7,1378.1,801.9z"/>
		<path class="st1" d="M1395.7,793.6c1.1,0,2.2,0.1,2.9,0.3v2.5c-0.6-0.2-1.8-0.3-3-0.3c-3.8,0-6.9,2.6-6.9,7.8v5.9h-2.7v-15.9h2.7
			v4.1C1389.7,795.6,1392.4,793.6,1395.7,793.6z"/>
		<path class="st1" d="M1413.5,793.6c1.1,0,2.2,0.1,2.9,0.3v2.5c-0.6-0.2-1.8-0.3-3-0.3c-3.8,0-6.9,2.6-6.9,7.8v5.9h-2.7v-15.9h2.7
			v4.1C1407.6,795.6,1410.2,793.6,1413.5,793.6z"/>
		<path class="st1" d="M1426,810.3c-1.5,0-3-0.4-4.1-1.4c-1-1-1.5-2.5-1.5-5.1v-9.9h2.8v9.8c0,3.5,1.7,4.2,3.3,4.2
			c3.3,0,4.1-3.3,4.1-5.7v-8.3h2.7v15.9h-2.6v-3C1430.2,808.5,1428.4,810.3,1426,810.3z"/>
		<path class="st1" d="M1441.2,796.9c0.8-1.8,2.7-3.3,5-3.3c4.2,0,6.6,3.5,6.6,8.3c0,5-2.6,8.4-6.8,8.4c-2,0-4-1.2-4.7-2.9v8.7h-2.7
			v-22.2h2.6V796.9z M1445.6,807.9c2.8,0,4.4-2.4,4.4-6c0-3.5-1.5-5.9-4.3-5.9c-2.7,0-4.4,2.1-4.4,5.5v0.8
			C1441.3,805.6,1442.9,807.9,1445.6,807.9z"/>
		<path class="st1" d="M1455.7,793.9h4.6v-4.2l2.7-1.1v5.3h6.2v2.2h-6.2v8.3c0,2.1,1,3.2,3.1,3.2c1.1,0,2.2-0.1,3.2-0.3v2.5
			c-0.8,0.2-1.7,0.4-3.1,0.4c-4,0-5.8-2.2-5.8-5.4v-8.6h-4.6V793.9z"/>
		<path class="st1" d="M1494.9,796.7c0.9-1.8,2.8-3.2,4.9-3.2c4.1,0,6.6,3.5,6.6,8.3c0,5-2.5,8.4-6.7,8.4c-2.1,0-4.1-1.2-5-3.1
			l-0.5,2.7h-2.1v-23.1h2.7V796.7z M1499.1,807.9c2.8,0,4.4-2.4,4.4-6c0-3.5-1.6-5.9-4.4-5.9c-2.7,0-4.3,2.1-4.3,5.6v0.8
			C1494.9,805.7,1496.4,807.9,1499.1,807.9z"/>
		<path class="st1" d="M1516.7,806.7l4.4-12.8h2.9l-6.4,17c-1.5,4.1-3.4,5.4-6.1,5.4c-0.5,0-1,0-1.5-0.1v-2.4c0.4,0,0.8,0.1,1.1,0.1
			c1.9,0,2.9-0.9,3.7-3l0.4-1.2l-6.2-15.8h3.1L1516.7,806.7z"/>
		<path class="st1" d="M1545,793.9h4.6v-4.2l2.7-1.1v5.3h6.2v2.2h-6.2v8.3c0,2.1,1,3.2,3.1,3.2c1.1,0,2.2-0.1,3.2-0.3v2.5
			c-0.8,0.2-1.7,0.4-3.1,0.4c-4,0-5.8-2.2-5.8-5.4v-8.6h-4.6V793.9z"/>
		<path class="st1" d="M1571.1,793.6c1.3,0,2.8,0.4,3.9,1.4c1,1,1.6,2.5,1.6,5.1v9.9h-2.7v-9.7c0-3.5-1.8-4.2-3.4-4.2
			c-3.5,0-4.3,3.3-4.3,5.6v8.3h-2.7v-23.1h2.7v10.1C1566.8,794.9,1568.8,793.6,1571.1,793.6z"/>
		<path class="st1" d="M1594.5,802.6h-11.2c0,3,1.7,5.3,4.7,5.3c2.1,0,3.4-1.3,4.2-2.8l2.3,1.2c-1.3,2.6-3.5,4-6.5,4
			c-5,0-7.5-3.4-7.5-8.7c0-4.9,2.8-8,7.3-8c4.9,0,6.8,3.5,6.8,7.8C1594.5,801.8,1594.5,802.2,1594.5,802.6z M1587.6,795.7
			c-2.9,0-4.4,2.4-4.4,4.7h8.5C1591.8,797.8,1590.5,795.7,1587.6,795.7z"/>
		<path class="st1" d="M1617.6,807.7h5.1v-11.5h-4.6v-2.2h7.3v13.7h5.4v2.2h-13.2V807.7z M1625.7,790.8h-3.8v-3.8h3.8V790.8z"/>
		<path class="st1" d="M1642.6,793.6c1.3,0,2.8,0.4,3.9,1.4c1.1,1,1.5,2.5,1.5,5.1v9.9h-2.7v-9.7c0-3.5-1.7-4.2-3.3-4.2
			c-3.6,0-4.5,3.3-4.5,5.6v8.3h-2.7v-15.9h2.6v3.2C1638.2,795.1,1639.9,793.6,1642.6,793.6z"/>
		<path class="st1" d="M1665.9,796.1h-6.1v13.7h-2.7v-13.7h-4.9v-2.2h4.9v-1.8c0-3.6,2-5.5,6-5.5c0.9,0,1.7,0.1,2.8,0.3v2.4
			c-0.7-0.1-1.6-0.3-2.8-0.3c-2.4,0-3.3,0.8-3.3,3.3v1.6h6.1V796.1z M1673.1,807.7h5.1V789h-4.8v-2.2h7.5v20.9h5.4v2.2h-13.2V807.7z
			"/>
		<path class="st1" d="M1695.8,810.3c-1.5,0-3-0.4-4.1-1.4c-1-1-1.5-2.5-1.5-5.1v-9.9h2.8v9.8c0,3.5,1.7,4.2,3.3,4.2
			c3.3,0,4.1-3.3,4.1-5.7v-8.3h2.7v15.9h-2.6v-3C1700,808.5,1698.1,810.3,1695.8,810.3z"/>
		<path class="st1" d="M1721.4,802.6h-11.2c0,3,1.7,5.3,4.7,5.3c2.1,0,3.4-1.3,4.2-2.8l2.3,1.2c-1.3,2.6-3.5,4-6.5,4
			c-5,0-7.5-3.4-7.5-8.7c0-4.9,2.8-8,7.3-8c4.9,0,6.8,3.5,6.8,7.8C1721.4,801.8,1721.4,802.2,1721.4,802.6z M1714.5,795.7
			c-2.9,0-4.4,2.4-4.4,4.7h8.5C1718.7,797.8,1717.4,795.7,1714.5,795.7z"/>
		<path class="st1" d="M1733.8,793.6c1.3,0,2.8,0.4,3.9,1.4c1.1,1,1.5,2.5,1.5,5.1v9.9h-2.7v-9.7c0-3.5-1.7-4.2-3.3-4.2
			c-3.6,0-4.5,3.3-4.5,5.6v8.3h-2.7v-15.9h2.6v3.2C1729.4,795.1,1731.1,793.6,1733.8,793.6z"/>
		<path class="st1" d="M1743.1,801.8c0-4.8,2.4-8.3,7.4-8.3c3.5,0,6.1,2,6.5,5.7l-2.8,0.3c-0.3-2.4-1.6-3.7-3.9-3.7
			c-2.9,0-4.4,2.4-4.4,5.9c0,3.6,1.5,6.1,4.5,6.1c2.3,0,3.6-1.4,4-3.8l2.6,0.4c-0.5,3.3-2.6,5.8-6.5,5.8
			C1745.6,810.3,1743.1,806.6,1743.1,801.8z"/>
		<path class="st1" d="M1774.9,802.6h-11.2c0,3,1.7,5.3,4.7,5.3c2.1,0,3.4-1.3,4.2-2.8l2.3,1.2c-1.3,2.6-3.5,4-6.5,4
			c-5,0-7.5-3.4-7.5-8.7c0-4.9,2.8-8,7.3-8c4.9,0,6.8,3.5,6.8,7.8C1775,801.8,1775,802.2,1774.9,802.6z M1768.1,795.7
			c-2.9,0-4.4,2.4-4.4,4.7h8.5C1772.3,797.8,1771,795.7,1768.1,795.7z"/>
		<path class="st1" d="M1796.6,801.9c0-5.1,3-8.4,7.4-8.4c4.5,0,7.4,3.3,7.4,8.4s-3,8.4-7.4,8.4
			C1799.5,810.3,1796.6,806.9,1796.6,801.9z M1808.6,801.9c0-3.7-1.7-6-4.6-6c-2.9,0-4.6,2.2-4.6,6s1.7,6,4.6,6
			C1806.9,807.9,1808.6,805.7,1808.6,801.9z"/>
		<path class="st1" d="M1828.5,796.1h-6.1v13.7h-2.7v-13.7h-4.9v-2.2h4.9v-1.8c0-3.6,2-5.5,6-5.5c0.9,0,1.7,0.1,2.8,0.3v2.4
			c-0.7-0.1-1.6-0.3-2.8-0.3c-2.4,0-3.3,0.8-3.3,3.3v1.6h6.1V796.1z"/>
		<path class="st1" d="M1356.9,836.2c1.3,0,2.8,0.4,3.9,1.4c1.1,1,1.5,2.5,1.5,5.1v9.9h-2.7v-9.7c0-3.5-1.7-4.2-3.3-4.2
			c-3.6,0-4.5,3.3-4.5,5.6v8.3h-2.7v-15.9h2.6v3.2C1352.5,837.8,1354.2,836.2,1356.9,836.2z"/>
		<path class="st1" d="M1380.2,845.3H1369c0,3,1.7,5.3,4.7,5.3c2.1,0,3.4-1.3,4.2-2.8l2.3,1.2c-1.3,2.6-3.5,4-6.5,4
			c-5,0-7.5-3.4-7.5-8.7c0-4.9,2.8-8,7.3-8c4.9,0,6.8,3.5,6.8,7.8C1380.2,844.5,1380.2,844.9,1380.2,845.3z M1373.4,838.3
			c-2.9,0-4.4,2.4-4.4,4.7h8.5C1377.5,840.5,1376.2,838.3,1373.4,838.3z"/>
		<path class="st1" d="M1384,844.6c0-5.1,3-8.4,7.4-8.4c4.5,0,7.4,3.3,7.4,8.4s-3,8.4-7.4,8.4C1386.9,852.9,1384,849.6,1384,844.6z
			 M1396,844.6c0-3.7-1.7-6-4.6-6s-4.6,2.2-4.6,6s1.7,6,4.6,6S1396,848.4,1396,844.6z"/>
		<path class="st1" d="M1403.4,850.3h5.1v-18.7h-4.8v-2.2h7.5v20.9h5.4v2.2h-13.2V850.3z"/>
		<path class="st1" d="M1421.2,850.3h5.1v-11.5h-4.6v-2.2h7.3v13.7h5.4v2.2h-13.2V850.3z M1429.3,833.4h-3.8v-3.8h3.8V833.4z"/>
		<path class="st1" d="M1441.4,839.4c0.9-1.8,2.8-3.2,4.9-3.2c4.1,0,6.6,3.5,6.6,8.3c0,5-2.5,8.4-6.7,8.4c-2.1,0-4.1-1.2-5-3.1
			l-0.5,2.7h-2.1v-23.1h2.7V839.4z M1445.5,850.6c2.8,0,4.4-2.4,4.4-6c0-3.5-1.6-5.9-4.4-5.9c-2.7,0-4.3,2.1-4.3,5.6v0.8
			C1441.3,848.4,1442.9,850.6,1445.5,850.6z"/>
		<path class="st1" d="M1469.5,845.3h-11.2c0,3,1.7,5.3,4.7,5.3c2.1,0,3.4-1.3,4.2-2.8l2.3,1.2c-1.3,2.6-3.5,4-6.5,4
			c-5,0-7.5-3.4-7.5-8.7c0-4.9,2.8-8,7.3-8c4.9,0,6.8,3.5,6.8,7.8C1469.5,844.5,1469.5,844.9,1469.5,845.3z M1462.6,838.3
			c-2.9,0-4.4,2.4-4.4,4.7h8.5C1466.8,840.5,1465.5,838.3,1462.6,838.3z"/>
		<path class="st1" d="M1485,836.3c1.1,0,2.2,0.1,2.9,0.3v2.5c-0.6-0.2-1.8-0.3-3-0.3c-3.8,0-6.9,2.6-6.9,7.8v5.9h-2.7v-15.9h2.7
			v4.1C1479,838.2,1481.6,836.3,1485,836.3z"/>
		<path class="st1" d="M1505.1,852.6h-2.8c-0.1-0.9-0.2-1.9-0.3-2.9c-1.1,2.2-2.8,3.3-5.4,3.3c-3.2,0-5.4-1.9-5.4-4.7
			c0-1.7,0.8-2.9,2.2-3.8c1.1-0.6,2.8-1,5.4-1.3l2.9-0.4v-0.3c0-2.8-1.1-4.1-3.4-4.1c-2.3,0-3.6,1.1-3.7,3.2h-2.9
			c0.3-3.4,2.8-5.4,6.8-5.4c4.1,0,6,2,6,6.6v4.3C1504.6,849.7,1504.7,851.4,1505.1,852.6z M1498.1,845.3c-2.8,0.4-3.9,1.2-3.9,2.8
			c0,1.6,1.1,2.6,3,2.6c2.9,0,4.7-2,4.7-5.1v-0.8L1498.1,845.3z"/>
		<path class="st1" d="M1510.5,850.3h5.1v-18.7h-4.8v-2.2h7.5v20.9h5.4v2.2h-13.2V850.3z"/>
		<path class="st1" d="M1528.4,850.3h5.1v-11.5h-4.6v-2.2h7.3v13.7h5.4v2.2h-13.2V850.3z M1536.5,833.4h-3.8v-3.8h3.8V833.4z"/>
		<path class="st1" d="M1545.6,847.7l2.7-0.5c0.4,2.3,1.9,3.5,4.3,3.5c2.1,0,3.3-0.9,3.3-2.4c0-1.6-0.8-2.3-2.6-2.5l-2.6-0.3
			c-3.2-0.4-4.7-2.1-4.7-4.6c0-2.9,2.3-4.7,6.1-4.7c3.6,0,6.1,1.9,6.4,4.8l-2.7,0.6c-0.4-1.9-1.7-3.3-3.8-3.3
			c-2.1,0-3.3,0.9-3.3,2.4c0,1.4,0.9,2.2,2.9,2.4l2.6,0.3c3.2,0.4,4.4,2,4.4,4.5c0,3-2.2,4.9-6.1,4.9
			C1548.7,852.9,1546.2,851.1,1545.6,847.7z"/>
		<path class="st1" d="M1567.5,836.2c1.6,0,2.8,1.1,3.3,2.9c0.8-1.8,2.2-2.9,3.8-2.9c2,0,3.8,1.4,3.8,4.8v11.6h-2.7v-11.4
			c0-2-1-2.6-1.9-2.6c-1.9,0-2.6,1.4-2.6,3.4v10.6h-2.6v-11.4c0-1.9-0.9-2.6-1.9-2.6c-1.9,0-2.5,1.5-2.5,3.4v10.6h-2.7v-15.9h2.6
			v2.5C1564.7,837.4,1565.9,836.2,1567.5,836.2z"/>
		<path class="st1" d="M1589.9,852.6h-4.2v-4.1h4.2V852.6z"/>
		<path class="st1" d="M1627.5,846h-7.9l-2.1,6.5h-2.9l7.3-22.6h3.4l7.3,22.6h-2.9L1627.5,846z M1620.4,843.5h6.3
			c-1.4-4.5-2.5-8.3-3.1-10.9h-0.1C1622.9,835.2,1621.8,839,1620.4,843.5z"/>
		<path class="st1" d="M1635.5,850.3h5.1v-18.7h-4.8v-2.2h7.5v20.9h5.4v2.2h-13.2V850.3z"/>
		<path class="st1" d="M1653.3,850.3h5.1v-18.7h-4.8v-2.2h7.5v20.9h5.4v2.2h-13.2V850.3z"/>
		<path class="st1" d="M1687.9,836.6h4.6v-4.2l2.7-1.1v5.3h6.2v2.2h-6.2v8.3c0,2.1,1,3.2,3.1,3.2c1.1,0,2.2-0.1,3.2-0.3v2.5
			c-0.8,0.2-1.7,0.4-3.1,0.4c-4,0-5.8-2.2-5.8-5.4v-8.6h-4.6V836.6z"/>
		<path class="st1" d="M1713.9,836.2c1.3,0,2.8,0.4,3.9,1.4c1,1,1.6,2.5,1.6,5.1v9.9h-2.7v-9.7c0-3.5-1.8-4.2-3.4-4.2
			c-3.5,0-4.3,3.3-4.3,5.6v8.3h-2.7v-23.1h2.7v10.1C1709.7,837.6,1711.6,836.2,1713.9,836.2z"/>
		<path class="st1" d="M1737.3,845.3h-11.2c0,3,1.7,5.3,4.7,5.3c2.1,0,3.4-1.3,4.2-2.8l2.3,1.2c-1.3,2.6-3.5,4-6.5,4
			c-5,0-7.5-3.4-7.5-8.7c0-4.9,2.8-8,7.3-8c4.9,0,6.8,3.5,6.8,7.8C1737.4,844.5,1737.3,844.9,1737.3,845.3z M1730.5,838.3
			c-2.9,0-4.4,2.4-4.4,4.7h8.5C1734.6,840.5,1733.4,838.3,1730.5,838.3z"/>
		<path class="st1" d="M1758.5,836.6h2.8l4.2,10.9c0.3,0.8,0.6,1.6,0.8,2.3h0.1c0.2-0.7,0.4-1.5,0.7-2.3l4.3-10.9h2.8l-6.4,15.9
			h-2.9L1758.5,836.6z"/>
		<path class="st1" d="M1790.8,852.6h-2.8c-0.1-0.9-0.2-1.9-0.3-2.9c-1.1,2.2-2.8,3.3-5.4,3.3c-3.2,0-5.4-1.9-5.4-4.7
			c0-1.7,0.8-2.9,2.2-3.8c1.1-0.6,2.8-1,5.4-1.3l2.9-0.4v-0.3c0-2.8-1.1-4.1-3.4-4.1c-2.3,0-3.6,1.1-3.7,3.2h-2.9
			c0.3-3.4,2.8-5.4,6.8-5.4c4.1,0,6,2,6,6.6v4.3C1790.3,849.7,1790.4,851.4,1790.8,852.6z M1783.8,845.3c-2.8,0.4-3.9,1.2-3.9,2.8
			c0,1.6,1.1,2.6,3,2.6c2.9,0,4.7-2,4.7-5.1v-0.8L1783.8,845.3z"/>
		<path class="st1" d="M1796.2,850.3h5.1v-18.7h-4.8v-2.2h7.5v20.9h5.4v2.2h-13.2V850.3z"/>
		<path class="st1" d="M1818.8,852.9c-1.5,0-3-0.4-4.1-1.4c-1-1-1.5-2.5-1.5-5.1v-9.9h2.8v9.8c0,3.5,1.7,4.2,3.3,4.2
			c3.3,0,4.1-3.3,4.1-5.7v-8.3h2.7v15.9h-2.6v-3C1823.1,851.1,1821.2,852.9,1818.8,852.9z"/>
		<path class="st1" d="M1844.4,845.3h-11.2c0,3,1.7,5.3,4.7,5.3c2.1,0,3.4-1.3,4.2-2.8l2.3,1.2c-1.3,2.6-3.5,4-6.5,4
			c-5,0-7.5-3.4-7.5-8.7c0-4.9,2.8-8,7.3-8c4.9,0,6.8,3.5,6.8,7.8C1844.5,844.5,1844.5,844.9,1844.4,845.3z M1837.6,838.3
			c-2.9,0-4.4,2.4-4.4,4.7h8.5C1841.8,840.5,1840.5,838.3,1837.6,838.3z"/>
		<path class="st1" d="M1849.2,847.7l2.7-0.5c0.4,2.3,1.9,3.5,4.3,3.5c2.1,0,3.3-0.9,3.3-2.4c0-1.6-0.8-2.3-2.6-2.5l-2.6-0.3
			c-3.2-0.4-4.7-2.1-4.7-4.6c0-2.9,2.3-4.7,6.1-4.7c3.6,0,6.1,1.9,6.4,4.8l-2.7,0.6c-0.4-1.9-1.7-3.3-3.8-3.3
			c-2.1,0-3.3,0.9-3.3,2.4c0,1.4,0.9,2.2,2.9,2.4l2.6,0.3c3.2,0.4,4.4,2,4.4,4.5c0,3-2.2,4.9-6.1,4.9
			C1852.3,852.9,1849.7,851.1,1849.2,847.7z"/>
		<path class="st1" d="M1349.5,879.3l1.6,10.9l0.3,2.3h0.2c0.1-0.7,0.2-1.2,0.5-2.7l2.1-10.5h2.8l2.1,10.5c0.3,1.4,0.4,1.9,0.5,2.7
			h0.2l0.3-2.3l1.6-10.9h2.8l-3.1,15.9h-3.4l-2.1-10.3c-0.1-0.6-0.3-2-0.3-2.6h-0.2c0,0.6-0.2,2-0.3,2.6l-2.1,10.3h-3.4l-3.1-15.9
			H1349.5z"/>
		<path class="st1" d="M1380.2,888H1369c0,3,1.7,5.3,4.7,5.3c2.1,0,3.4-1.3,4.2-2.8l2.3,1.2c-1.3,2.6-3.5,4-6.5,4
			c-5,0-7.5-3.4-7.5-8.7c0-4.9,2.8-8,7.3-8c4.9,0,6.8,3.5,6.8,7.8C1380.2,887.1,1380.2,887.6,1380.2,888z M1373.4,881
			c-2.9,0-4.4,2.4-4.4,4.7h8.5C1377.5,883.2,1376.2,881,1373.4,881z"/>
		<path class="st1" d="M1402.8,890.3l2.7-0.5c0.4,2.3,1.9,3.5,4.3,3.5c2.1,0,3.3-0.9,3.3-2.4c0-1.6-0.8-2.3-2.6-2.5l-2.6-0.3
			c-3.2-0.4-4.7-2.1-4.7-4.6c0-2.9,2.3-4.7,6.1-4.7c3.6,0,6.1,1.9,6.4,4.8l-2.7,0.6c-0.4-1.9-1.7-3.3-3.8-3.3
			c-2.1,0-3.3,0.9-3.3,2.4c0,1.4,0.9,2.2,2.9,2.4l2.6,0.3c3.2,0.4,4.4,2,4.4,4.5c0,3-2.2,4.9-6.1,4.9
			C1405.8,895.6,1403.3,893.7,1402.8,890.3z"/>
		<path class="st1" d="M1420,879.3h4.6v-4.2l2.7-1.1v5.3h6.2v2.2h-6.2v8.3c0,2.1,1,3.2,3.1,3.2c1.1,0,2.2-0.1,3.2-0.3v2.5
			c-0.8,0.2-1.7,0.4-3.1,0.4c-4,0-5.8-2.2-5.8-5.4v-8.6h-4.6V879.3z"/>
		<path class="st1" d="M1437.5,887.3c0-5.1,3-8.4,7.4-8.4c4.5,0,7.4,3.3,7.4,8.4s-3,8.4-7.4,8.4
			C1440.5,895.6,1437.5,892.3,1437.5,887.3z M1449.5,887.3c0-3.7-1.7-6-4.6-6s-4.6,2.2-4.6,6s1.7,6,4.6,6S1449.5,891,1449.5,887.3z"
			/>
		<path class="st1" d="M1455.4,887.3c0-5.1,3-8.4,7.4-8.4c4.5,0,7.4,3.3,7.4,8.4s-3,8.4-7.4,8.4
			C1458.4,895.6,1455.4,892.3,1455.4,887.3z M1467.4,887.3c0-3.7-1.7-6-4.6-6c-2.9,0-4.6,2.2-4.6,6s1.7,6,4.6,6
			C1465.7,893.3,1467.4,891,1467.4,887.3z"/>
		<path class="st1" d="M1486.8,872.1v23.1h-2.6v-3c-1,2.1-2.5,3.3-5.1,3.3c-4,0-6.6-3.3-6.6-8.4c0-5,2.8-8.3,7-8.3
			c2.2,0,3.7,1.2,4.5,2.7v-9.5H1486.8z M1479.9,881.3c-2.7,0-4.4,2.2-4.4,5.9c0,3.7,1.6,6,4.3,6c2.7,0,4.4-2.2,4.4-5.6v-0.7
			C1484.2,883.5,1482.5,881.3,1479.9,881.3z"/>
		<path class="st1" d="M1515.3,895.6c-1.5,0-3-0.4-4.1-1.4c-1-1-1.5-2.5-1.5-5.1v-9.9h2.8v9.8c0,3.5,1.7,4.2,3.3,4.2
			c3.3,0,4.1-3.3,4.1-5.7v-8.3h2.7v15.9h-2.6v-3C1519.5,893.8,1517.6,895.6,1515.3,895.6z"/>
		<path class="st1" d="M1530.5,882.3c0.8-1.8,2.7-3.3,5-3.3c4.2,0,6.6,3.5,6.6,8.3c0,5-2.6,8.4-6.8,8.4c-2,0-4-1.2-4.7-2.9v8.7h-2.7
			v-22.2h2.6V882.3z M1534.9,893.2c2.8,0,4.4-2.4,4.4-6c0-3.5-1.5-5.9-4.3-5.9c-2.7,0-4.4,2.1-4.4,5.5v0.8
			C1530.6,891,1532.2,893.2,1534.9,893.2z"/>
		<path class="st1" d="M1576.6,881.5h-6.1v13.7h-2.7v-13.7h-4.9v-2.2h4.9v-1.8c0-3.6,2-5.5,6-5.5c0.9,0,1.7,0.1,2.8,0.3v2.4
			c-0.7-0.1-1.6-0.3-2.8-0.3c-2.4,0-3.3,0.8-3.3,3.3v1.6h6.1V881.5z"/>
		<path class="st1" d="M1580.4,887.3c0-5.1,3-8.4,7.4-8.4c4.5,0,7.4,3.3,7.4,8.4s-3,8.4-7.4,8.4
			C1583.4,895.6,1580.4,892.3,1580.4,887.3z M1592.4,887.3c0-3.7-1.7-6-4.6-6s-4.6,2.2-4.6,6s1.7,6,4.6,6S1592.4,891,1592.4,887.3z"
			/>
		<path class="st1" d="M1610,879c1.1,0,2.2,0.1,2.9,0.3v2.5c-0.6-0.2-1.8-0.3-3-0.3c-3.8,0-6.9,2.6-6.9,7.8v5.9h-2.7v-15.9h2.7v4.1
			C1604,880.9,1606.6,879,1610,879z"/>
		<path class="st1" d="M1648,895.2h-2.8c-0.1-0.9-0.2-1.9-0.3-2.9c-1.1,2.2-2.8,3.3-5.4,3.3c-3.2,0-5.4-1.9-5.4-4.7
			c0-1.7,0.8-2.9,2.2-3.8c1.1-0.6,2.8-1,5.4-1.3l2.9-0.4v-0.3c0-2.8-1.1-4.1-3.4-4.1c-2.3,0-3.6,1.1-3.7,3.2h-2.9
			c0.3-3.4,2.8-5.4,6.8-5.4c4.1,0,6,2,6,6.6v4.3C1647.4,892.4,1647.6,894.1,1648,895.2z M1640.9,888c-2.8,0.4-3.9,1.2-3.9,2.8
			c0,1.6,1.1,2.6,3,2.6c2.9,0,4.7-2,4.7-5.1v-0.8L1640.9,888z"/>
		<path class="st1" d="M1663.5,879c1.1,0,2.2,0.1,2.9,0.3v2.5c-0.6-0.2-1.8-0.3-3-0.3c-3.8,0-6.9,2.6-6.9,7.8v5.9h-2.7v-15.9h2.7
			v4.1C1657.6,880.9,1660.2,879,1663.5,879z"/>
		<path class="st1" d="M1683.7,888h-11.2c0,3,1.7,5.3,4.7,5.3c2.1,0,3.4-1.3,4.2-2.8l2.3,1.2c-1.3,2.6-3.5,4-6.5,4
			c-5,0-7.5-3.4-7.5-8.7c0-4.9,2.8-8,7.3-8c4.9,0,6.8,3.5,6.8,7.8C1683.8,887.1,1683.8,887.6,1683.7,888z M1676.9,881
			c-2.9,0-4.4,2.4-4.4,4.7h8.5C1681.1,883.2,1679.8,881,1676.9,881z"/>
		<path class="st1" d="M1709.2,882.1c0.9-1.8,2.8-3.2,4.9-3.2c4.1,0,6.6,3.5,6.6,8.3c0,5-2.5,8.4-6.7,8.4c-2.1,0-4.1-1.2-5-3.1
			l-0.5,2.7h-2.1v-23.1h2.7V882.1z M1713.4,893.2c2.8,0,4.4-2.4,4.4-6c0-3.5-1.6-5.9-4.4-5.9c-2.7,0-4.3,2.1-4.3,5.6v0.8
			C1709.1,891,1710.7,893.2,1713.4,893.2z"/>
		<path class="st1" d="M1737.3,888h-11.2c0,3,1.7,5.3,4.7,5.3c2.1,0,3.4-1.3,4.2-2.8l2.3,1.2c-1.3,2.6-3.5,4-6.5,4
			c-5,0-7.5-3.4-7.5-8.7c0-4.9,2.8-8,7.3-8c4.9,0,6.8,3.5,6.8,7.8C1737.4,887.1,1737.3,887.6,1737.3,888z M1730.5,881
			c-2.9,0-4.4,2.4-4.4,4.7h8.5C1734.6,883.2,1733.4,881,1730.5,881z"/>
		<path class="st1" d="M1742.6,893h5.1v-11.5h-4.6v-2.2h7.3V893h5.4v2.2h-13.2V893z M1750.7,876.1h-3.8v-3.8h3.8V876.1z"/>
		<path class="st1" d="M1767.6,878.9c1.3,0,2.8,0.4,3.9,1.4c1.1,1,1.5,2.5,1.5,5.1v9.9h-2.7v-9.7c0-3.5-1.7-4.2-3.3-4.2
			c-3.6,0-4.5,3.3-4.5,5.6v8.3h-2.7v-15.9h2.6v3.2C1763.2,880.4,1764.9,878.9,1767.6,878.9z"/>
		<path class="st1" d="M1788.7,880.6c0.9,0.9,1.4,2.2,1.4,3.7c0,3.3-2.4,5.5-6,5.5c-1.1,0-2.1-0.2-3-0.6c-0.7,0.3-1.1,0.9-1.1,1.6
			c0,1,0.8,1.6,2.6,1.6h4.1c3.3,0,5.2,1.6,5.2,4.3c0,3.3-2.9,5.2-7.9,5.2c-4.5,0-7.2-1.6-7.2-4.1c0-1.7,1.1-3,2.8-3.6
			c-1.3-0.5-2-1.5-2-2.8c0-1.5,0.8-2.6,2.3-3.1c-1-0.9-1.6-2.3-1.6-3.9c0-3.3,2.4-5.5,5.9-5.5c1.2,0,2.2,0.3,3.1,0.7
			c0.6-1.9,1.9-2.9,3.9-2.9c0.4,0,0.7,0,1,0.1v2.4c-0.5-0.1-0.8-0.1-1.2-0.1C1789.9,879,1789.1,879.5,1788.7,880.6z M1782.6,894.7
			c-0.5,0-0.9,0-1.3-0.1c-1.1,0.5-1.7,1.3-1.7,2.4c0,1.7,1.6,2.6,4.8,2.6c3.4,0,4.9-1,4.9-2.7c0-1.4-1-2.2-3.1-2.2H1782.6z
			 M1787.6,884.3c0-1.9-1.4-3.3-3.3-3.3c-2,0-3.3,1.4-3.3,3.4c0,1.9,1.3,3.3,3.3,3.3C1786.1,887.7,1787.6,886.2,1787.6,884.3z"/>
		<path class="st1" d="M1818.8,895.6c-1.5,0-3-0.4-4.1-1.4c-1-1-1.5-2.5-1.5-5.1v-9.9h2.8v9.8c0,3.5,1.7,4.2,3.3,4.2
			c3.3,0,4.1-3.3,4.1-5.7v-8.3h2.7v15.9h-2.6v-3C1823.1,893.8,1821.2,895.6,1818.8,895.6z"/>
		<path class="st1" d="M1831.3,890.3l2.7-0.5c0.4,2.3,1.9,3.5,4.3,3.5c2.1,0,3.3-0.9,3.3-2.4c0-1.6-0.8-2.3-2.6-2.5l-2.6-0.3
			c-3.2-0.4-4.7-2.1-4.7-4.6c0-2.9,2.3-4.7,6.1-4.7c3.6,0,6.1,1.9,6.4,4.8l-2.7,0.6c-0.4-1.9-1.7-3.3-3.8-3.3
			c-2.1,0-3.3,0.9-3.3,2.4c0,1.4,0.9,2.2,2.9,2.4l2.6,0.3c3.2,0.4,4.4,2,4.4,4.5c0,3-2.2,4.9-6.1,4.9
			C1834.4,895.6,1831.9,893.7,1831.3,890.3z"/>
		<path class="st1" d="M1862.3,888h-11.2c0,3,1.7,5.3,4.7,5.3c2.1,0,3.4-1.3,4.2-2.8l2.3,1.2c-1.3,2.6-3.5,4-6.5,4
			c-5,0-7.5-3.4-7.5-8.7c0-4.9,2.8-8,7.3-8c4.9,0,6.8,3.5,6.8,7.8C1862.4,887.1,1862.3,887.6,1862.3,888z M1855.5,881
			c-2.9,0-4.4,2.4-4.4,4.7h8.5C1859.6,883.2,1858.3,881,1855.5,881z"/>
		<path class="st1" d="M1879.7,872.1v23.1h-2.6v-3c-1,2.1-2.5,3.3-5.1,3.3c-4,0-6.6-3.3-6.6-8.4c0-5,2.8-8.3,7-8.3
			c2.2,0,3.7,1.2,4.5,2.7v-9.5H1879.7z M1872.7,881.3c-2.7,0-4.4,2.2-4.4,5.9c0,3.7,1.6,6,4.3,6c2.7,0,4.4-2.2,4.4-5.6v-0.7
			C1877,883.5,1875.4,881.3,1872.7,881.3z"/>
		<path class="st1" d="M1348.6,922h4.6v-4.2l2.7-1.1v5.3h6.2v2.2h-6.2v8.3c0,2.1,1,3.2,3.1,3.2c1.1,0,2.2-0.1,3.2-0.3v2.5
			c-0.8,0.2-1.7,0.4-3.1,0.4c-4,0-5.8-2.2-5.8-5.4v-8.6h-4.6V922z"/>
		<path class="st1" d="M1366.1,929.9c0-5.1,3-8.4,7.4-8.4c4.5,0,7.4,3.3,7.4,8.4s-3,8.4-7.4,8.4
			C1369.1,938.3,1366.1,935,1366.1,929.9z M1378.1,929.9c0-3.7-1.7-6-4.6-6c-2.9,0-4.6,2.2-4.6,6s1.7,6,4.6,6
			C1376.4,935.9,1378.1,933.7,1378.1,929.9z"/>
		<path class="st1" d="M1415.4,914.8v23.1h-2.6v-3c-1,2.1-2.5,3.3-5.1,3.3c-4,0-6.6-3.3-6.6-8.4c0-5,2.8-8.3,7-8.3
			c2.2,0,3.7,1.2,4.5,2.7v-9.5H1415.4z M1408.5,924c-2.7,0-4.4,2.2-4.4,5.9c0,3.7,1.6,6,4.3,6c2.7,0,4.4-2.2,4.4-5.6v-0.7
			C1412.8,926.2,1411.1,924,1408.5,924z"/>
		<path class="st1" d="M1433.7,930.6h-11.2c0,3,1.7,5.3,4.7,5.3c2.1,0,3.4-1.3,4.2-2.8l2.3,1.2c-1.3,2.6-3.5,4-6.5,4
			c-5,0-7.5-3.4-7.5-8.7c0-4.9,2.8-8,7.3-8c4.9,0,6.8,3.5,6.8,7.8C1433.8,929.8,1433.8,930.2,1433.7,930.6z M1426.9,923.7
			c-2.9,0-4.4,2.4-4.4,4.7h8.5C1431.1,925.9,1429.8,923.7,1426.9,923.7z"/>
		<path class="st1" d="M1437.6,929.8c0-4.8,2.4-8.3,7.4-8.3c3.5,0,6.1,2,6.5,5.7l-2.8,0.3c-0.3-2.4-1.6-3.7-3.9-3.7
			c-2.9,0-4.4,2.4-4.4,5.9c0,3.6,1.5,6.1,4.5,6.1c2.3,0,3.6-1.4,4-3.8l2.6,0.4c-0.5,3.3-2.6,5.8-6.5,5.8
			C1440.1,938.3,1437.6,934.6,1437.6,929.8z"/>
		<path class="st1" d="M1469.5,930.6h-11.2c0,3,1.7,5.3,4.7,5.3c2.1,0,3.4-1.3,4.2-2.8l2.3,1.2c-1.3,2.6-3.5,4-6.5,4
			c-5,0-7.5-3.4-7.5-8.7c0-4.9,2.8-8,7.3-8c4.9,0,6.8,3.5,6.8,7.8C1469.5,929.8,1469.5,930.2,1469.5,930.6z M1462.6,923.7
			c-2.9,0-4.4,2.4-4.4,4.7h8.5C1466.8,925.9,1465.5,923.7,1462.6,923.7z"/>
		<path class="st1" d="M1474.8,935.7h5.1v-11.5h-4.6V922h7.3v13.7h5.4v2.2h-13.2V935.7z M1482.9,918.8h-3.8V915h3.8V918.8z"/>
		<path class="st1" d="M1490.7,922h2.8l4.2,10.9c0.3,0.8,0.6,1.6,0.8,2.3h0.1c0.2-0.7,0.4-1.5,0.7-2.3l4.3-10.9h2.8l-6.4,15.9h-2.9
			L1490.7,922z"/>
		<path class="st1" d="M1523,930.6h-11.2c0,3,1.7,5.3,4.7,5.3c2.1,0,3.4-1.3,4.2-2.8l2.3,1.2c-1.3,2.6-3.5,4-6.5,4
			c-5,0-7.5-3.4-7.5-8.7c0-4.9,2.8-8,7.3-8c4.9,0,6.8,3.5,6.8,7.8C1523.1,929.8,1523.1,930.2,1523,930.6z M1516.2,923.7
			c-2.9,0-4.4,2.4-4.4,4.7h8.5C1520.4,925.9,1519.1,923.7,1516.2,923.7z"/>
		<path class="st1" d="M1546.2,935.7h5.1v-11.5h-4.6V922h7.3v13.7h5.4v2.2h-13.2V935.7z M1554.3,918.8h-3.8V915h3.8V918.8z"/>
		<path class="st1" d="M1571.2,921.6c1.3,0,2.8,0.4,3.9,1.4c1.1,1,1.5,2.5,1.5,5.1v9.9h-2.7v-9.7c0-3.5-1.7-4.2-3.3-4.2
			c-3.6,0-4.5,3.3-4.5,5.6v8.3h-2.7V922h2.6v3.2C1566.7,923.1,1568.5,921.6,1571.2,921.6z"/>
		<path class="st1" d="M1589,921.6c1.3,0,2.8,0.4,3.9,1.4c1.1,1,1.5,2.5,1.5,5.1v9.9h-2.7v-9.7c0-3.5-1.7-4.2-3.3-4.2
			c-3.6,0-4.5,3.3-4.5,5.6v8.3h-2.7V922h2.6v3.2C1584.6,923.1,1586.4,921.6,1589,921.6z"/>
		<path class="st1" d="M1598.2,929.9c0-5.1,3-8.4,7.4-8.4c4.5,0,7.4,3.3,7.4,8.4s-3,8.4-7.4,8.4
			C1601.2,938.3,1598.2,935,1598.2,929.9z M1610.2,929.9c0-3.7-1.7-6-4.6-6s-4.6,2.2-4.6,6s1.7,6,4.6,6S1610.2,933.7,1610.2,929.9z"
			/>
		<path class="st1" d="M1616.2,929.8c0-4.8,2.4-8.3,7.4-8.3c3.5,0,6.1,2,6.5,5.7l-2.8,0.3c-0.3-2.4-1.6-3.7-3.9-3.7
			c-2.9,0-4.4,2.4-4.4,5.9c0,3.6,1.5,6.1,4.5,6.1c2.3,0,3.6-1.4,4-3.8l2.6,0.4c-0.5,3.3-2.6,5.8-6.5,5.8
			C1618.7,938.3,1616.2,934.6,1616.2,929.8z"/>
		<path class="st1" d="M1648,930.6h-11.2c0,3,1.7,5.3,4.7,5.3c2.1,0,3.4-1.3,4.2-2.8l2.3,1.2c-1.3,2.6-3.5,4-6.5,4
			c-5,0-7.5-3.4-7.5-8.7c0-4.9,2.8-8,7.3-8c4.9,0,6.8,3.5,6.8,7.8C1648.1,929.8,1648.1,930.2,1648,930.6z M1641.2,923.7
			c-2.9,0-4.4,2.4-4.4,4.7h8.5C1645.3,925.9,1644.1,923.7,1641.2,923.7z"/>
		<path class="st1" d="M1660.5,921.6c1.3,0,2.8,0.4,3.9,1.4c1.1,1,1.5,2.5,1.5,5.1v9.9h-2.7v-9.7c0-3.5-1.7-4.2-3.3-4.2
			c-3.6,0-4.5,3.3-4.5,5.6v8.3h-2.7V922h2.6v3.2C1656,923.1,1657.8,921.6,1660.5,921.6z"/>
		<path class="st1" d="M1670,922h4.6v-4.2l2.7-1.1v5.3h6.2v2.2h-6.2v8.3c0,2.1,1,3.2,3.1,3.2c1.1,0,2.2-0.1,3.2-0.3v2.5
			c-0.8,0.2-1.7,0.4-3.1,0.4c-4,0-5.8-2.2-5.8-5.4v-8.6h-4.6V922z"/>
		<path class="st1" d="M1709.1,924.9c0.8-1.8,2.7-3.3,5-3.3c4.2,0,6.6,3.5,6.6,8.3c0,5-2.6,8.4-6.8,8.4c-2,0-4-1.2-4.7-2.9v8.7h-2.7
			V922h2.6V924.9z M1713.5,935.9c2.8,0,4.4-2.4,4.4-6c0-3.5-1.5-5.9-4.3-5.9c-2.7,0-4.4,2.1-4.4,5.5v0.8
			C1709.1,933.7,1710.8,935.9,1713.5,935.9z"/>
		<path class="st1" d="M1737.3,930.6h-11.2c0,3,1.7,5.3,4.7,5.3c2.1,0,3.4-1.3,4.2-2.8l2.3,1.2c-1.3,2.6-3.5,4-6.5,4
			c-5,0-7.5-3.4-7.5-8.7c0-4.9,2.8-8,7.3-8c4.9,0,6.8,3.5,6.8,7.8C1737.4,929.8,1737.3,930.2,1737.3,930.6z M1730.5,923.7
			c-2.9,0-4.4,2.4-4.4,4.7h8.5C1734.6,925.9,1733.4,923.7,1730.5,923.7z"/>
		<path class="st1" d="M1741.1,929.9c0-5.1,3-8.4,7.4-8.4c4.5,0,7.4,3.3,7.4,8.4s-3,8.4-7.4,8.4
			C1744.1,938.3,1741.1,935,1741.1,929.9z M1753.1,929.9c0-3.7-1.7-6-4.6-6s-4.6,2.2-4.6,6s1.7,6,4.6,6S1753.1,933.7,1753.1,929.9z"
			/>
		<path class="st1" d="M1762.6,924.9c0.8-1.8,2.7-3.3,5-3.3c4.2,0,6.6,3.5,6.6,8.3c0,5-2.6,8.4-6.8,8.4c-2,0-4-1.2-4.7-2.9v8.7h-2.7
			V922h2.6V924.9z M1767,935.9c2.8,0,4.4-2.4,4.4-6c0-3.5-1.5-5.9-4.3-5.9c-2.7,0-4.4,2.1-4.4,5.5v0.8
			C1762.7,933.7,1764.3,935.9,1767,935.9z"/>
		<path class="st1" d="M1778.3,935.7h5.1V917h-4.8v-2.2h7.5v20.9h5.4v2.2h-13.2V935.7z"/>
		<path class="st1" d="M1808.7,930.6h-11.2c0,3,1.7,5.3,4.7,5.3c2.1,0,3.4-1.3,4.2-2.8l2.3,1.2c-1.3,2.6-3.5,4-6.5,4
			c-5,0-7.5-3.4-7.5-8.7c0-4.9,2.8-8,7.3-8c4.9,0,6.8,3.5,6.8,7.8C1808.8,929.8,1808.8,930.2,1808.7,930.6z M1801.9,923.7
			c-2.9,0-4.4,2.4-4.4,4.7h8.5C1806.1,925.9,1804.8,923.7,1801.9,923.7z"/>
		<path class="st1" d="M1349.8,978.4h5.1v-11.5h-4.6v-2.2h7.3v13.7h5.4v2.2h-13.2V978.4z M1357.9,961.5h-3.8v-3.8h3.8V961.5z"/>
		<path class="st1" d="M1374.8,964.3c1.3,0,2.8,0.4,3.9,1.4c1.1,1,1.5,2.5,1.5,5.1v9.9h-2.7v-9.7c0-3.5-1.7-4.2-3.3-4.2
			c-3.6,0-4.5,3.3-4.5,5.6v8.3h-2.7v-15.9h2.6v3.2C1370.3,965.8,1372.1,964.3,1374.8,964.3z"/>
		<path class="st1" d="M1384.3,964.6h4.6v-4.2l2.7-1.1v5.3h6.2v2.2h-6.2v8.3c0,2.1,1,3.2,3.1,3.2c1.1,0,2.2-0.1,3.2-0.3v2.5
			c-0.8,0.2-1.7,0.4-3.1,0.4c-4,0-5.8-2.2-5.8-5.4v-8.6h-4.6V964.6z"/>
		<path class="st1" d="M1401.8,972.6c0-5.1,3-8.4,7.4-8.4c4.5,0,7.4,3.3,7.4,8.4s-3,8.4-7.4,8.4
			C1404.8,981,1401.8,977.6,1401.8,972.6z M1413.8,972.6c0-3.7-1.7-6-4.6-6c-2.9,0-4.6,2.2-4.6,6s1.7,6,4.6,6
			C1412.1,978.6,1413.8,976.4,1413.8,972.6z"/>
		<path class="st1" d="M1449.4,965.9c0.9,0.9,1.4,2.2,1.4,3.7c0,3.3-2.4,5.5-6,5.5c-1.1,0-2.1-0.2-3-0.6c-0.7,0.3-1.1,0.9-1.1,1.6
			c0,1,0.8,1.6,2.6,1.6h4.1c3.3,0,5.2,1.6,5.2,4.3c0,3.3-2.9,5.2-7.9,5.2c-4.5,0-7.2-1.6-7.2-4.1c0-1.7,1.1-3,2.8-3.6
			c-1.3-0.5-2-1.5-2-2.8c0-1.5,0.8-2.6,2.3-3.1c-1-0.9-1.6-2.3-1.6-3.9c0-3.3,2.4-5.5,5.9-5.5c1.2,0,2.2,0.3,3.1,0.7
			c0.6-1.9,1.9-2.9,3.9-2.9c0.4,0,0.7,0,1,0.1v2.4c-0.5-0.1-0.8-0.1-1.2-0.1C1450.6,964.4,1449.8,964.9,1449.4,965.9z M1443.3,980
			c-0.5,0-0.9,0-1.3-0.1c-1.1,0.5-1.7,1.3-1.7,2.4c0,1.7,1.6,2.6,4.8,2.6c3.4,0,4.9-1,4.9-2.7c0-1.4-1-2.2-3.1-2.2H1443.3z
			 M1448.3,969.6c0-1.9-1.4-3.3-3.3-3.3c-2,0-3.3,1.4-3.3,3.4c0,1.9,1.3,3.3,3.3,3.3C1446.9,973,1448.3,971.6,1448.3,969.6z"/>
		<path class="st1" d="M1456.9,978.4h5.1v-11.5h-4.6v-2.2h7.3v13.7h5.4v2.2h-13.2V978.4z M1465,961.5h-3.8v-3.8h3.8V961.5z"/>
		<path class="st1" d="M1472.8,964.6h2.8l4.2,10.9c0.3,0.8,0.6,1.6,0.8,2.3h0.1c0.2-0.7,0.4-1.5,0.7-2.3l4.3-10.9h2.8l-6.4,15.9
			h-2.9L1472.8,964.6z"/>
		<path class="st1" d="M1492.6,978.4h5.1v-11.5h-4.6v-2.2h7.3v13.7h5.4v2.2h-13.2V978.4z M1500.7,961.5h-3.8v-3.8h3.8V961.5z"/>
		<path class="st1" d="M1517.6,964.3c1.3,0,2.8,0.4,3.9,1.4c1.1,1,1.5,2.5,1.5,5.1v9.9h-2.7v-9.7c0-3.5-1.7-4.2-3.3-4.2
			c-3.6,0-4.5,3.3-4.5,5.6v8.3h-2.7v-15.9h2.6v3.2C1513.2,965.8,1514.9,964.3,1517.6,964.3z"/>
		<path class="st1" d="M1538.7,965.9c0.9,0.9,1.4,2.2,1.4,3.7c0,3.3-2.4,5.5-6,5.5c-1.1,0-2.1-0.2-3-0.6c-0.7,0.3-1.1,0.9-1.1,1.6
			c0,1,0.8,1.6,2.6,1.6h4.1c3.3,0,5.2,1.6,5.2,4.3c0,3.3-2.9,5.2-7.9,5.2c-4.5,0-7.2-1.6-7.2-4.1c0-1.7,1.1-3,2.8-3.6
			c-1.3-0.5-2-1.5-2-2.8c0-1.5,0.8-2.6,2.3-3.1c-1-0.9-1.6-2.3-1.6-3.9c0-3.3,2.4-5.5,5.9-5.5c1.2,0,2.2,0.3,3.1,0.7
			c0.6-1.9,1.9-2.9,3.9-2.9c0.4,0,0.7,0,1,0.1v2.4c-0.5-0.1-0.8-0.1-1.2-0.1C1539.9,964.4,1539.1,964.9,1538.7,965.9z M1532.6,980
			c-0.5,0-0.9,0-1.3-0.1c-1.1,0.5-1.7,1.3-1.7,2.4c0,1.7,1.6,2.6,4.8,2.6c3.4,0,4.9-1,4.9-2.7c0-1.4-1-2.2-3.1-2.2H1532.6z
			 M1537.6,969.6c0-1.9-1.4-3.3-3.3-3.3c-2,0-3.3,1.4-3.3,3.4c0,1.9,1.3,3.3,3.3,3.3C1536.1,973,1537.6,971.6,1537.6,969.6z"/>
		<path class="st1" d="M1567.5,964.3c1.6,0,2.8,1.1,3.3,2.9c0.8-1.8,2.2-2.9,3.8-2.9c2,0,3.8,1.4,3.8,4.8v11.6h-2.7v-11.4
			c0-2-1-2.6-1.9-2.6c-1.9,0-2.6,1.4-2.6,3.4v10.6h-2.6v-11.4c0-1.9-0.9-2.6-1.9-2.6c-1.9,0-2.5,1.5-2.5,3.4v10.6h-2.7v-15.9h2.6
			v2.5C1564.7,965.4,1565.9,964.3,1567.5,964.3z"/>
		<path class="st1" d="M1580.4,972.6c0-5.1,3-8.4,7.4-8.4c4.5,0,7.4,3.3,7.4,8.4s-3,8.4-7.4,8.4
			C1583.4,981,1580.4,977.6,1580.4,972.6z M1592.4,972.6c0-3.7-1.7-6-4.6-6s-4.6,2.2-4.6,6s1.7,6,4.6,6S1592.4,976.4,1592.4,972.6z"
			/>
		<path class="st1" d="M1606.9,964.3c1.3,0,2.8,0.4,3.9,1.4c1.1,1,1.5,2.5,1.5,5.1v9.9h-2.7v-9.7c0-3.5-1.7-4.2-3.3-4.2
			c-3.6,0-4.5,3.3-4.5,5.6v8.3h-2.7v-15.9h2.6v3.2C1602.5,965.8,1604.2,964.3,1606.9,964.3z"/>
		<path class="st1" d="M1630.2,973.3H1619c0,3,1.7,5.3,4.7,5.3c2.1,0,3.4-1.3,4.2-2.8l2.3,1.2c-1.3,2.6-3.5,4-6.5,4
			c-5,0-7.5-3.4-7.5-8.7c0-4.9,2.8-8,7.3-8c4.9,0,6.8,3.5,6.8,7.8C1630.2,972.5,1630.2,972.9,1630.2,973.3z M1623.3,966.4
			c-2.9,0-4.4,2.4-4.4,4.7h8.5C1627.5,968.5,1626.2,966.4,1623.3,966.4z"/>
		<path class="st1" d="M1641.6,977.4l4.4-12.8h2.9l-6.4,17c-1.5,4.1-3.4,5.4-6.1,5.4c-0.5,0-1,0-1.5-0.1v-2.4c0.4,0,0.8,0.1,1.1,0.1
			c1.9,0,2.9-0.9,3.7-3l0.4-1.2l-6.2-15.8h3.1L1641.6,977.4z"/>
		<path class="st1" d="M1683.7,980.6h-2.8c-0.1-0.9-0.2-1.9-0.3-2.9c-1.1,2.2-2.8,3.3-5.4,3.3c-3.2,0-5.4-1.9-5.4-4.7
			c0-1.7,0.8-2.9,2.2-3.8c1.1-0.6,2.8-1,5.4-1.3l2.9-0.4v-0.3c0-2.8-1.1-4.1-3.4-4.1c-2.3,0-3.6,1.1-3.7,3.2h-2.9
			c0.3-3.4,2.8-5.4,6.8-5.4c4.1,0,6,2,6,6.6v4.3C1683.1,977.8,1683.3,979.4,1683.7,980.6z M1676.6,973.4c-2.8,0.4-3.9,1.2-3.9,2.8
			c0,1.6,1.1,2.6,3,2.6c2.9,0,4.7-2,4.7-5.1v-0.8L1676.6,973.4z"/>
		<path class="st1" d="M1688.8,964.6l1.6,10.9l0.3,2.3h0.2c0.1-0.7,0.2-1.2,0.5-2.7l2.1-10.5h2.8l2.1,10.5c0.3,1.4,0.4,1.9,0.5,2.7
			h0.2l0.3-2.3l1.6-10.9h2.8l-3.1,15.9h-3.4l-2.1-10.3c-0.1-0.6-0.3-2-0.3-2.6h-0.2c0,0.6-0.2,2-0.3,2.6l-2.1,10.3h-3.4l-3.1-15.9
			H1688.8z"/>
		<path class="st1" d="M1719.4,980.6h-2.8c-0.1-0.9-0.2-1.9-0.3-2.9c-1.1,2.2-2.8,3.3-5.4,3.3c-3.2,0-5.4-1.9-5.4-4.7
			c0-1.7,0.8-2.9,2.2-3.8c1.1-0.6,2.8-1,5.4-1.3l2.9-0.4v-0.3c0-2.8-1.1-4.1-3.4-4.1c-2.3,0-3.6,1.1-3.7,3.2h-2.9
			c0.3-3.4,2.8-5.4,6.8-5.4c4.1,0,6,2,6,6.6v4.3C1718.8,977.8,1719,979.4,1719.4,980.6z M1712.3,973.4c-2.8,0.4-3.9,1.2-3.9,2.8
			c0,1.6,1.1,2.6,3,2.6c2.9,0,4.7-2,4.7-5.1v-0.8L1712.3,973.4z"/>
		<path class="st1" d="M1730.9,977.4l4.4-12.8h2.9l-6.4,17c-1.5,4.1-3.4,5.4-6.1,5.4c-0.5,0-1,0-1.5-0.1v-2.4c0.4,0,0.8,0.1,1.1,0.1
			c1.9,0,2.9-0.9,3.7-3l0.4-1.2l-6.2-15.8h3.1L1730.9,977.4z"/>
		<path class="st1" d="M1759.3,964.6h4.6v-4.2l2.7-1.1v5.3h6.2v2.2h-6.2v8.3c0,2.1,1,3.2,3.1,3.2c1.1,0,2.2-0.1,3.2-0.3v2.5
			c-0.8,0.2-1.7,0.4-3.1,0.4c-4,0-5.8-2.2-5.8-5.4v-8.6h-4.6V964.6z"/>
		<path class="st1" d="M1776.8,972.6c0-5.1,3-8.4,7.4-8.4c4.5,0,7.4,3.3,7.4,8.4s-3,8.4-7.4,8.4
			C1779.8,981,1776.8,977.6,1776.8,972.6z M1788.8,972.6c0-3.7-1.7-6-4.6-6c-2.9,0-4.6,2.2-4.6,6s1.7,6,4.6,6
			C1787.1,978.6,1788.8,976.4,1788.8,972.6z"/>
		<path class="st1" d="M1348.6,1007.3h4.6v-4.2l2.7-1.1v5.3h6.2v2.2h-6.2v8.3c0,2.1,1,3.2,3.1,3.2c1.1,0,2.2-0.1,3.2-0.3v2.5
			c-0.8,0.2-1.7,0.4-3.1,0.4c-4,0-5.8-2.2-5.8-5.4v-8.6h-4.6V1007.3z"/>
		<path class="st1" d="M1374.7,1006.9c1.3,0,2.8,0.4,3.9,1.4c1,1,1.6,2.5,1.6,5.1v9.9h-2.7v-9.7c0-3.5-1.8-4.2-3.4-4.2
			c-3.5,0-4.3,3.3-4.3,5.6v8.3h-2.7v-23.1h2.7v10.1C1370.4,1008.3,1372.4,1006.9,1374.7,1006.9z"/>
		<path class="st1" d="M1398,1016h-11.2c0,3,1.7,5.3,4.7,5.3c2.1,0,3.4-1.3,4.2-2.8l2.3,1.2c-1.3,2.6-3.5,4-6.5,4
			c-5,0-7.5-3.4-7.5-8.7c0-4.9,2.8-8,7.3-8c4.9,0,6.8,3.5,6.8,7.8C1398.1,1015.2,1398.1,1015.6,1398,1016z M1391.2,1009
			c-2.9,0-4.4,2.4-4.4,4.7h8.5C1395.4,1011.2,1394.1,1009,1391.2,1009z"/>
		<path class="st1" d="M1402.8,1018.4l2.7-0.5c0.4,2.3,1.9,3.5,4.3,3.5c2.1,0,3.3-0.9,3.3-2.4c0-1.6-0.8-2.3-2.6-2.5l-2.6-0.3
			c-3.2-0.4-4.7-2.1-4.7-4.6c0-2.9,2.3-4.7,6.1-4.7c3.6,0,6.1,1.9,6.4,4.8l-2.7,0.6c-0.4-1.9-1.7-3.3-3.8-3.3
			c-2.1,0-3.3,0.9-3.3,2.4c0,1.4,0.9,2.2,2.9,2.4l2.6,0.3c3.2,0.4,4.4,2,4.4,4.5c0,3-2.2,4.9-6.1,4.9
			C1405.8,1023.7,1403.3,1021.8,1402.8,1018.4z"/>
		<path class="st1" d="M1433.7,1016h-11.2c0,3,1.7,5.3,4.7,5.3c2.1,0,3.4-1.3,4.2-2.8l2.3,1.2c-1.3,2.6-3.5,4-6.5,4
			c-5,0-7.5-3.4-7.5-8.7c0-4.9,2.8-8,7.3-8c4.9,0,6.8,3.5,6.8,7.8C1433.8,1015.2,1433.8,1015.6,1433.7,1016z M1426.9,1009
			c-2.9,0-4.4,2.4-4.4,4.7h8.5C1431.1,1011.2,1429.8,1009,1426.9,1009z"/>
		<path class="st1" d="M1455.5,1015.2c0-4.8,2.4-8.3,7.4-8.3c3.5,0,6.1,2,6.5,5.7l-2.8,0.3c-0.3-2.4-1.6-3.7-3.9-3.7
			c-2.9,0-4.4,2.4-4.4,5.9c0,3.6,1.5,6.1,4.5,6.1c2.3,0,3.6-1.4,4-3.8l2.6,0.4c-0.5,3.3-2.6,5.8-6.5,5.8
			C1458,1023.7,1455.5,1020,1455.5,1015.2z"/>
		<path class="st1" d="M1473.3,1015.3c0-5.1,3-8.4,7.4-8.4c4.5,0,7.4,3.3,7.4,8.4s-3,8.4-7.4,8.4
			C1476.2,1023.7,1473.3,1020.3,1473.3,1015.3z M1485.2,1015.3c0-3.7-1.7-6-4.6-6s-4.6,2.2-4.6,6s1.7,6,4.6,6
			S1485.2,1019.1,1485.2,1015.3z"/>
		<path class="st1" d="M1496.1,1006.9c1.6,0,2.8,1.1,3.3,2.9c0.8-1.8,2.2-2.9,3.8-2.9c2,0,3.8,1.4,3.8,4.8v11.6h-2.7v-11.4
			c0-2-1-2.6-1.9-2.6c-1.9,0-2.6,1.4-2.6,3.4v10.6h-2.6v-11.4c0-1.9-0.9-2.6-1.9-2.6c-1.9,0-2.5,1.5-2.5,3.4v10.6h-2.7v-15.9h2.6
			v2.5C1493.3,1008.1,1494.5,1006.9,1496.1,1006.9z"/>
		<path class="st1" d="M1512.6,1010.3c0.8-1.8,2.7-3.3,5-3.3c4.2,0,6.6,3.5,6.6,8.3c0,5-2.6,8.4-6.8,8.4c-2,0-4-1.2-4.7-2.9v8.7
			h-2.7v-22.2h2.6V1010.3z M1517,1021.3c2.8,0,4.4-2.4,4.4-6c0-3.5-1.5-5.9-4.3-5.9c-2.7,0-4.4,2.1-4.4,5.5v0.8
			C1512.7,1019,1514.4,1021.3,1517,1021.3z"/>
		<path class="st1" d="M1540.8,1023.3h-2.8c-0.1-0.9-0.2-1.9-0.3-2.9c-1.1,2.2-2.8,3.3-5.4,3.3c-3.2,0-5.4-1.9-5.4-4.7
			c0-1.7,0.8-2.9,2.2-3.8c1.1-0.6,2.8-1,5.4-1.3l2.9-0.4v-0.3c0-2.8-1.1-4.1-3.4-4.1c-2.3,0-3.6,1.1-3.7,3.2h-2.9
			c0.3-3.4,2.8-5.4,6.8-5.4c4.1,0,6,2,6,6.6v4.3C1540.3,1020.4,1540.4,1022.1,1540.8,1023.3z M1533.8,1016c-2.8,0.4-3.9,1.2-3.9,2.8
			c0,1.6,1.1,2.6,3,2.6c2.9,0,4.7-2,4.7-5.1v-0.8L1533.8,1016z"/>
		<path class="st1" d="M1553.3,1006.9c1.3,0,2.8,0.4,3.9,1.4c1.1,1,1.5,2.5,1.5,5.1v9.9h-2.7v-9.7c0-3.5-1.7-4.2-3.3-4.2
			c-3.6,0-4.5,3.3-4.5,5.6v8.3h-2.7v-15.9h2.6v3.2C1548.9,1008.5,1550.6,1006.9,1553.3,1006.9z"/>
		<path class="st1" d="M1564.1,1021h5.1v-11.5h-4.6v-2.2h7.3v13.7h5.4v2.2h-13.2V1021z M1572.2,1004.1h-3.8v-3.8h3.8V1004.1z"/>
		<path class="st1" d="M1594.5,1016h-11.2c0,3,1.7,5.3,4.7,5.3c2.1,0,3.4-1.3,4.2-2.8l2.3,1.2c-1.3,2.6-3.5,4-6.5,4
			c-5,0-7.5-3.4-7.5-8.7c0-4.9,2.8-8,7.3-8c4.9,0,6.8,3.5,6.8,7.8C1594.5,1015.2,1594.5,1015.6,1594.5,1016z M1587.6,1009
			c-2.9,0-4.4,2.4-4.4,4.7h8.5C1591.8,1011.2,1590.5,1009,1587.6,1009z"/>
		<path class="st1" d="M1599.2,1018.4l2.7-0.5c0.4,2.3,1.9,3.5,4.3,3.5c2.1,0,3.3-0.9,3.3-2.4c0-1.6-0.8-2.3-2.6-2.5l-2.6-0.3
			c-3.2-0.4-4.7-2.1-4.7-4.6c0-2.9,2.3-4.7,6.1-4.7c3.6,0,6.1,1.9,6.4,4.8l-2.7,0.6c-0.4-1.9-1.7-3.3-3.8-3.3
			c-2.1,0-3.3,0.9-3.3,2.4c0,1.4,0.9,2.2,2.9,2.4l2.6,0.3c3.2,0.4,4.4,2,4.4,4.5c0,3-2.2,4.9-6.1,4.9
			C1602.3,1023.7,1599.7,1021.8,1599.2,1018.4z"/>
		<path class="st1" d="M1625.6,1023.3h-4.2v-4.1h4.2V1023.3z"/>
	</g>
</g>
<path class="st0" d="M1898.1,269.5h-542.5c-18.7,0-33.9-15.2-33.9-33.9V116.7c0-18.7,15.2-33.9,33.9-33.9h542.5
	c18.7,0,33.9,15.2,33.9,33.9v118.8C1932.1,254.3,1916.9,269.5,1898.1,269.5z"/>
<g>
	<g>
		<path class="st1" d="M1349.3,143.4c0-7.3,1.9-12.9,5.8-16.9c3.9-3.9,9.4-5.9,16.7-5.9h97.5c7.3,0,12.9,2,17,5.9
			c4,3.9,6,9.6,6,16.9v67.4c0,2.5,0.7,4.4,2,5.7c1.3,1.3,3.2,2,5.7,2h3.9c2.5,0,4.4-0.7,5.7-2c1.3-1.3,2-3.3,2-5.7v-67.4
			c0-7.3,1.9-12.9,5.8-16.9c3.9-3.9,9.5-5.9,16.9-5.9h36.6c7.3,0,12.9,2,16.7,5.9c3.9,3.9,5.8,9.6,5.8,16.9v72.5
			c0,7.3-1.9,12.9-5.8,16.9c-3.9,3.9-9.4,5.9-16.7,5.9h-97.5c-7.3,0-12.9-2-17-5.9c-4-3.9-6-9.6-6-16.9v-67.4c0-2.5-0.7-4.4-2-5.7
			c-1.3-1.3-3.2-2-5.7-2h-3.9c-2.5,0-4.4,0.7-5.7,2c-1.3,1.3-2,3.3-2,5.7v67.4c0,7.3-1.9,12.9-5.8,16.9c-3.9,3.9-9.5,5.9-16.9,5.9
			h-36.6c-7.3,0-12.9-2-16.7-5.9c-3.9-3.9-5.8-9.6-5.8-16.9V143.4z"/>
		<path class="st1" d="M1605.9,144.2c0-7.6,2-13.5,6-17.5s9.9-6.1,17.5-6.1h136.6c7.6,0,13.4,2,17.5,6.1s6,9.9,6,17.5V215
			c0,7.6-2,13.5-6,17.5s-9.9,6.1-17.5,6.1h-136.6c-7.6,0-13.4-2-17.5-6.1s-6-9.9-6-17.5V144.2z M1687.9,210.6c0,2.5,0.7,4.4,2.1,5.8
			c1.4,1.4,3.3,2.1,5.8,2.1h3.9c2.5,0,4.4-0.7,5.8-2.1c1.4-1.4,2.1-3.3,2.1-5.8v-62c0-2.5-0.7-4.4-2.1-5.8c-1.4-1.4-3.3-2.1-5.8-2.1
			h-3.9c-2.5,0-4.4,0.7-5.8,2.1c-1.4,1.4-2.1,3.3-2.1,5.8V210.6z"/>
		<path class="st1" d="M1802,143.4c0-7.3,1.9-12.9,5.8-16.9c3.9-3.9,9.4-5.9,16.7-5.9h36.6c7.4,0,13,2,16.9,5.9
			c3.9,3.9,5.8,9.6,5.8,16.9v41c0,7.4-1.9,13.1-5.8,16.9s-9.5,5.8-16.9,5.8h-36.6c-7.2,0-12.7-1.9-16.6-5.8
			c-3.9-3.9-5.9-9.5-5.9-16.9V143.4z M1808.6,238.6c-2.1,0-3.8-0.6-4.9-1.8c-1.1-1.2-1.7-2.8-1.7-4.8v-10.8c0-2.1,0.6-3.8,1.7-4.9
			c1.1-1.1,2.7-1.7,4.9-1.7h68.7c2.1,0,3.8,0.6,4.9,1.7c1.1,1.1,1.7,2.8,1.7,4.9v10.8c0,2-0.6,3.6-1.7,4.8c-1.1,1.2-2.7,1.8-4.9,1.8
			H1808.6z"/>
	</g>
</g>
<g>
	
		<image style="overflow:visible;opacity:0.52;" width="1165" height="1559" xlink:href="C1B6E4166F11FF88.png"  transform="matrix(1 0 0 1 -13 188.483)">
	</image>
	<g>
		<path class="st1" d="M1041.1,902L918,944.3V744.6h24.6c98.1,0,177.7-79.6,177.7-177.7s-79.6-177.7-177.7-177.7H918h-1.2h-70.6
			l-11.3-43.5c24-7.3,41.5-29.6,41.5-56c0-22.5-11.4-41.1-27.8-49.3l0.7-0.7c4.1-5.5,6.9-13.8,7.1-19.4c0.2-7.3-8.8-9.3-11.4-2.5
			c0,0,1.3-7.6-3.3-9.1c-6.5-2.2-9.6,4.5-9.6,4.5c0.2-7.3-10.2-9.3-12.8-2.5c0,0,0,0.1,0,0.1c-1.9,5.2-4.3,17.5-20,23.2
			c0,0-40,10-40,55.7c0,26.6,17.8,49.1,42.1,56.2l-11.2,43.3h-99.8h-25.8c-98.1,0-177.7,79.6-177.7,177.7s79.6,177.7,177.7,177.7
			h25.8v277.9L4.9,1257.8v457.7l1056.7-774C1082.5,926.3,1065.5,893.6,1041.1,902z M690.4,642.5h-20.8c-38.7,0-70.1-31.4-70.1-70.1
			c0-38.7,31.4-70.1,70.1-70.1h20.8V642.5z M937.6,502.4c38.7,0,70.1,31.4,70.1,70.1c0,38.7-31.4,70.1-70.1,70.1H918V502.4H937.6z"
			/>
	</g>
</g>
<g>
	<path class="st2" d="M658,916.7c1.1-39.4-34.4-100-96.1-33.7"/>
	<path class="st2" d="M562.9,881.6c16-36,6.4-105.5-76-67.8"/>
	<path class="st2" d="M486.9,812.8c21.3-33.2,22.2-103.4-64.9-78.5"/>
	<path class="st2" d="M421.6,733.7c28-27.8,44.2-96-46.2-90.8"/>
</g>
<g>
	<path class="st2" d="M657.9,184.8c1.5,39.4-33.4,100.3-95.8,34.7"/>
	<path class="st2" d="M563.1,220.8c16.4,35.9,7.4,105.5-75.3,68.6"/>
	<path class="st2" d="M487.8,290.4c21.6,33,23.2,103.1-64.1,79.1"/>
	<path class="st2" d="M423.2,370.1c28.3,27.5,45.1,95.6-45.3,91.2"/>
</g>
<g>
	<path class="st2" d="M950.5,905.8c-1.1-39.4,34.4-100,96.1-33.7"/>
	<path class="st2" d="M1045.7,870.7c-16-36-6.4-105.5,76-67.8"/>
	<path class="st2" d="M1121.6,801.9c-21.3-33.2-22.2-103.4,64.9-78.5"/>
	<path class="st2" d="M1187,722.8c-28-27.8-44.2-96,46.2-90.8"/>
</g>
<g>
	<path class="st2" d="M950.7,184.8c-1.5,39.4,33.4,100.3,95.8,34.7"/>
	<path class="st2" d="M1045.5,220.8c-16.4,35.9-7.4,105.5,75.3,68.6"/>
	<path class="st2" d="M1120.8,290.4c-21.6,33-23.2,103.1,64.1,79.1"/>
	<path class="st2" d="M1185.3,370.1c-28.3,27.5-45.1,95.6,45.3,91.2"/>
</g>
<g>
	<line class="st2" x1="1395.5" y1="1653.2" x2="1890.8" y2="1653.2"/>
	<path class="st2" d="M1437.3,1653.2v-123.4c0-49.4,40-89.4,89.4-89.4h228.7c49.4,0,89.4,40,89.4,89.4v123.4"/>
	<line class="st2" x1="1517.8" y1="1564.4" x2="1517.8" y2="1653.2"/>
	<line class="st2" x1="1562.8" y1="1440.3" x2="1562.8" y2="1653.2"/>
	<line class="st2" x1="1594.1" y1="1440.3" x2="1594.1" y2="1653.2"/>
	<line class="st2" x1="1773.9" y1="1564.4" x2="1773.9" y2="1653.2"/>
	<line class="st2" x1="1728.9" y1="1440.3" x2="1728.9" y2="1653.2"/>
	<line class="st2" x1="1697.6" y1="1440.3" x2="1697.6" y2="1653.2"/>
	<circle class="st2" cx="1643.7" cy="1306.3" r="73.7"/>
	<line class="st2" x1="1622.1" y1="1376.8" x2="1606.6" y2="1440.3"/>
	<line class="st2" x1="1663.4" y1="1376.8" x2="1678.9" y2="1440.3"/>
	<ellipse class="st3" cx="1601.9" cy="1339.4" rx="7.5" ry="13.9"/>
	<line class="st2" x1="1702.2" y1="1351.1" x2="1576.9" y2="1275.3"/>
	<line class="st2" x1="1711.4" y1="1336" x2="1586.2" y2="1260.2"/>
	<polyline class="st2" points="1570.9,1294.9 1551.5,1283.7 1582.2,1233.8 1601.8,1245.8 	"/>
	<path class="st2" d="M1594.4,1225.9c13.9-17.6,42.7-2,27.7,22.7"/>
</g>
</svg>
