<svg width="1256" height="594" viewBox="0 0 1256 594" fill="none" xmlns="http://www.w3.org/2000/svg">
<g clip-path="url(#clip0)">
<path d="M1220.3 592H35.4C16.7 592 1.5 576.8 1.5 558.1V35.4C1.5 16.7 16.7 1.5 35.4 1.5H1220.3C1239 1.5 1254.2 16.7 1254.2 35.4V558C1254.2 576.8 1239 592 1220.3 592Z" stroke="#00BDFF" stroke-width="3" stroke-miterlimit="10" stroke-linecap="round"/>
<path d="M1110.9 465H120.9V523.4H1110.9V465Z" stroke="#00BDFF" stroke-width="3" stroke-miterlimit="10" stroke-linecap="round"/>
<path d="M1111 464.981H1146.8V66.5815H1111V464.981Z" stroke="#00BDFF" stroke-width="3" stroke-miterlimit="10" stroke-linecap="round"/>
<path d="M518.2 323.5V465" stroke="#00BDFF" stroke-width="3" stroke-miterlimit="10" stroke-linecap="round"/>
<path d="M1110.9 66.5996H518.2V195" stroke="#00BDFF" stroke-width="3" stroke-miterlimit="10" stroke-linecap="round"/>
<path d="M749.5 465V523.4" stroke="#00BDFF" stroke-width="3" stroke-miterlimit="10" stroke-linecap="round"/>
<path d="M542.1 195V97H1083.8V436.8H542.1V323.5" stroke="#00BDFF" stroke-width="3" stroke-miterlimit="10" stroke-linecap="round"/>
<path d="M561.6 323.5V436.8" stroke="#00BDFF" stroke-width="3" stroke-miterlimit="10" stroke-linecap="round"/>
<path d="M561.6 97V195" stroke="#00BDFF" stroke-width="3" stroke-miterlimit="10" stroke-linecap="round"/>
<path d="M570.2 220.7H784" stroke="#00BDFF" stroke-width="3" stroke-miterlimit="10" stroke-linecap="round"/>
<path d="M415.3 220.7H503.4" stroke="#00BDFF" stroke-width="3" stroke-miterlimit="10" stroke-linecap="round"/>
<path d="M380.4 220.7H400.5" stroke="#00BDFF" stroke-width="3" stroke-miterlimit="10" stroke-linecap="round"/>
<path d="M512.6 273.9H827.4" stroke="#00BDFF" stroke-width="3" stroke-miterlimit="10" stroke-linecap="round"/>
<path d="M400.5 273.9H497" stroke="#00BDFF" stroke-width="3" stroke-miterlimit="10" stroke-linecap="round"/>
<path d="M338.8 273.9H365.5" stroke="#00BDFF" stroke-width="3" stroke-miterlimit="10" stroke-linecap="round"/>
<path d="M306.5 273.9H325.6" stroke="#00BDFF" stroke-width="3" stroke-miterlimit="10" stroke-linecap="round"/>
<path d="M477 295.6H784" stroke="#00BDFF" stroke-width="3" stroke-miterlimit="10" stroke-linecap="round"/>
<path d="M449.3 295.6H459.4" stroke="#00BDFF" stroke-width="3" stroke-miterlimit="10" stroke-linecap="round"/>
<path d="M449.3 295.6H459.1" stroke="#00BDFF" stroke-width="3" stroke-miterlimit="10" stroke-linecap="round"/>
<path d="M426 295.6H438.8" stroke="#00BDFF" stroke-width="3" stroke-miterlimit="10" stroke-linecap="round"/>
<path d="M741.5 200C753.9 178.8 772.1 165.4 792.3 165.4C829.8 165.4 860.1 211.3 860.1 268C860.1 324.7 829.7 370.6 792.3 370.6C768.9 370.6 748.2 352.7 736 325.4" stroke="#00BDFF" stroke-width="3" stroke-miterlimit="10" stroke-linecap="round"/>
<path d="M810.4 400.5C806 401.5 801.4 402.1 796.8 402.1C773.3 402.1 751.9 388.2 736 365.6" stroke="#00BDFF" stroke-width="3" stroke-miterlimit="10" stroke-linecap="round"/>
<path d="M877 210.7C882.4 228.1 885.5 247.5 885.5 268C885.5 304.5 875.8 337.7 860.1 361.9" stroke="#00BDFF" stroke-width="3" stroke-miterlimit="10" stroke-linecap="round"/>
<path d="M756.5 148.6C768.6 139.2 782.3 133.9 796.9 133.9C805.3 133.9 813.4 135.7 821 138.9" stroke="#00BDFF" stroke-width="3" stroke-miterlimit="10" stroke-linecap="round"/>
<path d="M47.7 523.4H1199.7" stroke="#00BDFF" stroke-width="3" stroke-miterlimit="10" stroke-linecap="round"/>
</g>
<defs>
<clipPath id="clip0">
<rect width="1255.7" height="593.5" fill="white"/>
</clipPath>
</defs>
</svg>
