<svg width="1641" height="914" viewBox="0 0 1641 914" fill="none" xmlns="http://www.w3.org/2000/svg">
<g id="compnay2">
<g id="company2">
<g id="window">
<path id="Vector" d="M588.5 669.5H36.5C17.2 669.5 1.5 653.8 1.5 634.5V107.5C1.5 88.2 17.2 72.5 36.5 72.5H588.5C607.8 72.5 623.5 88.2 623.5 107.5V634.5C623.5 653.8 607.8 669.5 588.5 669.5Z" fill="#D3F3FF" stroke="#00BBFF" stroke-width="3" stroke-miterlimit="10" stroke-linecap="round" stroke-linejoin="round"/>
<path id="Vector_2" d="M1.2002 108H624" stroke="#00BBFF" stroke-width="3" stroke-miterlimit="10"/>
<path id="Vector_3" d="M27.3002 98.4002C23.9002 98.4002 21.2002 95.7002 21.2002 92.3002C21.2002 88.9002 23.9002 86.2002 27.3002 86.2002C30.7002 86.2002 33.4002 88.9002 33.4002 92.3002C33.4002 95.7002 30.7002 98.4002 27.3002 98.4002Z" fill="white"/>
<path id="Vector_4" d="M27.3002 87.7002C29.8002 87.7002 31.9002 89.8002 31.9002 92.3002C31.9002 94.8002 29.8002 96.9002 27.3002 96.9002C24.8002 96.9002 22.7002 94.8002 22.7002 92.3002C22.7002 89.8002 24.7002 87.7002 27.3002 87.7002ZM27.3002 84.7002C23.1002 84.7002 19.7002 88.1002 19.7002 92.3002C19.7002 96.5002 23.1002 99.9002 27.3002 99.9002C31.5002 99.9002 34.9002 96.5002 34.9002 92.3002C34.9002 88.1002 31.5002 84.7002 27.3002 84.7002Z" fill="#00BBFF"/>
<path id="Vector_5" d="M47.6 98.4002C44.2 98.4002 41.5 95.7002 41.5 92.3002C41.5 88.9002 44.2 86.2002 47.6 86.2002C51 86.2002 53.7 88.9002 53.7 92.3002C53.7 95.7002 51 98.4002 47.6 98.4002Z" fill="white"/>
<path id="Vector_6" d="M47.6 87.7002C50.1 87.7002 52.2 89.8002 52.2 92.3002C52.2 94.8002 50.1 96.9002 47.6 96.9002C45.1 96.9002 43 94.9002 43 92.3002C43 89.7002 45.1 87.7002 47.6 87.7002ZM47.6 84.7002C43.4 84.7002 40 88.1002 40 92.3002C40 96.5002 43.4 99.9002 47.6 99.9002C51.8 99.9002 55.2 96.5002 55.2 92.3002C55.2 88.1002 51.8 84.7002 47.6 84.7002Z" fill="#00BBFF"/>
<path id="Vector_7" d="M67.8998 98.4002C64.4998 98.4002 61.7998 95.7002 61.7998 92.3002C61.7998 88.9002 64.4998 86.2002 67.8998 86.2002C71.2998 86.2002 73.9998 88.9002 73.9998 92.3002C73.9998 95.7002 71.2998 98.4002 67.8998 98.4002Z" fill="white"/>
<path id="Vector_8" d="M67.8998 87.7002C70.3998 87.7002 72.4998 89.8002 72.4998 92.3002C72.4998 94.8002 70.3998 96.9002 67.8998 96.9002C65.3998 96.9002 63.2998 94.8002 63.2998 92.3002C63.2998 89.8002 65.3998 87.7002 67.8998 87.7002ZM67.8998 84.7002C63.6998 84.7002 60.2998 88.1002 60.2998 92.3002C60.2998 96.5002 63.6998 99.9002 67.8998 99.9002C72.0998 99.9002 75.4998 96.5002 75.4998 92.3002C75.4998 88.1002 72.0998 84.7002 67.8998 84.7002Z" fill="#00BBFF"/>
<path id="button-hole" d="M540.3 617H73.1002C56.3002 617 42.7002 603.4 42.7002 586.6V569.7C42.7002 552.9 56.3002 539.3 73.1002 539.3H540.3C557.1 539.3 570.7 552.9 570.7 569.7V586.6C570.8 603.4 557.1 617 540.3 617Z" fill="white" stroke="#FF921E" stroke-width="3" stroke-miterlimit="10"/>
</g>
<g id="button">
<path id="Vector_9" d="M540.6 616.7H73.4C56.6 616.7 43 603.1 43 586.3V569.4C43 552.6 56.6 539 73.4 539H540.6C557.4 539 571 552.6 571 569.4V586.3C571.1 603.1 557.5 616.7 540.6 616.7Z" fill="#FF921E"/>
<path id="Vector_10" d="M93 563.6C93 560.9 93.7 558.9 95.1 557.5C96.5 556.1 98.5 555.4 101.2 555.4H113.1C115.7 555.4 117.7 556.1 119.1 557.5C120.5 558.9 121.2 560.9 121.2 563.6V593.1C121.2 595.8 120.5 597.8 119.1 599.2C117.7 600.6 115.7 601.3 113.1 601.3H101.2C98.5 601.3 96.5 600.6 95.1 599.2C93.7 597.8 93 595.8 93 593.1V563.6Z" fill="white"/>
<path id="Vector_11" d="M125.4 563.6C125.4 560.9 126.1 558.9 127.5 557.5C128.9 556.1 130.9 555.4 133.6 555.4H166.6C169.3 555.4 171.3 556.1 172.8 557.5C174.3 558.9 175 560.9 175 563.6V591.4C175 592.3 175.2 592.9 175.7 593.4C176.2 593.9 176.9 594.1 177.7 594.1H178.9C179.8 594.1 180.4 593.9 180.9 593.4C181.4 592.9 181.6 592.2 181.6 591.4V563.6C181.6 560.9 182.3 558.9 183.7 557.5C185.1 556.1 187.1 555.4 189.7 555.4H201.6C204.3 555.4 206.3 556.1 207.7 557.5C209.1 558.9 209.8 560.9 209.8 563.6V593.1C209.8 595.8 209.1 597.8 207.7 599.2C206.3 600.6 204.3 601.3 201.6 601.3H168.6C166 601.3 163.9 600.6 162.4 599.2C160.9 597.8 160.2 595.8 160.2 593.1V565.3C160.2 564.4 160 563.8 159.5 563.3C159 562.8 158.4 562.6 157.5 562.6H156.2C155.3 562.6 154.7 562.8 154.2 563.3C153.7 563.8 153.5 564.5 153.5 565.3V593.1C153.5 595.8 152.8 597.8 151.4 599.2C150 600.6 148 601.3 145.3 601.3H133.4C130.8 601.3 128.8 600.6 127.3 599.2C125.9 597.8 125.2 595.8 125.2 593.1V563.6H125.4Z" fill="white"/>
<path id="Vector_12" d="M218.3 601.3C217 601.3 216.1 601 215.4 600.4C214.7 599.8 214.4 598.9 214.4 597.8C214.4 596.7 214.7 595.8 215.4 595.2C216.1 594.6 217 594.3 218.3 594.3H242.5V584.5C242.5 583.6 242.2 582.9 241.7 582.4C241.2 581.9 240.5 581.6 239.6 581.6H222.4C219.8 581.6 217.8 580.9 216.3 579.5C214.9 578.1 214.2 576.1 214.2 573.4V563.7C214.2 561 214.9 559 216.3 557.6C217.7 556.2 219.7 555.5 222.4 555.5H265.8C267.1 555.5 268 555.8 268.7 556.4C269.4 557 269.7 557.9 269.7 559C269.7 560.1 269.4 561 268.7 561.6C268 562.2 267.1 562.5 265.8 562.5H242.5V571.6C242.5 572.5 242.8 573.2 243.3 573.7C243.8 574.2 244.5 574.5 245.4 574.5H262.6C265.3 574.5 267.3 575.2 268.7 576.6C270.1 578 270.8 580 270.8 582.7V593.2C270.8 595.9 270.1 597.9 268.7 599.3C267.3 600.7 265.3 601.4 262.6 601.4H218.3V601.3Z" fill="white"/>
<path id="Vector_13" d="M283.3 601.3C280.7 601.3 278.7 600.6 277.2 599.2C275.8 597.8 275.1 595.8 275.1 593.1V563.6C275.1 560.9 275.8 558.9 277.2 557.5C278.6 556.1 280.6 555.4 283.3 555.4H330.4C333.1 555.4 335.1 556.1 336.5 557.5C337.9 558.9 338.6 560.9 338.6 563.6V573.5C338.6 576.2 337.9 578.2 336.5 579.6C335.1 581 333.1 581.7 330.4 581.7H303.4V593.1C303.4 595.8 302.7 597.8 301.3 599.2C299.9 600.6 297.9 601.3 295.2 601.3H283.3ZM307.4 575C308.3 575 309 574.8 309.5 574.2C310 573.7 310.3 573 310.3 572.1V565C310.3 564.1 310 563.4 309.5 562.9C309 562.4 308.3 562.1 307.4 562.1H303.3V575H307.4Z" fill="white"/>
<path id="Vector_14" d="M342.4 587.9C342.4 585.2 343 583.2 344.2 581.8C345.4 580.4 347.1 579.7 349.3 579.7V577C347.1 577 345.4 576.3 344.2 574.9C343 573.5 342.4 571.5 342.4 568.9V563.7C342.4 561 343.1 559 344.5 557.6C345.9 556.2 347.9 555.5 350.6 555.5H394C395.2 555.5 396.2 555.8 396.9 556.4C397.6 557 397.9 557.9 397.9 559C397.9 560.1 397.6 561 396.9 561.6C396.2 562.2 395.2 562.5 394 562.5H370.6V574.4H394C395.2 574.4 396.2 574.7 396.9 575.3C397.6 575.9 397.9 576.8 397.9 577.9C397.9 579 397.6 579.9 396.9 580.6C396.2 581.2 395.2 581.5 394 581.5H370.6V594.1H394C395.2 594.1 396.2 594.4 396.9 595C397.6 595.6 397.9 596.5 397.9 597.6C397.9 598.7 397.6 599.6 396.9 600.2C396.2 600.8 395.2 601.1 394 601.1H350.6C347.9 601.1 345.9 600.4 344.5 599C343.1 597.6 342.4 595.6 342.4 592.9V587.9Z" fill="white"/>
<path id="Vector_15" d="M402.1 563.6C402.1 560.9 402.8 558.9 404.2 557.5C405.6 556.1 407.6 555.4 410.3 555.4H453.7C455 555.4 455.9 555.7 456.6 556.3C457.3 556.9 457.6 557.8 457.6 558.9C457.6 560 457.3 560.9 456.6 561.5C455.9 562.1 455 562.4 453.7 562.4H430.4V594.1H453.7C455 594.1 455.9 594.4 456.6 595C457.3 595.6 457.6 596.5 457.6 597.6C457.6 598.7 457.3 599.6 456.6 600.2C455.9 600.8 455 601.1 453.7 601.1H410.3C407.7 601.1 405.7 600.4 404.2 599C402.8 597.6 402.1 595.6 402.1 592.9V563.6Z" fill="white"/>
<path id="Vector_16" d="M461.7 559C461.7 557.9 462 557 462.7 556.4C463.4 555.8 464.3 555.5 465.6 555.5H520C521.3 555.5 522.2 555.8 522.9 556.4C523.6 557 523.9 557.9 523.9 559C523.9 560.1 523.6 561 522.9 561.6C522.2 562.2 521.3 562.5 520 562.5H506.9V593.1C506.9 595.8 506.2 597.8 504.8 599.2C503.4 600.6 501.4 601.3 498.8 601.3H486.9C484.2 601.3 482.2 600.6 480.8 599.2C479.4 597.8 478.7 595.8 478.7 593.1V562.5H465.6C464.3 562.5 463.4 562.2 462.7 561.6C462.1 561 461.7 560.1 461.7 559Z" fill="white"/>
</g>
<g id="logo">
<path id="Vector_17" d="M177.3 241.9C198.3 228.6 219.5 215.5 240.3 201.8C245.1 198.7 248.2 198.9 252.8 201.9C270.4 213.6 288.4 224.7 306.2 236C307.5 236.9 309 237.6 310.3 238.4C312.6 239.2 315 239.9 316.7 241.9C316.8 242.3 316.7 242.7 316.4 243.1C294.5 256.6 272.9 270.7 251.1 284.4C249.4 285.5 247.8 286.8 245.5 286.4C238.7 283.1 232.6 278.6 226.2 274.6C210.9 265 195.8 255.2 180.5 245.6C179.2 244.8 178.2 243.9 177.2 242.8C177.3 242.5 177.3 242.2 177.3 241.9Z" fill="#005CF5"/>
<path id="Vector_18" d="M316.6 330.3C315 329.8 314.2 331.2 313.2 331.8C292 345.2 270.9 358.6 249.8 372.1C247.4 373.6 245.8 373.8 243.3 372.2C221.4 358.1 199.3 344.3 177.3 330.3C177.3 330 177.3 329.7 177.3 329.4C180.4 326 184.6 324.1 188.3 321.7C206.1 310.4 223.8 299 241.6 287.8C242.8 287 243.9 286 245.5 286C247.6 285.7 249.4 286.6 251.2 287.7C270.6 300 290 312.3 309.3 324.7C311.6 326.2 314.2 327.3 316.4 329C316.6 329.2 316.7 329.5 316.7 329.8C316.7 330.1 316.6 330.3 316.6 330.3Z" fill="#005CF5"/>
<path id="Vector_19" d="M314.801 432.8C314.201 431.3 312.601 430.9 311.501 430.2C291.401 417.3 271.201 404.5 251.001 391.7C249.701 390.8 248.301 390 246.601 388.8C247.801 388 248.701 387.4 249.601 386.8C270.501 373.5 291.401 360.3 312.301 346.9C314.901 345.2 316.701 345.2 319.301 346.9C341.001 360.8 362.801 374.6 384.501 388.5C383.801 390.3 382.101 390.7 380.801 391.5C360.501 404.4 340.201 417.3 320.001 430.2C318.801 431 317.301 431.3 316.701 432.8C316.001 432.8 315.401 432.8 314.801 432.8Z" fill="#005CF5"/>
<path id="Vector_20" d="M316.501 242.5C316.501 242.3 316.501 242.2 316.501 242C316.401 238.9 319.201 239.4 320.901 238.4C338.301 227.5 355.701 216.5 373.001 205.6C376.901 203.1 380.901 199 384.901 198.9C388.701 198.8 392.601 203.1 396.401 205.5C414.101 216.7 431.801 228 449.501 239.3C450.801 240.1 452.201 241 453.801 242.1C452.101 243.2 450.901 244.1 449.601 244.9C429.501 257.7 409.501 270.4 389.401 283.2C388.101 284.1 386.801 285.1 385.501 286C383.601 287.1 382.201 285.9 380.701 285C360.101 272 339.501 258.8 318.901 245.8C318.001 244.9 316.601 244.3 316.501 242.5Z" fill="#005CF5"/>
<path id="Vector_21" d="M316.601 330.3C316.601 330.1 316.601 329.9 316.601 329.8C316.701 327.9 318.301 327.2 319.601 326.4C339.801 313.6 359.901 300.7 380.101 288C381.901 286.9 383.601 285.8 385.801 286.5C394.001 291.8 402.101 297.2 410.401 302.4C424.801 311.6 439.201 320.7 453.601 329.9C453.301 331.5 451.901 331.8 450.901 332.4C429.901 345.8 408.801 359.2 387.801 372.6C386.101 373.7 384.901 374.3 382.801 373C361.201 359.1 339.501 345.4 317.901 331.6C317.301 331.1 317.001 330.7 316.601 330.3Z" fill="#005CF5"/>
<path id="Vector_22" d="M321 238.4C319.5 239.6 318.1 240.8 316.6 242C314 241.7 312.3 239.9 310.4 238.4C313.9 237.2 317.4 237.2 321 238.4Z" fill="#F5F5F5"/>
</g>
</g>
<g id="news2">
<g id="window_2">
<path id="Vector_23" d="M1584.64 911.682H576.359C546.558 911.682 522.316 887.427 522.316 857.609V56.3911C522.316 26.5733 546.558 2.31738 576.359 2.31738H1584.64C1614.44 2.31738 1638.68 26.5733 1638.68 56.3911V857.609C1638.68 887.427 1614.44 911.682 1584.64 911.682Z" fill="#D4F4FF" stroke="#00BCFF" stroke-width="3" stroke-miterlimit="10" stroke-linecap="round" stroke-linejoin="round"/>
<path id="Vector_24" d="M523.397 64.2705H1638.84" stroke="#00BCFF" stroke-width="3" stroke-miterlimit="10"/>
<path id="Vector_25" d="M570.956 47.1212C577.351 47.1212 582.536 41.9334 582.536 35.534C582.536 29.1346 577.351 23.9468 570.956 23.9468C564.56 23.9468 559.375 29.1346 559.375 35.534C559.375 41.9334 564.56 47.1212 570.956 47.1212Z" fill="white"/>
<path id="Vector_26" d="M570.955 26.2643C576.051 26.2643 580.22 30.4357 580.22 35.5341C580.22 40.6324 576.051 44.8038 570.955 44.8038C565.86 44.8038 561.691 40.6324 561.691 35.5341C561.691 30.4357 565.86 26.2643 570.955 26.2643ZM570.955 21.6294C563.235 21.6294 557.059 27.8092 557.059 35.5341C557.059 43.2589 563.235 49.4387 570.955 49.4387C578.676 49.4387 584.852 43.2589 584.852 35.5341C584.852 27.8092 578.521 21.6294 570.955 21.6294Z" fill="#00BCFF"/>
<path id="Vector_27" d="M608.013 47.1212C614.409 47.1212 619.594 41.9334 619.594 35.534C619.594 29.1346 614.409 23.9468 608.013 23.9468C601.617 23.9468 596.433 29.1346 596.433 35.534C596.433 41.9334 601.617 47.1212 608.013 47.1212Z" fill="white"/>
<path id="Vector_28" d="M608.013 26.2643C613.108 26.2643 617.277 30.4357 617.277 35.5341C617.277 40.6324 613.108 44.8038 608.013 44.8038C602.917 44.8038 598.748 40.6324 598.748 35.5341C598.748 30.4357 602.917 26.2643 608.013 26.2643ZM608.013 21.6294C600.293 21.6294 594.116 27.8092 594.116 35.5341C594.116 43.2589 600.293 49.4387 608.013 49.4387C615.733 49.4387 621.91 43.2589 621.91 35.5341C621.91 27.8092 615.579 21.6294 608.013 21.6294Z" fill="#00BCFF"/>
<path id="Vector_29" d="M645.071 47.1212C651.467 47.1212 656.651 41.9334 656.651 35.534C656.651 29.1346 651.467 23.9468 645.071 23.9468C638.675 23.9468 633.49 29.1346 633.49 35.534C633.49 41.9334 638.675 47.1212 645.071 47.1212Z" fill="white"/>
<path id="Vector_30" d="M645.071 26.2643C650.166 26.2643 654.335 30.4357 654.335 35.5341C654.335 40.6324 650.166 44.8038 645.071 44.8038C639.975 44.8038 635.806 40.6324 635.806 35.5341C635.806 30.4357 639.975 26.2643 645.071 26.2643ZM645.071 21.6294C637.35 21.6294 631.174 27.8092 631.174 35.5341C631.174 43.2589 637.35 49.4387 645.071 49.4387C652.791 49.4387 658.967 43.2589 658.967 35.5341C658.967 27.8092 652.637 21.6294 645.071 21.6294Z" fill="#00BCFF"/>
</g>
<g id="text">
<g id="Group">
<path id="Vector_31" d="M565.705 126.224H585.469C600.138 126.224 608.476 134.103 608.476 148.471V171.182C608.476 186.168 600.292 194.202 585.315 194.202H565.705V126.224ZM585.006 182.924C589.638 182.924 591.954 178.752 591.954 172.109V147.544C591.954 140.746 589.947 137.502 585.006 137.502H581.763V182.924H585.006Z" fill="#00BFFF"/>
<path id="Vector_32" d="M633.644 167.165H629.784V194.202H613.88V126.224H633.798C649.239 126.224 655.261 133.33 655.261 145.072V147.853C655.261 155.578 652.327 160.522 647.541 163.303L656.651 194.202H640.129L633.644 167.165ZM632.718 157.432C637.35 157.432 638.894 154.805 638.894 148.935V144.145C638.894 138.738 637.195 136.884 632.718 136.884H629.938V157.432H632.718Z" fill="#00BFFF"/>
<path id="Vector_33" d="M658.195 173.5V147.081C658.195 132.713 666.688 124.679 680.43 124.679C694.172 124.679 702.665 132.713 702.665 147.081V173.5C702.665 187.868 694.172 195.901 680.43 195.901C666.688 195.901 658.195 187.868 658.195 173.5ZM686.143 175.508V144.918C686.143 139.665 683.981 136.884 680.43 136.884C676.724 136.884 674.717 139.665 674.717 144.918V175.508C674.717 180.761 676.879 183.542 680.43 183.542C683.981 183.542 686.143 180.761 686.143 175.508Z" fill="#00BFFF"/>
<path id="Vector_34" d="M749.451 144.3V149.862C749.451 162.53 742.348 169.483 729.223 169.483H724.128V194.357H708.069V126.378H728.914C742.348 126.224 749.296 132.404 749.451 144.3ZM732.929 144.609C732.929 139.202 731.231 136.884 727.061 136.884H723.973V158.359H727.061C731.231 158.359 732.929 155.887 732.929 149.398V144.609Z" fill="#00BFFF"/>
<path id="Vector_35" d="M794.382 173.654V175.662C794.382 186.941 787.897 194.202 774.618 194.202H753.001V126.224H774C787.434 126.224 793.765 133.176 793.765 143.373V145.536C793.765 151.716 790.676 156.505 784.809 158.204C790.985 160.367 794.382 165.62 794.382 173.654ZM768.905 136.884V154.651H771.684C775.853 154.651 777.243 151.716 777.243 145.999V143.836C777.243 139.201 775.853 136.884 771.684 136.884H768.905ZM778.015 172.727C778.015 166.856 776.317 164.23 772.302 164.23H768.905V183.542H772.302C776.317 183.542 778.015 180.761 778.015 175.044V172.727Z" fill="#00BFFF"/>
<path id="Vector_36" d="M797.162 173.5V147.081C797.162 132.713 805.655 124.679 819.397 124.679C833.139 124.679 841.632 132.713 841.632 147.081V173.5C841.632 187.868 833.139 195.901 819.397 195.901C805.5 195.901 797.162 187.868 797.162 173.5ZM825.11 175.508V144.918C825.11 139.665 822.948 136.884 819.397 136.884C815.691 136.884 813.684 139.665 813.684 144.918V175.508C813.684 180.761 815.845 183.542 819.397 183.542C822.948 183.542 825.11 180.761 825.11 175.508Z" fill="#00BFFF"/>
<path id="Vector_37" d="M851.668 158.359L841.477 126.224H857.999L861.705 141.673C862.631 145.227 862.631 147.699 863.094 151.252H863.249C863.557 147.853 863.712 145.381 864.638 141.673L868.498 126.224H885.02L874.984 158.513L885.947 194.202H868.962L864.329 174.117C863.712 171.8 863.403 168.71 863.094 164.693H862.785C862.631 167.32 862.322 170.41 861.55 174.117L857.227 194.202H840.705L851.668 158.359Z" fill="#00BFFF"/>
<path id="Vector_38" d="M900.461 126.224H920.997L925.321 154.805C925.784 158.359 926.247 162.53 926.247 164.693H926.556C926.556 162.376 927.019 158.204 927.482 154.805L931.651 126.224H952.188V194.202H938.754V164.075C938.754 157.895 938.754 151.561 939.063 145.536H938.754C938.445 148.471 938.137 151.407 937.673 154.496L931.497 194.202H921.306L914.821 154.496C914.512 151.407 913.895 148.317 913.74 145.536H913.277C913.586 151.407 913.586 157.895 913.586 164.075V194.202H900.307V126.224H900.461Z" fill="#00BFFF"/>
<path id="Vector_39" d="M985.539 180.298H974.268L972.415 194.357H956.356L969.327 126.378H990.481L1003.45 194.357H987.392L985.539 180.298ZM983.995 168.865L981.216 148.471C980.907 145.381 980.444 142.91 980.135 139.202H979.826C979.518 142.91 979.054 145.381 978.746 148.471L975.966 168.865H983.995Z" fill="#00BFFF"/>
<path id="Vector_40" d="M1027.38 166.084L1023.37 175.045V194.048H1007.31V126.069H1023.37V156.042L1034.49 126.224H1050.7L1039.27 153.106L1051.32 194.357H1034.33L1027.38 166.084Z" fill="#00BFFF"/>
<path id="Vector_41" d="M1088.68 182.306V194.357H1054.87V126.378H1088.07V138.429H1070.77V153.415H1086.83V165.311H1070.77V182.306H1088.68Z" fill="#00BFFF"/>
<path id="Vector_42" d="M1089.3 176.898V171.491L1105.51 168.401V176.898C1105.51 181.07 1106.9 183.696 1110.15 183.696C1113.39 183.696 1114.62 181.224 1114.62 178.598V175.662C1114.62 172.418 1114.01 170.719 1110.3 168.556L1099.34 162.067C1092.24 157.895 1089.92 152.952 1089.92 145.536V141.828C1089.92 129.777 1099.49 124.679 1110.15 124.679C1122.5 124.679 1130.84 129.159 1130.84 142.755V147.699L1114.78 150.634V142.446C1114.78 139.201 1113.7 136.42 1110.15 136.42C1107.37 136.42 1105.82 138.583 1105.82 141.055V143.991C1105.82 146.772 1107.52 149.089 1110.15 150.634L1120.96 157.123C1128.68 161.758 1130.84 166.084 1130.84 173.191V179.525C1130.84 188.795 1123.73 196.21 1109.99 196.21C1097.02 195.902 1089.3 188.022 1089.3 176.898Z" fill="#00BFFF"/>
<path id="Vector_43" d="M1190.44 173.654V175.662C1190.44 186.941 1183.95 194.202 1170.67 194.202H1149.06V126.224H1170.06C1183.49 126.224 1189.82 133.176 1189.82 143.373V145.536C1189.82 151.716 1186.73 156.505 1180.87 158.204C1187.04 160.367 1190.44 165.62 1190.44 173.654ZM1164.96 136.884V154.651H1167.74C1171.91 154.651 1173.3 151.716 1173.3 145.999V143.836C1173.3 139.201 1171.91 136.884 1167.74 136.884H1164.96ZM1174.07 172.727C1174.07 166.856 1172.37 164.23 1168.36 164.23H1164.96V183.542H1168.36C1172.37 183.542 1174.07 180.761 1174.07 175.044V172.727Z" fill="#00BFFF"/>
<path id="Vector_44" d="M1195.23 194.202V126.224H1211.28V194.202H1195.23Z" fill="#00BFFF"/>
<path id="Vector_45" d="M1216.53 173.345V148.008C1216.53 133.176 1224.41 124.679 1238.61 124.679C1251.74 124.679 1259.46 131.013 1259.46 142.6V148.008L1243.09 150.943V143.218C1243.09 138.583 1241.55 136.266 1238.3 136.266C1234.6 136.266 1232.9 139.356 1232.9 145.536V174.272C1232.9 180.452 1234.75 183.696 1238.77 183.696C1242.32 183.696 1244.17 180.915 1244.17 176.28V168.092H1238V156.196H1259.3V194.202H1247.88L1247.26 183.851C1245.87 190.958 1241.08 195.747 1232.75 195.747C1222.09 195.902 1216.53 188.022 1216.53 173.345Z" fill="#00BFFF"/>
<path id="Vector_46" d="M1279.84 126.224H1300.38L1304.7 154.805C1305.16 158.359 1305.63 162.53 1305.63 164.693H1305.94C1305.94 162.376 1306.4 158.204 1306.86 154.805L1311.03 126.224H1331.57V194.202H1318.29V164.075C1318.29 157.895 1318.29 151.561 1318.6 145.536H1318.29C1317.98 148.471 1317.67 151.407 1317.21 154.496L1311.03 194.202H1300.84L1294.36 154.496C1294.05 151.407 1293.43 148.317 1293.27 145.536H1292.81C1293.12 151.407 1293.12 157.895 1293.12 164.075V194.202H1279.84V126.224Z" fill="#00BFFF"/>
<path id="Vector_47" d="M1339.29 194.202V126.224H1355.35V194.202H1339.29Z" fill="#00BFFF"/>
<path id="Vector_48" d="M1359.36 176.898V171.491L1375.57 168.401V176.898C1375.57 181.07 1376.96 183.696 1380.21 183.696C1383.45 183.696 1384.68 181.224 1384.68 178.598V175.662C1384.68 172.418 1384.07 170.719 1380.36 168.556L1369.4 162.067C1362.29 157.895 1359.98 152.952 1359.98 145.536V141.828C1359.98 129.777 1369.55 124.679 1380.21 124.679C1392.56 124.679 1400.9 129.159 1400.9 142.755V147.699L1384.84 150.634V142.446C1384.84 139.201 1383.76 136.42 1380.21 136.42C1377.43 136.42 1375.88 138.583 1375.88 141.055V143.991C1375.88 146.772 1377.58 149.089 1380.21 150.634L1391.01 157.123C1398.73 161.758 1400.9 166.084 1400.9 173.191V179.525C1400.9 188.795 1393.79 196.21 1380.05 196.21C1366.93 195.902 1359.36 188.022 1359.36 176.898Z" fill="#00BFFF"/>
<path id="Vector_49" d="M1441.81 139.665H1429.15V194.202H1413.25V139.665H1400.59V126.224H1441.81V139.665Z" fill="#00BFFF"/>
<path id="Vector_50" d="M1464.2 180.298H1452.93L1451.08 194.357H1435.02L1447.99 126.378H1469.14L1482.11 194.357H1466.06L1464.2 180.298ZM1462.66 168.865L1459.88 148.471C1459.57 145.381 1459.11 142.91 1458.8 139.202H1458.49C1458.18 142.91 1457.72 145.381 1457.41 148.471L1454.63 168.865H1462.66Z" fill="#00BFFF"/>
<path id="Vector_51" d="M1506.05 166.084L1502.03 175.045V194.048H1485.97V126.069H1502.03V156.042L1513.15 126.224H1529.36L1517.94 153.106L1529.98 194.357H1513L1506.05 166.084Z" fill="#00BFFF"/>
<path id="Vector_52" d="M1567.35 182.306V194.357H1533.53V126.378H1566.73V138.429H1549.44V153.415H1565.49V165.311H1549.44V182.306H1567.35Z" fill="#00BFFF"/>
<path id="Vector_53" d="M562.926 231.281H577.44L580.065 269.442C580.219 272.377 580.528 276.703 580.374 280.102H580.837L581.764 270.678L586.087 231.281H600.292L604.616 270.678C604.925 273.613 605.079 276.703 605.542 280.102H605.851C605.851 276.703 606.006 272.377 606.16 269.442L608.785 231.281H623.299L615.579 299.26H597.822L593.807 264.961C593.344 260.481 593.499 257.237 593.19 253.992H592.726C592.572 257.237 592.572 260.636 592.109 264.961L588.249 299.26H570.492L562.926 231.281Z" fill="#00BFFF"/>
<path id="Vector_54" d="M627.932 299.26V231.281H643.99V299.26H627.932Z" fill="#00BFFF"/>
<path id="Vector_55" d="M687.687 244.722H675.025V299.26H659.121V244.722H646.46V231.281H687.841V244.722H687.687Z" fill="#00BFFF"/>
<path id="Vector_56" d="M732.157 299.26H716.099V270.832H706.217V299.26H690.158V231.281H706.217V258.627H716.099V231.281H732.157V299.26Z" fill="#00BFFF"/>
<path id="Vector_57" d="M753.619 231.281H773.383C788.052 231.281 796.39 239.161 796.39 253.529V276.24C796.39 291.226 788.206 299.26 773.229 299.26H753.619V231.281ZM772.92 287.981C777.552 287.981 779.868 283.81 779.868 277.167V252.602C779.868 245.804 777.861 242.559 772.92 242.559H769.523V287.981H772.92Z" fill="#00BFFF"/>
<path id="Vector_58" d="M801.795 299.26V231.281H817.853V299.26H801.795Z" fill="#00BFFF"/>
<path id="Vector_59" d="M820.787 231.281H837.309L842.404 272.532C843.022 277.939 843.331 281.647 843.485 285.509H843.948C844.103 281.647 844.257 277.785 845.029 272.532L850.125 231.281H866.492L853.83 299.26H833.449L820.787 231.281Z" fill="#00BFFF"/>
<path id="Vector_60" d="M903.394 287.363V299.414H869.579V231.436H902.777V243.486H885.483V258.472H901.387V270.369H885.329V287.363H903.394Z" fill="#00BFFF"/>
<path id="Vector_61" d="M927.636 272.223H923.776V299.26H907.718V231.281H927.636C943.077 231.281 949.099 238.388 949.099 250.13V252.911C949.099 260.636 946.165 265.579 941.379 268.36L950.489 299.26H933.813L927.636 272.223ZM926.555 262.489C931.188 262.489 932.732 259.863 932.732 253.992V249.203C932.732 243.795 931.033 241.942 926.555 241.942H923.776V262.489H926.555Z" fill="#00BFFF"/>
<path id="Vector_62" d="M950.335 281.956V276.549L966.548 273.459V281.956C966.548 286.127 967.937 288.754 971.18 288.754C974.423 288.754 975.658 286.282 975.658 283.656V280.72C975.658 277.476 975.04 275.776 971.334 273.613L960.371 267.124C953.269 262.953 950.953 258.009 950.953 250.593V246.885C950.953 234.835 960.526 229.736 971.18 229.736C983.533 229.736 991.871 234.217 991.871 247.812V252.756L975.812 255.692V247.503C975.812 244.259 974.731 241.478 971.18 241.478C968.401 241.478 966.857 243.641 966.857 246.113V249.048C966.857 251.829 968.555 254.147 971.18 255.692L981.989 262.181C989.709 266.815 991.871 271.141 991.871 278.248V284.582C991.871 293.852 984.768 301.268 971.026 301.268C958.055 300.959 950.335 293.08 950.335 281.956Z" fill="#00BFFF"/>
<path id="Vector_63" d="M995.885 299.26V231.281H1011.94V299.26H995.885Z" fill="#00BFFF"/>
<path id="Vector_64" d="M1055.64 244.722H1042.98V299.26H1027.08V244.722H1014.41V231.281H1055.8V244.722H1055.64Z" fill="#00BFFF"/>
<path id="Vector_65" d="M1071.08 277.321L1056.57 231.281H1073.09L1077.72 252.911C1078.49 256.31 1078.8 259.554 1079.11 263.107H1079.42C1079.73 259.554 1080.04 256.31 1080.65 252.911L1084.98 231.281H1101.5L1087.29 277.321V299.414H1071.24V277.321H1071.08Z" fill="#00BFFF"/>
<path id="Vector_66" d="M1160.48 244.722H1147.82V299.26H1131.92V244.722H1119.1V231.281H1160.48V244.722Z" fill="#00BFFF"/>
<path id="Vector_67" d="M1161.41 231.281H1175.92L1178.55 269.442C1178.7 272.377 1179.01 276.703 1178.86 280.102H1179.32L1180.25 270.678L1184.57 231.281H1198.78L1203.1 270.678C1203.41 273.613 1203.56 276.703 1204.03 280.102H1204.34C1204.34 276.703 1204.49 272.377 1204.64 269.442L1207.27 231.281H1221.78L1214.06 299.26H1196.31L1192.29 264.961C1191.83 260.481 1191.98 257.237 1191.67 253.992H1191.21C1191.06 257.237 1191.06 260.636 1190.59 264.961L1186.73 299.26H1168.98L1161.41 231.281Z" fill="#00BFFF"/>
<path id="Vector_68" d="M1260.39 287.363V299.414H1226.57V231.436H1259.61V243.486H1242.32V258.472H1258.38V270.369H1242.32V287.363H1260.39Z" fill="#00BFFF"/>
<path id="Vector_69" d="M1298.68 287.363V299.414H1264.86V231.436H1298.06V243.486H1280.77V258.472H1296.67V270.369H1280.61V287.363H1298.68Z" fill="#00BFFF"/>
<path id="Vector_70" d="M1341.91 244.722H1329.25V299.26H1313.35V244.722H1300.69V231.281H1342.07V244.722H1341.91Z" fill="#00BFFF"/>
</g>
<g id="Group_2">
<path id="Vector_71" d="M564.007 399.218C564.007 384.541 569.102 377.898 578.367 377.898C587.631 377.898 592.727 384.541 592.727 399.218C592.727 413.896 587.631 420.539 578.367 420.539C569.102 420.539 564.007 413.896 564.007 399.218ZM588.249 399.218C588.249 386.859 584.697 381.451 578.367 381.451C572.036 381.451 568.485 386.859 568.485 399.218C568.485 411.578 572.036 416.985 578.367 416.985C584.697 416.985 588.249 411.578 588.249 399.218Z" fill="#00BFFF"/>
<path id="Vector_72" d="M599.675 391.03H603.381V396.747C604.77 392.421 607.395 390.258 611.41 390.258C616.505 390.258 619.13 393.502 619.13 399.991V419.612H615.27V400.455C615.27 395.974 613.572 393.657 610.02 393.657C605.851 393.657 603.689 397.056 603.689 403.699V419.612H599.829V391.03H599.675Z" fill="#00BFFF"/>
<path id="Vector_73" d="M645.689 406.016H629.013C629.167 413.741 631.329 416.831 635.806 416.831C639.049 416.831 641.52 414.977 641.983 410.651L645.534 411.578C644.762 417.14 641.056 420.23 635.806 420.23C629.476 420.23 625.152 416.213 625.152 405.244C625.152 394.12 629.63 390.258 635.652 390.258C641.983 390.258 645.689 394.429 645.689 402.926V406.016ZM641.828 403.081C641.828 396.129 639.667 393.348 635.806 393.348C632.101 393.348 629.321 395.356 629.167 403.081H641.828Z" fill="#00BFFF"/>
<path id="Vector_74" d="M661.747 391.03H665.762L670.085 412.505L670.548 415.595H670.703C670.857 414.514 671.012 413.587 671.166 412.505L675.798 391.03H679.967L684.599 412.505C684.754 413.432 685.063 414.514 685.217 415.595H685.371C685.371 414.514 685.68 413.432 685.835 412.505L690.158 391.03H694.173L687.533 419.612H683.364L678.578 397.828C678.423 396.901 678.269 395.665 678.114 394.738H677.96C677.805 395.665 677.651 396.901 677.497 397.828L672.71 419.612H668.541L661.747 391.03Z" fill="#00BFFF"/>
<path id="Vector_75" d="M718.26 406.016H701.584C701.738 413.741 703.9 416.831 708.378 416.831C711.62 416.831 714.091 414.977 714.554 410.651L718.105 411.578C717.333 417.14 713.628 420.23 708.378 420.23C702.047 420.23 697.724 416.213 697.724 405.244C697.724 394.12 702.201 390.258 708.223 390.258C714.554 390.258 718.26 394.429 718.26 402.926V406.016ZM714.245 403.081C714.245 396.129 712.084 393.348 708.223 393.348C704.518 393.348 701.738 395.356 701.584 403.081H714.245Z" fill="#00BFFF"/>
<path id="Vector_76" d="M729.223 419.612H725.363V378.207H729.223V419.612Z" fill="#00BFFF"/>
<path id="Vector_77" d="M742.193 419.612H738.333V378.207H742.193V419.612Z" fill="#00BFFF"/>
<path id="Vector_78" d="M763.347 401.845V405.553H749.142V401.845H763.347Z" fill="#00BFFF"/>
<path id="Vector_79" d="M774.155 419.612H770.295V378.207H774.155V419.612Z" fill="#00BFFF"/>
<path id="Vector_80" d="M782.803 379.752H787.126V386.086H782.803V379.752ZM782.957 391.03H786.817V419.612H782.957V391.03Z" fill="#00BFFF"/>
<path id="Vector_81" d="M804.11 404.935L799.633 410.342V419.612H795.772V378.207H799.633V405.707L810.904 391.185H815.537L806.735 401.845L816 419.767H811.522L804.11 404.935Z" fill="#00BFFF"/>
<path id="Vector_82" d="M838.544 406.016H821.868C822.022 413.741 824.184 416.831 828.662 416.831C831.904 416.831 834.375 414.977 834.838 410.651L838.39 411.578C837.618 417.14 833.912 420.23 828.662 420.23C822.331 420.23 818.008 416.213 818.008 405.244C818.008 394.12 822.486 390.258 828.508 390.258C834.838 390.258 838.544 394.429 838.544 402.926V406.016ZM834.684 403.081C834.684 396.129 832.522 393.348 828.662 393.348C824.956 393.348 822.177 395.356 822.022 403.081H834.684Z" fill="#00BFFF"/>
<path id="Vector_83" d="M843.639 405.244C843.639 395.51 847.344 390.257 853.521 390.257C857.227 390.257 860.006 392.42 861.087 396.437V378.052H864.947V419.457H861.241V413.586C859.851 417.758 857.072 420.23 853.212 420.23C847.19 420.23 843.639 415.131 843.639 405.244ZM861.087 407.561V402.926C861.087 397.21 858.771 393.502 854.756 393.502C850.124 393.502 847.962 396.901 847.962 405.089C847.962 413.432 850.124 416.831 854.756 416.831C858.771 416.985 861.087 413.432 861.087 407.561Z" fill="#00BFFF"/>
<path id="Vector_84" d="M884.712 405.244C884.712 395.51 888.418 390.257 894.594 390.257C898.3 390.257 901.079 392.42 902.16 396.437V378.052H906.02V419.457H902.314V413.586C900.925 417.758 898.145 420.23 894.285 420.23C888.109 420.23 884.712 415.131 884.712 405.244ZM902.16 407.561V402.926C902.16 397.21 899.844 393.502 895.829 393.502C891.197 393.502 889.035 396.901 889.035 405.089C889.035 413.432 891.197 416.831 895.829 416.831C899.844 416.985 902.16 413.432 902.16 407.561Z" fill="#00BFFF"/>
<path id="Vector_85" d="M914.667 379.752H918.99V386.086H914.667V379.752ZM914.821 391.03H918.682V419.612H914.821V391.03Z" fill="#00BFFF"/>
<path id="Vector_86" d="M923.623 391.03H927.792L933.351 411.269C933.814 412.814 933.968 414.205 934.277 415.441H934.432C934.586 414.205 934.895 412.814 935.358 411.269L940.917 391.03H945.086L936.593 419.612H932.27L923.623 391.03Z" fill="#00BFFF"/>
<path id="Vector_87" d="M968.092 406.016H951.416C951.57 413.741 953.732 416.831 958.21 416.831C961.452 416.831 963.923 414.977 964.386 410.651L967.937 411.578C967.165 417.14 963.46 420.23 958.21 420.23C951.879 420.23 947.556 416.213 947.556 405.244C947.556 394.12 952.034 390.258 958.055 390.258C964.386 390.258 968.092 394.429 968.092 402.926V406.016ZM964.077 403.081C964.077 396.129 961.916 393.348 958.055 393.348C954.35 393.348 951.57 395.356 951.416 403.081H964.077Z" fill="#00BFFF"/>
<path id="Vector_88" d="M986.003 390.412C986.312 390.412 986.466 390.412 986.929 390.412V394.429C986.621 394.429 986.466 394.429 986.312 394.429C983.841 394.429 982.297 395.356 981.216 396.901C979.363 399.064 979.055 402.463 979.055 405.707V419.612H975.194V391.03H978.9V397.828C979.518 393.657 981.988 390.412 986.003 390.412Z" fill="#00BFFF"/>
<path id="Vector_89" d="M989.863 410.342L993.723 409.724C993.878 414.514 996.348 416.986 999.9 416.986C1003.14 416.986 1005.15 415.286 1005.15 412.042C1005.15 409.261 1003.91 407.716 1000.67 406.943L996.657 406.016C992.488 405.089 990.327 402.309 990.327 398.137C990.327 393.193 994.032 390.258 999.437 390.258C1005 390.258 1008.7 393.039 1008.86 399.528L1005.15 400.146C1004.84 395.047 1002.68 393.348 999.437 393.348C996.194 393.348 994.341 395.047 994.341 397.983C994.341 400.609 995.422 402.154 998.51 402.772L1002.68 403.853C1007.31 404.935 1009.16 407.716 1009.16 411.887C1009.16 416.831 1005.77 420.23 999.9 420.23C994.032 420.23 990.327 417.14 989.863 410.342Z" fill="#00BFFF"/>
<path id="Vector_90" d="M1015.65 379.752H1019.97V386.086H1015.65V379.752ZM1015.96 391.03H1019.82V419.612H1015.96V391.03Z" fill="#00BFFF"/>
<path id="Vector_91" d="M1025.07 391.03H1029.39V383.769L1033.25 382.224V391.03H1039.43V394.12H1033.25V412.041C1033.25 415.131 1034.49 416.367 1036.96 416.367C1037.88 416.367 1038.5 416.213 1039.43 416.058V419.612C1038.35 419.921 1037.42 420.075 1036.03 420.075C1031.24 420.075 1029.39 417.294 1029.39 412.659V394.12H1025.07V391.03Z" fill="#00BFFF"/>
<path id="Vector_92" d="M1043.75 430.89V427.337C1044.37 427.491 1044.99 427.491 1045.3 427.491C1048.38 427.491 1049.93 425.637 1051.01 422.084L1051.63 419.612L1042.21 391.03H1046.53L1052.55 411.578C1053.02 412.969 1053.17 414.205 1053.48 415.441H1053.63C1053.79 414.205 1054.1 412.969 1054.56 411.733L1060.12 391.03H1064.13L1054.87 422.393C1052.86 428.882 1050.08 431.199 1045.76 431.199C1045.3 431.045 1044.52 431.045 1043.75 430.89Z" fill="#00BFFF"/>
<path id="Vector_93" d="M1076.49 391.03H1080.81V383.769L1084.67 382.224V391.03H1090.85V394.12H1084.67V412.041C1084.67 415.131 1085.91 416.367 1088.38 416.367C1089.3 416.367 1089.92 416.213 1090.85 416.058V419.612C1089.77 419.921 1088.84 420.075 1087.45 420.075C1082.66 420.075 1080.81 417.294 1080.81 412.659V394.12H1076.49V391.03Z" fill="#00BFFF"/>
<path id="Vector_94" d="M1107.99 390.412C1108.29 390.412 1108.45 390.412 1108.91 390.412V394.429C1108.6 394.429 1108.45 394.429 1108.29 394.429C1105.82 394.429 1104.28 395.356 1103.2 396.901C1101.35 399.064 1101.04 402.463 1101.04 405.707V419.612H1097.18V391.03H1100.88V397.828C1101.5 393.657 1103.97 390.412 1107.99 390.412Z" fill="#00BFFF"/>
<path id="Vector_95" d="M1111.38 412.351C1111.38 409.415 1112.46 407.407 1114.16 406.016C1115.71 404.78 1118.02 403.854 1121.57 403.236L1126.98 402.309V400.3C1126.98 395.665 1125.43 393.657 1121.73 393.657C1117.56 393.657 1116.01 395.974 1116.01 400.3H1112C1112.15 393.039 1116.63 390.567 1121.73 390.567C1128.06 390.567 1130.84 393.502 1130.84 400.455V410.96C1130.84 414.668 1130.99 417.449 1131.45 419.767H1127.59C1127.44 418.067 1127.13 416.059 1127.13 414.359C1126.05 418.067 1123.12 420.539 1118.95 420.539C1114.32 420.23 1111.38 417.14 1111.38 412.351ZM1126.98 408.952V404.935L1121.42 406.016C1117.4 406.789 1115.4 408.488 1115.4 411.887C1115.4 415.286 1117.09 417.14 1120.34 417.14C1124.35 417.14 1126.98 413.896 1126.98 408.952Z" fill="#00BFFF"/>
<path id="Vector_96" d="M1138.87 379.752H1143.19V386.086H1138.87V379.752ZM1139.02 391.03H1142.88V419.612H1139.02V391.03Z" fill="#00BFFF"/>
<path id="Vector_97" d="M1151.53 391.03H1155.23V396.747C1156.62 392.421 1159.25 390.258 1163.26 390.258C1168.36 390.258 1170.98 393.502 1170.98 399.991V419.612H1167.12V400.455C1167.12 395.974 1165.43 393.657 1161.87 393.657C1157.7 393.657 1155.54 397.056 1155.54 403.699V419.612H1151.53V391.03Z" fill="#00BFFF"/>
<path id="Vector_98" d="M1178.86 379.752H1183.18V386.086H1178.86V379.752ZM1179.01 391.03H1182.87V419.612H1179.01V391.03Z" fill="#00BFFF"/>
<path id="Vector_99" d="M1191.52 391.03H1195.23V396.747C1196.61 392.421 1199.24 390.258 1203.25 390.258C1208.35 390.258 1210.97 393.502 1210.97 399.991V419.612H1207.11V400.455C1207.11 395.974 1205.42 393.657 1201.86 393.657C1197.7 393.657 1195.53 397.056 1195.53 403.699V419.612H1191.67V391.03H1191.52Z" fill="#00BFFF"/>
<path id="Vector_100" d="M1233.36 392.266C1235.37 393.965 1236.45 396.592 1236.45 399.991C1236.45 406.016 1233.21 409.724 1227.19 409.724C1225.49 409.724 1224.1 409.415 1222.86 408.797C1221.78 409.26 1221.01 410.342 1221.01 411.578C1221.01 413.277 1222.25 414.359 1224.87 414.668L1231.2 415.286C1235.99 415.749 1239.08 418.53 1239.08 422.856C1239.08 428.264 1235.06 431.353 1227.5 431.353C1220.24 431.353 1216.53 428.263 1216.53 423.783C1216.53 420.848 1218.23 418.53 1221.32 417.603C1219 416.676 1217.77 414.977 1217.77 412.814C1217.77 410.342 1219.31 408.797 1221.63 408.024C1219.31 406.325 1218.08 403.544 1218.08 399.836C1218.08 393.965 1221.32 390.103 1227.34 390.103C1229.19 390.103 1230.74 390.412 1231.97 391.184C1232.75 388.249 1234.91 386.395 1238 386.395C1238.46 386.395 1238.77 386.395 1239.23 386.55V389.794C1238.61 389.639 1238.3 389.639 1237.69 389.639C1235.53 389.794 1233.98 390.721 1233.36 392.266ZM1223.79 418.221C1223.48 418.221 1223.17 418.221 1223.02 418.067C1221.01 418.994 1220.08 420.693 1220.08 422.856C1220.08 426.564 1222.86 428.418 1227.65 428.418C1232.9 428.418 1235.06 426.41 1235.06 423.011C1235.06 420.075 1233.52 418.685 1230.12 418.376L1223.79 418.221ZM1232.59 399.991C1232.59 395.356 1230.43 393.038 1227.19 393.038C1223.79 393.038 1221.63 395.51 1221.63 399.991C1221.63 404.626 1223.79 407.098 1227.19 407.098C1230.58 407.098 1232.59 404.626 1232.59 399.991Z" fill="#00BFFF"/>
<path id="Vector_101" d="M1256.22 391.03H1259.92V396.901C1261 392.73 1264.09 390.258 1268.11 390.258C1274.13 390.258 1277.53 395.047 1277.53 405.244C1277.53 414.977 1273.82 420.23 1267.64 420.23C1263.78 420.23 1261.16 417.758 1259.92 414.05V430.736H1256.06V391.03H1256.22ZM1273.36 405.244C1273.36 397.21 1271.19 393.657 1267.03 393.657C1262.86 393.657 1260.23 397.365 1260.23 402.926V407.716C1260.23 413.432 1262.86 416.986 1266.87 416.986C1271.04 416.986 1273.36 413.432 1273.36 405.244Z" fill="#00BFFF"/>
<path id="Vector_102" d="M1295.59 390.412C1295.9 390.412 1296.05 390.412 1296.52 390.412V394.429C1296.21 394.429 1296.05 394.429 1295.9 394.429C1293.43 394.429 1291.89 395.356 1290.8 396.901C1288.95 399.064 1288.64 402.463 1288.64 405.707V419.612H1284.78V391.03H1288.49V397.828C1289.11 393.657 1291.58 390.412 1295.59 390.412Z" fill="#00BFFF"/>
<path id="Vector_103" d="M1299.14 405.244C1299.14 394.738 1303.31 390.258 1309.95 390.258C1316.59 390.258 1320.76 394.738 1320.76 405.244C1320.76 415.75 1316.59 420.23 1309.95 420.23C1303.31 420.23 1299.14 415.75 1299.14 405.244ZM1316.74 405.244C1316.74 396.283 1313.96 393.348 1309.95 393.348C1306.09 393.348 1303.31 396.283 1303.31 405.244C1303.31 414.205 1306.09 417.14 1309.95 417.14C1313.96 417.14 1316.74 414.205 1316.74 405.244Z" fill="#00BFFF"/>
<path id="Vector_104" d="M1341.76 392.266C1343.77 393.965 1344.85 396.592 1344.85 399.991C1344.85 406.016 1341.6 409.724 1335.58 409.724C1333.88 409.724 1332.49 409.415 1331.26 408.797C1330.18 409.26 1329.41 410.342 1329.41 411.578C1329.41 413.277 1330.64 414.359 1333.27 414.668L1339.6 415.286C1344.38 415.749 1347.47 418.53 1347.47 422.856C1347.47 428.264 1343.46 431.353 1335.89 431.353C1328.63 431.353 1324.93 428.263 1324.93 423.783C1324.93 420.848 1326.63 418.53 1329.71 417.603C1327.4 416.676 1326.16 414.977 1326.16 412.814C1326.16 410.342 1327.71 408.797 1330.02 408.024C1327.71 406.325 1326.47 403.544 1326.47 399.836C1326.47 393.965 1329.71 390.103 1335.74 390.103C1337.59 390.103 1339.13 390.412 1340.37 391.184C1341.14 388.249 1343.3 386.395 1346.39 386.395C1346.85 386.395 1347.16 386.395 1347.63 386.55V389.794C1347.01 389.639 1346.7 389.639 1346.08 389.639C1343.92 389.794 1342.53 390.721 1341.76 392.266ZM1332.34 418.221C1332.03 418.221 1331.72 418.221 1331.57 418.067C1329.56 418.994 1328.63 420.693 1328.63 422.856C1328.63 426.564 1331.41 428.418 1336.2 428.418C1341.45 428.418 1343.61 426.41 1343.61 423.011C1343.61 420.075 1342.07 418.685 1338.67 418.376L1332.34 418.221ZM1340.99 399.991C1340.99 395.356 1338.82 393.038 1335.58 393.038C1332.18 393.038 1330.02 395.51 1330.02 399.991C1330.02 404.626 1332.18 407.098 1335.58 407.098C1338.98 407.098 1340.99 404.626 1340.99 399.991Z" fill="#00BFFF"/>
<path id="Vector_105" d="M1362.29 390.412C1362.6 390.412 1362.76 390.412 1363.22 390.412V394.429C1362.91 394.429 1362.76 394.429 1362.6 394.429C1360.13 394.429 1358.59 395.356 1357.51 396.901C1355.66 399.064 1355.35 402.463 1355.35 405.707V419.612H1351.49V391.03H1355.19V397.828C1355.96 393.657 1358.28 390.412 1362.29 390.412Z" fill="#00BFFF"/>
<path id="Vector_106" d="M1365.85 412.351C1365.85 409.415 1366.93 407.407 1368.63 406.016C1370.17 404.78 1372.49 403.854 1376.04 403.236L1381.44 402.309V400.3C1381.44 395.665 1379.9 393.657 1376.19 393.657C1372.02 393.657 1370.48 395.974 1370.48 400.3H1366.46C1366.62 393.039 1371.1 390.567 1376.19 390.567C1382.52 390.567 1385.3 393.502 1385.3 400.455V410.96C1385.3 414.668 1385.46 417.449 1385.92 419.767H1382.06C1381.9 418.067 1381.6 416.059 1381.6 414.359C1380.51 418.067 1377.58 420.539 1373.41 420.539C1368.63 420.23 1365.85 417.14 1365.85 412.351ZM1381.44 408.952V404.935L1375.88 406.016C1371.87 406.789 1369.86 408.488 1369.86 411.887C1369.86 415.286 1371.56 417.14 1374.8 417.14C1378.82 417.14 1381.44 413.896 1381.44 408.952Z" fill="#00BFFF"/>
<path id="Vector_107" d="M1397.04 391.03V396.283C1398.12 392.421 1400.59 390.258 1404.14 390.258C1407.69 390.258 1409.85 392.266 1410.78 395.974C1412.17 392.266 1414.64 390.258 1418.04 390.258C1422.67 390.258 1425.14 393.348 1425.14 399.064V419.458H1421.28V399.837C1421.28 395.665 1419.73 393.502 1416.65 393.502C1413.09 393.502 1411.24 396.283 1411.24 401.536V419.458H1407.38V399.682C1407.38 395.665 1405.84 393.502 1402.75 393.502C1399.2 393.502 1397.19 396.592 1397.19 401.845V419.458H1393.33V390.876H1397.04V391.03Z" fill="#00BFFF"/>
<path id="Vector_108" d="M1443.82 412.351C1443.82 409.415 1444.9 407.407 1446.6 406.016C1448.15 404.78 1450.46 403.854 1454.01 403.236L1459.42 402.309V400.3C1459.42 395.665 1457.87 393.657 1454.17 393.657C1450 393.657 1448.45 395.974 1448.45 400.3H1444.44C1444.59 393.039 1449.07 390.567 1454.17 390.567C1460.5 390.567 1463.28 393.502 1463.28 400.455V410.96C1463.28 414.668 1463.43 417.449 1463.9 419.767H1460.04C1459.88 418.067 1459.57 416.059 1459.57 414.359C1458.49 418.067 1455.56 420.539 1451.39 420.539C1446.76 420.23 1443.82 417.14 1443.82 412.351ZM1459.42 408.952V404.935L1453.86 406.016C1449.84 406.789 1447.84 408.488 1447.84 411.887C1447.84 415.286 1449.54 417.14 1452.78 417.14C1456.79 417.14 1459.42 413.896 1459.42 408.952Z" fill="#00BFFF"/>
<path id="Vector_109" d="M1467.29 391.03H1471.62V383.769L1475.48 382.224V391.03H1481.65V394.12H1475.48V412.041C1475.48 415.131 1476.71 416.367 1479.18 416.367C1480.11 416.367 1480.73 416.213 1481.65 416.058V419.612C1480.57 419.921 1479.64 420.075 1478.25 420.075C1473.47 420.075 1471.62 417.294 1471.62 412.659V394.12H1467.29V391.03Z" fill="#00BFFF"/>
<path id="Vector_110" d="M564.007 468.896C564.007 454.219 568.793 447.576 578.058 447.576C587.014 447.576 590.102 453.601 590.565 460.553L586.242 461.171C585.778 455.455 584.08 450.975 577.904 450.975C571.573 450.975 568.485 456.227 568.485 468.742C568.485 480.329 571.418 486.509 578.058 486.509C585.47 486.509 587.014 479.556 587.014 473.686V471.523H577.595V467.969H591.028V489.135H587.786L587.477 481.874C586.087 486.972 582.381 490.217 576.823 490.217C568.33 490.062 564.007 482.955 564.007 468.896Z" fill="#00BFFF"/>
<path id="Vector_111" d="M596.741 474.767C596.741 464.261 600.91 459.781 607.55 459.781C614.189 459.781 618.358 464.261 618.358 474.767C618.358 485.273 614.189 489.753 607.55 489.753C600.91 489.753 596.741 485.273 596.741 474.767ZM614.344 474.767C614.344 465.806 611.564 462.871 607.55 462.871C603.69 462.871 600.91 465.806 600.91 474.767C600.91 483.728 603.69 486.663 607.55 486.663C611.41 486.663 614.344 483.728 614.344 474.767Z" fill="#00BFFF"/>
<path id="Vector_112" d="M623.3 474.767C623.3 464.261 627.469 459.781 634.108 459.781C640.748 459.781 644.917 464.261 644.917 474.767C644.917 485.273 640.748 489.753 634.108 489.753C627.469 489.753 623.3 485.273 623.3 474.767ZM640.902 474.767C640.902 465.806 638.123 462.871 634.108 462.871C630.248 462.871 627.469 465.806 627.469 474.767C627.469 483.728 630.248 486.663 634.108 486.663C638.123 486.663 640.902 483.728 640.902 474.767Z" fill="#00BFFF"/>
<path id="Vector_113" d="M665.915 461.789C667.923 463.489 669.004 466.115 669.004 469.514C669.004 475.539 665.761 479.247 659.739 479.247C658.041 479.247 656.651 478.938 655.416 478.32C654.335 478.784 653.563 479.865 653.563 481.101C653.563 482.801 654.798 483.882 657.423 484.191L663.754 484.809C668.54 485.273 671.628 488.054 671.628 492.38C671.628 497.787 667.614 500.877 660.048 500.877C652.791 500.877 649.085 497.787 649.085 493.307C649.085 490.371 650.783 488.054 653.872 487.127C651.555 486.2 650.32 484.5 650.32 482.337C650.32 479.865 651.864 478.32 654.18 477.548C651.864 475.848 650.629 473.068 650.629 469.36C650.629 463.489 653.872 459.626 659.893 459.626C661.746 459.626 663.29 459.935 664.526 460.708C665.298 457.772 667.459 455.918 670.548 455.918C671.011 455.918 671.32 455.918 671.783 456.073V459.317C671.165 459.163 670.856 459.163 670.239 459.163C668.232 459.317 666.687 460.244 665.915 461.789ZM656.497 487.745C656.188 487.745 655.879 487.745 655.724 487.59C653.717 488.517 652.791 490.217 652.791 492.38C652.791 496.087 655.57 497.941 660.357 497.941C665.607 497.941 667.768 495.933 667.768 492.534C667.768 489.599 666.224 488.208 662.827 487.899L656.497 487.745ZM665.298 469.514C665.298 464.879 663.136 462.562 659.893 462.562C656.497 462.562 654.335 465.034 654.335 469.514C654.335 474.149 656.497 476.621 659.893 476.621C663.29 476.621 665.298 474.149 665.298 469.514Z" fill="#00BFFF"/>
<path id="Vector_114" d="M680.276 489.135H676.416V447.73H680.276V489.135Z" fill="#00BFFF"/>
<path id="Vector_115" d="M707.76 475.539H691.084C691.238 483.264 693.4 486.354 697.878 486.354C701.12 486.354 703.591 484.5 704.054 480.174L707.605 481.101C706.833 486.663 703.128 489.753 697.878 489.753C691.547 489.753 687.224 485.736 687.224 474.767C687.224 463.643 691.701 459.781 697.723 459.781C704.054 459.781 707.76 463.952 707.76 472.449V475.539ZM703.745 472.604C703.745 465.652 701.584 462.871 697.723 462.871C694.018 462.871 691.238 464.879 691.084 472.604H703.745Z" fill="#00BFFF"/>
<path id="Vector_116" d="M725.518 474.767C725.518 464.725 729.069 459.781 736.172 459.781C741.885 459.781 745.436 463.334 745.591 470.132L741.576 470.595C741.422 465.497 739.414 463.025 736.017 463.025C732.003 463.025 729.532 466.115 729.532 474.767C729.532 483.264 732.003 486.354 736.172 486.354C739.414 486.354 741.576 483.882 741.73 478.629L745.745 479.247C745.436 486.045 741.576 489.753 736.172 489.753C729.532 489.753 725.518 485.118 725.518 474.767Z" fill="#00BFFF"/>
<path id="Vector_117" d="M750.223 481.874C750.223 478.938 751.303 476.93 753.002 475.539C754.546 474.304 756.862 473.377 760.414 472.759L765.818 471.832V469.823C765.818 465.188 764.274 463.18 760.568 463.18C756.399 463.18 754.855 465.497 754.855 469.823H750.84C750.995 462.562 755.473 460.09 760.568 460.09C766.899 460.09 769.678 463.025 769.678 469.978V480.483C769.678 484.191 769.832 486.972 770.296 489.29H766.435C766.281 487.59 765.972 485.582 765.972 483.882C764.891 487.59 761.958 490.062 757.789 490.062C753.156 489.753 750.223 486.663 750.223 481.874ZM765.818 478.475V474.458L760.259 475.539C756.245 476.312 754.237 478.011 754.237 481.41C754.237 484.809 755.936 486.663 759.178 486.663C763.193 486.663 765.818 483.419 765.818 478.475Z" fill="#00BFFF"/>
<path id="Vector_118" d="M781.876 489.135H778.016V447.73H781.876V489.135Z" fill="#00BFFF"/>
<path id="Vector_119" d="M794.847 489.135H790.986V447.73H794.847V489.135Z" fill="#00BFFF"/>
<path id="Vector_120" d="M822.331 475.539H805.655C805.81 483.264 807.971 486.354 812.449 486.354C815.692 486.354 818.162 484.5 818.625 480.174L822.177 481.101C821.405 486.663 817.699 489.753 812.449 489.753C806.118 489.753 801.795 485.736 801.795 474.767C801.795 463.643 806.273 459.781 812.295 459.781C818.625 459.781 822.331 463.952 822.331 472.449V475.539ZM818.471 472.604C818.471 465.652 816.309 462.871 812.449 462.871C808.743 462.871 805.964 464.879 805.81 472.604H818.471Z" fill="#00BFFF"/>
<path id="Vector_121" d="M827.426 474.767C827.426 465.034 831.132 459.781 837.308 459.781C841.014 459.781 843.793 461.944 844.874 465.961V447.576H848.734V488.981H845.028V483.11C843.639 487.281 840.859 489.753 836.999 489.753C830.977 489.753 827.426 484.655 827.426 474.767ZM844.874 477.084V472.45C844.874 466.733 842.558 463.025 838.543 463.025C833.911 463.025 831.749 466.424 831.749 474.613C831.749 482.955 833.911 486.354 838.543 486.354C842.558 486.509 844.874 482.955 844.874 477.084Z" fill="#00BFFF"/>
<path id="Vector_122" d="M867.881 476.312L872.204 475.694C872.668 483.265 875.292 486.664 881.16 486.664C885.483 486.664 888.108 483.883 888.108 479.248C888.108 474.613 886.255 472.45 882.086 471.059L876.991 469.36C871.741 467.66 868.962 463.489 868.962 458.236C868.962 451.593 873.285 447.73 880.234 447.73C887.336 447.73 891.814 451.129 892.123 460.399L887.954 461.172C887.645 454.065 885.175 451.129 880.234 451.129C875.91 451.129 873.44 453.91 873.44 458.082C873.44 461.79 875.138 464.262 879.153 465.652L884.248 467.352C889.961 469.36 892.741 472.913 892.741 479.093C892.741 486.046 888.417 490.217 881.314 490.217C872.668 490.062 868.19 485.582 867.881 476.312Z" fill="#00BFFF"/>
<path id="Vector_123" d="M897.373 474.767C897.373 464.261 901.542 459.781 908.182 459.781C914.821 459.781 918.99 464.261 918.99 474.767C918.99 485.273 914.821 489.753 908.182 489.753C901.388 489.753 897.373 485.273 897.373 474.767ZM914.821 474.767C914.821 465.806 912.042 462.871 908.027 462.871C904.167 462.871 901.388 465.806 901.388 474.767C901.388 483.728 904.167 486.663 908.027 486.663C912.042 486.663 914.821 483.728 914.821 474.767Z" fill="#00BFFF"/>
<path id="Vector_124" d="M920.688 500.259V496.86C921.769 497.015 922.233 497.015 922.85 497.015C924.703 497.015 925.784 496.088 925.784 493.152V460.399H929.644V493.307C929.644 497.633 928.1 500.568 923.622 500.568C922.541 500.568 921.461 500.568 920.688 500.259ZM925.475 449.275H929.799V455.61H925.475V449.275Z" fill="#00BFFF"/>
<path id="Vector_125" d="M936.283 474.767C936.283 464.261 940.452 459.781 947.092 459.781C953.731 459.781 957.9 464.261 957.9 474.767C957.9 485.273 953.731 489.753 947.092 489.753C940.452 489.753 936.283 485.273 936.283 474.767ZM953.886 474.767C953.886 465.806 951.106 462.871 947.092 462.871C943.232 462.871 940.452 465.806 940.452 474.767C940.452 483.728 943.232 486.663 947.092 486.663C951.106 486.663 953.886 483.728 953.886 474.767Z" fill="#00BFFF"/>
<path id="Vector_126" d="M964.077 480.02V460.554H967.937V479.866C967.937 484.501 969.945 486.509 973.033 486.509C977.047 486.509 979.363 482.801 979.363 477.239V460.708H983.224V489.29H979.518V483.883C978.437 487.436 975.658 489.908 971.798 489.908C966.084 489.753 964.077 485.737 964.077 480.02Z" fill="#00BFFF"/>
<path id="Vector_127" d="M1002.99 459.936C1003.3 459.936 1003.45 459.936 1003.91 459.936V463.952C1003.61 463.952 1003.45 463.952 1003.3 463.952C1000.83 463.952 999.282 464.879 998.202 466.424C996.349 468.587 996.04 471.986 996.04 475.231V489.135H992.18V460.554H995.886V467.351C996.658 463.18 999.128 459.936 1002.99 459.936Z" fill="#00BFFF"/>
<path id="Vector_128" d="M1009.16 460.553H1012.87V466.27C1014.26 461.944 1016.88 459.781 1020.9 459.781C1025.99 459.781 1028.62 463.025 1028.62 469.514V489.135H1024.76V469.978C1024.76 465.497 1023.06 463.18 1019.51 463.18C1015.34 463.18 1013.18 466.579 1013.18 473.222V489.135H1009.32V460.553H1009.16Z" fill="#00BFFF"/>
<path id="Vector_129" d="M1045.91 460.554H1049.93L1054.25 482.029L1054.71 485.119H1054.87C1055.02 484.037 1055.18 483.11 1055.33 482.029L1059.96 460.554H1064.13L1068.77 482.029C1068.92 482.956 1069.23 484.037 1069.38 485.119H1069.54C1069.54 484.037 1069.85 482.956 1070 482.029L1074.32 460.554H1078.34L1071.7 489.136H1067.53L1062.74 467.352C1062.59 466.425 1062.43 465.189 1062.28 464.262H1061.97C1061.82 465.189 1061.66 466.425 1061.51 467.352L1056.72 489.136H1052.55L1045.91 460.554Z" fill="#00BFFF"/>
<path id="Vector_130" d="M1081.12 481.874C1081.12 478.938 1082.2 476.93 1083.9 475.539C1085.44 474.304 1087.76 473.377 1091.31 472.759L1096.71 471.832V469.823C1096.71 465.188 1095.17 463.18 1091.46 463.18C1087.29 463.18 1085.75 465.497 1085.75 469.823H1081.74C1081.89 462.562 1086.37 460.09 1091.46 460.09C1097.79 460.09 1100.57 463.025 1100.57 469.978V480.483C1100.57 484.191 1100.73 486.972 1101.19 489.29H1097.49C1097.33 487.59 1097.02 485.582 1097.02 483.882C1095.94 487.59 1093.01 490.062 1088.84 490.062C1084.05 489.753 1081.12 486.663 1081.12 481.874ZM1096.71 478.475V474.458L1091.15 475.539C1087.14 476.312 1085.13 478.011 1085.13 481.41C1085.13 484.809 1086.83 486.663 1090.07 486.663C1094.09 486.663 1096.71 483.419 1096.71 478.475Z" fill="#00BFFF"/>
<path id="Vector_131" d="M1106.75 479.865L1110.61 479.247C1110.76 484.037 1113.24 486.509 1116.79 486.509C1120.03 486.509 1122.04 484.809 1122.04 481.565C1122.04 478.784 1120.8 477.239 1117.56 476.466L1113.54 475.539C1109.37 474.612 1107.21 471.831 1107.21 467.66C1107.21 462.716 1110.92 459.781 1116.32 459.781C1121.88 459.781 1125.59 462.562 1125.74 469.051L1122.04 469.669C1121.73 464.57 1119.57 462.871 1116.32 462.871C1113.08 462.871 1111.23 464.57 1111.23 467.506C1111.23 470.132 1112.31 471.677 1115.4 472.295L1119.57 473.376C1124.2 474.458 1126.05 477.239 1126.05 481.41C1126.05 486.354 1122.65 489.753 1116.79 489.753C1110.92 489.753 1107.06 486.663 1106.75 479.865Z" fill="#00BFFF"/>
<path id="Vector_132" d="M1143.65 474.767C1143.65 464.725 1147.2 459.781 1154.31 459.781C1160.02 459.781 1163.57 463.334 1163.73 470.132L1159.71 470.595C1159.56 465.497 1157.55 463.025 1154.15 463.025C1150.14 463.025 1147.67 466.115 1147.67 474.767C1147.67 483.264 1150.14 486.354 1154.31 486.354C1157.55 486.354 1159.71 483.882 1159.87 478.629L1163.88 479.247C1163.57 486.045 1159.71 489.753 1154.31 489.753C1147.51 489.753 1143.65 485.118 1143.65 474.767Z" fill="#00BFFF"/>
<path id="Vector_133" d="M1169.75 480.02V460.554H1173.61V479.866C1173.61 484.501 1175.62 486.509 1178.7 486.509C1182.72 486.509 1185.03 482.801 1185.03 477.239V460.708H1188.89V489.29H1185.19V483.883C1184.11 487.436 1181.33 489.908 1177.47 489.908C1171.76 489.753 1169.75 485.737 1169.75 480.02Z" fill="#00BFFF"/>
<path id="Vector_134" d="M1194.14 460.553H1198.47V453.292L1202.33 451.747V460.553H1208.5V463.643H1202.33V481.565C1202.33 484.655 1203.56 485.891 1206.03 485.891C1206.96 485.891 1207.58 485.736 1208.5 485.582V489.135C1207.42 489.444 1206.5 489.599 1205.11 489.599C1200.32 489.599 1198.47 486.818 1198.47 482.183V463.643H1194.14V460.553Z" fill="#00BFFF"/>
<path id="Vector_135" d="M1245.87 475.539H1229.2C1229.35 483.264 1231.51 486.354 1235.99 486.354C1239.23 486.354 1241.7 484.5 1242.17 480.174L1245.72 481.101C1244.94 486.663 1241.24 489.753 1235.99 489.753C1229.66 489.753 1225.33 485.736 1225.33 474.767C1225.33 463.643 1229.81 459.781 1235.83 459.781C1242.17 459.781 1245.87 463.952 1245.87 472.449V475.539ZM1241.86 472.604C1241.86 465.652 1239.69 462.871 1235.83 462.871C1232.13 462.871 1229.35 464.879 1229.2 472.604H1241.86Z" fill="#00BFFF"/>
<path id="Vector_136" d="M1252.82 460.553H1256.53V466.27C1257.91 461.944 1260.54 459.781 1264.55 459.781C1269.65 459.781 1272.27 463.025 1272.27 469.514V489.135H1268.41V469.978C1268.41 465.497 1266.72 463.18 1263.16 463.18C1259 463.18 1256.83 466.579 1256.83 473.222V489.135H1252.97V460.553H1252.82Z" fill="#00BFFF"/>
<path id="Vector_137" d="M1276.13 460.553H1280.46V453.292L1284.32 451.747V460.553H1290.49V463.643H1284.32V481.565C1284.32 484.655 1285.55 485.891 1288.02 485.891C1288.95 485.891 1289.57 485.736 1290.49 485.582V489.135C1289.41 489.444 1288.49 489.599 1287.1 489.599C1282.31 489.599 1280.46 486.818 1280.46 482.183V463.643H1276.13V460.553Z" fill="#00BFFF"/>
<path id="Vector_138" d="M1296.21 449.275H1300.53V455.61H1296.21V449.275ZM1296.52 460.554H1300.38V489.135H1296.52V460.554Z" fill="#00BFFF"/>
<path id="Vector_139" d="M1320.14 459.936C1320.45 459.936 1320.6 459.936 1321.07 459.936V463.952C1320.76 463.952 1320.61 463.952 1320.45 463.952C1317.98 463.952 1316.44 464.879 1315.36 466.424C1313.5 468.587 1313.19 471.986 1313.19 475.231V489.135H1309.02V460.554H1312.73V467.351C1313.66 463.18 1316.13 459.936 1320.14 459.936Z" fill="#00BFFF"/>
<path id="Vector_140" d="M1344.23 475.539H1327.55C1327.71 483.264 1329.87 486.354 1334.35 486.354C1337.59 486.354 1340.06 484.5 1340.52 480.174L1344.07 481.101C1343.3 486.663 1339.6 489.753 1334.35 489.753C1328.02 489.753 1323.69 485.736 1323.69 474.767C1323.69 463.643 1328.17 459.781 1334.19 459.781C1340.52 459.781 1344.23 463.952 1344.23 472.449V475.539ZM1340.37 472.604C1340.37 465.652 1338.21 462.871 1334.35 462.871C1330.64 462.871 1327.86 464.879 1327.71 472.604H1340.37Z" fill="#00BFFF"/>
<path id="Vector_141" d="M1355.19 489.135H1351.33V447.73H1355.19V489.135Z" fill="#00BFFF"/>
<path id="Vector_142" d="M1361.68 500.414V496.86C1362.29 497.015 1362.91 497.015 1363.22 497.015C1366.31 497.015 1367.85 495.161 1368.93 491.607L1369.55 489.136L1360.13 460.554H1364.46L1370.48 481.102C1370.94 482.492 1371.1 483.728 1371.4 484.964H1371.56C1371.71 483.728 1372.02 482.492 1372.49 481.256L1378.04 460.554H1382.06L1372.79 491.916C1370.79 498.405 1368.01 500.723 1363.68 500.723C1363.22 500.568 1362.45 500.568 1361.68 500.414Z" fill="#00BFFF"/>
<path id="Vector_143" d="M1383.91 494.542C1386.38 493.152 1386.69 491.916 1386.69 489.29V488.981H1384.07V482.801H1389.16V488.826C1389.16 492.997 1388.24 495.006 1384.99 496.551L1383.91 494.542Z" fill="#00BFFF"/>
<path id="Vector_144" d="M1407.54 481.874C1407.54 478.938 1408.62 476.93 1410.32 475.539C1411.86 474.304 1414.18 473.377 1417.73 472.759L1423.13 471.832V469.823C1423.13 465.188 1421.59 463.18 1417.88 463.18C1413.71 463.18 1412.17 465.497 1412.17 469.823H1408.15C1408.31 462.562 1412.79 460.09 1417.88 460.09C1424.21 460.09 1426.99 463.025 1426.99 469.978V480.483C1426.99 484.191 1427.15 486.972 1427.61 489.29H1423.75C1423.59 487.59 1423.29 485.582 1423.29 483.882C1422.2 487.59 1419.27 490.062 1415.1 490.062C1410.47 489.753 1407.54 486.663 1407.54 481.874ZM1423.29 478.475V474.458L1417.73 475.539C1413.71 476.312 1411.71 478.011 1411.71 481.41C1411.71 484.809 1413.4 486.663 1416.65 486.663C1420.66 486.663 1423.29 483.419 1423.29 478.475Z" fill="#00BFFF"/>
<path id="Vector_145" d="M1433.32 474.767C1433.32 464.725 1436.87 459.781 1443.98 459.781C1449.69 459.781 1453.24 463.334 1453.4 470.132L1449.38 470.595C1449.23 465.497 1447.22 463.025 1443.82 463.025C1439.81 463.025 1437.34 466.115 1437.34 474.767C1437.34 483.264 1439.81 486.354 1443.98 486.354C1447.22 486.354 1449.38 483.882 1449.54 478.629L1453.55 479.247C1453.24 486.045 1449.38 489.753 1443.98 489.753C1437.18 489.753 1433.32 485.118 1433.32 474.767Z" fill="#00BFFF"/>
<path id="Vector_146" d="M1458.34 474.767C1458.34 464.725 1461.89 459.781 1468.99 459.781C1474.7 459.781 1478.25 463.334 1478.41 470.132L1474.39 470.595C1474.24 465.497 1472.23 463.025 1468.84 463.025C1464.82 463.025 1462.35 466.115 1462.35 474.767C1462.35 483.264 1464.82 486.354 1468.99 486.354C1472.23 486.354 1474.39 483.882 1474.55 478.629L1478.56 479.247C1478.25 486.045 1474.39 489.753 1468.99 489.753C1462.2 489.753 1458.34 485.118 1458.34 474.767Z" fill="#00BFFF"/>
<path id="Vector_147" d="M1483.35 474.767C1483.35 464.261 1487.52 459.781 1494.16 459.781C1500.8 459.781 1504.97 464.261 1504.97 474.767C1504.97 485.273 1500.8 489.753 1494.16 489.753C1487.52 489.753 1483.35 485.273 1483.35 474.767ZM1500.95 474.767C1500.95 465.806 1498.17 462.871 1494.16 462.871C1490.3 462.871 1487.52 465.806 1487.52 474.767C1487.52 483.728 1490.3 486.663 1494.16 486.663C1498.02 486.663 1500.95 483.728 1500.95 474.767Z" fill="#00BFFF"/>
<path id="Vector_148" d="M1522.88 459.936C1523.19 459.936 1523.34 459.936 1523.81 459.936V463.952C1523.5 463.952 1523.34 463.952 1523.19 463.952C1520.72 463.952 1519.17 464.879 1518.09 466.424C1516.24 468.587 1515.93 471.986 1515.93 475.231V489.135H1512.07V460.554H1515.78V467.351C1516.39 463.18 1518.86 459.936 1522.88 459.936Z" fill="#00BFFF"/>
<path id="Vector_149" d="M1526.43 474.767C1526.43 465.034 1530.14 459.781 1536.31 459.781C1540.02 459.781 1542.8 461.944 1543.88 465.961V447.576H1547.74V488.981H1544.03V483.11C1542.64 487.281 1539.86 489.753 1536 489.753C1529.98 489.753 1526.43 484.655 1526.43 474.767ZM1544.03 477.084V472.45C1544.03 466.733 1541.72 463.025 1537.7 463.025C1533.07 463.025 1530.91 466.424 1530.91 474.613C1530.91 482.955 1533.07 486.354 1537.7 486.354C1541.56 486.509 1544.03 482.955 1544.03 477.084Z" fill="#00BFFF"/>
<path id="Vector_150" d="M1568.89 471.368V475.076H1554.69V471.368H1568.89Z" fill="#00BFFF"/>
<path id="Vector_151" d="M565.396 518.799H569.72V525.133H565.396V518.799ZM565.705 530.077H569.565V558.659H565.705V530.077Z" fill="#00BFFF"/>
<path id="Vector_152" d="M578.213 530.077H581.919V535.793C583.308 531.467 585.933 529.304 589.948 529.304C595.043 529.304 597.668 532.549 597.668 539.037V558.658H593.808V539.501C593.808 535.021 592.11 532.703 588.558 532.703C584.389 532.703 582.227 536.102 582.227 542.745V558.658H578.367V530.077H578.213Z" fill="#00BFFF"/>
<path id="Vector_153" d="M619.903 531.313C621.91 533.012 622.991 535.639 622.991 539.038C622.991 545.063 619.748 548.771 613.726 548.771C612.028 548.771 610.638 548.462 609.403 547.844C608.322 548.307 607.55 549.389 607.55 550.625C607.55 552.324 608.785 553.406 611.41 553.715L617.741 554.333C622.528 554.796 625.616 557.577 625.616 561.903C625.616 567.31 621.601 570.4 614.035 570.4C606.778 570.4 603.072 567.31 603.072 562.83C603.072 559.895 604.771 557.577 607.859 556.65C605.543 555.723 604.308 554.024 604.308 551.861C604.308 549.389 605.852 547.844 608.168 547.071C605.852 545.372 604.616 542.591 604.616 538.883C604.616 533.012 607.859 529.15 613.881 529.15C615.734 529.15 617.278 529.459 618.513 530.231C619.285 527.296 621.447 525.442 624.535 525.442C624.998 525.442 625.307 525.442 625.77 525.596V528.841C625.153 528.686 624.844 528.686 624.226 528.686C622.064 528.841 620.675 529.768 619.903 531.313ZM610.484 557.268C610.175 557.268 609.866 557.268 609.712 557.114C607.704 558.041 606.778 559.74 606.778 561.903C606.778 565.611 609.557 567.465 614.344 567.465C619.594 567.465 621.756 565.456 621.756 562.058C621.756 559.122 620.212 557.732 616.815 557.423L610.484 557.268ZM619.131 539.038C619.131 534.403 616.969 532.085 613.726 532.085C610.329 532.085 608.168 534.557 608.168 539.038C608.168 543.672 610.329 546.144 613.726 546.144C617.123 546.144 619.131 543.672 619.131 539.038Z" fill="#00BFFF"/>
<path id="Vector_154" d="M638.74 530.077H643.064V522.815L646.924 521.271V530.077H653.1V533.167H646.924V551.088C646.924 554.178 648.159 555.414 650.63 555.414C651.556 555.414 652.174 555.26 653.1 555.105V558.659C652.019 558.968 651.093 559.122 649.703 559.122C644.917 559.122 643.064 556.341 643.064 551.706V533.167H638.74V530.077Z" fill="#00BFFF"/>
<path id="Vector_155" d="M656.497 544.29C656.497 533.785 660.666 529.304 667.306 529.304C673.945 529.304 678.114 533.785 678.114 544.29C678.114 554.796 673.945 559.276 667.306 559.276C660.512 559.276 656.497 554.796 656.497 544.29ZM673.945 544.29C673.945 535.33 671.166 532.394 667.151 532.394C663.291 532.394 660.512 535.33 660.512 544.29C660.512 553.251 663.291 556.187 667.151 556.187C671.166 556.187 673.945 553.251 673.945 544.29Z" fill="#00BFFF"/>
<path id="Vector_156" d="M695.562 549.389L699.423 548.771C699.577 553.56 702.048 556.032 705.599 556.032C708.842 556.032 710.849 554.333 710.849 551.088C710.849 548.307 709.614 546.762 706.371 545.99L702.356 545.063C698.187 544.136 696.026 541.355 696.026 537.184C696.026 532.24 699.732 529.304 705.136 529.304C710.694 529.304 714.4 532.085 714.555 538.574L710.849 539.192C710.54 534.094 708.378 532.394 705.136 532.394C701.893 532.394 700.04 534.094 700.04 537.029C700.04 539.655 701.121 541.2 704.209 541.818L708.378 542.9C713.011 543.981 714.863 546.762 714.863 550.934C714.863 555.878 711.466 559.276 705.599 559.276C699.732 559.276 695.871 556.187 695.562 549.389Z" fill="#00BFFF"/>
<path id="Vector_157" d="M740.186 545.063H723.51C723.664 552.788 725.826 555.877 730.304 555.877C733.546 555.877 736.017 554.024 736.48 549.698L740.031 550.625C739.259 556.186 735.553 559.276 730.304 559.276C723.973 559.276 719.649 555.26 719.649 544.29C719.649 533.167 724.127 529.304 730.149 529.304C736.48 529.304 740.186 533.476 740.186 541.973V545.063ZM736.325 542.127C736.325 535.175 734.164 532.394 730.304 532.394C726.598 532.394 723.818 534.403 723.664 542.127H736.325Z" fill="#00BFFF"/>
<path id="Vector_158" d="M742.656 530.077H746.825L752.384 550.316C752.847 551.861 753.002 553.251 753.31 554.487H753.465C753.619 553.251 753.928 551.861 754.391 550.316L759.95 530.077H764.119L755.627 558.659H751.457L742.656 530.077Z" fill="#00BFFF"/>
<path id="Vector_159" d="M787.126 545.063H770.45C770.604 552.788 772.766 555.877 777.244 555.877C780.487 555.877 782.957 554.024 783.42 549.698L786.972 550.625C786.2 556.186 782.494 559.276 777.244 559.276C770.913 559.276 766.59 555.26 766.59 544.29C766.59 533.167 771.068 529.304 777.09 529.304C783.42 529.304 787.126 533.476 787.126 541.973V545.063ZM783.111 542.127C783.111 535.175 780.95 532.394 777.09 532.394C773.384 532.394 770.604 534.403 770.45 542.127H783.111Z" fill="#00BFFF"/>
<path id="Vector_160" d="M794.074 530.077H797.78V535.793C799.17 531.467 801.795 529.304 805.809 529.304C810.905 529.304 813.53 532.549 813.53 539.037V558.658H809.669V539.501C809.669 535.021 807.971 532.703 804.42 532.703C800.251 532.703 798.089 536.102 798.089 542.745V558.658H794.229V530.077H794.074Z" fill="#00BFFF"/>
<path id="Vector_161" d="M845.029 533.167H838.853V558.658H834.992V533.167H830.515V530.077H834.992V524.515C834.992 519.725 837.617 516.79 842.095 516.79C843.176 516.79 844.103 516.945 844.875 517.099V520.498C844.103 520.343 843.33 520.343 842.713 520.343C839.934 520.343 838.698 521.734 838.698 524.978V530.077H844.875V533.167H845.029Z" fill="#00BFFF"/>
<path id="Vector_162" d="M847.654 544.29C847.654 533.785 851.823 529.304 858.463 529.304C865.102 529.304 869.271 533.785 869.271 544.29C869.271 554.796 865.102 559.276 858.463 559.276C851.669 559.276 847.654 554.796 847.654 544.29ZM865.102 544.29C865.102 535.33 862.323 532.394 858.308 532.394C854.448 532.394 851.669 535.33 851.669 544.29C851.669 553.251 854.448 556.187 858.308 556.187C862.323 556.187 865.102 553.251 865.102 544.29Z" fill="#00BFFF"/>
<path id="Vector_163" d="M887.183 529.459C887.491 529.459 887.646 529.459 888.109 529.459V533.476C887.8 533.476 887.646 533.476 887.491 533.476C885.021 533.476 883.477 534.403 882.396 535.948C880.543 538.111 880.234 541.51 880.234 544.754V558.659H876.374V530.077H880.08V536.875C880.697 532.703 883.168 529.459 887.183 529.459Z" fill="#00BFFF"/>
<path id="Vector_164" d="M896.91 530.077V535.33C897.991 531.467 900.461 529.304 904.013 529.304C907.564 529.304 909.726 531.313 910.652 535.021C912.042 531.313 914.512 529.304 917.909 529.304C922.542 529.304 925.012 532.394 925.012 538.11V558.504H921.152V538.883C921.152 534.712 919.608 532.549 916.52 532.549C912.968 532.549 911.115 535.33 911.115 540.582V558.504H907.255V538.728C907.255 534.712 905.711 532.549 902.623 532.549C899.072 532.549 897.064 535.639 897.064 540.891V558.504H893.204V529.922H896.91V530.077Z" fill="#00BFFF"/>
<path id="Vector_165" d="M951.725 545.063H935.049C935.203 552.788 937.365 555.877 941.843 555.877C945.085 555.877 947.556 554.024 948.019 549.698L951.57 550.625C950.798 556.186 947.092 559.276 941.843 559.276C935.512 559.276 931.188 555.26 931.188 544.29C931.188 533.167 935.666 529.304 941.688 529.304C948.019 529.304 951.725 533.476 951.725 541.973V545.063ZM947.865 542.127C947.865 535.175 945.703 532.394 941.843 532.394C938.137 532.394 935.357 534.403 935.203 542.127H947.865Z" fill="#00BFFF"/>
<path id="Vector_166" d="M969.79 529.459C970.099 529.459 970.253 529.459 970.716 529.459V533.476C970.408 533.476 970.253 533.476 970.099 533.476C967.628 533.476 966.084 534.403 965.003 535.948C963.15 538.111 962.842 541.51 962.842 544.754V558.659H958.981V530.077H962.687V536.875C963.305 532.703 965.775 529.459 969.79 529.459Z" fill="#00BFFF"/>
<path id="Vector_167" d="M984.15 551.397C984.15 548.462 985.231 546.453 986.93 545.063C988.474 543.827 990.79 542.9 994.341 542.282L999.746 541.355V539.347C999.746 534.712 998.201 532.703 994.496 532.703C990.327 532.703 988.783 535.021 988.783 539.347H984.768C984.922 532.085 989.4 529.613 994.496 529.613C1000.83 529.613 1003.61 532.549 1003.61 539.501V550.007C1003.61 553.715 1003.76 556.496 1004.22 558.813H1000.36C1000.21 557.114 999.9 555.105 999.9 553.406C998.819 557.114 995.885 559.586 991.716 559.586C987.084 559.277 984.15 556.187 984.15 551.397ZM999.9 547.998V543.982L994.341 545.063C990.327 545.835 988.319 547.535 988.319 550.934C988.319 554.333 990.018 556.187 993.26 556.187C997.275 556.187 999.9 552.942 999.9 547.998Z" fill="#00BFFF"/>
<path id="Vector_168" d="M1011.79 530.077H1015.49V535.793C1016.88 531.467 1019.51 529.304 1023.52 529.304C1028.62 529.304 1031.24 532.549 1031.24 539.037V558.658H1027.38V539.501C1027.38 535.021 1025.69 532.703 1022.13 532.703C1017.97 532.703 1015.8 536.102 1015.8 542.745V558.658H1011.94V530.077H1011.79Z" fill="#00BFFF"/>
<path id="Vector_169" d="M1037.42 544.29C1037.42 534.557 1041.13 529.304 1047.3 529.304C1051.01 529.304 1053.79 531.467 1054.87 535.484V517.099H1058.73V558.504H1055.02V552.633C1053.63 556.805 1050.85 559.276 1046.99 559.276C1040.97 559.276 1037.42 554.178 1037.42 544.29ZM1054.87 546.608V541.973C1054.87 536.257 1052.55 532.549 1048.54 532.549C1043.91 532.549 1041.74 535.948 1041.74 544.136C1041.74 552.479 1043.91 555.878 1048.54 555.878C1052.55 556.032 1054.87 552.479 1054.87 546.608Z" fill="#00BFFF"/>
<path id="Vector_170" d="M1078.49 544.29C1078.49 534.248 1082.04 529.304 1089.15 529.304C1094.86 529.304 1098.41 532.858 1098.57 539.655L1094.55 540.119C1094.4 535.021 1092.39 532.549 1088.99 532.549C1084.98 532.549 1082.51 535.639 1082.51 544.29C1082.51 552.788 1084.98 555.877 1089.15 555.877C1092.39 555.877 1094.55 553.406 1094.71 548.153L1098.72 548.771C1098.41 555.569 1094.55 559.276 1089.15 559.276C1082.35 559.276 1078.49 554.642 1078.49 544.29Z" fill="#00BFFF"/>
<path id="Vector_171" d="M1104.74 549.543V530.077H1108.6V549.389C1108.6 554.024 1110.61 556.032 1113.7 556.032C1117.71 556.032 1120.03 552.324 1120.03 546.762V530.231H1123.89V558.813H1120.18V553.406C1119.1 556.959 1116.32 559.431 1112.46 559.431C1106.6 559.277 1104.74 555.26 1104.74 549.543Z" fill="#00BFFF"/>
<path id="Vector_172" d="M1143.65 529.459C1143.96 529.459 1144.12 529.459 1144.58 529.459V533.476C1144.27 533.476 1144.12 533.476 1143.96 533.476C1141.49 533.476 1139.95 534.403 1138.87 535.948C1137.01 538.111 1136.7 541.51 1136.7 544.754V558.659H1132.84V530.077H1136.55V536.875C1137.17 532.703 1139.64 529.459 1143.65 529.459Z" fill="#00BFFF"/>
<path id="Vector_173" d="M1160.79 529.459C1161.1 529.459 1161.26 529.459 1161.72 529.459V533.476C1161.41 533.476 1161.26 533.476 1161.1 533.476C1158.63 533.476 1157.09 534.403 1156.01 535.948C1154.15 538.111 1153.84 541.51 1153.84 544.754V558.659H1149.98V530.077H1153.69V536.875C1154.46 532.703 1156.78 529.459 1160.79 529.459Z" fill="#00BFFF"/>
<path id="Vector_174" d="M1185.04 545.063H1168.36C1168.51 552.788 1170.68 555.877 1175.15 555.877C1178.4 555.877 1180.87 554.024 1181.33 549.698L1184.88 550.625C1184.11 556.186 1180.4 559.276 1175.15 559.276C1168.82 559.276 1164.5 555.26 1164.5 544.29C1164.5 533.167 1168.98 529.304 1175 529.304C1181.33 529.304 1185.04 533.476 1185.04 541.973V545.063ZM1181.02 542.127C1181.02 535.175 1178.86 532.394 1175 532.394C1171.29 532.394 1168.51 534.403 1168.36 542.127H1181.02Z" fill="#00BFFF"/>
<path id="Vector_175" d="M1191.83 530.077H1195.53V535.793C1196.92 531.467 1199.55 529.304 1203.56 529.304C1208.66 529.304 1211.28 532.549 1211.28 539.037V558.658H1207.42V539.501C1207.42 535.021 1205.72 532.703 1202.17 532.703C1198 532.703 1195.84 536.102 1195.84 542.745V558.658H1191.98V530.077H1191.83Z" fill="#00BFFF"/>
<path id="Vector_176" d="M1215.3 530.077H1219.62V522.815L1223.48 521.271V530.077H1229.66V533.167H1223.48V551.088C1223.48 554.178 1224.72 555.414 1227.19 555.414C1228.11 555.414 1228.73 555.26 1229.66 555.105V558.659C1228.58 558.968 1227.65 559.122 1226.26 559.122C1221.48 559.122 1219.62 556.341 1219.62 551.706V533.167H1215.3V530.077Z" fill="#00BFFF"/>
<path id="Vector_177" d="M1267.03 545.063H1250.35C1250.5 552.788 1252.67 555.877 1257.14 555.877C1260.39 555.877 1262.86 554.024 1263.32 549.698L1266.87 550.625C1266.1 556.186 1262.39 559.276 1257.14 559.276C1250.81 559.276 1246.49 555.26 1246.49 544.29C1246.49 533.167 1250.97 529.304 1256.99 529.304C1263.32 529.304 1267.03 533.476 1267.03 541.973V545.063ZM1263.01 542.127C1263.01 535.175 1260.85 532.394 1256.99 532.394C1253.28 532.394 1250.5 534.403 1250.35 542.127H1263.01Z" fill="#00BFFF"/>
<path id="Vector_178" d="M1277.53 530.077V535.33C1278.61 531.467 1281.08 529.304 1284.63 529.304C1288.18 529.304 1290.34 531.313 1291.27 535.021C1292.66 531.313 1295.13 529.304 1298.52 529.304C1303.16 529.304 1305.63 532.394 1305.63 538.11V558.504H1301.77V538.883C1301.77 534.712 1300.22 532.549 1297.13 532.549C1293.58 532.549 1291.73 535.33 1291.73 540.582V558.504H1287.87V538.728C1287.87 534.712 1286.33 532.549 1283.24 532.549C1279.69 532.549 1277.68 535.639 1277.68 540.891V558.504H1273.82V529.922H1277.53V530.077Z" fill="#00BFFF"/>
<path id="Vector_179" d="M1313.5 530.077H1317.21V535.948C1318.29 531.776 1321.38 529.304 1325.39 529.304C1331.41 529.304 1334.81 534.094 1334.81 544.29C1334.81 554.024 1331.1 559.276 1324.93 559.276C1321.07 559.276 1318.44 556.805 1317.21 553.097V569.782H1313.35V530.077H1313.5ZM1330.64 544.29C1330.64 536.256 1328.48 532.703 1324.31 532.703C1320.14 532.703 1317.52 536.411 1317.52 541.973V546.762C1317.52 552.479 1320.14 556.032 1324.16 556.032C1328.48 556.032 1330.64 552.479 1330.64 544.29Z" fill="#00BFFF"/>
<path id="Vector_180" d="M1345.93 558.659H1342.07V517.254H1345.93V558.659Z" fill="#00BFFF"/>
<path id="Vector_181" d="M1353.03 544.29C1353.03 533.785 1357.2 529.304 1363.84 529.304C1370.48 529.304 1374.65 533.785 1374.65 544.29C1374.65 554.796 1370.48 559.276 1363.84 559.276C1357.04 559.276 1353.03 554.796 1353.03 544.29ZM1370.48 544.29C1370.48 535.33 1367.7 532.394 1363.68 532.394C1359.82 532.394 1357.04 535.33 1357.04 544.29C1357.04 553.251 1359.82 556.187 1363.68 556.187C1367.7 556.187 1370.48 553.251 1370.48 544.29Z" fill="#00BFFF"/>
<path id="Vector_182" d="M1378.35 569.937V566.383C1378.97 566.538 1379.59 566.538 1379.9 566.538C1382.99 566.538 1384.53 564.684 1385.61 561.13L1386.23 558.658L1376.81 530.077H1381.13L1387.15 550.625C1387.62 552.015 1387.77 553.251 1388.08 554.487H1388.24C1388.39 553.251 1388.7 552.015 1389.16 550.779L1394.72 530.077H1398.74L1389.47 561.439C1387.46 567.928 1384.68 570.246 1380.36 570.246C1379.9 570.091 1379.28 570.091 1378.35 569.937Z" fill="#00BFFF"/>
<path id="Vector_183" d="M1421.9 545.063H1405.22C1405.37 552.788 1407.54 555.877 1412.01 555.877C1415.26 555.877 1417.73 554.024 1418.19 549.698L1421.74 550.625C1420.97 556.186 1417.26 559.276 1412.01 559.276C1405.68 559.276 1401.36 555.26 1401.36 544.29C1401.36 533.167 1405.84 529.304 1411.86 529.304C1418.19 529.304 1421.9 533.476 1421.9 541.973V545.063ZM1417.88 542.127C1417.88 535.175 1415.72 532.394 1411.86 532.394C1408.15 532.394 1405.37 534.403 1405.22 542.127H1417.88Z" fill="#00BFFF"/>
<path id="Vector_184" d="M1447.53 545.063H1430.85C1431.01 552.788 1433.17 555.877 1437.65 555.877C1440.89 555.877 1443.36 554.024 1443.82 549.698L1447.37 550.625C1446.6 556.186 1442.9 559.276 1437.65 559.276C1431.32 559.276 1426.99 555.26 1426.99 544.29C1426.99 533.167 1431.47 529.304 1437.49 529.304C1443.82 529.304 1447.53 533.476 1447.53 541.973V545.063ZM1443.51 542.127C1443.51 535.175 1441.35 532.394 1437.49 532.394C1433.79 532.394 1431.01 534.403 1430.85 542.127H1443.51Z" fill="#00BFFF"/>
<path id="Vector_185" d="M1452.47 549.389L1456.33 548.771C1456.48 553.56 1458.95 556.032 1462.51 556.032C1465.75 556.032 1467.76 554.333 1467.76 551.088C1467.76 548.307 1466.52 546.762 1463.28 545.99L1459.26 545.063C1455.09 544.136 1452.93 541.355 1452.93 537.184C1452.93 532.24 1456.64 529.304 1462.04 529.304C1467.6 529.304 1471.31 532.085 1471.46 538.574L1467.76 539.192C1467.45 534.094 1465.28 532.394 1462.04 532.394C1458.8 532.394 1456.95 534.094 1456.95 537.029C1456.95 539.655 1458.03 541.2 1461.12 541.818L1465.28 542.9C1469.92 543.981 1471.77 546.762 1471.77 550.934C1471.77 555.878 1468.37 559.276 1462.51 559.276C1456.64 559.276 1452.78 556.187 1452.47 549.389Z" fill="#00BFFF"/>
<path id="Vector_186" d="M1481.96 558.659H1476.87V552.479H1481.96V558.659Z" fill="#00BFFF"/>
</g>
<g id="Group_3">
<path id="Vector_187" d="M565.396 644.559H568.793L576.668 670.977C576.977 672.059 577.131 672.831 577.286 673.913H577.44C577.595 672.831 577.749 672.213 578.058 670.977L585.933 644.559H589.33V676.385H587.168V651.356C587.168 650.12 587.168 648.112 587.322 647.03H587.168C587.014 648.112 586.705 649.193 586.396 650.584L578.521 676.385H576.205L568.33 650.584C568.021 649.039 567.713 647.648 567.558 647.03H567.404C567.404 648.266 567.558 650.12 567.558 651.356V676.385H565.396V644.559Z" fill="#00BFFF"/>
<path id="Vector_188" d="M595.352 670.823C595.352 668.814 596.124 667.269 597.204 666.188C598.285 665.106 600.138 664.334 602.918 663.87L607.704 662.943V660.935C607.704 656.918 606.469 655.219 603.072 655.219C599.829 655.219 598.131 656.918 598.131 661.089H595.815C595.969 655.682 599.057 653.519 603.072 653.519C607.704 653.519 609.866 655.682 609.866 660.935V669.123C609.866 672.059 610.02 674.376 610.329 676.384H608.167C608.013 674.994 607.859 673.295 607.859 671.75C606.932 674.994 604.77 677.002 601.373 677.002C597.668 676.848 595.352 674.531 595.352 670.823ZM607.704 667.887V664.643L602.763 665.57C599.212 666.188 597.513 667.733 597.513 670.668C597.513 673.604 599.057 675.148 601.837 675.148C605.388 675.148 607.704 672.213 607.704 667.887Z" fill="#00BFFF"/>
<path id="Vector_189" d="M613.88 685.191V683.182C614.344 683.337 614.807 683.337 615.116 683.337C617.741 683.337 618.976 681.483 619.748 678.702L620.366 676.539L613.108 653.983H615.425L620.52 670.823C620.829 672.059 621.138 672.986 621.446 674.067C621.755 672.986 621.91 672.059 622.373 670.823L627.005 653.828H629.321L622.064 678.548C620.674 683.337 618.667 685.191 615.425 685.191C614.807 685.345 614.344 685.345 613.88 685.191Z" fill="#00BFFF"/>
<path id="Vector_190" d="M646.46 649.502C645.534 651.202 643.218 652.283 641.211 652.283H640.284V650.275H640.902C643.681 650.275 646.152 648.421 646.769 645.176H648.622V676.384H646.46V649.502Z" fill="#00BFFF"/>
<path id="Vector_191" d="M655.57 667.424L657.886 667.269C657.886 672.522 660.357 675.149 664.217 675.149C668.077 675.149 670.393 673.14 670.393 668.042C670.393 663.252 668.077 661.089 664.217 661.089H662.364V659.081H663.908C667.46 659.081 669.621 657.072 669.621 652.438C669.621 648.112 667.46 646.412 664.063 646.412C660.203 646.412 658.041 648.73 658.041 654.137L655.725 653.828C655.725 647.803 658.658 644.404 664.063 644.404C669.004 644.404 671.938 646.876 671.938 652.283C671.938 656.609 669.93 659.235 666.842 659.853C670.548 660.317 672.71 663.098 672.71 667.887C672.71 674.067 669.467 676.848 664.217 676.848C658.813 677.003 655.725 673.758 655.57 667.424Z" fill="#00BFFF"/>
<path id="Vector_192" d="M676.57 680.556C678.114 679.475 678.423 678.393 678.423 676.539V676.23H677.188V671.75H679.967V676.23C679.967 679.011 679.35 680.556 677.342 681.638L676.57 680.556Z" fill="#00BFFF"/>
<path id="Vector_193" d="M694.481 674.376C698.65 670.05 702.047 666.497 704.827 662.944C707.452 659.545 708.687 656.3 708.687 653.056C708.687 648.884 706.68 646.567 703.128 646.567C699.422 646.567 697.261 648.73 697.261 652.747C697.261 653.674 697.261 654.601 697.57 655.528L695.253 655.219C695.099 654.446 695.099 653.519 695.099 652.592C695.099 647.648 698.187 644.559 703.283 644.559C708.224 644.559 711.157 647.494 711.157 652.901C711.157 656.455 709.768 660.008 706.988 663.716C704.672 666.961 700.967 670.668 697.415 674.376H711.775V676.385H694.481V674.376Z" fill="#00BFFF"/>
<path id="Vector_194" d="M715.326 660.781C715.326 648.575 718.723 644.559 724.591 644.559C730.613 644.559 734.01 648.575 734.01 660.781C734.01 672.986 730.613 677.003 724.591 677.003C718.723 677.003 715.326 672.986 715.326 660.781ZM731.693 660.781C731.693 649.811 729.223 646.413 724.591 646.413C720.113 646.413 717.488 649.657 717.488 660.781C717.488 671.904 720.113 675.149 724.591 675.149C729.223 675.149 731.693 671.75 731.693 660.781Z" fill="#00BFFF"/>
<path id="Vector_195" d="M738.024 674.376C742.193 670.05 745.59 666.497 748.37 662.944C750.995 659.545 752.23 656.3 752.23 653.056C752.23 648.884 750.223 646.567 746.671 646.567C742.965 646.567 740.804 648.73 740.804 652.747C740.804 653.674 740.804 654.601 741.113 655.528L738.796 655.219C738.642 654.446 738.642 653.519 738.642 652.592C738.642 647.648 741.73 644.559 746.826 644.559C751.767 644.559 754.7 647.494 754.7 652.901C754.7 656.455 753.311 660.008 750.531 663.716C748.215 666.961 744.51 670.668 740.958 674.376H755.318V676.385H738.179V674.376H738.024Z" fill="#00BFFF"/>
<path id="Vector_196" d="M758.869 660.781C758.869 648.575 762.266 644.559 768.134 644.559C774.155 644.559 777.552 648.575 777.552 660.781C777.552 672.986 774.155 677.003 768.134 677.003C762.266 677.003 758.869 672.986 758.869 660.781ZM775.236 660.781C775.236 649.811 772.766 646.413 768.134 646.413C763.656 646.413 761.031 649.657 761.031 660.781C761.031 671.904 763.656 675.149 768.134 675.149C772.766 675.149 775.236 671.75 775.236 660.781Z" fill="#00BFFF"/>
<path id="Vector_197" d="M582.69 721.652C582.69 726.596 580.374 730.458 573.889 730.458H565.396V698.632H573.426C580.065 698.632 582.073 702.649 582.073 706.666C582.073 710.219 580.528 713.154 576.823 713.772C580.683 714.39 582.69 717.326 582.69 721.652ZM567.713 700.486V713.154H573.58C578.521 713.154 579.756 710.065 579.756 706.82C579.756 703.421 578.367 700.486 573.271 700.486H567.713ZM580.22 721.652C580.22 717.48 578.521 714.854 573.58 714.854H567.558V728.45H573.426C578.676 728.604 580.22 725.669 580.22 721.652Z" fill="#00BFFF"/>
<path id="Vector_198" d="M586.242 739.265V737.256C586.705 737.411 587.168 737.411 587.477 737.411C590.102 737.411 591.337 735.557 592.109 732.776L592.727 730.613L585.47 708.056H587.786L592.881 724.896C593.19 726.132 593.499 727.059 593.808 728.141C594.117 727.059 594.271 726.132 594.734 724.896L599.366 707.902H601.683L594.425 732.621C593.036 737.411 591.028 739.265 587.786 739.265C587.168 739.419 586.705 739.419 586.242 739.265Z" fill="#00BFFF"/>
<path id="Vector_199" d="M627.469 721.034H616.197L613.572 730.458H611.256L620.675 698.632H623.145L632.564 730.458H630.248L627.469 721.034ZM626.851 719.025L622.991 705.739C622.373 703.885 622.064 702.494 621.91 701.104H621.756C621.447 702.494 621.292 703.73 620.675 705.739L616.815 719.025H626.851Z" fill="#00BFFF"/>
<path id="Vector_200" d="M637.196 708.056H639.358V713.155C640.284 709.601 642.755 707.593 645.998 707.593C650.475 707.593 653.409 710.837 653.409 719.18C653.409 727.214 650.475 731.076 645.843 731.076C642.755 731.076 640.439 729.068 639.512 725.823V739.265H637.351V708.056H637.196ZM650.939 719.18C650.939 712.073 649.086 709.447 645.38 709.447C641.829 709.447 639.358 712.691 639.358 717.481V721.034C639.358 725.978 641.674 729.222 645.225 729.222C648.931 729.068 650.939 726.287 650.939 719.18Z" fill="#00BFFF"/>
<path id="Vector_201" d="M666.843 707.593C666.997 707.593 667.151 707.593 667.46 707.593V709.756H666.843C665.144 709.756 663.909 710.374 662.982 711.61C661.438 713.309 660.975 715.936 660.975 718.562V730.458H658.968V708.056H660.975V713.773C661.747 710.065 663.754 707.593 666.843 707.593Z" fill="#00BFFF"/>
<path id="Vector_202" d="M671.938 699.25H674.254V704.194H671.938V699.25ZM671.938 708.056H674.099V730.458H671.938V708.056Z" fill="#00BFFF"/>
<path id="Vector_203" d="M683.672 730.458H681.511V698.014H683.672V730.458Z" fill="#00BFFF"/>
<path id="Vector_204" d="M699.886 714.545C699.886 702.958 703.437 697.86 710.385 697.86C717.025 697.86 719.341 702.495 719.65 708.057L717.334 708.366C717.025 703.422 715.481 699.868 710.385 699.868C705.29 699.868 702.511 704.04 702.511 714.545C702.511 724.433 704.981 729.222 710.385 729.222C716.407 729.222 717.951 722.888 717.951 718.099V716.09H710.077V714.082H720.268V730.458H718.415L718.26 724.279C717.025 728.604 714.246 731.231 709.922 731.231C703.283 731.231 699.886 725.824 699.886 714.545Z" fill="#00BFFF"/>
<path id="Vector_205" d="M728.451 730.458H726.289V698.014H728.451V730.458Z" fill="#00BFFF"/>
<path id="Vector_206" d="M734.318 724.896C734.318 722.888 735.09 721.343 736.171 720.261C737.252 719.18 739.105 718.408 741.884 717.944L746.671 717.017V715.009C746.671 710.992 745.436 709.292 742.039 709.292C738.796 709.292 737.098 710.992 737.098 715.163H734.782C734.936 709.756 738.024 707.593 742.039 707.593C746.671 707.593 748.833 709.756 748.833 715.009V723.197C748.833 726.132 748.987 728.45 749.296 730.458H747.134C746.98 729.068 746.825 727.368 746.825 725.823C745.899 729.068 743.737 731.076 740.34 731.076C736.634 730.922 734.318 728.604 734.318 724.896ZM746.671 721.961V718.717L741.73 719.643C738.179 720.261 736.48 721.806 736.48 724.742C736.48 727.677 738.024 729.222 740.803 729.222C744.355 729.222 746.671 726.287 746.671 721.961Z" fill="#00BFFF"/>
<path id="Vector_207" d="M753.928 723.042L756.089 722.733C756.244 727.214 758.406 729.222 761.494 729.222C764.427 729.222 766.126 727.677 766.126 724.896C766.126 722.579 765.045 721.188 762.266 720.261L759.332 719.334C756.089 718.407 754.545 716.399 754.545 713.309C754.545 709.601 757.17 707.438 761.185 707.438C765.354 707.438 767.979 709.446 768.133 714.854L765.972 715.163C765.817 710.528 764.119 709.137 761.185 709.137C758.406 709.137 756.861 710.682 756.861 713.154C756.861 715.472 757.788 716.708 760.413 717.48L763.501 718.407C767.052 719.489 768.442 721.497 768.442 724.587C768.442 728.45 765.972 730.922 761.648 730.922C756.861 730.922 753.928 728.759 753.928 723.042Z" fill="#00BFFF"/>
<path id="Vector_208" d="M787.435 719.334H774.31C774.465 726.596 776.626 729.068 780.178 729.068C782.957 729.068 785.119 727.214 785.427 723.351L787.435 723.815C786.972 728.45 784.192 730.922 780.178 730.922C775.237 730.922 772.148 727.677 772.148 719.18C772.148 710.373 775.391 707.438 779.869 707.438C784.501 707.438 787.28 710.373 787.28 717.635V719.334H787.435ZM785.273 717.789C785.273 711.609 783.42 709.292 779.869 709.292C776.626 709.292 774.31 711.3 774.156 717.789H785.273Z" fill="#00BFFF"/>
<path id="Vector_209" d="M801.177 707.593C801.331 707.593 801.485 707.593 801.794 707.593V709.756H801.177C799.478 709.756 798.243 710.374 797.316 711.61C795.772 713.309 795.309 715.936 795.309 718.562V730.458H793.302V708.056H795.309V713.773C796.081 710.065 798.088 707.593 801.177 707.593Z" fill="#00BFFF"/>
<path id="Vector_210" d="M565.396 806.779H568.021L580.992 831.499C581.609 832.889 582.073 833.971 582.536 835.516H582.69C582.536 833.971 582.536 832.58 582.536 830.417V806.779H584.697V838.605H582.227L569.102 813.577C568.33 812.187 568.021 810.951 567.558 809.56H567.404C567.558 811.105 567.558 812.341 567.558 814.504V838.76H565.396V806.779Z" fill="#00BFFF"/>
<path id="Vector_211" d="M609.866 829.799C609.866 834.743 607.55 838.605 601.065 838.605H592.572V806.779H600.601C607.241 806.779 609.248 810.796 609.248 814.813C609.248 818.367 607.704 821.302 603.998 821.92C607.859 822.538 609.866 825.473 609.866 829.799ZM594.888 808.633V821.302H600.756C605.697 821.302 606.932 818.212 606.932 814.968C606.932 811.569 605.543 808.633 600.447 808.633H594.888ZM607.395 829.799C607.395 825.628 605.697 823.001 600.756 823.001H594.734V836.597H600.601C606.006 836.752 607.395 833.816 607.395 829.799Z" fill="#00BFFF"/>
<path id="Vector_212" d="M614.498 822.692C614.498 811.26 618.049 806.007 624.998 806.007C630.865 806.007 634.108 809.406 634.417 816.976L632.101 817.131C631.792 810.642 629.321 807.861 624.998 807.861C619.593 807.861 616.969 812.341 616.969 822.538C616.969 832.58 619.593 837.215 625.152 837.215C629.167 837.215 631.792 834.434 632.255 828.1L634.571 828.409C634.108 835.67 630.865 839.224 625.152 839.224C617.586 839.378 614.498 833.816 614.498 822.692Z" fill="#00BFFF"/>
<path id="Vector_213" d="M650.938 806.779H653.563L666.534 831.499C667.151 832.889 667.615 833.971 668.078 835.516H668.232C668.078 833.971 668.078 832.58 668.078 830.417V806.779H670.239V838.605H667.769L654.644 813.577C653.872 812.187 653.563 810.951 653.1 809.56H652.946C653.1 811.105 653.1 812.341 653.1 814.504V838.76H650.938V806.779Z" fill="#00BFFF"/>
<path id="Vector_214" d="M691.547 827.482H678.422C678.577 834.743 680.739 837.215 684.29 837.215C687.069 837.215 689.231 835.361 689.54 831.499L691.547 831.962C691.084 836.597 688.305 839.069 684.29 839.069C679.349 839.069 676.261 835.824 676.261 827.327C676.261 818.521 679.503 815.585 683.981 815.585C688.613 815.585 691.393 818.521 691.393 825.782V827.482H691.547ZM689.385 825.937C689.385 819.757 687.533 817.439 683.981 817.439C680.739 817.439 678.422 819.448 678.268 825.937H689.385Z" fill="#00BFFF"/>
<path id="Vector_215" d="M694.636 816.204H696.797L700.658 833.662C700.812 834.434 700.966 835.207 701.121 836.134H701.275C701.43 835.207 701.584 834.434 701.738 833.662L705.753 816.204H708.069L712.084 833.662C712.238 834.434 712.393 835.207 712.547 836.134H712.701C712.856 835.207 713.01 834.28 713.165 833.662L717.025 816.204H719.187L713.937 838.606H711.466L707.297 820.838C707.143 820.066 706.988 819.294 706.834 818.521L706.371 820.838L702.202 838.606H699.886L694.636 816.204Z" fill="#00BFFF"/>
<path id="Vector_216" d="M721.966 831.19L724.128 830.881C724.282 835.361 726.444 837.369 729.532 837.369C732.466 837.369 734.164 835.824 734.164 833.043C734.164 830.726 733.083 829.336 730.304 828.409L727.37 827.482C724.128 826.555 722.583 824.546 722.583 821.456C722.583 817.748 725.208 815.585 729.223 815.585C733.392 815.585 736.017 817.594 736.171 823.001L734.01 823.31C733.855 818.675 732.157 817.285 729.223 817.285C726.444 817.285 724.9 818.83 724.9 821.302C724.9 823.619 725.826 824.855 728.451 825.628L731.539 826.555C735.09 827.636 736.48 829.645 736.48 832.734C736.48 836.597 734.01 839.069 729.686 839.069C725.054 839.069 722.12 836.906 721.966 831.19Z" fill="#00BFFF"/>
</g>
</g>
</g>
</g>
</svg>
