<svg width="898" height="1222" viewBox="0 0 898 1222" fill="none" xmlns="http://www.w3.org/2000/svg">
<g id="company1 1">
<g id="screen">
<path id="Vector" d="M857.141 1220.32H40.8585C19.2536 1220.32 1.67871 1202.74 1.67871 1181.13V212.084C1.67871 190.472 19.2536 172.892 40.8585 172.892H857.141C878.746 172.892 896.32 190.472 896.32 212.084V1181.13C896.32 1202.74 878.746 1220.32 857.141 1220.32Z" fill="#D4F4FF" stroke="#00BCFF" stroke-width="3" stroke-miterlimit="10" stroke-linecap="round" stroke-linejoin="round"/>
<path id="Vector_2" d="M1.45508 210.852H896.321" stroke="#00BCFF" stroke-width="3" stroke-miterlimit="10"/>
<g id="Group">
<path id="Vector_3" d="M30.5599 200.102C26.7539 200.102 23.7314 197.079 23.7314 193.272C23.7314 189.465 26.7539 186.441 30.5599 186.441C34.3659 186.441 37.3884 189.465 37.3884 193.272C37.3884 197.079 34.3659 200.102 30.5599 200.102Z" fill="white"/>
<path id="Vector_4" d="M30.5603 188.121C33.3589 188.121 35.7097 190.472 35.7097 193.272C35.7097 196.071 33.3589 198.423 30.5603 198.423C27.7618 198.423 25.411 196.071 25.411 193.272C25.411 190.472 27.7618 188.121 30.5603 188.121ZM30.5603 184.761C25.8588 184.761 22.0527 188.569 22.0527 193.272C22.0527 197.975 25.8588 201.782 30.5603 201.782C35.2619 201.782 39.0679 197.975 39.0679 193.272C39.1799 188.569 35.3738 184.761 30.5603 184.761Z" fill="#00BCFF"/>
<path id="Vector_5" d="M53.3959 200.102C49.5898 200.102 46.5674 197.079 46.5674 193.272C46.5674 189.465 49.5898 186.441 53.3959 186.441C57.2019 186.441 60.2243 189.465 60.2243 193.272C60.2243 197.079 57.0899 200.102 53.3959 200.102Z" fill="white"/>
<path id="Vector_6" d="M53.3963 188.121C56.1948 188.121 58.5456 190.472 58.5456 193.272C58.5456 196.071 56.1948 198.423 53.3963 198.423C50.5977 198.423 48.2469 196.071 48.2469 193.272C48.2469 190.472 50.4858 188.121 53.3963 188.121ZM53.3963 184.761C48.6947 184.761 44.8887 188.569 44.8887 193.272C44.8887 197.975 48.6947 201.782 53.3963 201.782C58.0978 201.782 61.9039 197.975 61.9039 193.272C61.9039 188.569 58.0978 184.761 53.3963 184.761Z" fill="#00BCFF"/>
<path id="Vector_7" d="M76.1205 200.102C72.3144 200.102 69.292 197.079 69.292 193.272C69.292 189.465 72.3144 186.441 76.1205 186.441C79.9265 186.441 82.9489 189.465 82.9489 193.272C82.9489 197.079 79.9265 200.102 76.1205 200.102Z" fill="white"/>
<path id="Vector_8" d="M76.1209 188.121C78.9194 188.121 81.2702 190.472 81.2702 193.272C81.2702 196.071 78.9194 198.423 76.1209 198.423C73.3223 198.423 70.9715 196.071 70.9715 193.272C70.9715 190.472 73.2104 188.121 76.1209 188.121ZM76.1209 184.761C71.4193 184.761 67.6133 188.569 67.6133 193.272C67.6133 197.975 71.4193 201.782 76.1209 201.782C80.8224 201.782 84.6285 197.975 84.6285 193.272C84.6285 188.569 80.8224 184.761 76.1209 184.761Z" fill="#00BCFF"/>
</g>
<g id="google-g">
<path id="Vector_9" d="M294.408 669.396C299.445 680.034 303.587 691.119 309.52 701.085C334.595 743.076 371.2 769.951 419.335 779.693C459.298 787.867 498.142 783.164 535.195 765.472C539.449 763.456 543.591 761.105 547.845 758.977C549.188 760.209 550.419 761.552 551.875 762.672C580.196 784.62 608.629 806.567 636.951 828.514C636.055 829.41 635.272 830.418 634.376 831.314C594.86 866.586 548.628 887.526 496.463 895.588C489.523 896.708 482.582 897.828 475.642 898.836C460.978 898.836 446.201 898.836 431.537 898.836C424.932 897.828 418.328 896.708 411.723 895.7C345.005 885.51 288.922 855.389 243.362 805.783C226.123 787.083 212.13 766.032 200.712 743.188C200.376 742.516 200.264 741.845 200.152 741.173C203.846 738.373 207.429 735.686 211.123 732.886C238.772 711.723 266.646 690.559 294.408 669.396Z" fill="#2DA14F"/>
<path id="Vector_10" d="M636.951 828.514C608.63 806.567 580.197 784.62 551.875 762.672C550.42 761.552 549.189 760.209 547.845 758.977C551.875 755.842 555.905 752.706 559.935 749.459C582.883 730.871 597.1 706.908 604.04 678.354C605.272 673.315 602.249 674.323 599.675 674.323C558.928 674.323 518.181 674.323 477.434 674.323C471.165 674.323 464.896 674.099 458.739 674.435C454.709 674.659 453.366 673.539 453.478 669.284C453.702 653.831 453.59 638.378 453.59 623.038C453.59 605.457 453.702 587.765 453.478 570.185C453.478 566.265 454.597 565.258 458.404 565.258C542.808 565.37 627.324 565.37 711.729 565.258C715.759 565.258 717.326 566.601 717.774 570.297C719.229 580.822 720.908 591.348 722.475 601.874C722.699 603.218 723.259 604.561 723.595 605.793C723.595 615.311 723.595 624.941 723.595 634.459C723.259 635.579 722.587 636.699 722.475 637.818C721.02 650.248 720.012 662.677 717.997 674.995C710.497 720.905 693.146 762.784 664.153 799.289C655.869 809.59 646.019 818.772 636.951 828.514Z" fill="#3F80EE"/>
<path id="Vector_11" d="M200.041 492.025C206.646 480.379 212.579 468.286 220.079 457.312C249.408 414.313 287.916 381.84 335.155 360.116C362.469 347.575 391.238 339.737 421.239 336.377C474.747 330.331 525.793 338.729 574.376 362.02C596.876 372.77 617.361 386.431 636.504 402.444C639.526 405.019 638.518 406.139 636.392 408.266C617.138 427.414 597.884 446.674 578.629 465.934C572.697 471.869 566.54 477.692 560.719 483.963C558.144 486.65 556.465 486.762 553.554 484.522C537.994 472.205 520.643 463.023 501.613 457.536C452.583 443.203 406.015 449.474 362.917 476.796C331.573 496.728 309.52 524.61 296.759 559.547C296.199 561.114 295.416 562.57 294.632 564.026C289.931 560.554 285.229 557.083 280.639 553.612C253.661 532.896 226.795 512.517 200.041 492.025Z" fill="#E4412D"/>
<path id="Vector_12" d="M200.041 492.025C226.907 512.517 253.773 532.896 280.639 553.388C285.229 556.971 290.042 560.331 294.632 563.802C292.393 574.552 289.595 585.189 288.027 596.051C284.669 618.446 286.796 640.618 292.841 662.453C293.513 664.693 293.96 667.044 294.408 669.396C266.534 690.559 238.773 711.835 210.899 732.998C207.205 735.798 203.623 738.485 199.929 741.285C191.645 726.28 186.048 710.267 181.346 693.807C172.279 662.229 169.257 629.98 171.384 597.395C173.734 560.89 183.026 526.178 198.921 493.257C199.145 492.809 199.593 492.473 200.041 492.025Z" fill="#F4B401"/>
</g>
<path id="button-hole" d="M736.244 1136.56H138.137C113.062 1136.56 92.6885 1116.18 92.6885 1091.1V1080.57C92.6885 1055.49 113.062 1035.11 138.137 1035.11H736.244C761.319 1035.11 781.692 1055.49 781.692 1080.57V1091.1C781.58 1116.18 761.319 1136.56 736.244 1136.56Z" fill="white" stroke="#FF931E" stroke-width="3" stroke-miterlimit="10"/>
</g>
<g id="button">
<path id="button_2" d="M749.005 1121.78H150.898C125.823 1121.78 105.449 1101.4 105.449 1076.32V1065.79C105.449 1040.71 125.823 1020.33 150.898 1020.33H749.005C774.08 1020.33 794.453 1040.71 794.453 1065.79V1076.32C794.453 1101.51 774.08 1121.78 749.005 1121.78Z" fill="#FF931E"/>
<g id="button-text">
<path id="Vector_13" d="M170.712 1052.58C170.712 1049.11 171.607 1046.42 173.399 1044.63C175.19 1042.84 177.876 1041.94 181.346 1041.94H196.906C200.377 1041.94 202.951 1042.84 204.742 1044.63C206.533 1046.42 207.429 1049.11 207.429 1052.58V1090.99C207.429 1094.46 206.533 1097.15 204.742 1098.94C202.951 1100.73 200.265 1101.63 196.906 1101.63H181.346C177.876 1101.63 175.19 1100.73 173.399 1098.94C171.607 1097.15 170.712 1094.46 170.712 1090.99V1052.58Z" fill="white"/>
<path id="Vector_14" d="M213.026 1052.58C213.026 1049.11 213.922 1046.42 215.825 1044.63C217.728 1042.84 220.302 1041.94 223.772 1041.94H266.758C270.228 1041.94 272.915 1042.84 274.818 1044.74C276.721 1046.64 277.729 1049.22 277.729 1052.69V1088.97C277.729 1090.09 278.064 1090.99 278.624 1091.66C279.296 1092.33 280.079 1092.55 281.311 1092.55H282.99C284.109 1092.55 285.005 1092.22 285.676 1091.66C286.348 1090.99 286.572 1090.2 286.572 1088.97V1052.69C286.572 1049.22 287.468 1046.53 289.259 1044.74C291.05 1042.95 293.736 1042.05 297.095 1042.05H312.654C316.125 1042.05 318.811 1042.95 320.602 1044.74C322.393 1046.53 323.289 1049.22 323.289 1052.69V1091.1C323.289 1094.57 322.393 1097.26 320.602 1099.05C318.811 1100.84 316.125 1101.74 312.654 1101.74H269.557C266.087 1101.74 263.512 1100.84 261.497 1098.94C259.594 1097.03 258.586 1094.46 258.586 1090.99V1054.71C258.586 1053.59 258.251 1052.69 257.691 1052.02C257.019 1051.35 256.236 1051.12 255.116 1051.12H253.437C252.318 1051.12 251.422 1051.46 250.862 1052.02C250.303 1052.69 249.967 1053.48 249.967 1054.71V1090.99C249.967 1094.46 249.071 1097.15 247.168 1098.94C245.265 1100.73 242.691 1101.62 239.22 1101.62H223.661C220.19 1101.62 217.616 1100.73 215.713 1098.94C213.81 1097.15 212.914 1094.46 212.914 1090.99L213.026 1052.58Z" fill="white"/>
<path id="Vector_15" d="M334.26 1101.74C332.58 1101.74 331.349 1101.29 330.454 1100.51C329.558 1099.72 329.11 1098.6 329.11 1097.03C329.11 1095.47 329.558 1094.46 330.454 1093.56C331.349 1092.78 332.58 1092.33 334.26 1092.33H365.827V1079.57C365.827 1078.33 365.491 1077.44 364.82 1076.77C364.148 1076.09 363.253 1075.76 362.021 1075.76H339.521C336.051 1075.76 333.476 1074.86 331.573 1073.07C329.67 1071.28 328.774 1068.59 328.774 1065.12V1052.47C328.774 1049 329.67 1046.31 331.573 1044.52C333.476 1042.73 336.051 1041.83 339.521 1041.83H396.164C397.843 1041.83 399.074 1042.28 399.97 1043.06C400.865 1043.85 401.313 1044.96 401.313 1046.53C401.313 1047.99 400.865 1049.11 399.97 1050C399.074 1050.79 397.843 1051.24 396.164 1051.24H365.715V1063.11C365.715 1064.22 366.051 1065.12 366.723 1065.79C367.394 1066.46 368.29 1066.8 369.409 1066.8H391.91C395.38 1066.8 398.067 1067.7 399.858 1069.6C401.649 1071.5 402.544 1074.08 402.544 1077.55V1091.21C402.544 1094.68 401.649 1097.37 399.858 1099.16C398.067 1100.95 395.38 1101.85 391.91 1101.85L334.26 1101.74Z" fill="white"/>
<path id="Vector_16" d="M418.999 1101.74C415.529 1101.74 412.955 1100.84 411.051 1099.05C409.148 1097.26 408.253 1094.57 408.253 1091.1V1052.69C408.253 1049.22 409.148 1046.53 411.051 1044.74C412.955 1042.95 415.529 1042.05 418.999 1042.05H480.456C483.926 1042.05 486.612 1042.95 488.403 1044.74C490.195 1046.53 491.09 1049.22 491.09 1052.69V1065.57C491.09 1069.04 490.195 1071.73 488.403 1073.52C486.612 1075.31 483.926 1076.21 480.456 1076.21H445.306V1091.1C445.306 1094.57 444.41 1097.26 442.507 1099.05C440.604 1100.84 438.03 1101.74 434.559 1101.74H418.999ZM450.455 1067.36C451.686 1067.36 452.582 1067.02 453.254 1066.35C453.925 1065.68 454.261 1064.78 454.261 1063.55V1054.15C454.261 1053.03 453.925 1052.13 453.254 1051.46C452.582 1050.79 451.686 1050.45 450.455 1050.45H445.194V1067.25H450.455V1067.36Z" fill="white"/>
<path id="Vector_17" d="M496.128 1084.16C496.128 1080.69 496.911 1078 498.479 1076.21C500.046 1074.41 502.285 1073.52 505.195 1073.52V1070.05C502.285 1070.05 500.046 1069.15 498.479 1067.36C496.911 1065.57 496.128 1062.88 496.128 1059.52V1052.69C496.128 1049.22 497.023 1046.53 498.815 1044.74C500.606 1042.95 503.292 1042.05 506.762 1042.05H563.405C564.972 1042.05 566.204 1042.5 567.211 1043.29C568.107 1044.07 568.554 1045.19 568.554 1046.76C568.554 1048.21 568.107 1049.33 567.211 1050.23C566.316 1051.01 565.084 1051.46 563.405 1051.46H532.957V1067.02H563.405C564.972 1067.02 566.204 1067.47 567.211 1068.26C568.107 1069.04 568.554 1070.16 568.554 1071.73C568.554 1073.18 568.107 1074.41 567.211 1075.2C566.316 1075.98 565.084 1076.43 563.405 1076.43H532.957V1092.89H563.405C564.972 1092.89 566.204 1093.34 567.211 1094.12C568.107 1094.91 568.554 1096.03 568.554 1097.59C568.554 1099.16 568.107 1100.17 567.211 1101.07C566.316 1101.85 565.084 1102.3 563.405 1102.3H506.762C503.292 1102.3 500.606 1101.4 498.815 1099.61C497.023 1097.82 496.128 1095.13 496.128 1091.66V1084.16Z" fill="white"/>
<path id="Vector_18" d="M574.04 1052.58C574.04 1049.11 574.935 1046.42 576.838 1044.63C578.741 1042.84 581.316 1041.94 584.786 1041.94H641.429C643.108 1041.94 644.339 1042.39 645.235 1043.17C646.13 1043.96 646.578 1045.08 646.578 1046.64C646.578 1048.1 646.13 1049.22 645.235 1050.12C644.339 1050.9 643.108 1051.35 641.429 1051.35H610.981V1092.67H641.429C643.108 1092.67 644.339 1093.11 645.235 1093.9C646.13 1094.68 646.578 1095.8 646.578 1097.37C646.578 1098.94 646.13 1099.95 645.235 1100.84C644.339 1101.62 643.108 1102.07 641.429 1102.07H584.674C581.204 1102.07 578.629 1101.18 576.726 1099.39C574.823 1097.59 573.928 1094.91 573.928 1091.44L574.04 1052.58Z" fill="white"/>
<path id="Vector_19" d="M651.728 1046.53C651.728 1045.08 652.175 1043.96 653.071 1043.06C653.966 1042.28 655.198 1041.83 656.877 1041.83H727.848C729.527 1041.83 730.759 1042.28 731.654 1043.06C732.55 1043.85 732.998 1044.96 732.998 1046.53C732.998 1047.99 732.55 1049.11 731.654 1050C730.759 1050.79 729.527 1051.24 727.848 1051.24H710.721V1091.1C710.721 1094.57 709.826 1097.26 708.034 1099.05C706.243 1100.84 703.557 1101.74 700.199 1101.74H684.639C681.168 1101.74 678.482 1100.84 676.691 1099.05C674.9 1097.26 674.004 1094.57 674.004 1091.1V1051.12H656.877C655.198 1051.12 653.966 1050.68 653.071 1049.89C652.175 1049.11 651.728 1047.99 651.728 1046.53Z" fill="white"/>
</g>
</g>
<g id="text-bubble">
<path id="Vector_20" d="M753.595 96.6358H151.234C131.532 96.6358 115.524 80.6232 115.524 60.9153V52.741C115.524 33.0332 131.532 17.0205 151.234 17.0205H753.595C773.297 17.0205 789.304 33.0332 789.304 52.741V60.9153C789.304 80.6232 773.297 96.6358 753.595 96.6358Z" stroke="#FF9300" stroke-width="3" stroke-miterlimit="10" stroke-dasharray="20.82 20.82"/>
<path id="Inspect the companies to find out more about their real" d="M146.155 44.9827V31.1588H144.305V44.9827H146.155ZM149.853 44.9827H151.508V39.9009C151.508 37.7397 152.501 36.4352 154.117 36.4352C155.538 36.4352 156.259 37.3114 156.259 39.0248V44.9827H157.914V38.9274C157.914 36.3184 156.804 34.9749 154.662 34.9749C153.124 34.9749 152.053 35.6953 151.411 37.1751V35.2475H149.853V44.9827ZM164.36 45.2163C166.736 45.2163 168.099 44.087 168.099 42.2374C168.099 40.6992 167.339 39.6867 165.412 39.4726L163.854 39.2973C162.647 39.161 162.102 38.6548 162.102 37.8176C162.102 36.883 162.861 36.3573 164.146 36.3573C165.47 36.3573 166.268 37.1751 166.483 38.3433L168.118 37.9734C167.904 36.1821 166.405 35.0139 164.185 35.0139C161.888 35.0139 160.486 36.1237 160.486 37.8955C160.486 39.3947 161.401 40.485 163.328 40.6992L164.905 40.8744C165.957 40.9913 166.463 41.4196 166.463 42.3931C166.463 43.3082 165.743 43.8534 164.438 43.8534C162.997 43.8534 162.082 43.1135 161.829 41.6922L160.155 41.9842C160.505 44.0676 162.043 45.2163 164.36 45.2163ZM170.749 48.7794H172.404V43.4445C172.833 44.3986 173.884 45.2163 175.383 45.2163C177.739 45.2163 179.414 43.2303 179.414 40.1151C179.414 37.0388 177.836 35.0139 175.481 35.0139C174.059 35.0139 172.93 35.7148 172.307 37.0583V35.2475H170.749V48.7794ZM174.994 43.756C173.378 43.756 172.365 42.4321 172.365 40.3293V39.862C172.365 37.7592 173.417 36.4741 175.052 36.4741C176.688 36.4741 177.661 37.8176 177.661 40.1151C177.661 42.3931 176.649 43.756 174.994 43.756ZM189.734 39.4336C189.734 36.5131 188.216 35.0139 185.587 35.0139C182.803 35.0139 181.167 36.9804 181.167 40.2319C181.167 43.4445 182.822 45.2163 185.607 45.2163C187.573 45.2163 188.994 44.2817 189.676 42.5099L188.313 41.9064C187.885 43.094 186.97 43.756 185.723 43.756C183.991 43.756 182.842 42.5099 182.822 40.6018H189.734V39.4336ZM188.06 39.2584H182.822C182.861 37.4282 183.835 36.3184 185.548 36.3184C187.145 36.3184 188.06 37.253 188.06 39.0442V39.2584ZM196.065 45.2163C198.246 45.2163 199.706 43.9313 200.057 41.7117L198.48 41.4585C198.226 42.9772 197.409 43.7755 196.085 43.7755C194.352 43.7755 193.339 42.4321 193.339 40.0956C193.339 37.8176 194.352 36.4547 196.026 36.4547C197.35 36.4547 198.207 37.2724 198.382 38.7522L200.076 38.5575C199.823 36.3184 198.343 35.0139 196.065 35.0139C193.3 35.0139 191.587 36.9414 191.587 40.1151C191.587 43.2303 193.339 45.2163 196.065 45.2163ZM200.966 36.6104H202.777V42.0621C202.777 43.8729 203.322 45.1579 205.425 45.1579C206.048 45.1579 206.437 45.0995 206.866 44.9827V43.464C206.535 43.5419 206.282 43.6003 205.853 43.6003C204.86 43.6003 204.432 43.1135 204.432 42.0037V36.6104H206.866V35.2475H204.432V31.996L202.777 32.6969V35.2475H200.966V36.6104ZM212.698 36.6104H214.509V42.0621C214.509 43.8729 215.054 45.1579 217.157 45.1579C217.78 45.1579 218.169 45.0995 218.597 44.9827V43.464C218.266 43.5419 218.013 43.6003 217.585 43.6003C216.592 43.6003 216.164 43.1135 216.164 42.0037V36.6104H218.597V35.2475H216.164V31.996L214.509 32.6969V35.2475H212.698V36.6104ZM221.12 44.9827H222.775V39.9009C222.775 37.7008 223.729 36.4352 225.403 36.4352C226.805 36.4352 227.525 37.3308 227.525 39.0442V44.9827H229.18V38.9274C229.18 36.3379 228.07 34.9749 225.968 34.9749C224.449 34.9749 223.359 35.6953 222.775 37.0777V30.8667H221.12V44.9827ZM240.083 39.4336C240.083 36.5131 238.565 35.0139 235.936 35.0139C233.152 35.0139 231.516 36.9804 231.516 40.2319C231.516 43.4445 233.171 45.2163 235.956 45.2163C237.922 45.2163 239.343 44.2817 240.025 42.5099L238.662 41.9064C238.234 43.094 237.319 43.756 236.072 43.756C234.34 43.756 233.191 42.5099 233.171 40.6018H240.083V39.4336ZM238.409 39.2584H233.171C233.21 37.4282 234.184 36.3184 235.897 36.3184C237.494 36.3184 238.409 37.253 238.409 39.0442V39.2584ZM251.472 45.2163C253.653 45.2163 255.113 43.9313 255.463 41.7117L253.886 41.4585C253.633 42.9772 252.815 43.7755 251.491 43.7755C249.759 43.7755 248.746 42.4321 248.746 40.0956C248.746 37.8176 249.759 36.4547 251.433 36.4547C252.757 36.4547 253.614 37.2724 253.789 38.7522L255.483 38.5575C255.23 36.3184 253.75 35.0139 251.472 35.0139C248.707 35.0139 246.994 36.9414 246.994 40.1151C246.994 43.2303 248.746 45.2163 251.472 45.2163ZM261.779 45.2163C264.524 45.2163 266.315 43.2887 266.315 40.1151C266.315 36.9414 264.524 35.0139 261.779 35.0139C259.034 35.0139 257.242 36.9414 257.242 40.1151C257.242 43.2887 259.034 45.2163 261.779 45.2163ZM261.779 43.7755C260.027 43.7755 258.995 42.5294 258.995 40.1151C258.995 37.7008 260.027 36.4547 261.779 36.4547C263.531 36.4547 264.563 37.7008 264.563 40.1151C264.563 42.5294 263.531 43.7755 261.779 43.7755ZM268.937 35.2475V44.9827H270.592V39.2973C270.592 37.5255 271.43 36.4352 272.793 36.4352C273.961 36.4352 274.623 37.2335 274.623 38.6548V44.9827H276.278V39.2195C276.278 37.4477 277.076 36.4352 278.458 36.4352C279.685 36.4352 280.308 37.214 280.308 38.7327V44.9827H281.963V38.5964C281.963 36.3184 280.873 34.9749 279.004 34.9749C277.68 34.9749 276.687 35.6369 276.044 36.9609C275.596 35.6759 274.623 34.9749 273.279 34.9749C271.975 34.9749 271.04 35.6369 270.495 36.9414V35.2475H268.937ZM285.175 48.7794H286.83V43.4445C287.259 44.3986 288.31 45.2163 289.809 45.2163C292.165 45.2163 293.84 43.2303 293.84 40.1151C293.84 37.0388 292.263 35.0139 289.907 35.0139C288.485 35.0139 287.356 35.7148 286.733 37.0583V35.2475H285.175V48.7794ZM289.42 43.756C287.804 43.756 286.791 42.4321 286.791 40.3293V39.862C286.791 37.7592 287.843 36.4741 289.478 36.4741C291.114 36.4741 292.087 37.8176 292.087 40.1151C292.087 42.3931 291.075 43.756 289.42 43.756ZM298.789 45.2163C300.385 45.2163 301.612 44.457 302.06 43.2109C302.079 43.8339 302.138 44.4764 302.216 44.9827H303.949C303.715 44.2233 303.618 43.1914 303.618 41.6922V39.0637C303.618 36.221 302.449 35.0139 299.782 35.0139C297.504 35.0139 295.946 36.3184 295.81 38.3044H297.582C297.66 37.0777 298.477 36.3768 299.801 36.3768C301.301 36.3768 301.943 37.0972 301.943 38.8885V39.0442L300.132 39.2584C298.536 39.4531 297.601 39.6867 296.861 40.0567C295.985 40.5434 295.498 41.3807 295.498 42.3542C295.498 44.087 296.803 45.2163 298.789 45.2163ZM299.159 43.8534C297.971 43.8534 297.251 43.2693 297.251 42.3152C297.251 41.3612 297.874 40.855 299.315 40.6408L301.963 40.2514V40.7381C301.963 42.6268 300.853 43.8534 299.159 43.8534ZM306.87 44.9827H308.525V39.9009C308.525 37.7397 309.518 36.4352 311.134 36.4352C312.556 36.4352 313.276 37.3114 313.276 39.0248V44.9827H314.931V38.9274C314.931 36.3184 313.821 34.9749 311.679 34.9749C310.141 34.9749 309.07 35.6953 308.428 37.1751V35.2475H306.87V44.9827ZM318.029 33.4368H319.917V31.3535H318.029V33.4368ZM318.146 44.9827H319.801V35.2475H318.146V44.9827ZM330.989 39.4336C330.989 36.5131 329.47 35.0139 326.842 35.0139C324.058 35.0139 322.422 36.9804 322.422 40.2319C322.422 43.4445 324.077 45.2163 326.861 45.2163C328.828 45.2163 330.249 44.2817 330.931 42.5099L329.568 41.9064C329.139 43.094 328.224 43.756 326.978 43.756C325.245 43.756 324.097 42.5099 324.077 40.6018H330.989V39.4336ZM329.315 39.2584H324.077C324.116 37.4282 325.09 36.3184 326.803 36.3184C328.4 36.3184 329.315 37.253 329.315 39.0442V39.2584ZM336.95 45.2163C339.325 45.2163 340.688 44.087 340.688 42.2374C340.688 40.6992 339.929 39.6867 338.001 39.4726L336.444 39.2973C335.237 39.161 334.692 38.6548 334.692 37.8176C334.692 36.883 335.451 36.3573 336.736 36.3573C338.06 36.3573 338.858 37.1751 339.072 38.3433L340.708 37.9734C340.494 36.1821 338.994 35.0139 336.775 35.0139C334.477 35.0139 333.075 36.1237 333.075 37.8955C333.075 39.3947 333.991 40.485 335.918 40.6992L337.495 40.8744C338.547 40.9913 339.053 41.4196 339.053 42.3931C339.053 43.3082 338.332 43.8534 337.028 43.8534C335.587 43.8534 334.672 43.1135 334.419 41.6922L332.744 41.9842C333.095 44.0676 334.633 45.2163 336.95 45.2163ZM346.746 36.6104H348.557V42.0621C348.557 43.8729 349.102 45.1579 351.205 45.1579C351.828 45.1579 352.218 45.0995 352.646 44.9827V43.464C352.315 43.5419 352.062 43.6003 351.633 43.6003C350.64 43.6003 350.212 43.1135 350.212 42.0037V36.6104H352.646V35.2475H350.212V31.996L348.557 32.6969V35.2475H346.746V36.6104ZM358.351 45.2163C361.096 45.2163 362.887 43.2887 362.887 40.1151C362.887 36.9414 361.096 35.0139 358.351 35.0139C355.605 35.0139 353.814 36.9414 353.814 40.1151C353.814 43.2887 355.605 45.2163 358.351 45.2163ZM358.351 43.7755C356.598 43.7755 355.567 42.5294 355.567 40.1151C355.567 37.7008 356.598 36.4547 358.351 36.4547C360.103 36.4547 361.135 37.7008 361.135 40.1151C361.135 42.5294 360.103 43.7755 358.351 43.7755ZM374.989 35.2475H372.555V33.943C372.555 32.7553 372.964 32.2101 373.957 32.2101C374.269 32.2101 374.639 32.2491 374.989 32.3075V30.8862C374.619 30.7888 374.21 30.7499 373.743 30.7499C372.01 30.7499 370.9 31.9376 370.9 33.7094V35.2475H369.109V36.6104H370.9V44.9827H372.555V36.6104H374.989V35.2475ZM377.111 33.4368H379V31.3535H377.111V33.4368ZM377.228 44.9827H378.883V35.2475H377.228V44.9827ZM382.394 44.9827H384.049V39.9009C384.049 37.7397 385.042 36.4352 386.658 36.4352C388.079 36.4352 388.799 37.3114 388.799 39.0248V44.9827H390.454V38.9274C390.454 36.3184 389.345 34.9749 387.203 34.9749C385.665 34.9749 384.594 35.6953 383.951 37.1751V35.2475H382.394V44.9827ZM396.745 45.2163C398.264 45.2163 399.315 44.4764 399.9 43.1719V44.9827H401.457V30.8667H399.802V36.6883C399.179 35.5396 398.225 35.0139 396.94 35.0139C394.506 35.0139 392.793 37.1167 392.793 40.1151C392.793 43.1719 394.389 45.2163 396.745 45.2163ZM397.193 43.756C395.538 43.756 394.545 42.3931 394.545 40.1151C394.545 37.8176 395.538 36.4741 397.193 36.4741C398.829 36.4741 399.841 37.7787 399.841 39.9009V40.3487C399.841 42.4321 398.809 43.756 397.193 43.756ZM413.777 45.2163C416.522 45.2163 418.313 43.2887 418.313 40.1151C418.313 36.9414 416.522 35.0139 413.777 35.0139C411.031 35.0139 409.24 36.9414 409.24 40.1151C409.24 43.2887 411.031 45.2163 413.777 45.2163ZM413.777 43.7755C412.024 43.7755 410.992 42.5294 410.992 40.1151C410.992 37.7008 412.024 36.4547 413.777 36.4547C415.529 36.4547 416.561 37.7008 416.561 40.1151C416.561 42.5294 415.529 43.7755 413.777 43.7755ZM423.972 45.2163C425.335 45.2163 426.543 44.3401 426.99 43.1525V44.9827H428.548V35.2475H426.893V40.485C426.893 42.471 425.842 43.795 424.284 43.795C422.999 43.795 422.298 42.8993 422.298 41.2638V35.2475H420.643V41.4585C420.643 43.7366 421.519 45.2163 423.972 45.2163ZM430.598 36.6104H432.409V42.0621C432.409 43.8729 432.954 45.1579 435.057 45.1579C435.68 45.1579 436.069 45.0995 436.497 44.9827V43.464C436.166 43.5419 435.913 43.6003 435.485 43.6003C434.492 43.6003 434.064 43.1135 434.064 42.0037V36.6104H436.497V35.2475H434.064V31.996L432.409 32.6969V35.2475H430.598V36.6104ZM443.98 35.2475V44.9827H445.635V39.2973C445.635 37.5255 446.472 36.4352 447.835 36.4352C449.003 36.4352 449.665 37.2335 449.665 38.6548V44.9827H451.32V39.2195C451.32 37.4477 452.119 36.4352 453.501 36.4352C454.728 36.4352 455.351 37.214 455.351 38.7327V44.9827H457.006V38.5964C457.006 36.3184 455.915 34.9749 454.046 34.9749C452.722 34.9749 451.729 35.6369 451.087 36.9609C450.639 35.6759 449.665 34.9749 448.322 34.9749C447.017 34.9749 446.083 35.6369 445.538 36.9414V35.2475H443.98ZM463.878 45.2163C466.624 45.2163 468.415 43.2887 468.415 40.1151C468.415 36.9414 466.624 35.0139 463.878 35.0139C461.133 35.0139 459.342 36.9414 459.342 40.1151C459.342 43.2887 461.133 45.2163 463.878 45.2163ZM463.878 43.7755C462.126 43.7755 461.094 42.5294 461.094 40.1151C461.094 37.7008 462.126 36.4547 463.878 36.4547C465.631 36.4547 466.663 37.7008 466.663 40.1151C466.663 42.5294 465.631 43.7755 463.878 43.7755ZM472.575 37.4671V35.2475H471.037V44.9827H472.692V40.816C472.692 39.6478 472.731 38.3433 473.665 37.4087C474.133 36.9414 474.795 36.6494 475.807 36.6494H475.885V35.0333C475.768 35.0139 475.651 35.0139 475.534 35.0139C474.055 35.0139 473.042 36.1042 472.575 37.4671ZM485.44 39.4336C485.44 36.5131 483.921 35.0139 481.292 35.0139C478.508 35.0139 476.873 36.9804 476.873 40.2319C476.873 43.4445 478.528 45.2163 481.312 45.2163C483.278 45.2163 484.7 44.2817 485.381 42.5099L484.018 41.9064C483.59 43.094 482.675 43.756 481.429 43.756C479.696 43.756 478.547 42.5099 478.528 40.6018H485.44V39.4336ZM483.765 39.2584H478.528C478.567 37.4282 479.54 36.3184 481.253 36.3184C482.85 36.3184 483.765 37.253 483.765 39.0442V39.2584ZM495.64 45.2163C497.237 45.2163 498.464 44.457 498.911 43.2109C498.931 43.8339 498.989 44.4764 499.067 44.9827H500.8C500.566 44.2233 500.469 43.1914 500.469 41.6922V39.0637C500.469 36.221 499.301 35.0139 496.633 35.0139C494.355 35.0139 492.798 36.3184 492.662 38.3044H494.433C494.511 37.0777 495.329 36.3768 496.653 36.3768C498.152 36.3768 498.795 37.0972 498.795 38.8885V39.0442L496.984 39.2584C495.387 39.4531 494.453 39.6867 493.713 40.0567C492.837 40.5434 492.35 41.3807 492.35 42.3542C492.35 44.087 493.654 45.2163 495.64 45.2163ZM496.01 43.8534C494.823 43.8534 494.102 43.2693 494.102 42.3152C494.102 41.3612 494.725 40.855 496.166 40.6408L498.814 40.2514V40.7381C498.814 42.6268 497.704 43.8534 496.01 43.8534ZM508.473 45.2163C510.906 45.2163 512.484 43.1525 512.484 40.1151C512.484 37.1361 510.945 35.0139 508.57 35.0139C507.051 35.0139 505.98 35.8511 505.474 36.9414V30.8667H503.819V44.9827H505.085L505.377 43.3082C505.883 44.4375 506.993 45.2163 508.473 45.2163ZM508.025 43.756C506.389 43.756 505.435 42.4321 505.435 40.4071V39.9009C505.435 37.7787 506.409 36.4741 508.044 36.4741C509.777 36.4741 510.731 37.9344 510.731 40.1151C510.731 42.3347 509.719 43.756 508.025 43.756ZM518.772 45.2163C521.517 45.2163 523.308 43.2887 523.308 40.1151C523.308 36.9414 521.517 35.0139 518.772 35.0139C516.026 35.0139 514.235 36.9414 514.235 40.1151C514.235 43.2887 516.026 45.2163 518.772 45.2163ZM518.772 43.7755C517.019 43.7755 515.987 42.5294 515.987 40.1151C515.987 37.7008 517.019 36.4547 518.772 36.4547C520.524 36.4547 521.556 37.7008 521.556 40.1151C521.556 42.5294 520.524 43.7755 518.772 43.7755ZM528.968 45.2163C530.33 45.2163 531.538 44.3401 531.985 43.1525V44.9827H533.543V35.2475H531.888V40.485C531.888 42.471 530.837 43.795 529.279 43.795C527.994 43.795 527.293 42.8993 527.293 41.2638V35.2475H525.638V41.4585C525.638 43.7366 526.514 45.2163 528.968 45.2163ZM535.593 36.6104H537.404V42.0621C537.404 43.8729 537.949 45.1579 540.052 45.1579C540.675 45.1579 541.064 45.0995 541.493 44.9827V43.464C541.162 43.5419 540.908 43.6003 540.48 43.6003C539.487 43.6003 539.059 43.1135 539.059 42.0037V36.6104H541.493V35.2475H539.059V31.996L537.404 32.6969V35.2475H535.593V36.6104ZM547.325 36.6104H549.135V42.0621C549.135 43.8729 549.681 45.1579 551.783 45.1579C552.406 45.1579 552.796 45.0995 553.224 44.9827V43.464C552.893 43.5419 552.64 43.6003 552.212 43.6003C551.219 43.6003 550.79 43.1135 550.79 42.0037V36.6104H553.224V35.2475H550.79V31.996L549.135 32.6969V35.2475H547.325V36.6104ZM555.746 44.9827H557.401V39.9009C557.401 37.7008 558.355 36.4352 560.03 36.4352C561.432 36.4352 562.152 37.3308 562.152 39.0442V44.9827H563.807V38.9274C563.807 36.3379 562.697 34.9749 560.594 34.9749C559.076 34.9749 557.985 35.6953 557.401 37.0777V30.8667H555.746V44.9827ZM574.71 39.4336C574.71 36.5131 573.191 35.0139 570.563 35.0139C567.779 35.0139 566.143 36.9804 566.143 40.2319C566.143 43.4445 567.798 45.2163 570.582 45.2163C572.549 45.2163 573.97 44.2817 574.652 42.5099L573.289 41.9064C572.86 43.094 571.945 43.756 570.699 43.756C568.966 43.756 567.818 42.5099 567.798 40.6018H574.71V39.4336ZM573.036 39.2584H567.798C567.837 37.4282 568.811 36.3184 570.524 36.3184C572.121 36.3184 573.036 37.253 573.036 39.0442V39.2584ZM577.322 33.4368H579.211V31.3535H577.322V33.4368ZM577.439 44.9827H579.094V35.2475H577.439V44.9827ZM584.13 37.4671V35.2475H582.592V44.9827H584.247V40.816C584.247 39.6478 584.286 38.3433 585.22 37.4087C585.688 36.9414 586.35 36.6494 587.362 36.6494H587.44V35.0333C587.323 35.0139 587.206 35.0139 587.089 35.0139C585.61 35.0139 584.597 36.1042 584.13 37.4671ZM595.405 37.4671V35.2475H593.867V44.9827H595.522V40.816C595.522 39.6478 595.561 38.3433 596.496 37.4087C596.963 36.9414 597.625 36.6494 598.637 36.6494H598.715V35.0333C598.598 35.0139 598.482 35.0139 598.365 35.0139C596.885 35.0139 595.873 36.1042 595.405 37.4671ZM608.27 39.4336C608.27 36.5131 606.751 35.0139 604.123 35.0139C601.338 35.0139 599.703 36.9804 599.703 40.2319C599.703 43.4445 601.358 45.2163 604.142 45.2163C606.109 45.2163 607.53 44.2817 608.211 42.5099L606.848 41.9064C606.42 43.094 605.505 43.756 604.259 43.756C602.526 43.756 601.377 42.5099 601.358 40.6018H608.27V39.4336ZM606.595 39.2584H601.358C601.397 37.4282 602.37 36.3184 604.084 36.3184C605.68 36.3184 606.595 37.253 606.595 39.0442V39.2584ZM613.318 45.2163C614.914 45.2163 616.141 44.457 616.589 43.2109C616.608 43.8339 616.667 44.4764 616.745 44.9827H618.478C618.244 44.2233 618.147 43.1914 618.147 41.6922V39.0637C618.147 36.221 616.978 35.0139 614.311 35.0139C612.033 35.0139 610.475 36.3184 610.339 38.3044H612.111C612.189 37.0777 613.006 36.3768 614.33 36.3768C615.83 36.3768 616.472 37.0972 616.472 38.8885V39.0442L614.661 39.2584C613.065 39.4531 612.13 39.6867 611.39 40.0567C610.514 40.5434 610.027 41.3807 610.027 42.3542C610.027 44.087 611.332 45.2163 613.318 45.2163ZM613.688 43.8534C612.5 43.8534 611.78 43.2693 611.78 42.3152C611.78 41.3612 612.403 40.855 613.844 40.6408L616.492 40.2514V40.7381C616.492 42.6268 615.382 43.8534 613.688 43.8534ZM623.152 30.8667H621.497V44.9827H623.152V30.8667Z" fill="#FF8B1E"/>
<path id="practices." d="M144.111 77.2213H145.766V71.8864C146.194 72.8405 147.245 73.6582 148.745 73.6582C151.101 73.6582 152.775 71.6722 152.775 68.557C152.775 65.4807 151.198 63.4558 148.842 63.4558C147.421 63.4558 146.291 64.1567 145.668 65.5001V63.6894H144.111V77.2213ZM148.355 72.1979C146.739 72.1979 145.727 70.874 145.727 68.7712V68.3039C145.727 66.2011 146.778 64.916 148.414 64.916C150.049 64.916 151.023 66.2595 151.023 68.557C151.023 70.835 150.01 72.1979 148.355 72.1979ZM156.943 65.909V63.6894H155.405V73.4246H157.06V69.2579C157.06 68.0897 157.099 66.7852 158.034 65.8506C158.501 65.3833 159.163 65.0913 160.175 65.0913H160.253V63.4752C160.136 63.4558 160.019 63.4558 159.903 63.4558C158.423 63.4558 157.41 64.5461 156.943 65.909ZM164.626 73.6582C166.223 73.6582 167.45 72.8989 167.897 71.6528C167.917 72.2758 167.975 72.9183 168.053 73.4246H169.786C169.552 72.6652 169.455 71.6333 169.455 70.1341V67.5056C169.455 64.6629 168.287 63.4558 165.619 63.4558C163.341 63.4558 161.784 64.7603 161.647 66.7462H163.419C163.497 65.5196 164.315 64.8187 165.639 64.8187C167.138 64.8187 167.781 65.5391 167.781 67.3304V67.4861L165.97 67.7003C164.373 67.895 163.439 68.1286 162.699 68.4986C161.823 68.9853 161.336 69.8226 161.336 70.7961C161.336 72.5289 162.64 73.6582 164.626 73.6582ZM164.996 72.2953C163.809 72.2953 163.088 71.7112 163.088 70.7571C163.088 69.8031 163.711 69.2969 165.152 69.0827L167.8 68.6933V69.18C167.8 71.0687 166.69 72.2953 164.996 72.2953ZM176.215 73.6582C178.395 73.6582 179.856 72.3732 180.206 70.1535L178.629 69.9004C178.376 71.4191 177.558 72.2174 176.234 72.2174C174.501 72.2174 173.489 70.874 173.489 68.5375C173.489 66.2595 174.501 64.8966 176.176 64.8966C177.5 64.8966 178.356 65.7143 178.532 67.1941L180.226 66.9994C179.972 64.7603 178.493 63.4558 176.215 63.4558C173.45 63.4558 171.736 65.3833 171.736 68.557C171.736 71.6722 173.489 73.6582 176.215 73.6582ZM181.116 65.0523H182.926V70.504C182.926 72.3148 183.472 73.5998 185.574 73.5998C186.197 73.5998 186.587 73.5414 187.015 73.4246V71.9059C186.684 71.9838 186.431 72.0422 186.003 72.0422C185.01 72.0422 184.581 71.5554 184.581 70.4456V65.0523H187.015V63.6894H184.581V60.4379L182.926 61.1388V63.6894H181.116V65.0523ZM189.323 61.8787H191.212V59.7953H189.323V61.8787ZM189.44 73.4246H191.095V63.6894H189.44V73.4246ZM198.195 73.6582C200.375 73.6582 201.836 72.3732 202.186 70.1535L200.609 69.9004C200.356 71.4191 199.538 72.2174 198.214 72.2174C196.481 72.2174 195.469 70.874 195.469 68.5375C195.469 66.2595 196.481 64.8966 198.156 64.8966C199.48 64.8966 200.337 65.7143 200.512 67.1941L202.206 66.9994C201.953 64.7603 200.473 63.4558 198.195 63.4558C195.43 63.4558 193.717 65.3833 193.717 68.557C193.717 71.6722 195.469 73.6582 198.195 73.6582ZM212.532 67.8755C212.532 64.955 211.013 63.4558 208.385 63.4558C205.601 63.4558 203.965 65.4223 203.965 68.6738C203.965 71.8864 205.62 73.6582 208.404 73.6582C210.371 73.6582 211.792 72.7236 212.474 70.9518L211.111 70.3483C210.682 71.5359 209.767 72.1979 208.521 72.1979C206.788 72.1979 205.64 70.9518 205.62 69.0437H212.532V67.8755ZM210.858 67.7003H205.62C205.659 65.8701 206.633 64.7603 208.346 64.7603C209.943 64.7603 210.858 65.6949 210.858 67.4861V67.7003ZM218.493 73.6582C220.868 73.6582 222.231 72.5289 222.231 70.6792C222.231 69.1411 221.472 68.1286 219.544 67.9145L217.987 67.7392C216.78 67.6029 216.235 67.0967 216.235 66.2595C216.235 65.3249 216.994 64.7992 218.279 64.7992C219.603 64.7992 220.401 65.617 220.615 66.7852L222.251 66.4153C222.037 64.624 220.537 63.4558 218.318 63.4558C216.02 63.4558 214.618 64.5656 214.618 66.3374C214.618 67.8366 215.534 68.9269 217.461 69.1411L219.038 69.3163C220.09 69.4331 220.596 69.8615 220.596 70.835C220.596 71.7501 219.875 72.2953 218.571 72.2953C217.13 72.2953 216.215 71.5554 215.962 70.1341L214.287 70.4261C214.638 72.5095 216.176 73.6582 218.493 73.6582ZM226.581 71.1271H224.303V73.4246H226.581V71.1271Z" fill="#FF8B1E"/>
</g>
</g>
</svg>
