<svg width="1752" height="1076" viewBox="0 0 1752 1076" fill="none" xmlns="http://www.w3.org/2000/svg">
<g id="end-2">
<path id="Vector" d="M1430.77 69.6416H327.907V675.418H1430.77V69.6416Z" fill="#D7F7FF" stroke="#00BFFF" stroke-width="3" stroke-miterlimit="10" stroke-linecap="round" stroke-linejoin="round"/>
<path id="Vector_2" d="M1271.13 560.533H476.709C451.966 560.533 446.584 540.026 446.584 523.392V312.665C446.584 296.031 460.073 282.543 476.709 276.694H1269.96C1286.6 282.543 1300.09 296.031 1300.09 312.665V524.561C1300.09 540.553 1294.3 560.533 1271.13 560.533Z" fill="white" stroke="#FF931E" stroke-width="3" stroke-miterlimit="10" stroke-linecap="round" stroke-linejoin="round"/>
<g id="Button">
<path id="Vector_3" d="M1270.38 561.645H477.125C454.885 561.645 447 541.139 447 524.505V312.971C447 296.337 460.489 282.849 477.125 277H1270.38C1287.02 282.849 1300.5 296.337 1300.5 312.971V524.505C1300.5 541.139 1293.71 561.645 1270.38 561.645Z" fill="#FF931E"/>
<g id="Group">
<path id="Vector_4" d="M533.258 336.835C533.258 333.361 534.183 330.694 536.019 328.81C537.856 326.939 540.559 325.991 544.092 325.991H590.643C592.269 325.991 593.544 326.377 594.469 327.161C595.393 327.945 595.849 329.044 595.849 330.46C595.849 331.875 595.393 332.998 594.469 333.805C593.544 334.624 592.269 335.022 590.643 335.022H565.876V387.628C565.876 388.832 566.215 389.757 566.882 390.388C567.56 391.02 568.461 391.347 569.596 391.347H570.871C572.006 391.347 572.907 391.032 573.586 390.388C574.264 389.757 574.592 388.832 574.592 387.628V353.411C574.592 349.937 575.516 347.27 577.353 345.386C579.189 343.515 581.892 342.567 585.425 342.567H596.376C599.85 342.567 602.518 343.503 604.401 345.386C606.273 347.27 607.221 349.937 607.221 353.411V389.546C607.221 393.02 606.285 395.687 604.401 397.571C602.529 399.454 599.85 400.39 596.376 400.39H544.08C540.535 400.39 537.844 399.454 536.008 397.571C534.159 395.699 533.247 393.02 533.247 389.546V336.835H533.258Z" fill="white"/>
<path id="Vector_5" d="M613.386 338.216C613.386 334.25 614.427 331.22 616.522 329.126C618.616 327.032 621.646 325.991 625.612 325.991H675.135C679.101 325.991 682.131 327.032 684.225 329.126C686.319 331.22 687.36 334.25 687.36 338.216V388.166C687.36 392.131 686.319 395.161 684.225 397.255C682.131 399.349 679.101 400.39 675.135 400.39H625.612C621.646 400.39 618.616 399.349 616.522 397.255C614.427 395.161 613.386 392.131 613.386 388.166V338.216ZM646.015 387.628C646.015 388.832 646.355 389.757 647.021 390.388C647.688 391.02 648.601 391.347 649.736 391.347H651.011C652.146 391.347 653.047 391.032 653.725 390.388C654.392 389.757 654.731 388.832 654.731 387.628V338.742C654.731 337.537 654.392 336.613 653.725 335.981C653.047 335.35 652.146 335.022 651.011 335.022H649.736C648.601 335.022 647.7 335.338 647.021 335.981C646.343 336.613 646.015 337.537 646.015 338.742V387.628Z" fill="white"/>
<path id="Vector_6" d="M747.296 400.378C743.751 400.378 741.036 399.442 739.165 397.559C737.281 395.687 736.345 392.973 736.345 389.429V336.929C736.345 333.384 737.281 330.682 739.165 328.799C741.036 326.927 743.751 325.979 747.296 325.979H799.591C803.066 325.979 805.721 326.904 807.558 328.74C809.395 330.588 810.319 333.244 810.319 336.706V347.445C810.319 350.919 809.395 353.575 807.558 355.411C805.71 357.26 803.054 358.172 799.591 358.172H782.908V362.524H799.38C802.925 362.524 805.628 363.46 807.511 365.343C809.383 367.215 810.331 369.929 810.331 373.473V389.417C810.331 392.962 809.395 395.664 807.511 397.547C805.64 399.431 802.925 400.367 799.38 400.367H747.296V400.378ZM773.981 353.727C775.116 353.727 776.017 353.388 776.696 352.721C777.374 352.042 777.702 351.142 777.702 350.007V338.321C777.702 337.186 777.363 336.285 776.696 335.607C776.017 334.928 775.116 334.601 773.981 334.601H768.986V353.727H773.981ZM773.981 391.78C775.116 391.78 776.017 391.441 776.696 390.774C777.374 390.107 777.702 389.195 777.702 388.06V370.946C777.702 369.812 777.363 368.911 776.696 368.232C776.017 367.566 775.116 367.226 773.981 367.226H768.986V391.78H773.981Z" fill="white"/>
<path id="Vector_7" d="M816.485 375.836C816.485 372.292 817.233 369.601 818.719 367.764C820.205 365.928 822.334 365.004 825.095 365.004V361.389C822.334 361.389 820.205 360.453 818.719 358.57C817.233 356.698 816.485 353.984 816.485 350.44V336.835C816.485 333.361 817.409 330.694 819.246 328.81C821.083 326.939 823.785 325.991 827.318 325.991H873.869C875.496 325.991 876.771 326.377 877.695 327.161C878.619 327.945 879.076 329.044 879.076 330.46C879.076 331.875 878.619 332.998 877.695 333.805C876.771 334.624 875.496 335.022 873.869 335.022H849.102V358.289H873.869C875.496 358.289 876.771 358.675 877.695 359.459C878.619 360.243 879.076 361.342 879.076 362.758C879.076 364.173 878.619 365.296 877.695 366.103C876.771 366.922 875.496 367.32 873.869 367.32H849.102V391.336H873.869C875.496 391.336 876.771 391.722 877.695 392.506C878.619 393.289 879.076 394.389 879.076 395.804C879.076 397.29 878.619 398.425 877.695 399.209C876.771 399.992 875.496 400.378 873.869 400.378H827.318C823.773 400.378 821.083 399.442 819.246 397.559C817.397 395.687 816.485 393.009 816.485 389.534V375.836Z" fill="white"/>
<path id="Vector_8" d="M895.981 367.542C892.436 367.542 889.745 366.606 887.908 364.723C886.06 362.851 885.147 360.137 885.147 356.593V336.823C885.147 333.349 886.072 330.682 887.908 328.799C889.745 326.927 892.448 325.979 895.981 325.979H906.931C910.406 325.979 913.073 326.915 914.957 328.799C916.829 330.682 917.777 333.349 917.777 336.823V357.435C917.777 358.57 918.116 359.459 918.783 360.091C919.461 360.722 920.362 361.05 921.497 361.05H922.772C923.907 361.05 924.808 360.734 925.486 360.091C926.165 359.459 926.492 358.57 926.492 357.435V336.823C926.492 333.349 927.417 330.682 929.253 328.799C931.09 326.927 933.793 325.979 937.326 325.979H948.276C951.751 325.979 954.419 326.915 956.302 328.799C958.174 330.682 959.122 333.349 959.122 336.823V356.593C959.122 360.137 958.186 362.851 956.302 364.723C954.43 366.606 951.751 367.542 948.276 367.542H938.391V389.534C938.391 393.009 937.455 395.676 935.571 397.559C933.687 399.442 931.02 400.378 927.545 400.378H916.595C913.05 400.378 910.359 399.442 908.522 397.559C906.674 395.687 905.761 393.009 905.761 389.534V367.542H895.981Z" fill="white"/>
<path id="Vector_9" d="M965.275 338.216C965.275 334.25 966.317 331.22 968.411 329.126C970.505 327.032 973.535 325.991 977.501 325.991H1027.02C1030.99 325.991 1034.02 327.032 1036.11 329.126C1038.21 331.22 1039.25 334.25 1039.25 338.216V388.166C1039.25 392.131 1038.21 395.161 1036.11 397.255C1034.02 399.349 1030.99 400.39 1027.02 400.39H977.501C973.535 400.39 970.505 399.349 968.411 397.255C966.317 395.161 965.275 392.131 965.275 388.166V338.216ZM997.904 387.628C997.904 388.832 998.244 389.757 998.911 390.388C999.577 391.02 1000.49 391.347 1001.62 391.347H1002.9C1004.03 391.347 1004.94 391.032 1005.61 390.388C1006.28 389.757 1006.62 388.832 1006.62 387.628V338.742C1006.62 337.537 1006.28 336.613 1005.61 335.981C1004.94 335.35 1004.03 335.022 1002.9 335.022H1001.62C1000.49 335.022 999.589 335.338 998.911 335.981C998.232 336.613 997.904 337.537 997.904 338.742V387.628Z" fill="white"/>
<path id="Vector_10" d="M1045.42 336.835C1045.42 333.361 1046.34 330.694 1048.18 328.81C1050.01 326.939 1052.72 325.991 1056.25 325.991H1092.17C1095.71 325.991 1098.53 326.927 1100.61 328.81C1102.71 330.694 1103.75 333.361 1103.75 336.835V388.06C1103.75 389.125 1104.03 389.944 1104.6 390.505C1105.16 391.078 1105.98 391.359 1107.05 391.359H1108.32C1109.39 391.359 1110.22 391.078 1110.81 390.505C1111.41 389.944 1111.71 389.125 1111.71 388.06V336.835C1111.71 333.361 1112.64 330.694 1114.48 328.81C1116.31 326.939 1119.01 325.991 1122.55 325.991H1133.5C1137.04 325.991 1139.73 326.927 1141.57 328.81C1143.41 330.694 1144.33 333.361 1144.33 336.835V389.546C1144.33 393.02 1143.41 395.687 1141.57 397.571C1139.72 399.454 1137.03 400.39 1133.5 400.39H1097.57C1094.03 400.39 1091.21 399.454 1089.12 397.571C1087.03 395.699 1085.99 393.02 1085.99 389.546V338.321C1085.99 337.256 1085.68 336.449 1085.09 335.876C1084.49 335.314 1083.65 335.022 1082.6 335.022H1081.43C1080.36 335.022 1079.53 335.303 1078.93 335.876C1078.34 336.449 1078.03 337.256 1078.03 338.321V389.546C1078.03 393.02 1077.1 395.687 1075.21 397.571C1073.33 399.454 1070.66 400.39 1067.19 400.39H1056.24C1052.69 400.39 1050 399.454 1048.16 397.571C1046.32 395.699 1045.4 393.02 1045.4 389.546V336.835H1045.42Z" fill="white"/>
<path id="Vector_11" d="M1161.79 400.378C1158.24 400.378 1155.55 399.442 1153.71 397.559C1151.87 395.687 1150.95 393.009 1150.95 389.534V336.823C1150.95 333.349 1151.88 330.682 1153.71 328.799C1155.55 326.927 1158.25 325.979 1161.79 325.979H1199.94C1208.08 325.979 1214.28 328.12 1218.54 332.413C1222.79 336.706 1224.92 342.883 1224.92 350.955V375.392C1224.92 383.463 1222.79 389.651 1218.54 393.933C1214.29 398.226 1208.09 400.367 1199.94 400.367H1161.79V400.378ZM1188.58 391.78C1189.71 391.78 1190.61 391.441 1191.29 390.774C1191.97 390.107 1192.3 389.195 1192.3 388.06V338.332C1192.3 337.198 1191.96 336.297 1191.29 335.619C1190.61 334.94 1189.71 334.613 1188.58 334.613H1183.58V391.78H1188.58Z" fill="white"/>
<path id="Vector_12" d="M515.241 425.038C515.241 423.622 515.686 422.523 516.575 421.739C517.464 420.955 518.751 420.569 520.459 420.569H583.904C585.601 420.569 586.899 420.955 587.788 421.739C588.677 422.523 589.122 423.622 589.122 425.038C589.122 426.453 588.677 427.576 587.788 428.384C586.899 429.202 585.612 429.6 583.904 429.6H568.496V484.112C568.496 487.587 567.56 490.254 565.677 492.137C563.793 494.021 561.126 494.956 557.651 494.956H546.701C543.156 494.956 540.465 494.021 538.628 492.137C536.78 490.265 535.867 487.587 535.867 484.112V429.6H520.459C518.763 429.6 517.464 429.191 516.575 428.384C515.686 427.565 515.241 426.453 515.241 425.038Z" fill="white"/>
<path id="Vector_13" d="M594.843 431.413C594.843 427.939 595.767 425.272 597.604 423.389C599.441 421.517 602.143 420.569 605.677 420.569H616.627C620.102 420.569 622.769 421.505 624.653 423.389C626.524 425.272 627.472 427.939 627.472 431.413V453.09H636.188V431.413C636.188 427.939 637.112 425.272 638.949 423.389C640.786 421.517 643.488 420.569 647.022 420.569H657.972C661.447 420.569 664.114 421.505 665.998 423.389C667.87 425.272 668.817 427.939 668.817 431.413V484.124C668.817 487.598 667.881 490.266 665.998 492.149C664.114 494.032 661.447 494.968 657.972 494.968H647.022C643.477 494.968 640.786 494.032 638.949 492.149C637.101 490.277 636.188 487.598 636.188 484.124V462.132H627.472V484.124C627.472 487.598 626.536 490.266 624.653 492.149C622.769 494.032 620.102 494.968 616.627 494.968H605.677C602.132 494.968 599.441 494.032 597.604 492.149C595.756 490.277 594.843 487.598 594.843 484.124V431.413Z" fill="white"/>
<path id="Vector_14" d="M674.55 470.414C674.55 466.87 675.299 464.179 676.784 462.343C678.27 460.506 680.399 459.582 683.16 459.582V455.967C680.399 455.967 678.27 455.031 676.784 453.148C675.299 451.276 674.55 448.562 674.55 445.018V431.413C674.55 427.939 675.474 425.272 677.311 423.389C679.148 421.517 681.85 420.569 685.383 420.569H731.934C733.561 420.569 734.836 420.955 735.76 421.739C736.684 422.523 737.141 423.622 737.141 425.038C737.141 426.453 736.684 427.576 735.76 428.384C734.836 429.202 733.561 429.6 731.934 429.6H707.167V452.867H731.934C733.561 452.867 734.836 453.253 735.76 454.037C736.684 454.821 737.141 455.92 737.141 457.336C737.141 458.751 736.684 459.874 735.76 460.681C734.836 461.5 733.561 461.898 731.934 461.898H707.167V485.914H731.934C733.561 485.914 734.836 486.3 735.76 487.084C736.684 487.867 737.141 488.967 737.141 490.382C737.141 491.868 736.684 493.003 735.76 493.787C734.836 494.57 733.561 494.956 731.934 494.956H685.383C681.838 494.956 679.148 494.021 677.311 492.137C675.462 490.265 674.55 487.587 674.55 484.112V470.414Z" fill="white"/>
<path id="Vector_15" d="M791.565 494.955C789.869 494.955 788.57 494.569 787.681 493.786C786.792 493.002 786.348 491.867 786.348 490.381C786.348 488.966 786.792 487.866 787.681 487.083C788.57 486.299 789.857 485.913 791.565 485.913H818.672V465.512C818.672 464.377 818.333 463.476 817.666 462.798C816.988 462.131 816.087 461.792 814.952 461.792H796.889C793.344 461.792 790.653 460.856 788.816 458.973C786.968 457.101 786.055 454.422 786.055 450.948V431.401C786.055 427.926 786.979 425.259 788.816 423.376C790.653 421.504 793.355 420.557 796.889 420.557H843.44C845.066 420.557 846.341 420.943 847.265 421.726C848.19 422.51 848.646 423.61 848.646 425.025C848.646 426.441 848.19 427.564 847.265 428.371C846.341 429.19 845.066 429.587 843.44 429.587H818.672V449.146C818.672 450.281 819.012 451.182 819.679 451.86C820.357 452.539 821.258 452.866 822.393 452.866H840.456C844.001 452.866 846.704 453.802 848.587 455.685C850.459 457.557 851.407 460.236 851.407 463.71V484.111C851.407 487.586 850.471 490.253 848.587 492.136C846.715 494.02 844.001 494.955 840.456 494.955H791.565Z" fill="white"/>
<path id="Vector_16" d="M857.888 431.413C857.888 427.939 858.812 425.272 860.649 423.389C862.486 421.517 865.189 420.569 868.722 420.569H915.273C916.899 420.569 918.174 420.955 919.099 421.739C920.023 422.523 920.479 423.623 920.479 425.038C920.479 426.453 920.023 427.576 919.099 428.384C918.174 429.202 916.899 429.6 915.273 429.6H890.506V485.926H915.273C916.899 485.926 918.174 486.312 919.099 487.095C920.023 487.879 920.479 488.979 920.479 490.394C920.479 491.88 920.023 493.015 919.099 493.798C918.174 494.582 916.899 494.968 915.273 494.968H868.722C865.177 494.968 862.486 494.032 860.649 492.149C858.801 490.277 857.888 487.598 857.888 484.124V431.413Z" fill="white"/>
<path id="Vector_17" d="M937.384 494.955C933.84 494.955 931.149 494.02 929.312 492.136C927.463 490.265 926.551 487.586 926.551 484.111V431.401C926.551 427.926 927.475 425.259 929.312 423.376C931.149 421.504 933.851 420.557 937.384 420.557H989.89C993.295 420.557 995.916 421.481 997.752 423.317C999.589 425.166 1000.51 427.786 1000.51 431.178V442.128C1000.51 445.532 999.589 448.152 997.752 449.989C995.904 451.837 993.283 452.749 989.89 452.749H973.102V457.101H989.68C993.155 457.101 995.822 458.025 997.705 459.862C999.577 461.71 1000.53 464.4 1000.53 467.933V484.088C1000.53 487.562 999.589 490.229 997.705 492.113C995.834 493.996 993.155 494.932 989.68 494.932H978.729C975.185 494.932 972.494 493.996 970.657 492.113C968.808 490.241 967.896 487.562 967.896 484.088V461.804H959.18V484.123C959.18 487.597 958.244 490.265 956.361 492.148C954.477 494.031 951.809 494.967 948.335 494.967H937.384V494.955ZM964.164 448.304C965.299 448.304 966.2 447.965 966.878 447.298C967.557 446.62 967.884 445.719 967.884 444.584V432.898C967.884 431.763 967.545 430.863 966.878 430.184C966.2 429.506 965.299 429.178 964.164 429.178H959.168V448.304H964.164Z" fill="white"/>
<path id="Vector_18" d="M1006.68 470.414C1006.68 466.87 1007.43 464.179 1008.91 462.343C1010.4 460.506 1012.53 459.582 1015.29 459.582V455.967C1012.53 455.967 1010.4 455.031 1008.91 453.148C1007.43 451.276 1006.68 448.562 1006.68 445.018V431.413C1006.68 427.939 1007.6 425.272 1009.44 423.389C1011.28 421.517 1013.98 420.569 1017.51 420.569H1064.06C1065.69 420.569 1066.96 420.955 1067.89 421.739C1068.81 422.523 1069.27 423.622 1069.27 425.038C1069.27 426.453 1068.81 427.576 1067.89 428.384C1066.96 429.202 1065.69 429.6 1064.06 429.6H1039.3V452.867H1064.06C1065.69 452.867 1066.96 453.253 1067.89 454.037C1068.81 454.821 1069.27 455.92 1069.27 457.336C1069.27 458.751 1068.81 459.874 1067.89 460.681C1066.96 461.5 1065.69 461.898 1064.06 461.898H1039.3V485.914H1064.06C1065.69 485.914 1066.96 486.3 1067.89 487.084C1068.81 487.867 1069.27 488.967 1069.27 490.382C1069.27 491.868 1068.81 493.003 1067.89 493.787C1066.96 494.57 1065.69 494.956 1064.06 494.956H1017.51C1013.97 494.956 1011.28 494.021 1009.44 492.137C1007.59 490.265 1006.68 487.587 1006.68 484.112V470.414Z" fill="white"/>
<path id="Vector_19" d="M1074.91 470.414C1074.91 466.87 1075.66 464.179 1077.14 462.343C1078.63 460.506 1080.76 459.582 1083.52 459.582V455.967C1080.76 455.967 1078.63 455.031 1077.14 453.148C1075.66 451.276 1074.91 448.562 1074.91 445.018V431.413C1074.91 427.939 1075.83 425.272 1077.67 423.389C1079.51 421.517 1082.21 420.569 1085.74 420.569H1132.29C1133.92 420.569 1135.19 420.955 1136.12 421.739C1137.04 422.523 1137.5 423.622 1137.5 425.038C1137.5 426.453 1137.04 427.576 1136.12 428.384C1135.19 429.202 1133.92 429.6 1132.29 429.6H1107.53V452.867H1132.29C1133.92 452.867 1135.19 453.253 1136.12 454.037C1137.04 454.821 1137.5 455.92 1137.5 457.336C1137.5 458.751 1137.04 459.874 1136.12 460.681C1135.19 461.5 1133.92 461.898 1132.29 461.898H1107.53V485.914H1132.29C1133.92 485.914 1135.19 486.3 1136.12 487.084C1137.04 487.867 1137.5 488.967 1137.5 490.382C1137.5 491.868 1137.04 493.003 1136.12 493.787C1135.19 494.57 1133.92 494.956 1132.29 494.956H1085.74C1082.2 494.956 1079.51 494.021 1077.67 492.137C1075.82 490.265 1074.91 487.587 1074.91 484.112V470.414Z" fill="white"/>
<path id="Vector_20" d="M1143.56 431.413C1143.56 427.939 1144.48 425.272 1146.32 423.389C1148.16 421.517 1150.86 420.569 1154.39 420.569H1190.32C1193.87 420.569 1196.67 421.505 1198.77 423.389C1200.86 425.272 1201.9 427.939 1201.9 431.413V482.638C1201.9 483.703 1202.18 484.522 1202.76 485.083C1203.32 485.657 1204.14 485.937 1205.2 485.937H1206.48C1207.54 485.937 1208.37 485.657 1208.97 485.083C1209.57 484.522 1209.87 483.703 1209.87 482.638V431.413C1209.87 427.939 1210.8 425.272 1212.63 423.389C1214.47 421.517 1217.17 420.569 1220.7 420.569H1231.65C1235.2 420.569 1237.89 421.505 1239.73 423.389C1241.56 425.272 1242.49 427.939 1242.49 431.413V484.124C1242.49 487.598 1241.56 490.266 1239.73 492.149C1237.88 494.032 1235.19 494.968 1231.65 494.968H1195.73C1192.18 494.968 1189.36 494.032 1187.28 492.149C1185.19 490.277 1184.14 487.598 1184.14 484.124V432.899C1184.14 431.834 1183.84 431.027 1183.24 430.454C1182.65 429.893 1181.8 429.6 1180.75 429.6H1179.58C1178.52 429.6 1177.69 429.881 1177.09 430.454C1176.48 431.027 1176.19 431.834 1176.19 432.899V484.124C1176.19 487.598 1175.25 490.266 1173.37 492.149C1171.49 494.032 1168.82 494.968 1165.34 494.968H1154.39C1150.85 494.968 1148.16 494.032 1146.32 492.149C1144.47 490.277 1143.56 487.598 1143.56 484.124V431.413Z" fill="white"/>
</g>
</g>
<path id="Vector_21" d="M1441.91 59.3584H315.049V686.554H1441.91V59.3584Z" stroke="#00BFFF" stroke-width="3" stroke-miterlimit="10" stroke-linecap="round"/>
<path id="Vector_22" d="M1487.32 2.44824H265.48V741.347H1487.32V2.44824Z" stroke="#00BFFF" stroke-width="3" stroke-miterlimit="10" stroke-linecap="round"/>
<path id="Vector_23" d="M1486.2 741.358L1747.72 1010.64H822.644" stroke="#00BFFF" stroke-width="3" stroke-miterlimit="10" stroke-linecap="round"/>
<path id="Vector_24" d="M3.95557 1010.64V1073.53H1747.72V1010.64" stroke="#00BFFF" stroke-width="3" stroke-miterlimit="10" stroke-linecap="round"/>
<path id="Vector_25" d="M919.7 1010.64H3.95557L265.48 741.358" stroke="#00BFFF" stroke-width="3" stroke-miterlimit="10" stroke-linecap="round"/>
<g id="Group_2">
<path id="Vector_26" d="M1338.77 772.967H399.284" stroke="#00BFFF" stroke-width="3" stroke-miterlimit="10" stroke-linecap="round"/>
<path id="Vector_27" d="M296.144 897.702L399.284 772.967" stroke="#00BFFF" stroke-width="3" stroke-miterlimit="10" stroke-linecap="round"/>
<path id="Vector_28" d="M1338.05 772.967L1441.56 897.702" stroke="#00BFFF" stroke-width="3" stroke-miterlimit="10" stroke-linecap="round"/>
<path id="Vector_29" d="M295.746 897.608H1441.11" stroke="#00BFFF" stroke-width="3" stroke-miterlimit="10" stroke-linecap="round"/>
</g>
<g id="Group_3">
<path id="Vector_30" d="M1053.55 914.032H726.651" stroke="#00BFFF" stroke-width="3" stroke-miterlimit="10" stroke-linecap="round"/>
<path id="Vector_31" d="M690.758 978.909L726.651 914.032" stroke="#00BFFF" stroke-width="3" stroke-miterlimit="10" stroke-linecap="round"/>
<path id="Vector_32" d="M1053.29 914.032L1089.32 978.909" stroke="#00BFFF" stroke-width="3" stroke-miterlimit="10" stroke-linecap="round"/>
<path id="Vector_33" d="M690.618 978.874H1089.16" stroke="#00BFFF" stroke-width="3" stroke-miterlimit="10" stroke-linecap="round"/>
</g>
<path id="Vector_34" d="M702.399 958.858H1079.11" stroke="#00BFFF" stroke-width="3" stroke-miterlimit="10" stroke-linecap="round"/>
<path id="Vector_35" d="M889.586 978.745V958.858" stroke="#00BFFF" stroke-width="3" stroke-miterlimit="10" stroke-linecap="round"/>
</g>
</svg>
