	<svg width="auto" height="auto" viewBox="0 0 1388 708" fill="none" xmlns="http://www.w3.org/2000/svg">
		<g id="end_page_1">
			<g id="door">
				<path id="Vector" d="M1230.59 105.428H735.383V706.103H1230.59V105.428Z" fill="#D7F7FF" stroke="#00BFFF" stroke-width="3" stroke-miterlimit="10" stroke-linecap="round" stroke-linejoin="round"/>
				<path id="Vector_2" d="M704.128 405.244V105.912H1230.2V706.103H704.128V449.808" stroke="#00BFFF" stroke-width="3" stroke-miterlimit="10" stroke-linecap="round" stroke-linejoin="round"/>
				<path id="Vector_3" d="M735.432 408.075V105.912" stroke="#00BFFF" stroke-width="3" stroke-miterlimit="10" stroke-linecap="round" stroke-linejoin="round"/>
				<path id="Vector_4" d="M735.432 706.103V449.808" stroke="#00BFFF" stroke-width="3" stroke-miterlimit="10" stroke-linecap="round" stroke-linejoin="round"/>
			</g>
				<path id="button-hole" d="M1157.74 497.538H827.631C809.959 497.538 795.63 483.222 795.63 465.565V404.872C795.63 387.215 809.959 372.898 827.631 372.898H1156.49C1174.17 372.898 1188.49 387.215 1188.49 404.872V466.807C1188.49 483.781 1174.72 497.538 1157.74 497.538Z" fill="white" stroke="#FF931E" stroke-width="3" stroke-miterlimit="10" stroke-linecap="round" stroke-linejoin="round"/>
			<g id="button">
				<path id="Vector_5" d="M1156.86 498.012H828C810.329 498.012 796 483.696 796 466.039V404.973C796 387.317 810.329 373 828 373H1156.86C1174.54 373 1188.86 387.317 1188.86 404.973V466.039C1188.86 483.696 1174.55 498.012 1156.86 498.012Z" fill="#FF931E"/>
			<g id="letters">
				<path id="Vector_6" d="M831.057 421.053C831.057 418.744 831.617 416.956 832.723 415.702C833.829 414.448 835.444 413.814 837.569 413.814V411.468C835.444 411.468 833.829 410.847 832.723 409.58C831.617 408.326 831.057 406.526 831.057 404.179V402.813C831.057 400.466 831.679 398.666 832.921 397.412C834.164 396.158 835.954 395.524 838.302 395.524H882.581C883.687 395.524 884.557 395.798 885.178 396.356C885.8 396.915 886.11 397.722 886.11 398.802C886.11 399.845 885.8 400.64 885.178 401.199C884.557 401.758 883.699 402.031 882.581 402.031H858.658V409.021H882.581C883.687 409.021 884.557 409.295 885.178 409.853C885.8 410.412 886.11 411.207 886.11 412.25C886.11 413.33 885.8 414.137 885.178 414.696C884.557 415.255 883.699 415.528 882.581 415.528H858.658V423.251H882.581C883.687 423.251 884.557 423.524 885.178 424.083C885.8 424.642 886.11 425.436 886.11 426.479C886.11 427.56 885.8 428.367 885.178 428.926C884.557 429.484 883.699 429.758 882.581 429.758H838.302C835.954 429.758 834.164 429.137 832.921 427.87C831.679 426.616 831.057 424.816 831.057 422.469V421.053Z" fill="white"/>
				<path id="Vector_7" d="M889.565 402.826C889.565 400.479 890.186 398.679 891.454 397.424C892.709 396.17 894.511 395.537 896.86 395.537H930.177C932.526 395.537 934.341 396.17 935.608 397.424C936.876 398.679 937.522 400.479 937.522 402.826V420.718C937.522 421.501 937.746 422.121 938.181 422.568C938.616 423.028 939.249 423.251 940.07 423.251H941.437C942.219 423.251 942.841 423.028 943.301 422.568C943.76 422.109 943.984 421.488 943.984 420.718V402.826C943.984 400.479 944.606 398.679 945.848 397.424C947.091 396.17 948.88 395.537 951.229 395.537H964.29C966.639 395.537 968.441 396.17 969.696 397.424C970.951 398.679 971.585 400.479 971.585 402.826V422.469C971.585 424.816 970.951 426.616 969.696 427.87C968.441 429.125 966.639 429.758 964.29 429.758H930.973C928.624 429.758 926.81 429.137 925.542 427.87C924.274 426.616 923.628 424.816 923.628 422.469V404.577C923.628 403.794 923.405 403.173 922.97 402.714C922.535 402.255 921.901 402.031 921.081 402.031H919.714C918.931 402.031 918.309 402.255 917.85 402.714C917.39 403.173 917.166 403.794 917.166 404.577V422.469C917.166 424.816 916.545 426.616 915.302 427.87C914.059 429.125 912.27 429.758 909.921 429.758H896.86C894.511 429.758 892.709 429.137 891.454 427.87C890.199 426.616 889.565 424.816 889.565 422.469V402.826Z" fill="white"/>
				<path id="Vector_8" d="M975.077 398.815C975.077 397.735 975.376 396.928 975.985 396.369C976.581 395.81 977.463 395.537 978.607 395.537H1031.53C1032.64 395.537 1033.5 395.81 1034.11 396.369C1034.72 396.928 1035.01 397.735 1035.01 398.815C1035.01 399.858 1034.72 400.653 1034.11 401.212C1033.5 401.77 1032.65 402.044 1031.53 402.044H1018.86V422.482C1018.86 424.828 1018.22 426.629 1016.97 427.883C1015.71 429.137 1013.91 429.77 1011.56 429.77H998.503C996.154 429.77 994.365 429.149 993.122 427.883C991.879 426.629 991.258 424.828 991.258 422.482V402.044H978.582C977.439 402.044 976.569 401.77 975.96 401.212C975.376 400.653 975.077 399.858 975.077 398.815Z" fill="white"/>
				<path id="Vector_9" d="M1038.53 421.053C1038.53 418.744 1039.09 416.956 1040.2 415.702C1041.3 414.448 1042.92 413.814 1045.04 413.814V411.468C1042.92 411.468 1041.3 410.847 1040.2 409.58C1039.09 408.326 1038.53 406.526 1038.53 404.179V402.813C1038.53 400.466 1039.15 398.666 1040.4 397.412C1041.64 396.158 1043.43 395.524 1045.78 395.524H1090.05C1091.16 395.524 1092.03 395.798 1092.65 396.356C1093.27 396.915 1093.58 397.722 1093.58 398.802C1093.58 399.845 1093.27 400.64 1092.65 401.199C1092.03 401.758 1091.17 402.031 1090.05 402.031H1066.13V409.021H1090.05C1091.16 409.021 1092.03 409.295 1092.65 409.853C1093.27 410.412 1093.58 411.207 1093.58 412.25C1093.58 413.33 1093.27 414.137 1092.65 414.696C1092.03 415.255 1091.17 415.528 1090.05 415.528H1066.13V423.251H1090.05C1091.16 423.251 1092.03 423.524 1092.65 424.083C1093.27 424.642 1093.58 425.436 1093.58 426.479C1093.58 427.56 1093.27 428.367 1092.65 428.926C1092.03 429.484 1091.17 429.758 1090.05 429.758H1045.78C1043.43 429.758 1041.64 429.137 1040.4 427.87C1039.15 426.616 1038.53 424.816 1038.53 422.469V421.053Z" fill="white"/>
				<path id="Vector_10" d="M1104.32 429.745C1101.97 429.745 1100.17 429.124 1098.92 427.858C1097.66 426.604 1097.03 424.803 1097.03 422.456V402.813C1097.03 400.466 1097.65 398.666 1098.92 397.412C1100.17 396.158 1101.97 395.524 1104.32 395.524H1151.73C1153.98 395.524 1155.71 396.12 1156.91 397.337C1158.12 398.542 1158.73 400.268 1158.73 402.515V403.148C1158.73 405.433 1158.12 407.159 1156.91 408.351C1155.71 409.543 1153.98 410.139 1151.73 410.139H1137.44V413.417H1151.43C1153.78 413.417 1155.58 414.05 1156.84 415.304C1158.09 416.558 1158.73 418.346 1158.73 420.656V422.469C1158.73 424.816 1158.09 426.616 1156.84 427.87C1155.58 429.124 1153.78 429.758 1151.43 429.758H1138.42C1136.07 429.758 1134.27 429.137 1133.02 427.87C1131.76 426.616 1131.13 424.816 1131.13 422.469V415.776H1124.61V422.469C1124.61 424.816 1123.99 426.616 1122.75 427.87C1121.51 429.124 1119.72 429.758 1117.37 429.758H1104.32V429.745ZM1128.54 408.152C1129.36 408.152 1130 407.929 1130.46 407.494C1130.92 407.047 1131.14 406.426 1131.14 405.607V404.191C1131.14 403.372 1130.92 402.739 1130.46 402.279C1130 401.82 1129.36 401.596 1128.54 401.596H1124.63V408.152H1128.54Z" fill="white"/>
				<path id="Vector_11" d="M828.758 443.875C828.758 442.311 829.168 441.119 830.001 440.287C830.834 439.455 832.027 439.045 833.593 439.045H853.402C854.147 439.045 854.719 439.219 855.117 439.554C855.502 439.902 855.701 440.374 855.701 440.994C855.701 441.652 855.502 442.149 855.117 442.484C854.719 442.832 854.16 442.993 853.402 442.993H842.888V454.094H853.402C854.147 454.094 854.719 454.255 855.117 454.578C855.502 454.901 855.701 455.398 855.701 456.043C855.701 456.702 855.502 457.198 855.117 457.533C854.719 457.881 854.16 458.043 853.402 458.043H842.888V468.411C842.888 469.975 842.478 471.167 841.645 471.999C840.813 472.831 839.62 473.241 838.054 473.241H833.605C832.039 473.241 830.846 472.819 830.013 471.999C829.181 471.167 828.771 469.975 828.771 468.411V443.875H828.758Z" fill="white"/>
				<path id="Vector_12" d="M858.261 443.825C858.261 442.261 858.671 441.069 859.503 440.237C860.336 439.405 861.529 438.995 863.095 438.995H867.544C869.11 438.995 870.303 439.405 871.135 440.237C871.968 441.069 872.378 442.261 872.378 443.825V469.243H882.892C883.637 469.243 884.209 469.416 884.607 469.752C884.992 470.099 885.191 470.596 885.191 471.242C885.191 471.862 884.992 472.347 884.607 472.682C884.209 473.03 883.65 473.191 882.892 473.191H863.083C861.517 473.191 860.324 472.769 859.491 471.949C858.658 471.117 858.248 469.925 858.248 468.361V443.825H858.261Z" fill="white"/>
				<path id="Vector_13" d="M887.751 443.875C887.751 442.311 888.161 441.119 888.993 440.287C889.826 439.455 891.019 439.045 892.585 439.045H915.041C916.607 439.045 917.8 439.455 918.632 440.287C919.465 441.119 919.875 442.311 919.875 443.875V468.411C919.875 469.975 919.465 471.167 918.632 471.999C917.8 472.831 916.607 473.241 915.041 473.241H910.542C908.976 473.241 907.783 472.819 906.951 471.999C906.118 471.167 905.708 469.975 905.708 468.411V458.043H901.893V468.411C901.893 469.975 901.483 471.167 900.65 471.999C899.818 472.831 898.625 473.241 897.059 473.241H892.61C891.044 473.241 889.851 472.819 889.018 471.999C888.186 471.167 887.776 469.975 887.776 468.411V443.875H887.751ZM901.893 454.094H905.708V444.657C905.708 444.136 905.559 443.726 905.273 443.44C904.975 443.142 904.59 443.006 904.105 443.006H903.571C903.049 443.006 902.639 443.155 902.353 443.44C902.055 443.738 901.918 444.136 901.918 444.657V454.094H901.893Z" fill="white"/>
				<path id="Vector_14" d="M922.435 440.994C922.435 440.374 922.634 439.902 923.019 439.554C923.405 439.206 923.976 439.045 924.734 439.045H952.323C953.069 439.045 953.64 439.219 954.038 439.554C954.423 439.902 954.622 440.374 954.622 440.994C954.622 441.652 954.423 442.149 954.038 442.484C953.653 442.832 953.081 442.993 952.323 442.993H945.625V468.411C945.625 469.975 945.215 471.167 944.382 471.999C943.549 472.831 942.356 473.241 940.79 473.241H936.292C934.726 473.241 933.533 472.819 932.7 471.999C931.868 471.167 931.458 469.975 931.458 468.411V442.993H924.759C924.014 442.993 923.442 442.82 923.044 442.484C922.647 442.149 922.435 441.64 922.435 440.994Z" fill="white"/>
				<path id="Vector_15" d="M976.395 443.875C976.395 442.311 976.805 441.119 977.637 440.287C978.47 439.455 979.663 439.045 981.229 439.045H985.678C987.281 439.045 988.486 439.455 989.319 440.287C990.152 441.119 990.562 442.311 990.562 443.875V467.628C990.562 468.15 990.711 468.56 990.997 468.845C991.282 469.131 991.68 469.28 992.165 469.28H992.699C993.221 469.28 993.619 469.131 993.892 468.845C994.166 468.547 994.302 468.15 994.302 467.628V443.875C994.302 442.311 994.725 441.119 995.57 440.287C996.415 439.455 997.62 439.045 999.186 439.045H1003.64C1005.2 439.045 1006.39 439.455 1007.23 440.287C1008.06 441.119 1008.47 442.311 1008.47 443.875V467.628C1008.47 468.15 1008.62 468.56 1008.9 468.845C1009.2 469.143 1009.6 469.28 1010.12 469.28H1010.56C1011.08 469.28 1011.49 469.131 1011.77 468.845C1012.07 468.547 1012.21 468.15 1012.21 467.628V443.875C1012.21 442.311 1012.62 441.119 1013.45 440.287C1014.29 439.455 1015.48 439.045 1017.04 439.045H1021.49C1023.06 439.045 1024.25 439.455 1025.08 440.287C1025.92 441.119 1026.33 442.311 1026.33 443.875V468.411C1026.33 469.975 1025.92 471.167 1025.08 471.999C1024.25 472.831 1023.06 473.241 1021.49 473.241H1007.16C1005.72 473.241 1004.63 472.893 1003.86 472.21C1003.09 471.527 1002.7 470.546 1002.7 469.28H1000.01C1000.01 470.546 999.621 471.527 998.863 472.21C998.093 472.893 996.974 473.241 995.508 473.241H981.129C979.563 473.241 978.371 472.819 977.538 471.999C976.705 471.167 976.295 469.975 976.295 468.411V443.875H976.395Z" fill="white"/>
				<path id="Vector_16" d="M1029.24 444.559C1029.24 442.771 1029.71 441.405 1030.65 440.449C1031.6 439.505 1032.96 439.033 1034.77 439.033H1055.85C1057.64 439.033 1059.02 439.505 1059.97 440.449C1060.91 441.392 1061.38 442.758 1061.38 444.559V467.728C1061.38 469.516 1060.91 470.895 1059.97 471.838C1059.02 472.782 1057.66 473.254 1055.85 473.254H1034.77C1032.98 473.254 1031.6 472.782 1030.65 471.838C1029.71 470.895 1029.24 469.529 1029.24 467.728V444.559ZM1043.37 467.629C1043.37 468.151 1043.51 468.56 1043.8 468.846C1044.1 469.144 1044.5 469.281 1045.02 469.281H1045.55C1046.04 469.281 1046.43 469.132 1046.72 468.846C1047.02 468.548 1047.16 468.151 1047.16 467.629V444.658C1047.16 444.137 1047.01 443.727 1046.72 443.441C1046.42 443.143 1046.04 443.007 1045.55 443.007H1045.02C1044.5 443.007 1044.09 443.156 1043.8 443.441C1043.5 443.739 1043.37 444.137 1043.37 444.658V467.629Z" fill="white"/>
				<path id="Vector_17" d="M1068.95 473.254C1067.39 473.254 1066.19 472.831 1065.36 472.012C1064.53 471.18 1064.12 469.988 1064.12 468.423V443.888C1064.12 442.323 1064.53 441.131 1065.36 440.299C1066.19 439.467 1067.39 439.058 1068.95 439.058H1091.51C1093.04 439.058 1094.22 439.467 1095.03 440.274C1095.85 441.094 1096.24 442.261 1096.24 443.788V449.115C1096.24 450.643 1095.83 451.822 1095.03 452.629C1094.21 453.449 1093.04 453.846 1091.51 453.846H1084.21V455.758H1091.41C1092.98 455.758 1094.17 456.18 1095 457C1095.83 457.832 1096.24 459.024 1096.24 460.588V468.411C1096.24 469.976 1095.83 471.168 1095 471.999C1094.17 472.831 1092.98 473.241 1091.41 473.241H1086.96C1085.39 473.241 1084.19 472.819 1083.34 471.999C1082.5 471.168 1082.08 469.976 1082.08 468.411V457.906H1078.31V468.411C1078.31 469.976 1077.9 471.168 1077.07 471.999C1076.24 472.831 1075.02 473.241 1073.43 473.241H1068.95V473.254ZM1080.45 451.797C1080.97 451.797 1081.37 451.648 1081.64 451.35C1081.91 451.052 1082.05 450.655 1082.05 450.133V444.509C1082.05 443.987 1081.91 443.577 1081.64 443.292C1081.37 442.994 1080.97 442.845 1080.45 442.845H1078.3V451.797H1080.45Z" fill="white"/>
				<path id="Vector_18" d="M1098.99 443.825C1098.99 442.261 1099.4 441.069 1100.23 440.237C1101.07 439.405 1102.26 438.995 1103.82 438.995H1108.27C1109.84 438.995 1111.03 439.405 1111.86 440.237C1112.7 441.069 1113.11 442.261 1113.11 443.825V469.243H1123.62C1124.37 469.243 1124.94 469.416 1125.34 469.752C1125.73 470.099 1125.92 470.596 1125.92 471.242C1125.92 471.862 1125.72 472.347 1125.34 472.682C1124.95 473.03 1124.38 473.191 1123.62 473.191H1103.81C1102.25 473.191 1101.05 472.769 1100.22 471.949C1099.39 471.117 1098.98 469.925 1098.98 468.361V443.825H1098.99Z" fill="white"/>
				<path id="Vector_19" d="M1133.54 473.254C1131.97 473.254 1130.78 472.831 1129.95 472.012C1129.11 471.18 1128.7 469.988 1128.7 468.423V443.888C1128.7 442.323 1129.11 441.131 1129.95 440.299C1130.78 439.467 1131.97 439.058 1133.54 439.058H1149.68C1153.3 439.058 1156.07 440.014 1157.97 441.914C1159.87 443.813 1160.83 446.582 1160.83 450.196V462.116C1160.83 465.729 1159.87 468.498 1157.97 470.398C1156.07 472.297 1153.3 473.254 1149.68 473.254H1133.54ZM1145.03 469.442C1145.55 469.442 1145.95 469.293 1146.23 468.995C1146.5 468.697 1146.64 468.299 1146.64 467.778V444.509C1146.64 443.987 1146.5 443.577 1146.23 443.292C1145.95 443.006 1145.55 442.845 1145.03 442.845H1142.88V469.442H1145.03Z" fill="white"/>
			</g>
			</g>
			<g id="guys">
				<path id="Vector_20" d="M490.615 459.046H463.374" stroke="#00BFFF" stroke-width="3" stroke-miterlimit="10" stroke-linecap="round" stroke-linejoin="round"/>
				<path id="Vector_21" d="M461.585 337.981V705.891H632.41C641.147 705.891 648.23 698.814 648.23 690.085C648.23 681.356 641.147 674.278 632.41 674.278H461.199" stroke="#00BFFF" stroke-width="3" stroke-miterlimit="10" stroke-linecap="round" stroke-linejoin="round"/>
				<path id="Vector_22" d="M538.957 251.61L529.028 288.886L467.264 288.935C440.272 288.96 418.4 309.46 418.4 334.753V536.117" stroke="#00BFFF" stroke-width="3" stroke-miterlimit="10" stroke-linecap="round" stroke-linejoin="round"/>
				<path id="Vector_23" d="M545.283 251.449C564.431 251.449 579.955 235.939 579.955 216.806C579.955 197.673 564.431 182.163 545.283 182.163C526.134 182.163 510.61 197.673 510.61 216.806C510.61 235.939 526.134 251.449 545.283 251.449Z" stroke="#00BFFF" stroke-width="3" stroke-miterlimit="10" stroke-linecap="round" stroke-linejoin="round"/>
				<path id="Vector_24" d="M551.123 251.139L561.351 289.022H603.728C603.728 289.022 651.126 285.819 651.126 338.441C651.126 389.3 651.126 407.206 651.126 407.206H712.653V395.136C712.653 395.136 711.684 385.799 719.588 385.799C727.491 385.799 727.491 394.565 727.491 394.565V419.896C727.491 419.896 727.491 433.157 716.953 433.157" stroke="#00BFFF" stroke-width="3" stroke-miterlimit="10" stroke-linecap="round" stroke-linejoin="round"/>
				<path id="Vector_25" d="M553.36 214.062H563.576" stroke="#00BFFF" stroke-width="3" stroke-miterlimit="10" stroke-linecap="round" stroke-linejoin="round"/>
				<path id="Vector_26" d="M553.36 219.165H563.576" stroke="#00BFFF" stroke-width="3" stroke-miterlimit="10" stroke-linecap="round" stroke-linejoin="round"/>
				<path id="Vector_27" d="M578.153 226.454C583.993 226.454 588.728 220.906 588.728 214.062C588.728 207.218 583.993 201.67 578.153 201.67C572.312 201.67 567.577 207.218 567.577 214.062C567.577 220.906 572.312 226.454 578.153 226.454Z" fill="white" stroke="#00BFFF" stroke-width="3" stroke-miterlimit="10" stroke-linecap="round" stroke-linejoin="round"/>
				<path id="Vector_28" d="M578.153 201.67H563.613V226.454H578.153" stroke="#00BFFF" stroke-width="3" stroke-miterlimit="10" stroke-linecap="round" stroke-linejoin="round"/>
				<path id="Vector_29" d="M548.986 226.454C554.827 226.454 559.562 220.906 559.562 214.062C559.562 207.218 554.827 201.67 548.986 201.67C543.145 201.67 538.41 207.218 538.41 214.062C538.41 220.906 543.145 226.454 548.986 226.454Z" fill="white" stroke="#00BFFF" stroke-width="3" stroke-miterlimit="10" stroke-linecap="round" stroke-linejoin="round"/>
				<path id="Vector_30" d="M548.986 201.67H534.446V226.454H548.986" stroke="#00BFFF" stroke-width="3" stroke-miterlimit="10" stroke-linecap="round" stroke-linejoin="round"/>
				<path id="Vector_31" d="M511.058 214.062H534.036" stroke="#00BFFF" stroke-width="3" stroke-miterlimit="10" stroke-linecap="round" stroke-linejoin="round"/>
				<path id="Vector_32" d="M511.058 219.165H534.036" stroke="#00BFFF" stroke-width="3" stroke-miterlimit="10" stroke-linecap="round" stroke-linejoin="round"/>
				<path id="Vector_33" d="M537.714 239.442C530.258 239.442 524.218 233.407 524.218 225.957" stroke="#00BFFF" stroke-width="3" stroke-miterlimit="10" stroke-linecap="round" stroke-linejoin="round"/>
				<path id="Vector_34" d="M603.728 289.32V673.769" stroke="#00BFFF" stroke-width="3" stroke-miterlimit="10" stroke-linecap="round" stroke-linejoin="round"/>
				<path id="Vector_35" d="M461.585 474.169H490.428V569.493H603.728" stroke="#00BFFF" stroke-width="3" stroke-miterlimit="10" stroke-linecap="round" stroke-linejoin="round"/>
				<path id="Vector_36" d="M590.841 289.022V337.56H502.955" stroke="#00BFFF" stroke-width="3" stroke-miterlimit="10" stroke-linecap="round" stroke-linejoin="round"/>
				<path id="Vector_37" d="M502.769 289.022V337.982" stroke="#00BFFF" stroke-width="3" stroke-miterlimit="10" stroke-linecap="round" stroke-linejoin="round"/>
				<path id="Vector_38" d="M490.503 288.886V458.946" stroke="#00BFFF" stroke-width="3" stroke-miterlimit="10" stroke-linecap="round" stroke-linejoin="round"/>
				<g id="Group">
					<g id="Group_2">
						<g id="Vector_39">
							<path d="M728.722 408.074H748.407C752.184 408.074 755.242 411.129 755.242 414.903C755.242 418.678 752.184 421.733 748.407 421.733H735.805" fill="white"/>
							<path d="M728.722 408.074H748.407C752.184 408.074 755.242 411.129 755.242 414.903C755.242 418.678 752.184 421.733 748.407 421.733H735.805" stroke="#00BFFF" stroke-width="3" stroke-miterlimit="10" stroke-linecap="round" stroke-linejoin="round"/>
						</g>
						<g id="Vector_40">
							<path d="M735.892 422.105H753.676C757.454 422.105 760.511 425.16 760.511 428.935C760.511 432.709 757.454 435.764 753.676 435.764H735.892" fill="white"/>
							<path d="M735.892 422.105H753.676C757.454 422.105 760.511 425.16 760.511 428.935C760.511 432.709 757.454 435.764 753.676 435.764H735.892" stroke="#00BFFF" stroke-width="3" stroke-miterlimit="10" stroke-linecap="round" stroke-linejoin="round"/>
						</g>
						<g id="Vector_41">
							<path d="M735.892 436.136H748.407C752.184 436.136 755.242 439.19 755.242 442.965C755.242 446.74 752.184 449.794 748.407 449.794H604.971" fill="white"/>
							<path d="M735.892 436.136H748.407C752.184 436.136 755.242 439.19 755.242 442.965C755.242 446.74 752.184 449.794 748.407 449.794H604.971" stroke="#00BFFF" stroke-width="3" stroke-miterlimit="10" stroke-linecap="round" stroke-linejoin="round"/>
						</g>
					</g>
					<path id="Vector_42" d="M735.022 417.362V441.91" stroke="#00BFFF" stroke-width="3" stroke-miterlimit="10" stroke-linecap="round" stroke-linejoin="round"/>
				</g>
				<path id="Vector_43" d="M569.901 289.022C565.813 299.465 555.635 306.865 543.742 306.865C531.811 306.865 521.621 299.44 517.545 288.96" stroke="#00BFFF" stroke-width="3" stroke-miterlimit="10" stroke-linecap="round" stroke-linejoin="round"/>
				<path id="Vector_44" d="M433.052 530.79V548.558C433.052 552.333 429.783 555.388 425.757 555.388C421.73 555.388 418.462 552.333 418.462 548.558V530.79" stroke="#00BFFF" stroke-width="3" stroke-miterlimit="10" stroke-linecap="round" stroke-linejoin="round"/>
				<path id="Vector_45" d="M447.53 530.79V548.558C447.53 552.333 444.261 555.388 440.235 555.388C436.208 555.388 432.94 552.333 432.94 548.558V530.79" stroke="#00BFFF" stroke-width="3" stroke-miterlimit="10" stroke-linecap="round" stroke-linejoin="round"/>
				<path id="Vector_46" d="M461.995 530.79V548.558C461.995 552.333 458.727 555.388 454.7 555.388C450.674 555.388 447.405 552.333 447.405 548.558V530.79" stroke="#00BFFF" stroke-width="3" stroke-miterlimit="10" stroke-linecap="round" stroke-linejoin="round"/>
				<path id="Vector_47" d="M418.412 497.538H461.2" stroke="#00BFFF" stroke-width="3" stroke-miterlimit="10" stroke-linecap="round" stroke-linejoin="round"/>
				<path id="Vector_48" d="M561.761 705.718C570.498 705.718 577.581 698.64 577.581 689.911C577.581 681.182 570.498 674.104 561.761 674.104" stroke="#00BFFF" stroke-width="3" stroke-miterlimit="10" stroke-linecap="round" stroke-linejoin="round"/>
				<path id="Vector_49" d="M541.567 569.493V673.769" stroke="#00BFFF" stroke-width="3" stroke-miterlimit="10" stroke-linecap="round" stroke-linejoin="round"/>
				<path id="Vector_50" d="M1.97388 706.103H1156.31" stroke="#00BFFF" stroke-width="3" stroke-miterlimit="10" stroke-linecap="round" stroke-linejoin="round"/>
				<g id="Group_3">
					<path id="Vector_51" d="M194.398 337.981V705.891H365.223C373.96 705.891 381.043 698.814 381.043 690.085C381.043 681.356 373.96 674.278 365.223 674.278H195.057" stroke="#00BFFF" stroke-width="3" stroke-miterlimit="10" stroke-linecap="round" stroke-linejoin="round"/>
					<path id="Vector_52" d="M294.574 705.718C303.311 705.718 310.394 698.64 310.394 689.911C310.394 681.182 303.311 674.104 294.574 674.104" stroke="#00BFFF" stroke-width="3" stroke-miterlimit="10" stroke-linecap="round" stroke-linejoin="round"/>
					<path id="Vector_53" d="M276.468 673.77V503.796H291.778" stroke="#00BFFF" stroke-width="3" stroke-miterlimit="10" stroke-linecap="round" stroke-linejoin="round"/>
					<path id="Vector_54" d="M281.376 252.156L292.014 291.853H341.96C370.107 291.853 392.924 314.65 392.924 342.774V455.593L393.346 526.754V542.436C393.346 546.211 390.153 549.787 386.126 549.787C382.1 549.787 378.831 546.733 378.831 542.958V525.189" stroke="#00BFFF" stroke-width="3" stroke-miterlimit="10" stroke-linecap="round" stroke-linejoin="round"/>
					<path id="Vector_55" d="M348.906 332.767V674.291" stroke="#00BFFF" stroke-width="3" stroke-miterlimit="10" stroke-linecap="round" stroke-linejoin="round"/>
					<path id="Vector_56" d="M348.906 391.188H392.862" stroke="#00BFFF" stroke-width="3" stroke-miterlimit="10" stroke-linecap="round" stroke-linejoin="round"/>
					<path id="Vector_57" d="M262.363 252.095L251.725 291.791H201.78C173.632 291.791 150.815 314.589 150.815 342.713V455.532V526.68V544.448C150.815 548.223 154.084 551.278 158.11 551.278C162.137 551.278 165.405 548.223 165.405 544.448V526.68" stroke="#00BFFF" stroke-width="3" stroke-miterlimit="10" stroke-linecap="round" stroke-linejoin="round"/>
					<path id="Vector_58" d="M193.789 391.126H150.878" stroke="#00BFFF" stroke-width="3" stroke-miterlimit="10" stroke-linecap="round" stroke-linejoin="round"/>
					<path id="Vector_59" d="M348.484 464.124H194.709" stroke="#00BFFF" stroke-width="3" stroke-miterlimit="10" stroke-linecap="round" stroke-linejoin="round"/>
					<path id="Vector_60" d="M251.725 291.791H291.778" stroke="#00BFFF" stroke-width="3" stroke-miterlimit="10" stroke-linecap="round" stroke-linejoin="round"/>
					<g id="Group_4">
						<path id="Vector_61" d="M275.834 185.168C278.232 181.965 279.86 178.004 279.972 174.75C280.109 170.529 274.045 169.337 272.553 173.285C272.541 173.31 272.541 173.335 272.528 173.36C271.422 176.352 270.043 183.517 260.934 186.82L261.356 186.77C247.661 191.141 237.744 203.955 237.744 219.078C237.744 237.815 252.943 253.001 271.696 253.001C290.449 253.001 305.647 237.815 305.647 219.078C305.647 206.028 299.023 195.263 289.492 190.507" stroke="#00BFFF" stroke-width="3" stroke-miterlimit="10" stroke-linecap="round" stroke-linejoin="round"/>
						<path id="Vector_62" d="M283.29 186.819C285.689 183.616 287.317 178.823 287.429 175.57C287.565 171.348 281.501 170.156 280.01 174.105" stroke="#00BFFF" stroke-width="3" stroke-miterlimit="10" stroke-linecap="round" stroke-linejoin="round"/>
						<path id="Vector_63" d="M289.914 190.135C292.313 186.931 293.941 182.138 294.052 178.885C294.189 174.663 288.945 173.471 287.454 177.42" stroke="#00BFFF" stroke-width="3" stroke-miterlimit="10" stroke-linecap="round" stroke-linejoin="round"/>
					</g>
					<path id="Vector_64" d="M179.87 526.68V544.448C179.87 548.223 176.602 551.277 172.576 551.277C168.549 551.277 165.281 548.223 165.281 544.448V526.68" stroke="#00BFFF" stroke-width="3" stroke-miterlimit="10" stroke-linecap="round" stroke-linejoin="round"/>
					<path id="Vector_65" d="M194.336 526.68V544.448C194.336 548.223 191.067 551.277 187.041 551.277C183.014 551.277 179.746 548.223 179.746 544.448V526.68" stroke="#00BFFF" stroke-width="3" stroke-miterlimit="10" stroke-linecap="round" stroke-linejoin="round"/>
					<path id="Vector_66" d="M364.366 525.189V542.958C364.366 546.733 367.634 549.787 371.661 549.787C375.687 549.787 378.956 546.733 378.956 542.958V525.189" stroke="#00BFFF" stroke-width="3" stroke-miterlimit="10" stroke-linecap="round" stroke-linejoin="round"/>
					<path id="Vector_67" d="M349.901 525.189V542.958C349.901 546.733 353.169 549.787 357.195 549.787C361.222 549.787 364.49 546.733 364.49 542.958V525.189" stroke="#00BFFF" stroke-width="3" stroke-miterlimit="10" stroke-linecap="round" stroke-linejoin="round"/>
					<path id="Vector_68" d="M281.712 217.191C282.412 217.191 282.98 216.624 282.98 215.925C282.98 215.225 282.412 214.658 281.712 214.658C281.012 214.658 280.445 215.225 280.445 215.925C280.445 216.624 281.012 217.191 281.712 217.191Z" stroke="#00BFFF" stroke-width="3" stroke-miterlimit="10" stroke-linecap="round" stroke-linejoin="round"/>
					<path id="Vector_69" d="M296.239 217.191C296.94 217.191 297.507 216.624 297.507 215.925C297.507 215.225 296.94 214.658 296.239 214.658C295.539 214.658 294.972 215.225 294.972 215.925C294.972 216.624 295.539 217.191 296.239 217.191Z" stroke="#00BFFF" stroke-width="3" stroke-miterlimit="10" stroke-linecap="round" stroke-linejoin="round"/>
					<path id="Vector_70" d="M287.528 222.22H291.356C293.145 222.22 294.599 223.672 294.599 225.461C294.599 227.249 293.145 228.701 291.356 228.701H287.528" stroke="#00BFFF" stroke-width="3" stroke-miterlimit="10" stroke-linecap="round" stroke-linejoin="round"/>
					<path id="Vector_71" d="M275.461 237.939H266.464" stroke="#00BFFF" stroke-width="3" stroke-miterlimit="10" stroke-linecap="round" stroke-linejoin="round"/>
					<path id="Vector_72" d="M255.59 228.999C251.054 228.999 247.375 225.324 247.375 220.792C247.375 216.259 251.054 212.584 255.59 212.584" stroke="#00BFFF" stroke-width="3" stroke-miterlimit="10" stroke-linecap="round" stroke-linejoin="round"/>
				</g>
				<path id="Vector_73" d="M686.233 407.715V449.808" stroke="#00BFFF" stroke-width="3" stroke-miterlimit="10" stroke-linecap="round" stroke-linejoin="round"/>
				<path id="Vector_74" d="M1230.59 706.103H1386.47" stroke="#00BFFF" stroke-width="3" stroke-miterlimit="10" stroke-linecap="round" stroke-linejoin="round"/>
			</g>
			<g id="speech-bubble">
				<path id="Vector_75" d="M626.358 148.464H441.303C418.015 148.464 399.138 129.603 399.138 106.334V44.138C399.138 20.8689 418.015 2.00781 441.303 2.00781H626.358C649.647 2.00781 668.524 20.8689 668.524 44.138V106.334C668.524 129.603 649.647 148.464 626.358 148.464Z" fill="#D7F7FF" stroke="#00BFFF" stroke-width="3" stroke-miterlimit="10" stroke-linecap="round" stroke-linejoin="round"/>
				<g id="Group_5">
					<path id="Vector_76" d="M440.11 45.293H440.172C440.11 44.5852 440.11 43.803 440.11 43.0331V28.1826H442.869V49.2664H439.626L433.014 34.093C432.505 32.9383 432.057 31.5972 432.057 31.5972H431.97C432.033 32.156 432.033 32.7893 432.033 33.4101V49.2664H429.274V28.1826H432.902L439.116 42.524C439.663 43.8651 439.998 44.846 440.11 45.293Z" fill="#00BFFF"/>
					<path id="Vector_77" d="M446.349 41.8413C446.349 37.1229 449.108 34.0684 453.271 34.0684C457.434 34.0684 460.193 37.1229 460.193 41.8413C460.193 46.5596 457.434 49.6142 453.271 49.6142C449.12 49.6266 446.349 46.51 446.349 41.8413ZM457.521 41.8413C457.521 38.3646 455.943 36.2537 453.271 36.2537C450.599 36.2537 449.021 38.3273 449.021 41.8413C449.021 45.3552 450.599 47.4288 453.271 47.4288C455.943 47.4288 457.521 45.3428 457.521 41.8413Z" fill="#00BFFF"/>
					<path id="Vector_78" d="M464.741 34.4287L466.257 44.6105L466.556 46.7214H466.767C466.891 46.0384 466.978 45.5666 467.239 44.2256L469.165 34.4287H471.75L473.677 44.2256C473.95 45.5666 474.037 46.0384 474.149 46.7214H474.36L474.658 44.6105L476.174 34.4287H478.821L475.938 49.2792H472.757L470.831 39.6934C470.706 39.0974 470.595 37.8557 470.557 37.2597H470.346C470.321 37.8557 470.197 39.0974 470.085 39.6934L468.159 49.2792H464.977L462.094 34.4287H464.741Z" fill="#00BFFF"/>
					<path id="Vector_79" d="M499.388 47.1929H504.148V36.502H499.836V34.4284H506.671V47.1929H511.691V49.2665H499.388V47.1929ZM506.932 31.4484H503.365V27.8848H506.932V31.4484Z" fill="#00BFFF"/>
					<path id="Vector_80" d="M515.494 34.4289H519.744V30.5425L522.267 29.4746V34.4289H528.058V36.4777H522.267V44.1637C522.267 46.1504 523.224 47.1065 525.125 47.1065C526.107 47.1065 527.151 47.0196 528.071 46.8333V49.1552C527.3 49.3291 526.468 49.5402 525.163 49.5402C521.447 49.5402 519.757 47.4666 519.757 44.5238V36.4777H515.507V34.4289H515.494Z" fill="#00BFFF"/>
					<path id="Vector_81" d="M537.478 35.0119C539.143 34.3041 539.467 33.6212 539.467 31.9822H537.292V28.1826H541.244V31.9822C541.244 34.2668 540.535 35.4589 538.236 36.3777L537.478 35.0119Z" fill="#00BFFF"/>
					<path id="Vector_82" d="M550.427 44.6969L552.987 44.2499C553.373 46.4228 554.765 47.5403 556.964 47.5403C558.953 47.5403 560.059 46.7084 560.059 45.3177C560.059 43.8277 559.288 43.182 557.685 42.9958L555.274 42.7226C552.329 42.3998 550.937 40.7359 550.937 38.4512C550.937 35.7444 553.074 34.0557 556.579 34.0557C559.972 34.0557 562.258 35.8313 562.581 38.563L560.083 39.1217C559.76 37.3461 558.542 36.092 556.517 36.092C554.553 36.092 553.398 36.8991 553.398 38.3146C553.398 39.5936 554.23 40.3634 556.069 40.5745L558.443 40.8353C561.388 41.1581 562.544 42.7102 562.544 45.057C562.544 47.8756 560.469 49.6015 556.84 49.6015C553.311 49.6263 550.974 47.8756 550.427 44.6969Z" fill="#00BFFF"/>
					<path id="Vector_83" d="M584.304 34.4289H588.554V30.5425L591.077 29.4746V34.4289H596.868V36.4777H591.077V44.1637C591.077 46.1504 592.034 47.1065 593.935 47.1065C594.917 47.1065 595.961 47.0196 596.881 46.8333V49.1552C596.11 49.3291 595.278 49.5402 593.973 49.5402C590.257 49.5402 588.567 47.4666 588.567 44.5238V36.4777H584.317V34.4289H584.304Z" fill="#00BFFF"/>
					<path id="Vector_84" d="M602.609 47.1929H607.369V36.502H603.057V34.4284H609.892V47.1929H614.913V49.2665H602.609V47.1929ZM610.153 31.4484H606.586V27.8848H610.153V31.4484Z" fill="#00BFFF"/>
					<path id="Vector_85" d="M623.052 34.0684C624.506 34.0684 625.637 35.0493 626.147 36.7752C626.855 35.0493 628.197 34.0684 629.651 34.0684C631.491 34.0684 633.156 35.3473 633.156 38.4887V49.2665H630.633V38.6998C630.633 36.8 629.738 36.291 628.881 36.291C627.129 36.291 626.507 37.5699 626.507 39.4448V49.2665H624.047V38.6998C624.047 36.887 623.239 36.291 622.294 36.291C620.567 36.291 619.983 37.6568 619.983 39.4448V49.2665H617.46V34.416H619.834V36.7007C620.406 35.1114 621.561 34.0684 623.052 34.0684Z" fill="#00BFFF"/>
					<path id="Vector_86" d="M648.69 42.4991H638.263C638.263 45.2929 639.867 47.3913 642.625 47.3913C644.589 47.3913 645.807 46.1745 646.552 44.7465L648.69 45.8765C647.447 48.335 645.422 49.614 642.625 49.614C637.965 49.614 635.679 46.4104 635.679 41.543C635.679 36.9985 638.288 34.0557 642.451 34.0557C647 34.0557 648.752 37.3213 648.752 41.3568C648.752 41.7293 648.727 42.1142 648.69 42.4991ZM642.327 36.03C639.618 36.03 638.251 38.2526 638.251 40.4255H646.13C646.192 38.0415 645.011 36.03 642.327 36.03Z" fill="#00BFFF"/>
				</g>
				<g id="Group_6">
					<path id="Vector_87" d="M429.473 70.052H433.723V66.1655L436.246 65.0977V70.052H442.037V72.1008H436.246V79.7867C436.246 81.7734 437.202 82.7295 439.104 82.7295C440.086 82.7295 441.129 82.6426 442.049 82.4564V84.7783C441.279 84.9521 440.446 85.1632 439.141 85.1632C435.425 85.1632 433.735 83.0896 433.735 80.1468V72.1008H429.485V70.052H429.473Z" fill="#00BFFF"/>
					<path id="Vector_88" d="M446.349 77.4653C446.349 72.7469 449.108 69.6924 453.271 69.6924C457.434 69.6924 460.193 72.7469 460.193 77.4653C460.193 82.1837 457.434 85.2382 453.271 85.2382C449.12 85.2506 446.349 82.134 446.349 77.4653ZM457.521 77.4653C457.521 73.9886 455.943 71.8777 453.271 71.8777C450.599 71.8777 449.021 73.9513 449.021 77.4653C449.021 80.9793 450.599 83.0529 453.271 83.0529C455.943 83.0529 457.521 80.9668 457.521 77.4653Z" fill="#00BFFF"/>
					<path id="Vector_89" d="M481.618 80.3209L484.178 79.8739C484.563 82.0468 485.955 83.1643 488.154 83.1643C490.143 83.1643 491.249 82.3324 491.249 80.9417C491.249 79.4517 490.478 78.8061 488.875 78.6198L486.464 78.3466C483.519 78.0238 482.127 76.3599 482.127 74.0752C482.127 71.3684 484.265 69.6797 487.769 69.6797C491.162 69.6797 493.448 71.4553 493.771 74.187L491.274 74.7457C490.95 72.9701 489.733 71.716 487.707 71.716C485.743 71.716 484.588 72.5231 484.588 73.9387C484.588 75.2176 485.42 75.9874 487.26 76.1985L489.633 76.4593C492.578 76.7821 493.734 78.3342 493.734 80.681C493.734 83.4996 491.659 85.2255 488.03 85.2255C484.501 85.2504 482.152 83.4996 481.618 80.3209Z" fill="#00BFFF"/>
					<path id="Vector_90" d="M511.07 78.1231H500.644C500.644 80.9169 502.247 83.0153 505.006 83.0153C506.969 83.0153 508.187 81.7985 508.933 80.3706L511.07 81.5005C509.827 83.959 507.802 85.2379 505.006 85.2379C500.345 85.2379 498.046 82.0344 498.046 77.167C498.046 72.6225 500.656 69.6797 504.819 69.6797C509.368 69.6797 511.12 72.9453 511.12 76.9808C511.12 77.3533 511.095 77.7382 511.07 78.1231ZM504.707 71.654C501.998 71.654 500.631 73.8766 500.631 76.0495H508.51C508.572 73.6655 507.379 71.654 504.707 71.654Z" fill="#00BFFF"/>
					<path id="Vector_91" d="M528.27 78.1231H517.843C517.843 80.9169 519.446 83.0153 522.205 83.0153C524.169 83.0153 525.387 81.7985 526.132 80.3706L528.27 81.5005C527.027 83.959 525.001 85.2379 522.205 85.2379C517.545 85.2379 515.258 82.0344 515.258 77.167C515.258 72.6225 517.868 69.6797 522.031 69.6797C526.58 69.6797 528.332 72.9453 528.332 76.9808C528.332 77.3533 528.295 77.7382 528.27 78.1231ZM521.907 71.654C519.198 71.654 517.831 73.8766 517.831 76.0495H525.71C525.772 73.6655 524.579 71.654 521.907 71.654Z" fill="#00BFFF"/>
					<path id="Vector_92" d="M556.728 81.9478L560.854 70.04H563.563L557.623 85.8342C556.256 89.6089 554.479 90.8506 551.981 90.8506C551.534 90.8506 551.086 90.8258 550.614 90.7264V88.5038C550.999 88.5287 551.36 88.5659 551.683 88.5659C553.497 88.5659 554.417 87.7588 555.1 85.8094L555.485 84.7167L549.694 70.0524H552.553L556.728 81.9478Z" fill="#00BFFF"/>
					<path id="Vector_93" d="M566.769 77.4653C566.769 72.7469 569.528 69.6924 573.691 69.6924C577.854 69.6924 580.613 72.7469 580.613 77.4653C580.613 82.1837 577.854 85.2382 573.691 85.2382C569.541 85.2506 566.769 82.134 566.769 77.4653ZM577.954 77.4653C577.954 73.9886 576.376 71.8777 573.704 71.8777C571.032 71.8777 569.454 73.9513 569.454 77.4653C569.454 80.9793 571.032 83.0529 573.704 83.0529C576.376 83.0529 577.954 80.9668 577.954 77.4653Z" fill="#00BFFF"/>
					<path id="Vector_94" d="M589.859 85.25C588.492 85.25 587.1 84.9271 586.057 83.9462C585.1 83.0273 584.689 81.6367 584.689 79.2278V70.0518H587.274V79.1409C587.274 82.3817 588.815 83.0894 590.369 83.0894C593.488 83.0894 594.234 79.9728 594.234 77.7999V70.0518H596.756V84.9023H594.383V82.0837C593.811 83.5488 592.059 85.25 589.859 85.25Z" fill="#00BFFF"/>
					<path id="Vector_95" d="M612.092 69.7539C613.16 69.7539 614.142 69.8781 614.764 70.0519V72.3987C614.167 72.2497 613.074 72.1007 612.005 72.1007C608.438 72.1007 605.592 74.5344 605.592 79.3769V84.9024H603.07V70.0519H605.567V73.9135C606.562 71.5668 608.997 69.7539 612.092 69.7539Z" fill="#00BFFF"/>
				</g>
				<g id="Group_7">
					<path id="Vector_96" d="M437.202 105.316C438.42 105.316 439.787 105.639 440.794 106.595C441.776 107.514 442.223 108.942 442.223 111.351V120.527H439.7V111.5C439.7 108.259 438.097 107.551 436.606 107.551C433.251 107.551 432.443 110.668 432.443 112.779V120.527H429.92V105.676H432.294V108.619C433.077 106.744 434.705 105.316 437.202 105.316Z" fill="#00BFFF"/>
					<path id="Vector_97" d="M459.46 113.747H449.033C449.033 116.541 450.636 118.639 453.395 118.639C455.359 118.639 456.576 117.423 457.322 115.995L459.46 117.125C458.217 119.583 456.191 120.862 453.395 120.862C448.735 120.862 446.436 117.658 446.436 112.791C446.436 108.246 449.046 105.304 453.209 105.304C457.757 105.304 459.509 108.569 459.509 112.605C459.509 112.977 459.484 113.362 459.46 113.747ZM453.097 107.278C450.388 107.278 449.021 109.501 449.021 111.674H456.9C456.962 109.29 455.769 107.278 453.097 107.278Z" fill="#00BFFF"/>
					<path id="Vector_98" d="M464.741 105.677L466.257 115.859L466.556 117.969H466.767C466.891 117.286 466.978 116.815 467.239 115.474L469.165 105.677H471.75L473.677 115.474C473.95 116.815 474.037 117.286 474.149 117.969H474.36L474.658 115.859L476.174 105.677H478.821L475.938 120.527H472.757L470.831 110.941C470.706 110.345 470.595 109.104 470.557 108.508H470.346C470.321 109.104 470.197 110.345 470.085 110.941L468.159 120.527H464.977L462.094 105.677H464.741Z" fill="#00BFFF"/>
					<path id="Vector_99" d="M505.925 105.316C507.118 105.316 508.535 105.639 509.579 106.62C510.536 107.539 511.033 108.942 511.033 111.338V120.514H508.51V111.487C508.51 108.247 506.87 107.539 505.304 107.539C502.06 107.539 501.265 110.655 501.265 112.766V120.514H498.742V98.9961H501.265V108.383C501.949 106.595 503.788 105.316 505.925 105.316Z" fill="#00BFFF"/>
					<path id="Vector_100" d="M515.171 113.089C515.171 108.371 517.93 105.316 522.093 105.316C526.256 105.316 529.015 108.371 529.015 113.089C529.015 117.808 526.256 120.862 522.093 120.862C517.93 120.875 515.171 117.758 515.171 113.089ZM526.343 113.089C526.343 109.613 524.765 107.502 522.093 107.502C519.421 107.502 517.843 109.575 517.843 113.089C517.843 116.603 519.421 118.677 522.093 118.677C524.765 118.677 526.343 116.591 526.343 113.089Z" fill="#00BFFF"/>
					<path id="Vector_101" d="M537.031 105.316C538.485 105.316 539.616 106.297 540.125 108.023C540.834 106.297 542.176 105.316 543.63 105.316C545.469 105.316 547.134 106.595 547.134 109.737V120.515H544.611V109.948C544.611 108.048 543.717 107.539 542.859 107.539C541.107 107.539 540.486 108.818 540.486 110.693V120.515H538.025V109.948C538.025 108.135 537.217 107.539 536.273 107.539C534.545 107.539 533.961 108.905 533.961 110.693V120.515H531.438V105.664H533.812V107.949C534.384 106.359 535.552 105.316 537.031 105.316Z" fill="#00BFFF"/>
					<path id="Vector_102" d="M562.681 113.747H552.254C552.254 116.541 553.857 118.639 556.616 118.639C558.58 118.639 559.798 117.423 560.543 115.995L562.681 117.125C561.438 119.583 559.412 120.862 556.616 120.862C551.956 120.862 549.669 117.658 549.669 112.791C549.669 108.246 552.279 105.304 556.442 105.304C560.991 105.304 562.743 108.569 562.743 112.605C562.73 112.977 562.706 113.362 562.681 113.747ZM556.318 107.278C553.609 107.278 552.242 109.501 552.242 111.674H560.121C560.183 109.29 558.99 107.278 556.318 107.278Z" fill="#00BFFF"/>
					<path id="Vector_103" d="M575.655 120.514H571.703V116.715H575.655V120.514Z" fill="#00BFFF"/>
				</g>
			</g>
		</g>
	</svg>
