<svg width="1849" height="1004" viewBox="0 0 1849 1004" fill="none" xmlns="http://www.w3.org/2000/svg">
<g id="end_page_4">
<g id="comp">
<path id="Vector" d="M160.211 293.919H154.61C152.663 293.919 150.958 295.502 150.958 297.571C150.958 299.641 152.541 301.224 154.61 301.224H160.211M213.168 272.246C220.716 272.246 226.803 278.334 226.803 285.883C226.803 293.432 220.716 299.519 213.168 299.519M276.96 496.155V437.713M324.926 495.425V441.122C324.926 407.395 297.656 380.122 263.934 380.122H215.481M276.96 471.439H324.195M164.715 380.122L177.011 333.611M222.176 380C216.576 394.246 202.698 404.351 186.506 404.351C170.193 404.351 156.315 394.246 150.836 379.878M181.759 239.737C178.472 235.354 176.159 229.875 176.037 225.37C175.793 219.526 184.193 217.943 186.263 223.3V223.422C187.724 227.562 189.672 237.424 202.211 242.051L201.602 241.929C220.472 248.017 234.107 265.671 234.107 286.492C234.107 312.304 213.168 333.246 187.359 333.246C161.55 333.246 140.61 312.304 140.61 286.492C140.61 268.472 149.741 253.617 162.889 247.043M171.532 242.051C168.245 237.667 165.932 230.971 165.811 226.588C165.567 220.743 173.967 219.16 176.037 224.518M162.402 246.556C159.115 242.172 156.802 235.476 156.68 231.093C156.437 225.248 163.741 223.665 165.811 229.023M160.332 266.402C160.332 259.462 163.254 253.861 166.906 253.861C170.559 253.861 173.48 259.462 173.48 266.402M138.906 266.402C138.906 259.462 141.828 253.861 145.48 253.861C149.132 253.861 152.054 259.462 152.054 266.402M55.8785 271.516H89.7225M80.2267 204.671L105.792 230.24M136.958 181.051V213.316M103.357 495.912V437.469M55.2698 495.06V440.757C55.2698 407.03 82.5398 379.757 116.262 379.757H164.837M103.357 471.195H56.122M214.507 379.391L202.211 333.002M303.743 497.738H77.5485C54.7829 497.738 36.2783 479.231 36.2783 456.463V206.863C36.2783 184.095 54.7829 165.588 77.5485 165.588H303.743C326.508 165.588 345.013 184.095 345.013 206.863V456.463C345.013 479.231 326.508 497.738 303.743 497.738ZM189.307 315.226C186.993 315.226 185.167 313.4 185.167 311.086C185.167 308.773 186.993 306.947 189.307 306.947C191.62 306.947 193.446 308.773 193.446 311.086C193.324 313.4 191.498 315.226 189.307 315.226ZM152.663 279.795C152.663 282.216 151.627 284.178 150.349 284.178C149.072 284.178 148.036 282.216 148.036 279.795C148.036 277.374 149.072 275.412 150.349 275.412C151.627 275.412 152.663 277.374 152.663 279.795ZM167.15 280.16C167.15 282.581 166.114 284.543 164.837 284.543C163.559 284.543 162.524 282.581 162.524 280.16C162.524 277.74 163.559 275.777 164.837 275.777C166.114 275.777 167.15 277.74 167.15 280.16Z" stroke="#00BFFF" stroke-width="3" stroke-miterlimit="10" stroke-linecap="round"/>
<path id="Vector_2" d="M833.195 707.037H1798.6V142.089H833.195V707.037ZM833.195 707.037L354.145 875.669M895.891 181.66V668.684M1797.99 707.646H1822.34V141.48H1797.99V707.646ZM1797.99 707.646L1331.6 875.669H354.145M1797.99 707.646V751.843L1335.38 932.651M354.145 875.669V932.651H1335.38M1335.38 932.651V875.669M854.012 839.264H1021.28M945.562 839.264L892.239 852.535M872.76 181.66H1756.6V668.684H872.76V181.66ZM815.542 852.535H989.632L1073.15 819.783H909.891L815.542 852.535ZM718.15 800.18H1344.38L1538.68 735.65H906.848L718.15 800.18Z" stroke="#00BFFF" stroke-width="3" stroke-miterlimit="10" stroke-linecap="round" stroke-linejoin="round"/>
<path id="Vector_3" d="M1756.6 181.66H895.891V668.684H1756.6V181.66Z" fill="#D7F7FF" stroke="#00BFFF" stroke-width="3" stroke-miterlimit="10" stroke-linecap="round" stroke-linejoin="round"/>
<g id="Vector_4">
<path d="M1024.94 216.969H701.105V191.4H727.523C750.289 191.4 768.793 172.893 768.793 150.125V113.842C768.793 91.0733 750.289 72.5664 727.523 72.5664H191.985C169.219 72.5664 150.715 91.0733 150.715 113.842V150.003C150.715 172.772 169.219 191.279 191.985 191.279H673.105V216.847V241.198V244.851H1024.94" fill="#D7F7FF"/>
<path d="M1024.94 216.969H701.105V191.4H727.523C750.289 191.4 768.793 172.893 768.793 150.125V113.842C768.793 91.0733 750.289 72.5664 727.523 72.5664H191.985C169.219 72.5664 150.715 91.0733 150.715 113.842V150.003C150.715 172.772 169.219 191.279 191.985 191.279H673.105V216.847V241.198V244.851H1024.94" stroke="#00BFFF" stroke-width="3" stroke-miterlimit="10" stroke-linecap="round" stroke-linejoin="round"/>
</g>
<g id="Vector_5">
<path d="M189.916 103.127H179.933V109.702H189.064V112.016H179.933V121.391H177.255V100.692H189.916V103.127Z" fill="#00BFFF"/>
<path d="M196.246 100.814V119.199H206.107V121.513H193.568V100.814H196.246Z" fill="#00BFFF"/>
<path d="M219.134 115.547H211.951L210.003 121.513H207.325L214.021 100.814H217.064L223.76 121.513H221.081L219.134 115.547ZM212.681 113.233H218.403C217.064 109.094 216.09 105.685 215.603 103.249C214.873 105.685 213.899 109.094 212.681 113.233Z" fill="#00BFFF"/>
<path d="M239.586 100.814V103.128H233.134V121.513H230.456V103.128H224.003V100.814H239.586Z" fill="#00BFFF"/>
<path d="M271.36 106.293C271.36 108.241 270.265 110.068 267.952 110.676C270.387 111.164 271.969 112.868 271.969 115.79C271.969 118.469 270.387 121.513 265.273 121.513H258.091V100.814H264.665C269.9 100.814 271.36 103.858 271.36 106.293ZM260.769 109.824H264.665C268.073 109.824 268.682 107.998 268.682 106.537C268.682 104.832 267.952 103.128 264.665 103.128H260.769V109.824ZM260.769 119.321H265.152C268.317 119.321 269.291 117.617 269.291 115.668C269.291 113.72 268.195 112.138 265.517 112.138H260.891V119.321H260.769Z" fill="#00BFFF"/>
<path d="M280.613 112.868H276.839V121.513H274.161V100.814H280.856C285.361 100.814 287.796 103.006 287.796 106.78C287.796 109.581 286.213 111.651 283.413 112.381L288.404 121.513H285.361L280.613 112.868ZM276.839 110.676H280.613C283.413 110.676 284.874 109.337 284.874 106.902C284.874 104.467 283.413 103.128 280.613 103.128H276.839V110.676Z" fill="#00BFFF"/>
<path d="M300.578 115.547H293.396L291.448 121.513H288.769L295.465 100.814H298.509L305.204 121.513H302.526L300.578 115.547ZM294.126 113.233H299.848C298.509 109.094 297.535 105.685 297.048 103.249C296.439 105.685 295.465 109.094 294.126 113.233Z" fill="#00BFFF"/>
<path d="M314.7 103.006V119.321H319.935V121.513H306.787V119.321H311.9V103.006H306.787V100.814H319.813V103.006H314.7Z" fill="#00BFFF"/>
<path d="M333.57 117.617C333.57 116.886 333.57 116.156 333.57 115.425V100.814H336.248V121.513H333.083L326.631 106.659C326.144 105.563 325.657 104.223 325.657 104.223H325.535C325.535 104.832 325.535 105.441 325.535 106.05V121.635H322.857V100.936H326.387L332.474 114.938C333.083 116.156 333.448 117.13 333.57 117.617Z" fill="#00BFFF"/>
<path d="M347.814 121.513H343.918V117.738H347.814V121.513ZM344.405 100.814H347.327L346.84 116.034H344.892L344.405 100.814Z" fill="#00BFFF"/>
<path d="M370.823 100.814H373.501L374.232 115.547C374.353 117.738 374.353 118.834 374.353 119.199H374.597C374.597 118.591 374.719 117.373 375.206 115.303L377.153 105.928H379.71L381.658 115.303C382.145 117.373 382.267 118.591 382.267 119.199H382.51C382.51 118.712 382.51 117.738 382.632 115.547L383.362 100.814H386.04L384.458 121.513H381.049L379.223 112.625C378.858 110.798 378.736 109.702 378.614 108.485H378.371C378.371 109.702 378.249 110.798 377.762 112.625L375.936 121.513H372.406L370.823 100.814Z" fill="#00BFFF"/>
<path d="M395.78 106.658C396.997 106.658 398.336 107.024 399.31 107.998C400.284 108.85 400.771 110.311 400.771 112.624V121.634H398.336V112.746C398.336 109.581 396.754 108.85 395.171 108.85C392.006 108.85 391.153 111.894 391.153 113.964V121.513H388.719V100.449H391.153V109.581C391.884 107.876 393.71 106.658 395.78 106.658Z" fill="#00BFFF"/>
<path d="M417.206 114.816H406.98C406.98 117.495 408.562 119.565 411.241 119.565C413.189 119.565 414.406 118.347 415.136 117.008L417.206 118.103C415.989 120.539 414.041 121.756 411.241 121.756C406.615 121.756 404.423 118.59 404.423 113.842C404.423 109.337 406.98 106.537 411.119 106.537C415.623 106.537 417.328 109.702 417.328 113.72C417.206 114.085 417.206 114.451 417.206 114.816ZM410.876 108.485C408.197 108.485 406.858 110.676 406.858 112.746H414.528C414.771 110.555 413.554 108.485 410.876 108.485Z" fill="#00BFFF"/>
<path d="M431.328 106.659C432.424 106.659 433.276 106.78 434.006 106.902V109.215C433.398 109.094 432.302 108.972 431.328 108.972C427.798 108.972 424.998 111.407 424.998 116.155V121.513H422.563V106.902H424.998V110.798C425.85 108.485 428.285 106.659 431.328 106.659Z" fill="#00BFFF"/>
<path d="M449.711 114.816H439.485C439.485 117.495 441.067 119.565 443.746 119.565C445.693 119.565 446.911 118.347 447.641 117.008L449.711 118.103C448.493 120.539 446.546 121.756 443.746 121.756C439.119 121.756 436.928 118.59 436.928 113.842C436.928 109.337 439.485 106.537 443.624 106.537C448.128 106.537 449.833 109.702 449.833 113.72C449.833 114.085 449.833 114.451 449.711 114.816ZM443.502 108.485C440.824 108.485 439.485 110.676 439.485 112.746H447.154C447.276 110.555 446.18 108.485 443.502 108.485Z" fill="#00BFFF"/>
<path d="M482.337 121.513H479.659C479.537 120.66 479.416 119.686 479.416 118.834C478.442 120.904 476.859 121.878 474.546 121.878C471.624 121.878 469.676 120.052 469.676 117.617C469.676 116.155 470.407 114.938 471.746 114.207C472.72 113.72 474.302 113.355 476.737 112.99L479.416 112.625V112.381C479.416 109.824 478.442 108.607 476.25 108.607C474.181 108.607 472.963 109.702 472.842 111.529H470.163C470.407 108.363 472.72 106.659 476.372 106.659C480.146 106.659 481.85 108.485 481.85 112.746V116.643C481.85 118.956 481.972 120.417 482.337 121.513ZM475.885 114.938C473.329 115.303 472.355 116.034 472.355 117.495C472.355 118.956 473.329 119.93 475.033 119.93C477.711 119.93 479.294 118.104 479.294 115.303V114.451L475.885 114.938Z" fill="#00BFFF"/>
<path d="M496.459 106.659C497.555 106.659 498.407 106.78 499.138 106.902V109.215C498.529 109.094 497.433 108.972 496.459 108.972C492.929 108.972 490.129 111.407 490.129 116.155V121.513H487.694V106.902H490.129V110.798C491.103 108.485 493.538 106.659 496.459 106.659Z" fill="#00BFFF"/>
<path d="M514.964 114.816H504.738C504.738 117.495 506.32 119.565 508.999 119.565C510.946 119.565 512.164 118.347 512.894 117.008L514.964 118.103C513.746 120.539 511.799 121.756 508.999 121.756C504.372 121.756 502.181 118.59 502.181 113.842C502.181 109.337 504.738 106.537 508.877 106.537C513.381 106.537 515.086 109.702 515.086 113.72C514.964 114.085 514.964 114.451 514.964 114.816ZM508.755 108.485C506.077 108.485 504.738 110.676 504.738 112.746H512.407C512.529 110.555 511.312 108.485 508.755 108.485Z" fill="#00BFFF"/>
<path d="M541.747 118.591L545.764 106.902H548.443L542.599 122.365C541.26 126.018 539.556 127.235 537.121 127.235C536.634 127.235 536.269 127.235 535.782 127.113V124.922C536.147 124.922 536.512 124.922 536.877 124.922C538.703 124.922 539.556 124.191 540.286 122.243L540.651 121.147L534.93 106.78H537.73L541.747 118.591Z" fill="#00BFFF"/>
<path d="M550.999 114.207C550.999 109.581 553.678 106.537 557.817 106.537C561.834 106.537 564.634 109.581 564.634 114.207C564.634 118.834 561.956 121.878 557.817 121.878C553.678 121.878 550.999 118.834 550.999 114.207ZM561.956 114.207C561.956 110.798 560.373 108.728 557.817 108.728C555.139 108.728 553.678 110.798 553.678 114.207C553.678 117.616 555.26 119.686 557.817 119.686C560.373 119.686 561.956 117.616 561.956 114.207Z" fill="#00BFFF"/>
<path d="M573.034 121.878C571.695 121.878 570.356 121.513 569.26 120.539C568.286 119.686 567.921 118.225 567.921 115.912V106.902H570.478V115.79C570.478 118.956 571.939 119.686 573.521 119.686C576.565 119.686 577.295 116.643 577.295 114.451V106.902H579.73V121.513H577.417V118.712C576.93 120.173 575.226 121.878 573.034 121.878Z" fill="#00BFFF"/>
<path d="M583.991 106.171C583.991 102.641 586.426 100.327 590.565 100.327C594.461 100.327 596.896 102.275 596.896 105.806C596.896 107.876 595.556 109.581 594.217 110.92L592.756 112.381C591.904 113.233 591.539 114.207 591.539 115.668V116.155H589.104V114.938C589.104 113.964 589.226 112.868 590.808 111.285L592.269 109.824C593.243 108.85 594.217 107.754 594.217 105.806C594.217 103.858 592.635 102.519 590.565 102.519C588.252 102.519 586.669 103.736 586.669 106.537C586.669 107.024 586.669 107.754 586.791 108.12L584.113 107.754C583.991 107.389 583.991 106.537 583.991 106.171ZM592.269 121.513H588.374V117.738H592.269V121.513Z" fill="#00BFFF"/>
<path d="M608.583 121.513H604.687V117.738H608.583V121.513ZM605.174 100.814H608.096L607.609 116.034H605.661L605.174 100.814Z" fill="#00BFFF"/>
<path d="M640.722 121.513H637.922V113.233L631.226 100.814H634.27L639.383 111.042L644.496 100.814H647.54L640.722 113.233V121.513Z" fill="#00BFFF"/>
<path d="M648.757 114.207C648.757 109.581 651.435 106.537 655.575 106.537C659.592 106.537 662.392 109.581 662.392 114.207C662.392 118.834 659.714 121.878 655.575 121.878C651.557 121.878 648.757 118.834 648.757 114.207ZM659.714 114.207C659.714 110.798 658.131 108.728 655.575 108.728C653.018 108.728 651.435 110.798 651.435 114.207C651.435 117.616 653.018 119.686 655.575 119.686C658.131 119.686 659.714 117.616 659.714 114.207Z" fill="#00BFFF"/>
<path d="M670.914 121.878C669.575 121.878 668.236 121.513 667.14 120.539C666.166 119.686 665.801 118.225 665.801 115.912V106.902H668.357V115.79C668.357 118.956 669.818 119.686 671.401 119.686C674.444 119.686 675.175 116.643 675.175 114.451V106.902H677.61V121.513H675.297V118.712C674.81 120.173 672.984 121.878 670.914 121.878Z" fill="#00BFFF"/>
<path d="M692.097 106.659C693.192 106.659 694.045 106.78 694.775 106.902V109.215C694.166 109.094 693.071 108.972 692.097 108.972C688.566 108.972 685.766 111.407 685.766 116.155V121.513H683.331V106.902H685.766V110.798C686.74 108.485 689.053 106.659 692.097 106.659Z" fill="#00BFFF"/>
<path d="M176.159 153.047C176.159 148.664 178.351 145.499 182.977 145.499C186.264 145.499 188.577 147.325 188.942 150.734L186.385 150.978C186.142 148.786 184.925 147.568 182.855 147.568C180.177 147.568 178.837 149.76 178.837 152.926C178.837 156.213 180.177 158.526 182.977 158.526C185.046 158.526 186.264 157.187 186.629 154.996L188.942 155.361C188.455 158.283 186.629 160.718 182.977 160.718C178.472 160.84 176.159 157.431 176.159 153.047Z" fill="#00BFFF"/>
<path d="M192.473 153.169C192.473 148.542 195.151 145.499 199.29 145.499C203.307 145.499 206.108 148.542 206.108 153.169C206.108 157.796 203.429 160.84 199.29 160.84C195.151 160.84 192.473 157.796 192.473 153.169ZM203.429 153.169C203.429 149.76 201.847 147.69 199.29 147.69C196.733 147.69 195.151 149.76 195.151 153.169C195.151 156.578 196.733 158.648 199.29 158.648C201.847 158.648 203.429 156.578 203.429 153.169Z" fill="#00BFFF"/>
<path d="M213.29 145.62C214.751 145.62 215.847 146.594 216.334 148.299C217.064 146.594 218.282 145.62 219.742 145.62C221.569 145.62 223.151 146.838 223.151 150.004V160.596H220.716V150.247C220.716 148.421 219.864 147.934 219.012 147.934C217.308 147.934 216.699 149.151 216.699 150.978V160.596H214.264V150.247C214.264 148.421 213.534 147.934 212.56 147.934C210.855 147.934 210.247 149.273 210.247 150.978V160.596H207.812V145.986H210.125V148.177C210.734 146.594 211.829 145.62 213.29 145.62Z" fill="#00BFFF"/>
<path d="M228.386 148.664C229.116 147.081 230.942 145.62 233.012 145.62C236.786 145.62 239.099 148.786 239.099 153.169C239.099 157.674 236.786 160.84 232.89 160.84C231.064 160.84 229.238 159.744 228.629 158.161V166.197H226.195V145.986H228.508V148.664H228.386ZM232.403 158.648C234.96 158.648 236.421 156.457 236.421 153.169C236.421 149.882 235.082 147.812 232.525 147.812C230.09 147.812 228.508 149.76 228.508 152.926V153.656C228.508 156.578 229.969 158.648 232.403 158.648Z" fill="#00BFFF"/>
<path d="M254.073 160.475H251.517C251.395 159.622 251.273 158.648 251.273 157.796C250.299 159.866 248.717 160.84 246.404 160.84C243.482 160.84 241.534 159.014 241.534 156.578C241.534 155.117 242.265 153.9 243.604 153.169C244.578 152.682 246.16 152.317 248.595 151.952L251.273 151.586V151.343C251.273 148.786 250.299 147.569 248.108 147.569C246.038 147.569 244.821 148.664 244.699 150.491H242.021C242.265 147.325 244.578 145.62 248.23 145.62C252.004 145.62 253.708 147.447 253.708 151.708V155.604C253.586 157.918 253.708 159.379 254.073 160.475ZM247.621 153.9C245.065 154.265 244.091 154.996 244.091 156.457C244.091 157.918 245.065 158.892 246.769 158.892C249.447 158.892 251.03 157.065 251.03 154.265V153.413L247.621 153.9Z" fill="#00BFFF"/>
<path d="M265.517 145.62C266.734 145.62 268.073 145.986 269.047 146.838C270.021 147.69 270.386 149.151 270.386 151.465V160.475H267.952V151.586C267.952 148.421 266.369 147.69 264.908 147.69C261.621 147.69 260.891 150.734 260.891 152.804V160.353H258.456V145.742H260.769V148.664C261.499 146.96 263.082 145.62 265.517 145.62Z" fill="#00BFFF"/>
<path d="M280.978 157.552L284.995 145.864H287.674L281.83 161.327C280.491 164.98 278.787 166.197 276.352 166.197C275.865 166.197 275.5 166.197 275.013 166.075V163.884C275.378 163.884 275.743 163.884 276.108 163.884C277.935 163.884 278.787 163.153 279.517 161.205L279.882 160.109L274.161 145.742H276.961L280.978 157.552Z" fill="#00BFFF"/>
<path d="M312.509 158.405V147.934H308.248V145.864H314.944V158.405H319.813V160.475H307.761V158.405H312.509ZM315.309 143.064H311.778V139.533H315.309V143.064Z" fill="#00BFFF"/>
<path d="M323.709 155.97L326.266 155.483C326.631 157.553 327.97 158.77 330.161 158.77C332.109 158.77 333.205 157.918 333.205 156.578C333.205 155.117 332.474 154.509 330.892 154.265L328.579 154.022C325.657 153.656 324.318 152.073 324.318 149.882C324.318 147.203 326.387 145.62 329.796 145.62C333.083 145.62 335.396 147.325 335.64 150.004L333.205 150.612C332.84 148.908 331.744 147.69 329.674 147.69C327.727 147.69 326.631 148.421 326.631 149.882C326.631 151.099 327.483 151.83 329.309 152.073L331.622 152.317C334.544 152.682 335.64 154.143 335.64 156.457C335.64 159.257 333.57 160.962 330.04 160.962C326.509 160.84 324.196 159.135 323.709 155.97Z" fill="#00BFFF"/>
<path d="M356.579 145.864L358.04 155.848L358.283 157.918H358.527C358.649 157.309 358.77 156.822 359.014 155.483L360.962 145.864H363.518L365.466 155.483C365.71 156.822 365.831 157.309 365.953 157.918H366.197L366.44 155.848L367.901 145.864H370.458L367.658 160.475H364.492L362.544 151.099C362.423 150.491 362.301 149.273 362.301 148.664H362.057C362.057 149.273 361.936 150.491 361.814 151.099L359.866 160.475H356.701L353.901 145.864H356.579Z" fill="#00BFFF"/>
<path d="M384.458 160.475H381.901C381.779 159.622 381.658 158.648 381.658 157.796C380.684 159.866 379.101 160.84 376.788 160.84C373.866 160.84 371.918 159.014 371.918 156.578C371.918 155.117 372.649 153.9 373.988 153.169C374.962 152.682 376.545 152.317 378.979 151.952L381.658 151.586V151.343C381.658 148.786 380.684 147.569 378.492 147.569C376.423 147.569 375.205 148.664 375.084 150.491H372.405C372.649 147.325 374.962 145.62 378.614 145.62C382.388 145.62 384.093 147.447 384.093 151.708V155.604C383.971 157.918 384.214 159.379 384.458 160.475ZM378.127 153.9C375.571 154.265 374.597 154.996 374.597 156.457C374.597 157.918 375.571 158.892 377.275 158.892C379.953 158.892 381.536 157.065 381.536 154.265V153.413L378.127 153.9Z" fill="#00BFFF"/>
<path d="M394.075 158.405V147.934H389.814V145.864H396.51V158.405H401.38V160.475H389.327V158.405H394.075ZM396.875 143.064H393.345V139.533H396.875V143.064Z" fill="#00BFFF"/>
<path d="M404.667 145.864H408.806V142.09L411.241 140.994V145.864H416.963V147.812H411.241V155.361C411.241 157.309 412.215 158.283 414.041 158.283C415.015 158.283 415.989 158.161 416.963 158.04V160.353C416.232 160.475 415.38 160.718 414.163 160.718C410.51 160.718 408.806 158.648 408.806 155.848V147.934H404.667V145.864Z" fill="#00BFFF"/>
<path d="M426.702 158.405V147.934H422.441V145.864H429.137V158.405H434.006V160.475H421.954V158.405H426.702ZM429.38 143.064H425.85V139.533H429.38V143.064Z" fill="#00BFFF"/>
<path d="M444.841 145.62C446.059 145.62 447.398 145.986 448.372 146.838C449.346 147.69 449.711 149.151 449.711 151.465V160.475H447.276V151.586C447.276 148.421 445.693 147.69 444.233 147.69C440.946 147.69 440.215 150.734 440.215 152.804V160.353H437.78V145.742H440.093V148.664C440.824 146.96 442.406 145.62 444.841 145.62Z" fill="#00BFFF"/>
<path d="M464.076 147.081C464.928 147.934 465.415 149.151 465.415 150.491C465.415 153.413 463.224 155.483 459.937 155.483C458.963 155.483 457.989 155.239 457.259 154.874C456.65 155.117 456.285 155.604 456.285 156.335C456.285 157.187 457.015 157.796 458.72 157.796H462.494C465.537 157.796 467.242 159.257 467.242 161.814C467.242 164.858 464.563 166.562 460.059 166.562C455.92 166.562 453.485 165.101 453.485 162.91C453.485 161.327 454.459 160.231 456.041 159.622C454.824 159.135 454.215 158.283 454.215 157.065C454.215 155.726 454.946 154.752 456.285 154.265C455.311 153.413 454.824 152.195 454.824 150.734C454.824 147.812 457.015 145.742 460.181 145.742C461.276 145.742 462.128 145.986 462.981 146.351C463.468 144.646 464.685 143.672 466.511 143.672C466.876 143.672 467.12 143.672 467.485 143.794V145.986C466.998 145.986 466.755 145.864 466.389 145.864C465.172 145.742 464.441 146.107 464.076 147.081ZM458.476 159.987C457.989 159.987 457.624 159.987 457.259 159.987C456.285 160.475 455.676 161.205 455.676 162.179C455.676 163.762 457.137 164.492 460.059 164.492C463.224 164.492 464.563 163.64 464.563 162.057C464.563 160.718 463.589 159.987 461.763 159.987H458.476ZM462.981 150.491C462.981 148.786 461.763 147.447 459.937 147.447C458.111 147.447 456.894 148.786 456.894 150.491C456.894 152.317 458.111 153.534 459.815 153.534C461.763 153.534 462.981 152.195 462.981 150.491Z" fill="#00BFFF"/>
<path d="M486.111 145.864H490.25V142.09L492.685 140.994V145.864H498.407V147.812H492.685V155.361C492.685 157.309 493.659 158.283 495.485 158.283C496.459 158.283 497.433 158.161 498.407 158.04V160.353C497.677 160.475 496.824 160.718 495.607 160.718C491.955 160.718 490.25 158.648 490.25 155.848V147.934H486.111V145.864Z" fill="#00BFFF"/>
<path d="M502.181 153.169C502.181 148.542 504.859 145.499 508.999 145.499C513.016 145.499 515.816 148.542 515.816 153.169C515.816 157.796 513.138 160.84 508.999 160.84C504.859 160.84 502.181 157.796 502.181 153.169ZM513.016 153.169C513.016 149.76 511.433 147.69 508.877 147.69C506.199 147.69 504.738 149.76 504.738 153.169C504.738 156.578 506.32 158.648 508.877 158.648C511.555 158.648 513.016 156.578 513.016 153.169Z" fill="#00BFFF"/>
<path d="M539.312 145.62C540.773 145.62 541.869 146.594 542.356 148.299C543.086 146.594 544.303 145.62 545.764 145.62C547.59 145.62 549.173 146.838 549.173 150.004V160.596H546.738V150.247C546.738 148.421 545.886 147.934 545.034 147.934C543.33 147.934 542.721 149.151 542.721 150.978V160.596H540.286V150.247C540.286 148.421 539.556 147.934 538.582 147.934C536.877 147.934 536.269 149.273 536.269 150.978V160.596H533.834V145.986H536.147V148.177C536.756 146.594 537.851 145.62 539.312 145.62Z" fill="#00BFFF"/>
<path d="M563.904 153.778H553.678C553.678 156.457 555.26 158.526 557.938 158.526C559.886 158.526 561.104 157.309 561.834 155.97L563.904 157.065C562.686 159.5 560.738 160.718 557.938 160.718C553.312 160.718 551.121 157.552 551.121 152.804C551.121 148.299 553.678 145.499 557.817 145.499C562.321 145.499 564.025 148.664 564.025 152.682C563.904 153.047 563.904 153.413 563.904 153.778ZM557.573 147.447C554.895 147.447 553.556 149.638 553.556 151.708H561.225C561.469 149.516 560.252 147.447 557.573 147.447Z" fill="#00BFFF"/>
<path d="M580.095 153.778H569.869C569.869 156.457 571.452 158.526 574.13 158.526C576.078 158.526 577.295 157.309 578.026 155.97L580.095 157.065C578.878 159.5 576.93 160.718 574.13 160.718C569.504 160.718 567.312 157.552 567.312 152.804C567.312 148.299 569.869 145.499 574.008 145.499C578.513 145.499 580.217 148.664 580.217 152.682C580.217 153.047 580.217 153.413 580.095 153.778ZM573.886 147.447C571.208 147.447 569.869 149.638 569.869 151.708H577.539C577.66 149.516 576.565 147.447 573.886 147.447Z" fill="#00BFFF"/>
<path d="M583.991 145.864H588.13V142.09L590.565 140.994V145.864H596.287V147.812H590.565V155.361C590.565 157.309 591.539 158.283 593.365 158.283C594.339 158.283 595.313 158.161 596.287 158.04V160.353C595.556 160.475 594.704 160.718 593.487 160.718C589.835 160.718 588.13 158.648 588.13 155.848V147.934H583.991V145.864Z" fill="#00BFFF"/>
<path d="M623.191 157.552L627.209 145.864H629.887L624.044 161.327C622.704 164.98 621 166.197 618.565 166.197C618.078 166.197 617.713 166.197 617.226 166.075V163.884C617.591 163.884 617.957 163.884 618.322 163.884C620.148 163.884 621 163.153 621.731 161.205L622.096 160.109L616.374 145.742H619.174L623.191 157.552Z" fill="#00BFFF"/>
<path d="M632.566 153.169C632.566 148.542 635.244 145.499 639.383 145.499C643.401 145.499 646.201 148.542 646.201 153.169C646.201 157.796 643.522 160.84 639.383 160.84C635.244 160.84 632.566 157.796 632.566 153.169ZM643.522 153.169C643.522 149.76 641.94 147.69 639.383 147.69C636.827 147.69 635.244 149.76 635.244 153.169C635.244 156.578 636.827 158.648 639.383 158.648C641.94 158.648 643.522 156.578 643.522 153.169Z" fill="#00BFFF"/>
<path d="M654.601 160.84C653.262 160.84 651.922 160.475 650.827 159.501C649.853 158.648 649.488 157.187 649.488 154.874V145.864H652.044V154.752C652.044 157.918 653.505 158.648 655.088 158.648C658.131 158.648 658.862 155.604 658.862 153.413V145.864H661.296V160.475H658.983V157.674C658.496 159.135 656.792 160.84 654.601 160.84Z" fill="#00BFFF"/>
<path d="M673.836 160.475H669.94V156.7H673.836V160.475Z" fill="#00BFFF"/>
</g>
<path id=" button-hole" d="M1026.15 328.376H1623.9C1642.53 328.376 1646.55 343.839 1646.55 356.38V515.028C1646.55 527.569 1636.44 537.675 1623.9 542.058H1027.01C1014.47 537.675 1004.36 527.447 1004.36 515.028V355.528C1004.36 343.352 1008.75 328.376 1026.15 328.376Z" fill="white" stroke="#FF931E" stroke-width="3" stroke-miterlimit="10" stroke-linecap="round" stroke-linejoin="round"/>
</g>
<g id="back-button">
<path id="Vector_6" d="M1026.64 328H1623.54C1640.22 328 1646.18 343.463 1646.18 356.004V515.139C1646.18 527.68 1636.08 537.786 1623.54 542.169H1026.64C1014.1 537.786 1004 527.558 1004 515.139V355.882C1004 343.463 1009.11 328 1026.64 328Z" fill="#FF931E"/>
<g id="Vector_7">
<path d="M1063.9 424.918C1060.49 424.918 1057.93 424.066 1056.11 422.239C1054.28 420.413 1053.43 417.856 1053.43 414.447V379.381C1053.43 375.972 1054.28 373.415 1056.11 371.589C1057.93 369.762 1060.49 368.91 1063.9 368.91H1126.71C1130 368.91 1132.44 369.762 1134.26 371.589C1136.09 373.415 1136.94 375.85 1136.94 379.138V382.912C1136.94 386.199 1136.09 388.635 1134.26 390.461C1132.56 392.166 1130 393.14 1126.71 393.14H1107.48V397.645H1126.35C1129.76 397.645 1132.31 398.497 1134.14 400.323C1135.97 402.15 1136.82 404.706 1136.82 408.116V414.569C1136.82 417.978 1135.97 420.535 1134.14 422.361C1132.31 424.187 1129.76 425.04 1126.35 425.04H1063.9V424.918ZM1096.04 389.73C1097.25 389.73 1098.11 389.365 1098.71 388.756C1099.32 388.148 1099.69 387.295 1099.69 386.078V381.208C1099.69 380.112 1099.32 379.138 1098.71 378.529C1098.11 377.92 1097.13 377.555 1096.04 377.555H1090.68V389.73H1096.04ZM1096.04 416.395C1097.25 416.395 1098.11 416.03 1098.71 415.421C1099.32 414.812 1099.69 413.838 1099.69 412.742V404.95C1099.69 403.732 1099.32 402.88 1098.71 402.271C1098.11 401.662 1097.13 401.297 1096.04 401.297H1090.68V416.395H1096.04Z" fill="white"/>
<path d="M1142.18 379.503C1142.18 376.094 1143.03 373.537 1144.85 371.71C1146.68 369.884 1149.24 369.032 1152.65 369.032H1215.1C1218.51 369.032 1221.06 369.884 1222.89 371.71C1224.72 373.537 1225.57 376.094 1225.57 379.503V414.569C1225.57 417.978 1224.72 420.535 1222.89 422.361C1221.06 424.187 1218.51 425.04 1215.1 425.04H1198.91C1195.5 425.04 1192.94 424.187 1191.12 422.361C1189.29 420.535 1188.44 417.978 1188.44 414.569V401.419H1179.43V414.569C1179.43 417.978 1178.58 420.535 1176.75 422.361C1174.92 424.187 1172.37 425.04 1168.96 425.04H1152.77C1149.36 425.04 1146.8 424.187 1144.98 422.361C1143.15 420.535 1142.3 417.978 1142.3 414.569V379.503H1142.18ZM1179.31 392.287H1188.32V381.816C1188.32 380.72 1187.95 379.746 1187.34 379.138C1186.73 378.529 1185.76 378.164 1184.66 378.164H1182.96C1181.74 378.164 1180.89 378.529 1180.28 379.138C1179.67 379.746 1179.31 380.72 1179.31 381.816V392.287Z" fill="white"/>
<path d="M1230.8 379.503C1230.8 376.094 1231.66 373.537 1233.48 371.71C1235.31 369.884 1237.86 369.032 1241.27 369.032H1299.22C1300.8 369.032 1302.02 369.397 1303 370.249C1303.85 370.98 1304.33 372.197 1304.33 373.659C1304.33 375.12 1303.85 376.337 1303 377.068C1302.14 377.798 1300.93 378.285 1299.22 378.285H1268.06V416.03H1299.22C1300.8 416.03 1302.02 416.395 1303 417.247C1303.85 417.978 1304.33 419.195 1304.33 420.656C1304.33 422.117 1303.85 423.213 1303 424.066C1302.14 424.918 1300.93 425.283 1299.22 425.283H1241.27C1237.86 425.283 1235.31 424.431 1233.48 422.604C1231.66 420.778 1230.8 418.221 1230.8 414.812V379.503Z" fill="white"/>
<path d="M1320.28 424.918C1316.87 424.918 1314.32 424.066 1312.49 422.239C1310.67 420.413 1309.81 417.856 1309.81 414.447V379.381C1309.81 375.972 1310.67 373.415 1312.49 371.589C1314.32 369.762 1316.87 368.91 1320.28 368.91H1336.6C1340 368.91 1342.56 369.762 1344.27 371.589C1346.09 373.415 1346.94 375.972 1346.94 379.381V386.078C1346.94 387.174 1347.31 388.026 1347.92 388.756C1348.53 389.365 1349.5 389.73 1350.6 389.73H1352.3C1353.4 389.73 1354.25 389.365 1354.98 388.756C1355.71 388.148 1355.95 387.295 1355.95 386.078V379.381C1355.95 375.972 1356.8 373.415 1358.63 371.589C1360.46 369.762 1363.01 368.91 1366.42 368.91H1383.59C1386.63 368.91 1388.94 369.762 1390.65 371.589C1392.35 373.415 1393.08 375.85 1393.08 379.016V384.008C1393.08 386.808 1392.23 389 1390.41 390.583C1388.7 392.166 1386.39 393.018 1383.59 393.018H1363.74V397.523H1383.59C1386.63 397.523 1389.07 398.375 1390.65 399.958C1392.23 401.541 1393.08 403.976 1393.08 407.142V414.447C1393.08 417.856 1392.23 420.413 1390.41 422.239C1388.58 424.066 1386.02 424.918 1382.74 424.918H1366.42C1363.01 424.918 1360.46 424.066 1358.63 422.239C1356.8 420.413 1355.95 417.856 1355.95 414.447V404.95C1355.95 403.732 1355.59 402.88 1354.98 402.271C1354.37 401.663 1353.52 401.297 1352.3 401.297H1350.6C1349.5 401.297 1348.53 401.663 1347.92 402.271C1347.31 402.88 1346.94 403.854 1346.94 404.95V414.447C1346.94 417.856 1346.09 420.413 1344.27 422.239C1342.44 424.066 1339.88 424.918 1336.6 424.918H1320.28Z" fill="white"/>
<path d="M1427.29 373.537C1427.29 372.076 1427.78 370.858 1428.63 370.128C1429.48 369.397 1430.7 368.91 1432.41 368.91H1503.99C1505.57 368.91 1506.79 369.275 1507.76 370.128C1508.74 370.98 1509.1 372.076 1509.1 373.537C1509.1 374.998 1508.62 376.216 1507.76 376.946C1506.91 377.677 1505.69 378.164 1503.99 378.164H1486.82V414.569C1486.82 417.978 1485.97 420.535 1484.15 422.361C1482.32 424.187 1479.76 425.04 1476.35 425.04H1460.16C1456.75 425.04 1454.2 424.187 1452.37 422.361C1450.55 420.535 1449.69 417.978 1449.69 414.569V378.164H1432.53C1430.95 378.164 1429.73 377.798 1428.75 376.946C1427.78 376.216 1427.29 374.998 1427.29 373.537Z" fill="white"/>
<path d="M1514.09 379.99C1514.09 376.459 1515.07 373.659 1516.89 371.832C1518.84 370.006 1521.52 369.032 1525.05 369.032H1586.53C1590.06 369.032 1592.86 370.006 1594.69 371.832C1596.51 373.659 1597.49 376.459 1597.49 379.99V414.082C1597.49 417.612 1596.51 420.413 1594.69 422.239C1592.86 424.066 1590.06 425.04 1586.53 425.04H1525.05C1521.52 425.04 1518.84 424.066 1516.89 422.239C1514.95 420.413 1514.09 417.612 1514.09 414.082V379.99ZM1551.35 412.133C1551.35 413.229 1551.71 414.203 1552.32 414.812C1552.93 415.421 1553.9 415.786 1555 415.786H1556.7C1557.92 415.786 1558.77 415.421 1559.38 414.812C1559.99 414.203 1560.36 413.229 1560.36 412.133V381.694C1560.36 380.599 1559.99 379.625 1559.38 379.016C1558.77 378.407 1557.8 378.042 1556.7 378.042H1555C1553.78 378.042 1552.93 378.407 1552.32 379.016C1551.71 379.625 1551.35 380.599 1551.35 381.694V412.133Z" fill="white"/>
<path d="M1055.13 448.173C1055.13 445.616 1055.86 443.547 1057.2 442.207C1058.54 440.868 1060.61 440.137 1063.17 440.137H1096.16C1097.38 440.137 1098.35 440.381 1098.96 440.99C1099.57 441.598 1099.93 442.329 1099.93 443.425C1099.93 444.399 1099.57 445.251 1098.96 445.86C1098.35 446.469 1097.38 446.712 1096.16 446.712H1078.63V464.732H1096.16C1097.38 464.732 1098.35 464.976 1098.96 465.584C1099.57 466.193 1099.93 466.924 1099.93 468.02C1099.93 469.115 1099.57 469.846 1098.96 470.455C1098.35 471.063 1097.38 471.307 1096.16 471.307H1078.63V488.231C1078.63 490.788 1077.9 492.858 1076.56 494.197C1075.22 495.536 1073.27 496.267 1070.59 496.267H1063.04C1060.49 496.267 1058.54 495.536 1057.08 494.197C1055.74 492.858 1055.01 490.91 1055.01 488.231V448.173H1055.13Z" fill="white"/>
<path d="M1104.07 448.052C1104.07 445.495 1104.8 443.547 1106.14 442.086C1107.48 440.746 1109.55 440.016 1112.11 440.016H1119.65C1122.21 440.016 1124.28 440.746 1125.62 442.086C1126.96 443.425 1127.69 445.495 1127.69 448.052V489.449H1145.22C1146.44 489.449 1147.41 489.692 1148.02 490.301C1148.63 490.91 1148.99 491.762 1148.99 492.736C1148.99 493.71 1148.63 494.562 1148.02 495.049C1147.41 495.658 1146.44 495.902 1145.22 495.902H1112.23C1109.67 495.902 1107.72 495.171 1106.26 493.832C1104.92 492.493 1104.19 490.544 1104.19 487.866V448.052H1104.07Z" fill="white"/>
<path d="M1153.13 448.173C1153.13 445.616 1153.86 443.547 1155.2 442.207C1156.54 440.868 1158.61 440.137 1161.17 440.137H1198.42C1200.98 440.137 1202.92 440.868 1204.39 442.207C1205.72 443.547 1206.45 445.495 1206.45 448.173V488.109C1206.45 490.666 1205.72 492.736 1204.39 494.075C1203.05 495.415 1200.98 496.145 1198.42 496.145H1190.87C1188.32 496.145 1186.25 495.415 1184.91 494.075C1183.57 492.736 1182.84 490.788 1182.84 488.109V471.307H1176.51V488.231C1176.51 490.788 1175.78 492.858 1174.44 494.197C1173.1 495.536 1171.15 496.267 1168.47 496.267H1160.92C1158.37 496.267 1156.42 495.536 1154.96 494.197C1153.62 492.858 1152.89 490.91 1152.89 488.231V448.173H1153.13ZM1176.63 464.732H1182.96V449.391C1182.96 448.539 1182.72 447.93 1182.23 447.443C1181.74 446.956 1181.13 446.712 1180.28 446.712H1179.43C1178.58 446.712 1177.97 446.956 1177.48 447.443C1176.99 447.93 1176.75 448.539 1176.75 449.391V464.732H1176.63Z" fill="white"/>
<path d="M1210.59 443.425C1210.59 442.329 1210.96 441.598 1211.57 440.99C1212.18 440.381 1213.15 440.137 1214.37 440.137H1260.14C1261.36 440.137 1262.33 440.381 1262.94 440.99C1263.55 441.598 1263.92 442.329 1263.92 443.425C1263.92 444.399 1263.55 445.251 1262.94 445.86C1262.33 446.469 1261.36 446.712 1260.14 446.712H1249.06V488.109C1249.06 490.666 1248.33 492.736 1246.99 494.075C1245.66 495.415 1243.59 496.145 1241.03 496.145H1233.48C1230.92 496.145 1228.86 495.415 1227.52 494.075C1226.18 492.736 1225.45 490.788 1225.45 488.109V446.712H1214.37C1213.15 446.712 1212.18 446.469 1211.57 445.86C1210.96 445.251 1210.59 444.521 1210.59 443.425Z" fill="white"/>
<path d="M1289.6 448.173C1289.6 445.616 1290.33 443.547 1291.67 442.207C1293.01 440.868 1295.08 440.137 1297.64 440.137H1305.19C1307.74 440.137 1309.81 440.868 1311.15 442.207C1312.49 443.547 1313.22 445.495 1313.22 448.173V486.892C1313.22 487.744 1313.47 488.353 1313.95 488.84C1314.44 489.327 1315.05 489.57 1315.9 489.57H1316.75C1317.6 489.57 1318.21 489.327 1318.7 488.84C1319.19 488.353 1319.43 487.744 1319.43 486.892V448.173C1319.43 445.616 1320.16 443.547 1321.5 442.207C1322.84 440.868 1324.79 440.137 1327.47 440.137H1335.01C1337.57 440.137 1339.64 440.868 1340.98 442.207C1342.32 443.547 1343.05 445.495 1343.05 448.173V486.892C1343.05 487.744 1343.29 488.353 1343.78 488.84C1344.27 489.327 1344.87 489.57 1345.73 489.57H1346.58C1347.43 489.57 1348.04 489.327 1348.53 488.84C1349.01 488.353 1349.26 487.744 1349.26 486.892V448.173C1349.26 445.616 1349.99 443.547 1351.33 442.207C1352.67 440.868 1354.61 440.137 1357.29 440.137H1364.84C1367.4 440.137 1369.34 440.868 1370.81 442.207C1372.14 443.547 1372.87 445.495 1372.87 448.173V488.109C1372.87 490.666 1372.14 492.736 1370.81 494.075C1369.47 495.415 1367.4 496.145 1364.84 496.145H1340.98C1338.67 496.145 1336.84 495.536 1335.5 494.441C1334.16 493.345 1333.55 491.64 1333.55 489.57H1329.05C1329.05 491.762 1328.44 493.345 1327.22 494.441C1326 495.536 1324.18 496.145 1321.74 496.145H1297.76C1295.2 496.145 1293.26 495.415 1291.8 494.075C1290.46 492.736 1289.73 490.788 1289.73 488.109V448.173H1289.6Z" fill="white"/>
<path d="M1377.14 449.269C1377.14 446.225 1377.87 444.034 1379.45 442.451C1381.03 440.868 1383.22 440.137 1386.27 440.137H1421.33C1424.37 440.137 1426.56 440.868 1428.15 442.451C1429.73 444.034 1430.46 446.225 1430.46 449.269V487.014C1430.46 490.057 1429.73 492.249 1428.15 493.832C1426.56 495.415 1424.37 496.145 1421.33 496.145H1386.27C1383.22 496.145 1381.03 495.415 1379.45 493.832C1377.87 492.249 1377.14 490.057 1377.14 487.014V449.269ZM1400.63 486.892C1400.63 487.744 1400.88 488.353 1401.36 488.84C1401.85 489.327 1402.46 489.57 1403.31 489.57H1404.16C1405.01 489.57 1405.62 489.327 1406.11 488.84C1406.6 488.353 1406.84 487.744 1406.84 486.892V449.391C1406.84 448.539 1406.6 447.93 1406.11 447.443C1405.62 446.956 1405.01 446.712 1404.16 446.712H1403.31C1402.46 446.712 1401.85 446.956 1401.36 447.443C1400.88 447.93 1400.63 448.539 1400.63 449.391V486.892Z" fill="white"/>
<path d="M1442.88 496.145C1440.32 496.145 1438.37 495.415 1436.91 494.075C1435.57 492.736 1434.84 490.788 1434.84 488.109V448.173C1434.84 445.616 1435.57 443.547 1436.91 442.207C1438.25 440.868 1440.32 440.137 1442.88 440.137H1480.37C1482.93 440.137 1484.88 440.746 1486.22 442.085C1487.55 443.425 1488.16 445.373 1488.16 447.93V456.453C1488.16 459.01 1487.55 460.958 1486.22 462.297C1484.88 463.636 1482.93 464.245 1480.37 464.245H1468.32V467.411H1480.25C1482.81 467.411 1484.88 468.141 1486.22 469.481C1487.55 470.82 1488.28 472.89 1488.28 475.447V488.109C1488.28 490.666 1487.55 492.736 1486.22 494.075C1484.88 495.415 1482.93 496.145 1480.25 496.145H1472.7C1470.15 496.145 1468.08 495.415 1466.74 494.075C1465.4 492.736 1464.67 490.788 1464.67 488.109V471.063H1458.34V488.109C1458.34 490.666 1457.61 492.736 1456.27 494.075C1454.93 495.415 1452.98 496.145 1450.3 496.145H1442.88ZM1461.99 461.079C1462.84 461.079 1463.45 460.836 1463.94 460.349C1464.42 459.862 1464.67 459.253 1464.67 458.401V449.269C1464.67 448.417 1464.42 447.808 1463.94 447.321C1463.45 446.834 1462.84 446.59 1461.99 446.59H1458.34V461.201H1461.99V461.079Z" fill="white"/>
<path d="M1492.79 448.052C1492.79 445.495 1493.52 443.547 1494.86 442.086C1496.2 440.746 1498.27 440.016 1500.82 440.016H1508.37C1510.93 440.016 1513 440.746 1514.34 442.086C1515.68 443.425 1516.41 445.495 1516.41 448.052V489.449H1533.94C1535.16 489.449 1536.13 489.692 1536.74 490.301C1537.35 490.91 1537.71 491.762 1537.71 492.736C1537.71 493.71 1537.35 494.562 1536.74 495.049C1536.13 495.658 1535.16 495.902 1533.94 495.902H1500.95C1498.39 495.902 1496.44 495.171 1494.98 493.832C1493.64 492.493 1492.91 490.544 1492.91 487.866V448.052H1492.79Z" fill="white"/>
<path d="M1550.13 496.145C1547.57 496.145 1545.63 495.415 1544.16 494.075C1542.83 492.736 1542.09 490.788 1542.09 488.109V448.173C1542.09 445.616 1542.83 443.547 1544.16 442.207C1545.5 440.868 1547.57 440.137 1550.13 440.137H1577.03C1583 440.137 1587.5 441.72 1590.67 444.886C1593.83 448.052 1595.42 452.557 1595.42 458.523V477.76C1595.42 483.726 1593.83 488.231 1590.67 491.397C1587.5 494.562 1583 496.145 1577.03 496.145H1550.13ZM1569.24 489.814C1570.09 489.814 1570.7 489.57 1571.19 489.083C1571.68 488.596 1571.92 487.988 1571.92 487.135V449.269C1571.92 448.417 1571.68 447.808 1571.19 447.321C1570.7 446.834 1570.09 446.59 1569.24 446.59H1565.59V489.936H1569.24V489.814Z" fill="white"/>
</g>
</g>
</g>
</svg>
