<svg width="1702" height="963" viewBox="0 0 1702 963" fill="none" xmlns="http://www.w3.org/2000/svg">
<g id="fifth-popup">
<g id="company5">
<g id="Group">
<g id="Vector">
<path d="M588.5 716.5H36.5C17.2 716.5 1.5 700.8 1.5 681.5V154.5C1.5 135.2 17.2 119.5 36.5 119.5H588.5C607.8 119.5 623.5 135.2 623.5 154.5V681.5C623.5 700.8 607.8 716.5 588.5 716.5Z" fill="#D3F3FF"/>
<path d="M588.5 715H36.5V718H588.5V715ZM36.5 715C18.0284 715 3 699.972 3 681.5H0C0 701.628 16.3716 718 36.5 718V715ZM3 681.5V154.5H0V681.5H3ZM3 154.5C3 136.028 18.0284 121 36.5 121V118C16.3716 118 0 134.372 0 154.5H3ZM36.5 121H588.5V118H36.5V121ZM588.5 121C606.972 121 622 136.028 622 154.5H625C625 134.372 608.628 118 588.5 118V121ZM622 154.5V681.5H625V154.5H622ZM622 681.5C622 699.972 606.972 715 588.5 715V718C608.628 718 625 701.628 625 681.5H622ZM1.2002 156.5H624V153.5H1.2002V156.5Z" fill="#00BBFF"/>
</g>
<path id="Vector_2" d="M540.3 664H73.1002C56.3002 664 42.7002 650.4 42.7002 633.6V616.7C42.7002 599.9 56.3002 586.3 73.1002 586.3H540.3C557.1 586.3 570.7 599.9 570.7 616.7V633.6C570.8 650.4 557.1 664 540.3 664Z" fill="white" stroke="#FF921E" stroke-width="3" stroke-miterlimit="10"/>
<g id="Vector_3">
<path d="M27.3002 145.4C23.9002 145.4 21.2002 142.7 21.2002 139.3C21.2002 135.9 23.9002 133.2 27.3002 133.2C30.7002 133.2 33.4002 135.9 33.4002 139.3C33.4002 142.7 30.7002 145.4 27.3002 145.4Z" fill="white"/>
<path d="M47.6002 145.4C44.2002 145.4 41.5002 142.7 41.5002 139.3C41.5002 135.9 44.2002 133.2 47.6002 133.2C51.0002 133.2 53.7002 135.9 53.7002 139.3C53.7002 142.7 51.0002 145.4 47.6002 145.4Z" fill="white"/>
<path d="M67.9002 145.4C64.5002 145.4 61.8002 142.7 61.8002 139.3C61.8002 135.9 64.5002 133.2 67.9002 133.2C71.3002 133.2 74.0002 135.9 74.0002 139.3C74.0002 142.7 71.3002 145.4 67.9002 145.4Z" fill="white"/>
</g>
<g id="Vector_4">
<path d="M27.3002 134.7C29.8002 134.7 31.9002 136.8 31.9002 139.3C31.9002 141.8 29.8002 143.9 27.3002 143.9C24.8002 143.9 22.7002 141.8 22.7002 139.3C22.7002 136.8 24.7002 134.7 27.3002 134.7ZM27.3002 131.7C23.1002 131.7 19.7002 135.1 19.7002 139.3C19.7002 143.5 23.1002 146.9 27.3002 146.9C31.5002 146.9 34.9002 143.5 34.9002 139.3C34.9002 135.1 31.5002 131.7 27.3002 131.7Z" fill="#00BBFF"/>
<path d="M47.6002 134.7C50.1002 134.7 52.2002 136.8 52.2002 139.3C52.2002 141.8 50.1002 143.9 47.6002 143.9C45.1002 143.9 43.0002 141.8 43.0002 139.3C43.0002 136.8 45.1002 134.7 47.6002 134.7ZM47.6002 131.7C43.4002 131.7 40.0002 135.1 40.0002 139.3C40.0002 143.5 43.4002 146.9 47.6002 146.9C51.8002 146.9 55.2002 143.5 55.2002 139.3C55.2002 135.1 51.8002 131.7 47.6002 131.7Z" fill="#00BBFF"/>
<path d="M67.9002 134.7C70.4002 134.7 72.5002 136.8 72.5002 139.3C72.5002 141.8 70.4002 143.9 67.9002 143.9C65.4002 143.9 63.3002 141.8 63.3002 139.3C63.3002 136.8 65.4002 134.7 67.9002 134.7ZM67.9002 131.7C63.7002 131.7 60.3002 135.1 60.3002 139.3C60.3002 143.5 63.7002 146.9 67.9002 146.9C72.1002 146.9 75.5002 143.5 75.5002 139.3C75.5002 135.1 72.1002 131.7 67.9002 131.7Z" fill="#00BBFF"/>
</g>
</g>
<g id="button-company5">
<path id="Vector_5" d="M540.6 663.7H73.4C56.6 663.7 43 650.1 43 633.3V616.4C43 599.6 56.6 586 73.4 586H540.6C557.4 586 571 599.6 571 616.4V633.3C571.1 650.1 557.5 663.7 540.6 663.7Z" fill="#FF921E"/>
<g id="Vector_6">
<path d="M93 610.599C93 607.899 93.7 605.899 95.1 604.499C96.5 603.099 98.5 602.399 101.2 602.399H113.1C115.7 602.399 117.7 603.099 119.1 604.499C120.5 605.899 121.2 607.899 121.2 610.599V640.099C121.2 642.799 120.5 644.799 119.1 646.199C117.7 647.599 115.7 648.299 113.1 648.299H101.2C98.5 648.299 96.5 647.599 95.1 646.199C93.7 644.799 93 642.799 93 640.099V610.599Z" fill="white"/>
<path d="M125.4 610.599C125.4 607.899 126.1 605.899 127.5 604.499C128.9 603.099 130.9 602.399 133.6 602.399H166.6C169.3 602.399 171.3 603.099 172.8 604.499C174.3 605.899 175 607.899 175 610.599V638.399C175 639.299 175.2 639.999 175.7 640.399C176.2 640.899 176.9 641.099 177.7 641.099H178.9C179.8 641.099 180.4 640.899 180.9 640.399C181.4 639.899 181.6 639.199 181.6 638.399V610.599C181.6 607.899 182.3 605.899 183.7 604.499C185.1 603.099 187.1 602.399 189.7 602.399H201.6C204.3 602.399 206.3 603.099 207.7 604.499C209.1 605.899 209.8 607.899 209.8 610.599V640.099C209.8 642.799 209.1 644.799 207.7 646.199C206.3 647.599 204.3 648.299 201.6 648.299H168.6C166 648.299 163.9 647.599 162.4 646.199C160.9 644.799 160.2 642.799 160.2 640.099V612.299C160.2 611.399 160 610.799 159.5 610.299C159 609.799 158.4 609.599 157.5 609.599H156.2C155.3 609.599 154.7 609.799 154.2 610.299C153.7 610.799 153.5 611.499 153.5 612.299V640.099C153.5 642.799 152.8 644.799 151.4 646.199C150 647.599 148 648.299 145.3 648.299H133.4C130.8 648.299 128.8 647.599 127.3 646.199C125.9 644.799 125.2 642.799 125.2 640.099V610.599H125.4Z" fill="white"/>
<path d="M218.3 648.299C217 648.299 216.1 647.999 215.4 647.399C214.7 646.799 214.4 645.899 214.4 644.799C214.4 643.699 214.7 642.799 215.4 642.199C216.1 641.599 217 641.299 218.3 641.299H242.5V631.499C242.5 630.599 242.2 629.899 241.7 629.399C241.2 628.899 240.5 628.599 239.6 628.599H222.4C219.8 628.599 217.8 627.899 216.3 626.499C214.9 625.099 214.2 623.099 214.2 620.399V610.699C214.2 607.999 214.9 605.999 216.3 604.599C217.7 603.199 219.7 602.499 222.4 602.499H265.8C267.1 602.499 268 602.799 268.7 603.399C269.4 603.999 269.7 604.899 269.7 605.999C269.7 607.099 269.4 607.999 268.7 608.599C268 609.199 267.1 609.499 265.8 609.499H242.5V618.599C242.5 619.499 242.8 620.199 243.3 620.699C243.8 621.199 244.5 621.499 245.4 621.499H262.6C265.3 621.499 267.3 622.199 268.7 623.599C270.1 624.999 270.8 626.999 270.8 629.699V640.199C270.8 642.899 270.1 644.899 268.7 646.299C267.3 647.699 265.3 648.399 262.6 648.399H218.3V648.299Z" fill="white"/>
<path d="M283.3 648.299C280.7 648.299 278.7 647.599 277.2 646.199C275.8 644.799 275.1 642.799 275.1 640.099V610.599C275.1 607.899 275.8 605.899 277.2 604.499C278.6 603.099 280.6 602.399 283.3 602.399H330.4C333.1 602.399 335.1 603.099 336.5 604.499C337.9 605.899 338.6 607.899 338.6 610.599V620.499C338.6 623.199 337.9 625.199 336.5 626.599C335.1 627.999 333.1 628.699 330.4 628.699H303.4V640.099C303.4 642.799 302.7 644.799 301.3 646.199C299.9 647.599 297.9 648.299 295.2 648.299H283.3ZM307.4 621.999C308.3 621.999 309 621.799 309.5 621.199C310 620.699 310.3 619.999 310.3 619.099V611.999C310.3 611.099 310 610.399 309.5 609.899C309 609.399 308.3 609.099 307.4 609.099H303.3V621.999H307.4Z" fill="white"/>
<path d="M342.4 634.899C342.4 632.199 343 630.199 344.2 628.799C345.4 627.399 347.1 626.699 349.3 626.699V623.999C347.1 623.999 345.4 623.299 344.2 621.899C343 620.499 342.4 618.499 342.4 615.899V610.699C342.4 607.999 343.1 605.999 344.5 604.599C345.9 603.199 347.9 602.499 350.6 602.499H394C395.2 602.499 396.2 602.799 396.9 603.399C397.6 603.999 397.9 604.899 397.9 605.999C397.9 607.099 397.6 607.999 396.9 608.599C396.2 609.199 395.2 609.499 394 609.499H370.6V621.399H394C395.2 621.399 396.2 621.699 396.9 622.299C397.6 622.899 397.9 623.799 397.9 624.899C397.9 625.999 397.6 626.899 396.9 627.599C396.2 628.199 395.2 628.499 394 628.499H370.6V641.099H394C395.2 641.099 396.2 641.399 396.9 641.999C397.6 642.599 397.9 643.499 397.9 644.599C397.9 645.699 397.6 646.599 396.9 647.199C396.2 647.799 395.2 648.099 394 648.099H350.6C347.9 648.099 345.9 647.399 344.5 645.999C343.1 644.599 342.4 642.599 342.4 639.899V634.899Z" fill="white"/>
<path d="M402.1 610.599C402.1 607.899 402.8 605.899 404.2 604.499C405.6 603.099 407.6 602.399 410.3 602.399H453.7C455 602.399 455.9 602.699 456.6 603.299C457.3 603.899 457.6 604.799 457.6 605.899C457.6 606.999 457.3 607.899 456.6 608.499C455.9 609.099 455 609.399 453.7 609.399H430.4V641.099H453.7C455 641.099 455.9 641.399 456.6 641.999C457.3 642.599 457.6 643.499 457.6 644.599C457.6 645.699 457.3 646.599 456.6 647.199C455.9 647.799 455 648.099 453.7 648.099H410.3C407.7 648.099 405.7 647.399 404.2 645.999C402.8 644.599 402.1 642.599 402.1 639.899V610.599Z" fill="white"/>
<path d="M461.7 605.999C461.7 604.899 462 603.999 462.7 603.399C463.4 602.799 464.3 602.499 465.6 602.499H520C521.3 602.499 522.2 602.799 522.9 603.399C523.6 603.999 523.9 604.899 523.9 605.999C523.9 607.099 523.6 607.999 522.9 608.599C522.2 609.199 521.3 609.499 520 609.499H506.9V640.099C506.9 642.799 506.2 644.799 504.8 646.199C503.4 647.599 501.4 648.299 498.8 648.299H486.9C484.2 648.299 482.2 647.599 480.8 646.199C479.4 644.799 478.7 642.799 478.7 640.099V609.499H465.6C464.3 609.499 463.4 609.199 462.7 608.599C462 607.999 461.7 607.099 461.7 605.999Z" fill="white"/>
</g>
</g>
<path id="Vector_7" d="M361.7 251C366.6 251 371.5 251 376.5 251C376.8 251.2 377 251.6 377.3 251.6C388.9 253.5 398.9 258.5 407.4 266.7C408.2 267.4 409.9 267.6 411.1 267.4C421.1 265.3 430.5 261.7 439.4 256.8C440.2 256.4 441.1 256.1 442.4 255.5C438.4 268 430.8 277 420.6 284.1C420.8 284.4 420.9 284.7 421.1 285C430.4 282.4 439.6 279.8 449 277.2C448.7 277.8 448.4 278.5 448 279C441.6 287.9 434.1 295.8 425.3 302.4C423.6 303.7 423 305 423.1 307C423.6 322.3 421.6 337.4 417.4 352.1C410.8 375.3 399.6 396 383.6 414.1C370.1 429.4 354 441.3 335.5 449.8C320.2 456.8 304 460.8 287.3 462.6C286.1 462.7 285 463.1 283.8 463.4C275.1 463.4 266.5 463.4 257.8 463.4C257.2 463.2 256.7 462.8 256.1 462.7C251.9 462.1 247.7 461.6 243.6 460.9C227.5 458 212.3 452.5 198 444.8C195.2 443.3 192.5 441.5 189.8 439.8C226.5 443 257 426.9 266.7 417.1C238.7 415.7 221.7 394.3 218.5 380C225.6 380.7 232.6 381.6 240.2 379C209.1 369.1 198.5 343.5 199.7 326.1C203.3 327.5 206.7 329.1 210.4 330.1C214 331.1 217.8 331.6 221.5 332.3C221.6 332 221.7 331.7 221.8 331.4C211 323.1 203.7 312.5 201 299.2C198.3 285.9 199.9 273.2 207.1 261.1C236.2 295.1 272.4 313.9 317.1 316.9C316.9 315.5 316.8 314.6 316.7 313.8C315.2 303.5 315.9 293.3 320.2 283.8C327.6 267.2 340.2 256.7 357.9 252.5C359.1 252.1 360.4 251.5 361.7 251Z" fill="#1EA3DD"/>
</g>
<g id="news4">
<g id="window">
<g id="Vector_8">
<path d="M1646.32 961.247H638.043C608.242 961.247 584 937.019 584 907.236V56.0117C584 26.2281 608.242 2 638.043 2H1646.32C1676.13 2 1700.37 26.2281 1700.37 56.0117V907.236C1700.37 937.019 1676.13 961.247 1646.32 961.247Z" fill="#D4F4FF"/>
<path d="M1646.32 959.747H638.043V962.747H1646.32V959.747ZM638.043 959.747C609.07 959.747 585.5 936.19 585.5 907.236H582.5C582.5 937.849 607.414 962.747 638.043 962.747V959.747ZM585.5 907.236V56.0117H582.5V907.236H585.5ZM585.5 56.0117C585.5 27.0573 609.07 3.5 638.043 3.5V0.5C607.414 0.5 582.5 25.3989 582.5 56.0117H585.5ZM638.043 3.5H1646.32V0.5H638.043V3.5ZM1646.32 3.5C1675.3 3.5 1698.87 27.0573 1698.87 56.0117H1701.87C1701.87 25.3989 1676.95 0.5 1646.32 0.5V3.5ZM1698.87 56.0117V907.236H1701.87V56.0117H1698.87ZM1698.87 907.236C1698.87 936.19 1675.3 959.747 1646.32 959.747V962.747C1676.95 962.747 1701.87 937.849 1701.87 907.236H1698.87ZM585.081 65.382H1700.52V62.382H585.081V65.382Z" fill="#00BCFF"/>
</g>
<g id="Vector_9">
<path d="M632.638 46.1352C639.034 46.1352 644.219 40.9533 644.219 34.5612C644.219 28.1691 639.034 22.9873 632.638 22.9873C626.242 22.9873 621.058 28.1691 621.058 34.5612C621.058 40.9533 626.242 46.1352 632.638 46.1352Z" fill="white"/>
<path d="M669.696 46.1352C676.092 46.1352 681.277 40.9533 681.277 34.5612C681.277 28.1691 676.092 22.9873 669.696 22.9873C663.3 22.9873 658.115 28.1691 658.115 34.5612C658.115 40.9533 663.3 46.1352 669.696 46.1352Z" fill="white"/>
<path d="M706.754 46.1352C713.15 46.1352 718.334 40.9533 718.334 34.5612C718.334 28.1691 713.15 22.9873 706.754 22.9873C700.358 22.9873 695.173 28.1691 695.173 34.5612C695.173 40.9533 700.358 46.1352 706.754 46.1352Z" fill="white"/>
</g>
<g id="Vector_10">
<path d="M632.639 25.3024C637.734 25.3024 641.903 29.469 641.903 34.5616C641.903 39.6541 637.734 43.8207 632.639 43.8207C627.543 43.8207 623.374 39.6541 623.374 34.5616C623.374 29.469 627.543 25.3024 632.639 25.3024ZM632.639 20.6729C624.918 20.6729 618.742 26.8456 618.742 34.5616C618.742 42.2775 624.918 48.4503 632.639 48.4503C640.359 48.4503 646.536 42.2775 646.536 34.5616C646.536 26.8456 640.359 20.6729 632.639 20.6729Z" fill="#00BCFF"/>
<path d="M669.697 25.3024C674.792 25.3024 678.961 29.469 678.961 34.5616C678.961 39.6541 674.792 43.8207 669.697 43.8207C664.601 43.8207 660.432 39.6541 660.432 34.5616C660.432 29.469 664.601 25.3024 669.697 25.3024ZM669.697 20.6729C661.976 20.6729 655.8 26.8456 655.8 34.5616C655.8 42.2775 661.976 48.4503 669.697 48.4503C677.417 48.4503 683.593 42.2775 683.593 34.5616C683.593 26.8456 677.417 20.6729 669.697 20.6729Z" fill="#00BCFF"/>
<path d="M706.755 25.3024C711.85 25.3024 716.019 29.469 716.019 34.5616C716.019 39.6541 711.85 43.8207 706.755 43.8207C701.659 43.8207 697.49 39.6541 697.49 34.5616C697.49 29.469 701.659 25.3024 706.755 25.3024ZM706.755 20.6729C699.034 20.6729 692.858 26.8456 692.858 34.5616C692.858 42.2775 699.034 48.4503 706.755 48.4503C714.475 48.4503 720.651 42.2775 720.651 34.5616C720.651 26.8456 714.475 20.6729 706.755 20.6729Z" fill="#00BCFF"/>
</g>
</g>
<g id="text">
<g id="Vector_11">
<path d="M651.167 139.19V193.664H635.263V139.19H622.602V125.764H663.983V139.19H651.167Z" fill="#00BFFF"/>
<path d="M665.373 125.764H679.887L682.512 163.881C682.666 166.813 682.975 171.134 682.821 174.529H683.284L684.21 165.115L688.534 125.764H702.739L707.063 165.115C707.372 168.047 707.526 171.134 707.989 174.529H708.298C708.298 171.134 708.452 166.813 708.607 163.881L711.386 125.764H725.9L718.18 193.664H700.423L696.409 159.406C695.945 154.93 696.1 151.69 695.791 148.449H695.328C695.173 151.69 695.173 155.085 694.71 159.406L690.85 193.664H673.093L665.373 125.764Z" fill="#00BFFF"/>
<path d="M730.841 193.664V125.764H746.9V193.664H730.841Z" fill="#00BFFF"/>
<path d="M778.553 139.19V193.664H762.649V139.19H749.988V125.764H791.369V139.19H778.553Z" fill="#00BFFF"/>
<path d="M821.324 139.19V193.664H805.42V139.19H792.759V125.764H834.14V139.19H821.324Z" fill="#00BFFF"/>
<path d="M870.889 181.782V193.819H837.074V125.918H870.272V137.955H852.978V152.924H868.882V164.807H852.824V181.782H870.889Z" fill="#00BFFF"/>
<path d="M895.595 166.659H891.734V193.664H875.676V125.764H895.595C911.035 125.764 917.057 132.863 917.057 144.591V147.369C917.057 155.085 914.124 160.023 909.337 162.801L918.447 193.664H901.771L895.595 166.659ZM894.514 156.936C899.146 156.936 900.69 154.313 900.69 148.449V143.665C900.69 138.264 898.992 136.412 894.514 136.412H891.734V156.936H894.514Z" fill="#00BFFF"/>
<path d="M937.13 125.764H956.894C971.563 125.764 979.901 133.634 979.901 147.986V170.671C979.901 185.64 971.717 193.664 956.74 193.664H937.13V125.764ZM956.586 182.399C961.218 182.399 963.534 178.232 963.534 171.597V147.06C963.534 140.27 961.527 137.029 956.586 137.029H953.189V182.399H956.586Z" fill="#00BFFF"/>
<path d="M985.769 193.664V125.764H1001.83V193.664H985.769Z" fill="#00BFFF"/>
<path d="M1005.22 125.764H1021.75L1026.84 166.967C1027.46 172.368 1027.77 176.072 1027.92 179.93H1028.38C1028.54 176.072 1028.69 172.214 1029.47 166.967L1034.56 125.764H1051.08L1038.42 193.664H1018.04L1005.22 125.764Z" fill="#00BFFF"/>
<path d="M1088.3 181.782V193.819H1054.48V125.918H1087.68V137.955H1070.38V152.924H1086.44V164.807H1070.38V181.782H1088.3Z" fill="#00BFFF"/>
<path d="M1113 166.659H1109.14V193.664H1093.08V125.764H1113C1128.44 125.764 1134.46 132.863 1134.46 144.591V147.369C1134.46 155.085 1131.53 160.023 1126.74 162.801L1135.85 193.664H1119.18L1113 166.659ZM1112.07 156.936C1116.71 156.936 1118.25 154.313 1118.25 148.449V143.665C1118.25 138.264 1116.55 136.412 1112.07 136.412H1109.29V156.936H1112.07Z" fill="#00BFFF"/>
<path d="M1136.32 176.381V170.979L1152.53 167.893V176.381C1152.53 180.547 1153.92 183.171 1157.16 183.171C1160.4 183.171 1161.64 180.702 1161.64 178.078V175.146C1161.64 171.905 1161.02 170.208 1157.32 168.047L1146.35 161.566C1139.25 157.399 1136.93 152.461 1136.93 145.054V141.35C1136.93 129.313 1146.51 124.221 1157.16 124.221C1169.51 124.221 1177.85 128.696 1177.85 142.276V147.214L1161.79 150.146V141.967C1161.79 138.727 1160.71 135.949 1157.16 135.949C1154.38 135.949 1152.84 138.11 1152.84 140.579V143.511C1152.84 146.288 1154.54 148.603 1157.16 150.146L1167.97 156.628C1175.69 161.257 1177.85 165.578 1177.85 172.677V179.004C1177.85 188.263 1170.75 195.671 1157.01 195.671C1144.04 195.362 1136.32 187.492 1136.32 176.381Z" fill="#00BFFF"/>
<path d="M1182.33 193.664V125.764H1198.39V193.664H1182.33Z" fill="#00BFFF"/>
<path d="M1242.55 139.19H1229.89V193.664H1213.98V139.19H1201.32V125.764H1242.55V139.19Z" fill="#00BFFF"/>
<path d="M1258.45 171.751L1243.94 125.764H1260.46L1265.09 147.369C1265.86 150.764 1266.17 154.004 1266.48 157.554H1266.79C1267.1 154.004 1267.41 150.764 1268.03 147.369L1272.35 125.764H1288.87L1274.67 171.751V193.819H1258.61V171.751H1258.45Z" fill="#00BFFF"/>
<path d="M1342.91 143.819V149.375C1342.91 162.029 1335.81 168.973 1322.69 168.973H1317.59V193.819H1301.53V125.918H1322.38C1335.81 125.764 1342.76 131.937 1342.91 143.819ZM1326.39 144.128C1326.39 138.727 1324.69 136.412 1320.52 136.412H1317.44V157.862H1320.52C1324.69 157.862 1326.39 155.393 1326.39 148.912V144.128Z" fill="#00BFFF"/>
<path d="M1346.93 193.664V125.764H1362.99V193.664H1346.93Z" fill="#00BFFF"/>
<path d="M1368.7 173.911V145.98C1368.7 131.628 1376.57 124.066 1390.63 124.066C1404.06 124.066 1411.63 130.548 1411.63 143.048V150.764L1395.1 153.696V143.356C1395.1 138.727 1393.4 136.258 1390.16 136.258C1386.77 136.258 1385.07 139.19 1385.07 144.745V174.529C1385.07 180.084 1386.77 183.016 1390.16 183.016C1393.4 183.016 1395.26 180.393 1395.26 175.609V164.807L1411.47 167.893V175.455C1411.47 188.417 1403.44 195.208 1390.16 195.208C1376.27 195.362 1368.7 188.263 1368.7 173.911Z" fill="#00BFFF"/>
<path d="M1437.26 165.578L1433.24 174.529V193.51H1417.18V125.61H1433.24V155.548L1444.36 125.764H1460.57L1449.15 152.615L1461.19 193.819H1444.2L1437.26 165.578Z" fill="#00BFFF"/>
<path d="M624.146 281.318V275.916L640.358 272.83V281.318C640.358 285.484 641.748 288.108 644.991 288.108C648.233 288.108 649.469 285.639 649.469 283.015V280.083C649.469 276.842 648.851 275.145 645.145 272.984L634.182 266.503C627.079 262.336 624.763 257.398 624.763 249.991V246.287C624.763 234.25 634.337 229.158 644.991 229.158C657.343 229.158 665.681 233.633 665.681 247.213V252.151L649.623 255.083V246.904C649.623 243.664 648.542 240.886 644.991 240.886C642.211 240.886 640.667 243.046 640.667 245.516V248.448C640.667 251.225 642.366 253.54 644.991 255.083L655.799 261.565C663.52 266.194 665.681 270.515 665.681 277.614V283.941C665.681 293.2 658.579 300.608 644.836 300.608C631.866 300.299 624.146 292.429 624.146 281.318Z" fill="#00BFFF"/>
<path d="M694.401 244.127V298.601H678.497V244.127H665.836V230.701H707.217V244.127H694.401Z" fill="#00BFFF"/>
<path d="M709.996 298.601V230.701H726.055V298.601H709.996Z" fill="#00BFFF"/>
<path d="M753.693 271.596H749.833V298.601H733.929V230.701H753.848C769.289 230.701 775.311 237.8 775.311 249.528V252.306C775.311 260.022 772.377 264.96 767.59 267.738L776.7 298.601H760.024L753.693 271.596ZM752.613 261.873C757.245 261.873 758.789 259.25 758.789 253.386V248.602C758.789 243.201 757.09 241.349 752.613 241.349H749.833V261.873H752.613Z" fill="#00BFFF"/>
<path d="M777.009 281.318V275.916L793.222 272.83V281.318C793.222 285.484 794.612 288.108 797.854 288.108C801.097 288.108 802.332 285.639 802.332 283.015V280.083C802.332 276.842 801.715 275.145 798.009 272.984L787.046 266.503C779.943 262.336 777.627 257.398 777.627 249.991V246.287C777.627 234.25 787.2 229.158 797.854 229.158C810.207 229.158 818.545 233.633 818.545 247.213V252.151L802.487 255.083V246.904C802.487 243.664 801.406 240.886 797.854 240.886C795.075 240.886 793.531 243.046 793.531 245.516V248.448C793.531 251.225 795.229 253.54 797.854 255.083L808.663 261.565C816.383 266.194 818.545 270.515 818.545 277.614V283.941C818.545 293.2 811.442 300.608 797.7 300.608C784.575 300.299 777.009 292.429 777.009 281.318Z" fill="#00BFFF"/>
<path d="M835.53 278.848V250.917C835.53 236.565 843.405 229.003 857.456 229.003C870.889 229.003 878.455 235.485 878.455 247.985V255.701L861.934 258.633V248.293C861.934 243.664 860.235 241.195 856.993 241.195C853.596 241.195 851.897 244.127 851.897 249.682V279.466C851.897 285.021 853.596 287.953 856.993 287.953C860.235 287.953 862.088 285.33 862.088 280.546V269.744L878.301 272.83V280.392C878.301 293.354 870.272 300.144 856.993 300.144C842.942 300.299 835.53 293.2 835.53 278.848Z" fill="#00BFFF"/>
<path d="M882.007 277.923V251.534C882.007 237.182 890.499 229.158 904.241 229.158C917.984 229.158 926.476 237.182 926.476 251.534V277.923C926.476 292.274 917.984 300.299 904.241 300.299C890.499 300.299 882.007 292.274 882.007 277.923ZM909.954 279.929V249.374C909.954 244.127 907.793 241.349 904.241 241.349C900.535 241.349 898.528 244.127 898.528 249.374V279.929C898.528 285.176 900.69 287.953 904.241 287.953C907.947 287.953 909.954 285.176 909.954 279.929Z" fill="#00BFFF"/>
<path d="M949.174 230.701L958.438 258.17C959.365 261.256 960.291 264.651 961.063 267.583H961.372C961.218 262.954 961.063 258.17 961.063 253.54V230.701H974.806V298.601H959.674L949.019 267.583C947.939 263.88 946.858 260.639 946.086 257.398H945.777C945.931 261.719 946.086 266.04 946.086 270.67V298.601H932.189V230.701H949.174Z" fill="#00BFFF"/>
<path d="M1006.61 244.127V298.601H990.71V244.127H978.048V230.701H1019.43V244.127H1006.61Z" fill="#00BFFF"/>
<path d="M1041.97 271.596H1038.11V298.601H1022.05V230.701H1041.97C1057.41 230.701 1063.44 237.8 1063.44 249.528V252.306C1063.44 260.022 1060.5 264.96 1055.72 267.738L1064.83 298.601H1048.15L1041.97 271.596ZM1040.89 261.873C1045.52 261.873 1047.07 259.25 1047.07 253.386V248.602C1047.07 243.201 1045.37 241.349 1040.89 241.349H1038.11V261.873H1040.89Z" fill="#00BFFF"/>
<path d="M1066.99 277.923V251.534C1066.99 237.182 1075.48 229.158 1089.22 229.158C1102.96 229.158 1111.46 237.182 1111.46 251.534V277.923C1111.46 292.274 1102.96 300.299 1089.22 300.299C1075.48 300.299 1066.99 292.274 1066.99 277.923ZM1094.93 279.929V249.374C1094.93 244.127 1092.77 241.349 1089.22 241.349C1085.52 241.349 1083.51 244.127 1083.51 249.374V279.929C1083.51 285.176 1085.67 287.953 1089.22 287.953C1092.93 287.953 1094.93 285.176 1094.93 279.929Z" fill="#00BFFF"/>
<path d="M1111.92 230.701H1128.44L1133.54 271.904C1134.15 277.305 1134.46 281.009 1134.62 284.867H1135.08C1135.24 281.009 1135.39 277.151 1136.16 271.904L1141.26 230.701H1157.62L1144.96 298.601H1124.58L1111.92 230.701Z" fill="#00BFFF"/>
<path d="M1194.99 286.719V298.756H1161.18V230.855H1194.37V242.892H1177.08V257.861H1193.14V269.744H1177.08V286.719H1194.99Z" fill="#00BFFF"/>
<path d="M1219.7 271.596H1215.84V298.601H1199.78V230.701H1219.7C1235.14 230.701 1241.16 237.8 1241.16 249.528V252.306C1241.16 260.022 1238.22 264.96 1233.44 267.738L1242.55 298.601H1225.87L1219.7 271.596ZM1218.62 261.873C1223.25 261.873 1224.79 259.25 1224.79 253.386V248.602C1224.79 243.201 1223.09 241.349 1218.62 241.349H1215.84V261.873H1218.62Z" fill="#00BFFF"/>
<path d="M1243.01 281.318V275.916L1259.22 272.83V281.318C1259.22 285.484 1260.61 288.108 1263.86 288.108C1267.1 288.108 1268.33 285.639 1268.33 283.015V280.083C1268.33 276.842 1267.72 275.145 1264.01 272.984L1253.05 266.503C1245.95 262.336 1243.63 257.398 1243.63 249.991V246.287C1243.63 234.25 1253.2 229.158 1263.86 229.158C1276.21 229.158 1284.55 233.633 1284.55 247.213V252.151L1268.49 255.083V246.904C1268.49 243.664 1267.41 240.886 1263.86 240.886C1261.08 240.886 1259.53 243.046 1259.53 245.516V248.448C1259.53 251.225 1261.23 253.54 1263.86 255.083L1274.67 261.565C1282.39 266.194 1284.55 270.515 1284.55 277.614V283.941C1284.55 293.2 1277.44 300.608 1263.7 300.608C1250.58 300.299 1243.01 292.429 1243.01 281.318Z" fill="#00BFFF"/>
<path d="M1297.98 276.688L1283.47 230.701H1299.99L1304.62 252.306C1305.39 255.701 1305.7 258.941 1306.01 262.491H1306.32C1306.63 258.941 1306.94 255.701 1307.55 252.306L1311.88 230.701H1328.4L1314.19 276.688V298.756H1298.14V276.688H1297.98Z" fill="#00BFFF"/>
</g>
<g id="Vector_12">
<path d="M638.197 381.933V418.815H634.182V381.933H623.528V378.23H649.006V381.933H638.197Z" fill="#00BFFF"/>
<path d="M647.925 390.267H651.939L656.263 411.717L656.726 414.803H656.88C657.035 413.723 657.189 412.797 657.344 411.717L661.976 390.267H666.145L670.777 411.717C670.931 412.643 671.24 413.723 671.395 414.803H671.549C671.549 413.723 671.858 412.643 672.012 411.717L676.336 390.267H680.35L673.711 418.816H669.542L664.755 397.057C664.601 396.131 664.446 394.896 664.292 393.97H664.137C663.983 394.896 663.829 396.131 663.674 397.057L658.888 418.816H654.719L647.925 390.267Z" fill="#00BFFF"/>
<path d="M685.755 379.001H690.078V385.328H685.755V379.001ZM685.909 390.266H689.769V418.815H685.909V390.266Z" fill="#00BFFF"/>
<path d="M695.019 390.267H699.342V383.013L703.203 381.47V390.267H709.379V393.353H703.203V411.254C703.203 414.34 704.438 415.575 706.908 415.575C707.835 415.575 708.452 415.42 709.379 415.266V418.816C708.298 419.124 707.372 419.278 705.982 419.278C701.195 419.278 699.342 416.501 699.342 411.871V393.353H695.019V390.267Z" fill="#00BFFF"/>
<path d="M712.622 390.267H716.945V383.013L720.805 381.47V390.267H726.982V393.353H720.805V411.254C720.805 414.34 722.041 415.575 724.511 415.575C725.438 415.575 726.055 415.42 726.982 415.266V418.816C725.901 419.124 724.974 419.278 723.585 419.278C718.798 419.278 716.945 416.501 716.945 411.871V393.353H712.622V390.267Z" fill="#00BFFF"/>
<path d="M750.915 405.236H734.239C734.393 412.951 736.555 416.038 741.033 416.038C744.275 416.038 746.746 414.186 747.209 409.865L750.76 410.791C749.988 416.347 746.283 419.433 741.033 419.433C734.702 419.433 730.379 415.421 730.379 404.464C730.379 393.353 734.856 389.495 740.878 389.495C747.209 389.495 750.915 393.662 750.915 402.149V405.236ZM747.055 402.303C747.055 395.359 744.893 392.581 741.033 392.581C737.327 392.581 734.548 394.588 734.393 402.303H747.055Z" fill="#00BFFF"/>
<path d="M768.98 389.649C769.289 389.649 769.444 389.649 769.907 389.649V393.662C769.598 393.662 769.444 393.662 769.289 393.662C766.819 393.662 765.275 394.588 764.194 396.131C762.341 398.291 762.032 401.686 762.032 404.927V418.816H758.172V390.267H761.878V397.057C762.495 392.89 764.966 389.649 768.98 389.649Z" fill="#00BFFF"/>
<path d="M772.532 424.217C775.002 422.828 775.311 421.593 775.311 418.97V418.661H772.686V412.489H777.782V418.507C777.782 422.674 776.855 424.68 773.613 426.223L772.532 424.217Z" fill="#00BFFF"/>
<path d="M797.546 409.711V390.267H801.406V409.556C801.406 414.186 803.413 416.192 806.502 416.192C810.516 416.192 812.832 412.489 812.832 406.933V390.421H816.692V418.97H812.987V413.569C811.906 417.118 809.127 419.587 805.266 419.587C799.553 419.433 797.546 415.421 797.546 409.711Z" fill="#00BFFF"/>
<path d="M825.493 390.267H829.199V395.976C830.589 391.655 833.214 389.495 837.228 389.495C842.324 389.495 844.949 392.736 844.949 399.217V418.816H841.089V399.68C841.089 395.205 839.39 392.89 835.839 392.89C831.67 392.89 829.508 396.285 829.508 402.921V418.816H825.648V390.267H825.493Z" fill="#00BFFF"/>
<path d="M850.971 404.464C850.971 394.742 854.677 389.495 860.853 389.495C864.559 389.495 867.338 391.656 868.419 395.668V377.304H872.279V418.661H868.573V412.797C867.184 416.964 864.404 419.433 860.544 419.433C854.522 419.433 850.971 414.34 850.971 404.464ZM868.573 406.779V402.149C868.573 396.439 866.257 392.736 862.243 392.736C857.61 392.736 855.449 396.131 855.449 404.31C855.449 412.643 857.61 416.038 862.243 416.038C866.103 416.192 868.573 412.643 868.573 406.779Z" fill="#00BFFF"/>
<path d="M899.918 405.236H883.242C883.397 412.951 885.558 416.038 890.036 416.038C893.279 416.038 895.749 414.186 896.212 409.865L899.764 410.791C898.992 416.347 895.286 419.433 890.036 419.433C883.705 419.433 879.382 415.421 879.382 404.464C879.382 393.353 883.86 389.495 889.882 389.495C896.212 389.495 899.918 393.662 899.918 402.149V405.236ZM895.904 402.303C895.904 395.359 893.742 392.581 889.882 392.581C886.176 392.581 883.397 394.588 883.242 402.303H895.904Z" fill="#00BFFF"/>
<path d="M917.829 389.649C918.138 389.649 918.292 389.649 918.756 389.649V393.662C918.447 393.662 918.292 393.662 918.138 393.662C915.667 393.662 914.123 394.588 913.043 396.131C911.19 398.291 910.881 401.686 910.881 404.927V418.816H907.021V390.267H910.726V397.057C911.344 392.89 913.815 389.649 917.829 389.649Z" fill="#00BFFF"/>
<path d="M945.16 393.353H938.983V418.816H935.277V393.353H930.8V390.267H935.277V384.711C935.277 379.927 937.902 376.995 942.38 376.995C943.461 376.995 944.388 377.149 945.16 377.304V380.699C944.388 380.544 943.616 380.544 942.998 380.544C940.219 380.544 938.983 381.933 938.983 385.174V390.267H945.16V393.353ZM950.409 379.001H954.733V385.328H950.409V379.001ZM950.718 390.267H954.578V418.816H950.718V390.267Z" fill="#00BFFF"/>
<path d="M974.343 389.649C974.652 389.649 974.806 389.649 975.269 389.649V393.662C974.96 393.662 974.806 393.662 974.652 393.662C972.181 393.662 970.637 394.588 969.556 396.131C967.703 398.291 967.394 401.686 967.394 404.927V418.816H963.534V390.267H967.24V397.057C967.858 392.89 970.328 389.649 974.343 389.649Z" fill="#00BFFF"/>
<path d="M998.43 405.236H981.754C981.909 412.951 984.07 416.038 988.548 416.038C991.791 416.038 994.261 414.186 994.724 409.865L998.276 410.791C997.504 416.347 993.798 419.433 988.548 419.433C982.217 419.433 977.894 415.421 977.894 404.464C977.894 393.353 982.372 389.495 988.394 389.495C994.724 389.495 998.43 393.662 998.43 402.149V405.236ZM994.57 402.303C994.57 395.359 992.408 392.581 988.548 392.581C984.842 392.581 982.063 394.588 981.909 402.303H994.57Z" fill="#00BFFF"/>
<path d="M1028.85 393.353H1022.67V418.816H1018.81V393.353H1014.33V390.267H1018.81V384.711C1018.81 379.927 1021.44 376.995 1025.91 376.995C1027 376.995 1027.92 377.149 1028.69 377.304V380.699C1027.92 380.544 1027.15 380.544 1026.53 380.544C1023.75 380.544 1022.52 381.933 1022.52 385.174V390.267H1028.69V393.353H1028.85Z" fill="#00BFFF"/>
<path d="M1031.47 404.464C1031.47 393.97 1035.64 389.495 1042.28 389.495C1048.92 389.495 1053.09 393.97 1053.09 404.464C1053.09 414.958 1048.92 419.433 1042.28 419.433C1035.64 419.433 1031.47 414.958 1031.47 404.464ZM1049.08 404.464C1049.08 395.513 1046.3 392.581 1042.28 392.581C1038.42 392.581 1035.64 395.513 1035.64 404.464C1035.64 413.414 1038.42 416.347 1042.28 416.347C1046.3 416.347 1049.08 413.414 1049.08 404.464Z" fill="#00BFFF"/>
<path d="M1071.16 389.649C1071.47 389.649 1071.62 389.649 1072.08 389.649V393.662C1071.77 393.662 1071.62 393.662 1071.47 393.662C1068.99 393.662 1067.45 394.588 1066.37 396.131C1064.52 398.291 1064.21 401.686 1064.21 404.927V418.816H1060.35V390.267H1064.05V397.057C1064.67 392.89 1067.14 389.649 1071.16 389.649Z" fill="#00BFFF"/>
<path d="M1083.51 390.267H1087.83V383.013L1091.69 381.47V390.267H1097.87V393.353H1091.69V411.254C1091.69 414.34 1092.93 415.575 1095.4 415.575C1096.32 415.575 1096.94 415.42 1097.87 415.266V418.816C1096.79 419.124 1095.86 419.278 1094.47 419.278C1089.69 419.278 1087.83 416.501 1087.83 411.871V393.353H1083.51V390.267Z" fill="#00BFFF"/>
<path d="M1104.05 377.458H1107.91V395.822C1108.99 391.81 1111.92 389.495 1115.78 389.495C1120.72 389.495 1123.35 392.736 1123.35 399.217V418.815H1119.49V399.526C1119.49 395.205 1117.79 392.89 1114.24 392.89C1110.07 392.89 1107.91 396.285 1107.91 402.921V418.815H1104.05V377.458Z" fill="#00BFFF"/>
<path d="M1150.06 405.236H1133.38C1133.54 412.951 1135.7 416.038 1140.18 416.038C1143.42 416.038 1145.89 414.186 1146.35 409.865L1149.9 410.791C1149.13 416.347 1145.43 419.433 1140.18 419.433C1133.85 419.433 1129.52 415.421 1129.52 404.464C1129.52 393.353 1134 389.495 1140.02 389.495C1146.35 389.495 1150.06 393.662 1150.06 402.149V405.236ZM1146.2 402.303C1146.2 395.359 1144.04 392.581 1140.18 392.581C1136.47 392.581 1133.69 394.588 1133.54 402.303H1146.2Z" fill="#00BFFF"/>
<path d="M1167.66 409.556L1171.52 408.939C1171.68 413.723 1174.15 416.192 1177.7 416.192C1180.94 416.192 1182.95 414.495 1182.95 411.254C1182.95 408.476 1181.71 406.933 1178.47 406.161L1174.46 405.236C1170.29 404.31 1168.12 401.532 1168.12 397.365C1168.12 392.427 1171.83 389.495 1177.23 389.495C1182.79 389.495 1186.5 392.273 1186.65 398.754L1182.95 399.371C1182.64 394.279 1180.48 392.581 1177.23 392.581C1173.99 392.581 1172.14 394.279 1172.14 397.211C1172.14 399.834 1173.22 401.378 1176.31 401.995L1180.48 403.075C1185.11 404.155 1186.96 406.933 1186.96 411.1C1186.96 416.038 1183.57 419.433 1177.7 419.433C1171.83 419.433 1167.97 416.347 1167.66 409.556Z" fill="#00BFFF"/>
<path d="M1189.9 390.267H1194.22V383.013L1198.08 381.47V390.267H1204.26V393.353H1198.08V411.254C1198.08 414.34 1199.31 415.575 1201.79 415.575C1202.71 415.575 1203.33 415.42 1204.26 415.266V418.816C1203.17 419.124 1202.25 419.278 1200.86 419.278C1196.07 419.278 1194.22 416.501 1194.22 411.871V393.353H1189.9V390.267Z" fill="#00BFFF"/>
<path d="M1221.4 389.649C1221.7 389.649 1221.86 389.649 1222.32 389.649V393.662C1222.01 393.662 1221.86 393.662 1221.7 393.662C1219.23 393.662 1217.69 394.588 1216.61 396.131C1214.76 398.291 1214.45 401.686 1214.45 404.927V418.816H1210.59V390.267H1214.29V397.057C1214.91 392.89 1217.38 389.649 1221.4 389.649Z" fill="#00BFFF"/>
<path d="M1227.26 379.001H1231.59V385.328H1227.26V379.001ZM1227.57 390.266H1231.43V418.815H1227.57V390.266Z" fill="#00BFFF"/>
<path d="M1248.57 404.155L1244.09 409.556V418.815H1240.23V377.458H1244.09V404.927L1255.36 390.421H1260L1251.2 401.069L1260.46 418.97H1255.98L1248.57 404.155Z" fill="#00BFFF"/>
<path d="M1265.56 379.001H1269.88V385.328H1265.56V379.001ZM1265.86 390.266H1269.72V418.815H1265.86V390.266Z" fill="#00BFFF"/>
<path d="M1278.37 390.267H1282.08V395.976C1283.47 391.655 1286.09 389.495 1290.11 389.495C1295.2 389.495 1297.83 392.736 1297.83 399.217V418.816H1293.97V399.68C1293.97 395.205 1292.27 392.89 1288.72 392.89C1284.55 392.89 1282.39 396.285 1282.39 402.921V418.816H1278.53V390.267H1278.37Z" fill="#00BFFF"/>
<path d="M1320.06 391.501C1322.07 393.199 1323.15 395.822 1323.15 399.217C1323.15 405.236 1319.91 408.939 1313.89 408.939C1312.19 408.939 1310.8 408.631 1309.56 408.013C1308.48 408.476 1307.71 409.556 1307.71 410.791C1307.71 412.489 1308.94 413.569 1311.57 413.877L1317.9 414.495C1322.69 414.958 1325.77 417.735 1325.77 422.056C1325.77 427.458 1321.76 430.544 1314.19 430.544C1306.94 430.544 1303.23 427.457 1303.23 422.982C1303.23 420.05 1304.93 417.735 1308.02 416.809C1305.7 415.884 1304.47 414.186 1304.47 412.026C1304.47 409.556 1306.01 408.013 1308.33 407.242C1306.01 405.544 1304.78 402.766 1304.78 399.063C1304.78 393.199 1308.02 389.341 1314.04 389.341C1315.89 389.341 1317.44 389.649 1318.67 390.421C1319.44 387.489 1321.61 385.637 1324.69 385.637C1325.16 385.637 1325.47 385.637 1325.93 385.791V389.032C1325.31 388.878 1325 388.878 1324.38 388.878C1322.22 389.032 1320.83 389.958 1320.06 391.501ZM1310.64 417.427C1310.33 417.427 1310.03 417.427 1309.87 417.272C1307.86 418.198 1306.94 419.896 1306.94 422.056C1306.94 425.76 1309.72 427.612 1314.5 427.612C1319.75 427.612 1321.91 425.606 1321.91 422.211C1321.91 419.279 1320.37 417.89 1316.97 417.581L1310.64 417.427ZM1319.44 399.217C1319.44 394.588 1317.28 392.273 1314.04 392.273C1310.64 392.273 1308.48 394.742 1308.48 399.217C1308.48 403.847 1310.64 406.316 1314.04 406.316C1317.44 406.316 1319.44 403.847 1319.44 399.217Z" fill="#00BFFF"/>
<path d="M1347.08 418.815H1343.22V377.458H1347.08V418.815Z" fill="#00BFFF"/>
<path d="M1353.88 411.562C1353.88 408.63 1354.96 406.624 1356.66 405.235C1358.2 404.001 1360.52 403.075 1364.07 402.458L1369.47 401.532V399.526C1369.47 394.896 1367.93 392.89 1364.22 392.89C1360.05 392.89 1358.51 395.205 1358.51 399.526H1354.49C1354.65 392.273 1359.13 389.803 1364.22 389.803C1370.55 389.803 1373.33 392.736 1373.33 399.68V410.174C1373.33 413.877 1373.49 416.655 1373.95 418.97H1370.09C1369.94 417.272 1369.63 415.266 1369.63 413.569C1368.55 417.272 1365.61 419.741 1361.44 419.741C1356.81 419.433 1353.88 416.346 1353.88 411.562ZM1369.47 408.167V404.155L1363.91 405.235C1359.9 406.007 1357.89 407.705 1357.89 411.1C1357.89 414.495 1359.59 416.346 1362.83 416.346C1366.85 416.346 1369.47 413.106 1369.47 408.167Z" fill="#00BFFF"/>
<path d="M1379.51 404.464C1379.51 394.433 1383.06 389.495 1390.16 389.495C1395.88 389.495 1399.43 393.044 1399.58 399.834L1395.57 400.297C1395.41 395.205 1393.4 392.736 1390.01 392.736C1385.99 392.736 1383.52 395.822 1383.52 404.464C1383.52 412.951 1385.99 416.038 1390.16 416.038C1393.4 416.038 1395.57 413.569 1395.72 408.322L1399.74 408.939C1399.43 415.729 1395.57 419.433 1390.16 419.433C1383.52 419.433 1379.51 414.803 1379.51 404.464Z" fill="#00BFFF"/>
<path d="M1415.02 404.155L1410.54 409.556V418.815H1406.68V377.458H1410.54V404.927L1421.82 390.421H1426.45L1417.65 401.069L1426.91 418.97H1422.43L1415.02 404.155Z" fill="#00BFFF"/>
<path d="M1440.96 404.464C1440.96 393.97 1445.13 389.495 1451.77 389.495C1458.41 389.495 1462.58 393.97 1462.58 404.464C1462.58 414.958 1458.41 419.433 1451.77 419.433C1445.13 419.433 1440.96 414.958 1440.96 404.464ZM1458.41 404.464C1458.41 395.513 1455.63 392.581 1451.62 392.581C1447.76 392.581 1444.98 395.513 1444.98 404.464C1444.98 413.414 1447.76 416.347 1451.62 416.347C1455.63 416.347 1458.41 413.414 1458.41 404.464Z" fill="#00BFFF"/>
<path d="M1480.18 393.353H1474.01V418.816H1470.15V393.353H1465.67V390.267H1470.15V384.711C1470.15 379.927 1472.77 376.995 1477.25 376.995C1478.33 376.995 1479.26 377.149 1480.03 377.304V380.699C1479.26 380.544 1478.48 380.544 1477.87 380.544C1475.09 380.544 1473.85 381.933 1473.85 385.174V390.267H1480.03V393.353H1480.18Z" fill="#00BFFF"/>
<path d="M1494.85 390.267H1498.87L1503.19 411.717L1503.65 414.803H1503.81C1503.96 413.723 1504.12 412.797 1504.27 411.717L1508.9 390.267H1513.07L1517.7 411.717C1517.86 412.643 1518.17 413.723 1518.32 414.803H1518.48C1518.48 413.723 1518.78 412.643 1518.94 411.717L1523.26 390.267H1527.28L1520.64 418.816H1516.47L1511.68 397.057C1511.53 396.131 1511.37 394.896 1511.22 393.97H1511.06C1510.91 394.896 1510.75 396.131 1510.6 397.057L1505.81 418.816H1501.64L1494.85 390.267Z" fill="#00BFFF"/>
<path d="M1530.83 404.464C1530.83 393.97 1535 389.495 1541.64 389.495C1548.28 389.495 1552.44 393.97 1552.44 404.464C1552.44 414.958 1548.28 419.433 1541.64 419.433C1534.84 419.433 1530.83 414.958 1530.83 404.464ZM1548.28 404.464C1548.28 395.513 1545.5 392.581 1541.48 392.581C1537.62 392.581 1534.84 395.513 1534.84 404.464C1534.84 413.414 1537.62 416.347 1541.48 416.347C1545.5 416.347 1548.28 413.414 1548.28 404.464Z" fill="#00BFFF"/>
<path d="M1562.79 395.513C1563.87 391.655 1566.34 389.495 1569.89 389.495C1573.44 389.495 1575.61 391.501 1576.53 395.205C1577.92 391.501 1580.39 389.495 1583.79 389.495C1588.42 389.495 1590.89 392.581 1590.89 398.291V418.661H1587.03V399.063C1587.03 394.896 1585.49 392.736 1582.4 392.736C1578.85 392.736 1577 395.513 1577 400.76V418.661H1573.14V398.908C1573.14 394.896 1571.59 392.736 1568.5 392.736C1564.95 392.736 1562.95 395.822 1562.95 401.069V418.661H1559.08V390.112H1562.79V395.513Z" fill="#00BFFF"/>
<path d="M1617.61 405.236H1600.93C1601.08 412.951 1603.25 416.038 1607.72 416.038C1610.97 416.038 1613.44 414.186 1613.9 409.865L1617.45 410.791C1616.68 416.347 1612.97 419.433 1607.72 419.433C1601.39 419.433 1597.07 415.421 1597.07 404.464C1597.07 393.353 1601.55 389.495 1607.57 389.495C1613.9 389.495 1617.61 393.662 1617.61 402.149V405.236ZM1613.74 402.303C1613.74 395.359 1611.58 392.581 1607.72 392.581C1604.02 392.581 1601.24 394.588 1601.08 402.303H1613.74Z" fill="#00BFFF"/>
<path d="M1624.55 390.267H1628.26V395.976C1629.65 391.655 1632.27 389.495 1636.29 389.495C1641.38 389.495 1644.01 392.736 1644.01 399.217V418.816H1640.15V399.68C1640.15 395.205 1638.45 392.89 1634.9 392.89C1630.73 392.89 1628.57 396.285 1628.57 402.921V418.816H1624.71V390.267H1624.55Z" fill="#00BFFF"/>
<path d="M625.227 481.006C625.227 478.074 626.307 476.068 628.006 474.679C629.55 473.444 631.866 472.519 635.417 471.901L640.822 470.975V468.969C640.822 464.34 639.278 462.333 635.572 462.333C631.403 462.333 629.859 464.648 629.859 468.969H625.844C625.999 461.716 630.476 459.247 635.572 459.247C641.903 459.247 644.682 462.179 644.682 469.124V479.617C644.682 483.321 644.836 486.099 645.3 488.413H641.439C641.285 486.716 640.976 484.71 640.976 483.012C639.895 486.716 636.962 489.185 632.793 489.185C628.16 488.876 625.227 485.79 625.227 481.006ZM640.976 477.611V473.599L635.417 474.679C631.403 475.451 629.396 477.148 629.396 480.543C629.396 483.938 631.094 485.79 634.337 485.79C638.351 485.79 640.976 482.549 640.976 477.611Z" fill="#00BFFF"/>
<path d="M653.02 459.71H656.726V465.42C658.115 461.099 660.74 458.939 664.755 458.939C669.85 458.939 672.475 462.179 672.475 468.661V488.259H668.615V469.124C668.615 464.648 666.917 462.334 663.365 462.334C659.196 462.334 657.035 465.729 657.035 472.364V488.259H653.174V459.71H653.02Z" fill="#00BFFF"/>
<path d="M678.497 473.908C678.497 464.185 682.203 458.939 688.379 458.939C692.085 458.939 694.864 461.099 695.945 465.111V446.747H699.806V488.105H696.1V482.241C694.71 486.407 691.931 488.877 688.071 488.877C682.049 488.877 678.497 483.784 678.497 473.908ZM695.945 476.222V471.593C695.945 465.883 693.629 462.179 689.615 462.179C684.982 462.179 682.821 465.574 682.821 473.753C682.821 482.087 684.982 485.481 689.615 485.481C693.629 485.636 695.945 482.086 695.945 476.222Z" fill="#00BFFF"/>
<path d="M724.974 464.957C726.055 461.099 728.525 458.939 732.077 458.939C735.628 458.939 737.79 460.945 738.716 464.648C740.106 460.945 742.577 458.939 745.974 458.939C750.606 458.939 753.076 462.025 753.076 467.735V488.105H749.216V468.506C749.216 464.34 747.672 462.179 744.584 462.179C741.032 462.179 739.18 464.957 739.18 470.204V488.105H735.319V468.352C735.319 464.34 733.775 462.179 730.687 462.179C727.136 462.179 725.129 465.266 725.129 470.513V488.105H721.268V459.556H724.974V464.957Z" fill="#00BFFF"/>
<path d="M760.951 448.445H765.275V454.772H760.951V448.445ZM761.106 459.71H764.966V488.259H761.106V459.71Z" fill="#00BFFF"/>
<path d="M773.767 459.71H777.473V465.42C778.862 461.099 781.487 458.939 785.502 458.939C790.597 458.939 793.222 462.179 793.222 468.661V488.259H789.362V469.124C789.362 464.648 787.664 462.334 784.112 462.334C779.943 462.334 777.782 465.729 777.782 472.364V488.259H773.921V459.71H773.767Z" fill="#00BFFF"/>
<path d="M799.244 473.908C799.244 463.414 803.413 458.939 810.053 458.939C816.692 458.939 820.861 463.414 820.861 473.908C820.861 484.401 816.692 488.877 810.053 488.877C803.413 488.877 799.244 484.401 799.244 473.908ZM816.847 473.908C816.847 464.957 814.067 462.025 810.053 462.025C806.193 462.025 803.413 464.957 803.413 473.908C803.413 482.858 806.193 485.79 810.053 485.79C814.067 485.79 816.847 482.858 816.847 473.908Z" fill="#00BFFF"/>
<path d="M838.773 459.093C839.082 459.093 839.236 459.093 839.699 459.093V463.105C839.391 463.105 839.236 463.105 839.082 463.105C836.611 463.105 835.067 464.031 833.986 465.574C832.133 467.735 831.825 471.13 831.825 474.371V488.259H827.964V459.71H831.67V466.5C832.442 462.334 834.913 459.093 838.773 459.093Z" fill="#00BFFF"/>
<path d="M844.794 448.445H849.118V454.772H844.794V448.445ZM844.949 459.71H848.809V488.259H844.949V459.71Z" fill="#00BFFF"/>
<path d="M854.059 459.71H858.382V452.457L862.243 450.914V459.71H868.419V462.797H862.243V480.698C862.243 483.784 863.478 485.018 865.948 485.018C866.875 485.018 867.492 484.864 868.419 484.71V488.259C867.338 488.568 866.412 488.722 865.022 488.722C860.235 488.722 858.382 485.944 858.382 481.315V462.797H854.059V459.71Z" fill="#00BFFF"/>
<path d="M874.132 448.445H878.455V454.772H874.132V448.445ZM874.441 459.71H878.301V488.259H874.441V459.71Z" fill="#00BFFF"/>
<path d="M905.631 474.679H888.955C889.11 482.395 891.271 485.481 895.749 485.481C898.992 485.481 901.462 483.63 901.926 479.309L905.477 480.235C904.705 485.79 900.999 488.877 895.749 488.877C889.419 488.877 885.095 484.864 885.095 473.908C885.095 462.797 889.573 458.939 895.595 458.939C901.926 458.939 905.631 463.105 905.631 471.593V474.679ZM901.771 471.747C901.771 464.803 899.61 462.025 895.749 462.025C892.044 462.025 889.264 464.031 889.11 471.747H901.771Z" fill="#00BFFF"/>
<path d="M910.572 479L914.433 478.383C914.587 483.167 917.058 485.636 920.609 485.636C923.852 485.636 925.859 483.938 925.859 480.698C925.859 477.92 924.624 476.377 921.381 475.605L917.366 474.679C913.197 473.753 911.036 470.976 911.036 466.809C911.036 461.871 914.741 458.939 920.146 458.939C925.704 458.939 929.41 461.716 929.565 468.198L925.859 468.815C925.55 463.723 923.388 462.025 920.146 462.025C916.903 462.025 915.05 463.723 915.05 466.655C915.05 469.278 916.131 470.821 919.219 471.438L923.388 472.519C928.021 473.599 929.873 476.377 929.873 480.543C929.873 485.482 926.476 488.877 920.609 488.877C914.741 488.877 910.881 485.79 910.572 479Z" fill="#00BFFF"/>
<path d="M949.02 448.445H953.343V454.772H949.02V448.445ZM949.328 459.71H953.189V488.259H949.328V459.71Z" fill="#00BFFF"/>
<path d="M961.835 459.71H965.541V465.42C966.931 461.099 969.556 458.939 973.57 458.939C978.666 458.939 981.291 462.179 981.291 468.661V488.259H977.431V469.124C977.431 464.648 975.732 462.334 972.181 462.334C968.012 462.334 965.85 465.729 965.85 472.364V488.259H961.99V459.71H961.835Z" fill="#00BFFF"/>
<path d="M1001.67 448.445H1006V454.772H1001.67V448.445ZM1001.98 459.71H1005.84V488.259H1001.98V459.71Z" fill="#00BFFF"/>
<path d="M1011.09 459.71H1015.42V452.457L1019.28 450.914V459.71H1025.45V462.797H1019.28V480.698C1019.28 483.784 1020.51 485.018 1022.98 485.018C1023.91 485.018 1024.53 484.864 1025.45 484.71V488.259C1024.37 488.568 1023.44 488.722 1022.05 488.722C1017.27 488.722 1015.42 485.944 1015.42 481.315V462.797H1011.09V459.71Z" fill="#00BFFF"/>
<path d="M1029.16 479L1033.02 478.383C1033.17 483.167 1035.64 485.636 1039.19 485.636C1042.44 485.636 1044.44 483.938 1044.44 480.698C1044.44 477.92 1043.21 476.377 1039.97 475.605L1035.95 474.679C1031.78 473.753 1029.62 470.976 1029.62 466.809C1029.62 461.871 1033.33 458.939 1038.73 458.939C1044.29 458.939 1048 461.716 1048.15 468.198L1044.44 468.815C1044.14 463.723 1041.97 462.025 1038.73 462.025C1035.49 462.025 1033.64 463.723 1033.64 466.655C1033.64 469.278 1034.72 470.821 1037.8 471.438L1041.97 472.519C1046.61 473.599 1048.46 476.377 1048.46 480.543C1048.46 485.482 1045.06 488.877 1039.19 488.877C1033.33 488.877 1029.62 485.79 1029.16 479Z" fill="#00BFFF"/>
<path d="M1079.03 459.093C1079.34 459.093 1079.49 459.093 1079.96 459.093V463.105C1079.65 463.105 1079.49 463.105 1079.34 463.105C1076.87 463.105 1075.33 464.031 1074.24 465.574C1072.39 467.735 1072.08 471.13 1072.08 474.371V488.259H1068.22V459.71H1071.93V466.5C1072.55 462.334 1075.02 459.093 1079.03 459.093Z" fill="#00BFFF"/>
<path d="M1082.43 481.006C1082.43 478.074 1083.51 476.068 1085.21 474.679C1086.75 473.444 1089.07 472.519 1092.62 471.901L1098.02 470.975V468.969C1098.02 464.34 1096.48 462.333 1092.77 462.333C1088.6 462.333 1087.06 464.648 1087.06 468.969H1083.05C1083.2 461.716 1087.68 459.247 1092.77 459.247C1099.1 459.247 1101.88 462.179 1101.88 469.124V479.617C1101.88 483.321 1102.04 486.099 1102.5 488.413H1098.64C1098.49 486.716 1098.18 484.71 1098.18 483.012C1097.1 486.716 1094.16 489.185 1089.99 489.185C1085.36 488.876 1082.43 485.79 1082.43 481.006ZM1098.02 477.611V473.599L1092.46 474.679C1088.45 475.451 1086.44 477.148 1086.44 480.543C1086.44 483.938 1088.14 485.79 1091.38 485.79C1095.4 485.79 1098.02 482.549 1098.02 477.611Z" fill="#00BFFF"/>
<path d="M1110.07 459.71H1113.77V465.42C1115.16 461.099 1117.79 458.939 1121.8 458.939C1126.9 458.939 1129.52 462.179 1129.52 468.661V488.259H1125.66V469.124C1125.66 464.648 1123.96 462.334 1120.41 462.334C1116.24 462.334 1114.08 465.729 1114.08 472.364V488.259H1110.22V459.71H1110.07Z" fill="#00BFFF"/>
<path d="M1146.04 473.599L1141.57 479V488.259H1137.71V446.902H1141.57V474.37L1152.84 459.864H1157.47L1148.67 470.512L1157.93 488.413H1153.46L1146.04 473.599Z" fill="#00BFFF"/>
<path d="M1160.71 479L1164.57 478.383C1164.73 483.167 1167.2 485.636 1170.75 485.636C1173.99 485.636 1176 483.938 1176 480.698C1176 477.92 1174.76 476.377 1171.52 475.605L1167.51 474.679C1163.34 473.753 1161.18 470.976 1161.18 466.809C1161.18 461.871 1164.88 458.939 1170.29 458.939C1175.84 458.939 1179.55 461.716 1179.71 468.198L1176 468.815C1175.69 463.723 1173.53 462.025 1170.29 462.025C1167.04 462.025 1165.19 463.723 1165.19 466.655C1165.19 469.278 1166.27 470.821 1169.36 471.438L1173.53 472.519C1178.16 473.599 1180.01 476.377 1180.01 480.543C1180.01 485.482 1176.62 488.877 1170.75 488.877C1164.88 488.877 1161.18 485.79 1160.71 479Z" fill="#00BFFF"/>
<path d="M1185.11 493.66C1187.58 492.271 1187.89 491.037 1187.89 488.413V488.105H1185.26V481.932H1190.36V487.95C1190.36 492.117 1189.43 494.123 1186.19 495.666L1185.11 493.66Z" fill="#00BFFF"/>
<path d="M1211.05 446.902H1214.91V465.266C1215.99 461.253 1218.92 458.938 1222.78 458.938C1227.73 458.938 1230.35 462.179 1230.35 468.661V488.259H1226.49V468.969C1226.49 464.648 1224.79 462.333 1221.24 462.333C1217.07 462.333 1214.91 465.728 1214.91 472.364V488.259H1211.05V446.902Z" fill="#00BFFF"/>
<path d="M1236.37 481.006C1236.37 478.074 1237.45 476.068 1239.15 474.679C1240.7 473.444 1243.01 472.519 1246.56 471.901L1251.97 470.975V468.969C1251.97 464.34 1250.42 462.333 1246.72 462.333C1242.55 462.333 1241 464.648 1241 468.969H1236.99C1237.14 461.716 1241.62 459.247 1246.72 459.247C1253.05 459.247 1255.83 462.179 1255.83 469.124V479.617C1255.83 483.321 1255.98 486.099 1256.45 488.413H1252.59C1252.43 486.716 1252.12 484.71 1252.12 483.012C1251.04 486.716 1248.11 489.185 1243.94 489.185C1239.31 488.876 1236.37 485.79 1236.37 481.006ZM1251.97 477.611V473.599L1246.41 474.679C1242.39 475.451 1240.39 477.148 1240.39 480.543C1240.39 483.938 1242.09 485.79 1245.33 485.79C1249.34 485.79 1251.97 482.549 1251.97 477.611Z" fill="#00BFFF"/>
<path d="M1262 479L1265.86 478.383C1266.02 483.167 1268.49 485.636 1272.04 485.636C1275.28 485.636 1277.29 483.938 1277.29 480.698C1277.29 477.92 1276.06 476.377 1272.81 475.605L1268.8 474.679C1264.63 473.753 1262.47 470.976 1262.47 466.809C1262.47 461.871 1266.17 458.939 1271.58 458.939C1277.14 458.939 1280.84 461.716 1281 468.198L1277.29 468.815C1276.98 463.723 1274.82 462.025 1271.58 462.025C1268.33 462.025 1266.48 463.723 1266.48 466.655C1266.48 469.278 1267.56 470.821 1270.65 471.438L1274.82 472.519C1279.45 473.599 1281.31 476.377 1281.31 480.543C1281.31 485.482 1277.91 488.877 1272.04 488.877C1266.17 488.877 1262.31 485.79 1262 479Z" fill="#00BFFF"/>
<path d="M1298.75 479L1302.61 478.383C1302.77 483.167 1305.24 485.636 1308.79 485.636C1312.03 485.636 1314.04 483.938 1314.04 480.698C1314.04 477.92 1312.8 476.377 1309.56 475.605L1305.55 474.679C1301.38 473.753 1299.22 470.976 1299.22 466.809C1299.22 461.871 1302.92 458.939 1308.33 458.939C1313.89 458.939 1317.59 461.716 1317.75 468.198L1314.04 468.815C1313.73 463.723 1311.57 462.025 1308.33 462.025C1305.08 462.025 1303.23 463.723 1303.23 466.655C1303.23 469.278 1304.31 470.821 1307.4 471.438L1311.57 472.519C1316.2 473.599 1318.05 476.377 1318.05 480.543C1318.05 485.482 1314.66 488.877 1308.79 488.877C1302.92 488.877 1299.06 485.79 1298.75 479Z" fill="#00BFFF"/>
<path d="M1343.38 474.679H1326.7C1326.86 482.395 1329.02 485.481 1333.5 485.481C1336.74 485.481 1339.21 483.63 1339.67 479.309L1343.22 480.235C1342.45 485.79 1338.74 488.877 1333.5 488.877C1327.16 488.877 1322.84 484.864 1322.84 473.908C1322.84 462.797 1327.32 458.939 1333.34 458.939C1339.67 458.939 1343.38 463.105 1343.38 471.593V474.679ZM1339.36 471.747C1339.36 464.803 1337.2 462.025 1333.34 462.025C1329.63 462.025 1326.86 464.031 1326.7 471.747H1339.36Z" fill="#00BFFF"/>
<path d="M1346.16 459.71H1350.48V452.457L1354.34 450.914V459.71H1360.52V462.797H1354.34V480.698C1354.34 483.784 1355.58 485.018 1358.05 485.018C1358.97 485.018 1359.59 484.864 1360.52 484.71V488.259C1359.44 488.568 1358.51 488.722 1357.12 488.722C1352.33 488.722 1350.48 485.944 1350.48 481.315V462.797H1346.16V459.71Z" fill="#00BFFF"/>
<path d="M1377.35 473.908C1377.35 463.414 1381.52 458.939 1388.16 458.939C1394.79 458.939 1398.96 463.414 1398.96 473.908C1398.96 484.401 1394.79 488.877 1388.16 488.877C1381.36 488.877 1377.35 484.401 1377.35 473.908ZM1394.79 473.908C1394.79 464.957 1392.02 462.025 1388 462.025C1384.14 462.025 1381.36 464.957 1381.36 473.908C1381.36 482.858 1384.14 485.79 1388 485.79C1392.02 485.79 1394.79 482.858 1394.79 473.908Z" fill="#00BFFF"/>
<path d="M1416.57 462.797H1410.39V488.259H1406.53V462.797H1402.05V459.71H1406.53V454.155C1406.53 449.371 1409.15 446.439 1413.63 446.439C1414.71 446.439 1415.64 446.593 1416.41 446.747V450.142C1415.64 449.988 1414.87 449.988 1414.25 449.988C1411.47 449.988 1410.24 451.377 1410.24 454.618V459.71H1416.41V462.797H1416.57Z" fill="#00BFFF"/>
<path d="M1434.17 462.797H1427.99V488.259H1424.13V462.797H1419.65V459.71H1424.13V454.155C1424.13 449.371 1426.76 446.439 1431.23 446.439C1432.32 446.439 1433.24 446.593 1434.01 446.747V450.142C1433.24 449.988 1432.47 449.988 1431.85 449.988C1429.07 449.988 1427.84 451.377 1427.84 454.618V459.71H1434.01V462.797H1434.17Z" fill="#00BFFF"/>
<path d="M1450.23 481.006C1450.23 478.074 1451.31 476.068 1453.01 474.679C1454.55 473.444 1456.87 472.519 1460.42 471.901L1465.82 470.975V468.969C1465.82 464.34 1464.28 462.333 1460.57 462.333C1456.4 462.333 1454.86 464.648 1454.86 468.969H1451C1451.15 461.716 1455.63 459.247 1460.73 459.247C1467.06 459.247 1469.84 462.179 1469.84 469.124V479.617C1469.84 483.321 1469.99 486.099 1470.45 488.413H1466.59C1466.44 486.716 1466.13 484.71 1466.13 483.012C1465.05 486.716 1462.12 489.185 1457.95 489.185C1453.16 488.876 1450.23 485.79 1450.23 481.006ZM1465.98 477.611V473.599L1460.42 474.679C1456.4 475.451 1454.4 477.148 1454.4 480.543C1454.4 483.938 1456.09 485.79 1459.34 485.79C1463.35 485.79 1465.98 482.549 1465.98 477.611Z" fill="#00BFFF"/>
<path d="M1490.53 459.71H1494.23V465.42C1495.62 461.099 1498.25 458.939 1502.26 458.939C1507.36 458.939 1509.98 462.179 1509.98 468.661V488.259H1506.12V469.124C1506.12 464.648 1504.42 462.334 1500.87 462.334C1496.7 462.334 1494.54 465.729 1494.54 472.364V488.259H1490.68V459.71H1490.53Z" fill="#00BFFF"/>
<path d="M1536.7 474.679H1520.02C1520.17 482.395 1522.34 485.481 1526.81 485.481C1530.06 485.481 1532.53 483.63 1532.99 479.309L1536.54 480.235C1535.77 485.79 1532.06 488.877 1526.81 488.877C1520.48 488.877 1516.16 484.864 1516.16 473.908C1516.16 462.797 1520.64 458.939 1526.66 458.939C1532.99 458.939 1536.7 463.105 1536.7 471.593V474.679ZM1532.68 471.747C1532.68 464.803 1530.52 462.025 1526.66 462.025C1522.95 462.025 1520.17 464.031 1520.02 471.747H1532.68Z" fill="#00BFFF"/>
<path d="M1540.25 459.71H1544.26L1548.59 481.161L1549.05 484.247H1549.2C1549.36 483.167 1549.51 482.241 1549.67 481.161L1554.3 459.71H1558.47L1563.1 481.161C1563.25 482.086 1563.56 483.167 1563.72 484.247H1563.87C1563.87 483.167 1564.18 482.086 1564.33 481.161L1568.66 459.71H1572.67L1566.03 488.259H1561.86L1557.08 466.5C1556.92 465.574 1556.77 464.34 1556.61 463.414H1556.46C1556.31 464.34 1556.15 465.574 1556 466.5L1551.21 488.259H1547.04L1540.25 459.71Z" fill="#00BFFF"/>
<path d="M625.536 543.351C625.536 533.32 629.087 528.382 636.19 528.382C641.903 528.382 645.454 531.932 645.609 538.722L641.594 539.185C641.44 534.092 639.432 531.623 636.035 531.623C632.021 531.623 629.55 534.709 629.55 543.351C629.55 551.839 632.021 554.925 636.19 554.925C639.432 554.925 641.594 552.456 641.748 547.209L645.763 547.826C645.454 554.616 641.594 558.32 636.19 558.32C629.396 558.32 625.536 553.691 625.536 543.351Z" fill="#00BFFF"/>
<path d="M650.55 543.351C650.55 532.857 654.719 528.382 661.358 528.382C667.998 528.382 672.167 532.857 672.167 543.351C672.167 553.845 667.998 558.32 661.358 558.32C654.719 558.32 650.55 553.845 650.55 543.351ZM668.152 543.351C668.152 534.401 665.373 531.469 661.358 531.469C657.498 531.469 654.719 534.401 654.719 543.351C654.719 552.302 657.498 555.234 661.358 555.234C665.218 555.234 668.152 552.302 668.152 543.351Z" fill="#00BFFF"/>
<path d="M678.961 529.154H682.667V534.864C684.056 530.543 686.681 528.382 690.696 528.382C695.791 528.382 698.416 531.623 698.416 538.104V557.703H694.402V538.567C694.402 534.092 692.703 531.777 689.152 531.777C684.983 531.777 682.821 535.172 682.821 541.808V557.703H678.961V529.154Z" fill="#00BFFF"/>
<path d="M702.43 529.154H706.754V521.901L710.614 520.358V529.154H716.79V532.24H710.614V550.141C710.614 553.228 711.849 554.462 714.32 554.462C715.246 554.462 715.864 554.308 716.79 554.153V557.703C715.71 558.011 714.783 558.166 713.393 558.166C708.607 558.166 706.754 555.388 706.754 550.758V532.24H702.43V529.154Z" fill="#00BFFF"/>
<path d="M733.776 528.537C734.084 528.537 734.239 528.537 734.702 528.537V532.549C734.393 532.549 734.239 532.549 734.084 532.549C731.614 532.549 730.07 533.475 728.989 535.018C727.136 537.178 726.827 540.573 726.827 543.814V557.703H722.967V529.154H726.673V535.944C727.291 531.777 729.761 528.537 733.776 528.537Z" fill="#00BFFF"/>
<path d="M737.327 543.351C737.327 532.857 741.496 528.382 748.135 528.382C754.775 528.382 758.944 532.857 758.944 543.351C758.944 553.845 754.775 558.32 748.135 558.32C741.496 558.32 737.327 553.845 737.327 543.351ZM754.929 543.351C754.929 534.401 752.15 531.469 748.135 531.469C744.275 531.469 741.496 534.401 741.496 543.351C741.496 552.302 744.275 555.234 748.135 555.234C752.15 555.234 754.929 552.302 754.929 543.351Z" fill="#00BFFF"/>
<path d="M761.414 529.154H765.583L771.142 549.37C771.605 550.913 771.76 552.302 772.068 553.536H772.223C772.377 552.302 772.686 550.913 773.149 549.37L778.708 529.154H782.877L774.385 557.703H770.061L761.414 529.154Z" fill="#00BFFF"/>
<path d="M805.73 544.123H789.053C789.208 551.839 791.37 554.925 795.847 554.925C799.09 554.925 801.561 553.073 802.024 548.752L805.575 549.678C804.803 555.234 801.097 558.32 795.847 558.32C789.517 558.32 785.193 554.308 785.193 543.351C785.193 532.24 789.671 528.382 795.693 528.382C802.024 528.382 805.73 532.549 805.73 541.036V544.123ZM801.869 541.191C801.869 534.246 799.708 531.469 795.847 531.469C792.142 531.469 789.362 533.475 789.208 541.191H801.869Z" fill="#00BFFF"/>
<path d="M823.795 528.537C824.104 528.537 824.258 528.537 824.722 528.537V532.549C824.413 532.549 824.258 532.549 824.104 532.549C821.634 532.549 820.089 533.475 819.009 535.018C817.156 537.178 816.847 540.573 816.847 543.814V557.703H812.987V529.154H816.692V535.944C817.31 531.777 819.781 528.537 823.795 528.537Z" fill="#00BFFF"/>
<path d="M827.655 548.444L831.516 547.826C831.67 552.61 834.141 555.079 837.692 555.079C840.934 555.079 842.942 553.382 842.942 550.141C842.942 547.363 841.707 545.82 838.464 545.049L834.449 544.123C830.28 543.197 828.119 540.419 828.119 536.252C828.119 531.314 831.824 528.382 837.229 528.382C842.787 528.382 846.493 531.16 846.648 537.641L842.942 538.259C842.633 533.166 840.471 531.469 837.229 531.469C833.986 531.469 832.133 533.166 832.133 536.098C832.133 538.722 833.214 540.265 836.302 540.882L840.471 541.962C845.104 543.043 846.956 545.82 846.956 549.987C846.956 554.925 843.559 558.32 837.692 558.32C831.824 558.32 827.964 555.234 827.655 548.444Z" fill="#00BFFF"/>
<path d="M850.662 568.968V565.419C851.279 565.573 851.897 565.573 852.206 565.573C855.294 565.573 856.838 563.721 857.919 560.172L858.537 557.703L849.118 529.154H853.441L859.463 549.678C859.926 551.067 860.081 552.302 860.389 553.536H860.544C860.698 552.302 861.007 551.067 861.47 549.833L867.029 529.154H871.044L861.779 560.481C859.772 566.962 856.993 569.277 852.669 569.277C852.206 569.122 851.434 569.122 850.662 568.968Z" fill="#00BFFF"/>
<path d="M891.425 551.993L890.962 557.703H887.72V516.345H891.58V535.172C892.815 530.851 895.749 528.536 899.609 528.536C905.631 528.536 909.028 533.32 909.028 543.505C909.028 553.382 905.322 558.474 898.991 558.474C895.44 558.32 892.506 555.851 891.425 551.993ZM904.705 543.351C904.705 535.326 902.543 531.777 898.219 531.777C894.05 531.777 891.425 535.481 891.425 541.036V545.82C891.425 551.53 894.05 555.079 898.219 555.079C902.543 555.079 904.705 551.53 904.705 543.351Z" fill="#00BFFF"/>
<path d="M912.889 568.968V565.419C913.506 565.573 914.124 565.573 914.433 565.573C917.521 565.573 919.065 563.721 920.146 560.172L920.763 557.703L911.345 529.154H915.668L921.69 549.678C922.153 551.067 922.307 552.302 922.616 553.536H922.771C922.925 552.302 923.234 551.067 923.697 549.833L929.256 529.154H933.27L924.006 560.481C921.999 566.962 919.219 569.277 914.896 569.277C914.433 569.122 913.661 569.122 912.889 568.968Z" fill="#00BFFF"/>
<path d="M949.946 516.345H953.807V534.709C954.888 530.697 957.821 528.382 961.681 528.382C966.622 528.382 969.247 531.623 969.247 538.104V557.703H965.387V538.413C965.387 534.092 963.689 531.777 960.137 531.777C955.968 531.777 953.807 535.172 953.807 541.808V557.703H949.946V516.345Z" fill="#00BFFF"/>
<path d="M977.122 517.888H981.445V524.215H977.122V517.888ZM977.276 529.154H981.137V557.703H977.276V529.154Z" fill="#00BFFF"/>
<path d="M1001.06 528.537C1001.36 528.537 1001.52 528.537 1001.98 528.537V532.549C1001.67 532.549 1001.52 532.549 1001.36 532.549C998.893 532.549 997.349 533.475 996.269 535.018C994.416 537.178 994.107 540.573 994.107 543.814V557.703H990.247V529.154H993.952V535.944C994.57 531.777 997.041 528.537 1001.06 528.537Z" fill="#00BFFF"/>
<path d="M1006.92 517.888H1011.25V524.215H1006.92V517.888ZM1007.08 529.154H1010.94V557.703H1007.08V529.154Z" fill="#00BFFF"/>
<path d="M1019.74 529.154H1023.44V534.864C1024.83 530.543 1027.46 528.382 1031.47 528.382C1036.57 528.382 1039.19 531.623 1039.19 538.104V557.703H1035.33V538.567C1035.33 534.092 1033.63 531.777 1030.08 531.777C1025.91 531.777 1023.75 535.172 1023.75 541.808V557.703H1019.89V529.154H1019.74Z" fill="#00BFFF"/>
<path d="M1061.43 530.388C1063.44 532.086 1064.52 534.709 1064.52 538.104C1064.52 544.123 1061.27 547.826 1055.25 547.826C1053.55 547.826 1052.16 547.518 1050.93 546.9C1049.85 547.363 1049.08 548.444 1049.08 549.678C1049.08 551.376 1050.31 552.456 1052.94 552.765L1059.27 553.382C1064.05 553.845 1067.14 556.623 1067.14 560.943C1067.14 566.345 1063.13 569.431 1055.56 569.431C1048.3 569.431 1044.6 566.345 1044.6 561.869C1044.6 558.937 1046.3 556.623 1049.38 555.697C1047.07 554.771 1045.83 553.073 1045.83 550.913C1045.83 548.444 1047.38 546.9 1049.69 546.129C1047.38 544.431 1046.14 541.654 1046.14 537.95C1046.14 532.086 1049.38 528.228 1055.41 528.228C1057.26 528.228 1058.8 528.537 1060.04 529.308C1060.81 526.376 1062.97 524.524 1066.06 524.524C1066.52 524.524 1066.83 524.524 1067.3 524.679V527.919C1066.68 527.765 1066.37 527.765 1065.75 527.765C1063.59 527.919 1062.2 528.845 1061.43 530.388ZM1052.01 556.314C1051.7 556.314 1051.39 556.314 1051.24 556.16C1049.23 557.086 1048.3 558.783 1048.3 560.943C1048.3 564.647 1051.08 566.499 1055.87 566.499C1061.12 566.499 1063.28 564.493 1063.28 561.098C1063.28 558.166 1061.74 556.777 1058.34 556.468L1052.01 556.314ZM1060.66 538.104C1060.66 533.475 1058.49 531.16 1055.25 531.16C1051.86 531.16 1049.69 533.629 1049.69 538.104C1049.69 542.734 1051.86 545.203 1055.25 545.203C1058.49 545.203 1060.66 542.734 1060.66 538.104Z" fill="#00BFFF"/>
<path d="M1082.27 550.45C1082.27 547.518 1083.35 545.511 1085.05 544.123C1086.6 542.888 1088.91 541.962 1092.46 541.345L1097.87 540.419V538.413C1097.87 533.783 1096.32 531.777 1092.62 531.777C1088.45 531.777 1086.91 534.092 1086.91 538.413H1082.89C1083.05 531.16 1087.52 528.691 1092.62 528.691C1098.95 528.691 1101.73 531.623 1101.73 538.567V549.061C1101.73 552.764 1101.88 555.542 1102.35 557.857H1098.49C1098.33 556.16 1098.02 554.153 1098.02 552.456C1096.94 556.16 1094.01 558.629 1089.84 558.629C1085.21 558.32 1082.27 555.234 1082.27 550.45ZM1097.87 547.055V543.042L1092.31 544.123C1088.3 544.894 1086.29 546.592 1086.29 549.987C1086.29 553.382 1087.99 555.234 1091.23 555.234C1095.24 555.234 1097.87 551.993 1097.87 547.055Z" fill="#00BFFF"/>
<path d="M1119.02 529.154H1123.04L1127.36 550.604L1127.82 553.691H1127.98C1128.13 552.61 1128.29 551.684 1128.44 550.604L1133.07 529.154H1137.24L1141.88 550.604C1142.03 551.53 1142.34 552.61 1142.49 553.691H1142.65C1142.65 552.61 1142.96 551.53 1143.11 550.604L1147.43 529.154H1151.45L1144.81 557.703H1140.64L1135.85 535.944C1135.7 535.018 1135.54 533.783 1135.39 532.857H1135.24C1135.08 533.783 1134.93 535.018 1134.77 535.944L1129.99 557.703H1125.82L1119.02 529.154Z" fill="#00BFFF"/>
<path d="M1157.32 516.345H1161.18V534.709C1162.26 530.697 1165.19 528.382 1169.05 528.382C1173.99 528.382 1176.62 531.623 1176.62 538.104V557.703H1172.76V538.413C1172.76 534.092 1171.06 531.777 1167.51 531.777C1163.34 531.777 1161.18 535.172 1161.18 541.808V557.703H1157.32V516.345Z" fill="#00BFFF"/>
<path d="M1184.49 517.888H1188.81V524.215H1184.49V517.888ZM1184.8 529.154H1188.66V557.703H1184.8V529.154Z" fill="#00BFFF"/>
<path d="M1193.91 529.154H1198.23V521.901L1202.09 520.358V529.154H1208.27V532.24H1202.09V550.141C1202.09 553.228 1203.33 554.462 1205.8 554.462C1206.73 554.462 1207.34 554.308 1208.27 554.153V557.703C1207.19 558.011 1206.26 558.166 1204.87 558.166C1200.09 558.166 1198.23 555.388 1198.23 550.758V532.24H1193.91V529.154Z" fill="#00BFFF"/>
<path d="M1232.2 544.123H1215.53C1215.68 551.839 1217.84 554.925 1222.32 554.925C1225.56 554.925 1228.03 553.073 1228.5 548.752L1232.05 549.678C1231.28 555.234 1227.57 558.32 1222.32 558.32C1215.99 558.32 1211.67 554.308 1211.67 543.351C1211.67 532.24 1216.15 528.382 1222.17 528.382C1228.5 528.382 1232.2 532.549 1232.2 541.036V544.123ZM1228.19 541.191C1228.19 534.246 1226.03 531.469 1222.17 531.469C1218.46 531.469 1215.68 533.475 1215.53 541.191H1228.19Z" fill="#00BFFF"/>
<path d="M1255.36 534.401C1256.45 530.543 1258.92 528.382 1262.47 528.382C1266.02 528.382 1268.18 530.388 1269.11 534.092C1270.5 530.388 1272.97 528.382 1276.36 528.382C1281 528.382 1283.47 531.469 1283.47 537.178V557.549H1279.61V537.95C1279.61 533.783 1278.06 531.623 1274.97 531.623C1271.42 531.623 1269.57 534.401 1269.57 539.647V557.549H1265.71V537.796C1265.71 533.783 1264.17 531.623 1261.08 531.623C1257.53 531.623 1255.52 534.709 1255.52 539.956V557.549H1251.66V528.999H1255.36V534.401Z" fill="#00BFFF"/>
<path d="M1289.49 550.45C1289.49 547.518 1290.57 545.511 1292.27 544.123C1293.81 542.888 1296.13 541.962 1299.68 541.345L1305.08 540.419V538.413C1305.08 533.783 1303.54 531.777 1299.83 531.777C1295.66 531.777 1294.12 534.092 1294.12 538.413H1290.11C1290.26 531.16 1294.74 528.691 1299.83 528.691C1306.16 528.691 1308.94 531.623 1308.94 538.567V549.061C1308.94 552.764 1309.1 555.542 1309.56 557.857H1305.7C1305.55 556.16 1305.24 554.153 1305.24 552.456C1304.16 556.16 1301.22 558.629 1297.05 558.629C1292.42 558.32 1289.49 555.234 1289.49 550.45ZM1305.08 547.055V543.042L1299.53 544.123C1295.51 544.894 1293.5 546.592 1293.5 549.987C1293.5 553.382 1295.2 555.234 1298.44 555.234C1302.46 555.234 1305.08 551.993 1305.08 547.055Z" fill="#00BFFF"/>
<path d="M1317.13 529.154H1320.83V534.864C1322.22 530.543 1324.85 528.382 1328.86 528.382C1333.96 528.382 1336.58 531.623 1336.58 538.104V557.703H1332.72V538.567C1332.72 534.092 1331.02 531.777 1327.47 531.777C1323.3 531.777 1321.14 535.172 1321.14 541.808V557.703H1317.28V529.154H1317.13Z" fill="#00BFFF"/>
<path d="M1353.1 529.154H1357.43V521.901L1361.29 520.358V529.154H1367.46V532.24H1361.29V550.141C1361.29 553.228 1362.52 554.462 1364.99 554.462C1365.92 554.462 1366.54 554.308 1367.46 554.153V557.703C1366.38 558.011 1365.46 558.166 1364.07 558.166C1359.28 558.166 1357.43 555.388 1357.43 550.758V532.24H1353.1V529.154Z" fill="#00BFFF"/>
<path d="M1370.86 543.351C1370.86 532.857 1375.03 528.382 1381.67 528.382C1388.31 528.382 1392.48 532.857 1392.48 543.351C1392.48 553.845 1388.31 558.32 1381.67 558.32C1375.03 558.32 1370.86 553.845 1370.86 543.351ZM1388.31 543.351C1388.31 534.401 1385.53 531.469 1381.52 531.469C1377.66 531.469 1374.88 534.401 1374.88 543.351C1374.88 552.302 1377.66 555.234 1381.52 555.234C1385.53 555.234 1388.31 552.302 1388.31 543.351Z" fill="#00BFFF"/>
<path d="M1416.1 557.703H1412.24V516.345H1416.1V557.703Z" fill="#00BFFF"/>
<path d="M1443.59 544.123H1426.91C1427.07 551.839 1429.23 554.925 1433.71 554.925C1436.95 554.925 1439.42 553.073 1439.88 548.752L1443.43 549.678C1442.66 555.234 1438.96 558.32 1433.71 558.32C1427.37 558.32 1423.05 554.308 1423.05 543.351C1423.05 532.24 1427.53 528.382 1433.55 528.382C1439.88 528.382 1443.59 532.549 1443.59 541.036V544.123ZM1439.57 541.191C1439.57 534.246 1437.41 531.469 1433.55 531.469C1429.85 531.469 1427.07 533.475 1426.91 541.191H1439.57Z" fill="#00BFFF"/>
<path d="M1448.37 550.45C1448.37 547.518 1449.46 545.511 1451.15 544.123C1452.7 542.888 1455.01 541.962 1458.57 541.345L1463.97 540.419V538.413C1463.97 533.783 1462.43 531.777 1458.72 531.777C1454.55 531.777 1453.01 534.092 1453.01 538.413H1448.99C1449.15 531.16 1453.62 528.691 1458.72 528.691C1465.05 528.691 1467.83 531.623 1467.83 538.567V549.061C1467.83 552.764 1467.98 555.542 1468.45 557.857H1464.59C1464.43 556.16 1464.12 554.153 1464.12 552.456C1463.04 556.16 1460.11 558.629 1455.94 558.629C1451.15 558.32 1448.37 555.234 1448.37 550.45ZM1463.97 547.055V543.042L1458.41 544.123C1454.4 544.894 1452.39 546.592 1452.39 549.987C1452.39 553.382 1454.09 555.234 1457.33 555.234C1461.34 555.234 1463.97 551.993 1463.97 547.055Z" fill="#00BFFF"/>
<path d="M1474.01 543.351C1474.01 533.629 1477.71 528.382 1483.89 528.382C1487.59 528.382 1490.37 530.543 1491.45 534.555V516.191H1495.31V557.549H1491.61V551.684C1490.22 555.851 1487.44 558.32 1483.58 558.32C1477.56 558.32 1474.01 553.228 1474.01 543.351ZM1491.45 545.666V541.036C1491.45 535.327 1489.14 531.623 1485.12 531.623C1480.49 531.623 1478.33 535.018 1478.33 543.197C1478.33 551.53 1480.49 554.925 1485.12 554.925C1489.14 555.079 1491.45 551.53 1491.45 545.666Z" fill="#00BFFF"/>
<path d="M1516.62 517.888H1520.95V524.215H1516.62V517.888ZM1516.93 529.154H1520.79V557.703H1516.93V529.154Z" fill="#00BFFF"/>
<path d="M1525.89 529.154H1530.21V521.901L1534.07 520.358V529.154H1540.25V532.24H1534.07V550.141C1534.07 553.228 1535.31 554.462 1537.78 554.462C1538.7 554.462 1539.32 554.308 1540.25 554.153V557.703C1539.17 558.011 1538.24 558.166 1536.85 558.166C1532.06 558.166 1530.21 555.388 1530.21 550.758V532.24H1525.89V529.154Z" fill="#00BFFF"/>
<path d="M1544.11 548.444L1547.97 547.826C1548.12 552.61 1550.59 555.079 1554.14 555.079C1557.39 555.079 1559.39 553.382 1559.39 550.141C1559.39 547.363 1558.16 545.82 1554.92 545.049L1550.9 544.123C1546.73 543.197 1544.57 540.419 1544.57 536.252C1544.57 531.314 1548.28 528.382 1553.68 528.382C1559.24 528.382 1562.94 531.16 1563.1 537.641L1559.39 538.259C1559.08 533.166 1556.92 531.469 1553.68 531.469C1550.44 531.469 1548.59 533.166 1548.59 536.098C1548.59 538.722 1549.67 540.265 1552.75 540.882L1556.92 541.962C1561.56 543.043 1563.41 545.82 1563.41 549.987C1563.41 554.925 1560.01 558.32 1554.14 558.32C1548.28 558.32 1544.42 555.234 1544.11 548.444Z" fill="#00BFFF"/>
<path d="M1581.01 543.351C1581.01 533.629 1584.72 528.382 1590.89 528.382C1594.6 528.382 1597.38 530.543 1598.46 534.555V516.191H1602.32V557.549H1598.61V551.684C1597.22 555.851 1594.44 558.32 1590.58 558.32C1584.41 558.32 1581.01 553.228 1581.01 543.351ZM1598.46 545.666V541.036C1598.46 535.327 1596.14 531.623 1592.13 531.623C1587.5 531.623 1585.33 535.018 1585.33 543.197C1585.33 551.53 1587.5 554.925 1592.13 554.925C1595.99 555.079 1598.46 551.53 1598.46 545.666Z" fill="#00BFFF"/>
<path d="M1610.97 517.888H1615.29V524.215H1610.97V517.888ZM1611.12 529.154H1614.98V557.703H1611.12V529.154Z" fill="#00BFFF"/>
<path d="M1635.98 539.956V543.66H1621.77V539.956H1635.98Z" fill="#00BFFF"/>
<path d="M623.528 598.597H627.697L633.256 618.813C633.719 620.356 633.874 621.745 634.182 622.98H634.337C634.491 621.745 634.8 620.356 635.263 618.813L640.822 598.597H644.991L636.499 627.146H632.33L623.528 598.597Z" fill="#00BFFF"/>
<path d="M667.998 613.566H651.322C651.476 621.282 653.638 624.369 658.116 624.369C661.358 624.369 663.829 622.517 664.292 618.196L667.843 619.122C667.071 624.677 663.366 627.764 658.116 627.764C651.785 627.764 647.462 623.751 647.462 612.795C647.462 601.684 651.939 597.826 657.961 597.826C664.292 597.826 667.998 601.992 667.998 610.48V613.566ZM663.983 610.634C663.983 603.69 661.821 600.912 657.961 600.912C654.255 600.912 651.476 602.918 651.322 610.634H663.983Z" fill="#00BFFF"/>
<path d="M685.909 597.98C686.218 597.98 686.372 597.98 686.836 597.98V601.992C686.527 601.992 686.372 601.992 686.218 601.992C683.748 601.992 682.203 602.918 681.123 604.462C679.27 606.622 678.961 610.017 678.961 613.258V627.146H675.101V598.597H678.807V605.388C679.579 601.221 681.895 597.98 685.909 597.98Z" fill="#00BFFF"/>
<path d="M689.924 617.887L693.784 617.27C693.938 622.054 696.409 624.523 699.96 624.523C703.203 624.523 705.21 622.826 705.21 619.585C705.21 616.807 703.975 615.264 700.732 614.492L696.718 613.566C692.549 612.64 690.387 609.863 690.387 605.696C690.387 600.758 694.093 597.826 699.497 597.826C705.056 597.826 708.761 600.604 708.916 607.085L705.21 607.702C704.901 602.61 702.74 600.912 699.497 600.912C696.254 600.912 694.401 602.61 694.401 605.542C694.401 608.165 695.482 609.708 698.57 610.326L702.739 611.406C707.372 612.486 709.225 615.264 709.225 619.43C709.225 624.369 705.828 627.764 699.96 627.764C694.093 627.764 690.232 624.677 689.924 617.887Z" fill="#00BFFF"/>
<path d="M715.555 587.332H719.879V593.659H715.555V587.332ZM715.864 598.597H719.724V627.146H715.864V598.597Z" fill="#00BFFF"/>
<path d="M724.974 598.597H729.298V591.344L733.158 589.801V598.597H739.334V601.684H733.158V619.585C733.158 622.671 734.393 623.906 736.864 623.906C737.79 623.906 738.408 623.751 739.334 623.597V627.146C738.253 627.455 737.327 627.609 735.937 627.609C731.151 627.609 729.298 624.832 729.298 620.202V601.684H724.974V598.597Z" fill="#00BFFF"/>
<path d="M743.657 638.412V634.862C744.275 635.017 744.893 635.017 745.201 635.017C748.29 635.017 749.834 633.165 750.915 629.616L751.532 627.146L742.113 598.597H746.437L752.459 619.122C752.922 620.511 753.076 621.745 753.385 622.98H753.54C753.694 621.745 754.003 620.511 754.466 619.276L760.025 598.597H764.039L754.775 629.924C752.767 636.406 749.988 638.72 745.665 638.72C745.201 638.566 744.584 638.566 743.657 638.412Z" fill="#00BFFF"/>
<path d="M799.244 613.566H782.568C782.723 621.282 784.884 624.369 789.362 624.369C792.605 624.369 795.075 622.517 795.539 618.196L799.09 619.122C798.318 624.677 794.612 627.764 789.362 627.764C783.031 627.764 778.708 623.751 778.708 612.795C778.708 601.684 783.186 597.826 789.208 597.826C795.539 597.826 799.244 601.992 799.244 610.48V613.566ZM795.384 610.634C795.384 603.69 793.222 600.912 789.362 600.912C785.656 600.912 782.877 602.918 782.723 610.634H795.384Z" fill="#00BFFF"/>
<path d="M816.847 601.684H810.671V627.146H806.811V601.684H802.487V598.597H806.965V593.042C806.965 588.258 809.59 585.326 814.068 585.326C815.149 585.326 816.075 585.48 816.847 585.635V589.03C816.075 588.875 815.303 588.875 814.685 588.875C811.906 588.875 810.671 590.264 810.671 593.505V598.597H816.847V601.684Z" fill="#00BFFF"/>
<path d="M834.604 601.684H828.427V627.146H824.567V601.684H820.089V598.597H824.567V593.042C824.567 588.258 827.192 585.326 831.67 585.326C832.751 585.326 833.677 585.48 834.449 585.635V589.03C833.677 588.875 832.905 588.875 832.287 588.875C829.508 588.875 828.273 590.264 828.273 593.505V598.597H834.449V601.684H834.604Z" fill="#00BFFF"/>
<path d="M837.229 612.795C837.229 602.301 841.398 597.826 848.037 597.826C854.677 597.826 858.846 602.301 858.846 612.795C858.846 623.288 854.677 627.764 848.037 627.764C841.243 627.764 837.229 623.288 837.229 612.795ZM854.677 612.795C854.677 603.844 851.898 600.912 847.883 600.912C844.023 600.912 841.243 603.844 841.243 612.795C841.243 621.745 844.023 624.677 847.883 624.677C851.898 624.677 854.677 621.745 854.677 612.795Z" fill="#00BFFF"/>
<path d="M876.757 597.98C877.066 597.98 877.22 597.98 877.683 597.98V601.992C877.375 601.992 877.22 601.992 877.066 601.992C874.595 601.992 873.051 602.918 871.97 604.462C870.117 606.622 869.809 610.017 869.809 613.258V627.146H865.948V598.597H869.654V605.388C870.272 601.221 872.742 597.98 876.757 597.98Z" fill="#00BFFF"/>
<path d="M880.771 598.597H885.095V591.344L888.955 589.801V598.597H895.131V601.684H888.955V619.585C888.955 622.671 890.19 623.906 892.661 623.906C893.587 623.906 894.205 623.751 895.131 623.597V627.146C894.05 627.455 893.124 627.609 891.734 627.609C886.948 627.609 885.095 624.832 885.095 620.202V601.684H880.771V598.597Z" fill="#00BFFF"/>
<path d="M898.992 617.887L902.852 617.27C903.007 622.054 905.477 624.523 909.028 624.523C912.271 624.523 914.278 622.826 914.278 619.585C914.278 616.807 913.043 615.264 909.8 614.492L905.786 613.566C901.617 612.64 899.455 609.863 899.455 605.696C899.455 600.758 903.161 597.826 908.565 597.826C914.124 597.826 917.83 600.604 917.984 607.085L914.278 607.702C913.969 602.61 911.808 600.912 908.565 600.912C905.323 600.912 903.47 602.61 903.47 605.542C903.47 608.165 904.551 609.708 907.639 610.326L911.808 611.406C916.44 612.486 918.293 615.264 918.293 619.43C918.293 624.369 914.896 627.764 909.028 627.764C903.161 627.764 899.301 624.677 898.992 617.887Z" fill="#00BFFF"/>
<path d="M928.484 627.146H923.388V620.974H928.484V627.146Z" fill="#00BFFF"/>
</g>
<g id="Vector_13">
<path d="M630.323 713.257C629.396 714.954 627.08 716.034 625.073 716.034H624.146V714.028H624.919C627.698 714.028 630.168 712.176 630.786 708.936H632.639V740.108H630.477V713.257H630.323Z" fill="#00BFFF"/>
<path d="M639.587 731.158L641.903 731.003C641.903 736.25 644.374 738.874 648.234 738.874C652.094 738.874 654.41 736.867 654.41 731.775C654.41 726.991 652.094 724.831 648.234 724.831H646.381V722.824H647.925C651.477 722.824 653.638 720.818 653.638 716.189C653.638 711.868 651.477 710.17 648.08 710.17C644.219 710.17 642.058 712.485 642.058 717.886L639.742 717.578C639.742 711.559 642.675 708.164 648.08 708.164C653.021 708.164 655.954 710.633 655.954 716.034C655.954 720.355 653.947 722.979 650.859 723.596C654.565 724.059 656.727 726.837 656.727 731.621C656.727 737.793 653.484 740.571 648.234 740.571C642.83 740.725 639.587 737.485 639.587 731.158Z" fill="#00BFFF"/>
<path d="M672.939 708.318H676.336L684.211 734.707C684.52 735.787 684.674 736.559 684.829 737.639H684.983C685.137 736.559 685.292 735.942 685.601 734.707L693.475 708.318H696.872V740.108H694.711V715.108C694.711 713.874 694.711 711.868 694.865 710.787H694.711C694.556 711.868 694.247 712.948 693.939 714.337L686.064 740.108H683.748L675.873 714.337C675.564 712.794 675.255 711.405 675.101 710.787H674.946C674.946 712.022 675.101 713.874 675.101 715.108V740.108H672.939V708.318Z" fill="#00BFFF"/>
<path d="M703.049 734.553C703.049 732.546 703.821 731.003 704.902 729.923C705.982 728.843 707.835 728.071 710.615 727.608L715.401 726.682V724.676C715.401 720.664 714.166 718.966 710.769 718.966C707.526 718.966 705.828 720.664 705.828 724.83H703.512C703.666 719.429 706.754 717.269 710.769 717.269C715.401 717.269 717.563 719.429 717.563 724.676V732.855C717.563 735.787 717.717 738.102 718.026 740.108H715.864C715.71 738.719 715.556 737.022 715.556 735.478C714.629 738.719 712.467 740.725 709.071 740.725C705.365 740.571 703.049 738.256 703.049 734.553ZM715.401 731.62V728.38L710.46 729.306C706.909 729.923 705.21 731.466 705.21 734.398C705.21 737.33 706.754 738.873 709.534 738.873C713.085 738.873 715.401 735.941 715.401 731.62Z" fill="#00BFFF"/>
<path d="M721.423 748.904V746.898C721.887 747.053 722.35 747.052 722.659 747.052C725.284 747.052 726.519 745.201 727.291 742.423L727.908 740.262L720.651 717.732H722.967L728.063 734.553C728.372 735.787 728.681 736.713 728.989 737.793C729.298 736.713 729.453 735.787 729.916 734.553L734.548 717.578H736.864L729.607 742.269C728.217 747.053 726.21 748.904 722.967 748.904C722.504 749.059 722.041 749.059 721.423 748.904Z" fill="#00BFFF"/>
<path d="M738.099 744.275C739.643 743.195 739.952 742.114 739.952 740.263V739.954H738.717V735.479H741.496V739.954C741.496 742.732 740.879 744.275 738.871 745.355L738.099 744.275Z" fill="#00BFFF"/>
<path d="M755.856 738.102C760.025 733.781 763.422 730.232 766.201 726.682C768.826 723.287 770.062 720.047 770.062 716.806C770.062 712.639 768.054 710.325 764.503 710.325C760.797 710.325 758.635 712.485 758.635 716.497C758.635 717.423 758.635 718.349 758.944 719.275L756.628 718.966C756.474 718.195 756.474 717.269 756.474 716.343C756.474 711.405 759.562 708.318 764.657 708.318C769.598 708.318 772.532 711.25 772.532 716.652C772.532 720.201 771.142 723.75 768.363 727.454C766.047 730.695 762.341 734.398 758.79 738.102H773.15V740.108H756.011V738.102H755.856Z" fill="#00BFFF"/>
<path d="M776.701 724.522C776.701 712.331 780.098 708.318 785.966 708.318C791.988 708.318 795.385 712.331 795.385 724.522C795.385 736.713 791.988 740.725 785.966 740.725C780.253 740.725 776.701 736.713 776.701 724.522ZM793.068 724.522C793.068 713.565 790.598 710.17 785.966 710.17C781.488 710.17 778.863 713.411 778.863 724.522C778.863 735.633 781.488 738.874 785.966 738.874C790.598 738.874 793.068 735.479 793.068 724.522Z" fill="#00BFFF"/>
<path d="M799.399 738.102C803.568 733.781 806.965 730.232 809.745 726.682C812.369 723.287 813.605 720.047 813.605 716.806C813.605 712.639 811.597 710.325 808.046 710.325C804.34 710.325 802.179 712.485 802.179 716.497C802.179 717.423 802.179 718.349 802.487 719.275L800.171 718.966C800.017 718.195 800.017 717.269 800.017 716.343C800.017 711.405 803.105 708.318 808.2 708.318C813.142 708.318 816.075 711.25 816.075 716.652C816.075 720.201 814.686 723.75 811.906 727.454C809.59 730.695 805.884 734.398 802.333 738.102H816.693V740.108H799.399V738.102Z" fill="#00BFFF"/>
<path d="M820.244 724.522C820.244 712.331 823.641 708.318 829.509 708.318C835.531 708.318 838.928 712.331 838.928 724.522C838.928 736.713 835.531 740.725 829.509 740.725C823.641 740.725 820.244 736.713 820.244 724.522ZM836.611 724.522C836.611 713.565 834.141 710.17 829.509 710.17C825.031 710.17 822.406 713.411 822.406 724.522C822.406 735.633 825.031 738.874 829.509 738.874C834.141 738.874 836.611 735.479 836.611 724.522Z" fill="#00BFFF"/>
<path d="M644.374 785.324C644.374 790.262 642.058 794.12 635.573 794.12H627.08V762.33H635.11C641.749 762.33 643.756 766.342 643.756 770.355C643.756 773.904 642.212 776.836 638.507 777.453C642.367 778.071 644.374 781.003 644.374 785.324ZM629.397 764.182V776.836H635.264C640.205 776.836 641.44 773.75 641.44 770.509C641.44 767.114 640.051 764.182 634.955 764.182H629.397ZM641.904 785.324C641.904 781.157 640.205 778.534 635.264 778.534H629.242V792.114H635.11C640.36 792.268 641.904 789.336 641.904 785.324Z" fill="#00BFFF"/>
<path d="M647.925 802.916V800.91C648.389 801.064 648.852 801.064 649.161 801.064C651.786 801.064 653.021 799.212 653.793 796.435L654.411 794.274L647.153 771.744H649.47L654.565 788.564C654.874 789.799 655.183 790.725 655.491 791.805C655.8 790.725 655.955 789.799 656.418 788.564L661.05 771.589H663.366L656.109 796.28C654.719 801.064 652.712 802.916 649.47 802.916C648.852 803.07 648.389 803.07 647.925 802.916Z" fill="#00BFFF"/>
<path d="M674.792 794.737C673.866 794.737 672.785 794.737 671.859 794.428V792.268C672.785 792.422 673.866 792.577 674.792 792.577C677.417 792.577 679.425 791.496 679.425 787.33V762.33H681.741V787.638C681.586 793.04 678.653 794.737 674.792 794.737Z" fill="#00BFFF"/>
<path d="M702.431 783.009H689.306C689.461 790.262 691.623 792.731 695.174 792.731C697.953 792.731 700.115 790.879 700.424 787.021L702.431 787.484C701.968 792.114 699.189 794.583 695.174 794.583C690.233 794.583 687.145 791.342 687.145 782.854C687.145 774.058 690.387 771.126 694.865 771.126C699.497 771.126 702.277 774.058 702.277 781.311V783.009H702.431ZM700.269 781.465C700.269 775.293 698.416 772.978 694.865 772.978C691.623 772.978 689.306 774.984 689.152 781.465H700.269Z" fill="#00BFFF"/>
<path d="M706.6 786.712L708.762 786.404C708.917 790.879 711.078 792.885 714.166 792.885C717.1 792.885 718.799 791.342 718.799 788.564C718.799 786.249 717.718 784.861 714.938 783.935L712.005 783.009C708.762 782.083 707.218 780.077 707.218 776.99C707.218 773.287 709.843 771.126 713.858 771.126C718.027 771.126 720.652 773.132 720.806 778.533L718.644 778.842C718.49 774.213 716.791 772.824 713.858 772.824C711.078 772.824 709.534 774.367 709.534 776.836C709.534 779.151 710.461 780.385 713.086 781.157L716.174 782.083C719.725 783.163 721.115 785.169 721.115 788.256C721.115 792.114 718.644 794.583 714.321 794.583C709.689 794.583 706.755 792.422 706.6 786.712Z" fill="#00BFFF"/>
<path d="M724.666 786.712L726.827 786.404C726.982 790.879 729.144 792.885 732.232 792.885C735.165 792.885 736.864 791.342 736.864 788.564C736.864 786.249 735.783 784.861 733.004 783.935L730.07 783.009C726.827 782.083 725.283 780.077 725.283 776.99C725.283 773.287 727.908 771.126 731.923 771.126C736.092 771.126 738.717 773.132 738.871 778.533L736.71 778.842C736.555 774.213 734.857 772.824 731.923 772.824C729.144 772.824 727.599 774.367 727.599 776.836C727.599 779.151 728.526 780.385 731.151 781.157L734.239 782.083C737.79 783.163 739.18 785.169 739.18 788.256C739.18 792.114 736.709 794.583 732.386 794.583C727.754 794.583 724.82 792.422 724.666 786.712Z" fill="#00BFFF"/>
<path d="M744.43 762.947H746.746V767.886H744.43V762.947ZM744.43 771.744H746.592V794.12H744.43V771.744Z" fill="#00BFFF"/>
<path d="M752.305 782.854C752.305 774.83 755.239 771.126 760.334 771.126C764.503 771.126 767.128 773.904 767.437 779.151L765.121 779.305C764.966 774.984 763.113 772.978 760.18 772.978C756.628 772.978 754.467 775.756 754.467 782.854C754.467 789.799 756.783 792.731 760.334 792.731C763.113 792.731 764.966 790.57 765.275 786.249L767.437 786.558C767.128 791.959 764.349 794.737 760.334 794.737C755.393 794.583 752.305 790.879 752.305 782.854Z" fill="#00BFFF"/>
<path d="M771.452 788.564C771.452 786.558 772.224 785.015 773.305 783.935C774.385 782.854 776.238 782.083 779.018 781.62L783.804 780.694V778.688C783.804 774.676 782.569 772.978 779.172 772.978C775.93 772.978 774.231 774.676 774.231 778.842H771.915C772.069 773.441 775.157 771.281 779.172 771.281C783.804 771.281 785.966 773.441 785.966 778.688V786.867C785.966 789.799 786.12 792.114 786.429 794.12H784.268C784.113 792.731 783.959 791.033 783.959 789.49C783.032 792.731 780.871 794.737 777.474 794.737C773.768 794.583 771.452 792.268 771.452 788.564ZM783.804 785.632V782.391L778.863 783.317C775.312 783.935 773.613 785.478 773.613 788.41C773.613 791.342 775.157 792.885 777.937 792.885C781.488 792.885 783.804 789.953 783.804 785.632Z" fill="#00BFFF"/>
<path d="M801.561 778.225C801.561 766.651 805.113 761.559 812.061 761.559C818.7 761.559 821.017 766.188 821.325 771.744L819.009 772.052C818.7 767.114 817.156 763.565 812.061 763.565C806.965 763.565 804.186 767.731 804.186 778.225C804.186 788.101 806.657 792.885 812.061 792.885C818.083 792.885 819.627 786.558 819.627 781.774V779.768H811.752V777.762H821.943V794.12H820.09L819.936 787.947C818.7 792.268 815.921 794.891 811.598 794.891C804.958 794.891 801.561 789.49 801.561 778.225Z" fill="#00BFFF"/>
<path d="M827.502 787.021V771.744H829.663V787.021C829.663 791.342 831.671 792.885 834.141 792.885C837.693 792.885 839.854 789.645 839.854 785.015V771.744H842.016V794.12H840.009V789.49C839.082 792.577 836.92 794.583 833.678 794.583C829.2 794.583 827.502 791.497 827.502 787.021Z" fill="#00BFFF"/>
<path d="M846.957 802.916V800.91C847.42 801.064 847.883 801.064 848.192 801.064C850.817 801.064 852.052 799.212 852.824 796.435L853.442 794.274L846.185 771.744H848.501L853.596 788.564C853.905 789.799 854.214 790.725 854.523 791.805C854.831 790.725 854.986 789.799 855.449 788.564L860.081 771.589H862.397L855.14 796.28C853.751 801.064 851.743 802.916 848.501 802.916C848.038 803.07 847.574 803.07 846.957 802.916Z" fill="#00BFFF"/>
<path d="M868.574 771.743V776.682C869.501 773.132 871.817 771.281 875.059 771.281C879.074 771.281 881.081 773.75 881.081 778.996V794.274H878.919V778.996C878.919 774.984 877.375 772.978 874.287 772.978C870.736 772.978 868.574 776.064 868.574 781.311V794.12H866.412V771.743H868.574Z" fill="#00BFFF"/>
<path d="M889.728 771.743V776.682C890.654 773.132 892.97 771.281 896.213 771.281C900.227 771.281 902.235 773.75 902.235 778.996V794.274H900.073V778.996C900.073 774.984 898.529 772.978 895.441 772.978C891.889 772.978 889.728 776.064 889.728 781.311V794.12H887.566V771.743H889.728Z" fill="#00BFFF"/>
<path d="M628.778 870.354V893.347C628.778 898.131 631.249 900.909 635.727 900.909C640.205 900.909 642.675 898.131 642.675 893.347V870.354H644.991V893.501C644.991 899.211 641.594 902.915 635.727 902.915C629.859 902.915 626.617 899.211 626.617 893.501V870.354H628.778Z" fill="#00BFFF"/>
<path d="M650.087 892.112L652.403 891.804C652.712 897.977 655.028 900.909 660.123 900.909C664.138 900.909 666.3 898.44 666.3 894.582C666.3 890.569 664.756 888.717 661.05 887.483L656.881 885.94C652.866 884.551 650.859 881.464 650.859 877.607C650.859 872.668 654.101 869.582 659.197 869.582C664.601 869.582 667.998 872.205 668.153 879.613L665.836 880.076C665.528 873.903 663.212 871.588 659.043 871.588C655.182 871.588 653.021 873.903 653.021 877.607C653.021 880.693 654.41 882.699 657.807 884.088L661.822 885.631C666.3 887.174 668.307 889.952 668.307 894.736C668.307 900.137 664.91 903.223 659.506 903.223C653.638 902.915 650.55 899.365 650.087 892.112Z" fill="#00BFFF"/>
<path d="M688.072 892.73H676.8L674.175 902.143H671.859L681.278 870.354H683.748L693.167 902.143H690.851L688.072 892.73ZM687.608 890.724L683.748 877.452C683.13 875.6 682.822 874.211 682.667 872.823H682.513C682.204 874.211 682.05 875.446 681.432 877.452L677.572 890.724H687.608Z" fill="#00BFFF"/>
<path d="M720.96 872.36H712.313V902.143H709.997V872.36H701.35V870.354H720.806V872.36H720.96Z" fill="#00BFFF"/>
<path d="M720.806 890.878C720.806 882.545 723.894 879.15 728.835 879.15C733.776 879.15 736.864 882.545 736.864 890.878C736.864 899.211 733.776 902.606 728.835 902.606C723.894 902.606 720.806 899.211 720.806 890.878ZM734.702 890.878C734.702 883.47 732.232 881.001 728.835 881.001C725.438 881.001 722.967 883.47 722.967 890.878C722.967 898.285 725.283 900.754 728.835 900.754C732.232 900.909 734.702 898.439 734.702 890.878Z" fill="#00BFFF"/>
<path d="M741.187 890.878C741.187 882.853 743.967 879.15 748.908 879.15C751.996 879.15 754.158 881.002 754.93 884.551V869.582H757.091V901.989H755.084V897.051C754.158 900.446 751.842 902.606 748.599 902.606C743.812 902.606 741.187 898.748 741.187 890.878ZM755.084 892.73V889.18C755.084 884.551 753.077 881.001 749.525 881.001C745.511 881.001 743.504 883.934 743.504 890.878C743.504 897.977 745.356 900.754 749.217 900.754C752.922 900.754 755.084 897.514 755.084 892.73Z" fill="#00BFFF"/>
<path d="M762.805 896.588C762.805 894.581 763.577 893.038 764.657 891.958C765.738 890.878 767.591 890.106 770.37 889.643L775.157 888.717V886.711C775.157 882.699 773.922 881.001 770.525 881.001C767.282 881.001 765.584 882.699 765.584 886.866H763.268C763.422 881.464 766.51 879.304 770.525 879.304C775.157 879.304 777.319 881.464 777.319 886.711V894.89C777.319 897.822 777.473 900.137 777.782 902.143H775.62C775.466 900.754 775.312 899.057 775.312 897.514C774.385 900.754 772.223 902.76 768.826 902.76C765.121 902.606 762.805 900.291 762.805 896.588ZM775.157 893.656V890.415L770.216 891.341C766.665 891.958 764.966 893.501 764.966 896.433C764.966 899.365 766.51 900.909 769.29 900.909C772.841 900.909 775.157 897.976 775.157 893.656Z" fill="#00BFFF"/>
<path d="M781.333 910.939V908.933C781.797 909.088 782.26 909.088 782.569 909.088C785.194 909.088 786.429 907.236 787.201 904.458L787.819 902.298L780.561 879.767H782.878L787.973 896.588C788.282 897.822 788.591 898.748 788.899 899.828C789.208 898.748 789.363 897.822 789.826 896.588L794.458 879.613H796.774L789.517 904.304C788.127 909.088 786.12 910.939 782.878 910.939C782.26 911.094 781.797 911.094 781.333 910.939Z" fill="#00BFFF"/>
</g>
</g>
</g>
</g>
</svg>
