<svg width="1382" height="758" viewBox="0 0 1382 758" fill="none" xmlns="http://www.w3.org/2000/svg">
<path d="M1119.31 657.9H263.45C230.988 657.9 204.675 631.588 204.675 599.125V123.963C204.675 91.5001 230.988 65.1876 263.45 65.1876H1119.31C1151.77 65.1876 1178.09 91.5001 1178.09 123.963V599.138C1178.09 631.588 1151.77 657.9 1119.31 657.9Z" stroke="#00BFFF" stroke-width="3" stroke-miterlimit="10" stroke-linecap="round"/>
<path d="M1124.06 676.75H256.825C216.05 676.75 183.012 643.7 183.012 602.938V120.163C183.012 79.3876 216.062 46.3501 256.825 46.3501H1124.05C1164.82 46.3501 1197.86 79.4001 1197.86 120.163V602.925C1197.87 643.7 1164.82 676.75 1124.06 676.75Z" stroke="#00BFFF" stroke-width="3" stroke-miterlimit="10" stroke-linecap="round"/>
<path d="M1126.8 676.75H1176.15C1206.89 676.75 1231.8 651.838 1231.8 621.1V101.988C1231.8 71.2501 1206.89 46.3376 1176.15 46.3376H1142.23" stroke="#00BFFF" stroke-width="3" stroke-miterlimit="10" stroke-linecap="round"/>
<path d="M337.55 676.75V755.9" stroke="#00BFFF" stroke-width="3" stroke-miterlimit="10" stroke-linecap="round"/>
<path d="M365.812 676.75V755.9" stroke="#00BFFF" stroke-width="3" stroke-miterlimit="10" stroke-linecap="round"/>
<path d="M1039.56 676.75V755.9" stroke="#00BFFF" stroke-width="3" stroke-miterlimit="10" stroke-linecap="round"/>
<path d="M1067.84 676.75V755.9" stroke="#00BFFF" stroke-width="3" stroke-miterlimit="10" stroke-linecap="round"/>
<path d="M1380.39 755.9H1.61255" stroke="#00BFFF" stroke-width="3" stroke-miterlimit="10" stroke-linecap="round"/>
<path d="M391.725 370.275C391.725 364.475 393.275 360.038 396.363 356.95C399.45 353.863 403.9 352.313 409.688 352.313H522.113C524.9 352.313 527.038 353.013 528.55 354.4C530.063 355.788 530.813 357.8 530.813 360.425C530.813 363.05 530.063 365.063 528.55 366.45C527.038 367.838 524.9 368.538 522.113 368.538H461.263V384.538H522.113C524.9 384.538 527.038 385.238 528.55 386.625C530.063 388.013 530.813 390.025 530.813 392.65C530.813 395.275 530.063 397.288 528.55 398.675C527.038 400.063 524.9 400.763 522.113 400.763H461.263V415.488C461.263 421.288 459.713 425.725 456.625 428.813C453.538 431.9 449.088 433.45 443.3 433.45H409.688C403.888 433.45 399.45 431.9 396.363 428.813C393.275 425.725 391.725 421.275 391.725 415.488V370.275Z" fill="#00BFFF"/>
<path d="M536.6 370.275C536.6 364.475 538.15 360.038 541.237 356.95C544.325 353.863 548.775 352.313 554.562 352.313H588.175C593.975 352.313 598.412 353.863 601.5 356.95C604.587 360.038 606.137 364.488 606.137 370.275V417.213H666.987C669.775 417.213 671.913 417.913 673.425 419.3C674.938 420.688 675.688 422.7 675.688 425.325C675.688 427.95 674.938 429.963 673.425 431.35C671.913 432.738 669.775 433.438 666.987 433.438H554.562C548.762 433.438 544.325 431.888 541.237 428.8C538.15 425.713 536.6 421.263 536.6 415.475V370.275Z" fill="#00BFFF"/>
<path d="M681.475 370.275C681.475 364.475 683.025 360.038 686.113 356.95C689.2 353.863 693.65 352.313 699.438 352.313H818.813C824.613 352.313 829.05 353.863 832.138 356.95C835.225 360.038 836.775 364.488 836.775 370.275V415.475C836.775 421.275 835.225 425.713 832.138 428.8C829.05 431.888 824.6 433.438 818.813 433.438H785.2C779.4 433.438 774.963 431.888 771.875 428.8C768.788 425.713 767.238 421.263 767.238 415.475V400.75H751.013V415.475C751.013 421.275 749.463 425.713 746.375 428.8C743.288 431.888 738.838 433.438 733.05 433.438H699.438C693.638 433.438 689.2 431.888 686.113 428.8C683.025 425.713 681.475 421.263 681.475 415.475V370.275ZM751.025 384.538H767.25V374.913C767.25 372.9 766.688 371.338 765.575 370.213C764.45 369.088 762.888 368.538 760.875 368.538H757.4C755.388 368.538 753.825 369.1 752.7 370.213C751.575 371.338 751.025 372.9 751.025 374.913V384.538Z" fill="#00BFFF"/>
<path d="M842.588 360.425C842.588 357.8 843.338 355.788 844.85 354.4C846.363 353.013 848.5 352.313 851.288 352.313H984.575C987.363 352.313 989.5 353.013 991.013 354.4C992.525 355.788 993.275 357.8 993.275 360.425C993.275 363.05 992.525 365.063 991.013 366.45C989.5 367.838 987.363 368.538 984.575 368.538H952.7V415.475C952.7 421.275 951.15 425.713 948.063 428.8C944.975 431.888 940.525 433.438 934.738 433.438H901.125C895.325 433.438 890.888 431.888 887.8 428.8C884.713 425.713 883.163 421.263 883.163 415.475V368.538H851.288C848.5 368.538 846.363 367.838 844.85 366.45C843.338 365.063 842.588 363.05 842.588 360.425Z" fill="#00BFFF"/>
<path d="M258.025 478.65C258.025 472.85 259.575 468.413 262.663 465.325C265.75 462.238 270.2 460.688 275.988 460.688H309.6C315.4 460.688 319.838 462.238 322.925 465.325C326.013 468.413 327.563 472.863 327.563 478.65V519.213C327.563 521.225 328.125 522.788 329.238 523.913C330.363 525.038 331.925 525.588 333.938 525.588H337.413C339.425 525.588 340.988 525.025 342.113 523.913C343.238 522.788 343.788 521.225 343.788 519.213V478.65C343.788 472.85 345.338 468.413 348.425 465.325C351.513 462.238 355.963 460.688 361.75 460.688H395.363C401.163 460.688 405.6 462.238 408.688 465.325C411.775 468.413 413.325 472.863 413.325 478.65V519.213C413.325 521.225 413.888 522.788 415 523.913C416.125 525.038 417.688 525.588 419.7 525.588H422.825C424.838 525.588 426.4 525.025 427.525 523.913C428.65 522.788 429.2 521.225 429.2 519.213V478.65C429.2 472.85 430.75 468.413 433.837 465.325C436.925 462.238 441.375 460.688 447.163 460.688H480.775C486.575 460.688 491.013 462.238 494.1 465.325C497.188 468.413 498.738 472.863 498.738 478.65V523.85C498.738 529.65 497.188 534.088 494.1 537.175C491.013 540.263 486.563 541.813 480.775 541.813H402.312C396.512 541.813 392.075 540.425 388.988 537.638C385.9 534.85 384.35 530.838 384.35 525.588H372.763C372.763 530.85 371.213 534.863 368.125 537.638C365.038 540.425 360.588 541.813 354.8 541.813H275.988C270.188 541.813 265.75 540.263 262.663 537.175C259.575 534.088 258.025 529.638 258.025 523.85V478.65Z" fill="#00BFFF"/>
<path d="M504.55 478.65C504.55 472.85 506.1 468.413 509.188 465.325C512.275 462.238 516.725 460.688 522.513 460.688H641.887C647.687 460.688 652.125 462.238 655.212 465.325C658.3 468.413 659.85 472.863 659.85 478.65V523.85C659.85 529.65 658.3 534.088 655.212 537.175C652.125 540.263 647.675 541.813 641.887 541.813H522.513C516.713 541.813 512.275 540.263 509.188 537.175C506.1 534.088 504.55 529.638 504.55 523.85V478.65ZM574.1 519.213C574.1 521.225 574.663 522.788 575.775 523.913C576.9 525.038 578.462 525.588 580.475 525.588H583.95C585.962 525.588 587.525 525.025 588.637 523.913C589.762 522.788 590.313 521.225 590.313 519.213V483.288C590.313 481.275 589.75 479.713 588.637 478.588C587.512 477.475 585.95 476.913 583.95 476.913H580.475C578.462 476.913 576.9 477.475 575.775 478.588C574.65 479.713 574.1 481.275 574.1 483.288V519.213Z" fill="#00BFFF"/>
<path d="M683.625 541.813C677.825 541.813 673.388 540.263 670.3 537.175C667.213 534.088 665.662 529.638 665.662 523.85V478.65C665.662 472.85 667.213 468.413 670.3 465.325C673.388 462.238 677.837 460.688 683.625 460.688H803.7C809.263 460.688 813.538 462.175 816.513 465.15C819.488 468.125 820.975 472.4 820.975 477.963V478.075C820.975 483.638 819.488 487.913 816.513 490.888C813.538 493.863 809.275 495.35 803.7 495.35H767.65V503.463H803C808.8 503.463 813.238 505.013 816.325 508.1C819.413 511.188 820.963 515.638 820.963 521.425V523.863C820.963 529.663 819.413 534.1 816.325 537.188C813.238 540.275 808.788 541.825 803 541.825H769.388C763.588 541.825 759.15 540.275 756.063 537.188C752.975 534.1 751.425 529.65 751.425 523.863V509.125H735.2V523.85C735.2 529.65 733.65 534.088 730.563 537.175C727.475 540.263 723.025 541.813 717.238 541.813H683.625ZM745.05 490.588C747.063 490.588 748.625 490.025 749.75 488.913C750.875 487.788 751.425 486.225 751.425 484.225V482.138C751.425 480.125 750.863 478.563 749.75 477.45C748.625 476.325 747.063 475.775 745.05 475.775H735.2V490.613H745.05V490.588Z" fill="#00BFFF"/>
<path d="M826.762 478.65C826.762 472.85 828.312 468.413 831.4 465.325C834.487 462.238 838.937 460.688 844.725 460.688H878.337C884.137 460.688 888.575 462.238 891.663 465.325C894.75 468.413 896.3 472.863 896.3 478.65V525.588H957.15C959.937 525.588 962.075 526.288 963.587 527.675C965.1 529.063 965.85 531.075 965.85 533.7C965.85 536.325 965.1 538.338 963.587 539.725C962.075 541.113 959.937 541.813 957.15 541.813H844.725C838.925 541.813 834.487 540.263 831.4 537.175C828.312 534.088 826.762 529.638 826.762 523.85V478.65Z" fill="#00BFFF"/>
<path d="M989.612 541.813C983.812 541.813 979.375 540.263 976.287 537.175C973.2 534.088 971.65 529.638 971.65 523.85V478.65C971.65 472.85 973.2 468.413 976.287 465.325C979.375 462.238 983.825 460.688 989.612 460.688H1086.51C1099.65 460.688 1109.67 464.15 1116.59 471.063C1123.5 477.975 1126.96 488 1126.96 501.138V501.375C1126.96 514.438 1123.5 524.438 1116.59 531.4C1109.67 538.35 1099.65 541.825 1086.51 541.825H989.612V541.813ZM1051.04 526.75C1053.05 526.75 1054.61 526.188 1055.72 525.075C1056.85 523.95 1057.4 522.388 1057.4 520.388V482.138C1057.4 480.125 1056.84 478.563 1055.72 477.45C1054.6 476.325 1053.04 475.775 1051.04 475.775H1041.19V526.775H1051.04V526.75Z" fill="#00BFFF"/>
<path d="M537.775 195.225C537.775 192.975 538.363 191.263 539.55 190.075C540.725 188.9 542.45 188.3 544.7 188.3H546.863C549.112 188.3 550.837 188.888 552.05 190.075C553.262 191.263 553.863 192.975 553.863 195.225V241.225C553.863 241.913 554.062 242.463 554.462 242.863C554.862 243.263 555.412 243.463 556.1 243.463H556.537C557.225 243.463 557.775 243.263 558.175 242.863C558.575 242.463 558.775 241.913 558.775 241.225V195.225C558.775 192.975 559.363 191.263 560.55 190.075C561.725 188.9 563.45 188.3 565.7 188.3H567.95C570.2 188.3 571.912 188.888 573.1 190.075C574.275 191.263 574.875 192.975 574.875 195.225V241.225C574.875 241.913 575.075 242.463 575.475 242.863C575.875 243.263 576.425 243.463 577.112 243.463H577.462C578.212 243.463 578.787 243.263 579.187 242.863C579.587 242.463 579.787 241.913 579.787 241.225V195.225C579.787 192.975 580.375 191.263 581.562 190.075C582.737 188.9 584.462 188.3 586.712 188.3H588.875C591.175 188.3 592.925 188.888 594.112 190.075C595.287 191.263 595.887 192.975 595.887 195.225V241.913C595.887 244.163 595.3 245.875 594.112 247.063C592.925 248.25 591.187 248.838 588.875 248.838H574.612C572.65 248.838 571.162 248.375 570.162 247.45C569.15 246.525 568.65 245.2 568.65 243.475H565.1C565.1 245.2 564.6 246.538 563.587 247.45C562.575 248.375 561.062 248.838 559.05 248.838H544.7C542.45 248.838 540.737 248.25 539.55 247.063C538.363 245.888 537.775 244.163 537.775 241.913V195.225Z" fill="#00BFFF"/>
<path d="M600.2 226.7C600.2 224.4 600.637 222.65 601.5 221.463C602.362 220.288 603.575 219.688 605.137 219.688V217.35C603.575 217.35 602.375 216.763 601.5 215.575C600.637 214.4 600.2 212.675 600.2 210.425V195.213C600.2 192.963 600.8 191.25 602.012 190.063C603.225 188.888 604.95 188.288 607.2 188.288H625.875C626.975 188.288 627.787 188.513 628.337 188.975C628.887 189.438 629.162 190.075 629.162 190.875C629.162 191.738 628.887 192.413 628.337 192.9C627.787 193.388 626.962 193.638 625.875 193.638H616.275V215.688H625.875C626.975 215.688 627.787 215.913 628.337 216.375C628.887 216.838 629.162 217.5 629.162 218.363C629.162 219.175 628.887 219.825 628.337 220.313C627.787 220.8 626.962 221.05 625.875 221.05H616.275V243.45H625.875C626.975 243.45 627.787 243.688 628.337 244.138C628.887 244.6 629.162 245.263 629.162 246.125C629.162 246.938 628.887 247.588 628.337 248.075C627.787 248.563 626.962 248.813 625.875 248.813H607.2C604.95 248.813 603.225 248.225 602.012 247.038C600.8 245.863 600.2 244.138 600.2 241.888V226.7Z" fill="#00BFFF"/>
<path d="M633.062 195.225C633.062 192.925 633.662 191.175 634.875 190C636.087 188.825 637.812 188.225 640.062 188.225H642.225C644.475 188.225 646.187 188.813 647.375 190C648.55 191.188 649.15 192.925 649.15 195.225V243.388H658.75C659.85 243.388 660.662 243.638 661.212 244.125C661.762 244.613 662.038 245.288 662.038 246.163C662.038 246.975 661.762 247.6 661.212 248.063C660.662 248.525 659.838 248.75 658.75 248.75H640.075C637.825 248.75 636.1 248.163 634.887 246.975C633.675 245.8 633.075 244.075 633.075 241.825V195.225H633.062Z" fill="#00BFFF"/>
<path d="M666.438 195.225C666.438 192.975 667.025 191.263 668.213 190.075C669.388 188.9 671.113 188.3 673.363 188.3H692.125C693.163 188.3 693.975 188.525 694.55 188.988C695.125 189.45 695.413 190.088 695.413 190.888C695.413 191.75 695.125 192.425 694.55 192.913C693.975 193.4 693.163 193.65 692.125 193.65H682.525V243.45H692.125C693.163 243.45 693.975 243.688 694.55 244.138C695.125 244.6 695.413 245.263 695.413 246.125C695.413 246.938 695.125 247.588 694.55 248.075C693.975 248.563 693.163 248.813 692.125 248.813H673.363C671.113 248.813 669.4 248.225 668.213 247.038C667.025 245.863 666.438 244.138 666.438 241.888V195.225Z" fill="#00BFFF"/>
<path d="M699.2 196.863C699.2 194.1 699.938 191.975 701.4 190.513C702.875 189.038 704.988 188.313 707.75 188.313H727.813C730.575 188.313 732.688 189.05 734.125 190.513C735.562 191.988 736.287 194.1 736.287 196.863V240.275C736.287 243.038 735.562 245.163 734.125 246.625C732.688 248.1 730.575 248.825 727.813 248.825H707.75C704.988 248.825 702.863 248.088 701.4 246.625C699.925 245.15 699.2 243.038 699.2 240.275V196.863ZM715.288 241.225C715.288 241.913 715.5 242.463 715.938 242.863C716.375 243.263 716.938 243.463 717.625 243.463H717.975C718.663 243.463 719.213 243.263 719.613 242.863C720.013 242.463 720.213 241.913 720.213 241.225V195.913C720.213 195.225 720.013 194.675 719.613 194.275C719.213 193.875 718.663 193.675 717.975 193.675H717.625C716.938 193.675 716.375 193.875 715.938 194.275C715.5 194.675 715.288 195.225 715.288 195.913V241.225Z" fill="#00BFFF"/>
<path d="M740.713 195.225C740.713 192.975 741.3 191.263 742.488 190.075C743.663 188.9 745.387 188.3 747.637 188.3H761.987C764 188.3 765.512 188.763 766.525 189.688C767.537 190.613 768.038 191.938 768.038 193.663H771.587C771.587 191.938 772.087 190.613 773.1 189.688C774.112 188.763 775.587 188.3 777.55 188.3H791.813C794.113 188.3 795.863 188.888 797.05 190.075C798.225 191.263 798.825 192.975 798.825 195.225V241.913C798.825 244.163 798.238 245.875 797.05 247.063C795.863 248.25 794.125 248.838 791.813 248.838H789.65C787.4 248.838 785.687 248.25 784.5 247.063C783.312 245.888 782.725 244.163 782.725 241.913V195.913C782.725 195.225 782.525 194.675 782.125 194.275C781.725 193.875 781.15 193.675 780.4 193.675H780.05C779.362 193.675 778.812 193.875 778.412 194.275C778.012 194.675 777.813 195.225 777.813 195.913V241.913C777.813 244.163 777.225 245.875 776.038 247.063C774.85 248.25 773.137 248.838 770.887 248.838H768.637C766.387 248.838 764.675 248.25 763.487 247.063C762.3 245.888 761.713 244.163 761.713 241.913V195.913C761.713 195.225 761.513 194.675 761.113 194.275C760.713 193.875 760.163 193.675 759.475 193.675H759.037C758.35 193.675 757.8 193.875 757.4 194.275C757 194.675 756.8 195.225 756.8 195.913V241.913C756.8 244.163 756.2 245.875 754.988 247.063C753.775 248.25 752.05 248.838 749.8 248.838H747.637C745.387 248.838 743.675 248.25 742.488 247.063C741.3 245.888 740.713 244.163 740.713 241.913V195.225Z" fill="#00BFFF"/>
<path d="M803.137 226.7C803.137 224.4 803.575 222.65 804.437 221.463C805.3 220.288 806.512 219.688 808.062 219.688V217.35C806.5 217.35 805.3 216.763 804.437 215.575C803.575 214.4 803.137 212.675 803.137 210.425V195.213C803.137 192.963 803.737 191.25 804.95 190.063C806.162 188.888 807.887 188.288 810.137 188.288H828.812C829.912 188.288 830.725 188.513 831.275 188.975C831.825 189.438 832.1 190.075 832.1 190.875C832.1 191.738 831.825 192.413 831.275 192.9C830.725 193.388 829.9 193.638 828.812 193.638H819.212V215.688H828.812C829.912 215.688 830.725 215.913 831.275 216.375C831.825 216.838 832.1 217.5 832.1 218.363C832.1 219.175 831.825 219.825 831.275 220.313C830.725 220.8 829.9 221.05 828.812 221.05H819.212V243.45H828.812C829.912 243.45 830.725 243.688 831.275 244.138C831.825 244.6 832.1 245.263 832.1 246.125C832.1 246.938 831.825 247.588 831.275 248.075C830.725 248.563 829.9 248.813 828.812 248.813H810.137C807.887 248.813 806.162 248.225 804.95 247.038C803.737 245.863 803.137 244.138 803.137 241.888V226.7Z" fill="#00BFFF"/>
<path d="M645.163 274.85C645.163 273.988 645.45 273.325 646.025 272.863C646.6 272.4 647.438 272.175 648.538 272.175H681.138C682.175 272.175 682.988 272.413 683.563 272.863C684.138 273.325 684.425 273.988 684.425 274.85C684.425 275.713 684.138 276.388 683.563 276.888C682.988 277.375 682.175 277.625 681.138 277.625H673.1V325.7C673.1 327.95 672.5 329.675 671.288 330.888C670.075 332.1 668.313 332.7 666.013 332.7H663.588C661.338 332.7 659.613 332.1 658.4 330.888C657.188 329.675 656.588 327.95 656.588 325.7V277.625H648.55C647.45 277.625 646.613 277.375 646.038 276.888C645.45 276.4 645.163 275.713 645.163 274.85Z" fill="#00BFFF"/>
<path d="M686.238 280.738C686.238 277.975 686.975 275.85 688.438 274.388C689.913 272.913 692.05 272.188 694.875 272.188H715.625C718.45 272.188 720.6 272.925 722.062 274.388C723.537 275.863 724.262 277.975 724.262 280.738V324.138C724.262 326.9 723.525 329.025 722.062 330.488C720.6 331.95 718.45 332.688 715.625 332.688H694.875C692.05 332.688 689.9 331.95 688.438 330.488C686.975 329.025 686.238 326.9 686.238 324.138V280.738ZM702.75 325C702.75 325.688 702.95 326.238 703.35 326.638C703.75 327.038 704.325 327.238 705.075 327.238H705.425C706.175 327.238 706.75 327.038 707.15 326.638C707.55 326.238 707.75 325.688 707.75 325V279.875C707.75 279.188 707.55 278.638 707.15 278.238C706.75 277.838 706.175 277.638 705.425 277.638H705.075C704.325 277.638 703.75 277.838 703.35 278.238C702.95 278.638 702.75 279.188 702.75 279.875V325Z" fill="#00BFFF"/>
<path d="M319.638 123.625C328.488 123.625 335.663 116.45 335.663 107.6C335.663 98.7497 328.488 91.5751 319.638 91.5751C310.787 91.5751 303.613 98.7497 303.613 107.6C303.613 116.45 310.787 123.625 319.638 123.625Z" stroke="#00BFFF" stroke-width="3" stroke-miterlimit="10" stroke-linecap="round"/>
<path d="M392.85 46.3501V38.6751C392.85 18.2001 376.25 1.6001 355.775 1.6001C335.3 1.6001 318.7 18.2001 318.7 38.6751V81.6876" stroke="#00BFFF" stroke-width="3" stroke-miterlimit="10" stroke-linecap="round"/>
<path d="M342.263 102.888H296.088C296.088 90.9126 305.788 81.2126 317.763 81.2126H320.588C332.55 81.2126 342.263 90.9126 342.263 102.888Z" fill="white" stroke="#00BFFF" stroke-width="3" stroke-miterlimit="10" stroke-linecap="round"/>
<path d="M617.412 123.625C626.263 123.625 633.438 116.45 633.438 107.6C633.438 98.7497 626.263 91.5751 617.412 91.5751C608.562 91.5751 601.387 98.7497 601.387 107.6C601.387 116.45 608.562 123.625 617.412 123.625Z" stroke="#00BFFF" stroke-width="3" stroke-miterlimit="10" stroke-linecap="round"/>
<path d="M690.612 46.3501V38.6751C690.612 18.2001 674.013 1.6001 653.538 1.6001C633.063 1.6001 616.463 18.2001 616.463 38.6751V81.6876" stroke="#00BFFF" stroke-width="3" stroke-miterlimit="10" stroke-linecap="round"/>
<path d="M640.025 102.888H593.85C593.85 90.9126 603.55 81.2126 615.525 81.2126H618.35C630.325 81.2126 640.025 90.9126 640.025 102.888Z" fill="white" stroke="#00BFFF" stroke-width="3" stroke-miterlimit="10" stroke-linecap="round"/>
<path d="M933.087 123.625C941.938 123.625 949.112 116.45 949.112 107.6C949.112 98.7497 941.938 91.5751 933.087 91.5751C924.237 91.5751 917.062 98.7497 917.062 107.6C917.062 116.45 924.237 123.625 933.087 123.625Z" stroke="#00BFFF" stroke-width="3" stroke-miterlimit="10" stroke-linecap="round"/>
<path d="M1006.29 46.3501V38.6751C1006.29 18.2001 989.688 1.6001 969.213 1.6001C948.738 1.6001 932.137 18.2001 932.137 38.6751V81.6876" stroke="#00BFFF" stroke-width="3" stroke-miterlimit="10" stroke-linecap="round"/>
<path d="M955.7 102.888H909.525C909.525 90.9126 919.225 81.2126 931.2 81.2126H934.025C946 81.2126 955.7 90.9126 955.7 102.888Z" fill="white" stroke="#00BFFF" stroke-width="3" stroke-miterlimit="10" stroke-linecap="round"/>
</svg>
