<?xml version="1.0" encoding="utf-8"?>
<!-- Generator: Adobe Illustrator 25.2.3, SVG Export Plug-In . SVG Version: 6.00 Build 0)  -->
<svg version="1.1" id="Camada_1" xmlns="http://www.w3.org/2000/svg" xmlns:xlink="http://www.w3.org/1999/xlink" x="0px" y="0px"
	 viewBox="0 0 706.6 771.5" style="enable-background:new 0 0 706.6 771.5;" xml:space="preserve">
<style type="text/css">
	.st0{fill:none;stroke:#00BDFF;stroke-width:3;stroke-linecap:round;stroke-linejoin:round;stroke-miterlimit:10;}
</style>
<path class="st0" d="M516.2,582.6h63.9c69,0,124.9-55.9,124.9-124.9v0c0-69-55.9-124.9-124.9-124.9H126.4
	c-69,0-124.9,55.9-124.9,124.9v9.9c0,69,55.9,124.9,124.9,124.9h83.8h32.8c10.4,0,18.9-8.5,18.9-18.9v0c0-10.4-8.5-18.9-18.9-18.9
	h-32.8"/>
<path class="st0" d="M433,185.8c-1,47.3-39.6,85.3-87.1,85.3c-48.1,0-87.1-39-87.1-87.1"/>
<path class="st0" d="M1.5,467.5h175.9v0c0-12.9,10.5-23.4,23.4-23.4h9.7"/>
<path class="st0" d="M210.7,555.1h32.8c10.4,0,18.9-8.5,18.9-18.9l0,0c0-10.4-8.5-18.9-18.9-18.9h-32.8"/>
<path class="st0" d="M210.7,517.3h32.8c10.4,0,18.9-8.5,18.9-18.9v0c0-10.4-8.5-18.9-18.9-18.9h-32.8v-73.6h285v63.6h-32.8
	c-10.4,0-18.9,8.5-18.9,18.9v0c0,10.4,8.5,18.9,18.9,18.9h32.8"/>
<path class="st0" d="M521.8,582.6l-25.7-0.1h-32.8c-10.4,0-18.9-8.5-18.9-18.9v0c0-10.4,8.5-18.9,18.9-18.9h32.8"/>
<path class="st0" d="M704.8,457.5H528.9v0c0-12.9-10.5-23.4-23.4-23.4h-9.7"/>
<path class="st0" d="M495.6,545.1h-32.8c-10.4,0-18.9-8.5-18.9-18.9l0,0c0-10.4,8.5-18.9,18.9-18.9h32.8"/>
<line class="st0" x1="329.1" y1="269.5" x2="312.7" y2="332.7"/>
<line class="st0" x1="373" y1="267" x2="389.8" y2="332.7"/>
<path class="st0" d="M269.5,225.9c-12.2-0.3-22.7-7.8-27.2-18.5"/>
<path class="st0" d="M433,163.3"/>
<path class="st0" d="M424,222.5c16.4-0.4,29.6-13.9,29.6-30.4"/>
<line class="st0" x1="535.9" y1="582.6" x2="535.9" y2="740.8"/>
<line class="st0" x1="166.4" y1="592.5" x2="166.4" y2="770"/>
<polyline class="st0" points="210.3,592.5 210.3,629.1 495.6,629.1 495.6,582.4 "/>
<path class="st0" d="M398,207.9c0,18.6-15.1,33.6-33.6,33.6"/>
<path class="st0" d="M353.1,177.4c5.5-5.5,14.5-5.5,20,0"/>
<path class="st0" d="M311.5,177.4c5.5-5.5,14.5-5.5,20,0"/>
<circle class="st0" cx="323" cy="191.2" r="4.1"/>
<circle class="st0" cx="362.8" cy="191.8" r="4.1"/>
<path class="st0" d="M342,187.1v17.8h-7c-4.2,0-7.6,3.4-7.6,7.6v0c0,4.2,3.4,7.6,7.6,7.6h7"/>
<path class="st0" d="M255.9,182.7c8.3,4.7,15.1-1,15.5-6.7c0.3-5.7-0.7-12-4.9-13.6c0,0,10.6,5.4,16.4-4.7
	c5.9-10.1-2.9-15.8-2.9-15.8s12.5,7.6,19.1,0.4c6.9-7.7,0.7-16.8,0.7-16.8s6.9,7.9,16.8,2.7c10-5.2,6.3-15.1,6.3-15.1s3.4,12,13,12
	c9.6,0,13.4-7.7,14.6-12c0,0-2.2,9.9,6.3,13.7c10.8,4.9,17-7.6,17-7.6s-4.2,10.7,4,15.4c9.3,5.4,16.8-4.1,16.8-4.1
	s-6.5,10.7,2.4,18.6c8.9,7.9,17.7-1.9,17.7-1.9s-8.8,9.8-2.4,18.6c0,0,4.8,4.8,11.5,1.8c0,0-7.7,15.2,10.8,18.4"/>
<path class="st0" d="M248,206.9"/>
<path class="st0" d="M291.1,8.2c-19.4,5.9-15.4,28.6-14.9,33c0,0-20.8-22.8-44.4-4.4C212,52.2,226,78.5,226,78.5
	s-29.6-1.9-35.8,20.6c-4.6,16.8,6.4,30,15.1,34.4c0,0-15.4,2.2-15.4,19.8c0,13,8.9,17.9,23.2,20c0,0-8,15,1,26.2
	c6.1,7.7,20.2,8.2,28.1,7.8"/>
<path class="st0" d="M352.7,1.6c-24.5-2.2-29.1,22.1-29.1,22.1S310.5,2.3,291.1,8.2"/>
<path class="st0" d="M409.8,14.8c0,0-24.2-8.8-35.2,13.2c0,0,2.2-24.2-22-26.4"/>
<path class="st0" d="M453.6,192.6c9.1-1.8,22.2-7.3,22.2-21.6c0-11-6.6-17.6-13.2-19.8c0,0,17.6-8.8,13.2-33
	c-3.6-19.9-24.2-22-24.2-22s19.8-15.4,6.6-37.4c0,0-15.4-19.8-35.2-4.4c0,0,8.8-26.4-13.2-39.6"/>
<g>
	<path class="st0" d="M262.4,497.7h4.8l-2.4,13.1h8.6l2.4-13.1h9.3l-2.4,13.1h8.1v8.3h-9.7l-1.7,9.5h8.9v8.3h-10.4l-2.5,13.3h-9.3
		l2.5-13.3h-5.5 M271.8,519h-8.6l-1.7,9.5h8.6L271.8,519z"/>
	<path class="st0" d="M338.7,534.1c0,8.3-5.7,16-20.8,16h-25.6l9.5-53.7h23.6c8.8,0,16.2,3.5,16.2,12.6c0,8.7-6.6,12.6-12.8,13.6
		C334.4,523.2,338.7,526.9,338.7,534.1z M325.4,533.3c0-4.9-3.1-6.4-8.1-6.4h-8.1l-2.5,14.2h9C323.5,541,325.4,537.1,325.4,533.3z
		 M327.9,511.1c0-4.3-2.9-5.8-6.7-5.8H313l-2.3,13.1h7.9C325.7,518.4,327.9,515,327.9,511.1z"/>
	<path class="st0" d="M353.7,496.3h12.8l-7.6,43.4h21.9l-1.9,10.4h-34.6L353.7,496.3z"/>
	<path class="st0" d="M446.3,535.3l-2.6,14.7H432l1.2-6.9 M446.3,535.3 M450.4,512 M451.8,503.7l-1.5,8.3 M430.9,526.8L420.1,550
		h-10.8l-4.8-37.5c-0.2-1.4-0.2-3.7-0.2-5.1h-0.2c-0.2,1.8-0.4,3.9-0.8,6L397,550h-10.9l9.5-53.7h17l3.9,33.5
		c0.3,2.6,0.4,4.6,0.2,6.5h0.2c0.5-1.9,1.3-4,2.5-6.7l15.5-33.4h10.8 M435.1,532.6l3.4-19.2c0.4-2,0.8-4,1.3-6.1h-0.2
		c-0.5,1.5-1.4,3.8-2.1,5.2l-6.6,14.3 M433.2,543.2l1.9-10.6"/>
</g>
</svg>
