<?xml version="1.0" encoding="utf-8"?>
<!-- Generator: Adobe Illustrator 25.2.3, SVG Export Plug-In . SVG Version: 6.00 Build 0)  -->
<svg version="1.1" id="Camada_1" xmlns="http://www.w3.org/2000/svg" xmlns:xlink="http://www.w3.org/1999/xlink" x="0px" y="0px"
	 viewBox="0 0 793 558" style="enable-background:new 0 0 793 558;" xml:space="preserve">
<style type="text/css">
	.st0{fill:#00BFFF;}
</style>
<path class="st0" d="M1.8,172.8h3L7.9,184c0.1,0.6,0.3,1.2,0.4,1.9h0.1c0.1-0.6,0.3-1.3,0.4-1.9l3.1-11.2h3.2l3.1,11.2
	c0.1,0.6,0.3,1.2,0.4,1.9h0.1c0.1-0.6,0.2-1.3,0.4-1.9l3.1-11.2h3l-4.8,15.7h-3.2l-3.3-11.3c-0.1-0.5-0.3-1.3-0.4-1.8h-0.1
	c-0.1,0.5-0.2,1.3-0.4,1.8l-3.3,11.3H6.6L1.8,172.8z"/>
<path class="st0" d="M27.1,184.3c0-1.6,0.9-2.9,2.4-3.7c1.3-0.6,3-1,5.8-1.3l3.2-0.3v-0.2c0-2.9-1.1-4.1-3.8-4.1
	c-2.3,0-3.8,1.1-3.9,3.1h-3.1c0.2-3.2,3-5.3,7-5.3c4.7,0,6.8,1.9,6.8,6.5v4.2c0,2.4,0.2,4.1,0.6,5.3h-3.1c-0.1-0.8-0.2-1.9-0.3-2.9
	c-0.8,2-3,3.2-5.8,3.2C29.4,188.9,27.1,187,27.1,184.3z M38.5,181.7v-0.8l-4.7,0.6c-2.5,0.3-3.6,1.2-3.6,2.7c0,1.5,1.3,2.5,3.4,2.5
	C36.5,186.7,38.5,184.7,38.5,181.7z"/>
<path class="st0" d="M45.4,183.7l3-0.5c0.4,2.3,2.1,3.5,4.6,3.5c2.3,0,3.6-0.9,3.6-2.4c0-1.6-0.9-2.3-2.7-2.5l-2.8-0.3
	c-3.4-0.3-5-2.1-5-4.5c0-2.9,2.5-4.6,6.5-4.6c3.9,0,6.6,1.9,6.9,4.8l-2.9,0.6c-0.4-1.9-1.8-3.2-4.1-3.2c-2.3,0-3.6,0.8-3.6,2.4
	c0,1.4,1,2.2,3.1,2.4l2.7,0.3c3.4,0.3,4.7,2,4.7,4.5c0,3-2.4,4.8-6.6,4.8C48.8,188.9,46,187,45.4,183.7z"/>
<path class="st0" d="M71.5,184.3c0-1.6,0.9-2.9,2.4-3.7c1.3-0.6,3-1,5.8-1.3l3.2-0.3v-0.2c0-2.9-1.1-4.1-3.8-4.1
	c-2.3,0-3.8,1.1-3.9,3.1H72c0.2-3.2,3-5.3,7-5.3c4.7,0,6.8,1.9,6.8,6.5v4.2c0,2.4,0.2,4.1,0.6,5.3h-3.1c-0.1-0.8-0.2-1.9-0.3-2.9
	c-0.8,2-3,3.2-5.8,3.2C73.8,188.9,71.5,187,71.5,184.3z M82.9,181.7v-0.8l-4.7,0.6c-2.5,0.3-3.6,1.2-3.6,2.7c0,1.5,1.3,2.5,3.4,2.5
	C80.9,186.7,82.9,184.7,82.9,181.7z"/>
<path class="st0" d="M97.5,172.8h3.2v-4.1l2.9-1.1v5.2h4.3v2.2h-4.3v8.7c0,1.8,0.8,2.6,2.5,2.6c0.8,0,1.2-0.1,1.8-0.2v2.5
	c-0.8,0.2-1.4,0.3-2.5,0.3c-3.7,0-4.7-2.1-4.7-5V175h-3.2L97.5,172.8L97.5,172.8z"/>
<path class="st0" d="M110.7,172.8h3l3.1,11.2c0.1,0.6,0.3,1.2,0.4,1.9h0.1c0.1-0.6,0.3-1.3,0.4-1.9l3.1-11.2h3.2l3.1,11.2
	c0.1,0.6,0.3,1.2,0.4,1.9h0.1c0.1-0.6,0.2-1.3,0.4-1.9l3.1-11.2h3l-4.8,15.7h-3.2l-3.3-11.3c-0.1-0.5-0.3-1.3-0.4-1.8h-0.1
	c-0.1,0.5-0.2,1.3-0.4,1.8l-3.3,11.3h-3.2L110.7,172.8z"/>
<path class="st0" d="M137.9,166.5h3.3v3.4h-3.3V166.5z M138.1,172.8h2.9v15.7h-2.9V172.8z"/>
<path class="st0" d="M144.6,172.8h3.2v-4.1l2.9-1.1v5.2h4.3v2.2h-4.3v8.7c0,1.8,0.8,2.6,2.5,2.6c0.8,0,1.2-0.1,1.8-0.2v2.5
	c-0.8,0.2-1.4,0.3-2.5,0.3c-3.7,0-4.7-2.1-4.7-5V175h-3.2L144.6,172.8L144.6,172.8z"/>
<path class="st0" d="M157.4,172.8h3.2v-4.1l2.9-1.1v5.2h4.3v2.2h-4.3v8.7c0,1.8,0.8,2.6,2.5,2.6c0.8,0,1.2-0.1,1.8-0.2v2.5
	c-0.8,0.2-1.4,0.3-2.5,0.3c-3.7,0-4.7-2.1-4.7-5V175h-3.2L157.4,172.8L157.4,172.8z"/>
<path class="st0" d="M185,181.4h-12.2c0,3.1,2.1,5.1,5.1,5.1c2.2,0,3.8-1.1,4.6-3l2.4,1c-1.2,2.9-3.7,4.4-7.2,4.4
	c-4.9,0-7.8-2.9-7.8-8c0-5.2,2.9-8.4,7.8-8.4c4.6,0,7.3,2.4,7.3,7.1V181.4z M182,178.9c0-2.9-1.6-4.4-4.4-4.4c-3,0-4.7,1.8-4.8,4.7
	h9.2L182,178.9L182,178.9z"/>
<path class="st0" d="M197.7,172.4c0.2,0,0.4,0,0.6,0v2.6h-0.1c-1.8,0-3,0.5-3.8,1.2c-1.6,1.5-1.7,3.6-1.7,5.5v6.7h-2.9v-15.7h2.7
	v3.6C193.3,174.2,195.1,172.4,197.7,172.4z"/>
<path class="st0" d="M208.1,184.3c0-1.6,0.9-2.9,2.4-3.7c1.3-0.6,3-1,5.8-1.3l3.2-0.3v-0.2c0-2.9-1.1-4.1-3.8-4.1
	c-2.3,0-3.8,1.1-3.9,3.1h-3.1c0.2-3.2,3-5.3,7-5.3c4.7,0,6.8,1.9,6.8,6.5v4.2c0,2.4,0.2,4.1,0.6,5.3h-3.1c-0.1-0.8-0.2-1.9-0.3-2.9
	c-0.8,2-3,3.2-5.8,3.2C210.4,188.9,208.1,187,208.1,184.3z M219.5,181.7v-0.8l-4.7,0.6c-2.5,0.3-3.6,1.2-3.6,2.7
	c0,1.5,1.3,2.5,3.4,2.5C217.5,186.7,219.5,184.7,219.5,181.7z"/>
<path class="st0" d="M226.4,180.6c0-5.1,3-8.2,7.9-8.2c4,0,6.6,2.1,7.1,5.7l-3,0.3c-0.3-2.4-1.8-3.7-4.2-3.7c-3,0-4.7,2.2-4.7,5.9
	c0,3.8,1.8,5.9,4.8,5.9c2.3,0,3.8-1.3,4.2-3.7l2.8,0.4c-0.6,3.6-3.2,5.6-7,5.6C229.5,188.9,226.4,185.7,226.4,180.6z"/>
<path class="st0" d="M244.5,180.6c0-5.1,3-8.2,7.9-8.2c4,0,6.6,2.1,7.1,5.7l-3,0.3c-0.3-2.4-1.8-3.7-4.2-3.7c-3,0-4.7,2.2-4.7,5.9
	c0,3.8,1.8,5.9,4.8,5.9c2.3,0,3.8-1.3,4.2-3.7l2.8,0.4c-0.6,3.6-3.2,5.6-7,5.6C247.6,188.9,244.5,185.7,244.5,180.6z"/>
<path class="st0" d="M262.6,180.6c0-5.1,3.2-8.2,8-8.2s8,3.1,8,8.2c0,5.1-3.2,8.2-8,8.2C265.7,188.9,262.6,185.8,262.6,180.6z
	 M275.5,180.6c0-3.9-1.8-5.9-4.9-5.9c-3.1,0-4.9,2-4.9,5.9c0,3.9,1.8,5.9,4.9,5.9C273.6,186.5,275.5,184.5,275.5,180.6z"/>
<path class="st0" d="M282.7,182.8v-10h2.9v9.7c0,2.6,1.2,4.1,3.5,4.1c2.7,0,4.6-2.1,4.6-5.3v-8.4h2.9v15.7h-2.7v-2.9
	c-0.8,1.9-2.9,3.3-5.3,3.3C284.2,188.9,282.7,186.5,282.7,182.8z"/>
<path class="st0" d="M302.8,172.8h2.7v3.1c1.1-2.4,3-3.5,5.7-3.5c3.8,0,5.7,2.2,5.7,6.4v9.8h-2.9v-9.6c0-2.8-1.3-4.2-3.8-4.2
	c-2.9,0-4.6,2.1-4.6,5.6v8.2h-2.9V172.8z"/>
<path class="st0" d="M319.8,172.8h3.2v-4.1l2.9-1.1v5.2h4.3v2.2h-4.3v8.7c0,1.8,0.8,2.6,2.5,2.6c0.8,0,1.2-0.1,1.8-0.2v2.5
	c-0.8,0.2-1.4,0.3-2.5,0.3c-3.7,0-4.7-2.1-4.7-5V175h-3.2L319.8,172.8L319.8,172.8z"/>
<path class="st0" d="M340.5,172.8h3.2v-4.1l2.9-1.1v5.2h4.3v2.2h-4.3v8.7c0,1.8,0.8,2.6,2.5,2.6c0.8,0,1.2-0.1,1.8-0.2v2.5
	c-0.8,0.2-1.4,0.3-2.5,0.3c-3.7,0-4.7-2.1-4.7-5V175h-3.2L340.5,172.8L340.5,172.8z"/>
<path class="st0" d="M355.3,165.7h2.9v10c1-2.2,3-3.4,5.6-3.4c3.7,0,5.7,2.2,5.7,6.4v9.8h-2.9v-9.6c0-2.8-1.3-4.2-3.7-4.2
	c-3,0-4.6,2-4.6,5.6v8.2h-2.9L355.3,165.7L355.3,165.7z"/>
<path class="st0" d="M373.7,184.3c0-1.6,0.9-2.9,2.4-3.7c1.3-0.6,3-1,5.8-1.3l3.2-0.3v-0.2c0-2.9-1.1-4.1-3.8-4.1
	c-2.3,0-3.8,1.1-3.9,3.1h-3.1c0.2-3.2,3-5.3,7-5.3c4.7,0,6.8,1.9,6.8,6.5v4.2c0,2.4,0.2,4.1,0.6,5.3h-3.1c-0.1-0.8-0.2-1.9-0.3-2.9
	c-0.8,2-3,3.2-5.8,3.2C376,188.9,373.7,187,373.7,184.3z M385.1,181.7v-0.8l-4.7,0.6c-2.5,0.3-3.6,1.2-3.6,2.7
	c0,1.5,1.3,2.5,3.4,2.5C383.1,186.7,385.1,184.7,385.1,181.7z"/>
<path class="st0" d="M390.5,172.8h3.2v-4.1l2.9-1.1v5.2h4.3v2.2h-4.3v8.7c0,1.8,0.8,2.6,2.5,2.6c0.8,0,1.2-0.1,1.8-0.2v2.5
	c-0.8,0.2-1.4,0.3-2.5,0.3c-3.7,0-4.7-2.1-4.7-5V175h-3.2L390.5,172.8L390.5,172.8z"/>
<path class="st0" d="M412.5,180.6c0-5.1,3-8.2,7.9-8.2c4,0,6.6,2.1,7.1,5.7l-3,0.3c-0.3-2.4-1.8-3.7-4.2-3.7c-3,0-4.7,2.2-4.7,5.9
	c0,3.8,1.8,5.9,4.8,5.9c2.3,0,3.8-1.3,4.2-3.7l2.8,0.4c-0.6,3.6-3.2,5.6-7,5.6C415.6,188.9,412.5,185.7,412.5,180.6z"/>
<path class="st0" d="M430.6,180.6c0-5.1,3.2-8.2,8-8.2c4.8,0,8,3.1,8,8.2c0,5.1-3.2,8.2-8,8.2C433.7,188.9,430.6,185.8,430.6,180.6z
	 M443.5,180.6c0-3.9-1.8-5.9-4.9-5.9c-3.1,0-4.9,2-4.9,5.9c0,3.9,1.8,5.9,4.9,5.9C441.7,186.6,443.5,184.5,443.5,180.6z"/>
<path class="st0" d="M451,166.5h3.3v3.4H451V166.5z M451.2,172.8h2.9v15.7h-2.9V172.8z"/>
<path class="st0" d="M460.3,172.8h2.7v3.1c1.1-2.4,3-3.5,5.7-3.5c3.8,0,5.7,2.2,5.7,6.4v9.8h-2.9v-9.6c0-2.8-1.3-4.2-3.8-4.2
	c-2.9,0-4.6,2.1-4.6,5.6v8.2h-2.9V172.8z"/>
<path class="st0" d="M493.8,181.4h-12.2c0,3.1,2.1,5.1,5.1,5.1c2.2,0,3.8-1.1,4.6-3l2.4,1c-1.2,2.9-3.7,4.4-7.2,4.4
	c-4.9,0-7.8-2.9-7.8-8c0-5.2,2.9-8.4,7.8-8.4c4.6,0,7.3,2.4,7.3,7.1V181.4z M490.8,178.9c0-2.9-1.6-4.4-4.4-4.4
	c-3,0-4.7,1.8-4.8,4.7h9.2L490.8,178.9L490.8,178.9z"/>
<path class="st0" d="M497,180.6c0-4.8,3-8.2,7.3-8.2c2.3,0,4,0.8,5,2.7v-9.4h2.9v22.7h-2.7v-2.9c-1,2.1-2.9,3.3-5.6,3.3
	C499.8,188.9,497,185.6,497,180.6z M509.5,181v-0.7c0-3.4-1.8-5.5-4.7-5.5c-2.9,0-4.7,2.2-4.7,5.9c0,3.7,1.7,5.9,4.7,5.9
	C507.6,186.5,509.5,184.4,509.5,181z"/>
<path class="st0" d="M524.7,172.8h3.2v-4.1l2.9-1.1v5.2h4.3v2.2h-4.3v8.7c0,1.8,0.8,2.6,2.5,2.6c0.8,0,1.2-0.1,1.8-0.2v2.5
	c-0.8,0.2-1.4,0.3-2.5,0.3c-3.7,0-4.7-2.1-4.7-5V175h-3.2L524.7,172.8L524.7,172.8z"/>
<path class="st0" d="M539.5,165.7h2.9v10c1-2.2,3-3.4,5.6-3.4c3.7,0,5.7,2.2,5.7,6.4v9.8h-2.9v-9.6c0-2.8-1.3-4.2-3.7-4.2
	c-3,0-4.6,2-4.6,5.6v8.2h-2.9L539.5,165.7L539.5,165.7z"/>
<path class="st0" d="M573,181.4h-12.2c0,3.1,2.1,5.1,5.1,5.1c2.2,0,3.8-1.1,4.6-3l2.4,1c-1.2,2.9-3.7,4.4-7.2,4.4
	c-4.9,0-7.8-2.9-7.8-8c0-5.2,2.9-8.4,7.8-8.4c4.6,0,7.3,2.4,7.3,7.1V181.4z M570,178.9c0-2.9-1.6-4.4-4.4-4.4c-3,0-4.7,1.8-4.8,4.7
	h9.2L570,178.9L570,178.9z"/>
<path class="st0" d="M583.8,172.8h3.2v-4.1l2.9-1.1v5.2h4.3v2.2h-4.3v8.7c0,1.8,0.8,2.6,2.5,2.6c0.8,0,1.2-0.1,1.8-0.2v2.5
	c-0.8,0.2-1.4,0.3-2.5,0.3c-3.7,0-4.7-2.1-4.7-5V175h-3.2L583.8,172.8L583.8,172.8z"/>
<path class="st0" d="M611.4,181.4h-12.2c0,3.1,2.1,5.1,5.1,5.1c2.2,0,3.8-1.1,4.6-3l2.4,1c-1.2,2.9-3.7,4.4-7.2,4.4
	c-4.9,0-7.8-2.9-7.8-8c0-5.2,2.9-8.4,7.8-8.4c4.6,0,7.3,2.4,7.3,7.1V181.4z M608.4,178.9c0-2.9-1.6-4.4-4.4-4.4
	c-3,0-4.7,1.8-4.8,4.7h9.2L608.4,178.9L608.4,178.9z"/>
<path class="st0" d="M624.1,172.4c0.2,0,0.4,0,0.6,0v2.6h-0.1c-1.8,0-3,0.5-3.8,1.2c-1.6,1.5-1.7,3.6-1.7,5.5v6.7h-2.9v-15.7h2.7
	v3.6C619.7,174.2,621.5,172.4,624.1,172.4z"/>
<path class="st0" d="M631.2,172.8v2.7c1-2.1,2.6-3.2,4.9-3.2c2.4,0,4.1,1.1,4.9,3.2c1.1-2.1,2.9-3.2,5.2-3.2c3.3,0,5.2,2.2,5.2,5.8
	v10.3h-2.9v-10.1c0-2.4-1.1-3.7-3.3-3.7c-2.4,0-3.8,1.6-3.8,4.5v9.3h-2.9v-10.2c0-2.3-1.2-3.6-3.2-3.6c-2.4,0-3.9,1.8-3.9,4.6v9.2
	h-2.9v-15.7H631.2z"/>
<path class="st0" d="M12,218.9H7.7v13.5H4.8v-13.5H1.6v-2.2h3.2v-2.5c0-2.9,2-4.8,5-4.8c0.8,0,1.6,0.1,2.2,0.2v2.3
	c-0.6-0.1-1.3-0.2-1.8-0.2c-1.7,0-2.5,0.9-2.5,2.8v2.1H12V218.9z"/>
<path class="st0" d="M13.5,224.6c0-5.1,3.2-8.2,8-8.2s8,3.1,8,8.2c0,5.1-3.2,8.2-8,8.2C16.7,232.8,13.5,229.7,13.5,224.6z
	 M26.4,224.6c0-3.9-1.8-5.9-4.9-5.9c-3.1,0-4.9,2-4.9,5.9c0,3.9,1.8,5.9,4.9,5.9C24.6,230.5,26.4,228.5,26.4,224.6z"/>
<path class="st0" d="M42.1,216.4c0.2,0,0.4,0,0.6,0v2.6h-0.1c-1.8,0-3,0.5-3.8,1.2c-1.6,1.5-1.7,3.6-1.7,5.5v6.7h-2.9v-15.7h2.7v3.6
	C37.7,218.1,39.5,216.4,42.1,216.4z"/>
<path class="st0" d="M51.1,216.7h3.2v-4.1l2.9-1.1v5.2h4.3v2.2h-4.3v8.7c0,1.8,0.8,2.6,2.5,2.6c0.8,0,1.2-0.1,1.8-0.2v2.5
	c-0.8,0.2-1.4,0.3-2.5,0.3c-3.7,0-4.7-2.1-4.7-5V219h-3.2L51.1,216.7L51.1,216.7z"/>
<path class="st0" d="M66,209.7h2.9v10c1-2.2,3-3.4,5.6-3.4c3.7,0,5.7,2.2,5.7,6.4v9.8h-2.9v-9.6c0-2.8-1.3-4.2-3.7-4.2
	c-3,0-4.6,2-4.6,5.6v8.2H66L66,209.7L66,209.7z"/>
<path class="st0" d="M99.4,225.4H87.3c0,3.1,2.1,5.1,5.1,5.1c2.2,0,3.8-1.1,4.6-3l2.4,1c-1.2,2.9-3.7,4.4-7.2,4.4
	c-4.9,0-7.8-2.9-7.8-8c0-5.2,2.9-8.4,7.8-8.4c4.6,0,7.3,2.4,7.3,7.1V225.4z M96.5,222.9c0-2.9-1.6-4.4-4.4-4.4c-3,0-4.7,1.8-4.8,4.7
	h9.2L96.5,222.9L96.5,222.9z"/>
<path class="st0" d="M102.5,227.6l3-0.5c0.4,2.3,2.1,3.5,4.6,3.5c2.3,0,3.6-0.9,3.6-2.4c0-1.6-0.9-2.3-2.7-2.5l-2.8-0.3
	c-3.4-0.3-5-2.1-5-4.5c0-2.9,2.5-4.6,6.5-4.6c3.9,0,6.6,1.9,6.9,4.8l-2.9,0.6c-0.4-1.9-1.8-3.2-4.1-3.2c-2.3,0-3.6,0.8-3.6,2.4
	c0,1.4,1,2.2,3.1,2.4l2.7,0.3c3.4,0.3,4.7,2,4.7,4.5c0,3-2.4,4.8-6.6,4.8C105.9,232.8,103.1,231,102.5,227.6z"/>
<path class="st0" d="M134.8,225.4h-12.2c0,3.1,2.1,5.1,5.1,5.1c2.2,0,3.8-1.1,4.6-3l2.4,1c-1.2,2.9-3.7,4.4-7.2,4.4
	c-4.9,0-7.8-2.9-7.8-8c0-5.2,2.9-8.4,7.8-8.4c4.6,0,7.3,2.4,7.3,7.1V225.4z M131.8,222.9c0-2.9-1.6-4.4-4.4-4.4
	c-3,0-4.7,1.8-4.8,4.7h9.2L131.8,222.9L131.8,222.9z"/>
<path class="st0" d="M148.3,210.5h3.3v3.4h-3.3V210.5z M148.5,216.7h2.9v15.7h-2.9V216.7z"/>
<path class="st0" d="M160.7,232.4h-2.9v-22.7h2.9V232.4z"/>
<path class="st0" d="M170.1,232.4h-2.9v-22.7h2.9V232.4z"/>
<path class="st0" d="M176,226.7v-10h2.9v9.7c0,2.6,1.2,4.1,3.5,4.1c2.7,0,4.6-2.1,4.6-5.3v-8.4h2.9v15.7h-2.7v-2.9
	c-0.8,1.9-2.9,3.3-5.3,3.3C177.5,232.8,176,230.4,176,226.7z"/>
<path class="st0" d="M194.4,227.6l3-0.5c0.4,2.3,2.1,3.5,4.6,3.5c2.3,0,3.6-0.9,3.6-2.4c0-1.6-0.9-2.3-2.7-2.5l-2.8-0.3
	c-3.4-0.3-5-2.1-5-4.5c0-2.9,2.5-4.6,6.5-4.6c3.9,0,6.6,1.9,6.9,4.8l-2.9,0.6c-0.4-1.9-1.8-3.2-4.1-3.2c-2.3,0-3.6,0.8-3.6,2.4
	c0,1.4,1,2.2,3.1,2.4l2.7,0.3c3.4,0.3,4.7,2,4.7,4.5c0,3-2.4,4.8-6.6,4.8C197.7,232.8,195,231,194.4,227.6z"/>
<path class="st0" d="M210.3,216.7h3.2v-4.1l2.9-1.1v5.2h4.3v2.2h-4.3v8.7c0,1.8,0.8,2.6,2.5,2.6c0.8,0,1.2-0.1,1.8-0.2v2.5
	c-0.8,0.2-1.4,0.3-2.5,0.3c-3.7,0-4.7-2.1-4.7-5V219h-3.2L210.3,216.7L210.3,216.7z"/>
<path class="st0" d="M232.9,216.4c0.2,0,0.4,0,0.6,0v2.6h-0.1c-1.8,0-3,0.5-3.8,1.2c-1.6,1.5-1.7,3.6-1.7,5.5v6.7H225v-15.7h2.7v3.6
	C228.5,218.1,230.3,216.4,232.9,216.4z"/>
<path class="st0" d="M235.4,228.2c0-1.6,0.9-2.9,2.4-3.7c1.3-0.6,3-1,5.8-1.3l3.2-0.3v-0.2c0-2.9-1.1-4.1-3.8-4.1
	c-2.3,0-3.8,1.1-3.9,3.1H236c0.2-3.2,3-5.3,7-5.3c4.7,0,6.8,1.9,6.8,6.5v4.2c0,2.4,0.2,4.1,0.6,5.3h-3.1c-0.1-0.8-0.2-1.9-0.3-2.9
	c-0.8,2-3,3.2-5.8,3.2C237.7,232.8,235.4,231,235.4,228.2z M246.8,225.6v-0.8l-4.7,0.6c-2.5,0.3-3.6,1.2-3.6,2.7
	c0,1.5,1.3,2.5,3.4,2.5C244.9,230.6,246.8,228.6,246.8,225.6z"/>
<path class="st0" d="M252.2,216.7h3.2v-4.1l2.9-1.1v5.2h4.3v2.2h-4.3v8.7c0,1.8,0.8,2.6,2.5,2.6c0.8,0,1.2-0.1,1.8-0.2v2.5
	c-0.8,0.2-1.4,0.3-2.5,0.3c-3.7,0-4.7-2.1-4.7-5V219h-3.2L252.2,216.7L252.2,216.7z"/>
<path class="st0" d="M266.7,210.5h3.3v3.4h-3.3V210.5z M266.9,216.7h2.9v15.7h-2.9V216.7z"/>
<path class="st0" d="M274.5,224.6c0-5.1,3.2-8.2,8-8.2s8,3.1,8,8.2c0,5.1-3.2,8.2-8,8.2C277.6,232.8,274.5,229.7,274.5,224.6z
	 M287.4,224.6c0-3.9-1.8-5.9-4.9-5.9s-4.9,2-4.9,5.9c0,3.9,1.8,5.9,4.9,5.9C285.6,230.5,287.4,228.5,287.4,224.6z"/>
<path class="st0" d="M295.1,216.7h2.7v3.1c1.1-2.4,3-3.5,5.7-3.5c3.8,0,5.7,2.2,5.7,6.4v9.8h-2.9v-9.6c0-2.8-1.3-4.2-3.8-4.2
	c-2.9,0-4.6,2.1-4.6,5.6v8.2h-2.9V216.7z"/>
<path class="st0" d="M313.3,227.6l3-0.5c0.4,2.3,2.1,3.5,4.6,3.5c2.3,0,3.6-0.9,3.6-2.4c0-1.6-0.9-2.3-2.7-2.5l-2.8-0.3
	c-3.4-0.3-5-2.1-5-4.5c0-2.9,2.5-4.6,6.5-4.6c3.9,0,6.6,1.9,6.9,4.8l-2.9,0.6c-0.4-1.9-1.8-3.2-4.1-3.2c-2.3,0-3.6,0.8-3.6,2.4
	c0,1.4,1,2.2,3.1,2.4l2.7,0.3c3.4,0.3,4.7,2,4.7,4.5c0,3-2.4,4.8-6.6,4.8C316.6,232.8,313.9,231,313.3,227.6z"/>
<path class="st0" d="M348.7,218.9h-4.3v13.5h-2.9v-13.5h-3.2v-2.2h3.2v-2.5c0-2.9,2-4.8,5-4.8c0.8,0,1.6,0.1,2.2,0.2v2.3
	c-0.6-0.1-1.3-0.2-1.8-0.2c-1.7,0-2.5,0.9-2.5,2.8v2.1h4.3V218.9z"/>
<path class="st0" d="M350.2,224.6c0-5.1,3.2-8.2,8-8.2c4.8,0,8,3.1,8,8.2c0,5.1-3.2,8.2-8,8.2C353.4,232.8,350.2,229.7,350.2,224.6z
	 M363.1,224.6c0-3.9-1.8-5.9-4.9-5.9c-3.1,0-4.9,2-4.9,5.9c0,3.9,1.8,5.9,4.9,5.9C361.3,230.5,363.1,228.5,363.1,224.6z"/>
<path class="st0" d="M370.3,226.7v-10h2.9v9.7c0,2.6,1.2,4.1,3.5,4.1c2.7,0,4.6-2.1,4.6-5.3v-8.4h2.9v15.7h-2.7v-2.9
	c-0.8,1.9-2.9,3.3-5.3,3.3C371.9,232.8,370.3,230.4,370.3,226.7z"/>
<path class="st0" d="M390.5,216.7h2.7v3.1c1.1-2.4,3-3.5,5.7-3.5c3.8,0,5.7,2.2,5.7,6.4v9.8h-2.9v-9.6c0-2.8-1.3-4.2-3.8-4.2
	c-2.9,0-4.6,2.1-4.6,5.6v8.2h-2.9V216.7z"/>
<path class="st0" d="M408.8,224.6c0-4.8,3-8.2,7.3-8.2c2.3,0,4,0.8,5,2.7v-9.4h2.9v22.7h-2.7v-2.9c-1,2.1-2.9,3.3-5.6,3.3
	C411.6,232.8,408.8,229.5,408.8,224.6z M421.2,225v-0.7c0-3.4-1.8-5.5-4.7-5.5c-2.9,0-4.7,2.2-4.7,5.9c0,3.7,1.7,5.9,4.7,5.9
	C419.4,230.4,421.2,228.3,421.2,225z"/>
<path class="st0" d="M437.8,224.6c0-5.1,3.2-8.2,8-8.2c4.8,0,8,3.1,8,8.2c0,5.1-3.2,8.2-8,8.2C441,232.8,437.8,229.7,437.8,224.6z
	 M450.7,224.6c0-3.9-1.8-5.9-4.9-5.9c-3.1,0-4.9,2-4.9,5.9c0,3.9,1.8,5.9,4.9,5.9C448.9,230.5,450.7,228.5,450.7,224.6z"/>
<path class="st0" d="M458.4,216.7h2.7v3.1c1.1-2.4,3-3.5,5.7-3.5c3.8,0,5.7,2.2,5.7,6.4v9.8h-2.9v-9.6c0-2.8-1.3-4.2-3.8-4.2
	c-2.9,0-4.6,2.1-4.6,5.6v8.2h-2.9V216.7z"/>
<path class="st0" d="M485.7,224.6c0-5.1,3-8.2,7.9-8.2c4,0,6.6,2.1,7.1,5.7l-3,0.3c-0.3-2.4-1.8-3.7-4.2-3.7c-3,0-4.7,2.2-4.7,5.9
	c0,3.8,1.8,5.9,4.8,5.9c2.3,0,3.8-1.3,4.2-3.7l2.8,0.4c-0.6,3.6-3.2,5.6-7,5.6C488.8,232.8,485.7,229.6,485.7,224.6z"/>
<path class="st0" d="M503.8,224.6c0-5.1,3.2-8.2,8-8.2c4.8,0,8,3.1,8,8.2c0,5.1-3.2,8.2-8,8.2C506.9,232.8,503.8,229.7,503.8,224.6z
	 M516.7,224.6c0-3.9-1.8-5.9-4.9-5.9c-3.1,0-4.9,2-4.9,5.9c0,3.9,1.8,5.9,4.9,5.9C514.8,230.5,516.7,228.5,516.7,224.6z"/>
<path class="st0" d="M527.1,216.7v2.7c1-2.1,2.6-3.2,4.9-3.2c2.4,0,4.1,1.1,4.9,3.2c1.1-2.1,2.9-3.2,5.2-3.2c3.3,0,5.2,2.2,5.2,5.8
	v10.3h-2.9v-10.1c0-2.4-1.1-3.7-3.3-3.7c-2.4,0-3.8,1.6-3.8,4.5v9.3h-2.9v-10.2c0-2.3-1.2-3.6-3.2-3.6c-2.4,0-3.9,1.8-3.9,4.6v9.2
	h-2.9v-15.7H527.1z"/>
<path class="st0" d="M553,216.7h2.7v2.9c1.1-2.2,3.1-3.3,5.6-3.3c4.2,0,6.9,3.3,6.9,8.2c0,5-3,8.2-7.1,8.2c-2.6,0-4.5-1.3-5.3-2.9
	v8.6H553V216.7z M565.2,224.6c0-3.7-1.7-5.9-4.6-5.9s-4.7,2.1-4.7,5.5v0.8c0,3.4,1.8,5.5,4.6,5.5
	C563.4,230.4,565.2,228.2,565.2,224.6z"/>
<path class="st0" d="M571.2,228.2c0-1.6,0.9-2.9,2.4-3.7c1.3-0.6,3-1,5.8-1.3l3.2-0.3v-0.2c0-2.9-1.1-4.1-3.8-4.1
	c-2.3,0-3.8,1.1-3.9,3.1h-3.1c0.2-3.2,3-5.3,7-5.3c4.7,0,6.8,1.9,6.8,6.5v4.2c0,2.4,0.2,4.1,0.6,5.3h-3.1c-0.1-0.8-0.2-1.9-0.3-2.9
	c-0.8,2-3,3.2-5.8,3.2C573.5,232.8,571.2,231,571.2,228.2z M582.6,225.6v-0.8l-4.7,0.6c-2.5,0.3-3.6,1.2-3.6,2.7
	c0,1.5,1.3,2.5,3.4,2.5C580.7,230.6,582.6,228.6,582.6,225.6z"/>
<path class="st0" d="M591.3,216.7h2.7v3.1c1.1-2.4,3-3.5,5.7-3.5c3.8,0,5.7,2.2,5.7,6.4v9.8h-2.9v-9.6c0-2.8-1.3-4.2-3.8-4.2
	c-2.9,0-4.6,2.1-4.6,5.6v8.2h-2.9V216.7z"/>
<path class="st0" d="M610.9,210.5h3.3v3.4h-3.3V210.5z M611.2,216.7h2.9v15.7h-2.9V216.7z"/>
<path class="st0" d="M633.8,225.4h-12.2c0,3.1,2.1,5.1,5.1,5.1c2.2,0,3.8-1.1,4.6-3l2.4,1c-1.2,2.9-3.7,4.4-7.2,4.4
	c-4.9,0-7.8-2.9-7.8-8c0-5.2,2.9-8.4,7.8-8.4c4.6,0,7.3,2.4,7.3,7.1V225.4z M630.9,222.9c0-2.9-1.6-4.4-4.4-4.4
	c-3,0-4.7,1.8-4.8,4.7h9.2L630.9,222.9L630.9,222.9z"/>
<path class="st0" d="M636.9,227.6l3-0.5c0.4,2.3,2.1,3.5,4.6,3.5c2.3,0,3.6-0.9,3.6-2.4c0-1.6-0.9-2.3-2.7-2.5l-2.8-0.3
	c-3.4-0.3-5-2.1-5-4.5c0-2.9,2.5-4.6,6.5-4.6c3.9,0,6.6,1.9,6.9,4.8l-2.9,0.6c-0.4-1.9-1.8-3.2-4.1-3.2c-2.3,0-3.6,0.8-3.6,2.4
	c0,1.4,1,2.2,3.1,2.4l2.7,0.3c3.4,0.3,4.7,2,4.7,4.5c0,3-2.4,4.8-6.6,4.8C640.2,232.8,637.5,231,636.9,227.6z"/>
<path class="st0" d="M1.8,260.7h3l3.1,11.2c0.1,0.6,0.3,1.2,0.4,1.9h0.1c0.1-0.6,0.3-1.3,0.4-1.9l3.1-11.2h3.2l3.1,11.2
	c0.1,0.6,0.3,1.2,0.4,1.9h0.1c0.1-0.6,0.2-1.3,0.4-1.9l3.1-11.2h3l-4.8,15.7h-3.2l-3.3-11.3c-0.1-0.5-0.3-1.3-0.4-1.8h-0.1
	c-0.1,0.5-0.2,1.3-0.4,1.8l-3.3,11.3H6.6L1.8,260.7z"/>
<path class="st0" d="M42.4,269.3H30.2c0,3.1,2.1,5.1,5.1,5.1c2.2,0,3.8-1.1,4.6-3l2.4,1c-1.2,2.9-3.7,4.4-7.2,4.4
	c-4.9,0-7.8-2.9-7.8-8c0-5.2,2.9-8.4,7.8-8.4c4.6,0,7.3,2.4,7.3,7.1V269.3z M39.4,266.8c0-2.9-1.6-4.4-4.4-4.4c-3,0-4.7,1.8-4.8,4.7
	h9.2L39.4,266.8L39.4,266.8z"/>
<path class="st0" d="M50.1,273.7l-0.5,2.7h-2.2v-22.7h2.9v9.8c0.9-1.8,2.8-3.1,5.5-3.1c4.2,0,6.9,3.4,6.9,8.2c0,4.9-2.8,8.2-7.1,8.2
	C53,276.7,51,275.5,50.1,273.7z M59.5,268.5c0-3.5-1.7-5.9-4.7-5.9c-2.9,0-4.6,2.1-4.6,5.5v0.8c0,3.3,1.7,5.4,4.6,5.4
	C57.8,274.4,59.5,272.1,59.5,268.5z"/>
<path class="st0" d="M65.6,271.5l3-0.5c0.4,2.3,2.1,3.5,4.6,3.5c2.3,0,3.6-0.9,3.6-2.4c0-1.6-0.9-2.3-2.7-2.5l-2.8-0.3
	c-3.4-0.3-5-2.1-5-4.5c0-2.9,2.5-4.6,6.5-4.6c3.9,0,6.6,1.9,6.9,4.8l-2.9,0.6c-0.4-1.9-1.8-3.2-4.1-3.2c-2.3,0-3.6,0.8-3.6,2.4
	c0,1.3,1,2.2,3.1,2.4l2.7,0.3c3.4,0.3,4.7,2,4.7,4.5c0,3-2.4,4.8-6.6,4.8C68.9,276.7,66.2,274.9,65.6,271.5z"/>
<path class="st0" d="M84,254.4h3.3v3.4H84V254.4z M84.2,260.7h2.9v15.7h-2.9V260.7z"/>
<path class="st0" d="M90.8,260.7h3.2v-4.1l2.9-1.1v5.2h4.3v2.2h-4.3v8.7c0,1.8,0.8,2.6,2.5,2.6c0.8,0,1.2-0.1,1.8-0.2v2.5
	c-0.8,0.2-1.4,0.3-2.5,0.3c-3.7,0-4.7-2.1-4.7-5v-8.8h-3.2L90.8,260.7L90.8,260.7z"/>
<path class="st0" d="M118.3,269.3h-12.2c0,3.1,2.1,5.1,5.1,5.1c2.2,0,3.8-1.1,4.6-3l2.4,1c-1.2,2.9-3.7,4.4-7.2,4.4
	c-4.9,0-7.8-2.9-7.8-8c0-5.2,2.9-8.4,7.8-8.4c4.6,0,7.3,2.4,7.3,7.1V269.3z M115.4,266.8c0-2.9-1.6-4.4-4.4-4.4
	c-3,0-4.7,1.8-4.8,4.7h9.2L115.4,266.8L115.4,266.8z"/>
<path class="st0" d="M121.4,271.5l3-0.5c0.4,2.3,2.1,3.5,4.6,3.5c2.3,0,3.6-0.9,3.6-2.4c0-1.6-0.9-2.3-2.7-2.5l-2.8-0.3
	c-3.4-0.3-5-2.1-5-4.5c0-2.9,2.5-4.6,6.5-4.6c3.9,0,6.6,1.9,6.9,4.8l-2.9,0.6c-0.4-1.9-1.8-3.2-4.1-3.2c-2.3,0-3.6,0.8-3.6,2.4
	c0,1.3,1,2.2,3.1,2.4l2.7,0.3c3.4,0.3,4.7,2,4.7,4.5c0,3-2.4,4.8-6.6,4.8C124.7,276.7,122,274.9,121.4,271.5z"/>
<path class="st0" d="M147.5,272.1c0-1.6,0.9-2.9,2.4-3.7c1.3-0.6,3-1,5.8-1.3l3.2-0.3v-0.2c0-2.9-1.1-4.1-3.8-4.1
	c-2.3,0-3.8,1.1-3.9,3.1H148c0.2-3.2,3-5.3,7-5.3c4.7,0,6.8,1.9,6.8,6.5v4.2c0,2.4,0.2,4.1,0.6,5.3h-3.1c-0.1-0.8-0.2-1.9-0.3-2.9
	c-0.8,2-3,3.2-5.8,3.2C149.8,276.7,147.5,274.9,147.5,272.1z M158.9,269.5v-0.8l-4.7,0.6c-2.5,0.3-3.6,1.2-3.6,2.7
	c0,1.5,1.3,2.5,3.4,2.5C156.9,274.5,158.9,272.6,158.9,269.5z"/>
<path class="st0" d="M167.5,260.7h2.7v3.1c1.1-2.4,3-3.5,5.7-3.5c3.8,0,5.7,2.2,5.7,6.4v9.8h-2.9v-9.6c0-2.8-1.3-4.2-3.8-4.2
	c-2.9,0-4.6,2.1-4.6,5.6v8.2h-2.9V260.7z"/>
<path class="st0" d="M185.9,268.5c0-4.8,3-8.2,7.3-8.2c2.3,0,4,0.8,5,2.7v-9.4h2.9v22.7h-2.7v-2.9c-1,2.1-2.9,3.3-5.6,3.3
	C188.7,276.7,185.9,273.4,185.9,268.5z M198.3,268.9v-0.7c0-3.4-1.8-5.5-4.7-5.5c-2.9,0-4.7,2.2-4.7,5.9c0,3.7,1.7,5.9,4.7,5.9
	C196.5,274.4,198.3,272.2,198.3,268.9z"/>
<path class="st0" d="M216.2,254.4h3.3v3.4h-3.3V254.4z M216.4,260.7h2.9v15.7h-2.9V260.7z"/>
<path class="st0" d="M225.5,260.7h2.7v3.1c1.1-2.4,3-3.5,5.7-3.5c3.8,0,5.7,2.2,5.7,6.4v9.8h-2.9v-9.6c0-2.8-1.3-4.2-3.8-4.2
	c-2.9,0-4.6,2.1-4.6,5.6v8.2h-2.9V260.7z"/>
<path class="st0" d="M242.5,260.7h3.2v-4.1l2.9-1.1v5.2h4.3v2.2h-4.3v8.7c0,1.8,0.8,2.6,2.5,2.6c0.8,0,1.2-0.1,1.8-0.2v2.5
	c-0.8,0.2-1.4,0.3-2.5,0.3c-3.7,0-4.7-2.1-4.7-5v-8.8h-3.2L242.5,260.7L242.5,260.7z"/>
<path class="st0" d="M270,269.3h-12.2c0,3.1,2.1,5.1,5.1,5.1c2.2,0,3.8-1.1,4.6-3l2.4,1c-1.2,2.9-3.7,4.4-7.2,4.4
	c-4.9,0-7.8-2.9-7.8-8c0-5.2,2.9-8.4,7.8-8.4c4.6,0,7.3,2.4,7.3,7.1V269.3z M267.1,266.8c0-2.9-1.6-4.4-4.4-4.4
	c-3,0-4.7,1.8-4.8,4.7h9.2L267.1,266.8L267.1,266.8z"/>
<path class="st0" d="M282.8,260.3c0.2,0,0.4,0,0.6,0v2.6h-0.1c-1.8,0-3,0.5-3.8,1.2c-1.6,1.5-1.7,3.6-1.7,5.5v6.7h-2.9v-15.7h2.7
	v3.6C278.4,262,280.2,260.3,282.8,260.3z"/>
<path class="st0" d="M296.2,262.8h-4.3v13.5H289v-13.5h-3.2v-2.2h3.2v-2.5c0-2.9,2-4.8,5-4.8c0.8,0,1.6,0.1,2.2,0.2v2.3
	c-0.6-0.1-1.3-0.2-1.8-0.2c-1.7,0-2.5,0.9-2.5,2.8v2.1h4.3V262.8z"/>
<path class="st0" d="M298.1,272.1c0-1.6,0.9-2.9,2.4-3.7c1.3-0.6,3-1,5.8-1.3l3.2-0.3v-0.2c0-2.9-1.1-4.1-3.8-4.1
	c-2.3,0-3.8,1.1-3.9,3.1h-3.1c0.2-3.2,3-5.3,7-5.3c4.7,0,6.8,1.9,6.8,6.5v4.2c0,2.4,0.2,4.1,0.6,5.3h-3.1c-0.1-0.8-0.2-1.9-0.3-2.9
	c-0.8,2-3,3.2-5.8,3.2C300.4,276.7,298.1,274.9,298.1,272.1z M309.5,269.5v-0.8l-4.7,0.6c-2.5,0.3-3.6,1.2-3.6,2.7
	c0,1.5,1.3,2.5,3.4,2.5C307.5,274.5,309.5,272.6,309.5,269.5z"/>
<path class="st0" d="M316.4,268.5c0-5.1,3-8.2,7.9-8.2c4,0,6.6,2.1,7.1,5.7l-3,0.3c-0.3-2.4-1.8-3.7-4.2-3.7c-3,0-4.7,2.2-4.7,5.9
	c0,3.8,1.8,5.9,4.8,5.9c2.3,0,3.8-1.3,4.2-3.7l2.8,0.4c-0.6,3.6-3.2,5.6-7,5.6C319.5,276.7,316.4,273.5,316.4,268.5z"/>
<path class="st0" d="M349.6,269.3h-12.2c0,3.1,2.1,5.1,5.1,5.1c2.2,0,3.8-1.1,4.6-3l2.4,1c-1.2,2.9-3.7,4.4-7.2,4.4
	c-4.9,0-7.8-2.9-7.8-8c0-5.2,2.9-8.4,7.8-8.4c4.6,0,7.3,2.4,7.3,7.1V269.3z M346.6,266.8c0-2.9-1.6-4.4-4.4-4.4
	c-3,0-4.7,1.8-4.8,4.7h9.2L346.6,266.8L346.6,266.8z"/>
<path class="st0" d="M352.7,271.5l3-0.5c0.4,2.3,2.1,3.5,4.6,3.5c2.3,0,3.6-0.9,3.6-2.4c0-1.6-0.9-2.3-2.7-2.5l-2.8-0.3
	c-3.4-0.3-5-2.1-5-4.5c0-2.9,2.5-4.6,6.5-4.6c3.9,0,6.6,1.9,6.9,4.8l-2.9,0.6c-0.4-1.9-1.8-3.2-4.1-3.2c-2.3,0-3.6,0.8-3.6,2.4
	c0,1.3,1,2.2,3.1,2.4l2.7,0.3c3.4,0.3,4.7,2,4.7,4.5c0,3-2.4,4.8-6.6,4.8C356,276.7,353.3,274.9,352.7,271.5z"/>
<path class="st0" d="M374.3,276.4h-4v-3.7h4V276.4z"/>
<path class="st0" d="M387.2,265.1c0-6.8,3.8-11.6,11.1-11.6c5.9,0,9,3.2,9.6,7.8l-3.3,0.3c-0.5-3.4-2.7-5.6-6.5-5.6
	c-4.8,0-7.5,3.6-7.5,9c0,5.2,2.6,9.2,7.6,9.2c3.5,0,5.9-2.1,6.6-5.4l3.2,0.5c-0.9,4.2-3.9,7.5-9.7,7.5
	C390.6,276.9,387.2,271.6,387.2,265.1z"/>
<path class="st0" d="M420.5,260.3c0.2,0,0.4,0,0.6,0v2.6H421c-1.8,0-3,0.5-3.8,1.2c-1.6,1.5-1.7,3.6-1.7,5.5v6.7h-2.9v-15.7h2.7v3.6
	C416.1,262,417.9,260.3,420.5,260.3z"/>
<path class="st0" d="M437.9,269.3h-12.2c0,3.1,2.1,5.1,5.1,5.1c2.2,0,3.8-1.1,4.6-3l2.4,1c-1.2,2.9-3.7,4.4-7.2,4.4
	c-4.9,0-7.8-2.9-7.8-8c0-5.2,2.9-8.4,7.8-8.4c4.6,0,7.3,2.4,7.3,7.1V269.3z M435,266.8c0-2.9-1.6-4.4-4.4-4.4c-3,0-4.7,1.8-4.8,4.7
	h9.2L435,266.8L435,266.8z"/>
<path class="st0" d="M441,272.1c0-1.6,0.9-2.9,2.4-3.7c1.3-0.6,3-1,5.8-1.3l3.2-0.3v-0.2c0-2.9-1.1-4.1-3.8-4.1
	c-2.3,0-3.8,1.1-3.9,3.1h-3.1c0.2-3.2,3-5.3,7-5.3c4.7,0,6.8,1.9,6.8,6.5v4.2c0,2.4,0.2,4.1,0.6,5.3h-3.1c-0.1-0.8-0.2-1.9-0.3-2.9
	c-0.8,2-3,3.2-5.8,3.2C443.3,276.7,441,274.9,441,272.1z M452.4,269.5v-0.8l-4.7,0.6c-2.5,0.3-3.6,1.2-3.6,2.7
	c0,1.5,1.3,2.5,3.4,2.5C450.5,274.5,452.4,272.6,452.4,269.5z"/>
<path class="st0" d="M457.8,260.7h3.2v-4.1l2.9-1.1v5.2h4.3v2.2h-4.3v8.7c0,1.8,0.8,2.6,2.5,2.6c0.8,0,1.2-0.1,1.8-0.2v2.5
	c-0.8,0.2-1.4,0.3-2.5,0.3c-3.7,0-4.7-2.1-4.7-5v-8.8h-3.2L457.8,260.7L457.8,260.7z"/>
<path class="st0" d="M485.4,269.3h-12.2c0,3.1,2.1,5.1,5.1,5.1c2.2,0,3.8-1.1,4.6-3l2.4,1c-1.2,2.9-3.7,4.4-7.2,4.4
	c-4.9,0-7.8-2.9-7.8-8c0-5.2,2.9-8.4,7.8-8.4c4.6,0,7.3,2.4,7.3,7.1V269.3z M482.4,266.8c0-2.9-1.6-4.4-4.4-4.4
	c-3,0-4.7,1.8-4.8,4.7h9.2L482.4,266.8L482.4,266.8z"/>
<path class="st0" d="M488.7,268.5c0-4.8,3-8.2,7.3-8.2c2.3,0,4,0.8,5,2.7v-9.4h2.9v22.7h-2.7v-2.9c-1,2.1-2.9,3.3-5.6,3.3
	C491.5,276.7,488.7,273.4,488.7,268.5z M501.1,268.9v-0.7c0-3.4-1.8-5.5-4.7-5.5c-2.9,0-4.7,2.2-4.7,5.9c0,3.7,1.7,5.9,4.7,5.9
	C499.3,274.4,501.1,272.2,501.1,268.9z"/>
<path class="st0" d="M522.1,273.7l-0.5,2.7h-2.2v-22.7h2.9v9.8c0.9-1.8,2.8-3.1,5.5-3.1c4.2,0,6.9,3.4,6.9,8.2
	c0,4.9-2.8,8.2-7.1,8.2C525,276.7,523,275.5,522.1,273.7z M531.6,268.5c0-3.5-1.7-5.9-4.7-5.9c-2.9,0-4.6,2.1-4.6,5.5v0.8
	c0,3.3,1.7,5.4,4.6,5.4C529.8,274.4,531.6,272.1,531.6,268.5z"/>
<path class="st0" d="M537.3,282.5v-2.4c0.4,0,0.9,0.1,1.2,0.1c2.1,0,3.1-0.8,3.9-2.9l0.4-1.2l-6.8-15.5h3.3l4.4,10.9
	c0.3,0.8,0.5,1.4,0.6,1.9h0.1c0.1-0.4,0.3-1.1,0.6-1.9l4-10.9h3.2l-6.7,16.7c-1.6,4-3.6,5.3-6.5,5.3
	C538.3,282.7,537.8,282.6,537.3,282.5z"/>
<path class="st0" d="M2.5,312.4c0-4.8,3-8.2,7.3-8.2c2.3,0,4,0.8,5,2.7v-9.4h2.9v22.7H15v-2.9c-1,2.1-2.9,3.3-5.6,3.3
	C5.3,320.7,2.5,317.4,2.5,312.4z M14.9,312.8v-0.7c0-3.4-1.8-5.5-4.7-5.5c-2.9,0-4.7,2.2-4.7,5.9c0,3.7,1.7,5.9,4.7,5.9
	C13.1,318.3,14.9,316.2,14.9,312.8z"/>
<path class="st0" d="M37.7,313.2H25.5c0,3.1,2.1,5.1,5.1,5.1c2.2,0,3.8-1.1,4.6-3l2.4,1c-1.2,2.9-3.7,4.4-7.2,4.4
	c-4.9,0-7.8-2.9-7.8-8c0-5.2,2.9-8.4,7.8-8.4c4.6,0,7.3,2.4,7.3,7.1V313.2z M34.7,310.7c0-2.9-1.6-4.4-4.4-4.4c-3,0-4.7,1.8-4.8,4.7
	h9.2L34.7,310.7L34.7,310.7z"/>
<path class="st0" d="M40.8,315.4l3-0.5c0.4,2.3,2.1,3.5,4.6,3.5c2.3,0,3.6-0.9,3.6-2.4c0-1.6-0.9-2.3-2.7-2.5l-2.8-0.3
	c-3.4-0.3-5-2.1-5-4.5c0-2.9,2.5-4.6,6.5-4.6c3.9,0,6.6,1.9,6.9,4.8l-2.9,0.6c-0.4-1.9-1.8-3.2-4.1-3.2c-2.3,0-3.6,0.8-3.6,2.4
	c0,1.4,1,2.2,3.1,2.4l2.7,0.3c3.4,0.3,4.7,2,4.7,4.5c0,3-2.4,4.8-6.6,4.8C44.1,320.7,41.4,318.8,40.8,315.4z"/>
<path class="st0" d="M59.2,298.3h3.3v3.4h-3.3V298.3z M59.4,304.6h2.9v15.7h-2.9V304.6z"/>
<path class="st0" d="M79.1,305.8c1,0.9,1.6,2.2,1.6,3.7c0,3-2.4,5.4-6.4,5.4c-1.3,0-2.4-0.2-3.3-0.7c-0.7,0.3-1.2,0.8-1.2,1.5
	c0,0.9,0.7,1.6,2.8,1.6h4.2c3.9,0,5.8,1.6,5.8,4.4c0,2.9-2.5,5-8.5,5c-6,0-7.7-2.1-7.7-4.3c0-1.5,1-2.7,2.8-3.3
	c-1.4-0.6-2-1.6-2-2.7c0-1.6,1-2.6,2.4-3.1c-1.1-1-1.7-2.3-1.7-3.8c0-3,2.4-5.3,6.4-5.3c1.3,0,2.4,0.2,3.4,0.7
	c0.5-1.6,1.8-2.9,4.1-2.9c0.4,0,0.8,0,1.1,0.1v2.3c-0.3-0.1-0.8-0.1-1.2-0.1C80.4,304.3,79.6,304.8,79.1,305.8z M72.6,319.7
	c-0.5,0-1,0-1.4-0.1c-1.2,0.5-1.8,1.4-1.8,2.4c0,1.9,2.1,2.6,5.2,2.6c4.2,0,5.3-1.2,5.3-2.6c0-1.5-1.2-2.3-3.6-2.3L72.6,319.7
	L72.6,319.7z M78,309.5c0-1.9-1.4-3.3-3.6-3.3c-2.2,0-3.6,1.3-3.6,3.3c0,1.9,1.4,3.3,3.6,3.3C76.6,312.8,78,311.5,78,309.5z"/>
<path class="st0" d="M85.9,304.6h2.7v3.1c1.1-2.4,3-3.5,5.7-3.5c3.8,0,5.7,2.2,5.7,6.4v9.8h-2.9v-9.6c0-2.8-1.3-4.2-3.8-4.2
	c-2.9,0-4.6,2.1-4.6,5.6v8.2h-2.9V304.6z"/>
<path class="st0" d="M119.3,313.2h-12.2c0,3.1,2.1,5.1,5.1,5.1c2.2,0,3.8-1.1,4.6-3l2.4,1c-1.2,2.9-3.7,4.4-7.2,4.4
	c-4.9,0-7.8-2.9-7.8-8c0-5.2,2.9-8.4,7.8-8.4c4.6,0,7.3,2.4,7.3,7.1V313.2z M116.4,310.7c0-2.9-1.6-4.4-4.4-4.4
	c-3,0-4.7,1.8-4.8,4.7h9.2L116.4,310.7L116.4,310.7z"/>
<path class="st0" d="M132,304.2c0.2,0,0.4,0,0.6,0v2.6h-0.1c-1.8,0-3,0.5-3.8,1.2c-1.6,1.5-1.7,3.6-1.7,5.5v6.7h-2.9v-15.7h2.7v3.6
	C127.7,306,129.4,304.2,132,304.2z"/>
<path class="st0" d="M159.7,317.8v2.5h-15.3V298h15.1v2.5h-11.8v7.1h11.3v2.5h-11.3v7.7H159.7z"/>
<path class="st0" d="M168.1,320.3h-2.9v-22.7h2.9V320.3z"/>
<path class="st0" d="M174.3,298.3h3.3v3.4h-3.3V298.3z M174.5,304.6h2.9v15.7h-2.9V304.6z"/>
<path class="st0" d="M190.4,313.7l3.3-0.4c0.4,2.7,2.3,5.2,6.6,5.2c2.6,0,5.4-1,5.4-3.8c0-2.6-1.8-3.5-4.6-4l-3.5-0.7
	c-3.5-0.7-6.1-2.3-6.1-6.2c0-3.7,3.3-6.2,8.5-6.2c4.8,0,8.6,2,9,6.3l-3.3,0.6c-0.4-3-2.2-4.6-5.8-4.6c-3,0-5,1.4-5,3.6
	c0,2.2,1.3,3.3,4,3.8l3.6,0.7c3.8,0.7,6.7,2.3,6.7,6.3c0,3.5-2.8,6.6-8.9,6.6C194,320.8,190.8,317.7,190.4,313.7z"/>
<path class="st0" d="M212,312.4c0-5.1,3-8.2,7.9-8.2c4,0,6.6,2.1,7.1,5.7l-3,0.3c-0.3-2.4-1.8-3.7-4.2-3.7c-3,0-4.7,2.2-4.7,5.9
	c0,3.8,1.8,5.9,4.8,5.9c2.3,0,3.8-1.3,4.2-3.7l2.8,0.4c-0.6,3.6-3.2,5.6-7,5.6C215.1,320.7,212,317.5,212,312.4z"/>
<path class="st0" d="M231.8,297.5h2.9v10c1-2.2,3-3.4,5.6-3.4c3.7,0,5.7,2.2,5.7,6.4v9.8h-2.9v-9.6c0-2.8-1.3-4.2-3.7-4.2
	c-3,0-4.6,2-4.6,5.6v8.2h-2.9L231.8,297.5L231.8,297.5z"/>
<path class="st0" d="M251.5,298.3h3.3v3.4h-3.3V298.3z M251.7,304.6h2.9v15.7h-2.9V304.6z"/>
<path class="st0" d="M268.7,306.8h-4.3v13.5h-2.9v-13.5h-3.2v-2.2h3.2v-2.5c0-2.9,2-4.8,5-4.8c0.8,0,1.6,0.1,2.2,0.2v2.3
	c-0.6-0.1-1.3-0.2-1.8-0.2c-1.7,0-2.5,0.9-2.5,2.8v2.1h4.3V306.8z"/>
<path class="st0" d="M281.5,306.8h-4.3v13.5h-2.9v-13.5h-3.2v-2.2h3.2v-2.5c0-2.9,2-4.8,5-4.8c0.8,0,1.6,0.1,2.2,0.2v2.3
	c-0.6-0.1-1.3-0.2-1.8-0.2c-1.7,0-2.5,0.9-2.5,2.8v2.1h4.3V306.8z"/>
<path class="st0" d="M283.2,323.3c1.7-0.7,2.1-1.4,2.1-2.9v-0.1H283v-3.7h4v3.5c0,2.5-0.7,3.7-3.1,4.6L283.2,323.3z"/>
<path class="st0" d="M298.6,304.6h3.2v-4.1l2.9-1.1v5.2h4.3v2.2h-4.3v8.7c0,1.8,0.8,2.6,2.5,2.6c0.8,0,1.2-0.1,1.8-0.2v2.5
	c-0.8,0.2-1.4,0.3-2.5,0.3c-3.7,0-4.7-2.1-4.7-5v-8.8h-3.2L298.6,304.6L298.6,304.6z"/>
<path class="st0" d="M313.4,297.5h2.9v10c1-2.2,3-3.4,5.6-3.4c3.7,0,5.7,2.2,5.7,6.4v9.8h-2.9v-9.6c0-2.8-1.3-4.2-3.7-4.2
	c-3,0-4.6,2-4.6,5.6v8.2h-2.9L313.4,297.5L313.4,297.5z"/>
<path class="st0" d="M346.9,313.2h-12.2c0,3.1,2.1,5.1,5.1,5.1c2.2,0,3.8-1.1,4.6-3l2.4,1c-1.2,2.9-3.7,4.4-7.2,4.4
	c-4.9,0-7.8-2.9-7.8-8c0-5.2,2.9-8.4,7.8-8.4c4.6,0,7.3,2.4,7.3,7.1V313.2z M343.9,310.7c0-2.9-1.6-4.4-4.4-4.4
	c-3,0-4.7,1.8-4.8,4.7h9.2L343.9,310.7L343.9,310.7z"/>
<path class="st0" d="M359.1,316c0-1.6,0.9-2.9,2.4-3.7c1.3-0.6,3-1,5.8-1.3l3.2-0.3v-0.2c0-2.9-1.1-4.1-3.8-4.1
	c-2.3,0-3.8,1.1-3.9,3.1h-3.1c0.2-3.2,3-5.3,7-5.3c4.7,0,6.8,1.9,6.8,6.5v4.2c0,2.4,0.2,4.1,0.6,5.3h-3.1c-0.1-0.8-0.2-1.9-0.3-2.9
	c-0.8,2-3,3.2-5.8,3.2C361.4,320.7,359.1,318.8,359.1,316z M370.5,313.4v-0.8l-4.7,0.6c-2.5,0.3-3.6,1.2-3.6,2.7
	c0,1.5,1.3,2.5,3.4,2.5C368.5,318.5,370.5,316.5,370.5,313.4z"/>
<path class="st0" d="M377.4,312.4c0-5.1,3-8.2,7.9-8.2c4,0,6.6,2.1,7.1,5.7l-3,0.3c-0.3-2.4-1.8-3.7-4.2-3.7c-3,0-4.7,2.2-4.7,5.9
	c0,3.8,1.8,5.9,4.8,5.9c2.3,0,3.8-1.3,4.2-3.7l2.8,0.4c-0.6,3.6-3.2,5.6-7,5.6C380.5,320.7,377.4,317.5,377.4,312.4z"/>
<path class="st0" d="M395.5,312.4c0-5.1,3-8.2,7.9-8.2c4,0,6.6,2.1,7.1,5.7l-3,0.3c-0.3-2.4-1.8-3.7-4.2-3.7c-3,0-4.7,2.2-4.7,5.9
	c0,3.8,1.8,5.9,4.8,5.9c2.3,0,3.8-1.3,4.2-3.7l2.8,0.4c-0.6,3.6-3.2,5.6-7,5.6C398.6,320.7,395.5,317.5,395.5,312.4z"/>
<path class="st0" d="M413.5,312.4c0-5.1,3.2-8.2,8-8.2s8,3.1,8,8.2c0,5.1-3.2,8.2-8,8.2C416.7,320.7,413.5,317.5,413.5,312.4z
	 M426.4,312.4c0-3.9-1.8-5.9-4.9-5.9c-3.1,0-4.9,2-4.9,5.9c0,3.9,1.8,5.9,4.9,5.9C424.6,318.3,426.4,316.3,426.4,312.4z"/>
<path class="st0" d="M433.6,314.6v-10h2.9v9.7c0,2.6,1.2,4.1,3.5,4.1c2.7,0,4.6-2.1,4.6-5.3v-8.4h2.9v15.7h-2.7v-2.9
	c-0.8,1.9-2.9,3.3-5.3,3.3C435.2,320.7,433.6,318.3,433.6,314.6z"/>
<path class="st0" d="M453.8,304.6h2.7v3.1c1.1-2.4,3-3.5,5.7-3.5c3.8,0,5.7,2.2,5.7,6.4v9.8h-2.9v-9.6c0-2.8-1.3-4.2-3.8-4.2
	c-2.9,0-4.6,2.1-4.6,5.6v8.2h-2.9V304.6z"/>
<path class="st0" d="M470.7,304.6h3.2v-4.1l2.9-1.1v5.2h4.3v2.2h-4.3v8.7c0,1.8,0.8,2.6,2.5,2.6c0.8,0,1.2-0.1,1.8-0.2v2.5
	c-0.8,0.2-1.4,0.3-2.5,0.3c-3.7,0-4.7-2.1-4.7-5v-8.8h-3.2L470.7,304.6L470.7,304.6z"/>
<path class="st0" d="M498.3,313.2h-12.2c0,3.1,2.1,5.1,5.1,5.1c2.2,0,3.8-1.1,4.6-3l2.4,1c-1.2,2.9-3.7,4.4-7.2,4.4
	c-4.9,0-7.8-2.9-7.8-8c0-5.2,2.9-8.4,7.8-8.4c4.6,0,7.3,2.4,7.3,7.1V313.2z M495.3,310.7c0-2.9-1.6-4.4-4.4-4.4
	c-3,0-4.7,1.8-4.8,4.7h9.2L495.3,310.7L495.3,310.7z"/>
<path class="st0" d="M501.6,312.4c0-4.8,3-8.2,7.3-8.2c2.3,0,4,0.8,5,2.7v-9.4h2.9v22.7h-2.7v-2.9c-1,2.1-2.9,3.3-5.6,3.3
	C504.4,320.7,501.6,317.4,501.6,312.4z M514,312.8v-0.7c0-3.4-1.8-5.5-4.7-5.5c-2.9,0-4.7,2.2-4.7,5.9c0,3.7,1.7,5.9,4.7,5.9
	C512.2,318.3,514,316.2,514,312.8z"/>
<path class="st0" d="M529.5,304.6h3l3.1,11.2c0.1,0.6,0.3,1.2,0.4,1.9h0.1c0.1-0.6,0.3-1.3,0.4-1.9l3.1-11.2h3.2l3.1,11.2
	c0.1,0.6,0.3,1.2,0.4,1.9h0.1c0.1-0.6,0.2-1.3,0.4-1.9l3.1-11.2h3l-4.8,15.7h-3.2l-3.3-11.3c-0.1-0.5-0.3-1.3-0.4-1.8h-0.1
	c-0.1,0.5-0.2,1.3-0.4,1.8l-3.3,11.3h-3.2L529.5,304.6z"/>
<path class="st0" d="M554.9,316c0-1.6,0.9-2.9,2.4-3.7c1.3-0.6,3-1,5.8-1.3l3.2-0.3v-0.2c0-2.9-1.1-4.1-3.8-4.1
	c-2.3,0-3.8,1.1-3.9,3.1h-3.1c0.2-3.2,3-5.3,7-5.3c4.7,0,6.8,1.9,6.8,6.5v4.2c0,2.4,0.2,4.1,0.6,5.3h-3.1c-0.1-0.8-0.2-1.9-0.3-2.9
	c-0.8,2-3,3.2-5.8,3.2C557.1,320.7,554.9,318.8,554.9,316z M566.2,313.4v-0.8l-4.7,0.6c-2.5,0.3-3.6,1.2-3.6,2.7
	c0,1.5,1.3,2.5,3.4,2.5C564.3,318.5,566.2,316.5,566.2,313.4z"/>
<path class="st0" d="M573.2,315.4l3-0.5c0.4,2.3,2.1,3.5,4.6,3.5c2.3,0,3.6-0.9,3.6-2.4c0-1.6-0.9-2.3-2.7-2.5l-2.8-0.3
	c-3.4-0.3-5-2.1-5-4.5c0-2.9,2.5-4.6,6.5-4.6c3.9,0,6.6,1.9,6.9,4.8l-2.9,0.6c-0.4-1.9-1.8-3.2-4.1-3.2c-2.3,0-3.6,0.8-3.6,2.4
	c0,1.4,1,2.2,3.1,2.4l2.7,0.3c3.4,0.3,4.7,2,4.7,4.5c0,3-2.4,4.8-6.6,4.8C576.5,320.7,573.8,318.8,573.2,315.4z"/>
<path class="st0" d="M12,350.7H7.7v13.5H4.8v-13.5H1.6v-2.2h3.2V346c0-2.9,2-4.8,5-4.8c0.8,0,1.6,0.1,2.2,0.2v2.3
	c-0.6-0.1-1.3-0.2-1.8-0.2c-1.7,0-2.5,0.9-2.5,2.8v2.1H12V350.7z"/>
<path class="st0" d="M13.5,356.4c0-5.1,3.2-8.2,8-8.2s8,3.1,8,8.2c0,5.1-3.2,8.2-8,8.2C16.7,364.6,13.5,361.5,13.5,356.4z
	 M26.4,356.4c0-3.9-1.8-5.9-4.9-5.9c-3.1,0-4.9,2-4.9,5.9c0,3.9,1.8,5.9,4.9,5.9C24.6,362.3,26.4,360.3,26.4,356.4z"/>
<path class="st0" d="M32.6,356.4c0-5.1,3-8.2,7.9-8.2c4,0,6.6,2.1,7.1,5.7l-3,0.3c-0.3-2.4-1.8-3.7-4.2-3.7c-3,0-4.7,2.2-4.7,5.9
	c0,3.8,1.8,5.9,4.8,5.9c2.3,0,3.8-1.3,4.2-3.7l2.8,0.4c-0.6,3.6-3.2,5.6-7,5.6C35.7,364.6,32.6,361.4,32.6,356.4z"/>
<path class="st0" d="M51.7,358.5v-10h2.9v9.7c0,2.6,1.2,4.1,3.5,4.1c2.7,0,4.6-2.1,4.6-5.3v-8.4h2.9v15.7h-2.7v-2.9
	c-0.8,1.9-2.9,3.3-5.3,3.3C53.3,364.6,51.7,362.2,51.7,358.5z"/>
<path class="st0" d="M70.1,359.4l3-0.5c0.4,2.3,2.1,3.5,4.6,3.5c2.3,0,3.6-0.9,3.6-2.4c0-1.6-0.9-2.3-2.7-2.5l-2.8-0.3
	c-3.4-0.3-5-2.1-5-4.5c0-2.9,2.5-4.6,6.5-4.6c3.9,0,6.6,1.9,6.9,4.8l-2.9,0.6c-0.4-1.9-1.8-3.2-4.1-3.2c-2.3,0-3.6,0.8-3.6,2.4
	c0,1.4,1,2.2,3.1,2.4l2.7,0.3c3.4,0.3,4.7,2,4.7,4.5c0,3-2.4,4.8-6.6,4.8C73.4,364.6,70.7,362.7,70.1,359.4z"/>
<path class="st0" d="M102.4,357.2H90.2c0,3.1,2.1,5.1,5.1,5.1c2.2,0,3.8-1.1,4.6-3l2.4,1c-1.2,2.9-3.7,4.4-7.2,4.4
	c-4.9,0-7.8-2.9-7.8-8c0-5.2,2.9-8.4,7.8-8.4c4.6,0,7.3,2.4,7.3,7.1V357.2z M99.4,354.6c0-2.9-1.6-4.4-4.4-4.4c-3,0-4.7,1.8-4.8,4.7
	h9.2L99.4,354.6L99.4,354.6z"/>
<path class="st0" d="M105.6,356.4c0-4.8,3-8.2,7.3-8.2c2.3,0,4,0.8,5,2.7v-9.4h2.9v22.7h-2.7v-2.9c-1,2.1-2.9,3.3-5.6,3.3
	C108.4,364.6,105.6,361.3,105.6,356.4z M118,356.8V356c0-3.4-1.8-5.5-4.7-5.5c-2.9,0-4.7,2.2-4.7,5.9c0,3.7,1.7,5.9,4.7,5.9
	C116.2,362.2,118,360.1,118,356.8z"/>
<path class="st0" d="M134.6,356.4c0-5.1,3.2-8.2,8-8.2c4.8,0,8,3.1,8,8.2c0,5.1-3.2,8.2-8,8.2C137.8,364.6,134.6,361.5,134.6,356.4z
	 M147.5,356.4c0-3.9-1.8-5.9-4.9-5.9c-3.1,0-4.9,2-4.9,5.9c0,3.9,1.8,5.9,4.9,5.9C145.7,362.3,147.5,360.3,147.5,356.4z"/>
<path class="st0" d="M155.3,348.5h2.7v3.1c1.1-2.4,3-3.5,5.7-3.5c3.8,0,5.7,2.2,5.7,6.4v9.8h-2.9v-9.6c0-2.8-1.3-4.2-3.8-4.2
	c-2.9,0-4.6,2.1-4.6,5.6v8.2h-2.9V348.5z"/>
<path class="st0" d="M186.8,348.5v2.7c1-2.1,2.6-3.2,4.9-3.2c2.4,0,4.1,1.1,4.9,3.2c1.1-2.1,2.9-3.2,5.2-3.2c3.3,0,5.2,2.2,5.2,5.8
	v10.3h-2.9v-10.1c0-2.4-1.1-3.7-3.3-3.7c-2.4,0-3.8,1.6-3.8,4.5v9.3h-2.9V354c0-2.3-1.2-3.6-3.2-3.6c-2.4,0-3.9,1.8-3.9,4.6v9.2
	h-2.9v-15.7H186.8z"/>
<path class="st0" d="M211.2,360c0-1.6,0.9-2.9,2.4-3.7c1.3-0.6,3-1,5.8-1.3l3.2-0.3v-0.2c0-2.9-1.1-4.1-3.8-4.1
	c-2.3,0-3.8,1.1-3.9,3.1h-3.1c0.2-3.2,3-5.3,7-5.3c4.7,0,6.8,1.9,6.8,6.5v4.2c0,2.4,0.2,4.1,0.6,5.3H223c-0.1-0.8-0.2-1.9-0.3-2.9
	c-0.8,2-3,3.2-5.8,3.2C213.5,364.6,211.2,362.8,211.2,360z M222.6,357.4v-0.8l-4.7,0.6c-2.5,0.3-3.6,1.2-3.6,2.7
	c0,1.5,1.3,2.5,3.4,2.5C220.6,362.4,222.6,360.4,222.6,357.4z"/>
<path class="st0" d="M237.4,356.5l-3.1,2.9v4.8h-2.9v-22.7h2.9v14.8l7.7-7.7h3.8l-6.3,6.1l6.7,9.6h-3.6L237.4,356.5z"/>
<path class="st0" d="M249.6,342.3h3.3v3.4h-3.3V342.3z M249.8,348.5h2.9v15.7h-2.9V348.5z"/>
<path class="st0" d="M258.9,348.5h2.7v3.1c1.1-2.4,3-3.5,5.7-3.5c3.8,0,5.7,2.2,5.7,6.4v9.8h-2.9v-9.6c0-2.8-1.3-4.2-3.8-4.2
	c-2.9,0-4.6,2.1-4.6,5.6v8.2h-2.9V348.5z"/>
<path class="st0" d="M289.4,349.8c1,0.9,1.6,2.2,1.6,3.7c0,3-2.4,5.4-6.4,5.4c-1.3,0-2.4-0.2-3.3-0.7c-0.7,0.3-1.2,0.8-1.2,1.5
	c0,0.9,0.7,1.6,2.8,1.6h4.2c3.9,0,5.8,1.6,5.8,4.4c0,2.9-2.5,5-8.5,5c-6,0-7.7-2.1-7.7-4.3c0-1.5,1-2.7,2.8-3.3
	c-1.4-0.6-2-1.6-2-2.7c0-1.6,1-2.6,2.4-3.1c-1.1-1-1.7-2.3-1.7-3.8c0-3,2.4-5.3,6.4-5.3c1.3,0,2.4,0.2,3.4,0.7
	c0.5-1.6,1.8-2.9,4.1-2.9c0.4,0,0.8,0,1.1,0.1v2.3c-0.3-0.1-0.8-0.1-1.2-0.1C290.7,348.3,289.8,348.8,289.4,349.8z M282.8,363.7
	c-0.5,0-1,0-1.4-0.1c-1.2,0.5-1.8,1.4-1.8,2.4c0,1.9,2.1,2.6,5.2,2.6c4.2,0,5.3-1.2,5.3-2.6c0-1.5-1.2-2.3-3.6-2.3L282.8,363.7
	L282.8,363.7z M288.2,353.5c0-1.9-1.4-3.3-3.6-3.3c-2.2,0-3.6,1.4-3.6,3.3c0,1.9,1.4,3.3,3.6,3.3
	C286.8,356.8,288.2,355.4,288.2,353.5z"/>
<path class="st0" d="M304.2,356.4c0-5.1,3-8.2,7.9-8.2c4,0,6.6,2.1,7.1,5.7l-3,0.3c-0.3-2.4-1.8-3.7-4.2-3.7c-3,0-4.7,2.2-4.7,5.9
	c0,3.8,1.8,5.9,4.8,5.9c2.3,0,3.8-1.3,4.2-3.7l2.8,0.4c-0.6,3.6-3.2,5.6-7,5.6C307.3,364.6,304.2,361.4,304.2,356.4z"/>
<path class="st0" d="M331.7,348.2c0.2,0,0.4,0,0.6,0v2.6h-0.1c-1.8,0-3,0.5-3.8,1.2c-1.6,1.5-1.7,3.6-1.7,5.5v6.7h-2.9v-15.7h2.7
	v3.6C327.3,349.9,329.1,348.2,331.7,348.2z"/>
<path class="st0" d="M335.9,342.3h3.3v3.4h-3.3V342.3z M336.1,348.5h2.9v15.7h-2.9V348.5z"/>
<path class="st0" d="M342.7,348.5h3.2v-4.1l2.9-1.1v5.2h4.3v2.2h-4.3v8.7c0,1.8,0.8,2.6,2.5,2.6c0.8,0,1.2-0.1,1.8-0.2v2.5
	c-0.8,0.2-1.4,0.3-2.5,0.3c-3.7,0-4.7-2.1-4.7-5v-8.8h-3.2L342.7,348.5L342.7,348.5z"/>
<path class="st0" d="M357.1,342.3h3.3v3.4h-3.3V342.3z M357.4,348.5h2.9v15.7h-2.9V348.5z"/>
<path class="st0" d="M364.9,356.4c0-5.1,3-8.2,7.9-8.2c4,0,6.6,2.1,7.1,5.7l-3,0.3c-0.3-2.4-1.8-3.7-4.2-3.7c-3,0-4.7,2.2-4.7,5.9
	c0,3.8,1.8,5.9,4.8,5.9c2.3,0,3.8-1.3,4.2-3.7l2.8,0.4c-0.6,3.6-3.2,5.6-7,5.6C368,364.6,364.9,361.4,364.9,356.4z"/>
<path class="st0" d="M384.3,342.3h3.3v3.4h-3.3V342.3z M384.5,348.5h2.9v15.7h-2.9V348.5z"/>
<path class="st0" d="M391.9,359.4l3-0.5c0.4,2.3,2.1,3.5,4.6,3.5c2.3,0,3.6-0.9,3.6-2.4c0-1.6-0.9-2.3-2.7-2.5l-2.8-0.3
	c-3.4-0.3-5-2.1-5-4.5c0-2.9,2.5-4.6,6.5-4.6c3.9,0,6.6,1.9,6.9,4.8l-2.9,0.6c-0.4-1.9-1.8-3.2-4.1-3.2c-2.3,0-3.6,0.8-3.6,2.4
	c0,1.4,1,2.2,3.1,2.4l2.7,0.3c3.4,0.3,4.7,2,4.7,4.5c0,3-2.4,4.8-6.6,4.8C395.2,364.6,392.5,362.7,391.9,359.4z"/>
<path class="st0" d="M413.3,348.5v2.7c1-2.1,2.6-3.2,4.9-3.2c2.4,0,4.1,1.1,4.9,3.2c1.1-2.1,2.9-3.2,5.2-3.2c3.3,0,5.2,2.2,5.2,5.8
	v10.3h-2.9v-10.1c0-2.4-1.1-3.7-3.3-3.7c-2.4,0-3.8,1.6-3.8,4.5v9.3h-2.9V354c0-2.3-1.2-3.6-3.2-3.6c-2.4,0-3.9,1.8-3.9,4.6v9.2
	h-2.9v-15.7H413.3z"/>
<path class="st0" d="M446.6,360c0-1.6,0.9-2.9,2.4-3.7c1.3-0.6,3-1,5.8-1.3l3.2-0.3v-0.2c0-2.9-1.1-4.1-3.8-4.1
	c-2.3,0-3.8,1.1-3.9,3.1h-3.1c0.2-3.2,3-5.3,7-5.3c4.7,0,6.8,1.9,6.8,6.5v4.2c0,2.4,0.2,4.1,0.6,5.3h-3.1c-0.1-0.8-0.2-1.9-0.3-2.9
	c-0.8,2-3,3.2-5.8,3.2C448.9,364.6,446.6,362.8,446.6,360z M458,357.4v-0.8l-4.7,0.6c-2.5,0.3-3.6,1.2-3.6,2.7
	c0,1.5,1.3,2.5,3.4,2.5C456,362.4,458,360.4,458,357.4z"/>
<path class="st0" d="M466.6,348.5h2.7v3.1c1.1-2.4,3-3.5,5.7-3.5c3.8,0,5.7,2.2,5.7,6.4v9.8h-2.9v-9.6c0-2.8-1.3-4.2-3.8-4.2
	c-2.9,0-4.6,2.1-4.6,5.6v8.2h-2.9V348.5z"/>
<path class="st0" d="M485,356.4c0-4.8,3-8.2,7.3-8.2c2.3,0,4,0.8,5,2.7v-9.4h2.9v22.7h-2.7v-2.9c-1,2.1-2.9,3.3-5.6,3.3
	C487.8,364.6,485,361.3,485,356.4z M497.4,356.8V356c0-3.4-1.8-5.5-4.7-5.5c-2.9,0-4.7,2.2-4.7,5.9c0,3.7,1.7,5.9,4.7,5.9
	C495.6,362.2,497.4,360.1,497.4,356.8z"/>
<path class="st0" d="M511.9,370.4v-2.3c1,0.1,1.4,0.1,1.7,0.1c1.3,0,1.9-0.5,1.9-2.6v-17h2.9v17.3c0,2.5-0.9,4.8-4.4,4.8
	C513.4,370.6,512.4,370.5,511.9,370.4z M515.3,342.3h3.3v3.4h-3.3V342.3z"/>
<path class="st0" d="M523,356.4c0-5.1,3.2-8.2,8-8.2c4.8,0,8,3.1,8,8.2c0,5.1-3.2,8.2-8,8.2C526.2,364.6,523,361.5,523,356.4z
	 M535.9,356.4c0-3.9-1.8-5.9-4.9-5.9c-3.1,0-4.9,2-4.9,5.9c0,3.9,1.8,5.9,4.9,5.9C534.1,362.3,535.9,360.3,535.9,356.4z"/>
<path class="st0" d="M549.9,356.5l-3.1,2.9v4.8h-2.9v-22.7h2.9v14.8l7.7-7.7h3.8l-6.3,6.1l6.7,9.6h-3.6L549.9,356.5z"/>
<path class="st0" d="M574.8,357.2h-12.2c0,3.1,2.1,5.1,5.1,5.1c2.2,0,3.8-1.1,4.6-3l2.4,1c-1.2,2.9-3.7,4.4-7.2,4.4
	c-4.9,0-7.8-2.9-7.8-8c0-5.2,2.9-8.4,7.8-8.4c4.6,0,7.3,2.4,7.3,7.1V357.2z M571.8,354.6c0-2.9-1.6-4.4-4.4-4.4
	c-3,0-4.7,1.8-4.8,4.7h9.2L571.8,354.6L571.8,354.6z"/>
<path class="st0" d="M577.9,359.4l3-0.5c0.4,2.3,2.1,3.5,4.6,3.5c2.3,0,3.6-0.9,3.6-2.4c0-1.6-0.9-2.3-2.7-2.5l-2.8-0.3
	c-3.4-0.3-5-2.1-5-4.5c0-2.9,2.5-4.6,6.5-4.6c3.9,0,6.6,1.9,6.9,4.8l-2.9,0.6c-0.4-1.9-1.8-3.2-4.1-3.2c-2.3,0-3.6,0.8-3.6,2.4
	c0,1.4,1,2.2,3.1,2.4l2.7,0.3c3.4,0.3,4.7,2,4.7,4.5c0,3-2.4,4.8-6.6,4.8C581.2,364.6,578.5,362.7,577.9,359.4z"/>
<path class="st0" d="M2.5,403.9c0-1.6,0.9-2.9,2.4-3.7c1.3-0.6,3-1,5.8-1.3l3.2-0.3v-0.2c0-2.9-1.1-4.1-3.8-4.1
	c-2.3,0-3.8,1.1-3.9,3.1H3c0.2-3.2,3-5.3,7-5.3c4.7,0,6.8,1.9,6.8,6.5v4.2c0,2.4,0.2,4.1,0.6,5.3h-3.1c-0.1-0.8-0.2-1.8-0.3-2.9
	c-0.8,2-3,3.2-5.8,3.2C4.8,408.5,2.5,406.7,2.5,403.9z M13.9,401.3v-0.8l-4.7,0.6c-2.5,0.3-3.6,1.2-3.6,2.7s1.3,2.5,3.4,2.5
	C11.9,406.3,13.9,404.3,13.9,401.3z"/>
<path class="st0" d="M25.5,405.4l-0.5,2.7h-2.2v-22.7h2.9v9.8c0.9-1.8,2.8-3.1,5.5-3.1c4.2,0,6.9,3.4,6.9,8.2c0,4.9-2.8,8.2-7.1,8.2
	C28.3,408.5,26.3,407.3,25.5,405.4z M34.9,400.3c0-3.5-1.7-5.9-4.7-5.9c-2.9,0-4.6,2.1-4.6,5.5v0.8c0,3.3,1.7,5.4,4.6,5.4
	C33.1,406.2,34.9,403.9,34.9,400.3z"/>
<path class="st0" d="M41.1,400.3c0-5.1,3.2-8.2,8-8.2c4.8,0,8,3.1,8,8.2s-3.2,8.2-8,8.2C44.2,408.5,41.1,405.4,41.1,400.3z
	 M54,400.3c0-3.9-1.8-5.9-4.9-5.9c-3.1,0-4.9,2-4.9,5.9s1.8,5.9,4.9,5.9C52.2,406.2,54,404.2,54,400.3z"/>
<path class="st0" d="M61.2,402.5v-10h2.9v9.7c0,2.6,1.2,4.1,3.5,4.1c2.7,0,4.6-2.1,4.6-5.3v-8.4h2.9v15.7h-2.7v-2.9
	c-0.8,1.9-2.9,3.3-5.3,3.3C62.7,408.5,61.2,406.1,61.2,402.5z"/>
<path class="st0" d="M78.7,392.5h3.2v-4.1l2.9-1.1v5.2h4.3v2.2h-4.3v8.7c0,1.8,0.8,2.6,2.5,2.6c0.8,0,1.2-0.1,1.8-0.2v2.5
	c-0.8,0.2-1.4,0.3-2.5,0.3c-3.7,0-4.7-2.1-4.7-5v-8.8h-3.2L78.7,392.5L78.7,392.5z"/>
<path class="st0" d="M99.4,392.5h3.2v-4.1l2.9-1.1v5.2h4.3v2.2h-4.3v8.7c0,1.8,0.8,2.6,2.5,2.6c0.8,0,1.2-0.1,1.8-0.2v2.5
	c-0.8,0.2-1.4,0.3-2.5,0.3c-3.7,0-4.7-2.1-4.7-5v-8.8h-3.2L99.4,392.5L99.4,392.5z"/>
<path class="st0" d="M114.3,385.4h2.9v10c1-2.2,3-3.4,5.6-3.4c3.7,0,5.7,2.2,5.7,6.4v9.8h-2.9v-9.6c0-2.8-1.3-4.2-3.7-4.2
	c-3,0-4.6,2-4.6,5.6v8.2h-2.9L114.3,385.4L114.3,385.4z"/>
<path class="st0" d="M134,386.2h3.3v3.4H134V386.2z M134.2,392.5h2.9v15.7h-2.9V392.5z"/>
<path class="st0" d="M141.6,403.3l3-0.5c0.4,2.3,2.1,3.5,4.6,3.5c2.3,0,3.6-0.9,3.6-2.4c0-1.6-0.9-2.3-2.7-2.5l-2.8-0.3
	c-3.4-0.3-5-2.1-5-4.5c0-2.9,2.5-4.6,6.5-4.6c3.9,0,6.6,1.9,6.9,4.8l-2.9,0.6c-0.4-1.9-1.8-3.2-4.1-3.2c-2.3,0-3.6,0.8-3.6,2.4
	c0,1.4,1,2.2,3.1,2.4l2.7,0.3c3.4,0.3,4.7,2,4.7,4.5c0,3-2.4,4.8-6.6,4.8C144.9,408.5,142.2,406.7,141.6,403.3z"/>
<path class="st0" d="M167.6,403.9c0-1.6,0.9-2.9,2.4-3.7c1.3-0.6,3-1,5.8-1.3l3.2-0.3v-0.2c0-2.9-1.1-4.1-3.8-4.1
	c-2.3,0-3.8,1.1-3.9,3.1h-3.1c0.2-3.2,3-5.3,7-5.3c4.7,0,6.8,1.9,6.8,6.5v4.2c0,2.4,0.2,4.1,0.6,5.3h-3.1c-0.1-0.8-0.2-1.8-0.3-2.9
	c-0.8,2-3,3.2-5.8,3.2C169.9,408.5,167.6,406.7,167.6,403.9z M179,401.3v-0.8l-4.7,0.6c-2.5,0.3-3.6,1.2-3.6,2.7s1.3,2.5,3.4,2.5
	C177.1,406.3,179,404.3,179,401.3z"/>
<path class="st0" d="M195.6,392.1c0.2,0,0.4,0,0.6,0v2.6h-0.1c-1.8,0-3,0.5-3.8,1.2c-1.6,1.5-1.7,3.6-1.7,5.5v6.7h-2.9v-15.7h2.7
	v3.6C191.2,393.8,193,392.1,195.6,392.1z"/>
<path class="st0" d="M198.6,392.5h3.2v-4.1l2.9-1.1v5.2h4.3v2.2h-4.3v8.7c0,1.8,0.8,2.6,2.5,2.6c0.8,0,1.2-0.1,1.8-0.2v2.5
	c-0.8,0.2-1.4,0.3-2.5,0.3c-3.7,0-4.7-2.1-4.7-5v-8.8h-3.2L198.6,392.5L198.6,392.5z"/>
<path class="st0" d="M211.4,403.3l3-0.5c0.4,2.3,2.1,3.5,4.6,3.5c2.3,0,3.6-0.9,3.6-2.4c0-1.6-0.9-2.3-2.7-2.5l-2.8-0.3
	c-3.4-0.3-5-2.1-5-4.5c0-2.9,2.5-4.6,6.5-4.6c3.9,0,6.6,1.9,6.9,4.8l-2.9,0.6c-0.4-1.9-1.8-3.2-4.1-3.2c-2.3,0-3.6,0.8-3.6,2.4
	c0,1.4,1,2.2,3.1,2.4l2.7,0.3c3.4,0.3,4.7,2,4.7,4.5c0,3-2.4,4.8-6.6,4.8C214.8,408.5,212.1,406.7,211.4,403.3z"/>
<path class="st0" d="M227.4,392.5h3.2v-4.1l2.9-1.1v5.2h4.3v2.2h-4.3v8.7c0,1.8,0.8,2.6,2.5,2.6c0.8,0,1.2-0.1,1.8-0.2v2.5
	c-0.8,0.2-1.4,0.3-2.5,0.3c-3.7,0-4.7-2.1-4.7-5v-8.8h-3.2L227.4,392.5L227.4,392.5z"/>
<path class="st0" d="M241.2,414.3V412c0.4,0,0.9,0.1,1.2,0.1c2.1,0,3.1-0.8,3.9-2.9l0.4-1.2l-6.8-15.5h3.3l4.4,10.9
	c0.3,0.8,0.5,1.4,0.6,1.9h0.1c0.1-0.4,0.3-1.1,0.6-1.9l4-10.9h3.2l-6.7,16.7c-1.6,4-3.6,5.3-6.5,5.3
	C242.3,414.4,241.8,414.4,241.2,414.3z"/>
<path class="st0" d="M262.6,408.1h-2.9v-22.7h2.9V408.1z"/>
<path class="st0" d="M282.5,401.1h-12.2c0,3.1,2.1,5.1,5.1,5.1c2.2,0,3.8-1.1,4.6-3l2.4,1c-1.2,2.9-3.7,4.4-7.2,4.4
	c-4.9,0-7.8-2.9-7.8-8c0-5.2,2.9-8.4,7.8-8.4c4.6,0,7.3,2.4,7.3,7.1V401.1z M279.5,398.6c0-2.9-1.6-4.4-4.4-4.4
	c-3,0-4.7,1.8-4.8,4.7h9.2L279.5,398.6L279.5,398.6z"/>
<path class="st0" d="M290.3,408.1h-4v-3.7h4V408.1z"/>
<path class="st0" d="M318.5,388.4h-7.7v19.8h-3.3v-19.8h-7.7v-2.5h18.6V388.4z"/>
<path class="st0" d="M322.1,385.4h2.9v10c1-2.2,3-3.4,5.6-3.4c3.7,0,5.7,2.2,5.7,6.4v9.8h-2.9v-9.6c0-2.8-1.3-4.2-3.7-4.2
	c-3,0-4.6,2-4.6,5.6v8.2H322L322.1,385.4L322.1,385.4z"/>
<path class="st0" d="M355.5,401.1h-12.2c0,3.1,2.1,5.1,5.1,5.1c2.2,0,3.8-1.1,4.6-3l2.4,1c-1.2,2.9-3.7,4.4-7.2,4.4
	c-4.9,0-7.8-2.9-7.8-8c0-5.2,2.9-8.4,7.8-8.4c4.6,0,7.3,2.4,7.3,7.1V401.1z M352.6,398.6c0-2.9-1.6-4.4-4.4-4.4
	c-3,0-4.7,1.8-4.8,4.7h9.2L352.6,398.6L352.6,398.6z"/>
<path class="st0" d="M367.7,403.9c0-1.6,0.9-2.9,2.4-3.7c1.3-0.6,3-1,5.8-1.3l3.2-0.3v-0.2c0-2.9-1.1-4.1-3.8-4.1
	c-2.3,0-3.8,1.1-3.9,3.1h-3.1c0.2-3.2,3-5.3,7-5.3c4.7,0,6.8,1.9,6.8,6.5v4.2c0,2.4,0.2,4.1,0.6,5.3h-3.1c-0.1-0.8-0.2-1.8-0.3-2.9
	c-0.8,2-3,3.2-5.8,3.2C370,408.5,367.7,406.7,367.7,403.9z M379.1,401.3v-0.8l-4.7,0.6c-2.5,0.3-3.6,1.2-3.6,2.7s1.3,2.5,3.4,2.5
	C377.1,406.3,379.1,404.3,379.1,401.3z"/>
<path class="st0" d="M386,400.3c0-5.1,3-8.2,7.9-8.2c4,0,6.6,2.1,7.1,5.7l-3,0.3c-0.3-2.4-1.8-3.7-4.2-3.7c-3,0-4.7,2.2-4.7,5.9
	c0,3.8,1.8,5.9,4.8,5.9c2.3,0,3.8-1.3,4.2-3.7l2.8,0.4c-0.6,3.6-3.2,5.6-7,5.6C389.1,408.5,386,405.3,386,400.3z"/>
<path class="st0" d="M404.1,400.3c0-5.1,3-8.2,7.9-8.2c4,0,6.6,2.1,7.1,5.7l-3,0.3c-0.3-2.4-1.8-3.7-4.2-3.7c-3,0-4.7,2.2-4.7,5.9
	c0,3.8,1.8,5.9,4.8,5.9c2.3,0,3.8-1.3,4.2-3.7l2.8,0.4c-0.6,3.6-3.2,5.6-7,5.6C407.2,408.5,404.1,405.3,404.1,400.3z"/>
<path class="st0" d="M422.1,400.3c0-5.1,3.2-8.2,8-8.2c4.8,0,8,3.1,8,8.2s-3.2,8.2-8,8.2C425.3,408.5,422.1,405.4,422.1,400.3z
	 M435,400.3c0-3.9-1.8-5.9-4.9-5.9c-3.1,0-4.9,2-4.9,5.9s1.8,5.9,4.9,5.9C433.2,406.2,435,404.2,435,400.3z"/>
<path class="st0" d="M442.3,402.5v-10h2.9v9.7c0,2.6,1.2,4.1,3.5,4.1c2.7,0,4.6-2.1,4.6-5.3v-8.4h2.9v15.7h-2.7v-2.9
	c-0.8,1.9-2.9,3.3-5.3,3.3C443.8,408.5,442.3,406.1,442.3,402.5z"/>
<path class="st0" d="M462.4,392.5h2.7v3.1c1.1-2.4,3-3.5,5.7-3.5c3.8,0,5.7,2.2,5.7,6.4v9.8h-2.9v-9.6c0-2.8-1.3-4.2-3.8-4.2
	c-2.9,0-4.6,2.1-4.6,5.6v8.2h-2.9V392.5z"/>
<path class="st0" d="M479.3,392.5h3.2v-4.1l2.9-1.1v5.2h4.3v2.2h-4.3v8.7c0,1.8,0.8,2.6,2.5,2.6c0.8,0,1.2-0.1,1.8-0.2v2.5
	c-0.8,0.2-1.4,0.3-2.5,0.3c-3.7,0-4.7-2.1-4.7-5v-8.8h-3.2L479.3,392.5L479.3,392.5z"/>
<path class="st0" d="M502.8,386.2h3.3v3.4h-3.3V386.2z M503,392.5h2.9v15.7H503V392.5z"/>
<path class="st0" d="M510.3,403.3l3-0.5c0.4,2.3,2.1,3.5,4.6,3.5c2.3,0,3.6-0.9,3.6-2.4c0-1.6-0.9-2.3-2.7-2.5l-2.8-0.3
	c-3.4-0.3-5-2.1-5-4.5c0-2.9,2.5-4.6,6.5-4.6c3.9,0,6.6,1.9,6.9,4.8l-2.9,0.6c-0.4-1.9-1.8-3.2-4.1-3.2c-2.3,0-3.6,0.8-3.6,2.4
	c0,1.4,1,2.2,3.1,2.4l2.7,0.3c3.4,0.3,4.7,2,4.7,4.5c0,3-2.4,4.8-6.6,4.8C513.7,408.5,511,406.7,510.3,403.3z"/>
<path class="st0" d="M537.9,392.5h2.7v3.1c1.1-2.4,3-3.5,5.7-3.5c3.8,0,5.7,2.2,5.7,6.4v9.8h-2.9v-9.6c0-2.8-1.3-4.2-3.8-4.2
	c-2.9,0-4.6,2.1-4.6,5.6v8.2h-2.9V392.5z"/>
<path class="st0" d="M556.3,400.3c0-5.1,3.2-8.2,8-8.2c4.8,0,8,3.1,8,8.2s-3.2,8.2-8,8.2C559.4,408.5,556.3,405.4,556.3,400.3z
	 M569.2,400.3c0-3.9-1.8-5.9-4.9-5.9c-3.1,0-4.9,2-4.9,5.9s1.8,5.9,4.9,5.9C567.4,406.2,569.2,404.2,569.2,400.3z"/>
<path class="st0" d="M574.7,392.5h3l3.1,11.2c0.1,0.6,0.3,1.2,0.4,1.9h0.1c0.1-0.6,0.3-1.3,0.4-1.9l3.1-11.2h3.2l3.1,11.2
	c0.1,0.6,0.3,1.2,0.4,1.9h0.1c0.1-0.6,0.2-1.3,0.4-1.9l3.1-11.2h3l-4.8,15.7h-3.2l-3.3-11.3c-0.1-0.5-0.3-1.3-0.4-1.8h-0.1
	c-0.1,0.5-0.2,1.3-0.4,1.8l-3.3,11.3h-3.2L574.7,392.5z"/>
<path class="st0" d="M2.3,447.2l3-0.5c0.4,2.3,2.1,3.5,4.6,3.5c2.3,0,3.6-0.9,3.6-2.4c0-1.6-0.9-2.3-2.7-2.5l-2.8-0.3
	c-3.4-0.3-5-2.1-5-4.5c0-2.9,2.5-4.6,6.5-4.6c3.9,0,6.6,1.9,6.9,4.8l-2.9,0.6c-0.4-1.9-1.8-3.2-4.1-3.2c-2.3,0-3.6,0.8-3.6,2.4
	c0,1.4,1,2.2,3.1,2.4l2.7,0.3c3.4,0.3,4.7,2,4.7,4.5c0,3-2.4,4.8-6.6,4.8C5.6,452.5,2.9,450.6,2.3,447.2z"/>
<path class="st0" d="M20.5,446.4v-10h2.9v9.7c0,2.6,1.2,4.1,3.5,4.1c2.7,0,4.6-2.1,4.6-5.3v-8.4h2.9v15.7h-2.7v-2.9
	c-0.8,1.9-2.9,3.3-5.3,3.3C22,452.5,20.5,450.1,20.5,446.4z"/>
<path class="st0" d="M38.9,447.2l3-0.5c0.4,2.3,2.1,3.5,4.6,3.5c2.3,0,3.6-0.9,3.6-2.4c0-1.6-0.9-2.3-2.7-2.5l-2.8-0.3
	c-3.4-0.3-5-2.1-5-4.5c0-2.9,2.5-4.6,6.5-4.6c3.9,0,6.6,1.9,6.9,4.8l-2.9,0.6c-0.4-1.9-1.8-3.2-4.1-3.2c-2.3,0-3.6,0.8-3.6,2.4
	c0,1.4,1,2.2,3.1,2.4l2.7,0.3c3.4,0.3,4.7,2,4.7,4.5c0,3-2.4,4.8-6.6,4.8C42.2,452.5,39.5,450.6,38.9,447.2z"/>
<path class="st0" d="M57.6,436.4h2.7v2.9c1.1-2.2,3.1-3.3,5.6-3.3c4.2,0,6.9,3.3,6.9,8.2c0,5-3,8.2-7.1,8.2c-2.6,0-4.5-1.3-5.3-2.9
	v8.6h-2.9V436.4z M69.7,444.2c0-3.7-1.7-5.9-4.6-5.9c-2.9,0-4.7,2.1-4.7,5.5v0.8c0,3.4,1.8,5.5,4.6,5.5
	C68,450.1,69.7,447.9,69.7,444.2z"/>
<path class="st0" d="M91,445H78.8c0,3.1,2.1,5.1,5.1,5.1c2.2,0,3.8-1.1,4.6-3l2.4,1c-1.2,2.9-3.7,4.4-7.2,4.4c-4.9,0-7.8-2.9-7.8-8
	c0-5.2,2.9-8.4,7.8-8.4c4.6,0,7.3,2.4,7.3,7.1V445z M88.1,442.5c0-2.9-1.6-4.4-4.4-4.4c-3,0-4.7,1.8-4.8,4.7h9.2L88.1,442.5
	L88.1,442.5z"/>
<path class="st0" d="M95.8,436.4h2.7v3.1c1.1-2.4,3-3.5,5.7-3.5c3.8,0,5.7,2.2,5.7,6.4v9.8h-2.9v-9.6c0-2.8-1.3-4.2-3.8-4.2
	c-2.9,0-4.6,2.1-4.6,5.6v8.2h-2.9V436.4z"/>
<path class="st0" d="M114.2,444.2c0-4.8,3-8.2,7.3-8.2c2.3,0,4,0.8,5,2.7v-9.4h2.9v22.7h-2.7v-2.9c-1,2.1-2.9,3.3-5.6,3.3
	C117,452.5,114.2,449.2,114.2,444.2z M126.6,444.6v-0.7c0-3.4-1.8-5.5-4.7-5.5c-2.9,0-4.7,2.2-4.7,5.9c0,3.7,1.7,5.9,4.7,5.9
	C124.8,450.1,126.6,448,126.6,444.6z"/>
<path class="st0" d="M149.4,445h-12.2c0,3.1,2.1,5.1,5.1,5.1c2.2,0,3.8-1.1,4.6-3l2.4,1c-1.2,2.9-3.7,4.4-7.2,4.4
	c-4.9,0-7.8-2.9-7.8-8c0-5.2,2.9-8.4,7.8-8.4c4.6,0,7.3,2.4,7.3,7.1V445z M146.4,442.5c0-2.9-1.6-4.4-4.4-4.4c-3,0-4.7,1.8-4.8,4.7
	h9.2L146.4,442.5L146.4,442.5z"/>
<path class="st0" d="M152.6,444.2c0-4.8,3-8.2,7.3-8.2c2.3,0,4,0.8,5,2.7v-9.4h2.9v22.7h-2.7v-2.9c-1,2.1-2.9,3.3-5.6,3.3
	C155.4,452.5,152.6,449.2,152.6,444.2z M165,444.6v-0.7c0-3.4-1.8-5.5-4.7-5.5c-2.9,0-4.7,2.2-4.7,5.9c0,3.7,1.7,5.9,4.7,5.9
	C163.2,450.1,165,448,165,444.6z"/>
<path class="st0" d="M181.6,447.8c0-1.6,0.9-2.9,2.4-3.7c1.3-0.6,3-1,5.8-1.3l3.2-0.3v-0.2c0-2.9-1.1-4.1-3.8-4.1
	c-2.3,0-3.8,1.1-3.9,3.1h-3.1c0.2-3.2,3-5.3,7-5.3c4.7,0,6.8,1.9,6.8,6.5v4.2c0,2.4,0.2,4.1,0.6,5.3h-3.1c-0.1-0.8-0.2-1.9-0.3-2.9
	c-0.8,2-3,3.2-5.8,3.2C183.9,452.5,181.6,450.6,181.6,447.8z M193,445.2v-0.8l-4.7,0.6c-2.5,0.3-3.6,1.2-3.6,2.7
	c0,1.5,1.3,2.5,3.4,2.5C191.1,450.3,193,448.3,193,445.2z"/>
<path class="st0" d="M209.3,438.6H205v13.5h-2.9v-13.5h-3.2v-2.2h3.2v-2.5c0-2.9,2-4.8,5-4.8c0.8,0,1.6,0.1,2.2,0.2v2.3
	c-0.6-0.1-1.3-0.2-1.8-0.2c-1.7,0-2.5,0.9-2.5,2.8v2.1h4.3V438.6z"/>
<path class="st0" d="M211.4,436.4h3.2v-4.1l2.9-1.1v5.2h4.3v2.2h-4.3v8.7c0,1.8,0.8,2.6,2.5,2.6c0.8,0,1.2-0.1,1.8-0.2v2.5
	c-0.8,0.2-1.4,0.3-2.5,0.3c-3.7,0-4.7-2.1-4.7-5v-8.8h-3.2L211.4,436.4L211.4,436.4z"/>
<path class="st0" d="M238.9,445h-12.2c0,3.1,2.1,5.1,5.1,5.1c2.2,0,3.8-1.1,4.6-3l2.4,1c-1.2,2.9-3.7,4.4-7.2,4.4
	c-4.9,0-7.8-2.9-7.8-8c0-5.2,2.9-8.4,7.8-8.4c4.6,0,7.3,2.4,7.3,7.1V445z M236,442.5c0-2.9-1.6-4.4-4.4-4.4c-3,0-4.7,1.8-4.8,4.7
	h9.2L236,442.5L236,442.5z"/>
<path class="st0" d="M251.7,436c0.2,0,0.4,0,0.6,0v2.6h-0.1c-1.8,0-3,0.5-3.8,1.2c-1.6,1.5-1.7,3.6-1.7,5.5v6.7h-2.9v-15.7h2.7v3.6
	C247.3,437.8,249.1,436,251.7,436z"/>
<path class="st0" d="M262.1,447.8c0-1.6,0.9-2.9,2.4-3.7c1.3-0.6,3-1,5.8-1.3l3.2-0.3v-0.2c0-2.9-1.1-4.1-3.8-4.1
	c-2.3,0-3.8,1.1-3.9,3.1h-3.1c0.2-3.2,3-5.3,7-5.3c4.7,0,6.8,1.9,6.8,6.5v4.2c0,2.4,0.2,4.1,0.6,5.3h-3.1c-0.1-0.8-0.2-1.9-0.3-2.9
	c-0.8,2-3,3.2-5.8,3.2C264.4,452.5,262.1,450.6,262.1,447.8z M273.5,445.2v-0.8l-4.7,0.6c-2.5,0.3-3.6,1.2-3.6,2.7
	c0,1.5,1.3,2.5,3.4,2.5C271.5,450.3,273.5,448.3,273.5,445.2z"/>
<path class="st0" d="M299,436c0.2,0,0.4,0,0.6,0v2.6h-0.1c-1.8,0-3,0.5-3.8,1.2c-1.6,1.5-1.7,3.6-1.7,5.5v6.7h-2.9v-15.7h2.7v3.6
	C294.6,437.8,296.4,436,299,436z"/>
<path class="st0" d="M301.5,447.8c0-1.6,0.9-2.9,2.4-3.7c1.3-0.6,3-1,5.8-1.3l3.2-0.3v-0.2c0-2.9-1.1-4.1-3.8-4.1
	c-2.3,0-3.8,1.1-3.9,3.1H302c0.2-3.2,3-5.3,7-5.3c4.7,0,6.8,1.9,6.8,6.5v4.2c0,2.4,0.2,4.1,0.6,5.3h-3.1c-0.1-0.8-0.2-1.9-0.3-2.9
	c-0.8,2-3,3.2-5.8,3.2C303.8,452.5,301.5,450.6,301.5,447.8z M312.9,445.2v-0.8l-4.7,0.6c-2.5,0.3-3.6,1.2-3.6,2.7
	c0,1.5,1.3,2.5,3.4,2.5C310.9,450.3,312.9,448.3,312.9,445.2z"/>
<path class="st0" d="M319.8,444.2c0-5.1,3-8.2,7.9-8.2c4,0,6.6,2.1,7.1,5.7l-3,0.3c-0.3-2.4-1.8-3.7-4.2-3.7c-3,0-4.7,2.2-4.7,5.9
	c0,3.8,1.8,5.9,4.8,5.9c2.3,0,3.8-1.3,4.2-3.7l2.8,0.4c-0.6,3.6-3.2,5.6-7,5.6C322.9,452.5,319.8,449.3,319.8,444.2z"/>
<path class="st0" d="M339.2,430.1h3.3v3.4h-3.3V430.1z M339.4,436.4h2.9v15.7h-2.9V436.4z"/>
<path class="st0" d="M346.8,447.2l3-0.5c0.4,2.3,2.1,3.5,4.6,3.5c2.3,0,3.6-0.9,3.6-2.4c0-1.6-0.9-2.3-2.7-2.5l-2.8-0.3
	c-3.4-0.3-5-2.1-5-4.5c0-2.9,2.5-4.6,6.5-4.6c3.9,0,6.6,1.9,6.9,4.8l-2.9,0.6c-0.4-1.9-1.8-3.2-4.1-3.2c-2.3,0-3.6,0.8-3.6,2.4
	c0,1.4,1,2.2,3.1,2.4l2.7,0.3c3.4,0.3,4.7,2,4.7,4.5c0,3-2.4,4.8-6.6,4.8C350.1,452.5,347.4,450.6,346.8,447.2z"/>
<path class="st0" d="M362.7,436.4h3.2v-4.1l2.9-1.1v5.2h4.3v2.2h-4.3v8.7c0,1.8,0.8,2.6,2.5,2.6c0.8,0,1.2-0.1,1.8-0.2v2.5
	c-0.8,0.2-1.4,0.3-2.5,0.3c-3.7,0-4.7-2.1-4.7-5v-8.8h-3.2L362.7,436.4L362.7,436.4z"/>
<path class="st0" d="M384.8,444.2c0-5.1,3-8.2,7.9-8.2c4,0,6.6,2.1,7.1,5.7l-3,0.3c-0.3-2.4-1.8-3.7-4.2-3.7c-3,0-4.7,2.2-4.7,5.9
	c0,3.8,1.8,5.9,4.8,5.9c2.3,0,3.8-1.3,4.2-3.7l2.8,0.4c-0.6,3.6-3.2,5.6-7,5.6C387.9,452.5,384.8,449.3,384.8,444.2z"/>
<path class="st0" d="M402.9,444.2c0-5.1,3.2-8.2,8-8.2c4.8,0,8,3.1,8,8.2c0,5.1-3.2,8.2-8,8.2C406,452.5,402.9,449.3,402.9,444.2z
	 M415.8,444.2c0-3.9-1.8-5.9-4.9-5.9s-4.9,2-4.9,5.9c0,3.9,1.8,5.9,4.9,5.9S415.8,448.1,415.8,444.2z"/>
<path class="st0" d="M426.3,436.4v2.7c1-2.1,2.6-3.2,4.9-3.2c2.4,0,4.1,1.1,4.9,3.2c1.1-2.1,2.9-3.2,5.2-3.2c3.3,0,5.2,2.2,5.2,5.8
	v10.3h-2.9V442c0-2.4-1.1-3.7-3.3-3.7c-2.4,0-3.8,1.6-3.8,4.5v9.3h-2.9v-10.2c0-2.3-1.2-3.6-3.2-3.6c-2.4,0-3.9,1.8-3.9,4.6v9.2
	h-2.9v-15.7H426.3z"/>
<path class="st0" d="M465.7,445h-12.2c0,3.1,2.1,5.1,5.1,5.1c2.2,0,3.8-1.1,4.6-3l2.4,1c-1.2,2.9-3.7,4.4-7.2,4.4
	c-4.9,0-7.8-2.9-7.8-8c0-5.2,2.9-8.4,7.8-8.4c4.6,0,7.3,2.4,7.3,7.1V445z M462.8,442.5c0-2.9-1.6-4.4-4.4-4.4c-3,0-4.7,1.8-4.8,4.7
	h9.2L462.8,442.5L462.8,442.5z"/>
<path class="st0" d="M470.5,436.4h2.7v3.1c1.1-2.4,3-3.5,5.7-3.5c3.8,0,5.7,2.2,5.7,6.4v9.8h-2.9v-9.6c0-2.8-1.3-4.2-3.8-4.2
	c-2.9,0-4.6,2.1-4.6,5.6v8.2h-2.9V436.4z"/>
<path class="st0" d="M487.5,436.4h3.2v-4.1l2.9-1.1v5.2h4.3v2.2h-4.3v8.7c0,1.8,0.8,2.6,2.5,2.6c0.8,0,1.2-0.1,1.8-0.2v2.5
	c-0.8,0.2-1.4,0.3-2.5,0.3c-3.7,0-4.7-2.1-4.7-5v-8.8h-3.2L487.5,436.4L487.5,436.4z"/>
<path class="st0" d="M509.6,444.2c0-5.1,3.2-8.2,8-8.2s8,3.1,8,8.2c0,5.1-3.2,8.2-8,8.2S509.6,449.3,509.6,444.2z M522.5,444.2
	c0-3.9-1.8-5.9-4.9-5.9s-4.9,2-4.9,5.9c0,3.9,1.8,5.9,4.9,5.9S522.5,448.1,522.5,444.2z"/>
<path class="st0" d="M537.6,438.6h-4.3v13.5h-2.9v-13.5h-3.2v-2.2h3.2v-2.5c0-2.9,2-4.8,5-4.8c0.8,0,1.6,0.1,2.2,0.2v2.3
	c-0.6-0.1-1.3-0.2-1.8-0.2c-1.7,0-2.5,0.9-2.5,2.8v2.1h4.3V438.6z"/>
<path class="st0" d="M566.2,449.6v2.5h-15.3v-22.3H566v2.5h-11.8v7.1h11.3v2.5h-11.3v7.7H566.2z"/>
<path class="st0" d="M574.6,452.1h-2.9v-22.7h2.9V452.1z"/>
<path class="st0" d="M580.8,430.1h3.3v3.4h-3.3V430.1z M581,436.4h2.9v15.7H581V436.4z"/>
<path class="st0" d="M597.4,444.2c0-5.1,3.2-8.2,8-8.2c4.8,0,8,3.1,8,8.2c0,5.1-3.2,8.2-8,8.2C600.6,452.5,597.4,449.3,597.4,444.2z
	 M610.4,444.2c0-3.9-1.8-5.9-4.9-5.9c-3.1,0-4.9,2-4.9,5.9c0,3.9,1.8,5.9,4.9,5.9C608.5,450.1,610.4,448.1,610.4,444.2z"/>
<path class="st0" d="M618.1,436.4h2.7v3.1c1.1-2.4,3-3.5,5.7-3.5c3.8,0,5.7,2.2,5.7,6.4v9.8h-2.9v-9.6c0-2.8-1.3-4.2-3.8-4.2
	c-2.9,0-4.6,2.1-4.6,5.6v8.2h-2.9V436.4z"/>
<path class="st0" d="M7.1,473.7V488c0,3.6,2.2,5.9,6.1,5.9c4,0,6.1-2.3,6.1-5.9v-14.3h3.3v14.5c0,5-3.3,8.3-9.4,8.3
	c-6,0-9.4-3.4-9.4-8.3v-14.5H7.1z"/>
<path class="st0" d="M31.5,493.3L31,496h-2.2v-22.7h2.9v9.8c0.9-1.8,2.8-3.1,5.5-3.1c4.2,0,6.9,3.4,6.9,8.2c0,4.9-2.8,8.2-7.1,8.2
	C34.4,496.4,32.4,495.1,31.5,493.3z M41,488.2c0-3.5-1.7-5.9-4.7-5.9c-2.9,0-4.6,2.1-4.6,5.5v0.8c0,3.3,1.7,5.4,4.6,5.4
	C39.2,494,41,491.7,41,488.2z"/>
<path class="st0" d="M62.3,488.9H50.1c0,3.1,2.1,5.1,5.1,5.1c2.2,0,3.8-1.1,4.6-3l2.4,1c-1.2,2.9-3.7,4.4-7.2,4.4
	c-4.9,0-7.8-2.9-7.8-8c0-5.2,2.9-8.4,7.8-8.4c4.6,0,7.3,2.4,7.3,7.1V488.9z M59.3,486.4c0-2.9-1.6-4.4-4.4-4.4c-3,0-4.7,1.8-4.8,4.7
	h9.2L59.3,486.4L59.3,486.4z"/>
<path class="st0" d="M75,479.9c0.2,0,0.4,0,0.6,0v2.6h-0.1c-1.8,0-3,0.5-3.8,1.2c-1.6,1.5-1.7,3.6-1.7,5.5v6.7h-2.9v-15.7h2.7v3.6
	C70.6,481.7,72.4,479.9,75,479.9z"/>
<path class="st0" d="M85.4,488.2c0-4.8,3-8.2,7.3-8.2c2.3,0,4,0.8,5,2.7v-9.4h2.9V496h-2.7v-2.9c-1,2.1-2.9,3.3-5.6,3.3
	C88.2,496.4,85.4,493.1,85.4,488.2z M97.8,488.5v-0.7c0-3.4-1.8-5.5-4.7-5.5c-2.9,0-4.7,2.2-4.7,5.9c0,3.7,1.7,5.9,4.7,5.9
	C96,494,97.8,491.9,97.8,488.5z"/>
<path class="st0" d="M115,479.9c0.2,0,0.4,0,0.6,0v2.6h-0.1c-1.8,0-3,0.5-3.8,1.2c-1.6,1.5-1.7,3.6-1.7,5.5v6.7H107v-15.7h2.7v3.6
	C110.6,481.7,112.3,479.9,115,479.9z"/>
<path class="st0" d="M119.1,474h3.3v3.4h-3.3V474z M119.3,480.3h2.9V496h-2.9V480.3z"/>
<path class="st0" d="M125.7,480.3h3.2l3.8,10.6c0.3,0.8,0.6,1.7,0.7,2.4h0.1c0.2-0.7,0.4-1.5,0.7-2.4l3.8-10.6h3.2L135,496h-3.1
	L125.7,480.3z"/>
<path class="st0" d="M157.7,488.9h-12.2c0,3.1,2.1,5.1,5.1,5.1c2.2,0,3.8-1.1,4.6-3l2.4,1c-1.2,2.9-3.7,4.4-7.2,4.4
	c-4.9,0-7.8-2.9-7.8-8c0-5.2,2.9-8.4,7.8-8.4c4.6,0,7.3,2.4,7.3,7.1V488.9z M154.8,486.4c0-2.9-1.6-4.4-4.4-4.4
	c-3,0-4.7,1.8-4.8,4.7h9.2L154.8,486.4L154.8,486.4z"/>
<path class="st0" d="M170.5,479.9c0.2,0,0.4,0,0.6,0v2.6H171c-1.8,0-3,0.5-3.8,1.2c-1.6,1.5-1.7,3.6-1.7,5.5v6.7h-2.9v-15.7h2.7v3.6
	C166.1,481.7,167.9,479.9,170.5,479.9z"/>
<path class="st0" d="M172.8,491.2l3-0.5c0.4,2.3,2.1,3.5,4.6,3.5c2.3,0,3.6-0.9,3.6-2.4c0-1.6-0.9-2.3-2.7-2.5l-2.8-0.3
	c-3.4-0.3-5-2.1-5-4.5c0-2.9,2.5-4.6,6.5-4.6c3.9,0,6.6,1.9,6.9,4.8l-2.9,0.6c-0.4-1.9-1.8-3.2-4.1-3.2c-2.3,0-3.6,0.8-3.6,2.4
	c0,1.4,1,2.2,3.1,2.4l2.7,0.3c3.4,0.3,4.7,2,4.7,4.5c0,3-2.4,4.8-6.6,4.8C176.1,496.4,173.4,494.5,172.8,491.2z"/>
<path class="st0" d="M190.6,499c1.7-0.7,2.1-1.4,2.1-2.9V496h-2.2v-3.7h4v3.5c0,2.5-0.7,3.7-3.1,4.6L190.6,499z"/>
<path class="st0" d="M216.7,482.5h-4.3V496h-2.9v-13.5h-3.2v-2.2h3.2v-2.5c0-2.9,2-4.8,5-4.8c0.8,0,1.6,0.1,2.2,0.2v2.3
	c-0.6-0.1-1.3-0.2-1.8-0.2c-1.7,0-2.5,0.9-2.5,2.8v2.1h4.3V482.5z"/>
<path class="st0" d="M220.1,490.3v-10h2.9v9.7c0,2.6,1.2,4.1,3.5,4.1c2.7,0,4.6-2.1,4.6-5.3v-8.4h2.9V496h-2.7v-2.9
	c-0.8,1.9-2.9,3.3-5.3,3.3C221.7,496.4,220.1,494,220.1,490.3z"/>
<path class="st0" d="M240.2,480.3h2.7v3.1c1.1-2.4,3-3.5,5.7-3.5c3.8,0,5.7,2.2,5.7,6.4v9.8h-2.9v-9.6c0-2.8-1.3-4.2-3.8-4.2
	c-2.9,0-4.6,2.1-4.6,5.6v8.2h-2.9V480.3z"/>
<path class="st0" d="M260.1,480.3h2.7v3.1c1.1-2.4,3-3.5,5.7-3.5c3.8,0,5.7,2.2,5.7,6.4v9.8h-2.9v-9.6c0-2.8-1.3-4.2-3.8-4.2
	c-2.9,0-4.6,2.1-4.6,5.6v8.2h-2.9V480.3z"/>
<path class="st0" d="M279.8,474h3.3v3.4h-3.3V474z M280,480.3h2.9V496H280V480.3z"/>
<path class="st0" d="M292.2,496h-2.9v-22.7h2.9V496z"/>
<path class="st0" d="M297,502.2v-2.4c0.4,0,0.9,0.1,1.2,0.1c2.1,0,3.1-0.8,3.9-2.9l0.4-1.2l-6.8-15.5h3.3l4.4,10.9
	c0.3,0.8,0.5,1.4,0.6,1.9h0.1c0.1-0.4,0.3-1.1,0.6-1.9l4-10.9h3.2l-6.7,16.7c-1.6,4-3.6,5.3-6.5,5.3
	C298.1,502.3,297.6,502.3,297,502.2z"/>
<path class="st0" d="M336.9,488.9h-12.2c0,3.1,2.1,5.1,5.1,5.1c2.2,0,3.8-1.1,4.6-3l2.4,1c-1.2,2.9-3.7,4.4-7.2,4.4
	c-4.9,0-7.8-2.9-7.8-8c0-5.2,2.9-8.4,7.8-8.4c4.6,0,7.3,2.4,7.3,7.1V488.9z M333.9,486.4c0-2.9-1.6-4.4-4.4-4.4
	c-3,0-4.7,1.8-4.8,4.7h9.2L333.9,486.4L333.9,486.4z"/>
<path class="st0" d="M341.7,480.3h2.7v3.1c1.1-2.4,3-3.5,5.7-3.5c3.8,0,5.7,2.2,5.7,6.4v9.8H353v-9.6c0-2.8-1.3-4.2-3.8-4.2
	c-2.9,0-4.6,2.1-4.6,5.6v8.2h-2.9V480.3z"/>
<path class="st0" d="M360,488.2c0-5.1,3.2-8.2,8-8.2c4.8,0,8,3.1,8,8.2s-3.2,8.2-8,8.2C363.2,496.4,360,493.3,360,488.2z
	 M372.9,488.2c0-3.9-1.8-5.9-4.9-5.9c-3.1,0-4.9,2-4.9,5.9c0,3.9,1.8,5.9,4.9,5.9C371.1,494.1,372.9,492,372.9,488.2z"/>
<path class="st0" d="M380.1,490.3v-10h2.9v9.7c0,2.6,1.2,4.1,3.5,4.1c2.7,0,4.6-2.1,4.6-5.3v-8.4h2.9V496h-2.7v-2.9
	c-0.8,1.9-2.9,3.3-5.3,3.3C381.7,496.4,380.1,494,380.1,490.3z"/>
<path class="st0" d="M410.9,481.5c1,0.9,1.6,2.2,1.6,3.7c0,3-2.4,5.4-6.4,5.4c-1.3,0-2.4-0.2-3.3-0.7c-0.7,0.3-1.2,0.8-1.2,1.5
	c0,0.9,0.7,1.6,2.8,1.6h4.2c3.9,0,5.8,1.6,5.8,4.4c0,2.9-2.5,5-8.5,5c-6,0-7.7-2.1-7.7-4.3c0-1.5,1-2.7,2.8-3.3
	c-1.4-0.6-2-1.6-2-2.7c0-1.6,1-2.6,2.4-3.1c-1.1-1-1.7-2.3-1.7-3.8c0-3,2.4-5.3,6.4-5.3c1.3,0,2.4,0.2,3.4,0.7
	c0.5-1.6,1.8-2.9,4.1-2.9c0.4,0,0.8,0,1.1,0.1v2.3c-0.3-0.1-0.8-0.1-1.2-0.1C412.2,480.1,411.3,480.5,410.9,481.5z M404.3,495.4
	c-0.5,0-1,0-1.4-0.1c-1.2,0.5-1.8,1.4-1.8,2.4c0,1.9,2.1,2.6,5.2,2.6c4.2,0,5.3-1.2,5.3-2.6c0-1.5-1.2-2.3-3.6-2.3L404.3,495.4
	L404.3,495.4z M409.7,485.3c0-1.9-1.4-3.3-3.6-3.3c-2.2,0-3.6,1.4-3.6,3.3c0,1.9,1.4,3.3,3.6,3.3
	C408.3,488.6,409.7,487.2,409.7,485.3z"/>
<path class="st0" d="M418.5,473.3h2.9v10c1-2.2,3-3.4,5.6-3.4c3.7,0,5.7,2.2,5.7,6.4v9.8h-2.9v-9.6c0-2.8-1.3-4.2-3.7-4.2
	c-3,0-4.6,2-4.6,5.6v8.2h-2.9L418.5,473.3L418.5,473.3z"/>
<path class="st0" d="M437.8,499c1.7-0.7,2.1-1.4,2.1-2.9V496h-2.2v-3.7h4v3.5c0,2.5-0.7,3.7-3.1,4.6L437.8,499z"/>
<path class="st0" d="M454.6,488.2c0-5.1,3.2-8.2,8-8.2c4.8,0,8,3.1,8,8.2s-3.2,8.2-8,8.2C457.7,496.4,454.6,493.3,454.6,488.2z
	 M467.5,488.2c0-3.9-1.8-5.9-4.9-5.9c-3.1,0-4.9,2-4.9,5.9c0,3.9,1.8,5.9,4.9,5.9C465.6,494.1,467.5,492,467.5,488.2z"/>
<path class="st0" d="M475.2,480.3h2.7v3.1c1.1-2.4,3-3.5,5.7-3.5c3.8,0,5.7,2.2,5.7,6.4v9.8h-2.9v-9.6c0-2.8-1.3-4.2-3.8-4.2
	c-2.9,0-4.6,2.1-4.6,5.6v8.2h-2.9V480.3z"/>
<path class="st0" d="M508.6,488.9h-12.2c0,3.1,2.1,5.1,5.1,5.1c2.2,0,3.8-1.1,4.6-3l2.4,1c-1.2,2.9-3.7,4.4-7.2,4.4
	c-4.9,0-7.8-2.9-7.8-8c0-5.2,2.9-8.4,7.8-8.4c4.6,0,7.3,2.4,7.3,7.1V488.9z M505.7,486.4c0-2.9-1.6-4.4-4.4-4.4
	c-3,0-4.7,1.8-4.8,4.7h9.2L505.7,486.4L505.7,486.4z"/>
<path class="st0" d="M520.8,488.2c0-5.1,3.2-8.2,8-8.2c4.8,0,8,3.1,8,8.2s-3.2,8.2-8,8.2C524,496.4,520.8,493.3,520.8,488.2z
	 M533.7,488.2c0-3.9-1.8-5.9-4.9-5.9c-3.1,0-4.9,2-4.9,5.9c0,3.9,1.8,5.9,4.9,5.9C531.9,494,533.7,492,533.7,488.2z"/>
<path class="st0" d="M548.9,482.5h-4.3V496h-2.9v-13.5h-3.2v-2.2h3.2v-2.5c0-2.9,2-4.8,5-4.8c0.8,0,1.6,0.1,2.2,0.2v2.3
	c-0.6-0.1-1.3-0.2-1.8-0.2c-1.7,0-2.5,0.9-2.5,2.8v2.1h4.3V482.5z"/>
<path class="st0" d="M558.9,480.3h3.2v-4.1l2.9-1.1v5.2h4.3v2.2H565v8.7c0,1.8,0.8,2.6,2.5,2.6c0.8,0,1.2-0.1,1.8-0.2v2.5
	c-0.8,0.2-1.4,0.3-2.5,0.3c-3.7,0-4.7-2.1-4.7-5v-8.8h-3.2L558.9,480.3L558.9,480.3z"/>
<path class="st0" d="M573.7,473.3h2.9v10c1-2.2,3-3.4,5.6-3.4c3.7,0,5.7,2.2,5.7,6.4v9.8H585v-9.6c0-2.8-1.3-4.2-3.7-4.2
	c-3,0-4.6,2-4.6,5.6v8.2h-2.9L573.7,473.3L573.7,473.3z"/>
<path class="st0" d="M607.2,488.9H595c0,3.1,2.1,5.1,5.1,5.1c2.2,0,3.8-1.1,4.6-3l2.4,1c-1.2,2.9-3.7,4.4-7.2,4.4
	c-4.9,0-7.8-2.9-7.8-8c0-5.2,2.9-8.4,7.8-8.4c4.6,0,7.3,2.4,7.3,7.1V488.9z M604.2,486.4c0-2.9-1.6-4.4-4.4-4.4
	c-3,0-4.7,1.8-4.8,4.7h9.2L604.2,486.4L604.2,486.4z"/>
<path class="st0" d="M2.5,532.1c0-5.1,3-8.2,7.9-8.2c4,0,6.6,2.1,7.1,5.7l-3,0.3c-0.3-2.4-1.8-3.7-4.2-3.7c-3,0-4.7,2.2-4.7,5.9
	c0,3.8,1.8,5.9,4.8,5.9c2.3,0,3.8-1.3,4.2-3.7l2.8,0.4c-0.6,3.6-3.2,5.6-7,5.6C5.6,540.3,2.5,537.1,2.5,532.1z"/>
<path class="st0" d="M20.5,532.1c0-5.1,3.2-8.2,8-8.2c4.8,0,8,3.1,8,8.2s-3.2,8.2-8,8.2C23.7,540.3,20.5,537.2,20.5,532.1z
	 M33.4,532.1c0-3.9-1.8-5.9-4.9-5.9c-3.1,0-4.9,2-4.9,5.9c0,3.9,1.8,5.9,4.9,5.9C31.6,538,33.4,536,33.4,532.1z"/>
<path class="st0" d="M43.9,524.2v2.7c1-2.1,2.6-3.2,4.9-3.2c2.4,0,4.1,1.1,4.9,3.2c1.1-2.1,2.9-3.2,5.2-3.2c3.3,0,5.2,2.2,5.2,5.8
	v10.3h-2.9v-10.1c0-2.4-1.1-3.7-3.3-3.7c-2.4,0-3.8,1.6-3.8,4.5v9.3h-2.9v-10.2c0-2.3-1.2-3.6-3.2-3.6c-2.4,0-3.9,1.8-3.9,4.6v9.2
	h-2.9v-15.7H43.9z"/>
<path class="st0" d="M69.8,524.2h2.7v2.9c1.1-2.2,3.1-3.3,5.6-3.3c4.2,0,6.9,3.3,6.9,8.2c0,5-3,8.2-7.1,8.2c-2.6,0-4.5-1.3-5.3-2.9
	v8.6h-2.9V524.2z M82,532.1c0-3.7-1.7-5.9-4.6-5.9s-4.7,2.1-4.7,5.5v0.8c0,3.4,1.8,5.5,4.6,5.5C80.2,538,82,535.8,82,532.1z"/>
<path class="st0" d="M88,535.7c0-1.6,0.9-2.9,2.4-3.7c1.3-0.6,3-1,5.8-1.3l3.2-0.3v-0.2c0-2.9-1.1-4.1-3.8-4.1
	c-2.3,0-3.8,1.1-3.9,3.1h-3.1c0.2-3.2,3-5.3,7-5.3c4.7,0,6.8,1.9,6.8,6.5v4.2c0,2.4,0.2,4.1,0.6,5.3h-3.1c-0.1-0.8-0.2-1.9-0.3-2.9
	c-0.8,2-3,3.2-5.8,3.2C90.3,540.3,88,538.5,88,535.7z M99.4,533.1v-0.8l-4.7,0.6c-2.5,0.3-3.6,1.2-3.6,2.7c0,1.5,1.3,2.5,3.4,2.5
	C97.4,538.1,99.4,536.1,99.4,533.1z"/>
<path class="st0" d="M108.1,524.2h2.7v3.1c1.1-2.4,3-3.5,5.7-3.5c3.8,0,5.7,2.2,5.7,6.4v9.8h-2.9v-9.6c0-2.8-1.3-4.2-3.8-4.2
	c-2.9,0-4.6,2.1-4.6,5.6v8.2h-2.9V524.2z"/>
<path class="st0" d="M127.7,518h3.3v3.4h-3.3V518z M127.9,524.2h2.9v15.7h-2.9V524.2z"/>
<path class="st0" d="M150.6,532.9h-12.2c0,3.1,2.1,5.1,5.1,5.1c2.2,0,3.8-1.1,4.6-3l2.4,1c-1.2,2.9-3.7,4.4-7.2,4.4
	c-4.9,0-7.8-2.9-7.8-8c0-5.2,2.9-8.4,7.8-8.4c4.6,0,7.3,2.4,7.3,7.1V532.9z M147.6,530.4c0-2.9-1.6-4.4-4.4-4.4
	c-3,0-4.7,1.8-4.8,4.7h9.2L147.6,530.4L147.6,530.4z"/>
<path class="st0" d="M153.7,535.1l3-0.5c0.4,2.3,2.1,3.5,4.6,3.5c2.3,0,3.6-0.9,3.6-2.4c0-1.6-0.9-2.3-2.7-2.5l-2.8-0.3
	c-3.4-0.3-5-2.1-5-4.5c0-2.9,2.5-4.6,6.5-4.6c3.9,0,6.6,1.9,6.9,4.8l-2.9,0.6c-0.4-1.9-1.8-3.2-4.1-3.2c-2.3,0-3.6,0.8-3.6,2.4
	c0,1.4,1,2.2,3.1,2.4l2.7,0.3c3.4,0.3,4.7,2,4.7,4.5c0,3-2.4,4.8-6.6,4.8C157,540.3,154.3,538.5,153.7,535.1z"/>
<path class="st0" d="M178.4,524.2h3.2v-4.1l2.9-1.1v5.2h4.3v2.2h-4.3v8.7c0,1.8,0.8,2.6,2.5,2.6c0.8,0,1.2-0.1,1.8-0.2v2.5
	c-0.8,0.2-1.4,0.3-2.5,0.3c-3.7,0-4.7-2.1-4.7-5v-8.8h-3.2L178.4,524.2L178.4,524.2z"/>
<path class="st0" d="M193.2,517.2h2.9v10c1-2.2,3-3.4,5.6-3.4c3.7,0,5.7,2.2,5.7,6.4v9.8h-2.9v-9.6c0-2.8-1.3-4.2-3.7-4.2
	c-3,0-4.6,2-4.6,5.6v8.2h-2.9L193.2,517.2L193.2,517.2z"/>
<path class="st0" d="M211.6,535.7c0-1.6,0.9-2.9,2.4-3.7c1.3-0.6,3-1,5.8-1.3l3.2-0.3v-0.2c0-2.9-1.1-4.1-3.8-4.1
	c-2.3,0-3.8,1.1-3.9,3.1h-3.1c0.2-3.2,3-5.3,7-5.3c4.7,0,6.8,1.9,6.8,6.5v4.2c0,2.4,0.2,4.1,0.6,5.3h-3.1c-0.1-0.8-0.2-1.9-0.3-2.9
	c-0.8,2-3,3.2-5.8,3.2C213.9,540.3,211.6,538.5,211.6,535.7z M223,533.1v-0.8l-4.7,0.6c-2.5,0.3-3.6,1.2-3.6,2.7
	c0,1.5,1.3,2.5,3.4,2.5C221,538.1,223,536.1,223,533.1z"/>
<path class="st0" d="M228.4,524.2h3.2v-4.1l2.9-1.1v5.2h4.3v2.2h-4.3v8.7c0,1.8,0.8,2.6,2.5,2.6c0.8,0,1.2-0.1,1.8-0.2v2.5
	c-0.8,0.2-1.4,0.3-2.5,0.3c-3.7,0-4.7-2.1-4.7-5v-8.8h-3.2L228.4,524.2L228.4,524.2z"/>
<path class="st0" d="M250.4,535.7c0-1.6,0.9-2.9,2.4-3.7c1.3-0.6,3-1,5.8-1.3l3.2-0.3v-0.2c0-2.9-1.1-4.1-3.8-4.1
	c-2.3,0-3.8,1.1-3.9,3.1H251c0.2-3.2,3-5.3,7-5.3c4.7,0,6.8,1.9,6.8,6.5v4.2c0,2.4,0.2,4.1,0.6,5.3h-3.1c-0.1-0.8-0.2-1.9-0.3-2.9
	c-0.8,2-3,3.2-5.8,3.2C252.7,540.3,250.4,538.5,250.4,535.7z M261.8,533.1v-0.8l-4.7,0.6c-2.5,0.3-3.6,1.2-3.6,2.7
	c0,1.5,1.3,2.5,3.4,2.5C259.9,538.1,261.8,536.1,261.8,533.1z"/>
<path class="st0" d="M268.8,532.1c0-4.8,3-8.2,7.3-8.2c2.3,0,4,0.8,5,2.7v-9.4h2.9v22.7h-2.7V537c-1,2.1-2.9,3.3-5.6,3.3
	C271.6,540.3,268.8,537,268.8,532.1z M281.2,532.5v-0.7c0-3.4-1.8-5.5-4.7-5.5c-2.9,0-4.7,2.2-4.7,5.9c0,3.7,1.7,5.9,4.7,5.9
	C279.4,538,281.2,535.8,281.2,532.5z"/>
<path class="st0" d="M288.9,532.1c0-5.1,3.2-8.2,8-8.2c4.8,0,8,3.1,8,8.2s-3.2,8.2-8,8.2C292,540.3,288.9,537.2,288.9,532.1z
	 M301.8,532.1c0-3.9-1.8-5.9-4.9-5.9c-3.1,0-4.9,2-4.9,5.9c0,3.9,1.8,5.9,4.9,5.9C299.9,538,301.8,536,301.8,532.1z"/>
<path class="st0" d="M309.5,524.2h2.7v2.9c1.1-2.2,3.1-3.3,5.6-3.3c4.2,0,6.9,3.3,6.9,8.2c0,5-3,8.2-7.1,8.2c-2.6,0-4.5-1.3-5.3-2.9
	v8.6h-2.9V524.2z M321.7,532.1c0-3.7-1.7-5.9-4.6-5.9c-2.9,0-4.7,2.1-4.7,5.5v0.8c0,3.4,1.8,5.5,4.6,5.5
	C319.9,538,321.7,535.8,321.7,532.1z"/>
<path class="st0" d="M326.3,524.2h3.2v-4.1l2.9-1.1v5.2h4.3v2.2h-4.3v8.7c0,1.8,0.8,2.6,2.5,2.6c0.8,0,1.2-0.1,1.8-0.2v2.5
	c-0.8,0.2-1.4,0.3-2.5,0.3c-3.7,0-4.7-2.1-4.7-5v-8.8h-3.2L326.3,524.2L326.3,524.2z"/>
<path class="st0" d="M339.1,535.1l3-0.5c0.4,2.3,2.1,3.5,4.6,3.5c2.3,0,3.6-0.9,3.6-2.4c0-1.6-0.9-2.3-2.7-2.5l-2.8-0.3
	c-3.4-0.3-5-2.1-5-4.5c0-2.9,2.5-4.6,6.5-4.6c3.9,0,6.6,1.9,6.9,4.8l-2.9,0.6c-0.4-1.9-1.8-3.2-4.1-3.2c-2.3,0-3.6,0.8-3.6,2.4
	c0,1.4,1,2.2,3.1,2.4l2.7,0.3c3.4,0.3,4.7,2,4.7,4.5c0,3-2.4,4.8-6.6,4.8C342.5,540.3,339.7,538.5,339.1,535.1z"/>
<path class="st0" d="M363.8,524.2h3.2v-4.1l2.9-1.1v5.2h4.3v2.2h-4.3v8.7c0,1.8,0.8,2.6,2.5,2.6c0.8,0,1.2-0.1,1.8-0.2v2.5
	c-0.8,0.2-1.4,0.3-2.5,0.3c-3.7,0-4.7-2.1-4.7-5v-8.8h-3.2L363.8,524.2L363.8,524.2z"/>
<path class="st0" d="M378.7,517.2h2.9v10c1-2.2,3-3.4,5.6-3.4c3.7,0,5.7,2.2,5.7,6.4v9.8H390v-9.6c0-2.8-1.3-4.2-3.7-4.2
	c-3,0-4.6,2-4.6,5.6v8.2h-2.9L378.7,517.2L378.7,517.2z"/>
<path class="st0" d="M412.1,532.9h-12.2c0,3.1,2.1,5.1,5.1,5.1c2.2,0,3.8-1.1,4.6-3l2.4,1c-1.2,2.9-3.7,4.4-7.2,4.4
	c-4.9,0-7.8-2.9-7.8-8c0-5.2,2.9-8.4,7.8-8.4c4.6,0,7.3,2.4,7.3,7.1V532.9z M409.2,530.4c0-2.9-1.6-4.4-4.4-4.4
	c-3,0-4.7,1.8-4.8,4.7h9.2L409.2,530.4L409.2,530.4z"/>
<path class="st0" d="M433.6,526.4h-4.3v13.5h-2.9v-13.5h-3.2v-2.2h3.2v-2.5c0-2.9,2-4.8,5-4.8c0.8,0,1.6,0.1,2.2,0.2v2.3
	c-0.6-0.1-1.3-0.2-1.8-0.2c-1.7,0-2.5,0.9-2.5,2.8v2.1h4.3V526.4z M440.7,539.9h-2.9v-22.7h2.9V539.9z"/>
<path class="st0" d="M445.5,535.7c0-1.6,0.9-2.9,2.4-3.7c1.3-0.6,3-1,5.8-1.3l3.2-0.3v-0.2c0-2.9-1.1-4.1-3.8-4.1
	c-2.3,0-3.8,1.1-3.9,3.1H446c0.2-3.2,3-5.3,7-5.3c4.7,0,6.8,1.9,6.8,6.5v4.2c0,2.4,0.2,4.1,0.6,5.3h-3.1c-0.1-0.8-0.2-1.9-0.3-2.9
	c-0.8,2-3,3.2-5.8,3.2C447.8,540.3,445.5,538.5,445.5,535.7z M456.9,533.1v-0.8l-4.7,0.6c-2.5,0.3-3.6,1.2-3.6,2.7
	c0,1.5,1.3,2.5,3.4,2.5C454.9,538.1,456.9,536.1,456.9,533.1z"/>
<path class="st0" d="M462.3,524.2h3.2v-4.1l2.9-1.1v5.2h4.3v2.2h-4.3v8.7c0,1.8,0.8,2.6,2.5,2.6c0.8,0,1.2-0.1,1.8-0.2v2.5
	c-0.8,0.2-1.4,0.3-2.5,0.3c-3.7,0-4.7-2.1-4.7-5v-8.8h-3.2L462.3,524.2L462.3,524.2z"/>
<path class="st0" d="M486.1,517.2h2.9v10c1-2.2,3-3.4,5.6-3.4c3.7,0,5.7,2.2,5.7,6.4v9.8h-2.9v-9.6c0-2.8-1.3-4.2-3.7-4.2
	c-3,0-4.6,2-4.6,5.6v8.2h-2.9L486.1,517.2L486.1,517.2z"/>
<path class="st0" d="M505.4,534.3v-10h2.9v9.7c0,2.6,1.2,4.1,3.5,4.1c2.7,0,4.6-2.1,4.6-5.3v-8.4h2.9v15.7h-2.7V537
	c-0.8,1.9-2.9,3.3-5.3,3.3C507,540.3,505.4,537.9,505.4,534.3z"/>
<path class="st0" d="M528.3,524.2v2.7c1-2.1,2.6-3.2,4.9-3.2c2.4,0,4.1,1.1,4.9,3.2c1.1-2.1,2.9-3.2,5.2-3.2c3.3,0,5.2,2.2,5.2,5.8
	v10.3h-2.9v-10.1c0-2.4-1.1-3.7-3.3-3.7c-2.4,0-3.8,1.6-3.8,4.5v9.3h-2.9v-10.2c0-2.3-1.2-3.6-3.2-3.6c-2.4,0-3.9,1.8-3.9,4.6v9.2
	h-2.9v-15.7H528.3z"/>
<path class="st0" d="M552.6,535.7c0-1.6,0.9-2.9,2.4-3.7c1.3-0.6,3-1,5.8-1.3l3.2-0.3v-0.2c0-2.9-1.1-4.1-3.8-4.1
	c-2.3,0-3.8,1.1-3.9,3.1h-3.1c0.2-3.2,3-5.3,7-5.3c4.7,0,6.8,1.9,6.8,6.5v4.2c0,2.4,0.2,4.1,0.6,5.3h-3.1c-0.1-0.8-0.2-1.9-0.3-2.9
	c-0.8,2-3,3.2-5.8,3.2C554.9,540.3,552.6,538.5,552.6,535.7z M564,533.1v-0.8l-4.7,0.6c-2.5,0.3-3.6,1.2-3.6,2.7
	c0,1.5,1.3,2.5,3.4,2.5C562.1,538.1,564,536.1,564,533.1z"/>
<path class="st0" d="M572.7,524.2h2.7v3.1c1.1-2.4,3-3.5,5.7-3.5c3.8,0,5.7,2.2,5.7,6.4v9.8H584v-9.6c0-2.8-1.3-4.2-3.8-4.2
	c-2.9,0-4.6,2.1-4.6,5.6v8.2h-2.9V524.2z"/>
<path class="st0" d="M599.8,535.1l3-0.5c0.4,2.3,2.1,3.5,4.6,3.5c2.3,0,3.6-0.9,3.6-2.4c0-1.6-0.9-2.3-2.7-2.5l-2.8-0.3
	c-3.4-0.3-5-2.1-5-4.5c0-2.9,2.5-4.6,6.5-4.6c3.9,0,6.6,1.9,6.9,4.8l-2.9,0.6c-0.4-1.9-1.8-3.2-4.1-3.2c-2.3,0-3.6,0.8-3.6,2.4
	c0,1.4,1,2.2,3.1,2.4l2.7,0.3c3.4,0.3,4.7,2,4.7,4.5c0,3-2.4,4.8-6.6,4.8C603.1,540.3,600.4,538.5,599.8,535.1z"/>
<path class="st0" d="M615.7,524.2h3.2v-4.1l2.9-1.1v5.2h4.3v2.2h-4.3v8.7c0,1.8,0.8,2.6,2.5,2.6c0.8,0,1.2-0.1,1.8-0.2v2.5
	c-0.8,0.2-1.4,0.3-2.5,0.3c-3.7,0-4.7-2.1-4.7-5v-8.8h-3.2L615.7,524.2L615.7,524.2z"/>
<path class="st0" d="M629.6,546.1v-2.4c0.4,0,0.9,0.1,1.2,0.1c2.1,0,3.1-0.8,3.9-2.9l0.4-1.2l-6.8-15.5h3.3l4.4,10.9
	c0.3,0.8,0.5,1.4,0.6,1.9h0.1c0.1-0.4,0.3-1.1,0.6-1.9l4-10.9h3.2l-6.7,16.7c-1.6,4-3.6,5.3-6.5,5.3
	C630.6,546.2,630.1,546.2,629.6,546.1z"/>
<path class="st0" d="M650.9,539.9H648v-22.7h2.9V539.9z"/>
<path class="st0" d="M670.8,532.9h-12.2c0,3.1,2.1,5.1,5.1,5.1c2.2,0,3.8-1.1,4.6-3l2.4,1c-1.2,2.9-3.7,4.4-7.2,4.4
	c-4.9,0-7.8-2.9-7.8-8c0-5.2,2.9-8.4,7.8-8.4c4.6,0,7.3,2.4,7.3,7.1V532.9z M667.9,530.4c0-2.9-1.6-4.4-4.4-4.4
	c-3,0-4.7,1.8-4.8,4.7h9.2L667.9,530.4L667.9,530.4z"/>
<path class="st0" d="M678.6,539.9h-4v-3.7h4V539.9z"/>
<path class="st0" d="M2.6,10.4c0-3.3,0.9-5.8,2.8-7.5c1.9-1.7,4.6-2.6,8.2-2.6h16.1c3.5,0,6.2,0.9,8.1,2.6c1.9,1.7,2.8,4.2,2.8,7.5
	V24h9.4V10.4c0-3.3,0.9-5.8,2.8-7.5c1.9-1.7,4.6-2.6,8.1-2.6h16.1c3.6,0,6.3,0.9,8.2,2.6c1.9,1.7,2.8,4.2,2.8,7.5v36.3
	c0,3.3-0.9,5.8-2.8,7.5c-1.9,1.7-4.6,2.6-8.2,2.6H61c-3.5,0-6.2-0.9-8.1-2.6c-1.9-1.7-2.8-4.2-2.8-7.5v-14h-9.4v14
	c0,3.3-0.9,5.8-2.8,7.5c-1.9,1.7-4.6,2.6-8.1,2.6H13.6c-3.6,0-6.3-0.9-8.2-2.6c-1.9-1.7-2.8-4.2-2.8-7.5V10.4z"/>
<path class="st0" d="M91,10.4c0-3.3,0.9-5.8,2.8-7.5c1.9-1.7,4.6-2.6,8.1-2.6H118c3.6,0,6.3,0.9,8.2,2.6c1.9,1.7,2.8,4.2,2.8,7.5
	v34.1c0,1.1,0.3,2,1,2.6c0.7,0.6,1.6,0.9,2.8,0.9h1.8c1.2,0,2.1-0.3,2.8-0.9c0.7-0.6,1-1.5,1-2.6V10.4c0-3.3,1-5.8,2.9-7.5
	c1.9-1.7,4.6-2.6,8.2-2.6h16.1c3.5,0,6.3,0.9,8.2,2.6c1.9,1.7,2.9,4.2,2.9,7.5v35.8c0,3.4-1,6.1-3,7.9c-2,1.8-4.9,2.7-8.7,2.7h-62.2
	c-3.8,0-6.6-0.9-8.7-2.7c-2-1.8-3-4.5-3-7.9L91,10.4L91,10.4z"/>
<path class="st0" d="M179.4,10.4c0-3.3,1-5.8,2.9-7.5c1.9-1.7,4.6-2.6,8.2-2.6H232c3.5,0,6.1,0.8,8,2.3c1.8,1.5,2.7,3.7,2.7,6.5h6.6
	c0-2.8,0.9-4.9,2.7-6.5c1.8-1.5,4.5-2.3,8-2.3h41.3c3.5,0,6.3,0.9,8.2,2.6c1.9,1.7,2.9,4.2,2.9,7.5v36.3c0,3.3-1,5.8-2.9,7.5
	c-1.9,1.7-4.6,2.6-8.2,2.6h-16.1c-3.5,0-6.3-0.9-8.2-2.6c-1.9-1.7-2.9-4.2-2.9-7.5V12.6c0-1.1-0.3-2-1-2.6c-0.7-0.6-1.6-0.9-2.8-0.9
	h-1.6c-1.2,0-2.1,0.3-2.8,0.9c-0.7,0.6-1,1.5-1,2.6v34.1c0,3.3-0.9,5.8-2.8,7.5c-1.9,1.7-4.6,2.6-8.2,2.6h-16.1
	c-3.5,0-6.2-0.9-8.1-2.6c-1.9-1.7-2.8-4.2-2.8-7.5V12.6c0-1.1-0.3-2-1-2.6c-0.7-0.6-1.6-0.9-2.9-0.9h-1.7c-1.2,0-2.1,0.3-2.8,0.9
	c-0.7,0.6-1,1.5-1,2.6v34.1c0,3.3-1,5.8-2.9,7.5c-1.9,1.7-4.6,2.6-8.2,2.6h-16.1c-3.5,0-6.3-0.9-8.2-2.6c-1.9-1.7-2.9-4.2-2.9-7.5
	L179.4,10.4L179.4,10.4z"/>
<path class="st0" d="M315.9,10.4c0-3.3,0.9-5.8,2.8-7.5c1.9-1.7,4.6-2.6,8.2-2.6h63.5c3.6,0,6.3,0.9,8.2,2.6
	c1.9,1.7,2.8,4.2,2.8,7.5v36.3c0,3.3-0.9,5.8-2.8,7.5c-1.9,1.7-4.6,2.6-8.2,2.6h-16.1c-3.5,0-6.2-0.9-8.1-2.6
	c-1.9-1.7-2.8-4.2-2.8-7.5v-14h-9.4v14c0,3.3-0.9,5.8-2.8,7.5c-1.9,1.7-4.6,2.6-8.1,2.6h-16.1c-3.6,0-6.3-0.9-8.2-2.6
	c-1.9-1.7-2.8-4.2-2.8-7.5L315.9,10.4L315.9,10.4z M353.9,24h9.4V12.6c0-1.1-0.3-2-1-2.6c-0.7-0.6-1.6-0.9-2.9-0.9h-1.7
	c-1.2,0-2.2,0.3-2.9,0.9c-0.7,0.6-1,1.5-1,2.6V24z"/>
<path class="st0" d="M404.9,10.4c0-3.3,1-5.8,2.9-7.5c1.9-1.7,4.6-2.6,8.2-2.6h44.5c3.6,0,6.4,0.9,8.3,2.6c2,1.7,3,4.2,3,7.5v34.3
	c0,1.1,0.3,1.9,1,2.5c0.7,0.6,1.6,0.9,2.7,0.9h1.7c1.2,0,2.1-0.3,2.7-0.9c0.7-0.6,1-1.4,1-2.5V10.4c0-3.3,0.9-5.8,2.8-7.5
	c1.9-1.7,4.6-2.6,8.1-2.6h16.1c3.6,0,6.3,0.9,8.2,2.6c1.9,1.7,2.8,4.2,2.8,7.5v36.3c0,3.3-0.9,5.8-2.8,7.5c-1.9,1.7-4.6,2.6-8.2,2.6
	h-44.5c-3.5,0-6.3-0.9-8.3-2.6c-2-1.7-3-4.2-3-7.5V12.4c0-1.1-0.3-1.9-1-2.5c-0.7-0.6-1.5-0.9-2.6-0.9h-1.8c-1.2,0-2.1,0.3-2.7,0.9
	c-0.6,0.6-0.9,1.4-0.9,2.5v34.3c0,3.3-1,5.8-2.9,7.5c-1.9,1.7-4.6,2.6-8.2,2.6H416c-3.5,0-6.3-0.9-8.2-2.6c-1.9-1.7-2.9-4.2-2.9-7.5
	L404.9,10.4L404.9,10.4z"/>
<path class="st0" d="M528.1,56.8c-1.7,0-3-0.4-3.9-1.1c-0.9-0.8-1.4-1.8-1.4-3.2c0-1.4,0.5-2.5,1.4-3.2c0.9-0.8,2.2-1.1,3.9-1.1
	h32.7V36c0-1.1-0.3-2-1-2.6c-0.7-0.6-1.6-0.9-2.9-0.9h-23.2c-3.5,0-6.3-0.9-8.2-2.6c-1.9-1.7-2.9-4.2-2.9-7.5V10.4
	c0-3.3,1-5.8,2.9-7.5c1.9-1.7,4.6-2.6,8.2-2.6h58.5c1.7,0,3,0.4,3.9,1.1c0.9,0.8,1.4,1.8,1.4,3.2c0,1.4-0.5,2.5-1.4,3.2
	c-0.9,0.8-2.2,1.1-3.9,1.1h-31.4v11.2c0,1.1,0.3,1.9,1,2.5c0.7,0.6,1.6,0.9,2.8,0.9h23.2c3.6,0,6.3,0.9,8.2,2.6
	c1.9,1.7,2.8,4.2,2.8,7.5v12.9c0,3.3-0.9,5.8-2.8,7.5c-1.9,1.7-4.6,2.6-8.2,2.6L528.1,56.8L528.1,56.8z"/>
<path class="st0" d="M2.6,78.2c0-3.4,1-6.1,3-7.9c2-1.8,4.9-2.7,8.7-2.7h62.2c3.8,0,6.6,0.9,8.7,2.7c2,1.8,3,4.5,3,7.9v35.2
	c0,3.4-1,6.1-3,7.9c-2,1.8-4.9,2.7-8.7,2.7H14.3c-3.8,0-6.6-0.9-8.7-2.7c-2-1.8-3-4.5-3-7.9V78.2z M40.7,111.8c0,1.1,0.3,2,1,2.6
	c0.7,0.6,1.6,0.9,2.9,0.9h1.7c1.2,0,2.2-0.3,2.9-0.9c0.7-0.6,1-1.5,1-2.6V79.8c0-1.1-0.3-2-1-2.6c-0.7-0.6-1.6-0.9-2.9-0.9h-1.7
	c-1.2,0-2.2,0.3-2.9,0.9c-0.7,0.6-1,1.5-1,2.6V111.8z"/>
<path class="st0" d="M91.5,77.7c0-3.3,0.9-5.8,2.8-7.5c1.9-1.7,4.6-2.6,8.2-2.6h58.5c1.6,0,2.9,0.4,3.9,1.1c0.9,0.8,1.4,1.8,1.4,3.2
	s-0.5,2.5-1.4,3.2c-0.9,0.8-2.2,1.1-3.9,1.1h-31.5v15h31.5c1.6,0,2.9,0.4,3.9,1.1c0.9,0.8,1.4,1.8,1.4,3.2c0,1.4-0.5,2.5-1.4,3.2
	c-0.9,0.8-2.2,1.1-3.9,1.1h-31.5v14c0,3.3-0.9,5.8-2.8,7.5c-1.9,1.7-4.6,2.6-8.1,2.6h-16.1c-3.6,0-6.3-0.9-8.2-2.6
	c-1.9-1.7-2.8-4.2-2.8-7.5L91.5,77.7z"/>
<path class="st0" d="M211.5,77.7c0-3.3,0.9-5.8,2.8-7.5c1.9-1.7,4.6-2.6,8.2-2.6h58.5c1.6,0,2.9,0.4,3.9,1.1
	c0.9,0.8,1.4,1.8,1.4,3.2s-0.5,2.5-1.4,3.2c-0.9,0.8-2.2,1.1-3.9,1.1h-31.5v15h31.5c1.6,0,2.9,0.4,3.9,1.1c0.9,0.8,1.4,1.8,1.4,3.2
	c0,1.4-0.5,2.5-1.4,3.2c-0.9,0.8-2.2,1.1-3.9,1.1h-31.5v14c0,3.3-0.9,5.8-2.8,7.5c-1.9,1.7-4.6,2.6-8.1,2.6h-16.1
	c-3.6,0-6.3-0.9-8.2-2.6c-1.9-1.7-2.8-4.2-2.8-7.5V77.7z"/>
<path class="st0" d="M289.7,77.6c0-3.2,0.9-5.7,2.8-7.4c1.9-1.7,4.6-2.6,8.2-2.6h16.1c3.5,0,6.2,0.9,8.1,2.6
	c1.9,1.7,2.8,4.2,2.8,7.4v37.7h31.5c1.6,0,2.9,0.4,3.9,1.2c0.9,0.8,1.4,1.9,1.4,3.3c0,1.4-0.5,2.5-1.4,3.2c-0.9,0.8-2.2,1.1-3.9,1.1
	h-58.5c-3.6,0-6.3-0.9-8.2-2.6c-1.9-1.7-2.8-4.2-2.8-7.5L289.7,77.6L289.7,77.6z"/>
<path class="st0" d="M367.9,77.7c0-3.3,0.9-5.8,2.8-7.5c1.9-1.7,4.6-2.6,8.2-2.6h63.5c3.6,0,6.3,0.9,8.2,2.6
	c1.9,1.7,2.8,4.2,2.8,7.5V114c0,3.3-0.9,5.8-2.8,7.5c-1.9,1.7-4.6,2.6-8.2,2.6h-16.1c-3.5,0-6.2-0.9-8.1-2.6
	c-1.9-1.7-2.8-4.2-2.8-7.5v-14H406v14c0,3.3-0.9,5.8-2.8,7.5c-1.9,1.7-4.6,2.6-8.1,2.6H379c-3.6,0-6.3-0.9-8.2-2.6
	c-1.9-1.7-2.8-4.2-2.8-7.5V77.7z M406,91.3h9.4V79.8c0-1.1-0.3-2-1-2.6c-0.7-0.6-1.6-0.9-2.9-0.9h-1.7c-1.2,0-2.2,0.3-2.9,0.9
	c-0.7,0.6-1,1.5-1,2.6L406,91.3z"/>
<path class="st0" d="M456.8,71.9c0-1.4,0.5-2.5,1.4-3.2c0.9-0.8,2.2-1.1,3.9-1.1h73.4c1.7,0,3,0.4,3.9,1.1c0.9,0.8,1.4,1.8,1.4,3.2
	s-0.5,2.5-1.4,3.2c-0.9,0.8-2.2,1.1-3.9,1.1h-17.7V114c0,3.3-0.9,5.8-2.8,7.5c-1.9,1.7-4.6,2.6-8.1,2.6h-16.1
	c-3.6,0-6.3-0.9-8.2-2.6c-1.9-1.7-2.8-4.2-2.8-7.5V76.3h-17.7c-1.7,0-3-0.4-3.9-1.1C457.3,74.4,456.8,73.3,456.8,71.9z"/>
<path class="st0" d="M652.1,60.7c0-11.2,5.8-21.7,16.6-27.7l6.2,3.8c-8.6,6.3-13,13.7-13,23.9c0,10.1,4.5,17.7,13.2,24.1l-6.6,4.2
	C658,82.6,652.1,71.7,652.1,60.7z"/>
<path class="st0" d="M719.7,72.7v7.8h-33.4v-7.8H698V51.3c-1.9,1.5-5.1,2.5-9.4,2.5h-2.1V45h1.7c6.6,0,9.8-2.4,11.8-6.7h8.6v34.4
	H719.7z"/>
<path class="st0" d="M729,84.8c8.7-6.4,13.2-14,13.2-24.1c0-10.2-4.4-17.6-13-23.9l6.2-3.8c10.7,6,16.6,16.5,16.6,27.7
	c0,11-5.9,21.9-16.3,28.3L729,84.8z"/>
</svg>
