<svg width="auto" height="auto" viewBox="0 0 1641 1049" fill="none" xmlns="http://www.w3.org/2000/svg">
	<g id="fourth-popup">
		<g id="company4 2">
			<g id="window">
				<g id="Vector">
					<path d="M1604.5 598.499H1052.5C1033.2 598.499 1017.5 582.799 1017.5 563.499V36.499C1017.5 17.199 1033.2 1.49902 1052.5 1.49902H1604.5C1623.8 1.49902 1639.5 17.199 1639.5 36.499V563.499C1639.5 582.799 1623.8 598.499 1604.5 598.499Z" fill="#D4F4FF"/>
					<path d="M1604.5 596.999H1052.5V599.999H1604.5V596.999ZM1052.5 596.999C1034.03 596.999 1019 581.971 1019 563.499H1016C1016 583.627 1032.37 599.999 1052.5 599.999V596.999ZM1019 563.499V36.499H1016V563.499H1019ZM1019 36.499C1019 18.0275 1034.03 2.99902 1052.5 2.99902V-0.000976562C1032.37 -0.000976562 1016 16.3706 1016 36.499H1019ZM1052.5 2.99902H1604.5V-0.000976562H1052.5V2.99902ZM1604.5 2.99902C1622.97 2.99902 1638 18.0275 1638 36.499H1641C1641 16.3706 1624.63 -0.000976562 1604.5 -0.000976562V2.99902ZM1638 36.499V563.499H1641V36.499H1638ZM1638 563.499C1638 581.971 1622.97 596.999 1604.5 596.999V599.999C1624.63 599.999 1641 583.627 1641 563.499H1638ZM1017.2 38.4994H1640V35.4994H1017.2V38.4994Z" fill="#00BBFF"/>
				</g>
				<g id="Vector_2">
					<path d="M1043.3 27.3992C1039.9 27.3992 1037.2 24.6992 1037.2 21.2992C1037.2 17.8992 1039.9 15.1992 1043.3 15.1992C1046.7 15.1992 1049.4 17.8992 1049.4 21.2992C1049.4 24.6992 1046.7 27.3992 1043.3 27.3992Z" fill="white"/>
					<path d="M1063.6 27.3992C1060.2 27.3992 1057.5 24.6992 1057.5 21.2992C1057.5 17.8992 1060.2 15.1992 1063.6 15.1992C1067 15.1992 1069.7 17.8992 1069.7 21.2992C1069.7 24.6992 1067 27.3992 1063.6 27.3992Z" fill="white"/>
					<path d="M1083.9 27.3992C1080.5 27.3992 1077.8 24.6992 1077.8 21.2992C1077.8 17.8992 1080.5 15.1992 1083.9 15.1992C1087.3 15.1992 1090 17.8992 1090 21.2992C1090 24.6992 1087.3 27.3992 1083.9 27.3992Z" fill="white"/>
				</g>
				<g id="Vector_3">
					<path d="M1043.3 16.6992C1045.8 16.6992 1047.9 18.7992 1047.9 21.2992C1047.9 23.7992 1045.8 25.8992 1043.3 25.8992C1040.8 25.8992 1038.7 23.7992 1038.7 21.2992C1038.7 18.7992 1040.7 16.6992 1043.3 16.6992ZM1043.3 13.6992C1039.1 13.6992 1035.7 17.0992 1035.7 21.2992C1035.7 25.4992 1039.1 28.8992 1043.3 28.8992C1047.5 28.8992 1050.9 25.4992 1050.9 21.2992C1050.9 17.0992 1047.5 13.6992 1043.3 13.6992Z" fill="#00BBFF"/>
					<path d="M1063.6 16.6992C1066.1 16.6992 1068.2 18.7992 1068.2 21.2992C1068.2 23.7992 1066.1 25.8992 1063.6 25.8992C1061.1 25.8992 1059 23.8992 1059 21.2992C1059 18.6992 1061.1 16.6992 1063.6 16.6992ZM1063.6 13.6992C1059.4 13.6992 1056 17.0992 1056 21.2992C1056 25.4992 1059.4 28.8992 1063.6 28.8992C1067.8 28.8992 1071.2 25.4992 1071.2 21.2992C1071.2 17.0992 1067.8 13.6992 1063.6 13.6992Z" fill="#00BBFF"/>
					<path d="M1083.9 16.6992C1086.4 16.6992 1088.5 18.7992 1088.5 21.2992C1088.5 23.7992 1086.4 25.8992 1083.9 25.8992C1081.4 25.8992 1079.3 23.7992 1079.3 21.2992C1079.3 18.7992 1081.4 16.6992 1083.9 16.6992ZM1083.9 13.6992C1079.7 13.6992 1076.3 17.0992 1076.3 21.2992C1076.3 25.4992 1079.7 28.8992 1083.9 28.8992C1088.1 28.8992 1091.5 25.4992 1091.5 21.2992C1091.5 17.0992 1088.1 13.6992 1083.9 13.6992Z" fill="#00BBFF"/>
				</g>
				<path id="Vector_4" d="M1556.3 546H1089.1C1072.3 546 1058.7 532.4 1058.7 515.6V498.7C1058.7 481.9 1072.3 468.3 1089.1 468.3H1556.3C1573.1 468.3 1586.7 481.9 1586.7 498.7V515.6C1586.8 532.4 1573.1 546 1556.3 546Z" fill="white" stroke="#FF921E" stroke-width="3" stroke-miterlimit="10"/>
			</g>
			<a xlink:href="#go-company-four">
				<g id="button-company4">
					<path id="Vector_5" d="M1556.6 545.7H1089.4C1072.6 545.7 1059 532.1 1059 515.3V498.4C1059 481.6 1072.6 468 1089.4 468H1556.6C1573.4 468 1587 481.6 1587 498.4V515.3C1587.1 532.1 1573.5 545.7 1556.6 545.7Z" fill="#FF921E"/>
					<g id="Vector_6">
						<path d="M1109 492.599C1109 489.899 1109.7 487.899 1111.1 486.499C1112.5 485.099 1114.5 484.399 1117.2 484.399H1129.1C1131.7 484.399 1133.7 485.099 1135.1 486.499C1136.5 487.899 1137.2 489.899 1137.2 492.599V522.099C1137.2 524.799 1136.5 526.799 1135.1 528.199C1133.7 529.599 1131.7 530.299 1129.1 530.299H1117.2C1114.5 530.299 1112.5 529.599 1111.1 528.199C1109.7 526.799 1109 524.799 1109 522.099V492.599Z" fill="white"/>
						<path d="M1141.4 492.599C1141.4 489.899 1142.1 487.899 1143.5 486.499C1144.9 485.099 1146.9 484.399 1149.6 484.399H1182.6C1185.3 484.399 1187.3 485.099 1188.8 486.499C1190.3 487.899 1191 489.899 1191 492.599V520.399C1191 521.299 1191.2 521.899 1191.7 522.399C1192.2 522.899 1192.9 523.099 1193.7 523.099H1194.9C1195.8 523.099 1196.4 522.899 1196.9 522.399C1197.4 521.899 1197.6 521.199 1197.6 520.399V492.599C1197.6 489.899 1198.3 487.899 1199.7 486.499C1201.1 485.099 1203.1 484.399 1205.7 484.399H1217.6C1220.3 484.399 1222.3 485.099 1223.7 486.499C1225.1 487.899 1225.8 489.899 1225.8 492.599V522.099C1225.8 524.799 1225.1 526.799 1223.7 528.199C1222.3 529.599 1220.3 530.299 1217.6 530.299H1184.6C1182 530.299 1179.9 529.599 1178.4 528.199C1176.9 526.799 1176.2 524.799 1176.2 522.099V494.299C1176.2 493.399 1176 492.799 1175.5 492.299C1175 491.799 1174.4 491.599 1173.5 491.599H1172.2C1171.3 491.599 1170.7 491.799 1170.2 492.299C1169.7 492.799 1169.5 493.499 1169.5 494.299V522.099C1169.5 524.799 1168.8 526.799 1167.4 528.199C1166 529.599 1164 530.299 1161.3 530.299H1149.4C1146.8 530.299 1144.8 529.599 1143.3 528.199C1141.9 526.799 1141.2 524.799 1141.2 522.099V492.599H1141.4Z" fill="white"/>
						<path d="M1234.3 530.299C1233 530.299 1232.1 529.999 1231.4 529.399C1230.7 528.799 1230.4 527.899 1230.4 526.799C1230.4 525.699 1230.7 524.799 1231.4 524.199C1232.1 523.599 1233 523.299 1234.3 523.299H1258.5V513.499C1258.5 512.599 1258.2 511.899 1257.7 511.399C1257.2 510.899 1256.5 510.599 1255.6 510.599H1238.4C1235.8 510.599 1233.8 509.899 1232.3 508.499C1230.9 507.099 1230.2 505.099 1230.2 502.399V492.699C1230.2 489.999 1230.9 487.999 1232.3 486.599C1233.7 485.199 1235.7 484.499 1238.4 484.499H1281.8C1283.1 484.499 1284 484.799 1284.7 485.399C1285.4 485.999 1285.7 486.899 1285.7 487.999C1285.7 489.099 1285.4 489.999 1284.7 490.599C1284 491.199 1283.1 491.499 1281.8 491.499H1258.5V500.599C1258.5 501.499 1258.8 502.199 1259.3 502.699C1259.8 503.199 1260.5 503.499 1261.4 503.499H1278.6C1281.3 503.499 1283.3 504.199 1284.7 505.599C1286.1 506.999 1286.8 508.999 1286.8 511.699V522.199C1286.8 524.899 1286.1 526.899 1284.7 528.299C1283.3 529.699 1281.3 530.399 1278.6 530.399H1234.3V530.299Z" fill="white"/>
						<path d="M1299.3 530.299C1296.7 530.299 1294.7 529.599 1293.2 528.199C1291.8 526.799 1291.1 524.799 1291.1 522.099V492.599C1291.1 489.899 1291.8 487.899 1293.2 486.499C1294.6 485.099 1296.6 484.399 1299.3 484.399H1346.4C1349.1 484.399 1351.1 485.099 1352.5 486.499C1353.9 487.899 1354.6 489.899 1354.6 492.599V502.499C1354.6 505.199 1353.9 507.199 1352.5 508.599C1351.1 509.999 1349.1 510.699 1346.4 510.699H1319.4V522.099C1319.4 524.799 1318.7 526.799 1317.3 528.199C1315.9 529.599 1313.9 530.299 1311.2 530.299H1299.3ZM1323.4 503.999C1324.3 503.999 1325 503.699 1325.5 503.199C1326 502.699 1326.3 501.999 1326.3 501.099V493.999C1326.3 493.099 1326 492.399 1325.5 491.899C1325 491.399 1324.3 491.099 1323.4 491.099H1319.3V503.999H1323.4Z" fill="white"/>
						<path d="M1358.4 516.899C1358.4 514.199 1359 512.199 1360.2 510.799C1361.4 509.399 1363.1 508.699 1365.3 508.699V505.999C1363.1 505.999 1361.4 505.299 1360.2 503.899C1359 502.499 1358.4 500.499 1358.4 497.899V492.699C1358.4 489.999 1359.1 487.999 1360.5 486.599C1361.9 485.199 1363.9 484.499 1366.6 484.499H1410C1411.2 484.499 1412.2 484.799 1412.9 485.399C1413.6 485.999 1413.9 486.899 1413.9 487.999C1413.9 489.099 1413.6 489.999 1412.9 490.599C1412.2 491.199 1411.2 491.499 1410 491.499H1386.6V503.399H1410C1411.2 503.399 1412.2 503.699 1412.9 504.299C1413.6 504.899 1413.9 505.799 1413.9 506.899C1413.9 507.999 1413.6 508.899 1412.9 509.599C1412.2 510.199 1411.2 510.599 1410 510.599H1386.6V523.199H1410C1411.2 523.199 1412.2 523.499 1412.9 524.099C1413.6 524.699 1413.9 525.599 1413.9 526.699C1413.9 527.799 1413.6 528.699 1412.9 529.299C1412.2 529.899 1411.2 530.199 1410 530.199H1366.6C1363.9 530.199 1361.9 529.499 1360.5 528.099C1359.1 526.699 1358.4 524.699 1358.4 521.999V516.899Z" fill="white"/>
						<path d="M1418.1 492.599C1418.1 489.899 1418.8 487.899 1420.2 486.499C1421.6 485.099 1423.6 484.399 1426.3 484.399H1469.7C1471 484.399 1471.9 484.699 1472.6 485.299C1473.3 485.899 1473.6 486.799 1473.6 487.899C1473.6 488.999 1473.3 489.899 1472.6 490.499C1471.9 491.099 1471 491.399 1469.7 491.399H1446.4V523.099H1469.7C1471 523.099 1471.9 523.399 1472.6 523.999C1473.3 524.599 1473.6 525.499 1473.6 526.599C1473.6 527.699 1473.3 528.599 1472.6 529.199C1471.9 529.799 1471 530.099 1469.7 530.099H1426.3C1423.7 530.099 1421.7 529.399 1420.2 527.999C1418.8 526.599 1418.1 524.599 1418.1 521.899V492.599Z" fill="white"/>
						<path d="M1477.7 487.999C1477.7 486.899 1478 485.999 1478.7 485.399C1479.4 484.799 1480.3 484.499 1481.6 484.499H1536C1537.3 484.499 1538.2 484.799 1538.9 485.399C1539.6 485.999 1539.9 486.899 1539.9 487.999C1539.9 489.099 1539.6 489.999 1538.9 490.599C1538.2 491.199 1537.3 491.499 1536 491.499H1522.9V522.099C1522.9 524.799 1522.2 526.799 1520.8 528.199C1519.4 529.599 1517.4 530.299 1514.8 530.299H1502.9C1500.2 530.299 1498.2 529.599 1496.8 528.199C1495.4 526.799 1494.7 524.799 1494.7 522.099V491.499H1481.6C1480.3 491.499 1479.4 491.199 1478.7 490.599C1478.1 489.999 1477.7 489.099 1477.7 487.999Z" fill="white"/>
					</g>
					<animateTransform attributeType="XML" attributeName="transform" type="translate" from="15 -15" to="0 0" dur="0.3s" values="15 -15; 10 -10; 0 0" id="go-company-four" fill="freeze" begin="go-company-four.begin"/>
              		<animateTransform attributeType="XML" attributeName="transform" type="translate" from="0 0" to="15 -15" dur="0.3s" fill="freeze"/>
				</g>
			</a>
			<path id="logo" d="M1251.6 262.4C1263.3 262.4 1275 262.5 1286.7 262.3C1291.7 262.2 1293.8 264.1 1293.5 269.1C1293.3 271.8 1293.4 274.6 1293.5 277.3C1293.7 284.2 1296.3 287 1303.2 287.2C1311.8 287.5 1320.4 287.3 1329 287.3C1338.9 287.3 1348.7 287.4 1358.6 287.2C1366.4 287.1 1368.7 284.7 1368.8 276.9C1368.9 258.4 1368.9 240 1368.8 221.5C1368.8 213.8 1366.4 211.3 1358.6 211.3C1340.5 211.2 1322.4 211.2 1304.3 211.3C1296.2 211.4 1293.7 214.2 1293.6 222.5C1293.4 237.5 1295.1 236.3 1279.6 236.3C1258.8 236.3 1237.9 236.3 1217.1 236.3C1210 236.3 1209.5 235.6 1210.6 228.7C1219.8 171.5 1269.4 128.9 1327.3 126.9C1386.7 124.9 1438.4 165.5 1451.1 222.2C1467 293.3 1419.5 361.8 1347 370.9C1276 379.8 1220.7 329.9 1210.8 270.4C1209.5 262.8 1210 262.3 1217.9 262.3C1228.9 262.4 1240.2 262.4 1251.6 262.4Z" fill="black"/>
		</g>
		<g id="news4">
		<g id="window_2">
		<g id="Vector_7">
		<path d="M1064.32 1047.25H56.0427C26.242 1047.25 2 1023.02 2 993.236V142.012C2 112.228 26.242 88 56.0427 88H1064.32C1094.13 88 1118.37 112.228 1118.37 142.012V993.236C1118.37 1023.02 1094.13 1047.25 1064.32 1047.25Z" fill="#D4F4FF"/>
		<path d="M1064.32 1045.75H56.0427V1048.75H1064.32V1045.75ZM56.0427 1045.75C27.0696 1045.75 3.5 1022.19 3.5 993.236H0.5C0.5 1023.85 25.4144 1048.75 56.0427 1048.75V1045.75ZM3.5 993.236V142.012H0.5V993.236H3.5ZM3.5 142.012C3.5 113.057 27.0696 89.5 56.0427 89.5V86.5C25.4144 86.5 0.5 111.399 0.5 142.012H3.5ZM56.0427 89.5H1064.32V86.5H56.0427V89.5ZM1064.32 89.5C1093.3 89.5 1116.87 113.057 1116.87 142.012H1119.87C1119.87 111.399 1094.95 86.5 1064.32 86.5V89.5ZM1116.87 142.012V993.236H1119.87V142.012H1116.87ZM1116.87 993.236C1116.87 1022.19 1093.3 1045.75 1064.32 1045.75V1048.75C1094.95 1048.75 1119.87 1023.85 1119.87 993.236H1116.87ZM3.08096 151.382H1118.52V148.382H3.08096V151.382Z" fill="#00BCFF"/>
		</g>
		<g id="Vector_8">
		<path d="M50.6382 132.135C57.034 132.135 62.2188 126.953 62.2188 120.561C62.2188 114.169 57.034 108.987 50.6382 108.987C44.2424 108.987 39.0576 114.169 39.0576 120.561C39.0576 126.953 44.2424 132.135 50.6382 132.135Z" fill="white"/>
		<path d="M87.6961 132.135C94.0918 132.135 99.2766 126.953 99.2766 120.561C99.2766 114.169 94.0918 108.987 87.6961 108.987C81.3003 108.987 76.1155 114.169 76.1155 120.561C76.1155 126.953 81.3003 132.135 87.6961 132.135Z" fill="white"/>
		<path d="M124.754 132.135C131.15 132.135 136.334 126.953 136.334 120.561C136.334 114.169 131.15 108.987 124.754 108.987C118.358 108.987 113.173 114.169 113.173 120.561C113.173 126.953 118.358 132.135 124.754 132.135Z" fill="white"/>
		</g>
		<g id="Vector_9">
		<path d="M50.6389 111.302C55.7343 111.302 59.9033 115.469 59.9033 120.562C59.9033 125.654 55.7343 129.821 50.6389 129.821C45.5434 129.821 41.3744 125.654 41.3744 120.562C41.3744 115.469 45.5434 111.302 50.6389 111.302ZM50.6389 106.673C42.9185 106.673 36.7422 112.846 36.7422 120.562C36.7422 128.278 42.9185 134.45 50.6389 134.45C58.3593 134.45 64.5356 128.278 64.5356 120.562C64.5356 112.846 58.3593 106.673 50.6389 106.673Z" fill="#00BCFF"/>
		<path d="M87.6967 111.302C92.7922 111.302 96.9612 115.469 96.9612 120.562C96.9612 125.654 92.7922 129.821 87.6967 129.821C82.6013 129.821 78.4323 125.654 78.4323 120.562C78.4323 115.469 82.6013 111.302 87.6967 111.302ZM87.6967 106.673C79.9764 106.673 73.8 112.846 73.8 120.562C73.8 128.278 79.9764 134.45 87.6967 134.45C95.4171 134.45 101.593 128.278 101.593 120.562C101.593 112.846 95.4171 106.673 87.6967 106.673Z" fill="#00BCFF"/>
		<path d="M124.755 111.302C129.85 111.302 134.019 115.469 134.019 120.562C134.019 125.654 129.85 129.821 124.755 129.821C119.659 129.821 115.49 125.654 115.49 120.562C115.49 115.469 119.659 111.302 124.755 111.302ZM124.755 106.673C117.034 106.673 110.858 112.846 110.858 120.562C110.858 128.278 117.034 134.45 124.755 134.45C132.475 134.45 138.651 128.278 138.651 120.562C138.651 112.846 132.475 106.673 124.755 106.673Z" fill="#00BCFF"/>
		</g>
		</g>
		<g id="text">
		<g id="Vector_10">
		<path d="M69.167 225.19V279.664H53.263V225.19H40.6016V211.764H81.9828V225.19H69.167Z" fill="#00BFFF"/>
		<path d="M83.3726 211.764H97.8869L100.512 249.881C100.666 252.813 100.975 257.134 100.821 260.529H101.284L102.21 251.115L106.534 211.764H120.739L125.063 251.115C125.372 254.047 125.526 257.134 125.989 260.529H126.298C126.298 257.134 126.452 252.813 126.607 249.881L129.386 211.764H143.9L136.18 279.664H118.423L114.409 245.406C113.945 240.93 114.1 237.69 113.791 234.449H113.328C113.173 237.69 113.173 241.085 112.71 245.406L108.85 279.664H91.093L83.3726 211.764Z" fill="#00BFFF"/>
		<path d="M148.841 279.664V211.764H164.9V279.664H148.841Z" fill="#00BFFF"/>
		<path d="M196.553 225.19V279.664H180.649V225.19H167.988V211.764H209.369V225.19H196.553Z" fill="#00BFFF"/>
		<path d="M239.324 225.19V279.664H223.42V225.19H210.759V211.764H252.14V225.19H239.324Z" fill="#00BFFF"/>
		<path d="M288.889 267.782V279.819H255.074V211.918H288.272V223.955H270.978V238.924H286.882V250.807H270.824V267.782H288.889Z" fill="#00BFFF"/>
		<path d="M313.595 252.659H309.734V279.664H293.676V211.764H313.595C329.035 211.764 335.057 218.863 335.057 230.591V233.369C335.057 241.085 332.124 246.023 327.337 248.801L336.447 279.664H319.771L313.595 252.659ZM312.514 242.936C317.146 242.936 318.69 240.313 318.69 234.449V229.665C318.69 224.264 316.992 222.412 312.514 222.412H309.734V242.936H312.514Z" fill="#00BFFF"/>
		<path d="M355.13 211.764H374.894C389.563 211.764 397.901 219.634 397.901 233.986V256.671C397.901 271.64 389.718 279.664 374.74 279.664H355.13V211.764ZM374.586 268.399C379.218 268.399 381.534 264.232 381.534 257.597V233.06C381.534 226.27 379.527 223.029 374.586 223.029H371.189V268.399H374.586Z" fill="#00BFFF"/>
		<path d="M403.769 279.664V211.764H419.827V279.664H403.769Z" fill="#00BFFF"/>
		<path d="M423.224 211.764H439.745L444.841 252.967C445.458 258.368 445.767 262.072 445.922 265.93H446.385C446.539 262.072 446.694 258.214 447.466 252.967L452.561 211.764H469.083L456.421 279.664H436.04L423.224 211.764Z" fill="#00BFFF"/>
		<path d="M506.295 267.782V279.819H472.48V211.918H505.678V223.955H488.384V238.924H504.442V250.807H488.384V267.782H506.295Z" fill="#00BFFF"/>
		<path d="M531.001 252.659H527.14V279.664H511.082V211.764H531.001C546.441 211.764 552.463 218.863 552.463 230.591V233.369C552.463 241.085 549.529 246.023 544.743 248.801L553.853 279.664H537.177L531.001 252.659ZM530.074 242.936C534.706 242.936 536.25 240.313 536.25 234.449V229.665C536.25 224.264 534.552 222.412 530.074 222.412H527.295V242.936H530.074Z" fill="#00BFFF"/>
		<path d="M554.316 262.381V256.979L570.529 253.893V262.381C570.529 266.547 571.919 269.171 575.161 269.171C578.404 269.171 579.639 266.702 579.639 264.078V261.146C579.639 257.905 579.021 256.208 575.316 254.047L564.353 247.566C557.25 243.399 554.934 238.461 554.934 231.054V227.35C554.934 215.313 564.507 210.221 575.161 210.221C587.514 210.221 595.852 214.696 595.852 228.276V233.214L579.793 236.146V227.967C579.793 224.727 578.713 221.949 575.161 221.949C572.382 221.949 570.838 224.11 570.838 226.579V229.511C570.838 232.288 572.536 234.603 575.161 236.146L585.97 242.628C593.69 247.257 595.852 251.578 595.852 258.677V265.004C595.852 274.263 588.749 281.671 575.007 281.671C562.037 281.362 554.316 273.492 554.316 262.381Z" fill="#00BFFF"/>
		<path d="M600.33 279.664V211.764H616.388V279.664H600.33Z" fill="#00BFFF"/>
		<path d="M660.548 225.19H647.887V279.664H631.983V225.19H619.322V211.764H660.548V225.19Z" fill="#00BFFF"/>
		<path d="M676.453 257.751L661.938 211.764H678.46L683.092 233.369C683.864 236.764 684.173 240.004 684.482 243.554H684.791C685.1 240.004 685.408 236.764 686.026 233.369L690.349 211.764H706.871L692.666 257.751V279.819H676.607V257.751H676.453Z" fill="#00BFFF"/>
		<path d="M760.914 229.819V235.375C760.914 248.029 753.811 254.973 740.686 254.973H735.591V279.819H719.532V211.918H740.377C753.811 211.764 760.759 217.937 760.914 229.819ZM744.392 230.128C744.392 224.727 742.694 222.412 738.525 222.412H735.436V243.862H738.525C742.694 243.862 744.392 241.393 744.392 234.912V230.128Z" fill="#00BFFF"/>
		<path d="M764.928 279.664V211.764H780.986V279.664H764.928Z" fill="#00BFFF"/>
		<path d="M786.7 259.911V231.98C786.7 217.628 794.575 210.066 808.626 210.066C822.059 210.066 829.625 216.548 829.625 229.048V236.764L813.103 239.696V229.356C813.103 224.727 811.405 222.258 808.162 222.258C804.765 222.258 803.067 225.19 803.067 230.745V260.529C803.067 266.084 804.765 269.016 808.162 269.016C811.405 269.016 813.258 266.393 813.258 261.609V250.807L829.471 253.893V261.455C829.471 274.417 821.441 281.208 808.162 281.208C794.266 281.362 786.7 274.263 786.7 259.911Z" fill="#00BFFF"/>
		<path d="M855.256 251.578L851.242 260.529V279.51H835.183V211.61H851.242V241.548L862.359 211.764H878.572L867.146 238.615L879.19 279.819H862.205L855.256 251.578Z" fill="#00BFFF"/>
		<path d="M42.1456 367.318V361.916L58.3584 358.83V367.318C58.3584 371.484 59.7481 374.108 62.9907 374.108C66.2332 374.108 67.4685 371.639 67.4685 369.015V366.083C67.4685 362.842 66.8509 361.145 63.1451 358.984L52.1821 352.503C45.0794 348.336 42.7633 343.398 42.7633 335.991V332.287C42.7633 320.25 52.3365 315.158 62.9907 315.158C75.3433 315.158 83.6813 319.633 83.6813 333.213V338.151L67.6229 341.083V332.904C67.6229 329.664 66.5421 326.886 62.9907 326.886C60.2113 326.886 58.6673 329.046 58.6673 331.516V334.448C58.6673 337.225 60.3657 339.54 62.9907 341.083L73.7992 347.565C81.5196 352.194 83.6813 356.515 83.6813 363.614V369.941C83.6813 379.2 76.5786 386.608 62.8363 386.608C49.866 386.299 42.1456 378.429 42.1456 367.318Z" fill="#00BFFF"/>
		<path d="M112.401 330.127V384.601H96.4972V330.127H83.8357V316.701H125.217V330.127H112.401Z" fill="#00BFFF"/>
		<path d="M127.996 384.601V316.701H144.055V384.601H127.996Z" fill="#00BFFF"/>
		<path d="M171.693 357.596H167.833V384.601H151.929V316.701H171.848C187.289 316.701 193.311 323.8 193.311 335.528V338.306C193.311 346.022 190.377 350.96 185.59 353.738L194.7 384.601H178.024L171.693 357.596ZM170.613 347.873C175.245 347.873 176.789 345.25 176.789 339.386V334.602C176.789 329.201 175.09 327.349 170.613 327.349H167.833V347.873H170.613Z" fill="#00BFFF"/>
		<path d="M195.009 367.318V361.916L211.222 358.83V367.318C211.222 371.484 212.612 374.108 215.854 374.108C219.097 374.108 220.332 371.639 220.332 369.015V366.083C220.332 362.842 219.715 361.145 216.009 358.984L205.046 352.503C197.943 348.336 195.627 343.398 195.627 335.991V332.287C195.627 320.25 205.2 315.158 215.854 315.158C228.207 315.158 236.545 319.633 236.545 333.213V338.151L220.487 341.083V332.904C220.487 329.664 219.406 326.886 215.854 326.886C213.075 326.886 211.531 329.046 211.531 331.516V334.448C211.531 337.225 213.229 339.54 215.854 341.083L226.663 347.565C234.383 352.194 236.545 356.515 236.545 363.614V369.941C236.545 379.2 229.442 386.608 215.7 386.608C202.575 386.299 195.009 378.429 195.009 367.318Z" fill="#00BFFF"/>
		<path d="M253.53 364.848V336.917C253.53 322.565 261.405 315.003 275.456 315.003C288.889 315.003 296.455 321.485 296.455 333.985V341.701L279.934 344.633V334.293C279.934 329.664 278.235 327.195 274.993 327.195C271.596 327.195 269.897 330.127 269.897 335.682V365.466C269.897 371.021 271.596 373.953 274.993 373.953C278.235 373.953 280.088 371.33 280.088 366.546V355.744L296.301 358.83V366.392C296.301 379.354 288.272 386.144 274.993 386.144C260.942 386.299 253.53 379.2 253.53 364.848Z" fill="#00BFFF"/>
		<path d="M300.007 363.923V337.534C300.007 323.182 308.499 315.158 322.241 315.158C335.984 315.158 344.476 323.182 344.476 337.534V363.923C344.476 378.274 335.984 386.299 322.241 386.299C308.499 386.299 300.007 378.274 300.007 363.923ZM327.954 365.929V335.374C327.954 330.127 325.793 327.349 322.241 327.349C318.535 327.349 316.528 330.127 316.528 335.374V365.929C316.528 371.176 318.69 373.953 322.241 373.953C325.947 373.953 327.954 371.176 327.954 365.929Z" fill="#00BFFF"/>
		<path d="M367.174 316.701L376.438 344.17C377.365 347.256 378.291 350.651 379.063 353.583H379.372C379.218 348.954 379.063 344.17 379.063 339.54V316.701H392.806V384.601H377.674L367.019 353.583C365.939 349.88 364.858 346.639 364.086 343.398H363.777C363.931 347.719 364.086 352.04 364.086 356.67V384.601H350.189V316.701H367.174Z" fill="#00BFFF"/>
		<path d="M424.614 330.127V384.601H408.71V330.127H396.048V316.701H437.429V330.127H424.614Z" fill="#00BFFF"/>
		<path d="M459.973 357.596H456.113V384.601H440.054V316.701H459.973C475.414 316.701 481.436 323.8 481.436 335.528V338.306C481.436 346.022 478.502 350.96 473.715 353.738L482.825 384.601H466.149L459.973 357.596ZM458.892 347.873C463.524 347.873 465.068 345.25 465.068 339.386V334.602C465.068 329.201 463.37 327.349 458.892 327.349H456.113V347.873H458.892Z" fill="#00BFFF"/>
		<path d="M484.987 363.923V337.534C484.987 323.182 493.479 315.158 507.222 315.158C520.964 315.158 529.456 323.182 529.456 337.534V363.923C529.456 378.274 520.964 386.299 507.222 386.299C493.479 386.299 484.987 378.274 484.987 363.923ZM512.935 365.929V335.374C512.935 330.127 510.773 327.349 507.222 327.349C503.516 327.349 501.508 330.127 501.508 335.374V365.929C501.508 371.176 503.67 373.953 507.222 373.953C510.927 373.953 512.935 371.176 512.935 365.929Z" fill="#00BFFF"/>
		<path d="M529.92 316.701H546.441L551.537 357.904C552.155 363.305 552.463 367.009 552.618 370.867H553.081C553.235 367.009 553.39 363.151 554.162 357.904L559.257 316.701H575.625L562.963 384.601H542.581L529.92 316.701Z" fill="#00BFFF"/>
		<path d="M612.991 372.719V384.756H579.176V316.855H612.373V328.892H595.08V343.861H611.138V355.744H595.08V372.719H612.991Z" fill="#00BFFF"/>
		<path d="M637.696 357.596H633.836V384.601H617.777V316.701H637.696C653.137 316.701 659.159 323.8 659.159 335.528V338.306C659.159 346.022 656.225 350.96 651.438 353.738L660.548 384.601H643.872L637.696 357.596ZM636.615 347.873C641.247 347.873 642.792 345.25 642.792 339.386V334.602C642.792 329.201 641.093 327.349 636.615 327.349H633.836V347.873H636.615Z" fill="#00BFFF"/>
		<path d="M661.012 367.318V361.916L677.224 358.83V367.318C677.224 371.484 678.614 374.108 681.857 374.108C685.099 374.108 686.335 371.639 686.335 369.015V366.083C686.335 362.842 685.717 361.145 682.011 358.984L671.048 352.503C663.945 348.336 661.629 343.398 661.629 335.991V332.287C661.629 320.25 671.203 315.158 681.857 315.158C694.209 315.158 702.547 319.633 702.547 333.213V338.151L686.489 341.083V332.904C686.489 329.664 685.408 326.886 681.857 326.886C679.077 326.886 677.533 329.046 677.533 331.516V334.448C677.533 337.225 679.232 339.54 681.857 341.083L692.665 347.565C700.386 352.194 702.547 356.515 702.547 363.614V369.941C702.547 379.2 695.445 386.608 681.702 386.608C668.578 386.299 661.012 378.429 661.012 367.318Z" fill="#00BFFF"/>
		<path d="M715.981 362.688L701.467 316.701H717.988L722.62 338.306C723.392 341.701 723.701 344.941 724.01 348.491H724.319C724.628 344.941 724.937 341.701 725.554 338.306L729.878 316.701H746.399L732.194 362.688V384.756H716.135V362.688H715.981Z" fill="#00BFFF"/>
		</g>
		<g id="Vector_11">
		<path d="M56.1971 467.933V504.815H52.1825V467.933H41.5283V464.23H67.0056V467.933H56.1971Z" fill="#00BFFF"/>
		<path d="M65.9246 476.267H69.9392L74.2626 497.717L74.7259 500.803H74.8803C75.0347 499.723 75.1891 498.797 75.3435 497.717L79.9757 476.267H84.1447L88.777 497.717C88.9314 498.643 89.2402 499.723 89.3946 500.803H89.549C89.549 499.723 89.8578 498.643 90.0122 497.717L94.3357 476.267H98.3503L91.7107 504.816H87.5417L82.7551 483.057C82.6007 482.131 82.4463 480.896 82.2919 479.97H82.1374C81.983 480.896 81.8286 482.131 81.6742 483.057L76.8876 504.816H72.7186L65.9246 476.267Z" fill="#00BFFF"/>
		<path d="M103.755 465.001H108.078V471.328H103.755V465.001ZM103.909 476.266H107.769V504.815H103.909V476.266Z" fill="#00BFFF"/>
		<path d="M113.019 476.267H117.342V469.013L121.203 467.47V476.267H127.379V479.353H121.203V497.254C121.203 500.34 122.438 501.575 124.908 501.575C125.835 501.575 126.452 501.42 127.379 501.266V504.816C126.298 505.124 125.372 505.278 123.982 505.278C119.195 505.278 117.342 502.501 117.342 497.871V479.353H113.019V476.267Z" fill="#00BFFF"/>
		<path d="M130.622 476.267H134.945V469.013L138.805 467.47V476.267H144.982V479.353H138.805V497.254C138.805 500.34 140.041 501.575 142.511 501.575C143.438 501.575 144.055 501.42 144.982 501.266V504.816C143.901 505.124 142.974 505.278 141.585 505.278C136.798 505.278 134.945 502.501 134.945 497.871V479.353H130.622V476.267Z" fill="#00BFFF"/>
		<path d="M168.915 491.236H152.239C152.393 498.951 154.555 502.038 159.033 502.038C162.275 502.038 164.746 500.186 165.209 495.865L168.76 496.791C167.988 502.347 164.283 505.433 159.033 505.433C152.702 505.433 148.379 501.421 148.379 490.464C148.379 479.353 152.856 475.495 158.878 475.495C165.209 475.495 168.915 479.662 168.915 488.149V491.236ZM165.055 488.303C165.055 481.359 162.893 478.581 159.033 478.581C155.327 478.581 152.548 480.588 152.393 488.303H165.055Z" fill="#00BFFF"/>
		<path d="M186.98 475.649C187.289 475.649 187.444 475.649 187.907 475.649V479.662C187.598 479.662 187.444 479.662 187.289 479.662C184.819 479.662 183.275 480.588 182.194 482.131C180.341 484.291 180.032 487.686 180.032 490.927V504.816H176.172V476.267H179.878V483.057C180.495 478.89 182.966 475.649 186.98 475.649Z" fill="#00BFFF"/>
		<path d="M190.532 510.217C193.002 508.828 193.311 507.593 193.311 504.97V504.661H190.686V498.489H195.782V504.507C195.782 508.674 194.855 510.68 191.613 512.223L190.532 510.217Z" fill="#00BFFF"/>
		<path d="M215.546 495.711V476.267H219.406V495.556C219.406 500.186 221.413 502.192 224.502 502.192C228.516 502.192 230.832 498.489 230.832 492.933V476.421H234.692V504.97H230.987V499.569C229.906 503.118 227.127 505.587 223.266 505.587C217.553 505.433 215.546 501.421 215.546 495.711Z" fill="#00BFFF"/>
		<path d="M243.493 476.267H247.199V481.976C248.589 477.655 251.214 475.495 255.228 475.495C260.324 475.495 262.949 478.736 262.949 485.217V504.816H259.089V485.68C259.089 481.205 257.39 478.89 253.839 478.89C249.67 478.89 247.508 482.285 247.508 488.921V504.816H243.648V476.267H243.493Z" fill="#00BFFF"/>
		<path d="M268.971 490.464C268.971 480.742 272.677 475.495 278.853 475.495C282.559 475.495 285.338 477.656 286.419 481.668V463.304H290.279V504.661H286.573V498.797C285.184 502.964 282.404 505.433 278.544 505.433C272.522 505.433 268.971 500.34 268.971 490.464ZM286.573 492.779V488.149C286.573 482.439 284.257 478.736 280.243 478.736C275.61 478.736 273.449 482.131 273.449 490.31C273.449 498.643 275.61 502.038 280.243 502.038C284.103 502.192 286.573 498.643 286.573 492.779Z" fill="#00BFFF"/>
		<path d="M317.918 491.236H301.242C301.397 498.951 303.558 502.038 308.036 502.038C311.279 502.038 313.749 500.186 314.212 495.865L317.764 496.791C316.992 502.347 313.286 505.433 308.036 505.433C301.705 505.433 297.382 501.421 297.382 490.464C297.382 479.353 301.86 475.495 307.882 475.495C314.212 475.495 317.918 479.662 317.918 488.149V491.236ZM313.904 488.303C313.904 481.359 311.742 478.581 307.882 478.581C304.176 478.581 301.397 480.588 301.242 488.303H313.904Z" fill="#00BFFF"/>
		<path d="M335.829 475.649C336.138 475.649 336.292 475.649 336.756 475.649V479.662C336.447 479.662 336.292 479.662 336.138 479.662C333.667 479.662 332.123 480.588 331.043 482.131C329.19 484.291 328.881 487.686 328.881 490.927V504.816H325.021V476.267H328.726V483.057C329.344 478.89 331.815 475.649 335.829 475.649Z" fill="#00BFFF"/>
		<path d="M363.16 479.353H356.983V504.816H353.277V479.353H348.8V476.267H353.277V470.711C353.277 465.927 355.902 462.995 360.38 462.995C361.461 462.995 362.388 463.149 363.16 463.304V466.699C362.388 466.544 361.615 466.544 360.998 466.544C358.219 466.544 356.983 467.933 356.983 471.174V476.267H363.16V479.353ZM368.409 465.001H372.733V471.328H368.409V465.001ZM368.718 476.267H372.578V504.816H368.718V476.267Z" fill="#00BFFF"/>
		<path d="M392.343 475.649C392.652 475.649 392.806 475.649 393.269 475.649V479.662C392.96 479.662 392.806 479.662 392.652 479.662C390.181 479.662 388.637 480.588 387.556 482.131C385.703 484.291 385.394 487.686 385.394 490.927V504.816H381.534V476.267H385.24V483.057C385.858 478.89 388.328 475.649 392.343 475.649Z" fill="#00BFFF"/>
		<path d="M416.43 491.236H399.754C399.909 498.951 402.07 502.038 406.548 502.038C409.791 502.038 412.261 500.186 412.724 495.865L416.276 496.791C415.504 502.347 411.798 505.433 406.548 505.433C400.217 505.433 395.894 501.421 395.894 490.464C395.894 479.353 400.372 475.495 406.394 475.495C412.724 475.495 416.43 479.662 416.43 488.149V491.236ZM412.57 488.303C412.57 481.359 410.408 478.581 406.548 478.581C402.842 478.581 400.063 480.588 399.909 488.303H412.57Z" fill="#00BFFF"/>
		<path d="M446.848 479.353H440.672V504.816H436.812V479.353H432.334V476.267H436.812V470.711C436.812 465.927 439.437 462.995 443.915 462.995C444.995 462.995 445.922 463.149 446.694 463.304V466.699C445.922 466.544 445.15 466.544 444.532 466.544C441.753 466.544 440.518 467.933 440.518 471.174V476.267H446.694V479.353H446.848Z" fill="#00BFFF"/>
		<path d="M449.474 490.464C449.474 479.97 453.643 475.495 460.282 475.495C466.922 475.495 471.091 479.97 471.091 490.464C471.091 500.958 466.922 505.433 460.282 505.433C453.643 505.433 449.474 500.958 449.474 490.464ZM467.076 490.464C467.076 481.513 464.297 478.581 460.282 478.581C456.422 478.581 453.643 481.513 453.643 490.464C453.643 499.414 456.422 502.347 460.282 502.347C464.297 502.347 467.076 499.414 467.076 490.464Z" fill="#00BFFF"/>
		<path d="M489.156 475.649C489.465 475.649 489.62 475.649 490.083 475.649V479.662C489.774 479.662 489.62 479.662 489.465 479.662C486.995 479.662 485.451 480.588 484.37 482.131C482.517 484.291 482.208 487.686 482.208 490.927V504.816H478.348V476.267H482.054V483.057C482.671 478.89 485.142 475.649 489.156 475.649Z" fill="#00BFFF"/>
		<path d="M501.509 476.267H505.832V469.013L509.693 467.47V476.267H515.869V479.353H509.693V497.254C509.693 500.34 510.928 501.575 513.398 501.575C514.325 501.575 514.943 501.42 515.869 501.266V504.816C514.788 505.124 513.862 505.278 512.472 505.278C507.685 505.278 505.832 502.501 505.832 497.871V479.353H501.509V476.267Z" fill="#00BFFF"/>
		<path d="M522.045 463.458H525.905V481.822C526.986 477.81 529.92 475.495 533.78 475.495C538.721 475.495 541.346 478.736 541.346 485.217V504.815H537.486V485.526C537.486 481.205 535.788 478.89 532.236 478.89C528.067 478.89 525.905 482.285 525.905 488.921V504.815H522.045V463.458Z" fill="#00BFFF"/>
		<path d="M568.059 491.236H551.383C551.537 498.951 553.699 502.038 558.177 502.038C561.419 502.038 563.89 500.186 564.353 495.865L567.904 496.791C567.132 502.347 563.426 505.433 558.177 505.433C551.846 505.433 547.522 501.421 547.522 490.464C547.522 479.353 552 475.495 558.022 475.495C564.353 475.495 568.059 479.662 568.059 488.149V491.236ZM564.198 488.303C564.198 481.359 562.037 478.581 558.177 478.581C554.471 478.581 551.691 480.588 551.537 488.303H564.198Z" fill="#00BFFF"/>
		<path d="M585.661 495.556L589.521 494.939C589.676 499.723 592.146 502.192 595.698 502.192C598.94 502.192 600.948 500.495 600.948 497.254C600.948 494.476 599.712 492.933 596.47 492.161L592.455 491.236C588.286 490.31 586.124 487.532 586.124 483.365C586.124 478.427 589.83 475.495 595.235 475.495C600.793 475.495 604.499 478.273 604.653 484.754L600.948 485.371C600.639 480.279 598.477 478.581 595.235 478.581C591.992 478.581 590.139 480.279 590.139 483.211C590.139 485.834 591.22 487.378 594.308 487.995L598.477 489.075C603.109 490.155 604.962 492.933 604.962 497.1C604.962 502.038 601.565 505.433 595.698 505.433C589.83 505.433 585.97 502.347 585.661 495.556Z" fill="#00BFFF"/>
		<path d="M607.896 476.267H612.219V469.013L616.079 467.47V476.267H622.256V479.353H616.079V497.254C616.079 500.34 617.315 501.575 619.785 501.575C620.711 501.575 621.329 501.42 622.256 501.266V504.816C621.175 505.124 620.248 505.278 618.859 505.278C614.072 505.278 612.219 502.501 612.219 497.871V479.353H607.896V476.267Z" fill="#00BFFF"/>
		<path d="M639.395 475.649C639.704 475.649 639.858 475.649 640.321 475.649V479.662C640.013 479.662 639.858 479.662 639.704 479.662C637.233 479.662 635.689 480.588 634.608 482.131C632.755 484.291 632.447 487.686 632.447 490.927V504.816H628.586V476.267H632.292V483.057C632.91 478.89 635.38 475.649 639.395 475.649Z" fill="#00BFFF"/>
		<path d="M645.262 465.001H649.586V471.328H645.262V465.001ZM645.571 476.266H649.431V504.815H645.571V476.266Z" fill="#00BFFF"/>
		<path d="M666.571 490.155L662.093 495.556V504.815H658.233V463.458H662.093V490.927L673.365 476.421H677.997L669.196 487.069L678.46 504.97H673.983L666.571 490.155Z" fill="#00BFFF"/>
		<path d="M683.555 465.001H687.879V471.328H683.555V465.001ZM683.864 476.266H687.724V504.815H683.864V476.266Z" fill="#00BFFF"/>
		<path d="M696.371 476.267H700.077V481.976C701.467 477.655 704.092 475.495 708.106 475.495C713.202 475.495 715.827 478.736 715.827 485.217V504.816H711.966V485.68C711.966 481.205 710.268 478.89 706.716 478.89C702.547 478.89 700.386 482.285 700.386 488.921V504.816H696.526V476.267H696.371Z" fill="#00BFFF"/>
		<path d="M738.062 477.501C740.069 479.199 741.15 481.822 741.15 485.217C741.15 491.236 737.907 494.939 731.885 494.939C730.187 494.939 728.797 494.631 727.562 494.013C726.481 494.476 725.709 495.556 725.709 496.791C725.709 498.489 726.944 499.569 729.569 499.877L735.9 500.495C740.686 500.958 743.775 503.735 743.775 508.056C743.775 513.458 739.76 516.544 732.194 516.544C724.937 516.544 721.231 513.457 721.231 508.982C721.231 506.05 722.93 503.735 726.018 502.809C723.702 501.884 722.466 500.186 722.466 498.026C722.466 495.556 724.01 494.013 726.327 493.242C724.01 491.544 722.775 488.766 722.775 485.063C722.775 479.199 726.018 475.341 732.04 475.341C733.893 475.341 735.437 475.649 736.672 476.421C737.444 473.489 739.606 471.637 742.694 471.637C743.157 471.637 743.466 471.637 743.929 471.791V475.032C743.311 474.878 743.003 474.878 742.385 474.878C740.223 475.032 738.834 475.958 738.062 477.501ZM728.643 503.427C728.334 503.427 728.025 503.427 727.871 503.272C725.863 504.198 724.937 505.896 724.937 508.056C724.937 511.76 727.716 513.612 732.503 513.612C737.753 513.612 739.914 511.606 739.914 508.211C739.914 505.279 738.37 503.89 734.973 503.581L728.643 503.427ZM737.444 485.217C737.444 480.588 735.282 478.273 732.04 478.273C728.643 478.273 726.481 480.742 726.481 485.217C726.481 489.847 728.643 492.316 732.04 492.316C735.437 492.316 737.444 489.847 737.444 485.217Z" fill="#00BFFF"/>
		<path d="M765.083 504.815H761.222V463.458H765.083V504.815Z" fill="#00BFFF"/>
		<path d="M771.877 497.562C771.877 494.63 772.958 492.624 774.656 491.235C776.2 490.001 778.516 489.075 782.068 488.458L787.472 487.532V485.526C787.472 480.896 785.928 478.89 782.222 478.89C778.053 478.89 776.509 481.205 776.509 485.526H772.494C772.649 478.273 777.127 475.803 782.222 475.803C788.553 475.803 791.332 478.736 791.332 485.68V496.174C791.332 499.877 791.486 502.655 791.95 504.97H788.09C787.935 503.272 787.626 501.266 787.626 499.569C786.545 503.272 783.612 505.741 779.443 505.741C774.811 505.433 771.877 502.346 771.877 497.562ZM787.472 494.167V490.155L781.913 491.235C777.899 492.007 775.891 493.705 775.891 497.1C775.891 500.495 777.59 502.346 780.832 502.346C784.847 502.346 787.472 499.106 787.472 494.167Z" fill="#00BFFF"/>
		<path d="M797.508 490.464C797.508 480.433 801.06 475.495 808.162 475.495C813.875 475.495 817.427 479.044 817.581 485.834L813.567 486.297C813.412 481.205 811.405 478.736 808.008 478.736C803.993 478.736 801.523 481.822 801.523 490.464C801.523 498.951 803.993 502.038 808.162 502.038C811.405 502.038 813.567 499.569 813.721 494.322L817.736 494.939C817.427 501.729 813.567 505.433 808.162 505.433C801.523 505.433 797.508 500.803 797.508 490.464Z" fill="#00BFFF"/>
		<path d="M833.022 490.155L828.545 495.556V504.815H824.684V463.458H828.545V490.927L839.816 476.421H844.448L835.647 487.069L844.912 504.97H840.434L833.022 490.155Z" fill="#00BFFF"/>
		<path d="M858.963 490.464C858.963 479.97 863.132 475.495 869.771 475.495C876.411 475.495 880.58 479.97 880.58 490.464C880.58 500.958 876.411 505.433 869.771 505.433C863.132 505.433 858.963 500.958 858.963 490.464ZM876.411 490.464C876.411 481.513 873.632 478.581 869.617 478.581C865.757 478.581 862.977 481.513 862.977 490.464C862.977 499.414 865.757 502.347 869.617 502.347C873.632 502.347 876.411 499.414 876.411 490.464Z" fill="#00BFFF"/>
		<path d="M898.182 479.353H892.006V504.816H888.146V479.353H883.668V476.267H888.146V470.711C888.146 465.927 890.771 462.995 895.249 462.995C896.33 462.995 897.256 463.149 898.028 463.304V466.699C897.256 466.544 896.484 466.544 895.866 466.544C893.087 466.544 891.852 467.933 891.852 471.174V476.267H898.028V479.353H898.182Z" fill="#00BFFF"/>
		<path d="M912.851 476.267H916.866L921.189 497.717L921.652 500.803H921.807C921.961 499.723 922.115 498.797 922.27 497.717L926.902 476.267H931.071L935.703 497.717C935.858 498.643 936.166 499.723 936.321 500.803H936.475C936.475 499.723 936.784 498.643 936.938 497.717L941.262 476.267H945.277L938.637 504.816H934.468L929.681 483.057C929.527 482.131 929.373 480.896 929.218 479.97H929.064C928.909 480.896 928.755 482.131 928.6 483.057L923.814 504.816H919.645L912.851 476.267Z" fill="#00BFFF"/>
		<path d="M948.828 490.464C948.828 479.97 952.997 475.495 959.636 475.495C966.276 475.495 970.445 479.97 970.445 490.464C970.445 500.958 966.276 505.433 959.636 505.433C952.842 505.433 948.828 500.958 948.828 490.464ZM966.276 490.464C966.276 481.513 963.496 478.581 959.482 478.581C955.622 478.581 952.842 481.513 952.842 490.464C952.842 499.414 955.622 502.347 959.482 502.347C963.496 502.347 966.276 499.414 966.276 490.464Z" fill="#00BFFF"/>
		<path d="M980.791 481.513C981.872 477.655 984.342 475.495 987.893 475.495C991.445 475.495 993.606 477.501 994.533 481.205C995.923 477.501 998.393 475.495 1001.79 475.495C1006.42 475.495 1008.89 478.581 1008.89 484.291V504.661H1005.03V485.063C1005.03 480.896 1003.49 478.736 1000.4 478.736C996.849 478.736 994.996 481.513 994.996 486.76V504.661H991.136V484.908C991.136 480.896 989.592 478.736 986.504 478.736C982.952 478.736 980.945 481.822 980.945 487.069V504.661H977.085V476.112H980.791V481.513Z" fill="#00BFFF"/>
		<path d="M1035.61 491.236H1018.93C1019.08 498.951 1021.25 502.038 1025.72 502.038C1028.97 502.038 1031.44 500.186 1031.9 495.865L1035.45 496.791C1034.68 502.347 1030.97 505.433 1025.72 505.433C1019.39 505.433 1015.07 501.421 1015.07 490.464C1015.07 479.353 1019.55 475.495 1025.57 475.495C1031.9 475.495 1035.61 479.662 1035.61 488.149V491.236ZM1031.74 488.303C1031.74 481.359 1029.58 478.581 1025.72 478.581C1022.02 478.581 1019.24 480.588 1019.08 488.303H1031.74Z" fill="#00BFFF"/>
		<path d="M1042.55 476.267H1046.26V481.976C1047.65 477.655 1050.27 475.495 1054.29 475.495C1059.38 475.495 1062.01 478.736 1062.01 485.217V504.816H1058.15V485.68C1058.15 481.205 1056.45 478.89 1052.9 478.89C1048.73 478.89 1046.57 482.285 1046.57 488.921V504.816H1042.71V476.267H1042.55Z" fill="#00BFFF"/>
		<path d="M43.2266 567.006C43.2266 564.074 44.3074 562.068 46.0059 560.679C47.55 559.444 49.8661 558.519 53.4175 557.901L58.8218 556.975V554.969C58.8218 550.34 57.2777 548.333 53.5719 548.333C49.4029 548.333 47.8588 550.648 47.8588 554.969H43.8442C43.9986 547.716 48.4764 545.247 53.5719 545.247C59.9026 545.247 62.6819 548.179 62.6819 555.124V565.617C62.6819 569.321 62.8364 572.099 63.2996 574.413H59.4394C59.285 572.716 58.9762 570.71 58.9762 569.012C57.8953 572.716 54.9616 575.185 50.7926 575.185C46.1603 574.876 43.2266 571.79 43.2266 567.006ZM58.9762 563.611V559.599L53.4175 560.679C49.4029 561.451 47.3956 563.148 47.3956 566.543C47.3956 569.938 49.0941 571.79 52.3366 571.79C56.3512 571.79 58.9762 568.549 58.9762 563.611Z" fill="#00BFFF"/>
		<path d="M71.02 545.71H74.7258V551.42C76.1154 547.099 78.7404 544.939 82.755 544.939C87.8504 544.939 90.4753 548.179 90.4753 554.661V574.259H86.6151V555.124C86.6151 550.648 84.9167 548.334 81.3653 548.334C77.1963 548.334 75.0346 551.729 75.0346 558.364V574.259H71.1744V545.71H71.02Z" fill="#00BFFF"/>
		<path d="M96.4973 559.908C96.4973 550.185 100.203 544.939 106.379 544.939C110.085 544.939 112.864 547.099 113.945 551.111V532.747H117.806V574.105H114.1V568.241C112.71 572.407 109.931 574.877 106.071 574.877C100.049 574.877 96.4973 569.784 96.4973 559.908ZM113.945 562.222V557.593C113.945 551.883 111.629 548.179 107.615 548.179C102.982 548.179 100.821 551.574 100.821 559.753C100.821 568.087 102.982 571.481 107.615 571.481C111.629 571.636 113.945 568.086 113.945 562.222Z" fill="#00BFFF"/>
		<path d="M142.974 550.957C144.055 547.099 146.525 544.939 150.077 544.939C153.628 544.939 155.79 546.945 156.716 550.648C158.106 546.945 160.577 544.939 163.974 544.939C168.606 544.939 171.076 548.025 171.076 553.735V574.105H167.216V554.506C167.216 550.34 165.672 548.179 162.584 548.179C159.032 548.179 157.18 550.957 157.18 556.204V574.105H153.319V554.352C153.319 550.34 151.775 548.179 148.687 548.179C145.136 548.179 143.129 551.266 143.129 556.513V574.105H139.268V545.556H142.974V550.957Z" fill="#00BFFF"/>
		<path d="M178.951 534.445H183.275V540.772H178.951V534.445ZM179.106 545.71H182.966V574.259H179.106V545.71Z" fill="#00BFFF"/>
		<path d="M191.767 545.71H195.473V551.42C196.862 547.099 199.487 544.939 203.502 544.939C208.597 544.939 211.222 548.179 211.222 554.661V574.259H207.362V555.124C207.362 550.648 205.664 548.334 202.112 548.334C197.943 548.334 195.782 551.729 195.782 558.364V574.259H191.921V545.71H191.767Z" fill="#00BFFF"/>
		<path d="M217.244 559.908C217.244 549.414 221.413 544.939 228.053 544.939C234.692 544.939 238.861 549.414 238.861 559.908C238.861 570.401 234.692 574.877 228.053 574.877C221.413 574.877 217.244 570.401 217.244 559.908ZM234.847 559.908C234.847 550.957 232.067 548.025 228.053 548.025C224.193 548.025 221.413 550.957 221.413 559.908C221.413 568.858 224.193 571.79 228.053 571.79C232.067 571.79 234.847 568.858 234.847 559.908Z" fill="#00BFFF"/>
		<path d="M256.773 545.093C257.082 545.093 257.236 545.093 257.699 545.093V549.105C257.391 549.105 257.236 549.105 257.082 549.105C254.611 549.105 253.067 550.031 251.986 551.574C250.133 553.735 249.825 557.13 249.825 560.371V574.259H245.964V545.71H249.67V552.5C250.442 548.334 252.913 545.093 256.773 545.093Z" fill="#00BFFF"/>
		<path d="M262.794 534.445H267.118V540.772H262.794V534.445ZM262.949 545.71H266.809V574.259H262.949V545.71Z" fill="#00BFFF"/>
		<path d="M272.059 545.71H276.382V538.457L280.243 536.914V545.71H286.419V548.797H280.243V566.698C280.243 569.784 281.478 571.018 283.948 571.018C284.875 571.018 285.492 570.864 286.419 570.71V574.259C285.338 574.568 284.412 574.722 283.022 574.722C278.235 574.722 276.382 571.944 276.382 567.315V548.797H272.059V545.71Z" fill="#00BFFF"/>
		<path d="M292.132 534.445H296.455V540.772H292.132V534.445ZM292.441 545.71H296.301V574.259H292.441V545.71Z" fill="#00BFFF"/>
		<path d="M323.631 560.679H306.955C307.11 568.395 309.271 571.481 313.749 571.481C316.992 571.481 319.462 569.63 319.926 565.309L323.477 566.235C322.705 571.79 318.999 574.877 313.749 574.877C307.419 574.877 303.095 570.864 303.095 559.908C303.095 548.797 307.573 544.939 313.595 544.939C319.926 544.939 323.631 549.105 323.631 557.593V560.679ZM319.771 557.747C319.771 550.803 317.61 548.025 313.749 548.025C310.044 548.025 307.264 550.031 307.11 557.747H319.771Z" fill="#00BFFF"/>
		<path d="M328.572 565L332.433 564.383C332.587 569.167 335.058 571.636 338.609 571.636C341.852 571.636 343.859 569.938 343.859 566.698C343.859 563.92 342.624 562.377 339.381 561.605L335.366 560.679C331.197 559.753 329.036 556.976 329.036 552.809C329.036 547.871 332.741 544.939 338.146 544.939C343.704 544.939 347.41 547.716 347.565 554.198L343.859 554.815C343.55 549.723 341.388 548.025 338.146 548.025C334.903 548.025 333.05 549.723 333.05 552.655C333.05 555.278 334.131 556.821 337.219 557.438L341.388 558.519C346.021 559.599 347.873 562.377 347.873 566.543C347.873 571.482 344.476 574.877 338.609 574.877C332.741 574.877 328.881 571.79 328.572 565Z" fill="#00BFFF"/>
		<path d="M367.02 534.445H371.343V540.772H367.02V534.445ZM367.328 545.71H371.189V574.259H367.328V545.71Z" fill="#00BFFF"/>
		<path d="M379.835 545.71H383.541V551.42C384.931 547.099 387.556 544.939 391.57 544.939C396.666 544.939 399.291 548.179 399.291 554.661V574.259H395.431V555.124C395.431 550.648 393.732 548.334 390.181 548.334C386.012 548.334 383.85 551.729 383.85 558.364V574.259H379.99V545.71H379.835Z" fill="#00BFFF"/>
		<path d="M419.673 534.445H423.996V540.772H419.673V534.445ZM419.982 545.71H423.842V574.259H419.982V545.71Z" fill="#00BFFF"/>
		<path d="M429.092 545.71H433.415V538.457L437.275 536.914V545.71H443.452V548.797H437.275V566.698C437.275 569.784 438.511 571.018 440.981 571.018C441.908 571.018 442.525 570.864 443.452 570.71V574.259C442.371 574.568 441.444 574.722 440.055 574.722C435.268 574.722 433.415 571.944 433.415 567.315V548.797H429.092V545.71Z" fill="#00BFFF"/>
		<path d="M447.158 565L451.018 564.383C451.172 569.167 453.643 571.636 457.194 571.636C460.437 571.636 462.444 569.938 462.444 566.698C462.444 563.92 461.209 562.377 457.966 561.605L453.951 560.679C449.782 559.753 447.621 556.976 447.621 552.809C447.621 547.871 451.327 544.939 456.731 544.939C462.289 544.939 465.995 547.716 466.15 554.198L462.444 554.815C462.135 549.723 459.973 548.025 456.731 548.025C453.488 548.025 451.635 549.723 451.635 552.655C451.635 555.278 452.716 556.821 455.804 557.438L459.973 558.519C464.606 559.599 466.458 562.377 466.458 566.543C466.458 571.482 463.061 574.877 457.194 574.877C451.327 574.877 447.621 571.79 447.158 565Z" fill="#00BFFF"/>
		<path d="M497.031 545.093C497.34 545.093 497.494 545.093 497.958 545.093V549.105C497.649 549.105 497.494 549.105 497.34 549.105C494.869 549.105 493.325 550.031 492.244 551.574C490.392 553.735 490.083 557.13 490.083 560.371V574.259H486.223V545.71H489.928V552.5C490.546 548.334 493.016 545.093 497.031 545.093Z" fill="#00BFFF"/>
		<path d="M500.428 567.006C500.428 564.074 501.509 562.068 503.208 560.679C504.752 559.444 507.068 558.519 510.619 557.901L516.023 556.975V554.969C516.023 550.34 514.479 548.333 510.773 548.333C506.604 548.333 505.06 550.648 505.06 554.969H501.046C501.2 547.716 505.678 545.247 510.773 545.247C517.104 545.247 519.884 548.179 519.884 555.124V565.617C519.884 569.321 520.038 572.099 520.501 574.413H516.641C516.487 572.716 516.178 570.71 516.178 569.012C515.097 572.716 512.163 575.185 507.994 575.185C503.362 574.876 500.428 571.79 500.428 567.006ZM516.023 563.611V559.599L510.465 560.679C506.45 561.451 504.443 563.148 504.443 566.543C504.443 569.938 506.141 571.79 509.384 571.79C513.398 571.79 516.023 568.549 516.023 563.611Z" fill="#00BFFF"/>
		<path d="M528.067 545.71H531.773V551.42C533.162 547.099 535.787 544.939 539.802 544.939C544.897 544.939 547.522 548.179 547.522 554.661V574.259H543.662V555.124C543.662 550.648 541.963 548.334 538.412 548.334C534.243 548.334 532.081 551.729 532.081 558.364V574.259H528.221V545.71H528.067Z" fill="#00BFFF"/>
		<path d="M564.044 559.599L559.566 565V574.259H555.706V532.902H559.566V560.37L570.838 545.864H575.47L566.669 556.512L575.933 574.413H571.456L564.044 559.599Z" fill="#00BFFF"/>
		<path d="M578.713 565L582.573 564.383C582.728 569.167 585.198 571.636 588.749 571.636C591.992 571.636 593.999 569.938 593.999 566.698C593.999 563.92 592.764 562.377 589.521 561.605L585.507 560.679C581.338 559.753 579.176 556.976 579.176 552.809C579.176 547.871 582.882 544.939 588.286 544.939C593.845 544.939 597.551 547.716 597.705 554.198L593.999 554.815C593.69 549.723 591.529 548.025 588.286 548.025C585.044 548.025 583.191 549.723 583.191 552.655C583.191 555.278 584.272 556.821 587.36 557.438L591.529 558.519C596.161 559.599 598.014 562.377 598.014 566.543C598.014 571.482 594.617 574.877 588.749 574.877C582.882 574.877 579.176 571.79 578.713 565Z" fill="#00BFFF"/>
		<path d="M603.109 579.66C605.58 578.271 605.889 577.037 605.889 574.413V574.105H603.264V567.932H608.359V573.95C608.359 578.117 607.433 580.123 604.19 581.666L603.109 579.66Z" fill="#00BFFF"/>
		<path d="M629.05 532.902H632.91V551.266C633.991 547.253 636.924 544.938 640.785 544.938C645.726 544.938 648.351 548.179 648.351 554.661V574.259H644.49V554.969C644.49 550.648 642.792 548.333 639.241 548.333C635.072 548.333 632.91 551.728 632.91 558.364V574.259H629.05V532.902Z" fill="#00BFFF"/>
		<path d="M654.373 567.006C654.373 564.074 655.454 562.068 657.152 560.679C658.696 559.444 661.012 558.519 664.564 557.901L669.968 556.975V554.969C669.968 550.34 668.424 548.333 664.718 548.333C660.549 548.333 659.005 550.648 659.005 554.969H654.99C655.145 547.716 659.623 545.247 664.718 545.247C671.049 545.247 673.828 548.179 673.828 555.124V565.617C673.828 569.321 673.982 572.099 674.446 574.413H670.586C670.431 572.716 670.122 570.71 670.122 569.012C669.041 572.716 666.108 575.185 661.939 575.185C657.306 574.876 654.373 571.79 654.373 567.006ZM669.968 563.611V559.599L664.409 560.679C660.395 561.451 658.387 563.148 658.387 566.543C658.387 569.938 660.086 571.79 663.328 571.79C667.343 571.79 669.968 568.549 669.968 563.611Z" fill="#00BFFF"/>
		<path d="M680.004 565L683.864 564.383C684.019 569.167 686.489 571.636 690.041 571.636C693.283 571.636 695.29 569.938 695.29 566.698C695.29 563.92 694.055 562.377 690.813 561.605L686.798 560.679C682.629 559.753 680.467 556.976 680.467 552.809C680.467 547.871 684.173 544.939 689.577 544.939C695.136 544.939 698.842 547.716 698.996 554.198L695.29 554.815C694.982 549.723 692.82 548.025 689.577 548.025C686.335 548.025 684.482 549.723 684.482 552.655C684.482 555.278 685.563 556.821 688.651 557.438L692.82 558.519C697.452 559.599 699.305 562.377 699.305 566.543C699.305 571.482 695.908 574.877 690.041 574.877C684.173 574.877 680.313 571.79 680.004 565Z" fill="#00BFFF"/>
		<path d="M716.753 565L720.613 564.383C720.768 569.167 723.238 571.636 726.79 571.636C730.032 571.636 732.039 569.938 732.039 566.698C732.039 563.92 730.804 562.377 727.562 561.605L723.547 560.679C719.378 559.753 717.216 556.976 717.216 552.809C717.216 547.871 720.922 544.939 726.326 544.939C731.885 544.939 735.591 547.716 735.745 554.198L732.039 554.815C731.731 549.723 729.569 548.025 726.326 548.025C723.084 548.025 721.231 549.723 721.231 552.655C721.231 555.278 722.312 556.821 725.4 557.438L729.569 558.519C734.201 559.599 736.054 562.377 736.054 566.543C736.054 571.482 732.657 574.877 726.79 574.877C720.922 574.877 717.062 571.79 716.753 565Z" fill="#00BFFF"/>
		<path d="M761.377 560.679H744.701C744.856 568.395 747.017 571.481 751.495 571.481C754.738 571.481 757.208 569.63 757.671 565.309L761.223 566.235C760.451 571.79 756.745 574.877 751.495 574.877C745.164 574.877 740.841 570.864 740.841 559.908C740.841 548.797 745.319 544.939 751.341 544.939C757.671 544.939 761.377 549.105 761.377 557.593V560.679ZM757.363 557.747C757.363 550.803 755.201 548.025 751.341 548.025C747.635 548.025 744.856 550.031 744.701 557.747H757.363Z" fill="#00BFFF"/>
		<path d="M764.156 545.71H768.48V538.457L772.34 536.914V545.71H778.516V548.797H772.34V566.698C772.34 569.784 773.575 571.018 776.046 571.018C776.972 571.018 777.59 570.864 778.516 570.71V574.259C777.435 574.568 776.509 574.722 775.119 574.722C770.333 574.722 768.48 571.944 768.48 567.315V548.797H764.156V545.71Z" fill="#00BFFF"/>
		<path d="M795.347 559.908C795.347 549.414 799.516 544.939 806.155 544.939C812.795 544.939 816.964 549.414 816.964 559.908C816.964 570.401 812.795 574.877 806.155 574.877C799.361 574.877 795.347 570.401 795.347 559.908ZM812.795 559.908C812.795 550.957 810.016 548.025 806.001 548.025C802.141 548.025 799.361 550.957 799.361 559.908C799.361 568.858 802.141 571.79 806.001 571.79C810.016 571.79 812.795 568.858 812.795 559.908Z" fill="#00BFFF"/>
		<path d="M834.566 548.797H828.39V574.259H824.53V548.797H820.052V545.71H824.53V540.155C824.53 535.371 827.155 532.439 831.633 532.439C832.713 532.439 833.64 532.593 834.412 532.747V536.142C833.64 535.988 832.868 535.988 832.25 535.988C829.471 535.988 828.236 537.377 828.236 540.618V545.71H834.412V548.797H834.566Z" fill="#00BFFF"/>
		<path d="M852.168 548.797H845.992V574.259H842.132V548.797H837.654V545.71H842.132V540.155C842.132 535.371 844.757 532.439 849.235 532.439C850.316 532.439 851.242 532.593 852.014 532.747V536.142C851.242 535.988 850.47 535.988 849.852 535.988C847.073 535.988 845.838 537.377 845.838 540.618V545.71H852.014V548.797H852.168Z" fill="#00BFFF"/>
		<path d="M868.227 567.006C868.227 564.074 869.308 562.068 871.007 560.679C872.551 559.444 874.867 558.519 878.418 557.901L883.823 556.975V554.969C883.823 550.34 882.279 548.333 878.573 548.333C874.404 548.333 872.86 550.648 872.86 554.969H868.999C869.154 547.716 873.632 545.247 878.727 545.247C885.058 545.247 887.837 548.179 887.837 555.124V565.617C887.837 569.321 887.992 572.099 888.455 574.413H884.595C884.44 572.716 884.131 570.71 884.131 569.012C883.051 572.716 880.117 575.185 875.948 575.185C871.161 574.876 868.227 571.79 868.227 567.006ZM883.977 563.611V559.599L878.418 560.679C874.404 561.451 872.396 563.148 872.396 566.543C872.396 569.938 874.095 571.79 877.338 571.79C881.352 571.79 883.977 568.549 883.977 563.611Z" fill="#00BFFF"/>
		<path d="M908.528 545.71H912.233V551.42C913.623 547.099 916.248 544.939 920.263 544.939C925.358 544.939 927.983 548.179 927.983 554.661V574.259H924.123V555.124C924.123 550.648 922.424 548.334 918.873 548.334C914.704 548.334 912.542 551.729 912.542 558.364V574.259H908.682V545.71H908.528Z" fill="#00BFFF"/>
		<path d="M954.695 560.679H938.019C938.174 568.395 940.335 571.481 944.813 571.481C948.056 571.481 950.526 569.63 950.99 565.309L954.541 566.235C953.769 571.79 950.063 574.877 944.813 574.877C938.482 574.877 934.159 570.864 934.159 559.908C934.159 548.797 938.637 544.939 944.659 544.939C950.99 544.939 954.695 549.105 954.695 557.593V560.679ZM950.681 557.747C950.681 550.803 948.519 548.025 944.659 548.025C940.953 548.025 938.174 550.031 938.019 557.747H950.681Z" fill="#00BFFF"/>
		<path d="M958.247 545.71H962.262L966.585 567.161L967.048 570.247H967.203C967.357 569.167 967.511 568.241 967.666 567.161L972.298 545.71H976.467L981.099 567.161C981.254 568.086 981.563 569.167 981.717 570.247H981.871C981.871 569.167 982.18 568.086 982.335 567.161L986.658 545.71H990.673L984.033 574.259H979.864L975.077 552.5C974.923 551.574 974.769 550.34 974.614 549.414H974.46C974.305 550.34 974.151 551.574 973.997 552.5L969.21 574.259H965.041L958.247 545.71Z" fill="#00BFFF"/>
		<path d="M43.5355 629.351C43.5355 619.32 47.0869 614.382 54.1896 614.382C59.9027 614.382 63.4541 617.932 63.6085 624.722L59.5939 625.185C59.4395 620.092 57.4322 617.623 54.0352 617.623C50.0206 617.623 47.5501 620.709 47.5501 629.351C47.5501 637.839 50.0206 640.925 54.1896 640.925C57.4322 640.925 59.5939 638.456 59.7483 633.209L63.7629 633.826C63.4541 640.616 59.5939 644.32 54.1896 644.32C47.3957 644.32 43.5355 639.691 43.5355 629.351Z" fill="#00BFFF"/>
		<path d="M68.5497 629.351C68.5497 618.857 72.7187 614.382 79.3582 614.382C85.9977 614.382 90.1667 618.857 90.1667 629.351C90.1667 639.845 85.9977 644.32 79.3582 644.32C72.7187 644.32 68.5497 639.845 68.5497 629.351ZM86.1521 629.351C86.1521 620.401 83.3728 617.469 79.3582 617.469C75.498 617.469 72.7187 620.401 72.7187 629.351C72.7187 638.302 75.498 641.234 79.3582 641.234C83.2184 641.234 86.1521 638.302 86.1521 629.351Z" fill="#00BFFF"/>
		<path d="M96.9609 615.154H100.667V620.864C102.056 616.543 104.681 614.382 108.696 614.382C113.791 614.382 116.416 617.623 116.416 624.104V643.703H112.402V624.567C112.402 620.092 110.703 617.777 107.152 617.777C102.983 617.777 100.821 621.172 100.821 627.808V643.703H96.9609V615.154Z" fill="#00BFFF"/>
		<path d="M120.43 615.154H124.754V607.901L128.614 606.358V615.154H134.79V618.24H128.614V636.141C128.614 639.228 129.849 640.462 132.32 640.462C133.246 640.462 133.864 640.308 134.79 640.153V643.703C133.71 644.011 132.783 644.166 131.393 644.166C126.607 644.166 124.754 641.388 124.754 636.758V618.24H120.43V615.154Z" fill="#00BFFF"/>
		<path d="M151.776 614.537C152.084 614.537 152.239 614.537 152.702 614.537V618.549C152.393 618.549 152.239 618.549 152.084 618.549C149.614 618.549 148.07 619.475 146.989 621.018C145.136 623.178 144.827 626.573 144.827 629.814V643.703H140.967V615.154H144.673V621.944C145.291 617.777 147.761 614.537 151.776 614.537Z" fill="#00BFFF"/>
		<path d="M155.327 629.351C155.327 618.857 159.496 614.382 166.135 614.382C172.775 614.382 176.944 618.857 176.944 629.351C176.944 639.845 172.775 644.32 166.135 644.32C159.496 644.32 155.327 639.845 155.327 629.351ZM172.929 629.351C172.929 620.401 170.15 617.469 166.135 617.469C162.275 617.469 159.496 620.401 159.496 629.351C159.496 638.302 162.275 641.234 166.135 641.234C170.15 641.234 172.929 638.302 172.929 629.351Z" fill="#00BFFF"/>
		<path d="M179.414 615.154H183.583L189.142 635.37C189.605 636.913 189.76 638.302 190.068 639.536H190.223C190.377 638.302 190.686 636.913 191.149 635.37L196.708 615.154H200.877L192.385 643.703H188.061L179.414 615.154Z" fill="#00BFFF"/>
		<path d="M223.73 630.123H207.053C207.208 637.839 209.37 640.925 213.847 640.925C217.09 640.925 219.561 639.073 220.024 634.752L223.575 635.678C222.803 641.234 219.097 644.32 213.847 644.32C207.517 644.32 203.193 640.308 203.193 629.351C203.193 618.24 207.671 614.382 213.693 614.382C220.024 614.382 223.73 618.549 223.73 627.036V630.123ZM219.869 627.191C219.869 620.246 217.708 617.469 213.847 617.469C210.142 617.469 207.362 619.475 207.208 627.191H219.869Z" fill="#00BFFF"/>
		<path d="M241.795 614.537C242.104 614.537 242.258 614.537 242.722 614.537V618.549C242.413 618.549 242.258 618.549 242.104 618.549C239.634 618.549 238.089 619.475 237.009 621.018C235.156 623.178 234.847 626.573 234.847 629.814V643.703H230.987V615.154H234.692V621.944C235.31 617.777 237.781 614.537 241.795 614.537Z" fill="#00BFFF"/>
		<path d="M245.655 634.444L249.516 633.826C249.67 638.61 252.141 641.079 255.692 641.079C258.934 641.079 260.942 639.382 260.942 636.141C260.942 633.363 259.707 631.82 256.464 631.049L252.449 630.123C248.28 629.197 246.119 626.419 246.119 622.252C246.119 617.314 249.824 614.382 255.229 614.382C260.787 614.382 264.493 617.16 264.648 623.641L260.942 624.259C260.633 619.166 258.471 617.469 255.229 617.469C251.986 617.469 250.133 619.166 250.133 622.098C250.133 624.722 251.214 626.265 254.302 626.882L258.471 627.962C263.103 629.043 264.956 631.82 264.956 635.987C264.956 640.925 261.559 644.32 255.692 644.32C249.824 644.32 245.964 641.234 245.655 634.444Z" fill="#00BFFF"/>
		<path d="M268.662 654.968V651.419C269.279 651.573 269.897 651.573 270.206 651.573C273.294 651.573 274.838 649.721 275.919 646.172L276.537 643.703L267.118 615.154H271.441L277.463 635.678C277.926 637.067 278.081 638.302 278.389 639.536H278.544C278.698 638.302 279.007 637.067 279.47 635.833L285.029 615.154H289.044L279.779 646.481C277.772 652.962 274.993 655.277 270.669 655.277C270.206 655.122 269.434 655.122 268.662 654.968Z" fill="#00BFFF"/>
		<path d="M309.425 637.993L308.962 643.703H305.72V602.345H309.58V621.172C310.815 616.851 313.749 614.536 317.609 614.536C323.631 614.536 327.028 619.32 327.028 629.505C327.028 639.382 323.322 644.474 316.991 644.474C313.44 644.32 310.506 641.851 309.425 637.993ZM322.705 629.351C322.705 621.326 320.543 617.777 316.219 617.777C312.05 617.777 309.425 621.481 309.425 627.036V631.82C309.425 637.53 312.05 641.079 316.219 641.079C320.543 641.079 322.705 637.53 322.705 629.351Z" fill="#00BFFF"/>
		<path d="M330.889 654.968V651.419C331.506 651.573 332.124 651.573 332.433 651.573C335.521 651.573 337.065 649.721 338.146 646.172L338.763 643.703L329.345 615.154H333.668L339.69 635.678C340.153 637.067 340.307 638.302 340.616 639.536H340.771C340.925 638.302 341.234 637.067 341.697 635.833L347.256 615.154H351.27L342.006 646.481C339.999 652.962 337.219 655.277 332.896 655.277C332.433 655.122 331.661 655.122 330.889 654.968Z" fill="#00BFFF"/>
		<path d="M367.946 602.345H371.807V620.709C372.888 616.697 375.821 614.382 379.681 614.382C384.622 614.382 387.247 617.623 387.247 624.104V643.703H383.387V624.413C383.387 620.092 381.689 617.777 378.137 617.777C373.968 617.777 371.807 621.172 371.807 627.808V643.703H367.946V602.345Z" fill="#00BFFF"/>
		<path d="M395.122 603.888H399.445V610.215H395.122V603.888ZM395.276 615.154H399.137V643.703H395.276V615.154Z" fill="#00BFFF"/>
		<path d="M419.055 614.537C419.364 614.537 419.518 614.537 419.982 614.537V618.549C419.673 618.549 419.518 618.549 419.364 618.549C416.893 618.549 415.349 619.475 414.269 621.018C412.416 623.178 412.107 626.573 412.107 629.814V643.703H408.247V615.154H411.952V621.944C412.57 617.777 415.041 614.537 419.055 614.537Z" fill="#00BFFF"/>
		<path d="M424.923 603.888H429.246V610.215H424.923V603.888ZM425.077 615.154H428.937V643.703H425.077V615.154Z" fill="#00BFFF"/>
		<path d="M437.738 615.154H441.444V620.864C442.834 616.543 445.459 614.382 449.473 614.382C454.569 614.382 457.194 617.623 457.194 624.104V643.703H453.333V624.567C453.333 620.092 451.635 617.777 448.084 617.777C443.915 617.777 441.753 621.172 441.753 627.808V643.703H437.893V615.154H437.738Z" fill="#00BFFF"/>
		<path d="M479.429 616.388C481.436 618.086 482.517 620.709 482.517 624.104C482.517 630.123 479.274 633.826 473.252 633.826C471.554 633.826 470.164 633.518 468.929 632.9C467.848 633.363 467.076 634.444 467.076 635.678C467.076 637.376 468.311 638.456 470.936 638.765L477.267 639.382C482.054 639.845 485.142 642.623 485.142 646.943C485.142 652.345 481.127 655.431 473.561 655.431C466.304 655.431 462.598 652.345 462.598 647.869C462.598 644.937 464.297 642.623 467.385 641.697C465.069 640.771 463.834 639.073 463.834 636.913C463.834 634.444 465.378 632.9 467.694 632.129C465.378 630.431 464.142 627.654 464.142 623.95C464.142 618.086 467.385 614.228 473.407 614.228C475.26 614.228 476.804 614.537 478.039 615.308C478.811 612.376 480.973 610.524 484.061 610.524C484.524 610.524 484.833 610.524 485.296 610.679V613.919C484.679 613.765 484.37 613.765 483.752 613.765C481.59 613.919 480.201 614.845 479.429 616.388ZM470.01 642.314C469.701 642.314 469.392 642.314 469.238 642.16C467.231 643.086 466.304 644.783 466.304 646.943C466.304 650.647 469.083 652.499 473.87 652.499C479.12 652.499 481.282 650.493 481.282 647.098C481.282 644.166 479.738 642.777 476.341 642.468L470.01 642.314ZM478.657 624.104C478.657 619.475 476.495 617.16 473.252 617.16C469.855 617.16 467.694 619.629 467.694 624.104C467.694 628.734 469.855 631.203 473.252 631.203C476.495 631.203 478.657 628.734 478.657 624.104Z" fill="#00BFFF"/>
		<path d="M500.273 636.45C500.273 633.518 501.354 631.511 503.053 630.123C504.597 628.888 506.913 627.962 510.464 627.345L515.869 626.419V624.413C515.869 619.783 514.325 617.777 510.619 617.777C506.45 617.777 504.906 620.092 504.906 624.413H500.891C501.045 617.16 505.523 614.691 510.619 614.691C516.949 614.691 519.729 617.623 519.729 624.567V635.061C519.729 638.764 519.883 641.542 520.346 643.857H516.486C516.332 642.16 516.023 640.153 516.023 638.456C514.942 642.159 512.008 644.629 507.839 644.629C503.207 644.32 500.273 641.234 500.273 636.45ZM515.869 633.055V629.042L510.31 630.123C506.295 630.894 504.288 632.592 504.288 635.987C504.288 639.382 505.986 641.234 509.229 641.234C513.244 641.234 515.869 637.993 515.869 633.055Z" fill="#00BFFF"/>
		<path d="M537.023 615.154H541.038L545.361 636.604L545.824 639.691H545.979C546.133 638.61 546.287 637.684 546.442 636.604L551.074 615.154H555.243L559.875 636.604C560.03 637.53 560.339 638.61 560.493 639.691H560.647C560.647 638.61 560.956 637.53 561.111 636.604L565.434 615.154H569.449L562.809 643.703H558.64L553.853 621.944C553.699 621.018 553.545 619.783 553.39 618.857H553.236C553.081 619.783 552.927 621.018 552.773 621.944L547.986 643.703H543.817L537.023 615.154Z" fill="#00BFFF"/>
		<path d="M575.316 602.345H579.176V620.709C580.257 616.697 583.191 614.382 587.051 614.382C591.992 614.382 594.617 617.623 594.617 624.104V643.703H590.757V624.413C590.757 620.092 589.058 617.777 585.507 617.777C581.338 617.777 579.176 621.172 579.176 627.808V643.703H575.316V602.345Z" fill="#00BFFF"/>
		<path d="M602.491 603.888H606.815V610.215H602.491V603.888ZM602.8 615.154H606.66V643.703H602.8V615.154Z" fill="#00BFFF"/>
		<path d="M611.911 615.154H616.234V607.901L620.094 606.358V615.154H626.271V618.24H620.094V636.141C620.094 639.228 621.329 640.462 623.8 640.462C624.726 640.462 625.344 640.308 626.271 640.153V643.703C625.19 644.011 624.263 644.166 622.874 644.166C618.087 644.166 616.234 641.388 616.234 636.758V618.24H611.911V615.154Z" fill="#00BFFF"/>
		<path d="M650.204 630.123H633.528C633.682 637.839 635.844 640.925 640.322 640.925C643.564 640.925 646.035 639.073 646.498 634.752L650.049 635.678C649.277 641.234 645.571 644.32 640.322 644.32C633.991 644.32 629.667 640.308 629.667 629.351C629.667 618.24 634.145 614.382 640.167 614.382C646.498 614.382 650.204 618.549 650.204 627.036V630.123ZM646.189 627.191C646.189 620.246 644.027 617.469 640.167 617.469C636.461 617.469 633.682 619.475 633.528 627.191H646.189Z" fill="#00BFFF"/>
		<path d="M673.365 620.401C674.445 616.543 676.916 614.382 680.467 614.382C684.019 614.382 686.18 616.388 687.107 620.092C688.497 616.388 690.967 614.382 694.364 614.382C698.996 614.382 701.467 617.469 701.467 623.178V643.549H697.607V623.95C697.607 619.783 696.063 617.623 692.974 617.623C689.423 617.623 687.57 620.401 687.57 625.647V643.549H683.71V623.796C683.71 619.783 682.166 617.623 679.078 617.623C675.526 617.623 673.519 620.709 673.519 625.956V643.549H669.659V614.999H673.365V620.401Z" fill="#00BFFF"/>
		<path d="M707.489 636.45C707.489 633.518 708.569 631.511 710.268 630.123C711.812 628.888 714.128 627.962 717.68 627.345L723.084 626.419V624.413C723.084 619.783 721.54 617.777 717.834 617.777C713.665 617.777 712.121 620.092 712.121 624.413H708.106C708.261 617.16 712.738 614.691 717.834 614.691C724.165 614.691 726.944 617.623 726.944 624.567V635.061C726.944 638.764 727.098 641.542 727.562 643.857H723.701C723.547 642.16 723.238 640.153 723.238 638.456C722.157 642.159 719.224 644.629 715.055 644.629C710.422 644.32 707.489 641.234 707.489 636.45ZM723.084 633.055V629.042L717.525 630.123C713.51 630.894 711.503 632.592 711.503 635.987C711.503 639.382 713.202 641.234 716.444 641.234C720.459 641.234 723.084 637.993 723.084 633.055Z" fill="#00BFFF"/>
		<path d="M735.128 615.154H738.834V620.864C740.223 616.543 742.848 614.382 746.863 614.382C751.958 614.382 754.583 617.623 754.583 624.104V643.703H750.723V624.567C750.723 620.092 749.025 617.777 745.473 617.777C741.304 617.777 739.142 621.172 739.142 627.808V643.703H735.282V615.154H735.128Z" fill="#00BFFF"/>
		<path d="M771.105 615.154H775.428V607.901L779.288 606.358V615.154H785.465V618.24H779.288V636.141C779.288 639.228 780.524 640.462 782.994 640.462C783.92 640.462 784.538 640.308 785.465 640.153V643.703C784.384 644.011 783.457 644.166 782.068 644.166C777.281 644.166 775.428 641.388 775.428 636.758V618.24H771.105V615.154Z" fill="#00BFFF"/>
		<path d="M788.862 629.351C788.862 618.857 793.031 614.382 799.67 614.382C806.31 614.382 810.479 618.857 810.479 629.351C810.479 639.845 806.31 644.32 799.67 644.32C793.031 644.32 788.862 639.845 788.862 629.351ZM806.31 629.351C806.31 620.401 803.53 617.469 799.516 617.469C795.656 617.469 792.876 620.401 792.876 629.351C792.876 638.302 795.656 641.234 799.516 641.234C803.53 641.234 806.31 638.302 806.31 629.351Z" fill="#00BFFF"/>
		<path d="M834.103 643.703H830.243V602.345H834.103V643.703Z" fill="#00BFFF"/>
		<path d="M861.588 630.123H844.912C845.066 637.839 847.228 640.925 851.705 640.925C854.948 640.925 857.419 639.073 857.882 634.752L861.433 635.678C860.661 641.234 856.955 644.32 851.705 644.32C845.375 644.32 841.051 640.308 841.051 629.351C841.051 618.24 845.529 614.382 851.551 614.382C857.882 614.382 861.588 618.549 861.588 627.036V630.123ZM857.573 627.191C857.573 620.246 855.411 617.469 851.551 617.469C847.845 617.469 845.066 619.475 844.912 627.191H857.573Z" fill="#00BFFF"/>
		<path d="M866.374 636.45C866.374 633.518 867.455 631.511 869.154 630.123C870.698 628.888 873.014 627.962 876.565 627.345L881.97 626.419V624.413C881.97 619.783 880.425 617.777 876.72 617.777C872.551 617.777 871.007 620.092 871.007 624.413H866.992C867.147 617.16 871.624 614.691 876.72 614.691C883.05 614.691 885.83 617.623 885.83 624.567V635.061C885.83 638.764 885.984 641.542 886.447 643.857H882.587C882.433 642.16 882.124 640.153 882.124 638.456C881.043 642.159 878.109 644.629 873.94 644.629C869.154 644.32 866.374 641.234 866.374 636.45ZM881.97 633.055V629.042L876.411 630.123C872.396 630.894 870.389 632.592 870.389 635.987C870.389 639.382 872.088 641.234 875.33 641.234C879.345 641.234 881.97 637.993 881.97 633.055Z" fill="#00BFFF"/>
		<path d="M892.006 629.351C892.006 619.629 895.712 614.382 901.888 614.382C905.594 614.382 908.373 616.543 909.454 620.555V602.191H913.314V643.549H909.608V637.684C908.219 641.851 905.439 644.32 901.579 644.32C895.557 644.32 892.006 639.228 892.006 629.351ZM909.454 631.666V627.036C909.454 621.327 907.138 617.623 903.123 617.623C898.491 617.623 896.329 621.018 896.329 629.197C896.329 637.53 898.491 640.925 903.123 640.925C907.138 641.079 909.454 637.53 909.454 631.666Z" fill="#00BFFF"/>
		<path d="M934.623 603.888H938.946V610.215H934.623V603.888ZM934.932 615.154H938.792V643.703H934.932V615.154Z" fill="#00BFFF"/>
		<path d="M943.887 615.154H948.211V607.901L952.071 606.358V615.154H958.247V618.24H952.071V636.141C952.071 639.228 953.306 640.462 955.777 640.462C956.703 640.462 957.321 640.308 958.247 640.153V643.703C957.166 644.011 956.24 644.166 954.85 644.166C950.063 644.166 948.211 641.388 948.211 636.758V618.24H943.887V615.154Z" fill="#00BFFF"/>
		<path d="M962.107 634.444L965.967 633.826C966.122 638.61 968.592 641.079 972.144 641.079C975.386 641.079 977.394 639.382 977.394 636.141C977.394 633.363 976.158 631.82 972.916 631.049L968.901 630.123C964.732 629.197 962.57 626.419 962.57 622.252C962.57 617.314 966.276 614.382 971.68 614.382C977.239 614.382 980.945 617.16 981.099 623.641L977.394 624.259C977.085 619.166 974.923 617.469 971.68 617.469C968.438 617.469 966.585 619.166 966.585 622.098C966.585 624.722 967.666 626.265 970.754 626.882L974.923 627.962C979.555 629.043 981.408 631.82 981.408 635.987C981.408 640.925 978.011 644.32 972.144 644.32C966.276 644.32 962.416 641.234 962.107 634.444Z" fill="#00BFFF"/>
		<path d="M999.01 629.351C999.01 619.629 1002.72 614.382 1008.89 614.382C1012.6 614.382 1015.38 616.543 1016.46 620.555V602.191H1020.32V643.549H1016.61V637.684C1015.22 641.851 1012.44 644.32 1008.58 644.32C1002.41 644.32 999.01 639.228 999.01 629.351ZM1016.46 631.666V627.036C1016.46 621.327 1014.14 617.623 1010.13 617.623C1005.5 617.623 1003.33 621.018 1003.33 629.197C1003.33 637.53 1005.5 640.925 1010.13 640.925C1013.99 641.079 1016.46 637.53 1016.46 631.666Z" fill="#00BFFF"/>
		<path d="M1028.97 603.888H1033.29V610.215H1028.97V603.888ZM1029.12 615.154H1032.98V643.703H1029.12V615.154Z" fill="#00BFFF"/>
		<path d="M1053.98 625.956V629.66H1039.77V625.956H1053.98Z" fill="#00BFFF"/>
		<path d="M41.5283 684.597H45.6973L51.256 704.813C51.7192 706.356 51.8736 707.745 52.1825 708.98H52.3369C52.4913 707.745 52.8001 706.356 53.2633 704.813L58.822 684.597H62.991L54.4986 713.146H50.3296L41.5283 684.597Z" fill="#00BFFF"/>
		<path d="M85.9977 699.566H69.3217C69.4761 707.282 71.6378 710.369 76.1157 710.369C79.3582 710.369 81.8287 708.517 82.292 704.196L85.8433 705.122C85.0713 710.677 81.3655 713.764 76.1157 713.764C69.7849 713.764 65.4615 709.751 65.4615 698.795C65.4615 687.684 69.9393 683.826 75.9612 683.826C82.292 683.826 85.9977 687.992 85.9977 696.48V699.566ZM81.9831 696.634C81.9831 689.69 79.8214 686.912 75.9612 686.912C72.2555 686.912 69.4761 688.918 69.3217 696.634H81.9831Z" fill="#00BFFF"/>
		<path d="M103.909 683.98C104.218 683.98 104.372 683.98 104.836 683.98V687.992C104.527 687.992 104.372 687.992 104.218 687.992C101.748 687.992 100.203 688.918 99.1226 690.462C97.2697 692.622 96.9609 696.017 96.9609 699.258V713.146H93.1007V684.597H96.8065V691.388C97.5785 687.221 99.8947 683.98 103.909 683.98Z" fill="#00BFFF"/>
		<path d="M107.924 703.887L111.784 703.27C111.938 708.054 114.409 710.523 117.96 710.523C121.203 710.523 123.21 708.826 123.21 705.585C123.21 702.807 121.975 701.264 118.732 700.492L114.718 699.566C110.549 698.64 108.387 695.863 108.387 691.696C108.387 686.758 112.093 683.826 117.497 683.826C123.056 683.826 126.761 686.603 126.916 693.085L123.21 693.702C122.901 688.61 120.74 686.912 117.497 686.912C114.254 686.912 112.401 688.61 112.401 691.542C112.401 694.165 113.482 695.708 116.57 696.326L120.739 697.406C125.372 698.486 127.225 701.264 127.225 705.43C127.225 710.369 123.828 713.764 117.96 713.764C112.093 713.764 108.232 710.677 107.924 703.887Z" fill="#00BFFF"/>
		<path d="M133.555 673.332H137.879V679.659H133.555V673.332ZM133.864 684.597H137.724V713.146H133.864V684.597Z" fill="#00BFFF"/>
		<path d="M142.974 684.597H147.298V677.344L151.158 675.801V684.597H157.334V687.684H151.158V705.585C151.158 708.671 152.393 709.906 154.864 709.906C155.79 709.906 156.408 709.751 157.334 709.597V713.146C156.253 713.455 155.327 713.609 153.937 713.609C149.151 713.609 147.298 710.832 147.298 706.202V687.684H142.974V684.597Z" fill="#00BFFF"/>
		<path d="M161.657 724.412V720.862C162.275 721.017 162.893 721.017 163.201 721.017C166.29 721.017 167.834 719.165 168.915 715.616L169.532 713.146L160.113 684.597H164.437L170.459 705.122C170.922 706.511 171.076 707.745 171.385 708.98H171.54C171.694 707.745 172.003 706.511 172.466 705.276L178.025 684.597H182.039L172.775 715.924C170.767 722.406 167.988 724.72 163.665 724.72C163.201 724.566 162.584 724.566 161.657 724.412Z" fill="#00BFFF"/>
		<path d="M217.244 699.566H200.568C200.723 707.282 202.884 710.369 207.362 710.369C210.605 710.369 213.075 708.517 213.539 704.196L217.09 705.122C216.318 710.677 212.612 713.764 207.362 713.764C201.031 713.764 196.708 709.751 196.708 698.795C196.708 687.684 201.186 683.826 207.208 683.826C213.539 683.826 217.244 687.992 217.244 696.48V699.566ZM213.384 696.634C213.384 689.69 211.222 686.912 207.362 686.912C203.656 686.912 200.877 688.918 200.723 696.634H213.384Z" fill="#00BFFF"/>
		<path d="M234.847 687.684H228.671V713.146H224.811V687.684H220.487V684.597H224.965V679.042C224.965 674.258 227.59 671.326 232.068 671.326C233.149 671.326 234.075 671.48 234.847 671.635V675.03C234.075 674.875 233.303 674.875 232.685 674.875C229.906 674.875 228.671 676.264 228.671 679.505V684.597H234.847V687.684Z" fill="#00BFFF"/>
		<path d="M252.604 687.684H246.427V713.146H242.567V687.684H238.089V684.597H242.567V679.042C242.567 674.258 245.192 671.326 249.67 671.326C250.751 671.326 251.677 671.48 252.449 671.635V675.03C251.677 674.875 250.905 674.875 250.287 674.875C247.508 674.875 246.273 676.264 246.273 679.505V684.597H252.449V687.684H252.604Z" fill="#00BFFF"/>
		<path d="M255.229 698.795C255.229 688.301 259.398 683.826 266.037 683.826C272.677 683.826 276.846 688.301 276.846 698.795C276.846 709.288 272.677 713.764 266.037 713.764C259.243 713.764 255.229 709.288 255.229 698.795ZM272.677 698.795C272.677 689.844 269.898 686.912 265.883 686.912C262.023 686.912 259.243 689.844 259.243 698.795C259.243 707.745 262.023 710.677 265.883 710.677C269.898 710.677 272.677 707.745 272.677 698.795Z" fill="#00BFFF"/>
		<path d="M294.757 683.98C295.066 683.98 295.22 683.98 295.683 683.98V687.992C295.375 687.992 295.22 687.992 295.066 687.992C292.595 687.992 291.051 688.918 289.97 690.462C288.117 692.622 287.809 696.017 287.809 699.258V713.146H283.948V684.597H287.654V691.388C288.272 687.221 290.742 683.98 294.757 683.98Z" fill="#00BFFF"/>
		<path d="M298.771 684.597H303.095V677.344L306.955 675.801V684.597H313.131V687.684H306.955V705.585C306.955 708.671 308.19 709.906 310.661 709.906C311.587 709.906 312.205 709.751 313.131 709.597V713.146C312.05 713.455 311.124 713.609 309.734 713.609C304.948 713.609 303.095 710.832 303.095 706.202V687.684H298.771V684.597Z" fill="#00BFFF"/>
		<path d="M316.992 703.887L320.852 703.27C321.006 708.054 323.477 710.523 327.028 710.523C330.271 710.523 332.278 708.826 332.278 705.585C332.278 702.807 331.043 701.264 327.8 700.492L323.786 699.566C319.617 698.64 317.455 695.863 317.455 691.696C317.455 686.758 321.161 683.826 326.565 683.826C332.124 683.826 335.83 686.603 335.984 693.085L332.278 693.702C331.969 688.61 329.808 686.912 326.565 686.912C323.323 686.912 321.47 688.61 321.47 691.542C321.47 694.165 322.551 695.708 325.639 696.326L329.808 697.406C334.44 698.486 336.293 701.264 336.293 705.43C336.293 710.369 332.896 713.764 327.028 713.764C321.161 713.764 317.301 710.677 316.992 703.887Z" fill="#00BFFF"/>
		<path d="M346.484 713.146H341.388V706.974H346.484V713.146Z" fill="#00BFFF"/>
		</g>
		<g id="Vector_12">
		<path d="M48.3228 799.257C47.3963 800.954 45.0802 802.034 43.0729 802.034H42.1465V800.028H42.9185C45.6979 800.028 48.1684 798.176 48.786 794.936H50.6389V826.108H48.4772V799.257H48.3228Z" fill="#00BFFF"/>
		<path d="M57.5873 817.158L59.9034 817.003C59.9034 822.25 62.3739 824.874 66.2341 824.874C70.0943 824.874 72.4104 822.867 72.4104 817.775C72.4104 812.991 70.0943 810.831 66.2341 810.831H64.3812V808.824H65.9253C69.4767 808.824 71.6384 806.818 71.6384 802.189C71.6384 797.868 69.4767 796.17 66.0797 796.17C62.2195 796.17 60.0578 798.485 60.0578 803.886L57.7417 803.578C57.7417 797.559 60.6754 794.164 66.0797 794.164C71.0207 794.164 73.9545 796.633 73.9545 802.034C73.9545 806.355 71.9472 808.979 68.859 809.596C72.5648 810.059 74.7265 812.837 74.7265 817.621C74.7265 823.793 71.484 826.571 66.2341 826.571C60.8298 826.725 57.5873 823.485 57.5873 817.158Z" fill="#00BFFF"/>
		<path d="M90.9391 794.318H94.3361L102.211 820.707C102.52 821.787 102.674 822.559 102.829 823.639H102.983C103.137 822.559 103.292 821.942 103.601 820.707L111.475 794.318H114.872V826.108H112.711V801.108C112.711 799.874 112.711 797.868 112.865 796.787H112.711C112.556 797.868 112.247 798.948 111.939 800.337L104.064 826.108H101.748L93.8729 800.337C93.564 798.794 93.2552 797.405 93.1008 796.787H92.9464C92.9464 798.022 93.1008 799.874 93.1008 801.108V826.108H90.9391V794.318Z" fill="#00BFFF"/>
		<path d="M121.049 820.553C121.049 818.546 121.821 817.003 122.902 815.923C123.982 814.843 125.835 814.071 128.615 813.608L133.401 812.682V810.676C133.401 806.664 132.166 804.966 128.769 804.966C125.526 804.966 123.828 806.664 123.828 810.83H121.512C121.666 805.429 124.754 803.269 128.769 803.269C133.401 803.269 135.563 805.429 135.563 810.676V818.855C135.563 821.787 135.717 824.102 136.026 826.108H133.864C133.71 824.719 133.556 823.022 133.556 821.478C132.629 824.719 130.467 826.725 127.071 826.725C123.365 826.571 121.049 824.256 121.049 820.553ZM133.401 817.62V814.38L128.46 815.306C124.909 815.923 123.21 817.466 123.21 820.398C123.21 823.33 124.754 824.873 127.534 824.873C131.085 824.873 133.401 821.941 133.401 817.62Z" fill="#00BFFF"/>
		<path d="M139.423 834.904V832.898C139.887 833.053 140.35 833.052 140.659 833.052C143.284 833.052 144.519 831.201 145.291 828.423L145.908 826.262L138.651 803.732H140.967L146.063 820.553C146.372 821.787 146.681 822.713 146.989 823.793C147.298 822.713 147.453 821.787 147.916 820.553L152.548 803.578H154.864L147.607 828.269C146.217 833.053 144.21 834.904 140.967 834.904C140.504 835.059 140.041 835.059 139.423 834.904Z" fill="#00BFFF"/>
		<path d="M156.099 830.275C157.643 829.195 157.952 828.114 157.952 826.263V825.954H156.717V821.479H159.496V825.954C159.496 828.732 158.879 830.275 156.871 831.355L156.099 830.275Z" fill="#00BFFF"/>
		<path d="M173.856 824.102C178.025 819.781 181.422 816.232 184.201 812.682C186.826 809.287 188.062 806.047 188.062 802.806C188.062 798.639 186.054 796.325 182.503 796.325C178.797 796.325 176.635 798.485 176.635 802.497C176.635 803.423 176.635 804.349 176.944 805.275L174.628 804.966C174.474 804.195 174.474 803.269 174.474 802.343C174.474 797.405 177.562 794.318 182.657 794.318C187.598 794.318 190.532 797.25 190.532 802.652C190.532 806.201 189.142 809.75 186.363 813.454C184.047 816.695 180.341 820.398 176.79 824.102H191.15V826.108H174.011V824.102H173.856Z" fill="#00BFFF"/>
		<path d="M194.701 810.522C194.701 798.331 198.098 794.318 203.966 794.318C209.988 794.318 213.385 798.331 213.385 810.522C213.385 822.713 209.988 826.725 203.966 826.725C198.253 826.725 194.701 822.713 194.701 810.522ZM211.068 810.522C211.068 799.565 208.598 796.17 203.966 796.17C199.488 796.17 196.863 799.411 196.863 810.522C196.863 821.633 199.488 824.874 203.966 824.874C208.598 824.874 211.068 821.479 211.068 810.522Z" fill="#00BFFF"/>
		<path d="M217.399 824.102C221.568 819.781 224.965 816.232 227.745 812.682C230.369 809.287 231.605 806.047 231.605 802.806C231.605 798.639 229.597 796.325 226.046 796.325C222.34 796.325 220.179 798.485 220.179 802.497C220.179 803.423 220.179 804.349 220.487 805.275L218.171 804.966C218.017 804.195 218.017 803.269 218.017 802.343C218.017 797.405 221.105 794.318 226.2 794.318C231.142 794.318 234.075 797.25 234.075 802.652C234.075 806.201 232.686 809.75 229.906 813.454C227.59 816.695 223.884 820.398 220.333 824.102H234.693V826.108H217.399V824.102Z" fill="#00BFFF"/>
		<path d="M238.244 810.522C238.244 798.331 241.641 794.318 247.509 794.318C253.531 794.318 256.928 798.331 256.928 810.522C256.928 822.713 253.531 826.725 247.509 826.725C241.641 826.725 238.244 822.713 238.244 810.522ZM254.611 810.522C254.611 799.565 252.141 796.17 247.509 796.17C243.031 796.17 240.406 799.411 240.406 810.522C240.406 821.633 243.031 824.874 247.509 824.874C252.141 824.874 254.611 821.479 254.611 810.522Z" fill="#00BFFF"/>
		<path d="M62.3741 871.324C62.3741 876.262 60.058 880.12 53.5729 880.12H45.0805V848.33H53.1097C59.7492 848.33 61.7565 852.342 61.7565 856.355C61.7565 859.904 60.2124 862.836 56.5066 863.453C60.3668 864.071 62.3741 867.003 62.3741 871.324ZM47.3966 850.182V862.836H53.2641C58.2051 862.836 59.4404 859.75 59.4404 856.509C59.4404 853.114 58.0507 850.182 52.9552 850.182H47.3966ZM59.9036 871.324C59.9036 867.157 58.2051 864.534 53.2641 864.534H47.2422V878.114H53.1097C58.3595 878.268 59.9036 875.336 59.9036 871.324Z" fill="#00BFFF"/>
		<path d="M65.9255 888.916V886.91C66.3887 887.064 66.8519 887.064 67.1608 887.064C69.7857 887.064 71.021 885.212 71.793 882.435L72.4106 880.274L65.1535 857.744H67.4696L72.565 874.564C72.8738 875.799 73.1827 876.725 73.4915 877.805C73.8003 876.725 73.9547 875.799 74.4179 874.564L79.0502 857.589H81.3663L74.1091 882.28C72.7194 887.064 70.7121 888.916 67.4696 888.916C66.8519 889.07 66.3887 889.07 65.9255 888.916Z" fill="#00BFFF"/>
		<path d="M92.7924 880.737C91.866 880.737 90.7851 880.737 89.8587 880.428V878.268C90.7851 878.422 91.866 878.577 92.7924 878.577C95.4174 878.577 97.4247 877.496 97.4247 873.33V848.33H99.7408V873.638C99.5864 879.04 96.6526 880.737 92.7924 880.737Z" fill="#00BFFF"/>
		<path d="M120.431 869.009H107.306C107.461 876.262 109.623 878.731 113.174 878.731C115.953 878.731 118.115 876.879 118.424 873.021L120.431 873.484C119.968 878.114 117.189 880.583 113.174 880.583C108.233 880.583 105.145 877.342 105.145 868.854C105.145 860.058 108.387 857.126 112.865 857.126C117.497 857.126 120.277 860.058 120.277 867.311V869.009H120.431ZM118.269 867.465C118.269 861.293 116.416 858.978 112.865 858.978C109.623 858.978 107.306 860.984 107.152 867.465H118.269Z" fill="#00BFFF"/>
		<path d="M124.6 872.712L126.762 872.404C126.917 876.879 129.078 878.885 132.166 878.885C135.1 878.885 136.799 877.342 136.799 874.564C136.799 872.249 135.718 870.861 132.938 869.935L130.005 869.009C126.762 868.083 125.218 866.077 125.218 862.99C125.218 859.287 127.843 857.126 131.858 857.126C136.027 857.126 138.652 859.132 138.806 864.533L136.644 864.842C136.49 860.213 134.791 858.824 131.858 858.824C129.078 858.824 127.534 860.367 127.534 862.836C127.534 865.151 128.461 866.385 131.086 867.157L134.174 868.083C137.725 869.163 139.115 871.169 139.115 874.256C139.115 878.114 136.644 880.583 132.321 880.583C127.689 880.583 124.755 878.422 124.6 872.712Z" fill="#00BFFF"/>
		<path d="M142.666 872.712L144.827 872.404C144.982 876.879 147.144 878.885 150.232 878.885C153.165 878.885 154.864 877.342 154.864 874.564C154.864 872.249 153.783 870.861 151.004 869.935L148.07 869.009C144.827 868.083 143.283 866.077 143.283 862.99C143.283 859.287 145.908 857.126 149.923 857.126C154.092 857.126 156.717 859.132 156.871 864.533L154.71 864.842C154.555 860.213 152.857 858.824 149.923 858.824C147.144 858.824 145.599 860.367 145.599 862.836C145.599 865.151 146.526 866.385 149.151 867.157L152.239 868.083C155.79 869.163 157.18 871.169 157.18 874.256C157.18 878.114 154.709 880.583 150.386 880.583C145.754 880.583 142.82 878.422 142.666 872.712Z" fill="#00BFFF"/>
		<path d="M162.43 848.947H164.746V853.886H162.43V848.947ZM162.43 857.744H164.592V880.12H162.43V857.744Z" fill="#00BFFF"/>
		<path d="M170.305 868.854C170.305 860.83 173.239 857.126 178.334 857.126C182.503 857.126 185.128 859.904 185.437 865.151L183.121 865.305C182.966 860.984 181.113 858.978 178.18 858.978C174.628 858.978 172.467 861.756 172.467 868.854C172.467 875.799 174.783 878.731 178.334 878.731C181.113 878.731 182.966 876.57 183.275 872.249L185.437 872.558C185.128 877.959 182.349 880.737 178.334 880.737C173.393 880.583 170.305 876.879 170.305 868.854Z" fill="#00BFFF"/>
		<path d="M189.452 874.564C189.452 872.558 190.224 871.015 191.305 869.935C192.385 868.854 194.238 868.083 197.018 867.62L201.804 866.694V864.688C201.804 860.676 200.569 858.978 197.172 858.978C193.929 858.978 192.231 860.676 192.231 864.842H189.915C190.069 859.441 193.157 857.281 197.172 857.281C201.804 857.281 203.966 859.441 203.966 864.688V872.867C203.966 875.799 204.12 878.114 204.429 880.12H202.268C202.113 878.731 201.959 877.033 201.959 875.49C201.032 878.731 198.871 880.737 195.474 880.737C191.768 880.583 189.452 878.268 189.452 874.564ZM201.804 871.632V868.391L196.863 869.317C193.312 869.935 191.613 871.478 191.613 874.41C191.613 877.342 193.157 878.885 195.937 878.885C199.488 878.885 201.804 875.953 201.804 871.632Z" fill="#00BFFF"/>
		<path d="M219.561 864.225C219.561 852.651 223.113 847.559 230.061 847.559C236.7 847.559 239.017 852.188 239.325 857.744L237.009 858.052C236.7 853.114 235.156 849.565 230.061 849.565C224.965 849.565 222.186 853.731 222.186 864.225C222.186 874.101 224.657 878.885 230.061 878.885C236.083 878.885 237.627 872.558 237.627 867.774V865.768H229.752V863.762H239.943V880.12H238.09L237.936 873.947C236.7 878.268 233.921 880.891 229.598 880.891C222.958 880.891 219.561 875.49 219.561 864.225Z" fill="#00BFFF"/>
		<path d="M245.502 873.021V857.744H247.663V873.021C247.663 877.342 249.671 878.885 252.141 878.885C255.692 878.885 257.854 875.645 257.854 871.015V857.744H260.016V880.12H258.009V875.49C257.082 878.577 254.92 880.583 251.678 880.583C247.2 880.583 245.502 877.497 245.502 873.021Z" fill="#00BFFF"/>
		<path d="M264.957 888.916V886.91C265.42 887.064 265.883 887.064 266.192 887.064C268.817 887.064 270.052 885.212 270.824 882.435L271.442 880.274L264.185 857.744H266.501L271.596 874.564C271.905 875.799 272.214 876.725 272.523 877.805C272.831 876.725 272.986 875.799 273.449 874.564L278.081 857.589H280.397L273.14 882.28C271.751 887.064 269.743 888.916 266.501 888.916C266.038 889.07 265.574 889.07 264.957 888.916Z" fill="#00BFFF"/>
		<path d="M286.574 857.743V862.682C287.501 859.132 289.817 857.281 293.059 857.281C297.074 857.281 299.081 859.75 299.081 864.996V880.274H296.919V864.996C296.919 860.984 295.375 858.978 292.287 858.978C288.736 858.978 286.574 862.064 286.574 867.311V880.12H284.412V857.743H286.574Z" fill="#00BFFF"/>
		<path d="M307.728 857.743V862.682C308.654 859.132 310.97 857.281 314.213 857.281C318.227 857.281 320.235 859.75 320.235 864.996V880.274H318.073V864.996C318.073 860.984 316.529 858.978 313.441 858.978C309.889 858.978 307.728 862.064 307.728 867.311V880.12H305.566V857.743H307.728Z" fill="#00BFFF"/>
		<path d="M46.7785 956.354V979.347C46.7785 984.131 49.249 986.909 53.7268 986.909C58.2047 986.909 60.6752 984.131 60.6752 979.347V956.354H62.9913V979.501C62.9913 985.211 59.5943 988.915 53.7268 988.915C47.8594 988.915 44.6168 985.211 44.6168 979.501V956.354H46.7785Z" fill="#00BFFF"/>
		<path d="M68.0869 978.112L70.403 977.804C70.7118 983.977 73.0279 986.909 78.1234 986.909C82.138 986.909 84.2997 984.44 84.2997 980.582C84.2997 976.569 82.7556 974.717 79.0498 973.483L74.8808 971.94C70.8662 970.551 68.8589 967.464 68.8589 963.607C68.8589 958.668 72.1015 955.582 77.1969 955.582C82.6012 955.582 85.9982 958.205 86.1526 965.613L83.8365 966.076C83.5276 959.903 81.2115 957.588 77.0425 957.588C73.1823 957.588 71.0206 959.903 71.0206 963.607C71.0206 966.693 72.4103 968.699 75.8073 970.088L79.8219 971.631C84.2997 973.174 86.307 975.952 86.307 980.736C86.307 986.137 82.91 989.223 77.5057 989.223C71.6383 988.915 68.5501 985.365 68.0869 978.112Z" fill="#00BFFF"/>
		<path d="M106.072 978.73H94.7997L92.1748 988.143H89.8587L99.2776 956.354H101.748L111.167 988.143H108.851L106.072 978.73ZM105.608 976.724L101.748 963.452C101.13 961.6 100.822 960.211 100.667 958.823H100.513C100.204 960.211 100.05 961.446 99.432 963.452L95.5718 976.724H105.608Z" fill="#00BFFF"/>
		<path d="M138.96 958.36H130.313V988.143H127.997V958.36H119.35V956.354H138.806V958.36H138.96Z" fill="#00BFFF"/>
		<path d="M138.806 976.878C138.806 968.545 141.894 965.15 146.835 965.15C151.776 965.15 154.864 968.545 154.864 976.878C154.864 985.211 151.776 988.606 146.835 988.606C141.894 988.606 138.806 985.211 138.806 976.878ZM152.702 976.878C152.702 969.47 150.232 967.001 146.835 967.001C143.438 967.001 140.967 969.47 140.967 976.878C140.967 984.285 143.283 986.754 146.835 986.754C150.232 986.909 152.702 984.439 152.702 976.878Z" fill="#00BFFF"/>
		<path d="M159.187 976.878C159.187 968.853 161.967 965.15 166.908 965.15C169.996 965.15 172.158 967.002 172.93 970.551V955.582H175.091V987.989H173.084V983.051C172.158 986.446 169.842 988.606 166.599 988.606C161.812 988.606 159.187 984.748 159.187 976.878ZM173.084 978.73V975.18C173.084 970.551 171.077 967.001 167.525 967.001C163.511 967.001 161.504 969.934 161.504 976.878C161.504 983.977 163.356 986.754 167.217 986.754C170.922 986.754 173.084 983.514 173.084 978.73Z" fill="#00BFFF"/>
		<path d="M180.805 982.588C180.805 980.581 181.577 979.038 182.657 977.958C183.738 976.878 185.591 976.106 188.37 975.643L193.157 974.717V972.711C193.157 968.699 191.922 967.001 188.525 967.001C185.282 967.001 183.584 968.699 183.584 972.866H181.268C181.422 967.464 184.51 965.304 188.525 965.304C193.157 965.304 195.319 967.464 195.319 972.711V980.89C195.319 983.822 195.473 986.137 195.782 988.143H193.62C193.466 986.754 193.312 985.057 193.312 983.514C192.385 986.754 190.223 988.76 186.826 988.76C183.121 988.606 180.805 986.291 180.805 982.588ZM193.157 979.656V976.415L188.216 977.341C184.665 977.958 182.966 979.501 182.966 982.433C182.966 985.365 184.51 986.909 187.29 986.909C190.841 986.909 193.157 983.976 193.157 979.656Z" fill="#00BFFF"/>
		<path d="M199.333 996.939V994.933C199.797 995.088 200.26 995.088 200.569 995.088C203.194 995.088 204.429 993.236 205.201 990.458L205.819 988.298L198.561 965.767H200.878L205.973 982.588C206.282 983.822 206.591 984.748 206.899 985.828C207.208 984.748 207.363 983.822 207.826 982.588L212.458 965.613H214.774L207.517 990.304C206.127 995.088 204.12 996.939 200.878 996.939C200.26 997.094 199.797 997.094 199.333 996.939Z" fill="#00BFFF"/>
		</g>
		</g>
		</g>
	</g>
</svg>
