<svg width="870" height="947" viewBox="0 0 870 947" fill="none" xmlns="http://www.w3.org/2000/svg">
<path d="M262.712 432.09L-19.1415 631.469L-20.2297 907.13L277.372 682.179L262.712 432.09Z" fill="white"/>
<path d="M-19.6855 632.013L424.671 317.427" stroke="#00BFFF" stroke-width="3" stroke-miterlimit="10" stroke-linecap="round"/>
<path d="M-70.8347 945.413C-70.8347 945.413 642.36 406.289 690.919 369.464C739.478 332.64 753.615 275.869 738.194 244.833" stroke="#00BFFF" stroke-width="3" stroke-miterlimit="10" stroke-linecap="round"/>
<path d="M652.056 304.597L810.782 195.571V175.57L663.287 76.3808L393.034 271.864V292.279L517.457 393.568L589.012 343.38" stroke="#00BFFF" stroke-width="3" stroke-miterlimit="10" stroke-linecap="round"/>
<path d="M650.01 363.708C660.403 326.263 657.421 299.221 631.923 280.102C612.279 265.368 590.492 260.46 579.87 260.46C579.87 260.46 544.512 255.552 535.74 284.041C531.812 296.827 536.655 312.519 551.238 324.304C551.238 324.304 576.921 342.967 605.412 340.997" stroke="#00BFFF" stroke-width="3" stroke-miterlimit="10" stroke-linecap="round"/>
<path d="M590.829 340.333C587.728 347.874 583.799 354.741 582.809 366.526" stroke="#00BFFF" stroke-width="3" stroke-miterlimit="10" stroke-linecap="round"/>
<path d="M423.136 250.089C404.048 232.961 385.765 212.264 383.425 200.544C380.476 185.81 386.374 173.045 395.483 165.874C406.747 157.005 429.546 158.659 438.906 167.332" stroke="#00BFFF" stroke-width="3" stroke-miterlimit="10" stroke-linecap="round"/>
<path d="M477.115 210.805C456.786 192.709 439.286 172.806 436.783 160.422C433.649 144.861 439.917 131.367 449.625 123.793C461.618 114.424 485.908 116.176 495.866 125.328" stroke="#00BFFF" stroke-width="3" stroke-miterlimit="10" stroke-linecap="round"/>
<path d="M533.096 169.563C512.767 151.466 497.226 133.522 494.734 121.149C491.6 105.588 497.868 92.0944 507.576 84.5205C519.569 75.1512 537.634 76.8161 553.817 83.1058C553.817 83.1058 594.595 100.386 610.397 114.642" stroke="#00BFFF" stroke-width="3" stroke-miterlimit="10" stroke-linecap="round"/>
<path d="M645.614 283.867L799.529 178.214" stroke="#00BFFF" stroke-width="3" stroke-miterlimit="10" stroke-linecap="round"/>
<path d="M407.77 279.198L518.796 369.464L558.475 342.999" stroke="#00BFFF" stroke-width="3" stroke-miterlimit="10" stroke-linecap="round"/>
<path d="M450.659 325.534L467.473 339.822" stroke="#00BFFF" stroke-width="3" stroke-miterlimit="10" stroke-linecap="round"/>
<path d="M482.622 317.427C488.59 317.427 493.428 312.589 493.428 306.621C493.428 300.653 488.59 295.815 482.622 295.815C476.653 295.815 471.815 300.653 471.815 306.621C471.815 312.589 476.653 317.427 482.622 317.427Z" stroke="#00BFFF" stroke-width="3" stroke-miterlimit="10" stroke-linecap="round"/>
<path d="M600.863 246.487C609.879 246.487 617.188 239.179 617.188 230.164C617.188 221.15 609.879 213.842 600.863 213.842C591.848 213.842 584.539 221.15 584.539 230.164C584.539 239.179 591.848 246.487 600.863 246.487Z" stroke="#00BFFF" stroke-width="3" stroke-miterlimit="10" stroke-linecap="round"/>
<path d="M808.105 121.759C817.12 121.759 824.429 114.451 824.429 105.436C824.429 96.4207 817.12 89.1127 808.105 89.1127C799.089 89.1127 791.781 96.4207 791.781 105.436C791.781 114.451 799.089 121.759 808.105 121.759Z" stroke="#00BFFF" stroke-width="3" stroke-miterlimit="10" stroke-linecap="round"/>
<path d="M814.112 407.78C822.647 407.78 829.566 400.861 829.566 392.327C829.566 383.793 822.647 376.875 814.112 376.875C805.577 376.875 798.658 383.793 798.658 392.327C798.658 400.861 805.577 407.78 814.112 407.78Z" stroke="#00BFFF" stroke-width="3" stroke-miterlimit="10" stroke-linecap="round"/>
<path d="M541.269 325.577L450.539 249.48L655.615 101.91L768.763 179.803L642.098 266.739" stroke="#00BFFF" stroke-width="3" stroke-miterlimit="10" stroke-linecap="round"/>
<path d="M491.382 271.864L542.249 231.372C542.249 231.372 541.193 210.436 549.377 196.071C555.395 185.516 563.579 175.592 577.65 169.563C593.115 162.936 603.399 175.004 590.906 183.927C578.412 192.839 566.55 205.277 568.074 221.492C569.064 231.993 572.601 239.033 584.278 252.298" stroke="#00BFFF" stroke-width="3" stroke-miterlimit="10" stroke-linecap="round"/>
<path d="M761.57 131.803C752.733 129.833 738.977 132.782 727.855 140.421C722.131 144.349 710.497 151.444 702.639 167.158C695.946 180.543 689.874 203.656 702.639 225.181L674.007 244.833C657.465 218.227 656.475 199.564 656.475 174.024C656.475 174.024 655.832 160.357 643.676 148.354C635.841 140.628 628.669 137.624 602.452 140.628C602.452 140.628 589.687 140.628 586.574 126.721C583.582 113.336 596.989 107.383 602.452 106.252C626.318 101.279 646.343 99.679 674.007 119.669C674.007 119.669 698.232 84.9666 744.146 79.8957C744.146 79.8957 747.346 63.9427 744.146 52.6908C740.947 41.4389 732.948 33.8324 722.577 27.5209C716.395 23.7557 713.446 15.8989 717.494 8.90185C720.063 4.46201 727.996 -0.456621 738.4 3.78734C748.804 8.0313 767.98 16.998 779.994 55.2372C779.994 55.2372 784.162 68.9267 783.172 83.6608C782.193 98.395 777.589 113.466 778.003 129.496C778.264 139.638 779.548 150.966 783.325 157.081L745.735 133.097" fill="white"/>
<path d="M761.57 131.803C752.733 129.833 738.977 132.782 727.855 140.421C722.131 144.349 710.497 151.444 702.639 167.158C695.946 180.543 689.874 203.656 702.639 225.181L674.007 244.833C657.465 218.227 656.475 199.564 656.475 174.024C656.475 174.024 655.832 160.357 643.676 148.354C635.841 140.628 628.669 137.624 602.452 140.628C602.452 140.628 589.687 140.628 586.574 126.721C583.582 113.336 596.989 107.383 602.452 106.252C626.318 101.279 646.343 99.679 674.007 119.669C674.007 119.669 698.232 84.9666 744.146 79.8957C744.146 79.8957 747.346 63.9427 744.146 52.6908C740.947 41.4389 732.948 33.8324 722.577 27.5209C716.395 23.7557 713.446 15.8989 717.494 8.90185C720.063 4.46201 727.996 -0.456621 738.4 3.78734C748.804 8.0313 767.98 16.998 779.994 55.2372C779.994 55.2372 784.162 68.9267 783.172 83.6608C782.193 98.395 777.589 113.466 778.003 129.496C778.264 139.638 779.548 150.966 783.325 157.081L745.735 133.097" stroke="#00BFFF" stroke-width="3" stroke-miterlimit="10" stroke-linecap="round"/>
<path d="M752.994 276.685C759.6 249.665 768.861 237.51 776.305 231.002C784.163 224.125 792.074 224.179 796.928 229.033C801.836 233.94 799.518 240.296 793.979 252.603C788.439 264.911 779.037 278.687 777.176 299.526C775.315 320.365 782.334 332.237 790.616 342.999C790.616 342.999 809.432 332.117 825.278 329.68C841.123 327.242 852.909 331.171 859.787 336.078C866.665 340.986 868.504 344.806 867.579 350.268C866.665 355.731 861.746 357.69 857.817 356.711C853.889 355.731 835.225 352.782 819.51 358.68C803.795 364.578 779.244 380.292 778.253 401.892C777.263 423.493 784.152 434.299 787.09 440.197C790.028 446.095 792.989 453.952 785.12 458.859C777.263 463.767 771.364 459.839 767.436 455.91C763.507 451.982 754.67 440.197 751.982 419.684C750.045 404.907 751.721 395.994 752.961 388.344C752.961 388.344 729.128 367.505 729.128 340.997" stroke="#00BFFF" stroke-width="3" stroke-miterlimit="10" stroke-linecap="round"/>
</svg>
