<svg width="943" height="947" viewBox="0 0 943 947" fill="none" xmlns="http://www.w3.org/2000/svg">
<path d="M606 240.5L53.6933 631.305L3 945.5L762 369.5L606 240.5Z" fill="white"/>
<path d="M53.1494 631.849L497.506 317.263" stroke="#00BFFF" stroke-width="3" stroke-miterlimit="10" stroke-linecap="round"/>
<path d="M2 945.249C2 945.249 715.194 406.125 763.753 369.3C812.312 332.476 826.449 275.705 811.028 244.669" stroke="#00BFFF" stroke-width="3" stroke-miterlimit="10" stroke-linecap="round"/>
<path d="M724.891 304.433L883.617 195.407V175.406L736.122 76.217L465.869 271.7V292.115L590.292 393.404L661.847 343.216" stroke="#00BFFF" stroke-width="3" stroke-miterlimit="10" stroke-linecap="round"/>
<path d="M722.845 363.544C733.238 326.099 730.256 299.057 704.758 279.938C685.114 265.204 663.327 260.296 652.705 260.296C652.705 260.296 617.347 255.388 608.575 283.877C604.646 296.663 609.489 312.355 624.072 324.14C624.072 324.14 649.756 342.803 678.247 340.833" stroke="#00BFFF" stroke-width="3" stroke-miterlimit="10" stroke-linecap="round"/>
<path d="M663.664 340.169C660.563 347.711 656.634 354.577 655.644 366.362" stroke="#00BFFF" stroke-width="3" stroke-miterlimit="10" stroke-linecap="round"/>
<path d="M495.971 249.925C476.882 232.797 458.599 212.1 456.259 200.38C453.31 185.646 459.209 172.881 468.318 165.71C479.581 156.841 502.381 158.495 511.74 167.168" stroke="#00BFFF" stroke-width="3" stroke-miterlimit="10" stroke-linecap="round"/>
<path d="M549.95 210.642C529.62 192.545 512.121 172.642 509.618 160.258C506.484 144.697 512.752 131.203 522.46 123.63C534.452 114.26 558.743 116.012 568.701 125.164" stroke="#00BFFF" stroke-width="3" stroke-miterlimit="10" stroke-linecap="round"/>
<path d="M605.931 169.399C585.602 151.302 570.061 133.358 567.569 120.985C564.435 105.424 570.703 91.9305 580.411 84.3567C592.404 74.9874 610.469 76.6523 626.652 82.942C626.652 82.942 667.43 100.223 683.232 114.478" stroke="#00BFFF" stroke-width="3" stroke-miterlimit="10" stroke-linecap="round"/>
<path d="M718.448 283.703L872.364 178.05" stroke="#00BFFF" stroke-width="3" stroke-miterlimit="10" stroke-linecap="round"/>
<path d="M480.604 279.035L591.631 369.3L631.31 342.835" stroke="#00BFFF" stroke-width="3" stroke-miterlimit="10" stroke-linecap="round"/>
<path d="M523.494 325.37L540.308 339.658" stroke="#00BFFF" stroke-width="3" stroke-miterlimit="10" stroke-linecap="round"/>
<path d="M555.456 317.263C561.424 317.263 566.263 312.425 566.263 306.457C566.263 300.489 561.424 295.651 555.456 295.651C549.488 295.651 544.649 300.489 544.649 306.457C544.649 312.425 549.488 317.263 555.456 317.263Z" stroke="#00BFFF" stroke-width="3" stroke-miterlimit="10" stroke-linecap="round"/>
<path d="M673.698 246.324C682.714 246.324 690.022 239.016 690.022 230.001C690.022 220.986 682.714 213.678 673.698 213.678C664.683 213.678 657.374 220.986 657.374 230.001C657.374 239.016 664.683 246.324 673.698 246.324Z" stroke="#00BFFF" stroke-width="3" stroke-miterlimit="10" stroke-linecap="round"/>
<path d="M880.939 121.595C889.955 121.595 897.264 114.287 897.264 105.272C897.264 96.2569 889.955 88.9489 880.939 88.9489C871.924 88.9489 864.615 96.2569 864.615 105.272C864.615 114.287 871.924 121.595 880.939 121.595Z" stroke="#00BFFF" stroke-width="3" stroke-miterlimit="10" stroke-linecap="round"/>
<path d="M886.947 407.616C895.482 407.616 902.4 400.697 902.4 392.163C902.4 383.629 895.482 376.711 886.947 376.711C878.412 376.711 871.493 383.629 871.493 392.163C871.493 400.697 878.412 407.616 886.947 407.616Z" stroke="#00BFFF" stroke-width="3" stroke-miterlimit="10" stroke-linecap="round"/>
<path d="M614.104 325.413L523.374 249.316L728.45 101.746L841.598 179.639L714.933 266.575" stroke="#00BFFF" stroke-width="3" stroke-miterlimit="10" stroke-linecap="round"/>
<path d="M564.217 271.7L615.083 231.209C615.083 231.209 614.027 210.272 622.211 195.908C628.23 185.352 636.413 175.428 650.485 169.399C665.949 162.772 676.234 174.84 663.74 183.763C651.247 192.676 639.384 205.114 640.908 221.328C641.898 231.829 645.435 238.869 657.112 252.135" stroke="#00BFFF" stroke-width="3" stroke-miterlimit="10" stroke-linecap="round"/>
<path d="M834.404 131.639C825.567 129.669 811.812 132.618 800.689 140.257C794.965 144.186 783.331 151.281 775.474 166.994C768.781 180.379 762.708 203.492 775.474 225.017L746.841 244.669C730.299 218.063 729.309 199.401 729.309 173.861C729.309 173.861 728.667 160.193 716.511 148.19C708.675 140.464 701.503 137.461 675.287 140.464C675.287 140.464 662.521 140.464 659.409 126.557C656.416 113.172 669.824 107.22 675.287 106.088C699.153 101.115 719.177 99.5152 746.841 119.505C746.841 119.505 771.066 84.8028 816.981 79.7318C816.981 79.7318 820.18 63.7789 816.981 52.527C813.781 41.2751 805.782 33.6686 795.411 27.357C789.23 23.5919 786.281 15.7351 790.329 8.73803C792.897 4.2982 800.831 -0.62044 811.235 3.62352C821.639 7.86748 840.814 16.8342 852.829 55.0734C852.829 55.0734 856.997 68.7628 856.007 83.497C855.027 98.2311 850.424 113.303 850.837 129.332C851.098 139.474 852.383 150.802 856.159 156.917L818.57 132.934" fill="white"/>
<path d="M834.404 131.639C825.567 129.669 811.812 132.618 800.689 140.257C794.965 144.186 783.331 151.281 775.474 166.994C768.781 180.379 762.708 203.492 775.474 225.017L746.841 244.669C730.299 218.063 729.309 199.401 729.309 173.861C729.309 173.861 728.667 160.193 716.511 148.19C708.675 140.464 701.503 137.461 675.287 140.464C675.287 140.464 662.521 140.464 659.409 126.557C656.416 113.172 669.824 107.22 675.287 106.088C699.153 101.115 719.177 99.5152 746.841 119.505C746.841 119.505 771.066 84.8028 816.981 79.7318C816.981 79.7318 820.18 63.7789 816.981 52.527C813.781 41.2751 805.782 33.6686 795.411 27.357C789.23 23.5919 786.281 15.7351 790.329 8.73803C792.897 4.2982 800.831 -0.62044 811.235 3.62352C821.639 7.86748 840.814 16.8342 852.829 55.0734C852.829 55.0734 856.997 68.7628 856.007 83.497C855.027 98.2311 850.424 113.303 850.837 129.332C851.098 139.474 852.383 150.802 856.159 156.917L818.57 132.934" stroke="#00BFFF" stroke-width="3" stroke-miterlimit="10" stroke-linecap="round"/>
<path d="M825.829 276.521C832.435 249.501 841.696 237.346 849.14 230.839C856.997 223.961 864.909 224.016 869.763 228.869C874.671 233.777 872.353 240.132 866.814 252.439C861.274 264.747 851.871 278.523 850.01 299.362C848.15 320.201 855.169 332.073 863.451 342.836C863.451 342.836 882.267 331.954 898.113 329.516C913.958 327.078 925.744 331.007 932.622 335.915C939.5 340.822 941.339 344.642 940.414 350.105C939.5 355.567 934.581 357.526 930.652 356.547C926.723 355.567 908.059 352.618 892.345 358.516C876.63 364.414 852.078 380.128 851.088 401.729C850.098 423.329 856.986 434.135 859.925 440.033C862.863 445.931 865.823 453.788 857.955 458.696C850.098 463.603 844.199 459.675 840.27 455.747C836.342 451.818 827.505 440.033 824.817 419.521C822.88 404.743 824.556 395.831 825.796 388.181C825.796 388.181 801.963 367.342 801.963 340.833" stroke="#00BFFF" stroke-width="3" stroke-miterlimit="10" stroke-linecap="round"/>
</svg>
