<svg width="339" height="183" viewBox="0 0 339 183" fill="none" xmlns="http://www.w3.org/2000/svg">
<g filter="url(#filter0_d)">
<path d="M84.0099 135.52C64.9199 135.52 49.3899 119.99 49.3899 100.9V85.66C49.3899 66.57 64.9199 51.04 84.0099 51.04H245.88C264.97 51.04 280.5 66.57 280.5 85.66V100.9C280.5 119.99 264.97 135.52 245.88 135.52H84.0099Z" fill="white"/>
<path d="M245.88 52.55C264.14 52.55 279 67.41 279 85.67V100.91C279 119.17 264.14 134.03 245.88 134.03H84.0099C65.7499 134.03 50.8899 119.17 50.8899 100.91V85.6601C50.8899 67.4001 65.7499 52.5401 84.0099 52.5401L245.88 52.55ZM245.88 49.55H84.0099C64.0599 49.55 47.8899 65.72 47.8899 85.67V100.91C47.8899 120.86 64.0599 137.03 84.0099 137.03H245.88C265.83 137.03 282 120.86 282 100.91V85.6601C282 65.7201 265.83 49.55 245.88 49.55Z" fill="#00BFFF"/>
<path d="M101.133 76.8929V72.6191H75.604V76.8929H85.69V108.804H75.604V113.077H101.133V108.804H90.9895V76.8929H101.133ZM129.517 100.142L117.607 72.6191H110.655V113.077H115.955V82.6482C115.955 81.4515 115.955 80.2549 115.841 79.1722H116.012C116.012 79.1722 116.867 81.7365 117.835 83.9588L130.543 113.077H136.754V72.6191H131.454V101.111C131.454 102.592 131.454 104.074 131.568 105.442H131.454C131.227 104.587 130.6 102.706 129.517 100.142ZM145.707 113.077H157.446C168.102 113.077 174.769 104.359 174.769 92.7913C174.769 81.1096 168.671 72.6191 157.56 72.6191H145.707V113.077ZM151.006 108.633V77.0638H157.503C165.366 77.0638 169.298 84.1868 169.298 92.7913C169.298 101.168 165.024 108.633 157.389 108.633H151.006ZM206.344 72.6191H182.696V113.077H206.743V108.519H187.995V94.5578H205.375V90.113H187.995V77.1778H206.344V72.6191ZM213.873 113.077H219.913L227.834 98.5466C229.144 96.1533 229.315 95.4695 229.429 94.5578H229.657C229.771 95.4695 229.942 96.1533 231.139 98.3756L239.23 113.077H245.555L232.791 92.1644L243.903 72.6191H237.863L231.253 85.3264C230.341 87.0359 229.942 87.8907 229.771 89.2583H229.543C229.372 87.8907 228.916 86.922 228.005 85.2125L221.28 72.6191H215.297L226.58 91.7086L213.873 113.077Z" fill="#00BFFF"/>
</g>
<defs>
<filter id="filter0_d" x="-25" y="-25" width="408.81" height="250.18" filterUnits="userSpaceOnUse" color-interpolation-filters="sRGB">
<feFlood flood-opacity="0" result="BackgroundImageFix"/>
<feColorMatrix in="SourceAlpha" type="matrix" values="0 0 0 0 0 0 0 0 0 0 0 0 0 0 0 0 0 0 127 0"/>
<feOffset dx="10" dy="10"/>
<feGaussianBlur stdDeviation="17.5"/>
<feColorMatrix type="matrix" values="0 0 0 0 0 0 0 0 0 0.74902 0 0 0 0 1 0 0 0 0.25 0"/>
<feBlend mode="normal" in2="BackgroundImageFix" result="effect1_dropShadow"/>
<feBlend mode="normal" in="SourceGraphic" in2="effect1_dropShadow" result="shape"/>
</filter>
</defs>
</svg>
