<?xml version="1.0" encoding="utf-8"?>
<!-- Generator: Adobe Illustrator 25.2.3, SVG Export Plug-In . SVG Version: 6.00 Build 0)  -->
<svg version="1.1" id="Camada_1" xmlns="http://www.w3.org/2000/svg" xmlns:xlink="http://www.w3.org/1999/xlink" x="0px" y="0px"
	 viewBox="0 0 1042 1171" style="enable-background:new 0 0 1042 1171;" xml:space="preserve">
<style type="text/css">
	.st0{fill:#FFFFFF;stroke:#00BDFF;stroke-miterlimit:10;}
	.st1{fill:#00BDFF;stroke:#00BDFF;stroke-miterlimit:10;}
	.st2{fill:none;stroke:#00BDFF;stroke-width:3;stroke-linecap:round;stroke-linejoin:round;stroke-miterlimit:10;}
	.st3{fill:#FFFFFF;stroke:#00BDFF;stroke-width:3;stroke-miterlimit:10;}
	.st4{fill:#0072FF;stroke:#00BDFF;stroke-miterlimit:10;}
	.st5{fill:#4DC4FF;stroke:#00BDFF;stroke-miterlimit:10;}
	.st6{fill:#FF224D;stroke:#00BDFF;stroke-miterlimit:10;}
	.st7{fill:#8D8C92;stroke:#00BDFF;stroke-miterlimit:10;}
	.st8{fill:#FF350E;stroke:#00BDFF;stroke-miterlimit:10;}
	.st9{fill:#3BDB57;stroke:#00BDFF;stroke-miterlimit:10;}
	.st10{fill:#FF9500;stroke:#00BDFF;stroke-miterlimit:10;}
	.st11{fill:#FFCC00;stroke:#00BDFF;stroke-miterlimit:10;}
	.st12{fill:#FFFFFF;stroke:#00BDFF;stroke-width:3;stroke-linecap:round;stroke-linejoin:round;stroke-miterlimit:10;}
</style>
<g id="paint">
	<g id="structure">
		<path class="st0" d="M761.2,849.8H40.4v63.1h720.8V849.8z"/>
		<path class="st0" d="M218.7,1041.4h-67.5l44.3-128.4H263L218.7,1041.4z"/>
		<path class="st0" d="M620.8,1042.5h67.5L644,914h-67.5L620.8,1042.5z"/>
		<path class="st0" d="M622.6,849.2H169.1c-45.7,0-82.7-37-82.7-82.7V312.9c0-45.7,37-82.7,82.7-82.7h453.5
			c45.7,0,82.7,37,82.7,82.7v453.6C705.3,812.2,668.3,849.2,622.6,849.2z"/>
		<path class="st1" d="M722.5,851.3c0.8,0,1.5-0.7,1.5-1.5c0-0.8-0.7-1.5-1.5-1.5V851.3z M1.7,849.8v-1.5c-0.8,0-1.5,0.7-1.5,1.5
			H1.7z M1.7,912.9H0.2c0,0.8,0.7,1.5,1.5,1.5V912.9z M722.5,914.4c0.8,0,1.5-0.7,1.5-1.5c0-0.8-0.7-1.5-1.5-1.5V914.4z
			 M761.2,849.8h1.5c0-0.8-0.7-1.5-1.5-1.5V849.8z M40.4,849.8v-1.5c-0.8,0-1.5,0.7-1.5,1.5H40.4z M40.4,912.9h-1.5
			c0,0.8,0.7,1.5,1.5,1.5V912.9z M761.2,912.9v1.5c0.8,0,1.5-0.7,1.5-1.5H761.2z M192.1,1042.9c0.8,0,1.5-0.7,1.5-1.5
			s-0.7-1.5-1.5-1.5V1042.9z M124.6,1041.4l-1.4-0.5c-0.2,0.5-0.1,1,0.2,1.4c0.3,0.4,0.7,0.6,1.2,0.6V1041.4z M168.9,912.9v-1.5
			c-0.6,0-1.2,0.4-1.4,1L168.9,912.9z M236.4,914.4c0.8,0,1.5-0.7,1.5-1.5c0-0.8-0.7-1.5-1.5-1.5V914.4z M218.7,1041.4v1.5
			c0.6,0,1.2-0.4,1.4-1L218.7,1041.4z M151.1,1041.4l-1.4-0.5c-0.2,0.5-0.1,1,0.2,1.4c0.3,0.4,0.7,0.6,1.2,0.6V1041.4z M195.4,912.9
			v-1.5c-0.6,0-1.2,0.4-1.4,1L195.4,912.9z M263,912.9l1.4,0.5c0.2-0.5,0.1-1-0.2-1.4c-0.3-0.4-0.7-0.6-1.2-0.6V912.9z
			 M594.2,1042.5l-1.4,0.5c0.2,0.6,0.8,1,1.4,1V1042.5z M661.8,1044c0.8,0,1.5-0.7,1.5-1.5c0-0.8-0.7-1.5-1.5-1.5V1044z
			 M617.5,915.5c0.8,0,1.5-0.7,1.5-1.5c0-0.8-0.7-1.5-1.5-1.5V915.5z M549.9,914v-1.5c-0.5,0-0.9,0.2-1.2,0.6
			c-0.3,0.4-0.4,0.9-0.2,1.4L549.9,914z M620.8,1042.5l-1.4,0.5c0.2,0.6,0.8,1,1.4,1V1042.5z M688.3,1042.5v1.5
			c0.5,0,0.9-0.2,1.2-0.6c0.3-0.4,0.4-0.9,0.2-1.4L688.3,1042.5z M644,914l1.4-0.5c-0.2-0.6-0.8-1-1.4-1V914z M576.5,914v-1.5
			c-0.5,0-0.9,0.2-1.2,0.6c-0.3,0.4-0.4,0.9-0.2,1.4L576.5,914z M132,849.8v1.5h0h0L132,849.8z M132,230.8v1.5h0h0L132,230.8z
			 M722.5,848.3H1.7v3h720.8V848.3z M0.2,849.8v63.1h3v-63.1H0.2z M1.7,914.4h720.8v-3H1.7V914.4z M761.2,848.3H40.4v3h720.8V848.3z
			 M38.9,849.8v63.1h3v-63.1H38.9z M40.4,914.4h720.8v-3H40.4V914.4z M762.7,912.9v-63.1h-3v63.1H762.7z M192.1,1039.9h-67.5v3h67.5
			V1039.9z M126,1041.8l44.3-128.4l-2.8-1l-44.3,128.4L126,1041.8z M168.9,914.4h67.5v-3h-67.5V914.4z M218.7,1039.9h-67.5v3h67.5
			V1039.9z M152.6,1041.8l44.3-128.4l-2.8-1l-44.3,128.4L152.6,1041.8z M195.4,914.4H263v-3h-67.5V914.4z M261.6,912.4l-44.3,128.4
			l2.8,1l44.3-128.4L261.6,912.4z M594.2,1044h67.5v-3h-67.5V1044z M617.5,912.5h-67.5v3h67.5V912.5z M548.5,914.5l44.3,128.4l2.8-1
			l-44.3-128.4L548.5,914.5z M620.8,1044h67.5v-3h-67.5V1044z M689.7,1042l-44.3-128.4l-2.8,1l44.3,128.4L689.7,1042z M644,912.5
			h-67.5v3H644V912.5z M575.1,914.5l44.3,128.4l2.8-1l-44.3-128.4L575.1,914.5z M169.1,847.7l-37.1,0.6l0,3l37.1-0.6L169.1,847.7z
			 M132,848.3c-44.8,0-81.2-36.4-81.2-81.2h-3c0,46.5,37.7,84.2,84.2,84.2V848.3z M50.8,767.1V313.5h-3v453.6H50.8z M50.8,313.5
			c0-44.9,36.4-81.2,81.2-81.2v-3c-46.5,0-84.2,37.7-84.2,84.2H50.8z M132,232.3l37.1-0.6l0-3l-37.1,0.6L132,232.3z M622.6,847.7
			H169.1v3h453.5V847.7z M169.1,847.7c-44.8,0-81.2-36.4-81.2-81.2h-3c0,46.5,37.7,84.2,84.2,84.2V847.7z M87.9,766.5V312.9h-3
			v453.6H87.9z M87.9,312.9c0-44.9,36.4-81.2,81.2-81.2v-3c-46.5,0-84.2,37.7-84.2,84.2H87.9z M169.1,231.7h453.5v-3H169.1V231.7z
			 M622.6,231.7c44.8,0,81.2,36.4,81.2,81.2h3c0-46.5-37.7-84.2-84.2-84.2V231.7z M703.8,312.9v453.6h3V312.9H703.8z M703.8,766.5
			c0,44.9-36.4,81.2-81.2,81.2v3c46.5,0,84.2-37.7,84.2-84.2H703.8z"/>
	</g>
	<g id="paint-screen">
		<path id="Vector_2" class="st2" d="M119.8,270.1l550.3,544.4"/>
		<path id="Vector_3" class="st2" d="M668.9,273.7L118.6,818.2"/>
		<path id="Vector_4" class="st2" d="M534.1,817.1H258c-75.7,0-137.1-61.4-137.1-137.1V403.9c0-75.7,61.4-137.1,137.1-137.1h276.1
			c75.7,0,137.1,61.4,137.1,137.1V680C671.2,755.7,609.8,817.1,534.1,817.1z"/>
		<path id="Vector_5" class="st2" d="M636.4,266.8v551.1"/>
		<path id="Vector_6" class="st2" d="M500.8,266.8v551.1"/>
		<path id="Vector_7" class="st2" d="M395.7,266.8v551.1"/>
		<path id="Vector_8" class="st2" d="M292,266.8v551.1"/>
		<path id="Vector_9" class="st2" d="M155.7,274.9V826"/>
		<path id="Vector_10" class="st2" d="M114.2,303.8h565.5"/>
		<path id="Vector_11" class="st2" d="M114.2,439.3h565.5"/>
		<path id="Vector_12" class="st2" d="M114.2,544.5h565.5"/>
		<path id="Vector_13" class="st2" d="M114.2,648.2h565.5"/>
		<path id="Vector_14" class="st2" d="M122.4,784.5h551"/>
		<path id="Vector_15" class="st2" d="M396.2,648.4c57.1,0,103.4-46.8,103.4-104.5s-46.3-104.5-103.4-104.5
			c-57.1,0-103.4,46.8-103.4,104.5S339.1,648.4,396.2,648.4z"/>
		<path id="Vector_16" class="st2" d="M397.3,688.9c80.9,0,146.5-65.6,146.5-146.5S478.2,396,397.3,396s-146.5,65.6-146.5,146.5
			S316.4,688.9,397.3,688.9z"/>
		<path id="Vector_17" class="st2" d="M396,763.8c122.1,0,221.1-99,221.1-221.1s-99-221.1-221.1-221.1
			c-122.1,0-221.1,99-221.1,221.1S273.9,763.8,396,763.8z"/>
	</g>
	<g id="colour-palette">
		<path id="Vector_18" class="st3" d="M367.7,301.2c67.6,0,229.1-19.4,229.1-143C596.8,34.6,471.6,2.1,367.7,2.1
			c-103.9,0-216,48.7-216,102c0,53.3,92.7,34.8,92.7,71.1s-80.4,3.1-80.4,32.5C164.1,237,232.8,301.2,367.7,301.2z"/>
		<path id="Vector_19" class="st4" d="M437.6,186.4c19.4,0,35.2-15.7,35.2-35.2c0-19.4-15.7-35.2-35.2-35.2
			c-19.4,0-35.2,15.7-35.2,35.2C402.5,170.7,418.2,186.4,437.6,186.4z"/>
		<path id="Vector_20" class="st5" d="M347.2,97.5c19.4,0,35.2-15.7,35.2-35.2s-15.7-35.2-35.2-35.2c-19.4,0-35.2,15.7-35.2,35.2
			S327.8,97.5,347.2,97.5z"/>
		<path id="Vector_21" class="st6" d="M439.2,97.5c19.4,0,35.2-15.7,35.2-35.2s-15.7-35.2-35.2-35.2c-19.4,0-35.2,15.7-35.2,35.2
			S419.7,97.5,439.2,97.5z"/>
		<path id="Vector_22" class="st7" d="M525.7,143.1c19.4,0,35.2-15.7,35.2-35.2c0-19.4-15.7-35.2-35.2-35.2
			c-19.4,0-35.2,15.7-35.2,35.2C490.5,127.4,506.3,143.1,525.7,143.1z"/>
		<path id="Vector_23" class="st8" d="M525.7,229.7c19.4,0,35.2-15.7,35.2-35.2c0-19.4-15.7-35.2-35.2-35.2
			c-19.4,0-35.2,15.7-35.2,35.2C490.5,213.9,506.3,229.7,525.7,229.7z"/>
		<path id="Vector_24" class="st9" d="M439.2,275.3c19.4,0,35.2-15.7,35.2-35.2c0-19.4-15.7-35.2-35.2-35.2
			c-19.4,0-35.2,15.7-35.2,35.2C404,259.6,419.7,275.3,439.2,275.3z"/>
		<path id="Vector_25" class="st10" d="M347.2,280.7c19.4,0,35.2-15.7,35.2-35.2c0-19.4-15.7-35.2-35.2-35.2
			c-19.4,0-35.2,15.7-35.2,35.2C312,265,327.8,280.7,347.2,280.7z"/>
		<path id="Vector_26" class="st11" d="M345.7,191.8c19.4,0,35.2-15.7,35.2-35.2s-15.7-35.2-35.2-35.2c-19.4,0-35.2,15.7-35.2,35.2
			S326.2,191.8,345.7,191.8z"/>
		<path id="Vector_27" class="st12" d="M269.2,112.9c4-10.6-5.7-24.1-21.6-30.2c-16-6-32.1-2.3-36.2,8.3c-4,10.6,5.7,24.1,21.6,30.2
			C249,127.2,265.1,123.5,269.2,112.9z"/>
	</g>
	<g id="text_bubble">
		<path id="Vector_30_1_" class="st0" d="M704.2,356.3"/>
	</g>
</g>
</svg>
