<svg width="1042" height="1171" viewBox="0 0 1042 1171" fill="none" xmlns="http://www.w3.org/2000/svg">
<g id="paint">
<g id="clear-button">
<path id="Vector" d="M511.654 1170.38H297.299C287.339 1170.38 279.268 1162.31 279.268 1152.35V1118.37C279.268 1108.41 287.339 1100.34 297.299 1100.34H511.654C521.614 1100.34 529.685 1108.41 529.685 1118.37V1152.35C529.685 1162.31 521.614 1170.38 511.654 1170.38Z" fill="#FF8D1E"/>
<g id="Clear">
<path d="M347 1135.2C347 1123.89 352.814 1116 363.755 1116C372.734 1116 377.394 1121.29 378.339 1128.92L373.31 1129.43C372.586 1123.88 369.213 1120.2 363.51 1120.2C356.297 1120.2 352.201 1126.22 352.201 1135.14C352.201 1143.75 356.089 1150.29 363.62 1150.29C368.858 1150.29 372.55 1146.81 373.58 1141.31L378.351 1142.14C376.953 1149.1 372.488 1154.59 363.62 1154.59C352.188 1154.6 347 1145.88 347 1135.2Z" fill="white"/>
<path d="M388.237 1153.72H383.822V1116.1H388.237V1153.72Z" fill="white"/>
<path d="M416.571 1142.04H398.148C398.197 1147.12 401.264 1150.45 405.875 1150.45C409.199 1150.45 411.64 1148.68 412.781 1145.51L416.412 1147.12C414.596 1151.84 410.806 1154.33 405.569 1154.33C398.148 1154.33 393.745 1149.61 393.745 1141.05C393.745 1132.39 398.099 1127.14 405.52 1127.14C412.523 1127.14 416.571 1131.14 416.571 1138.91V1142.04ZM412.106 1137.9C412.106 1133.12 409.666 1130.63 405.409 1130.63C400.846 1130.63 398.246 1133.59 398.148 1138.47H412.106V1137.9Z" fill="white"/>
<path d="M419.478 1146.72C419.478 1144.12 420.778 1141.9 423.109 1140.6C425.084 1139.61 427.573 1138.99 431.83 1138.47L436.65 1137.9V1137.48C436.65 1132.71 434.933 1130.78 430.947 1130.78C427.414 1130.78 425.243 1132.65 425.034 1135.92H420.312C420.68 1130.63 424.826 1127.15 430.897 1127.15C437.999 1127.15 441.115 1130.36 441.115 1137.95V1144.95C441.115 1148.95 441.372 1151.7 441.998 1153.72H437.386C437.178 1152.37 437.018 1150.65 436.969 1149C435.779 1152.32 432.504 1154.35 428.248 1154.35C422.949 1154.35 419.478 1151.33 419.478 1146.72ZM436.699 1142.41V1141.11L429.646 1142.15C425.807 1142.73 424.151 1144.08 424.151 1146.62C424.151 1149.16 426.065 1150.72 429.242 1150.72C433.743 1150.72 436.699 1147.44 436.699 1142.41Z" fill="white"/>
<path d="M459.992 1127.15C460.298 1127.15 460.617 1127.15 460.924 1127.2V1131.51H460.715C458.017 1131.51 456.251 1132.28 455.012 1133.53C452.522 1136.02 452.412 1139.5 452.412 1142.61V1153.71H447.996V1127.76H452.093V1133.68C453.356 1130.06 456.054 1127.15 459.992 1127.15Z" fill="white"/>
</g>
</g>
<g id="structure">
<path d="M761.237 849.785H40.4179V912.911H761.237V849.785Z" fill="white"/>
<path d="M218.688 1041.36H151.141L195.432 912.911H262.979L218.688 1041.36Z" fill="white"/>
<path d="M620.783 1042.46H688.33L644.039 914.015H576.491L620.783 1042.46Z" fill="white"/>
<path d="M622.61 849.233H169.073C123.395 849.233 86.3653 812.199 86.3653 766.516V312.928C86.3653 267.246 123.395 230.211 169.073 230.211H622.61C668.288 230.211 705.318 267.246 705.318 312.928V766.516C705.318 812.199 668.288 849.233 622.61 849.233Z" fill="white"/>
<path d="M722.478 851.285C723.306 851.285 723.978 850.613 723.978 849.785C723.978 848.956 723.306 848.285 722.478 848.285V851.285ZM1.6582 849.785V848.285C0.829776 848.285 0.158203 848.956 0.158203 849.785H1.6582ZM1.6582 912.911H0.158203C0.158203 913.74 0.829776 914.411 1.6582 914.411L1.6582 912.911ZM722.478 914.411C723.306 914.411 723.978 913.74 723.978 912.911C723.978 912.083 723.306 911.411 722.478 911.411V914.411ZM761.237 849.785H762.737C762.737 848.956 762.066 848.285 761.237 848.285V849.785ZM40.4179 849.785V848.285C39.5895 848.285 38.9179 848.956 38.9179 849.785H40.4179ZM40.4179 912.911H38.9179C38.9179 913.74 39.5895 914.411 40.4179 914.411V912.911ZM761.237 912.911V914.411C762.066 914.411 762.737 913.74 762.737 912.911H761.237ZM192.108 1042.86C192.936 1042.86 193.608 1042.19 193.608 1041.36C193.608 1040.53 192.936 1039.86 192.108 1039.86V1042.86ZM124.573 1041.36L123.155 1040.87C122.997 1041.33 123.07 1041.84 123.352 1042.23C123.633 1042.63 124.088 1042.86 124.573 1042.86V1041.36ZM168.864 912.911V911.411C168.225 911.411 167.655 911.817 167.446 912.422L168.864 912.911ZM236.4 914.411C237.228 914.411 237.9 913.74 237.9 912.911C237.9 912.083 237.228 911.411 236.4 911.411V914.411ZM218.688 1041.36V1042.86C219.328 1042.86 219.897 1042.45 220.106 1041.85L218.688 1041.36ZM151.141 1041.36L149.723 1040.87C149.564 1041.33 149.638 1041.84 149.919 1042.23C150.201 1042.63 150.656 1042.86 151.141 1042.86V1041.36ZM195.432 912.911V911.411C194.792 911.411 194.223 911.817 194.014 912.422L195.432 912.911ZM262.979 912.911L264.397 913.4C264.555 912.942 264.482 912.435 264.201 912.04C263.919 911.646 263.464 911.411 262.979 911.411V912.911ZM594.215 1042.46L592.797 1042.95C593.006 1043.56 593.575 1043.96 594.215 1043.96V1042.46ZM661.75 1043.96C662.579 1043.96 663.25 1043.29 663.25 1042.46C663.25 1041.64 662.579 1040.96 661.75 1040.96V1043.96ZM617.459 915.515C618.287 915.515 618.959 914.844 618.959 914.015C618.959 913.187 618.287 912.515 617.459 912.515V915.515ZM549.924 914.015V912.515C549.439 912.515 548.984 912.75 548.702 913.144C548.421 913.539 548.348 914.046 548.506 914.504L549.924 914.015ZM620.783 1042.46L619.365 1042.95C619.573 1043.56 620.143 1043.96 620.783 1043.96V1042.46ZM688.33 1042.46V1043.96C688.815 1043.96 689.27 1043.73 689.551 1043.33C689.833 1042.94 689.906 1042.43 689.748 1041.97L688.33 1042.46ZM644.039 914.015L645.457 913.526C645.248 912.921 644.678 912.515 644.039 912.515V914.015ZM576.491 914.015V912.515C576.006 912.515 575.551 912.75 575.27 913.144C574.988 913.539 574.915 914.046 575.073 914.504L576.491 914.015ZM131.982 849.785V851.285H131.993L132.004 851.285L131.982 849.785ZM131.982 230.763V232.263H131.993L132.004 232.263L131.982 230.763ZM722.478 848.285H1.6582V851.285H722.478V848.285ZM0.158203 849.785V912.911H3.1582V849.785H0.158203ZM1.6582 914.411H722.478V911.411H1.6582V914.411ZM761.237 848.285H40.4179V851.285H761.237V848.285ZM38.9179 849.785V912.911H41.9179V849.785H38.9179ZM40.4179 914.411H761.237V911.411H40.4179V914.411ZM762.737 912.911V849.785H759.737V912.911H762.737ZM192.108 1039.86H124.573V1042.86H192.108V1039.86ZM125.991 1041.85L170.283 913.4L167.446 912.422L123.155 1040.87L125.991 1041.85ZM168.864 914.411H236.4V911.411H168.864V914.411ZM218.688 1039.86H151.141V1042.86H218.688V1039.86ZM152.559 1041.85L196.85 913.4L194.014 912.422L149.723 1040.87L152.559 1041.85ZM195.432 914.411H262.979V911.411H195.432V914.411ZM261.561 912.422L217.27 1040.87L220.106 1041.85L264.397 913.4L261.561 912.422ZM594.215 1043.96H661.75V1040.96H594.215V1043.96ZM617.459 912.515H549.924V915.515H617.459V912.515ZM548.506 914.504L592.797 1042.95L595.633 1041.97L551.342 913.526L548.506 914.504ZM620.783 1043.96H688.33V1040.96H620.783V1043.96ZM689.748 1041.97L645.457 913.526L642.62 914.504L686.912 1042.95L689.748 1041.97ZM644.039 912.515H576.491V915.515H644.039V912.515ZM575.073 914.504L619.365 1042.95L622.201 1041.97L577.909 913.526L575.073 914.504ZM169.051 847.733L131.959 848.285L132.004 851.285L169.095 850.733L169.051 847.733ZM131.982 848.285C87.1326 848.285 50.7738 811.922 50.7738 767.068H47.7738C47.7738 813.579 85.4754 851.285 131.982 851.285V848.285ZM50.7738 767.068V313.48H47.7738V767.068H50.7738ZM50.7738 313.48C50.7738 268.626 87.1326 232.263 131.982 232.263V229.263C85.4754 229.263 47.7738 266.969 47.7738 313.48H50.7738ZM132.004 232.263L169.095 231.711L169.051 228.712L131.959 229.264L132.004 232.263ZM622.61 847.733H169.073V850.733H622.61V847.733ZM169.073 847.733C124.224 847.733 87.8653 811.37 87.8653 766.516H84.8653C84.8653 813.027 122.567 850.733 169.073 850.733V847.733ZM87.8653 766.516V312.928H84.8653V766.516H87.8653ZM87.8653 312.928C87.8653 268.074 124.224 231.711 169.073 231.711V228.711C122.567 228.711 84.8653 266.417 84.8653 312.928H87.8653ZM169.073 231.711H622.61V228.711H169.073V231.711ZM622.61 231.711C667.459 231.711 703.818 268.074 703.818 312.928H706.818C706.818 266.417 669.116 228.711 622.61 228.711V231.711ZM703.818 312.928V766.516H706.818V312.928H703.818ZM703.818 766.516C703.818 811.37 667.459 847.733 622.61 847.733V850.733C669.116 850.733 706.818 813.027 706.818 766.516H703.818Z" fill="#FF9500"/>
</g>
<g id="paint-screen">
<path id="Vector_2" d="M119.777 270.092L670.054 814.493" stroke="#FF8D1E" stroke-width="3" stroke-miterlimit="10" stroke-linecap="round" stroke-linejoin="round"/>
<path id="Vector_3" d="M668.913 273.747L118.648 818.16" stroke="#FF8D1E" stroke-width="3" stroke-miterlimit="10" stroke-linecap="round" stroke-linejoin="round"/>
<path id="Vector_4" d="M534.076 817.093H257.975C182.258 817.093 120.893 755.709 120.893 679.996V403.864C120.893 328.14 182.271 266.767 257.975 266.767H534.076C609.792 266.767 671.158 328.152 671.158 403.864V679.996C671.17 755.709 609.792 817.093 534.076 817.093Z" stroke="#FF8D1E" stroke-width="3" stroke-miterlimit="10" stroke-linecap="round" stroke-linejoin="round"/>
<path id="Vector_5" d="M636.36 266.755V817.829" stroke="#FF8D1E" stroke-width="3" stroke-miterlimit="10" stroke-linecap="round" stroke-linejoin="round"/>
<path id="Vector_6" d="M500.824 266.755V817.829" stroke="#FF8D1E" stroke-width="3" stroke-miterlimit="10" stroke-linecap="round" stroke-linejoin="round"/>
<path id="Vector_7" d="M395.658 266.755V817.829" stroke="#FF8D1E" stroke-width="3" stroke-miterlimit="10" stroke-linecap="round" stroke-linejoin="round"/>
<path id="Vector_8" d="M291.976 266.755V817.829" stroke="#FF8D1E" stroke-width="3" stroke-miterlimit="10" stroke-linecap="round" stroke-linejoin="round"/>
<path id="Vector_9" d="M155.703 274.9V825.974" stroke="#FF8D1E" stroke-width="3" stroke-miterlimit="10" stroke-linecap="round" stroke-linejoin="round"/>
<path id="Vector_10" d="M114.221 303.79H679.719" stroke="#FF8D1E" stroke-width="3" stroke-miterlimit="10" stroke-linecap="round" stroke-linejoin="round"/>
<path id="Vector_11" d="M114.221 439.328H679.719" stroke="#FF8D1E" stroke-width="3" stroke-miterlimit="10" stroke-linecap="round" stroke-linejoin="round"/>
<path id="Vector_12" d="M114.221 544.519H679.719" stroke="#FF8D1E" stroke-width="3" stroke-miterlimit="10" stroke-linecap="round" stroke-linejoin="round"/>
<path id="Vector_13" d="M114.221 648.212H679.719" stroke="#FF8D1E" stroke-width="3" stroke-miterlimit="10" stroke-linecap="round" stroke-linejoin="round"/>
<path id="Vector_14" d="M122.377 784.5H673.39" stroke="#FF8D1E" stroke-width="3" stroke-miterlimit="10" stroke-linecap="round" stroke-linejoin="round"/>
<path id="Vector_15" d="M396.222 648.384C453.314 648.384 499.597 601.58 499.597 543.844C499.597 486.108 453.314 439.304 396.222 439.304C339.129 439.304 292.846 486.108 292.846 543.844C292.846 601.58 339.129 648.384 396.222 648.384Z" stroke="#FF8D1E" stroke-width="3" stroke-miterlimit="10" stroke-linecap="round" stroke-linejoin="round"/>
<path id="Vector_16" d="M397.289 688.939C478.186 688.939 543.766 623.351 543.766 542.445C543.766 461.539 478.186 395.952 397.289 395.952C316.392 395.952 250.812 461.539 250.812 542.445C250.812 623.351 316.392 688.939 397.289 688.939Z" stroke="#FF8D1E" stroke-width="3" stroke-miterlimit="10" stroke-linecap="round" stroke-linejoin="round"/>
<path id="Vector_17" d="M396.026 763.768C518.123 763.768 617.103 664.777 617.103 542.666C617.103 420.555 518.123 321.564 396.026 321.564C273.928 321.564 174.948 420.555 174.948 542.666C174.948 664.777 273.928 763.768 396.026 763.768Z" stroke="#FF8D1E" stroke-width="3" stroke-miterlimit="10" stroke-linecap="round" stroke-linejoin="round"/>
</g>
<g id="colour-palette">
<path id="Vector_18" d="M367.679 301.213C435.3 301.213 596.803 281.856 596.803 158.204C596.803 34.5515 471.619 2.09277 367.679 2.09277C263.74 2.09277 151.692 50.7808 151.692 104.106C151.692 157.431 244.421 138.883 244.421 175.206C244.421 211.529 164.056 178.297 164.056 207.664C164.056 237.044 232.842 301.213 367.679 301.213Z" fill="white" stroke="#FF9500" stroke-width="3" stroke-miterlimit="10"/>
<path id="Vector_19" d="M437.619 186.418C457.04 186.418 472.785 170.672 472.785 151.248C472.785 131.825 457.04 116.079 437.619 116.079C418.197 116.079 402.453 131.825 402.453 151.248C402.453 170.672 418.197 186.418 437.619 186.418Z" fill="#0072FF"/>
<path id="Vector_20" d="M347.208 97.543C366.63 97.543 382.374 81.797 382.374 62.3733C382.374 42.9496 366.63 27.2036 347.208 27.2036C327.787 27.2036 312.042 42.9496 312.042 62.3733C312.042 81.797 327.787 97.543 347.208 97.543Z" fill="#4DC4FF"/>
<path id="Vector_21" d="M439.164 97.543C458.586 97.543 474.33 81.797 474.33 62.3733C474.33 42.9496 458.586 27.2036 439.164 27.2036C419.743 27.2036 403.999 42.9496 403.999 62.3733C403.999 81.797 419.743 97.543 439.164 97.543Z" fill="#FF224D"/>
<path id="Vector_22" d="M525.711 143.14C545.133 143.14 560.877 127.394 560.877 107.97C560.877 88.5463 545.133 72.8003 525.711 72.8003C506.29 72.8003 490.545 88.5463 490.545 107.97C490.545 127.394 506.29 143.14 525.711 143.14Z" fill="#8D8C92"/>
<path id="Vector_23" d="M525.711 229.696C545.133 229.696 560.877 213.95 560.877 194.526C560.877 175.103 545.133 159.357 525.711 159.357C506.29 159.357 490.545 175.103 490.545 194.526C490.545 213.95 506.29 229.696 525.711 229.696Z" fill="#FF350E"/>
<path id="Vector_24" d="M439.164 275.305C458.586 275.305 474.33 259.559 474.33 240.135C474.33 220.712 458.586 204.966 439.164 204.966C419.743 204.966 403.999 220.712 403.999 240.135C403.999 259.559 419.743 275.305 439.164 275.305Z" fill="#3BDB57"/>
<path id="Vector_25" d="M347.208 280.715C366.63 280.715 382.374 264.969 382.374 245.545C382.374 226.122 366.63 210.376 347.208 210.376C327.787 210.376 312.042 226.122 312.042 245.545C312.042 264.969 327.787 280.715 347.208 280.715Z" fill="#FF9500"/>
<path id="Vector_26" d="M345.663 191.828C365.084 191.828 380.829 176.082 380.829 156.658C380.829 137.234 365.084 121.488 345.663 121.488C326.241 121.488 310.497 137.234 310.497 156.658C310.497 176.082 326.241 191.828 345.663 191.828Z" fill="#FFCC00"/>
<path id="Vector_27" d="M269.158 112.862C273.175 102.227 263.501 88.7207 247.55 82.6944C231.599 76.668 215.412 80.4041 211.395 91.0392C207.378 101.674 217.052 115.181 233.003 121.207C248.953 127.234 265.141 123.498 269.158 112.862Z" fill="white" stroke="#FF9500" stroke-width="3" stroke-miterlimit="10" stroke-linecap="round" stroke-linejoin="round"/>
</g>
<g id="text bubble">
<path id="Vector_28" d="M998.751 287.732H783.034C760.048 287.732 741.416 269.098 741.416 246.11V204.23C741.416 181.241 760.048 162.608 783.034 162.608H998.751C1021.74 162.608 1040.37 181.241 1040.37 204.23V246.11C1040.37 269.086 1021.74 287.732 998.751 287.732Z" fill="white"/>
<path id="Vector_29" d="M998.751 287.732H783.034C760.048 287.732 741.416 269.098 741.416 246.11V204.23C741.416 181.241 760.048 162.608 783.034 162.608H998.751C1021.74 162.608 1040.37 181.241 1040.37 204.23V246.11C1040.37 269.086 1021.74 287.732 998.751 287.732Z" stroke="#FF9500" stroke-width="3" stroke-miterlimit="10" stroke-dasharray="21.11 21.11"/>
<path id="Vector_30" d="M924.114 287.732V356.317H704.214" fill="white"/>
<path id="Vector_31" d="M924.114 287.732V300.612" stroke="#FF9500" stroke-width="3" stroke-miterlimit="10"/>
<path id="Vector_32" d="M924.114 314.891V336.297" stroke="#FF9500" stroke-width="3" stroke-miterlimit="10" stroke-dasharray="11.64 11.64"/>
<path id="Vector_33" d="M924.114 343.437V356.317H911.235" stroke="#FF9500" stroke-width="3" stroke-miterlimit="10"/>
<path id="Vector_34" d="M883.502 356.317H730.966" stroke="#FF9500" stroke-width="3" stroke-miterlimit="10" stroke-dasharray="22.61 22.61"/>
<path id="Vector_35" d="M717.093 356.317H704.214" stroke="#FF9500" stroke-width="3" stroke-miterlimit="10"/>
<g id="Vector_36">
<path d="M775.38 198.955C774.619 198.955 773.797 198.93 773.27 198.771V196.526C773.981 196.649 774.877 196.649 775.404 196.649C776.876 196.649 778.201 196.109 778.201 193.594V180.419H780.617V193.766C780.629 197.839 778.09 198.955 775.38 198.955Z" fill="#FF8D1E"/>
<path d="M784.702 193.913V185.792H786.873V193.668C786.873 195.802 787.792 196.98 789.473 196.98C791.509 196.98 792.883 195.25 792.883 192.65V185.792H795.054V198.526H793.018V196.133C792.429 197.691 790.847 198.832 789.068 198.832C785.855 198.82 784.702 196.894 784.702 193.913Z" fill="#FF8D1E"/>
<path d="M798.353 194.6L800.549 194.22C800.88 196.084 802.082 197.053 803.959 197.053C805.664 197.053 806.608 196.342 806.608 195.14C806.608 193.864 805.946 193.3 804.572 193.153L802.511 192.919C799.985 192.637 798.795 191.214 798.795 189.252C798.795 186.933 800.635 185.486 803.64 185.486C806.547 185.486 808.509 187.019 808.792 189.362L806.657 189.84C806.375 188.307 805.333 187.24 803.603 187.24C801.923 187.24 800.929 187.927 800.929 189.153C800.929 190.245 801.641 190.908 803.223 191.092L805.259 191.325C807.786 191.607 808.779 192.932 808.779 194.944C808.779 197.36 807.001 198.844 803.885 198.844C800.831 198.82 798.819 197.323 798.353 194.6Z" fill="#FF8D1E"/>
<path d="M810.177 185.78H812.545V182.443L814.716 181.523V185.78H817.905V187.559H814.716V194.612C814.716 196.06 815.28 196.698 816.58 196.698C817.144 196.698 817.476 196.624 817.905 196.514V198.501C817.341 198.648 816.838 198.734 816.016 198.734C813.268 198.734 812.557 197.053 812.557 194.686V187.559H810.19V185.78H810.177Z" fill="#FF8D1E"/>
<path d="M829.729 185.78V188.148C830.539 186.393 832.023 185.473 833.887 185.473C836.966 185.473 839.026 188.123 839.026 192.147C839.026 196.219 836.831 198.82 833.752 198.82C831.79 198.82 830.416 197.753 829.852 196.501V203.481H827.681V185.78H829.729ZM836.733 192.147C836.733 189.141 835.457 187.387 833.323 187.387C831.189 187.387 829.803 189.068 829.803 191.815V192.429C829.803 195.177 831.127 196.919 833.237 196.919C835.408 196.919 836.733 195.127 836.733 192.147Z" fill="#FF8D1E"/>
<path d="M842.314 180.689H844.779V183.413H842.314V180.689ZM842.461 185.78H844.632V198.513H842.461V185.78Z" fill="#FF8D1E"/>
<path d="M848.066 192.147C848.066 188 850.311 185.473 853.929 185.473C856.91 185.473 858.848 187.178 859.179 190.11L856.959 190.368C856.726 188.43 855.61 187.362 853.88 187.362C851.685 187.362 850.36 189.141 850.36 192.122C850.36 195.177 851.685 196.931 853.954 196.931C855.683 196.931 856.75 195.888 857.082 193.901L859.142 194.232C858.688 197.139 856.775 198.82 853.917 198.82C850.36 198.82 848.066 196.232 848.066 192.147Z" fill="#FF8D1E"/>
<path d="M867.213 192.282L864.895 194.625V198.526H862.724V180.051H864.895V192.048L870.599 185.78H873.432L868.771 190.699L873.739 198.526H871.065L867.213 192.282Z" fill="#FF8D1E"/>
<path d="M880.865 195.078C880.865 193.803 881.503 192.711 882.643 192.073C883.612 191.582 884.839 191.288 886.924 191.03L889.291 190.748V190.54C889.291 188.197 888.445 187.252 886.495 187.252C884.765 187.252 883.698 188.172 883.588 189.779H881.27C881.454 187.178 883.49 185.473 886.47 185.473C889.966 185.473 891.487 187.056 891.487 190.773V194.208C891.487 196.17 891.61 197.52 891.916 198.513H889.647C889.549 197.851 889.463 197.004 889.439 196.195C888.85 197.826 887.243 198.82 885.158 198.82C882.57 198.82 880.865 197.348 880.865 195.078ZM889.328 192.969V192.331L885.869 192.846C883.98 193.128 883.171 193.79 883.171 195.042C883.171 196.293 884.115 197.053 885.673 197.053C887.868 197.041 889.328 195.434 889.328 192.969Z" fill="#FF8D1E"/>
<path d="M901.214 192.147C901.214 188 903.458 185.473 907.077 185.473C910.057 185.473 911.995 187.178 912.326 190.11L910.106 190.368C909.873 188.43 908.757 187.362 907.028 187.362C904.832 187.362 903.507 189.141 903.507 192.122C903.507 195.177 904.832 196.931 907.101 196.931C908.831 196.931 909.898 195.888 910.229 193.901L912.29 194.232C911.836 197.139 909.922 198.82 907.064 198.82C903.507 198.82 901.214 196.232 901.214 192.147Z" fill="#FF8D1E"/>
<path d="M914.608 192.147C914.608 188 916.951 185.473 920.544 185.473C924.138 185.473 926.481 188 926.481 192.147C926.481 196.305 924.138 198.82 920.544 198.82C916.951 198.82 914.608 196.305 914.608 192.147ZM924.187 192.147C924.187 188.982 922.838 187.362 920.544 187.362C918.251 187.362 916.902 188.994 916.902 192.147C916.902 195.299 918.251 196.931 920.544 196.931C922.838 196.943 924.187 195.312 924.187 192.147Z" fill="#FF8D1E"/>
<path d="M932.209 198.526H930.038V180.051H932.209V198.526Z" fill="#FF8D1E"/>
<path d="M935.766 192.147C935.766 188 938.109 185.473 941.703 185.473C945.297 185.473 947.639 188 947.639 192.147C947.639 196.305 945.297 198.82 941.703 198.82C938.109 198.82 935.766 196.305 935.766 192.147ZM945.346 192.147C945.346 188.982 943.997 187.362 941.703 187.362C939.409 187.362 938.06 188.994 938.06 192.147C938.06 195.299 939.409 196.931 941.703 196.931C943.997 196.931 945.346 195.312 945.346 192.147Z" fill="#FF8D1E"/>
<path d="M950.694 193.913V185.792H952.865V193.668C952.865 195.802 953.785 196.98 955.465 196.98C957.501 196.98 958.875 195.25 958.875 192.65V185.792H961.046V198.526H959.01V196.133C958.421 197.691 956.839 198.832 955.06 198.832C951.847 198.82 950.694 196.894 950.694 193.913Z" fill="#FF8D1E"/>
<path d="M971.509 185.473C971.656 185.473 971.815 185.473 971.962 185.498V187.608H971.864C970.54 187.608 969.669 187.988 969.068 188.601C967.841 189.828 967.792 191.533 967.792 193.054V198.501H965.621V185.768H967.633V188.675C968.246 186.909 969.571 185.473 971.509 185.473Z" fill="#FF8D1E"/>
<path d="M773.908 228.298C773.908 227.022 774.546 225.93 775.686 225.292C776.655 224.814 777.882 224.507 779.967 224.25L782.334 223.967V223.759C782.334 221.416 781.488 220.471 779.538 220.471C777.808 220.471 776.741 221.391 776.631 222.998H774.313C774.497 220.398 776.533 218.693 779.513 218.693C783.009 218.693 784.53 220.275 784.53 223.992V227.427C784.53 229.389 784.653 230.739 784.959 231.732H782.69C782.592 231.07 782.506 230.224 782.481 229.414C781.893 231.046 780.286 232.039 778.201 232.039C775.613 232.051 773.908 230.567 773.908 228.298ZM782.359 226.188V225.55L778.9 226.065C777.011 226.347 776.201 227.01 776.201 228.261C776.201 229.512 777.146 230.273 778.704 230.273C780.912 230.26 782.359 228.653 782.359 226.188Z" fill="#FF8D1E"/>
<path d="M788.786 218.999H790.822V221.526C791.669 219.588 793.067 218.643 795.078 218.643C797.875 218.643 799.335 220.398 799.335 223.82V231.745H797.164V223.955C797.164 221.71 796.219 220.569 794.367 220.569C792.257 220.569 790.957 222.275 790.957 225.108V231.757H788.786V218.999Z" fill="#FF8D1E"/>
<path d="M802.377 225.378C802.377 221.453 804.621 218.705 807.798 218.705C809.478 218.705 810.729 219.392 811.539 220.901V213.283H813.71V231.757H811.674V229.39C810.913 231.095 809.54 232.064 807.553 232.064C804.462 232.052 802.377 229.377 802.377 225.378ZM811.6 225.673V225.084C811.6 222.311 810.276 220.606 808.141 220.606C805.97 220.606 804.682 222.361 804.682 225.366C804.682 228.347 805.983 230.126 808.141 230.126C810.251 230.138 811.6 228.408 811.6 225.673Z" fill="#FF8D1E"/>
<path d="M827.08 218.999V221.367C827.889 219.613 829.373 218.693 831.238 218.693C834.316 218.693 836.377 221.342 836.377 225.366C836.377 229.439 834.182 232.039 831.103 232.039C829.14 232.039 827.767 230.972 827.202 229.721V236.701H825.031V218.999H827.08ZM834.083 225.378C834.083 222.373 832.808 220.619 830.674 220.619C828.539 220.619 827.153 222.299 827.153 225.047V225.66C827.153 228.408 828.478 230.15 830.588 230.15C832.759 230.138 834.083 228.347 834.083 225.378Z" fill="#FF8D1E"/>
<path d="M838.536 228.298C838.536 227.022 839.174 225.93 840.314 225.292C841.283 224.814 842.51 224.507 844.595 224.25L846.962 223.967V223.759C846.962 221.416 846.116 220.471 844.166 220.471C842.436 220.471 841.369 221.391 841.259 222.998H838.941C839.125 220.398 841.161 218.693 844.141 218.693C847.637 218.693 849.158 220.275 849.158 223.992V227.427C849.158 229.389 849.281 230.739 849.587 231.732H847.318C847.22 231.07 847.134 230.224 847.11 229.414C846.521 231.046 844.914 232.039 842.829 232.039C840.253 232.051 838.536 230.567 838.536 228.298ZM846.999 226.188V225.55L843.54 226.065C841.651 226.347 840.842 227.01 840.842 228.261C840.842 229.512 841.786 230.273 843.344 230.273C845.552 230.26 846.999 228.653 846.999 226.188Z" fill="#FF8D1E"/>
<path d="M853.267 213.909H855.732V216.632H853.267V213.909ZM853.414 218.999H855.585V231.733H853.414V218.999Z" fill="#FF8D1E"/>
<path d="M860.16 218.999H862.196V221.526C863.043 219.588 864.441 218.643 866.453 218.643C869.249 218.643 870.709 220.398 870.709 223.82V231.745H868.538V223.955C868.538 221.71 867.593 220.569 865.741 220.569C863.631 220.569 862.331 222.275 862.331 225.108V231.757H860.16V218.999Z" fill="#FF8D1E"/>
<path d="M872.745 218.999H875.112V215.663L877.283 214.743V218.999H880.472V220.778H877.283V227.832C877.283 229.279 877.848 229.917 879.148 229.917C879.712 229.917 880.043 229.843 880.472 229.733V231.72C879.908 231.867 879.405 231.953 878.583 231.953C875.836 231.953 875.125 230.273 875.125 227.905V220.778H872.757V218.999H872.745Z" fill="#FF8D1E"/>
<path d="M888.506 236.762V234.848C888.838 234.873 889.144 234.897 889.426 234.897C890.959 234.897 891.745 234.21 892.333 232.53L892.664 231.585L887.599 218.999H890.015L893.278 227.868C893.511 228.506 893.633 229.009 893.707 229.377H893.756C893.83 229.021 893.989 228.506 894.185 227.868L897.141 218.999H899.484L894.517 232.554C893.339 235.793 891.818 236.86 889.672 236.86C889.291 236.86 888.911 236.836 888.506 236.762Z" fill="#FF8D1E"/>
<path d="M900.502 225.378C900.502 221.232 902.845 218.705 906.439 218.705C910.033 218.705 912.375 221.232 912.375 225.378C912.375 229.537 910.033 232.051 906.439 232.051C902.845 232.051 900.502 229.524 900.502 225.378ZM910.082 225.378C910.082 222.213 908.733 220.594 906.439 220.594C904.145 220.594 902.796 222.226 902.796 225.378C902.796 228.531 904.145 230.162 906.439 230.162C908.733 230.162 910.082 228.531 910.082 225.378Z" fill="#FF8D1E"/>
<path d="M915.43 227.132V219.012H917.601V226.887C917.601 229.021 918.521 230.199 920.201 230.199C922.237 230.199 923.611 228.469 923.611 225.869V219.012H925.782V231.745H923.746V229.353C923.157 230.911 921.575 232.051 919.796 232.051C916.57 232.051 915.43 230.113 915.43 227.132Z" fill="#FF8D1E"/>
<path d="M936.232 218.693C936.38 218.693 936.539 218.693 936.686 218.717V220.827H936.588C935.263 220.827 934.393 221.207 933.791 221.821C932.565 223.047 932.516 224.753 932.516 226.274V231.72H930.345V218.987H932.356V221.894C932.97 220.128 934.294 218.693 936.232 218.693Z" fill="#FF8D1E"/>
<path d="M943.947 225.378C943.947 221.232 946.29 218.705 949.884 218.705C953.478 218.705 955.821 221.232 955.821 225.378C955.821 229.537 953.478 232.051 949.884 232.051C946.29 232.051 943.947 229.524 943.947 225.378ZM953.527 225.378C953.527 222.213 952.178 220.594 949.884 220.594C947.59 220.594 946.241 222.226 946.241 225.378C946.241 228.531 947.59 230.162 949.884 230.162C952.178 230.162 953.527 228.531 953.527 225.378Z" fill="#FF8D1E"/>
<path d="M957.599 218.999H959.844L962.138 228.089C962.236 228.543 962.346 229.083 962.42 229.598H962.469C962.542 229.083 962.702 228.555 962.8 228.089L965.118 218.999H967.461L969.779 228.089C969.877 228.543 970.037 229.083 970.11 229.598H970.159C970.233 229.083 970.343 228.555 970.441 228.089L972.735 218.999H974.98L971.386 231.732H969.019L966.602 222.557C966.504 222.152 966.369 221.514 966.32 221.134H966.271C966.222 221.514 966.087 222.152 965.989 222.557L963.573 231.732H961.205L957.599 218.999Z" fill="#FF8D1E"/>
<path d="M977.899 218.999H979.935V221.526C980.781 219.588 982.18 218.643 984.191 218.643C986.988 218.643 988.448 220.398 988.448 223.82V231.745H986.277V223.955C986.277 221.71 985.332 220.569 983.48 220.569C981.37 220.569 980.07 222.275 980.07 225.108V231.757H977.899V218.999Z" fill="#FF8D1E"/>
<path d="M774.901 247.128H777.367V249.851H774.901V247.128ZM775.048 252.219H777.22V264.952H775.048V252.219Z" fill="#FF8D1E"/>
<path d="M780.654 258.597C780.654 254.451 782.899 251.924 786.517 251.924C789.498 251.924 791.435 253.629 791.767 256.561L789.547 256.819C789.314 254.881 788.197 253.813 786.468 253.813C784.272 253.813 782.948 255.592 782.948 258.573C782.948 261.627 784.272 263.382 786.542 263.382C788.271 263.382 789.338 262.339 789.669 260.352L791.73 260.683C791.276 263.59 789.363 265.271 786.505 265.271C782.948 265.271 780.654 262.67 780.654 258.597Z" fill="#FF8D1E"/>
<path d="M794.048 258.597C794.048 254.451 796.391 251.924 799.985 251.924C803.578 251.924 805.921 254.451 805.921 258.597C805.921 262.756 803.578 265.271 799.985 265.271C796.391 265.271 794.048 262.744 794.048 258.597ZM803.628 258.597C803.628 255.433 802.278 253.813 799.985 253.813C797.691 253.813 796.342 255.445 796.342 258.597C796.342 261.75 797.691 263.382 799.985 263.382C802.278 263.382 803.628 261.75 803.628 258.597Z" fill="#FF8D1E"/>
<path d="M809.356 252.219H811.392V254.746C812.238 252.807 813.636 251.863 815.648 251.863C818.445 251.863 819.904 253.617 819.904 257.04V264.964H817.733V257.174C817.733 254.93 816.789 253.789 814.937 253.789C812.827 253.789 811.527 255.494 811.527 258.328V264.976H809.356V252.219Z" fill="#FF8D1E"/>
<path d="M824.357 246.49H827.153L826.515 260.327H824.982L824.357 246.49ZM827.104 264.964H824.406V262.265H827.104V264.964Z" fill="#FF8D1E"/>
</g>
</g>
</g>
</svg>
