<svg width="1004" height="1481" viewBox="0 0 1004 1481" fill="none" xmlns="http://www.w3.org/2000/svg">
<path d="M48.5557 523.052L938.394 1402.78" stroke="#00BFFF" stroke-width="3" stroke-miterlimit="10" stroke-linecap="round"/>
<path d="M936.555 528.979L46.7168 1408.69" stroke="#00BFFF" stroke-width="3" stroke-miterlimit="10" stroke-linecap="round"/>
<path d="M750.82 1406.96H239.734C135.145 1406.96 50.3579 1322.23 50.3579 1217.7V706.932C50.3579 602.407 135.145 517.672 239.734 517.672H750.832C855.421 517.672 940.208 602.407 940.208 706.932V1217.72C940.196 1322.23 855.409 1406.96 750.82 1406.96Z" stroke="#00BFFF" stroke-width="3" stroke-miterlimit="10" stroke-linecap="round"/>
<path d="M883.907 517.672V1408.16" stroke="#00BFFF" stroke-width="3" stroke-miterlimit="10" stroke-linecap="round"/>
<path d="M664.742 517.672V1408.16" stroke="#00BFFF" stroke-width="3" stroke-miterlimit="10" stroke-linecap="round"/>
<path d="M494.681 517.672V1408.16" stroke="#00BFFF" stroke-width="3" stroke-miterlimit="10" stroke-linecap="round"/>
<path d="M327.006 517.672V1408.16" stroke="#00BFFF" stroke-width="3" stroke-miterlimit="10" stroke-linecap="round"/>
<path d="M106.647 530.829V1421.33" stroke="#00BFFF" stroke-width="3" stroke-miterlimit="10" stroke-linecap="round"/>
<path d="M39.5801 577.517H954.031" stroke="#00BFFF" stroke-width="3" stroke-miterlimit="10" stroke-linecap="round"/>
<path d="M39.5801 796.548H954.031" stroke="#00BFFF" stroke-width="3" stroke-miterlimit="10" stroke-linecap="round"/>
<path d="M39.5801 966.504H954.031" stroke="#00BFFF" stroke-width="3" stroke-miterlimit="10" stroke-linecap="round"/>
<path d="M39.5801 1134.06H954.031" stroke="#00BFFF" stroke-width="3" stroke-miterlimit="10" stroke-linecap="round"/>
<path d="M52.7573 1354.3H943.789" stroke="#00BFFF" stroke-width="3" stroke-miterlimit="10" stroke-linecap="round"/>
<path d="M495.594 1134.36C587.922 1134.36 662.769 1058.72 662.769 965.421C662.769 872.121 587.922 796.487 495.594 796.487C403.266 796.487 328.419 872.121 328.419 965.421C328.419 1058.72 403.266 1134.36 495.594 1134.36Z" stroke="#00BFFF" stroke-width="3" stroke-miterlimit="10" stroke-linecap="round"/>
<path d="M497.311 1199.87C628.125 1199.87 734.172 1093.89 734.172 963.158C734.172 832.423 628.125 726.442 497.311 726.442C366.496 726.442 260.45 832.423 260.45 963.158C260.45 1093.89 366.496 1199.87 497.311 1199.87Z" stroke="#00BFFF" stroke-width="3" stroke-miterlimit="10" stroke-linecap="round"/>
<path d="M495.277 1320.78C692.713 1320.78 852.767 1160.82 852.767 963.51C852.767 766.196 692.713 606.241 495.277 606.241C297.841 606.241 137.788 766.196 137.788 963.51C137.788 1160.82 297.841 1320.78 495.277 1320.78Z" stroke="#00BFFF" stroke-width="3" stroke-miterlimit="10" stroke-linecap="round"/>
<path d="M55.5098 63.3504C55.5098 55.6582 57.5558 49.7309 61.6599 45.5563C65.7641 41.3938 71.7194 39.3125 79.5502 39.3125H210.579C214.233 39.3125 217.083 40.2253 219.104 42.051C221.126 43.8767 222.137 46.4326 222.137 49.7188C222.137 53.1267 221.126 55.7434 219.104 57.5691C217.083 59.3948 214.245 60.3076 210.579 60.3076H140.139V142.243C140.139 144.897 140.869 146.978 142.318 148.487C143.768 149.996 145.826 150.763 148.469 150.763H152.451C154.972 150.763 156.994 150.008 158.516 148.487C160.026 146.978 160.793 144.897 160.793 142.243V102.334C160.793 94.5083 162.876 88.5567 167.041 84.455C171.206 80.3534 177.137 78.3086 184.846 78.3086H221.394C229.091 78.3086 235.022 80.3655 239.199 84.455C243.364 88.5567 245.446 94.5205 245.446 102.334V147.757C245.446 155.449 243.364 161.376 239.199 165.551C235.034 169.726 229.103 171.795 221.394 171.795H79.5624C71.7316 171.795 65.7641 169.713 61.6721 165.551C57.5679 161.388 55.5219 155.461 55.5219 147.757V63.3504H55.5098Z" fill="#00BFFF"/>
<path d="M282.542 171.782C274.712 171.782 268.744 169.701 264.652 165.539C260.548 161.376 258.502 155.449 258.502 147.745V63.3504C258.502 55.6582 260.548 49.7309 264.652 45.5563C268.756 41.3938 274.712 39.3125 282.542 39.3125H425.129C432.57 39.3125 438.318 41.3329 442.362 45.3737C446.405 49.4145 448.426 55.2079 448.426 62.7783V73.002C448.426 80.4507 446.405 86.1833 442.362 90.2241C438.318 94.2649 432.582 96.2853 425.129 96.2853H381.201V106.692H424.374C432.071 106.692 438.002 108.748 442.179 112.838C446.344 116.94 448.426 122.903 448.426 130.717V147.745C448.426 155.437 446.344 161.364 442.179 165.539C438.014 169.713 432.083 171.782 424.374 171.782H387.826C380.129 171.782 374.198 169.701 370.021 165.539C365.856 161.376 363.773 155.449 363.773 147.745V115.394H343.131V147.757C343.131 155.449 341.048 161.376 336.883 165.551C332.718 169.726 326.726 171.795 318.895 171.795H282.542V171.782ZM355.443 88.3376C357.964 88.3376 359.986 87.6073 361.508 86.159C363.018 84.7106 363.786 82.6537 363.786 80.0126V67.5129C363.786 64.8596 363.03 62.8148 361.508 61.3665C359.998 59.9181 357.976 59.1879 355.443 59.1879H343.131V88.3254H355.443V88.3376Z" fill="#00BFFF"/>
<path d="M461.104 63.3504C461.104 55.6582 463.151 49.7309 467.255 45.5563C471.359 41.3938 477.326 39.3125 485.145 39.3125H521.498C529.329 39.3125 535.321 41.3938 539.486 45.5563C543.651 49.7188 545.733 55.6461 545.733 63.3504V147.745C545.733 155.437 543.651 161.364 539.486 165.539C535.321 169.701 529.329 171.782 521.498 171.782H485.145C477.314 171.782 471.347 169.701 467.255 165.539C463.151 161.376 461.104 155.449 461.104 147.745V63.3504Z" fill="#00BFFF"/>
<path d="M582.293 171.782C574.463 171.782 568.495 169.701 564.403 165.539C560.299 161.376 558.253 155.449 558.253 147.745V63.3504C558.253 55.6582 560.299 49.7309 564.403 45.5563C568.507 41.3938 574.463 39.3125 582.293 39.3125H693.447C711.252 39.3125 724.819 43.9862 734.16 53.3214C743.501 62.6566 748.177 76.2882 748.177 94.1919V116.903C748.177 134.697 743.501 148.292 734.16 157.688C724.819 167.084 711.252 171.782 693.447 171.782H582.293ZM655.194 151.919C657.715 151.919 659.737 151.189 661.259 149.741C662.769 148.292 663.536 146.235 663.536 143.594V67.525C663.536 64.8717 662.781 62.827 661.259 61.3787C659.749 59.9303 657.727 59.2 655.194 59.2H642.882V151.931H655.194V151.919Z" fill="#00BFFF"/>
<path d="M773.155 171.782C769.368 171.782 766.457 170.87 764.448 169.044C762.426 167.218 761.415 164.602 761.415 161.194C761.415 157.786 762.426 155.205 764.448 153.441C766.469 151.676 769.368 150.787 773.155 150.787H845.861V123.354C845.861 120.7 845.106 118.619 843.584 117.11C842.074 115.601 839.991 114.834 837.336 114.834H785.273C777.442 114.834 771.475 112.789 767.383 108.688C763.278 104.586 761.232 98.6221 761.232 90.8083V63.3504C761.232 55.6582 763.278 49.7309 767.383 45.5563C771.487 41.3938 777.442 39.3125 785.273 39.3125H916.314C919.968 39.3125 922.818 40.2253 924.839 42.051C926.861 43.8767 927.872 46.4326 927.872 49.7188C927.872 53.1267 926.861 55.7434 924.839 57.5691C922.818 59.3948 919.98 60.3076 916.314 60.3076H845.873V85.4774C845.873 88.1307 846.604 90.2119 848.053 91.7211C849.503 93.2303 851.561 93.9971 854.204 93.9971H906.279C914.11 93.9971 920.102 96.054 924.267 100.144C928.432 104.245 930.514 110.209 930.514 118.023V147.732C930.514 155.425 928.432 161.352 924.267 165.526C920.102 169.701 914.11 171.77 906.279 171.77H773.155V171.782Z" fill="#00BFFF"/>
<path d="M912.697 424.673H80.7193C57.8967 424.673 39.3975 406.185 39.3975 383.377V285.594C39.3975 262.786 57.8967 244.298 80.7193 244.298H912.697C935.52 244.298 954.019 262.786 954.019 285.594V383.377C954.031 406.173 935.52 424.673 912.697 424.673Z" fill="#D7F7FF" stroke="#00BFFF" stroke-width="3" stroke-miterlimit="10" stroke-linecap="round" stroke-linejoin="round"/>
<path d="M83.9833 279.85V282.174H77.4921V300.504H74.7519V282.174H68.2607V279.85H83.9833Z" fill="#00BFFF"/>
<path d="M93.4704 285.606C94.6395 285.606 96.0279 285.923 97.0508 286.884C97.9886 287.785 98.4757 289.148 98.4757 291.509V300.504H96.0035V291.655C96.0035 288.479 94.3959 287.785 92.8614 287.785C89.6828 287.785 88.9034 290.84 88.9034 292.909V300.504H86.4312V279.411H88.9034V288.612C89.5732 286.86 91.3756 285.606 93.4704 285.606Z" fill="#00BFFF"/>
<path d="M114.819 293.871H104.601C104.601 296.609 106.172 298.678 108.876 298.678C110.8 298.678 111.994 297.485 112.725 296.086L114.819 297.193C113.601 299.603 111.616 300.857 108.876 300.857C104.309 300.857 102.056 297.717 102.056 292.946C102.056 288.491 104.614 285.606 108.693 285.606C113.151 285.606 114.868 288.807 114.868 292.763C114.868 293.116 114.844 293.493 114.819 293.871ZM108.584 287.529C105.929 287.529 104.589 289.708 104.589 291.838H112.31C112.371 289.513 111.202 287.529 108.584 287.529Z" fill="#00BFFF"/>
<path d="M146.983 279.411V300.504H144.657V297.802C143.78 299.688 142.416 300.857 140.029 300.857C136.388 300.857 134.025 297.826 134.025 293.201C134.025 288.637 136.558 285.606 140.406 285.606C142.392 285.606 143.78 286.677 144.511 288.113V279.411H146.983ZM140.638 287.785C138.129 287.785 136.643 289.793 136.643 293.201C136.643 296.572 138.129 298.678 140.54 298.678C143.013 298.678 144.559 296.694 144.559 293.554V292.885C144.572 289.769 143.061 287.785 140.638 287.785Z" fill="#00BFFF"/>
<path d="M163.728 293.871H153.511C153.511 296.609 155.082 298.678 157.785 298.678C159.71 298.678 160.903 297.485 161.634 296.086L163.728 297.193C162.511 299.603 160.525 300.857 157.785 300.857C153.218 300.857 150.965 297.717 150.965 292.946C150.965 288.491 153.523 285.606 157.603 285.606C162.06 285.606 163.777 288.807 163.777 292.763C163.789 293.116 163.765 293.493 163.728 293.871ZM157.505 287.529C154.85 287.529 153.511 289.708 153.511 291.838H161.232C161.281 289.513 160.124 287.529 157.505 287.529Z" fill="#00BFFF"/>
<path d="M168.04 296.025L170.548 295.587C170.926 297.717 172.29 298.812 174.445 298.812C176.394 298.812 177.478 297.997 177.478 296.633C177.478 295.173 176.723 294.54 175.152 294.37L172.789 294.102C169.903 293.785 168.539 292.154 168.539 289.915C168.539 287.262 170.634 285.606 174.068 285.606C177.393 285.606 179.634 287.347 179.95 290.025L177.502 290.572C177.186 288.832 175.992 287.602 174.007 287.602C172.083 287.602 170.95 288.394 170.95 289.781C170.95 291.035 171.766 291.789 173.569 291.996L175.895 292.264C178.781 292.58 179.914 294.102 179.914 296.402C179.914 299.165 177.88 300.857 174.324 300.857C170.865 300.857 168.563 299.141 168.04 296.025Z" fill="#00BFFF"/>
<path d="M184.895 298.471H189.559V287.992H185.333V285.96H192.031V298.471H196.951V300.504H184.895V298.471ZM192.299 283.051H188.804V279.558H192.299V283.051Z" fill="#00BFFF"/>
<path d="M210.64 287.115C211.481 287.955 211.956 289.124 211.956 290.487C211.956 293.457 209.739 295.465 206.475 295.465C205.452 295.465 204.527 295.258 203.772 294.881C203.163 295.173 202.749 295.672 202.749 296.341C202.749 297.242 203.504 297.802 205.16 297.802H208.911C211.943 297.802 213.661 299.287 213.661 301.757C213.661 304.812 211.006 306.528 206.463 306.528C202.322 306.528 199.85 305.104 199.85 302.828C199.85 301.258 200.837 300.09 202.383 299.566C201.19 299.067 200.544 298.203 200.544 296.974C200.544 295.635 201.299 294.649 202.639 294.15C201.701 293.311 201.178 292.081 201.178 290.633C201.178 287.663 203.358 285.594 206.597 285.594C207.669 285.594 208.606 285.825 209.398 286.239C209.922 284.523 211.115 283.562 212.918 283.562C213.234 283.562 213.587 283.586 213.843 283.683V285.838C213.405 285.777 213.149 285.716 212.772 285.716C211.712 285.728 211.042 286.166 210.64 287.115ZM205.075 299.98C204.636 299.98 204.234 299.956 203.857 299.919C202.895 300.358 202.31 301.137 202.31 302.135C202.31 303.68 203.735 304.496 206.731 304.496C209.849 304.496 211.188 303.619 211.188 302.025C211.188 300.711 210.251 299.992 208.363 299.992H205.075V299.98ZM209.617 290.499C209.617 288.759 208.363 287.505 206.585 287.505C204.782 287.505 203.528 288.783 203.528 290.584C203.528 292.361 204.746 293.578 206.5 293.578C208.314 293.578 209.617 292.276 209.617 290.499Z" fill="#00BFFF"/>
<path d="M224 285.606C225.193 285.606 226.533 285.923 227.52 286.86C228.482 287.761 228.92 289.16 228.92 291.522V300.516H226.448V291.668C226.448 288.491 224.877 287.797 223.415 287.797C220.127 287.797 219.336 290.852 219.336 292.921V300.516H216.863V285.959H219.189V288.844C219.957 287.006 221.552 285.606 224 285.606Z" fill="#00BFFF"/>
<path d="M248.723 293.238C248.723 288.613 251.426 285.619 255.506 285.619C259.586 285.619 262.29 288.613 262.29 293.238C262.29 297.863 259.586 300.857 255.506 300.857C251.426 300.857 248.723 297.802 248.723 293.238ZM259.671 293.238C259.671 289.83 258.124 287.761 255.506 287.761C252.888 287.761 251.341 289.793 251.341 293.238C251.341 296.67 252.888 298.715 255.506 298.715C258.124 298.703 259.671 296.67 259.671 293.238Z" fill="#00BFFF"/>
<path d="M277.903 287.968H272.373V300.516H269.901V287.968H265.444V285.959H269.901V284.353C269.901 281.03 271.765 279.314 275.382 279.314C276.222 279.314 276.928 279.399 277.915 279.606V281.785C277.269 281.699 276.49 281.553 275.382 281.553C273.165 281.553 272.386 282.308 272.386 284.523V285.947H277.915V287.968H277.903Z" fill="#00BFFF"/>
<path d="M297.96 285.959H302.126V282.15L304.598 281.103V285.959H310.273V287.968H304.598V295.501C304.598 297.449 305.536 298.386 307.399 298.386C308.361 298.386 309.384 298.301 310.285 298.13V300.394C309.53 300.565 308.714 300.771 307.435 300.771C303.794 300.771 302.138 298.739 302.138 295.854V287.968H297.973V285.959H297.96Z" fill="#00BFFF"/>
<path d="M321.745 285.606C322.914 285.606 324.303 285.923 325.326 286.884C326.264 287.785 326.751 289.148 326.751 291.509V300.504H324.278V291.655C324.278 288.479 322.683 287.785 321.136 287.785C317.958 287.785 317.178 290.84 317.178 292.909V300.504H314.706V279.411H317.178V288.612C317.848 286.86 319.651 285.606 321.745 285.606Z" fill="#00BFFF"/>
<path d="M343.094 293.871H332.876C332.876 296.609 334.447 298.678 337.151 298.678C339.075 298.678 340.269 297.485 340.999 296.086L343.094 297.193C341.876 299.603 339.891 300.857 337.151 300.857C332.584 300.857 330.343 297.717 330.343 292.946C330.343 288.491 332.901 285.606 336.981 285.606C341.438 285.606 343.155 288.807 343.155 292.763C343.155 293.116 343.119 293.493 343.094 293.871ZM336.859 287.529C334.204 287.529 332.864 289.708 332.864 291.838H340.585C340.646 289.513 339.477 287.529 336.859 287.529Z" fill="#00BFFF"/>
<path d="M364.261 298.471H368.925V287.992H364.699V285.96H371.397V298.471H376.317V300.504H364.261V298.471ZM371.653 283.051H368.158V279.558H371.653V283.051Z" fill="#00BFFF"/>
<path d="M379.252 293.14C379.252 288.807 381.469 285.606 386.036 285.606C389.263 285.606 391.601 287.469 391.942 290.816L389.409 291.108C389.141 288.953 387.924 287.761 385.853 287.761C383.174 287.761 381.81 289.915 381.81 293.116C381.81 296.439 383.174 298.678 385.951 298.678C388.082 298.678 389.214 297.4 389.555 295.185L391.918 295.562C391.455 298.532 389.555 300.857 385.951 300.857C381.53 300.857 379.252 297.51 379.252 293.14Z" fill="#00BFFF"/>
<path d="M395.474 293.238C395.474 288.613 398.178 285.619 402.258 285.619C406.337 285.619 409.041 288.613 409.041 293.238C409.041 297.863 406.337 300.857 402.258 300.857C398.178 300.857 395.474 297.802 395.474 293.238ZM406.423 293.238C406.423 289.83 404.876 287.761 402.258 287.761C399.639 287.761 398.093 289.793 398.093 293.238C398.093 296.67 399.639 298.715 402.258 298.715C404.876 298.703 406.423 296.67 406.423 293.238Z" fill="#00BFFF"/>
<path d="M419.673 285.606C420.866 285.606 422.206 285.923 423.192 286.86C424.154 287.761 424.593 289.16 424.593 291.522V300.516H422.121V291.668C422.121 288.491 420.55 287.797 419.088 287.797C415.8 287.797 415.008 290.852 415.008 292.921V300.516H412.536V285.959H414.862V288.844C415.617 287.006 417.225 285.606 419.673 285.606Z" fill="#00BFFF"/>
<path d="M428.929 296.025L431.437 295.587C431.815 297.717 433.179 298.812 435.335 298.812C437.283 298.812 438.367 297.997 438.367 296.633C438.367 295.173 437.612 294.54 436.041 294.37L433.678 294.102C430.792 293.785 429.428 292.154 429.428 289.915C429.428 287.262 431.523 285.606 434.957 285.606C438.282 285.606 440.523 287.347 440.839 290.025L438.391 290.572C438.075 288.832 436.881 287.602 434.896 287.602C432.972 287.602 431.839 288.394 431.839 289.781C431.839 291.035 432.655 291.789 434.458 291.996L436.784 292.264C439.67 292.58 440.803 294.102 440.803 296.402C440.803 299.165 438.769 300.857 435.213 300.857C431.754 300.857 429.452 299.141 428.929 296.025Z" fill="#00BFFF"/>
<path d="M473.478 300.504H470.884C470.762 299.688 470.677 298.727 470.652 297.851C469.69 299.883 468.119 300.845 465.732 300.845C462.846 300.845 460.836 299.068 460.836 296.56C460.836 295.051 461.531 293.883 462.87 293.128C463.832 292.605 465.403 292.227 467.815 291.935L470.47 291.619V291.351C470.47 288.759 469.508 287.627 467.352 287.627C465.282 287.627 464.064 288.674 463.942 290.511H461.287C461.555 287.396 463.82 285.594 467.522 285.594C471.273 285.594 472.966 287.456 472.966 291.643V295.575C472.978 297.924 473.125 299.433 473.478 300.504ZM467.047 293.907C464.514 294.26 463.467 294.978 463.467 296.439C463.467 297.924 464.49 298.824 466.207 298.824C468.826 298.824 470.518 297.023 470.518 294.163V293.432L467.047 293.907Z" fill="#00BFFF"/>
<path d="M487.69 285.667C488.738 285.667 489.7 285.789 490.309 285.959V288.259C489.724 288.113 488.652 287.967 487.605 287.967C484.11 287.967 481.321 290.353 481.321 295.1V300.516H478.849V285.959H481.297V289.744C482.271 287.444 484.658 285.667 487.69 285.667Z" fill="#00BFFF"/>
<path d="M506.141 293.871H495.923C495.923 296.609 497.494 298.678 500.197 298.678C502.122 298.678 503.315 297.485 504.046 296.086L506.141 297.193C504.923 299.603 502.938 300.857 500.197 300.857C495.63 300.857 493.377 297.717 493.377 292.946C493.377 288.491 495.935 285.606 500.015 285.606C504.472 285.606 506.189 288.807 506.189 292.763C506.202 293.116 506.177 293.493 506.141 293.871ZM499.917 287.529C497.262 287.529 495.923 289.708 495.923 291.838H503.644C503.705 289.513 502.536 287.529 499.917 287.529Z" fill="#00BFFF"/>
<path d="M538.694 300.504H536.1C535.978 299.688 535.893 298.727 535.869 297.851C534.907 299.883 533.335 300.845 530.948 300.845C528.062 300.845 526.053 299.068 526.053 296.56C526.053 295.051 526.747 293.883 528.087 293.128C529.049 292.605 530.62 292.227 533.031 291.935L535.686 291.619V291.351C535.686 288.759 534.724 287.627 532.568 287.627C530.498 287.627 529.28 288.674 529.158 290.511H526.503C526.771 287.396 529.036 285.594 532.739 285.594C536.49 285.594 538.183 287.456 538.183 291.643V295.575C538.207 297.924 538.353 299.433 538.694 300.504ZM532.264 293.907C529.731 294.26 528.683 294.978 528.683 296.439C528.683 297.924 529.706 298.824 531.423 298.824C534.042 298.824 535.735 297.023 535.735 294.163V293.432L532.264 293.907Z" fill="#00BFFF"/>
<path d="M543.614 298.471H548.279V281.444H543.907V279.411H550.751V298.471H555.671V300.504H543.614V298.471Z" fill="#00BFFF"/>
<path d="M559.373 296.025L561.882 295.587C562.259 297.717 563.623 298.812 565.779 298.812C567.728 298.812 568.811 297.997 568.811 296.633C568.811 295.173 568.056 294.54 566.485 294.37L564.123 294.102C561.236 293.785 559.872 292.154 559.872 289.915C559.872 287.262 561.967 285.606 565.401 285.606C568.726 285.606 570.967 287.347 571.284 290.025L568.836 290.572C568.519 288.832 567.326 287.602 565.341 287.602C563.416 287.602 562.284 288.394 562.284 289.781C562.284 291.035 563.1 291.789 564.902 291.996L567.228 292.264C570.115 292.58 571.247 294.102 571.247 296.402C571.247 299.165 569.213 300.857 565.657 300.857C562.198 300.857 559.897 299.141 559.373 296.025Z" fill="#00BFFF"/>
<path d="M574.828 293.238C574.828 288.613 577.531 285.619 581.611 285.619C585.691 285.619 588.395 288.613 588.395 293.238C588.395 297.863 585.691 300.857 581.611 300.857C577.543 300.857 574.828 297.802 574.828 293.238ZM585.776 293.238C585.776 289.83 584.229 287.761 581.611 287.761C578.993 287.761 577.446 289.793 577.446 293.238C577.446 296.67 578.993 298.715 581.611 298.715C584.242 298.703 585.776 296.67 585.776 293.238Z" fill="#00BFFF"/>
<path d="M608.294 296.025L610.803 295.587C611.181 297.717 612.545 298.812 614.7 298.812C616.649 298.812 617.733 297.997 617.733 296.633C617.733 295.173 616.978 294.54 615.407 294.37L613.044 294.102C610.158 293.785 608.794 292.154 608.794 289.915C608.794 287.262 610.888 285.606 614.323 285.606C617.648 285.606 619.888 287.347 620.205 290.025L617.757 290.572C617.441 288.832 616.247 287.602 614.262 287.602C612.338 287.602 611.205 288.394 611.205 289.781C611.205 291.035 612.021 291.789 613.823 291.996L616.15 292.264C619.036 292.58 620.169 294.102 620.169 296.402C620.169 299.165 618.135 300.857 614.579 300.857C611.108 300.857 608.806 299.141 608.294 296.025Z" fill="#00BFFF"/>
<path d="M629.51 300.857C628.17 300.857 626.806 300.54 625.783 299.579C624.857 298.678 624.443 297.303 624.443 294.954V285.959H626.977V294.869C626.977 298.045 628.487 298.739 630.009 298.739C633.066 298.739 633.796 295.684 633.796 293.554V285.959H636.269V300.516H633.943V297.753C633.382 299.202 631.665 300.857 629.51 300.857Z" fill="#00BFFF"/>
<path d="M643.551 288.491C644.343 286.799 646.084 285.606 648.033 285.606C651.784 285.606 654.037 288.783 654.037 293.201C654.037 297.741 651.735 300.857 647.948 300.857C645.999 300.857 644.197 299.786 643.405 298.009L642.967 300.516H641.079V279.423H643.551V288.491ZM647.363 298.678C649.896 298.678 651.407 296.524 651.407 293.201C651.407 289.976 649.982 287.785 647.412 287.785C644.94 287.785 643.478 289.732 643.478 292.872V293.627C643.49 296.67 644.915 298.678 647.363 298.678Z" fill="#00BFFF"/>
<path d="M657.325 303.681C659.42 304.143 660.065 304.082 660.674 304.082C662.952 304.082 663.963 303.267 663.963 300.382V287.98H658.433V285.947H666.447V300.528C666.447 303.815 665.168 306.346 661.003 306.346C659.603 306.346 658.446 306.176 657.337 305.823V303.681H657.325ZM666.666 283.051H663.171V279.558H666.666V283.051Z" fill="#00BFFF"/>
<path d="M685.506 293.871H675.289C675.289 296.609 676.86 298.678 679.563 298.678C681.487 298.678 682.681 297.485 683.412 296.086L685.506 297.193C684.288 299.603 682.303 300.857 679.563 300.857C674.996 300.857 672.755 297.717 672.755 292.946C672.755 288.491 675.313 285.606 679.393 285.606C683.85 285.606 685.567 288.807 685.567 292.763C685.567 293.116 685.531 293.493 685.506 293.871ZM679.271 287.529C676.616 287.529 675.276 289.708 675.276 291.838H682.998C683.058 289.513 681.901 287.529 679.271 287.529Z" fill="#00BFFF"/>
<path d="M689.062 293.14C689.062 288.807 691.279 285.606 695.846 285.606C699.073 285.606 701.412 287.469 701.753 290.816L699.219 291.108C698.964 288.953 697.734 287.761 695.663 287.761C692.984 287.761 691.62 289.915 691.62 293.116C691.62 296.439 692.984 298.678 695.748 298.678C697.88 298.678 699.012 297.4 699.353 295.185L701.716 295.562C701.253 298.532 699.353 300.857 695.748 300.857C691.328 300.857 689.062 297.51 689.062 293.14Z" fill="#00BFFF"/>
<path d="M705.601 285.959H709.766V282.15L712.238 281.103V285.959H717.914V287.968H712.238V295.501C712.238 297.449 713.176 298.386 715.039 298.386C716.002 298.386 717.025 298.301 717.926 298.13V300.394C717.171 300.565 716.355 300.771 715.076 300.771C711.435 300.771 709.778 298.739 709.778 295.854V287.968H705.613V285.959H705.601Z" fill="#00BFFF"/>
<path d="M738.203 285.959H742.368V282.15L744.84 281.103V285.959H750.516V287.968H744.84V295.501C744.84 297.449 745.766 298.386 747.629 298.386C748.591 298.386 749.614 298.301 750.516 298.13V300.394C749.761 300.565 748.945 300.771 747.666 300.771C744.024 300.771 742.368 298.739 742.368 295.854V287.968H738.203V285.959Z" fill="#00BFFF"/>
<path d="M754.193 293.238C754.193 288.613 756.897 285.619 760.977 285.619C765.057 285.619 767.76 288.613 767.76 293.238C767.76 297.863 765.057 300.857 760.977 300.857C756.897 300.857 754.193 297.802 754.193 293.238ZM765.142 293.238C765.142 289.83 763.595 287.761 760.977 287.761C758.358 287.761 756.812 289.793 756.812 293.238C756.812 296.67 758.358 298.715 760.977 298.715C763.595 298.715 765.142 296.67 765.142 293.238Z" fill="#00BFFF"/>
<path d="M799.583 300.504H796.989C796.867 299.688 796.782 298.727 796.757 297.851C795.795 299.883 794.224 300.845 791.837 300.845C788.951 300.845 786.941 299.068 786.941 296.56C786.941 295.051 787.636 293.883 788.975 293.128C789.937 292.605 791.508 292.227 793.932 291.935L796.587 291.619V291.351C796.587 288.759 795.625 287.627 793.469 287.627C791.399 287.627 790.181 288.674 790.059 290.511H787.404C787.672 287.396 789.937 285.594 793.64 285.594C797.391 285.594 799.084 287.456 799.084 291.643V295.575C799.096 297.924 799.242 299.433 799.583 300.504ZM793.153 293.907C790.619 294.26 789.572 294.978 789.572 296.439C789.572 297.924 790.595 298.824 792.312 298.824C794.931 298.824 796.623 297.023 796.623 294.163V293.432L793.153 293.907Z" fill="#00BFFF"/>
<path d="M820.262 296.025L822.771 295.587C823.149 297.717 824.512 298.812 826.668 298.812C828.617 298.812 829.701 297.997 829.701 296.633C829.701 295.173 828.945 294.54 827.374 294.37L825.012 294.102C822.125 293.785 820.761 292.154 820.761 289.915C820.761 287.262 822.856 285.606 826.291 285.606C829.615 285.606 831.856 287.347 832.173 290.025L829.725 290.572C829.408 288.832 828.215 287.602 826.23 287.602C824.305 287.602 823.173 288.394 823.173 289.781C823.173 291.035 823.989 291.789 825.791 291.996L828.117 292.264C831.004 292.58 832.136 294.102 832.136 296.402C832.136 299.165 830.102 300.857 826.546 300.857C823.088 300.857 820.786 299.141 820.262 296.025Z" fill="#00BFFF"/>
<path d="M839.066 288.661C839.821 287.055 841.575 285.606 843.633 285.606C847.445 285.606 849.686 288.783 849.686 293.201C849.686 297.741 847.359 300.857 843.487 300.857C841.684 300.857 839.882 299.749 839.212 298.203V306.176H836.74V285.947H839.066V288.661ZM843.085 298.678C845.618 298.678 847.079 296.524 847.079 293.201C847.079 289.976 845.74 287.785 843.182 287.785C840.734 287.785 839.163 289.732 839.163 292.848V293.542C839.151 296.633 840.637 298.678 843.085 298.678Z" fill="#00BFFF"/>
<path d="M864.872 293.871H854.654C854.654 296.609 856.225 298.678 858.929 298.678C860.853 298.678 862.047 297.485 862.777 296.086L864.872 297.193C863.654 299.603 861.669 300.857 858.929 300.857C854.362 300.857 852.121 297.717 852.121 292.946C852.121 288.491 854.679 285.606 858.758 285.606C863.216 285.606 864.933 288.807 864.933 292.763C864.921 293.116 864.896 293.493 864.872 293.871ZM858.637 287.529C855.982 287.529 854.642 289.708 854.642 291.838H862.363C862.424 289.513 861.255 287.529 858.637 287.529Z" fill="#00BFFF"/>
<path d="M879.316 291.254V293.579H870.9V291.254H879.316Z" fill="#00BFFF"/>
<path d="M69.4541 332.088C69.4541 327.755 71.6706 324.554 76.2376 324.554C79.4649 324.554 81.8032 326.416 82.1441 329.763L79.611 330.055C79.3431 327.901 78.1252 326.708 76.0549 326.708C73.3756 326.708 72.0116 328.862 72.0116 332.063C72.0116 335.386 73.3756 337.625 76.1523 337.625C78.2836 337.625 79.4162 336.347 79.7572 334.132L82.1198 334.51C81.657 337.479 79.7572 339.804 76.1523 339.804C71.7193 339.804 69.4541 336.457 69.4541 332.088Z" fill="#00BFFF"/>
<path d="M87.0645 337.419H91.7288V326.939H87.5029V324.907H94.2011V337.419H99.1212V339.451H87.0645V337.419ZM94.4568 321.998H90.9616V318.505H94.4568V321.998Z" fill="#00BFFF"/>
<path d="M114.844 326.915H109.315V339.463H106.843V326.915H102.385V324.907H106.843V323.3C106.843 319.977 108.706 318.261 112.323 318.261C113.163 318.261 113.87 318.346 114.856 318.553V320.732C114.211 320.647 113.431 320.501 112.323 320.501C110.106 320.501 109.327 321.255 109.327 323.47V324.894H114.856V326.915H114.844ZM121.42 337.419H126.085V326.939H121.859V324.907H128.557V337.419H133.477V339.451H121.42V337.419ZM128.825 321.998H125.33V318.505H128.825V321.998Z" fill="#00BFFF"/>
<path d="M136.424 332.088C136.424 327.755 138.641 324.554 143.208 324.554C146.435 324.554 148.773 326.416 149.114 329.763L146.581 330.055C146.313 327.901 145.095 326.708 143.025 326.708C140.346 326.708 138.982 328.862 138.982 332.063C138.982 335.386 140.346 337.625 143.123 337.625C145.254 337.625 146.386 336.347 146.727 334.132L149.09 334.51C148.627 337.479 146.727 339.804 143.123 339.804C138.69 339.804 136.424 336.457 136.424 332.088Z" fill="#00BFFF"/>
<path d="M179.78 326.063C180.62 326.903 181.095 328.071 181.095 329.435C181.095 332.404 178.879 334.413 175.615 334.413C174.592 334.413 173.666 334.206 172.911 333.828C172.302 334.12 171.888 334.619 171.888 335.289C171.888 336.19 172.643 336.749 174.3 336.749H178.051C181.083 336.749 182.8 338.234 182.8 340.705C182.8 343.76 180.145 345.476 175.603 345.476C171.462 345.476 168.99 344.052 168.99 341.776C168.99 340.206 169.976 339.038 171.523 338.514C170.329 338.015 169.684 337.151 169.684 335.922C169.684 334.583 170.439 333.597 171.779 333.098C170.841 332.258 170.317 331.029 170.317 329.581C170.317 326.611 172.497 324.542 175.737 324.542C176.808 324.542 177.746 324.773 178.538 325.187C179.061 323.471 180.255 322.509 182.057 322.509C182.374 322.509 182.727 322.534 182.983 322.631V324.785C182.544 324.724 182.289 324.664 181.911 324.664C180.852 324.676 180.182 325.114 179.78 326.063ZM174.214 338.928C173.776 338.928 173.374 338.904 172.997 338.867C172.034 339.305 171.45 340.084 171.45 341.082C171.45 342.628 172.875 343.443 175.871 343.443C178.988 343.443 180.328 342.567 180.328 340.973C180.328 339.658 179.39 338.94 177.503 338.94H174.214V338.928ZM178.757 329.447C178.757 327.706 177.503 326.453 175.724 326.453C173.922 326.453 172.668 327.731 172.668 329.532C172.668 331.309 173.886 332.526 175.639 332.526C177.442 332.526 178.757 331.224 178.757 329.447Z" fill="#00BFFF"/>
<path d="M195.929 324.615C196.976 324.615 197.938 324.736 198.547 324.907V327.207C197.962 327.061 196.891 326.915 195.843 326.915C192.348 326.915 189.559 329.301 189.559 334.047V339.463H187.087V324.907H189.535V328.692C190.521 326.392 192.908 324.615 195.929 324.615Z" fill="#00BFFF"/>
<path d="M202.956 337.419H207.62V326.939H203.382V324.907H210.08V337.419H215V339.451H202.943V337.419H202.956ZM210.348 321.998H206.853V318.505H210.348V321.998Z" fill="#00BFFF"/>
<path d="M230.26 318.359V339.451H227.934V336.749C227.057 338.636 225.693 339.804 223.306 339.804C219.664 339.804 217.302 336.774 217.302 332.149C217.302 327.585 219.835 324.554 223.683 324.554C225.668 324.554 227.057 325.625 227.788 327.061V318.359H230.26ZM223.915 326.733C221.406 326.733 219.92 328.741 219.92 332.149C219.92 335.52 221.406 337.626 223.817 337.626C226.29 337.626 227.836 335.642 227.836 332.502V331.832C227.848 328.716 226.326 326.733 223.915 326.733Z" fill="#00BFFF"/>
<path d="M239.174 342.421C240.806 341.727 241.123 341.058 241.123 339.451H238.992V335.727H242.864V339.451C242.864 341.691 242.17 342.859 239.917 343.76L239.174 342.421Z" fill="#00BFFF"/>
<path d="M268.172 337.419H272.836V326.939H268.61V324.907H275.308V337.419H280.229V339.451H268.172V337.419ZM275.564 321.998H272.069V318.505H275.564V321.998Z" fill="#00BFFF"/>
<path d="M290.97 324.554C292.163 324.554 293.503 324.87 294.489 325.807C295.451 326.708 295.89 328.108 295.89 330.469V339.463H293.418V330.615C293.418 327.438 291.847 326.744 290.385 326.744C287.097 326.744 286.305 329.799 286.305 331.869V339.463H283.833V324.907H286.159V327.791C286.926 325.953 288.522 324.554 290.97 324.554Z" fill="#00BFFF"/>
<path d="M315.692 332.185C315.692 327.56 318.396 324.566 322.476 324.566C326.556 324.566 329.259 327.56 329.259 332.185C329.259 336.81 326.556 339.804 322.476 339.804C318.396 339.804 315.692 336.749 315.692 332.185ZM326.641 332.185C326.641 328.777 325.094 326.708 322.476 326.708C319.857 326.708 318.311 328.741 318.311 332.185C318.311 335.617 319.857 337.662 322.476 337.662C325.094 337.662 326.641 335.617 326.641 332.185Z" fill="#00BFFF"/>
<path d="M342.68 324.615C343.727 324.615 344.689 324.736 345.298 324.907V327.207C344.714 327.061 343.642 326.915 342.595 326.915C339.1 326.915 336.311 329.301 336.311 334.047V339.463H333.838V324.907H336.286V328.692C337.273 326.392 339.66 324.615 342.68 324.615Z" fill="#00BFFF"/>
<path d="M360.705 318.359V339.451H358.378V336.749C357.502 338.636 356.138 339.804 353.751 339.804C350.109 339.804 347.747 336.774 347.747 332.149C347.747 327.585 350.28 324.554 354.128 324.554C356.113 324.554 357.502 325.625 358.232 327.061V318.359H360.705ZM354.36 326.733C351.851 326.733 350.365 328.741 350.365 332.149C350.365 335.52 351.851 337.626 354.262 337.626C356.734 337.626 358.281 335.642 358.281 332.502V331.832C358.293 328.716 356.783 326.733 354.36 326.733Z" fill="#00BFFF"/>
<path d="M377.45 332.818H367.232C367.232 335.556 368.803 337.625 371.506 337.625C373.431 337.625 374.624 336.433 375.355 335.033L377.45 336.141C376.232 338.55 374.247 339.804 371.506 339.804C366.94 339.804 364.687 336.664 364.687 331.893C364.687 327.438 367.244 324.554 371.324 324.554C375.781 324.554 377.498 327.755 377.498 331.71C377.511 332.063 377.474 332.441 377.45 332.818ZM371.214 326.477C368.559 326.477 367.22 328.655 367.22 330.785H374.941C375.002 328.461 373.845 326.477 371.214 326.477Z" fill="#00BFFF"/>
<path d="M391.601 324.615C392.649 324.615 393.611 324.736 394.22 324.907V327.207C393.635 327.061 392.564 326.915 391.516 326.915C388.021 326.915 385.232 329.301 385.232 334.047V339.463H382.76V324.907H385.208V328.692C386.182 326.392 388.569 324.615 391.601 324.615Z" fill="#00BFFF"/>
<path d="M413.839 324.907H418.004V321.098L420.477 320.051V324.907H426.152V326.915H420.477V334.449C420.477 336.397 421.414 337.334 423.278 337.334C424.24 337.334 425.263 337.249 426.164 337.078V339.342C425.409 339.512 424.593 339.719 423.314 339.719C419.673 339.719 418.017 337.687 418.017 334.802V326.915H413.852V324.907H413.839Z" fill="#00BFFF"/>
<path d="M429.83 332.185C429.83 327.56 432.534 324.566 436.614 324.566C440.693 324.566 443.397 327.56 443.397 332.185C443.397 336.81 440.693 339.804 436.614 339.804C432.534 339.804 429.83 336.749 429.83 332.185ZM440.779 332.185C440.779 328.777 439.232 326.708 436.614 326.708C433.995 326.708 432.448 328.741 432.448 332.185C432.448 335.617 433.995 337.662 436.614 337.662C439.232 337.662 440.779 335.617 440.779 332.185Z" fill="#00BFFF"/>
<path d="M470.251 324.554C471.42 324.554 472.808 324.87 473.831 325.832C474.769 326.733 475.256 328.096 475.256 330.457V339.451H472.784V330.603C472.784 327.426 471.176 326.733 469.642 326.733C466.463 326.733 465.684 329.788 465.684 331.857V339.451H463.211V318.359H465.684V327.56C466.341 325.808 468.144 324.554 470.251 324.554Z" fill="#00BFFF"/>
<path d="M491.526 339.451H488.932C488.81 338.636 488.725 337.674 488.701 336.798C487.739 338.83 486.168 339.792 483.781 339.792C480.894 339.792 478.885 338.015 478.885 335.508C478.885 333.998 479.579 332.83 480.919 332.075C481.881 331.552 483.452 331.175 485.863 330.883L488.518 330.566V330.298C488.518 327.706 487.556 326.574 485.4 326.574C483.33 326.574 482.112 327.621 481.99 329.459H479.335C479.603 326.343 481.869 324.542 485.571 324.542C489.322 324.542 491.015 326.404 491.015 330.591V334.522C491.039 336.871 491.185 338.38 491.526 339.451ZM485.096 332.854C482.563 333.207 481.515 333.925 481.515 335.386C481.515 336.871 482.538 337.771 484.256 337.771C486.874 337.771 488.567 335.97 488.567 333.11V332.38L485.096 332.854Z" fill="#00BFFF"/>
<path d="M494.644 324.907H497.238L501.05 334.863C501.342 335.593 501.598 336.323 501.781 336.932H501.902C502.049 336.323 502.256 335.593 502.548 334.863L506.482 324.907H509.015L503.157 339.463H500.478L494.644 324.907Z" fill="#00BFFF"/>
<path d="M524.202 332.818H513.984C513.984 335.556 515.555 337.625 518.259 337.625C520.183 337.625 521.376 336.433 522.107 335.033L524.202 336.141C522.984 338.55 520.999 339.804 518.259 339.804C513.692 339.804 511.451 336.664 511.451 331.893C511.451 327.438 514.008 324.554 518.088 324.554C522.545 324.554 524.263 327.755 524.263 331.71C524.263 332.063 524.226 332.441 524.202 332.818ZM517.966 326.477C515.311 326.477 513.972 328.655 513.972 330.785H521.693C521.754 328.461 520.585 326.477 517.966 326.477Z" fill="#00BFFF"/>
<path d="M548.546 324.554C549.971 324.554 551.079 325.515 551.579 327.207C552.273 325.515 553.588 324.554 555.013 324.554C556.815 324.554 558.447 325.807 558.447 328.887V339.451H555.975V329.094C555.975 327.231 555.098 326.732 554.258 326.732C552.541 326.732 551.932 327.986 551.932 329.812V339.439H549.521V329.081C549.521 327.304 548.729 326.72 547.803 326.72C546.111 326.72 545.526 328.059 545.526 329.799V339.427H543.054V324.87H545.38V327.11C545.952 325.576 547.085 324.554 548.546 324.554Z" fill="#00BFFF"/>
<path d="M560.274 332.185C560.274 327.56 562.978 324.566 567.058 324.566C571.138 324.566 573.841 327.56 573.841 332.185C573.841 336.81 571.138 339.804 567.058 339.804C562.978 339.804 560.274 336.749 560.274 332.185ZM571.223 332.185C571.223 328.777 569.676 326.708 567.058 326.708C564.439 326.708 562.893 328.741 562.893 332.185C562.893 335.617 564.439 337.662 567.058 337.662C569.676 337.662 571.223 335.617 571.223 332.185Z" fill="#00BFFF"/>
<path d="M587.262 324.615C588.309 324.615 589.272 324.736 589.88 324.907V327.207C589.296 327.061 588.224 326.915 587.177 326.915C583.682 326.915 580.893 329.301 580.893 334.047V339.463H578.42V324.907H580.868V328.692C581.855 326.392 584.242 324.615 587.262 324.615Z" fill="#00BFFF"/>
<path d="M605.725 332.818H595.507C595.507 335.556 597.078 337.625 599.781 337.625C601.706 337.625 602.899 336.433 603.63 335.033L605.725 336.141C604.507 338.55 602.522 339.804 599.781 339.804C595.214 339.804 592.974 336.664 592.974 331.893C592.974 327.438 595.531 324.554 599.611 324.554C604.068 324.554 605.786 327.755 605.786 331.71C605.786 332.063 605.761 332.441 605.725 332.818ZM599.501 326.477C596.846 326.477 595.507 328.655 595.507 330.785H603.228C603.277 328.461 602.12 326.477 599.501 326.477Z" fill="#00BFFF"/>
<path d="M631.263 339.804C629.923 339.804 628.559 339.488 627.536 338.526C626.599 337.626 626.197 336.25 626.197 333.901V324.907H628.73V333.816C628.73 336.993 630.24 337.686 631.762 337.686C634.819 337.686 635.55 334.631 635.55 332.501V324.907H638.022V339.463H635.696V336.701C635.136 338.149 633.419 339.804 631.263 339.804Z" fill="#00BFFF"/>
<path d="M649.689 324.554C650.883 324.554 652.223 324.87 653.209 325.807C654.171 326.708 654.61 328.108 654.61 330.469V339.463H652.137V330.615C652.137 327.438 650.566 326.744 649.105 326.744C645.817 326.744 645.025 329.799 645.025 331.869V339.463H642.553V324.907H644.879V327.791C645.646 325.953 647.254 324.554 649.689 324.554Z" fill="#00BFFF"/>
<path d="M659.505 337.419H664.17V326.939H659.944V324.907H666.642V337.419H671.562V339.451H659.505V337.419ZM666.898 321.998H663.402V318.505H666.898V321.998Z" fill="#00BFFF"/>
<path d="M687.284 326.915H681.755V339.463H679.283V326.915H674.826V324.907H679.283V323.3C679.283 319.977 681.146 318.261 684.763 318.261C685.604 318.261 686.31 318.346 687.297 318.553V320.732C686.651 320.647 685.872 320.501 684.763 320.501C682.547 320.501 681.767 321.255 681.767 323.47V324.894H687.297V326.915H687.284Z" fill="#00BFFF"/>
<path d="M690.719 332.185C690.719 327.56 693.422 324.566 697.502 324.566C701.582 324.566 704.286 327.56 704.286 332.185C704.286 336.81 701.582 339.804 697.502 339.804C693.422 339.804 690.719 336.749 690.719 332.185ZM701.667 332.185C701.667 328.777 700.121 326.708 697.502 326.708C694.884 326.708 693.337 328.741 693.337 332.185C693.337 335.617 694.884 337.662 697.502 337.662C700.121 337.662 701.667 335.617 701.667 332.185Z" fill="#00BFFF"/>
<path d="M717.706 324.615C718.754 324.615 719.716 324.736 720.325 324.907V327.207C719.74 327.061 718.668 326.915 717.621 326.915C714.126 326.915 711.337 329.301 711.337 334.047V339.463H708.865V324.907H711.313V328.692C712.299 326.392 714.686 324.615 717.706 324.615Z" fill="#00BFFF"/>
<path d="M727.9 324.554C729.325 324.554 730.433 325.515 730.932 327.207C731.626 325.515 732.942 324.554 734.367 324.554C736.169 324.554 737.801 325.807 737.801 328.887V339.451H735.329V329.094C735.329 327.231 734.452 326.732 733.611 326.732C731.894 326.732 731.285 327.986 731.285 329.812V339.439H728.874V329.081C728.874 327.304 728.082 326.72 727.157 326.72C725.464 326.72 724.88 328.059 724.88 329.799V339.427H722.407V324.87H724.733V327.11C725.306 325.576 726.451 324.554 727.9 324.554Z" fill="#00BFFF"/>
<path d="M741.028 337.419H745.693V326.939H741.467V324.907H748.165V337.419H753.085V339.451H741.028V337.419ZM748.433 321.998H744.938V318.505H748.433V321.998Z" fill="#00BFFF"/>
<path d="M756.264 324.907H760.429V321.098L762.901 320.051V324.907H768.576V326.915H762.901V334.449C762.901 336.397 763.839 337.334 765.702 337.334C766.664 337.334 767.687 337.249 768.588 337.078V339.342C767.833 339.512 767.017 339.719 765.739 339.719C762.097 339.719 760.441 337.687 760.441 334.802V326.915H756.276V324.907H756.264Z" fill="#00BFFF"/>
<path d="M779.269 336.579L783.312 324.907H785.967L780.146 340.388C778.806 344.088 777.053 345.305 774.617 345.305C774.178 345.305 773.74 345.281 773.277 345.184V343.005C773.655 343.029 774.008 343.066 774.325 343.066C776.103 343.066 777.004 342.275 777.674 340.364L778.051 339.293L772.376 324.919H775.177L779.269 336.579Z" fill="#00BFFF"/>
<path d="M817.644 339.451H815.05C814.928 338.636 814.843 337.674 814.818 336.798C813.856 338.83 812.285 339.792 809.898 339.792C807.012 339.792 805.002 338.015 805.002 335.508C805.002 333.998 805.697 332.83 807.036 332.075C807.998 331.552 809.569 331.175 811.981 330.883L814.636 330.566V330.298C814.636 327.706 813.673 326.574 811.518 326.574C809.448 326.574 808.23 327.621 808.108 329.459H805.453C805.709 326.343 807.986 324.542 811.688 324.542C815.439 324.542 817.132 326.404 817.132 330.591V334.522C817.144 336.871 817.291 338.38 817.644 339.451ZM811.201 332.854C808.668 333.207 807.621 333.925 807.621 335.386C807.621 336.871 808.644 337.771 810.361 337.771C812.979 337.771 814.672 335.97 814.672 333.11V332.38L811.201 332.854Z" fill="#00BFFF"/>
<path d="M822.564 337.419H827.228V320.391H822.856V318.359H829.701V337.419H834.621V339.451H822.564V337.419Z" fill="#00BFFF"/>
<path d="M838.871 337.419H843.535V320.391H839.163V318.359H846.008V337.419H850.928V339.451H838.871V337.419Z" fill="#00BFFF"/>
<path d="M69.6855 363.854H73.8506V360.045L76.3229 358.998V363.854H81.9981V365.863H76.3229V373.396C76.3229 375.344 77.2606 376.281 79.1239 376.281C80.086 376.281 81.109 376.196 82.0102 376.025V378.289C81.2552 378.46 80.4392 378.667 79.1605 378.667C75.5191 378.667 73.8628 376.634 73.8628 373.749V365.863H69.6977V363.854H69.6855Z" fill="#00BFFF"/>
<path d="M85.6641 371.133C85.6641 366.508 88.3677 363.514 92.4475 363.514C96.5273 363.514 99.231 366.508 99.231 371.133C99.231 375.758 96.5273 378.752 92.4475 378.752C88.3799 378.752 85.6641 375.697 85.6641 371.133ZM96.6126 371.133C96.6126 367.725 95.0659 365.656 92.4475 365.656C89.8291 365.656 88.2825 367.688 88.2825 371.133C88.2825 374.565 89.8291 376.61 92.4475 376.61C95.0659 376.61 96.6126 374.565 96.6126 371.133Z" fill="#00BFFF"/>
<path d="M112.81 365.01C113.65 365.85 114.125 367.019 114.125 368.382C114.125 371.352 111.909 373.36 108.645 373.36C107.622 373.36 106.696 373.153 105.941 372.776C105.332 373.068 104.918 373.567 104.918 374.236C104.918 375.137 105.673 375.697 107.329 375.697H111.08C114.113 375.697 115.83 377.182 115.83 379.652C115.83 382.707 113.175 384.423 108.632 384.423C104.492 384.423 102.02 382.999 102.02 380.723C102.02 379.153 103.006 377.985 104.553 377.461C103.359 376.962 102.714 376.098 102.714 374.869C102.714 373.53 103.469 372.544 104.808 372.045C103.871 371.206 103.347 369.976 103.347 368.528C103.347 365.558 105.527 363.489 108.766 363.489C109.838 363.489 110.776 363.72 111.568 364.134C112.091 362.418 113.285 361.457 115.087 361.457C115.404 361.457 115.757 361.481 116.025 361.578V363.733C115.586 363.672 115.331 363.611 114.953 363.611C113.881 363.623 113.212 364.061 112.81 365.01ZM107.244 377.875C106.806 377.875 106.404 377.851 106.026 377.814C105.064 378.253 104.48 379.032 104.48 380.03C104.48 381.575 105.904 382.391 108.9 382.391C112.018 382.391 113.358 381.514 113.358 379.92C113.358 378.606 112.42 377.887 110.532 377.887H107.244V377.875ZM111.787 368.394C111.787 366.654 110.532 365.4 108.754 365.4C106.952 365.4 105.697 366.678 105.697 368.479C105.697 370.256 106.915 371.473 108.669 371.473C110.471 371.473 111.787 370.171 111.787 368.394Z" fill="#00BFFF"/>
<path d="M131.114 371.766H120.896C120.896 374.504 122.467 376.573 125.171 376.573C127.095 376.573 128.289 375.38 129.019 373.981L131.114 375.088C129.896 377.498 127.911 378.752 125.171 378.752C120.604 378.752 118.351 375.612 118.351 370.841C118.351 366.386 120.909 363.501 124.988 363.501C129.446 363.501 131.163 366.702 131.163 370.658C131.175 371.011 131.151 371.388 131.114 371.766ZM124.891 365.424C122.236 365.424 120.896 367.603 120.896 369.733H128.618C128.678 367.408 127.509 365.424 124.891 365.424Z" fill="#00BFFF"/>
<path d="M134.902 363.854H139.067V360.045L141.539 358.998V363.854H147.214V365.863H141.539V373.396C141.539 375.344 142.477 376.281 144.34 376.281C145.302 376.281 146.325 376.196 147.227 376.025V378.289C146.471 378.46 145.656 378.667 144.377 378.667C140.735 378.667 139.079 376.634 139.079 373.749V365.863H134.914V363.854H134.902Z" fill="#00BFFF"/>
<path d="M158.699 363.501C159.868 363.501 161.256 363.818 162.279 364.779C163.217 365.68 163.704 367.043 163.704 369.404V378.399H161.232V369.55C161.232 366.374 159.624 365.68 158.09 365.68C154.911 365.68 154.132 368.735 154.132 370.804V378.399H151.66V357.306H154.132V366.507C154.79 364.755 156.592 363.501 158.699 363.501Z" fill="#00BFFF"/>
<path d="M180.036 371.766H169.818C169.818 374.504 171.389 376.573 174.092 376.573C176.017 376.573 177.21 375.38 177.941 373.981L180.036 375.088C178.818 377.498 176.833 378.752 174.092 378.752C169.525 378.752 167.272 375.612 167.272 370.841C167.272 366.386 169.83 363.501 173.91 363.501C178.367 363.501 180.084 366.702 180.084 370.658C180.096 371.011 180.06 371.388 180.036 371.766ZM173.8 365.424C171.145 365.424 169.806 367.603 169.806 369.733H177.527C177.588 367.408 176.431 365.424 173.8 365.424Z" fill="#00BFFF"/>
<path d="M194.187 363.562C195.234 363.562 196.196 363.684 196.805 363.854V366.154C196.221 366.008 195.149 365.862 194.102 365.862C190.606 365.862 187.817 368.248 187.817 372.995V378.411H185.345V363.854H187.793V367.639C188.767 365.339 191.154 363.562 194.187 363.562Z" fill="#00BFFF"/>
<path d="M217.509 376.366H222.173V365.887H217.947V363.854H224.645V376.366H229.566V378.399H217.509V376.366ZM224.901 360.945H221.406V357.452H224.901V360.945Z" fill="#00BFFF"/>
<path d="M240.307 363.501C241.501 363.501 242.84 363.818 243.827 364.755C244.789 365.656 245.227 367.055 245.227 369.417V378.411H242.755V369.563C242.755 366.386 241.184 365.692 239.722 365.692C236.434 365.692 235.643 368.747 235.643 370.816V378.411H233.17V363.854H235.497V366.739C236.264 364.901 237.859 363.501 240.307 363.501Z" fill="#00BFFF"/>
<path d="M265.346 363.854H269.511V360.045L271.983 358.998V363.854H277.671V365.863H271.996V373.396C271.996 375.344 272.933 376.281 274.797 376.281C275.759 376.281 276.782 376.196 277.683 376.025V378.289C276.928 378.46 276.112 378.667 274.833 378.667C271.192 378.667 269.536 376.634 269.536 373.749V365.863H265.371V363.854H265.346Z" fill="#00BFFF"/>
<path d="M289.131 363.501C290.3 363.501 291.688 363.818 292.711 364.779C293.649 365.68 294.136 367.043 294.136 369.404V378.399H291.664V369.55C291.664 366.374 290.069 365.68 288.522 365.68C285.343 365.68 284.564 368.735 284.564 370.804V378.399H282.092V357.306H284.564V366.507C285.234 364.755 287.036 363.501 289.131 363.501Z" fill="#00BFFF"/>
<path d="M310.48 371.766H300.262C300.262 374.504 301.833 376.573 304.537 376.573C306.461 376.573 307.655 375.38 308.385 373.981L310.48 375.088C309.262 377.498 307.277 378.752 304.537 378.752C299.97 378.752 297.729 375.612 297.729 370.841C297.729 366.386 300.286 363.501 304.366 363.501C308.824 363.501 310.541 366.702 310.541 370.658C310.541 371.011 310.504 371.388 310.48 371.766ZM304.245 365.424C301.59 365.424 300.25 367.603 300.25 369.733H307.971C308.032 367.408 306.875 365.424 304.245 365.424Z" fill="#00BFFF"/>
<path d="M340.61 372.435H333.412L331.525 378.399H328.845L335.483 357.732H338.564L345.201 378.399H342.522L340.61 372.435ZM334.155 370.11H339.891C338.576 366.009 337.626 362.577 337.066 360.13H337.005C336.457 362.577 335.458 366.009 334.155 370.11Z" fill="#00BFFF"/>
<path d="M349.902 366.556C350.657 364.95 352.411 363.501 354.469 363.501C358.281 363.501 360.522 366.678 360.522 371.096C360.522 375.636 358.196 378.752 354.323 378.752C352.521 378.752 350.718 377.644 350.048 376.099V384.071H347.576V363.842H349.902V366.556ZM353.921 376.573C356.454 376.573 357.916 374.419 357.916 371.096C357.916 367.871 356.576 365.68 354.019 365.68C351.571 365.68 350 367.627 350 370.743V371.437C349.988 374.528 351.473 376.573 353.921 376.573Z" fill="#00BFFF"/>
<path d="M366.209 366.556C366.964 364.95 368.718 363.501 370.776 363.501C374.588 363.501 376.829 366.678 376.829 371.096C376.829 375.636 374.502 378.752 370.63 378.752C368.827 378.752 367.025 377.644 366.355 376.099V384.071H363.883V363.842H366.209V366.556ZM370.228 376.573C372.761 376.573 374.222 374.419 374.222 371.096C374.222 367.871 372.883 365.68 370.325 365.68C367.877 365.68 366.306 367.627 366.306 370.743V371.437C366.294 374.528 367.78 376.573 370.228 376.573Z" fill="#00BFFF"/>
<path d="M378.521 372.471L381.14 371.948C381.603 374.419 383.003 376.634 386.145 376.634C388.094 376.634 390.371 375.964 390.371 373.347C390.371 370.609 388.654 369.976 387.022 369.538L384.258 368.808C381.347 368.017 379.167 366.276 379.167 363.075C379.167 360.02 381.724 357.257 385.743 357.257C389.531 357.257 392.588 358.827 392.99 363.051L390.396 363.805C390.128 360.544 388.033 359.521 385.829 359.521C382.796 359.521 381.931 361.298 381.931 362.844C381.931 364.682 383.356 365.838 385.11 366.337L387.765 367.031C390.529 367.761 393.148 368.978 393.148 372.97C393.148 375.879 391.114 378.91 386.194 378.91C381.201 378.897 379.021 375.867 378.521 372.471Z" fill="#00BFFF"/>
<path d="M395.791 363.854H399.956V360.045L402.428 358.998V363.854H408.104V365.863H402.428V373.396C402.428 375.344 403.366 376.281 405.229 376.281C406.192 376.281 407.215 376.196 408.116 376.025V378.289C407.361 378.46 406.545 378.667 405.266 378.667C401.625 378.667 399.968 376.634 399.968 373.749V365.863H395.803V363.854H395.791Z" fill="#00BFFF"/>
<path d="M411.781 371.133C411.781 366.508 414.485 363.514 418.565 363.514C422.645 363.514 425.348 366.508 425.348 371.133C425.348 375.758 422.645 378.752 418.565 378.752C414.485 378.752 411.781 375.697 411.781 371.133ZM422.73 371.133C422.73 367.725 421.183 365.656 418.565 365.656C415.946 365.656 414.4 367.688 414.4 371.133C414.4 374.565 415.946 376.61 418.565 376.61C421.183 376.598 422.73 374.565 422.73 371.133Z" fill="#00BFFF"/>
<path d="M438.769 363.562C439.816 363.562 440.778 363.684 441.387 363.854V366.154C440.803 366.008 439.731 365.862 438.684 365.862C435.188 365.862 432.4 368.248 432.4 372.995V378.411H429.927V363.854H432.375V367.639C433.349 365.339 435.736 363.562 438.769 363.562Z" fill="#00BFFF"/>
<path d="M457.231 371.766H447.014C447.014 374.504 448.585 376.573 451.288 376.573C453.212 376.573 454.406 375.38 455.137 373.981L457.231 375.088C456.014 377.498 454.028 378.752 451.288 378.752C446.721 378.752 444.48 375.612 444.48 370.841C444.48 366.386 447.038 363.501 451.118 363.501C455.575 363.501 457.292 366.702 457.292 370.658C457.292 371.011 457.256 371.388 457.231 371.766ZM450.996 365.424C448.341 365.424 447.001 367.603 447.001 369.733H454.723C454.784 367.408 453.614 365.424 450.996 365.424Z" fill="#00BFFF"/>
<path d="M469.398 378.399H465.525V374.674H469.398V378.399Z" fill="#00BFFF"/>
</svg>
