<svg width="1389" height="702" viewBox="0 0 1389 702" fill="none" xmlns="http://www.w3.org/2000/svg">
<g id="rules2">
<g id="text">
<path id="Vector" d="M1342.92 344.077H487.132C462.7 344.077 442.896 324.257 442.896 299.805V253.185C442.896 228.733 462.7 208.913 487.132 208.913H1342.92C1367.35 208.913 1387.16 228.733 1387.16 253.185V299.805C1387.16 324.257 1367.35 344.077 1342.92 344.077Z" fill="#D7F7FF" stroke="#00BFFF" stroke-width="3" stroke-miterlimit="10" stroke-linecap="round" stroke-linejoin="round"/>
<g id="Vector_2">
<path d="M488.605 248.031C488.605 250.119 487.419 252.05 484.889 252.767C487.536 253.237 489.218 255.168 489.218 258.195C489.218 261.04 487.536 264.276 482.047 264.276H474.316V242.12H481.395C487.106 242.133 488.605 245.408 488.605 248.031ZM477.223 251.802H481.369C485.046 251.802 485.646 249.832 485.646 248.24C485.646 246.4 484.837 244.521 481.369 244.521H477.223V251.802ZM477.223 261.875H481.865C485.202 261.875 486.258 260.009 486.258 257.908C486.258 255.781 485.072 254.163 482.178 254.163H477.223V261.875Z" fill="#00BFFF"/>
<path d="M498.136 264.654C496.701 264.654 495.241 264.315 494.146 263.284C493.142 262.318 492.712 260.857 492.712 258.326V248.683H495.424V258.234C495.424 261.64 497.04 262.384 498.67 262.384C501.943 262.384 502.725 259.109 502.725 256.825V248.683H505.371V264.289H502.881V261.327C502.282 262.879 500.443 264.654 498.136 264.654Z" fill="#00BFFF"/>
<path d="M510.365 248.683H514.824V244.599L517.47 243.477V248.683H523.546V250.836H517.47V258.913C517.47 261.001 518.474 262.005 520.469 262.005C521.499 262.005 522.594 261.914 523.559 261.718V264.158C522.75 264.341 521.877 264.563 520.508 264.563C516.61 264.563 514.837 262.384 514.837 259.291V250.836H510.378V248.683H510.365Z" fill="#00BFFF"/>
<path d="M528.409 248.683H532.868V244.599L535.514 243.477V248.683H541.59V250.836H535.514V258.913C535.514 261.001 536.505 262.005 538.5 262.005C539.53 262.005 540.625 261.914 541.59 261.718V264.158C540.782 264.341 539.908 264.563 538.539 264.563C534.641 264.563 532.868 262.384 532.868 259.291V250.836H528.409V248.683Z" fill="#00BFFF"/>
<path d="M546.114 256.486C546.114 251.528 549.008 248.318 553.376 248.318C557.743 248.318 560.638 251.528 560.638 256.486C560.638 261.444 557.743 264.654 553.376 264.654C549.008 264.654 546.114 261.379 546.114 256.486ZM557.835 256.486C557.835 252.833 556.179 250.614 553.376 250.614C550.573 250.614 548.917 252.793 548.917 256.486C548.917 260.179 550.573 262.358 553.376 262.358C556.179 262.345 557.835 260.166 557.835 256.486Z" fill="#00BFFF"/>
<path d="M572.606 248.305C573.884 248.305 575.318 248.644 576.374 249.649C577.404 250.614 577.873 252.115 577.873 254.646V264.289H575.227V254.803C575.227 251.397 573.545 250.653 571.98 250.653C568.46 250.653 567.613 253.928 567.613 256.147V264.289H564.966V248.683H567.456V251.776C568.278 249.805 569.986 248.305 572.606 248.305Z" fill="#00BFFF"/>
<path d="M583.115 259.474L585.8 259.004C586.205 261.288 587.665 262.462 589.972 262.462C592.058 262.462 593.219 261.588 593.219 260.126C593.219 258.561 592.41 257.882 590.729 257.686L588.199 257.399C585.109 257.06 583.649 255.312 583.649 252.911C583.649 250.066 585.892 248.292 589.568 248.292C593.128 248.292 595.526 250.158 595.865 253.028L593.245 253.615C592.906 251.75 591.628 250.432 589.503 250.432C587.443 250.432 586.231 251.28 586.231 252.767C586.231 254.111 587.104 254.92 589.034 255.142L591.524 255.416C594.614 255.755 595.826 257.386 595.826 259.852C595.826 262.814 593.649 264.628 589.842 264.628C586.139 264.654 583.675 262.814 583.115 259.474Z" fill="#00BFFF"/>
<path d="M631.992 264.276H629.215C629.085 263.401 628.994 262.371 628.968 261.431C627.938 263.61 626.256 264.641 623.701 264.641C620.611 264.641 618.459 262.736 618.459 260.061C618.459 258.443 619.203 257.191 620.637 256.382C621.667 255.821 623.349 255.416 625.943 255.103L628.785 254.764V254.49C628.785 251.71 627.755 250.497 625.448 250.497C623.231 250.497 621.927 251.619 621.797 253.589H618.955C619.242 250.249 621.667 248.318 625.63 248.318C629.646 248.318 631.458 250.314 631.458 254.803V259.017C631.458 261.509 631.614 263.127 631.992 264.276ZM625.109 257.204C622.397 257.582 621.276 258.352 621.276 259.918C621.276 261.509 622.371 262.475 624.209 262.475C627.012 262.475 628.824 260.544 628.824 257.478V256.695L625.109 257.204Z" fill="#00BFFF"/>
<path d="M637.846 262.097H642.84V243.843H638.159V241.664H645.486V262.097H650.754V264.276H637.846V262.097Z" fill="#00BFFF"/>
<path d="M655.304 259.474L657.989 259.004C658.394 261.288 659.854 262.462 662.161 262.462C664.247 262.462 665.408 261.588 665.408 260.126C665.408 258.561 664.599 257.882 662.918 257.686L660.388 257.399C657.298 257.06 655.838 255.312 655.838 252.911C655.838 250.066 658.081 248.292 661.757 248.292C665.317 248.292 667.715 250.158 668.054 253.028L665.434 253.615C665.095 251.75 663.817 250.432 661.692 250.432C659.632 250.432 658.42 251.28 658.42 252.767C658.42 254.111 659.293 254.92 661.223 255.142L663.713 255.416C666.803 255.755 668.015 257.386 668.015 259.852C668.015 262.814 665.838 264.628 662.031 264.628C658.328 264.654 655.864 262.814 655.304 259.474Z" fill="#00BFFF"/>
<path d="M672.448 256.486C672.448 251.528 675.342 248.318 679.71 248.318C684.078 248.318 686.972 251.528 686.972 256.486C686.972 261.444 684.078 264.654 679.71 264.654C675.342 264.654 672.448 261.379 672.448 256.486ZM684.169 256.486C684.169 252.833 682.513 250.614 679.71 250.614C676.907 250.614 675.251 252.793 675.251 256.486C675.251 260.179 676.907 262.358 679.71 262.358C682.513 262.345 684.169 260.166 684.169 256.486Z" fill="#00BFFF"/>
<path d="M716.906 248.305C718.158 248.305 719.644 248.644 720.739 249.675C721.743 250.64 722.265 252.115 722.265 254.633V264.276H719.618V254.79C719.618 251.384 717.897 250.641 716.254 250.641C712.852 250.641 712.017 253.916 712.017 256.134V264.276H709.371V241.664H712.017V251.528C712.721 249.649 714.651 248.305 716.906 248.305Z" fill="#00BFFF"/>
<path d="M740.283 264.276H737.506C737.375 263.401 737.284 262.371 737.258 261.431C736.228 263.61 734.546 264.641 731.991 264.641C728.901 264.641 726.75 262.736 726.75 260.061C726.75 258.443 727.493 257.191 728.927 256.382C729.957 255.821 731.639 255.416 734.22 255.103L737.062 254.764V254.49C737.062 251.71 736.032 250.497 733.725 250.497C731.508 250.497 730.205 251.619 730.074 253.589H727.232C727.506 250.249 729.944 248.318 733.907 248.318C737.923 248.318 739.735 250.314 739.735 254.803V259.017C739.748 261.509 739.905 263.127 740.283 264.276ZM733.386 257.204C730.674 257.582 729.553 258.352 729.553 259.918C729.553 261.509 730.648 262.475 732.486 262.475C735.289 262.475 737.102 260.544 737.102 257.478V256.695L733.386 257.204Z" fill="#00BFFF"/>
<path d="M744.207 248.683H746.984L751.065 259.356C751.378 260.139 751.652 260.922 751.847 261.575H751.977C752.134 260.922 752.356 260.139 752.668 259.356L756.88 248.683H759.591L753.32 264.289H750.452L744.207 248.683Z" fill="#00BFFF"/>
<path d="M776.436 257.165H765.497C765.497 260.1 767.179 262.305 770.074 262.305C772.134 262.305 773.411 261.027 774.193 259.526L776.436 260.714C775.132 263.297 773.007 264.641 770.074 264.641C765.185 264.641 762.786 261.275 762.786 256.16C762.786 251.384 765.524 248.292 769.891 248.292C774.663 248.292 776.501 251.724 776.501 255.964C776.501 256.356 776.475 256.76 776.436 257.165ZM769.774 250.367C766.932 250.367 765.497 252.702 765.497 254.985H773.763C773.815 252.493 772.577 250.367 769.774 250.367Z" fill="#00BFFF"/>
<path d="M812.537 257.165H801.598C801.598 260.1 803.28 262.305 806.175 262.305C808.235 262.305 809.512 261.027 810.295 259.526L812.537 260.714C811.233 263.297 809.108 264.641 806.175 264.641C801.286 264.641 798.874 261.275 798.874 256.16C798.874 251.384 801.611 248.292 805.979 248.292C810.751 248.292 812.589 251.724 812.589 255.964C812.602 256.356 812.563 256.76 812.537 257.165ZM805.862 250.367C803.02 250.367 801.585 252.702 801.585 254.985H809.851C809.916 252.493 808.665 250.367 805.862 250.367Z" fill="#00BFFF"/>
<path d="M830.516 264.276H827.739C827.608 263.401 827.517 262.371 827.491 261.431C826.461 263.61 824.779 264.641 822.224 264.641C819.134 264.641 816.983 262.736 816.983 260.061C816.983 258.443 817.726 257.191 819.16 256.382C820.19 255.821 821.872 255.416 824.453 255.103L827.296 254.764V254.49C827.296 251.71 826.266 250.497 823.958 250.497C821.742 250.497 820.438 251.619 820.307 253.589H817.465C817.739 250.249 820.177 248.318 824.14 248.318C828.156 248.318 829.968 250.314 829.968 254.803V259.017C829.994 261.509 830.151 263.127 830.516 264.276ZM823.632 257.204C820.92 257.582 819.799 258.352 819.799 259.918C819.799 261.509 820.894 262.475 822.732 262.475C825.535 262.475 827.348 260.544 827.348 257.478V256.695L823.632 257.204Z" fill="#00BFFF"/>
<path d="M834.975 256.382C834.975 251.736 837.347 248.305 842.237 248.305C845.691 248.305 848.195 250.301 848.56 253.889L845.848 254.203C845.561 251.893 844.257 250.614 842.041 250.614C839.173 250.614 837.712 252.924 837.712 256.355C837.712 259.918 839.173 262.318 842.145 262.318C844.427 262.318 845.639 260.948 846.004 258.574L848.534 258.978C848.038 262.162 846.004 264.654 842.145 264.654C837.413 264.654 834.975 261.066 834.975 256.382Z" fill="#00BFFF"/>
<path d="M861.284 248.305C862.536 248.305 864.022 248.644 865.117 249.675C866.108 250.64 866.643 252.115 866.643 254.633V264.276H863.996V254.79C863.996 251.384 862.288 250.641 860.633 250.641C857.23 250.641 856.395 253.916 856.395 256.134V264.276H853.749V241.664H856.395V251.528C857.112 249.649 859.042 248.305 861.284 248.305Z" fill="#00BFFF"/>
<path d="M889.367 248.683H893.826V244.599L896.473 243.477V248.683H902.549V250.836H896.473V258.913C896.473 261.001 897.464 262.005 899.459 262.005C900.489 262.005 901.584 261.914 902.549 261.718V264.158C901.74 264.341 900.867 264.563 899.498 264.563C895.599 264.563 893.826 262.384 893.826 259.291V250.836H889.367V248.683Z" fill="#00BFFF"/>
<path d="M915.43 248.305C916.681 248.305 918.167 248.644 919.263 249.675C920.253 250.64 920.788 252.115 920.788 254.633V264.276H918.141V254.79C918.141 251.384 916.433 250.641 914.778 250.641C911.375 250.641 910.54 253.916 910.54 256.134V264.276H907.894V241.664H910.54V251.528C911.258 249.649 913.187 248.305 915.43 248.305Z" fill="#00BFFF"/>
<path d="M938.871 257.165H927.933C927.933 260.1 929.614 262.305 932.509 262.305C934.569 262.305 935.846 261.027 936.629 259.526L938.871 260.714C937.567 263.297 935.442 264.641 932.509 264.641C927.62 264.641 925.208 261.275 925.208 256.16C925.208 251.384 927.946 248.292 932.313 248.292C937.085 248.292 938.923 251.724 938.923 255.964C938.936 256.356 938.897 256.76 938.871 257.165ZM932.196 250.367C929.354 250.367 927.92 252.702 927.92 254.985H936.185C936.251 252.493 935.012 250.367 932.196 250.367Z" fill="#00BFFF"/>
<path d="M944.673 262.097H949.666V250.862H945.142V248.683H952.313V262.097H957.58V264.276H944.673V262.097ZM952.587 245.565H948.845V241.82H952.587V245.565Z" fill="#00BFFF"/>
<path d="M972.665 248.37C973.786 248.37 974.816 248.501 975.468 248.683V251.149C974.842 250.993 973.695 250.836 972.573 250.836C968.832 250.836 965.846 253.394 965.846 258.482V264.289H963.199V248.683H965.82V252.741C966.863 250.275 969.418 248.37 972.665 248.37Z" fill="#00BFFF"/>
<path d="M998.218 259.474L1000.9 259.004C1001.31 261.288 1002.77 262.462 1005.08 262.462C1007.16 262.462 1008.32 261.588 1008.32 260.126C1008.32 258.561 1007.51 257.882 1005.83 257.686L1003.3 257.399C1000.21 257.06 998.753 255.312 998.753 252.911C998.753 250.066 1001 248.292 1004.67 248.292C1008.23 248.292 1010.63 250.158 1010.97 253.028L1008.35 253.615C1008.01 251.75 1006.73 250.432 1004.61 250.432C1002.55 250.432 1001.33 251.28 1001.33 252.767C1001.33 254.111 1002.21 254.92 1004.14 255.142L1006.63 255.416C1009.72 255.755 1010.93 257.386 1010.93 259.852C1010.93 262.814 1008.75 264.628 1004.95 264.628C1001.24 264.654 998.779 262.814 998.218 259.474Z" fill="#00BFFF"/>
<path d="M1018.95 251.58C1019.76 249.858 1021.63 248.305 1023.84 248.305C1027.92 248.305 1030.32 251.71 1030.32 256.447C1030.32 261.314 1027.83 264.654 1023.68 264.654C1021.75 264.654 1019.82 263.467 1019.1 261.809V270.356H1016.46V248.67H1018.95V251.58ZM1023.25 262.318C1025.96 262.318 1027.53 260.009 1027.53 256.447C1027.53 252.989 1026.09 250.64 1023.35 250.64C1020.73 250.64 1019.05 252.728 1019.05 256.068V256.812C1019.04 260.126 1020.63 262.318 1023.25 262.318Z" fill="#00BFFF"/>
<path d="M1047.16 257.165H1036.22C1036.22 260.1 1037.9 262.305 1040.8 262.305C1042.86 262.305 1044.14 261.027 1044.92 259.526L1047.16 260.714C1045.86 263.297 1043.73 264.641 1040.8 264.641C1035.91 264.641 1033.51 261.275 1033.51 256.16C1033.51 251.384 1036.25 248.292 1040.62 248.292C1045.39 248.292 1047.23 251.724 1047.23 255.964C1047.23 256.356 1047.19 256.76 1047.16 257.165ZM1040.49 250.367C1037.64 250.367 1036.21 252.702 1036.21 254.985H1044.48C1044.54 252.493 1043.29 250.367 1040.49 250.367Z" fill="#00BFFF"/>
<path d="M1051.56 256.382C1051.56 251.736 1053.93 248.305 1058.82 248.305C1062.27 248.305 1064.78 250.301 1065.14 253.889L1062.43 254.203C1062.14 251.893 1060.84 250.614 1058.62 250.614C1055.75 250.614 1054.29 252.924 1054.29 256.355C1054.29 259.918 1055.75 262.318 1058.73 262.318C1061.01 262.318 1062.22 260.948 1062.58 258.574L1065.11 258.978C1064.62 262.162 1062.58 264.654 1058.73 264.654C1053.99 264.654 1051.56 261.066 1051.56 256.382Z" fill="#00BFFF"/>
<path d="M1071.01 262.097H1076V250.862H1071.48V248.683H1078.65V262.097H1083.91V264.276H1071.01V262.097ZM1078.92 245.565H1075.18V241.82H1078.92V245.565Z" fill="#00BFFF"/>
<path d="M1095.41 250.836V264.289H1092.77V250.836H1088V248.683H1092.77V246.961C1092.77 243.399 1094.76 241.559 1098.63 241.559C1099.53 241.559 1100.29 241.65 1101.35 241.872V244.208C1100.65 244.116 1099.82 243.96 1098.63 243.96C1096.26 243.96 1095.43 244.769 1095.43 247.144V248.67H1101.35V250.836H1095.41ZM1108.39 262.097H1113.38V250.862H1108.86V248.683H1116.03V262.097H1121.29V264.276H1108.39V262.097ZM1116.3 245.565H1112.56V241.82H1116.3V245.565Z" fill="#00BFFF"/>
<path d="M1125.02 256.382C1125.02 251.736 1127.39 248.305 1132.28 248.305C1135.74 248.305 1138.24 250.301 1138.61 253.889L1135.9 254.203C1135.62 251.893 1134.3 250.614 1132.09 250.614C1129.22 250.614 1127.76 252.924 1127.76 256.355C1127.76 259.918 1129.22 262.318 1132.18 262.318C1134.46 262.318 1135.67 260.948 1136.04 258.574L1138.57 258.978C1138.07 262.162 1136.04 264.654 1132.18 264.654C1127.46 264.654 1125.02 261.066 1125.02 256.382Z" fill="#00BFFF"/>
<path d="M1168.89 250.836V264.289H1166.25V250.836H1161.47V248.683H1166.25V246.961C1166.25 243.399 1168.24 241.559 1172.11 241.559C1173.01 241.559 1173.77 241.65 1174.83 241.872V244.208C1174.13 244.116 1173.3 243.96 1172.11 243.96C1169.74 243.96 1168.91 244.769 1168.91 247.144V248.67H1174.83V250.836H1168.89Z" fill="#00BFFF"/>
<path d="M1185.26 264.654C1183.82 264.654 1182.36 264.315 1181.27 263.284C1180.26 262.318 1179.83 260.857 1179.83 258.326V248.683H1182.54V258.234C1182.54 261.64 1184.16 262.384 1185.79 262.384C1189.06 262.384 1189.84 259.109 1189.84 256.825V248.683H1192.49V264.289H1190V261.327C1189.4 262.879 1187.56 264.654 1185.26 264.654Z" fill="#00BFFF"/>
<path d="M1205.57 248.305C1206.85 248.305 1208.28 248.644 1209.34 249.649C1210.37 250.614 1210.84 252.115 1210.84 254.646V264.289H1208.19V254.803C1208.19 251.397 1206.51 250.653 1204.94 250.653C1201.42 250.653 1200.57 253.928 1200.57 256.147V264.289H1197.93V248.683H1200.42V251.776C1201.24 249.805 1202.96 248.305 1205.57 248.305Z" fill="#00BFFF"/>
<path d="M1215.27 256.382C1215.27 251.736 1217.64 248.305 1222.53 248.305C1225.98 248.305 1228.49 250.301 1228.85 253.889L1226.14 254.203C1225.87 251.893 1224.55 250.614 1222.33 250.614C1219.47 250.614 1218.01 252.924 1218.01 256.355C1218.01 259.918 1219.47 262.318 1222.43 262.318C1224.71 262.318 1225.92 260.948 1226.28 258.574L1228.81 258.978C1228.32 262.162 1226.28 264.654 1222.43 264.654C1217.69 264.654 1215.27 261.066 1215.27 256.382Z" fill="#00BFFF"/>
<path d="M1233.56 248.683H1238.02V244.599L1240.67 243.477V248.683H1246.74V250.836H1240.67V258.913C1240.67 261.001 1241.67 262.005 1243.66 262.005C1244.69 262.005 1245.79 261.914 1246.75 261.718V264.158C1245.95 264.341 1245.07 264.563 1243.7 264.563C1239.8 264.563 1238.03 262.384 1238.03 259.291V250.836H1233.57V248.683H1233.56Z" fill="#00BFFF"/>
<path d="M1252.76 262.097H1257.76V250.862H1253.23V248.683H1260.4V262.097H1265.67V264.276H1252.76V262.097ZM1260.69 245.565H1256.95V241.82H1260.69V245.565Z" fill="#00BFFF"/>
<path d="M1269.32 256.486C1269.32 251.528 1272.22 248.318 1276.58 248.318C1280.95 248.318 1283.85 251.528 1283.85 256.486C1283.85 261.444 1280.95 264.654 1276.58 264.654C1272.22 264.654 1269.32 261.379 1269.32 256.486ZM1281.04 256.486C1281.04 252.833 1279.39 250.614 1276.58 250.614C1273.78 250.614 1272.12 252.793 1272.12 256.486C1272.12 260.179 1273.78 262.358 1276.58 262.358C1279.39 262.345 1281.04 260.166 1281.04 256.486Z" fill="#00BFFF"/>
<path d="M1295.81 248.305C1297.09 248.305 1298.53 248.644 1299.58 249.649C1300.61 250.614 1301.08 252.115 1301.08 254.646V264.289H1298.43V254.803C1298.43 251.397 1296.75 250.653 1295.19 250.653C1291.67 250.653 1290.82 253.928 1290.82 256.147V264.289H1288.17V248.683H1290.66V251.776C1291.49 249.805 1293.19 248.305 1295.81 248.305Z" fill="#00BFFF"/>
<path d="M1337.14 264.276H1334.37C1334.24 263.401 1334.14 262.371 1334.12 261.431C1333.09 263.61 1331.41 264.641 1328.85 264.641C1325.76 264.641 1323.61 262.736 1323.61 260.061C1323.61 258.443 1324.35 257.191 1325.79 256.382C1326.82 255.821 1328.5 255.416 1331.08 255.103L1333.92 254.764V254.49C1333.92 251.71 1332.89 250.497 1330.59 250.497C1328.37 250.497 1327.07 251.619 1326.93 253.589H1324.09C1324.37 250.249 1326.8 248.318 1330.77 248.318C1334.78 248.318 1336.6 250.314 1336.6 254.803V259.017C1336.62 261.509 1336.78 263.127 1337.14 264.276ZM1330.26 257.204C1327.55 257.582 1326.43 258.352 1326.43 259.918C1326.43 261.509 1327.52 262.475 1329.36 262.475C1332.16 262.475 1333.98 260.544 1333.98 257.478V256.695L1330.26 257.204Z" fill="#00BFFF"/>
<path d="M1349.96 248.305C1351.24 248.305 1352.67 248.644 1353.73 249.649C1354.76 250.614 1355.23 252.115 1355.23 254.646V264.289H1352.58V254.803C1352.58 251.397 1350.9 250.653 1349.33 250.653C1345.81 250.653 1344.97 253.928 1344.97 256.147V264.289H1342.32V248.683H1344.81V251.776C1345.63 249.805 1347.34 248.305 1349.96 248.305Z" fill="#00BFFF"/>
<path d="M1372.84 241.664V264.276H1370.35V261.379C1369.41 263.401 1367.95 264.654 1365.4 264.654C1361.5 264.654 1358.97 261.405 1358.97 256.447C1358.97 251.554 1361.68 248.305 1365.8 248.305C1367.93 248.305 1369.41 249.453 1370.19 250.993V241.664H1372.84ZM1366.05 250.654C1363.36 250.654 1361.77 252.806 1361.77 256.46C1361.77 260.074 1363.36 262.331 1365.94 262.331C1368.59 262.331 1370.25 260.218 1370.25 256.838V256.121C1370.26 252.767 1368.63 250.654 1366.05 250.654Z" fill="#00BFFF"/>
<path d="M480.092 306.407C478.657 306.407 477.197 306.068 476.102 305.037C475.111 304.072 474.668 302.61 474.668 300.079V290.437H477.38V299.988C477.38 303.393 478.996 304.137 480.626 304.137C483.899 304.137 484.681 300.862 484.681 298.579V290.437H487.328V306.042H484.837V303.08C484.238 304.633 482.399 306.407 480.092 306.407Z" fill="#00BFFF"/>
<path d="M492.868 301.227L495.554 300.758C495.958 303.041 497.419 304.215 499.726 304.215C501.812 304.215 502.973 303.341 502.973 301.88C502.973 300.314 502.164 299.636 500.482 299.44L497.953 299.153C494.863 298.814 493.403 297.065 493.403 294.664C493.403 291.82 495.645 290.045 499.322 290.045C502.881 290.045 505.28 291.911 505.619 294.782L502.999 295.369C502.66 293.503 501.382 292.185 499.257 292.185C497.197 292.185 495.984 293.033 495.984 294.521C495.984 295.865 496.858 296.674 498.787 296.895L501.278 297.169C504.368 297.509 505.58 299.14 505.58 301.606C505.58 304.568 503.403 306.381 499.596 306.381C495.893 306.407 493.429 304.568 492.868 301.227Z" fill="#00BFFF"/>
<path d="M523.702 306.029H520.925C520.795 305.155 520.704 304.124 520.678 303.185C519.648 305.364 517.966 306.394 515.41 306.394C512.32 306.394 510.169 304.489 510.169 301.815C510.169 300.197 510.912 298.944 512.347 298.135C513.377 297.574 515.058 297.17 517.64 296.856L520.482 296.517V296.243C520.482 293.464 519.452 292.25 517.144 292.25C514.928 292.25 513.624 293.373 513.494 295.343H510.652C510.925 292.003 513.363 290.071 517.327 290.071C521.342 290.071 523.155 292.068 523.155 296.556V300.771C523.168 303.263 523.324 304.881 523.702 306.029ZM516.818 298.957C514.107 299.335 512.985 300.105 512.985 301.671C512.985 303.263 514.081 304.228 515.919 304.228C518.722 304.228 520.534 302.297 520.534 299.231V298.448L516.818 298.957Z" fill="#00BFFF"/>
<path d="M539.66 291.689C540.56 292.59 541.068 293.842 541.068 295.304C541.068 298.487 538.696 300.64 535.202 300.64C534.106 300.64 533.115 300.418 532.307 300.014C531.655 300.327 531.212 300.862 531.212 301.58C531.212 302.545 532.02 303.145 533.793 303.145H537.809C541.055 303.145 542.894 304.737 542.894 307.386C542.894 310.661 540.052 312.501 535.188 312.501C530.756 312.501 528.109 310.974 528.109 308.534C528.109 306.851 529.165 305.598 530.821 305.037C529.543 304.502 528.852 303.576 528.852 302.258C528.852 300.823 529.661 299.766 531.095 299.231C530.091 298.331 529.53 297.013 529.53 295.46C529.53 292.276 531.864 290.058 535.332 290.058C536.479 290.058 537.483 290.306 538.331 290.75C538.891 288.91 540.169 287.879 542.098 287.879C542.437 287.879 542.815 287.905 543.102 288.01V290.319C542.633 290.254 542.359 290.189 541.955 290.189C540.821 290.189 540.104 290.659 539.66 291.689ZM533.702 305.468C533.233 305.468 532.803 305.442 532.398 305.403C531.368 305.872 530.743 306.707 530.743 307.777C530.743 309.435 532.268 310.309 535.475 310.309C538.813 310.309 540.247 309.369 540.247 307.66C540.247 306.251 539.256 305.481 537.222 305.481H533.702V305.468ZM538.565 295.304C538.565 293.438 537.222 292.094 535.319 292.094C533.389 292.094 532.046 293.464 532.046 295.408C532.046 297.313 533.35 298.618 535.228 298.618C537.17 298.605 538.565 297.209 538.565 295.304Z" fill="#00BFFF"/>
<path d="M559.855 298.918H548.917C548.917 301.854 550.599 304.059 553.493 304.059C555.553 304.059 556.831 302.78 557.613 301.28L559.855 302.467C558.552 305.05 556.427 306.394 553.493 306.394C548.604 306.394 546.192 303.028 546.192 297.913C546.192 293.138 548.93 290.045 553.298 290.045C558.069 290.045 559.908 293.477 559.908 297.718C559.921 298.109 559.895 298.513 559.855 298.918ZM553.193 292.12C550.351 292.12 548.917 294.456 548.917 296.739H557.183C557.248 294.247 555.996 292.12 553.193 292.12Z" fill="#00BFFF"/>
<path d="M573.48 306.029H569.334V302.036H573.48V306.029Z" fill="#00BFFF"/>
</g>
<g id="Vector_3">
<path d="M465.411 137.762C459.414 137.762 454.786 136.131 451.526 132.869C448.267 129.607 446.637 124.91 446.637 118.778V19.7958C446.637 13.6633 448.267 8.966 451.526 5.70402C454.786 2.44203 459.414 0.811035 465.411 0.811035H548.695C554.693 0.811035 559.282 2.41593 562.476 5.59963C565.67 8.79638 567.261 13.3893 567.261 19.3913V41.4945C567.261 47.4966 565.657 52.0895 562.476 55.2862C559.282 58.483 554.693 60.0748 548.695 60.0748H521.525V67.5121H548.304C554.432 67.5121 559.125 69.1431 562.385 72.4051C565.644 75.6671 567.274 80.2991 567.274 86.3012V118.778C567.274 124.91 565.644 129.607 562.385 132.869C559.125 136.131 554.432 137.762 548.304 137.762H465.411ZM507.836 51.8807C509.791 51.8807 511.356 51.3327 512.529 50.2236C513.703 49.1145 514.289 47.5879 514.289 45.6307V21.9487C514.289 19.9915 513.703 18.4258 512.529 17.2515C511.356 16.0771 509.791 15.49 507.836 15.49H499.622V51.8807H507.836ZM507.836 123.096C509.791 123.096 511.356 122.509 512.529 121.335C513.703 120.161 514.289 118.595 514.289 116.638V82.3999C514.289 80.4427 513.703 78.8769 512.529 77.7026C511.356 76.5283 509.791 75.9411 507.836 75.9411H499.622V123.096H507.836Z" fill="#00BFFF"/>
<path d="M577.821 19.6001C577.821 13.4675 579.412 8.80943 582.606 5.61269C585.8 2.41594 590.39 0.824089 596.387 0.824089H612.032C618.16 0.824089 622.814 2.42899 626.008 5.61269C629.203 8.80943 630.793 13.4675 630.793 19.6001V116.246C630.793 118.203 631.341 119.743 632.449 120.839C633.557 121.948 635.082 122.496 637.038 122.496H638.994C640.949 122.496 642.475 121.948 643.583 120.839C644.691 119.73 645.239 118.203 645.239 116.246V19.6001C645.239 13.4675 646.868 8.80943 650.128 5.61269C653.387 2.41594 658.016 0.824089 664.013 0.824089H679.658C685.786 0.824089 690.44 2.42899 693.634 5.61269C696.828 8.80943 698.419 13.4675 698.419 19.6001V116.246C698.419 123.162 696.568 128.472 692.852 132.191C689.136 135.909 683.765 137.762 676.725 137.762H599.307C592.267 137.762 586.922 135.909 583.271 132.191C579.621 128.472 577.795 123.162 577.795 116.246V19.6001H577.821Z" fill="#00BFFF"/>
<path d="M708.015 8.44408C708.015 5.96497 708.797 4.07302 710.362 2.76823C711.926 1.46343 714.143 0.811035 717.011 0.811035H820.62C823.489 0.811035 825.666 1.46343 827.165 2.76823C828.665 4.07302 829.408 5.96497 829.408 8.44408C829.408 10.7927 828.651 12.6455 827.165 14.0156C825.666 15.3856 823.476 16.0641 820.62 16.0641H795.406V118.973C795.406 125.106 793.776 129.764 790.517 132.961C787.257 136.157 782.629 137.749 776.632 137.749H760.986C754.859 137.749 750.204 136.157 747.01 132.961C743.816 129.764 742.225 125.106 742.225 118.973V16.0771H717.011C714.143 16.0771 711.926 15.3986 710.362 14.0286C708.797 12.6586 708.015 10.7927 708.015 8.44408Z" fill="#00BFFF"/>
<path d="M839.577 8.44408C839.577 5.96497 840.359 4.07302 841.924 2.76823C843.488 1.46343 845.705 0.811035 848.573 0.811035H952.183C955.051 0.811035 957.228 1.46343 958.728 2.76823C960.227 4.07302 960.97 5.96497 960.97 8.44408C960.97 10.7927 960.214 12.6455 958.728 14.0156C957.228 15.3856 955.038 16.0641 952.183 16.0641H926.968V118.973C926.968 125.106 925.338 129.764 922.079 132.961C918.82 136.157 914.191 137.749 908.194 137.749H892.549C886.421 137.749 881.767 136.157 878.573 132.961C875.378 129.764 873.788 125.106 873.788 118.973V16.0771H848.573C845.705 16.0771 843.488 15.3986 841.924 14.0286C840.359 12.6586 839.577 10.7927 839.577 8.44408Z" fill="#00BFFF"/>
<path d="M971.139 22.3402C971.139 15.4247 972.991 10.1142 976.706 6.39556C980.422 2.6769 985.794 0.824089 992.834 0.824089H1070.25C1077.29 0.824089 1082.66 2.6769 1086.38 6.39556C1090.09 10.1142 1091.95 15.4247 1091.95 22.3402V116.246C1091.95 123.162 1090.09 128.472 1086.38 132.191C1082.66 135.909 1077.29 137.762 1070.25 137.762H992.834C985.794 137.762 980.422 135.909 976.706 132.191C972.991 128.472 971.139 123.162 971.139 116.246V22.3402ZM1024.31 116.246C1024.31 118.203 1024.85 119.743 1025.96 120.839C1027.07 121.948 1028.6 122.496 1030.55 122.496H1032.51C1034.46 122.496 1035.99 121.948 1037.1 120.839C1038.2 119.73 1038.75 118.203 1038.75 116.246V22.3402C1038.75 20.383 1038.19 18.8564 1037.1 17.7473C1035.99 16.6382 1034.46 16.0902 1032.51 16.0902H1030.55C1028.6 16.0902 1027.07 16.6512 1025.96 17.7473C1024.85 18.8564 1024.31 20.383 1024.31 22.3402V116.246Z" fill="#00BFFF"/>
<path d="M1102.9 19.6001C1102.9 13.4675 1104.49 8.80943 1107.68 5.61269C1110.88 2.41594 1115.53 0.824089 1121.66 0.824089H1178.15C1184.41 0.824089 1189.36 2.45508 1193.01 5.71707C1196.66 8.97906 1198.49 13.6111 1198.49 19.6131V116.846C1198.49 118.673 1198.97 120.069 1199.95 121.048C1200.93 122.026 1202.26 122.509 1203.95 122.509H1205.91C1207.6 122.509 1208.97 122.013 1210.01 121.048C1211.06 120.069 1211.58 118.673 1211.58 116.846V19.6001C1211.58 13.4675 1213.17 8.80943 1216.36 5.61269C1219.56 2.41594 1224.15 0.824089 1230.14 0.824089H1245.79C1251.92 0.824089 1256.57 2.42899 1259.77 5.61269C1262.96 8.80943 1264.55 13.4675 1264.55 19.6001V118.986C1264.55 125.119 1262.95 129.777 1259.77 132.974C1256.57 136.17 1251.92 137.762 1245.79 137.762H1189.1C1182.97 137.762 1178.08 136.131 1174.43 132.869C1170.78 129.607 1168.96 124.975 1168.96 118.973V21.753C1168.96 19.9263 1168.48 18.5302 1167.5 17.5516C1166.52 16.573 1165.11 16.0902 1163.3 16.0902H1161.54C1159.71 16.0902 1158.32 16.586 1157.34 17.5516C1156.36 18.5302 1155.88 19.9393 1155.88 21.753V118.986C1155.88 125.119 1154.28 129.777 1151.1 132.974C1147.9 136.17 1143.25 137.762 1137.12 137.762H1121.66C1115.53 137.762 1110.88 136.17 1107.68 132.974C1104.49 129.777 1102.9 125.119 1102.9 118.986V19.6001Z" fill="#00BFFF"/>
<path d="M1286.06 137.762C1283.19 137.762 1280.98 137.084 1279.41 135.714C1277.85 134.344 1277.07 132.491 1277.07 130.142C1277.07 127.663 1277.85 125.771 1279.41 124.466C1280.98 123.162 1283.19 122.509 1286.06 122.509H1329.46V82.3999C1329.46 80.4427 1328.9 78.9161 1327.81 77.807C1326.7 76.6979 1325.17 76.1499 1323.22 76.1499H1295.27C1289.14 76.1499 1284.48 74.558 1281.29 71.3613C1278.1 68.1645 1276.51 63.5064 1276.51 57.3739V19.6001C1276.51 13.4675 1278.1 8.80943 1281.29 5.61269C1284.48 2.41594 1289.14 0.824089 1295.27 0.824089H1367.99C1370.86 0.824089 1373.07 1.47649 1374.64 2.78128C1376.2 4.08608 1376.99 5.97803 1376.99 8.45714C1376.99 10.8058 1376.2 12.6586 1374.64 14.0286C1373.07 15.3986 1370.86 16.0771 1367.99 16.0771H1329.48V54.6208C1329.48 56.578 1330.06 58.1437 1331.24 59.318C1332.41 60.4924 1333.98 61.0795 1335.93 61.0795H1363.88C1369.88 61.0795 1374.51 62.6714 1377.77 65.8681C1381.03 69.0648 1382.66 73.723 1382.66 79.8555V118.986C1382.66 125.119 1381.03 129.777 1377.77 132.974C1374.51 136.17 1369.88 137.762 1363.88 137.762H1286.06Z" fill="#00BFFF"/>
</g>
</g>
<g id="Group">
<g id="Vector_4">
<path d="M584.705 577.309H581.811V555.154H589.047C595.005 555.154 596.4 558.768 596.4 561.704C596.4 564.639 594.718 568.254 588.512 568.254H584.705V577.309ZM588.578 565.892C592.541 565.892 593.349 563.556 593.349 561.743C593.349 559.929 592.606 557.593 588.89 557.593H584.718V565.892H588.578Z" fill="#00BFFF"/>
<path d="M605.005 577.687C603.571 577.687 602.111 577.348 601.015 576.317C600.011 575.352 599.581 573.89 599.581 571.359V561.716H602.293V571.268C602.293 574.673 603.91 575.417 605.539 575.417C608.812 575.417 609.594 572.142 609.594 569.858V561.716H612.241V577.322H609.751V574.36C609.151 575.9 607.313 577.687 605.005 577.687Z" fill="#00BFFF"/>
<path d="M617.782 572.507L620.467 572.037C620.872 574.321 622.332 575.495 624.639 575.495C626.726 575.495 627.886 574.621 627.886 573.16C627.886 571.594 627.078 570.915 625.396 570.72L622.866 570.433C619.776 570.093 618.316 568.345 618.316 565.944C618.316 563.1 620.559 561.325 624.235 561.325C627.795 561.325 630.194 563.191 630.533 566.062L627.912 566.649C627.573 564.783 626.295 563.465 624.17 563.465C622.11 563.465 620.898 564.313 620.898 565.801C620.898 567.145 621.771 567.953 623.701 568.175L626.191 568.449C629.281 568.789 630.493 570.42 630.493 572.886C630.493 575.847 628.316 577.661 624.509 577.661C620.806 577.687 618.342 575.848 617.782 572.507Z" fill="#00BFFF"/>
<path d="M643.283 561.338C644.535 561.338 646.021 561.677 647.116 562.708C648.12 563.674 648.642 565.148 648.642 567.666V577.309H645.995V567.823C645.995 564.417 644.274 563.674 642.631 563.674C639.229 563.674 638.394 566.949 638.394 569.167V577.309H635.748V554.697H638.394V564.561C639.098 562.682 641.028 561.338 643.283 561.338Z" fill="#00BFFF"/>
<path d="M685.708 561.051C685.708 563.139 684.521 565.07 681.992 565.787C684.639 566.257 686.32 568.188 686.32 571.215C686.32 574.06 684.639 577.296 679.15 577.296H671.418V555.14H678.498C684.208 555.153 685.708 558.428 685.708 561.051ZM674.326 564.835H678.472C682.148 564.835 682.748 562.865 682.748 561.273C682.748 559.433 681.94 557.554 678.472 557.554H674.326V564.835ZM674.326 574.908H678.967C682.305 574.908 683.361 573.042 683.361 570.941C683.361 568.815 682.174 567.197 679.28 567.197H674.326V574.908Z" fill="#00BFFF"/>
<path d="M695.238 577.687C693.804 577.687 692.344 577.348 691.249 576.317C690.245 575.352 689.814 573.89 689.814 571.359V561.716H692.526V571.268C692.526 574.673 694.143 575.417 695.773 575.417C699.045 575.417 699.827 572.142 699.827 569.858V561.716H702.474V577.322H699.984V574.36C699.384 575.9 697.546 577.687 695.238 577.687Z" fill="#00BFFF"/>
<path d="M707.454 561.717H711.913V557.633L714.56 556.51V561.717H720.635V563.869H714.56V571.946C714.56 574.034 715.564 575.039 717.558 575.039C718.588 575.039 719.684 574.947 720.648 574.752V577.178C719.84 577.361 718.966 577.583 717.597 577.583C713.699 577.583 711.926 575.404 711.926 572.311V563.856H707.467V561.717H707.454Z" fill="#00BFFF"/>
<path d="M725.511 561.717H729.97V557.633L732.617 556.51V561.717H738.692V563.869H732.617V571.946C732.617 574.034 733.608 575.039 735.603 575.039C736.632 575.039 737.728 574.947 738.692 574.752V577.178C737.884 577.361 737.011 577.583 735.642 577.583C731.743 577.583 729.97 575.404 729.97 572.311V563.856H725.511V561.717Z" fill="#00BFFF"/>
<path d="M743.216 569.506C743.216 564.548 746.111 561.338 750.478 561.338C754.846 561.338 757.74 564.548 757.74 569.506C757.74 574.464 754.846 577.674 750.478 577.674C746.111 577.687 743.216 574.412 743.216 569.506ZM754.937 569.506C754.937 565.853 753.281 563.635 750.478 563.635C747.675 563.635 746.019 565.814 746.019 569.506C746.019 573.199 747.675 575.378 750.478 575.378C753.281 575.378 754.937 573.186 754.937 569.506Z" fill="#00BFFF"/>
<path d="M769.709 561.338C770.986 561.338 772.421 561.677 773.477 562.682C774.507 563.648 774.976 565.148 774.976 567.679V577.322H772.329V567.836C772.329 564.43 770.647 563.687 769.083 563.687C765.563 563.687 764.715 566.962 764.715 569.18V577.322H762.069V561.716H764.559V564.809C765.38 562.839 767.088 561.338 769.709 561.338Z" fill="#00BFFF"/>
<path d="M788.626 565.709H784.48V561.716H788.626V565.709ZM788.626 577.309H784.48V573.316H788.626V577.309Z" fill="#00BFFF"/>
<path d="M824.01 572.011H821.324L819.395 563.334C819.082 562.03 818.587 559.185 818.404 557.619H818.221C818.248 559.029 818.287 561.677 818.287 563.543V577.296H815.549V555.14H819.76L822.25 566.714C822.38 567.405 822.524 568.24 822.589 568.684H822.772C822.837 568.253 822.993 567.405 823.111 566.714L825.601 555.14H829.812V577.296H827.074V563.543C827.074 561.677 827.1 559.016 827.139 557.619H826.957C826.774 559.185 826.266 562.017 825.966 563.334L824.01 572.011Z" fill="#00BFFF"/>
<path d="M833.45 569.506C833.45 564.548 836.344 561.338 840.711 561.338C845.079 561.338 847.973 564.548 847.973 569.506C847.973 574.464 845.079 577.674 840.711 577.674C836.357 577.687 833.45 574.412 833.45 569.506ZM845.17 569.506C845.17 565.853 843.515 563.635 840.711 563.635C837.908 563.635 836.253 565.814 836.253 569.506C836.253 573.199 837.908 575.378 840.711 575.378C843.528 575.378 845.17 573.186 845.17 569.506Z" fill="#00BFFF"/>
<path d="M852.406 572.507L855.092 572.037C855.496 574.321 856.956 575.495 859.264 575.495C861.35 575.495 862.51 574.621 862.51 573.16C862.51 571.594 861.702 570.915 860.02 570.72L857.491 570.433C854.401 570.093 852.941 568.345 852.941 565.944C852.941 563.1 855.183 561.325 858.86 561.325C862.419 561.325 864.818 563.191 865.157 566.062L862.536 566.649C862.197 564.783 860.92 563.465 858.795 563.465C856.735 563.465 855.522 564.313 855.522 565.801C855.522 567.145 856.396 567.953 858.325 568.175L860.815 568.449C863.905 568.789 865.118 570.42 865.118 572.886C865.118 575.847 862.94 577.661 859.133 577.661C855.431 577.687 852.967 575.848 852.406 572.507Z" fill="#00BFFF"/>
<path d="M869.89 561.717H874.348V557.633L876.995 556.51V561.717H883.071V563.869H876.995V571.946C876.995 574.034 877.999 575.039 879.994 575.039C881.024 575.039 882.119 574.947 883.083 574.752V577.178C882.275 577.361 881.402 577.583 880.033 577.583C876.135 577.583 874.361 575.404 874.361 572.311V563.856H869.903V561.717H869.89Z" fill="#00BFFF"/>
<path d="M905.743 569.415C905.743 564.77 908.116 561.338 913.005 561.338C916.46 561.338 918.963 563.334 919.328 566.923L916.616 567.236C916.329 564.926 915.026 563.648 912.809 563.648C909.941 563.648 908.481 565.957 908.481 569.389C908.481 572.951 909.941 575.352 912.914 575.352C915.195 575.352 916.408 573.982 916.773 571.607L919.302 572.011C918.807 575.195 916.773 577.687 912.914 577.687C908.168 577.687 905.743 574.099 905.743 569.415Z" fill="#00BFFF"/>
<path d="M923.696 569.506C923.696 564.548 926.59 561.338 930.958 561.338C935.325 561.338 938.22 564.548 938.22 569.506C938.22 574.464 935.325 577.674 930.958 577.674C926.59 577.687 923.696 574.412 923.696 569.506ZM935.416 569.506C935.416 565.853 933.761 563.635 930.958 563.635C928.155 563.635 926.499 565.814 926.499 569.506C926.499 573.199 928.155 575.378 930.958 575.378C933.761 575.378 935.416 573.186 935.416 569.506Z" fill="#00BFFF"/>
<path d="M946.642 561.338C948.167 561.338 949.354 562.369 949.888 564.183C950.631 562.369 952.039 561.338 953.565 561.338C955.494 561.338 957.241 562.682 957.241 565.983V577.309H954.595V566.205C954.595 564.209 953.656 563.674 952.756 563.674C950.918 563.674 950.266 565.018 950.266 566.988V577.309H947.685V566.205C947.685 564.3 946.837 563.674 945.846 563.674C944.034 563.674 943.422 565.109 943.422 566.988V577.309H940.775V561.703H943.265V564.104C943.865 562.434 945.077 561.338 946.642 561.338Z" fill="#00BFFF"/>
<path d="M964.686 561.338C966.211 561.338 967.398 562.369 967.932 564.183C968.675 562.369 970.083 561.338 971.609 561.338C973.538 561.338 975.285 562.682 975.285 565.983V577.309H972.639V566.205C972.639 564.209 971.7 563.674 970.8 563.674C968.962 563.674 968.31 565.018 968.31 566.988V577.309H965.729V566.205C965.729 564.3 964.881 563.674 963.891 563.674C962.078 563.674 961.453 565.109 961.453 566.988V577.309H958.806V561.703H961.296V564.104C961.909 562.434 963.121 561.338 964.686 561.338Z" fill="#00BFFF"/>
<path d="M977.841 569.506C977.841 564.548 980.735 561.338 985.103 561.338C989.47 561.338 992.365 564.548 992.365 569.506C992.365 574.464 989.47 577.674 985.103 577.674C980.735 577.674 977.841 574.412 977.841 569.506ZM989.562 569.506C989.562 565.853 987.906 563.635 985.103 563.635C982.3 563.635 980.644 565.814 980.644 569.506C980.644 573.199 982.3 575.378 985.103 575.378C987.906 575.378 989.562 573.186 989.562 569.506Z" fill="#00BFFF"/>
<path d="M1004.33 561.338C1005.61 561.338 1007.04 561.677 1008.1 562.682C1009.13 563.648 1009.6 565.148 1009.6 567.679V577.322H1006.95V567.836C1006.95 564.43 1005.27 563.687 1003.71 563.687C1000.19 563.687 999.34 566.962 999.34 569.18V577.322H996.693V561.716H999.183V564.809C1000 562.839 1001.71 561.338 1004.33 561.338Z" fill="#00BFFF"/>
<path d="M1015.43 575.13H1020.42V556.876H1015.74V554.697H1023.07V575.13H1028.34V577.309H1015.43V575.13Z" fill="#00BFFF"/>
<path d="M1039.5 574.217L1043.82 561.704H1046.67L1040.43 578.301C1039 582.267 1037.14 583.572 1034.52 583.572C1034.05 583.572 1033.58 583.546 1033.08 583.441V581.106C1033.49 581.132 1033.86 581.171 1034.2 581.171C1036.11 581.171 1037.07 580.323 1037.79 578.274L1038.19 577.126L1032.12 561.717H1035.1L1039.5 574.217Z" fill="#00BFFF"/>
<path d="M1074.25 577.687C1072.82 577.687 1071.36 577.348 1070.26 576.317C1069.26 575.352 1068.83 573.89 1068.83 571.359V561.716H1071.54V571.268C1071.54 574.673 1073.16 575.417 1074.79 575.417C1078.06 575.417 1078.84 572.142 1078.84 569.858V561.716H1081.49V577.322H1079V574.36C1078.4 575.9 1076.56 577.687 1074.25 577.687Z" fill="#00BFFF"/>
<path d="M1087.03 572.507L1089.72 572.037C1090.12 574.321 1091.58 575.495 1093.89 575.495C1095.97 575.495 1097.13 574.621 1097.13 573.16C1097.13 571.594 1096.33 570.915 1094.64 570.72L1092.12 570.433C1089.03 570.093 1087.57 568.345 1087.57 565.944C1087.57 563.1 1089.81 561.325 1093.48 561.325C1097.04 561.325 1099.44 563.191 1099.78 566.062L1097.16 566.649C1096.82 564.783 1095.54 563.465 1093.42 563.465C1091.36 563.465 1090.15 564.313 1090.15 565.801C1090.15 567.145 1091.02 567.953 1092.95 568.175L1095.44 568.449C1098.53 568.789 1099.74 570.42 1099.74 572.886C1099.74 575.847 1097.56 577.661 1093.76 577.661C1090.06 577.687 1087.59 575.848 1087.03 572.507Z" fill="#00BFFF"/>
<path d="M1117.93 570.198H1106.99C1106.99 573.133 1108.67 575.339 1111.57 575.339C1113.63 575.339 1114.9 574.06 1115.69 572.559L1117.93 573.747C1116.63 576.33 1114.5 577.674 1111.57 577.674C1106.68 577.674 1104.28 574.308 1104.28 569.193C1104.28 564.417 1107.02 561.325 1111.38 561.325C1116.16 561.325 1117.99 564.757 1117.99 568.997C1117.98 569.389 1117.96 569.793 1117.93 570.198ZM1111.25 563.4C1108.41 563.4 1106.98 565.735 1106.98 568.019H1115.24C1115.31 565.514 1114.06 563.4 1111.25 563.4Z" fill="#00BFFF"/>
<path d="M1135.5 554.697V577.309H1133.01V574.412C1132.08 576.435 1130.62 577.687 1128.06 577.687C1124.16 577.687 1121.63 574.438 1121.63 569.48C1121.63 564.587 1124.34 561.338 1128.46 561.338C1130.59 561.338 1132.08 562.486 1132.86 564.026V554.697H1135.5ZM1128.71 563.674C1126.03 563.674 1124.44 565.827 1124.44 569.48C1124.44 573.094 1126.03 575.352 1128.61 575.352C1131.25 575.352 1132.91 573.238 1132.91 569.858V569.141C1132.92 565.801 1131.29 563.674 1128.71 563.674Z" fill="#00BFFF"/>
<path d="M1162.06 564.431C1162.91 562.617 1164.77 561.338 1166.86 561.338C1170.88 561.338 1173.29 564.744 1173.29 569.48C1173.29 574.347 1170.82 577.687 1166.77 577.687C1164.68 577.687 1162.75 576.539 1161.91 574.634L1161.44 577.322H1159.42V554.71H1162.06V564.431ZM1166.14 575.339C1168.85 575.339 1170.47 573.029 1170.47 569.467C1170.47 566.009 1168.95 563.661 1166.19 563.661C1163.55 563.661 1161.98 565.748 1161.98 569.115V569.924C1162 573.186 1163.52 575.339 1166.14 575.339Z" fill="#00BFFF"/>
<path d="M1182.54 577.687C1181.11 577.687 1179.65 577.348 1178.55 576.317C1177.56 575.352 1177.12 573.89 1177.12 571.359V561.716H1179.83V571.268C1179.83 574.673 1181.45 575.417 1183.08 575.417C1186.35 575.417 1187.13 572.142 1187.13 569.858V561.716H1189.78V577.322H1187.29V574.36C1186.69 575.9 1184.85 577.687 1182.54 577.687Z" fill="#00BFFF"/>
<path d="M1194.76 561.717H1199.22V557.633L1201.87 556.51V561.717H1207.94V563.869H1201.87V571.946C1201.87 574.034 1202.86 575.039 1204.85 575.039C1205.88 575.039 1206.98 574.947 1207.94 574.752V577.178C1207.13 577.361 1206.26 577.583 1204.89 577.583C1200.99 577.583 1199.22 575.404 1199.22 572.311V563.856H1194.76V561.717Z" fill="#00BFFF"/>
<path d="M1212.8 561.717H1217.26V557.633L1219.91 556.51V561.717H1225.99V563.869H1219.91V571.946C1219.91 574.034 1220.91 575.039 1222.91 575.039C1223.94 575.039 1225.03 574.947 1226 574.752V577.178C1225.19 577.361 1224.32 577.583 1222.95 577.583C1219.05 577.583 1217.28 575.404 1217.28 572.311V563.856H1212.82V561.717H1212.8Z" fill="#00BFFF"/>
<path d="M1230.51 569.506C1230.51 564.548 1233.4 561.338 1237.77 561.338C1242.14 561.338 1245.03 564.548 1245.03 569.506C1245.03 574.464 1242.14 577.674 1237.77 577.674C1233.42 577.687 1230.51 574.412 1230.51 569.506ZM1242.23 569.506C1242.23 565.853 1240.57 563.635 1237.77 563.635C1234.97 563.635 1233.31 565.814 1233.31 569.506C1233.31 573.199 1234.97 575.378 1237.77 575.378C1240.59 575.378 1242.23 573.186 1242.23 569.506Z" fill="#00BFFF"/>
<path d="M1257.01 561.338C1258.29 561.338 1259.73 561.677 1260.78 562.682C1261.81 563.648 1262.28 565.148 1262.28 567.679V577.322H1259.64V567.836C1259.64 564.43 1257.95 563.687 1256.39 563.687C1252.87 563.687 1252.02 566.962 1252.02 569.18V577.322H1249.37V561.716H1251.86V564.809C1252.67 562.839 1254.39 561.338 1257.01 561.338Z" fill="#00BFFF"/>
</g>
</g>
<g id="button-push">
<g id="Vector_5">
<path d="M874.045 451.997C874.045 461.104 867.37 466.937 856.914 466.937H845.753V487.566H839V437.057H856.914C867.357 437.057 874.045 442.889 874.045 451.997ZM866.94 451.997C866.94 446.373 862.741 442.746 856.21 442.746H845.767V461.248H856.21C862.741 461.248 866.94 457.621 866.94 451.997Z" fill="#FF8D1E"/>
<path d="M879.521 474.687V451.997H885.557V473.983C885.557 479.959 888.113 483.234 892.806 483.234C898.49 483.234 902.337 478.393 902.337 471.138V451.997H908.373V487.566H902.689V480.885C901.059 485.23 896.652 488.427 891.672 488.427C882.715 488.427 879.521 483.012 879.521 474.687Z" fill="#FF8D1E"/>
<path d="M916.339 476.618L922.454 475.548C923.379 480.741 926.717 483.442 931.984 483.442C936.743 483.442 939.376 481.446 939.376 478.106C939.376 474.544 937.525 472.978 933.692 472.56L927.929 471.921C920.889 471.138 917.551 467.158 917.551 461.678C917.551 455.207 922.675 451.149 931.058 451.149C939.155 451.149 944.63 455.415 945.413 461.965L939.441 463.322C938.659 459.056 935.739 456.068 930.915 456.068C926.221 456.068 923.457 457.986 923.457 461.404C923.457 464.458 925.452 466.31 929.859 466.806L935.543 467.446C942.584 468.228 945.348 471.921 945.348 477.545C945.348 484.303 940.367 488.427 931.697 488.427C923.236 488.427 917.617 484.225 916.339 476.618Z" fill="#FF8D1E"/>
<path d="M954.083 436H960.119V458.69C962.257 453.641 966.234 451.005 971.775 451.005C979.454 451.005 983.509 455.989 983.509 465.449V487.579H977.472V465.88C977.472 459.617 974.839 456.342 969.728 456.342C963.613 456.342 960.132 460.961 960.132 469.011V487.579H954.096V436H954.083Z" fill="#FF8D1E"/>
</g>
<path id="Vector_6" d="M1062.17 510.073H761.508C749.787 510.073 740.27 500.561 740.27 488.818V435.269C740.27 423.539 749.774 414.014 761.508 414.014H1062.17C1073.89 414.014 1083.41 423.526 1083.41 435.269V488.818C1083.41 500.561 1073.89 510.073 1062.17 510.073Z" stroke="#FF8D1E" stroke-width="2" stroke-miterlimit="10"/>
</g>
<g id="text bubble">
<g id="Group 2">
<path id="Vector_7" d="M42.3681 386.691H281.855C304.058 386.691 322.063 368.672 322.063 346.451V292.942C322.063 270.721 304.058 252.702 281.855 252.702H42.3681C20.1651 252.702 2.16016 270.721 2.16016 292.942V346.451C2.16016 368.672 20.1651 386.691 42.3681 386.691Z" fill="white"/>
<path id="Vector_8" d="M42.3681 386.691H281.855C304.058 386.691 322.063 368.672 322.063 346.451V292.942C322.063 270.721 304.058 252.702 281.855 252.702H42.3681C20.1651 252.702 2.16016 270.721 2.16016 292.942V346.451C2.16016 368.672 20.1651 386.691 42.3681 386.691Z" stroke="#FF8D1E" stroke-width="3" stroke-miterlimit="10" stroke-dasharray="21.44 21.44"/>
<path id="Vector_9" d="M126.564 386.691V460.138H740.869" fill="white"/>
<path id="Vector_10" d="M126.564 386.691V400.392" stroke="#FF8D1E" stroke-width="3" stroke-miterlimit="10"/>
<path id="Vector_11" d="M126.564 415.736V438.766" stroke="#FF8D1E" stroke-width="3" stroke-miterlimit="10" stroke-dasharray="11.76 11.76"/>
<path id="Vector_12" d="M126.564 446.438V460.138H140.254" stroke="#FF8D1E" stroke-width="3" stroke-miterlimit="10"/>
<path id="Vector_13" d="M168.207 460.138H713.204" stroke="#FF8D1E" stroke-width="3" stroke-miterlimit="10" stroke-dasharray="21.44 21.44"/>
<path id="Vector_14" d="M727.18 460.138H740.87" stroke="#FF8D1E" stroke-width="3" stroke-miterlimit="10"/>
</g>
<g id="Vector_15">
<path d="M57.0742 291.637C56.2528 291.637 55.3793 291.611 54.8057 291.441V289.041C55.5749 289.184 56.5266 289.184 57.1003 289.184C58.6778 289.184 60.0989 288.61 60.0989 285.909V271.804H62.6934V286.092C62.6934 290.437 59.9685 291.637 57.0742 291.637Z" fill="#FF8D1E"/>
<path d="M67.0479 286.235V277.532H69.3686V285.961C69.3686 288.258 70.3464 289.51 72.1456 289.51C74.3229 289.51 75.7961 287.657 75.7961 284.878V277.545H78.1168V291.18H75.9396V288.623C75.3138 290.293 73.6189 291.52 71.7154 291.52C68.2735 291.494 67.0479 289.419 67.0479 286.235Z" fill="#FF8D1E"/>
<path d="M81.6501 286.966L83.9968 286.561C84.3489 288.558 85.6265 289.589 87.6474 289.589C89.4726 289.589 90.4765 288.832 90.4765 287.54C90.4765 286.183 89.7725 285.57 88.2993 285.413L86.0959 285.165C83.3971 284.865 82.1194 283.339 82.1194 281.238C82.1194 278.759 84.0881 277.206 87.2954 277.206C90.3983 277.206 92.4973 278.837 92.7972 281.355L90.5026 281.877C90.2027 280.246 89.0815 279.098 87.2302 279.098C85.431 279.098 84.3749 279.829 84.3749 281.147C84.3749 282.321 85.1441 283.025 86.826 283.221L89.0033 283.469C91.702 283.769 92.7581 285.191 92.7581 287.344C92.7581 289.941 90.8546 291.52 87.53 291.52C84.2967 291.494 82.1455 289.889 81.6501 286.966Z" fill="#FF8D1E"/>
<path d="M94.2965 277.532H96.8258V273.957L99.1465 272.979V277.532H102.549V279.437H99.1465V286.992C99.1465 288.545 99.7462 289.223 101.141 289.223C101.741 289.223 102.093 289.145 102.562 289.028V291.154C101.963 291.311 101.415 291.402 100.542 291.402C97.595 291.402 96.8388 289.602 96.8388 287.07V279.437H94.2965V277.532Z" fill="#FF8D1E"/>
<path d="M115.222 277.532V280.064C116.095 278.185 117.673 277.206 119.668 277.206C122.966 277.206 125.169 280.037 125.169 284.356C125.169 288.727 122.823 291.507 119.524 291.507C117.425 291.507 115.952 290.358 115.352 289.028V296.504H113.031V277.532H115.222ZM122.718 284.356C122.718 281.133 121.349 279.255 119.068 279.255C116.773 279.255 115.313 281.055 115.313 284.004V284.656C115.313 287.605 116.734 289.458 118.99 289.458C121.297 289.458 122.718 287.54 122.718 284.356Z" fill="#FF8D1E"/>
<path d="M128.69 272.078H131.336V275.001H128.69V272.078ZM128.846 277.532H131.167V291.167H128.846V277.532Z" fill="#FF8D1E"/>
<path d="M134.843 284.356C134.843 279.907 137.242 277.206 141.114 277.206C144.309 277.206 146.369 279.033 146.734 282.164L144.361 282.438C144.113 280.364 142.914 279.215 141.062 279.215C138.716 279.215 137.307 281.12 137.307 284.317C137.307 287.592 138.729 289.471 141.154 289.471C143.005 289.471 144.152 288.349 144.504 286.222L146.708 286.574C146.212 289.68 144.178 291.481 141.114 291.481C137.294 291.494 134.843 288.714 134.843 284.356Z" fill="#FF8D1E"/>
<path d="M155.338 284.487L152.861 286.992V291.167H150.541V271.387H152.861V284.239L158.963 277.532H161.988L156.994 282.791L162.314 291.167H159.458L155.338 284.487Z" fill="#FF8D1E"/>
<path d="M169.941 287.488C169.941 286.131 170.619 284.957 171.844 284.265C172.874 283.743 174.191 283.417 176.42 283.143L178.95 282.843V282.621C178.95 280.116 178.05 279.098 175.951 279.098C174.1 279.098 172.952 280.077 172.848 281.799H170.371C170.566 279.02 172.744 277.193 175.925 277.193C179.654 277.193 181.296 278.889 181.296 282.869V286.549C181.296 288.649 181.427 290.098 181.766 291.154H179.341C179.236 290.45 179.145 289.55 179.119 288.675C178.493 290.424 176.772 291.481 174.543 291.481C171.766 291.494 169.941 289.915 169.941 287.488ZM178.989 285.231V284.552L175.286 285.1C173.265 285.4 172.392 286.105 172.392 287.449C172.392 288.78 173.396 289.602 175.064 289.602C177.437 289.589 178.989 287.866 178.989 285.231Z" fill="#FF8D1E"/>
<path d="M191.713 284.356C191.713 279.907 194.112 277.206 197.984 277.206C201.179 277.206 203.239 279.033 203.604 282.164L201.231 282.438C200.983 280.364 199.784 279.215 197.932 279.215C195.585 279.215 194.177 281.12 194.177 284.317C194.177 287.592 195.599 289.471 198.024 289.471C199.875 289.471 201.022 288.349 201.374 286.222L203.578 286.574C203.082 289.68 201.048 291.481 197.984 291.481C194.164 291.494 191.713 288.714 191.713 284.356Z" fill="#FF8D1E"/>
<path d="M206.042 284.356C206.042 279.907 208.545 277.206 212.391 277.206C216.237 277.206 218.74 279.907 218.74 284.356C218.74 288.806 216.237 291.507 212.391 291.507C208.558 291.494 206.042 288.793 206.042 284.356ZM216.289 284.356C216.289 280.977 214.842 279.229 212.391 279.229C209.94 279.229 208.493 280.977 208.493 284.356C208.493 287.736 209.94 289.484 212.391 289.484C214.842 289.484 216.289 287.736 216.289 284.356Z" fill="#FF8D1E"/>
<path d="M224.881 291.167H222.56V271.387H224.881V291.167Z" fill="#FF8D1E"/>
<path d="M228.688 284.356C228.688 279.907 231.191 277.206 235.037 277.206C238.883 277.206 241.386 279.907 241.386 284.356C241.386 288.806 238.883 291.507 235.037 291.507C231.191 291.494 228.688 288.793 228.688 284.356ZM238.935 284.356C238.935 280.977 237.488 279.229 235.037 279.229C232.586 279.229 231.139 280.977 231.139 284.356C231.139 287.736 232.586 289.484 235.037 289.484C237.488 289.484 238.935 287.736 238.935 284.356Z" fill="#FF8D1E"/>
<path d="M244.659 286.235V277.532H246.98V285.961C246.98 288.258 247.957 289.51 249.757 289.51C251.934 289.51 253.407 287.657 253.407 284.878V277.545H255.728V291.18H253.551V288.623C252.925 290.293 251.23 291.52 249.326 291.52C245.884 291.494 244.659 289.419 244.659 286.235Z" fill="#FF8D1E"/>
<path d="M266.927 277.206C267.097 277.206 267.253 277.206 267.423 277.232V279.503H267.318C265.897 279.503 264.971 279.907 264.32 280.572C263.016 281.877 262.951 283.704 262.951 285.348V291.18H260.63V277.545H262.781V280.651C263.433 278.733 264.854 277.206 266.927 277.206Z" fill="#FF8D1E"/>
<path d="M55.4966 323.057C55.4966 321.7 56.1745 320.525 57.4001 319.834C58.43 319.312 59.7468 318.986 61.9763 318.712L64.5056 318.411V318.19C64.5056 315.684 63.606 314.667 61.5069 314.667C59.6556 314.667 58.5083 315.645 58.404 317.368H55.9268C56.1224 314.588 58.2997 312.762 61.4808 312.762C65.2096 312.762 66.8523 314.458 66.8523 318.438V322.117C66.8523 324.218 66.9827 325.666 67.3217 326.723H64.8967C64.7924 326.018 64.7011 325.118 64.675 324.244C64.0492 325.992 62.3283 327.049 60.0988 327.049C57.3218 327.062 55.4966 325.483 55.4966 323.057ZM64.5447 320.799V320.121L60.842 320.669C58.8212 320.969 57.9476 321.673 57.9476 323.017C57.9476 324.361 58.9515 325.17 60.6204 325.17C62.9932 325.157 64.5447 323.435 64.5447 320.799Z" fill="#FF8D1E"/>
<path d="M73.5797 313.101V315.802C74.4793 313.727 75.9786 312.723 78.1298 312.723C81.1285 312.723 82.6799 314.602 82.6799 318.255V326.736H80.3592V318.385C80.3592 315.985 79.3553 314.758 77.3606 314.758C75.1051 314.758 73.7101 316.585 73.7101 319.612V326.736H71.3894V313.101H73.5797Z" fill="#FF8D1E"/>
<path d="M85.9524 319.925C85.9524 315.724 88.3513 312.775 91.7541 312.775C93.5533 312.775 94.8832 313.506 95.7567 315.123V306.969H98.0774V326.749H95.9001V324.218C95.0787 326.045 93.6055 327.088 91.4804 327.088C88.1949 327.062 85.9524 324.205 85.9524 319.925ZM95.8219 320.251V319.625C95.8219 316.65 94.4008 314.823 92.1192 314.823C89.7985 314.823 88.4165 316.702 88.4165 319.925C88.4165 323.122 89.8115 325.027 92.1192 325.027C94.3747 325.027 95.8219 323.174 95.8219 320.251Z" fill="#FF8D1E"/>
<path d="M112.393 313.101V315.632C113.266 313.753 114.844 312.762 116.838 312.762C120.137 312.762 122.34 315.593 122.34 319.912C122.34 324.27 119.993 327.062 116.695 327.062C114.596 327.062 113.123 325.914 112.523 324.583V332.06H110.202V313.101H112.393ZM119.889 319.925C119.889 316.702 118.52 314.823 116.239 314.823C113.944 314.823 112.484 316.624 112.484 319.573V320.225C112.484 323.174 113.905 325.027 116.16 325.027C118.468 325.027 119.889 323.109 119.889 319.925Z" fill="#FF8D1E"/>
<path d="M124.648 323.057C124.648 321.7 125.326 320.525 126.551 319.834C127.581 319.312 128.898 318.986 131.128 318.712L133.657 318.411V318.19C133.657 315.684 132.757 314.667 130.658 314.667C128.807 314.667 127.66 315.645 127.555 317.368H125.078C125.274 314.588 127.451 312.762 130.632 312.762C134.361 312.762 136.004 314.458 136.004 318.438V322.117C136.004 324.218 136.134 325.666 136.473 326.723H134.048C133.944 326.018 133.852 325.118 133.826 324.244C133.201 325.992 131.48 327.049 129.25 327.049C126.473 327.062 124.648 325.483 124.648 323.057ZM133.696 320.799V320.121L129.993 320.669C127.973 320.969 127.099 321.673 127.099 323.017C127.099 324.361 128.103 325.17 129.772 325.17C132.145 325.157 133.696 323.435 133.696 320.799Z" fill="#FF8D1E"/>
<path d="M140.397 307.647H143.044V310.57H140.397V307.647ZM140.567 313.101H142.888V326.736H140.567V313.101Z" fill="#FF8D1E"/>
<path d="M149.967 313.101V315.802C150.867 313.727 152.366 312.723 154.517 312.723C157.516 312.723 159.067 314.602 159.067 318.255V326.736H156.746V318.385C156.746 315.985 155.743 314.758 153.748 314.758C151.492 314.758 150.097 316.585 150.097 319.612V326.736H147.777V313.101H149.967Z" fill="#FF8D1E"/>
<path d="M161.244 313.101H163.774V309.526L166.094 308.547V313.101H169.497V315.006H166.094V322.561C166.094 324.113 166.694 324.792 168.089 324.792C168.689 324.792 169.041 324.714 169.51 324.596V326.723C168.911 326.88 168.363 326.971 167.489 326.971C164.543 326.971 163.787 325.17 163.787 322.639V315.006H161.257V313.101H161.244Z" fill="#FF8D1E"/>
<path d="M178.115 332.112V330.063C178.467 330.089 178.793 330.116 179.093 330.116C180.723 330.116 181.57 329.385 182.196 327.584L182.548 326.58L177.124 313.101H179.719L183.213 322.587C183.461 323.265 183.591 323.813 183.682 324.192H183.734C183.813 323.813 183.982 323.265 184.204 322.587L187.359 313.101H189.862L184.543 327.61C183.291 331.081 181.648 332.216 179.367 332.216C178.963 332.229 178.545 332.19 178.115 332.112Z" fill="#FF8D1E"/>
<path d="M190.944 319.925C190.944 315.476 193.447 312.775 197.293 312.775C201.139 312.775 203.643 315.476 203.643 319.925C203.643 324.375 201.139 327.075 197.293 327.075C193.46 327.062 190.944 324.375 190.944 319.925ZM201.192 319.925C201.192 316.546 199.744 314.797 197.293 314.797C194.842 314.797 193.395 316.546 193.395 319.925C193.395 323.305 194.842 325.053 197.293 325.053C199.744 325.053 201.192 323.305 201.192 319.925Z" fill="#FF8D1E"/>
<path d="M206.915 321.804V313.101H209.236V321.53C209.236 323.826 210.214 325.079 212.013 325.079C214.19 325.079 215.663 323.226 215.663 320.447V313.114H217.984V326.749H215.807V324.192C215.181 325.862 213.486 327.088 211.583 327.088C208.141 327.062 206.915 325.001 206.915 321.804Z" fill="#FF8D1E"/>
<path d="M229.183 312.775C229.353 312.775 229.509 312.775 229.679 312.801V315.071H229.574C228.153 315.071 227.228 315.476 226.576 316.141C225.272 317.446 225.207 319.273 225.207 320.917V326.749H222.886V313.114H225.037V316.22C225.689 314.302 227.11 312.775 229.183 312.775Z" fill="#FF8D1E"/>
<path d="M237.436 319.925C237.436 315.476 239.939 312.775 243.785 312.775C247.631 312.775 250.135 315.476 250.135 319.925C250.135 324.375 247.631 327.075 243.785 327.075C239.939 327.062 237.436 324.375 237.436 319.925ZM247.684 319.925C247.684 316.546 246.236 314.797 243.785 314.797C241.334 314.797 239.887 316.546 239.887 319.925C239.887 323.305 241.334 325.053 243.785 325.053C246.236 325.053 247.684 323.305 247.684 319.925Z" fill="#FF8D1E"/>
<path d="M252.038 313.101H254.437L256.888 322.835C256.992 323.331 257.11 323.905 257.188 324.44H257.24C257.318 323.892 257.488 323.318 257.592 322.835L260.069 313.101H262.572L265.05 322.835C265.154 323.331 265.323 323.905 265.402 324.44H265.454C265.532 323.892 265.649 323.318 265.754 322.835L268.205 313.101H270.604L266.758 326.736H264.228L261.634 316.911C261.529 316.48 261.386 315.789 261.334 315.384H261.308C261.256 315.789 261.112 316.48 261.008 316.911L258.413 326.736H255.884L252.038 313.101Z" fill="#FF8D1E"/>
<path d="M275.936 313.101V315.802C276.836 313.727 278.335 312.723 280.486 312.723C283.485 312.723 285.036 314.602 285.036 318.255V326.736H282.716V318.385C282.716 315.985 281.712 314.758 279.717 314.758C277.462 314.758 276.067 316.585 276.067 319.612V326.736H273.746V313.101H275.936Z" fill="#FF8D1E"/>
<path d="M56.5527 343.216H59.1993V346.138H56.5527V343.216ZM56.7221 348.67H59.0428V362.305H56.7221V348.67Z" fill="#FF8D1E"/>
<path d="M62.7194 355.494C62.7194 351.044 65.1183 348.343 68.9905 348.343C72.1847 348.343 74.2446 350.17 74.6097 353.302L72.2369 353.576C71.9891 351.501 70.7897 350.353 68.9383 350.353C66.5916 350.353 65.1835 352.258 65.1835 355.455C65.1835 358.73 66.6046 360.609 69.0296 360.609C70.8809 360.609 72.0282 359.486 72.3803 357.36L74.5836 357.712C74.0882 360.817 72.0543 362.618 68.9905 362.618C65.1705 362.631 62.7194 359.852 62.7194 355.494Z" fill="#FF8D1E"/>
<path d="M77.0477 355.494C77.0477 351.044 79.5509 348.343 83.397 348.343C87.2431 348.343 89.7463 351.044 89.7463 355.494C89.7463 359.943 87.2431 362.644 83.397 362.644C79.5509 362.631 77.0477 359.93 77.0477 355.494ZM87.2953 355.494C87.2953 352.114 85.8481 350.366 83.397 350.366C80.946 350.366 79.4988 352.114 79.4988 355.494C79.4988 358.873 80.946 360.622 83.397 360.622C85.8481 360.622 87.2953 358.873 87.2953 355.494Z" fill="#FF8D1E"/>
<path d="M95.6002 348.67V351.371C96.4998 349.296 97.9991 348.291 100.15 348.291C103.149 348.291 104.7 350.17 104.7 353.824V362.305H102.38V353.954C102.38 351.553 101.376 350.327 99.3811 350.327C97.1256 350.327 95.7306 352.153 95.7306 355.181V362.305H93.4099V348.67H95.6002Z" fill="#FF8D1E"/>
<path d="M109.472 342.537H112.471L111.793 357.347H110.163L109.472 342.537ZM112.419 362.305H109.524V359.408H112.419V362.305Z" fill="#FF8D1E"/>
</g>
</g>
</g>
</svg>
