			<svg width="auto" height="auto" viewBox="0 0 1717 914" fill="none" xmlns="http://www.w3.org/2000/svg">
				<g id="second-popup">
					<g id="company2">
						<g id="window">
							<path id="Vector" d="M1680.5 677.5H1128.5C1109.2 677.5 1093.5 661.8 1093.5 642.5V115.5C1093.5 96.2 1109.2 80.5 1128.5 80.5H1680.5C1699.8 80.5 1715.5 96.2 1715.5 115.5V642.5C1715.5 661.8 1699.8 677.5 1680.5 677.5Z" fill="#D3F3FF" stroke="#00BBFF" stroke-width="3" stroke-miterlimit="10" stroke-linecap="round" stroke-linejoin="round"/>
							<path id="Vector_2" d="M1093.2 116H1716" stroke="#00BBFF" stroke-width="3" stroke-miterlimit="10"/>
							<path id="Vector_3" d="M1119.3 106.4C1115.9 106.4 1113.2 103.7 1113.2 100.3C1113.2 96.9002 1115.9 94.2002 1119.3 94.2002C1122.7 94.2002 1125.4 96.9002 1125.4 100.3C1125.4 103.7 1122.7 106.4 1119.3 106.4Z" fill="white"/>
							<path id="Vector_4" d="M1119.3 95.7002C1121.8 95.7002 1123.9 97.8002 1123.9 100.3C1123.9 102.8 1121.8 104.9 1119.3 104.9C1116.8 104.9 1114.7 102.8 1114.7 100.3C1114.7 97.8002 1116.7 95.7002 1119.3 95.7002ZM1119.3 92.7002C1115.1 92.7002 1111.7 96.1002 1111.7 100.3C1111.7 104.5 1115.1 107.9 1119.3 107.9C1123.5 107.9 1126.9 104.5 1126.9 100.3C1126.9 96.1002 1123.5 92.7002 1119.3 92.7002Z" fill="#00BBFF"/>
							<path id="Vector_5" d="M1139.6 106.4C1136.2 106.4 1133.5 103.7 1133.5 100.3C1133.5 96.9002 1136.2 94.2002 1139.6 94.2002C1143 94.2002 1145.7 96.9002 1145.7 100.3C1145.7 103.7 1143 106.4 1139.6 106.4Z" fill="white"/>
							<path id="Vector_6" d="M1139.6 95.7002C1142.1 95.7002 1144.2 97.8002 1144.2 100.3C1144.2 102.8 1142.1 104.9 1139.6 104.9C1137.1 104.9 1135 102.9 1135 100.3C1135 97.7002 1137.1 95.7002 1139.6 95.7002ZM1139.6 92.7002C1135.4 92.7002 1132 96.1002 1132 100.3C1132 104.5 1135.4 107.9 1139.6 107.9C1143.8 107.9 1147.2 104.5 1147.2 100.3C1147.2 96.1002 1143.8 92.7002 1139.6 92.7002Z" fill="#00BBFF"/>
							<path id="Vector_7" d="M1159.9 106.4C1156.5 106.4 1153.8 103.7 1153.8 100.3C1153.8 96.9002 1156.5 94.2002 1159.9 94.2002C1163.3 94.2002 1166 96.9002 1166 100.3C1166 103.7 1163.3 106.4 1159.9 106.4Z" fill="white"/>
							<path id="Vector_8" d="M1159.9 95.7002C1162.4 95.7002 1164.5 97.8002 1164.5 100.3C1164.5 102.8 1162.4 104.9 1159.9 104.9C1157.4 104.9 1155.3 102.8 1155.3 100.3C1155.3 97.8002 1157.4 95.7002 1159.9 95.7002ZM1159.9 92.7002C1155.7 92.7002 1152.3 96.1002 1152.3 100.3C1152.3 104.5 1155.7 107.9 1159.9 107.9C1164.1 107.9 1167.5 104.5 1167.5 100.3C1167.5 96.1002 1164.1 92.7002 1159.9 92.7002Z" fill="#00BBFF"/>
							<path id="button-hole" d="M1632.3 625H1165.1C1148.3 625 1134.7 611.4 1134.7 594.6V577.7C1134.7 560.9 1148.3 547.3 1165.1 547.3H1632.3C1649.1 547.3 1662.7 560.9 1662.7 577.7V594.6C1662.8 611.4 1649.1 625 1632.3 625Z" fill="white" stroke="#FF921E" stroke-width="3" stroke-miterlimit="10"/>
						</g>
						<a xlink:href="#go-company-two">
							<g id="button" class="button-company2">
								<path id="Vector_9" d="M1632.6 624.7H1165.4C1148.6 624.7 1135 611.1 1135 594.3V577.4C1135 560.6 1148.6 547 1165.4 547H1632.6C1649.4 547 1663 560.6 1663 577.4V594.3C1663.1 611.1 1649.5 624.7 1632.6 624.7Z" fill="#FF921E"/>
								<path id="Vector_10" d="M1185 571.6C1185 568.9 1185.7 566.9 1187.1 565.5C1188.5 564.1 1190.5 563.4 1193.2 563.4H1205.1C1207.7 563.4 1209.7 564.1 1211.1 565.5C1212.5 566.9 1213.2 568.9 1213.2 571.6V601.1C1213.2 603.8 1212.5 605.8 1211.1 607.2C1209.7 608.6 1207.7 609.3 1205.1 609.3H1193.2C1190.5 609.3 1188.5 608.6 1187.1 607.2C1185.7 605.8 1185 603.8 1185 601.1V571.6Z" fill="white"/>
								<path id="Vector_11" d="M1217.4 571.6C1217.4 568.9 1218.1 566.9 1219.5 565.5C1220.9 564.1 1222.9 563.4 1225.6 563.4H1258.6C1261.3 563.4 1263.3 564.1 1264.8 565.5C1266.3 566.9 1267 568.9 1267 571.6V599.4C1267 600.3 1267.2 600.9 1267.7 601.4C1268.2 601.9 1268.9 602.1 1269.7 602.1H1270.9C1271.8 602.1 1272.4 601.9 1272.9 601.4C1273.4 600.9 1273.6 600.2 1273.6 599.4V571.6C1273.6 568.9 1274.3 566.9 1275.7 565.5C1277.1 564.1 1279.1 563.4 1281.7 563.4H1293.6C1296.3 563.4 1298.3 564.1 1299.7 565.5C1301.1 566.9 1301.8 568.9 1301.8 571.6V601.1C1301.8 603.8 1301.1 605.8 1299.7 607.2C1298.3 608.6 1296.3 609.3 1293.6 609.3H1260.6C1258 609.3 1255.9 608.6 1254.4 607.2C1252.9 605.8 1252.2 603.8 1252.2 601.1V573.3C1252.2 572.4 1252 571.8 1251.5 571.3C1251 570.8 1250.4 570.6 1249.5 570.6H1248.2C1247.3 570.6 1246.7 570.8 1246.2 571.3C1245.7 571.8 1245.5 572.5 1245.5 573.3V601.1C1245.5 603.8 1244.8 605.8 1243.4 607.2C1242 608.6 1240 609.3 1237.3 609.3H1225.4C1222.8 609.3 1220.8 608.6 1219.3 607.2C1217.9 605.8 1217.2 603.8 1217.2 601.1V571.6H1217.4Z" fill="white"/>
								<path id="Vector_12" d="M1310.3 609.3C1309 609.3 1308.1 609 1307.4 608.4C1306.7 607.8 1306.4 606.9 1306.4 605.8C1306.4 604.7 1306.7 603.8 1307.4 603.2C1308.1 602.6 1309 602.3 1310.3 602.3H1334.5V592.5C1334.5 591.6 1334.2 590.9 1333.7 590.4C1333.2 589.9 1332.5 589.6 1331.6 589.6H1314.4C1311.8 589.6 1309.8 588.9 1308.3 587.5C1306.9 586.1 1306.2 584.1 1306.2 581.4V571.7C1306.2 569 1306.9 567 1308.3 565.6C1309.7 564.2 1311.7 563.5 1314.4 563.5H1357.8C1359.1 563.5 1360 563.8 1360.7 564.4C1361.4 565 1361.7 565.9 1361.7 567C1361.7 568.1 1361.4 569 1360.7 569.6C1360 570.2 1359.1 570.5 1357.8 570.5H1334.5V579.6C1334.5 580.5 1334.8 581.2 1335.3 581.7C1335.8 582.2 1336.5 582.5 1337.4 582.5H1354.6C1357.3 582.5 1359.3 583.2 1360.7 584.6C1362.1 586 1362.8 588 1362.8 590.7V601.2C1362.8 603.9 1362.1 605.9 1360.7 607.3C1359.3 608.7 1357.3 609.4 1354.6 609.4H1310.3V609.3Z" fill="white"/>
								<path id="Vector_13" d="M1375.3 609.3C1372.7 609.3 1370.7 608.6 1369.2 607.2C1367.8 605.8 1367.1 603.8 1367.1 601.1V571.6C1367.1 568.9 1367.8 566.9 1369.2 565.5C1370.6 564.1 1372.6 563.4 1375.3 563.4H1422.4C1425.1 563.4 1427.1 564.1 1428.5 565.5C1429.9 566.9 1430.6 568.9 1430.6 571.6V581.5C1430.6 584.2 1429.9 586.2 1428.5 587.6C1427.1 589 1425.1 589.7 1422.4 589.7H1395.4V601.1C1395.4 603.8 1394.7 605.8 1393.3 607.2C1391.9 608.6 1389.9 609.3 1387.2 609.3H1375.3ZM1399.4 583C1400.3 583 1401 582.8 1401.5 582.2C1402 581.7 1402.3 581 1402.3 580.1V573C1402.3 572.1 1402 571.4 1401.5 570.9C1401 570.4 1400.3 570.1 1399.4 570.1H1395.3V583H1399.4Z" fill="white"/>
								<path id="Vector_14" d="M1434.4 595.9C1434.4 593.2 1435 591.2 1436.2 589.8C1437.4 588.4 1439.1 587.7 1441.3 587.7V585C1439.1 585 1437.4 584.3 1436.2 582.9C1435 581.5 1434.4 579.5 1434.4 576.9V571.7C1434.4 569 1435.1 567 1436.5 565.6C1437.9 564.2 1439.9 563.5 1442.6 563.5H1486C1487.2 563.5 1488.2 563.8 1488.9 564.4C1489.6 565 1489.9 565.9 1489.9 567C1489.9 568.1 1489.6 569 1488.9 569.6C1488.2 570.2 1487.2 570.5 1486 570.5H1462.6V582.4H1486C1487.2 582.4 1488.2 582.7 1488.9 583.3C1489.6 583.9 1489.9 584.8 1489.9 585.9C1489.9 587 1489.6 587.9 1488.9 588.6C1488.2 589.2 1487.2 589.5 1486 589.5H1462.6V602.1H1486C1487.2 602.1 1488.2 602.4 1488.9 603C1489.6 603.6 1489.9 604.5 1489.9 605.6C1489.9 606.7 1489.6 607.6 1488.9 608.2C1488.2 608.8 1487.2 609.1 1486 609.1H1442.6C1439.9 609.1 1437.9 608.4 1436.5 607C1435.1 605.6 1434.4 603.6 1434.4 600.9V595.9Z" fill="white"/>
								<path id="Vector_15" d="M1494.1 571.6C1494.1 568.9 1494.8 566.9 1496.2 565.5C1497.6 564.1 1499.6 563.4 1502.3 563.4H1545.7C1547 563.4 1547.9 563.7 1548.6 564.3C1549.3 564.9 1549.6 565.8 1549.6 566.9C1549.6 568 1549.3 568.9 1548.6 569.5C1547.9 570.1 1547 570.4 1545.7 570.4H1522.4V602.1H1545.7C1547 602.1 1547.9 602.4 1548.6 603C1549.3 603.6 1549.6 604.5 1549.6 605.6C1549.6 606.7 1549.3 607.6 1548.6 608.2C1547.9 608.8 1547 609.1 1545.7 609.1H1502.3C1499.7 609.1 1497.7 608.4 1496.2 607C1494.8 605.6 1494.1 603.6 1494.1 600.9V571.6Z" fill="white"/>
								<path id="Vector_16" d="M1553.7 567C1553.7 565.9 1554 565 1554.7 564.4C1555.4 563.8 1556.3 563.5 1557.6 563.5H1612C1613.3 563.5 1614.2 563.8 1614.9 564.4C1615.6 565 1615.9 565.9 1615.9 567C1615.9 568.1 1615.6 569 1614.9 569.6C1614.2 570.2 1613.3 570.5 1612 570.5H1598.9V601.1C1598.9 603.8 1598.2 605.8 1596.8 607.2C1595.4 608.6 1593.4 609.3 1590.8 609.3H1578.9C1576.2 609.3 1574.2 608.6 1572.8 607.2C1571.4 605.8 1570.7 603.8 1570.7 601.1V570.5H1557.6C1556.3 570.5 1555.4 570.2 1554.7 569.6C1554.1 569 1553.7 568.1 1553.7 567Z" fill="white"/>
								<animateTransform attributeType="XML" attributeName="transform" type="translate" from="15 -15" to="0 0" dur="0.3s" values="15 -15; 10 -10; 0 0" id="go-company-two" fill="freeze" begin="go-company-two.begin"/>
			                	<animateTransform attributeType="XML" attributeName="transform" type="translate" from="0 0" to="15 -15" dur="0.3s" fill="freeze"/>
							</g>
						</a>
						<g id="logo">
							<path id="Vector_17" d="M1269.3 249.9C1290.3 236.6 1311.5 223.5 1332.3 209.8C1337.1 206.7 1340.2 206.9 1344.8 209.9C1362.4 221.6 1380.4 232.7 1398.2 244C1399.5 244.9 1401 245.6 1402.3 246.4C1404.6 247.2 1407 247.9 1408.7 249.9C1408.8 250.3 1408.7 250.7 1408.4 251.1C1386.5 264.6 1364.9 278.7 1343.1 292.4C1341.4 293.5 1339.8 294.8 1337.5 294.4C1330.7 291.1 1324.6 286.6 1318.2 282.6C1302.9 273 1287.8 263.2 1272.5 253.6C1271.2 252.8 1270.2 251.9 1269.2 250.8C1269.3 250.5 1269.3 250.2 1269.3 249.9Z" fill="#005CF5"/>
							<path id="Vector_18" d="M1408.6 338.3C1407 337.8 1406.2 339.2 1405.2 339.8C1384 353.2 1362.9 366.6 1341.8 380.1C1339.4 381.6 1337.8 381.8 1335.3 380.2C1313.4 366.1 1291.3 352.3 1269.3 338.3C1269.3 338 1269.3 337.7 1269.3 337.4C1272.4 334 1276.6 332.1 1280.3 329.7C1298.1 318.4 1315.8 307 1333.6 295.8C1334.8 295 1335.9 294 1337.5 294C1339.6 293.7 1341.4 294.6 1343.2 295.7C1362.6 308 1382 320.3 1401.3 332.7C1403.6 334.2 1406.2 335.3 1408.4 337C1408.6 337.2 1408.7 337.5 1408.7 337.8C1408.7 338.1 1408.6 338.3 1408.6 338.3Z" fill="#005CF5"/>
							<path id="Vector_19" d="M1406.8 440.8C1406.2 439.3 1404.6 438.9 1403.5 438.2C1383.4 425.3 1363.2 412.5 1343 399.7C1341.7 398.8 1340.3 398 1338.6 396.8C1339.8 396 1340.7 395.4 1341.6 394.8C1362.5 381.5 1383.4 368.3 1404.3 354.9C1406.9 353.2 1408.7 353.2 1411.3 354.9C1433 368.8 1454.8 382.6 1476.5 396.5C1475.8 398.3 1474.1 398.7 1472.8 399.5C1452.5 412.4 1432.2 425.3 1412 438.2C1410.8 439 1409.3 439.3 1408.7 440.8C1408 440.8 1407.4 440.8 1406.8 440.8Z" fill="#005CF5"/>
							<path id="Vector_20" d="M1408.5 250.5C1408.5 250.3 1408.5 250.2 1408.5 250C1408.4 246.9 1411.2 247.4 1412.9 246.4C1430.3 235.5 1447.7 224.5 1465 213.6C1468.9 211.1 1472.9 207 1476.9 206.9C1480.7 206.8 1484.6 211.1 1488.4 213.5C1506.1 224.7 1523.8 236 1541.5 247.3C1542.8 248.1 1544.2 249 1545.8 250.1C1544.1 251.2 1542.9 252.1 1541.6 252.9C1521.5 265.7 1501.5 278.4 1481.4 291.2C1480.1 292.1 1478.8 293.1 1477.5 294C1475.6 295.1 1474.2 293.9 1472.7 293C1452.1 280 1431.5 266.8 1410.9 253.8C1410 252.9 1408.6 252.3 1408.5 250.5Z" fill="#005CF5"/>
							<path id="Vector_21" d="M1408.6 338.3C1408.6 338.1 1408.6 337.9 1408.6 337.8C1408.7 335.9 1410.3 335.2 1411.6 334.4C1431.8 321.6 1451.9 308.7 1472.1 296C1473.9 294.9 1475.6 293.8 1477.8 294.5C1486 299.8 1494.1 305.2 1502.4 310.4C1516.8 319.6 1531.2 328.7 1545.6 337.9C1545.3 339.5 1543.9 339.8 1542.9 340.4C1521.9 353.8 1500.8 367.2 1479.8 380.6C1478.1 381.7 1476.9 382.3 1474.8 381C1453.2 367.1 1431.5 353.4 1409.9 339.6C1409.3 339.1 1409 338.7 1408.6 338.3Z" fill="#005CF5"/>
							<path id="Vector_22" d="M1413 246.4C1411.5 247.6 1410.1 248.8 1408.6 250C1406 249.7 1404.3 247.9 1402.4 246.4C1405.9 245.2 1409.4 245.2 1413 246.4Z" fill="#F5F5F5"/>
						</g>
					</g>
					<g id="news2">
						<g id="window_2">
							<path id="Vector_23" d="M1064.64 911.682H56.3591C26.5584 911.682 2.31641 887.427 2.31641 857.609V56.3911C2.31641 26.5733 26.5584 2.31738 56.3591 2.31738H1064.64C1094.44 2.31738 1118.68 26.5733 1118.68 56.3911V857.609C1118.68 887.427 1094.44 911.682 1064.64 911.682Z" fill="#D4F4FF" stroke="#00BCFF" stroke-width="3" stroke-miterlimit="10" stroke-linecap="round" stroke-linejoin="round"/>
							<path id="Vector_24" d="M3.39746 64.2705H1118.84" stroke="#00BCFF" stroke-width="3" stroke-miterlimit="10"/>
							<path id="Vector_25" d="M50.9556 47.1212C57.3514 47.1212 62.5362 41.9334 62.5362 35.534C62.5362 29.1346 57.3514 23.9468 50.9556 23.9468C44.5598 23.9468 39.375 29.1346 39.375 35.534C39.375 41.9334 44.5598 47.1212 50.9556 47.1212Z" fill="white"/>
							<path id="Vector_26" d="M50.9553 26.2643C56.0507 26.2643 60.2198 30.4357 60.2198 35.5341C60.2198 40.6324 56.0507 44.8038 50.9553 44.8038C45.8598 44.8038 41.6908 40.6324 41.6908 35.5341C41.6908 30.4357 45.8598 26.2643 50.9553 26.2643ZM50.9553 21.6294C43.2349 21.6294 37.0586 27.8092 37.0586 35.5341C37.0586 43.2589 43.2349 49.4387 50.9553 49.4387C58.6757 49.4387 64.852 43.2589 64.852 35.5341C64.852 27.8092 58.5213 21.6294 50.9553 21.6294Z" fill="#00BCFF"/>
							<path id="Vector_27" d="M88.0132 47.1212C94.409 47.1212 99.5938 41.9334 99.5938 35.534C99.5938 29.1346 94.409 23.9468 88.0132 23.9468C81.6174 23.9468 76.4326 29.1346 76.4326 35.534C76.4326 41.9334 81.6174 47.1212 88.0132 47.1212Z" fill="white"/>
							<path id="Vector_28" d="M88.0129 26.2643C93.1084 26.2643 97.2774 30.4357 97.2774 35.5341C97.2774 40.6324 93.1084 44.8038 88.0129 44.8038C82.9175 44.8038 78.7484 40.6324 78.7484 35.5341C78.7484 30.4357 82.9175 26.2643 88.0129 26.2643ZM88.0129 21.6294C80.2925 21.6294 74.1162 27.8092 74.1162 35.5341C74.1162 43.2589 80.2925 49.4387 88.0129 49.4387C95.7333 49.4387 101.91 43.2589 101.91 35.5341C101.91 27.8092 95.5789 21.6294 88.0129 21.6294Z" fill="#00BCFF"/>
							<path id="Vector_29" d="M125.071 47.1212C131.467 47.1212 136.651 41.9334 136.651 35.534C136.651 29.1346 131.467 23.9468 125.071 23.9468C118.675 23.9468 113.49 29.1346 113.49 35.534C113.49 41.9334 118.675 47.1212 125.071 47.1212Z" fill="white"/>
							<path id="Vector_30" d="M125.071 26.2643C130.166 26.2643 134.335 30.4357 134.335 35.5341C134.335 40.6324 130.166 44.8038 125.071 44.8038C119.975 44.8038 115.806 40.6324 115.806 35.5341C115.806 30.4357 119.975 26.2643 125.071 26.2643ZM125.071 21.6294C117.35 21.6294 111.174 27.8092 111.174 35.5341C111.174 43.2589 117.35 49.4387 125.071 49.4387C132.791 49.4387 138.967 43.2589 138.967 35.5341C138.967 27.8092 132.637 21.6294 125.071 21.6294Z" fill="#00BCFF"/>
						</g>
						<g id="Vector_31">
							<path d="M45.705 126.224H65.4692C80.1379 126.224 88.476 134.103 88.476 148.471V171.182C88.476 186.168 80.2923 194.202 65.3148 194.202H45.705V126.224ZM65.006 182.924C69.6382 182.924 71.9543 178.752 71.9543 172.109V147.544C71.9543 140.746 69.947 137.502 65.006 137.502H61.7634V182.924H65.006Z" fill="#00BFFF"/>
							<path d="M113.645 167.165H109.784V194.202H93.8803V126.224H113.799C129.24 126.224 135.262 133.331 135.262 145.072V147.853C135.262 155.578 132.328 160.522 127.541 163.303L136.651 194.202H120.13L113.645 167.165ZM112.718 157.432C117.35 157.432 118.894 154.805 118.894 148.935V144.145C118.894 138.738 117.196 136.884 112.718 136.884H109.939V157.432H112.718Z" fill="#00BFFF"/>
							<path d="M138.195 173.5V147.081C138.195 132.713 146.688 124.679 160.43 124.679C174.172 124.679 182.665 132.713 182.665 147.081V173.5C182.665 187.868 174.172 195.901 160.43 195.901C146.688 195.901 138.195 187.868 138.195 173.5ZM166.143 175.508V144.918C166.143 139.665 163.982 136.884 160.43 136.884C156.724 136.884 154.717 139.665 154.717 144.918V175.508C154.717 180.761 156.879 183.542 160.43 183.542C163.982 183.542 166.143 180.761 166.143 175.508Z" fill="#00BFFF"/>
							<path d="M229.45 144.3V149.862C229.45 162.53 222.348 169.483 209.223 169.483H204.127V194.357H188.069V126.378H208.914C222.348 126.224 229.296 132.404 229.45 144.3ZM212.929 144.609C212.929 139.201 211.23 136.884 207.061 136.884H203.973V158.359H207.061C211.23 158.359 212.929 155.887 212.929 149.398V144.609Z" fill="#00BFFF"/>
							<path d="M274.383 173.654V175.662C274.383 186.941 267.898 194.202 254.619 194.202H233.001V126.224H254.001C267.434 126.224 273.765 133.176 273.765 143.373V145.536C273.765 151.716 270.677 156.505 264.809 158.204C270.986 160.367 274.383 165.62 274.383 173.654ZM248.905 136.884V154.651H251.685C255.854 154.651 257.243 151.716 257.243 145.999V143.836C257.243 139.201 255.854 136.884 251.685 136.884H248.905ZM258.016 172.727C258.016 166.856 256.317 164.23 252.302 164.23H248.905V183.542H252.302C256.317 183.542 258.016 180.761 258.016 175.045V172.727Z" fill="#00BFFF"/>
							<path d="M277.162 173.5V147.081C277.162 132.713 285.655 124.679 299.397 124.679C313.139 124.679 321.632 132.713 321.632 147.081V173.5C321.632 187.868 313.139 195.901 299.397 195.901C285.5 195.901 277.162 187.868 277.162 173.5ZM305.11 175.508V144.918C305.11 139.665 302.948 136.884 299.397 136.884C295.691 136.884 293.684 139.665 293.684 144.918V175.508C293.684 180.761 295.846 183.542 299.397 183.542C302.948 183.542 305.11 180.761 305.11 175.508Z" fill="#00BFFF"/>
							<path d="M331.668 158.359L321.477 126.224H337.999L341.705 141.673C342.631 145.227 342.631 147.699 343.095 151.252H343.249C343.558 147.853 343.712 145.381 344.639 141.673L348.499 126.224H365.02L354.984 158.513L365.947 194.202H348.962L344.33 174.118C343.712 171.8 343.403 168.71 343.095 164.693H342.786C342.631 167.32 342.323 170.41 341.55 174.118L337.227 194.202H320.705L331.668 158.359Z" fill="#00BFFF"/>
							<path d="M400.997 126.224L405.321 154.805C405.784 158.359 406.247 162.53 406.247 164.693H406.556C406.556 162.376 407.019 158.204 407.482 154.805L411.651 126.224H432.188V194.202H418.754V164.075C418.754 157.895 418.754 151.561 419.063 145.536H418.754C418.445 148.471 418.137 151.407 417.673 154.496L411.497 194.202H401.306L394.821 154.496C394.512 151.407 393.895 148.317 393.74 145.536H393.277C393.586 151.407 393.586 157.895 393.586 164.075V194.202H380.307V126.224H400.997Z" fill="#00BFFF"/>
							<path d="M465.54 180.297H454.268L452.415 194.357H436.357L449.327 126.378H470.481L483.451 194.357H467.393L465.54 180.297ZM463.996 168.865L461.216 148.471C460.907 145.381 460.444 142.909 460.135 139.201H459.826C459.518 142.909 459.054 145.381 458.746 148.471L455.966 168.865H463.996Z" fill="#00BFFF"/>
							<path d="M507.384 166.084L503.369 175.044V194.047H487.311V126.069H503.369V156.041L514.487 126.224H530.7L519.273 153.106L531.317 194.356H514.332L507.384 166.084Z" fill="#00BFFF"/>
							<path d="M568.684 182.306V194.357H534.869V126.378H568.066V138.429H550.773V153.415H566.831V165.311H550.773V182.306H568.684Z" fill="#00BFFF"/>
							<path d="M569.302 176.898V171.491L585.515 168.401V176.898C585.515 181.07 586.904 183.696 590.147 183.696C593.39 183.696 594.625 181.224 594.625 178.598V175.662C594.625 172.418 594.007 170.719 590.301 168.556L579.338 162.067C572.236 157.895 569.92 152.952 569.92 145.536V141.828C569.92 129.777 579.493 124.679 590.147 124.679C602.5 124.679 610.838 129.159 610.838 142.755V147.699L594.779 150.634V142.446C594.779 139.201 593.698 136.42 590.147 136.42C587.368 136.42 585.824 138.583 585.824 141.055V143.991C585.824 146.772 587.522 149.089 590.147 150.634L600.956 157.123C608.676 161.758 610.838 166.084 610.838 173.191V179.525C610.838 188.795 603.735 196.21 589.993 196.21C577.022 195.902 569.302 188.022 569.302 176.898Z" fill="#00BFFF"/>
							<path d="M670.439 173.654V175.662C670.439 186.941 663.953 194.202 650.674 194.202H629.057V126.224H650.057C663.49 126.224 669.821 133.176 669.821 143.373V145.536C669.821 151.716 666.733 156.505 660.865 158.204C667.042 160.367 670.439 165.62 670.439 173.654ZM644.961 136.884V154.651H647.741C651.91 154.651 653.299 151.716 653.299 145.999V143.836C653.299 139.201 651.91 136.884 647.741 136.884H644.961ZM654.071 172.727C654.071 166.856 652.373 164.23 648.358 164.23H644.961V183.542H648.358C652.373 183.542 654.071 180.761 654.071 175.045V172.727Z" fill="#00BFFF"/>
							<path d="M675.225 194.202V126.224H691.284V194.202H675.225Z" fill="#00BFFF"/>
							<path d="M696.534 173.345V148.008C696.534 133.176 704.408 124.679 718.614 124.679C731.739 124.679 739.459 131.013 739.459 142.6V148.008L723.092 150.943V143.218C723.092 138.583 721.548 136.266 718.305 136.266C714.599 136.266 712.901 139.356 712.901 145.536V174.272C712.901 180.452 714.754 183.696 718.768 183.696C722.32 183.696 724.173 180.915 724.173 176.28V168.092H717.996V156.196H739.305V194.202H727.878L727.261 183.851C725.871 190.958 721.084 195.747 712.746 195.747C702.092 195.902 696.534 188.022 696.534 173.345Z" fill="#00BFFF"/>
							<path d="M759.841 126.224H780.377L784.7 154.805C785.164 158.359 785.627 162.53 785.627 164.693H785.936C785.936 162.376 786.399 158.204 786.862 154.805L791.031 126.224H811.567V194.202H798.288V164.075C798.288 157.895 798.288 151.561 798.597 145.536H798.288C797.979 148.471 797.671 151.407 797.207 154.496L791.031 194.202H780.84L774.355 154.496C774.046 151.407 773.429 148.317 773.274 145.536H772.811C773.12 151.407 773.12 157.895 773.12 164.075V194.202H759.841V126.224Z" fill="#00BFFF"/>
							<path d="M819.288 194.202V126.224H835.346V194.202H819.288Z" fill="#00BFFF"/>
							<path d="M839.361 176.898V171.491L855.573 168.401V176.898C855.573 181.07 856.963 183.696 860.206 183.696C863.448 183.696 864.684 181.224 864.684 178.598V175.662C864.684 172.418 864.066 170.719 860.36 168.556L849.397 162.067C842.294 157.895 839.978 152.952 839.978 145.536V141.828C839.978 129.777 849.552 124.679 860.206 124.679C872.558 124.679 880.896 129.159 880.896 142.755V147.699L864.838 150.634V142.446C864.838 139.201 863.757 136.42 860.206 136.42C857.426 136.42 855.882 138.583 855.882 141.055V143.991C855.882 146.772 857.581 149.089 860.206 150.634L871.014 157.123C878.735 161.758 880.896 166.084 880.896 173.191V179.525C880.896 188.795 873.794 196.21 860.051 196.21C846.927 195.902 839.361 188.022 839.361 176.898Z" fill="#00BFFF"/>
							<path d="M921.814 139.665H909.153V194.202H893.249V139.665H880.588V126.224H921.814V139.665Z" fill="#00BFFF"/>
							<path d="M944.203 180.297H932.932L931.079 194.357H915.02L927.991 126.378H949.145L962.115 194.357H946.056L944.203 180.297ZM942.659 168.865L939.88 148.471C939.571 145.381 939.108 142.909 938.799 139.201H938.49C938.182 142.909 937.718 145.381 937.41 148.471L934.63 168.865H942.659Z" fill="#00BFFF"/>
							<path d="M986.048 166.084L982.033 175.044V194.047H965.975V126.069H982.033V156.041L993.151 126.224H1009.36L997.937 153.106L1009.98 194.356H992.996L986.048 166.084Z" fill="#00BFFF"/>
							<path d="M1047.35 182.306V194.357H1013.53V126.378H1046.73V138.429H1029.44V153.415H1045.49V165.311H1029.44V182.306H1047.35Z" fill="#00BFFF"/>
							<path d="M42.9258 231.281H57.4401L60.065 269.442C60.2194 272.377 60.5283 276.703 60.3739 280.102H60.8371L61.7635 270.678L66.0869 231.281H80.2924L84.6159 270.678C84.9247 273.613 85.0791 276.703 85.5423 280.102H85.8511C85.8511 276.703 86.0055 272.377 86.1599 269.442L88.7849 231.281H103.299L95.5788 299.259H77.8219L73.8073 264.961C73.3441 260.481 73.4985 257.237 73.1897 253.992H72.7265C72.5721 257.237 72.5721 260.635 72.1088 264.961L68.2486 299.259H50.4918L42.9258 231.281Z" fill="#00BFFF"/>
							<path d="M107.931 299.259V231.281H123.99V299.259H107.931Z" fill="#00BFFF"/>
							<path d="M155.026 244.722V299.259H139.122V244.722H126.46V231.281H167.841V244.722H155.026Z" fill="#00BFFF"/>
							<path d="M212.157 299.259H196.098V270.832H186.216V299.259H170.158V231.281H186.216V258.627H196.098V231.281H212.157V299.259Z" fill="#00BFFF"/>
							<path d="M233.619 231.281H253.383C268.052 231.281 276.39 239.16 276.39 253.529V276.24C276.39 291.226 268.207 299.259 253.229 299.259H233.619V231.281ZM252.92 287.981C257.552 287.981 259.869 283.81 259.869 277.167V252.602C259.869 245.804 257.861 242.559 252.92 242.559H249.523V287.981H252.92Z" fill="#00BFFF"/>
							<path d="M281.795 299.259V231.281H297.853V299.259H281.795Z" fill="#00BFFF"/>
							<path d="M300.787 231.281H317.308L322.404 272.532C323.021 277.939 323.33 281.647 323.485 285.509H323.948C324.102 281.647 324.257 277.785 325.029 272.532L330.124 231.281H346.491L333.83 299.259H313.448L300.787 231.281Z" fill="#00BFFF"/>
							<path d="M383.395 287.363V299.414H349.579V231.436H382.777V243.486H365.483V258.473H381.387V270.369H365.329V287.363H383.395Z" fill="#00BFFF"/>
							<path d="M407.637 272.223H403.776V299.259H387.718V231.281H407.637C423.077 231.281 429.099 238.388 429.099 250.13V252.911C429.099 260.635 426.166 265.579 421.379 268.36L430.489 299.259H413.813L407.637 272.223ZM406.556 262.489C411.188 262.489 412.732 259.863 412.732 253.992V249.203C412.732 243.795 411.034 241.941 406.556 241.941H403.776V262.489H406.556Z" fill="#00BFFF"/>
							<path d="M430.335 281.956V276.549L446.548 273.459V281.956C446.548 286.127 447.937 288.754 451.18 288.754C454.423 288.754 455.658 286.282 455.658 283.655V280.72C455.658 277.476 455.04 275.776 451.334 273.613L440.371 267.124C433.269 262.953 430.953 258.009 430.953 250.593V246.885C430.953 234.835 440.526 229.736 451.18 229.736C463.533 229.736 471.871 234.217 471.871 247.812V252.756L455.812 255.692V247.503C455.812 244.259 454.731 241.478 451.18 241.478C448.401 241.478 446.857 243.641 446.857 246.113V249.048C446.857 251.829 448.555 254.147 451.18 255.692L461.989 262.18C469.709 266.815 471.871 271.141 471.871 278.248V284.582C471.871 293.852 464.768 301.268 451.026 301.268C438.055 300.959 430.335 293.08 430.335 281.956Z" fill="#00BFFF"/>
							<path d="M475.885 299.259V231.281H491.944V299.259H475.885Z" fill="#00BFFF"/>
							<path d="M522.98 244.722V299.259H507.076V244.722H494.414V231.281H535.795V244.722H522.98Z" fill="#00BFFF"/>
							<path d="M551.082 277.321L536.567 231.281H553.089L557.721 252.911C558.493 256.31 558.802 259.554 559.111 263.107H559.42C559.728 259.554 560.037 256.31 560.655 252.911L564.978 231.281H581.5L567.294 277.321V299.414H551.236V277.321H551.082Z" fill="#00BFFF"/>
							<path d="M640.484 244.722H627.822V299.259H611.918V244.722H599.102V231.281H640.484V244.722Z" fill="#00BFFF"/>
							<path d="M641.41 231.281H655.924L658.549 269.442C658.704 272.377 659.012 276.703 658.858 280.102H659.321L660.248 270.678L664.571 231.281H678.777L683.1 270.678C683.409 273.613 683.563 276.703 684.026 280.102H684.335C684.335 276.703 684.49 272.377 684.644 269.442L687.269 231.281H701.783L694.063 299.259H676.306L672.291 264.961C671.828 260.481 671.983 257.237 671.674 253.992H671.211C671.056 257.237 671.056 260.635 670.593 264.961L666.733 299.259H648.976L641.41 231.281Z" fill="#00BFFF"/>
							<path d="M740.385 287.363V299.414H706.57V231.436H739.613V243.486H722.32V258.473H738.378V270.369H722.32V287.363H740.385Z" fill="#00BFFF"/>
							<path d="M778.678 287.363V299.414H744.863V231.436H778.061V243.486H760.767V258.473H776.671V270.369H760.613V287.363H778.678Z" fill="#00BFFF"/>
							<path d="M809.251 244.722V299.259H793.347V244.722H780.686V231.281H822.067V244.722H809.251Z" fill="#00BFFF"/>
							<path d="M44.0068 399.218C44.0068 384.541 49.1023 377.898 58.3668 377.898C67.6312 377.898 72.7267 384.541 72.7267 399.218C72.7267 413.896 67.6312 420.539 58.3668 420.539C49.1023 420.539 44.0068 413.896 44.0068 399.218ZM68.2489 399.218C68.2489 386.859 64.6975 381.451 58.3668 381.451C52.036 381.451 48.4847 386.859 48.4847 399.218C48.4847 411.578 52.036 416.986 58.3668 416.986C64.6975 416.986 68.2489 411.578 68.2489 399.218Z" fill="#00BFFF"/>
							<path d="M79.6748 391.03H83.3806V396.746C84.7703 392.421 87.3952 390.258 91.4098 390.258C96.5052 390.258 99.1302 393.502 99.1302 399.991V419.612H95.27V400.454C95.27 395.974 93.5715 393.657 90.0201 393.657C85.8511 393.657 83.6894 397.055 83.6894 403.699V419.612H79.8292V391.03H79.6748Z" fill="#00BFFF"/>
							<path d="M125.688 406.016H109.012C109.167 413.741 111.328 416.831 115.806 416.831C119.049 416.831 121.519 414.977 121.983 410.651L125.534 411.578C124.762 417.14 121.056 420.23 115.806 420.23C109.475 420.23 105.152 416.213 105.152 405.244C105.152 394.12 109.63 390.258 115.652 390.258C121.983 390.258 125.688 394.429 125.688 402.926V406.016ZM121.828 403.081C121.828 396.129 119.666 393.348 115.806 393.348C112.1 393.348 109.321 395.356 109.167 403.081H121.828Z" fill="#00BFFF"/>
							<path d="M141.747 391.03H145.761L150.085 412.505L150.548 415.595H150.702C150.857 414.514 151.011 413.587 151.166 412.505L155.798 391.03H159.967L164.599 412.505C164.754 413.432 165.062 414.514 165.217 415.595H165.371C165.371 414.514 165.68 413.432 165.834 412.505L170.158 391.03H174.172L167.533 419.612H163.364L158.577 397.828C158.423 396.901 158.268 395.665 158.114 394.738H157.96C157.805 395.665 157.651 396.901 157.496 397.828L152.71 419.612H148.541L141.747 391.03Z" fill="#00BFFF"/>
							<path d="M198.26 406.016H181.584C181.738 413.741 183.9 416.831 188.378 416.831C191.62 416.831 194.091 414.977 194.554 410.651L198.105 411.578C197.333 417.14 193.628 420.23 188.378 420.23C182.047 420.23 177.724 416.213 177.724 405.244C177.724 394.12 182.202 390.258 188.223 390.258C194.554 390.258 198.26 394.429 198.26 402.926V406.016ZM194.245 403.081C194.245 396.129 192.084 393.348 188.223 393.348C184.518 393.348 181.738 395.356 181.584 403.081H194.245Z" fill="#00BFFF"/>
							<path d="M209.223 419.612H205.363V378.207H209.223V419.612Z" fill="#00BFFF"/>
							<path d="M222.194 419.612H218.333V378.207H222.194V419.612Z" fill="#00BFFF"/>
							<path d="M243.347 401.845V405.553H229.142V401.845H243.347Z" fill="#00BFFF"/>
							<path d="M254.155 419.612H250.295V378.207H254.155V419.612Z" fill="#00BFFF"/>
							<path d="M262.803 379.752H267.126V386.086H262.803V379.752ZM262.957 391.03H266.817V419.612H262.957V391.03Z" fill="#00BFFF"/>
							<path d="M284.111 404.935L279.633 410.342V419.612H275.773V378.207H279.633V405.707L290.905 391.185H295.537L286.736 401.845L296 419.767H291.522L284.111 404.935Z" fill="#00BFFF"/>
							<path d="M318.544 406.016H301.868C302.022 413.741 304.184 416.831 308.662 416.831C311.904 416.831 314.375 414.977 314.838 410.651L318.389 411.578C317.617 417.14 313.911 420.23 308.662 420.23C302.331 420.23 298.008 416.213 298.008 405.244C298.008 394.12 302.485 390.258 308.507 390.258C314.838 390.258 318.544 394.429 318.544 402.926V406.016ZM314.684 403.081C314.684 396.129 312.522 393.348 308.662 393.348C304.956 393.348 302.177 395.356 302.022 403.081H314.684Z" fill="#00BFFF"/>
							<path d="M323.639 405.244C323.639 395.511 327.345 390.258 333.521 390.258C337.227 390.258 340.006 392.421 341.087 396.438V378.052H344.947V419.457H341.241V413.587C339.852 417.758 337.072 420.23 333.212 420.23C327.19 420.23 323.639 415.132 323.639 405.244ZM341.087 407.561V402.926C341.087 397.21 338.771 393.502 334.756 393.502C330.124 393.502 327.962 396.901 327.962 405.089C327.962 413.432 330.124 416.831 334.756 416.831C338.771 416.986 341.087 413.432 341.087 407.561Z" fill="#00BFFF"/>
							<path d="M364.712 405.244C364.712 395.511 368.418 390.258 374.594 390.258C378.3 390.258 381.079 392.421 382.16 396.438V378.052H386.02V419.457H382.314V413.587C380.925 417.758 378.145 420.23 374.285 420.23C368.109 420.23 364.712 415.132 364.712 405.244ZM382.16 407.561V402.926C382.16 397.21 379.844 393.502 375.829 393.502C371.197 393.502 369.035 396.901 369.035 405.089C369.035 413.432 371.197 416.831 375.829 416.831C379.844 416.986 382.16 413.432 382.16 407.561Z" fill="#00BFFF"/>
							<path d="M394.667 379.752H398.99V386.086H394.667V379.752ZM394.821 391.03H398.681V419.612H394.821V391.03Z" fill="#00BFFF"/>
							<path d="M403.623 391.03H407.792L413.35 411.269C413.814 412.814 413.968 414.205 414.277 415.441H414.431C414.586 414.205 414.894 412.814 415.358 411.269L420.916 391.03H425.085L416.593 419.612H412.269L403.623 391.03Z" fill="#00BFFF"/>
							<path d="M448.092 406.016H431.416C431.57 413.741 433.732 416.831 438.21 416.831C441.452 416.831 443.923 414.977 444.386 410.651L447.938 411.578C447.166 417.14 443.46 420.23 438.21 420.23C431.879 420.23 427.556 416.213 427.556 405.244C427.556 394.12 432.034 390.258 438.056 390.258C444.386 390.258 448.092 394.429 448.092 402.926V406.016ZM444.077 403.081C444.077 396.129 441.916 393.348 438.056 393.348C434.35 393.348 431.57 395.356 431.416 403.081H444.077Z" fill="#00BFFF"/>
							<path d="M466.003 390.412C466.312 390.412 466.466 390.412 466.929 390.412V394.429C466.621 394.429 466.466 394.429 466.312 394.429C463.841 394.429 462.297 395.356 461.216 396.901C459.364 399.064 459.055 402.463 459.055 405.707V419.612H455.194V391.03H458.9V397.828C459.518 393.657 461.988 390.412 466.003 390.412Z" fill="#00BFFF"/>
							<path d="M469.863 410.342L473.723 409.724C473.878 414.514 476.348 416.985 479.9 416.985C483.142 416.985 485.15 415.286 485.15 412.042C485.15 409.261 483.914 407.716 480.672 406.943L476.657 406.016C472.488 405.089 470.326 402.308 470.326 398.137C470.326 393.193 474.032 390.258 479.436 390.258C484.995 390.258 488.701 393.039 488.855 399.527L485.15 400.145C484.841 395.047 482.679 393.348 479.436 393.348C476.194 393.348 474.341 395.047 474.341 397.982C474.341 400.609 475.422 402.154 478.51 402.772L482.679 403.853C487.311 404.935 489.164 407.716 489.164 411.887C489.164 416.831 485.767 420.23 479.9 420.23C474.032 420.23 470.326 417.14 469.863 410.342Z" fill="#00BFFF"/>
							<path d="M495.649 379.752H499.973V386.086H495.649V379.752ZM495.958 391.03H499.818V419.612H495.958V391.03Z" fill="#00BFFF"/>
							<path d="M505.068 391.03H509.392V383.769L513.252 382.224V391.03H519.428V394.12H513.252V412.042C513.252 415.131 514.487 416.367 516.957 416.367C517.884 416.367 518.502 416.213 519.428 416.058V419.612C518.347 419.921 517.421 420.075 516.031 420.075C511.244 420.075 509.392 417.294 509.392 412.66V394.12H505.068V391.03Z" fill="#00BFFF"/>
							<path d="M523.752 430.89V427.337C524.369 427.491 524.987 427.491 525.296 427.491C528.384 427.491 529.928 425.637 531.009 422.084L531.626 419.612L522.208 391.03H526.531L532.553 411.578C533.016 412.969 533.171 414.205 533.479 415.441H533.634C533.788 414.205 534.097 412.969 534.56 411.733L540.119 391.03H544.134L534.869 422.393C532.862 428.882 530.082 431.199 525.759 431.199C525.296 431.045 524.524 431.045 523.752 430.89Z" fill="#00BFFF"/>
							<path d="M556.486 391.03H560.81V383.769L564.67 382.224V391.03H570.846V394.12H564.67V412.042C564.67 415.131 565.905 416.367 568.376 416.367C569.302 416.367 569.92 416.213 570.846 416.058V419.612C569.765 419.921 568.839 420.075 567.449 420.075C562.663 420.075 560.81 417.294 560.81 412.66V394.12H556.486V391.03Z" fill="#00BFFF"/>
							<path d="M587.985 390.412C588.294 390.412 588.448 390.412 588.912 390.412V394.429C588.603 394.429 588.448 394.429 588.294 394.429C585.823 394.429 584.279 395.356 583.198 396.901C581.346 399.064 581.037 402.463 581.037 405.707V419.612H577.177V391.03H580.882V397.828C581.5 393.657 583.971 390.412 587.985 390.412Z" fill="#00BFFF"/>
							<path d="M591.382 412.351C591.382 409.415 592.463 407.407 594.161 406.016C595.706 404.78 598.022 403.853 601.573 403.235L606.977 402.308V400.3C606.977 395.665 605.433 393.657 601.727 393.657C597.558 393.657 596.014 395.974 596.014 400.3H592C592.154 393.039 596.632 390.567 601.727 390.567C608.058 390.567 610.838 393.502 610.838 400.455V410.96C610.838 414.668 610.992 417.449 611.455 419.767H607.595C607.441 418.067 607.132 416.059 607.132 414.359C606.051 418.067 603.117 420.539 598.948 420.539C594.316 420.23 591.382 417.14 591.382 412.351ZM606.977 408.952V404.935L601.419 406.016C597.404 406.789 595.397 408.488 595.397 411.887C595.397 415.286 597.095 417.14 600.338 417.14C604.352 417.14 606.977 413.896 606.977 408.952Z" fill="#00BFFF"/>
							<path d="M618.867 379.752H623.19V386.086H618.867V379.752ZM619.021 391.03H622.881V419.612H619.021V391.03Z" fill="#00BFFF"/>
							<path d="M631.528 391.03H635.234V396.746C636.624 392.421 639.249 390.258 643.263 390.258C648.359 390.258 650.984 393.502 650.984 399.991V419.612H647.123V400.454C647.123 395.974 645.425 393.657 641.873 393.657C637.704 393.657 635.543 397.055 635.543 403.699V419.612H631.528V391.03Z" fill="#00BFFF"/>
							<path d="M658.858 379.752H663.182V386.086H658.858V379.752ZM659.013 391.03H662.873V419.612H659.013V391.03Z" fill="#00BFFF"/>
							<path d="M671.52 391.03H675.226V396.746C676.615 392.421 679.24 390.258 683.255 390.258C688.35 390.258 690.975 393.502 690.975 399.991V419.612H687.115V400.454C687.115 395.974 685.417 393.657 681.865 393.657C677.696 393.657 675.535 397.055 675.535 403.699V419.612H671.674V391.03H671.52Z" fill="#00BFFF"/>
							<path d="M713.364 392.266C715.371 393.966 716.452 396.592 716.452 399.991C716.452 406.016 713.21 409.724 707.188 409.724C705.489 409.724 704.1 409.415 702.864 408.797C701.783 409.261 701.011 410.342 701.011 411.578C701.011 413.278 702.247 414.359 704.872 414.668L711.202 415.286C715.989 415.749 719.077 418.53 719.077 422.856C719.077 428.264 715.063 431.354 707.497 431.354C700.239 431.354 696.534 428.264 696.534 423.783C696.534 420.848 698.232 418.53 701.32 417.603C699.004 416.676 697.769 414.977 697.769 412.814C697.769 410.342 699.313 408.797 701.629 408.025C699.313 406.325 698.078 403.544 698.078 399.836C698.078 393.966 701.32 390.103 707.342 390.103C709.195 390.103 710.739 390.412 711.974 391.185C712.746 388.249 714.908 386.395 717.996 386.395C718.46 386.395 718.768 386.395 719.232 386.55V389.794C718.614 389.64 718.305 389.64 717.687 389.64C715.526 389.794 713.982 390.721 713.364 392.266ZM703.791 418.221C703.482 418.221 703.173 418.221 703.019 418.067C701.011 418.994 700.085 420.693 700.085 422.856C700.085 426.564 702.864 428.418 707.651 428.418C712.901 428.418 715.062 426.41 715.062 423.011C715.062 420.075 713.518 418.685 710.121 418.376L703.791 418.221ZM712.592 399.991C712.592 395.356 710.43 393.039 707.188 393.039C703.791 393.039 701.629 395.511 701.629 399.991C701.629 404.626 703.791 407.098 707.188 407.098C710.585 407.098 712.592 404.626 712.592 399.991Z" fill="#00BFFF"/>
							<path d="M739.923 391.03V396.901C741.003 392.73 744.092 390.258 748.106 390.258C754.128 390.258 757.525 395.047 757.525 405.244C757.525 414.977 753.819 420.23 747.643 420.23C743.783 420.23 741.158 417.758 739.923 414.05V430.736H736.062V391.03H739.923ZM753.356 405.244C753.356 397.21 751.194 393.657 747.025 393.657C742.856 393.657 740.231 397.364 740.231 402.926V407.716C740.231 413.432 742.856 416.985 746.871 416.985C751.04 416.985 753.356 413.432 753.356 405.244Z" fill="#00BFFF"/>
							<path d="M775.591 390.412C775.899 390.412 776.054 390.412 776.517 390.412V394.429C776.208 394.429 776.054 394.429 775.899 394.429C773.429 394.429 771.885 395.356 770.804 396.901C768.951 399.064 768.642 402.463 768.642 405.707V419.612H764.782V391.03H768.488V397.828C769.105 393.657 771.576 390.412 775.591 390.412Z" fill="#00BFFF"/>
							<path d="M779.142 405.244C779.142 394.738 783.311 390.258 789.95 390.258C796.59 390.258 800.759 394.738 800.759 405.244C800.759 415.75 796.59 420.23 789.95 420.23C783.311 420.23 779.142 415.75 779.142 405.244ZM796.744 405.244C796.744 396.283 793.965 393.348 789.95 393.348C786.09 393.348 783.311 396.283 783.311 405.244C783.311 414.205 786.09 417.14 789.95 417.14C793.965 417.14 796.744 414.205 796.744 405.244Z" fill="#00BFFF"/>
							<path d="M821.758 392.266C823.766 393.966 824.846 396.592 824.846 399.991C824.846 406.016 821.604 409.724 815.582 409.724C813.884 409.724 812.494 409.415 811.259 408.797C810.178 409.261 809.406 410.342 809.406 411.578C809.406 413.278 810.641 414.359 813.266 414.668L819.597 415.286C824.383 415.749 827.471 418.53 827.471 422.856C827.471 428.264 823.457 431.354 815.891 431.354C808.634 431.354 804.928 428.264 804.928 423.783C804.928 420.848 806.626 418.53 809.715 417.603C807.398 416.676 806.163 414.977 806.163 412.814C806.163 410.342 807.707 408.797 810.023 408.025C807.707 406.325 806.472 403.544 806.472 399.836C806.472 393.966 809.714 390.103 815.736 390.103C817.589 390.103 819.133 390.412 820.369 391.185C821.141 388.249 823.302 386.395 826.391 386.395C826.854 386.395 827.163 386.395 827.626 386.55V389.794C827.008 389.64 826.699 389.64 826.082 389.64C823.92 389.794 822.53 390.721 821.758 392.266ZM812.339 418.221C812.031 418.221 811.722 418.221 811.567 418.067C809.56 418.994 808.634 420.693 808.634 422.856C808.634 426.564 811.413 428.418 816.2 428.418C821.449 428.418 823.611 426.41 823.611 423.011C823.611 420.075 822.067 418.685 818.67 418.376L812.339 418.221ZM820.986 399.991C820.986 395.356 818.825 393.039 815.582 393.039C812.185 393.039 810.023 395.511 810.023 399.991C810.023 404.626 812.185 407.098 815.582 407.098C818.979 407.098 820.986 404.626 820.986 399.991Z" fill="#00BFFF"/>
							<path d="M842.295 390.412C842.603 390.412 842.758 390.412 843.221 390.412V394.429C842.912 394.429 842.758 394.429 842.604 394.429C840.133 394.429 838.589 395.356 837.508 396.901C835.655 399.064 835.346 402.463 835.346 405.707V419.612H831.486V391.03H835.192V397.828C835.964 393.657 838.28 390.412 842.295 390.412Z" fill="#00BFFF"/>
							<path d="M845.846 412.351C845.846 409.415 846.927 407.407 848.625 406.016C850.169 404.78 852.486 403.853 856.037 403.235L861.441 402.308V400.3C861.441 395.665 859.897 393.657 856.191 393.657C852.022 393.657 850.478 395.974 850.478 400.3H846.464C846.618 393.039 851.096 390.567 856.191 390.567C862.522 390.567 865.301 393.502 865.301 400.455V410.96C865.301 414.668 865.456 417.449 865.919 419.767H862.059C861.904 418.067 861.596 416.059 861.596 414.359C860.515 418.067 857.581 420.539 853.412 420.539C848.625 420.23 845.846 417.14 845.846 412.351ZM861.441 408.952V404.935L855.883 406.016C851.868 406.789 849.861 408.488 849.861 411.887C849.861 415.286 851.559 417.14 854.802 417.14C858.816 417.14 861.441 413.896 861.441 408.952Z" fill="#00BFFF"/>
							<path d="M877.036 396.283C878.117 392.421 880.588 390.258 884.139 390.258C887.69 390.258 889.852 392.266 890.779 395.974C892.168 392.266 894.639 390.258 898.036 390.258C902.668 390.258 905.138 393.348 905.138 399.064V419.457H901.278V399.836C901.278 395.665 899.734 393.502 896.646 393.502C893.095 393.502 891.242 396.283 891.242 401.536V419.457H887.382V399.682C887.382 395.665 885.837 393.502 882.749 393.502C879.198 393.502 877.191 396.592 877.191 401.845V419.457H873.33V390.876H877.036V396.283Z" fill="#00BFFF"/>
							<path d="M923.822 412.351C923.822 409.415 924.903 407.407 926.601 406.016C928.145 404.78 930.461 403.853 934.013 403.235L939.417 402.308V400.3C939.417 395.665 937.873 393.657 934.167 393.657C929.998 393.657 928.454 395.974 928.454 400.3H924.44C924.594 393.039 929.072 390.567 934.167 390.567C940.498 390.567 943.277 393.502 943.277 400.455V410.96C943.277 414.668 943.432 417.449 943.895 419.767H940.035C939.88 418.067 939.571 416.059 939.571 414.359C938.491 418.067 935.557 420.539 931.388 420.539C926.756 420.23 923.822 417.14 923.822 412.351ZM939.417 408.952V404.935L933.858 406.016C929.844 406.789 927.836 408.488 927.836 411.887C927.836 415.286 929.535 417.14 932.777 417.14C936.792 417.14 939.417 413.896 939.417 408.952Z" fill="#00BFFF"/>
							<path d="M947.292 391.03H951.615V383.769L955.476 382.224V391.03H961.652V394.12H955.476V412.042C955.476 415.131 956.711 416.367 959.181 416.367C960.108 416.367 960.725 416.213 961.652 416.058V419.612C960.571 419.921 959.645 420.075 958.255 420.075C953.468 420.075 951.615 417.294 951.615 412.66V394.12H947.292V391.03Z" fill="#00BFFF"/>
							<path d="M44.0068 468.896C44.0068 454.219 48.7935 447.576 58.0579 447.576C67.0136 447.576 70.1017 453.601 70.565 460.554L66.2415 461.171C65.7783 455.455 64.0798 450.975 57.9035 450.975C51.5728 450.975 48.4847 456.228 48.4847 468.742C48.4847 480.329 51.4184 486.509 58.0579 486.509C65.4695 486.509 67.0136 479.557 67.0136 473.686V471.523H57.5947V467.969H71.0282V489.135H67.7856L67.4768 481.874C66.0871 486.972 62.3813 490.217 56.8227 490.217C48.3303 490.062 44.0068 482.955 44.0068 468.896Z" fill="#00BFFF"/>
							<path d="M76.7414 474.767C76.7414 464.261 80.9104 459.781 87.5499 459.781C94.1895 459.781 98.3585 464.261 98.3585 474.767C98.3585 485.273 94.1895 489.753 87.5499 489.753C80.9104 489.753 76.7414 485.273 76.7414 474.767ZM94.3439 474.767C94.3439 465.806 91.5645 462.871 87.5499 462.871C83.6897 462.871 80.9104 465.806 80.9104 474.767C80.9104 483.728 83.6897 486.663 87.5499 486.663C91.4101 486.663 94.3439 483.728 94.3439 474.767Z" fill="#00BFFF"/>
							<path d="M103.3 474.767C103.3 464.261 107.469 459.781 114.108 459.781C120.748 459.781 124.917 464.261 124.917 474.767C124.917 485.273 120.748 489.753 114.108 489.753C107.469 489.753 103.3 485.273 103.3 474.767ZM120.902 474.767C120.902 465.806 118.123 462.871 114.108 462.871C110.248 462.871 107.469 465.806 107.469 474.767C107.469 483.728 110.248 486.663 114.108 486.663C118.123 486.663 120.902 483.728 120.902 474.767Z" fill="#00BFFF"/>
							<path d="M145.916 461.789C147.923 463.489 149.004 466.115 149.004 469.514C149.004 475.54 145.761 479.248 139.739 479.248C138.041 479.248 136.651 478.939 135.416 478.321C134.335 478.784 133.563 479.866 133.563 481.101C133.563 482.801 134.798 483.882 137.423 484.191L143.754 484.809C148.541 485.273 151.629 488.054 151.629 492.38C151.629 497.787 147.614 500.877 140.048 500.877C132.791 500.877 129.085 497.787 129.085 493.307C129.085 490.371 130.784 488.054 133.872 487.127C131.556 486.2 130.321 484.5 130.321 482.337C130.321 479.866 131.865 478.321 134.181 477.548C131.865 475.849 130.629 473.068 130.629 469.36C130.629 463.489 133.872 459.626 139.894 459.626C141.747 459.626 143.291 459.936 144.526 460.708C145.298 457.773 147.46 455.919 150.548 455.919C151.011 455.919 151.32 455.919 151.783 456.073V459.318C151.166 459.163 150.857 459.163 150.239 459.163C148.232 459.318 146.688 460.244 145.916 461.789ZM136.497 487.745C136.188 487.745 135.879 487.745 135.725 487.59C133.718 488.517 132.791 490.217 132.791 492.38C132.791 496.088 135.57 497.942 140.357 497.942C145.607 497.942 147.769 495.933 147.769 492.534C147.769 489.599 146.225 488.208 142.828 487.899L136.497 487.745ZM145.298 469.514C145.298 464.879 143.136 462.562 139.894 462.562C136.497 462.562 134.335 465.034 134.335 469.514C134.335 474.149 136.497 476.621 139.894 476.621C143.291 476.621 145.298 474.149 145.298 469.514Z" fill="#00BFFF"/>
							<path d="M160.276 489.135H156.416V447.73H160.276V489.135Z" fill="#00BFFF"/>
							<path d="M187.76 475.54H171.084C171.239 483.264 173.4 486.354 177.878 486.354C181.121 486.354 183.591 484.5 184.055 480.174L187.606 481.101C186.834 486.663 183.128 489.753 177.878 489.753C171.548 489.753 167.224 485.736 167.224 474.767C167.224 463.643 171.702 459.781 177.724 459.781C184.055 459.781 187.76 463.952 187.76 472.45V475.54ZM183.746 472.604C183.746 465.652 181.584 462.871 177.724 462.871C174.018 462.871 171.239 464.879 171.084 472.604H183.746Z" fill="#00BFFF"/>
							<path d="M205.517 474.767C205.517 464.725 209.068 459.781 216.171 459.781C221.884 459.781 225.436 463.334 225.59 470.132L221.575 470.596C221.421 465.497 219.414 463.025 216.017 463.025C212.002 463.025 209.532 466.115 209.532 474.767C209.532 483.264 212.002 486.354 216.171 486.354C219.414 486.354 221.575 483.882 221.73 478.629L225.744 479.247C225.436 486.045 221.575 489.753 216.171 489.753C209.532 489.753 205.517 485.118 205.517 474.767Z" fill="#00BFFF"/>
							<path d="M230.222 481.874C230.222 478.939 231.303 476.93 233.002 475.54C234.546 474.304 236.862 473.377 240.413 472.759L245.817 471.832V469.823C245.817 465.188 244.273 463.18 240.568 463.18C236.399 463.18 234.855 465.497 234.855 469.823H230.84C230.994 462.562 235.472 460.09 240.568 460.09C246.898 460.09 249.678 463.026 249.678 469.978V480.484C249.678 484.191 249.832 486.972 250.295 489.29H246.435C246.281 487.59 245.972 485.582 245.972 483.883C244.891 487.59 241.957 490.062 237.788 490.062C233.156 489.753 230.222 486.663 230.222 481.874ZM245.817 478.475V474.458L240.259 475.54C236.244 476.312 234.237 478.012 234.237 481.411C234.237 484.81 235.935 486.663 239.178 486.663C243.193 486.663 245.817 483.419 245.817 478.475Z" fill="#00BFFF"/>
							<path d="M261.876 489.135H258.016V447.73H261.876V489.135Z" fill="#00BFFF"/>
							<path d="M274.846 489.135H270.986V447.73H274.846V489.135Z" fill="#00BFFF"/>
							<path d="M302.331 475.54H285.655C285.809 483.264 287.971 486.354 292.449 486.354C295.691 486.354 298.162 484.5 298.625 480.174L302.177 481.101C301.405 486.663 297.699 489.753 292.449 489.753C286.118 489.753 281.795 485.736 281.795 474.767C281.795 463.643 286.273 459.781 292.294 459.781C298.625 459.781 302.331 463.952 302.331 472.45V475.54ZM298.471 472.604C298.471 465.652 296.309 462.871 292.449 462.871C288.743 462.871 285.964 464.879 285.809 472.604H298.471Z" fill="#00BFFF"/>
							<path d="M307.426 474.767C307.426 465.034 311.132 459.781 317.308 459.781C321.014 459.781 323.793 461.944 324.874 465.961V447.576H328.734V488.981H325.029V483.11C323.639 487.281 320.86 489.753 317 489.753C310.978 489.753 307.426 484.655 307.426 474.767ZM324.874 477.085V472.45C324.874 466.733 322.558 463.025 318.544 463.025C313.911 463.025 311.75 466.424 311.75 474.613C311.75 482.955 313.911 486.354 318.544 486.354C322.558 486.509 324.874 482.955 324.874 477.085Z" fill="#00BFFF"/>
							<path d="M347.881 476.312L352.205 475.694C352.668 483.264 355.293 486.663 361.16 486.663C365.484 486.663 368.109 483.883 368.109 479.248C368.109 474.613 366.256 472.45 362.087 471.059L356.991 469.36C351.741 467.66 348.962 463.489 348.962 458.236C348.962 451.593 353.285 447.73 360.234 447.73C367.337 447.73 371.814 451.129 372.123 460.399L367.954 461.172C367.645 454.065 365.175 451.129 360.234 451.129C355.91 451.129 353.44 453.91 353.44 458.082C353.44 461.79 355.138 464.261 359.153 465.652L364.248 467.351C369.961 469.36 372.741 472.913 372.741 479.093C372.741 486.045 368.417 490.217 361.315 490.217C352.668 490.062 348.19 485.582 347.881 476.312Z" fill="#00BFFF"/>
							<path d="M377.373 474.767C377.373 464.261 381.542 459.781 388.182 459.781C394.821 459.781 398.99 464.261 398.99 474.767C398.99 485.273 394.821 489.753 388.182 489.753C381.388 489.753 377.373 485.273 377.373 474.767ZM394.821 474.767C394.821 465.806 392.042 462.871 388.027 462.871C384.167 462.871 381.388 465.806 381.388 474.767C381.388 483.728 384.167 486.663 388.027 486.663C392.042 486.663 394.821 483.728 394.821 474.767Z" fill="#00BFFF"/>
							<path d="M400.689 500.259V496.86C401.77 497.015 402.233 497.015 402.85 497.015C404.703 497.015 405.784 496.088 405.784 493.152V460.399H409.644V493.307C409.644 497.633 408.1 500.568 403.622 500.568C402.542 500.568 401.461 500.568 400.689 500.259ZM405.475 449.275H409.799V455.61H405.475V449.275Z" fill="#00BFFF"/>
							<path d="M416.284 474.767C416.284 464.261 420.453 459.781 427.092 459.781C433.732 459.781 437.901 464.261 437.901 474.767C437.901 485.273 433.732 489.753 427.092 489.753C420.453 489.753 416.284 485.273 416.284 474.767ZM433.886 474.767C433.886 465.806 431.107 462.871 427.092 462.871C423.232 462.871 420.453 465.806 420.453 474.767C420.453 483.728 423.232 486.663 427.092 486.663C431.107 486.663 433.886 483.728 433.886 474.767Z" fill="#00BFFF"/>
							<path d="M444.077 480.02V460.553H447.937V479.865C447.937 484.5 449.945 486.509 453.033 486.509C457.047 486.509 459.363 482.801 459.363 477.239V460.708H463.224V489.29H459.518V483.882C458.437 487.436 455.658 489.908 451.797 489.908C446.084 489.753 444.077 485.736 444.077 480.02Z" fill="#00BFFF"/>
							<path d="M482.988 459.936C483.297 459.936 483.451 459.936 483.914 459.936V463.952C483.605 463.952 483.451 463.952 483.297 463.952C480.826 463.952 479.282 464.879 478.201 466.424C476.348 468.587 476.039 471.986 476.039 475.231V489.135H472.179V460.554H475.885V467.351C476.657 463.18 479.128 459.936 482.988 459.936Z" fill="#00BFFF"/>
							<path d="M489.164 460.553H492.87V466.27C494.26 461.944 496.885 459.781 500.899 459.781C505.995 459.781 508.62 463.025 508.62 469.514V489.135H504.759V469.978C504.759 465.497 503.061 463.18 499.51 463.18C495.341 463.18 493.179 466.579 493.179 473.222V489.135H489.319V460.553H489.164Z" fill="#00BFFF"/>
							<path d="M525.913 460.553H529.928L534.251 482.028L534.714 485.118H534.869C535.023 484.037 535.178 483.11 535.332 482.028L539.964 460.553H544.133L548.765 482.028C548.92 482.955 549.229 484.037 549.383 485.118H549.537C549.537 484.037 549.846 482.955 550.001 482.028L554.324 460.553H558.339L551.699 489.135H547.53L542.744 467.351C542.589 466.424 542.435 465.188 542.28 464.261H541.971C541.817 465.188 541.663 466.424 541.508 467.351L536.722 489.135H532.553L525.913 460.553Z" fill="#00BFFF"/>
							<path d="M561.118 481.874C561.118 478.939 562.199 476.93 563.898 475.54C565.442 474.304 567.758 473.377 571.309 472.759L576.714 471.832V469.823C576.714 465.188 575.17 463.18 571.464 463.18C567.295 463.18 565.751 465.497 565.751 469.823H561.736C561.89 462.562 566.368 460.09 571.464 460.09C577.794 460.09 580.574 463.026 580.574 469.978V480.484C580.574 484.191 580.728 486.972 581.191 489.29H577.486C577.331 487.59 577.022 485.582 577.022 483.883C575.942 487.59 573.008 490.062 568.839 490.062C564.052 489.753 561.118 486.663 561.118 481.874ZM576.714 478.475V474.458L571.155 475.54C567.14 476.312 565.133 478.012 565.133 481.411C565.133 484.81 566.832 486.663 570.074 486.663C574.089 486.663 576.714 483.419 576.714 478.475Z" fill="#00BFFF"/>
							<path d="M586.75 479.865L590.61 479.247C590.765 484.037 593.235 486.509 596.786 486.509C600.029 486.509 602.036 484.809 602.036 481.565C602.036 478.784 600.801 477.239 597.558 476.467L593.544 475.54C589.375 474.613 587.213 471.832 587.213 467.66C587.213 462.716 590.919 459.781 596.323 459.781C601.882 459.781 605.588 462.562 605.742 469.051L602.036 469.669C601.728 464.57 599.566 462.871 596.323 462.871C593.081 462.871 591.228 464.57 591.228 467.506C591.228 470.132 592.309 471.677 595.397 472.295L599.566 473.377C604.198 474.458 606.051 477.239 606.051 481.41C606.051 486.354 602.654 489.753 596.786 489.753C590.919 489.753 587.059 486.663 586.75 479.865Z" fill="#00BFFF"/>
							<path d="M623.654 474.767C623.654 464.725 627.205 459.781 634.308 459.781C640.021 459.781 643.572 463.334 643.727 470.132L639.712 470.596C639.558 465.497 637.55 463.025 634.153 463.025C630.139 463.025 627.668 466.115 627.668 474.767C627.668 483.264 630.139 486.354 634.308 486.354C637.55 486.354 639.712 483.882 639.866 478.629L643.881 479.247C643.572 486.045 639.712 489.753 634.308 489.753C627.514 489.753 623.654 485.118 623.654 474.767Z" fill="#00BFFF"/>
							<path d="M649.748 480.02V460.553H653.608V479.865C653.608 484.5 655.616 486.509 658.704 486.509C662.718 486.509 665.035 482.801 665.035 477.239V460.708H668.895V489.29H665.189V483.882C664.108 487.436 661.329 489.908 657.469 489.908C651.755 489.753 649.748 485.736 649.748 480.02Z" fill="#00BFFF"/>
							<path d="M674.145 460.553H678.468V453.292L682.328 451.747V460.553H688.504V463.643H682.328V481.565C682.328 484.655 683.563 485.891 686.034 485.891C686.96 485.891 687.578 485.736 688.504 485.582V489.135C687.424 489.444 686.497 489.599 685.107 489.599C680.321 489.599 678.468 486.818 678.468 482.183V463.643H674.145V460.553Z" fill="#00BFFF"/>
							<path d="M725.871 475.54H709.195C709.35 483.264 711.511 486.354 715.989 486.354C719.232 486.354 721.702 484.5 722.165 480.174L725.717 481.101C724.945 486.663 721.239 489.753 715.989 489.753C709.658 489.753 705.335 485.736 705.335 474.767C705.335 463.643 709.813 459.781 715.835 459.781C722.165 459.781 725.871 463.952 725.871 472.45V475.54ZM721.857 472.604C721.857 465.652 719.695 462.871 715.835 462.871C712.129 462.871 709.35 464.879 709.195 472.604H721.857Z" fill="#00BFFF"/>
							<path d="M732.819 460.553H736.525V466.27C737.915 461.944 740.54 459.781 744.554 459.781C749.65 459.781 752.275 463.025 752.275 469.514V489.135H748.415V469.978C748.415 465.497 746.716 463.18 743.165 463.18C738.996 463.18 736.834 466.579 736.834 473.222V489.135H732.974V460.553H732.819Z" fill="#00BFFF"/>
							<path d="M756.135 460.553H760.459V453.292L764.319 451.747V460.553H770.495V463.643H764.319V481.565C764.319 484.655 765.554 485.891 768.025 485.891C768.951 485.891 769.569 485.736 770.495 485.582V489.135C769.414 489.444 768.488 489.599 767.098 489.599C762.312 489.599 760.459 486.818 760.459 482.183V463.643H756.135V460.553Z" fill="#00BFFF"/>
							<path d="M776.208 449.275H780.532V455.61H776.208V449.275ZM776.517 460.554H780.377V489.135H776.517V460.554Z" fill="#00BFFF"/>
							<path d="M800.141 459.936C800.45 459.936 800.605 459.936 801.068 459.936V463.952C800.759 463.952 800.605 463.952 800.45 463.952C797.98 463.952 796.436 464.879 795.355 466.424C793.502 468.587 793.193 471.986 793.193 475.231V489.135H789.024V460.554H792.73V467.351C793.656 463.18 796.127 459.936 800.141 459.936Z" fill="#00BFFF"/>
							<path d="M824.229 475.54H807.553C807.707 483.264 809.869 486.354 814.347 486.354C817.589 486.354 820.06 484.5 820.523 480.174L824.075 481.101C823.303 486.663 819.597 489.753 814.347 489.753C808.016 489.753 803.693 485.736 803.693 474.767C803.693 463.643 808.171 459.781 814.192 459.781C820.523 459.781 824.229 463.952 824.229 472.45V475.54ZM820.369 472.604C820.369 465.652 818.207 462.871 814.347 462.871C810.641 462.871 807.862 464.879 807.707 472.604H820.369Z" fill="#00BFFF"/>
							<path d="M835.192 489.135H831.332V447.73H835.192V489.135Z" fill="#00BFFF"/>
							<path d="M841.677 500.413V496.86C842.294 497.015 842.912 497.015 843.221 497.015C846.309 497.015 847.853 495.161 848.934 491.607L849.552 489.135L840.133 460.553H844.456L850.478 481.101C850.941 482.492 851.096 483.728 851.405 484.964H851.559C851.713 483.728 852.022 482.492 852.485 481.256L858.044 460.553H862.059L852.794 491.916C850.787 498.405 848.008 500.723 843.684 500.723C843.221 500.568 842.449 500.568 841.677 500.413Z" fill="#00BFFF"/>
							<path d="M863.912 494.543C866.382 493.152 866.691 491.916 866.691 489.29V488.981H864.066V482.801H869.162V488.826C869.162 492.998 868.235 495.006 864.993 496.551L863.912 494.543Z" fill="#00BFFF"/>
							<path d="M887.536 481.874C887.536 478.939 888.617 476.93 890.315 475.54C891.859 474.304 894.176 473.377 897.727 472.759L903.131 471.832V469.823C903.131 465.188 901.587 463.18 897.881 463.18C893.712 463.18 892.168 465.497 892.168 469.823H888.154C888.308 462.562 892.786 460.09 897.881 460.09C904.212 460.09 906.991 463.026 906.991 469.978V480.484C906.991 484.191 907.146 486.972 907.609 489.29H903.749C903.594 487.59 903.286 485.582 903.286 483.883C902.205 487.59 899.271 490.062 895.102 490.062C890.47 489.753 887.536 486.663 887.536 481.874ZM903.286 478.475V474.458L897.727 475.54C893.712 476.312 891.705 478.012 891.705 481.411C891.705 484.81 893.404 486.663 896.646 486.663C900.661 486.663 903.286 483.419 903.286 478.475Z" fill="#00BFFF"/>
							<path d="M913.322 474.767C913.322 464.725 916.874 459.781 923.976 459.781C929.689 459.781 933.241 463.334 933.395 470.132L929.381 470.596C929.226 465.497 927.219 463.025 923.822 463.025C919.807 463.025 917.337 466.115 917.337 474.767C917.337 483.264 919.807 486.354 923.976 486.354C927.219 486.354 929.381 483.882 929.535 478.629L933.55 479.247C933.241 486.045 929.381 489.753 923.976 489.753C917.182 489.753 913.322 485.118 913.322 474.767Z" fill="#00BFFF"/>
							<path d="M938.336 474.767C938.336 464.725 941.888 459.781 948.99 459.781C954.704 459.781 958.255 463.334 958.409 470.132L954.395 470.596C954.24 465.497 952.233 463.025 948.836 463.025C944.822 463.025 942.351 466.115 942.351 474.767C942.351 483.264 944.821 486.354 948.99 486.354C952.233 486.354 954.395 483.882 954.549 478.629L958.564 479.247C958.255 486.045 954.395 489.753 948.99 489.753C942.197 489.753 938.336 485.118 938.336 474.767Z" fill="#00BFFF"/>
							<path d="M963.351 474.767C963.351 464.261 967.52 459.781 974.159 459.781C980.799 459.781 984.968 464.261 984.968 474.767C984.968 485.273 980.799 489.753 974.159 489.753C967.52 489.753 963.351 485.273 963.351 474.767ZM980.953 474.767C980.953 465.806 978.174 462.871 974.159 462.871C970.299 462.871 967.52 465.806 967.52 474.767C967.52 483.728 970.299 486.663 974.159 486.663C978.019 486.663 980.953 483.728 980.953 474.767Z" fill="#00BFFF"/>
							<path d="M1002.88 459.936C1003.19 459.936 1003.34 459.936 1003.81 459.936V463.952C1003.5 463.952 1003.34 463.952 1003.19 463.952C1000.72 463.952 999.173 464.879 998.092 466.424C996.239 468.587 995.93 471.986 995.93 475.231V489.135H992.07V460.554H995.776V467.351C996.394 463.18 998.864 459.936 1002.88 459.936Z" fill="#00BFFF"/>
							<path d="M1006.43 474.767C1006.43 465.034 1010.14 459.781 1016.31 459.781C1020.02 459.781 1022.8 461.944 1023.88 465.961V447.576H1027.74V488.981H1024.03V483.11C1022.64 487.281 1019.86 489.753 1016 489.753C1009.98 489.753 1006.43 484.655 1006.43 474.767ZM1024.03 477.085V472.45C1024.03 466.733 1021.72 463.025 1017.7 463.025C1013.07 463.025 1010.91 466.424 1010.91 474.613C1010.91 482.955 1013.07 486.354 1017.7 486.354C1021.56 486.509 1024.03 482.955 1024.03 477.085Z" fill="#00BFFF"/>
							<path d="M1048.89 471.368V475.076H1034.69V471.368H1048.89Z" fill="#00BFFF"/>
							<path d="M45.3967 518.799H49.7201V525.133H45.3967V518.799ZM45.7055 530.077H49.5657V558.659H45.7055V530.077Z" fill="#00BFFF"/>
							<path d="M58.2125 530.077H61.9182V535.793C63.3079 531.467 65.9328 529.304 69.9474 529.304C75.0429 529.304 77.6678 532.549 77.6678 539.038V558.659H73.8076V539.501C73.8076 535.021 72.1091 532.703 68.5578 532.703C64.3888 532.703 62.2271 536.102 62.2271 542.745V558.659H58.3669V530.077H58.2125Z" fill="#00BFFF"/>
							<path d="M99.9023 531.313C101.91 533.012 102.99 535.639 102.99 539.038C102.99 545.063 99.7479 548.771 93.726 548.771C92.0275 548.771 90.6378 548.462 89.4026 547.844C88.3217 548.307 87.5497 549.389 87.5497 550.625C87.5497 552.324 88.785 553.406 91.4099 553.715L97.7406 554.333C102.527 554.796 105.615 557.577 105.615 561.903C105.615 567.31 101.601 570.4 94.0348 570.4C86.7777 570.4 83.0719 567.31 83.0719 562.83C83.0719 559.895 84.7704 557.577 87.8585 556.65C85.5424 555.723 84.3071 554.024 84.3071 551.861C84.3071 549.389 85.8512 547.844 88.1673 547.071C85.8512 545.372 84.6159 542.591 84.6159 538.883C84.6159 533.012 87.8585 529.15 93.8804 529.15C95.7333 529.15 97.2774 529.459 98.5126 530.231C99.2847 527.296 101.446 525.442 104.535 525.442C104.998 525.442 105.307 525.442 105.77 525.596V528.841C105.152 528.686 104.843 528.686 104.226 528.686C102.064 528.841 100.674 529.768 99.9023 531.313ZM90.4834 557.268C90.1746 557.268 89.8658 557.268 89.7114 557.114C87.7041 558.041 86.7777 559.74 86.7777 561.903C86.7777 565.611 89.557 567.465 94.3436 567.465C99.5935 567.465 101.755 565.457 101.755 562.058C101.755 559.122 100.211 557.732 96.8142 557.423L90.4834 557.268ZM99.1303 539.038C99.1303 534.403 96.9686 532.085 93.726 532.085C90.329 532.085 88.1673 534.557 88.1673 539.038C88.1673 543.672 90.329 546.144 93.726 546.144C97.123 546.144 99.1303 543.672 99.1303 539.038Z" fill="#00BFFF"/>
							<path d="M118.74 530.077H123.064V522.815L126.924 521.27V530.077H133.1V533.167H126.924V551.088C126.924 554.178 128.159 555.414 130.63 555.414C131.556 555.414 132.174 555.26 133.1 555.105V558.659C132.019 558.967 131.093 559.122 129.703 559.122C124.917 559.122 123.064 556.341 123.064 551.706V533.167H118.74V530.077Z" fill="#00BFFF"/>
							<path d="M136.497 544.29C136.497 533.785 140.666 529.304 147.306 529.304C153.945 529.304 158.114 533.785 158.114 544.29C158.114 554.796 153.945 559.277 147.306 559.277C140.512 559.277 136.497 554.796 136.497 544.29ZM153.945 544.29C153.945 535.33 151.166 532.394 147.151 532.394C143.291 532.394 140.512 535.33 140.512 544.29C140.512 553.251 143.291 556.187 147.151 556.187C151.166 556.187 153.945 553.251 153.945 544.29Z" fill="#00BFFF"/>
							<path d="M175.562 549.389L179.423 548.771C179.577 553.56 182.047 556.032 185.599 556.032C188.841 556.032 190.849 554.333 190.849 551.088C190.849 548.307 189.613 546.762 186.371 545.99L182.356 545.063C178.187 544.136 176.026 541.355 176.026 537.184C176.026 532.24 179.731 529.304 185.136 529.304C190.694 529.304 194.4 532.085 194.554 538.574L190.849 539.192C190.54 534.094 188.378 532.394 185.136 532.394C181.893 532.394 180.04 534.094 180.04 537.029C180.04 539.656 181.121 541.201 184.209 541.819L188.378 542.9C193.01 543.981 194.863 546.762 194.863 550.934C194.863 555.878 191.466 559.277 185.599 559.277C179.731 559.277 175.871 556.187 175.562 549.389Z" fill="#00BFFF"/>
							<path d="M220.186 545.063H203.51C203.664 552.788 205.826 555.878 210.304 555.878C213.546 555.878 216.017 554.024 216.48 549.698L220.031 550.625C219.259 556.187 215.554 559.277 210.304 559.277C203.973 559.277 199.65 555.26 199.65 544.29C199.65 533.167 204.128 529.304 210.149 529.304C216.48 529.304 220.186 533.476 220.186 541.973V545.063ZM216.326 542.128C216.326 535.175 214.164 532.394 210.304 532.394C206.598 532.394 203.819 534.403 203.664 542.128H216.326Z" fill="#00BFFF"/>
							<path d="M222.657 530.077H226.826L232.384 550.316C232.848 551.861 233.002 553.251 233.311 554.487H233.465C233.62 553.251 233.928 551.861 234.392 550.316L239.95 530.077H244.119L235.627 558.659H231.458L222.657 530.077Z" fill="#00BFFF"/>
							<path d="M267.126 545.063H250.45C250.604 552.788 252.766 555.878 257.244 555.878C260.487 555.878 262.957 554.024 263.42 549.698L266.972 550.625C266.2 556.187 262.494 559.277 257.244 559.277C250.913 559.277 246.59 555.26 246.59 544.29C246.59 533.167 251.068 529.304 257.09 529.304C263.42 529.304 267.126 533.476 267.126 541.973V545.063ZM263.111 542.128C263.111 535.175 260.95 532.394 257.09 532.394C253.384 532.394 250.604 534.403 250.45 542.128H263.111Z" fill="#00BFFF"/>
							<path d="M274.074 530.077H277.78V535.793C279.17 531.467 281.795 529.304 285.809 529.304C290.905 529.304 293.53 532.549 293.53 539.038V558.659H289.67V539.501C289.67 535.021 287.971 532.703 284.42 532.703C280.251 532.703 278.089 536.102 278.089 542.745V558.659H274.229V530.077H274.074Z" fill="#00BFFF"/>
							<path d="M325.029 533.167H318.852V558.659H314.992V533.167H310.514V530.077H314.992V524.515C314.992 519.726 317.617 516.79 322.095 516.79C323.176 516.79 324.102 516.945 324.874 517.099V520.498C324.102 520.344 323.33 520.344 322.713 520.344C319.933 520.344 318.698 521.734 318.698 524.978V530.077H324.874V533.167H325.029Z" fill="#00BFFF"/>
							<path d="M327.654 544.29C327.654 533.785 331.823 529.304 338.462 529.304C345.102 529.304 349.271 533.785 349.271 544.29C349.271 554.796 345.102 559.277 338.462 559.277C331.669 559.277 327.654 554.796 327.654 544.29ZM345.102 544.29C345.102 535.33 342.323 532.394 338.308 532.394C334.448 532.394 331.669 535.33 331.669 544.29C331.669 553.251 334.448 556.187 338.308 556.187C342.323 556.187 345.102 553.251 345.102 544.29Z" fill="#00BFFF"/>
							<path d="M367.182 529.459C367.491 529.459 367.645 529.459 368.108 529.459V533.476C367.8 533.476 367.645 533.476 367.491 533.476C365.02 533.476 363.476 534.403 362.395 535.948C360.543 538.111 360.234 541.51 360.234 544.754V558.659H356.374V530.077H360.079V536.875C360.697 532.703 363.167 529.459 367.182 529.459Z" fill="#00BFFF"/>
							<path d="M376.91 535.33C377.991 531.467 380.461 529.304 384.013 529.304C387.564 529.304 389.726 531.313 390.652 535.021C392.042 531.313 394.512 529.304 397.909 529.304C402.542 529.304 405.012 532.394 405.012 538.111V558.504H401.152V538.883C401.152 534.712 399.608 532.549 396.52 532.549C392.968 532.549 391.116 535.33 391.116 540.583V558.504H387.255V538.729C387.255 534.712 385.711 532.549 382.623 532.549C379.072 532.549 377.064 535.639 377.064 540.892V558.504H373.204V529.922H376.91V535.33Z" fill="#00BFFF"/>
							<path d="M431.725 545.063H415.048C415.203 552.788 417.365 555.878 421.842 555.878C425.085 555.878 427.556 554.024 428.019 549.698L431.57 550.625C430.798 556.187 427.092 559.277 421.842 559.277C415.512 559.277 411.188 555.26 411.188 544.29C411.188 533.167 415.666 529.304 421.688 529.304C428.019 529.304 431.725 533.476 431.725 541.973V545.063ZM427.864 542.128C427.864 535.175 425.703 532.394 421.842 532.394C418.137 532.394 415.357 534.403 415.203 542.128H427.864Z" fill="#00BFFF"/>
							<path d="M449.79 529.459C450.099 529.459 450.253 529.459 450.717 529.459V533.476C450.408 533.476 450.253 533.476 450.099 533.476C447.629 533.476 446.084 534.403 445.004 535.948C443.151 538.111 442.842 541.51 442.842 544.754V558.659H438.982V530.077H442.687V536.875C443.305 532.703 445.776 529.459 449.79 529.459Z" fill="#00BFFF"/>
							<path d="M464.15 551.397C464.15 548.462 465.231 546.454 466.929 545.063C468.473 543.827 470.79 542.9 474.341 542.282L479.745 541.355V539.347C479.745 534.712 478.201 532.703 474.495 532.703C470.326 532.703 468.782 535.021 468.782 539.347H464.768C464.922 532.085 469.4 529.613 474.495 529.613C480.826 529.613 483.605 532.549 483.605 539.501V550.007C483.605 553.715 483.76 556.496 484.223 558.813H480.363C480.208 557.114 479.9 555.105 479.9 553.406C478.819 557.114 475.885 559.586 471.716 559.586C467.084 559.277 464.15 556.187 464.15 551.397ZM479.9 547.999V543.982L474.341 545.063C470.326 545.836 468.319 547.535 468.319 550.934C468.319 554.333 470.017 556.187 473.26 556.187C477.275 556.187 479.9 552.942 479.9 547.999Z" fill="#00BFFF"/>
							<path d="M491.789 530.077H495.495V535.793C496.885 531.467 499.51 529.304 503.524 529.304C508.62 529.304 511.245 532.549 511.245 539.038V558.659H507.384V539.501C507.384 535.021 505.686 532.703 502.135 532.703C497.966 532.703 495.804 536.102 495.804 542.745V558.659H491.944V530.077H491.789Z" fill="#00BFFF"/>
							<path d="M517.421 544.29C517.421 534.557 521.126 529.304 527.303 529.304C531.009 529.304 533.788 531.467 534.869 535.484V517.099H538.729V558.504H535.023V552.633C533.633 556.805 530.854 559.277 526.994 559.277C520.972 559.277 517.421 554.178 517.421 544.29ZM534.869 546.608V541.973C534.869 536.257 532.553 532.549 528.538 532.549C523.906 532.549 521.744 535.948 521.744 544.136C521.744 552.479 523.906 555.878 528.538 555.878C532.553 556.032 534.869 552.479 534.869 546.608Z" fill="#00BFFF"/>
							<path d="M558.493 544.29C558.493 534.248 562.045 529.304 569.148 529.304C574.861 529.304 578.412 532.858 578.566 539.656L574.552 540.119C574.397 535.021 572.39 532.549 568.993 532.549C564.979 532.549 562.508 535.639 562.508 544.29C562.508 552.788 564.979 555.878 569.148 555.878C572.39 555.878 574.552 553.406 574.706 548.153L578.721 548.771C578.412 555.569 574.552 559.277 569.148 559.277C562.354 559.277 558.493 554.642 558.493 544.29Z" fill="#00BFFF"/>
							<path d="M584.743 549.543V530.077H588.603V549.389C588.603 554.024 590.61 556.032 593.698 556.032C597.713 556.032 600.029 552.324 600.029 546.762V530.231H603.889V558.813H600.183V553.406C599.103 556.959 596.323 559.431 592.463 559.431C586.596 559.277 584.743 555.26 584.743 549.543Z" fill="#00BFFF"/>
							<path d="M623.654 529.459C623.962 529.459 624.117 529.459 624.58 529.459V533.476C624.271 533.476 624.117 533.476 623.962 533.476C621.492 533.476 619.948 534.403 618.867 535.948C617.014 538.111 616.705 541.51 616.705 544.754V558.659H612.845V530.077H616.551V536.875C617.168 532.703 619.639 529.459 623.654 529.459Z" fill="#00BFFF"/>
							<path d="M640.793 529.459C641.101 529.459 641.256 529.459 641.719 529.459V533.476C641.41 533.476 641.256 533.476 641.102 533.476C638.631 533.476 637.087 534.403 636.006 535.948C634.153 538.111 633.844 541.51 633.844 544.754V558.659H629.984V530.077H633.69V536.875C634.462 532.703 636.778 529.459 640.793 529.459Z" fill="#00BFFF"/>
							<path d="M665.035 545.063H648.359C648.513 552.788 650.675 555.878 655.153 555.878C658.395 555.878 660.866 554.024 661.329 549.698L664.88 550.625C664.108 556.187 660.403 559.277 655.153 559.277C648.822 559.277 644.499 555.26 644.499 544.29C644.499 533.167 648.976 529.304 654.998 529.304C661.329 529.304 665.035 533.476 665.035 541.973V545.063ZM661.02 542.128C661.02 535.175 658.859 532.394 654.998 532.394C651.293 532.394 648.513 534.403 648.359 542.128H661.02Z" fill="#00BFFF"/>
							<path d="M671.828 530.077H675.534V535.793C676.924 531.467 679.549 529.304 683.563 529.304C688.659 529.304 691.284 532.549 691.284 539.038V558.659H687.424V539.501C687.424 535.021 685.725 532.703 682.174 532.703C678.005 532.703 675.843 536.102 675.843 542.745V558.659H671.983V530.077H671.828Z" fill="#00BFFF"/>
							<path d="M695.298 530.077H699.622V522.815L703.482 521.27V530.077H709.658V533.167H703.482V551.088C703.482 554.178 704.717 555.414 707.188 555.414C708.114 555.414 708.732 555.26 709.658 555.105V558.659C708.578 558.967 707.651 559.122 706.261 559.122C701.475 559.122 699.622 556.341 699.622 551.706V533.167H695.298V530.077Z" fill="#00BFFF"/>
							<path d="M747.025 545.063H730.349C730.503 552.788 732.665 555.878 737.143 555.878C740.386 555.878 742.856 554.024 743.319 549.698L746.871 550.625C746.099 556.187 742.393 559.277 737.143 559.277C730.812 559.277 726.489 555.26 726.489 544.29C726.489 533.167 730.967 529.304 736.989 529.304C743.319 529.304 747.025 533.476 747.025 541.973V545.063ZM743.01 542.128C743.01 535.175 740.849 532.394 736.989 532.394C733.283 532.394 730.503 534.403 730.349 542.128H743.01Z" fill="#00BFFF"/>
							<path d="M757.525 535.33C758.606 531.467 761.076 529.304 764.628 529.304C768.179 529.304 770.341 531.313 771.267 535.021C772.657 531.313 775.127 529.304 778.524 529.304C783.157 529.304 785.627 532.394 785.627 538.111V558.504H781.767V538.883C781.767 534.712 780.223 532.549 777.135 532.549C773.583 532.549 771.73 535.33 771.73 540.583V558.504H767.87V538.729C767.87 534.712 766.326 532.549 763.238 532.549C759.687 532.549 757.679 535.639 757.679 540.892V558.504H753.819V529.922H757.525V535.33Z" fill="#00BFFF"/>
							<path d="M797.208 530.077V535.948C798.288 531.776 801.377 529.304 805.391 529.304C811.413 529.304 814.81 534.094 814.81 544.29C814.81 554.024 811.104 559.277 804.928 559.277C801.068 559.277 798.443 556.805 797.208 553.097V569.782H793.347V530.077H797.208ZM810.641 544.29C810.641 536.257 808.479 532.703 804.31 532.703C800.141 532.703 797.516 536.411 797.516 541.973V546.762C797.516 552.479 800.141 556.032 804.156 556.032C808.479 556.032 810.641 552.479 810.641 544.29Z" fill="#00BFFF"/>
							<path d="M825.928 558.659H822.068V517.254H825.928V558.659Z" fill="#00BFFF"/>
							<path d="M833.03 544.29C833.03 533.785 837.199 529.304 843.839 529.304C850.478 529.304 854.647 533.785 854.647 544.29C854.647 554.796 850.478 559.277 843.839 559.277C837.045 559.277 833.03 554.796 833.03 544.29ZM850.478 544.29C850.478 535.33 847.699 532.394 843.684 532.394C839.824 532.394 837.045 535.33 837.045 544.29C837.045 553.251 839.824 556.187 843.684 556.187C847.699 556.187 850.478 553.251 850.478 544.29Z" fill="#00BFFF"/>
							<path d="M858.353 569.937V566.383C858.971 566.538 859.589 566.538 859.897 566.538C862.986 566.538 864.53 564.684 865.61 561.131L866.228 558.659L856.809 530.077H861.133L867.154 550.625C867.618 552.015 867.772 553.251 868.081 554.487H868.235C868.39 553.251 868.699 552.015 869.162 550.779L874.721 530.077H878.735L869.471 561.44C867.463 567.928 864.684 570.246 860.361 570.246C859.897 570.091 859.28 570.091 858.353 569.937Z" fill="#00BFFF"/>
							<path d="M901.896 545.063H885.22C885.374 552.788 887.536 555.878 892.014 555.878C895.256 555.878 897.727 554.024 898.19 549.698L901.742 550.625C900.969 556.187 897.264 559.277 892.014 559.277C885.683 559.277 881.36 555.26 881.36 544.29C881.36 533.167 885.837 529.304 891.859 529.304C898.19 529.304 901.896 533.476 901.896 541.973V545.063ZM897.881 542.128C897.881 535.175 895.72 532.394 891.859 532.394C888.154 532.394 885.374 534.403 885.22 542.128H897.881Z" fill="#00BFFF"/>
							<path d="M927.528 545.063H910.852C911.006 552.788 913.168 555.878 917.646 555.878C920.888 555.878 923.359 554.024 923.822 549.698L927.374 550.625C926.601 556.187 922.896 559.277 917.646 559.277C911.315 559.277 906.992 555.26 906.992 544.29C906.992 533.167 911.47 529.304 917.492 529.304C923.822 529.304 927.528 533.476 927.528 541.973V545.063ZM923.513 542.128C923.513 535.175 921.352 532.394 917.492 532.394C913.786 532.394 911.006 534.403 910.852 542.128H923.513Z" fill="#00BFFF"/>
							<path d="M932.469 549.389L936.329 548.771C936.484 553.56 938.954 556.032 942.505 556.032C945.748 556.032 947.755 554.333 947.755 551.088C947.755 548.307 946.52 546.762 943.278 545.99L939.263 545.063C935.094 544.136 932.932 541.355 932.932 537.184C932.932 532.24 936.638 529.304 942.042 529.304C947.601 529.304 951.307 532.085 951.461 538.574L947.755 539.192C947.446 534.094 945.285 532.394 942.042 532.394C938.8 532.394 936.947 534.094 936.947 537.029C936.947 539.656 938.028 541.201 941.116 541.819L945.285 542.9C949.917 543.981 951.77 546.762 951.77 550.934C951.77 555.878 948.373 559.277 942.505 559.277C936.638 559.277 932.778 556.187 932.469 549.389Z" fill="#00BFFF"/>
							<path d="M961.961 558.659H956.865V552.479H961.961V558.659Z" fill="#00BFFF"/>
							<path d="M45.3965 644.558H48.7935L56.6682 670.977C56.9771 672.059 57.1315 672.831 57.2859 673.913H57.4403C57.5947 672.831 57.7491 672.213 58.0579 670.977L65.9327 644.558H69.3297V676.385H67.168V651.356C67.168 650.12 67.168 648.112 67.3224 647.03H67.168C67.0136 648.112 66.7047 649.193 66.3959 650.584L58.5211 676.385H56.205L48.3302 650.584C48.0214 649.039 47.7126 647.648 47.5582 647.03H47.4038C47.4038 648.266 47.5582 650.12 47.5582 651.356V676.385H45.3965V644.558Z" fill="#00BFFF"/>
							<path d="M75.3518 670.823C75.3518 668.814 76.1238 667.269 77.2047 666.188C78.2855 665.106 80.1384 664.334 82.9178 663.87L87.7044 662.943V660.935C87.7044 656.918 86.4692 655.219 83.0722 655.219C79.8296 655.219 78.1311 656.918 78.1311 661.089H75.815C75.9694 655.682 79.0576 653.519 83.0722 653.519C87.7044 653.519 89.8661 655.682 89.8661 660.935V669.123C89.8661 672.059 90.0205 674.376 90.3293 676.384H88.1676C88.0132 674.994 87.8588 673.295 87.8588 671.75C86.9324 674.994 84.7707 677.003 81.3737 677.003C77.6679 676.848 75.3518 674.531 75.3518 670.823ZM87.7044 667.887V664.643L82.7634 665.57C79.212 666.188 77.5135 667.733 77.5135 670.668C77.5135 673.604 79.0576 675.149 81.8369 675.149C85.3883 675.149 87.7044 672.213 87.7044 667.887Z" fill="#00BFFF"/>
							<path d="M93.8807 685.191V683.182C94.344 683.337 94.8072 683.337 95.116 683.337C97.7409 683.337 98.9762 681.483 99.7482 678.702L100.366 676.539L93.1087 653.983H95.4248L100.52 670.823C100.829 672.059 101.138 672.986 101.447 674.067C101.756 672.986 101.91 672.059 102.373 670.823L107.005 653.828H109.322L102.064 678.548C100.675 683.337 98.6674 685.191 95.4248 685.191C94.8072 685.345 94.344 685.345 93.8807 685.191Z" fill="#00BFFF"/>
							<path d="M126.461 649.502C125.534 651.202 123.218 652.283 121.211 652.283H120.284V650.275H120.902C123.681 650.275 126.152 648.421 126.769 645.176H128.622V676.384H126.461V649.502Z" fill="#00BFFF"/>
							<path d="M135.571 667.424L137.887 667.269C137.887 672.522 140.357 675.149 144.218 675.149C148.078 675.149 150.394 673.14 150.394 668.042C150.394 663.252 148.078 661.089 144.218 661.089H142.365V659.081H143.909C147.46 659.081 149.622 657.073 149.622 652.438C149.622 648.112 147.46 646.412 144.063 646.412C140.203 646.412 138.041 648.73 138.041 654.137L135.725 653.828C135.725 647.803 138.659 644.404 144.063 644.404C149.004 644.404 151.938 646.876 151.938 652.283C151.938 656.609 149.931 659.235 146.843 659.853C150.548 660.317 152.71 663.098 152.71 667.887C152.71 674.067 149.467 676.848 144.218 676.848C138.813 677.003 135.725 673.758 135.571 667.424Z" fill="#00BFFF"/>
							<path d="M156.57 680.556C158.114 679.475 158.423 678.393 158.423 676.539V676.23H157.188V671.75H159.967V676.23C159.967 679.011 159.349 680.556 157.342 681.638L156.57 680.556Z" fill="#00BFFF"/>
							<path d="M174.481 674.376C178.65 670.05 182.047 666.497 184.826 662.943C187.451 659.545 188.687 656.3 188.687 653.056C188.687 648.884 186.679 646.567 183.128 646.567C179.422 646.567 177.26 648.73 177.26 652.747C177.26 653.674 177.26 654.601 177.569 655.528L175.253 655.219C175.099 654.446 175.099 653.519 175.099 652.592C175.099 647.648 178.187 644.558 183.282 644.558C188.223 644.558 191.157 647.494 191.157 652.901C191.157 656.455 189.767 660.008 186.988 663.716C184.672 666.96 180.966 670.668 177.415 674.376H191.775V676.385H174.481V674.376Z" fill="#00BFFF"/>
							<path d="M195.326 660.781C195.326 648.575 198.723 644.558 204.591 644.558C210.613 644.558 214.01 648.575 214.01 660.781C214.01 672.986 210.613 677.003 204.591 677.003C198.723 677.003 195.326 672.986 195.326 660.781ZM211.693 660.781C211.693 649.811 209.223 646.412 204.591 646.412C200.113 646.412 197.488 649.657 197.488 660.781C197.488 671.904 200.113 675.149 204.591 675.149C209.223 675.149 211.693 671.75 211.693 660.781Z" fill="#00BFFF"/>
							<path d="M218.024 674.376C222.193 670.05 225.59 666.497 228.369 662.943C230.994 659.545 232.23 656.3 232.23 653.056C232.23 648.884 230.222 646.567 226.671 646.567C222.965 646.567 220.804 648.73 220.804 652.747C220.804 653.674 220.804 654.601 221.112 655.528L218.796 655.219C218.642 654.446 218.642 653.519 218.642 652.592C218.642 647.648 221.73 644.558 226.825 644.558C231.766 644.558 234.7 647.494 234.7 652.901C234.7 656.455 233.311 660.008 230.531 663.716C228.215 666.96 224.509 670.668 220.958 674.376H235.318V676.385H218.179V674.376H218.024Z" fill="#00BFFF"/>
							<path d="M238.869 660.781C238.869 648.575 242.266 644.558 248.134 644.558C254.156 644.558 257.553 648.575 257.553 660.781C257.553 672.986 254.156 677.003 248.134 677.003C242.266 677.003 238.869 672.986 238.869 660.781ZM255.236 660.781C255.236 649.811 252.766 646.412 248.134 646.412C243.656 646.412 241.031 649.657 241.031 660.781C241.031 671.904 243.656 675.149 248.134 675.149C252.766 675.149 255.236 671.75 255.236 660.781Z" fill="#00BFFF"/>
							<path d="M62.6901 721.652C62.6901 726.596 60.374 730.458 53.8889 730.458H45.3965V698.632H53.4257C60.0652 698.632 62.0725 702.649 62.0725 706.666C62.0725 710.219 60.5284 713.155 56.8227 713.773C60.6828 714.391 62.6901 717.326 62.6901 721.652ZM47.7126 700.486V713.155H53.5801C58.5211 713.155 59.7564 710.065 59.7564 706.82C59.7564 703.421 58.3667 700.486 53.2713 700.486H47.7126ZM60.2196 721.652C60.2196 717.481 58.5211 714.854 53.5801 714.854H47.5582V728.45H53.4257C58.6755 728.604 60.2196 725.669 60.2196 721.652Z" fill="#00BFFF"/>
							<path d="M66.2415 739.265V737.256C66.7048 737.411 67.168 737.411 67.4768 737.411C70.1017 737.411 71.337 735.557 72.109 732.776L72.7267 730.613L65.4695 708.056H67.7856L72.8811 724.896C73.1899 726.132 73.4987 727.059 73.8075 728.141C74.1163 727.059 74.2707 726.132 74.734 724.896L79.3662 707.902H81.6823L74.4251 732.621C73.0355 737.411 71.0282 739.265 67.7856 739.265C67.168 739.419 66.7048 739.419 66.2415 739.265Z" fill="#00BFFF"/>
							<path d="M107.468 721.034H96.1967L93.5718 730.458H91.2557L100.675 698.632H103.145L112.564 730.458H110.248L107.468 721.034ZM106.851 719.026L102.991 705.739C102.373 703.885 102.064 702.494 101.91 701.104H101.755C101.447 702.494 101.292 703.73 100.675 705.739L96.8144 719.026H106.851Z" fill="#00BFFF"/>
							<path d="M117.196 708.056H119.358V713.155C120.284 709.601 122.755 707.593 125.997 707.593C130.475 707.593 133.409 710.837 133.409 719.18C133.409 727.214 130.475 731.076 125.843 731.076C122.755 731.076 120.439 729.068 119.512 725.823V739.265H117.35V708.056H117.196ZM130.938 719.18C130.938 712.073 129.085 709.447 125.38 709.447C121.828 709.447 119.358 712.691 119.358 717.481V721.034C119.358 725.978 121.674 729.222 125.225 729.222C128.931 729.068 130.938 726.287 130.938 719.18Z" fill="#00BFFF"/>
							<path d="M146.842 707.593C146.997 707.593 147.151 707.593 147.46 707.593V709.756H146.842C145.144 709.756 143.908 710.374 142.982 711.61C141.438 713.309 140.975 715.936 140.975 718.562V730.458H138.967V708.056H140.975V713.773C141.747 710.065 143.754 707.593 146.842 707.593Z" fill="#00BFFF"/>
							<path d="M151.938 699.25H154.254V704.194H151.938V699.25ZM151.938 708.056H154.1V730.458H151.938V708.056Z" fill="#00BFFF"/>
							<path d="M163.673 730.458H161.511V698.014H163.673V730.458Z" fill="#00BFFF"/>
							<path d="M179.885 714.545C179.885 702.958 183.437 697.86 190.385 697.86C197.025 697.86 199.341 702.494 199.65 708.056L197.333 708.365C197.025 703.421 195.481 699.868 190.385 699.868C185.29 699.868 182.51 704.04 182.51 714.545C182.51 724.433 184.981 729.222 190.385 729.222C196.407 729.222 197.951 722.888 197.951 718.099V716.09H190.076V714.082H200.267V730.458H198.414L198.26 724.278C197.025 728.604 194.245 731.231 189.922 731.231C183.282 731.231 179.885 725.823 179.885 714.545Z" fill="#00BFFF"/>
							<path d="M208.451 730.458H206.289V698.014H208.451V730.458Z" fill="#00BFFF"/>
							<path d="M214.319 724.896C214.319 722.888 215.091 721.343 216.172 720.261C217.252 719.18 219.105 718.408 221.885 717.944L226.671 717.017V715.009C226.671 710.992 225.436 709.292 222.039 709.292C218.797 709.292 217.098 710.992 217.098 715.163H214.782C214.936 709.756 218.025 707.593 222.039 707.593C226.671 707.593 228.833 709.756 228.833 715.009V723.197C228.833 726.132 228.987 728.45 229.296 730.458H227.135C226.98 729.068 226.826 727.368 226.826 725.823C225.899 729.068 223.738 731.076 220.341 731.076C216.635 730.922 214.319 728.604 214.319 724.896ZM226.671 721.961V718.717L221.73 719.643C218.179 720.261 216.48 721.806 216.48 724.742C216.48 727.677 218.025 729.222 220.804 729.222C224.355 729.222 226.671 726.287 226.671 721.961Z" fill="#00BFFF"/>
							<path d="M233.928 723.042L236.09 722.733C236.244 727.214 238.406 729.222 241.494 729.222C244.428 729.222 246.126 727.677 246.126 724.896C246.126 722.579 245.045 721.188 242.266 720.261L239.332 719.334C236.09 718.407 234.546 716.399 234.546 713.309C234.546 709.601 237.171 707.438 241.185 707.438C245.354 707.438 247.979 709.447 248.134 714.854L245.972 715.163C245.817 710.528 244.119 709.138 241.185 709.138C238.406 709.138 236.862 710.683 236.862 713.155C236.862 715.472 237.788 716.708 240.413 717.48L243.501 718.407C247.053 719.489 248.442 721.497 248.442 724.587C248.442 728.45 245.972 730.922 241.648 730.922C236.862 730.922 233.928 728.759 233.928 723.042Z" fill="#00BFFF"/>
							<path d="M267.435 719.334H254.31C254.465 726.596 256.626 729.068 260.178 729.068C262.957 729.068 265.119 727.214 265.428 723.351L267.435 723.815C266.972 728.45 264.192 730.922 260.178 730.922C255.237 730.922 252.149 727.677 252.149 719.18C252.149 710.374 255.391 707.438 259.869 707.438C264.501 707.438 267.281 710.374 267.281 717.635V719.334H267.435ZM265.273 717.789C265.273 711.61 263.42 709.292 259.869 709.292C256.626 709.292 254.31 711.301 254.156 717.789H265.273Z" fill="#00BFFF"/>
							<path d="M281.177 707.593C281.331 707.593 281.486 707.593 281.794 707.593V709.756H281.177C279.478 709.756 278.243 710.374 277.317 711.61C275.773 713.309 275.309 715.936 275.309 718.562V730.458H273.302V708.056H275.309V713.773C276.081 710.065 278.089 707.593 281.177 707.593Z" fill="#00BFFF"/>
							<path d="M45.3965 806.78H48.0214L60.9917 831.499C61.6093 832.889 62.0725 833.971 62.5357 835.516H62.6902C62.5357 833.971 62.5357 832.58 62.5357 830.417V806.78H64.6975V838.606H62.2269L49.1023 813.577C48.3302 812.187 48.0214 810.951 47.5582 809.56H47.4038C47.5582 811.105 47.5582 812.341 47.5582 814.504V838.76H45.3965V806.78Z" fill="#00BFFF"/>
							<path d="M89.8657 829.799C89.8657 834.743 87.5496 838.606 81.0644 838.606H72.572V806.78H80.6012C87.2408 806.78 89.2481 810.796 89.2481 814.813C89.2481 818.367 87.704 821.302 83.9982 821.92C87.8584 822.538 89.8657 825.474 89.8657 829.799ZM74.8881 808.634V821.302H80.7556C85.6967 821.302 86.9319 818.212 86.9319 814.968C86.9319 811.569 85.5423 808.634 80.4468 808.634H74.8881ZM87.3952 829.799C87.3952 825.628 85.6967 823.002 80.7556 823.002H74.7337V836.597H80.6012C86.0055 836.752 87.3952 833.816 87.3952 829.799Z" fill="#00BFFF"/>
							<path d="M94.498 822.693C94.498 811.26 98.0494 806.007 104.998 806.007C110.865 806.007 114.108 809.406 114.417 816.976L112.101 817.131C111.792 810.642 109.321 807.861 104.998 807.861C99.5935 807.861 96.9686 812.341 96.9686 822.538C96.9686 832.58 99.5935 837.215 105.152 837.215C109.167 837.215 111.792 834.434 112.255 828.1L114.571 828.409C114.108 835.67 110.865 839.224 105.152 839.224C97.5862 839.378 94.498 833.816 94.498 822.693Z" fill="#00BFFF"/>
							<path d="M130.939 806.78H133.564L146.534 831.499C147.151 832.889 147.615 833.971 148.078 835.516H148.232C148.078 833.971 148.078 832.58 148.078 830.417V806.78H150.24V838.606H147.769L134.644 813.577C133.872 812.187 133.563 810.951 133.1 809.56H132.946C133.1 811.105 133.1 812.341 133.1 814.504V838.76H130.939V806.78Z" fill="#00BFFF"/>
							<path d="M171.547 827.482H158.423C158.577 834.743 160.739 837.215 164.29 837.215C167.07 837.215 169.231 835.361 169.54 831.499L171.547 831.962C171.084 836.597 168.305 839.069 164.29 839.069C159.349 839.069 156.261 835.825 156.261 827.327C156.261 818.521 159.504 815.586 163.981 815.586C168.614 815.586 171.393 818.521 171.393 825.782V827.482H171.547ZM169.386 825.937C169.386 819.757 167.533 817.44 163.981 817.44C160.739 817.44 158.423 819.448 158.268 825.937H169.386Z" fill="#00BFFF"/>
							<path d="M174.636 816.204H176.798L180.658 833.662C180.812 834.434 180.967 835.207 181.121 836.134H181.275C181.43 835.207 181.584 834.434 181.739 833.662L185.753 816.204H188.069L192.084 833.662C192.238 834.434 192.393 835.207 192.547 836.134H192.702C192.856 835.207 193.01 834.28 193.165 833.662L197.025 816.204H199.187L193.937 838.606H191.466L187.297 820.839C187.143 820.066 186.988 819.294 186.834 818.521L186.371 820.839L182.202 838.606H179.886L174.636 816.204Z" fill="#00BFFF"/>
							<path d="M201.966 831.19L204.128 830.881C204.282 835.361 206.444 837.37 209.532 837.37C212.466 837.37 214.164 835.825 214.164 833.044C214.164 830.726 213.083 829.336 210.304 828.409L207.37 827.482C204.128 826.555 202.584 824.546 202.584 821.456C202.584 817.749 205.209 815.586 209.223 815.586C213.392 815.586 216.017 817.594 216.172 823.001L214.01 823.31C213.856 818.676 212.157 817.285 209.223 817.285C206.444 817.285 204.9 818.83 204.9 821.302C204.9 823.619 205.826 824.855 208.451 825.628L211.539 826.555C215.091 827.636 216.48 829.645 216.48 832.735C216.48 836.597 214.01 839.069 209.686 839.069C205.054 839.069 202.121 836.906 201.966 831.19Z" fill="#00BFFF"/>
						</g>
					</g>
				</g>
			</svg>
