<?xml version="1.0" encoding="utf-8"?>
<!-- Generator: Adobe Illustrator 25.2.3, SVG Export Plug-In . SVG Version: 6.00 Build 0)  -->
<svg version="1.1" id="Camada_1" xmlns="http://www.w3.org/2000/svg" xmlns:xlink="http://www.w3.org/1999/xlink" x="0px" y="0px"
	 viewBox="0 0 1614 1199" style="enable-background:new 0 0 1614 1199;" xml:space="preserve">
<style type="text/css">
	.st0{clip-path:url(#SVGID_2_);}
	.st1{fill:#D4F4FF;}
	.st2{fill:#00BBFF;}
	.st3{fill:#FFFFFF;}
	.st4{fill:#FFFFFF;stroke:#FF921E;stroke-width:3;stroke-miterlimit:10;}
	.st5{fill:#FF921E;}
	.st6{fill:#A6A6A6;}
	.st7{fill:#00BCFF;}
	.st8{fill:#00BFFF;}
</style>
<g id="sixth-popup">
	<g>
		<defs>
			<rect id="SVGID_1_" x="112.6" y="332" width="625" height="600"/>
		</defs>
		<clipPath id="SVGID_2_">
			<use xlink:href="#SVGID_1_"  style="overflow:visible;"/>
		</clipPath>
		<g id="company5_1" class="st0">
			<g id="Group">
				<g id="Vector">
					<path class="st1" d="M700.8,930.5h-552c-19.3,0-35-15.7-35-35v-527c0-19.3,15.7-35,35-35h552c19.3,0,35,15.7,35,35v527
						C735.8,914.8,720.2,930.5,700.8,930.5z"/>
					<path class="st2" d="M700.8,929h-552v3h552V929z M148.8,929c-18.5,0-33.5-15-33.5-33.5h-3c0,20.1,16.4,36.5,36.5,36.5V929z
						 M115.3,895.5v-527h-3v527H115.3z M115.3,368.5c0-18.5,15-33.5,33.5-33.5v-3c-20.1,0-36.5,16.4-36.5,36.5H115.3z M148.8,335
						h552v-3h-552V335z M700.8,335c18.5,0,33.5,15,33.5,33.5h3c0-20.1-16.4-36.5-36.5-36.5V335z M734.3,368.5v527h3v-527H734.3z
						 M734.3,895.5c0,18.5-14.9,33.5-33.5,33.5v3c20.2,0,36.5-16.4,36.5-36.5H734.3z M116.5,370.5h622.8v-3H116.5V370.5z"/>
				</g>
				<g id="Vector_2">
					<path class="st3" d="M142.6,359.4c-3.4,0-6.1-2.7-6.1-6.1c0-3.4,2.7-6.1,6.1-6.1s6.1,2.7,6.1,6.1
						C148.7,356.7,146,359.4,142.6,359.4z"/>
					<path class="st3" d="M162.9,359.4c-3.4,0-6.1-2.7-6.1-6.1c0-3.4,2.7-6.1,6.1-6.1c3.4,0,6.1,2.7,6.1,6.1
						C169,356.7,166.3,359.4,162.9,359.4z"/>
					<path class="st3" d="M183.2,359.4c-3.4,0-6.1-2.7-6.1-6.1c0-3.4,2.7-6.1,6.1-6.1s6.1,2.7,6.1,6.1
						C189.3,356.7,186.6,359.4,183.2,359.4z"/>
				</g>
				<g id="Vector_3">
					<path class="st2" d="M142.6,348.7c2.5,0,4.6,2.1,4.6,4.6s-2.1,4.6-4.6,4.6s-4.6-2.1-4.6-4.6S140.1,348.7,142.6,348.7z
						 M142.6,345.7c-4.2,0-7.6,3.4-7.6,7.6c0,4.2,3.4,7.6,7.6,7.6s7.6-3.4,7.6-7.6C150.2,349.1,146.8,345.7,142.6,345.7z"/>
					<path class="st2" d="M162.9,348.7c2.5,0,4.6,2.1,4.6,4.6s-2.1,4.6-4.6,4.6s-4.6-2.1-4.6-4.6S160.4,348.7,162.9,348.7z
						 M162.9,345.7c-4.2,0-7.6,3.4-7.6,7.6c0,4.2,3.4,7.6,7.6,7.6c4.2,0,7.6-3.4,7.6-7.6C170.5,349.1,167.1,345.7,162.9,345.7z"/>
					<path class="st2" d="M183.2,348.7c2.5,0,4.6,2.1,4.6,4.6s-2.1,4.6-4.6,4.6s-4.6-2.1-4.6-4.6S180.7,348.7,183.2,348.7z
						 M183.2,345.7c-4.2,0-7.6,3.4-7.6,7.6c0,4.2,3.4,7.6,7.6,7.6c4.2,0,7.6-3.4,7.6-7.6C190.9,349.1,187.4,345.7,183.2,345.7z"/>
				</g>
				<path id="Vector_4" class="st4" d="M655.7,878H188.4c-16.8,0-30.4-13.6-30.4-30.4v-16.9c0-16.8,13.6-30.4,30.4-30.4h467.2
					c16.8,0,30.4,13.6,30.4,30.4v16.9C686.1,864.4,672.5,878,655.7,878z"/>
			</g>
			<g id="button-company6">
				<path id="Vector_5" class="st5" d="M665.5,866.7H198.2c-16.8,0-30.4-13.6-30.4-30.4v-16.9c0-16.8,13.6-30.4,30.4-30.4h467.2
					c16.8,0,30.4,13.6,30.4,30.4v16.9C695.9,853.1,682.3,866.7,665.5,866.7z"/>
				<g id="Vector_6">
					<path class="st3" d="M217.8,813.6c0-2.7,0.7-4.7,2.1-6.1c1.4-1.4,3.4-2.1,6.1-2.1h11.9c2.6,0,4.6,0.7,6,2.1
						c1.4,1.4,2.1,3.4,2.1,6.1v29.5c0,2.7-0.7,4.7-2.1,6.1c-1.4,1.4-3.4,2.1-6,2.1H226c-2.7,0-4.7-0.7-6.1-2.1
						c-1.4-1.4-2.1-3.4-2.1-6.1V813.6z"/>
					<path class="st3" d="M250.2,813.6c0-2.7,0.7-4.7,2.1-6.1c1.4-1.4,3.4-2.1,6.1-2.1h33c2.7,0,4.7,0.7,6.2,2.1s2.2,3.4,2.2,6.1
						v27.8c0,0.9,0.2,1.5,0.7,2s1.2,0.7,2,0.7h1.2c0.9,0,1.5-0.2,2-0.7s0.7-1.2,0.7-2v-27.8c0-2.7,0.7-4.7,2.1-6.1s3.4-2.1,6-2.1
						h12.1c2.7,0,4.7,0.7,6.1,2.1s2.1,3.4,2.1,6.1v29.5c0,2.7-0.7,4.7-2.1,6.1c-1.4,1.4-3.4,2.1-6.1,2.1h-33c-2.6,0-4.7-0.7-6.2-2.1
						c-1.5-1.4-2.2-3.4-2.2-6.1v-27.8c0-0.9-0.2-1.5-0.7-2s-1.1-0.7-2-0.7h-1.3c-0.9,0-1.5,0.2-2,0.7s-0.7,1.2-0.7,2v27.8
						c0,2.7-0.7,4.7-2.1,6.1c-1.4,1.4-3.4,2.1-6.1,2.1h-11.9c-2.6,0-4.6-0.7-6.1-2.1c-1.4-1.4-2.1-3.4-2.1-6.1V813.6z"/>
					<path class="st3" d="M343.1,851.3c-1.3,0-2.2-0.3-2.9-0.9c-0.7-0.6-1-1.5-1-2.6c0-1.1,0.3-2,1-2.6c0.7-0.6,1.6-0.9,2.9-0.9
						h24.2v-9.8c0-0.9-0.3-1.6-0.8-2.1s-1.2-0.8-2.1-0.8h-17.2c-2.6,0-4.6-0.7-6.1-2.1c-1.4-1.4-2.1-3.4-2.1-6.1v-9.7
						c0-2.7,0.7-4.7,2.1-6.1c1.4-1.4,3.4-2.1,6.1-2.1h43.4c1.3,0,2.2,0.3,2.9,0.9c0.7,0.6,1,1.5,1,2.6s-0.3,2-1,2.6
						c-0.7,0.6-1.6,0.9-2.9,0.9h-23.3v9.1c0,0.9,0.3,1.6,0.8,2.1s1.2,0.8,2.1,0.8h17.2c2.7,0,4.7,0.7,6.1,2.1
						c1.4,1.4,2.1,3.4,2.1,6.1v10.5c0,2.7-0.7,4.7-2.1,6.1c-1.4,1.4-3.4,2.1-6.1,2.1h-44.3V851.3z"/>
					<path class="st3" d="M408.1,851.3c-2.6,0-4.6-0.7-6.1-2.1c-1.4-1.4-2.1-3.4-2.1-6.1v-29.5c0-2.7,0.7-4.7,2.1-6.1
						s3.4-2.1,6.1-2.1h47.1c2.7,0,4.7,0.7,6.1,2.1c1.4,1.4,2.1,3.4,2.1,6.1v9.9c0,2.7-0.7,4.7-2.1,6.1c-1.4,1.4-3.4,2.1-6.1,2.1h-27
						v11.4c0,2.7-0.7,4.7-2.1,6.1c-1.4,1.4-3.4,2.1-6.1,2.1H408.1z M432.3,825c0.9,0,1.6-0.2,2.1-0.8c0.5-0.5,0.8-1.2,0.8-2.1V815
						c0-0.9-0.3-1.6-0.8-2.1s-1.2-0.8-2.1-0.8h-4.1V825H432.3z"/>
					<path class="st3" d="M467.2,837.9c0-2.7,0.6-4.7,1.8-6.1c1.2-1.4,2.9-2.1,5.1-2.1V827c-2.2,0-3.9-0.7-5.1-2.1
						c-1.2-1.4-1.8-3.4-1.8-6v-5.2c0-2.7,0.7-4.7,2.1-6.1c1.4-1.4,3.4-2.1,6.1-2.1h43.4c1.2,0,2.2,0.3,2.9,0.9c0.7,0.6,1,1.5,1,2.6
						s-0.3,2-1,2.6c-0.7,0.6-1.7,0.9-2.9,0.9h-23.4v11.9h23.4c1.2,0,2.2,0.3,2.9,0.9c0.7,0.6,1,1.5,1,2.6c0,1.1-0.3,2-1,2.7
						c-0.7,0.6-1.7,0.9-2.9,0.9h-23.4v12.6h23.4c1.2,0,2.2,0.3,2.9,0.9c0.7,0.6,1,1.5,1,2.6c0,1.1-0.3,2-1,2.6
						c-0.7,0.6-1.7,0.9-2.9,0.9h-43.4c-2.7,0-4.7-0.7-6.1-2.1c-1.4-1.4-2.1-3.4-2.1-6.1V837.9z"/>
					<path class="st3" d="M527,813.6c0-2.7,0.7-4.7,2.1-6.1s3.4-2.1,6.1-2.1h43.4c1.3,0,2.2,0.3,2.9,0.9c0.7,0.6,1,1.5,1,2.6
						c0,1.1-0.3,2-1,2.6c-0.7,0.6-1.6,0.9-2.9,0.9h-23.3v31.7h23.3c1.3,0,2.2,0.3,2.9,0.9c0.7,0.6,1,1.5,1,2.6c0,1.1-0.3,2-1,2.6
						c-0.7,0.6-1.6,0.9-2.9,0.9h-43.4c-2.6,0-4.6-0.7-6.1-2.1c-1.4-1.4-2.1-3.4-2.1-6.1V813.6z"/>
					<path class="st3" d="M586.5,809c0-1.1,0.3-2,1-2.6c0.7-0.6,1.6-0.9,2.9-0.9h54.4c1.3,0,2.2,0.3,2.9,0.9c0.7,0.6,1,1.5,1,2.6
						s-0.3,2-1,2.6c-0.7,0.6-1.6,0.9-2.9,0.9h-13.1v30.6c0,2.7-0.7,4.7-2.1,6.1c-1.4,1.4-3.4,2.1-6,2.1h-11.9
						c-2.7,0-4.7-0.7-6.1-2.1c-1.4-1.4-2.1-3.4-2.1-6.1v-30.6h-13.1c-1.3,0-2.2-0.3-2.9-0.9C586.9,811,586.5,810.1,586.5,809z"/>
				</g>
			</g>
			<g id="Vector_7">
				<path class="st6" d="M332.3,574c0-1.1,0-2.2,0-3.2c0.1-0.8,0.2-1.6,0.3-2.4c0.6-5.3,0.8-10.7,1.9-15.9c3.6-18,12.2-33,28-43
					c14.5-9.3,30.1-12,46.7-5.7c3.9,1.5,7.9,2.9,11.7,4.6c6.8,3.1,13.5,3,20.4,0c5.4-2.3,10.9-4.5,16.5-6.2
					c17.8-5.4,34.4-2.2,49.6,8.1c5.2,3.5,9.4,8,13,13.5c-0.8,0.5-1.4,1-2.1,1.5c-34.4,24-30.8,74.1,6.7,92.5
					c1.5,0.7,1.7,1.5,1.1,2.8c-3.4,7.7-6.3,15.6-10.2,22.9c-5.7,10.6-12.5,20.6-21.1,29.2c-5.2,5.2-11.3,9-18.9,9.8
					c-0.4,0-0.7,0.4-1,0.7c-0.3,0-0.5,0-0.8,0c-0.3-0.2-0.7-0.5-1-0.5c-6.4-0.1-12.3-2.2-18.1-4.7c-3.9-1.7-7.9-3.2-12.1-4.1
					c-10.3-2.2-20.1-0.3-29.6,3.9c-3.9,1.7-8,2.9-12,4.3c-1.4,0.5-2.8,0.7-4.3,1c-1.8,0-3.5,0-5.3,0c-5.5-1.6-10.6-3.9-15-7.6
					c-5.8-5-10.4-11-14.9-17.1c-15.5-21.2-24.8-44.8-28.3-70.8C332.9,583.2,332.7,578.6,332.3,574z"/>
				<path class="st6" d="M477.2,446.6c-0.1,21.2-14.6,42.1-33.8,48.6c-3.8,1.3-7.9,1.5-11.9,2.1c-1.8,0.3-2.5-0.5-2.5-2.4
					c-0.4-9.7,2.3-18.6,7.1-26.9c8.8-14.8,21.7-23.6,38.7-26.4c2-0.3,2.6,0.3,2.5,2.1C477.2,444.7,477.2,445.6,477.2,446.6z"/>
			</g>
		</g>
	</g>
	<g id="news6">
		<g id="Group_2">
			<g id="Vector_8">
				<path class="st1" d="M1561.7,1196.6H553.4c-29.8,0-54-24.2-54-54V56.3c0-29.8,24.2-54,54-54h1008.3c29.8,0,54,24.2,54,54v1086.2
					C1615.7,1172.3,1591.5,1196.6,1561.7,1196.6z"/>
				<path class="st7" d="M1561.7,1195.1H553.4v3h1008.3V1195.1z M553.4,1195.1c-29,0-52.5-23.6-52.5-52.5h-3
					c0,30.6,24.9,55.5,55.5,55.5V1195.1z M500.9,1142.6V56.3h-3v1086.2H500.9z M500.9,56.3c0-29,23.6-52.5,52.5-52.5v-3
					c-30.6,0-55.5,24.9-55.5,55.5H500.9z M553.4,3.8h1008.3v-3H553.4V3.8z M1561.7,3.8c29,0,52.5,23.6,52.5,52.5h3
					c0-30.6-24.9-55.5-55.5-55.5V3.8z M1614.2,56.3v1086.2h3V56.3H1614.2z M1614.2,1142.6c0,29-23.6,52.5-52.5,52.5v3
					c30.6,0,55.5-24.9,55.5-55.5H1614.2z M500.4,65.7h1115.4v-3H500.4V65.7z"/>
			</g>
			<g id="Vector_9">
				<path class="st3" d="M548,46.5c6.4,0,11.6-5.2,11.6-11.6c0-6.4-5.2-11.6-11.6-11.6s-11.6,5.2-11.6,11.6
					C536.4,41.3,541.6,46.5,548,46.5z"/>
				<path class="st3" d="M585.1,46.5c6.4,0,11.6-5.2,11.6-11.6c0-6.4-5.2-11.6-11.6-11.6c-6.4,0-11.6,5.2-11.6,11.6
					C573.5,41.3,578.7,46.5,585.1,46.5z"/>
				<path class="st3" d="M622.1,46.5c6.4,0,11.6-5.2,11.6-11.6c0-6.4-5.2-11.6-11.6-11.6c-6.4,0-11.6,5.2-11.6,11.6
					C610.5,41.3,615.7,46.5,622.1,46.5z"/>
			</g>
			<g id="Vector_10">
				<path class="st7" d="M548,25.6c5.1,0,9.3,4.2,9.3,9.3c0,5.1-4.2,9.3-9.3,9.3c-5.1,0-9.3-4.2-9.3-9.3
					C538.7,29.8,542.9,25.6,548,25.6z M548,21c-7.7,0-13.9,6.2-13.9,13.9s6.2,13.9,13.9,13.9s13.9-6.2,13.9-13.9S555.7,21,548,21z"
					/>
				<path class="st7" d="M585.1,25.6c5.1,0,9.3,4.2,9.3,9.3c0,5.1-4.2,9.3-9.3,9.3c-5.1,0-9.3-4.2-9.3-9.3
					C575.8,29.8,580,25.6,585.1,25.6z M585.1,21c-7.7,0-13.9,6.2-13.9,13.9s6.2,13.9,13.9,13.9c7.7,0,13.9-6.2,13.9-13.9
					S592.8,21,585.1,21z"/>
				<path class="st7" d="M622.1,25.6c5.1,0,9.3,4.2,9.3,9.3c0,5.1-4.2,9.3-9.3,9.3c-5.1,0-9.3-4.2-9.3-9.3
					C612.8,29.8,617,25.6,622.1,25.6z M622.1,21c-7.7,0-13.9,6.2-13.9,13.9s6.2,13.9,13.9,13.9c7.7,0,13.9-6.2,13.9-13.9
					S629.8,21,622.1,21z"/>
			</g>
		</g>
		<g id="Vector_11">
			<path class="st8" d="M558.8,138.2v15.1h16.1v11.9h-16.1v28.9h-16.1v-67.9h33.2v12H558.8z"/>
			<path class="st8" d="M601.3,180.2H590l-1.9,14h-16.1l13-67.9h21.2l13,67.9h-16.1L601.3,180.2z M599.7,168.7l-2.8-20.4
				c-0.3-3.1-0.8-5.6-1.1-9.3h-0.3c-0.3,3.7-0.8,6.2-1.1,9.3l-2.8,20.4H599.7z"/>
			<path class="st8" d="M619.8,174.3v-27.9c0-14.4,7.9-21.9,21.9-21.9c13.4,0,21,6.5,21,19v7.7l-16.5,2.9v-10.3
				c0-4.6-1.7-7.1-4.9-7.1c-3.4,0-5.1,2.9-5.1,8.5v29.8c0,5.6,1.7,8.5,5.1,8.5c3.2,0,5.1-2.6,5.1-7.4v-10.8l16.2,3.1v7.6
				c0,13-8,19.8-21.3,19.8C627.2,195.8,619.8,188.6,619.8,174.3z"/>
			<path class="st8" d="M702.1,182.2v12h-33.8v-67.9h33.2v12h-17.3v15h16.1v11.9h-16.1v17H702.1z"/>
			<path class="st8" d="M748.4,173.5v2c0,11.3-6.5,18.5-19.8,18.5H707v-67.9h21c13.4,0,19.8,6.9,19.8,17.1v2.2c0,6.2-3.1,11-9,12.7
				C745,160.2,748.4,165.5,748.4,173.5z M723.1,136.8v17.8h2.8c4.2,0,5.6-2.9,5.6-8.6v-2.2c0-4.6-1.4-6.9-5.6-6.9H723.1z
				 M732.1,172.6c0-5.9-1.7-8.5-5.7-8.5h-3.4v19.3h3.4c4,0,5.7-2.8,5.7-8.5V172.6z"/>
			<path class="st8" d="M751.7,173.4V147c0-14.4,8.5-22.4,22.2-22.4s22.2,8,22.2,22.4v26.4c0,14.4-8.5,22.4-22.2,22.4
				S751.7,187.7,751.7,173.4z M779.6,175.4v-30.6c0-5.2-2.2-8-5.7-8c-3.7,0-5.7,2.8-5.7,8v30.6c0,5.2,2.2,8,5.7,8
				C777.4,183.4,779.6,180.6,779.6,175.4z"/>
			<path class="st8" d="M799.8,173.4V147c0-14.4,8.5-22.4,22.2-22.4c13.7,0,22.2,8,22.2,22.4v26.4c0,14.4-8.5,22.4-22.2,22.4
				C808.3,195.8,799.8,187.7,799.8,173.4z M827.8,175.4v-30.6c0-5.2-2.2-8-5.7-8c-3.7,0-5.7,2.8-5.7,8v30.6c0,5.2,2.2,8,5.7,8
				C825.8,183.4,827.8,180.6,827.8,175.4z"/>
			<path class="st8" d="M870.1,166l-4,9v19H850V126h16.1v29.9l11.1-29.8h16.2L882,153l12,41.2h-17L870.1,166z"/>
			<path class="st8" d="M910.7,126.1h19.8c14.7,0,23,7.9,23,22.2v22.7c0,15-8.2,23-23.2,23h-19.6V126.1z M930.2,182.8
				c4.6,0,6.9-4.2,6.9-10.8v-24.5c0-6.8-2-10-6.9-10h-3.4v45.4H930.2z"/>
			<path class="st8" d="M959.3,194.1v-67.9h16.1v67.9H959.3z"/>
			<path class="st8" d="M978.8,126.1h16.5l5.1,41.2c0.6,5.4,0.9,9.1,1.1,13h0.5c0.2-3.9,0.3-7.7,1.1-13l5.1-41.2h16.4l-12.7,67.9
				h-20.4L978.8,126.1z"/>
			<path class="st8" d="M1061.9,182.2v12h-33.8v-67.9h33.2v12H1044v15h16.1v11.9H1044v17H1061.9z"/>
			<path class="st8" d="M1086.6,167h-3.9v27h-15.9v-67.9h19.9c15.4,0,21.5,7.1,21.5,18.8v2.8c0,7.7-2.9,12.7-7.7,15.4l9.1,30.9
				h-16.5L1086.6,167z M1085.5,157.3c4.6,0,6.2-2.6,6.2-8.5V144c0-5.4-1.7-7.3-6.2-7.3h-2.8v20.5H1085.5z"/>
			<path class="st8" d="M1109.9,176.8v-5.4l16.2-3.1v8.5c0,4.2,1.4,6.8,4.6,6.8c3.2,0,4.5-2.5,4.5-5.1v-2.9c0-3.2-0.6-4.9-4.3-7.1
				l-11-6.5c-7.1-4.2-9.4-9.1-9.4-16.5v-3.7c0-12,9.6-17.1,20.2-17.1c12.4,0,20.7,4.5,20.7,18.1v4.9l-16.1,2.9v-8.2
				c0-3.2-1.1-6-4.6-6c-2.8,0-4.3,2.2-4.3,4.6v2.9c0,2.8,1.7,5.1,4.3,6.6l10.8,6.5c7.7,4.6,9.9,9,9.9,16.1v6.3
				c0,9.3-7.1,16.7-20.8,16.7C1117.6,195.8,1109.9,187.9,1109.9,176.8z"/>
			<path class="st8" d="M1155.9,194.1v-67.9h15.9v67.9H1155.9z"/>
			<path class="st8" d="M1203.5,139.6v54.5h-15.9v-54.5h-12.7v-13.4h41.4v13.4H1203.5z"/>
			<path class="st8" d="M1232,172.1l-14.5-46h16.5l4.6,21.6c0.8,3.4,1.1,6.6,1.4,10.2h0.3c0.3-3.6,0.6-6.8,1.2-10.2l4.3-21.6h16.5
				l-14.2,46v22.1H1232V172.1z"/>
			<path class="st8" d="M1294.9,167h-3.9v27h-16.1v-67.9h19.9c15.4,0,21.5,7.1,21.5,18.8v2.8c0,7.7-2.9,12.7-7.7,15.4l9.1,30.9H1301
				L1294.9,167z M1293.8,157.3c4.6,0,6.2-2.6,6.2-8.5V144c0-5.4-1.7-7.3-6.2-7.3h-2.8v20.5H1293.8z"/>
			<path class="st8" d="M1355.7,182.2v12h-33.8v-67.9h33.2v12h-17.3v15h16.1v11.9h-16.1v17H1355.7z"/>
			<path class="st8" d="M1402,144.2v5.6c0,12.7-7.1,19.6-20.2,19.6h-5.1v24.9h-16.1v-67.9h20.8C1394.9,126.1,1402,132.3,1402,144.2z
				 M1385.5,144.5c0-5.4-1.7-7.7-5.9-7.7h-3.1v21.5h3.1c4.2,0,5.9-2.5,5.9-9V144.5z"/>
			<path class="st8" d="M1405,173.4V147c0-14.4,8.5-22.4,22.2-22.4c13.7,0,22.2,8,22.2,22.4v26.4c0,14.4-8.5,22.4-22.2,22.4
				C1413.5,195.8,1405,187.7,1405,173.4z M1432.9,175.4v-30.6c0-5.2-2.2-8-5.7-8c-3.7,0-5.7,2.8-5.7,8v30.6c0,5.2,2.2,8,5.7,8
				C1430.9,183.4,1432.9,180.6,1432.9,175.4z"/>
			<path class="st8" d="M1475.1,167h-3.9v27h-16.1v-67.9h19.9c15.4,0,21.5,7.1,21.5,18.8v2.8c0,7.7-2.9,12.7-7.7,15.4l9.1,30.9
				h-16.7L1475.1,167z M1474,157.3c4.6,0,6.2-2.6,6.2-8.5V144c0-5.4-1.7-7.3-6.2-7.3h-2.8v20.5H1474z"/>
			<path class="st8" d="M1525.4,139.6v54.5h-15.9v-54.5h-12.7v-13.4h41.4v13.4H1525.4z"/>
			<path class="st8" d="M1554.6,159h-14.8v-17.6h14.8V159z M1554.6,194.1h-14.8v-17.8h14.8V194.1z"/>
			<path class="st8" d="M576.7,287.1v12h-34v-67.9h33.2v12h-17.1v15h16.1v11.9h-16.1v17H576.7z"/>
			<path class="st8" d="M597.6,243.1v15.1h16.1v11.9h-16.1V299h-16.1v-67.9h33.2v12H597.6z"/>
			<path class="st8" d="M634.6,243.1v15.1h16.1v11.9h-16.1V299h-15.9v-67.9h33.2v12H634.6z"/>
			<path class="st8" d="M652.8,278.3v-26.4c0-14.4,8.5-22.4,22.2-22.4s22.2,8,22.2,22.4v26.4c0,14.4-8.5,22.4-22.2,22.4
				S652.8,292.7,652.8,278.3z M680.8,280.3v-30.6c0-5.2-2.2-8-5.7-8c-3.7,0-5.7,2.8-5.7,8v30.6c0,5.2,2.2,8,5.7,8
				C678.8,288.4,680.8,285.6,680.8,280.3z"/>
			<path class="st8" d="M722.9,272h-3.9v27H703v-67.9h19.9c15.4,0,21.5,7.1,21.5,18.8v2.8c0,7.7-2.9,12.7-7.7,15.4l9.1,30.9h-16.7
				L722.9,272z M721.9,262.3c4.6,0,6.2-2.6,6.2-8.5V249c0-5.4-1.7-7.3-6.2-7.3h-2.8v20.5H721.9z"/>
			<path class="st8" d="M773.3,244.5V299h-15.9v-54.5h-12.7v-13.4h41.4v13.4H773.3z"/>
			<path class="st8" d="M785.6,281.7v-5.4l16.2-3.1v8.5c0,4.2,1.4,6.8,4.6,6.8s4.5-2.5,4.5-5.1v-2.9c0-3.2-0.6-4.9-4.3-7.1l-11-6.5
				c-7.1-4.2-9.4-9.1-9.4-16.5v-3.7c0-12,9.6-17.1,20.2-17.1c12.4,0,20.7,4.5,20.7,18.1v4.9l-16.1,2.9v-8.2c0-3.2-1.1-6-4.6-6
				c-2.8,0-4.3,2.2-4.3,4.6v2.9c0,2.8,1.7,5.1,4.3,6.6l10.8,6.5c7.7,4.6,9.9,9,9.9,16.1v6.3c0,9.3-7.1,16.7-20.8,16.7
				C793.4,300.7,785.6,292.9,785.6,281.7z"/>
			<path class="st8" d="M842.9,281.7v-5.4l16.2-3.1v8.5c0,4.2,1.4,6.8,4.6,6.8c3.2,0,4.5-2.5,4.5-5.1v-2.9c0-3.2-0.6-4.9-4.3-7.1
				l-11-6.5c-7.1-4.2-9.4-9.1-9.4-16.5v-3.7c0-12,9.6-17.1,20.2-17.1c12.4,0,20.7,4.5,20.7,18.1v4.9l-16.1,2.9v-8.2
				c0-3.2-1.1-6-4.6-6c-2.8,0-4.3,2.2-4.3,4.6v2.9c0,2.8,1.7,5.1,4.3,6.6l10.8,6.5c7.7,4.6,9.9,9,9.9,16.1v6.3
				c0,9.3-7.1,16.7-20.8,16.7C850.6,300.7,842.9,292.9,842.9,281.7z"/>
			<path class="st8" d="M913.2,244.5V299h-15.9v-54.5h-12.7v-13.4H926v13.4H913.2z"/>
			<path class="st8" d="M928.9,299v-67.9h15.9V299H928.9z"/>
			<path class="st8" d="M968.8,231.1v54.2H985V299h-32.4v-67.9H968.8z"/>
			<path class="st8" d="M989.1,231.1h16.1v54.2h16.4V299h-32.4V231.1z"/>
			<path class="st8" d="M1052.9,243.1v15.1h16.1v11.9h-16.1V299h-16.1v-67.9h33.2v12H1052.9z"/>
			<path class="st8" d="M1095.4,285.1h-11.3l-1.9,14h-16.1l13-67.9h21.2l13,67.9h-16.1L1095.4,285.1z M1093.8,273.7l-2.8-20.4
				c-0.3-3.1-0.8-5.6-1.1-9.3h-0.3c-0.3,3.7-0.8,6.2-1.1,9.3l-2.8,20.4H1093.8z"/>
			<path class="st8" d="M1117.8,299v-67.9h16.1V299H1117.8z"/>
			<path class="st8" d="M1141.7,231.1h16.1v54.2h16.4V299h-32.4V231.1z"/>
			<path class="st8" d="M1178.1,299v-67.9h16.1V299H1178.1z"/>
			<path class="st8" d="M1218.7,231.1l9.3,27.5c0.9,3.1,1.9,6.5,2.6,9.4h0.3c-0.2-4.6-0.3-9.4-0.3-14v-22.8h13.7V299h-15.1l-10.7-31
				c-1.1-3.7-2.2-6.9-2.9-10.2h-0.3c0.2,4.3,0.3,8.6,0.3,13.3V299h-13.9v-67.9H1218.7z"/>
			<path class="st8" d="M1250.4,278.2v-25.3c0-14.8,7.9-23.3,22.1-23.3c13.1,0,20.8,6.3,20.8,17.9v5.4l-16.4,2.9v-7.7
				c0-4.6-1.5-6.9-4.8-6.9c-3.7,0-5.4,3.1-5.4,9.3v28.7c0,6.2,1.9,9.4,5.9,9.4c3.6,0,5.4-2.8,5.4-7.4v-8.2h-6.2v-11.9h21.3v38h-11.4
				l-0.6-10.3c-1.4,7.1-6.2,11.9-14.5,11.9C1256.1,300.7,1250.4,292.9,1250.4,278.2z"/>
			<path class="st8" d="M1356.2,278.5v2c0,11.3-6.5,18.5-19.8,18.5h-21.6v-67.9h21c13.4,0,19.8,6.9,19.8,17.1v2.2
				c0,6.2-3.1,11-9,12.7C1352.8,265.2,1356.2,270.5,1356.2,278.5z M1330.7,241.8v17.8h2.8c4.2,0,5.6-2.9,5.6-8.6v-2.2
				c0-4.6-1.4-6.9-5.6-6.9H1330.7z M1339.8,277.6c0-5.9-1.7-8.5-5.7-8.5h-3.4v19.3h3.4c4,0,5.7-2.8,5.7-8.5V277.6z"/>
			<path class="st8" d="M1361.4,231.1h16.1v54.2h16.4V299h-32.4V231.1z"/>
			<path class="st8" d="M1426.4,285.1h-11.3l-1.9,14h-16.1l13-67.9h21.2l13,67.9h-16.1L1426.4,285.1z M1424.9,273.7l-2.8-20.4
				c-0.3-3.1-0.8-5.6-1.1-9.3h-0.3c-0.3,3.7-0.8,6.2-1.1,9.3l-2.8,20.4H1424.9z"/>
			<path class="st8" d="M1444.8,279.3v-27.9c0-14.4,7.9-21.9,21.9-21.9c13.4,0,21,6.5,21,19v7.7l-16.5,2.9v-10.3
				c0-4.6-1.7-7.1-4.9-7.1c-3.4,0-5.1,2.9-5.1,8.5v29.8c0,5.6,1.7,8.5,5.1,8.5c3.2,0,5.1-2.6,5.1-7.4v-10.8l16.2,3.1v7.6
				c0,13-8,19.8-21.3,19.8C1452.4,300.7,1444.8,293.6,1444.8,279.3z"/>
			<path class="st8" d="M1513.4,270.9l-4,9v19h-16.1v-67.9h16.1v30l11.1-29.8h16.2l-11.4,26.9l12.1,41.2h-17L1513.4,270.9z"/>
			<path class="st8" d="M568.4,390.1h-11.1l-1.9,14h-16.1l13-67.9h21.2l13,67.9h-16.1L568.4,390.1z M566.8,378.7l-2.8-20.4
				c-0.3-3.1-0.8-5.6-1.1-9.3h-0.3c-0.3,3.7-0.8,6.2-1.1,9.3l-2.8,20.4H566.8z"/>
			<path class="st8" d="M607.6,336.1l9.3,27.5c0.9,3.1,1.9,6.5,2.6,9.4h0.3c-0.2-4.6-0.3-9.4-0.3-14v-22.8h13.7V404h-15.1l-10.7-31
				c-1.1-3.7-2.2-6.9-2.9-10.2h-0.3c0.2,4.3,0.3,8.6,0.3,13.3V404h-13.9v-67.9H607.6z"/>
			<path class="st8" d="M641.3,336.1H661c14.7,0,23,7.9,23,22.2V381c0,15-8.2,23-23.2,23h-19.6V336.1z M660.6,392.7
				c4.6,0,6.9-4.2,6.9-10.8v-24.5c0-6.8-2-10-6.9-10h-3.4v45.4H660.6z"/>
			<path class="st8" d="M746.4,404h-16.1v-28.4h-9.9V404h-16.1v-67.9h16.1v27.3h9.9v-27.3h16.1V404z"/>
			<path class="st8" d="M754.3,404v-67.9h16.1V404H754.3z"/>
			<path class="st8" d="M775,386.7v-5.4l16.2-3.1v8.5c0,4.2,1.4,6.8,4.6,6.8c3.2,0,4.5-2.5,4.5-5.1v-2.9c0-3.2-0.6-4.9-4.3-7.1
				l-11-6.5c-7.1-4.2-9.4-9.1-9.4-16.5v-3.7c0-12,9.6-17.1,20.2-17.1c12.4,0,20.7,4.5,20.7,18.1v4.9l-16.1,2.9v-8.2
				c0-3.2-1.1-6-4.6-6c-2.8,0-4.3,2.2-4.3,4.6v2.9c0,2.8,1.7,5.1,4.3,6.6l10.8,6.5c7.7,4.6,9.9,9,9.9,16.1v6.3
				c0,9.3-7.1,16.7-20.8,16.7C782.5,405.7,775,397.8,775,386.7z"/>
			<path class="st8" d="M862.4,354.1v5.6c0,12.7-7.1,19.6-20.2,19.6H837v24.9H821v-67.9h20.8C855.3,336.1,862.2,342.3,862.4,354.1z
				 M845.7,354.5c0-5.4-1.7-7.7-5.9-7.7h-3.1v21.5h3.1c4.2,0,5.9-2.5,5.9-9V354.5z"/>
			<path class="st8" d="M887.7,390.1h-11.3l-1.9,14h-16.1l13-67.9h21.2l13,67.9h-16.1L887.7,390.1z M886.1,378.7l-2.8-20.4
				c-0.3-3.1-0.8-5.6-1.1-9.3H882c-0.3,3.7-0.8,6.2-1.1,9.3l-2.8,20.4H886.1z"/>
			<path class="st8" d="M926.9,336.1l9.3,27.5c0.9,3.1,1.9,6.5,2.6,9.4h0.3c-0.2-4.6-0.3-9.4-0.3-14v-22.8h13.7V404h-15.1l-10.7-31
				c-1.1-3.7-2.2-6.9-2.9-10.2h-0.3c0.2,4.3,0.3,8.6,0.3,13.3V404h-13.9v-67.9H926.9z"/>
			<path class="st8" d="M960.6,404v-67.9h16.1V404H960.6z"/>
			<path class="st8" d="M982.3,384.2v-27.9c0-14.4,7.9-21.9,21.9-21.9c13.4,0,21,6.5,21,19v7.7l-16.5,2.9v-10.3
				c0-4.6-1.7-7.1-4.9-7.1c-3.4,0-5.1,2.9-5.1,8.5v29.8c0,5.6,1.7,8.5,5.1,8.5c3.2,0,5.1-2.6,5.1-7.4v-10.8l16.2,3.1v7.6
				c0,13-8,19.8-21.3,19.8C989.8,405.7,982.3,398.6,982.3,384.2z"/>
			<path class="st8" d="M1079.5,392.1v12h-33.8v-67.9h33.2v12h-17.3v15h16.1v11.9h-16.1v17H1079.5z"/>
			<path class="st8" d="M1084.3,336.1h20.5l4.3,28.6c0.5,3.6,0.9,7.7,0.9,9.9h0.3c0-2.3,0.5-6.5,0.9-9.9l4.2-28.6h20.8V404h-13.4
				v-30.1c0-6.2,0-12.5,0.3-18.5h-0.3c-0.3,2.9-0.6,5.9-1.1,9l-6.2,39.7h-10.2l-6.5-39.7c-0.3-3.1-0.9-6.2-1.1-9h-0.5
				c0.3,5.9,0.3,12.3,0.3,18.5V404h-13.3v-67.9H1084.3z"/>
			<path class="st8" d="M1185.5,354.1v5.6c0,12.7-7.1,19.6-20.2,19.6h-5.1v24.9h-16.1v-67.9h20.8
				C1178.4,336.1,1185.5,342.3,1185.5,354.1z M1169,354.5c0-5.4-1.7-7.7-5.9-7.7h-3.1v21.5h3.1c4.2,0,5.9-2.5,5.9-9V354.5z"/>
			<path class="st8" d="M1189.6,336.1h16.1v54.2h16.4V404h-32.4V336.1z"/>
			<path class="st8" d="M1223.5,383.3v-26.4c0-14.4,8.5-22.4,22.2-22.4c13.7,0,22.2,8,22.2,22.4v26.4c0,14.4-8.5,22.4-22.2,22.4
				C1232,405.7,1223.5,397.7,1223.5,383.3z M1251.6,385.3v-30.6c0-5.2-2.2-8-5.7-8c-3.7,0-5.7,2.8-5.7,8v30.6c0,5.2,2.2,8,5.7,8
				C1249.5,393.4,1251.6,390.6,1251.6,385.3z"/>
			<path class="st8" d="M1281.6,382.1l-14.5-46h16.5l4.6,21.6c0.8,3.4,1.1,6.6,1.4,10.2h0.3c0.3-3.6,0.6-6.8,1.2-10.2l4.3-21.6h16.5
				l-14.2,46v22.1h-16.1v-22.1H1281.6z"/>
			<path class="st8" d="M1349.1,392.1v12h-33.8v-67.9h33.2v12h-17.3v15h16.1v11.9h-16.1v17H1349.1z"/>
			<path class="st8" d="M1387.8,392.1v12H1354v-67.9h33.2v12h-17.3v15h16.1v11.9h-16.1v17H1387.8z"/>
			<path class="st8" d="M1388.9,386.7v-5.4l16.2-3.1v8.5c0,4.2,1.4,6.8,4.6,6.8s4.5-2.5,4.5-5.1v-2.9c0-3.2-0.6-4.9-4.3-7.1l-11-6.5
				c-7.1-4.2-9.4-9.1-9.4-16.5v-3.7c0-12,9.6-17.1,20.2-17.1c12.4,0,20.7,4.5,20.7,18.1v4.9l-16.1,2.9v-8.2c0-3.2-1.1-6-4.6-6
				c-2.8,0-4.3,2.2-4.3,4.6v2.9c0,2.8,1.7,5.1,4.3,6.6l10.8,6.5c7.7,4.6,9.9,9,9.9,16.1v6.3c0,9.3-7.1,16.7-20.8,16.7
				C1396.6,405.7,1388.9,397.8,1388.9,386.7z"/>
			<path class="st8" d="M1434.6,412c4.5-1.7,5.4-3.7,5.4-7.7V404h-6.5v-17.8h16.7v16.5c0,8.6-3.6,14.5-11.9,17.1L1434.6,412z"/>
			<path class="st8" d="M576.7,497.1v12h-34v-67.9h33.2v12h-17.1v15h16.1v11.9h-16.1v17H576.7z"/>
			<path class="st8" d="M577.8,491.7v-5.4l16.2-3.1v8.5c0,4.2,1.4,6.8,4.6,6.8c3.2,0,4.5-2.5,4.5-5.1v-2.9c0-3.2-0.6-4.9-4.3-7.1
				l-11-6.5c-7.1-4.2-9.4-9.1-9.4-16.5v-3.7c0-12,9.6-17.1,20.2-17.1c12.4,0,20.7,4.5,20.7,18.1v4.9l-16.1,2.9v-8.2
				c0-3.2-1.1-6-4.6-6c-2.8,0-4.3,2.2-4.3,4.6v2.9c0,2.8,1.7,5.1,4.3,6.6l10.8,6.5c7.7,4.6,9.9,9,9.9,16.1v6.3
				c0,9.3-7.1,16.7-20.8,16.7C585.5,510.7,577.8,502.8,577.8,491.7z"/>
			<path class="st8" d="M665.2,459.1v5.6c0,12.7-7.1,19.6-20.2,19.6h-5.1v24.9h-16.1v-67.9h20.8C658.1,441.1,665,447.2,665.2,459.1z
				 M648.7,459.4c0-5.4-1.7-7.7-5.9-7.7h-3.1v21.5h3.1c4.2,0,5.9-2.5,5.9-9V459.4z"/>
			<path class="st8" d="M703.2,497.1v12h-33.8v-67.9h33v12h-17.3v15h16.1v11.9h-16.1v17H703.2z"/>
			<path class="st8" d="M705,489.2v-27.9c0-14.4,7.9-21.9,21.9-21.9c13.4,0,21,6.5,21,19v7.7l-16.5,2.9v-10.3c0-4.6-1.7-7.1-4.9-7.1
				c-3.4,0-5.1,2.9-5.1,8.5v29.8c0,5.6,1.7,8.5,5.1,8.5c3.2,0,5.1-2.6,5.1-7.4v-10.8l16.2,3.1v7.6c0,13-8,19.8-21.3,19.8
				C712.4,510.7,705,503.6,705,489.2z"/>
			<path class="st8" d="M753.5,509v-67.9h16.1V509H753.5z"/>
			<path class="st8" d="M803.1,495.1h-11.3l-1.9,14h-16.1l13-67.9H808l13,67.9h-16.1L803.1,495.1z M801.5,483.7l-2.8-20.4
				c-0.3-3.1-0.8-5.6-1.1-9.3h-0.3c-0.3,3.7-0.8,6.2-1.1,9.3l-2.8,20.4H801.5z"/>
			<path class="st8" d="M841.4,441.1v54.2h16.4V509h-32.4v-67.9H841.4z"/>
			<path class="st8" d="M861.9,441.1H878v54.2h16.4V509h-32.4V441.1z"/>
			<path class="st8" d="M900.8,487.1l-14.5-46h16.5l4.6,21.6c0.8,3.4,1.1,6.6,1.4,10.2h0.3c0.3-3.5,0.6-6.8,1.2-10.2l4.3-21.6h16.5
				l-14.2,46v22.1H901v-22.1H900.8z"/>
			<path class="st8" d="M939.4,441.1h14.5l2.6,38.1c0.2,2.9,0.5,7.3,0.3,10.7h0.5l0.9-9.4l4.3-39.4h14.2l4.3,39.4
				c0.3,2.9,0.5,6,0.9,9.4h0.3c0-3.4,0.2-7.7,0.3-10.7l2.6-38.1h14.5l-7.7,67.9h-17.8l-4-34.3c-0.5-4.5-0.3-7.7-0.6-11h-0.5
				c-0.2,3.2-0.2,6.6-0.6,11l-3.9,34.3H947L939.4,441.1z"/>
			<path class="st8" d="M1002,488.3v-26.4c0-14.4,8.5-22.4,22.2-22.4c13.7,0,22.2,8,22.2,22.4v26.4c0,14.4-8.5,22.4-22.2,22.4
				C1010.4,510.7,1002,502.7,1002,488.3z M1029.9,490.3v-30.6c0-5.2-2.2-8-5.7-8c-3.7,0-5.7,2.8-5.7,8v30.6c0,5.2,2.2,8,5.7,8
				C1027.9,498.3,1029.9,495.6,1029.9,490.3z"/>
			<path class="st8" d="M1072.8,441.1l4.3,28.6c0.5,3.6,0.9,7.7,0.9,9.9h0.3c0-2.3,0.5-6.5,0.9-9.9l4.2-28.6h20.5V509h-13.4v-30.1
				c0-6.2,0-12.5,0.3-18.5h-0.3c-0.3,2.9-0.6,5.9-1.1,9l-6.2,39.7h-10.2l-6.5-39.7c-0.3-3.1-0.9-6.2-1.1-9h-0.5
				c0.3,5.9,0.3,12.4,0.3,18.5V509h-13.3v-67.9H1072.8z"/>
			<path class="st8" d="M1146,497.1v12h-33.8v-67.9h33.2v12h-17.3v15h15.9v11.9H1128v17H1146z"/>
			<path class="st8" d="M1167.6,441.1l9.3,27.5c0.9,3.1,1.9,6.5,2.6,9.4h0.3c-0.2-4.6-0.3-9.4-0.3-14v-22.8h13.7V509h-15.1l-10.7-31
				c-1.1-3.7-2.2-6.9-2.9-10.2h-0.3c0.2,4.3,0.3,8.6,0.3,13.3V509h-13.9v-67.9H1167.6z"/>
			<path class="st8" d="M560.3,617.4h-13.3l-3.2,11.9h-4.3l11.9-40.6h4.6l11.9,40.6h-4.2L560.3,617.4z M559.4,614l-4.5-15.9
				c-0.5-1.9-0.8-3.4-1.1-5.1h-0.2c-0.3,1.7-0.6,3.2-1.1,5.1l-4.5,15.9H559.4z"/>
			<path class="st8" d="M583.8,603.8h-6.2v25.5h-3.9v-25.5h-4.5v-3.1h4.5v-5.6c0-4.8,2.6-7.7,7.1-7.7c1.1,0,2,0.2,2.8,0.3v3.4
				c-0.8-0.2-1.5-0.2-2.2-0.2c-2.8,0-4,1.4-4,4.6v5.1h6.2v3.1H583.8z"/>
			<path class="st8" d="M586.8,600.7h4.3v-7.3l3.9-1.5v8.8h6.2v3.1h-6.2v17.9c0,3.1,1.2,4.3,3.7,4.3c0.9,0,1.5-0.2,2.5-0.3v3.6
				c-1.1,0.3-2,0.5-3.4,0.5c-4.8,0-6.6-2.8-6.6-7.4v-18.5h-4.3V600.7z"/>
			<path class="st8" d="M625,615.7h-16.7c0.2,7.7,2.3,10.8,6.8,10.8c3.2,0,5.7-1.9,6.2-6.2l3.6,0.9c-0.8,5.6-4.5,8.6-9.7,8.6
				c-6.3,0-10.7-4-10.7-15c0-11.1,4.5-15,10.5-15c6.3,0,10,4.2,10,12.7V615.7z M621,612.7c0-6.9-2.2-9.7-6-9.7c-3.7,0-6.5,2-6.6,9.7
				H621z"/>
			<path class="st8" d="M643,600.1c0.3,0,0.5,0,0.9,0v4c-0.3,0-0.5,0-0.6,0c-2.5,0-4,0.9-5.1,2.5c-1.9,2.2-2.2,5.6-2.2,8.8v13.9
				h-3.9v-28.6h3.7v6.8C636.5,603.3,638.9,600.1,643,600.1z"/>
			<path class="st8" d="M655.9,640.5V637c0.6,0.2,1.2,0.2,1.5,0.2c3.1,0,4.6-1.9,5.7-5.4l0.6-2.5l-9.4-28.6h4.3l6,20.5
				c0.5,1.4,0.6,2.6,0.9,3.9h0.2c0.2-1.2,0.5-2.5,0.9-3.7l5.6-20.7h4L667,632c-2,6.5-4.8,8.8-9.1,8.8
				C657.5,640.7,656.9,640.7,655.9,640.5z"/>
			<path class="st8" d="M699.5,615.7h-16.7c0.2,7.7,2.3,10.8,6.8,10.8c3.2,0,5.7-1.9,6.2-6.2l3.6,0.9c-0.8,5.6-4.5,8.6-9.7,8.6
				c-6.3,0-10.7-4-10.7-15c0-11.1,4.5-15,10.5-15c6.3,0,10,4.2,10,12.7V615.7z M695.5,612.7c0-6.9-2.2-9.7-6-9.7
				c-3.7,0-6.5,2-6.6,9.7H695.5z"/>
			<path class="st8" d="M704.3,622c0-2.9,1.1-4.9,2.8-6.3c1.5-1.2,3.9-2.2,7.4-2.8l5.4-0.9v-2c0-4.6-1.5-6.6-5.2-6.6
				c-4.2,0-5.7,2.3-5.7,6.6h-4c0.2-7.3,4.6-9.7,9.7-9.7c6.3,0,9.1,2.9,9.1,9.9v10.5c0,3.7,0.2,6.5,0.6,8.8h-3.9
				c-0.2-1.7-0.5-3.7-0.5-5.4c-1.1,3.7-4,6.2-8.2,6.2C707.2,629.9,704.3,626.8,704.3,622z M719.9,618.6v-4l-5.6,1.1
				c-4,0.8-6,2.5-6,5.9c0,3.4,1.7,5.2,4.9,5.2C717.2,626.8,719.9,623.5,719.9,618.6z"/>
			<path class="st8" d="M743,600.1c0.3,0,0.5,0,0.9,0v4c-0.3,0-0.5,0-0.6,0c-2.5,0-4,0.9-5.1,2.5c-1.9,2.2-2.2,5.6-2.2,8.8v13.9
				h-3.9v-28.6h3.7v6.8C736.5,603.3,739,600.1,743,600.1z"/>
			<path class="st8" d="M746.9,620l3.9-0.6c0.2,4.8,2.6,7.3,6.2,7.3c3.2,0,5.2-1.7,5.2-4.9c0-2.8-1.2-4.3-4.5-5.1l-4-0.9
				c-4.2-0.9-6.3-3.7-6.3-7.9c0-4.9,3.7-7.9,9.1-7.9c5.6,0,9.3,2.8,9.4,9.3l-3.7,0.6c-0.3-5.1-2.5-6.8-5.7-6.8
				c-3.2,0-5.1,1.7-5.1,4.6c0,2.6,1.1,4.2,4.2,4.8l4.2,1.1c4.6,1.1,6.5,3.9,6.5,8c0,4.9-3.4,8.3-9.3,8.3
				C751,629.9,747.2,626.8,746.9,620z"/>
			<path class="st8" d="M783.6,614.9c0-10.5,4.2-15,10.8-15c6.6,0,10.8,4.5,10.8,15c0,10.5-4.2,15-10.8,15
				C787.8,629.9,783.6,625.4,783.6,614.9z M801.2,614.9c0-9-2.8-11.9-6.8-11.9c-3.9,0-6.6,2.9-6.6,11.9c0,9,2.8,11.9,6.6,11.9
				C798.4,626.8,801.2,623.8,801.2,614.9z"/>
			<path class="st8" d="M822.8,603.8h-6.2v25.5h-3.9v-25.5h-4.5v-3.1h4.5v-5.6c0-4.8,2.6-7.7,7.1-7.7c1.1,0,2,0.2,2.8,0.3v3.4
				c-0.8-0.2-1.5-0.2-2.2-0.2c-2.8,0-4,1.4-4,4.6v5.1h6.2v3.1H822.8z"/>
			<path class="st8" d="M844.8,600.7v5.9c1.1-4.2,4.2-6.6,8.2-6.6c6,0,9.4,4.8,9.4,15c0,9.7-3.7,15-9.9,15c-3.9,0-6.5-2.5-7.7-6.2
				v16.7h-3.9v-39.7H844.8z M858.2,614.9c0-8-2.2-11.6-6.3-11.6s-6.8,3.7-6.8,9.3v4.8c0,5.7,2.6,9.3,6.6,9.3
				C856,626.6,858.2,623.1,858.2,614.9z"/>
			<path class="st8" d="M873.5,629.2h-3.9v-41.4h3.9V629.2z"/>
			<path class="st8" d="M901,615.7h-16.7c0.2,7.7,2.3,10.8,6.8,10.8c3.2,0,5.7-1.9,6.2-6.2l3.6,0.9c-0.8,5.6-4.5,8.6-9.7,8.6
				c-6.3,0-10.7-4-10.7-15c0-11.1,4.5-15,10.5-15c6.3,0,10,4.2,10,12.7V615.7z M897,612.7c0-6.9-2.2-9.7-6-9.7c-3.7,0-6.5,2-6.6,9.7
				H897z"/>
			<path class="st8" d="M906.1,614.9c0-9.7,3.7-15,9.9-15c3.7,0,6.5,2.2,7.6,6.2v-18.4h3.9v41.4h-3.7v-5.9c-1.4,4.2-4.2,6.6-8,6.6
				C909.6,629.9,906.1,624.8,906.1,614.9z M923.5,617.2v-4.6c0-5.7-2.3-9.4-6.3-9.4c-4.6,0-6.8,3.4-6.8,11.6
				c0,8.3,2.2,11.7,6.8,11.7C921.2,626.6,923.5,623.1,923.5,617.2z"/>
			<path class="st8" d="M950.5,601.9c2,1.7,3.1,4.3,3.1,7.7c0,6-3.2,9.7-9.3,9.7c-1.7,0-3.1-0.3-4.3-0.9c-1.1,0.5-1.9,1.5-1.9,2.8
				c0,1.7,1.2,2.8,3.9,3.1l6.3,0.6c4.8,0.5,7.9,3.2,7.9,7.6c0,5.4-4,8.5-11.6,8.5c-7.3,0-11-3.1-11-7.6c0-2.9,1.7-5.2,4.8-6.2
				c-2.3-0.9-3.6-2.6-3.6-4.8c0-2.5,1.5-4,3.9-4.8c-2.3-1.7-3.6-4.5-3.6-8.2c0-5.9,3.2-9.7,9.3-9.7c1.9,0,3.4,0.3,4.6,1.1
				c0.8-2.9,2.9-4.8,6-4.8c0.5,0,0.8,0,1.2,0.2v3.2c-0.6-0.2-0.9-0.2-1.5-0.2C952.7,599.4,951.3,600.4,950.5,601.9z M941,627.9
				c-0.3,0-0.6,0-0.8-0.2c-2,0.9-2.9,2.6-2.9,4.8c0,3.7,2.8,5.6,7.6,5.6c5.2,0,7.4-2,7.4-5.4c0-2.9-1.5-4.3-4.9-4.6L941,627.9z
				 M949.8,609.6c0-4.6-2.2-6.9-5.4-6.9c-3.4,0-5.6,2.5-5.6,6.9c0,4.6,2.2,7.1,5.6,7.1C947.6,616.7,949.8,614.3,949.8,609.6z"/>
			<path class="st8" d="M978.5,615.7h-16.7c0.2,7.7,2.3,10.8,6.8,10.8c3.2,0,5.7-1.9,6.2-6.2l3.6,0.9c-0.8,5.6-4.5,8.6-9.7,8.6
				c-6.3,0-10.7-4-10.7-15c0-11.1,4.5-15,10.5-15c6.3,0,10,4.2,10,12.7V615.7z M974.6,612.7c0-6.9-2.2-9.7-6-9.7
				c-3.7,0-6.5,2-6.6,9.7H974.6z"/>
			<path class="st8" d="M983.4,620l3.9-0.6c0.2,4.8,2.6,7.3,6.2,7.3c3.2,0,5.2-1.7,5.2-4.9c0-2.8-1.2-4.3-4.5-5.1l-4-0.9
				c-4.2-0.9-6.3-3.7-6.3-7.9c0-4.9,3.7-7.9,9.1-7.9c5.6,0,9.3,2.8,9.4,9.3l-3.7,0.6c-0.3-5.1-2.5-6.8-5.7-6.8
				c-3.2,0-5.1,1.7-5.1,4.6c0,2.6,1.1,4.2,4.2,4.8l4.2,1.1c4.6,1.1,6.5,3.9,6.5,8c0,4.9-3.4,8.3-9.3,8.3
				C987.6,629.9,983.9,626.8,983.4,620z"/>
			<path class="st8" d="M1018,600.7h4.3v-7.3l3.9-1.5v8.8h6.2v3.1h-6.2v17.9c0,3.1,1.2,4.3,3.7,4.3c0.9,0,1.5-0.2,2.5-0.3v3.6
				c-1.1,0.3-2,0.5-3.4,0.5c-4.8,0-6.6-2.8-6.6-7.4v-18.5h-4.3V600.7z"/>
			<path class="st8" d="M1035.8,614.9c0-10.5,4.2-15,10.8-15c6.6,0,10.8,4.5,10.8,15c0,10.5-4.2,15-10.8,15
				C1039.9,629.9,1035.8,625.4,1035.8,614.9z M1053.4,614.9c0-9-2.8-11.9-6.8-11.9c-3.9,0-6.6,2.9-6.6,11.9c0,9,2.8,11.9,6.6,11.9
				C1050.6,626.8,1053.4,623.8,1053.4,614.9z"/>
			<path class="st8" d="M1075.1,614.9c0-10,3.6-15,10.7-15c5.7,0,9.3,3.5,9.4,10.3l-4,0.5c-0.2-5.1-2.2-7.6-5.6-7.6
				c-4,0-6.5,3.1-6.5,11.7c0,8.5,2.5,11.6,6.6,11.6c3.2,0,5.4-2.5,5.6-7.7l4,0.6c-0.3,6.8-4.2,10.5-9.6,10.5
				C1079,629.9,1075.1,625.2,1075.1,614.9z"/>
			<path class="st8" d="M1106,629.2h-3.9v-41.4h3.9V629.2z"/>
			<path class="st8" d="M1113,614.9c0-10.5,4.2-15,10.8-15c6.6,0,10.8,4.5,10.8,15c0,10.5-4.2,15-10.8,15
				C1117.1,629.9,1113,625.4,1113,614.9z M1130.6,614.9c0-9-2.8-11.9-6.8-11.9c-3.9,0-6.6,2.9-6.6,11.9c0,9,2.8,11.9,6.6,11.9
				C1127.8,626.8,1130.6,623.8,1130.6,614.9z"/>
			<path class="st8" d="M1139.5,620l3.9-0.6c0.2,4.8,2.6,7.3,6.2,7.3c3.2,0,5.2-1.7,5.2-4.9c0-2.8-1.2-4.3-4.5-5.1l-4-0.9
				c-4.2-0.9-6.3-3.7-6.3-7.9c0-4.9,3.7-7.9,9.1-7.9c5.6,0,9.3,2.8,9.4,9.3l-3.7,0.6c-0.3-5.1-2.5-6.8-5.7-6.8
				c-3.2,0-5.1,1.7-5.1,4.6c0,2.6,1.1,4.2,4.2,4.8l4.2,1.1c4.6,1.1,6.5,3.9,6.5,8c0,4.9-3.4,8.3-9.3,8.3
				C1143.7,629.9,1139.8,626.8,1139.5,620z"/>
			<path class="st8" d="M1184.2,615.7h-16.7c0.2,7.7,2.3,10.8,6.8,10.8c3.2,0,5.7-1.9,6.2-6.2l3.6,0.9c-0.8,5.6-4.5,8.6-9.7,8.6
				c-6.3,0-10.7-4-10.7-15c0-11.1,4.5-15,10.5-15c6.3,0,10,4.2,10,12.7V615.7z M1180.3,612.7c0-6.9-2.2-9.7-6-9.7
				c-3.7,0-6.5,2-6.6,9.7H1180.3z"/>
			<path class="st8" d="M1199.6,600.7h4.3v-7.3l3.9-1.5v8.8h6.2v3.1h-6.2v17.9c0,3.1,1.2,4.3,3.7,4.3c0.9,0,1.5-0.2,2.5-0.3v3.6
				c-1.1,0.3-2,0.5-3.4,0.5c-4.8,0-6.6-2.8-6.6-7.4v-18.5h-4.3V600.7z"/>
			<path class="st8" d="M1220.1,587.9h3.9v18.4c1.1-4,4-6.3,7.9-6.3c4.9,0,7.6,3.2,7.6,9.7v19.6h-3.9v-19.3c0-4.3-1.7-6.6-5.2-6.6
				c-4.2,0-6.3,3.4-6.3,10v15.9h-3.9V587.9z"/>
			<path class="st8" d="M1266.3,615.7h-16.7c0.2,7.7,2.3,10.8,6.8,10.8c3.2,0,5.7-1.9,6.2-6.2l3.6,0.9c-0.8,5.6-4.5,8.6-9.7,8.6
				c-6.3,0-10.7-4-10.7-15c0-11.1,4.5-15,10.5-15c6.3,0,10,4.2,10,12.7V615.7z M1262.3,612.7c0-6.9-2.2-9.7-6-9.7
				c-3.7,0-6.5,2-6.6,9.7H1262.3z"/>
			<path class="st8" d="M1296.9,600.1c0.3,0,0.5,0,0.9,0v4c-0.3,0-0.5,0-0.6,0c-2.5,0-4,0.9-5.1,2.5c-1.9,2.2-2.2,5.6-2.2,8.8v13.9
				h-3.9v-28.6h3.7v6.8C1290.5,603.3,1293,600.1,1296.9,600.1z"/>
			<path class="st8" d="M1300.4,622c0-2.9,1.1-4.9,2.8-6.3c1.5-1.2,3.9-2.2,7.4-2.8l5.4-0.9v-2c0-4.6-1.5-6.6-5.2-6.6
				c-4.2,0-5.7,2.3-5.7,6.6h-4c0.2-7.3,4.6-9.7,9.7-9.7c6.3,0,9.1,2.9,9.1,9.9v10.5c0,3.7,0.2,6.5,0.6,8.8h-3.9
				c-0.2-1.7-0.5-3.7-0.5-5.4c-1.1,3.7-4,6.2-8.2,6.2C1303.4,629.9,1300.4,626.8,1300.4,622z M1316,618.6v-4l-5.6,1.1
				c-4,0.8-6,2.5-6,5.9c0,3.4,1.7,5.2,4.9,5.2C1313.4,626.8,1316,623.5,1316,618.6z"/>
			<path class="st8" d="M1326.1,614.9c0-10,3.6-15,10.7-15c5.7,0,9.3,3.5,9.4,10.3l-4,0.5c-0.2-5.1-2.2-7.6-5.6-7.6
				c-4,0-6.5,3.1-6.5,11.7c0,8.5,2.5,11.6,6.6,11.6c3.2,0,5.4-2.5,5.6-7.7l4,0.6c-0.3,6.8-4.2,10.5-9.6,10.5
				C1330.1,629.9,1326.1,625.2,1326.1,614.9z"/>
			<path class="st8" d="M1352.8,589.4h4.3v6.3h-4.3V589.4z M1352.9,600.7h3.9v28.6h-3.9V600.7z"/>
			<path class="st8" d="M1363.4,622c0-2.9,1.1-4.9,2.8-6.3c1.5-1.2,3.9-2.2,7.4-2.8l5.4-0.9v-2c0-4.6-1.5-6.6-5.2-6.6
				c-4.2,0-5.7,2.3-5.7,6.6h-4c0.2-7.3,4.6-9.7,9.7-9.7c6.3,0,9.1,2.9,9.1,9.9v10.5c0,3.7,0.2,6.5,0.6,8.8h-3.9
				c-0.2-1.7-0.5-3.7-0.5-5.4c-1.1,3.7-4,6.2-8.2,6.2C1366.4,629.9,1363.4,626.8,1363.4,622z M1379.2,618.6v-4l-5.6,1.1
				c-4,0.8-6,2.5-6,5.9c0,3.4,1.7,5.2,4.9,5.2C1376.5,626.8,1379.2,623.5,1379.2,618.6z"/>
			<path class="st8" d="M1395.2,629.2h-3.9v-41.4h3.9V629.2z"/>
			<path class="st8" d="M1430.9,601.9c2,1.7,3.1,4.3,3.1,7.7c0,6-3.2,9.7-9.3,9.7c-1.7,0-3.1-0.3-4.3-0.9c-1.1,0.5-1.9,1.5-1.9,2.8
				c0,1.7,1.2,2.8,3.9,3.1l6.3,0.6c4.8,0.5,7.9,3.2,7.9,7.6c0,5.4-4,8.5-11.6,8.5c-7.3,0-11-3.1-11-7.6c0-2.9,1.7-5.2,4.8-6.2
				c-2.3-0.9-3.6-2.6-3.6-4.8c0-2.5,1.5-4,3.9-4.8c-2.3-1.7-3.6-4.5-3.6-8.2c0-5.9,3.2-9.7,9.3-9.7c1.9,0,3.4,0.3,4.6,1.1
				c0.8-2.9,2.9-4.8,6-4.8c0.5,0,0.8,0,1.2,0.2v3.2c-0.6-0.2-0.9-0.2-1.5-0.2C1433.2,599.4,1431.7,600.4,1430.9,601.9z
				 M1421.5,627.9c-0.3,0-0.6,0-0.8-0.2c-2,0.9-2.9,2.6-2.9,4.8c0,3.7,2.8,5.6,7.6,5.6c5.2,0,7.4-2,7.4-5.4c0-2.9-1.5-4.3-4.9-4.6
				L1421.5,627.9z M1430.3,609.6c0-4.6-2.2-6.9-5.4-6.9c-3.4,0-5.6,2.5-5.6,6.9c0,4.6,2.2,7.1,5.6,7.1
				C1428.3,616.7,1430.3,614.3,1430.3,609.6z"/>
			<path class="st8" d="M1438,622c0-2.9,1.1-4.9,2.8-6.3c1.5-1.2,3.9-2.2,7.4-2.8l5.4-0.9v-2c0-4.6-1.5-6.6-5.2-6.6
				c-4.2,0-5.7,2.3-5.7,6.6h-4c0.2-7.3,4.6-9.7,9.7-9.7c6.3,0,9.1,2.9,9.1,9.9v10.5c0,3.7,0.2,6.5,0.6,8.8h-3.7
				c-0.2-1.7-0.5-3.7-0.5-5.4c-1.1,3.7-4,6.2-8.2,6.2C1440.9,629.9,1438,626.8,1438,622z M1453.8,618.6v-4l-5.6,1.1
				c-4,0.8-6,2.5-6,5.9c0,3.4,1.7,5.2,4.9,5.2C1451.1,626.8,1453.8,623.5,1453.8,618.6z"/>
			<path class="st8" d="M1469.3,600.7v5.9c1.1-4.2,4.2-6.6,8.2-6.6c6,0,9.4,4.8,9.4,15c0,9.7-3.7,15-9.9,15c-3.9,0-6.5-2.5-7.7-6.2
				v16.7h-3.9v-39.7H1469.3z M1482.8,614.9c0-8-2.2-11.6-6.3-11.6c-4.2,0-6.8,3.7-6.8,9.3v4.8c0,5.7,2.6,9.3,6.6,9.3
				C1480.6,626.6,1482.8,623.1,1482.8,614.9z"/>
			<path class="st8" d="M1492.4,634.6c2.5-1.4,2.8-2.6,2.8-5.2v-0.3h-2.6v-6.2h5.1v6c0,4.2-0.9,6.2-4.2,7.7L1492.4,634.6z"/>
			<path class="st8" d="M547.4,661.7V676h14.8v3.6h-14.8v19.1h-4.2v-40.6h20.1v3.6H547.4z"/>
			<path class="st8" d="M566.5,691.5c0-2.9,1.1-4.9,2.8-6.3c1.5-1.2,3.9-2.2,7.4-2.8l5.4-0.9v-2c0-4.6-1.5-6.6-5.2-6.6
				c-4.2,0-5.7,2.3-5.7,6.6h-4c0.2-7.3,4.6-9.7,9.7-9.7c6.3,0,9.1,2.9,9.1,9.9v10.5c0,3.7,0.2,6.5,0.6,8.8h-3.9
				c-0.2-1.7-0.5-3.7-0.5-5.4c-1.1,3.7-4,6.2-8.2,6.2C569.5,699.3,566.5,696.2,566.5,691.5z M582.3,688.1v-4l-5.6,1.1
				c-4,0.8-6,2.5-6,5.9c0,3.4,1.7,5.2,4.9,5.2C579.7,696.2,582.3,693,582.3,688.1z"/>
			<path class="st8" d="M592.3,684.4c0-10,3.6-15,10.7-15c5.7,0,9.3,3.5,9.4,10.3l-4,0.5c-0.2-5.1-2.2-7.6-5.6-7.6
				c-4,0-6.5,3.1-6.5,11.7c0,8.5,2.5,11.6,6.6,11.6c3.2,0,5.4-2.5,5.6-7.7l4,0.6c-0.3,6.8-4.2,10.5-9.6,10.5
				C596.2,699.3,592.3,694.7,592.3,684.4z"/>
			<path class="st8" d="M637.9,685.1h-16.7c0.2,7.7,2.3,10.8,6.8,10.8c3.2,0,5.7-1.9,6.2-6.2l3.6,0.9c-0.8,5.6-4.5,8.6-9.7,8.6
				c-6.3,0-10.7-4-10.7-15c0-11.1,4.5-15,10.5-15c6.3,0,10,4.2,10,12.7V685.1z M633.8,682.2c0-6.9-2.2-9.7-6-9.7
				c-3.7,0-6.5,2-6.6,9.7H633.8z"/>
			<path class="st8" d="M648.7,693l-0.5,5.7H645v-41.4h3.9v18.8c1.2-4.3,4.2-6.6,8-6.6c6,0,9.4,4.8,9.4,15c0,9.9-3.7,15-10,15
				C652.7,699.3,649.8,696.9,648.7,693z M661.9,684.4c0-8-2.2-11.6-6.5-11.6c-4.2,0-6.8,3.7-6.8,9.3v4.8c0,5.7,2.6,9.3,6.8,9.3
				C659.8,696.1,661.9,692.5,661.9,684.4z"/>
			<path class="st8" d="M671.4,684.4c0-10.5,4.2-15,10.8-15c6.6,0,10.8,4.5,10.8,15c0,10.5-4.2,15-10.8,15
				C675.4,699.3,671.4,694.9,671.4,684.4z M688.8,684.4c0-9-2.8-11.9-6.8-11.9c-3.9,0-6.6,2.9-6.6,11.9c0,9,2.8,11.9,6.6,11.9
				C686,696.2,688.8,693.3,688.8,684.4z"/>
			<path class="st8" d="M697.9,684.4c0-10.5,4.2-15,10.8-15c6.6,0,10.8,4.5,10.8,15c0,10.5-4.2,15-10.8,15
				C702.1,699.3,697.9,694.9,697.9,684.4z M715.5,684.4c0-9-2.8-11.9-6.8-11.9c-3.9,0-6.6,2.9-6.6,11.9c0,9,2.8,11.9,6.6,11.9
				C712.6,696.2,715.5,693.3,715.5,684.4z"/>
			<path class="st8" d="M735,684l-4.5,5.4v9.3h-3.9v-41.4h3.9v27.5l11.3-14.5h4.6l-8.8,10.7l9.3,17.9h-4.5L735,684z"/>
			<path class="st8" d="M762.5,658.9h4.3v6.3h-4.3V658.9z M762.8,670.2h3.9v28.6h-3.9V670.2z"/>
			<path class="st8" d="M773.3,689.5l3.9-0.6c0.2,4.8,2.6,7.3,6.2,7.3c3.2,0,5.2-1.7,5.2-4.9c0-2.8-1.2-4.3-4.5-5.1l-4-0.9
				c-4.2-0.9-6.3-3.7-6.3-7.9c0-4.9,3.7-7.9,9.1-7.9c5.6,0,9.3,2.8,9.4,9.3l-3.7,0.6c-0.3-5.1-2.5-6.8-5.7-6.8
				c-3.2,0-5.1,1.7-5.1,4.6c0,2.6,1.1,4.2,4.2,4.8l4.2,1.1c4.6,1.1,6.5,3.9,6.5,8c0,4.9-3.4,8.3-9.3,8.3
				C777.4,699.3,773.7,696.2,773.3,689.5z"/>
			<path class="st8" d="M810,689.5l3.9-0.6c0.2,4.8,2.6,7.3,6.2,7.3c3.2,0,5.2-1.7,5.2-4.9c0-2.8-1.2-4.3-4.5-5.1l-4-0.9
				c-4.2-0.9-6.3-3.7-6.3-7.9c0-4.9,3.7-7.9,9.1-7.9c5.6,0,9.3,2.8,9.4,9.3l-3.7,0.6c-0.3-5.1-2.5-6.8-5.7-6.8
				c-3.2,0-5.1,1.7-5.1,4.6c0,2.6,1.1,4.2,4.2,4.8l4.2,1.1c4.6,1.1,6.5,3.9,6.5,8c0,4.9-3.4,8.3-9.3,8.3
				C814.2,699.3,810.3,696.2,810,689.5z"/>
			<path class="st8" d="M832.3,670.2h4.3v-7.3l3.9-1.5v8.8h6.2v3.1h-6.2v17.9c0,3.1,1.2,4.3,3.7,4.3c0.9,0,1.5-0.2,2.5-0.3v3.6
				c-1.1,0.3-2,0.5-3.4,0.5c-4.8,0-6.6-2.8-6.6-7.4v-18.5h-4.3V670.2z"/>
			<path class="st8" d="M852.3,658.9h4.3v6.3h-4.3V658.9z M852.6,670.2h3.9v28.6h-3.9V670.2z"/>
			<path class="st8" d="M869.2,698.7h-3.9v-41.4h3.9V698.7z"/>
			<path class="st8" d="M882.1,698.7h-3.9v-41.4h3.9V698.7z"/>
			<path class="st8" d="M901.6,689.5l3.9-0.6c0.2,4.8,2.6,7.3,6.2,7.3c3.2,0,5.2-1.7,5.2-4.9c0-2.8-1.2-4.3-4.5-5.1l-4-0.9
				c-4.2-0.9-6.3-3.7-6.3-7.9c0-4.9,3.7-7.9,9.1-7.9c5.6,0,9.3,2.8,9.4,9.3l-3.7,0.6c-0.3-5.1-2.5-6.8-5.7-6.8
				c-3.2,0-5.1,1.7-5.1,4.6c0,2.6,1.1,4.2,4.2,4.8l4.2,1.1c4.6,1.1,6.5,3.9,6.5,8c0,4.9-3.4,8.3-9.3,8.3
				C905.8,699.3,902.1,696.2,901.6,689.5z"/>
			<path class="st8" d="M923.8,670.2h4.3v-7.3l3.9-1.5v8.8h6.2v3.1H932v17.9c0,3.1,1.2,4.3,3.7,4.3c0.9,0,1.5-0.2,2.5-0.3v3.6
				c-1.1,0.3-2,0.5-3.4,0.5c-4.8,0-6.6-2.8-6.6-7.4v-18.5h-4.3V670.2z"/>
			<path class="st8" d="M955.3,669.5c0.3,0,0.5,0,0.9,0v4c-0.3,0-0.5,0-0.6,0c-2.5,0-4,0.9-5.1,2.5c-1.9,2.2-2.2,5.6-2.2,8.8v13.9
				h-3.9v-28.6h3.7v6.8C948.8,672.8,951.3,669.5,955.3,669.5z"/>
			<path class="st8" d="M960.9,689.6v-19.5h3.9v19.3c0,4.6,2,6.6,5.1,6.6c4,0,6.3-3.7,6.3-9.3v-16.5h3.9v28.6h-3.7v-5.4
				c-1.1,3.5-3.9,6-7.7,6C962.7,699.3,960.9,695.3,960.9,689.6z"/>
			<path class="st8" d="M1006.6,665.7c0.5,0,0.9,0,1.4,0.2v3.4c-0.6-0.2-0.9-0.2-1.7-0.2c-1.7,0-3.1,0.6-3.7,2.5
				c1.7,1.5,2.8,3.9,2.8,6.8v1.7c0,5.6-3.6,9-8.8,9c-1.5,0-2.9-0.3-4-0.8c-1.1,0.5-1.9,1.4-1.9,2.5c0,1.5,1.1,2.6,4,3.1l4.6,0.6
				c5.4,0.6,7.6,3.2,7.6,7.3v0.8c0,4.6-3.2,8.2-10.3,8.2c-6.2,0-10.3-2.5-10.3-7.3v-0.5c0-3.1,2-5.2,4.9-6.2
				c-2.6-0.9-3.7-2.6-3.7-4.6c0-2,1.4-3.9,3.6-4.6c-2-1.5-3.1-4-3.1-7.1v-1.7c0-5.6,3.6-9,8.8-9c1.7,0,3.2,0.3,4.5,0.9
				C1001.6,667.7,1003.5,665.7,1006.6,665.7z M993.8,697.3c-0.2,0-0.5,0-0.8-0.2c-2.2,0.9-3.2,2.5-3.2,4.6v0.3
				c0,3.6,2.6,5.1,7.1,5.1c4.3,0,6-1.9,6-4.8v-0.6c0-2.8-1.7-3.9-4.9-4.2L993.8,697.3z M1001.5,678.2c0-3.6-2-5.7-5.1-5.7
				c-3.1,0-5.1,2.2-5.1,5.9v2.2c0,3.6,2,5.7,5.1,5.7c3.1,0,5.1-2.2,5.1-5.7V678.2z M1025.7,671.5c1.7,1.5,2.8,4,2.8,6.9v1.7
				c0,5.6-3.6,9-8.8,9c-1.4,0-2.8-0.2-3.9-0.6c-0.9,0.5-1.5,1.4-1.5,2.5c0,1.5,0.9,2.6,4,3.1l5.2,0.8c5.4,0.6,7.4,3.2,7.4,7.1v0.6
				c0,4.8-3.7,8.2-10.5,8.2c-6,0-10.3-2.5-10.3-7.1v-0.5c0-2.9,1.9-5.1,4.8-6.2c-2.8-0.9-3.9-2.6-3.9-4.8c0-2,1.2-3.7,3.2-4.6
				c-2-1.5-3.2-4-3.2-7.3v-1.7c0-5.6,3.6-9,8.8-9c1.7,0,3.2,0.3,4.5,0.9c0.6-2.8,2.6-4.6,5.7-4.6c0.5,0,0.9,0,1.4,0.2v3.2
				c-0.6-0.2-0.9-0.2-1.7-0.2C1027.7,669.1,1026.5,669.8,1025.7,671.5z M1017.4,697.3c-0.2,0-0.3,0-0.5,0c-2.2,0.9-3.2,2.5-3.2,4.6
				v0.5c0,3.6,2.6,5.1,7.1,5.1c4.2,0,6.3-1.7,6.3-4.8v-0.5c0-2.8-1.5-3.9-4.9-4.2L1017.4,697.3z M1024.8,678.2c0-3.7-2-5.9-5.1-5.9
				c-3.1,0-5.1,2.2-5.1,5.9v2.2c0,3.7,2,5.7,5.1,5.7c3.1,0,5.1-2.2,5.1-5.7V678.2z"/>
			<path class="st8" d="M1040.2,698.7h-3.9v-41.4h3.9V698.7z"/>
			<path class="st8" d="M1048.9,658.9h4.3v6.3h-4.3V658.9z M1049.2,670.2h3.9v28.6h-3.9V670.2z"/>
			<path class="st8" d="M1061.7,670.2h3.7v5.7c1.4-4.3,4-6.5,8-6.5c5.1,0,7.7,3.2,7.7,9.7v19.6h-3.9v-19.1c0-4.5-1.7-6.8-5.2-6.8
				c-4.2,0-6.3,3.4-6.3,10v15.9h-3.9v-28.6H1061.7z"/>
			<path class="st8" d="M1103.4,671.4c2,1.7,3.1,4.3,3.1,7.7c0,6-3.2,9.7-9.3,9.7c-1.7,0-3.1-0.3-4.3-0.9c-1.1,0.5-1.9,1.5-1.9,2.8
				c0,1.7,1.2,2.8,3.9,3.1l6.3,0.6c4.8,0.5,7.9,3.2,7.9,7.6c0,5.4-4,8.5-11.6,8.5c-7.3,0-11-3.1-11-7.6c0-2.9,1.7-5.2,4.8-6.2
				c-2.3-0.9-3.6-2.6-3.6-4.8c0-2.5,1.5-4,3.9-4.8c-2.3-1.7-3.6-4.5-3.6-8.2c0-5.9,3.2-9.7,9.3-9.7c1.9,0,3.4,0.3,4.6,1.1
				c0.8-2.9,2.9-4.8,6-4.8c0.5,0,0.8,0,1.2,0.2v3.2c-0.6-0.2-0.9-0.2-1.5-0.2C1105.6,668.9,1104.2,669.8,1103.4,671.4z M1094,697.3
				c-0.3,0-0.6,0-0.8-0.2c-2,0.9-2.9,2.6-2.9,4.8c0,3.7,2.8,5.6,7.6,5.6c5.2,0,7.4-2,7.4-5.4c0-2.9-1.5-4.3-4.9-4.6L1094,697.3z
				 M1102.6,679.1c0-4.6-2.2-6.9-5.4-6.9c-3.4,0-5.6,2.5-5.6,6.9c0,4.6,2.2,7.1,5.6,7.1S1102.6,683.7,1102.6,679.1z"/>
			<path class="st8" d="M1122.2,670.2h4.3v-7.3l3.9-1.5v8.8h6.2v3.1h-6.2v17.9c0,3.1,1.2,4.3,3.7,4.3c0.9,0,1.5-0.2,2.5-0.3v3.6
				c-1.1,0.3-2,0.5-3.4,0.5c-4.8,0-6.6-2.8-6.6-7.4v-18.5h-4.3V670.2z"/>
			<path class="st8" d="M1140,684.4c0-10.5,4.2-15,10.8-15c6.6,0,10.8,4.5,10.8,15c0,10.5-4.2,15-10.8,15
				C1144,699.3,1140,694.9,1140,684.4z M1157.4,684.4c0-9-2.8-11.9-6.8-11.9c-3.9,0-6.6,2.9-6.6,11.9c0,9,2.8,11.9,6.6,11.9
				C1154.7,696.2,1157.4,693.3,1157.4,684.4z"/>
			<path class="st8" d="M1181.2,657.3h3.9v18.4c1.1-4,4-6.3,7.9-6.3c4.9,0,7.6,3.2,7.6,9.7v19.6h-3.9v-19.3c0-4.3-1.7-6.6-5.2-6.6
				c-4.2,0-6.3,3.4-6.3,10v15.9h-3.9V657.3z"/>
			<path class="st8" d="M1208.4,658.9h4.3v6.3h-4.3V658.9z M1208.7,670.2h3.9v28.6h-3.9V670.2z"/>
			<path class="st8" d="M1232.3,669.5c0.3,0,0.5,0,0.9,0v4c-0.3,0-0.5,0-0.6,0c-2.5,0-4,0.9-5.1,2.5c-1.9,2.2-2.2,5.6-2.2,8.8v13.9
				h-4.2v-28.6h3.7v6.8C1225.8,672.8,1228.3,669.5,1232.3,669.5z"/>
			<path class="st8" d="M1256.4,685.1h-16.7c0.2,7.7,2.3,10.8,6.8,10.8c3.2,0,5.7-1.9,6.2-6.2l3.6,0.9c-0.8,5.6-4.5,8.6-9.7,8.6
				c-6.3,0-10.7-4-10.7-15c0-11.1,4.5-15,10.5-15c6.3,0,10,4.2,10,12.7V685.1z M1252.6,682.2c0-6.9-2.2-9.7-6-9.7
				c-3.7,0-6.5,2-6.6,9.7H1252.6z"/>
			<path class="st8" d="M1261.7,704.1c2.5-1.4,2.8-2.6,2.8-5.2v-0.3h-2.6v-6.2h5.1v6c0,4.2-0.9,6.2-4.2,7.7L1261.7,704.1z"/>
			<path class="st8" d="M1291.2,670.2v5.9c1.1-4.2,4.2-6.6,8.2-6.6c6,0,9.4,4.8,9.4,15c0,9.7-3.7,15-9.9,15c-3.9,0-6.5-2.5-7.7-6.2
				v16.7h-3.9v-39.7H1291.2z M1304.6,684.4c0-8-2.2-11.6-6.3-11.6c-4.2,0-6.8,3.7-6.8,9.3v4.8c0,5.7,2.6,9.3,6.6,9.3
				C1302.4,696.1,1304.6,692.5,1304.6,684.4z"/>
			<path class="st8" d="M1326.8,669.5c0.3,0,0.5,0,0.9,0v4c-0.3,0-0.5,0-0.6,0c-2.5,0-4,0.9-5.1,2.5c-1.9,2.2-2.2,5.6-2.2,8.8v13.9
				h-3.9v-28.6h3.7v6.8C1320.5,672.8,1322.8,669.5,1326.8,669.5z"/>
			<path class="st8" d="M1330.5,684.4c0-10.5,4.2-15,10.8-15c6.6,0,10.8,4.5,10.8,15c0,10.5-4.2,15-10.8,15
				C1334.5,699.3,1330.5,694.9,1330.5,684.4z M1348,684.4c0-9-2.8-11.9-6.8-11.9c-3.9,0-6.6,2.9-6.6,11.9c0,9,2.8,11.9,6.6,11.9
				C1345.2,696.2,1348,693.3,1348,684.4z"/>
			<path class="st8" d="M1362.7,675.4c1.1-3.9,3.6-6,7.1-6c3.6,0,5.7,2,6.6,5.7c1.4-3.7,3.9-5.7,7.3-5.7c4.6,0,7.1,3.1,7.1,8.8v20.4
				h-3.9V679c0-4.2-1.5-6.3-4.6-6.3c-3.6,0-5.4,2.8-5.4,8v17.9h-3.9v-19.8c0-4-1.5-6.2-4.6-6.2c-3.6,0-5.6,3.1-5.6,8.3v17.6h-3.9
				V670h3.7V675.4z"/>
			<path class="st8" d="M1396.9,684.4c0-10.5,4.2-15,10.8-15c6.6,0,10.8,4.5,10.8,15c0,10.5-4.2,15-10.8,15
				C1400.9,699.3,1396.9,694.9,1396.9,684.4z M1414.4,684.4c0-9-2.8-11.9-6.8-11.9c-3.9,0-6.6,2.9-6.6,11.9c0,9,2.8,11.9,6.6,11.9
				C1411.6,696.2,1414.4,693.3,1414.4,684.4z"/>
			<path class="st8" d="M1421.2,670.2h4.3v-7.3l3.9-1.5v8.8h6.2v3.1h-6.2v17.9c0,3.1,1.2,4.3,3.7,4.3c0.9,0,1.5-0.2,2.5-0.3v3.6
				c-1.1,0.3-2,0.5-3.4,0.5c-4.8,0-6.6-2.8-6.6-7.4v-18.5h-4.3V670.2z"/>
			<path class="st8" d="M1459.5,685.1h-16.7c0.2,7.7,2.3,10.8,6.8,10.8c3.2,0,5.7-1.9,6.2-6.2l3.6,0.9c-0.8,5.6-4.5,8.6-9.7,8.6
				c-6.3,0-10.7-4-10.7-15c0-11.1,4.5-15,10.5-15c6.3,0,10,4.2,10,12.7V685.1z M1455.5,682.2c0-6.9-2.2-9.7-6-9.7
				c-3.7,0-6.5,2-6.6,9.7H1455.5z"/>
			<path class="st8" d="M540.6,760.9c0-2.9,1.1-4.9,2.8-6.3c1.5-1.2,3.9-2.2,7.4-2.8l5.4-0.9v-2c0-4.6-1.5-6.6-5.2-6.6
				c-4.2,0-5.7,2.3-5.7,6.6h-4c0.2-7.3,4.6-9.7,9.7-9.7c6.3,0,9.1,2.9,9.1,9.9v10.5c0,3.7,0.2,6.5,0.6,8.8h-3.9
				c-0.2-1.7-0.5-3.7-0.5-5.4c-1.1,3.7-4,6.2-8.2,6.2C543.5,768.8,540.6,765.7,540.6,760.9z M556.3,757.5v-4l-5.6,1.1
				c-4,0.8-6,2.5-6,5.9c0,3.4,1.7,5.2,4.9,5.2C553.7,765.7,556.3,762.5,556.3,757.5z"/>
			<path class="st8" d="M568.4,739.6h3.7v5.7c1.4-4.3,4-6.5,8-6.5c5.1,0,7.7,3.2,7.7,9.7v19.6H584V749c0-4.5-1.7-6.8-5.2-6.8
				c-4.2,0-6.3,3.4-6.3,10v15.9h-3.9v-28.6H568.4z"/>
			<path class="st8" d="M593.9,753.8c0-9.7,3.7-15,9.9-15c3.7,0,6.5,2.2,7.6,6.2v-18.4h3.9V768h-3.7v-5.9c-1.4,4.2-4.2,6.6-8,6.6
				C597.4,768.8,593.9,763.7,593.9,753.8z M611.3,756.1v-4.6c0-5.7-2.3-9.4-6.3-9.4c-4.6,0-6.8,3.4-6.8,11.6
				c0,8.3,2.2,11.7,6.8,11.7C609,765.6,611.3,762,611.3,756.1z"/>
			<path class="st8" d="M647.9,739c0.3,0,0.5,0,0.9,0v4c-0.3,0-0.5,0-0.6,0c-2.5,0-4,0.9-5.1,2.5c-1.9,2.2-2.2,5.6-2.2,8.8v13.9
				h-3.9v-28.6h3.7v6.8C641.4,742.2,643.9,739,647.9,739z"/>
			<path class="st8" d="M672,754.6h-16.7c0.2,7.7,2.3,10.8,6.8,10.8c3.2,0,5.7-1.9,6.2-6.2l3.6,0.9c-0.8,5.6-4.5,8.6-9.7,8.6
				c-6.3,0-10.7-4-10.7-15c0-11.1,4.5-15,10.5-15c6.3,0,10,4.2,10,12.7V754.6z M668,751.7c0-6.9-2.2-9.7-6-9.7c-3.7,0-6.5,2-6.6,9.7
				H668z"/>
			<path class="st8" d="M674.6,739.6h4.3v-7.3l3.9-1.5v8.8h6.2v3.1h-6.2v17.9c0,3.1,1.2,4.3,3.7,4.3c0.9,0,1.5-0.2,2.5-0.3v3.6
				c-1.1,0.3-2,0.5-3.4,0.5c-4.8,0-6.6-2.8-6.6-7.4v-18.5h-4.3V739.6z"/>
			<path class="st8" d="M692.8,760.9c0-2.9,1.1-4.9,2.8-6.3c1.5-1.2,3.9-2.2,7.4-2.8l5.4-0.9v-2c0-4.6-1.5-6.6-5.2-6.6
				c-4.2,0-5.7,2.3-5.7,6.6h-4c0.2-7.3,4.6-9.7,9.7-9.7c6.3,0,9.1,2.9,9.1,9.9v10.5c0,3.7,0.2,6.5,0.6,8.8H709
				c-0.2-1.7-0.5-3.7-0.5-5.4c-1.1,3.7-4,6.2-8.2,6.2C695.8,768.8,692.8,765.7,692.8,760.9z M708.4,757.5v-4l-5.6,1.1
				c-4,0.8-6,2.5-6,5.9c0,3.4,1.7,5.2,4.9,5.2C705.8,765.7,708.4,762.5,708.4,757.5z"/>
			<path class="st8" d="M720.2,728.4h4.3v6.3h-4.3V728.4z M720.5,739.6h3.9v28.6h-3.9V739.6z"/>
			<path class="st8" d="M733,739.6h3.7v5.7c1.4-4.3,4-6.5,8-6.5c5.1,0,7.7,3.2,7.7,9.7v19.6h-3.9V749c0-4.5-1.7-6.8-5.2-6.8
				c-4.2,0-6.3,3.4-6.3,10v15.9h-3.9v-28.6H733z"/>
			<path class="st8" d="M796.6,756.9c0,6.2-3.1,11.3-11.7,11.3h-11.3v-40.6h10.7c8.8,0,11.6,5.1,11.6,10.5c0,4.3-2,8-6.6,8.8
				C794,747.8,796.6,751.4,796.6,756.9z M777.8,730.8v14.8h6.5c6,0,7.3-3.5,7.3-7.4c0-4-1.7-7.4-7.6-7.4H777.8z M792.3,756.9
				c0-4.8-2-8-7.6-8h-6.9v16.1h6.8C790.6,764.8,792.3,761.4,792.3,756.9z"/>
			<path class="st8" d="M807.7,768.2h-3.9v-41.4h3.9V768.2z"/>
			<path class="st8" d="M814.5,760.9c0-2.9,1.1-4.9,2.8-6.3c1.5-1.2,3.9-2.2,7.4-2.8l5.4-0.9v-2c0-4.6-1.5-6.6-5.2-6.6
				c-4.2,0-5.7,2.3-5.7,6.6h-4c0.2-7.3,4.6-9.7,9.7-9.7c6.3,0,9.1,2.9,9.1,9.9v10.5c0,3.7,0.2,6.5,0.6,8.8h-3.9
				c-0.2-1.7-0.5-3.7-0.5-5.4c-1.1,3.7-4,6.2-8.2,6.2C817.4,768.8,814.5,765.7,814.5,760.9z M830.3,757.5v-4l-5.6,1.1
				c-4,0.8-6,2.5-6,5.9c0,3.4,1.7,5.2,4.9,5.2C827.6,765.7,830.3,762.5,830.3,757.5z"/>
			<path class="st8" d="M840.3,753.8c0-10,3.6-15,10.7-15c5.7,0,9.3,3.5,9.4,10.3l-4,0.5c-0.2-5.1-2.2-7.6-5.6-7.6
				c-4,0-6.5,3.1-6.5,11.7c0,8.5,2.5,11.6,6.6,11.6c3.2,0,5.4-2.5,5.6-7.7l4,0.6c-0.3,6.8-4.2,10.5-9.6,10.5
				C844.2,768.8,840.3,764.2,840.3,753.8z"/>
			<path class="st8" d="M875.6,753.5l-4.5,5.4v9.3h-3.9v-41.4h3.9v27.5l11.3-14.5h4.6l-8.6,10.5l9.3,17.9h-4.6L875.6,753.5z"/>
			<path class="st8" d="M922.1,754.6h-16.7c0.2,7.7,2.3,10.8,6.8,10.8c3.2,0,5.7-1.9,6.2-6.2l3.6,0.9c-0.8,5.6-4.5,8.6-9.7,8.6
				c-6.3,0-10.7-4-10.7-15c0-11.1,4.5-15,10.5-15c6.3,0,10,4.2,10,12.7V754.6z M918.3,751.7c0-6.9-2.2-9.7-6-9.7
				c-3.7,0-6.5,2-6.6,9.7H918.3z"/>
			<path class="st8" d="M932.8,744.9c1.1-3.9,3.6-6,7.1-6c3.6,0,5.7,2,6.6,5.7c1.4-3.7,3.9-5.7,7.3-5.7c4.6,0,7.1,3.1,7.1,8.8V768
				H957v-19.6c0-4.2-1.5-6.3-4.6-6.3c-3.6,0-5.4,2.8-5.4,8V768h-3.9v-19.8c0-4-1.5-6.2-4.6-6.2c-3.6,0-5.6,3.1-5.6,8.3V768h-3.9
				v-28.6h3.7V744.9z"/>
			<path class="st8" d="M972.5,739.6v5.9c1.1-4.2,4.2-6.6,8.2-6.6c6,0,9.4,4.8,9.4,15c0,9.7-3.7,15-9.9,15c-3.9,0-6.5-2.5-7.7-6.2
				v16.7h-3.9v-39.7H972.5z M985.9,753.8c0-8-2.2-11.6-6.3-11.6s-6.8,3.7-6.8,9.3v4.8c0,5.7,2.6,9.3,6.6,9.3
				C983.7,765.6,985.9,762,985.9,753.8z"/>
			<path class="st8" d="M1001.2,768.2h-3.9v-41.4h3.9V768.2z"/>
			<path class="st8" d="M1008.1,753.8c0-10.5,4.2-15,10.8-15c6.6,0,10.8,4.5,10.8,15c0,10.5-4.2,15-10.8,15
				C1012.3,768.8,1008.1,764.3,1008.1,753.8z M1025.7,753.8c0-9-2.8-11.9-6.8-11.9c-3.9,0-6.6,2.9-6.6,11.9c0,9,2.8,11.9,6.6,11.9
				C1023,765.7,1025.7,762.8,1025.7,753.8z"/>
			<path class="st8" d="M1033.6,779.5v-3.6c0.6,0.2,1.2,0.2,1.5,0.2c3.1,0,4.6-1.9,5.7-5.4l0.6-2.5l-9.4-28.6h4.3l6,20.5
				c0.5,1.4,0.6,2.6,0.9,3.9h0.2c0.2-1.2,0.5-2.5,0.9-3.7l5.6-20.7h4l-9.3,31.3c-2,6.5-4.8,8.8-9.1,8.8
				C1035.2,779.6,1034.4,779.6,1033.6,779.5z"/>
			<path class="st8" d="M1077.2,754.6h-16.7c0.2,7.7,2.3,10.8,6.8,10.8c3.2,0,5.7-1.9,6.2-6.2l3.6,0.9c-0.8,5.6-4.5,8.6-9.7,8.6
				c-6.3,0-10.7-4-10.7-15c0-11.1,4.5-15,10.5-15c6.3,0,10,4.2,10,12.7V754.6z M1073.1,751.7c0-6.9-2.2-9.7-6-9.7
				c-3.7,0-6.5,2-6.6,9.7H1073.1z"/>
			<path class="st8" d="M1102.6,754.6H1086c0.2,7.7,2.3,10.8,6.8,10.8c3.2,0,5.7-1.9,6.2-6.2l3.6,0.9c-0.8,5.6-4.5,8.6-9.7,8.6
				c-6.3,0-10.7-4-10.7-15c0-11.1,4.5-15,10.5-15c6.3,0,10,4.2,10,12.7V754.6z M1098.8,751.7c0-6.9-2.2-9.7-6-9.7
				c-3.7,0-6.5,2-6.6,9.7H1098.8z"/>
			<path class="st8" d="M1107.6,758.9l3.9-0.6c0.2,4.8,2.6,7.3,6.2,7.3c3.2,0,5.2-1.7,5.2-4.9c0-2.8-1.2-4.3-4.5-5.1l-4-0.9
				c-4.2-0.9-6.3-3.7-6.3-7.9c0-4.9,3.7-7.9,9.1-7.9c5.6,0,9.3,2.8,9.4,9.3l-3.7,0.6c-0.3-5.1-2.5-6.8-5.7-6.8
				c-3.2,0-5.1,1.7-5.1,4.6c0,2.6,1.1,4.2,4.2,4.8l4.2,1.1c4.6,1.1,6.5,3.9,6.5,8c0,4.9-3.4,8.3-9.3,8.3
				C1111.7,768.8,1108,765.7,1107.6,758.9z"/>
			<path class="st8" d="M1144.2,760.9c0-2.9,1.1-4.9,2.8-6.3c1.5-1.2,3.9-2.2,7.4-2.8l5.4-0.9v-2c0-4.6-1.5-6.6-5.2-6.6
				c-4.2,0-5.7,2.3-5.7,6.6h-4c0.2-7.3,4.6-9.7,9.7-9.7c6.3,0,9.1,2.9,9.1,9.9v10.5c0,3.7,0.2,6.5,0.6,8.8h-3.9
				c-0.2-1.7-0.5-3.7-0.5-5.4c-1.1,3.7-4,6.2-8.2,6.2C1147.1,768.8,1144.2,765.7,1144.2,760.9z M1159.9,757.5v-4l-5.6,1.1
				c-4,0.8-6,2.5-6,5.9c0,3.4,1.7,5.2,4.9,5.2C1157.3,765.7,1159.9,762.5,1159.9,757.5z"/>
			<path class="st8" d="M1167.8,739.6h4.3v-7.3l3.9-1.5v8.8h6.2v3.1h-6.2v17.9c0,3.1,1.2,4.3,3.7,4.3c0.9,0,1.5-0.2,2.5-0.3v3.6
				c-1.1,0.3-2,0.5-3.4,0.5c-4.8,0-6.6-2.8-6.6-7.4v-18.5h-4.3V739.6z"/>
			<path class="st8" d="M1198.7,760.9c0-2.9,1.1-4.9,2.8-6.3c1.5-1.2,3.9-2.2,7.4-2.8l5.4-0.9v-2c0-4.6-1.5-6.6-5.2-6.6
				c-4.2,0-5.7,2.3-5.7,6.6h-4c0.2-7.3,4.6-9.7,9.7-9.7c6.3,0,9.1,2.9,9.1,9.9v10.5c0,3.7,0.2,6.5,0.6,8.8h-3.7
				c-0.2-1.7-0.5-3.7-0.5-5.4c-1.1,3.7-4,6.2-8.2,6.2C1201.6,768.8,1198.7,765.7,1198.7,760.9z M1214.3,757.5v-4l-5.6,1.1
				c-4,0.8-6,2.5-6,5.9c0,3.4,1.7,5.2,4.9,5.2C1211.6,765.7,1214.3,762.5,1214.3,757.5z"/>
			<path class="st8" d="M1237.1,753.8c0-10,3.6-15,10.7-15c5.7,0,9.3,3.5,9.4,10.3l-4,0.5c-0.2-5.1-2.2-7.6-5.6-7.6
				c-4,0-6.5,3.1-6.5,11.7c0,8.5,2.5,11.6,6.6,11.6c3.2,0,5.4-2.5,5.6-7.7l4,0.6c-0.3,6.8-4.2,10.5-9.6,10.5
				C1241.1,768.8,1237.1,764.2,1237.1,753.8z"/>
			<path class="st8" d="M1275.1,739c0.3,0,0.5,0,0.9,0v4c-0.3,0-0.5,0-0.6,0c-2.5,0-4,0.9-5.1,2.5c-1.9,2.2-2.2,5.6-2.2,8.8v13.9
				h-3.9v-28.6h3.7v6.8C1268.6,742.2,1271.1,739,1275.1,739z"/>
			<path class="st8" d="M1281.1,728.4h4.3v6.3h-4.3V728.4z M1281.3,739.6h3.9v28.6h-3.9V739.6z"/>
			<path class="st8" d="M1290.4,739.6h4.3v-7.3l3.9-1.5v8.8h6.2v3.1h-6.2v17.9c0,3.1,1.2,4.3,3.7,4.3c0.9,0,1.5-0.2,2.5-0.3v3.6
				c-1.1,0.3-2,0.5-3.4,0.5c-4.8,0-6.6-2.8-6.6-7.4v-18.5h-4.3V739.6z"/>
			<path class="st8" d="M1310.5,728.4h4.3v6.3h-4.3V728.4z M1310.8,739.6h3.9v28.6h-3.9V739.6z"/>
			<path class="st8" d="M1321.4,753.8c0-10,3.6-15,10.7-15c5.7,0,9.3,3.5,9.4,10.3l-4,0.5c-0.2-5.1-2.2-7.6-5.6-7.6
				c-4,0-6.5,3.1-6.5,11.7c0,8.5,2.5,11.6,6.6,11.6c3.2,0,5.4-2.5,5.6-7.7l4,0.6c-0.3,6.8-4.2,10.5-9.6,10.5
				C1325.4,768.8,1321.4,764.2,1321.4,753.8z"/>
			<path class="st8" d="M1346.1,760.9c0-2.9,1.1-4.9,2.8-6.3c1.5-1.2,3.9-2.2,7.4-2.8l5.4-0.9v-2c0-4.6-1.5-6.6-5.2-6.6
				c-4.2,0-5.7,2.3-5.7,6.6h-4c0.2-7.3,4.6-9.7,9.7-9.7c6.3,0,9.1,2.9,9.1,9.9v10.5c0,3.7,0.2,6.5,0.6,8.8h-3.9
				c-0.2-1.7-0.5-3.7-0.5-5.4c-1.1,3.7-4,6.2-8.2,6.2C1349.1,768.8,1346.1,765.7,1346.1,760.9z M1361.7,757.5v-4l-5.6,1.1
				c-4,0.8-6,2.5-6,5.9c0,3.4,1.7,5.2,4.9,5.2C1359.1,765.7,1361.7,762.5,1361.7,757.5z"/>
			<path class="st8" d="M1377.8,768.2h-3.9v-41.4h3.9V768.2z"/>
			<path class="st8" d="M546.3,814.3c1.1-3.9,3.6-6,7.1-6s5.7,2,6.6,5.7c1.4-3.7,3.9-5.7,7.3-5.7c4.6,0,7.1,3.1,7.1,8.8v20.4h-3.9
				v-19.6c0-4.2-1.5-6.3-4.6-6.3c-3.6,0-5.4,2.8-5.4,8v17.9h-3.9v-19.8c0-4-1.5-6.2-4.6-6.2c-3.6,0-5.6,3.1-5.6,8.3v17.6h-3.9v-28.6
				h3.7V814.3z"/>
			<path class="st8" d="M580.6,823.3c0-10.5,4.2-15,10.8-15c6.6,0,10.8,4.5,10.8,15c0,10.5-4.2,15-10.8,15
				C584.7,838.3,580.6,833.8,580.6,823.3z M598.2,823.3c0-9-2.8-11.9-6.8-11.9c-3.9,0-6.6,2.9-6.6,11.9c0,9,2.8,11.9,6.6,11.9
				C595.4,835.2,598.2,832.2,598.2,823.3z"/>
			<path class="st8" d="M612.7,814.3c1.1-3.9,3.6-6,7.1-6c3.6,0,5.7,2,6.6,5.7c1.4-3.7,3.9-5.7,7.3-5.7c4.6,0,7.1,3.1,7.1,8.8v20.4
				h-3.9v-19.6c0-4.2-1.5-6.3-4.6-6.3c-3.6,0-5.4,2.8-5.4,8v17.9H623v-19.8c0-4-1.5-6.2-4.6-6.2c-3.6,0-5.6,3.1-5.6,8.3v17.6H609
				v-28.6h3.7V814.3z"/>
			<path class="st8" d="M651,824.1c0.2,7.7,2.3,10.8,6.8,10.8c3.2,0,5.7-1.9,6.2-6.2l3.6,0.9c-0.8,5.6-4.5,8.6-9.7,8.6
				c-6.3,0-10.7-4-10.7-15c0-11.1,4.5-15,10.5-15c6.3,0,10,4.2,10,12.7v3.1H651z M663.6,821.1c0-6.9-2.2-9.7-6-9.7
				c-3.7,0-6.5,2-6.6,9.7H663.6z"/>
			<path class="st8" d="M674.5,809.1h3.7v5.7c1.4-4.3,4-6.5,8-6.5c5.1,0,7.7,3.2,7.7,9.7v19.6h-3.9v-19.1c0-4.5-1.7-6.8-5.2-6.8
				c-4.2,0-6.3,3.4-6.3,10v15.9h-3.9v-28.6H674.5z"/>
			<path class="st8" d="M697.8,809.1h4.3v-7.3l3.9-1.5v8.8h6.2v3.1H706v17.9c0,3.1,1.2,4.3,3.7,4.3c0.9,0,1.5-0.2,2.5-0.3v3.6
				c-1.1,0.3-2,0.5-3.4,0.5c-4.8,0-6.6-2.8-6.6-7.4v-18.5h-4.3V809.1z"/>
			<path class="st8" d="M730.7,797.8h4.3v6.3h-4.3V797.8z M730.8,809.1h3.9v28.6h-3.9V809.1z"/>
			<path class="st8" d="M743.5,809.1h3.7v5.7c1.4-4.3,4-6.5,8-6.5c5.1,0,7.7,3.2,7.7,9.7v19.6h-3.9v-19.1c0-4.5-1.7-6.8-5.2-6.8
				c-4.2,0-6.3,3.4-6.3,10v15.9h-3.9v-28.6H743.5z"/>
			<path class="st8" d="M781.6,823.3c0-10,3.6-15,10.7-15c5.7,0,9.3,3.5,9.4,10.3l-4,0.5c-0.2-5.1-2.2-7.6-5.6-7.6
				c-4,0-6.5,3.1-6.5,11.7c0,8.5,2.5,11.6,6.6,11.6c3.2,0,5.4-2.5,5.6-7.7l4,0.6c-0.3,6.8-4.2,10.5-9.6,10.5
				C785.6,838.3,781.6,833.6,781.6,823.3z"/>
			<path class="st8" d="M806.6,823.3c0-10.5,4.2-15,10.8-15c6.6,0,10.8,4.5,10.8,15c0,10.5-4.2,15-10.8,15
				C810.8,838.3,806.6,833.8,806.6,823.3z M824.2,823.3c0-9-2.8-11.9-6.8-11.9c-3.9,0-6.6,2.9-6.6,11.9c0,9,2.8,11.9,6.6,11.9
				C821.5,835.2,824.2,832.2,824.2,823.3z"/>
			<path class="st8" d="M846.3,808.5c0.3,0,0.5,0,0.9,0v4c-0.3,0-0.5,0-0.6,0c-2.5,0-4,0.9-5.1,2.5c-1.9,2.2-2.2,5.6-2.2,8.8v13.9
				h-4.2v-28.6h3.7v6.8C839.8,811.7,842.3,808.5,846.3,808.5z"/>
			<path class="st8" d="M856,809.1v5.9c1.1-4.2,4.2-6.6,8.2-6.6c6,0,9.4,4.8,9.4,15c0,9.7-3.7,15-9.9,15c-3.9,0-6.5-2.5-7.7-6.2
				v16.7h-3.9v-39.7H856z M869.5,823.3c0-8-2.2-11.6-6.3-11.6s-6.8,3.7-6.8,9.3v4.8c0,5.7,2.6,9.3,6.6,9.3
				C867.3,835,869.5,831.5,869.5,823.3z"/>
			<path class="st8" d="M878.9,823.3c0-10.5,4.2-15,10.8-15c6.6,0,10.8,4.5,10.8,15c0,10.5-4.2,15-10.8,15
				C883.1,838.3,878.9,833.8,878.9,823.3z M896.5,823.3c0-9-2.8-11.9-6.8-11.9c-3.9,0-6.6,2.9-6.6,11.9c0,9,2.8,11.9,6.6,11.9
				C893.7,835.2,896.5,832.2,896.5,823.3z"/>
			<path class="st8" d="M918.4,808.5c0.3,0,0.5,0,0.9,0v4c-0.3,0-0.5,0-0.6,0c-2.5,0-4,0.9-5.1,2.5c-1.9,2.2-2.2,5.6-2.2,8.8v13.9
				h-3.9v-28.6h3.7v6.8C911.9,811.7,914.4,808.5,918.4,808.5z"/>
			<path class="st8" d="M921.8,830.4c0-2.9,1.1-4.9,2.8-6.3c1.5-1.2,3.9-2.2,7.4-2.8l5.4-0.9v-2c0-4.6-1.5-6.6-5.2-6.6
				c-4.2,0-5.7,2.3-5.7,6.6h-4c0.2-7.3,4.6-9.7,9.7-9.7c6.3,0,9.1,2.9,9.1,9.9V829c0,3.7,0.2,6.5,0.6,8.8H938
				c-0.2-1.7-0.5-3.7-0.5-5.4c-1.1,3.7-4,6.2-8.2,6.2C924.8,838.3,921.8,835.2,921.8,830.4z M937.6,827v-4l-5.6,1.1
				c-4,0.8-6,2.5-6,5.9c0,3.4,1.7,5.2,4.9,5.2C934.9,835.2,937.6,831.9,937.6,827z"/>
			<path class="st8" d="M945.3,809.1h4.3v-7.3l3.9-1.5v8.8h6.2v3.1h-6.2v17.9c0,3.1,1.2,4.3,3.7,4.3c0.9,0,1.5-0.2,2.5-0.3v3.6
				c-1.1,0.3-2,0.5-3.4,0.5c-4.8,0-6.6-2.8-6.6-7.4v-18.5h-4.3V809.1z"/>
			<path class="st8" d="M983.6,824.1h-16.7c0.2,7.7,2.3,10.8,6.8,10.8c3.2,0,5.7-1.9,6.2-6.2l3.6,0.9c-0.8,5.6-4.5,8.6-9.7,8.6
				c-6.3,0-10.7-4-10.7-15c0-11.1,4.5-15,10.5-15c6.3,0,10,4.2,10,12.7V824.1z M979.7,821.1c0-6.9-2.2-9.7-6-9.7
				c-3.7,0-6.5,2-6.6,9.7H979.7z"/>
			<path class="st8" d="M1019.4,825.8h-13.3l-3.2,11.9h-4.3l11.9-40.6h4.6l11.9,40.6h-4.2L1019.4,825.8z M1018.3,822.4l-4.5-15.9
				c-0.5-1.9-0.8-3.4-1.1-5.1h-0.2c-0.3,1.7-0.6,3.2-1.1,5.1l-4.5,15.9H1018.3z"/>
			<path class="st8" d="M1036.1,814.3c1.1-3.9,3.6-6,7.1-6c3.6,0,5.7,2,6.6,5.7c1.4-3.7,3.9-5.7,7.3-5.7c4.6,0,7.1,3.1,7.1,8.8v20.4
				h-3.9v-19.6c0-4.2-1.5-6.3-4.6-6.3c-3.6,0-5.4,2.8-5.4,8v17.9h-3.9v-19.8c0-4-1.5-6.2-4.6-6.2c-3.6,0-5.6,3.1-5.6,8.3v17.6h-3.9
				v-28.6h3.7V814.3z"/>
			<path class="st8" d="M1090.9,824.1h-16.7c0.2,7.7,2.3,10.8,6.8,10.8c3.2,0,5.7-1.9,6.2-6.2l3.6,0.9c-0.8,5.6-4.5,8.6-9.7,8.6
				c-6.3,0-10.7-4-10.7-15c0-11.1,4.5-15,10.5-15c6.3,0,10,4.2,10,12.7V824.1z M1086.9,821.1c0-6.9-2.2-9.7-6-9.7
				c-3.7,0-6.5,2-6.6,9.7H1086.9z"/>
			<path class="st8" d="M1108.8,808.5c0.3,0,0.5,0,0.9,0v4c-0.3,0-0.5,0-0.6,0c-2.5,0-4,0.9-5.1,2.5c-1.9,2.2-2.2,5.6-2.2,8.8v13.9
				h-3.9v-28.6h3.7v6.8C1102.5,811.7,1104.9,808.5,1108.8,808.5z"/>
			<path class="st8" d="M1114.8,797.8h4.3v6.3h-4.3V797.8z M1115,809.1h3.9v28.6h-3.9V809.1z"/>
			<path class="st8" d="M1125.8,823.3c0-10,3.6-15,10.7-15c5.7,0,9.3,3.5,9.4,10.3l-4,0.5c-0.2-5.1-2.2-7.6-5.6-7.6
				c-4,0-6.5,3.1-6.5,11.7c0,8.5,2.5,11.6,6.6,11.6c3.2,0,5.4-2.5,5.6-7.7l4,0.6c-0.3,6.8-4.2,10.5-9.6,10.5
				C1129.7,838.3,1125.8,833.6,1125.8,823.3z"/>
			<path class="st8" d="M1150.5,830.4c0-2.9,1.1-4.9,2.8-6.3c1.5-1.2,3.9-2.2,7.4-2.8l5.4-0.9v-2c0-4.6-1.5-6.6-5.2-6.6
				c-4.2,0-5.7,2.3-5.7,6.6h-4c0.2-7.3,4.6-9.7,9.7-9.7c6.3,0,9.1,2.9,9.1,9.9V829c0,3.7,0.2,6.5,0.6,8.8h-3.9
				c-0.2-1.7-0.5-3.7-0.5-5.4c-1.1,3.7-4,6.2-8.2,6.2C1153.4,838.3,1150.5,835.2,1150.5,830.4z M1166.1,827v-4l-5.6,1.1
				c-4,0.8-6,2.5-6,5.9c0,3.4,1.7,5.2,4.9,5.2C1163.5,835.2,1166.1,831.9,1166.1,827z"/>
			<path class="st8" d="M1175.5,808.8c2.5-1.4,2.8-2.6,2.8-5.2v-0.3h-2.6v-6.2h5.1v6c0,4.2-0.9,6.2-4.2,7.7L1175.5,808.8z"/>
			<path class="st8" d="M1185.1,828.4l3.9-0.6c0.2,4.8,2.6,7.3,6.2,7.3c3.2,0,5.2-1.7,5.2-4.9c0-2.8-1.2-4.3-4.5-5.1l-4-0.9
				c-4.2-0.9-6.3-3.7-6.3-7.9c0-4.9,3.7-7.9,9.1-7.9c5.6,0,9.3,2.8,9.4,9.3l-3.7,0.6c-0.3-5.1-2.5-6.8-5.7-6.8
				c-3.2,0-5.1,1.7-5.1,4.6c0,2.6,1.1,4.2,4.2,4.8l4.2,1.1c4.6,1.1,6.5,3.9,6.5,8c0,4.9-3.4,8.3-9.3,8.3
				C1189.3,838.3,1185.4,835.2,1185.1,828.4z"/>
			<path class="st8" d="M1234.8,808.5c0.3,0,0.5,0,0.9,0v4c-0.3,0-0.5,0-0.6,0c-2.5,0-4,0.9-5.1,2.5c-1.9,2.2-2.2,5.6-2.2,8.8v13.9
				h-3.9v-28.6h3.7v6.8C1228.3,811.7,1230.8,808.5,1234.8,808.5z"/>
			<path class="st8" d="M1258.9,824.1h-16.7c0.2,7.7,2.3,10.8,6.8,10.8c3.2,0,5.7-1.9,6.2-6.2l3.6,0.9c-0.8,5.6-4.5,8.6-9.7,8.6
				c-6.3,0-10.7-4-10.7-15c0-11.1,4.5-15,10.5-15c6.3,0,10,4.2,10,12.7V824.1z M1254.9,821.1c0-6.9-2.2-9.7-6-9.7
				c-3.7,0-6.5,2-6.6,9.7H1254.9z"/>
			<path class="st8" d="M1264,823.3c0-10,3.6-15,10.7-15c5.7,0,9.3,3.5,9.4,10.3l-4,0.5c-0.2-5.1-2.2-7.6-5.6-7.6
				c-4,0-6.5,3.1-6.5,11.7c0,8.5,2.5,11.6,6.6,11.6c3.2,0,5.4-2.5,5.6-7.7l4,0.6c-0.3,6.8-4.2,10.5-9.6,10.5
				C1267.8,838.3,1264,833.6,1264,823.3z"/>
			<path class="st8" d="M1299.3,823l-4.5,5.4v9.3h-3.9v-41.4h3.9v27.5l11.3-14.5h4.6l-8.8,10.7l9.3,17.9h-4.5L1299.3,823z"/>
			<path class="st8" d="M1313.4,823.3c0-10.5,4.2-15,10.8-15c6.6,0,10.8,4.5,10.8,15c0,10.5-4.2,15-10.8,15
				C1317.4,838.3,1313.4,833.8,1313.4,823.3z M1330.8,823.3c0-9-2.8-11.9-6.8-11.9c-3.9,0-6.6,2.9-6.6,11.9c0,9,2.8,11.9,6.6,11.9
				C1328.1,835.2,1330.8,832.2,1330.8,823.3z"/>
			<path class="st8" d="M1341.8,809.1h3.7v5.7c1.4-4.3,4-6.5,8-6.5c5.1,0,7.7,3.2,7.7,9.7v19.6h-3.9v-19.1c0-4.5-1.7-6.8-5.2-6.8
				c-4.2,0-6.3,3.4-6.3,10v15.9h-3.9v-28.6H1341.8z"/>
			<path class="st8" d="M1369,797.8h4.3v6.3h-4.3V797.8z M1369.1,809.1h3.9v28.6h-3.9V809.1z"/>
			<path class="st8" d="M1381.8,809.1h3.7v5.7c1.4-4.3,4-6.5,8-6.5c5.1,0,7.7,3.2,7.7,9.7v19.6h-4v-19.1c0-4.5-1.7-6.8-5.2-6.8
				c-4.2,0-6.3,3.4-6.3,10v15.9h-3.9V809.1z"/>
			<path class="st8" d="M1423.5,810.3c2,1.7,3.1,4.3,3.1,7.7c0,6-3.2,9.7-9.3,9.7c-1.7,0-3.1-0.3-4.3-0.9c-1.1,0.5-1.9,1.5-1.9,2.8
				c0,1.7,1.2,2.8,3.9,3.1l6.3,0.6c4.8,0.5,7.9,3.2,7.9,7.6c0,5.4-4,8.5-11.6,8.5c-7.3,0-11-3.1-11-7.6c0-2.9,1.7-5.2,4.8-6.2
				c-2.3-0.9-3.6-2.6-3.6-4.8c0-2.5,1.5-4,3.9-4.8c-2.3-1.7-3.6-4.5-3.6-8.2c0-5.9,3.2-9.7,9.3-9.7c1.9,0,3.4,0.3,4.6,1.1
				c0.8-2.9,2.9-4.8,6-4.8c0.5,0,0.8,0,1.2,0.2v3.2c-0.6-0.2-0.9-0.2-1.5-0.2C1425.6,807.9,1424.3,808.8,1423.5,810.3z
				 M1414.1,836.3c-0.3,0-0.6,0-0.8-0.2c-2,0.9-2.9,2.6-2.9,4.8c0,3.7,2.8,5.6,7.6,5.6c5.2,0,7.4-2,7.4-5.4c0-2.9-1.5-4.3-4.9-4.6
				L1414.1,836.3z M1422.7,818c0-4.6-2.2-6.9-5.4-6.9c-3.4,0-5.6,2.5-5.6,6.9c0,4.6,2.2,7.1,5.6,7.1
				C1420.6,825.1,1422.7,822.7,1422.7,818z"/>
			<path class="st8" d="M1442.8,809.1h4l4.3,21.5l0.5,3.1h0.2c0.2-1.1,0.3-2,0.5-3.1l4.6-21.5h4.2l4.6,21.5c0.2,0.9,0.5,2,0.6,3.1
				h0.2c0-1.1,0.3-2.2,0.5-3.1l4.3-21.5h4l-6.6,28.6h-4.2l-4.8-21.8c-0.2-0.9-0.3-2.2-0.5-3.1h-0.2c-0.2,0.9-0.3,2.2-0.5,3.1
				l-4.8,21.8h-4.2L1442.8,809.1z"/>
			<path class="st8" d="M1480.8,797.8h4.3v6.3h-4.3V797.8z M1480.9,809.1h3.9v28.6h-3.9V809.1z"/>
			<path class="st8" d="M1490,809.1h4.3v-7.3l3.9-1.5v8.8h6.2v3.1h-6.2v17.9c0,3.1,1.2,4.3,3.7,4.3c0.9,0,1.5-0.2,2.5-0.3v3.6
				c-1.1,0.3-2,0.5-3.4,0.5c-4.8,0-6.6-2.8-6.6-7.4v-18.5h-4.3V809.1z"/>
			<path class="st8" d="M1510.6,796.3h3.9v18.4c1.1-4,4-6.3,7.9-6.3c4.9,0,7.6,3.2,7.6,9.7v19.6h-3.9v-19.3c0-4.3-1.7-6.6-5.2-6.6
				c-4.2,0-6.3,3.4-6.3,10v15.9h-3.9V796.3z"/>
			<path class="st8" d="M540.7,897.9l3.9-0.6c0.2,4.8,2.6,7.3,6.2,7.3c3.2,0,5.2-1.7,5.2-4.9c0-2.8-1.2-4.3-4.5-5.1l-4-0.9
				c-4.2-0.9-6.3-3.7-6.3-7.9c0-4.9,3.7-7.9,9.1-7.9c5.6,0,9.3,2.8,9.4,9.3l-3.7,0.6c-0.3-5.1-2.5-6.8-5.7-6.8
				c-3.2,0-5.1,1.7-5.1,4.6c0,2.6,1.1,4.2,4.2,4.8l4.2,1.1c4.6,1.1,6.5,3.9,6.5,8c0,4.9-3.4,8.3-9.3,8.3
				C544.9,907.7,541,904.7,540.7,897.9z"/>
			<path class="st8" d="M563.7,918.4v-3.6c0.6,0.2,1.2,0.2,1.5,0.2c3.1,0,4.6-1.9,5.7-5.4l0.6-2.5l-9.4-28.6h4.3l6,20.5
				c0.5,1.4,0.6,2.6,0.9,3.9h0.2c0.2-1.2,0.5-2.5,0.9-3.7l5.6-20.7h4l-9.3,31.3c-2,6.5-4.8,8.8-9.1,8.8
				C565.3,918.5,564.5,918.5,563.7,918.4z"/>
			<path class="st8" d="M586.3,897.9l3.9-0.6c0.2,4.8,2.6,7.3,6.2,7.3c3.2,0,5.3-1.7,5.3-4.9c0-2.8-1.2-4.3-4.5-5.1l-4-0.9
				c-4.2-0.9-6.3-3.7-6.3-7.9c0-4.9,3.7-7.9,9.1-7.9c5.6,0,9.3,2.8,9.4,9.3l-3.7,0.6c-0.3-5.1-2.5-6.8-5.7-6.8
				c-3.2,0-5.1,1.7-5.1,4.6c0,2.6,1.1,4.2,4.2,4.8l4.2,1.1c4.6,1.1,6.5,3.9,6.5,8c0,4.9-3.4,8.3-9.3,8.3
				C590.5,907.7,586.6,904.7,586.3,897.9z"/>
			<path class="st8" d="M608.5,878.6h4.3v-7.3l3.9-1.5v8.8h6.2v3.1h-6.2v17.9c0,3.1,1.2,4.3,3.7,4.3c0.9,0,1.5-0.2,2.5-0.3v3.6
				c-1.1,0.3-2,0.5-3.4,0.5c-4.8,0-6.6-2.8-6.6-7.4v-18.5h-4.3V878.6z"/>
			<path class="st8" d="M646.8,893.5h-16.7c0.2,7.7,2.3,10.8,6.8,10.8c3.2,0,5.7-1.9,6.2-6.2l3.6,0.9c-0.8,5.6-4.5,8.6-9.7,8.6
				c-6.3,0-10.7-4-10.7-15c0-11.1,4.5-15,10.5-15c6.3,0,10,4.2,10,12.7V893.5z M642.8,890.6c0-6.9-2.2-9.7-6-9.7
				c-3.7,0-6.5,2-6.6,9.7H642.8z"/>
			<path class="st8" d="M657.3,883.8c1.1-3.9,3.6-6,7.1-6c3.6,0,5.7,2,6.6,5.7c1.4-3.7,3.9-5.7,7.3-5.7c4.6,0,7.1,3.1,7.1,8.8V907
				h-3.9v-19.6c0-4.2-1.5-6.3-4.6-6.3c-3.6,0-5.4,2.8-5.4,8V907h-3.9v-19.8c0-4-1.5-6.2-4.6-6.2c-3.6,0-5.6,3.1-5.6,8.3V907h-3.9
				v-28.6h3.7V883.8z"/>
			<path class="st8" d="M693.1,867.3h4.3v6.3h-4.3V867.3z M693.4,878.6h3.9v28.6h-3.9V878.6z"/>
			<path class="st8" d="M704.1,892.8c0-10,3.6-15,10.7-15c5.7,0,9.3,3.6,9.4,10.3l-4,0.5c-0.2-5.1-2.2-7.6-5.6-7.6
				c-4,0-6.5,3.1-6.5,11.7c0,8.5,2.5,11.6,6.6,11.6c3.2,0,5.4-2.5,5.6-7.7l4,0.6c-0.3,6.8-4.2,10.5-9.6,10.5
				C708.1,907.7,704.1,903.1,704.1,892.8z"/>
			<path class="st8" d="M743.5,867.3h4.3v6.3h-4.3V867.3z M743.6,878.6h3.9v28.6h-3.9V878.6z"/>
			<path class="st8" d="M756.3,878.6h3.7v5.7c1.4-4.3,4-6.5,8-6.5c5.1,0,7.7,3.2,7.7,9.7v19.6h-3.9V888c0-4.5-1.7-6.8-5.2-6.8
				c-4.2,0-6.3,3.4-6.3,10v15.9h-3.9v-28.6H756.3z"/>
			<path class="st8" d="M785.8,893.5c0.2,7.7,2.3,10.8,6.8,10.8c3.2,0,5.7-1.9,6.2-6.2l3.6,0.9c-0.8,5.6-4.5,8.6-9.7,8.6
				c-6.3,0-10.7-4-10.7-15c0-11.1,4.5-15,10.5-15c6.3,0,10,4.2,10,12.7v3.1H785.8z M798.4,890.6c0-6.9-2.2-9.7-6-9.7
				c-3.7,0-6.5,2-6.6,9.7H798.4z"/>
			<path class="st8" d="M824.7,901.4c-1.1,4-3.7,6.5-7.4,6.5c-6,0-9.7-5.1-9.7-15c0-10.3,4.2-15,10-15c3.7,0,6.2,2.2,7.4,6.2
				l0.5-5.6h3.2v39.7h-3.9v-16.8H824.7z M824.7,895.1v-4.6c0-5.6-2.2-9.4-6.6-9.4c-4.5,0-6.5,3.7-6.5,11.6c0,8.2,2,11.7,6.5,11.7
				C822.5,904.5,824.7,900.8,824.7,895.1z"/>
			<path class="st8" d="M836.6,898v-19.5h3.9v19.3c0,4.6,2,6.6,5.1,6.6c4,0,6.3-3.7,6.3-9.3v-16.5h3.9v28.6H852v-5.4
				c-1.1,3.6-3.9,6-7.7,6C838.6,907.7,836.6,903.7,836.6,898z"/>
			<path class="st8" d="M864.2,867.3h4.3v6.3h-4.3V867.3z M864.4,878.6h3.9v28.6h-3.9V878.6z"/>
			<path class="st8" d="M873.5,878.6h4.3v-7.3l3.9-1.5v8.8h6.2v3.1h-6.2v17.9c0,3.1,1.2,4.3,3.7,4.3c0.9,0,1.5-0.2,2.5-0.3v3.6
				c-1.1,0.3-2,0.5-3.4,0.5c-4.8,0-6.6-2.8-6.6-7.4v-18.5h-4.3V878.6z"/>
			<path class="st8" d="M893.6,867.3h4.3v6.3h-4.3V867.3z M893.9,878.6h3.9v28.6h-3.9V878.6z"/>
			<path class="st8" d="M925.1,893.5h-16.7c0.2,7.7,2.3,10.8,6.8,10.8c3.2,0,5.7-1.9,6.2-6.2l3.6,0.9c-0.8,5.6-4.5,8.6-9.7,8.6
				c-6.3,0-10.7-4-10.7-15c0-11.1,4.5-15,10.5-15c6.3,0,10,4.2,10,12.7V893.5z M921.2,890.6c0-6.9-2.2-9.7-6-9.7
				c-3.7,0-6.5,2-6.6,9.7H921.2z"/>
			<path class="st8" d="M930,897.9l3.9-0.6c0.2,4.8,2.6,7.3,6.2,7.3c3.2,0,5.2-1.7,5.2-4.9c0-2.8-1.2-4.3-4.5-5.1l-4-0.9
				c-4.2-0.9-6.3-3.7-6.3-7.9c0-4.9,3.7-7.9,9.1-7.9c5.6,0,9.3,2.8,9.4,9.3l-3.7,0.6c-0.3-5.1-2.5-6.8-5.7-6.8
				c-3.2,0-5.1,1.7-5.1,4.6c0,2.6,1.1,4.2,4.2,4.8l4.2,1.1c4.6,1.1,6.5,3.9,6.5,8c0,4.9-3.4,8.3-9.3,8.3
				C934.2,907.7,930.3,904.7,930,897.9z"/>
			<path class="st8" d="M959.5,907.1h-5.1v-6.2h5.1V907.1z"/>
			<path class="st8" d="M545.7,1010.2c-0.9,1.7-3.2,2.8-5.2,2.8h-0.9v-2h0.8c2.8,0,5.2-1.9,5.9-5.1h1.9v31.2h-2.2v-26.9H545.7z"/>
			<path class="st8" d="M555.3,1029.2l2.3-0.2c0.3,4.3,2.6,6.8,6.2,6.8c4,0,6.2-2.9,6.2-8.9c0-5.9-2.2-8.6-6-8.6
				c-3.2,0-5.6,2.3-6,5.5l-2.2-0.3l1.2-17.4H571v2h-12.2l-0.9,12.7c1.2-2.8,3.6-4.3,6.8-4.3c4.8,0,7.6,3.5,7.6,10.5
				c0,7.1-3.2,11-8.6,11C558.7,1037.7,555.6,1034.8,555.3,1029.2z"/>
			<path class="st8" d="M586,1037.7c-0.9,0-2,0-2.9-0.3v-2.2c0.9,0.2,2,0.3,2.9,0.3c2.6,0,4.6-1.1,4.6-5.2v-25h2.2v25.3
				C592.8,1036,589.8,1037.7,586,1037.7z"/>
			<path class="st8" d="M599.4,1030v-15.3h2.2v15.3c0,4.3,2,5.9,4.5,5.9c3.6,0,5.7-3.2,5.7-7.9v-13.3h2.2v22.4h-2v-4.6
				c-0.9,3.1-3.1,5.1-6.3,5.1C601,1037.6,599.4,1034.5,599.4,1030z"/>
			<path class="st8" d="M623.3,1037.1h-2.2v-32.4h2.2V1037.1z"/>
			<path class="st8" d="M628.4,1045.9v-2c0.5,0.2,0.9,0.2,1.2,0.2c2.6,0,3.9-1.9,4.6-4.6l0.6-2.2l-7.3-22.5h2.3l5.1,16.8
				c0.3,1.2,0.6,2.2,0.9,3.2c0.3-1.1,0.5-2,0.9-3.2l4.6-17h2.3l-7.3,24.7c-1.4,4.8-3.4,6.6-6.6,6.6
				C629.5,1046.1,629.1,1046.1,628.4,1045.9z"/>
			<path class="st8" d="M645.1,1041.3c1.5-1.1,1.9-2.2,1.9-4v-0.3h-1.2v-4.5h2.6v4.5c0,2.8-0.6,4.3-2.6,5.4L645.1,1041.3z"/>
			<path class="st8" d="M662.9,1035.1c4.2-4.3,7.6-7.9,10.3-11.4c2.6-3.4,3.9-6.6,3.9-9.9c0-4.2-2-6.5-5.6-6.5
				c-3.7,0-5.9,2.2-5.9,6.2c0,0.9,0,1.9,0.3,2.8l-2.3-0.3c-0.2-0.8-0.2-1.7-0.2-2.6c0-4.9,3.1-8,8.2-8c4.9,0,7.9,2.9,7.9,8.3
				c0,3.6-1.4,7.1-4.2,10.8c-2.3,3.2-6,7-9.6,10.7h14.4v2H663v-2H662.9z"/>
			<path class="st8" d="M683.9,1021.5c0-12.2,3.4-16.2,9.3-16.2c6,0,9.4,4,9.4,16.2c0,12.2-3.4,16.2-9.4,16.2
				C687.3,1037.7,683.9,1033.7,683.9,1021.5z M700.1,1021.5c0-11-2.5-14.4-7.1-14.4c-4.5,0-7.1,3.2-7.1,14.4
				c0,11.1,2.6,14.4,7.1,14.4C697.6,1035.9,700.1,1032.5,700.1,1021.5z"/>
			<path class="st8" d="M706.4,1035.1c4.2-4.3,7.6-7.9,10.3-11.4c2.6-3.4,3.9-6.6,3.9-9.9c0-4.2-2-6.5-5.6-6.5
				c-3.7,0-5.9,2.2-5.9,6.2c0,0.9,0,1.9,0.3,2.8l-2.3-0.3c-0.2-0.8-0.2-1.7-0.2-2.6c0-4.9,3.1-8,8.2-8c4.9,0,7.9,2.9,7.9,8.3
				c0,3.6-1.4,7.1-4.2,10.8c-2.3,3.2-6,7-9.6,10.7h14.4v2h-17.1v-2H706.4z"/>
			<path class="st8" d="M727.3,1021.5c0-12.2,3.4-16.2,9.3-16.2c6,0,9.4,4,9.4,16.2c0,12.2-3.4,16.2-9.4,16.2
				C730.7,1037.7,727.3,1033.7,727.3,1021.5z M743.6,1021.5c0-11-2.5-14.4-7.1-14.4c-4.5,0-7.1,3.2-7.1,14.4
				c0,11.1,2.6,14.4,7.1,14.4C741.2,1035.9,743.6,1032.5,743.6,1021.5z"/>
			<path class="st8" d="M544.1,1113.4v23c0,4.8,2.5,7.6,6.9,7.6c4.5,0,6.9-2.8,6.9-7.6v-23h2.3v23.2c0,5.7-3.4,9.4-9.3,9.4
				s-9.1-3.7-9.1-9.4v-23.2H544.1z"/>
			<path class="st8" d="M565.4,1135.1l2.3-0.3c0.3,6.2,2.6,9.1,7.7,9.1c4,0,6.2-2.5,6.2-6.3c0-4-1.5-5.9-5.2-7.1l-4.2-1.6
				c-4-1.4-6-4.5-6-8.3c0-4.9,3.2-8,8.3-8c5.4,0,8.8,2.6,9,10l-2.3,0.5c-0.3-6.2-2.6-8.5-6.8-8.5c-3.9,0-6,2.3-6,6
				c0,3.1,1.4,5.1,4.8,6.5l4,1.6c4.5,1.5,6.5,4.3,6.5,9.1c0,5.4-3.4,8.5-8.8,8.5C569,1145.9,565.9,1142.4,565.4,1135.1z"/>
			<path class="st8" d="M603.4,1135.8h-11.3l-2.6,9.4h-2.3l9.4-31.8h2.5l9.4,31.8h-2.3L603.4,1135.8z M603,1133.8l-3.9-13.3
				c-0.6-1.8-0.9-3.2-1.1-4.6h-0.2c-0.3,1.4-0.5,2.6-1.1,4.6l-3.9,13.3H603z"/>
			<path class="st8" d="M636.3,1115.4h-8.6v29.8h-2.3v-29.8h-8.6v-2h19.5v2H636.3z"/>
			<path class="st8" d="M636.2,1133.9c0-8.3,3.1-11.7,8-11.7s8,3.4,8,11.7c0,8.3-3.1,11.7-8,11.7S636.2,1142.2,636.2,1133.9z
				 M650.1,1133.9c0-7.4-2.5-9.9-5.9-9.9c-3.4,0-5.9,2.5-5.9,9.9s2.3,9.9,5.9,9.9C647.6,1143.9,650.1,1141.5,650.1,1133.9z"/>
			<path class="st8" d="M656.5,1133.9c0-8,2.8-11.7,7.7-11.7c3.1,0,5.2,1.8,6,5.4v-15h2.2v32.4h-2v-4.9c-0.9,3.4-3.2,5.6-6.5,5.6
				C659.2,1145.6,656.5,1141.8,656.5,1133.9z M670.4,1135.8v-3.6c0-4.6-2-8.2-5.6-8.2c-4,0-6,2.9-6,9.9c0,7.1,1.9,9.9,5.7,9.9
				C668.3,1143.8,670.4,1140.5,670.4,1135.8z"/>
			<path class="st8" d="M678.2,1139.6c0-2,0.8-3.6,1.9-4.6s2.9-1.9,5.7-2.3l4.8-0.9v-2c0-4-1.2-5.7-4.6-5.7c-3.2,0-4.9,1.7-4.9,5.9
				h-2.3c0.2-5.4,3.2-7.6,7.3-7.6c4.6,0,6.8,2.2,6.8,7.4v8.2c0,2.9,0.2,5.2,0.5,7.2H691c-0.2-1.4-0.3-3.1-0.3-4.6
				c-0.9,3.2-3.1,5.2-6.5,5.2C680.5,1145.6,678.2,1143.3,678.2,1139.6z M690.5,1136.7v-3.2l-4.9,0.9c-3.6,0.6-5.2,2.2-5.2,5.1
				c0,2.9,1.5,4.5,4.3,4.5C688.2,1143.9,690.5,1141,690.5,1136.7z"/>
			<path class="st8" d="M696.7,1154v-2c0.5,0.2,0.9,0.2,1.2,0.2c2.6,0,3.9-1.8,4.6-4.6l0.6-2.2l-7.3-22.5h2.3l5.1,16.8
				c0.3,1.2,0.6,2.2,0.9,3.2c0.3-1.1,0.5-2,0.9-3.2l4.6-17h2.3l-7.3,24.7c-1.4,4.8-3.4,6.6-6.6,6.6
				C697.6,1154.1,697.2,1154.1,696.7,1154z"/>
		</g>
	</g>
</g>
</svg>
