<svg width="1705" height="980" viewBox="0 0 1705 980" fill="none" xmlns="http://www.w3.org/2000/svg">
<g id="sixth-popup">
<g id="company6">
<g id="Group">
<g id="Vector">
<path d="M1666.2 687.499H1114.2C1094.9 687.499 1079.2 671.799 1079.2 652.499V125.499C1079.2 106.199 1094.9 90.499 1114.2 90.499H1666.2C1685.5 90.499 1701.2 106.199 1701.2 125.499V652.499C1701.2 671.799 1685.6 687.499 1666.2 687.499Z" fill="#D4F4FF"/>
<path d="M1666.2 685.999H1114.2V688.999H1666.2V685.999ZM1114.2 685.999C1095.73 685.999 1080.7 670.971 1080.7 652.499H1077.7C1077.7 672.627 1094.07 688.999 1114.2 688.999V685.999ZM1080.7 652.499V125.499H1077.7V652.499H1080.7ZM1080.7 125.499C1080.7 107.027 1095.73 91.999 1114.2 91.999V88.999C1094.07 88.999 1077.7 105.371 1077.7 125.499H1080.7ZM1114.2 91.999H1666.2V88.999H1114.2V91.999ZM1666.2 91.999C1684.67 91.999 1699.7 107.027 1699.7 125.499H1702.7C1702.7 105.371 1686.33 88.999 1666.2 88.999V91.999ZM1699.7 125.499V652.499H1702.7V125.499H1699.7ZM1699.7 652.499C1699.7 670.973 1684.77 685.999 1666.2 685.999V688.999C1686.43 688.999 1702.7 672.625 1702.7 652.499H1699.7ZM1081.9 127.499H1704.7V124.499H1081.9V127.499Z" fill="#00BBFF"/>
</g>
<g id="Vector_2">
<path d="M1108 116.399C1104.6 116.399 1101.9 113.699 1101.9 110.299C1101.9 106.899 1104.6 104.199 1108 104.199C1111.4 104.199 1114.1 106.899 1114.1 110.299C1114.1 113.699 1111.4 116.399 1108 116.399Z" fill="white"/>
<path d="M1128.3 116.399C1124.9 116.399 1122.2 113.699 1122.2 110.299C1122.2 106.899 1124.9 104.199 1128.3 104.199C1131.7 104.199 1134.4 106.899 1134.4 110.299C1134.4 113.699 1131.7 116.399 1128.3 116.399Z" fill="white"/>
<path d="M1148.6 116.399C1145.2 116.399 1142.5 113.699 1142.5 110.299C1142.5 106.899 1145.2 104.199 1148.6 104.199C1152 104.199 1154.7 106.899 1154.7 110.299C1154.7 113.699 1152 116.399 1148.6 116.399Z" fill="white"/>
</g>
<g id="Vector_3">
<path d="M1108 105.699C1110.5 105.699 1112.6 107.799 1112.6 110.299C1112.6 112.799 1110.5 114.899 1108 114.899C1105.5 114.899 1103.4 112.799 1103.4 110.299C1103.4 107.799 1105.5 105.699 1108 105.699ZM1108 102.699C1103.8 102.699 1100.4 106.099 1100.4 110.299C1100.4 114.499 1103.8 117.899 1108 117.899C1112.2 117.899 1115.6 114.499 1115.6 110.299C1115.6 106.099 1112.2 102.699 1108 102.699Z" fill="#00BBFF"/>
<path d="M1128.3 105.699C1130.8 105.699 1132.9 107.799 1132.9 110.299C1132.9 112.799 1130.8 114.899 1128.3 114.899C1125.8 114.899 1123.7 112.799 1123.7 110.299C1123.7 107.799 1125.8 105.699 1128.3 105.699ZM1128.3 102.699C1124.1 102.699 1120.7 106.099 1120.7 110.299C1120.7 114.499 1124.1 117.899 1128.3 117.899C1132.5 117.899 1135.9 114.499 1135.9 110.299C1135.9 106.099 1132.5 102.699 1128.3 102.699Z" fill="#00BBFF"/>
<path d="M1148.6 105.699C1151.1 105.699 1153.2 107.799 1153.2 110.299C1153.2 112.799 1151.1 114.899 1148.6 114.899C1146.1 114.899 1144 112.799 1144 110.299C1144 107.799 1146.1 105.699 1148.6 105.699ZM1148.6 102.699C1144.4 102.699 1141 106.099 1141 110.299C1141 114.499 1144.4 117.899 1148.6 117.899C1152.8 117.899 1156.2 114.499 1156.2 110.299C1156.3 106.099 1152.8 102.699 1148.6 102.699Z" fill="#00BBFF"/>
</g>
<path id="Vector_4" d="M1621.1 635H1153.8C1137 635 1123.4 621.4 1123.4 604.6V587.7C1123.4 570.9 1137 557.3 1153.8 557.3H1621C1637.8 557.3 1651.4 570.9 1651.4 587.7V604.6C1651.5 621.4 1637.9 635 1621.1 635Z" fill="white" stroke="#FF921E" stroke-width="3" stroke-miterlimit="10"/>
</g>
<g id="button-company6">
<path id="Vector_5" d="M1620.7 634.7H1153.4C1136.6 634.7 1123 621.1 1123 604.3V587.4C1123 570.6 1136.6 557 1153.4 557H1620.6C1637.4 557 1651 570.6 1651 587.4V604.3C1651.1 621.1 1637.5 634.7 1620.7 634.7Z" fill="#FF921E"/>
<g id="Vector_6">
<path d="M1173 581.6C1173 578.9 1173.7 576.9 1175.1 575.5C1176.5 574.1 1178.5 573.4 1181.2 573.4H1193.1C1195.7 573.4 1197.7 574.1 1199.1 575.5C1200.5 576.9 1201.2 578.9 1201.2 581.6V611.1C1201.2 613.8 1200.5 615.8 1199.1 617.2C1197.7 618.6 1195.7 619.3 1193.1 619.3H1181.2C1178.5 619.3 1176.5 618.6 1175.1 617.2C1173.7 615.8 1173 613.8 1173 611.1V581.6Z" fill="white"/>
<path d="M1205.4 581.6C1205.4 578.9 1206.1 576.9 1207.5 575.5C1208.9 574.1 1210.9 573.4 1213.6 573.4H1246.6C1249.3 573.4 1251.3 574.1 1252.8 575.5C1254.3 576.9 1255 578.9 1255 581.6V609.4C1255 610.3 1255.2 610.9 1255.7 611.4C1256.2 611.9 1256.9 612.1 1257.7 612.1H1258.9C1259.8 612.1 1260.4 611.9 1260.9 611.4C1261.4 610.9 1261.6 610.2 1261.6 609.4V581.6C1261.6 578.9 1262.3 576.9 1263.7 575.5C1265.1 574.1 1267.1 573.4 1269.7 573.4H1281.8C1284.5 573.4 1286.5 574.1 1287.9 575.5C1289.3 576.9 1290 578.9 1290 581.6V611.1C1290 613.8 1289.3 615.8 1287.9 617.2C1286.5 618.6 1284.5 619.3 1281.8 619.3H1248.8C1246.2 619.3 1244.1 618.6 1242.6 617.2C1241.1 615.8 1240.4 613.8 1240.4 611.1V583.3C1240.4 582.4 1240.2 581.8 1239.7 581.3C1239.2 580.8 1238.6 580.6 1237.7 580.6H1236.4C1235.5 580.6 1234.9 580.8 1234.4 581.3C1233.9 581.8 1233.7 582.5 1233.7 583.3V611.1C1233.7 613.8 1233 615.8 1231.6 617.2C1230.2 618.6 1228.2 619.3 1225.5 619.3H1213.6C1211 619.3 1209 618.6 1207.5 617.2C1206.1 615.8 1205.4 613.8 1205.4 611.1V581.6Z" fill="white"/>
<path d="M1298.3 619.3C1297 619.3 1296.1 619 1295.4 618.4C1294.7 617.8 1294.4 616.9 1294.4 615.8C1294.4 614.7 1294.7 613.8 1295.4 613.2C1296.1 612.6 1297 612.3 1298.3 612.3H1322.5V602.5C1322.5 601.6 1322.2 600.9 1321.7 600.4C1321.2 599.9 1320.5 599.6 1319.6 599.6H1302.4C1299.8 599.6 1297.8 598.9 1296.3 597.5C1294.9 596.1 1294.2 594.1 1294.2 591.4V581.7C1294.2 579 1294.9 577 1296.3 575.6C1297.7 574.2 1299.7 573.5 1302.4 573.5H1345.8C1347.1 573.5 1348 573.8 1348.7 574.4C1349.4 575 1349.7 575.9 1349.7 577C1349.7 578.1 1349.4 579 1348.7 579.6C1348 580.2 1347.1 580.5 1345.8 580.5H1322.5V589.6C1322.5 590.5 1322.8 591.2 1323.3 591.7C1323.8 592.2 1324.5 592.5 1325.4 592.5H1342.6C1345.3 592.5 1347.3 593.2 1348.7 594.6C1350.1 596 1350.8 598 1350.8 600.7V611.2C1350.8 613.9 1350.1 615.9 1348.7 617.3C1347.3 618.7 1345.3 619.4 1342.6 619.4H1298.3V619.3Z" fill="white"/>
<path d="M1363.3 619.3C1360.7 619.3 1358.7 618.6 1357.2 617.2C1355.8 615.8 1355.1 613.8 1355.1 611.1V581.6C1355.1 578.9 1355.8 576.9 1357.2 575.5C1358.6 574.1 1360.6 573.4 1363.3 573.4H1410.4C1413.1 573.4 1415.1 574.1 1416.5 575.5C1417.9 576.9 1418.6 578.9 1418.6 581.6V591.5C1418.6 594.2 1417.9 596.2 1416.5 597.6C1415.1 599 1413.1 599.7 1410.4 599.7H1383.4V611.1C1383.4 613.8 1382.7 615.8 1381.3 617.2C1379.9 618.6 1377.9 619.3 1375.2 619.3H1363.3ZM1387.5 593C1388.4 593 1389.1 592.8 1389.6 592.2C1390.1 591.7 1390.4 591 1390.4 590.1V583C1390.4 582.1 1390.1 581.4 1389.6 580.9C1389.1 580.4 1388.4 580.1 1387.5 580.1H1383.4V593H1387.5Z" fill="white"/>
<path d="M1422.4 605.9C1422.4 603.2 1423 601.2 1424.2 599.8C1425.4 598.4 1427.1 597.7 1429.3 597.7V595C1427.1 595 1425.4 594.3 1424.2 592.9C1423 591.5 1422.4 589.5 1422.4 586.9V581.7C1422.4 579 1423.1 577 1424.5 575.6C1425.9 574.2 1427.9 573.5 1430.6 573.5H1474C1475.2 573.5 1476.2 573.8 1476.9 574.4C1477.6 575 1477.9 575.9 1477.9 577C1477.9 578.1 1477.6 579 1476.9 579.6C1476.2 580.2 1475.2 580.5 1474 580.5H1450.6V592.4H1474C1475.2 592.4 1476.2 592.7 1476.9 593.3C1477.6 593.9 1477.9 594.8 1477.9 595.9C1477.9 597 1477.6 597.9 1476.9 598.6C1476.2 599.2 1475.2 599.5 1474 599.5H1450.6V612.1H1474C1475.2 612.1 1476.2 612.4 1476.9 613C1477.6 613.6 1477.9 614.5 1477.9 615.6C1477.9 616.7 1477.6 617.6 1476.9 618.2C1476.2 618.8 1475.2 619.1 1474 619.1H1430.6C1427.9 619.1 1425.9 618.4 1424.5 617C1423.1 615.6 1422.4 613.6 1422.4 610.9V605.9Z" fill="white"/>
<path d="M1482.2 581.6C1482.2 578.9 1482.9 576.9 1484.3 575.5C1485.7 574.1 1487.7 573.4 1490.4 573.4H1533.8C1535.1 573.4 1536 573.7 1536.7 574.3C1537.4 574.9 1537.7 575.8 1537.7 576.9C1537.7 578 1537.4 578.9 1536.7 579.5C1536 580.1 1535.1 580.4 1533.8 580.4H1510.5V612.1H1533.8C1535.1 612.1 1536 612.4 1536.7 613C1537.4 613.6 1537.7 614.5 1537.7 615.6C1537.7 616.7 1537.4 617.6 1536.7 618.2C1536 618.8 1535.1 619.1 1533.8 619.1H1490.4C1487.8 619.1 1485.8 618.4 1484.3 617C1482.9 615.6 1482.2 613.6 1482.2 610.9V581.6Z" fill="white"/>
<path d="M1541.7 577C1541.7 575.9 1542 575 1542.7 574.4C1543.4 573.8 1544.3 573.5 1545.6 573.5H1600C1601.3 573.5 1602.2 573.8 1602.9 574.4C1603.6 575 1603.9 575.9 1603.9 577C1603.9 578.1 1603.6 579 1602.9 579.6C1602.2 580.2 1601.3 580.5 1600 580.5H1586.9V611.1C1586.9 613.8 1586.2 615.8 1584.8 617.2C1583.4 618.6 1581.4 619.3 1578.8 619.3H1566.9C1564.2 619.3 1562.2 618.6 1560.8 617.2C1559.4 615.8 1558.7 613.8 1558.7 611.1V580.5H1545.6C1544.3 580.5 1543.4 580.2 1542.7 579.6C1542.1 579 1541.7 578.1 1541.7 577Z" fill="white"/>
</g>
</g>
<g id="Vector_7">
<path d="M1297.7 331C1297.7 329.9 1297.7 328.8 1297.7 327.8C1297.8 327 1297.9 326.2 1298 325.4C1298.6 320.1 1298.8 314.7 1299.9 309.5C1303.5 291.5 1312.1 276.5 1327.9 266.5C1342.4 257.2 1358 254.5 1374.6 260.8C1378.5 262.3 1382.5 263.7 1386.3 265.4C1393.1 268.5 1399.8 268.4 1406.7 265.4C1412.1 263.1 1417.6 260.9 1423.2 259.2C1441 253.8 1457.6 257 1472.8 267.3C1478 270.8 1482.2 275.3 1485.8 280.8C1485 281.3 1484.4 281.8 1483.7 282.3C1449.3 306.3 1452.9 356.4 1490.4 374.8C1491.9 375.5 1492.1 376.3 1491.5 377.6C1488.1 385.3 1485.2 393.2 1481.3 400.5C1475.6 411.1 1468.8 421.1 1460.2 429.7C1455 434.9 1448.9 438.7 1441.3 439.5C1440.9 439.5 1440.6 439.9 1440.3 440.2C1440 440.2 1439.8 440.2 1439.5 440.2C1439.2 440 1438.8 439.7 1438.5 439.7C1432.1 439.6 1426.2 437.5 1420.4 435C1416.5 433.3 1412.5 431.8 1408.3 430.9C1398 428.7 1388.2 430.6 1378.7 434.8C1374.8 436.5 1370.7 437.7 1366.7 439.1C1365.3 439.6 1363.9 439.8 1362.4 440.1C1360.6 440.1 1358.9 440.1 1357.1 440.1C1351.6 438.5 1346.5 436.2 1342.1 432.5C1336.3 427.5 1331.7 421.5 1327.2 415.4C1311.7 394.2 1302.4 370.6 1298.9 344.6C1298.3 340.2 1298.1 335.6 1297.7 331Z" fill="#A6A6A6"/>
<path d="M1442.6 203.6C1442.5 224.8 1428 245.7 1408.8 252.2C1405 253.5 1400.9 253.7 1396.9 254.3C1395.1 254.6 1394.4 253.8 1394.4 251.9C1394 242.2 1396.7 233.3 1401.5 225C1410.3 210.2 1423.2 201.4 1440.2 198.6C1442.2 198.3 1442.8 198.9 1442.7 200.7C1442.6 201.7 1442.6 202.6 1442.6 203.6Z" fill="#A6A6A6"/>
</g>
</g>
<g id="news6">
<g id="Group_2">
<path id="Vector_8" d="M1064.32 977.65H56.0427C26.242 977.65 2 953.398 2 923.585V56.0655C2 26.2522 26.242 2 56.0427 2H1064.32C1094.13 2 1118.37 26.2522 1118.37 56.0655V923.585C1118.37 953.398 1094.13 977.65 1064.32 977.65Z" fill="#D4F4FF" stroke="#00BCFF" stroke-width="3" stroke-miterlimit="10" stroke-linecap="round" stroke-linejoin="round"/>
<g id="Group_3">
<path id="Vector_9" d="M3.08105 63.9434H1118.52" stroke="#00BCFF" stroke-width="3" stroke-miterlimit="10"/>
</g>
<g id="Group_4">
<path id="Vector_10" d="M50.6392 46.1797C57.0349 46.1797 62.2197 40.9927 62.2197 34.5942C62.2197 28.1958 57.0349 23.0088 50.6392 23.0088C44.2434 23.0088 39.0586 28.1958 39.0586 34.5942C39.0586 40.9927 44.2434 46.1797 50.6392 46.1797Z" fill="white"/>
<path id="Vector_11" d="M50.6389 25.3256C55.7343 25.3256 59.9033 29.4964 59.9033 34.594C59.9033 39.6916 55.7343 43.8623 50.6389 43.8623C45.5434 43.8623 41.3744 39.6916 41.3744 34.594C41.3744 29.4964 45.5434 25.3256 50.6389 25.3256ZM50.6389 20.6914C42.9185 20.6914 36.7422 26.8703 36.7422 34.594C36.7422 42.3176 42.9185 48.4965 50.6389 48.4965C58.3593 48.4965 64.5356 42.3176 64.5356 34.594C64.5356 26.8703 58.3593 20.6914 50.6389 20.6914Z" fill="#00BCFF"/>
</g>
<g id="Group_5">
<path id="Vector_12" d="M87.6968 46.1797C94.0926 46.1797 99.2774 40.9927 99.2774 34.5942C99.2774 28.1958 94.0926 23.0088 87.6968 23.0088C81.301 23.0088 76.1162 28.1958 76.1162 34.5942C76.1162 40.9927 81.301 46.1797 87.6968 46.1797Z" fill="white"/>
<path id="Vector_13" d="M87.6965 25.3256C92.792 25.3256 96.961 29.4964 96.961 34.594C96.961 39.6916 92.792 43.8623 87.6965 43.8623C82.601 43.8623 78.432 39.6916 78.432 34.594C78.432 29.4964 82.601 25.3256 87.6965 25.3256ZM87.6965 20.6914C79.9761 20.6914 73.7998 26.8703 73.7998 34.594C73.7998 42.3176 79.9761 48.4965 87.6965 48.4965C95.4169 48.4965 101.593 42.3176 101.593 34.594C101.593 26.8703 95.4169 20.6914 87.6965 20.6914Z" fill="#00BCFF"/>
</g>
<g id="Group_6">
<path id="Vector_14" d="M124.754 46.1797C131.15 46.1797 136.335 40.9927 136.335 34.5942C136.335 28.1958 131.15 23.0088 124.754 23.0088C118.359 23.0088 113.174 28.1958 113.174 34.5942C113.174 40.9927 118.359 46.1797 124.754 46.1797Z" fill="white"/>
<path id="Vector_15" d="M124.754 25.3256C129.85 25.3256 134.019 29.4964 134.019 34.594C134.019 39.6916 129.85 43.8623 124.754 43.8623C119.659 43.8623 115.49 39.6916 115.49 34.594C115.49 29.4964 119.659 25.3256 124.754 25.3256ZM124.754 20.6914C117.034 20.6914 110.857 26.8703 110.857 34.594C110.857 42.3176 117.034 48.4965 124.754 48.4965C132.475 48.4965 138.651 42.3176 138.651 34.594C138.651 26.8703 132.475 20.6914 124.754 20.6914Z" fill="#00BCFF"/>
</g>
</g>
<g id="Group_7">
<path id="Vector_16" d="M71.0208 179.952H59.9035L58.0506 194.009H41.9922L54.9624 126.041H76.1163L89.0865 194.009H73.0281L71.0208 179.952ZM69.4768 168.521L66.6974 148.131C66.3886 145.041 65.9254 142.57 65.6166 138.862H65.3078C64.9989 142.57 64.5357 145.041 64.2269 148.131L61.4476 168.521H69.4768Z" fill="#00BFFF"/>
<path id="Vector_17" d="M134.946 143.96V149.521C134.946 162.188 127.843 169.139 114.718 169.139H109.623V194.009H93.4102V126.041H114.255C127.843 125.886 134.791 132.065 134.946 143.96ZM118.424 144.269C118.424 138.862 116.726 136.545 112.557 136.545H109.469V158.017H112.557C116.726 158.017 118.424 155.545 118.424 149.057V144.269Z" fill="#00BFFF"/>
<path id="Vector_18" d="M180.341 143.96V149.521C180.341 162.188 173.238 169.139 160.114 169.139H155.018V194.009H138.96V126.041H159.805C173.238 125.886 180.341 132.065 180.341 143.96ZM163.82 144.269C163.82 138.862 162.121 136.545 157.952 136.545H154.864V158.017H157.952C162.121 158.017 163.82 155.545 163.82 149.057V144.269Z" fill="#00BFFF"/>
<path id="Vector_19" d="M184.356 125.887H200.415V180.107H216.782V193.855H184.356V125.887Z" fill="#00BFFF"/>
<path id="Vector_20" d="M254.766 181.96V194.009H220.951V126.041H254.149V138.09H236.855V153.074H252.914V164.968H236.855V181.96H254.766Z" fill="#00BFFF"/>
<path id="Vector_21" d="M272.214 174.082V146.123C272.214 131.757 280.089 124.188 294.14 124.188C307.573 124.188 315.139 130.675 315.139 143.188V150.911L298.618 153.846V143.497C298.618 138.862 296.919 136.391 293.677 136.391C290.28 136.391 288.581 139.326 288.581 144.887V174.7C288.581 180.261 290.28 183.196 293.677 183.196C296.919 183.196 298.772 180.57 298.772 175.781V164.968L314.985 168.058V175.627C314.985 188.603 306.956 195.399 293.677 195.399C279.78 195.554 272.214 188.448 272.214 174.082Z" fill="#00BFFF"/>
<path id="Vector_22" d="M345.558 179.952H334.286L332.433 194.009H316.375L329.345 126.041H350.499L363.469 194.009H347.411L345.558 179.952ZM344.014 168.521L341.235 148.131C340.926 145.041 340.463 142.57 340.154 138.862H339.845C339.536 142.57 339.073 145.041 338.764 148.131L335.985 168.521H344.014Z" fill="#00BFFF"/>
<path id="Vector_23" d="M387.711 166.822H383.85V193.855H367.792V125.887H387.711C403.151 125.887 409.173 132.992 409.173 144.732V147.513C409.173 155.237 406.24 160.18 401.453 162.96L410.563 193.855H393.887L387.711 166.822ZM386.63 157.09C391.262 157.09 392.806 154.464 392.806 148.594V143.806C392.806 138.399 391.108 136.545 386.63 136.545H383.85V157.09H386.63Z" fill="#00BFFF"/>
<path id="Vector_24" d="M414.732 125.887H434.497C449.165 125.887 457.503 133.765 457.503 148.131V170.838C457.503 185.822 449.32 193.855 434.342 193.855H414.732V125.887ZM434.033 182.578C438.666 182.578 440.982 178.407 440.982 171.765V147.204C440.982 140.407 438.974 137.163 434.033 137.163H430.636V182.578H434.033Z" fill="#00BFFF"/>
<path id="Vector_25" d="M478.04 193.855V125.887H494.099V193.855H478.04Z" fill="#00BFFF"/>
<path id="Vector_26" d="M501.818 125.887H518.649L527.913 153.383C528.84 156.472 529.766 159.871 530.538 162.806H530.847C530.693 158.172 530.538 153.383 530.538 148.749V125.887H544.28V193.855H529.303L518.649 162.806C517.568 159.098 516.487 155.854 515.715 152.611H515.406C515.561 156.936 515.715 161.261 515.715 165.895V193.855H501.818V125.887Z" fill="#00BFFF"/>
<path id="Vector_27" d="M547.832 125.887H564.354L569.449 167.131C570.067 172.538 570.376 176.245 570.53 180.107H570.993C571.148 176.245 571.302 172.383 572.074 167.131L577.17 125.887H593.537L580.875 193.855H560.493L547.832 125.887Z" fill="#00BFFF"/>
<path id="Vector_28" d="M631.057 181.96V194.009H597.242V126.041H630.44V138.09H613.146V153.074H629.205V164.968H613.146V181.96H631.057Z" fill="#00BFFF"/>
<path id="Vector_29" d="M632.139 176.554V171.147L648.351 168.058V176.554C648.351 180.724 649.741 183.35 652.984 183.35C656.226 183.35 657.462 180.879 657.462 178.253V175.318C657.462 172.074 656.844 170.375 653.138 168.212L642.175 161.724C635.072 157.553 632.756 152.61 632.756 145.196V141.488C632.756 129.439 642.33 124.342 652.984 124.342C665.336 124.342 673.674 128.822 673.674 142.415V147.358L657.616 150.293V142.106C657.616 138.862 656.535 136.082 652.984 136.082C650.204 136.082 648.66 138.244 648.66 140.716V143.651C648.66 146.431 650.359 148.749 652.984 150.293L663.792 156.781C671.513 161.415 673.674 165.741 673.674 172.846V179.18C673.674 188.448 666.572 195.863 652.829 195.863C639.859 195.554 632.139 187.676 632.139 176.554Z" fill="#00BFFF"/>
<path id="Vector_30" d="M715.055 139.326H702.239V193.855H686.335V139.326H673.674V125.887H715.055V139.326Z" fill="#00BFFF"/>
<path id="Vector_31" d="M717.989 193.855V125.887H734.048V193.855H717.989Z" fill="#00BFFF"/>
<path id="Vector_32" d="M739.915 173.001V147.667C739.915 132.838 747.79 124.342 761.995 124.342C775.12 124.342 782.84 130.675 782.84 142.261V147.667L766.473 150.602V142.879C766.473 138.244 764.929 135.927 761.686 135.927C757.981 135.927 756.282 139.017 756.282 145.196V173.928C756.282 180.106 758.135 183.35 762.15 183.35C765.701 183.35 767.554 180.57 767.554 175.936V167.749H761.378V155.854H782.686V193.855H771.26L770.642 183.505C769.252 190.611 764.466 195.399 756.128 195.399C745.474 195.554 739.915 187.676 739.915 173.001Z" fill="#00BFFF"/>
<path id="Vector_33" d="M815.112 179.952H803.84L801.987 194.009H785.929L798.899 126.041H820.053L833.023 194.009H816.965L815.112 179.952ZM813.722 168.521L810.943 148.131C810.634 145.041 810.171 142.57 809.862 138.862H809.553C809.244 142.57 808.781 145.041 808.472 148.131L805.693 168.521H813.722Z" fill="#00BFFF"/>
<path id="Vector_34" d="M868.382 139.326H855.721V193.855H839.662V139.326H827.001V125.887H868.382V139.326Z" fill="#00BFFF"/>
<path id="Vector_35" d="M905.131 181.96V194.009H871.315V126.041H904.513V138.09H887.219V153.074H903.278V164.968H887.219V181.96H905.131Z" fill="#00BFFF"/>
<path id="Vector_36" d="M910.072 125.887H929.836C944.505 125.887 952.843 133.765 952.843 148.131V170.838C952.843 185.822 944.66 193.855 929.682 193.855H910.072V125.887ZM929.373 182.578C934.005 182.578 936.322 178.407 936.322 171.765V147.204C936.322 140.407 934.314 137.163 929.373 137.163H925.976V182.578H929.373Z" fill="#00BFFF"/>
<path id="Vector_37" d="M71.0208 284.994H59.9035L58.0506 299.051H41.9922L54.9624 231.083H76.1163L89.0865 299.051H73.0281L71.0208 284.994ZM69.4768 273.563L66.6974 253.173C66.3886 250.083 65.9254 247.612 65.6166 243.904H65.3078C64.9989 247.612 64.5357 250.083 64.2269 253.173L61.4476 273.563H69.4768Z" fill="#00BFFF"/>
<path id="Vector_38" d="M107.461 242.978V258.116H123.519V270.01H107.461V298.897H91.5566V230.929H124.754V242.978H107.461Z" fill="#00BFFF"/>
<path id="Vector_39" d="M166.599 244.368H153.937V298.897H138.033V244.368H125.372V230.929H166.753V244.368H166.599Z" fill="#00BFFF"/>
<path id="Vector_40" d="M201.496 287.002V299.051H167.681V231.083H200.878V243.132H183.585V258.116H199.643V270.01H183.585V287.002H201.496Z" fill="#00BFFF"/>
<path id="Vector_41" d="M224.348 271.864H220.488V298.897H204.43V230.929H224.348C239.789 230.929 245.811 238.034 245.811 249.774V252.555C245.811 260.279 242.877 265.222 238.091 268.002L247.201 298.897H230.525L224.348 271.864ZM223.267 262.132C227.9 262.132 229.444 259.506 229.444 253.636V248.848C229.444 243.441 227.745 241.587 223.267 241.587H220.488V262.132H223.267Z" fill="#00BFFF"/>
<path id="Vector_42" d="M260.17 278.043V252.709C260.17 237.88 268.045 229.384 282.25 229.384C295.375 229.384 303.095 235.717 303.095 247.303V252.709L286.728 255.644V247.921C286.728 243.286 285.184 240.969 281.941 240.969C278.236 240.969 276.537 244.059 276.537 250.238V278.97C276.537 285.148 278.39 288.392 282.405 288.392C285.956 288.392 287.809 285.612 287.809 280.978V272.791H281.633V260.896H302.941V298.897H291.515L290.897 288.547C289.507 295.653 284.721 300.441 276.383 300.441C265.729 300.596 260.17 292.718 260.17 278.043Z" fill="#00BFFF"/>
<path id="Vector_43" d="M341.851 287.002V299.051H308.036V231.083H341.234V243.132H323.94V258.116H339.999V270.01H323.94V287.002H341.851Z" fill="#00BFFF"/>
<path id="Vector_44" d="M344.785 230.929H361.616L370.88 258.425C371.807 261.514 372.733 264.913 373.505 267.848H373.814C373.66 263.214 373.505 258.425 373.505 253.791V230.929H387.247V298.897H372.115L361.461 267.848C360.38 264.14 359.3 260.896 358.528 257.653H358.219C358.373 261.978 358.528 266.303 358.528 270.937V298.897H344.631V230.929H344.785Z" fill="#00BFFF"/>
<path id="Vector_45" d="M393.27 230.929H413.034C427.702 230.929 436.04 238.807 436.04 253.173V275.88C436.04 290.864 427.857 298.897 412.879 298.897H393.27V230.929ZM412.57 287.62C417.203 287.62 419.519 283.449 419.519 276.807V252.246C419.519 245.449 417.512 242.205 412.57 242.205H409.174V287.62H412.57Z" fill="#00BFFF"/>
<path id="Vector_46" d="M473.87 287.002V299.051H440.055V231.083H473.252V243.132H455.959V258.116H472.017V270.01H455.959V287.002H473.87Z" fill="#00BFFF"/>
<path id="Vector_47" d="M496.722 271.864H492.862V298.897H476.804V230.929H496.722C512.163 230.929 518.185 238.034 518.185 249.774V252.555C518.185 260.279 515.251 265.222 510.465 268.002L519.575 298.897H503.053L496.722 271.864ZM495.641 262.132C500.274 262.132 501.818 259.506 501.818 253.636V248.848C501.818 243.441 500.119 241.587 495.641 241.587H492.862V262.132H495.641Z" fill="#00BFFF"/>
<path id="Vector_48" d="M534.553 230.929H554.317C568.986 230.929 577.324 238.807 577.324 253.173V275.88C577.324 290.864 569.14 298.897 554.162 298.897H534.553V230.929ZM553.854 287.62C558.486 287.62 560.802 283.449 560.802 276.807V252.246C560.802 245.449 558.795 242.205 553.854 242.205H550.457V287.62H553.854Z" fill="#00BFFF"/>
<path id="Vector_49" d="M581.184 298.897V230.929H597.242V298.897H581.184Z" fill="#00BFFF"/>
<path id="Vector_50" d="M599.867 281.596V276.189L616.08 273.1V281.596C616.08 285.766 617.47 288.392 620.712 288.392C623.955 288.392 625.19 285.921 625.19 283.295V280.36C625.19 277.116 624.572 275.417 620.867 273.254L609.904 266.766C602.801 262.595 600.485 257.652 600.485 250.238V246.53C600.485 234.481 610.058 229.384 620.712 229.384C633.065 229.384 641.403 233.863 641.403 247.457V252.4L625.344 255.335V247.148C625.344 243.904 624.264 241.124 620.712 241.124C617.933 241.124 616.389 243.286 616.389 245.758V248.693C616.389 251.473 618.087 253.79 620.712 255.335L631.521 261.823C639.241 266.457 641.403 270.783 641.403 277.888V284.222C641.403 293.49 634.3 300.905 620.558 300.905C607.588 300.596 599.867 292.718 599.867 281.596Z" fill="#00BFFF"/>
<path id="Vector_51" d="M641.866 279.124V251.165C641.866 236.799 649.741 229.229 663.792 229.229C677.226 229.229 684.792 235.717 684.792 248.23V255.953L668.27 258.888V248.539C668.27 243.904 666.571 241.433 663.329 241.433C659.932 241.433 658.233 244.368 658.233 249.929V279.742C658.233 285.303 659.932 288.238 663.329 288.238C666.571 288.238 668.424 285.612 668.424 280.823V270.01L684.637 273.1V280.669C684.637 293.645 676.608 300.441 663.329 300.441C649.432 300.596 641.866 293.49 641.866 279.124Z" fill="#00BFFF"/>
<path id="Vector_52" d="M708.416 271.864H704.555V298.897H688.497V230.929H708.416C723.856 230.929 729.878 238.034 729.878 249.774V252.555C729.878 260.279 726.945 265.222 722.158 268.002L731.268 298.897H714.592L708.416 271.864ZM707.335 262.132C711.967 262.132 713.511 259.506 713.511 253.636V248.848C713.511 243.441 711.813 241.587 707.335 241.587H704.555V262.132H707.335Z" fill="#00BFFF"/>
<path id="Vector_53" d="M733.43 298.897V230.929H749.488V298.897H733.43Z" fill="#00BFFF"/>
<path id="Vector_54" d="M755.356 230.929H775.892L780.215 259.506C780.678 263.059 781.142 267.23 781.142 269.392H781.45C781.45 267.075 781.914 262.905 782.377 259.506L786.546 230.929H807.082V298.897H793.649V268.775C793.649 262.596 793.649 256.262 793.958 250.238H793.649C793.34 253.173 793.031 256.108 792.568 259.197L786.392 298.897H776.201L769.716 259.197C769.407 256.108 768.789 253.018 768.635 250.238H768.171C768.48 256.108 768.48 262.596 768.48 268.775V298.897H755.201V230.929H755.356Z" fill="#00BFFF"/>
<path id="Vector_55" d="M813.259 298.897V230.929H829.317V298.897H813.259Z" fill="#00BFFF"/>
<path id="Vector_56" d="M835.185 230.929H852.015L861.28 258.425C862.206 261.514 863.133 264.913 863.905 267.848H864.213C864.059 263.214 863.905 258.425 863.905 253.791V230.929H877.647V298.897H862.515L851.861 267.848C850.78 264.14 849.699 260.896 848.927 257.653H848.618C848.773 261.978 848.927 266.303 848.927 270.937V298.897H835.03V230.929H835.185Z" fill="#00BFFF"/>
<path id="Vector_57" d="M909.455 284.994H898.183L896.33 299.051H880.271L893.242 231.083H914.396L927.366 299.051H911.307L909.455 284.994ZM907.911 273.563L905.131 253.173C904.822 250.083 904.359 247.612 904.05 243.904H903.741C903.433 247.612 902.969 250.083 902.661 253.173L899.881 273.563H907.911Z" fill="#00BFFF"/>
<path id="Vector_58" d="M960.564 244.368H947.902V298.897H931.998V244.368H919.337V230.929H960.718V244.368H960.564Z" fill="#00BFFF"/>
<path id="Vector_59" d="M961.645 298.897V230.929H977.703V298.897H961.645Z" fill="#00BFFF"/>
<path id="Vector_60" d="M981.563 278.197V251.782C981.563 237.416 990.056 229.384 1003.8 229.384C1017.54 229.384 1026.03 237.416 1026.03 251.782V278.197C1026.03 292.563 1017.54 300.596 1003.8 300.596C990.056 300.596 981.563 292.563 981.563 278.197ZM1009.51 280.205V249.62C1009.51 244.368 1007.35 241.587 1003.8 241.587C1000.09 241.587 998.085 244.368 998.085 249.62V280.205C998.085 285.457 1000.25 288.238 1003.8 288.238C1007.35 288.238 1009.51 285.457 1009.51 280.205Z" fill="#00BFFF"/>
<path id="Vector_61" d="M1029.89 230.929H1046.72L1055.99 258.425C1056.91 261.514 1057.84 264.913 1058.61 267.848H1058.92C1058.77 263.214 1058.61 258.425 1058.61 253.791V230.929H1072.35V298.897H1057.38L1046.72 267.848C1045.64 264.14 1044.56 260.896 1043.79 257.653H1043.48C1043.63 261.978 1043.79 266.303 1043.79 270.937V298.897H1029.89V230.929Z" fill="#00BFFF"/>
<path id="Vector_62" d="M43.3818 384.165V356.206C43.3818 341.84 51.2566 334.271 65.3077 334.271C78.7412 334.271 86.3072 340.758 86.3072 353.271V360.994L69.7856 363.929V353.58C69.7856 348.945 68.0871 346.474 64.8445 346.474C61.4475 346.474 59.7491 349.409 59.7491 354.97V384.783C59.7491 390.344 61.4475 393.279 64.8445 393.279C68.0871 393.279 69.94 390.653 69.94 385.864V375.051L86.1528 378.141V385.71C86.1528 398.686 78.1236 405.482 64.8445 405.482C50.7934 405.637 43.3818 398.531 43.3818 384.165Z" fill="#00BFFF"/>
<path id="Vector_63" d="M89.8584 383.238V356.823C89.8584 342.457 98.3508 334.425 112.093 334.425C125.835 334.425 134.328 342.457 134.328 356.823V383.238C134.328 397.604 125.835 405.637 112.093 405.637C98.3508 405.637 89.8584 397.604 89.8584 383.238ZM117.806 385.246V354.661C117.806 349.409 115.644 346.628 112.093 346.628C108.387 346.628 106.38 349.409 106.38 354.661V385.246C106.38 390.498 108.542 393.279 112.093 393.279C115.799 393.279 117.806 390.498 117.806 385.246Z" fill="#00BFFF"/>
<path id="Vector_64" d="M140.195 335.97H160.732L165.055 364.547C165.518 368.1 165.981 372.271 165.981 374.433H166.29C166.29 372.116 166.753 367.946 167.217 364.547L171.386 335.97H191.922V403.938H178.488V373.816C178.488 367.637 178.488 361.303 178.797 355.279H178.488C178.18 358.214 177.871 361.149 177.408 364.238L171.231 403.938H161.04L154.555 364.238C154.246 361.149 153.629 358.059 153.474 355.279H153.011C153.32 361.149 153.32 367.637 153.32 373.816V403.938H140.195V335.97Z" fill="#00BFFF"/>
<path id="Vector_65" d="M241.487 354.043V359.604C241.487 372.271 234.384 379.222 221.259 379.222H216.164V404.092H200.105V336.124H220.951C234.384 335.969 241.332 342.148 241.487 354.043ZM224.965 354.352C224.965 348.945 223.267 346.628 219.098 346.628H216.009V368.1H219.098C223.267 368.1 224.965 365.628 224.965 359.14V354.352Z" fill="#00BFFF"/>
<path id="Vector_66" d="M245.501 335.97H261.559V390.19H277.927V403.938H245.501V335.97Z" fill="#00BFFF"/>
<path id="Vector_67" d="M310.507 390.035H299.236L297.383 404.092H281.324L294.294 336.124H315.448L328.419 404.092H312.36L310.507 390.035ZM308.963 378.604L306.184 358.214C305.875 355.124 305.412 352.653 305.103 348.945H304.794C304.485 352.653 304.022 355.124 303.713 358.214L300.934 378.604H308.963Z" fill="#00BFFF"/>
<path id="Vector_68" d="M332.896 403.938V335.97H348.955V403.938H332.896Z" fill="#00BFFF"/>
<path id="Vector_69" d="M356.675 335.97H373.505L382.77 363.466C383.696 366.555 384.623 369.954 385.395 372.889H385.703C385.549 368.255 385.395 363.466 385.395 358.832V335.97H399.137V403.938H384.159L373.505 372.889C372.424 369.181 371.344 365.937 370.572 362.694H370.263C370.417 367.019 370.572 371.344 370.572 375.978V403.938H356.675V335.97Z" fill="#00BFFF"/>
<path id="Vector_70" d="M443.607 349.409H430.945V403.938H415.041V349.409H402.38V335.97H443.761V349.409H443.607Z" fill="#00BFFF"/>
<path id="Vector_71" d="M443.298 386.637V381.23L459.511 378.141V386.637C459.511 390.807 460.9 393.433 464.143 393.433C467.385 393.433 468.621 390.962 468.621 388.336V385.401C468.621 382.157 468.003 380.458 464.297 378.295L453.334 371.807C446.232 367.636 443.916 362.693 443.916 355.279V351.571C443.916 339.522 453.489 334.425 464.143 334.425C476.496 334.425 484.834 338.905 484.834 352.498V357.441L468.775 360.376V352.189C468.775 348.945 467.694 346.165 464.143 346.165C461.364 346.165 459.82 348.327 459.82 350.799V353.734C459.82 356.514 461.518 358.832 464.143 360.376L474.951 366.864C482.672 371.498 484.834 375.824 484.834 382.929V389.263C484.834 398.531 477.731 405.946 463.989 405.946C451.018 405.637 443.298 397.759 443.298 386.637Z" fill="#00BFFF"/>
</g>
<g id="Group_8">
<path id="Vector_72" d="M62.9905 500.02H49.7115L46.4689 511.914H42.1455L54.0349 471.288H58.6671L70.5565 511.914H66.3875L62.9905 500.02ZM62.0641 496.622L57.5863 480.711C57.1231 478.857 56.8142 477.313 56.5054 475.613H56.351C56.0422 477.313 55.7334 478.857 55.2702 480.711L50.7923 496.622H62.0641Z" fill="#00BFFF"/>
<path id="Vector_73" d="M86.9238 483.338H90.784V489.208C91.8649 485.037 94.953 482.565 98.9676 482.565C104.99 482.565 108.386 487.354 108.386 497.549C108.386 507.281 104.681 512.533 98.5044 512.533C94.6442 512.533 92.0193 510.062 90.784 506.354V523.037H86.9238V483.338ZM104.063 497.549C104.063 489.517 101.901 485.964 97.7324 485.964C93.5634 485.964 90.9384 489.671 90.9384 495.232V500.021C90.9384 505.736 93.5634 509.289 97.578 509.289C101.901 509.289 104.063 505.736 104.063 497.549Z" fill="#00BFFF"/>
<path id="Vector_74" d="M126.452 482.72C126.761 482.72 126.915 482.72 127.379 482.72V486.736C127.07 486.736 126.915 486.736 126.761 486.736C124.29 486.736 122.746 487.663 121.665 489.208C119.813 491.37 119.504 494.769 119.504 498.013V511.915H115.644V483.338H119.349V490.134C119.967 485.964 122.437 482.72 126.452 482.72Z" fill="#00BFFF"/>
<path id="Vector_75" d="M130.004 497.549C130.004 487.045 134.173 482.565 140.812 482.565C147.452 482.565 151.621 487.045 151.621 497.549C151.621 508.053 147.452 512.533 140.812 512.533C134.173 512.533 130.004 508.053 130.004 497.549ZM147.606 497.549C147.606 488.59 144.827 485.655 140.812 485.655C136.952 485.655 134.173 488.59 134.173 497.549C134.173 506.509 136.952 509.444 140.812 509.444C144.827 509.444 147.606 506.509 147.606 497.549Z" fill="#00BFFF"/>
<path id="Vector_76" d="M162.121 483.338V488.59C163.202 484.728 165.672 482.565 169.224 482.565C172.775 482.565 174.937 484.574 175.863 488.281C177.253 484.574 179.723 482.565 183.12 482.565C187.753 482.565 190.223 485.655 190.223 491.37V511.761H186.363V492.143C186.363 487.972 184.819 485.809 181.731 485.809C178.179 485.809 176.326 488.59 176.326 493.842V511.761H172.466V491.988C172.466 487.972 170.922 485.809 167.834 485.809C164.283 485.809 162.275 488.899 162.275 494.151V511.761H158.415V483.183H162.121V483.338Z" fill="#00BFFF"/>
<path id="Vector_77" d="M197.943 472.061H202.267V478.394H197.943V472.061ZM198.252 483.337H202.112V511.915H198.252V483.337Z" fill="#00BFFF"/>
<path id="Vector_78" d="M210.759 483.338H214.465V489.053C215.854 484.728 218.479 482.565 222.494 482.565C227.589 482.565 230.214 485.809 230.214 492.297V511.915H226.354V492.761C226.354 488.281 224.655 485.964 221.104 485.964C216.935 485.964 214.773 489.362 214.773 496.005V511.915H210.913V483.338H210.759Z" fill="#00BFFF"/>
<path id="Vector_79" d="M256.927 498.322H240.251C240.405 506.045 242.567 509.135 247.045 509.135C250.287 509.135 252.758 507.281 253.221 502.956L256.772 503.883C256 509.444 252.295 512.533 247.045 512.533C240.714 512.533 236.391 508.517 236.391 497.549C236.391 486.427 240.868 482.565 246.89 482.565C253.221 482.565 256.927 486.736 256.927 495.232V498.322ZM252.912 495.387C252.912 488.435 250.751 485.655 246.89 485.655C243.185 485.655 240.405 487.663 240.251 495.387H252.912Z" fill="#00BFFF"/>
<path id="Vector_80" d="M263.875 483.338H267.581V489.053C268.97 484.728 271.595 482.565 275.61 482.565C280.705 482.565 283.33 485.809 283.33 492.297V511.915H279.47V492.761C279.47 488.281 277.772 485.964 274.22 485.964C270.051 485.964 267.89 489.362 267.89 496.005V511.915H264.029V483.338H263.875Z" fill="#00BFFF"/>
<path id="Vector_81" d="M287.191 483.337H291.515V476.077L295.375 474.532V483.337H301.551V486.427H295.375V504.345C295.375 507.435 296.61 508.671 299.081 508.671C300.007 508.671 300.625 508.516 301.551 508.362V511.915C300.47 512.224 299.544 512.378 298.154 512.378C293.368 512.378 291.515 509.598 291.515 504.963V486.427H287.191V483.337Z" fill="#00BFFF"/>
<path id="Vector_82" d="M318.227 502.647L322.087 502.029C322.241 506.818 324.712 509.289 328.263 509.289C331.506 509.289 333.513 507.59 333.513 504.346C333.513 501.566 332.278 500.021 329.035 499.248L325.021 498.322C320.851 497.395 318.69 494.614 318.69 490.444C318.69 485.5 322.396 482.565 327.8 482.565C333.359 482.565 337.064 485.346 337.219 491.834L333.513 492.452C333.204 487.354 331.042 485.655 327.8 485.655C324.557 485.655 322.704 487.354 322.704 490.289C322.704 492.915 323.785 494.46 326.873 495.078L331.042 496.159C335.675 497.24 337.528 500.021 337.528 504.192C337.528 509.135 334.131 512.533 328.263 512.533C322.396 512.533 318.535 509.444 318.227 502.647Z" fill="#00BFFF"/>
<path id="Vector_83" d="M342.314 497.549C342.314 487.045 346.483 482.565 353.123 482.565C359.763 482.565 363.932 487.045 363.932 497.549C363.932 508.053 359.763 512.533 353.123 512.533C346.483 512.533 342.314 508.053 342.314 497.549ZM359.917 497.549C359.917 488.59 357.138 485.655 353.123 485.655C349.263 485.655 346.483 488.59 346.483 497.549C346.483 506.509 349.263 509.444 353.123 509.444C357.138 509.444 359.917 506.509 359.917 497.549Z" fill="#00BFFF"/>
<path id="Vector_84" d="M381.534 486.427H375.357V511.915H371.497V486.427H367.174V483.337H371.652V477.776C371.652 472.988 374.277 470.053 378.754 470.053C379.835 470.053 380.762 470.207 381.534 470.362V473.76C380.762 473.606 379.99 473.606 379.372 473.606C376.593 473.606 375.357 474.996 375.357 478.24V483.337H381.534V486.427Z" fill="#00BFFF"/>
<path id="Vector_85" d="M384.468 483.337H388.791V476.077L392.651 474.532V483.337H398.828V486.427H392.651V504.345C392.651 507.435 393.887 508.671 396.357 508.671C397.284 508.671 397.901 508.516 398.828 508.362V511.915C397.747 512.224 396.82 512.378 395.431 512.378C390.644 512.378 388.791 509.598 388.791 504.963V486.427H384.468V483.337Z" fill="#00BFFF"/>
<path id="Vector_86" d="M402.688 483.338H406.702L411.026 504.81L411.489 507.899H411.643C411.798 506.818 411.952 505.891 412.106 504.81L416.739 483.338H420.908L425.54 504.81C425.694 505.736 426.003 506.818 426.158 507.899H426.312C426.312 506.818 426.621 505.736 426.775 504.81L431.099 483.338H435.113L428.474 511.915H424.305L419.518 490.135C419.364 489.208 419.209 487.972 419.055 487.045H418.9C418.746 487.972 418.592 489.208 418.437 490.135L413.65 511.915H409.481L402.688 483.338Z" fill="#00BFFF"/>
<path id="Vector_87" d="M437.893 504.655C437.893 501.72 438.973 499.712 440.672 498.321C442.216 497.085 444.532 496.159 448.083 495.541L453.488 494.614V492.606C453.488 487.972 451.944 485.963 448.238 485.963C444.069 485.963 442.525 488.281 442.525 492.606H438.51C438.665 485.346 443.142 482.874 448.238 482.874C454.569 482.874 457.348 485.809 457.348 492.76V503.264C457.348 506.972 457.502 509.752 457.966 512.069H454.105C453.951 510.37 453.642 508.362 453.642 506.663C452.561 510.37 449.628 512.842 445.459 512.842C440.826 512.533 437.893 509.443 437.893 504.655ZM453.642 501.256V497.24L448.083 498.321C444.069 499.094 442.062 500.793 442.062 504.191C442.062 507.59 443.76 509.443 447.003 509.443C451.017 509.443 453.642 506.199 453.642 501.256Z" fill="#00BFFF"/>
<path id="Vector_88" d="M476.648 482.72C476.957 482.72 477.112 482.72 477.575 482.72V486.736C477.266 486.736 477.112 486.736 476.957 486.736C474.487 486.736 472.943 487.663 471.862 489.208C470.009 491.37 469.7 494.769 469.7 498.013V511.915H465.84V483.338H469.546V490.134C470.163 485.964 472.634 482.72 476.648 482.72Z" fill="#00BFFF"/>
<path id="Vector_89" d="M500.736 498.322H484.06C484.215 506.045 486.376 509.135 490.854 509.135C494.097 509.135 496.567 507.281 497.031 502.956L500.582 503.883C499.81 509.444 496.104 512.533 490.854 512.533C484.524 512.533 480.2 508.517 480.2 497.549C480.2 486.427 484.678 482.565 490.7 482.565C497.031 482.565 500.736 486.736 500.736 495.232V498.322ZM496.876 495.387C496.876 488.435 494.715 485.655 490.854 485.655C487.149 485.655 484.369 487.663 484.215 495.387H496.876Z" fill="#00BFFF"/>
<path id="Vector_90" d="M518.494 497.549C518.494 487.817 522.2 482.565 528.376 482.565C532.082 482.565 534.861 484.727 535.942 488.744V470.361H539.802V511.76H536.097V505.89C534.707 510.061 531.928 512.532 528.067 512.532C522.046 512.532 518.494 507.435 518.494 497.549ZM536.097 499.866V495.231C536.097 489.516 533.78 485.809 529.766 485.809C525.134 485.809 522.972 489.207 522.972 497.394C522.972 505.736 525.134 509.134 529.766 509.134C533.626 509.288 536.097 505.736 536.097 499.866Z" fill="#00BFFF"/>
<path id="Vector_91" d="M567.441 498.322H550.764C550.919 506.045 553.081 509.135 557.558 509.135C560.801 509.135 563.272 507.281 563.735 502.956L567.286 503.883C566.514 509.444 562.808 512.533 557.558 512.533C551.228 512.533 546.904 508.517 546.904 497.549C546.904 486.427 551.382 482.565 557.404 482.565C563.735 482.565 567.441 486.736 567.441 495.232V498.322ZM563.426 495.387C563.426 488.435 561.264 485.655 557.404 485.655C553.698 485.655 550.919 487.663 550.764 495.387H563.426Z" fill="#00BFFF"/>
<path id="Vector_92" d="M569.911 483.338H574.08L579.639 503.574C580.102 505.119 580.256 506.509 580.565 507.745H580.72C580.874 506.509 581.183 505.119 581.646 503.574L587.205 483.338H591.374L582.881 511.915H578.712L569.911 483.338Z" fill="#00BFFF"/>
<path id="Vector_93" d="M614.227 498.322H597.551C597.705 506.045 599.867 509.135 604.345 509.135C607.587 509.135 610.058 507.281 610.521 502.956L614.072 503.883C613.3 509.444 609.594 512.533 604.345 512.533C598.014 512.533 593.69 508.517 593.69 497.549C593.69 486.427 598.168 482.565 604.19 482.565C610.521 482.565 614.227 486.736 614.227 495.232V498.322ZM610.366 495.387C610.366 488.435 608.205 485.655 604.345 485.655C600.639 485.655 597.859 487.663 597.705 495.387H610.366Z" fill="#00BFFF"/>
<path id="Vector_94" d="M625.189 511.914H621.329V470.516H625.189V511.914Z" fill="#00BFFF"/>
<path id="Vector_95" d="M632.292 497.549C632.292 487.045 636.461 482.565 643.101 482.565C649.74 482.565 653.909 487.045 653.909 497.549C653.909 508.053 649.74 512.533 643.101 512.533C636.307 512.533 632.292 508.053 632.292 497.549ZM649.74 497.549C649.74 488.59 646.961 485.655 642.946 485.655C639.086 485.655 636.307 488.59 636.307 497.549C636.307 506.509 639.086 509.444 642.946 509.444C646.961 509.444 649.74 506.509 649.74 497.549Z" fill="#00BFFF"/>
<path id="Vector_96" d="M660.703 483.338H664.409V489.208C665.49 485.037 668.578 482.565 672.593 482.565C678.615 482.565 682.012 487.354 682.012 497.549C682.012 507.281 678.306 512.533 672.129 512.533C668.269 512.533 665.644 510.062 664.409 506.354V523.037H660.549V483.338H660.703ZM677.843 497.549C677.843 489.517 675.681 485.964 671.512 485.964C667.343 485.964 664.718 489.671 664.718 495.232V500.021C664.718 505.736 667.343 509.289 671.357 509.289C675.681 509.289 677.843 505.736 677.843 497.549Z" fill="#00BFFF"/>
<path id="Vector_97" d="M707.644 498.322H690.968C691.122 506.045 693.284 509.135 697.762 509.135C701.004 509.135 703.475 507.281 703.938 502.956L707.489 503.883C706.717 509.444 703.011 512.533 697.762 512.533C691.431 512.533 687.107 508.517 687.107 497.549C687.107 486.427 691.585 482.565 697.607 482.565C703.938 482.565 707.644 486.736 707.644 495.232V498.322ZM703.783 495.387C703.783 488.435 701.622 485.655 697.762 485.655C694.056 485.655 691.276 487.663 691.122 495.387H703.783Z" fill="#00BFFF"/>
<path id="Vector_98" d="M725.709 482.72C726.018 482.72 726.172 482.72 726.636 482.72V486.736C726.327 486.736 726.172 486.736 726.018 486.736C723.547 486.736 722.003 487.663 720.923 489.208C719.07 491.37 718.761 494.769 718.761 498.013V511.915H714.592V483.338H718.298V490.134C719.224 485.964 721.695 482.72 725.709 482.72Z" fill="#00BFFF"/>
<path id="Vector_99" d="M740.223 502.647L744.083 502.029C744.237 506.818 746.708 509.289 750.259 509.289C753.502 509.289 755.509 507.59 755.509 504.346C755.509 501.566 754.274 500.021 751.031 499.248L747.017 498.322C742.848 497.395 740.686 494.614 740.686 490.444C740.686 485.5 744.392 482.565 749.796 482.565C755.355 482.565 759.06 485.346 759.215 491.834L755.509 492.452C755.2 487.354 753.038 485.655 749.796 485.655C746.553 485.655 744.7 487.354 744.7 490.289C744.7 492.915 745.781 494.46 748.869 495.078L753.038 496.159C757.671 497.24 759.524 500.021 759.524 504.192C759.524 509.135 756.127 512.533 750.259 512.533C744.392 512.533 740.531 509.444 740.223 502.647Z" fill="#00BFFF"/>
<path id="Vector_100" d="M764.156 504.655C764.156 501.72 765.237 499.712 766.936 498.321C768.48 497.085 770.796 496.159 774.347 495.541L779.751 494.614V492.606C779.751 487.972 778.207 485.963 774.502 485.963C770.333 485.963 768.788 488.281 768.788 492.606H764.774C764.928 485.346 769.406 482.874 774.502 482.874C780.832 482.874 783.612 485.809 783.612 492.76V503.264C783.612 506.972 783.766 509.752 784.229 512.069H780.369C780.215 510.37 779.906 508.362 779.906 506.663C778.825 510.37 775.891 512.842 771.722 512.842C767.09 512.533 764.156 509.443 764.156 504.655ZM779.751 501.256V497.24L774.193 498.321C770.178 499.094 768.171 500.793 768.171 504.191C768.171 507.59 769.869 509.443 773.112 509.443C777.126 509.443 779.751 506.199 779.751 501.256Z" fill="#00BFFF"/>
<path id="Vector_101" d="M791.641 472.061H795.964V478.394H791.641V472.061ZM791.795 483.337H795.655V511.915H791.795V483.337Z" fill="#00BFFF"/>
<path id="Vector_102" d="M802.604 497.549C802.604 487.817 806.309 482.565 812.486 482.565C816.191 482.565 818.971 484.727 820.052 488.744V470.361H823.912V511.76H820.206V505.89C818.816 510.061 816.037 512.532 812.177 512.532C806.001 512.532 802.604 507.435 802.604 497.549ZM820.052 499.866V495.231C820.052 489.516 817.735 485.809 813.721 485.809C809.089 485.809 806.927 489.207 806.927 497.394C806.927 505.736 809.089 509.134 813.721 509.134C817.581 509.288 820.052 505.736 820.052 499.866Z" fill="#00BFFF"/>
<path id="Vector_103" d="M843.521 497.549C843.521 487.045 847.69 482.565 854.33 482.565C860.97 482.565 865.139 487.045 865.139 497.549C865.139 508.053 860.97 512.533 854.33 512.533C847.69 512.533 843.521 508.053 843.521 497.549ZM861.124 497.549C861.124 488.59 858.345 485.655 854.33 485.655C850.47 485.655 847.691 488.59 847.691 497.549C847.691 506.509 850.47 509.444 854.33 509.444C858.345 509.444 861.124 506.509 861.124 497.549Z" fill="#00BFFF"/>
<path id="Vector_104" d="M872.087 483.338H875.793V489.053C877.182 484.728 879.807 482.565 883.822 482.565C888.917 482.565 891.542 485.809 891.542 492.297V511.915H887.528V492.761C887.528 488.281 885.829 485.964 882.278 485.964C878.109 485.964 875.947 489.362 875.947 496.005V511.915H872.087V483.338Z" fill="#00BFFF"/>
<path id="Vector_105" d="M930.917 474.995H920.263V511.914H916.094V474.995H905.439V471.288H930.917V474.995Z" fill="#00BFFF"/>
<path id="Vector_106" d="M929.836 483.338H933.85L938.174 504.81L938.637 507.899H938.792C938.946 506.818 939.1 505.891 939.255 504.81L943.887 483.338H948.056L952.688 504.81C952.843 505.736 953.151 506.818 953.306 507.899H953.46C953.46 506.818 953.769 505.736 953.923 504.81L958.247 483.338H962.261L955.622 511.915H951.453L946.666 490.135C946.512 489.208 946.357 487.972 946.203 487.045H946.049C945.894 487.972 945.74 489.208 945.585 490.135L940.799 511.915H936.63L929.836 483.338Z" fill="#00BFFF"/>
<path id="Vector_107" d="M967.82 472.061H972.144V478.394H967.82V472.061ZM967.975 483.337H971.835V511.915H967.975V483.337Z" fill="#00BFFF"/>
<path id="Vector_108" d="M977.085 483.337H981.408V476.077L985.269 474.532V483.337H991.445V486.427H985.269V504.345C985.269 507.435 986.504 508.671 988.974 508.671C989.901 508.671 990.518 508.516 991.445 508.362V511.915C990.364 512.224 989.438 512.378 988.048 512.378C983.261 512.378 981.408 509.598 981.408 504.963V486.427H977.085V483.337Z" fill="#00BFFF"/>
<path id="Vector_109" d="M994.687 483.337H999.01V476.077L1002.87 474.532V483.337H1009.05V486.427H1002.87V504.345C1002.87 507.435 1004.11 508.671 1006.58 508.671C1007.5 508.671 1008.12 508.516 1009.05 508.362V511.915C1007.97 512.224 1007.04 512.378 1005.65 512.378C1000.86 512.378 999.01 509.598 999.01 504.963V486.427H994.687V483.337Z" fill="#00BFFF"/>
<path id="Vector_110" d="M1032.98 498.322H1016.3C1016.46 506.045 1018.62 509.135 1023.1 509.135C1026.34 509.135 1028.81 507.281 1029.27 502.956L1032.83 503.883C1032.05 509.444 1028.35 512.533 1023.1 512.533C1016.77 512.533 1012.44 508.517 1012.44 497.549C1012.44 486.427 1016.92 482.565 1022.94 482.565C1029.27 482.565 1032.98 486.736 1032.98 495.232V498.322ZM1028.96 495.387C1028.96 488.435 1026.8 485.655 1022.94 485.655C1019.24 485.655 1016.46 487.663 1016.3 495.387H1028.96Z" fill="#00BFFF"/>
<path id="Vector_111" d="M1050.89 482.72C1051.2 482.72 1051.35 482.72 1051.82 482.72V486.736C1051.51 486.736 1051.35 486.736 1051.2 486.736C1048.73 486.736 1047.19 487.663 1046.1 489.208C1044.25 491.37 1043.94 494.769 1043.94 498.013V511.915H1040.08V483.338H1043.79V490.134C1044.56 485.964 1047.03 482.72 1050.89 482.72Z" fill="#00BFFF"/>
<path id="Vector_112" d="M41.8369 552.85H46.1603V545.59L50.0205 544.045V552.85H56.1968V555.939H50.0205V573.858C50.0205 576.948 51.2558 578.183 53.7263 578.183C54.6528 578.183 55.2704 578.029 56.1968 577.875V581.427C55.116 581.736 54.1895 581.891 52.7999 581.891C48.0132 581.891 46.1603 579.11 46.1603 574.476V555.939H41.8369V552.85Z" fill="#00BFFF"/>
<path id="Vector_113" d="M62.373 540.028H66.2332V558.411C67.3141 554.394 70.2478 552.077 74.108 552.077C79.0491 552.077 81.674 555.321 81.674 561.809V581.427H77.8138V562.118C77.8138 557.793 76.1153 555.476 72.564 555.476C68.395 555.476 66.2332 558.874 66.2332 565.516V581.427H62.373V540.028Z" fill="#00BFFF"/>
<path id="Vector_114" d="M87.6963 574.167C87.6963 571.232 88.7771 569.224 90.4756 567.834C92.0197 566.598 94.3358 565.671 97.8872 565.054L103.291 564.127V562.119C103.291 557.484 101.747 555.476 98.0416 555.476C93.8726 555.476 92.3285 557.793 92.3285 562.119H88.3139C88.4683 554.858 92.9462 552.387 98.0416 552.387C104.372 552.387 107.152 555.322 107.152 562.273V572.777C107.152 576.485 107.306 579.265 107.769 581.582H103.909C103.755 579.883 103.446 577.875 103.446 576.176C102.365 579.883 99.4313 582.354 95.2623 582.354C90.63 582.046 87.6963 578.956 87.6963 574.167ZM103.446 570.769V566.753L97.8872 567.834C93.8726 568.606 91.8653 570.306 91.8653 573.704C91.8653 577.102 93.5638 578.956 96.8063 578.956C100.821 578.956 103.446 575.712 103.446 570.769Z" fill="#00BFFF"/>
<path id="Vector_115" d="M111.166 552.85H115.489V545.59L119.35 544.045V552.85H125.526V555.939H119.35V573.858C119.35 576.948 120.585 578.183 123.055 578.183C123.982 578.183 124.599 578.029 125.526 577.875V581.427C124.445 581.736 123.519 581.891 122.129 581.891C117.342 581.891 115.489 579.11 115.489 574.476V555.939H111.166V552.85Z" fill="#00BFFF"/>
<path id="Vector_116" d="M140.194 552.85H144.518V545.59L148.378 544.045V552.85H154.554V555.939H148.378V573.858C148.378 576.948 149.613 578.183 152.084 578.183C153.01 578.183 153.628 578.029 154.554 577.875V581.427C153.473 581.736 152.547 581.891 151.157 581.891C146.371 581.891 144.518 579.11 144.518 574.476V555.939H140.194V552.85Z" fill="#00BFFF"/>
<path id="Vector_117" d="M160.576 540.028H164.436V558.411C165.517 554.394 168.451 552.077 172.311 552.077C177.252 552.077 179.877 555.321 179.877 561.809V581.427H176.017V562.118C176.017 557.793 174.318 555.476 170.767 555.476C166.598 555.476 164.436 558.874 164.436 565.516V581.427H160.576V540.028Z" fill="#00BFFF"/>
<path id="Vector_118" d="M206.744 567.834H190.068C190.223 575.558 192.384 578.647 196.862 578.647C200.105 578.647 202.575 576.794 203.038 572.469L206.59 573.395C205.818 578.956 202.112 582.046 196.862 582.046C190.531 582.046 186.208 578.03 186.208 567.062C186.208 555.94 190.686 552.078 196.708 552.078C203.038 552.078 206.744 556.249 206.744 564.745V567.834ZM202.73 564.899C202.73 557.948 200.568 555.168 196.708 555.168C193.002 555.168 190.223 557.176 190.068 564.899H202.73Z" fill="#00BFFF"/>
<path id="Vector_119" d="M224.501 567.062C224.501 557.021 228.052 552.078 235.155 552.078C240.868 552.078 244.42 555.631 244.574 562.428L240.559 562.891C240.405 557.794 238.398 555.322 235.001 555.322C230.986 555.322 228.516 558.411 228.516 567.062C228.516 575.558 230.986 578.647 235.155 578.647C238.398 578.647 240.559 576.176 240.714 570.924L244.728 571.542C244.42 578.339 240.559 582.046 235.155 582.046C228.516 582.046 224.501 577.412 224.501 567.062Z" fill="#00BFFF"/>
<path id="Vector_120" d="M262.486 552.232C262.794 552.232 262.949 552.232 263.412 552.232V556.249C263.103 556.249 262.949 556.249 262.794 556.249C260.324 556.249 258.78 557.176 257.699 558.72C255.846 560.883 255.537 564.281 255.537 567.525V581.428H251.368V552.85H255.074V559.647C256 555.476 258.471 552.232 262.486 552.232Z" fill="#00BFFF"/>
<path id="Vector_121" d="M286.573 567.834H269.897C270.052 575.558 272.213 578.647 276.691 578.647C279.934 578.647 282.404 576.794 282.868 572.469L286.419 573.395C285.647 578.956 281.941 582.046 276.691 582.046C270.361 582.046 266.037 578.03 266.037 567.062C266.037 555.94 270.515 552.078 276.537 552.078C282.868 552.078 286.573 556.249 286.573 564.745V567.834ZM282.559 564.899C282.559 557.948 280.397 555.168 276.537 555.168C272.831 555.168 270.052 557.176 269.897 564.899H282.559Z" fill="#00BFFF"/>
<path id="Vector_122" d="M291.668 567.062C291.668 557.33 295.374 552.078 301.55 552.078C305.256 552.078 308.035 554.241 309.116 558.257V539.875H312.976V581.274H309.27V575.404C307.881 579.574 305.101 582.046 301.241 582.046C295.065 582.046 291.668 576.948 291.668 567.062ZM309.116 569.379V564.745C309.116 559.03 306.8 555.322 302.785 555.322C298.153 555.322 295.991 558.721 295.991 566.908C295.991 575.249 298.153 578.648 302.785 578.648C306.646 578.802 309.116 575.249 309.116 569.379Z" fill="#00BFFF"/>
<path id="Vector_123" d="M321.624 541.573H325.947V547.907H321.624V541.573ZM321.778 552.85H325.639V581.427H321.778V552.85Z" fill="#00BFFF"/>
<path id="Vector_124" d="M330.889 552.85H335.212V545.59L339.072 544.045V552.85H345.249V555.939H339.072V573.858C339.072 576.948 340.308 578.183 342.778 578.183C343.704 578.183 344.322 578.029 345.249 577.875V581.427C344.168 581.736 343.241 581.891 341.852 581.891C337.065 581.891 335.212 579.11 335.212 574.476V555.939H330.889V552.85Z" fill="#00BFFF"/>
<path id="Vector_125" d="M362.079 567.062C362.079 557.021 365.63 552.078 372.733 552.078C378.446 552.078 381.998 555.631 382.152 562.428L378.138 562.891C377.983 557.794 375.976 555.322 372.579 555.322C368.564 555.322 366.094 558.411 366.094 567.062C366.094 575.558 368.564 578.647 372.733 578.647C375.976 578.647 378.138 576.176 378.292 570.924L382.307 571.542C381.998 578.339 378.138 582.046 372.733 582.046C366.094 582.046 362.079 577.412 362.079 567.062Z" fill="#00BFFF"/>
<path id="Vector_126" d="M386.784 574.167C386.784 571.232 387.865 569.224 389.564 567.834C391.108 566.598 393.424 565.671 396.975 565.054L402.379 564.127V562.119C402.379 557.484 400.835 555.476 397.129 555.476C392.96 555.476 391.416 557.793 391.416 562.119H387.402C387.556 554.858 392.034 552.387 397.129 552.387C403.46 552.387 406.24 555.322 406.24 562.273V572.777C406.24 576.485 406.394 579.265 406.857 581.582H402.997C402.843 579.883 402.534 577.875 402.534 576.176C401.453 579.883 398.519 582.354 394.35 582.354C389.718 582.046 386.784 578.956 386.784 574.167ZM402.379 570.769V566.753L396.821 567.834C392.806 568.606 390.799 570.306 390.799 573.704C390.799 577.102 392.497 578.956 395.74 578.956C399.754 578.956 402.379 575.712 402.379 570.769Z" fill="#00BFFF"/>
<path id="Vector_127" d="M425.54 552.232C425.849 552.232 426.003 552.232 426.466 552.232V556.249C426.158 556.249 426.003 556.249 425.849 556.249C423.378 556.249 421.834 557.176 420.753 558.72C418.9 560.883 418.592 564.281 418.592 567.525V581.428H414.731V552.85H418.437V559.647C419.055 555.476 421.525 552.232 425.54 552.232Z" fill="#00BFFF"/>
<path id="Vector_128" d="M429.092 567.062C429.092 557.33 432.798 552.078 438.974 552.078C442.68 552.078 445.459 554.241 446.54 558.257V539.875H450.4V581.274H446.694V575.404C445.305 579.574 442.525 582.046 438.665 582.046C432.643 582.046 429.092 576.948 429.092 567.062ZM446.54 569.379V564.745C446.54 559.03 444.224 555.322 440.209 555.322C435.577 555.322 433.415 558.721 433.415 566.908C433.415 575.249 435.577 578.648 440.209 578.648C444.224 578.802 446.54 575.249 446.54 569.379Z" fill="#00BFFF"/>
<path id="Vector_129" d="M468.465 552.851H472.479L476.803 574.322L477.266 577.412H477.42C477.575 576.33 477.729 575.404 477.884 574.322L482.516 552.851H486.685L491.317 574.322C491.472 575.249 491.78 576.33 491.935 577.412H492.089C492.089 576.33 492.398 575.249 492.552 574.322L496.876 552.851H500.89L494.251 581.428H490.082L485.295 559.647C485.141 558.721 484.986 557.485 484.832 556.558H484.678C484.523 557.485 484.369 558.721 484.214 559.647L479.428 581.428H475.259L468.465 552.851Z" fill="#00BFFF"/>
<path id="Vector_130" d="M503.67 574.167C503.67 571.232 504.751 569.224 506.449 567.834C507.993 566.598 510.309 565.671 513.861 565.054L519.265 564.127V562.119C519.265 557.484 517.721 555.476 514.015 555.476C509.846 555.476 508.302 557.793 508.302 562.119H504.288C504.442 554.858 508.92 552.387 514.015 552.387C520.346 552.387 523.125 555.322 523.125 562.273V572.777C523.125 576.485 523.28 579.265 523.743 581.582H520.037C519.883 579.883 519.574 577.875 519.574 576.176C518.493 579.883 515.559 582.354 511.39 582.354C506.604 582.046 503.67 578.956 503.67 574.167ZM519.419 570.769V566.753L513.861 567.834C509.846 568.606 507.839 570.306 507.839 573.704C507.839 577.102 509.537 578.956 512.78 578.956C516.795 578.956 519.419 575.712 519.419 570.769Z" fill="#00BFFF"/>
<path id="Vector_131" d="M529.302 572.16L533.162 571.542C533.316 576.33 535.787 578.802 539.338 578.802C542.581 578.802 544.588 577.103 544.588 573.859C544.588 571.078 543.353 569.534 540.11 568.761L536.096 567.834C531.927 566.907 529.765 564.127 529.765 559.956C529.765 555.013 533.471 552.078 538.875 552.078C544.434 552.078 548.14 554.859 548.294 561.346L544.588 561.964C544.279 556.867 542.118 555.168 538.875 555.168C535.633 555.168 533.78 556.867 533.78 559.802C533.78 562.428 534.86 563.973 537.949 564.59L542.118 565.672C546.75 566.753 548.603 569.534 548.603 573.704C548.603 578.647 545.206 582.046 539.338 582.046C533.471 582.046 529.765 578.956 529.302 572.16Z" fill="#00BFFF"/>
<path id="Vector_132" d="M572.382 542.037C569.911 543.427 569.602 544.663 569.602 547.289V547.598H572.227V553.776H567.132V547.752C567.132 543.581 568.058 541.573 571.301 540.028L572.382 542.037ZM580.411 542.037C577.94 543.427 577.632 544.663 577.632 547.289V547.598H580.257V553.776H575.161V547.752C575.161 543.581 576.088 541.573 579.33 540.028L580.411 542.037Z" fill="#00BFFF"/>
<path id="Vector_133" d="M584.426 572.16L588.286 571.542C588.44 576.33 590.911 578.802 594.462 578.802C597.705 578.802 599.712 577.103 599.712 573.859C599.712 571.078 598.477 569.534 595.234 568.761L591.22 567.834C587.051 566.907 584.889 564.127 584.889 559.956C584.889 555.013 588.595 552.078 593.999 552.078C599.558 552.078 603.264 554.859 603.418 561.346L599.712 561.964C599.403 556.867 597.242 555.168 593.999 555.168C590.756 555.168 588.904 556.867 588.904 559.802C588.904 562.428 589.984 563.973 593.073 564.59L597.242 565.672C601.874 566.753 603.727 569.534 603.727 573.704C603.727 578.647 600.33 582.046 594.462 582.046C588.595 582.046 584.735 578.956 584.426 572.16Z" fill="#00BFFF"/>
<path id="Vector_134" d="M629.05 567.834H612.374C612.528 575.558 614.69 578.647 619.168 578.647C622.41 578.647 624.881 576.794 625.344 572.469L628.895 573.395C628.123 578.956 624.418 582.046 619.168 582.046C612.837 582.046 608.514 578.03 608.514 567.062C608.514 555.94 612.992 552.078 619.013 552.078C625.344 552.078 629.05 556.249 629.05 564.745V567.834ZM625.19 564.899C625.19 557.948 623.028 555.168 619.168 555.168C615.462 555.168 612.683 557.176 612.528 564.899H625.19Z" fill="#00BFFF"/>
<path id="Vector_135" d="M639.858 566.444L632.137 552.851H636.461L640.784 561.347C641.402 562.428 641.865 563.355 642.174 564.127H642.328C642.483 563.355 642.946 562.428 643.718 561.347L647.732 553.005H652.21L644.644 566.908L652.982 581.583H648.659L643.718 572.314C643.1 571.233 642.637 570.306 642.328 569.534H642.019C641.865 570.306 641.402 571.233 640.63 572.314L635.689 581.583H631.365L639.858 566.444Z" fill="#00BFFF"/>
<path id="Vector_136" d="M657.77 541.573H662.093V547.907H657.77V541.573ZM657.924 552.85H661.784V581.427H657.924V552.85Z" fill="#00BFFF"/>
<path id="Vector_137" d="M668.578 572.16L672.438 571.542C672.593 576.33 675.063 578.802 678.615 578.802C681.857 578.802 683.864 577.103 683.864 573.859C683.864 571.078 682.629 569.534 679.387 568.761L675.372 567.834C671.203 566.907 669.041 564.127 669.041 559.956C669.041 555.013 672.747 552.078 678.151 552.078C683.71 552.078 687.416 554.859 687.57 561.346L683.71 561.964C683.401 556.867 681.24 555.168 677.997 555.168C674.754 555.168 672.902 556.867 672.902 559.802C672.902 562.428 673.982 563.973 677.071 564.59L681.24 565.672C685.872 566.753 687.725 569.534 687.725 573.704C687.725 578.647 684.328 582.046 678.46 582.046C672.747 582.046 668.887 578.956 668.578 572.16Z" fill="#00BFFF"/>
<path id="Vector_138" d="M690.812 552.85H695.136V545.59L698.996 544.045V552.85H705.172V555.939H698.996V573.858C698.996 576.948 700.231 578.183 702.702 578.183C703.628 578.183 704.246 578.029 705.172 577.875V581.427C704.092 581.736 703.165 581.891 701.776 581.891C696.989 581.891 695.136 579.11 695.136 574.476V555.939H690.812V552.85Z" fill="#00BFFF"/>
<path id="Vector_139" d="M711.194 552.541C713.665 551.15 713.974 549.915 713.974 547.289V546.98H711.349V540.801H716.444V546.825C716.444 550.996 715.518 553.004 712.275 554.549L711.194 552.541ZM719.224 552.541C721.694 551.15 722.003 549.915 722.003 547.289V546.98H719.378V540.801H724.473V546.825C724.473 550.996 723.547 553.004 720.304 554.549L719.224 552.541Z" fill="#00BFFF"/>
<path id="Vector_140" d="M729.414 574.167C729.414 571.232 730.495 569.224 732.193 567.834C733.737 566.598 736.054 565.671 739.605 565.054L745.009 564.127V562.119C745.009 557.484 743.465 555.476 739.759 555.476C735.59 555.476 734.046 557.793 734.046 562.119H730.032C730.186 554.858 734.664 552.387 739.759 552.387C746.09 552.387 748.869 555.322 748.869 562.273V572.777C748.869 576.485 749.024 579.265 749.487 581.582H745.627C745.472 579.883 745.164 577.875 745.164 576.176C744.083 579.883 741.149 582.354 736.98 582.354C732.348 582.046 729.414 578.956 729.414 574.167ZM745.009 570.769V566.753L739.451 567.834C735.436 568.606 733.429 570.306 733.429 573.704C733.429 577.102 735.127 578.956 738.37 578.956C742.384 578.956 745.009 575.712 745.009 570.769Z" fill="#00BFFF"/>
<path id="Vector_141" d="M771.105 554.087C773.112 555.786 774.193 558.412 774.193 561.81C774.193 567.835 770.95 571.542 764.929 571.542C763.23 571.542 761.84 571.233 760.605 570.615C759.524 571.079 758.752 572.16 758.752 573.396C758.752 575.095 759.987 576.176 762.612 576.485L768.943 577.103C773.73 577.566 776.818 580.347 776.818 584.672C776.818 590.079 772.803 593.323 765.237 593.323C757.98 593.323 754.274 590.233 754.274 585.753C754.274 582.818 755.973 580.501 759.061 579.575C756.745 578.648 755.51 576.948 755.51 574.786C755.51 572.314 757.054 570.77 759.37 569.997C757.054 568.298 755.818 565.518 755.818 561.81C755.818 555.94 759.061 552.078 765.083 552.078C766.936 552.078 768.48 552.387 769.715 553.16C770.487 550.225 772.649 548.371 775.737 548.371C776.2 548.371 776.509 548.371 776.972 548.526V551.769C776.355 551.615 776.046 551.615 775.428 551.615C773.267 551.615 771.877 552.542 771.105 554.087ZM761.532 580.038C761.223 580.038 760.914 580.038 760.76 579.883C758.752 580.81 757.826 582.51 757.826 584.672C757.826 588.379 760.605 590.233 765.392 590.233C770.642 590.233 772.803 588.225 772.803 584.827C772.803 581.892 771.259 580.501 767.862 580.192L761.532 580.038ZM770.333 561.81C770.333 557.176 768.171 554.859 764.929 554.859C761.532 554.859 759.37 557.33 759.37 561.81C759.37 566.444 761.532 568.916 764.929 568.916C768.326 568.916 770.333 566.444 770.333 561.81Z" fill="#00BFFF"/>
<path id="Vector_142" d="M778.207 574.167C778.207 571.232 779.288 569.224 780.986 567.834C782.53 566.598 784.847 565.671 788.398 565.054L793.802 564.127V562.119C793.802 557.484 792.258 555.476 788.552 555.476C784.383 555.476 782.839 557.793 782.839 562.119H778.825C778.979 554.858 783.457 552.387 788.552 552.387C794.883 552.387 797.662 555.322 797.662 562.273V572.777C797.662 576.485 797.817 579.265 798.28 581.582H794.42C794.266 579.883 793.957 577.875 793.957 576.176C792.876 579.883 789.942 582.354 785.773 582.354C781.141 582.046 778.207 578.956 778.207 574.167ZM793.802 570.769V566.753L788.244 567.834C784.229 568.606 782.222 570.306 782.222 573.704C782.222 577.102 783.92 578.956 787.163 578.956C791.177 578.956 793.802 575.712 793.802 570.769Z" fill="#00BFFF"/>
<path id="Vector_143" d="M805.537 541.573H809.86V547.907H805.537V541.573ZM805.846 552.85H809.706V581.427H805.846V552.85Z" fill="#00BFFF"/>
<path id="Vector_144" d="M818.354 552.85H822.059V558.566C823.449 554.241 826.074 552.078 830.088 552.078C835.184 552.078 837.809 555.322 837.809 561.81V581.428H833.949V562.273C833.949 557.794 832.25 555.477 828.699 555.477C824.53 555.477 822.368 558.875 822.368 565.517V581.428H818.508V552.85H818.354Z" fill="#00BFFF"/>
<path id="Vector_145" d="M843.831 572.16L847.691 571.542C847.846 576.33 850.316 578.802 853.868 578.802C857.11 578.802 859.117 577.103 859.117 573.859C859.117 571.078 857.882 569.534 854.64 568.761L850.625 567.834C846.456 566.907 844.294 564.127 844.294 559.956C844.294 555.013 848 552.078 853.404 552.078C858.963 552.078 862.669 554.859 862.823 561.346L859.117 561.964C858.808 556.867 856.647 555.168 853.404 555.168C850.162 555.168 848.309 556.867 848.309 559.802C848.309 562.428 849.39 563.973 852.478 564.59L856.647 565.672C861.279 566.753 863.132 569.534 863.132 573.704C863.132 578.647 859.735 582.046 853.868 582.046C848 582.046 844.14 578.956 843.831 572.16Z" fill="#00BFFF"/>
<path id="Vector_146" d="M866.065 552.85H870.389V545.59L874.249 544.045V552.85H880.425V555.939H874.249V573.858C874.249 576.948 875.484 578.183 877.955 578.183C878.881 578.183 879.499 578.029 880.425 577.875V581.427C879.345 581.736 878.418 581.891 877.028 581.891C872.242 581.891 870.389 579.11 870.389 574.476V555.939H866.065V552.85Z" fill="#00BFFF"/>
<path id="Vector_147" d="M895.558 552.851H899.572L903.896 574.322L904.359 577.412H904.513C904.668 576.33 904.822 575.404 904.976 574.322L909.609 552.851H913.778L918.41 574.322C918.564 575.249 918.873 576.33 919.028 577.412H919.182C919.182 576.33 919.491 575.249 919.645 574.322L923.969 552.851H927.983L921.344 581.428H917.175L912.388 559.647C912.234 558.721 912.079 557.485 911.925 556.558H911.77C911.616 557.485 911.462 558.721 911.307 559.647L906.521 581.428H902.351L895.558 552.851Z" fill="#00BFFF"/>
<path id="Vector_148" d="M931.534 567.062C931.534 556.558 935.703 552.078 942.343 552.078C948.982 552.078 953.151 556.558 953.151 567.062C953.151 577.566 948.982 582.046 942.343 582.046C935.549 582.046 931.534 577.566 931.534 567.062ZM948.982 567.062C948.982 558.103 946.203 555.168 942.188 555.168C938.328 555.168 935.549 558.103 935.549 567.062C935.549 576.021 938.328 578.956 942.188 578.956C946.203 578.956 948.982 576.021 948.982 567.062Z" fill="#00BFFF"/>
<path id="Vector_149" d="M963.651 552.85V558.103C964.732 554.241 967.202 552.078 970.754 552.078C974.305 552.078 976.467 554.086 977.393 557.794C978.783 554.086 981.254 552.078 984.651 552.078C989.283 552.078 991.753 555.168 991.753 560.883V581.273H987.893V561.655C987.893 557.485 986.349 555.322 983.261 555.322C979.709 555.322 977.857 558.103 977.857 563.355V581.273H973.996V561.501C973.996 557.485 972.452 555.322 969.364 555.322C965.813 555.322 963.806 558.412 963.806 563.664V581.273H959.945V552.696H963.651V552.85Z" fill="#00BFFF"/>
<path id="Vector_150" d="M1018.47 567.834H1001.79C1001.94 575.558 1004.11 578.647 1008.58 578.647C1011.83 578.647 1014.3 576.794 1014.76 572.469L1018.31 573.395C1017.54 578.956 1013.83 582.046 1008.58 582.046C1002.25 582.046 997.93 578.03 997.93 567.062C997.93 555.94 1002.41 552.078 1008.43 552.078C1014.76 552.078 1018.47 556.249 1018.47 564.745V567.834ZM1014.45 564.899C1014.45 557.948 1012.29 555.168 1008.43 555.168C1004.72 555.168 1001.94 557.176 1001.79 564.899H1014.45Z" fill="#00BFFF"/>
<path id="Vector_151" d="M1025.26 552.85H1028.97V558.566C1030.36 554.241 1032.98 552.078 1036.99 552.078C1042.09 552.078 1044.72 555.322 1044.72 561.81V581.428H1040.85V562.273C1040.85 557.794 1039.16 555.477 1035.61 555.477C1031.44 555.477 1029.27 558.875 1029.27 565.517V581.428H1025.41V552.85H1025.26Z" fill="#00BFFF"/>
<path id="Vector_152" d="M43.2266 643.68C43.2266 640.745 44.3074 638.737 46.0059 637.347C47.55 636.111 49.8661 635.184 53.4175 634.566L58.8217 633.639V631.631C58.8217 626.997 57.2777 624.989 53.5719 624.989C49.4029 624.989 47.8588 627.306 47.8588 631.631H43.8442C43.9986 624.371 48.4764 621.899 53.5719 621.899C59.9026 621.899 62.6819 624.834 62.6819 631.786V642.29C62.6819 645.997 62.8363 648.778 63.2996 651.095H59.4394C59.285 649.396 58.9761 647.387 58.9761 645.688C57.8953 649.396 54.9615 651.867 50.7925 651.867C46.1603 651.558 43.2266 648.469 43.2266 643.68ZM58.9761 640.282V636.265L53.4175 637.347C49.4029 638.119 47.3956 639.818 47.3956 643.217C47.3956 646.615 49.094 648.469 52.3366 648.469C56.3512 648.469 58.9761 645.225 58.9761 640.282Z" fill="#00BFFF"/>
<path id="Vector_153" d="M71.0196 622.363H74.7254V628.233C75.8063 624.062 78.8944 621.591 82.909 621.591C88.931 621.591 92.3279 626.379 92.3279 636.575C92.3279 646.306 88.6221 651.559 82.4458 651.559C78.5856 651.559 75.9607 649.087 74.7254 645.38V662.063H70.8652V622.363H71.0196ZM88.1589 636.575C88.1589 628.542 85.9972 624.989 81.8282 624.989C77.6592 624.989 75.0342 628.697 75.0342 634.258V639.046C75.0342 644.762 77.6592 648.315 81.6738 648.315C85.8428 648.315 88.1589 644.762 88.1589 636.575Z" fill="#00BFFF"/>
<path id="Vector_154" d="M99.2765 622.363H102.982V628.233C104.063 624.062 107.151 621.591 111.166 621.591C117.188 621.591 120.585 626.379 120.585 636.575C120.585 646.306 116.879 651.559 110.703 651.559C106.842 651.559 104.218 649.087 102.982 645.38V662.063H99.1221V622.363H99.2765ZM116.416 636.575C116.416 628.542 114.254 624.989 110.085 624.989C105.916 624.989 103.291 628.697 103.291 634.258V639.046C103.291 644.762 105.916 648.315 109.931 648.315C114.254 648.315 116.416 644.762 116.416 636.575Z" fill="#00BFFF"/>
<path id="Vector_155" d="M131.702 650.941H127.842V609.542H131.702V650.941Z" fill="#00BFFF"/>
<path id="Vector_156" d="M138.188 662.217V658.664C138.805 658.819 139.423 658.819 139.732 658.819C142.82 658.819 144.364 656.965 145.445 653.412L146.062 650.941L136.644 622.363H140.967L146.989 642.908C147.452 644.298 147.607 645.534 147.915 646.77H148.07C148.224 645.534 148.533 644.298 148.996 643.063L154.555 622.363H158.569L149.305 653.721C147.298 660.209 144.518 662.526 140.195 662.526C139.732 662.372 138.96 662.372 138.188 662.217Z" fill="#00BFFF"/>
<path id="Vector_157" d="M163.355 611.086H167.679V617.419H163.355V611.086ZM163.51 622.362H167.37V650.94H163.51V622.362Z" fill="#00BFFF"/>
<path id="Vector_158" d="M176.172 622.363H179.878V628.079C181.267 623.753 183.892 621.591 187.907 621.591C193.002 621.591 195.627 624.835 195.627 631.323V650.941H191.767V631.786C191.767 627.306 190.069 624.989 186.517 624.989C182.348 624.989 180.186 628.388 180.186 635.03V650.941H176.326V622.363H176.172Z" fill="#00BFFF"/>
<path id="Vector_159" d="M217.862 623.599C219.869 625.298 220.95 627.924 220.95 631.323C220.95 637.347 217.707 641.055 211.685 641.055C209.987 641.055 208.597 640.746 207.362 640.128C206.281 640.591 205.509 641.673 205.509 642.908C205.509 644.608 206.744 645.689 209.369 645.998L215.7 646.616C220.487 647.079 223.575 649.86 223.575 654.185C223.575 659.591 219.56 662.835 211.994 662.835C204.737 662.835 201.031 659.746 201.031 655.266C201.031 652.331 202.73 650.014 205.818 649.087C203.502 648.16 202.267 646.461 202.267 644.299C202.267 641.827 203.811 640.282 206.127 639.51C203.811 637.811 202.575 635.03 202.575 631.323C202.575 625.453 205.818 621.591 211.84 621.591C213.693 621.591 215.237 621.9 216.472 622.672C217.244 619.737 219.406 617.884 222.494 617.884C222.957 617.884 223.266 617.884 223.729 618.038V621.282C223.112 621.128 222.803 621.128 222.185 621.128C220.023 621.128 218.634 622.055 217.862 623.599ZM208.288 649.551C207.98 649.551 207.671 649.551 207.516 649.396C205.509 650.323 204.583 652.022 204.583 654.185C204.583 657.892 207.362 659.746 212.149 659.746C217.398 659.746 219.56 657.738 219.56 654.339C219.56 651.404 218.016 650.014 214.619 649.705L208.288 649.551ZM217.09 631.323C217.09 626.689 214.928 624.372 211.685 624.372C208.288 624.372 206.127 626.843 206.127 631.323C206.127 635.957 208.288 638.429 211.685 638.429C214.928 638.429 217.09 635.957 217.09 631.323Z" fill="#00BFFF"/>
<path id="Vector_160" d="M251.523 625.452H245.347V650.94H241.487V625.452H237.009V622.363H241.487V616.802C241.487 612.013 244.112 609.078 248.589 609.078C249.67 609.078 250.597 609.233 251.369 609.387V612.785C250.597 612.631 249.825 612.631 249.207 612.631C246.428 612.631 245.192 614.021 245.192 617.265V622.363H251.369V625.452H251.523Z" fill="#00BFFF"/>
<path id="Vector_161" d="M254.147 636.575C254.147 626.07 258.316 621.591 264.956 621.591C271.596 621.591 275.765 626.07 275.765 636.575C275.765 647.079 271.596 651.558 264.956 651.558C258.316 651.558 254.147 647.079 254.147 636.575ZM271.75 636.575C271.75 627.615 268.971 624.68 264.956 624.68C261.096 624.68 258.316 627.615 258.316 636.575C258.316 645.534 261.096 648.469 264.956 648.469C268.971 648.469 271.75 645.534 271.75 636.575Z" fill="#00BFFF"/>
<path id="Vector_162" d="M293.676 621.745C293.985 621.745 294.139 621.745 294.602 621.745V625.761C294.293 625.761 294.139 625.761 293.985 625.761C291.514 625.761 289.97 626.688 288.889 628.233C287.036 630.396 286.727 633.794 286.727 637.038V650.94H282.867V622.363H286.573V629.16C287.191 624.989 289.661 621.745 293.676 621.745Z" fill="#00BFFF"/>
<path id="Vector_163" d="M308.345 636.575C308.345 626.534 311.896 621.591 318.999 621.591C324.712 621.591 328.263 625.144 328.418 631.94L324.403 632.404C324.249 627.306 322.241 624.835 318.844 624.835C314.83 624.835 312.359 627.924 312.359 636.575C312.359 645.071 314.83 648.16 318.999 648.16C322.241 648.16 324.403 645.688 324.558 640.436L328.572 641.054C328.263 647.851 324.403 651.558 318.999 651.558C312.359 651.558 308.345 646.924 308.345 636.575Z" fill="#00BFFF"/>
<path id="Vector_164" d="M346.329 621.745C346.638 621.745 346.792 621.745 347.256 621.745V625.761C346.947 625.761 346.792 625.761 346.638 625.761C344.167 625.761 342.623 626.688 341.542 628.233C339.69 630.396 339.381 633.794 339.381 637.038V650.94H335.521V622.363H339.226V629.16C339.844 624.989 342.314 621.745 346.329 621.745Z" fill="#00BFFF"/>
<path id="Vector_165" d="M370.416 637.347H353.74C353.894 645.071 356.056 648.16 360.534 648.16C363.777 648.16 366.247 646.306 366.71 641.981L370.262 642.908C369.49 648.469 365.784 651.558 360.534 651.558C354.203 651.558 349.88 647.542 349.88 636.575C349.88 625.453 354.358 621.591 360.38 621.591C366.71 621.591 370.416 625.762 370.416 634.258V637.347ZM366.556 634.412C366.556 627.461 364.394 624.68 360.534 624.68C356.828 624.68 354.049 626.688 353.894 634.412H366.556Z" fill="#00BFFF"/>
<path id="Vector_166" d="M375.512 636.575C375.512 626.843 379.218 621.591 385.394 621.591C389.1 621.591 391.879 623.754 392.96 627.77V609.388H396.82V650.786H393.114V644.916C391.725 649.087 388.945 651.559 385.085 651.559C379.063 651.559 375.512 646.461 375.512 636.575ZM392.96 638.892V634.258C392.96 628.542 390.644 624.835 386.629 624.835C381.997 624.835 379.835 628.233 379.835 636.42C379.835 644.762 381.997 648.16 386.629 648.16C390.644 648.315 392.96 644.762 392.96 638.892Z" fill="#00BFFF"/>
<path id="Vector_167" d="M405.467 611.086H409.79V617.419H405.467V611.086ZM405.621 622.362H409.481V650.94H405.621V622.362Z" fill="#00BFFF"/>
<path id="Vector_168" d="M414.731 622.363H419.055V615.102L422.915 613.558V622.363H429.091V625.452H422.915V643.371C422.915 646.46 424.15 647.696 426.621 647.696C427.547 647.696 428.165 647.542 429.091 647.387V650.94C428.011 651.249 427.084 651.403 425.694 651.403C420.908 651.403 419.055 648.623 419.055 643.989V625.452H414.731V622.363Z" fill="#00BFFF"/>
<path id="Vector_169" d="M439.437 650.941H434.342V644.762H439.437V650.941Z" fill="#00BFFF"/>
</g>
<g id="Group_9">
<path id="Vector_170" d="M48.3228 741.77C47.3963 743.469 45.0802 744.55 43.0729 744.55H42.1465V742.542H42.9185C45.6979 742.542 48.1684 740.688 48.786 737.444H50.6389V768.648H48.4772V741.77H48.3228Z" fill="#00BFFF"/>
<path id="Vector_171" d="M57.2783 766.64C61.4473 762.315 64.8443 758.762 67.6236 755.209C70.2486 751.811 71.4838 748.567 71.4838 745.323C71.4838 741.152 69.4765 738.835 65.9252 738.835C62.2194 738.835 60.0577 740.998 60.0577 745.014C60.0577 745.941 60.0577 746.868 60.3665 747.795L58.0504 747.486C57.896 746.713 57.896 745.787 57.896 744.86C57.896 739.917 60.9841 736.827 66.0796 736.827C71.0206 736.827 73.9544 739.762 73.9544 745.169C73.9544 748.722 72.5647 752.274 69.7854 755.982C67.4692 759.226 63.7634 762.933 60.2121 766.64H74.572V768.648H57.2783V766.64Z" fill="#00BFFF"/>
<path id="Vector_172" d="M90.3213 736.827H92.9462L105.916 761.543C106.534 762.933 106.997 764.014 107.461 765.559H107.615C107.461 764.014 107.461 762.624 107.461 760.461V736.827H109.622V768.648H107.152L93.8727 743.469C93.1006 742.079 92.7918 740.843 92.3286 739.453C92.483 740.998 92.483 742.234 92.483 744.396V768.648H90.3213V736.827Z" fill="#00BFFF"/>
<path id="Vector_173" d="M115.644 757.372C115.644 749.03 118.732 745.632 123.673 745.632C128.614 745.632 131.702 749.03 131.702 757.372C131.702 765.713 128.614 769.112 123.673 769.112C118.732 769.112 115.644 765.713 115.644 757.372ZM129.54 757.372C129.54 749.957 127.07 747.486 123.673 747.486C120.276 747.486 117.805 749.957 117.805 757.372C117.805 764.786 120.121 767.258 123.673 767.258C127.07 767.412 129.54 764.941 129.54 757.372Z" fill="#00BFFF"/>
<path id="Vector_174" d="M134.019 746.25H136.335L141.276 763.088C141.585 764.323 141.893 765.405 142.048 766.331H142.202C142.357 765.405 142.665 764.323 142.974 763.088L147.915 746.25H150.231L143.283 768.649H140.967L134.019 746.25Z" fill="#00BFFF"/>
<path id="Vector_175" d="M167.68 757.526H154.555C154.71 764.786 156.871 767.258 160.423 767.258C163.202 767.258 165.364 765.404 165.673 761.543L167.68 762.006C167.217 766.64 164.437 769.112 160.423 769.112C155.482 769.112 152.394 765.868 152.394 757.372C152.394 748.567 155.636 745.632 160.114 745.632C164.746 745.632 167.525 748.567 167.525 755.827V757.526H167.68ZM165.518 755.982C165.518 749.803 163.665 747.486 160.114 747.486C156.871 747.486 154.555 749.494 154.401 755.982H165.518Z" fill="#00BFFF"/>
<path id="Vector_176" d="M175.554 746.25V750.884C176.326 747.64 178.334 745.786 181.267 745.786C184.201 745.786 185.9 747.331 186.517 750.575C187.444 747.485 189.451 745.786 192.23 745.786C195.936 745.786 197.789 748.258 197.789 752.737V768.648H195.627V753.046C195.627 749.494 194.238 747.485 191.458 747.485C188.525 747.485 186.672 749.957 186.672 754.128V768.494H184.51V752.737C184.51 749.185 183.12 747.331 180.495 747.331C177.407 747.331 175.554 750.111 175.554 754.746V768.494H173.393V746.095H175.554V746.25Z" fill="#00BFFF"/>
<path id="Vector_177" d="M206.745 763.705L206.436 768.648H204.583V736.209H206.745V751.347C207.671 747.794 209.987 745.786 213.23 745.786C217.708 745.786 220.487 749.03 220.487 757.372C220.487 765.404 217.553 769.266 212.921 769.266C209.987 769.112 207.517 767.104 206.745 763.705ZM218.325 757.372C218.325 750.266 216.472 747.64 212.767 747.64C209.215 747.64 206.745 750.884 206.745 755.673V759.225C206.745 764.169 209.061 767.258 212.458 767.258C216.318 767.258 218.325 764.478 218.325 757.372Z" fill="#00BFFF"/>
<path id="Vector_178" d="M240.097 757.526H226.972C227.127 764.786 229.288 767.258 232.84 767.258C235.619 767.258 237.781 765.404 238.09 761.543L240.097 762.006C239.634 766.64 236.854 769.112 232.84 769.112C227.899 769.112 224.811 765.868 224.811 757.372C224.811 748.567 228.053 745.632 232.531 745.632C237.163 745.632 239.942 748.567 239.942 755.827V757.526H240.097ZM237.935 755.982C237.935 749.803 236.082 747.486 232.531 747.486C229.288 747.486 226.972 749.494 226.818 755.982H237.935Z" fill="#00BFFF"/>
<path id="Vector_179" d="M253.993 745.786C254.147 745.786 254.302 745.786 254.611 745.786V747.949H253.993C252.295 747.949 251.059 748.567 250.133 749.802C248.589 751.502 248.126 754.128 248.126 756.754V768.648H245.964V746.25H247.971V751.965C248.743 748.412 250.751 745.786 253.993 745.786Z" fill="#00BFFF"/>
<path id="Vector_180" d="M256.618 772.819C258.162 771.737 258.471 770.656 258.471 768.802V768.493H257.236V764.014H260.015V768.493C260.015 771.274 259.398 772.819 257.39 773.9L256.618 772.819Z" fill="#00BFFF"/>
<path id="Vector_181" d="M274.375 766.64C278.544 762.315 281.941 758.762 284.72 755.209C287.345 751.811 288.58 748.567 288.58 745.323C288.58 741.152 286.573 738.835 283.022 738.835C279.316 738.835 277.154 740.998 277.154 745.014C277.154 745.941 277.154 746.868 277.463 747.795L275.147 747.486C274.993 746.713 274.993 745.787 274.993 744.86C274.993 739.917 278.081 736.827 283.176 736.827C288.117 736.827 291.051 739.762 291.051 745.169C291.051 748.722 289.661 752.274 286.882 755.982C284.566 759.226 280.86 762.933 277.309 766.64H291.669V768.648H274.529V766.64H274.375Z" fill="#00BFFF"/>
<path id="Vector_182" d="M295.375 753.047C295.375 740.843 298.772 736.827 304.639 736.827C310.661 736.827 314.058 740.843 314.058 753.047C314.058 765.25 310.661 769.266 304.639 769.266C298.772 769.266 295.375 765.25 295.375 753.047ZM311.588 753.047C311.588 742.079 309.117 738.681 304.485 738.681C300.007 738.681 297.382 741.925 297.382 753.047C297.382 764.014 300.007 767.413 304.485 767.413C309.117 767.413 311.588 764.014 311.588 753.047Z" fill="#00BFFF"/>
<path id="Vector_183" d="M317.918 766.64C322.087 762.315 325.484 758.762 328.263 755.209C330.888 751.811 332.123 748.567 332.123 745.323C332.123 741.152 330.116 738.835 326.565 738.835C322.859 738.835 320.697 740.998 320.697 745.014C320.697 745.941 320.697 746.868 321.006 747.795L318.69 747.486C318.536 746.713 318.536 745.787 318.536 744.86C318.536 739.917 321.624 736.827 326.719 736.827C331.66 736.827 334.594 739.762 334.594 745.169C334.594 748.722 333.204 752.274 330.425 755.982C328.109 759.226 324.403 762.933 320.852 766.64H335.212V768.648H318.072V766.64H317.918Z" fill="#00BFFF"/>
<path id="Vector_184" d="M338.763 753.047C338.763 740.843 342.16 736.827 348.027 736.827C354.049 736.827 357.446 740.843 357.446 753.047C357.446 765.25 354.049 769.266 348.027 769.266C342.16 769.266 338.763 765.25 338.763 753.047ZM355.13 753.047C355.13 742.079 352.659 738.681 348.027 738.681C343.549 738.681 340.924 741.925 340.924 753.047C340.924 764.014 343.549 767.413 348.027 767.413C352.659 767.413 355.13 764.014 355.13 753.047Z" fill="#00BFFF"/>
<path id="Vector_185" d="M62.3737 813.909C62.3737 818.852 60.0576 822.714 53.5725 822.714H45.0801V790.893H53.1093C59.7488 790.893 61.7561 794.909 61.7561 798.925C61.7561 802.478 60.212 805.413 56.5062 806.031C60.3664 806.649 62.3737 809.584 62.3737 813.909ZM47.3962 792.746V805.413H53.2637C58.2047 805.413 59.44 802.324 59.44 799.08C59.44 795.681 58.0503 792.746 52.9549 792.746H47.3962ZM59.9032 813.909C59.9032 809.738 58.2047 807.112 53.2637 807.112H47.2418V820.706H53.1093C58.3591 820.86 59.9032 817.925 59.9032 813.909Z" fill="#00BFFF"/>
<path id="Vector_186" d="M65.9254 831.519V829.511C66.3886 829.665 66.8518 829.665 67.1606 829.665C69.7856 829.665 71.0208 827.812 71.7929 825.031L72.4105 822.869L65.1533 800.316H67.4694L72.5649 817.153C72.8737 818.389 73.1825 819.316 73.4913 820.397C73.8002 819.316 73.9546 818.389 74.4178 817.153L79.05 800.161H81.3661L74.109 824.877C72.7193 829.665 70.712 831.519 67.4694 831.519C66.8518 831.674 66.3886 831.674 65.9254 831.519Z" fill="#00BFFF"/>
<path id="Vector_187" d="M95.1074 790.893H97.7324L110.703 815.608C111.32 816.998 111.783 818.08 112.247 819.624H112.401C112.247 818.08 112.247 816.69 112.247 814.527V790.893H114.408V822.714H111.938L98.8132 797.689C98.0412 796.299 97.7324 795.063 97.2691 793.673H97.1147C97.2691 795.218 97.2691 796.454 97.2691 798.616V822.868H95.1074V790.893Z" fill="#00BFFF"/>
<path id="Vector_188" d="M135.717 811.592H122.592C122.747 818.852 124.908 821.323 128.46 821.323C131.239 821.323 133.401 819.47 133.71 815.608L135.717 816.071C135.254 820.705 132.474 823.177 128.46 823.177C123.519 823.177 120.431 819.933 120.431 811.437C120.431 802.632 123.673 799.697 128.151 799.697C132.783 799.697 135.563 802.632 135.563 809.892V811.592H135.717ZM133.555 810.047C133.555 803.868 131.702 801.551 128.151 801.551C124.908 801.551 122.592 803.559 122.438 810.047H133.555Z" fill="#00BFFF"/>
<path id="Vector_189" d="M141.43 791.51H143.746V796.453H141.43V791.51ZM141.584 800.315H143.746V822.713H141.584V800.315Z" fill="#00BFFF"/>
<path id="Vector_190" d="M153.166 822.714H151.004V790.274H153.166V822.714Z" fill="#00BFFF"/>
<path id="Vector_191" d="M165.981 790.893H168.452L175.246 815.454C175.864 817.462 176.172 818.698 176.327 820.088H176.481C176.636 818.852 176.944 817.462 177.562 815.454L184.356 790.893H186.826L177.716 822.714H175.091L165.981 790.893Z" fill="#00BFFF"/>
<path id="Vector_192" d="M190.687 791.51H193.003V796.453H190.687V791.51ZM190.841 800.315H193.003V822.713H190.841V800.315Z" fill="#00BFFF"/>
<path id="Vector_193" d="M210.605 801.242C212.149 802.478 212.921 804.64 212.921 807.266C212.921 811.901 210.45 814.836 206.127 814.836C204.892 814.836 203.811 814.527 202.884 814.063C201.803 814.372 201.031 815.299 201.031 816.535C201.031 817.925 202.112 819.006 204.274 819.161L209.215 819.47C212.921 819.779 214.928 821.941 214.928 825.185C214.928 829.202 211.994 831.673 206.436 831.673C201.031 831.673 198.098 829.202 198.098 825.803C198.098 823.332 199.487 821.478 201.803 820.706C199.951 820.088 199.024 818.697 199.024 817.153C199.024 815.299 200.105 814.218 201.803 813.6C200.105 812.364 199.179 810.201 199.179 807.266C199.179 802.632 201.803 799.697 205.972 799.697C207.362 799.697 208.597 800.006 209.524 800.624C209.987 798.462 211.686 797.071 214.002 797.071C214.31 797.071 214.465 797.071 214.774 797.226V799.079C214.465 799.079 214.31 798.925 213.847 798.925C212.303 798.925 211.068 799.697 210.605 801.242ZM203.656 821.324C203.502 821.324 203.193 821.323 203.039 821.169C201.186 821.941 200.105 823.486 200.105 825.649C200.105 828.584 202.421 830.283 206.436 830.283C210.759 830.283 212.612 828.584 212.612 825.649C212.612 823.177 211.377 821.941 208.443 821.632L203.656 821.324ZM210.759 807.266C210.759 803.405 208.906 801.242 206.127 801.242C203.193 801.242 201.34 803.405 201.34 807.266C201.34 811.128 203.193 813.291 206.127 813.291C209.061 813.291 210.759 811.283 210.759 807.266Z" fill="#00BFFF"/>
<path id="Vector_194" d="M217.09 811.437C217.09 803.405 219.869 799.697 224.81 799.697C227.898 799.697 230.06 801.551 230.832 805.104V790.12H232.994V822.559H230.987V817.616C230.06 821.015 227.744 823.177 224.501 823.177C219.715 823.177 217.09 819.316 217.09 811.437ZM230.987 813.291V809.738C230.987 805.104 228.979 801.551 225.428 801.551C221.413 801.551 219.406 804.486 219.406 811.437C219.406 818.543 221.259 821.324 225.119 821.324C228.825 821.324 230.987 818.08 230.987 813.291Z" fill="#00BFFF"/>
<path id="Vector_195" d="M238.861 811.437C238.861 803.096 241.95 799.697 246.891 799.697C251.832 799.697 254.92 803.096 254.92 811.437C254.92 819.779 251.832 823.177 246.891 823.177C241.95 823.177 238.861 819.779 238.861 811.437ZM252.758 811.437C252.758 804.022 250.288 801.551 246.891 801.551C243.494 801.551 241.023 804.022 241.023 811.437C241.023 818.852 243.339 821.323 246.891 821.323C250.288 821.478 252.758 819.006 252.758 811.437Z" fill="#00BFFF"/>
<path id="Vector_196" d="M268.662 799.852C268.816 799.852 268.971 799.852 269.28 799.852V802.014H268.662C266.964 802.014 265.728 802.632 264.802 803.868C263.258 805.567 262.795 808.193 262.795 810.819V822.714H260.633V800.315H262.64V806.03C263.412 802.478 265.574 799.852 268.662 799.852Z" fill="#00BFFF"/>
<path id="Vector_197" d="M60.8294 901.032H52.1826V930.845H49.8664V901.032H41.374V899.023H60.8294V901.032Z" fill="#00BFFF"/>
<path id="Vector_198" d="M64.998 898.405H67.1598V913.389C68.0862 909.836 70.4023 907.983 73.6449 907.983C77.6595 907.983 79.6668 910.454 79.6668 915.552V930.845H77.5051V915.552C77.5051 911.69 75.961 909.682 72.8728 909.682C69.3215 909.682 67.1598 912.771 67.1598 918.023V930.845H64.998V898.405Z" fill="#00BFFF"/>
<path id="Vector_199" d="M100.049 919.722H86.9244C87.0788 926.983 89.2405 929.454 92.7919 929.454C95.5712 929.454 97.733 927.601 98.0418 923.739L100.049 924.202C99.5858 928.836 96.8065 931.308 92.7919 931.308C87.8509 931.308 84.7627 928.064 84.7627 919.568C84.7627 910.763 88.0053 907.828 92.4831 907.828C97.1153 907.828 99.8947 910.763 99.8947 918.023V919.722H100.049ZM97.8874 918.178C97.8874 911.999 96.0345 909.682 92.4831 909.682C89.2405 909.682 86.9244 911.69 86.77 918.178H97.8874Z" fill="#00BFFF"/>
<path id="Vector_200" d="M116.416 899.023H119.041L132.011 923.739C132.629 925.129 133.092 926.211 133.555 927.755H133.71C133.555 926.211 133.555 924.82 133.555 922.658V899.023H135.717V930.845H133.246L120.122 905.666C119.35 904.275 119.041 903.04 118.578 901.649H118.423C118.578 903.194 118.578 904.43 118.578 906.593V930.845H116.416V899.023Z" fill="#00BFFF"/>
<path id="Vector_201" d="M157.026 919.722H143.901C144.055 926.983 146.217 929.454 149.768 929.454C152.548 929.454 154.71 927.601 155.018 923.739L157.026 924.202C156.562 928.836 153.783 931.308 149.768 931.308C144.827 931.308 141.739 928.064 141.739 919.568C141.739 910.763 144.982 907.828 149.46 907.828C154.092 907.828 156.871 910.763 156.871 918.023V919.722H157.026ZM154.864 918.178C154.864 911.999 153.011 909.682 149.46 909.682C146.217 909.682 143.901 911.69 143.747 918.178H154.864Z" fill="#00BFFF"/>
<path id="Vector_202" d="M160.114 908.446H162.276L166.136 925.902C166.291 926.674 166.445 927.446 166.599 928.373H166.754C166.908 927.446 167.063 926.674 167.217 925.902L171.232 908.446H173.548L177.562 925.902C177.717 926.674 177.871 927.446 178.026 928.373H178.18C178.334 927.446 178.489 926.52 178.643 925.902L182.503 908.446H184.665L179.415 930.845H177.099L172.93 913.08C172.776 912.308 172.621 911.536 172.467 910.763H172.312L171.849 913.08L167.68 930.845H165.364L160.114 908.446Z" fill="#00BFFF"/>
<path id="Vector_203" d="M201.959 917.406L193.003 899.023H195.628L202.113 912.617C202.576 913.544 202.885 914.162 203.194 915.243H203.348C203.657 914.162 203.966 913.544 204.429 912.617L210.914 899.023H213.385L204.429 917.406V930.845H201.959V917.406Z" fill="#00BFFF"/>
<path id="Vector_204" d="M212.921 919.568C212.921 911.226 216.009 907.828 220.95 907.828C225.891 907.828 228.979 911.226 228.979 919.568C228.979 927.91 225.891 931.308 220.95 931.308C216.009 931.308 212.921 927.91 212.921 919.568ZM226.818 919.568C226.818 912.153 224.347 909.682 220.95 909.682C217.553 909.682 215.083 912.153 215.083 919.568C215.083 926.983 217.399 929.454 220.95 929.454C224.347 929.609 226.818 927.137 226.818 919.568Z" fill="#00BFFF"/>
<path id="Vector_205" d="M242.722 907.982C242.876 907.982 243.03 907.982 243.339 907.982V910.145H242.722C241.023 910.145 239.788 910.763 238.861 911.999C237.317 913.698 236.854 916.324 236.854 918.95V930.844H234.692V908.446H236.7V914.161C237.472 910.608 239.633 907.982 242.722 907.982Z" fill="#00BFFF"/>
<path id="Vector_206" d="M253.994 918.487L249.979 923.276V930.69H247.817V898.251H249.979V920.495L259.707 908.292H262.332L255.538 916.633L262.795 930.69H260.324L253.994 918.487Z" fill="#00BFFF"/>
<path id="Vector_207" d="M290.28 901.032H281.633V930.845H279.317V901.032H270.67V899.023H290.125V901.032H290.28Z" fill="#00BFFF"/>
<path id="Vector_208" d="M294.14 899.641H296.456V904.584H294.14V899.641ZM294.294 908.446H296.456V930.844H294.294V908.446Z" fill="#00BFFF"/>
<path id="Vector_209" d="M305.72 908.446V913.08C306.492 909.836 308.5 907.982 311.433 907.982C314.367 907.982 316.066 909.527 316.683 912.771C317.61 909.682 319.617 907.982 322.396 907.982C326.102 907.982 327.955 910.454 327.955 914.934V930.844H325.793V915.243C325.793 911.69 324.404 909.682 321.624 909.682C318.69 909.682 316.838 912.153 316.838 916.324V930.69H314.676V914.934C314.676 911.381 313.286 909.527 310.661 909.527C307.573 909.527 305.72 912.308 305.72 916.942V930.69H303.559V908.291H305.72V908.446Z" fill="#00BFFF"/>
<path id="Vector_210" d="M348.491 919.722H335.367C335.521 926.983 337.683 929.454 341.234 929.454C344.014 929.454 346.175 927.601 346.484 923.739L348.491 924.202C348.028 928.836 345.249 931.308 341.234 931.308C336.293 931.308 333.205 928.064 333.205 919.568C333.205 910.763 336.448 907.828 340.925 907.828C345.558 907.828 348.337 910.763 348.337 918.023V919.722H348.491ZM346.33 918.178C346.33 911.999 344.477 909.682 340.925 909.682C337.683 909.682 335.367 911.69 335.212 918.178H346.33Z" fill="#00BFFF"/>
<path id="Vector_211" d="M352.66 923.43L354.822 923.121C354.976 927.601 357.138 929.609 360.226 929.609C363.16 929.609 364.858 928.064 364.858 925.284C364.858 922.966 363.778 921.576 360.998 920.649L358.064 919.722C354.822 918.796 353.278 916.788 353.278 913.698C353.278 909.991 355.903 907.828 359.917 907.828C364.086 907.828 366.711 909.836 366.866 915.243L364.704 915.552C364.55 910.918 362.851 909.527 359.917 909.527C357.138 909.527 355.594 911.072 355.594 913.544C355.594 915.861 356.52 917.097 359.145 917.869L362.233 918.796C365.785 919.877 367.175 921.885 367.175 924.975C367.175 928.836 364.704 931.308 360.381 931.308C355.748 931.308 352.815 929.145 352.66 923.43Z" fill="#00BFFF"/>
</g>
</g>
</g>
</svg>
