<svg id="Camada_1" data-name="Camada 1" xmlns="http://www.w3.org/2000/svg" viewBox="0 0 463.82 733.48"><defs><style>.cls-1{fill:#00bdff;}</style></defs><path class="cls-1" d="M13.36,27.66v-2c0-6.5,2.7-10.5,8-10.5s8,4,8,10.5v2c0,6.5-2.7,10.5-8,10.5S13.36,34.26,13.36,27.66Zm13.1,0v-2c0-5.5-1.6-8.1-5-8.1s-5,2.5-5,8.1v2c0,5.5,1.6,8.1,5,8.1S26.46,33.16,26.46,27.66Z"/><path class="cls-1" d="M38.56,38.06a5.48,5.48,0,0,1-4-1.4c-1-1-1.4-2.4-1.4-4.9v-9.6h2.7v9.5c0,3.4,1.6,4.1,3.2,4.1,3.3,0,4-3.3,4-5.5v-8.1h2.6v15.5h-2.5v-2.9A5.11,5.11,0,0,1,38.56,38.06Z"/><path class="cls-1" d="M62.06,21.86a10.88,10.88,0,0,1,2.8.3v2.4a11.19,11.19,0,0,0-2.9-.3c-3.7,0-6.7,2.5-6.7,7.6v5.8h-2.6V22.16h2.6v4A7.43,7.43,0,0,1,62.06,21.86Z"/><path class="cls-1" d="M88.46,22.16l1.6,10.6.3,2.2h.2c.1-.7.2-1.2.5-2.6l2-10.2h2.7l2,10.2c.3,1.4.4,1.9.5,2.6h.2l.3-2.2,1.6-10.6h2.8l-3,15.5h-3.3l-2-10c-.1-.6-.2-1.9-.3-2.5h-.2a21.3,21.3,0,0,1-.3,2.5l-2,10h-3.3l-3-15.5Z"/><path class="cls-1" d="M119.16,37.66h-2.8a26.35,26.35,0,0,1-.2-2.8,5.17,5.17,0,0,1-5.2,3.2c-3.1,0-5.2-1.9-5.2-4.6a4.06,4.06,0,0,1,2.2-3.7,14.28,14.28,0,0,1,5.3-1.3l2.8-.3v-.3c0-2.8-1-4-3.3-4s-3.5,1.1-3.6,3.1h-2.8c.3-3.3,2.7-5.2,6.6-5.2s5.8,2,5.8,6.4v4.2A14.87,14.87,0,0,0,119.16,37.66Zm-6.9-7c-2.7.4-3.8,1.1-3.8,2.7s1.1,2.5,2.9,2.5c2.8,0,4.6-1.9,4.6-5v-.8Z"/><path class="cls-1" d="M135.16,21.86a10.88,10.88,0,0,1,2.8.3v2.4a11.19,11.19,0,0,0-2.9-.3c-3.7,0-6.7,2.5-6.7,7.6v5.8h-2.6V22.16h2.6v4A7.43,7.43,0,0,1,135.16,21.86Z"/><path class="cls-1" d="M155.26,15.26v22.5h-2.5v-2.9a5,5,0,0,1-4.9,3.3c-3.9,0-6.4-3.2-6.4-8.1s2.7-8.1,6.8-8.1a4.72,4.72,0,0,1,4.4,2.7v-9.3h2.6Zm-6.7,8.9c-2.7,0-4.2,2.1-4.2,5.8s1.6,5.8,4.2,5.8,4.3-2.1,4.3-5.5v-.7C152.76,26.26,151.06,24.16,148.56,24.16Z"/><path class="cls-1" d="M171.76,21.86a10.88,10.88,0,0,1,2.8.3v2.4a11.19,11.19,0,0,0-2.9-.3c-3.7,0-6.7,2.5-6.7,7.6v5.8h-2.6V22.16H165v4A7.21,7.21,0,0,1,171.76,21.86Z"/><path class="cls-1" d="M178.66,30c0-4.9,2.9-8.1,7.2-8.1s7.2,3.2,7.2,8.1-2.9,8.1-7.2,8.1S178.66,34.76,178.66,30Zm11.6,0c0-3.6-1.6-5.8-4.4-5.8s-4.4,2.2-4.4,5.8,1.6,5.8,4.4,5.8S190.26,33.56,190.26,30Z"/><path class="cls-1" d="M200.66,24.86a5.32,5.32,0,0,1,4.8-3.1c4,0,6.4,3.4,6.4,8.1s-2.4,8.1-6.5,8.1a5.07,5.07,0,0,1-4.8-3l-.5,2.7h-2V15.16h2.6Zm4,10.9c2.7,0,4.3-2.3,4.3-5.8s-1.5-5.8-4.2-5.8-4.2,2.1-4.2,5.4v.8C200.56,33.56,202.06,35.76,204.66,35.76Z"/><path class="cls-1" d="M228.86,30.66H218c0,2.9,1.7,5.1,4.6,5.1a4.65,4.65,0,0,0,4.1-2.8l2.2,1.2a6.57,6.57,0,0,1-6.3,3.9c-4.9,0-7.2-3.3-7.2-8.4,0-4.7,2.7-7.8,7.1-7.8,4.7,0,6.6,3.4,6.6,7.6A2.54,2.54,0,0,0,228.86,30.66Zm-6.7-6.8c-2.8,0-4.2,2.3-4.2,4.6h8.2C226.26,26,225,23.86,222.16,23.86Z"/><path class="cls-1" d="M251.86,29.86c0-4.6,2.4-8,7.2-8a5.92,5.92,0,0,1,6.3,5.5l-2.7.3c-.3-2.3-1.6-3.6-3.8-3.6-2.8,0-4.3,2.3-4.3,5.7s1.5,5.9,4.4,5.9c2.3,0,3.5-1.4,3.8-3.7l2.5.4c-.5,3.2-2.5,5.6-6.3,5.6C254.26,38.06,251.86,34.46,251.86,29.86Z"/><path class="cls-1" d="M270,30c0-4.9,2.9-8.1,7.2-8.1s7.2,3.2,7.2,8.1-2.9,8.1-7.2,8.1S270,34.76,270,30Zm11.7,0c0-3.6-1.6-5.8-4.4-5.8s-4.4,2.2-4.4,5.8,1.6,5.8,4.4,5.8S281.66,33.56,281.66,30Z"/><path class="cls-1" d="M296.66,21.86a5.11,5.11,0,0,1,3.7,1.3c1,1,1.5,2.4,1.5,5v9.6h-2.6v-9.4c0-3.4-1.7-4.1-3.2-4.1-3.5,0-4.3,3.3-4.3,5.5v8.1h-2.6V22.36h2.5v3.1A4.91,4.91,0,0,1,296.66,21.86Z"/><path class="cls-1" d="M307.46,33l2.7-.5a3.82,3.82,0,0,0,4.2,3.4c2.1,0,3.2-.9,3.2-2.3s-.8-2.2-2.5-2.4l-2.5-.3c-3.1-.3-4.5-2.1-4.5-4.5,0-2.8,2.2-4.6,5.9-4.6,3.5,0,5.9,1.9,6.3,4.7l-2.6.6a3.54,3.54,0,0,0-3.7-3.2c-2,0-3.3.8-3.3,2.3,0,1.3.9,2.1,2.8,2.4l2.5.3c3.1.3,4.3,2,4.3,4.4,0,2.9-2.2,4.7-5.9,4.7C310.46,38.06,308,36.26,307.46,33Z"/><path class="cls-1" d="M326.26,35.56h5V24.36h-4.5v-2.2h7.1v13.3h5.2v2.2h-12.8v-2.1Zm7.9-16.5h-3.7v-3.7h3.7Z"/><path class="cls-1" d="M344,33l2.7-.5a3.82,3.82,0,0,0,4.2,3.4c2.1,0,3.2-.9,3.2-2.3s-.8-2.2-2.5-2.4l-2.5-.3c-3.1-.3-4.5-2.1-4.5-4.5,0-2.8,2.2-4.6,5.9-4.6,3.5,0,5.9,1.9,6.3,4.7l-2.6.6a3.54,3.54,0,0,0-3.7-3.2c-2,0-3.3.8-3.3,2.3,0,1.3.9,2.1,2.8,2.4l2.5.3c3.1.3,4.3,2,4.3,4.4,0,2.9-2.2,4.7-5.9,4.7C347,38.06,344.56,36.26,344,33Z"/><path class="cls-1" d="M361.66,22.16h4.4v-4.1l2.6-1.1v5.2h6v2.1h-6v8c0,2.1,1,3.1,3,3.1a16.28,16.28,0,0,0,3.1-.3v2.4a11.45,11.45,0,0,1-3,.4c-3.9,0-5.6-2.2-5.6-5.2v-8.4h-4.4v-2.1Z"/><path class="cls-1" d="M380.56,33l2.7-.5a3.82,3.82,0,0,0,4.2,3.4c2.1,0,3.2-.9,3.2-2.3s-.8-2.2-2.5-2.4l-2.5-.3c-3.1-.3-4.5-2.1-4.5-4.5,0-2.8,2.2-4.6,5.9-4.6,3.5,0,5.9,1.9,6.3,4.7l-2.6.6a3.54,3.54,0,0,0-3.7-3.2c-2,0-3.3.8-3.3,2.3,0,1.3.9,2.1,2.8,2.4l2.5.3c3.1.3,4.3,2,4.3,4.4,0,2.9-2.2,4.7-5.9,4.7C383.56,38.06,381.06,36.26,380.56,33Z"/><path class="cls-1" d="M416.16,30c0-4.9,2.9-8.1,7.2-8.1s7.2,3.2,7.2,8.1-2.9,8.1-7.2,8.1S416.16,34.76,416.16,30Zm11.7,0c0-3.6-1.6-5.8-4.4-5.8s-4.4,2.2-4.4,5.8,1.6,5.8,4.4,5.8S427.86,33.56,427.86,30Z"/><path class="cls-1" d="M448.16,24.36h-5.9v13.4h-2.6V24.36H435v-2.1h4.7v-1.8c0-3.5,2-5.4,5.8-5.4a13.9,13.9,0,0,1,2.7.3v2.3a17.57,17.57,0,0,0-2.7-.2c-2.4,0-3.2.8-3.2,3.2v1.5h5.9v2.2Z"/><path class="cls-1" d="M27.76,74.86H25a26.35,26.35,0,0,1-.2-2.8,5.17,5.17,0,0,1-5.2,3.2c-3.1,0-5.2-1.9-5.2-4.6a4.06,4.06,0,0,1,2.2-3.7,14.28,14.28,0,0,1,5.3-1.3l2.8-.3v-.3c0-2.8-1-4-3.3-4s-3.5,1.1-3.6,3.1H15c.3-3.3,2.7-5.2,6.6-5.2s5.8,2,5.8,6.4v4.2A15.41,15.41,0,0,0,27.76,74.86Zm-6.8-7c-2.7.4-3.8,1.1-3.8,2.7s1.1,2.5,2.9,2.5c2.8,0,4.6-1.9,4.6-5v-.8Z"/><path class="cls-1" d="M64.46,61.46h-5.9v13.4H56V61.46h-4.7v-2.1H56v-1.7c0-3.5,2-5.4,5.8-5.4a13.9,13.9,0,0,1,2.7.3v2.3a17.57,17.57,0,0,0-2.7-.2c-2.4,0-3.2.8-3.2,3.2v1.5h5.9Zm7,11.2h5V61.46H72v-2.2h7.1v13.3h5.2v2.2H71.46Zm7.8-16.4h-3.7v-3.7h3.7Z"/><path class="cls-1" d="M96.56,59a5.11,5.11,0,0,1,3.7,1.3c1,1,1.5,2.4,1.5,5v9.6h-2.6v-9.4c0-3.4-1.7-4.1-3.2-4.1-3.5,0-4.3,3.3-4.3,5.5V75h-2.6V59.46h2.5v3.1A5,5,0,0,1,96.56,59Z"/><path class="cls-1" d="M120.16,67.76h-10.9c0,2.9,1.7,5.1,4.6,5.1a4.65,4.65,0,0,0,4.1-2.8l2.2,1.2a6.57,6.57,0,0,1-6.3,3.9c-4.9,0-7.2-3.3-7.2-8.4,0-4.7,2.7-7.8,7.1-7.8,4.7,0,6.6,3.4,6.6,7.6A2.54,2.54,0,0,0,120.16,67.76Zm-6.7-6.7c-2.8,0-4.2,2.3-4.2,4.6h8.2C117.56,63.16,116.26,61.06,113.46,61.06Z"/><path class="cls-1" d="M144,70.06l2.7-.5a3.82,3.82,0,0,0,4.2,3.4c2.1,0,3.2-.9,3.2-2.3s-.8-2.2-2.5-2.4l-2.5-.3c-3.1-.3-4.5-2.1-4.5-4.5,0-2.8,2.2-4.6,5.9-4.6,3.5,0,5.9,1.9,6.3,4.7l-2.6.6a3.54,3.54,0,0,0-3.7-3.2c-2,0-3.3.8-3.3,2.3,0,1.3.9,2.1,2.8,2.4l2.5.3c3.1.3,4.3,2,4.3,4.4,0,2.9-2.2,4.7-5.9,4.7C147,75.26,144.46,73.36,144,70.06Z"/><path class="cls-1" d="M175,67.76h-10.9c0,2.9,1.7,5.1,4.6,5.1a4.65,4.65,0,0,0,4.1-2.8l2.2,1.2a6.57,6.57,0,0,1-6.3,3.9c-4.9,0-7.2-3.3-7.2-8.4,0-4.7,2.7-7.8,7.1-7.8,4.7,0,6.6,3.4,6.6,7.6A5,5,0,0,0,175,67.76Zm-6.6-6.7c-2.8,0-4.2,2.3-4.2,4.6h8.2C172.36,63.16,171.06,61.06,168.36,61.06Z"/><path class="cls-1" d="M181.06,72.66h5V54.56h-4.7v-2.2h7.3v20.3h5.2v2.2h-12.8Z"/><path class="cls-1" d="M211.46,67.76h-10.9c0,2.9,1.7,5.1,4.6,5.1a4.65,4.65,0,0,0,4.1-2.8l2.2,1.2a6.57,6.57,0,0,1-6.3,3.9c-4.9,0-7.2-3.3-7.2-8.4,0-4.7,2.7-7.8,7.1-7.8,4.7,0,6.6,3.4,6.6,7.6C211.56,67,211.56,67.36,211.46,67.76Zm-6.6-6.7c-2.8,0-4.2,2.3-4.2,4.6h8.2C208.86,63.16,207.66,61.06,204.86,61.06Z"/><path class="cls-1" d="M216.16,67.06c0-4.6,2.4-8,7.2-8a5.92,5.92,0,0,1,6.3,5.5l-2.7.3c-.3-2.3-1.6-3.6-3.8-3.6-2.8,0-4.3,2.3-4.3,5.7s1.5,5.9,4.4,5.9c2.3,0,3.5-1.4,3.8-3.7l2.5.4c-.5,3.2-2.5,5.6-6.3,5.6C218.66,75.26,216.16,71.66,216.16,67.06Z"/><path class="cls-1" d="M234.76,59.36h4.4v-4.1l2.6-1.1v5.2h6v2.1h-6v8c0,2.1,1,3.1,3,3.1a16.28,16.28,0,0,0,3.1-.3v2.4a11.45,11.45,0,0,1-3,.4c-3.9,0-5.6-2.2-5.6-5.2v-8.4h-4.4v-2.1Z"/><path class="cls-1" d="M254.16,72.66h5V61.46h-4.5v-2.2h7.1v13.3H267v2.2h-12.8v-2.1Zm7.8-16.4h-3.7v-3.7H262Z"/><path class="cls-1" d="M271,67.06c0-4.9,2.9-8.1,7.2-8.1s7.2,3.2,7.2,8.1-2.9,8.1-7.2,8.1S271,72,271,67.06Zm11.6,0c0-3.6-1.6-5.8-4.4-5.8s-4.4,2.2-4.4,5.8,1.6,5.8,4.4,5.8S282.56,70.76,282.56,67.06Z"/><path class="cls-1" d="M297.56,59a5.11,5.11,0,0,1,3.7,1.3c1,1,1.5,2.4,1.5,5v9.6h-2.6v-9.4c0-3.4-1.7-4.1-3.2-4.1-3.5,0-4.3,3.3-4.3,5.5V75h-2.6V59.46h2.5v3.1A5,5,0,0,1,297.56,59Z"/><path class="cls-1" d="M339.46,61.46h-5.9v13.4H331V61.46h-4.7v-2.1H331v-1.7c0-3.5,2-5.4,5.8-5.4a13.9,13.9,0,0,1,2.7.3v2.3a17.57,17.57,0,0,0-2.7-.2c-2.4,0-3.2.8-3.2,3.2v1.5h5.9v2.1Z"/><path class="cls-1" d="M355.36,59.06a10.88,10.88,0,0,1,2.8.3v2.4a11.19,11.19,0,0,0-2.9-.3c-3.7,0-6.7,2.5-6.7,7.6v5.8H346V59.36h2.6v4A7.43,7.43,0,0,1,355.36,59.06Z"/><path class="cls-1" d="M362.26,67.06c0-4.9,2.9-8.1,7.2-8.1s7.2,3.2,7.2,8.1-2.9,8.1-7.2,8.1S362.26,72,362.26,67.06Zm11.7,0c0-3.6-1.6-5.8-4.4-5.8s-4.4,2.2-4.4,5.8,1.6,5.8,4.4,5.8S374,70.76,374,67.06Z"/><path class="cls-1" d="M385.46,59a3.36,3.36,0,0,1,3.2,2.8,4,4,0,0,1,3.7-2.8c1.9,0,3.7,1.3,3.7,4.6v11.2h-2.7v-11c0-2-.9-2.5-1.8-2.5-1.8,0-2.5,1.3-2.5,3.3v10.3h-2.6v-11c0-1.9-.8-2.5-1.8-2.5-1.8,0-2.4,1.4-2.4,3.3V75h-2.6V59.46h2.5v2.41C382.66,60.06,383.86,59,385.46,59Z"/><path class="cls-1" d="M14.16,104.26c0-4.9,2.9-8.1,7.2-8.1s7.2,3.2,7.2,8.1-2.9,8.1-7.2,8.1S14.16,109.16,14.16,104.26Zm11.7,0c0-3.6-1.6-5.8-4.4-5.8s-4.4,2.2-4.4,5.8,1.6,5.8,4.4,5.8S25.86,108,25.86,104.26Z"/><path class="cls-1" d="M38.56,112.36a5.48,5.48,0,0,1-4-1.4c-1-1-1.4-2.4-1.4-4.9v-9.6h2.7V106c0,3.4,1.6,4.1,3.2,4.1,3.3,0,4-3.3,4-5.5v-8.1h2.6V112h-2.5v-2.9A5,5,0,0,1,38.56,112.36Z"/><path class="cls-1" d="M62.06,96.26a10.88,10.88,0,0,1,2.8.3V99a11.65,11.65,0,0,0-2.9-.3c-3.7,0-6.7,2.5-6.7,7.6v5.8h-2.6V96.56h2.6v4A7.27,7.27,0,0,1,62.06,96.26Z"/><path class="cls-1" d="M100.86,112.06h-2.8a26.35,26.35,0,0,1-.2-2.8,5.17,5.17,0,0,1-5.2,3.2c-3.1,0-5.2-1.9-5.2-4.6a4.06,4.06,0,0,1,2.2-3.7,14.28,14.28,0,0,1,5.3-1.3l2.8-.3v-.3c0-2.8-1-4-3.3-4s-3.5,1.1-3.6,3.1h-2.8c.3-3.3,2.7-5.2,6.6-5.2s5.8,2,5.8,6.4v4.2A15.41,15.41,0,0,0,100.86,112.06Zm-6.8-7.1c-2.7.4-3.8,1.1-3.8,2.7s1.1,2.5,2.9,2.5c2.8,0,4.6-1.9,4.6-5v-.8Z"/><path class="cls-1" d="M106.46,107.26l2.7-.5a3.82,3.82,0,0,0,4.2,3.4c2.1,0,3.2-.9,3.2-2.3s-.8-2.2-2.5-2.4l-2.5-.3c-3.1-.3-4.5-2.1-4.5-4.5,0-2.8,2.2-4.6,5.9-4.6,3.5,0,5.9,1.9,6.3,4.7l-2.6.6a3.54,3.54,0,0,0-3.7-3.2c-2,0-3.3.8-3.3,2.3,0,1.3.9,2.1,2.8,2.4l2.5.3c3.1.3,4.3,2,4.3,4.4,0,2.9-2.2,4.7-5.9,4.7C109.46,112.36,107,110.56,106.46,107.26Z"/><path class="cls-1" d="M124.76,107.26l2.7-.5a3.82,3.82,0,0,0,4.2,3.4c2.1,0,3.2-.9,3.2-2.3s-.8-2.2-2.5-2.4l-2.5-.3c-3.1-.3-4.5-2.1-4.5-4.5,0-2.8,2.2-4.6,5.9-4.6,3.5,0,5.9,1.9,6.3,4.7l-2.6.6a3.54,3.54,0,0,0-3.7-3.2c-2,0-3.3.8-3.3,2.3,0,1.3.9,2.1,2.8,2.4l2.5.3c3.1.3,4.3,2,4.3,4.4,0,2.9-2.2,4.7-5.9,4.7C127.76,112.36,125.26,110.56,124.76,107.26Z"/><path class="cls-1" d="M155.76,105h-10.9c0,2.9,1.7,5.1,4.6,5.1a4.65,4.65,0,0,0,4.1-2.8l2.2,1.2a6.57,6.57,0,0,1-6.3,3.9c-4.9,0-7.2-3.3-7.2-8.4,0-4.7,2.7-7.8,7.1-7.8,4.7,0,6.6,3.4,6.6,7.6A5,5,0,0,0,155.76,105Zm-6.6-6.8c-2.8,0-4.2,2.3-4.2,4.6h8.2C153.16,100.26,151.86,98.16,149.16,98.16Z"/><path class="cls-1" d="M160.66,96.56h4.4v-4.1l2.6-1.1v5.2h6v2.1h-6v8c0,2.1,1,3.1,3,3.1a16.28,16.28,0,0,0,3.1-.3v2.4a11.45,11.45,0,0,1-3,.4c-3.9,0-5.6-2.2-5.6-5.2v-8.4h-4.4v-2.1Z"/><path class="cls-1" d="M198.36,109.86h5V91.76h-4.6v-2.2h7.3v20.31h5.2v2.19h-12.9Z"/><path class="cls-1" d="M216.66,109.86h5V98.66h-4.5v-2.2h7.1v13.31h5.2V112h-12.8Zm7.9-16.4h-3.7v-3.7h3.7Z"/><path class="cls-1" d="M237.16,99.26a5.32,5.32,0,0,1,4.8-3.1c4,0,6.4,3.4,6.4,8.1s-2.4,8.1-6.5,8.1a5.07,5.07,0,0,1-4.8-3l-.5,2.7h-2V89.56h2.6Zm4.1,10.8c2.7,0,4.3-2.3,4.3-5.8s-1.5-5.8-4.2-5.8-4.2,2.1-4.2,5.4v.8C237.06,108,238.66,110.06,241.26,110.06Z"/><path class="cls-1" d="M263.06,96.26a10.88,10.88,0,0,1,2.8.3V99a11.65,11.65,0,0,0-2.9-.3c-3.7,0-6.7,2.5-6.7,7.6v5.8h-2.6V96.56h2.6v4A7.27,7.27,0,0,1,263.06,96.26Z"/><path class="cls-1" d="M283.56,112.06h-2.8a26.35,26.35,0,0,1-.2-2.8,5.17,5.17,0,0,1-5.2,3.2c-3.1,0-5.2-1.9-5.2-4.6a4.06,4.06,0,0,1,2.2-3.7,14.28,14.28,0,0,1,5.3-1.3l2.8-.3v-.3c0-2.8-1-4-3.3-4s-3.5,1.1-3.6,3.1h-2.8c.3-3.3,2.7-5.2,6.6-5.2s5.8,2,5.8,6.4v4.2A18.45,18.45,0,0,0,283.56,112.06Zm-6.8-7.1c-2.7.4-3.8,1.1-3.8,2.7s1.1,2.5,2.9,2.5c2.8,0,4.6-1.9,4.6-5v-.8Z"/><path class="cls-1" d="M299.66,96.26a10.88,10.88,0,0,1,2.8.3V99a11.65,11.65,0,0,0-2.9-.3c-3.7,0-6.7,2.5-6.7,7.6v5.8h-2.6V96.56h2.6v4A7.16,7.16,0,0,1,299.66,96.26Z"/><path class="cls-1" d="M308.06,109.86h5V98.66h-4.5v-2.2h7.1v13.31h5.2V112h-12.8v-2.1Zm7.8-16.4h-3.7v-3.7h3.7Z"/><path class="cls-1" d="M338.46,105h-10.9c0,2.9,1.7,5.1,4.6,5.1a4.65,4.65,0,0,0,4.1-2.8l2.2,1.2a6.57,6.57,0,0,1-6.3,3.9c-4.9,0-7.2-3.3-7.2-8.4,0-4.7,2.7-7.8,7.1-7.8,4.7,0,6.6,3.4,6.6,7.6A5,5,0,0,0,338.46,105Zm-6.6-6.8c-2.8,0-4.2,2.3-4.2,4.6h8.2C335.86,100.26,334.66,98.16,331.86,98.16Z"/><path class="cls-1" d="M344,107.26l2.7-.5a3.82,3.82,0,0,0,4.2,3.4c2.1,0,3.2-.9,3.2-2.3s-.8-2.2-2.5-2.4l-2.5-.3c-3.1-.3-4.5-2.1-4.5-4.5,0-2.8,2.2-4.6,5.9-4.6,3.5,0,5.9,1.9,6.3,4.7l-2.6.6a3.54,3.54,0,0,0-3.7-3.2c-2,0-3.3.8-3.3,2.3,0,1.3.9,2.1,2.8,2.4l2.5.3c3.1.3,4.3,2,4.3,4.4,0,2.9-2.2,4.7-5.9,4.7C347,112.36,344.56,110.56,344,107.26Z"/><path class="cls-1" d="M362.76,95.86a9.81,9.81,0,0,1,4.6-8.3l.9.9a8.77,8.77,0,0,0-3.8,7.5,9,9,0,0,0,3.8,7.5l-.9.9A10.15,10.15,0,0,1,362.76,95.86Z"/><path class="cls-1" d="M371.06,100.36c1-.8,2.7-2.1,4.3-3.6s2.1-2.6,2.1-4.1a2.13,2.13,0,0,0-2.3-2.4,2.1,2.1,0,0,0-2.3,2.3c0,.31.1.7.1,1.2l-1.6-.2a3.71,3.71,0,0,1-.1-1c0-2.19,1.5-3.6,4-3.6a3.56,3.56,0,0,1,3.9,3.81c0,1.8-.9,3.3-2.8,5.1-1,.9-1.9,1.59-3.1,2.5h6v1.5h-8.2Z"/><path class="cls-1" d="M382.26,103.36a8.77,8.77,0,0,0,3.8-7.5,9,9,0,0,0-3.8-7.5l.9-.9a9.79,9.79,0,0,1,0,16.6Z"/><path class="cls-1" d="M402.56,112.06h-4.1v-4h4.1Z"/><path class="cls-1" d="M13.46,142.86l2.8-.6c.5,2.6,2,5,5.3,5,2.1,0,4.5-.7,4.5-3.5s-1.8-3.6-3.6-4.1l-2.9-.8c-3.1-.8-5.4-2.7-5.4-6.1s2.7-6.2,7-6.2c4,0,7.3,1.7,7.7,6.2l-2.8.8c-.3-3.5-2.5-4.6-4.9-4.6-3.2,0-4.2,1.91-4.2,3.5,0,2,1.5,3.2,3.4,3.7l2.8.7c2.9.8,5.7,2.1,5.7,6.3,0,3.1-2.2,6.3-7.4,6.3C16.36,149.66,14.06,146.46,13.46,142.86Z"/><path class="cls-1" d="M34,147h5v-11.2h-4.6v-2.2h7.1v13.31h5.2v2.19H34Zm7.8-16.4h-3.7v-3.7h3.7Z"/><path class="cls-1" d="M59.16,133.36a5.11,5.11,0,0,1,3.7,1.3c1,1,1.5,2.4,1.5,5v9.6h-2.6v-9.4c0-3.4-1.7-4.1-3.2-4.1-3.5,0-4.3,3.3-4.3,5.5v8.1h-2.6v-15.5h2.5V137A4.91,4.91,0,0,1,59.16,133.36Z"/><path class="cls-1" d="M69.06,141.36c0-4.6,2.4-8,7.2-8a5.92,5.92,0,0,1,6.3,5.5l-2.7.3c-.3-2.3-1.6-3.6-3.8-3.6-2.8,0-4.3,2.31-4.3,5.7s1.5,5.9,4.4,5.9c2.3,0,3.5-1.4,3.8-3.7l2.5.41c-.5,3.19-2.5,5.59-6.3,5.59C71.46,149.56,69.06,146,69.06,141.36Z"/><path class="cls-1" d="M101,142.16H90.06c0,2.9,1.7,5.1,4.6,5.1a4.65,4.65,0,0,0,4.1-2.8l2.2,1.2a6.57,6.57,0,0,1-6.3,3.9c-4.9,0-7.2-3.3-7.2-8.4,0-4.7,2.7-7.8,7.1-7.8,4.7,0,6.6,3.4,6.6,7.6A2.34,2.34,0,0,0,101,142.16Zm-6.7-6.8c-2.8,0-4.2,2.3-4.2,4.6h8.2C98.36,137.46,97.06,135.36,94.26,135.36Z"/><path class="cls-1" d="M125.06,133.66l1.6,10.6.3,2.2h.2c.1-.7.2-1.2.5-2.6l2-10.2h2.7l2,10.2c.3,1.4.4,1.9.5,2.6h.2l.3-2.2,1.6-10.6h2.8l-3,15.5h-3.3l-2-10c-.1-.6-.2-1.9-.3-2.5H131a21.3,21.3,0,0,1-.3,2.5l-2,10h-3.3l-3-15.5Z"/><path class="cls-1" d="M155.76,142.16h-10.9c0,2.9,1.7,5.1,4.6,5.1a4.65,4.65,0,0,0,4.1-2.8l2.2,1.2a6.57,6.57,0,0,1-6.3,3.9c-4.9,0-7.2-3.3-7.2-8.4,0-4.7,2.7-7.8,7.1-7.8,4.7,0,6.6,3.4,6.6,7.6A4.3,4.3,0,0,0,155.76,142.16Zm-6.6-6.8c-2.8,0-4.2,2.3-4.2,4.6h8.2C153.16,137.46,151.86,135.36,149.16,135.36Z"/><path class="cls-1" d="M192.26,149.16h-2.8a26.35,26.35,0,0,1-.2-2.8,5.17,5.17,0,0,1-5.2,3.2c-3.1,0-5.2-1.9-5.2-4.6a4.06,4.06,0,0,1,2.2-3.7,14.28,14.28,0,0,1,5.3-1.3l2.8-.3v-.3c0-2.8-1-4-3.3-4s-3.5,1.1-3.6,3.1h-2.8c.3-3.3,2.7-5.2,6.6-5.2s5.8,2,5.8,6.4v4.2A12.83,12.83,0,0,0,192.26,149.16Zm-6.9-7c-2.7.4-3.8,1.1-3.8,2.7s1.1,2.5,2.9,2.5c2.8,0,4.6-1.9,4.6-5v-.8Z"/><path class="cls-1" d="M208.26,133.36a10.88,10.88,0,0,1,2.8.3v2.4a11.65,11.65,0,0,0-2.9-.3c-3.7,0-6.7,2.5-6.7,7.6v5.8h-2.6v-15.5h2.6v4A7.43,7.43,0,0,1,208.26,133.36Z"/><path class="cls-1" d="M228.86,142.16H218c0,2.9,1.7,5.1,4.6,5.1a4.65,4.65,0,0,0,4.1-2.8l2.2,1.2a6.57,6.57,0,0,1-6.3,3.9c-4.9,0-7.2-3.3-7.2-8.4,0-4.7,2.7-7.8,7.1-7.8,4.7,0,6.6,3.4,6.6,7.6A2.34,2.34,0,0,0,228.86,142.16Zm-6.7-6.8c-2.8,0-4.2,2.3-4.2,4.6h8.2C226.26,137.46,225,135.36,222.16,135.36Z"/><path class="cls-1" d="M265.06,133.66v21.5h-2.6v-8.7a5.23,5.23,0,0,1-4.8,3c-3.9,0-6.3-3.3-6.3-8.1s2.6-8.1,6.7-8.1a5.17,5.17,0,0,1,4.5,2.7l.5-2.3Zm-6.9,2c-2.6,0-4.1,2.3-4.1,5.8s1.6,5.8,4,5.8c2.8,0,4.4-2.1,4.4-5.4V141C262.46,137.76,260.76,135.66,258.16,135.66Z"/><path class="cls-1" d="M276.16,149.56a5.48,5.48,0,0,1-4-1.4c-1-1-1.4-2.4-1.4-4.9v-9.6h2.7v9.5c0,3.4,1.6,4.1,3.2,4.1,3.3,0,4-3.3,4-5.5v-8.1h2.6v15.5h-2.5v-2.9A5.11,5.11,0,0,1,276.16,149.56Z"/><path class="cls-1" d="M289.76,147h5v-11.2h-4.5v-2.2h7.1v13.31h5.2v2.19h-12.8V147Zm7.9-16.4H294v-3.7h3.7Z"/><path class="cls-1" d="M306.86,133.66h4.4v-4.1l2.6-1.1v5.2h6v2.1h-6v8c0,2.1,1,3.1,3,3.1a16.28,16.28,0,0,0,3.1-.3V149a11.45,11.45,0,0,1-3,.4c-3.9,0-5.6-2.2-5.6-5.2v-8.4H307v-2.1Z"/><path class="cls-1" d="M338.46,142.16h-10.9c0,2.9,1.7,5.1,4.6,5.1a4.65,4.65,0,0,0,4.1-2.8l2.2,1.2a6.57,6.57,0,0,1-6.3,3.9c-4.9,0-7.2-3.3-7.2-8.4,0-4.7,2.7-7.8,7.1-7.8,4.7,0,6.6,3.4,6.6,7.6A4.3,4.3,0,0,0,338.46,142.16Zm-6.6-6.8c-2.8,0-4.2,2.3-4.2,4.6h8.2C335.86,137.46,334.66,135.36,331.86,135.36Z"/><path class="cls-1" d="M362.26,144.36l2.7-.5a3.82,3.82,0,0,0,4.2,3.4c2.1,0,3.2-.9,3.2-2.3s-.8-2.2-2.5-2.4l-2.5-.3c-3.1-.3-4.5-2.1-4.5-4.5,0-2.8,2.2-4.6,5.9-4.6,3.5,0,5.9,1.9,6.3,4.7l-2.6.6a3.54,3.54,0,0,0-3.7-3.2c-2,0-3.3.8-3.3,2.3,0,1.3.9,2.1,2.8,2.4l2.5.3c3.1.3,4.3,2,4.3,4.4,0,2.9-2.2,4.7-5.9,4.7C365.26,149.56,362.86,147.76,362.26,144.36Z"/><path class="cls-1" d="M381.16,147h5v-11.2h-4.5v-2.2h7.1v13.31H394v2.19h-12.8V147Zm7.8-16.4h-3.7v-3.7H389Z"/><path class="cls-1" d="M402.76,133.36a3.36,3.36,0,0,1,3.2,2.8,4,4,0,0,1,3.7-2.8c1.9,0,3.7,1.3,3.7,4.6v11.2h-2.6v-11c0-2-.9-2.5-1.8-2.5-1.8,0-2.5,1.3-2.5,3.3v10.3h-2.6v-11c0-1.9-.8-2.5-1.8-2.5-1.8,0-2.4,1.4-2.4,3.3v10.31h-2.6v-15.5h2.5v2.4A3.29,3.29,0,0,1,402.76,133.36Z"/><path class="cls-1" d="M417.66,147h5v-11.2h-4.5v-2.2h7.1v13.31h5.2v2.19h-12.8V147Zm7.9-16.4h-3.7v-3.7h3.7Z"/><path class="cls-1" d="M446.16,139.36v2.5h-9v-2.5Z"/><path class="cls-1" d="M15.66,184.16h5v-18.1h-4.6v-2.2h7.3v20.3h5.2v2.2H15.66Z"/><path class="cls-1" d="M46.06,186.36h-2.8a26.35,26.35,0,0,1-.2-2.8,5.17,5.17,0,0,1-5.2,3.2c-3.1,0-5.2-1.9-5.2-4.6a4.06,4.06,0,0,1,2.2-3.7,14.28,14.28,0,0,1,5.3-1.3l2.8-.3v-.3c0-2.8-1-4-3.3-4s-3.5,1.1-3.6,3.1h-2.8c.3-3.3,2.7-5.2,6.6-5.2s5.8,2,5.8,6.4v4.2A15.41,15.41,0,0,0,46.06,186.36Zm-6.9-7.1c-2.7.4-3.8,1.1-3.8,2.7s1.1,2.5,2.9,2.5c2.8,0,4.6-1.9,4.6-5v-.8Z"/><path class="cls-1" d="M62.06,170.56a10.88,10.88,0,0,1,2.8.3v2.4A11.19,11.19,0,0,0,62,173c-3.7,0-6.7,2.5-6.7,7.6v5.8h-2.6v-15.5h2.6v4A7.43,7.43,0,0,1,62.06,170.56Z"/><path class="cls-1" d="M95.56,170.46a5.31,5.31,0,0,1,3.8,1.4c1,1,1.5,2.4,1.5,4.9v9.6h-2.6V177c0-3.4-1.7-4.1-3.3-4.1-3.4,0-4.2,3.3-4.2,5.5v8.1h-2.6V164h2.6v9.8A5.13,5.13,0,0,1,95.56,170.46Z"/><path class="cls-1" d="M119.16,179.26h-10.8c0,2.9,1.7,5.1,4.6,5.1a4.65,4.65,0,0,0,4.1-2.8l2.2,1.2a6.57,6.57,0,0,1-6.3,3.9c-4.9,0-7.2-3.3-7.2-8.4,0-4.7,2.7-7.8,7.1-7.8,4.7,0,6.6,3.4,6.6,7.6A5.27,5.27,0,0,0,119.16,179.26Zm-6.6-6.7c-2.8,0-4.2,2.3-4.2,4.6h8.2C116.56,174.66,115.36,172.56,112.56,172.56Z"/><path class="cls-1" d="M135.16,170.56a10.88,10.88,0,0,1,2.8.3v2.4a11.19,11.19,0,0,0-2.9-.3c-3.7,0-6.7,2.5-6.7,7.6v5.8h-2.6v-15.5h2.6v4A7.43,7.43,0,0,1,135.16,170.56Z"/><path class="cls-1" d="M155.76,179.26h-10.9c0,2.9,1.7,5.1,4.6,5.1a4.65,4.65,0,0,0,4.1-2.8l2.2,1.2a6.57,6.57,0,0,1-6.3,3.9c-4.9,0-7.2-3.3-7.2-8.4,0-4.7,2.7-7.8,7.1-7.8,4.7,0,6.6,3.4,6.6,7.6A5,5,0,0,0,155.76,179.26Zm-6.6-6.7c-2.8,0-4.2,2.3-4.2,4.6h8.2C153.16,174.66,151.86,172.56,149.16,172.56Z"/><path class="cls-1" d="M180.16,184.16h5V173h-4.5v-2.2h7.1v13.3H193v2.2h-12.8Zm7.8-16.4h-3.7v-3.7H188Z"/><path class="cls-1" d="M205.26,170.46a5.11,5.11,0,0,1,3.7,1.3c1,1,1.5,2.4,1.5,5v9.6h-2.6V177c0-3.4-1.7-4.1-3.2-4.1-3.5,0-4.3,3.3-4.3,5.5v8.1h-2.6V171h2.5v3.1A5,5,0,0,1,205.26,170.46Z"/><path class="cls-1" d="M248.06,166.86h-10.6v7h9.8v2.5h-9.8v10h-2.9v-22h13.5Z"/><path class="cls-1" d="M253.26,184.16h5v-18.1h-4.6v-2.2H261v20.3h5.2v2.2h-12.8v-2.2Z"/><path class="cls-1" d="M283.56,186.36h-2.8a26.35,26.35,0,0,1-.2-2.8,5.17,5.17,0,0,1-5.2,3.2c-3.1,0-5.2-1.9-5.2-4.6a4.06,4.06,0,0,1,2.2-3.7,14.28,14.28,0,0,1,5.3-1.3l2.8-.3v-.3c0-2.8-1-4-3.3-4s-3.5,1.1-3.6,3.1h-2.8c.3-3.3,2.7-5.2,6.6-5.2s5.8,2,5.8,6.4v4.2A18.45,18.45,0,0,0,283.56,186.36Zm-6.8-7.1c-2.7.4-3.8,1.1-3.8,2.7s1.1,2.5,2.9,2.5c2.8,0,4.6-1.9,4.6-5v-.8Z"/><path class="cls-1" d="M288.56,170.86H293v-4.1l2.6-1.1v5.2h6V173h-6v8c0,2.1,1,3.1,3,3.1a16.28,16.28,0,0,0,3.1-.3v2.4a11.45,11.45,0,0,1-3,.4c-3.9,0-5.6-2.2-5.6-5.2V173h-4.4v-2.1Z"/><path class="cls-1" d="M323.86,164.36h2.9l.7,15.6c.1,2.3.1,3.4.1,3.9h.3a30.25,30.25,0,0,1,.6-4.2l2.1-10h2.7l2.1,10a18.93,18.93,0,0,1,.6,4.2h.3c0-.5,0-1.6.1-3.9l.7-15.6H340l-1.7,22h-3.8l-2-9.4a32,32,0,0,1-.6-4.4h-.3a32,32,0,0,1-.6,4.4l-2,9.4h-3.8Z"/><path class="cls-1" d="M343.06,178.56c0-4.9,2.9-8.1,7.2-8.1s7.2,3.2,7.2,8.1-2.9,8.1-7.2,8.1S343.06,183.46,343.06,178.56Zm11.7,0c0-3.6-1.6-5.8-4.4-5.8s-4.4,2.2-4.4,5.8,1.6,5.8,4.4,5.8S354.76,182.26,354.76,178.56Z"/><path class="cls-1" d="M372.76,170.56a10.88,10.88,0,0,1,2.8.3v2.4a11.19,11.19,0,0,0-2.9-.3c-3.7,0-6.7,2.5-6.7,7.6v5.8h-2.6v-15.5H366v4A7.21,7.21,0,0,1,372.76,170.56Z"/><path class="cls-1" d="M381.16,184.16h5v-18.1h-4.6v-2.2h7.3v20.3h5.2v2.2h-12.8v-2.2Z"/><path class="cls-1" d="M411.06,163.86v22.5h-2.5v-2.9a5,5,0,0,1-4.9,3.3c-3.9,0-6.4-3.2-6.4-8.1s2.7-8.1,6.8-8.1a4.72,4.72,0,0,1,4.4,2.7V164h2.6Zm-6.7,8.9c-2.7,0-4.2,2.1-4.2,5.8s1.6,5.81,4.2,5.81,4.3-2.1,4.3-5.5v-.7C408.56,175,407,172.76,404.36,172.76Z"/><path class="cls-1" d="M421.46,189.46a2.85,2.85,0,0,0,2.1-3.2h-2.2v-4h4.1v4c0,2.4-.7,3.6-3.1,4.6Z"/><path class="cls-1" d="M14.56,208.06H19V204l2.6-1.1v5.2h6v2.1h-6v8c0,2.1,1,3.1,3,3.1a16.28,16.28,0,0,0,3.1-.3v2.4a11.45,11.45,0,0,1-3,.4c-3.9,0-5.6-2.2-5.6-5.2v-8.4h-4.4v-2.1Z"/><path class="cls-1" d="M40.76,207.66a5.31,5.31,0,0,1,3.8,1.4c1,1,1.5,2.4,1.5,4.9v9.6h-2.6v-9.4c0-3.4-1.7-4.1-3.3-4.1-3.4,0-4.2,3.3-4.2,5.5v8.1h-2.6v-22.5H36V211A4.9,4.9,0,0,1,40.76,207.66Z"/><path class="cls-1" d="M64.36,216.46H53.56c0,2.9,1.7,5.1,4.6,5.1a4.65,4.65,0,0,0,4.1-2.8l2.2,1.2a6.57,6.57,0,0,1-6.3,3.9c-4.9,0-7.2-3.3-7.2-8.4,0-4.7,2.7-7.8,7.1-7.8,4.7,0,6.6,3.4,6.6,7.6A5.27,5.27,0,0,0,64.36,216.46Zm-6.6-6.8c-2.8,0-4.2,2.3-4.2,4.6h8.2C61.76,211.76,60.56,209.66,57.76,209.66Z"/><path class="cls-1" d="M69.86,218.76l2.7-.5a3.82,3.82,0,0,0,4.2,3.4c2.1,0,3.2-.9,3.2-2.3s-.8-2.2-2.5-2.4l-2.5-.3c-3.1-.3-4.5-2.1-4.5-4.5,0-2.8,2.2-4.6,5.9-4.6,3.5,0,5.9,1.9,6.3,4.7l-2.6.6a3.54,3.54,0,0,0-3.7-3.2c-2,0-3.3.8-3.3,2.3,0,1.3.9,2.1,2.8,2.4l2.5.3c3.1.3,4.3,2,4.3,4.4,0,2.9-2.2,4.7-5.9,4.7C72.86,223.86,70.46,222.06,69.86,218.76Z"/><path class="cls-1" d="M101,216.46H90.06c0,2.9,1.7,5.1,4.6,5.1a4.65,4.65,0,0,0,4.1-2.8L101,220a6.57,6.57,0,0,1-6.3,3.9c-4.9,0-7.2-3.3-7.2-8.4,0-4.7,2.7-7.8,7.1-7.8,4.7,0,6.6,3.4,6.6,7.6A2.54,2.54,0,0,0,101,216.46Zm-6.7-6.8c-2.8,0-4.2,2.3-4.2,4.6h8.2C98.36,211.76,97.06,209.66,94.26,209.66Z"/><path class="cls-1" d="M125.26,221.36h5v-18.1h-4.6v-2.2H133v20.31h5.2v2.19h-12.8v-2.2Z"/><path class="cls-1" d="M143.56,221.36h5v-11.2h-4.5V208h7.1v13.31h5.2v2.19h-12.8Zm7.9-16.4h-3.7v-3.7h3.7Z"/><path class="cls-1" d="M164.06,210.76a5.32,5.32,0,0,1,4.8-3.1c4,0,6.4,3.4,6.4,8.1s-2.4,8.1-6.5,8.1a5.07,5.07,0,0,1-4.8-3l-.5,2.7h-2v-22.5h2.6Zm4.1,10.8c2.7,0,4.3-2.3,4.3-5.8s-1.5-5.8-4.2-5.8-4.2,2.1-4.2,5.4v.8C164.06,219.46,165.56,221.56,168.16,221.56Z"/><path class="cls-1" d="M190,207.66a10.88,10.88,0,0,1,2.8.3v2.4a11.19,11.19,0,0,0-2.9-.3c-3.7,0-6.7,2.5-6.7,7.6v5.8h-2.6V208h2.6v4A7.43,7.43,0,0,1,190,207.66Z"/><path class="cls-1" d="M210.46,223.46h-2.8a26.35,26.35,0,0,1-.2-2.8,5.17,5.17,0,0,1-5.2,3.2c-3.1,0-5.2-1.9-5.2-4.6a4.06,4.06,0,0,1,2.2-3.7,14.28,14.28,0,0,1,5.3-1.3l2.8-.3v-.3c0-2.8-1-4-3.3-4s-3.5,1.1-3.6,3.1h-2.8c.3-3.3,2.7-5.2,6.6-5.2s5.8,2,5.8,6.4v4.2A17.72,17.72,0,0,0,210.46,223.46Zm-6.8-7c-2.7.4-3.8,1.1-3.8,2.7s1.1,2.5,2.9,2.5c2.8,0,4.6-1.9,4.6-5v-.8Z"/><path class="cls-1" d="M226.56,207.66a10.88,10.88,0,0,1,2.8.3v2.4a11.19,11.19,0,0,0-2.9-.3c-3.7,0-6.7,2.5-6.7,7.6v5.8h-2.6V208h2.6v4A7.32,7.32,0,0,1,226.56,207.66Z"/><path class="cls-1" d="M235,221.36h5v-11.2h-4.6V208h7.1v13.31h5.2v2.19h-12.8v-2.1Zm7.8-16.4h-3.7v-3.7h3.7Z"/><path class="cls-1" d="M265.36,216.46h-10.9c0,2.9,1.7,5.1,4.6,5.1a4.65,4.65,0,0,0,4.1-2.8l2.2,1.2a6.57,6.57,0,0,1-6.3,3.9c-4.9,0-7.2-3.3-7.2-8.4,0-4.7,2.7-7.8,7.1-7.8,4.7,0,6.6,3.4,6.6,7.6C265.46,215.66,265.46,216.06,265.36,216.46Zm-6.6-6.8c-2.8,0-4.2,2.3-4.2,4.6h8.2C262.76,211.76,261.56,209.66,258.76,209.66Z"/><path class="cls-1" d="M270.86,218.76l2.7-.5a3.82,3.82,0,0,0,4.2,3.4c2.1,0,3.2-.9,3.2-2.3s-.8-2.2-2.5-2.4l-2.5-.3c-3.1-.3-4.5-2.1-4.5-4.5,0-2.8,2.2-4.6,5.9-4.6,3.5,0,5.9,1.9,6.3,4.7l-2.6.6a3.54,3.54,0,0,0-3.7-3.2c-2,0-3.3.8-3.3,2.3,0,1.3.9,2.1,2.8,2.4l2.5.3c3.1.3,4.3,2,4.3,4.4,0,2.9-2.2,4.7-5.9,4.7C273.86,223.86,271.46,222.06,270.86,218.76Z"/><path class="cls-1" d="M311.36,207.66a3.36,3.36,0,0,1,3.2,2.8,4,4,0,0,1,3.7-2.8c1.9,0,3.7,1.3,3.7,4.6v11.2h-2.6v-11c0-2-.9-2.5-1.8-2.5-1.8,0-2.5,1.3-2.5,3.3v10.3h-2.6v-11c0-1.9-.8-2.5-1.8-2.5-1.8,0-2.4,1.4-2.4,3.3v10.3h-2.6v-15.5h2.5v2.4C308.66,208.76,309.86,207.66,311.36,207.66Z"/><path class="cls-1" d="M338.46,223.46h-2.8a26.35,26.35,0,0,1-.2-2.8,5.17,5.17,0,0,1-5.2,3.2c-3.1,0-5.2-1.9-5.2-4.6a4.06,4.06,0,0,1,2.2-3.7,14.28,14.28,0,0,1,5.3-1.3l2.8-.3v-.3c0-2.8-1-4-3.3-4s-3.5,1.1-3.6,3.1h-2.8c.3-3.3,2.7-5.2,6.6-5.2s5.8,2,5.8,6.4v4.2A12.83,12.83,0,0,0,338.46,223.46Zm-6.9-7c-2.7.4-3.8,1.1-3.8,2.7s1.1,2.5,2.9,2.5c2.8,0,4.6-1.9,4.6-5v-.8Z"/><path class="cls-1" d="M349.76,216l-2.8,2.8v4.7h-2.6V201H347v14.6l6.9-7.6h3.4l-5.7,6,6,9.5h-3.3Z"/><path class="cls-1" d="M375.06,216.46h-10.9c0,2.9,1.7,5.1,4.6,5.1a4.65,4.65,0,0,0,4.1-2.8l2.2,1.2a6.57,6.57,0,0,1-6.3,3.9c-4.9,0-7.2-3.3-7.2-8.4,0-4.7,2.7-7.8,7.1-7.8,4.7,0,6.6,3.4,6.6,7.6A2.54,2.54,0,0,0,375.06,216.46Zm-6.7-6.8c-2.8,0-4.2,2.3-4.2,4.6h8.2C372.46,211.76,371.16,209.66,368.36,209.66Z"/><path class="cls-1" d="M380.56,218.76l2.7-.5a3.82,3.82,0,0,0,4.2,3.4c2.1,0,3.2-.9,3.2-2.3s-.8-2.2-2.5-2.4l-2.5-.3c-3.1-.3-4.5-2.1-4.5-4.5,0-2.8,2.2-4.6,5.9-4.6,3.5,0,5.9,1.9,6.3,4.7l-2.6.6a3.54,3.54,0,0,0-3.7-3.2c-2,0-3.3.8-3.3,2.3,0,1.3.9,2.1,2.8,2.4l2.5.3c3.1.3,4.3,2,4.3,4.4,0,2.9-2.2,4.7-5.9,4.7C383.56,223.86,381.06,222.06,380.56,218.76Z"/><path class="cls-1" d="M417.66,221.36h5v-11.2h-4.5V208h7.1v13.31h5.2v2.19h-12.8v-2.1Zm7.9-16.4h-3.7v-3.7h3.7Z"/><path class="cls-1" d="M434.76,208.06h4.4V204l2.6-1.1v5.2h6v2.1h-6v8c0,2.1,1,3.1,3,3.1a16.28,16.28,0,0,0,3.1-.3v2.4a11.45,11.45,0,0,1-3,.4c-3.9,0-5.6-2.2-5.6-5.2v-8.4h-4.4v-2.1Z"/><path class="cls-1" d="M27.86,253.56H17c0,2.9,1.7,5.1,4.6,5.1a4.65,4.65,0,0,0,4.1-2.8l2.2,1.2a6.57,6.57,0,0,1-6.3,3.9c-4.9,0-7.2-3.3-7.2-8.4,0-4.7,2.7-7.8,7.1-7.8,4.7,0,6.6,3.4,6.6,7.6A2.54,2.54,0,0,0,27.86,253.56Zm-6.6-6.7c-2.8,0-4.2,2.3-4.2,4.6h8.2C25.26,249,24,246.86,21.26,246.86Z"/><path class="cls-1" d="M46.06,260.66h-2.8a26.35,26.35,0,0,1-.2-2.8,5.17,5.17,0,0,1-5.2,3.2c-3.1,0-5.2-1.9-5.2-4.6a4.06,4.06,0,0,1,2.2-3.7,14.28,14.28,0,0,1,5.3-1.3l2.8-.3v-.3c0-2.8-1-4-3.3-4s-3.5,1.1-3.6,3.1h-2.8c.3-3.3,2.7-5.2,6.6-5.2s5.8,2,5.8,6.4v4.2A14.87,14.87,0,0,0,46.06,260.66Zm-6.9-7c-2.7.4-3.8,1.1-3.8,2.7s1.1,2.5,2.9,2.5c2.8,0,4.6-1.9,4.6-5v-.8Z"/><path class="cls-1" d="M51.66,255.86l2.7-.5a3.82,3.82,0,0,0,4.2,3.4c2.1,0,3.2-.9,3.2-2.3s-.8-2.2-2.5-2.4l-2.5-.3c-3.1-.3-4.5-2.1-4.5-4.5,0-2.8,2.2-4.6,5.9-4.6,3.5,0,5.9,1.9,6.3,4.7l-2.6.6a3.54,3.54,0,0,0-3.7-3.2c-2,0-3.3.8-3.3,2.3,0,1.3.9,2.1,2.8,2.4l2.5.3c3.1.3,4.3,2,4.3,4.4,0,2.9-2.2,4.7-5.9,4.7C54.66,261.06,52.16,259.26,51.66,255.86Z"/><path class="cls-1" d="M70.46,258.46h5v-11.2H71v-2.2h7.1v13.31h5.2v2.19H70.46Zm7.9-16.4h-3.7v-3.7h3.7Z"/><path class="cls-1" d="M101,253.56H90.06c0,2.9,1.7,5.1,4.6,5.1a4.65,4.65,0,0,0,4.1-2.8l2.2,1.2a6.57,6.57,0,0,1-6.3,3.9c-4.9,0-7.2-3.3-7.2-8.4,0-4.7,2.7-7.8,7.1-7.8,4.7,0,6.6,3.4,6.6,7.6A2.54,2.54,0,0,0,101,253.56Zm-6.7-6.7c-2.8,0-4.2,2.3-4.2,4.6h8.2C98.36,249,97.06,246.86,94.26,246.86Z"/><path class="cls-1" d="M117,244.86a10.88,10.88,0,0,1,2.8.3v2.4a11.65,11.65,0,0,0-2.9-.3c-3.7,0-6.7,2.5-6.7,7.6v5.8h-2.6v-15.5h2.6v4A7.21,7.21,0,0,1,117,244.86Z"/><path class="cls-1" d="M155.76,247.36h-5.9v13.4h-2.6v-13.4h-4.7v-2.1h4.7v-1.7c0-3.5,2-5.4,5.8-5.4a13.9,13.9,0,0,1,2.7.3v2.31a17.57,17.57,0,0,0-2.7-.2c-2.4,0-3.2.8-3.2,3.2v1.5h5.9Z"/><path class="cls-1" d="M160.36,253c0-4.9,2.9-8.1,7.2-8.1s7.2,3.2,7.2,8.1-2.9,8.1-7.2,8.1S160.36,257.76,160.36,253Zm11.6,0c0-3.6-1.6-5.8-4.4-5.8s-4.4,2.2-4.4,5.8,1.6,5.8,4.4,5.8S172,256.56,172,253Z"/><path class="cls-1" d="M190,244.86a10.88,10.88,0,0,1,2.8.3v2.4a11.65,11.65,0,0,0-2.9-.3c-3.7,0-6.7,2.5-6.7,7.6v5.8h-2.6v-15.5h2.6v4A7.43,7.43,0,0,1,190,244.86Z"/><path class="cls-1" d="M221.36,261.06a5.48,5.48,0,0,1-4-1.4c-1-1-1.4-2.4-1.4-4.9v-9.6h2.7v9.5c0,3.4,1.6,4.1,3.2,4.1,3.3,0,4-3.3,4-5.5v-8.1h2.6v15.5H226v-2.9A5.23,5.23,0,0,1,221.36,261.06Z"/><path class="cls-1" d="M234.36,255.86l2.7-.5a3.82,3.82,0,0,0,4.2,3.4c2.1,0,3.2-.9,3.2-2.3s-.8-2.2-2.5-2.4l-2.5-.3c-3.1-.3-4.5-2.1-4.5-4.5,0-2.8,2.2-4.6,5.9-4.6,3.5,0,5.9,1.9,6.3,4.7l-2.6.6a3.54,3.54,0,0,0-3.7-3.2c-2,0-3.3.8-3.3,2.3,0,1.3.9,2.1,2.8,2.4l2.5.3c3.1.3,4.3,2,4.3,4.4,0,2.9-2.2,4.7-5.9,4.7C237.36,261.06,234.86,259.26,234.36,255.86Z"/><path class="cls-1" d="M270.36,245.16h4.4v-4.1l2.6-1.1v5.2h6v2.1h-6v8c0,2.1,1,3.1,3,3.1a16.28,16.28,0,0,0,3.1-.3v2.4a11.45,11.45,0,0,1-3,.4c-3.9,0-5.6-2.2-5.6-5.2v-8.4h-4.5Z"/><path class="cls-1" d="M288.26,253c0-4.9,2.9-8.1,7.2-8.1s7.2,3.2,7.2,8.1-2.9,8.1-7.2,8.1S288.26,257.76,288.26,253Zm11.7,0c0-3.6-1.6-5.8-4.4-5.8s-4.4,2.2-4.4,5.8,1.6,5.8,4.4,5.8S300,256.56,300,253Z"/><path class="cls-1" d="M338,238.26v22.5h-2.5v-2.9a5,5,0,0,1-4.9,3.3c-3.9,0-6.4-3.2-6.4-8.1s2.7-8.1,6.8-8.1a4.72,4.72,0,0,1,4.4,2.7v-9.3H338Zm-6.7,8.9c-2.7,0-4.2,2.1-4.2,5.8s1.6,5.8,4.2,5.8,4.3-2.1,4.3-5.5v-.7C335.46,249.26,333.86,247.16,331.26,247.16Z"/><path class="cls-1" d="M344.56,258.46h5v-11.2h-4.5v-2.2h7.1v13.31h5.2v2.19h-12.8v-2.1Zm7.9-16.4h-3.7v-3.7h3.7Z"/><path class="cls-1" d="M375.06,247.36h-5.9v13.4h-2.6v-13.4h-4.7v-2.1h4.7v-1.7c0-3.5,2-5.4,5.8-5.4a13.9,13.9,0,0,1,2.7.3v2.31a17.57,17.57,0,0,0-2.7-.2c-2.4,0-3.2.8-3.2,3.2v1.5h5.9v2.09Z"/><path class="cls-1" d="M393.36,247.36h-5.9v13.4h-2.6v-13.4h-4.7v-2.1h4.7v-1.7c0-3.5,2-5.4,5.8-5.4a13.9,13.9,0,0,1,2.7.3v2.31a17.57,17.57,0,0,0-2.7-.2c-2.4,0-3.2.8-3.2,3.2v1.5h5.9v2.09Z"/><path class="cls-1" d="M411.56,253.56h-10.9c0,2.9,1.7,5.1,4.6,5.1a4.65,4.65,0,0,0,4.1-2.8l2.2,1.2a6.57,6.57,0,0,1-6.3,3.9c-4.9,0-7.2-3.3-7.2-8.4,0-4.7,2.7-7.8,7.1-7.8,4.7,0,6.6,3.4,6.6,7.6A5,5,0,0,0,411.56,253.56Zm-6.6-6.7c-2.8,0-4.2,2.3-4.2,4.6H409C409,249,407.76,246.86,405,246.86Z"/><path class="cls-1" d="M427.56,244.86a10.88,10.88,0,0,1,2.8.3v2.4a11.65,11.65,0,0,0-2.9-.3c-3.7,0-6.7,2.5-6.7,7.6v5.8h-2.6v-15.5h2.6v4A7.32,7.32,0,0,1,427.56,244.86Z"/><path class="cls-1" d="M446.16,250.86v2.5h-9v-2.5Z"/><path class="cls-1" d="M27.86,290.76H17c0,2.9,1.7,5.1,4.6,5.1a4.65,4.65,0,0,0,4.1-2.8l2.2,1.2a6.57,6.57,0,0,1-6.3,3.9c-4.9,0-7.2-3.3-7.2-8.4,0-4.7,2.7-7.8,7.1-7.8,4.7,0,6.6,3.4,6.6,7.6A2.54,2.54,0,0,0,27.86,290.76Zm-6.6-6.7c-2.8,0-4.2,2.3-4.2,4.6h8.2C25.26,286.16,24,284.06,21.26,284.06Z"/><path class="cls-1" d="M40.86,282a5.11,5.11,0,0,1,3.7,1.3c1,1,1.5,2.4,1.5,5v9.6h-2.6v-9.4c0-3.4-1.7-4.1-3.2-4.1-3.5,0-4.3,3.3-4.3,5.5V298h-2.6v-15.5h2.5v3.1A5,5,0,0,1,40.86,282Z"/><path class="cls-1" d="M50.86,290c0-4.6,2.4-8,7.2-8a5.92,5.92,0,0,1,6.3,5.5l-2.7.3c-.3-2.3-1.6-3.6-3.8-3.6-2.8,0-4.3,2.3-4.3,5.7s1.5,5.9,4.4,5.9c2.3,0,3.5-1.4,3.8-3.7l2.5.4c-.5,3.2-2.5,5.6-6.3,5.6C53.26,298.16,50.86,294.66,50.86,290Z"/><path class="cls-1" d="M70.46,295.66h5v-11.2H71v-2.2h7.1v13.3h5.2v2.2H70.46Zm7.9-16.4h-3.7v-3.7h3.7Z"/><path class="cls-1" d="M100.86,297.86h-2.8a26.35,26.35,0,0,1-.2-2.8,5.17,5.17,0,0,1-5.2,3.2c-3.1,0-5.2-1.9-5.2-4.6a4.06,4.06,0,0,1,2.2-3.7,14.28,14.28,0,0,1,5.3-1.3l2.8-.3v-.3c0-2.8-1-4-3.3-4s-3.5,1.1-3.6,3.1h-2.8c.3-3.3,2.7-5.2,6.6-5.2s5.8,2,5.8,6.4v4.2A15.41,15.41,0,0,0,100.86,297.86Zm-6.8-7.1c-2.7.4-3.8,1.1-3.8,2.7s1.1,2.5,2.9,2.5c2.8,0,4.6-1.9,4.6-5v-.8Z"/><path class="cls-1" d="M105.86,282.36h4.4v-4.1l2.6-1.1v5.2h6v2.1h-6v8c0,2.1,1,3.1,3,3.1a16.28,16.28,0,0,0,3.1-.3v2.4a11.45,11.45,0,0,1-3,.4c-3.9,0-5.6-2.2-5.6-5.2v-8.4H106v-2.1Z"/><path class="cls-1" d="M137.46,290.76h-10.9c0,2.9,1.7,5.1,4.6,5.1a4.65,4.65,0,0,0,4.1-2.8l2.2,1.2a6.57,6.57,0,0,1-6.3,3.9c-4.9,0-7.2-3.3-7.2-8.4,0-4.7,2.7-7.8,7.1-7.8,4.7,0,6.6,3.4,6.6,7.6A5,5,0,0,0,137.46,290.76Zm-6.6-6.7c-2.8,0-4.2,2.3-4.2,4.6h8.2C134.86,286.16,133.66,284.06,130.86,284.06Z"/><path class="cls-1" d="M160.36,290.06c0-4.9,2.9-8.1,7.2-8.1s7.2,3.2,7.2,8.1-2.9,8.1-7.2,8.1S160.36,295,160.36,290.06Zm11.6,0c0-3.6-1.6-5.8-4.4-5.8s-4.4,2.2-4.4,5.8,1.6,5.8,4.4,5.8S172,293.76,172,290.06Z"/><path class="cls-1" d="M184.76,298.16a5.48,5.48,0,0,1-4-1.4c-1-1-1.4-2.4-1.4-4.9v-9.6h2.7v9.5c0,3.4,1.6,4.1,3.2,4.1,3.3,0,4-3.3,4-5.5v-8.1h2.6v15.5h-2.5v-2.9A5,5,0,0,1,184.76,298.16Z"/><path class="cls-1" d="M208.26,282.06a10.88,10.88,0,0,1,2.8.3v2.4a11.19,11.19,0,0,0-2.9-.3c-3.7,0-6.7,2.5-6.7,7.6v5.8h-2.6v-15.5h2.6v4A7.43,7.43,0,0,1,208.26,282.06Z"/><path class="cls-1" d="M216.06,293.06l2.7-.5A3.82,3.82,0,0,0,223,296c2.1,0,3.2-.9,3.2-2.3s-.8-2.2-2.5-2.4l-2.5-.3c-3.1-.3-4.5-2.1-4.5-4.5,0-2.8,2.2-4.6,5.9-4.6,3.5,0,5.9,1.9,6.3,4.7l-2.6.6a3.54,3.54,0,0,0-3.7-3.2c-2,0-3.3.8-3.3,2.3,0,1.3.9,2.1,2.8,2.4l2.5.3c3.1.3,4.3,2,4.3,4.4,0,2.9-2.2,4.7-5.9,4.7C219.06,298.16,216.66,296.36,216.06,293.06Z"/><path class="cls-1" d="M247.16,290.76h-10.9c0,2.9,1.7,5.1,4.6,5.1a4.65,4.65,0,0,0,4.1-2.8l2.2,1.2a6.57,6.57,0,0,1-6.3,3.9c-4.9,0-7.2-3.3-7.2-8.4,0-4.7,2.7-7.8,7.1-7.8,4.7,0,6.6,3.4,6.6,7.6A2.54,2.54,0,0,0,247.16,290.76Zm-6.7-6.7c-2.8,0-4.2,2.3-4.2,4.6h8.2C244.46,286.16,243.26,284.06,240.46,284.06Z"/><path class="cls-1" d="M253.26,295.66h5v-18.1h-4.6v-2.2H261v20.3h5.2v2.2h-12.8v-2.2Z"/><path class="cls-1" d="M269.56,282.36h2.8l4.1,10.6c.3.8.6,1.5.8,2.2h.1c.2-.7.4-1.4.7-2.2l4.2-10.6H285l-6.2,15.5H276Z"/><path class="cls-1" d="M302,290.76h-10.9c0,2.9,1.7,5.1,4.6,5.1a4.65,4.65,0,0,0,4.1-2.8l2.2,1.2a6.57,6.57,0,0,1-6.3,3.9c-4.9,0-7.2-3.3-7.2-8.4,0-4.7,2.7-7.8,7.1-7.8,4.7,0,6.6,3.4,6.6,7.6A2.54,2.54,0,0,0,302,290.76Zm-6.7-6.7c-2.8,0-4.2,2.3-4.2,4.6h8.2C299.36,286.16,298.06,284.06,295.26,284.06Z"/><path class="cls-1" d="M307.46,293.06l2.7-.5a3.82,3.82,0,0,0,4.2,3.4c2.1,0,3.2-.9,3.2-2.3s-.8-2.2-2.5-2.4l-2.5-.3c-3.1-.3-4.5-2.1-4.5-4.5,0-2.8,2.2-4.6,5.9-4.6,3.5,0,5.9,1.9,6.3,4.7l-2.6.6A3.54,3.54,0,0,0,314,284c-2,0-3.3.8-3.3,2.3,0,1.3.9,2.1,2.8,2.4l2.5.3c3.1.3,4.3,2,4.3,4.4,0,2.9-2.2,4.7-5.9,4.7C310.46,298.16,308,296.36,307.46,293.06Z"/><path class="cls-1" d="M334.06,297.86H330v-4h4.1Z"/><path class="cls-1" d="M13.36,445.66v-2c0-6.5,2.7-10.5,8-10.5s8,4,8,10.5v2c0,6.5-2.7,10.5-8,10.5S13.36,452.26,13.36,445.66Zm13.1,0v-2c0-5.5-1.6-8.1-5-8.1s-5,2.5-5,8.1v2c0,5.5,1.6,8.1,5,8.1S26.46,451.16,26.46,445.66Z"/><path class="cls-1" d="M38.56,456.06a5.48,5.48,0,0,1-4-1.4c-1-1-1.4-2.4-1.4-4.9v-9.6h2.7v9.5c0,3.4,1.6,4.1,3.2,4.1,3.3,0,4-3.3,4-5.5v-8.1h2.6v15.5h-2.5v-2.9A5.11,5.11,0,0,1,38.56,456.06Z"/><path class="cls-1" d="M62.06,439.86a10.88,10.88,0,0,1,2.8.3v2.4a11.65,11.65,0,0,0-2.9-.3c-3.7,0-6.7,2.5-6.7,7.6v5.8h-2.6v-15.5h2.6v4A7.43,7.43,0,0,1,62.06,439.86Z"/><path class="cls-1" d="M101,442.36h-5.9v13.4h-2.6v-13.4h-4.7v-2.1h4.7v-1.7c0-3.5,2-5.4,5.8-5.4a13.9,13.9,0,0,1,2.7.3v2.31a17.57,17.57,0,0,0-2.7-.2c-2.4,0-3.2.8-3.2,3.2v1.5H101Zm7,11.2h5v-11.2h-4.5v-2.2h7.1v13.3h5.2v2.2H108Zm7.9-16.5h-3.7v-3.7h3.7Z"/><path class="cls-1" d="M133.16,439.86a5.11,5.11,0,0,1,3.7,1.3c1,1,1.5,2.4,1.5,5v9.6h-2.6v-9.4c0-3.4-1.7-4.1-3.2-4.1-3.5,0-4.3,3.3-4.3,5.5v8.1h-2.6v-15.5h2.5v3.1A5,5,0,0,1,133.16,439.86Z"/><path class="cls-1" d="M156.66,448.66h-10.9c0,2.9,1.7,5.1,4.6,5.1a4.65,4.65,0,0,0,4.1-2.8l2.2,1.2a6.57,6.57,0,0,1-6.3,3.9c-4.9,0-7.2-3.3-7.2-8.4,0-4.7,2.7-7.8,7.1-7.8,4.7,0,6.6,3.4,6.6,7.6A5,5,0,0,0,156.66,448.66Zm-6.6-6.8c-2.8,0-4.2,2.3-4.2,4.6h8.2C154.06,444,152.86,441.86,150.06,441.86Z"/><path class="cls-1" d="M180.46,451l2.7-.5a3.82,3.82,0,0,0,4.2,3.4c2.1,0,3.2-.9,3.2-2.3s-.8-2.2-2.5-2.4l-2.5-.3c-3.1-.3-4.5-2.1-4.5-4.5,0-2.8,2.2-4.6,5.9-4.6,3.5,0,5.9,1.9,6.3,4.7l-2.6.6a3.54,3.54,0,0,0-3.7-3.2c-2,0-3.3.8-3.3,2.3,0,1.3.9,2.1,2.8,2.4l2.5.3c3.1.3,4.3,2,4.3,4.4,0,2.9-2.2,4.7-5.9,4.7C183.46,456.06,181.06,454.26,180.46,451Z"/><path class="cls-1" d="M211.46,448.66h-10.9c0,2.9,1.7,5.1,4.6,5.1a4.65,4.65,0,0,0,4.1-2.8l2.2,1.2a6.57,6.57,0,0,1-6.3,3.9c-4.9,0-7.2-3.3-7.2-8.4,0-4.7,2.7-7.8,7.1-7.8,4.7,0,6.6,3.4,6.6,7.6C211.56,447.86,211.56,448.26,211.46,448.66Zm-6.6-6.8c-2.8,0-4.2,2.3-4.2,4.6h8.2C208.86,444,207.66,441.86,204.86,441.86Z"/><path class="cls-1" d="M217.56,453.56h5v-18.1H218v-2.2h7.3v20.3h5.2v2.2h-12.8v-2.2Z"/><path class="cls-1" d="M248.06,448.66h-10.9c0,2.9,1.7,5.1,4.6,5.1a4.65,4.65,0,0,0,4.1-2.8l2.2,1.2a6.57,6.57,0,0,1-6.3,3.9c-4.9,0-7.2-3.3-7.2-8.4,0-4.7,2.7-7.8,7.1-7.8,4.7,0,6.6,3.4,6.6,7.6A2.54,2.54,0,0,0,248.06,448.66Zm-6.6-6.8c-2.8,0-4.2,2.3-4.2,4.6h8.2C245.46,444,244.16,441.86,241.46,441.86Z"/><path class="cls-1" d="M252.76,447.86c0-4.6,2.4-8,7.2-8a5.92,5.92,0,0,1,6.3,5.5l-2.7.3c-.3-2.3-1.6-3.6-3.8-3.6-2.8,0-4.3,2.31-4.3,5.7s1.5,5.9,4.4,5.9c2.3,0,3.5-1.4,3.8-3.7l2.5.41c-.5,3.19-2.5,5.59-6.3,5.59C255.16,456.06,252.76,452.46,252.76,447.86Z"/><path class="cls-1" d="M271.26,440.16h4.4v-4.1l2.6-1.1v5.2h6v2.1h-6v8c0,2.1,1,3.1,3,3.1a16.28,16.28,0,0,0,3.1-.3v2.4a11.45,11.45,0,0,1-3,.4c-3.9,0-5.6-2.2-5.6-5.2v-8.4h-4.4v-2.1Z"/><path class="cls-1" d="M290.66,453.56h5v-11.2h-4.5v-2.2h7.1v13.3h5.2v2.2h-12.8v-2.1Zm7.9-16.5h-3.7v-3.7h3.7Z"/><path class="cls-1" d="M307.46,448c0-4.9,2.9-8.1,7.2-8.1s7.2,3.2,7.2,8.1-2.9,8.1-7.2,8.1S307.46,452.86,307.46,448Zm11.7,0c0-3.6-1.6-5.8-4.4-5.8s-4.4,2.2-4.4,5.8,1.6,5.8,4.4,5.8S319.16,451.56,319.16,448Z"/><path class="cls-1" d="M334.16,439.86a5.11,5.11,0,0,1,3.7,1.3c1,1,1.5,2.4,1.5,5v9.6h-2.6v-9.4c0-3.4-1.7-4.1-3.2-4.1-3.5,0-4.3,3.3-4.3,5.5v8.1h-2.6v-15.5h2.5v3.1A5,5,0,0,1,334.16,439.86Z"/><path class="cls-1" d="M14.26,485.06c0-4.6,2.4-8,7.2-8a5.92,5.92,0,0,1,6.3,5.5l-2.7.3c-.3-2.3-1.6-3.6-3.8-3.6-2.8,0-4.3,2.3-4.3,5.7s1.5,5.9,4.4,5.9c2.3,0,3.5-1.4,3.8-3.7l2.5.4c-.5,3.2-2.5,5.6-6.3,5.6C16.66,493.26,14.26,489.66,14.26,485.06Z"/><path class="cls-1" d="M32.46,485.16c0-4.9,2.9-8.1,7.2-8.1s7.2,3.2,7.2,8.1-2.9,8.1-7.2,8.1S32.46,490,32.46,485.16Zm11.6,0c0-3.6-1.6-5.8-4.4-5.8s-4.4,2.2-4.4,5.8,1.6,5.8,4.4,5.8S44.06,488.76,44.06,485.16Z"/><path class="cls-1" d="M50.26,477.36h2.8l4.1,10.6c.3.8.6,1.5.8,2.2h.1c.2-.7.4-1.4.7-2.2l4.2-10.6h2.7l-6.2,15.5h-2.8Z"/><path class="cls-1" d="M82.66,485.76H71.76c0,2.9,1.7,5.1,4.6,5.1a4.65,4.65,0,0,0,4.1-2.8l2.2,1.2a6.57,6.57,0,0,1-6.3,3.9c-4.9,0-7.2-3.3-7.2-8.4,0-4.7,2.7-7.8,7.1-7.8,4.7,0,6.6,3.4,6.6,7.6A5,5,0,0,0,82.66,485.76Zm-6.6-6.7c-2.8,0-4.2,2.3-4.2,4.6h8.2C80.06,481.16,78.86,479.06,76.06,479.06Z"/><path class="cls-1" d="M98.66,477.06a10.88,10.88,0,0,1,2.8.3v2.4a11.19,11.19,0,0,0-2.9-.3c-3.7,0-6.7,2.5-6.7,7.6v5.8h-2.6v-15.5h2.6v4A7.32,7.32,0,0,1,98.66,477.06Z"/><path class="cls-1" d="M106.46,488.06l2.7-.5a3.82,3.82,0,0,0,4.2,3.4c2.1,0,3.2-.9,3.2-2.3s-.8-2.2-2.5-2.4l-2.5-.3c-3.1-.3-4.5-2.1-4.5-4.5,0-2.8,2.2-4.6,5.9-4.6,3.5,0,5.9,1.9,6.3,4.7l-2.6.6A3.54,3.54,0,0,0,113,479c-2,0-3.3.8-3.3,2.3,0,1.3.9,2.1,2.8,2.4l2.5.3c3.1.3,4.3,2,4.3,4.4,0,2.9-2.2,4.7-5.9,4.7C109.46,493.26,107,491.36,106.46,488.06Z"/><path class="cls-1" d="M155.76,485.76h-10.9c0,2.9,1.7,5.1,4.6,5.1a4.65,4.65,0,0,0,4.1-2.8l2.2,1.2a6.57,6.57,0,0,1-6.3,3.9c-4.9,0-7.2-3.3-7.2-8.4,0-4.7,2.7-7.8,7.1-7.8,4.7,0,6.6,3.4,6.6,7.6A5,5,0,0,0,155.76,485.76Zm-6.6-6.7c-2.8,0-4.2,2.3-4.2,4.6h8.2C153.16,481.16,151.86,479.06,149.16,479.06Z"/><path class="cls-1" d="M160,477.36h2.8l4.1,10.6c.3.8.6,1.5.8,2.2h.1c.2-.7.4-1.4.7-2.2l4.2-10.6h2.7l-6.2,15.5h-2.8Z"/><path class="cls-1" d="M192.26,485.76h-10.9c0,2.9,1.7,5.1,4.6,5.1a4.65,4.65,0,0,0,4.1-2.8l2.2,1.2a6.57,6.57,0,0,1-6.3,3.9c-4.9,0-7.2-3.3-7.2-8.4,0-4.7,2.7-7.8,7.1-7.8,4.7,0,6.6,3.4,6.6,7.6C192.36,485,192.36,485.36,192.26,485.76Zm-6.6-6.7c-2.8,0-4.2,2.3-4.2,4.6h8.2C189.66,481.16,188.46,479.06,185.66,479.06Z"/><path class="cls-1" d="M208.26,477.06a10.88,10.88,0,0,1,2.8.3v2.4a11.19,11.19,0,0,0-2.9-.3c-3.7,0-6.7,2.5-6.7,7.6v5.8h-2.6v-15.5h2.6v4A7.43,7.43,0,0,1,208.26,477.06Z"/><path class="cls-1" d="M222.66,489.76l4.3-12.4h2.8l-6.2,16.5c-1.4,3.9-3.3,5.2-5.9,5.2a6.6,6.6,0,0,1-1.4-.1v-2.3c.4,0,.8.1,1.1.1,1.9,0,2.8-.8,3.6-2.9l.4-1.1-6-15.3h3Z"/><path class="cls-1" d="M233.76,477.36h4.4v-4.1l2.6-1.1v5.2h6v2.1h-6v8c0,2.1,1,3.1,3,3.1a16.28,16.28,0,0,0,3.1-.3v2.4a11.45,11.45,0,0,1-3,.4c-3.9,0-5.6-2.2-5.6-5.2v-8.4h-4.4v-2.1Z"/><path class="cls-1" d="M260.06,477a5.31,5.31,0,0,1,3.8,1.4c1,1,1.5,2.4,1.5,4.9v9.6h-2.6v-9.4c0-3.4-1.7-4.1-3.3-4.1-3.4,0-4.2,3.3-4.2,5.5V493h-2.6v-22.5h2.6v9.8A4.94,4.94,0,0,1,260.06,477Z"/><path class="cls-1" d="M271.46,490.66h5v-11.2H272v-2.2h7.1v13.3h5.2v2.2h-12.8v-2.1Zm7.9-16.4h-3.7v-3.7h3.7Z"/><path class="cls-1" d="M296.66,477a5.11,5.11,0,0,1,3.7,1.3c1,1,1.5,2.4,1.5,5v9.6h-2.6v-9.4c0-3.4-1.7-4.1-3.2-4.1-3.5,0-4.3,3.3-4.3,5.5V493h-2.6v-15.5h2.5v3.1A5,5,0,0,1,296.66,477Z"/><path class="cls-1" d="M318.06,478.56a4.9,4.9,0,0,1,1.4,3.6c0,3.2-2.4,5.3-5.8,5.3a6.53,6.53,0,0,1-2.9-.6,1.59,1.59,0,0,0-1.1,1.5c0,1,.8,1.5,2.6,1.5h4c3.2,0,5,1.6,5,4.2,0,3.3-2.8,5.1-7.7,5.1-4.4,0-7-1.5-7-3.9a3.72,3.72,0,0,1,2.7-3.5,2.88,2.88,0,0,1-2-2.8,3.09,3.09,0,0,1,2.2-3,4.82,4.82,0,0,1-1.5-3.7c0-3.2,2.3-5.4,5.8-5.4a6,6,0,0,1,3,.7,3.65,3.65,0,0,1,3.7-2.8,3.4,3.4,0,0,1,1,.1v2.3a4.48,4.48,0,0,0-1.1-.1A2.42,2.42,0,0,0,318.06,478.56Zm-5.9,13.7a5.28,5.28,0,0,1-1.3-.1,2.6,2.6,0,0,0-1.6,2.4c0,1.6,1.5,2.5,4.7,2.5s4.7-.9,4.7-2.6c0-1.4-1-2.19-3-2.19h-3.5Zm4.8-10.1a3,3,0,0,0-3.2-3.2,3.21,3.21,0,0,0-3.3,3.3,3,3,0,0,0,3.2,3.2A3.21,3.21,0,0,0,317,482.16Z"/><path class="cls-1" d="M356.76,479.46h-5.9v13.4h-2.6v-13.4h-4.7v-2.1h4.7v-1.7c0-3.5,2-5.4,5.8-5.4a13.9,13.9,0,0,1,2.7.3v2.31a17.57,17.57,0,0,0-2.7-.2c-2.4,0-3.2.8-3.2,3.2v1.5h5.9v2.09Z"/><path class="cls-1" d="M372.76,477.06a10.88,10.88,0,0,1,2.8.3v2.4a11.19,11.19,0,0,0-2.9-.3c-3.7,0-6.7,2.5-6.7,7.6v5.8h-2.6v-15.5H366v4A7.21,7.21,0,0,1,372.76,477.06Z"/><path class="cls-1" d="M379.66,485.16c0-4.9,2.9-8.1,7.2-8.1s7.2,3.2,7.2,8.1-2.9,8.1-7.2,8.1S379.66,490,379.66,485.16Zm11.6,0c0-3.6-1.6-5.8-4.4-5.8s-4.4,2.2-4.4,5.8,1.6,5.8,4.4,5.8S391.26,488.76,391.26,485.16Z"/><path class="cls-1" d="M402.76,477a3.36,3.36,0,0,1,3.2,2.8,4,4,0,0,1,3.7-2.8c1.9,0,3.7,1.3,3.7,4.6v11.2h-2.6v-11c0-2-.9-2.5-1.8-2.5-1.8,0-2.5,1.3-2.5,3.3v10.3h-2.6v-11c0-1.9-.8-2.5-1.8-2.5-1.8,0-2.4,1.4-2.4,3.3V493h-2.6v-15.5h2.5v2.41A3.38,3.38,0,0,1,402.76,477Z"/><path class="cls-1" d="M25.66,515.76a4.9,4.9,0,0,1,1.4,3.6c0,3.2-2.4,5.3-5.8,5.3a6.53,6.53,0,0,1-2.9-.6,1.61,1.61,0,0,0-1.1,1.5c0,1,.8,1.5,2.6,1.5h4c3.2,0,5,1.6,5,4.2,0,3.3-2.8,5.1-7.7,5.1-4.4,0-7-1.5-7-3.9a3.72,3.72,0,0,1,2.7-3.5,2.88,2.88,0,0,1-2-2.8,3.09,3.09,0,0,1,2.2-3,4.82,4.82,0,0,1-1.5-3.7c0-3.2,2.3-5.4,5.8-5.4a6,6,0,0,1,3,.7,3.65,3.65,0,0,1,3.7-2.8,3.4,3.4,0,0,1,1,.1v2.3a4.48,4.48,0,0,0-1.1-.1A2.37,2.37,0,0,0,25.66,515.76Zm-5.9,13.7a5.28,5.28,0,0,1-1.3-.1,2.6,2.6,0,0,0-1.6,2.4c0,1.6,1.5,2.5,4.7,2.5s4.7-.9,4.7-2.6c0-1.4-1-2.2-3-2.2Zm4.9-10.1a3,3,0,0,0-3.2-3.2,3.21,3.21,0,0,0-3.3,3.3,3,3,0,0,0,3.2,3.2A3.21,3.21,0,0,0,24.66,519.36Z"/><path class="cls-1" d="M46.16,523H35.26c0,2.9,1.7,5.1,4.6,5.1a4.65,4.65,0,0,0,4.1-2.8l2.2,1.2a6.57,6.57,0,0,1-6.3,3.9c-4.9,0-7.2-3.3-7.2-8.4,0-4.7,2.7-7.8,7.1-7.8,4.7,0,6.6,3.4,6.6,7.6A2.54,2.54,0,0,0,46.16,523Zm-6.7-6.8c-2.8,0-4.2,2.3-4.2,4.6h8.2C43.56,518.36,42.26,516.16,39.46,516.16Z"/><path class="cls-1" d="M59.16,514.16a5.11,5.11,0,0,1,3.7,1.3c1,1,1.5,2.4,1.5,5v9.6h-2.6v-9.4c0-3.4-1.7-4.1-3.2-4.1-3.5,0-4.3,3.3-4.3,5.5v8.1h-2.6v-15.5h2.5v3.1A5,5,0,0,1,59.16,514.16Z"/><path class="cls-1" d="M82.16,507.56v22.5h-2.5v-2.9a5,5,0,0,1-4.9,3.3c-3.9,0-6.4-3.2-6.4-8.1s2.7-8.1,6.8-8.1a4.72,4.72,0,0,1,4.4,2.7v-9.3h2.6Zm-6.7,8.9c-2.7,0-4.2,2.1-4.2,5.8s1.6,5.8,4.2,5.8,4.3-2.1,4.3-5.5v-.69C79.66,518.56,78.06,516.46,75.46,516.46Z"/><path class="cls-1" d="M101,523H90.06c0,2.9,1.7,5.1,4.6,5.1a4.65,4.65,0,0,0,4.1-2.8l2.2,1.2a6.57,6.57,0,0,1-6.3,3.9c-4.9,0-7.2-3.3-7.2-8.4,0-4.7,2.7-7.8,7.1-7.8,4.7,0,6.6,3.4,6.6,7.6A2.54,2.54,0,0,0,101,523Zm-6.7-6.8c-2.8,0-4.2,2.3-4.2,4.6h8.2C98.36,518.36,97.06,516.16,94.26,516.16Z"/><path class="cls-1" d="M117,514.26a10.88,10.88,0,0,1,2.8.3V517a11.65,11.65,0,0,0-2.9-.3c-3.7,0-6.7,2.5-6.7,7.6v5.8h-2.6v-15.5h2.6v4A7.21,7.21,0,0,1,117,514.26Z"/><path class="cls-1" d="M150.46,514.16a5.11,5.11,0,0,1,3.7,1.3c1,1,1.5,2.4,1.5,5v9.6h-2.6v-9.4c0-3.4-1.7-4.1-3.2-4.1-3.5,0-4.3,3.3-4.3,5.5v8.1H143v-15.5h2.5v3.1A5,5,0,0,1,150.46,514.16Z"/><path class="cls-1" d="M174.06,523h-10.9c0,2.9,1.7,5.1,4.6,5.1a4.65,4.65,0,0,0,4.1-2.8l2.2,1.2a6.57,6.57,0,0,1-6.3,3.9c-4.9,0-7.2-3.3-7.2-8.4,0-4.7,2.7-7.8,7.1-7.8,4.7,0,6.6,3.4,6.6,7.6A2.54,2.54,0,0,0,174.06,523Zm-6.7-6.8c-2.8,0-4.2,2.3-4.2,4.6h8.2C171.46,518.36,170.16,516.16,167.36,516.16Z"/><path class="cls-1" d="M184.76,530.36a5.48,5.48,0,0,1-4-1.4c-1-1-1.4-2.4-1.4-4.9v-9.6h2.7V524c0,3.4,1.6,4.1,3.2,4.1,3.3,0,4-3.3,4-5.5v-8.1h2.6V530h-2.5v-2.9A5,5,0,0,1,184.76,530.36Z"/><path class="cls-1" d="M197.26,514.56h4.4v-4.1l2.6-1.1v5.2h6v2.1h-6v8c0,2.1,1,3.1,3,3.1a16.28,16.28,0,0,0,3.1-.3v2.4a11.45,11.45,0,0,1-3,.4c-3.9,0-5.6-2.2-5.6-5.2v-8.4h-4.4v-2.1Z"/><path class="cls-1" d="M226.56,514.26a10.88,10.88,0,0,1,2.8.3V517a11.65,11.65,0,0,0-2.9-.3c-3.7,0-6.7,2.5-6.7,7.6v5.8h-2.6v-15.5h2.6v4A7.32,7.32,0,0,1,226.56,514.26Z"/><path class="cls-1" d="M247.06,530.06h-2.8a26.35,26.35,0,0,1-.2-2.8,5.17,5.17,0,0,1-5.2,3.2c-3.1,0-5.2-1.9-5.2-4.6a4.06,4.06,0,0,1,2.2-3.7,14.28,14.28,0,0,1,5.3-1.3l2.8-.3v-.3c0-2.8-1-4-3.3-4s-3.5,1.1-3.6,3.1h-2.8c.3-3.3,2.7-5.2,6.6-5.2s5.8,2,5.8,6.4v4.2A15.41,15.41,0,0,0,247.06,530.06Zm-6.9-7.1c-2.7.4-3.8,1.1-3.8,2.7s1.1,2.5,2.9,2.5c2.8,0,4.6-1.9,4.6-5v-.8Z"/><path class="cls-1" d="M253.26,527.86h5v-18.1h-4.6v-2.2H261v20.31h5.2v2.19h-12.8v-2.2Z"/><path class="cls-1" d="M288.36,522.16c0-4.6,2.4-8,7.2-8a5.92,5.92,0,0,1,6.3,5.5l-2.7.3c-.3-2.3-1.6-3.6-3.8-3.6-2.8,0-4.3,2.3-4.3,5.7s1.5,5.9,4.4,5.9c2.3,0,3.5-1.4,3.8-3.7l2.5.4c-.5,3.2-2.5,5.6-6.3,5.6C290.76,530.36,288.36,526.86,288.36,522.16Z"/><path class="cls-1" d="M308.06,527.86h5v-18.1h-4.7v-2.2h7.3v20.31h5.2v2.19h-12.8Z"/><path class="cls-1" d="M324.86,522.26c0-4.9,2.9-8.1,7.2-8.1s7.2,3.2,7.2,8.1-2.9,8.1-7.2,8.1S324.86,527.16,324.86,522.26Zm11.6,0c0-3.6-1.6-5.8-4.4-5.8s-4.4,2.2-4.4,5.8,1.6,5.8,4.4,5.8S336.46,526,336.46,522.26Z"/><path class="cls-1" d="M343.46,514.56h4.4v-4.1l2.6-1.1v5.2h6v2.1h-6v8c0,2.1,1,3.1,3,3.1a16.28,16.28,0,0,0,3.1-.3v2.4a11.45,11.45,0,0,1-3,.4c-3.9,0-5.6-2.2-5.6-5.2v-8.4h-4.4v-2.1Z"/><path class="cls-1" d="M369.66,514.16a5.31,5.31,0,0,1,3.8,1.4c1,1,1.5,2.4,1.5,4.9v9.6h-2.6v-9.4c0-3.4-1.7-4.1-3.3-4.1-3.4,0-4.2,3.3-4.2,5.5v8.1h-2.6v-22.5h2.6v9.8A4.9,4.9,0,0,1,369.66,514.16Z"/><path class="cls-1" d="M381.16,527.86h5v-11.2h-4.5v-2.2h7.1v13.31H394V530h-12.8v-2.1Zm7.8-16.4h-3.7v-3.7H389Z"/><path class="cls-1" d="M406.26,514.16a5.11,5.11,0,0,1,3.7,1.3c1,1,1.5,2.4,1.5,5v9.6h-2.6v-9.4c0-3.4-1.7-4.1-3.2-4.1-3.5,0-4.3,3.3-4.3,5.5v8.1h-2.6v-15.5h2.5v3.1A5,5,0,0,1,406.26,514.16Z"/><path class="cls-1" d="M427.66,515.76a4.9,4.9,0,0,1,1.4,3.6c0,3.2-2.4,5.3-5.8,5.3a6.53,6.53,0,0,1-2.9-.6,1.61,1.61,0,0,0-1.1,1.5c0,1,.8,1.5,2.6,1.5h4c3.2,0,5,1.6,5,4.2,0,3.3-2.8,5.1-7.7,5.1-4.4,0-7-1.5-7-3.9a3.72,3.72,0,0,1,2.7-3.5,2.88,2.88,0,0,1-2-2.8,3.09,3.09,0,0,1,2.2-3,4.82,4.82,0,0,1-1.5-3.7c0-3.2,2.3-5.4,5.8-5.4a6,6,0,0,1,3,.7,3.65,3.65,0,0,1,3.7-2.8,3.4,3.4,0,0,1,1,.1v2.3a4.48,4.48,0,0,0-1.1-.1A2.37,2.37,0,0,0,427.66,515.76Zm-5.9,13.7a5.28,5.28,0,0,1-1.3-.1,2.6,2.6,0,0,0-1.6,2.4c0,1.6,1.5,2.5,4.7,2.5s4.7-.9,4.7-2.6c0-1.4-1-2.2-3-2.2Zm4.9-10.1a3,3,0,0,0-3.2-3.2,3.21,3.21,0,0,0-3.3,3.3,3,3,0,0,0,3.2,3.2A3.21,3.21,0,0,0,426.66,519.36Z"/><path class="cls-1" d="M439.76,533.16a2.85,2.85,0,0,0,2.1-3.2h-2.3v-4h4.1v4c0,2.4-.7,3.6-3.1,4.6Z"/><path class="cls-1" d="M14.56,551.66H19v-4.1l2.6-1.1v5.2h6v2.1h-6v8c0,2.1,1,3.1,3,3.1a16.28,16.28,0,0,0,3.1-.3V567a11.45,11.45,0,0,1-3,.4c-3.9,0-5.6-2.2-5.6-5.2v-8.4h-4.4v-2.1Z"/><path class="cls-1" d="M32.46,559.46c0-4.9,2.9-8.1,7.2-8.1s7.2,3.2,7.2,8.1-2.9,8.1-7.2,8.1S32.46,564.26,32.46,559.46Zm11.6,0c0-3.6-1.6-5.8-4.4-5.8s-4.4,2.2-4.4,5.8,1.6,5.8,4.4,5.8S44.06,563.06,44.06,559.46Z"/><path class="cls-1" d="M72.56,554.56a5.71,5.71,0,0,1,4.9-3.3c4.1,0,6.4,3.4,6.4,8.1s-2.5,8.1-6.6,8.1a5.35,5.35,0,0,1-4.6-2.8v8.5h-2.6v-21.5h2.5Zm4.3,10.7c2.7,0,4.2-2.3,4.2-5.8s-1.4-5.8-4.2-5.8c-2.6,0-4.3,2.1-4.3,5.4v.7C72.66,563.06,74.26,565.26,76.86,565.26Z"/><path class="cls-1" d="M87.26,559.46c0-4.9,2.9-8.1,7.2-8.1s7.2,3.2,7.2,8.1-2.9,8.1-7.2,8.1S87.26,564.26,87.26,559.46Zm11.7,0c0-3.6-1.6-5.8-4.4-5.8s-4.4,2.2-4.4,5.8,1.6,5.8,4.4,5.8S99,563.06,99,559.46Z"/><path class="cls-1" d="M107.06,565.06h5V547h-4.7v-2.2h7.3v20.3h5.2v2.2h-12.8Z"/><path class="cls-1" d="M125.26,565.06h5v-11.2h-4.5v-2.2h7.1V565h5.2v2.2h-12.8Zm7.9-16.5h-3.7v-3.7h3.7Z"/><path class="cls-1" d="M142.46,551.66h4.4v-4.1l2.6-1.1v5.2h6v2.1h-6v8c0,2.1,1,3.1,3,3.1a16.28,16.28,0,0,0,3.1-.3V567a11.45,11.45,0,0,1-3,.4c-3.9,0-5.6-2.2-5.6-5.2v-8.4h-4.4v-2.1Z"/><path class="cls-1" d="M161.86,565.06h5v-11.2h-4.5v-2.2h7.1V565h5.2v2.2h-12.8Zm7.9-16.5h-3.7v-3.7h3.7Z"/><path class="cls-1" d="M178.76,559.36c0-4.6,2.4-8,7.2-8a5.92,5.92,0,0,1,6.3,5.5l-2.7.3c-.3-2.3-1.6-3.6-3.8-3.6-2.8,0-4.3,2.31-4.3,5.7s1.5,5.9,4.4,5.9c2.3,0,3.5-1.4,3.8-3.7l2.5.41c-.5,3.19-2.5,5.59-6.3,5.59C181.16,567.56,178.76,564,178.76,559.36Z"/><path class="cls-1" d="M210.46,567.16h-2.8a26.35,26.35,0,0,1-.2-2.8,5.17,5.17,0,0,1-5.2,3.2c-3.1,0-5.2-1.9-5.2-4.6a4.06,4.06,0,0,1,2.2-3.7,14.28,14.28,0,0,1,5.3-1.3l2.8-.3v-.3c0-2.8-1-4-3.3-4s-3.5,1.1-3.6,3.1h-2.8c.3-3.3,2.7-5.2,6.6-5.2s5.8,2,5.8,6.4v4.2A17.72,17.72,0,0,0,210.46,567.16Zm-6.8-7c-2.7.4-3.8,1.1-3.8,2.7s1.1,2.5,2.9,2.5c2.8,0,4.6-1.9,4.6-5v-.8Z"/><path class="cls-1" d="M216.66,565.06h5V547h-4.6v-2.2h7.3v20.3h5.2v2.2h-12.8v-2.2Z"/><path class="cls-1" d="M241,564.16l4.3-12.4h2.8l-6.2,16.5c-1.4,3.9-3.3,5.2-5.9,5.2a6.6,6.6,0,0,1-1.4-.1v-2.3c.4,0,.8.1,1.1.1,1.9,0,2.8-.8,3.6-2.9l.4-1.1-6-15.3h3Z"/><path class="cls-1" d="M283.66,560.16h-10.9c0,2.9,1.7,5.1,4.6,5.1a4.65,4.65,0,0,0,4.1-2.8l2.2,1.2a6.57,6.57,0,0,1-6.3,3.9c-4.9,0-7.2-3.3-7.2-8.4,0-4.7,2.7-7.8,7.1-7.8,4.7,0,6.6,3.4,6.6,7.6A5,5,0,0,0,283.66,560.16Zm-6.6-6.8c-2.8,0-4.2,2.3-4.2,4.6h8.2C281.06,555.46,279.86,553.36,277.06,553.36Z"/><path class="cls-1" d="M296.66,551.36a5.11,5.11,0,0,1,3.7,1.3c1,1,1.5,2.4,1.5,5v9.6h-2.6v-9.4c0-3.4-1.7-4.1-3.2-4.1-3.5,0-4.3,3.3-4.3,5.5v8.1h-2.6v-15.5h2.5V555A5,5,0,0,1,296.66,551.36Z"/><path class="cls-1" d="M318.06,553a4.9,4.9,0,0,1,1.4,3.6c0,3.2-2.4,5.3-5.8,5.3a6.53,6.53,0,0,1-2.9-.6,1.59,1.59,0,0,0-1.1,1.5c0,1,.8,1.5,2.6,1.5h4c3.2,0,5,1.6,5,4.2,0,3.3-2.8,5.1-7.7,5.1-4.4,0-7-1.5-7-3.9a3.72,3.72,0,0,1,2.7-3.5,2.88,2.88,0,0,1-2-2.8,3.09,3.09,0,0,1,2.2-3,4.82,4.82,0,0,1-1.5-3.7c0-3.2,2.3-5.4,5.8-5.4a6,6,0,0,1,3,.7,3.65,3.65,0,0,1,3.7-2.8,3.4,3.4,0,0,1,1,.1v2.3a4.48,4.48,0,0,0-1.1-.1A2.29,2.29,0,0,0,318.06,553Zm-5.9,13.7a5.28,5.28,0,0,1-1.3-.1,2.6,2.6,0,0,0-1.6,2.4c0,1.6,1.5,2.5,4.7,2.5s4.7-.9,4.7-2.6c0-1.4-1-2.2-3-2.2Zm4.8-10.1a3,3,0,0,0-3.2-3.2,3.21,3.21,0,0,0-3.3,3.3,3,3,0,0,0,3.2,3.2A3.21,3.21,0,0,0,317,556.56Z"/><path class="cls-1" d="M338.46,567.16h-2.8a26.35,26.35,0,0,1-.2-2.8,5.17,5.17,0,0,1-5.2,3.2c-3.1,0-5.2-1.9-5.2-4.6a4.06,4.06,0,0,1,2.2-3.7,14.28,14.28,0,0,1,5.3-1.3l2.8-.3v-.3c0-2.8-1-4-3.3-4s-3.5,1.1-3.6,3.1h-2.8c.3-3.3,2.7-5.2,6.6-5.2s5.8,2,5.8,6.4v4.2A12.83,12.83,0,0,0,338.46,567.16Zm-6.9-7c-2.7.4-3.8,1.1-3.8,2.7s1.1,2.5,2.9,2.5c2.8,0,4.6-1.9,4.6-5v-.8Z"/><path class="cls-1" d="M354.56,553a4.9,4.9,0,0,1,1.4,3.6c0,3.2-2.4,5.3-5.8,5.3a6.53,6.53,0,0,1-2.9-.6,1.59,1.59,0,0,0-1.1,1.5c0,1,.8,1.5,2.6,1.5h4c3.2,0,5,1.6,5,4.2,0,3.3-2.8,5.1-7.7,5.1-4.4,0-7-1.5-7-3.9a3.72,3.72,0,0,1,2.7-3.5,2.88,2.88,0,0,1-2-2.8,3.09,3.09,0,0,1,2.2-3,4.82,4.82,0,0,1-1.5-3.7c0-3.2,2.3-5.4,5.8-5.4a6,6,0,0,1,3,.7,3.65,3.65,0,0,1,3.7-2.8,3.4,3.4,0,0,1,1,.1v2.3a4.48,4.48,0,0,0-1.1-.1A2.37,2.37,0,0,0,354.56,553Zm-5.9,13.7a5.28,5.28,0,0,1-1.3-.1,2.6,2.6,0,0,0-1.6,2.4c0,1.6,1.5,2.5,4.7,2.5s4.7-.9,4.7-2.6c0-1.4-1-2.2-3-2.2Zm4.9-10.1a3,3,0,0,0-3.2-3.2,3.21,3.21,0,0,0-3.3,3.3,3,3,0,0,0,3.2,3.2A3.21,3.21,0,0,0,353.56,556.56Z"/><path class="cls-1" d="M375.06,560.16h-10.9c0,2.9,1.7,5.1,4.6,5.1a4.65,4.65,0,0,0,4.1-2.8l2.2,1.2a6.57,6.57,0,0,1-6.3,3.9c-4.9,0-7.2-3.3-7.2-8.4,0-4.7,2.7-7.8,7.1-7.8,4.7,0,6.6,3.4,6.6,7.6A2.54,2.54,0,0,0,375.06,560.16Zm-6.7-6.8c-2.8,0-4.2,2.3-4.2,4.6h8.2C372.46,555.46,371.16,553.36,368.36,553.36Z"/><path class="cls-1" d="M392.86,544.76v22.5h-2.5v-2.9a5,5,0,0,1-4.9,3.3c-3.9,0-6.4-3.2-6.4-8.1s2.7-8.1,6.8-8.1a4.72,4.72,0,0,1,4.4,2.7v-9.3h2.6Zm-6.8,8.9c-2.7,0-4.2,2.1-4.2,5.8s1.6,5.8,4.2,5.8,4.3-2.1,4.3-5.5v-.7C390.26,555.76,388.66,553.66,386.06,553.66Z"/><path class="cls-1" d="M25.66,590.06a4.9,4.9,0,0,1,1.4,3.6c0,3.2-2.4,5.3-5.8,5.3a6.53,6.53,0,0,1-2.9-.6,1.59,1.59,0,0,0-1.1,1.5c0,1,.8,1.5,2.6,1.5h4c3.2,0,5,1.6,5,4.2,0,3.3-2.8,5.1-7.7,5.1-4.4,0-7-1.5-7-3.9a3.72,3.72,0,0,1,2.7-3.5,2.88,2.88,0,0,1-2-2.8,3.09,3.09,0,0,1,2.2-3,4.82,4.82,0,0,1-1.5-3.7c0-3.2,2.3-5.4,5.8-5.4a6,6,0,0,1,3,.7,3.65,3.65,0,0,1,3.7-2.8,3.4,3.4,0,0,1,1,.1v2.3a4.48,4.48,0,0,0-1.1-.1A2.53,2.53,0,0,0,25.66,590.06Zm-5.9,13.7a5.28,5.28,0,0,1-1.3-.1,2.6,2.6,0,0,0-1.6,2.4c0,1.6,1.5,2.5,4.7,2.5s4.7-.9,4.7-2.6c0-1.4-1-2.19-3-2.19h-3.5Zm4.9-10.1a3,3,0,0,0-3.2-3.2,3.21,3.21,0,0,0-3.3,3.3,3,3,0,0,0,3.2,3.2A3.21,3.21,0,0,0,24.66,593.66Z"/><path class="cls-1" d="M43.86,588.56a10.88,10.88,0,0,1,2.8.3v2.4a11.19,11.19,0,0,0-2.9-.3c-3.7,0-6.7,2.5-6.7,7.6v5.8h-2.7v-15.5H37v4A7.47,7.47,0,0,1,43.86,588.56Z"/><path class="cls-1" d="M64.36,604.36h-2.8a26.35,26.35,0,0,1-.2-2.8,5.17,5.17,0,0,1-5.2,3.2c-3.1,0-5.2-1.9-5.2-4.6a4.06,4.06,0,0,1,2.2-3.7,14.28,14.28,0,0,1,5.3-1.3l2.8-.3v-.3c0-2.8-1-4-3.3-4s-3.5,1.1-3.6,3.1h-3c.3-3.3,2.7-5.2,6.6-5.2s5.8,2,5.8,6.4v4.2A17,17,0,0,0,64.36,604.36Zm-6.9-7c-2.7.4-3.8,1.1-3.8,2.7s1.1,2.5,2.9,2.5c2.8,0,4.6-1.9,4.6-5v-.8Z"/><path class="cls-1" d="M72.56,591.76a5.71,5.71,0,0,1,4.9-3.3c4.1,0,6.4,3.4,6.4,8.1s-2.5,8.1-6.6,8.1a5.35,5.35,0,0,1-4.6-2.8v8.5h-2.6v-21.5h2.5Zm4.3,10.6c2.7,0,4.2-2.3,4.2-5.8s-1.4-5.8-4.2-5.8c-2.6,0-4.3,2.1-4.3,5.4v.7C72.66,600.26,74.26,602.36,76.86,602.36Z"/><path class="cls-1" d="M95.56,588.46a5.31,5.31,0,0,1,3.8,1.4c1,1,1.5,2.4,1.5,4.9v9.6h-2.6V595c0-3.4-1.7-4.1-3.3-4.1-3.4,0-4.2,3.3-4.2,5.5v8.1h-2.6V582h2.6v9.8A5.13,5.13,0,0,1,95.56,588.46Z"/><path class="cls-1" d="M107.06,602.16h5V591h-4.5v-2.2h7.1v13.3h5.2v2.2h-12.8Zm7.8-16.4h-3.7v-3.7h3.7Z"/><path class="cls-1" d="M123.86,596.56c0-4.6,2.4-8,7.2-8a5.92,5.92,0,0,1,6.3,5.5l-2.7.3c-.3-2.3-1.6-3.6-3.8-3.6-2.8,0-4.3,2.3-4.3,5.7s1.5,5.9,4.4,5.9c2.3,0,3.5-1.4,3.8-3.7l2.5.4c-.5,3.2-2.5,5.6-6.3,5.6C126.36,604.76,123.86,601.16,123.86,596.56Z"/><path class="cls-1" d="M143,599.56l2.7-.5a3.82,3.82,0,0,0,4.2,3.4c2.1,0,3.2-.9,3.2-2.3s-.8-2.2-2.5-2.4l-2.5-.3c-3.1-.3-4.5-2.1-4.5-4.5,0-2.8,2.2-4.6,5.9-4.6,3.5,0,5.9,1.9,6.3,4.7l-2.6.6a3.54,3.54,0,0,0-3.7-3.2c-2,0-3.3.8-3.3,2.3,0,1.3.9,2.1,2.8,2.4l2.5.3c3.1.3,4.3,2,4.3,4.4,0,2.9-2.2,4.7-5.9,4.7C146,604.76,143.56,602.86,143,599.56Z"/><path class="cls-1" d="M165.66,607.56a2.85,2.85,0,0,0,2.1-3.2h-2.3v-4h4.1v4c0,2.4-.7,3.6-3.1,4.6Z"/><path class="cls-1" d="M197.26,588.86h4.4v-4.1l2.6-1.1v5.2h6V591h-6v8c0,2.1,1,3.1,3,3.1a16.28,16.28,0,0,0,3.1-.3v2.4a11.45,11.45,0,0,1-3,.4c-3.9,0-5.6-2.2-5.6-5.2V591h-4.4v-2.1Z"/><path class="cls-1" d="M215.16,596.56c0-4.9,2.9-8.1,7.2-8.1s7.2,3.2,7.2,8.1-2.9,8.1-7.2,8.1S215.16,601.46,215.16,596.56Zm11.7,0c0-3.6-1.6-5.8-4.4-5.8s-4.4,2.2-4.4,5.8,1.6,5.8,4.4,5.8S226.86,600.26,226.86,596.56Z"/><path class="cls-1" d="M263.06,588.56a10.88,10.88,0,0,1,2.8.3v2.4a11.19,11.19,0,0,0-2.9-.3c-3.7,0-6.7,2.5-6.7,7.6v5.8h-2.6v-15.5h2.6v4A7.43,7.43,0,0,1,263.06,588.56Z"/><path class="cls-1" d="M283.66,597.26h-10.9c0,2.9,1.7,5.1,4.6,5.1a4.65,4.65,0,0,0,4.1-2.8l2.2,1.2a6.57,6.57,0,0,1-6.3,3.9c-4.9,0-7.2-3.3-7.2-8.4,0-4.7,2.7-7.8,7.1-7.8,4.7,0,6.6,3.4,6.6,7.6A5,5,0,0,0,283.66,597.26Zm-6.6-6.7c-2.8,0-4.2,2.3-4.2,4.6h8.2C281.06,592.66,279.86,590.56,277.06,590.56Z"/><path class="cls-1" d="M289.76,602.16h5v-18.1h-4.6v-2.2h7.3v20.3h5.2v2.2h-12.8v-2.2Z"/><path class="cls-1" d="M308.06,602.16h5V591h-4.5v-2.2h7.1v13.3h5.2v2.2h-12.8v-2.1Zm7.8-16.4h-3.7v-3.7h3.7Z"/><path class="cls-1" d="M336.36,590.06a4.9,4.9,0,0,1,1.4,3.6c0,3.2-2.4,5.3-5.8,5.3a6.53,6.53,0,0,1-2.9-.6,1.59,1.59,0,0,0-1.1,1.5c0,1,.8,1.5,2.6,1.5h4c3.2,0,5,1.6,5,4.2,0,3.3-2.8,5.1-7.7,5.1-4.4,0-7-1.5-7-3.9a3.72,3.72,0,0,1,2.7-3.5,2.88,2.88,0,0,1-2-2.8,3.09,3.09,0,0,1,2.2-3,4.82,4.82,0,0,1-1.5-3.7c0-3.2,2.3-5.4,5.8-5.4a6,6,0,0,1,3,.7,3.65,3.65,0,0,1,3.7-2.8,3.4,3.4,0,0,1,1,.1v2.3a4.48,4.48,0,0,0-1.1-.1A2.33,2.33,0,0,0,336.36,590.06Zm-5.9,13.7a5.28,5.28,0,0,1-1.3-.1,2.6,2.6,0,0,0-1.6,2.4c0,1.6,1.5,2.5,4.7,2.5s4.7-.9,4.7-2.6c0-1.4-1-2.19-3-2.19h-3.5Zm4.8-10.1a3,3,0,0,0-3.2-3.2,3.21,3.21,0,0,0-3.3,3.3A3,3,0,0,0,332,597,3.21,3.21,0,0,0,335.26,593.66Z"/><path class="cls-1" d="M344.56,602.16h5V591h-4.5v-2.2h7.1v13.3h5.2v2.2h-12.8v-2.1Zm7.9-16.4h-3.7v-3.7h3.7Z"/><path class="cls-1" d="M361.36,596.56c0-4.9,2.9-8.1,7.2-8.1s7.2,3.2,7.2,8.1-2.9,8.1-7.2,8.1S361.36,601.46,361.36,596.56Zm11.6,0c0-3.6-1.6-5.8-4.4-5.8s-4.4,2.2-4.4,5.8,1.6,5.8,4.4,5.8S373,600.26,373,596.56Z"/><path class="cls-1" d="M385.76,604.76a5.48,5.48,0,0,1-4-1.4c-1-1-1.4-2.4-1.4-4.9v-9.6h2.7v9.5c0,3.4,1.6,4.1,3.2,4.1,3.3,0,4-3.3,4-5.5v-8.1h2.6v15.5h-2.5v-2.9A5.11,5.11,0,0,1,385.76,604.76Z"/><path class="cls-1" d="M398.76,599.56l2.7-.5a3.82,3.82,0,0,0,4.2,3.4c2.1,0,3.2-.9,3.2-2.3s-.8-2.2-2.5-2.4l-2.5-.3c-3.1-.3-4.5-2.1-4.5-4.5,0-2.8,2.2-4.6,5.9-4.6,3.5,0,5.9,1.9,6.3,4.7l-2.6.6a3.54,3.54,0,0,0-3.7-3.2c-2,0-3.3.8-3.3,2.3,0,1.3.9,2.1,2.8,2.4l2.5.3c3.1.3,4.3,2,4.3,4.4,0,2.9-2.2,4.7-5.9,4.7C401.76,604.76,399.36,602.86,398.76,599.56Z"/><path class="cls-1" d="M27.76,641.56H25a26.35,26.35,0,0,1-.2-2.8,5.17,5.17,0,0,1-5.2,3.2c-3.1,0-5.2-1.9-5.2-4.6a4.06,4.06,0,0,1,2.2-3.7,14.28,14.28,0,0,1,5.3-1.3l2.8-.3v-.3c0-2.8-1-4-3.3-4s-3.5,1.1-3.6,3.1H15c.3-3.3,2.7-5.2,6.6-5.2s5.8,2,5.8,6.4v4.2A15.41,15.41,0,0,0,27.76,641.56Zm-6.8-7.1c-2.7.4-3.8,1.1-3.8,2.7s1.1,2.5,2.9,2.5c2.8,0,4.6-1.9,4.6-5v-.8Z"/><path class="cls-1" d="M32.76,626.06h4.4V622l2.6-1.1v5.2h6v2.1h-6v8c0,2.1,1,3.1,3,3.1a16.28,16.28,0,0,0,3.1-.3v2.4a11.45,11.45,0,0,1-3,.4c-3.9,0-5.6-2.2-5.6-5.2v-8.4h-4.4v-2.1Z"/><path class="cls-1" d="M51.06,626.06h4.4V622l2.6-1.1v5.2h6v2.1h-6v8c0,2.1,1,3.1,3,3.1a16.28,16.28,0,0,0,3.1-.3v2.4a11.45,11.45,0,0,1-3,.4c-3.9,0-5.6-2.2-5.6-5.2v-8.4h-4.4v-2.1Z"/><path class="cls-1" d="M70.46,639.36h5v-11.2H71V626h7.1v13.31h5.2v2.19H70.46Zm7.9-16.4h-3.7v-3.7h3.7Z"/><path class="cls-1" d="M98.66,625.76a10.88,10.88,0,0,1,2.8.3v2.4a11.65,11.65,0,0,0-2.9-.3c-3.7,0-6.7,2.5-6.7,7.6v5.8h-2.6v-15.5h2.6v4A7.16,7.16,0,0,1,98.66,625.76Z"/><path class="cls-1" d="M119.16,634.46h-10.8c0,2.9,1.7,5.1,4.6,5.1a4.65,4.65,0,0,0,4.1-2.8l2.2,1.2a6.57,6.57,0,0,1-6.3,3.9c-4.9,0-7.2-3.3-7.2-8.4,0-4.7,2.7-7.8,7.1-7.8,4.7,0,6.6,3.4,6.6,7.6A5.27,5.27,0,0,0,119.16,634.46Zm-6.6-6.8c-2.8,0-4.2,2.3-4.2,4.6h8.2C116.56,629.76,115.36,627.66,112.56,627.66Z"/><path class="cls-1" d="M133.06,641.56H129v-4h4.1Z"/><path class="cls-1" d="M169,621.86v17.3h5.5v2.3h-13.9v-2.3h5.5v-17.3h-5.5v-2.3h13.9v2.3Z"/><path class="cls-1" d="M187.06,625.66a5.11,5.11,0,0,1,3.7,1.3c1,1,1.5,2.4,1.5,5v9.6h-2.6v-9.4c0-3.4-1.7-4.1-3.2-4.1-3.5,0-4.3,3.3-4.3,5.5v8.1h-2.6v-15.5h2.5v3.1A5,5,0,0,1,187.06,625.66Z"/><path class="cls-1" d="M197,633.66c0-4.6,2.4-8,7.2-8a5.92,5.92,0,0,1,6.3,5.5l-2.7.3c-.3-2.3-1.6-3.6-3.8-3.6-2.8,0-4.3,2.3-4.3,5.7s1.5,5.9,4.4,5.9c2.3,0,3.5-1.4,3.8-3.7l2.5.4c-.5,3.2-2.5,5.6-6.3,5.6C199.46,641.86,197,638.36,197,633.66Z"/><path class="cls-1" d="M216.66,639.36h5v-18.1h-4.6v-2.2h7.3v20.31h5.2v2.19h-12.8v-2.2Z"/><path class="cls-1" d="M239.56,641.86a5.48,5.48,0,0,1-4-1.4c-1-1-1.4-2.4-1.4-4.9V626h2.7v9.5c0,3.4,1.6,4.1,3.2,4.1,3.3,0,4-3.3,4-5.5V626h2.6v15.5h-2.5v-2.9A5,5,0,0,1,239.56,641.86Z"/><path class="cls-1" d="M252.66,636.76l2.7-.5a3.82,3.82,0,0,0,4.2,3.4c2.1,0,3.2-.9,3.2-2.3s-.8-2.2-2.5-2.4l-2.5-.3c-3.1-.3-4.5-2.1-4.5-4.5,0-2.8,2.2-4.6,5.9-4.6,3.5,0,5.9,1.9,6.3,4.7l-2.6.6a3.54,3.54,0,0,0-3.7-3.2c-2,0-3.3.8-3.3,2.3,0,1.3.9,2.1,2.8,2.4l2.5.3c3.1.3,4.3,2,4.3,4.4,0,2.9-2.2,4.7-5.9,4.7C255.66,641.86,253.16,640.06,252.66,636.76Z"/><path class="cls-1" d="M271.46,639.36h5v-11.2H272V626h7.1v13.31h5.2v2.19h-12.8v-2.1Zm7.9-16.4h-3.7v-3.7h3.7Z"/><path class="cls-1" d="M287.86,626.06h2.8l4.1,10.6c.3.8.6,1.5.8,2.2h.1c.2-.7.4-1.4.7-2.2l4.2-10.6h2.7l-6.2,15.5h-2.8Z"/><path class="cls-1" d="M308.06,639.36h5v-11.2h-4.5V626h7.1v13.31h5.2v2.19h-12.8v-2.1Zm7.8-16.4h-3.7v-3.7h3.7Z"/><path class="cls-1" d="M325.16,626.06h4.4V622l2.6-1.1v5.2h6v2.1h-6v8c0,2.1,1,3.1,3,3.1a16.28,16.28,0,0,0,3.1-.3v2.4a11.45,11.45,0,0,1-3,.4c-3.9,0-5.6-2.2-5.6-5.2v-8.4h-4.4v-2.1Z"/><path class="cls-1" d="M350.56,638.46l4.3-12.4h2.8l-6.2,16.5c-1.4,3.9-3.3,5.2-5.9,5.2a6.6,6.6,0,0,1-1.4-.1v-2.3c.4,0,.8.1,1.1.1,1.9,0,2.8-.8,3.6-2.9l.4-1.1-6-15.3h3Z"/><path class="cls-1" d="M381.16,639.36h5v-11.2h-4.5V626h7.1v13.31H394v2.19h-12.8v-2.1ZM389,623h-3.7v-3.7H389Z"/><path class="cls-1" d="M398.76,636.76l2.7-.5a3.82,3.82,0,0,0,4.2,3.4c2.1,0,3.2-.9,3.2-2.3s-.8-2.2-2.5-2.4l-2.5-.3c-3.1-.3-4.5-2.1-4.5-4.5,0-2.8,2.2-4.6,5.9-4.6,3.5,0,5.9,1.9,6.3,4.7l-2.6.6a3.54,3.54,0,0,0-3.7-3.2c-2,0-3.3.8-3.3,2.3,0,1.3.9,2.1,2.8,2.4l2.5.3c3.1.3,4.3,2,4.3,4.4,0,2.9-2.2,4.7-5.9,4.7C401.76,641.86,399.36,640.06,398.76,636.76Z"/><path class="cls-1" d="M14.16,671c0-4.9,2.9-8.1,7.2-8.1s7.2,3.2,7.2,8.1-2.9,8.1-7.2,8.1S14.16,675.76,14.16,671Zm11.7,0c0-3.6-1.6-5.8-4.4-5.8s-4.4,2.2-4.4,5.8,1.6,5.8,4.4,5.8S25.86,674.56,25.86,671Z"/><path class="cls-1" d="M40.86,662.86a5.11,5.11,0,0,1,3.7,1.3c1,1,1.5,2.4,1.5,5v9.6h-2.6v-9.4c0-3.4-1.7-4.1-3.2-4.1-3.5,0-4.3,3.3-4.3,5.5v8.1h-2.6v-15.5h2.5v3.1A4.91,4.91,0,0,1,40.86,662.86Z"/><path class="cls-1" d="M64.36,671.66H53.56c0,2.9,1.7,5.1,4.6,5.1a4.65,4.65,0,0,0,4.1-2.8l2.2,1.2a6.57,6.57,0,0,1-6.3,3.9c-4.9,0-7.2-3.3-7.2-8.4,0-4.7,2.7-7.8,7.1-7.8,4.7,0,6.6,3.4,6.6,7.6A5.27,5.27,0,0,0,64.36,671.66Zm-6.6-6.8c-2.8,0-4.2,2.3-4.2,4.6h8.2C61.76,667,60.56,664.86,57.76,664.86Z"/><path class="cls-1" d="M87.26,671c0-4.9,2.9-8.1,7.2-8.1s7.2,3.2,7.2,8.1-2.9,8.1-7.2,8.1S87.26,675.76,87.26,671ZM99,671c0-3.6-1.6-5.8-4.4-5.8s-4.4,2.2-4.4,5.8,1.6,5.8,4.4,5.8S99,674.56,99,671Z"/><path class="cls-1" d="M119.26,665.36h-5.9v13.4h-2.6v-13.4h-4.7v-2.1h4.7v-1.7c0-3.5,2-5.4,5.8-5.4a13.9,13.9,0,0,1,2.7.3v2.31a17.57,17.57,0,0,0-2.7-.2c-2.4,0-3.2.8-3.2,3.2v1.5h5.9Z"/><path class="cls-1" d="M142.06,671c0-4.9,2.9-8.1,7.2-8.1s7.2,3.2,7.2,8.1-2.9,8.1-7.2,8.1S142.06,675.76,142.06,671Zm11.7,0c0-3.6-1.6-5.8-4.4-5.8s-4.4,2.2-4.4,5.8,1.6,5.8,4.4,5.8S153.76,674.56,153.76,671Z"/><path class="cls-1" d="M166.46,679.06a5.48,5.48,0,0,1-4-1.4c-1-1-1.4-2.4-1.4-4.9v-9.6h2.7v9.5c0,3.4,1.6,4.1,3.2,4.1,3.3,0,4-3.3,4-5.5v-8.1h2.6v15.5h-2.5v-2.9A5,5,0,0,1,166.46,679.06Z"/><path class="cls-1" d="M190,662.86a10.88,10.88,0,0,1,2.8.3v2.4a11.65,11.65,0,0,0-2.9-.3c-3.7,0-6.7,2.5-6.7,7.6v5.8h-2.6v-15.5h2.6v4A7.43,7.43,0,0,1,190,662.86Z"/><path class="cls-1" d="M215.26,670.86c0-4.6,2.4-8,7.2-8a5.92,5.92,0,0,1,6.3,5.5l-2.7.3c-.3-2.3-1.6-3.6-3.8-3.6-2.8,0-4.3,2.31-4.3,5.7s1.5,5.9,4.4,5.9c2.3,0,3.5-1.4,3.8-3.7l2.5.41c-.5,3.19-2.5,5.59-6.3,5.59C217.66,679.06,215.26,675.46,215.26,670.86Z"/><path class="cls-1" d="M233.46,671c0-4.9,2.9-8.1,7.2-8.1s7.2,3.2,7.2,8.1-2.9,8.1-7.2,8.1S233.46,675.76,233.46,671Zm11.6,0c0-3.6-1.6-5.8-4.4-5.8s-4.4,2.2-4.4,5.8,1.6,5.8,4.4,5.8S245.06,674.56,245.06,671Z"/><path class="cls-1" d="M263.06,662.86a10.88,10.88,0,0,1,2.8.3v2.4a11.65,11.65,0,0,0-2.9-.3c-3.7,0-6.7,2.5-6.7,7.6v5.8h-2.6v-15.5h2.6v4A7.43,7.43,0,0,1,263.06,662.86Z"/><path class="cls-1" d="M283.66,671.66h-10.9c0,2.9,1.7,5.1,4.6,5.1a4.65,4.65,0,0,0,4.1-2.8l2.2,1.2a6.57,6.57,0,0,1-6.3,3.9c-4.9,0-7.2-3.3-7.2-8.4,0-4.7,2.7-7.8,7.1-7.8,4.7,0,6.6,3.4,6.6,7.6A5,5,0,0,0,283.66,671.66Zm-6.6-6.8c-2.8,0-4.2,2.3-4.2,4.6h8.2C281.06,667,279.86,664.86,277.06,664.86Z"/><path class="cls-1" d="M306.06,663.16h2.8l4.1,10.6c.3.8.6,1.5.8,2.2h.1c.2-.7.4-1.4.7-2.2l4.2-10.6h2.7l-6.2,15.5h-2.8Z"/><path class="cls-1" d="M338.46,678.66h-2.8a26.35,26.35,0,0,1-.2-2.8,5.17,5.17,0,0,1-5.2,3.2c-3.1,0-5.2-1.9-5.2-4.6a4.06,4.06,0,0,1,2.2-3.7,14.28,14.28,0,0,1,5.3-1.3l2.8-.3v-.3c0-2.8-1-4-3.3-4s-3.5,1.1-3.6,3.1h-2.8c.3-3.3,2.7-5.2,6.6-5.2s5.8,2,5.8,6.4v4.2A12.83,12.83,0,0,0,338.46,678.66Zm-6.9-7c-2.7.4-3.8,1.1-3.8,2.7s1.1,2.5,2.9,2.5c2.8,0,4.6-1.9,4.6-5v-.8Z"/><path class="cls-1" d="M344.56,676.56h5v-18.1H345v-2.2h7.3v20.3h5.2v2.2h-12.8v-2.2Z"/><path class="cls-1" d="M367.46,679.06a5.48,5.48,0,0,1-4-1.4c-1-1-1.4-2.4-1.4-4.9v-9.6h2.7v9.5c0,3.4,1.6,4.1,3.2,4.1,3.3,0,4-3.3,4-5.5v-8.1h2.6v15.5h-2.5v-2.9A5,5,0,0,1,367.46,679.06Z"/><path class="cls-1" d="M393.26,671.66h-10.9c0,2.9,1.7,5.1,4.6,5.1a4.65,4.65,0,0,0,4.1-2.8l2.2,1.2a6.57,6.57,0,0,1-6.3,3.9c-4.9,0-7.2-3.3-7.2-8.4,0-4.7,2.7-7.8,7.1-7.8,4.7,0,6.6,3.4,6.6,7.6C393.36,670.86,393.36,671.26,393.26,671.66Zm-6.6-6.8c-2.8,0-4.2,2.3-4.2,4.6h8.2C390.66,667,389.46,664.86,386.66,664.86Z"/><path class="cls-1" d="M398.76,674l2.7-.5a3.82,3.82,0,0,0,4.2,3.4c2.1,0,3.2-.9,3.2-2.3s-.8-2.2-2.5-2.4l-2.5-.3c-3.1-.3-4.5-2.1-4.5-4.5,0-2.8,2.2-4.6,5.9-4.6,3.5,0,5.9,1.9,6.3,4.7l-2.6.6a3.54,3.54,0,0,0-3.7-3.2c-2,0-3.3.8-3.3,2.3,0,1.3.9,2.1,2.8,2.4l2.5.3c3.1.3,4.3,2,4.3,4.4,0,2.9-2.2,4.7-5.9,4.7C401.76,679.06,399.36,677.26,398.76,674Z"/><path class="cls-1" d="M22.46,700a5.31,5.31,0,0,1,3.8,1.4c1,1,1.5,2.4,1.5,4.9v9.6h-2.6v-9.4c0-3.4-1.7-4.1-3.3-4.1-3.4,0-4.2,3.3-4.2,5.5V716h-2.6v-22.5h2.6v9.8A5.13,5.13,0,0,1,22.46,700Z"/><path class="cls-1" d="M46.16,708.76H35.26c0,2.9,1.7,5.1,4.6,5.1a4.65,4.65,0,0,0,4.1-2.8l2.2,1.2a6.57,6.57,0,0,1-6.3,3.9c-4.9,0-7.2-3.3-7.2-8.4,0-4.7,2.7-7.8,7.1-7.8,4.7,0,6.6,3.4,6.6,7.6A2.54,2.54,0,0,0,46.16,708.76Zm-6.7-6.7c-2.8,0-4.2,2.3-4.2,4.6h8.2C43.56,704.16,42.26,702.06,39.46,702.06Z"/><path class="cls-1" d="M62.06,700.06a10.88,10.88,0,0,1,2.8.3v2.4a11.19,11.19,0,0,0-2.9-.3c-3.7,0-6.7,2.5-6.7,7.6v5.8h-2.6v-15.5h2.6v4A7.43,7.43,0,0,1,62.06,700.06Z"/><path class="cls-1" d="M82.66,708.76H71.76c0,2.9,1.7,5.1,4.6,5.1a4.65,4.65,0,0,0,4.1-2.8l2.2,1.2a6.57,6.57,0,0,1-6.3,3.9c-4.9,0-7.2-3.3-7.2-8.4,0-4.7,2.7-7.8,7.1-7.8,4.7,0,6.6,3.4,6.6,7.6A5,5,0,0,0,82.66,708.76Zm-6.6-6.7c-2.8,0-4.2,2.3-4.2,4.6h8.2C80.06,704.16,78.86,702.06,76.06,702.06Z"/><path class="cls-1" d="M107.06,713.66h5v-11.2h-4.5v-2.2h7.1v13.3h5.2v2.2h-12.8Zm7.8-16.4h-3.7v-3.7h3.7Z"/><path class="cls-1" d="M132.16,700a5.11,5.11,0,0,1,3.7,1.3c1,1,1.5,2.4,1.5,5v9.6h-2.6v-9.4c0-3.4-1.7-4.1-3.2-4.1-3.5,0-4.3,3.3-4.3,5.5V716h-2.6v-15.5h2.5v3.1A5,5,0,0,1,132.16,700Z"/><path class="cls-1" d="M175.06,696.36h-10.6v7h9.8v2.5h-9.8v10h-2.9v-22h13.5Z"/><path class="cls-1" d="M180.16,713.66h5v-18.1h-4.6v-2.2h7.3v20.3h5.2v2.2h-12.8v-2.2Z"/><path class="cls-1" d="M210.46,715.86h-2.8a26.35,26.35,0,0,1-.2-2.8,5.17,5.17,0,0,1-5.2,3.2c-3.1,0-5.2-1.9-5.2-4.6a4.06,4.06,0,0,1,2.2-3.7,14.28,14.28,0,0,1,5.3-1.3l2.8-.3v-.3c0-2.8-1-4-3.3-4s-3.5,1.1-3.6,3.1h-2.8c.3-3.3,2.7-5.2,6.6-5.2s5.8,2,5.8,6.4v4.2A18.45,18.45,0,0,0,210.46,715.86Zm-6.8-7c-2.7.4-3.8,1.1-3.8,2.7s1.1,2.5,2.9,2.5c2.8,0,4.6-1.9,4.6-5v-.8Z"/><path class="cls-1" d="M215.56,700.36H220v-4.1l2.6-1.1v5.2h6v2.1h-6v8c0,2.1,1,3.1,3,3.1a16.28,16.28,0,0,0,3.1-.3v2.4a11.45,11.45,0,0,1-3,.4c-3.9,0-5.6-2.2-5.6-5.2v-8.4h-4.4v-2.1Z"/><path class="cls-1" d="M250.76,693.86h2.9l.7,15.6c.1,2.3.1,3.4.1,3.9h.3a30.25,30.25,0,0,1,.6-4.2l2.1-10h2.7l2.1,10a18.93,18.93,0,0,1,.6,4.2h.3c0-.5,0-1.6.1-3.9l.7-15.6h2.9l-1.7,22h-3.8l-2-9.4a32,32,0,0,1-.6-4.4h-.3a32,32,0,0,1-.6,4.4l-2,9.4h-3.8Z"/><path class="cls-1" d="M270,708.06c0-4.9,2.9-8.1,7.2-8.1s7.2,3.2,7.2,8.1-2.9,8.1-7.2,8.1S270,713,270,708.06Zm11.7,0c0-3.6-1.6-5.8-4.4-5.8s-4.4,2.2-4.4,5.8,1.6,5.8,4.4,5.8S281.66,711.76,281.66,708.06Z"/><path class="cls-1" d="M299.66,700.06a10.88,10.88,0,0,1,2.8.3v2.4a11.19,11.19,0,0,0-2.9-.3c-3.7,0-6.7,2.5-6.7,7.6v5.8h-2.6v-15.5h2.6v4A7.32,7.32,0,0,1,299.66,700.06Z"/><path class="cls-1" d="M308.06,713.66h5v-18.1h-4.7v-2.2h7.3v20.3h5.2v2.2h-12.8Z"/><path class="cls-1" d="M338,693.36v22.5h-2.5V713a5,5,0,0,1-4.9,3.3c-3.9,0-6.4-3.2-6.4-8.1s2.7-8.1,6.8-8.1a4.72,4.72,0,0,1,4.4,2.7v-9.3H338Zm-6.7,8.9c-2.7,0-4.2,2.1-4.2,5.8s1.6,5.81,4.2,5.81,4.3-2.1,4.3-5.5v-.7C335.46,704.46,333.86,702.26,331.26,702.26Z"/><path class="cls-1" d="M352.36,715.86h-4.1v-4h4.1Z"/></svg>