<svg width="1632" height="1046" viewBox="0 0 1632 1046" fill="none" xmlns="http://www.w3.org/2000/svg">
<g id="third-popup">
<g id="company3">
<g id="window">
<path id="Vector" d="M588.5 598.5H36.5C17.2 598.5 1.5 582.8 1.5 563.5V36.5C1.5 17.2 17.2 1.5 36.5 1.5H588.5C607.8 1.5 623.5 17.2 623.5 36.5V563.5C623.5 582.8 607.8 598.5 588.5 598.5Z" fill="#D3F3FF" stroke="#00BBFF" stroke-width="3" stroke-miterlimit="10" stroke-linecap="round" stroke-linejoin="round"/>
<path id="Vector_2" d="M1.2002 37H624" stroke="#00BBFF" stroke-width="3" stroke-miterlimit="10"/>
<path id="Vector_3" d="M27.3002 27.4002C23.9002 27.4002 21.2002 24.7002 21.2002 21.3002C21.2002 17.9002 23.9002 15.2002 27.3002 15.2002C30.7002 15.2002 33.4002 17.9002 33.4002 21.3002C33.4002 24.7002 30.7002 27.4002 27.3002 27.4002Z" fill="white"/>
<path id="Vector_4" d="M27.3002 16.7002C29.8002 16.7002 31.9002 18.8002 31.9002 21.3002C31.9002 23.8002 29.8002 25.9002 27.3002 25.9002C24.8002 25.9002 22.7002 23.8002 22.7002 21.3002C22.7002 18.8002 24.7002 16.7002 27.3002 16.7002ZM27.3002 13.7002C23.1002 13.7002 19.7002 17.1002 19.7002 21.3002C19.7002 25.5002 23.1002 28.9002 27.3002 28.9002C31.5002 28.9002 34.9002 25.5002 34.9002 21.3002C34.9002 17.1002 31.5002 13.7002 27.3002 13.7002Z" fill="#00BBFF"/>
<path id="Vector_5" d="M47.6 27.4002C44.2 27.4002 41.5 24.7002 41.5 21.3002C41.5 17.9002 44.2 15.2002 47.6 15.2002C51 15.2002 53.7 17.9002 53.7 21.3002C53.7 24.7002 51 27.4002 47.6 27.4002Z" fill="white"/>
<path id="Vector_6" d="M47.6 16.7002C50.1 16.7002 52.2 18.8002 52.2 21.3002C52.2 23.8002 50.1 25.9002 47.6 25.9002C45.1 25.9002 43 23.9002 43 21.3002C43 18.7002 45.1 16.7002 47.6 16.7002ZM47.6 13.7002C43.4 13.7002 40 17.1002 40 21.3002C40 25.5002 43.4 28.9002 47.6 28.9002C51.8 28.9002 55.2 25.5002 55.2 21.3002C55.2 17.1002 51.8 13.7002 47.6 13.7002Z" fill="#00BBFF"/>
<path id="Vector_7" d="M67.8998 27.4002C64.4998 27.4002 61.7998 24.7002 61.7998 21.3002C61.7998 17.9002 64.4998 15.2002 67.8998 15.2002C71.2998 15.2002 73.9998 17.9002 73.9998 21.3002C73.9998 24.7002 71.2998 27.4002 67.8998 27.4002Z" fill="white"/>
<path id="Vector_8" d="M67.8998 16.7002C70.3998 16.7002 72.4998 18.8002 72.4998 21.3002C72.4998 23.8002 70.3998 25.9002 67.8998 25.9002C65.3998 25.9002 63.2998 23.8002 63.2998 21.3002C63.2998 18.8002 65.3998 16.7002 67.8998 16.7002ZM67.8998 13.7002C63.6998 13.7002 60.2998 17.1002 60.2998 21.3002C60.2998 25.5002 63.6998 28.9002 67.8998 28.9002C72.0998 28.9002 75.4998 25.5002 75.4998 21.3002C75.4998 17.1002 72.0998 13.7002 67.8998 13.7002Z" fill="#00BBFF"/>
<path id="button-hole" d="M540.3 546H73.1002C56.3002 546 42.7002 532.4 42.7002 515.6V498.7C42.7002 481.9 56.3002 468.3 73.1002 468.3H540.3C557.1 468.3 570.7 481.9 570.7 498.7V515.6C570.8 532.4 557.1 546 540.3 546Z" fill="white" stroke="#FF921E" stroke-width="3" stroke-miterlimit="10"/>
</g>
<g id="button">
<path id="Vector_9" d="M540.6 545.7H73.4C56.6 545.7 43 532.1 43 515.3V498.4C43 481.6 56.6 468 73.4 468H540.6C557.4 468 571 481.6 571 498.4V515.3C571.1 532.1 557.5 545.7 540.6 545.7Z" fill="#FF921E"/>
<g id="text">
<path id="Vector_10" d="M93 492.6C93 489.9 93.7 487.9 95.1 486.5C96.5 485.1 98.5 484.4 101.2 484.4H113.1C115.7 484.4 117.7 485.1 119.1 486.5C120.5 487.9 121.2 489.9 121.2 492.6V522.1C121.2 524.8 120.5 526.8 119.1 528.2C117.7 529.6 115.7 530.3 113.1 530.3H101.2C98.5 530.3 96.5 529.6 95.1 528.2C93.7 526.8 93 524.8 93 522.1V492.6Z" fill="white"/>
<path id="Vector_11" d="M125.4 492.6C125.4 489.9 126.1 487.9 127.5 486.5C128.9 485.1 130.9 484.4 133.6 484.4H166.6C169.3 484.4 171.3 485.1 172.8 486.5C174.3 487.9 175 489.9 175 492.6V520.4C175 521.3 175.2 521.9 175.7 522.4C176.2 522.9 176.9 523.1 177.7 523.1H178.9C179.8 523.1 180.4 522.9 180.9 522.4C181.4 521.9 181.6 521.2 181.6 520.4V492.6C181.6 489.9 182.3 487.9 183.7 486.5C185.1 485.1 187.1 484.4 189.7 484.4H201.6C204.3 484.4 206.3 485.1 207.7 486.5C209.1 487.9 209.8 489.9 209.8 492.6V522.1C209.8 524.8 209.1 526.8 207.7 528.2C206.3 529.6 204.3 530.3 201.6 530.3H168.6C166 530.3 163.9 529.6 162.4 528.2C160.9 526.8 160.2 524.8 160.2 522.1V494.3C160.2 493.4 160 492.8 159.5 492.3C159 491.8 158.4 491.6 157.5 491.6H156.2C155.3 491.6 154.7 491.8 154.2 492.3C153.7 492.8 153.5 493.5 153.5 494.3V522.1C153.5 524.8 152.8 526.8 151.4 528.2C150 529.6 148 530.3 145.3 530.3H133.4C130.8 530.3 128.8 529.6 127.3 528.2C125.9 526.8 125.2 524.8 125.2 522.1V492.6H125.4Z" fill="white"/>
<path id="Vector_12" d="M218.3 530.3C217 530.3 216.1 530 215.4 529.4C214.7 528.8 214.4 527.9 214.4 526.8C214.4 525.7 214.7 524.8 215.4 524.2C216.1 523.6 217 523.3 218.3 523.3H242.5V513.5C242.5 512.6 242.2 511.9 241.7 511.4C241.2 510.9 240.5 510.6 239.6 510.6H222.4C219.8 510.6 217.8 509.9 216.3 508.5C214.9 507.1 214.2 505.1 214.2 502.4V492.7C214.2 490 214.9 488 216.3 486.6C217.7 485.2 219.7 484.5 222.4 484.5H265.8C267.1 484.5 268 484.8 268.7 485.4C269.4 486 269.7 486.9 269.7 488C269.7 489.1 269.4 490 268.7 490.6C268 491.2 267.1 491.5 265.8 491.5H242.5V500.6C242.5 501.5 242.8 502.2 243.3 502.7C243.8 503.2 244.5 503.5 245.4 503.5H262.6C265.3 503.5 267.3 504.2 268.7 505.6C270.1 507 270.8 509 270.8 511.7V522.2C270.8 524.9 270.1 526.9 268.7 528.3C267.3 529.7 265.3 530.4 262.6 530.4H218.3V530.3Z" fill="white"/>
<path id="Vector_13" d="M283.3 530.3C280.7 530.3 278.7 529.6 277.2 528.2C275.8 526.8 275.1 524.8 275.1 522.1V492.6C275.1 489.9 275.8 487.9 277.2 486.5C278.6 485.1 280.6 484.4 283.3 484.4H330.4C333.1 484.4 335.1 485.1 336.5 486.5C337.9 487.9 338.6 489.9 338.6 492.6V502.5C338.6 505.2 337.9 507.2 336.5 508.6C335.1 510 333.1 510.7 330.4 510.7H303.4V522.1C303.4 524.8 302.7 526.8 301.3 528.2C299.9 529.6 297.9 530.3 295.2 530.3H283.3ZM307.4 504C308.3 504 309 503.8 309.5 503.2C310 502.7 310.3 502 310.3 501.1V494C310.3 493.1 310 492.4 309.5 491.9C309 491.4 308.3 491.1 307.4 491.1H303.3V504H307.4Z" fill="white"/>
<path id="Vector_14" d="M342.4 516.9C342.4 514.2 343 512.2 344.2 510.8C345.4 509.4 347.1 508.7 349.3 508.7V506C347.1 506 345.4 505.3 344.2 503.9C343 502.5 342.4 500.5 342.4 497.9V492.7C342.4 490 343.1 488 344.5 486.6C345.9 485.2 347.9 484.5 350.6 484.5H394C395.2 484.5 396.2 484.8 396.9 485.4C397.6 486 397.9 486.9 397.9 488C397.9 489.1 397.6 490 396.9 490.6C396.2 491.2 395.2 491.5 394 491.5H370.6V503.4H394C395.2 503.4 396.2 503.7 396.9 504.3C397.6 504.9 397.9 505.8 397.9 506.9C397.9 508 397.6 508.9 396.9 509.6C396.2 510.2 395.2 510.5 394 510.5H370.6V523.1H394C395.2 523.1 396.2 523.4 396.9 524C397.6 524.6 397.9 525.5 397.9 526.6C397.9 527.7 397.6 528.6 396.9 529.2C396.2 529.8 395.2 530.1 394 530.1H350.6C347.9 530.1 345.9 529.4 344.5 528C343.1 526.6 342.4 524.6 342.4 521.9V516.9Z" fill="white"/>
<path id="Vector_15" d="M402.1 492.6C402.1 489.9 402.8 487.9 404.2 486.5C405.6 485.1 407.6 484.4 410.3 484.4H453.7C455 484.4 455.9 484.7 456.6 485.3C457.3 485.9 457.6 486.8 457.6 487.9C457.6 489 457.3 489.9 456.6 490.5C455.9 491.1 455 491.4 453.7 491.4H430.4V523.1H453.7C455 523.1 455.9 523.4 456.6 524C457.3 524.6 457.6 525.5 457.6 526.6C457.6 527.7 457.3 528.6 456.6 529.2C455.9 529.8 455 530.1 453.7 530.1H410.3C407.7 530.1 405.7 529.4 404.2 528C402.8 526.6 402.1 524.6 402.1 521.9V492.6Z" fill="white"/>
<path id="Vector_16" d="M461.7 488C461.7 486.9 462 486 462.7 485.4C463.4 484.8 464.3 484.5 465.6 484.5H520C521.3 484.5 522.2 484.8 522.9 485.4C523.6 486 523.9 486.9 523.9 488C523.9 489.1 523.6 490 522.9 490.6C522.2 491.2 521.3 491.5 520 491.5H506.9V522.1C506.9 524.8 506.2 526.8 504.8 528.2C503.4 529.6 501.4 530.3 498.8 530.3H486.9C484.2 530.3 482.2 529.6 480.8 528.2C479.4 526.8 478.7 524.8 478.7 522.1V491.5H465.6C464.3 491.5 463.4 491.2 462.7 490.6C462.1 490 461.7 489.1 461.7 488Z" fill="white"/>
</g>
</g>
<path id="logo" d="M180.2 245.5C180.2 241 180.2 236.5 180.2 232.1C180.3 231.8 180.4 231.6 180.4 231.3C180.8 224.5 181.7 217.8 183.1 211.2C185.7 198.9 189.9 187.2 195.9 176.2C203.7 161.7 213.8 149.1 226.2 138.3C235.7 130.1 246.2 123.4 257.6 118.1C273 111 289.2 107.1 306.2 106.1C315.6 105.5 325 106.2 334.3 107.7C344.5 109.3 354.5 112.1 364 116.1C376.9 121.5 388.7 128.7 399.4 137.8C412.1 148.7 422.4 161.5 430.3 176.3C439.5 193.5 444.6 211.9 445.7 231.3C446.4 243.1 445.5 254.7 443 266.3C439.8 281.4 434.1 295.4 426 308.5C418 321.4 408.1 332.7 396.2 342.2C387.7 349.1 378.4 354.7 368.5 359.3C359.4 363.5 349.9 366.6 340.1 368.7C338.1 369.1 336 369.5 333.9 369.8C333.9 338.8 333.9 308 333.9 277.1C344.2 277.1 354.5 277.1 364.8 277.1C366.8 264.3 368.7 251.5 370.7 238.6C358.3 238.6 346.1 238.6 333.8 238.6C333.8 238.1 333.8 237.8 333.8 237.4C333.8 229.7 333.8 222 333.8 214.2C333.8 212.4 333.9 210.6 334.2 208.9C335.4 201.9 339.1 196.8 346 194.4C348.5 193.5 351.1 193 353.8 193C359.6 193 365.3 193 371.1 193C371.4 193 371.8 193 372.1 193C372.1 182 372.1 171.2 372.1 160.4C371.7 160.3 371.4 160.2 371 160.2C362 158.9 353.1 157.9 344 157.8C336.6 157.7 329.4 158.5 322.4 161C310.8 165.1 302.3 172.7 297.2 184C293.9 191.3 292.4 199 292.3 206.9C292.2 217.1 292.3 227.3 292.3 237.5C292.3 237.9 292.3 238.3 292.3 238.8C281 238.8 269.8 238.8 258.6 238.8C258.6 251.7 258.6 264.4 258.6 277.2C269.8 277.2 281 277.2 292.2 277.2C292.2 308.1 292.2 339 292.2 369.9C290.7 369.6 289.2 369.4 287.7 369.1C273.9 366.4 260.8 361.6 248.5 354.8C233 346.2 219.8 334.9 208.8 321.1C199.5 309.3 192.4 296.3 187.4 282.1C183.6 271 181.2 259.5 180.5 247.7C180.5 247 180.3 246.3 180.2 245.5Z" fill="#0A73ED"/>
</g>
<g id="news3">
<g id="Group">
<path id="Vector_17" d="M1575.64 1043.97H567.359C537.558 1043.97 513.316 1019.71 513.316 989.902V122.382C513.316 92.5691 537.558 68.3169 567.359 68.3169H1575.64C1605.44 68.3169 1629.68 92.5691 1629.68 122.382V989.902C1629.68 1019.71 1605.44 1043.97 1575.64 1043.97Z" fill="#D4F4FF" stroke="#00BCFF" stroke-width="3" stroke-miterlimit="10" stroke-linecap="round" stroke-linejoin="round"/>
<g id="Group_2">
<path id="Vector_18" d="M514.397 130.261H1629.84" stroke="#00BCFF" stroke-width="3" stroke-miterlimit="10"/>
</g>
<g id="Group_3">
<path id="Vector_19" d="M561.956 112.496C568.351 112.496 573.536 107.309 573.536 100.911C573.536 94.5122 568.351 89.3252 561.956 89.3252C555.56 89.3252 550.375 94.5122 550.375 100.911C550.375 107.309 555.56 112.496 561.956 112.496Z" fill="white"/>
<path id="Vector_20" d="M561.955 91.6425C567.051 91.6425 571.22 95.8132 571.22 100.911C571.22 106.008 567.051 110.179 561.955 110.179C556.86 110.179 552.691 106.008 552.691 100.911C552.691 95.8132 556.86 91.6425 561.955 91.6425ZM561.955 87.0083C554.235 87.0083 548.059 93.1872 548.059 100.911C548.059 108.634 554.235 114.813 561.955 114.813C569.676 114.813 575.852 108.634 575.852 100.911C575.852 93.1872 569.676 87.0083 561.955 87.0083Z" fill="#00BCFF"/>
</g>
<g id="Group_4">
<path id="Vector_21" d="M599.013 112.496C605.409 112.496 610.594 107.309 610.594 100.911C610.594 94.5122 605.409 89.3252 599.013 89.3252C592.617 89.3252 587.433 94.5122 587.433 100.911C587.433 107.309 592.617 112.496 599.013 112.496Z" fill="white"/>
<path id="Vector_22" d="M599.013 91.6425C604.108 91.6425 608.277 95.8132 608.277 100.911C608.277 106.008 604.108 110.179 599.013 110.179C593.917 110.179 589.748 106.008 589.748 100.911C589.748 95.8132 593.917 91.6425 599.013 91.6425ZM599.013 87.0083C591.293 87.0083 585.116 93.1872 585.116 100.911C585.116 108.634 591.293 114.813 599.013 114.813C606.733 114.813 612.91 108.634 612.91 100.911C612.91 93.1872 606.733 87.0083 599.013 87.0083Z" fill="#00BCFF"/>
</g>
<g id="Group_5">
<path id="Vector_23" d="M636.071 112.496C642.467 112.496 647.651 107.309 647.651 100.911C647.651 94.5122 642.467 89.3252 636.071 89.3252C629.675 89.3252 624.49 94.5122 624.49 100.911C624.49 107.309 629.675 112.496 636.071 112.496Z" fill="white"/>
<path id="Vector_24" d="M636.071 91.6425C641.166 91.6425 645.335 95.8132 645.335 100.911C645.335 106.008 641.166 110.179 636.071 110.179C630.975 110.179 626.806 106.008 626.806 100.911C626.806 95.8132 630.975 91.6425 636.071 91.6425ZM636.071 87.0083C628.35 87.0083 622.174 93.1872 622.174 100.911C622.174 108.634 628.35 114.813 636.071 114.813C643.791 114.813 649.967 108.634 649.967 100.911C649.967 93.1872 643.791 87.0083 636.071 87.0083Z" fill="#00BCFF"/>
</g>
</g>
<g id="Group_6">
<path id="Vector_25" d="M582.337 246.27H571.22L569.367 260.327H553.309L566.279 192.359H587.433L600.403 260.327H584.345L582.337 246.27ZM580.793 234.839L578.014 214.448C577.705 211.359 577.242 208.887 576.933 205.18H576.624C576.315 208.887 575.852 211.359 575.543 214.448L572.764 234.839H580.793Z" fill="#00BFFF"/>
<path id="Vector_26" d="M646.262 210.278V215.839C646.262 228.505 639.159 235.457 626.035 235.457H620.939V260.327H604.727V192.359H625.572C639.159 192.204 646.108 198.383 646.262 210.278ZM629.741 210.587C629.741 205.18 628.042 202.863 623.873 202.863H620.785V224.335H623.873C628.042 224.335 629.741 221.863 629.741 215.375V210.587Z" fill="#00BFFF"/>
<path id="Vector_27" d="M691.658 210.278V215.839C691.658 228.505 684.555 235.457 671.43 235.457H666.335V260.327H650.276V192.359H671.121C684.555 192.204 691.658 198.383 691.658 210.278ZM675.136 210.587C675.136 205.18 673.438 202.863 669.269 202.863H666.18V224.335H669.269C673.438 224.335 675.136 221.863 675.136 215.375V210.587Z" fill="#00BFFF"/>
<path id="Vector_28" d="M695.673 192.204H711.731V246.424H728.098V260.172H695.673V192.204Z" fill="#00BFFF"/>
<path id="Vector_29" d="M766.083 248.278V260.327H732.268V192.359H765.465V204.408H748.172V219.392H764.23V231.286H748.172V248.278H766.083Z" fill="#00BFFF"/>
<path id="Vector_30" d="M783.53 240.4V212.44C783.53 198.074 791.405 190.505 805.456 190.505C818.89 190.505 826.456 196.993 826.456 209.505V217.229L809.934 220.164V209.814C809.934 205.18 808.236 202.708 804.993 202.708C801.596 202.708 799.898 205.643 799.898 211.204V241.018C799.898 246.579 801.596 249.514 804.993 249.514C808.236 249.514 810.088 246.887 810.088 242.099V231.286L826.301 234.375V241.944C826.301 254.92 818.272 261.717 804.993 261.717C791.096 261.871 783.53 254.766 783.53 240.4Z" fill="#00BFFF"/>
<path id="Vector_31" d="M856.874 246.27H845.603L843.75 260.327H827.691L840.662 192.359H861.816L874.786 260.327H858.727L856.874 246.27ZM855.33 234.839L852.551 214.448C852.242 211.359 851.779 208.887 851.47 205.18H851.161C850.853 208.887 850.389 211.359 850.081 214.448L847.301 234.839H855.33Z" fill="#00BFFF"/>
<path id="Vector_32" d="M899.027 233.139H895.167V260.172H879.108V192.204H899.027C914.468 192.204 920.49 199.31 920.49 211.05V213.83C920.49 221.554 917.556 226.497 912.769 229.278L921.879 260.172H905.203L899.027 233.139ZM897.946 223.408C902.578 223.408 904.122 220.782 904.122 214.912V210.123C904.122 204.716 902.424 202.863 897.946 202.863H895.167V223.408H897.946Z" fill="#00BFFF"/>
<path id="Vector_33" d="M926.049 192.204H945.813C960.482 192.204 968.82 200.082 968.82 214.448V237.156C968.82 252.14 960.636 260.172 945.659 260.172H926.049V192.204ZM945.35 248.896C949.982 248.896 952.298 244.725 952.298 238.083V213.521C952.298 206.725 950.291 203.481 945.35 203.481H941.953V248.896H945.35Z" fill="#00BFFF"/>
<path id="Vector_34" d="M989.356 260.172V192.204H1005.41V260.172H989.356Z" fill="#00BFFF"/>
<path id="Vector_35" d="M1013.13 192.204H1029.97L1039.23 219.7C1040.16 222.79 1041.08 226.188 1041.85 229.123H1042.16C1042.01 224.489 1041.85 219.7 1041.85 215.066V192.204H1055.6V260.172H1040.62L1029.97 229.123C1028.88 225.416 1027.8 222.172 1027.03 218.928H1026.72C1026.88 223.253 1027.03 227.578 1027.03 232.213V260.172H1013.13V192.204Z" fill="#00BFFF"/>
<path id="Vector_36" d="M1059.15 192.204H1075.67L1080.77 233.448C1081.38 238.855 1081.69 242.562 1081.85 246.424H1082.31C1082.46 242.562 1082.62 238.7 1083.39 233.448L1088.49 192.204H1104.85L1092.19 260.172H1071.81L1059.15 192.204Z" fill="#00BFFF"/>
<path id="Vector_37" d="M1142.37 248.278V260.327H1108.56V192.359H1141.76V204.408H1124.46V219.392H1140.52V231.286H1124.46V248.278H1142.37Z" fill="#00BFFF"/>
<path id="Vector_38" d="M1143.46 242.871V237.464L1159.67 234.375V242.871C1159.67 247.042 1161.06 249.668 1164.3 249.668C1167.54 249.668 1168.78 247.196 1168.78 244.57V241.635C1168.78 238.391 1168.16 236.692 1164.45 234.529L1153.49 228.042C1146.39 223.871 1144.07 218.928 1144.07 211.513V207.806C1144.07 195.757 1153.65 190.659 1164.3 190.659C1176.65 190.659 1184.99 195.139 1184.99 208.733V213.676L1168.93 216.611V208.424C1168.93 205.18 1167.85 202.399 1164.3 202.399C1161.52 202.399 1159.98 204.562 1159.98 207.033V209.968C1159.98 212.749 1161.68 215.066 1164.3 216.611L1175.11 223.098C1182.83 227.733 1184.99 232.058 1184.99 239.164V245.497C1184.99 254.765 1177.89 262.18 1164.15 262.18C1151.18 261.871 1143.46 253.993 1143.46 242.871Z" fill="#00BFFF"/>
<path id="Vector_39" d="M1226.37 205.643H1213.56V260.172H1197.65V205.643H1184.99V192.204H1226.37V205.643Z" fill="#00BFFF"/>
<path id="Vector_40" d="M1229.31 260.172V192.204H1245.36V260.172H1229.31Z" fill="#00BFFF"/>
<path id="Vector_41" d="M1251.23 239.318V213.985C1251.23 199.155 1259.11 190.659 1273.31 190.659C1286.44 190.659 1294.16 196.993 1294.16 208.578V213.985L1277.79 216.92V209.196C1277.79 204.562 1276.25 202.245 1273 202.245C1269.3 202.245 1267.6 205.334 1267.6 211.513V240.245C1267.6 246.424 1269.45 249.668 1273.47 249.668C1277.02 249.668 1278.87 246.887 1278.87 242.253V234.066H1272.69V222.172H1294V260.172H1282.58L1281.96 249.822C1280.57 256.928 1275.78 261.717 1267.44 261.717C1256.79 261.871 1251.23 253.993 1251.23 239.318Z" fill="#00BFFF"/>
<path id="Vector_42" d="M1326.43 246.27H1315.16L1313.3 260.327H1297.25L1310.22 192.359H1331.37L1344.34 260.327H1328.28L1326.43 246.27ZM1325.04 234.839L1322.26 214.448C1321.95 211.359 1321.49 208.887 1321.18 205.18H1320.87C1320.56 208.887 1320.1 211.359 1319.79 214.448L1317.01 234.839H1325.04Z" fill="#00BFFF"/>
<path id="Vector_43" d="M1379.7 205.643H1367.04V260.172H1350.98V205.643H1338.32V192.204H1379.7V205.643Z" fill="#00BFFF"/>
<path id="Vector_44" d="M1416.45 248.278V260.327H1382.63V192.359H1415.83V204.408H1398.54V219.392H1414.59V231.286H1398.54V248.278H1416.45Z" fill="#00BFFF"/>
<path id="Vector_45" d="M1421.39 192.204H1441.15C1455.82 192.204 1464.16 200.082 1464.16 214.448V237.156C1464.16 252.14 1455.98 260.172 1441 260.172H1421.39V192.204ZM1440.69 248.896C1445.32 248.896 1447.64 244.725 1447.64 238.083V213.521C1447.64 206.725 1445.63 203.481 1440.69 203.481H1437.29V248.896H1440.69Z" fill="#00BFFF"/>
<path id="Vector_46" d="M582.337 351.311H571.22L569.367 365.368H553.309L566.279 297.4H587.433L600.403 365.368H584.345L582.337 351.311ZM580.793 339.88L578.014 319.49C577.705 316.401 577.242 313.929 576.933 310.222H576.624C576.315 313.929 575.852 316.401 575.543 319.49L572.764 339.88H580.793Z" fill="#00BFFF"/>
<path id="Vector_47" d="M618.777 309.294V324.433H634.835V336.327H618.777V365.214H602.873V297.246H636.071V309.294H618.777Z" fill="#00BFFF"/>
<path id="Vector_48" d="M677.915 310.685H665.254V365.214H649.35V310.685H636.688V297.246H678.07V310.685H677.915Z" fill="#00BFFF"/>
<path id="Vector_49" d="M712.812 353.32V365.368H678.997V297.4H712.195V309.449H694.901V324.433H710.959V336.328H694.901V353.32H712.812Z" fill="#00BFFF"/>
<path id="Vector_50" d="M735.665 338.181H731.804V365.214H715.746V297.246H735.665C751.105 297.246 757.127 304.351 757.127 316.091V318.872C757.127 326.595 754.194 331.539 749.407 334.319L758.517 365.214H741.841L735.665 338.181ZM734.584 328.449C739.216 328.449 740.76 325.823 740.76 319.953V315.164C740.76 309.758 739.062 307.904 734.584 307.904H731.804V328.449H734.584Z" fill="#00BFFF"/>
<path id="Vector_51" d="M771.486 344.36V319.027C771.486 304.197 779.361 295.701 793.567 295.701C806.691 295.701 814.412 302.035 814.412 313.62V319.027L798.044 321.962V314.238C798.044 309.604 796.5 307.287 793.258 307.287C789.552 307.287 787.854 310.376 787.854 316.555V345.287C787.854 351.466 789.706 354.71 793.721 354.71C797.272 354.71 799.125 351.929 799.125 347.295V339.108H792.949V327.214H814.257V365.214H802.831L802.213 354.864C800.824 361.97 796.037 366.759 787.699 366.759C777.045 366.913 771.486 359.035 771.486 344.36Z" fill="#00BFFF"/>
<path id="Vector_52" d="M853.168 353.32V365.368H819.353V297.4H852.55V309.449H835.257V324.433H851.315V336.328H835.257V353.32H853.168Z" fill="#00BFFF"/>
<path id="Vector_53" d="M856.102 297.246H872.932L882.197 324.742C883.123 327.831 884.049 331.23 884.822 334.165H885.13C884.976 329.53 884.822 324.742 884.822 320.108V297.246H898.564V365.214H883.432L872.778 334.165C871.697 330.457 870.616 327.213 869.844 323.969H869.535C869.69 328.295 869.844 332.62 869.844 337.254V365.214H855.947V297.246H856.102Z" fill="#00BFFF"/>
<path id="Vector_54" d="M904.586 297.246H924.35C939.019 297.246 947.357 305.124 947.357 319.49V342.197C947.357 357.181 939.173 365.214 924.196 365.214H904.586V297.246ZM923.887 353.937C928.519 353.937 930.835 349.766 930.835 343.124V318.563C930.835 311.766 928.828 308.522 923.887 308.522H920.49V353.937H923.887Z" fill="#00BFFF"/>
<path id="Vector_55" d="M985.186 353.32V365.368H951.371V297.4H984.569V309.449H967.275V324.433H983.333V336.328H967.275V353.32H985.186Z" fill="#00BFFF"/>
<path id="Vector_56" d="M1008.04 338.181H1004.18V365.214H988.12V297.246H1008.04C1023.48 297.246 1029.5 304.351 1029.5 316.091V318.872C1029.5 326.595 1026.57 331.539 1021.78 334.319L1030.89 365.214H1014.37L1008.04 338.181ZM1006.96 328.449C1011.59 328.449 1013.13 325.823 1013.13 319.953V315.164C1013.13 309.758 1011.44 307.904 1006.96 307.904H1004.18V328.449H1006.96Z" fill="#00BFFF"/>
<path id="Vector_57" d="M1045.87 297.246H1065.63C1080.3 297.246 1088.64 305.124 1088.64 319.49V342.197C1088.64 357.181 1080.46 365.214 1065.48 365.214H1045.87V297.246ZM1065.17 353.937C1069.8 353.937 1072.12 349.766 1072.12 343.124V318.563C1072.12 311.766 1070.11 308.522 1065.17 308.522H1061.77V353.937H1065.17Z" fill="#00BFFF"/>
<path id="Vector_58" d="M1092.5 365.214V297.246H1108.56V365.214H1092.5Z" fill="#00BFFF"/>
<path id="Vector_59" d="M1111.18 347.913V342.506L1127.4 339.417V347.913C1127.4 352.084 1128.79 354.71 1132.03 354.71C1135.27 354.71 1136.51 352.238 1136.51 349.612V346.677C1136.51 343.433 1135.89 341.734 1132.18 339.571L1121.22 333.084C1114.12 328.913 1111.8 323.97 1111.8 316.555V312.848C1111.8 300.799 1121.37 295.701 1132.03 295.701C1144.38 295.701 1152.72 300.181 1152.72 313.774V318.718L1136.66 321.653V313.466C1136.66 310.222 1135.58 307.441 1132.03 307.441C1129.25 307.441 1127.71 309.604 1127.71 312.075V315.01C1127.71 317.791 1129.4 320.108 1132.03 321.653L1142.84 328.14C1150.56 332.775 1152.72 337.1 1152.72 344.206V350.539C1152.72 359.807 1145.62 367.222 1131.87 367.222C1118.9 366.913 1111.18 359.035 1111.18 347.913Z" fill="#00BFFF"/>
<path id="Vector_60" d="M1153.18 345.441V317.482C1153.18 303.116 1161.06 295.546 1175.11 295.546C1188.54 295.546 1196.11 302.034 1196.11 314.547V322.27L1179.59 325.205V314.855C1179.59 310.221 1177.89 307.75 1174.65 307.75C1171.25 307.75 1169.55 310.685 1169.55 316.246V346.059C1169.55 351.62 1171.25 354.555 1174.65 354.555C1177.89 354.555 1179.74 351.929 1179.74 347.14V336.327L1195.95 339.417V346.986C1195.95 359.962 1187.92 366.758 1174.65 366.758C1160.75 366.913 1153.18 359.807 1153.18 345.441Z" fill="#00BFFF"/>
<path id="Vector_61" d="M1219.73 338.181H1215.87V365.214H1199.81V297.246H1219.73C1235.17 297.246 1241.19 304.351 1241.19 316.091V318.872C1241.19 326.595 1238.26 331.539 1233.47 334.319L1242.58 365.214H1225.91L1219.73 338.181ZM1218.65 328.449C1223.28 328.449 1224.83 325.823 1224.83 319.953V315.164C1224.83 309.758 1223.13 307.904 1218.65 307.904H1215.87V328.449H1218.65Z" fill="#00BFFF"/>
<path id="Vector_62" d="M1244.75 365.214V297.246H1260.8V365.214H1244.75Z" fill="#00BFFF"/>
<path id="Vector_63" d="M1266.67 297.246H1287.21L1291.53 325.823C1291.99 329.376 1292.46 333.547 1292.46 335.709H1292.77C1292.77 333.392 1293.23 329.221 1293.69 325.823L1297.86 297.246H1318.4V365.214H1304.97V335.091C1304.97 328.913 1304.97 322.579 1305.27 316.555H1304.97C1304.66 319.49 1304.35 322.425 1303.88 325.514L1297.71 365.214H1287.52L1281.03 325.514C1280.72 322.425 1280.11 319.335 1279.95 316.555H1279.49C1279.8 322.425 1279.8 328.913 1279.8 335.091V365.214H1266.52V297.246H1266.67Z" fill="#00BFFF"/>
<path id="Vector_64" d="M1324.58 365.214V297.246H1340.63V365.214H1324.58Z" fill="#00BFFF"/>
<path id="Vector_65" d="M1346.5 297.246H1363.33L1372.6 324.742C1373.52 327.831 1374.45 331.23 1375.22 334.165H1375.53C1375.38 329.53 1375.22 324.742 1375.22 320.108V297.246H1388.96V365.214H1373.83L1363.18 334.165C1362.1 330.457 1361.02 327.213 1360.24 323.969H1359.93C1360.09 328.295 1360.24 332.62 1360.24 337.254V365.214H1346.35V297.246H1346.5Z" fill="#00BFFF"/>
<path id="Vector_66" d="M1420.77 351.311H1409.5L1407.65 365.368H1391.59L1404.56 297.4H1425.71L1438.68 365.368H1422.62L1420.77 351.311ZM1419.23 339.88L1416.45 319.49C1416.14 316.401 1415.68 313.929 1415.37 310.222H1415.06C1414.75 313.929 1414.29 316.401 1413.98 319.49L1411.2 339.88H1419.23Z" fill="#00BFFF"/>
<path id="Vector_67" d="M1471.88 310.685H1459.22V365.214H1443.31V310.685H1430.65V297.246H1472.03V310.685H1471.88Z" fill="#00BFFF"/>
<path id="Vector_68" d="M1472.96 365.214V297.246H1489.02V365.214H1472.96Z" fill="#00BFFF"/>
<path id="Vector_69" d="M1492.88 344.515V318.1C1492.88 303.734 1501.37 295.701 1515.11 295.701C1528.86 295.701 1537.35 303.734 1537.35 318.1V344.515C1537.35 358.881 1528.86 366.913 1515.11 366.913C1501.37 366.913 1492.88 358.881 1492.88 344.515ZM1520.83 346.523V315.937C1520.83 310.685 1518.67 307.905 1515.11 307.905C1511.41 307.905 1509.4 310.685 1509.4 315.937V346.523C1509.4 351.775 1511.56 354.555 1515.11 354.555C1518.67 354.555 1520.83 351.775 1520.83 346.523Z" fill="#00BFFF"/>
<path id="Vector_70" d="M1541.21 297.246H1558.04L1567.3 324.742C1568.23 327.831 1569.16 331.23 1569.93 334.165H1570.24C1570.08 329.53 1569.93 324.742 1569.93 320.108V297.246H1583.67V365.214H1568.69L1558.04 334.165C1556.96 330.457 1555.88 327.213 1555.11 323.969H1554.8C1554.95 328.295 1555.11 332.62 1555.11 337.254V365.214H1541.21V297.246Z" fill="#00BFFF"/>
<path id="Vector_71" d="M554.698 450.483V422.523C554.698 408.157 562.573 400.588 576.624 400.588C590.058 400.588 597.624 407.076 597.624 419.588V427.312L581.102 430.247V419.897C581.102 415.263 579.403 412.791 576.161 412.791C572.764 412.791 571.065 415.726 571.065 421.287V451.1C571.065 456.661 572.764 459.596 576.161 459.596C579.403 459.596 581.256 456.97 581.256 452.182V441.369L597.469 444.458V452.027C597.469 465.003 589.44 471.8 576.161 471.8C562.11 471.954 554.698 464.849 554.698 450.483Z" fill="#00BFFF"/>
<path id="Vector_72" d="M601.175 449.556V423.141C601.175 408.775 609.667 400.742 623.41 400.742C637.152 400.742 645.644 408.775 645.644 423.141V449.556C645.644 463.922 637.152 471.954 623.41 471.954C609.667 471.954 601.175 463.922 601.175 449.556ZM629.123 451.564V420.978C629.123 415.726 626.961 412.946 623.41 412.946C619.704 412.946 617.696 415.726 617.696 420.978V451.564C617.696 456.816 619.858 459.596 623.41 459.596C627.115 459.596 629.123 456.816 629.123 451.564Z" fill="#00BFFF"/>
<path id="Vector_73" d="M651.512 402.287H672.048L676.371 430.865C676.835 434.417 677.298 438.588 677.298 440.751H677.607C677.607 438.434 678.07 434.263 678.533 430.865L682.702 402.287H703.238V470.255H689.805V440.133C689.805 433.954 689.805 427.621 690.114 421.596H689.805C689.496 424.531 689.187 427.466 688.724 430.556L682.548 470.255H672.357L665.872 430.556C665.563 427.466 664.945 424.377 664.791 421.596H664.328C664.636 427.466 664.636 433.954 664.636 440.133V470.255H651.512V402.287Z" fill="#00BFFF"/>
<path id="Vector_74" d="M752.803 420.361V425.922C752.803 438.588 745.7 445.54 732.576 445.54H727.48V470.41H711.422V402.442H732.267C745.7 402.287 752.649 408.466 752.803 420.361ZM736.281 420.67C736.281 415.263 734.583 412.946 730.414 412.946H727.326V434.418H730.414C734.583 434.418 736.281 431.946 736.281 425.458V420.67Z" fill="#00BFFF"/>
<path id="Vector_75" d="M756.817 402.287H772.876V456.507H789.243V470.255H756.817V402.287Z" fill="#00BFFF"/>
<path id="Vector_76" d="M821.824 456.353H810.552L808.699 470.41H792.641L805.611 402.442H826.765L839.735 470.41H823.677L821.824 456.353ZM820.28 444.922L817.5 424.532C817.191 421.442 816.728 418.97 816.419 415.263H816.111C815.802 418.97 815.339 421.442 815.03 424.532L812.25 444.922H820.28Z" fill="#00BFFF"/>
<path id="Vector_77" d="M844.213 470.255V402.287H860.271V470.255H844.213Z" fill="#00BFFF"/>
<path id="Vector_78" d="M867.991 402.287H884.822L894.086 429.783C895.013 432.873 895.939 436.271 896.711 439.206H897.02C896.865 434.572 896.711 429.783 896.711 425.149V402.287H910.453V470.255H895.476L884.822 439.206C883.741 435.499 882.66 432.255 881.888 429.011H881.579C881.734 433.336 881.888 437.661 881.888 442.296V470.255H867.991V402.287Z" fill="#00BFFF"/>
<path id="Vector_79" d="M954.923 415.726H942.262V470.255H926.358V415.726H913.696V402.287H955.078V415.726H954.923Z" fill="#00BFFF"/>
<path id="Vector_80" d="M954.614 452.954V447.547L970.827 444.458V452.954C970.827 457.125 972.217 459.751 975.459 459.751C978.702 459.751 979.937 457.279 979.937 454.653V451.718C979.937 448.474 979.32 446.775 975.614 444.612L964.651 438.125C957.548 433.954 955.232 429.011 955.232 421.596V417.889C955.232 405.84 964.805 400.742 975.459 400.742C987.812 400.742 996.15 405.222 996.15 418.815V423.759L980.092 426.694V418.507C980.092 415.263 979.011 412.482 975.459 412.482C972.68 412.482 971.136 414.645 971.136 417.116V420.051C971.136 422.832 972.834 425.149 975.459 426.694L986.268 433.181C993.988 437.816 996.15 442.141 996.15 449.247V455.58C996.15 464.848 989.047 472.263 975.305 472.263C962.335 471.954 954.614 464.076 954.614 452.954Z" fill="#00BFFF"/>
</g>
<g id="Group_7">
<path id="Vector_81" d="M574.307 566.337H561.028L557.785 578.232H553.462L565.351 537.605H569.984L581.873 578.232H577.704L574.307 566.337ZM573.381 562.939L568.903 547.028C568.439 545.175 568.131 543.63 567.822 541.931H567.667C567.359 543.63 567.05 545.175 566.587 547.028L562.109 562.939H573.381Z" fill="#00BFFF"/>
<path id="Vector_82" d="M598.24 549.654H602.1V555.524C603.181 551.353 606.269 548.882 610.284 548.882C616.306 548.882 619.703 553.67 619.703 563.866C619.703 573.598 615.997 578.85 609.821 578.85C605.961 578.85 603.336 576.378 602.1 572.671V589.354H598.24V549.654ZM615.379 563.866C615.379 555.833 613.218 552.28 609.049 552.28C604.88 552.28 602.255 555.988 602.255 561.549V566.337C602.255 572.053 604.88 575.606 608.894 575.606C613.218 575.606 615.379 572.053 615.379 563.866Z" fill="#00BFFF"/>
<path id="Vector_83" d="M637.769 549.037C638.077 549.037 638.232 549.037 638.695 549.037V553.053C638.386 553.053 638.232 553.053 638.077 553.053C635.607 553.053 634.063 553.98 632.982 555.524C631.129 557.687 630.82 561.085 630.82 564.329V578.232H626.96V549.655H630.666V556.451C631.283 552.281 633.754 549.037 637.769 549.037Z" fill="#00BFFF"/>
<path id="Vector_84" d="M641.32 563.866C641.32 553.362 645.489 548.882 652.129 548.882C658.768 548.882 662.937 553.362 662.937 563.866C662.937 574.37 658.768 578.85 652.129 578.85C645.489 578.85 641.32 574.37 641.32 563.866ZM658.923 563.866C658.923 554.906 656.143 551.971 652.129 551.971C648.269 551.971 645.489 554.906 645.489 563.866C645.489 572.825 648.269 575.76 652.129 575.76C656.143 575.76 658.923 572.825 658.923 563.866Z" fill="#00BFFF"/>
<path id="Vector_85" d="M673.437 549.654V554.906C674.518 551.044 676.989 548.882 680.54 548.882C684.091 548.882 686.253 550.89 687.18 554.597C688.569 550.89 691.04 548.882 694.437 548.882C699.069 548.882 701.539 551.971 701.539 557.687V578.077H697.679V558.459C697.679 554.288 696.135 552.126 693.047 552.126C689.496 552.126 687.643 554.906 687.643 560.158V578.077H683.783V558.305C683.783 554.288 682.238 552.126 679.15 552.126C675.599 552.126 673.592 555.215 673.592 560.467V578.077H669.731V549.5H673.437V549.654Z" fill="#00BFFF"/>
<path id="Vector_86" d="M709.26 538.377H713.583V544.711H709.26V538.377ZM709.569 549.654H713.429V578.232H709.569V549.654Z" fill="#00BFFF"/>
<path id="Vector_87" d="M722.075 549.654H725.781V555.37C727.171 551.044 729.796 548.882 733.81 548.882C738.906 548.882 741.531 552.126 741.531 558.614V578.232H737.67V559.077C737.67 554.597 735.972 552.28 732.421 552.28C728.251 552.28 726.09 555.679 726.09 562.321V578.232H722.23V549.654H722.075Z" fill="#00BFFF"/>
<path id="Vector_88" d="M768.243 564.638H751.567C751.722 572.362 753.883 575.451 758.361 575.451C761.604 575.451 764.074 573.597 764.537 569.272L768.089 570.199C767.317 575.76 763.611 578.85 758.361 578.85C752.03 578.85 747.707 574.833 747.707 563.866C747.707 552.744 752.185 548.882 758.207 548.882C764.537 548.882 768.243 553.053 768.243 561.549V564.638ZM764.229 561.703C764.229 554.752 762.067 551.971 758.207 551.971C754.501 551.971 751.722 553.979 751.567 561.703H764.229Z" fill="#00BFFF"/>
<path id="Vector_89" d="M775.191 549.654H778.897V555.37C780.287 551.044 782.912 548.882 786.926 548.882C792.022 548.882 794.647 552.126 794.647 558.614V578.232H790.787V559.077C790.787 554.597 789.088 552.28 785.537 552.28C781.368 552.28 779.206 555.679 779.206 562.321V578.232H775.346V549.654H775.191Z" fill="#00BFFF"/>
<path id="Vector_90" d="M798.508 549.654H802.831V542.394L806.691 540.849V549.654H812.868V552.744H806.691V570.662C806.691 573.752 807.927 574.988 810.397 574.988C811.324 574.988 811.941 574.833 812.868 574.679V578.232C811.787 578.54 810.86 578.695 809.471 578.695C804.684 578.695 802.831 575.914 802.831 571.28V552.744H798.508V549.654Z" fill="#00BFFF"/>
<path id="Vector_91" d="M829.543 568.963L833.403 568.345C833.558 573.134 836.028 575.606 839.579 575.606C842.822 575.606 844.829 573.906 844.829 570.663C844.829 567.882 843.594 566.337 840.352 565.565L836.337 564.638C832.168 563.711 830.006 560.931 830.006 556.76C830.006 551.817 833.712 548.882 839.116 548.882C844.675 548.882 848.381 551.662 848.535 558.15L844.829 558.768C844.521 553.67 842.359 551.971 839.116 551.971C835.874 551.971 834.021 553.67 834.021 556.605C834.021 559.232 835.102 560.776 838.19 561.394L842.359 562.475C846.991 563.557 848.844 566.337 848.844 570.508C848.844 575.451 845.447 578.85 839.579 578.85C833.712 578.85 829.852 575.76 829.543 568.963Z" fill="#00BFFF"/>
<path id="Vector_92" d="M853.631 563.866C853.631 553.362 857.8 548.882 864.439 548.882C871.079 548.882 875.248 553.362 875.248 563.866C875.248 574.37 871.079 578.85 864.439 578.85C857.8 578.85 853.631 574.37 853.631 563.866ZM871.233 563.866C871.233 554.906 868.454 551.971 864.439 551.971C860.579 551.971 857.8 554.906 857.8 563.866C857.8 572.825 860.579 575.76 864.439 575.76C868.454 575.76 871.233 572.825 871.233 563.866Z" fill="#00BFFF"/>
<path id="Vector_93" d="M892.85 552.744H886.674V578.232H882.814V552.744H878.49V549.654H882.968V544.093C882.968 539.305 885.593 536.37 890.071 536.37C891.152 536.37 892.078 536.524 892.85 536.679V540.077C892.078 539.922 891.306 539.922 890.688 539.922C887.909 539.922 886.674 541.313 886.674 544.557V549.654H892.85V552.744Z" fill="#00BFFF"/>
<path id="Vector_94" d="M895.784 549.654H900.108V542.394L903.968 540.849V549.654H910.144V552.744H903.968V570.662C903.968 573.752 905.203 574.988 907.674 574.988C908.6 574.988 909.218 574.833 910.144 574.679V578.232C909.063 578.54 908.137 578.695 906.747 578.695C901.96 578.695 900.108 575.914 900.108 571.28V552.744H895.784V549.654Z" fill="#00BFFF"/>
<path id="Vector_95" d="M914.004 549.654H918.019L922.342 571.126L922.805 574.216H922.96C923.114 573.134 923.268 572.207 923.423 571.126L928.055 549.654H932.224L936.856 571.126C937.011 572.053 937.32 573.134 937.474 574.216H937.628C937.628 573.134 937.937 572.053 938.092 571.126L942.415 549.654H946.43L939.79 578.232H935.621L930.834 556.451C930.68 555.524 930.526 554.288 930.371 553.362H930.217C930.062 554.288 929.908 555.524 929.754 556.451L924.967 578.232H920.798L914.004 549.654Z" fill="#00BFFF"/>
<path id="Vector_96" d="M949.209 570.972C949.209 568.037 950.29 566.028 951.988 564.638C953.532 563.402 955.849 562.476 959.4 561.858L964.804 560.931V558.923C964.804 554.289 963.26 552.28 959.554 552.28C955.385 552.28 953.841 554.597 953.841 558.923H949.827C949.981 551.663 954.459 549.191 959.554 549.191C965.885 549.191 968.664 552.126 968.664 559.077V569.581C968.664 573.289 968.819 576.069 969.282 578.386H965.422C965.267 576.687 964.959 574.679 964.959 572.98C963.878 576.687 960.944 579.159 956.775 579.159C952.143 578.85 949.209 575.76 949.209 570.972ZM964.959 567.573V563.557L959.4 564.638C955.385 565.411 953.378 567.11 953.378 570.508C953.378 573.907 955.077 575.76 958.319 575.76C962.334 575.76 964.959 572.516 964.959 567.573Z" fill="#00BFFF"/>
<path id="Vector_97" d="M987.965 549.037C988.274 549.037 988.428 549.037 988.891 549.037V553.053C988.582 553.053 988.428 553.053 988.274 553.053C985.803 553.053 984.259 553.98 983.178 555.524C981.325 557.687 981.016 561.085 981.016 564.329V578.232H977.156V549.655H980.862V556.451C981.48 552.281 983.95 549.037 987.965 549.037Z" fill="#00BFFF"/>
<path id="Vector_98" d="M1012.05 564.638H995.377C995.531 572.362 997.693 575.451 1002.17 575.451C1005.41 575.451 1007.88 573.597 1008.35 569.272L1011.9 570.199C1011.13 575.76 1007.42 578.85 1002.17 578.85C995.84 578.85 991.517 574.833 991.517 563.866C991.517 552.744 995.994 548.882 1002.02 548.882C1008.35 548.882 1012.05 553.053 1012.05 561.549V564.638ZM1008.19 561.703C1008.19 554.752 1006.03 551.971 1002.17 551.971C998.465 551.971 995.686 553.979 995.531 561.703H1008.19Z" fill="#00BFFF"/>
<path id="Vector_99" d="M1029.81 563.866C1029.81 554.134 1033.52 548.882 1039.69 548.882C1043.4 548.882 1046.18 551.045 1047.26 555.061V536.679H1051.12V578.077H1047.41V572.207C1046.02 576.378 1043.24 578.85 1039.38 578.85C1033.36 578.85 1029.81 573.752 1029.81 563.866ZM1047.41 566.183V561.549C1047.41 555.833 1045.1 552.126 1041.08 552.126C1036.45 552.126 1034.29 555.524 1034.29 563.711C1034.29 572.053 1036.45 575.451 1041.08 575.451C1044.94 575.606 1047.41 572.053 1047.41 566.183Z" fill="#00BFFF"/>
<path id="Vector_100" d="M1078.76 564.638H1062.08C1062.24 572.362 1064.4 575.451 1068.87 575.451C1072.12 575.451 1074.59 573.597 1075.05 569.272L1078.6 570.199C1077.83 575.76 1074.12 578.85 1068.87 578.85C1062.54 578.85 1058.22 574.833 1058.22 563.866C1058.22 552.744 1062.7 548.882 1068.72 548.882C1075.05 548.882 1078.76 553.053 1078.76 561.549V564.638ZM1074.74 561.703C1074.74 554.752 1072.58 551.971 1068.72 551.971C1065.01 551.971 1062.24 553.979 1062.08 561.703H1074.74Z" fill="#00BFFF"/>
<path id="Vector_101" d="M1081.23 549.654H1085.4L1090.96 569.89C1091.42 571.435 1091.57 572.825 1091.88 574.061H1092.04C1092.19 572.825 1092.5 571.435 1092.96 569.89L1098.52 549.654H1102.69L1094.2 578.232H1090.03L1081.23 549.654Z" fill="#00BFFF"/>
<path id="Vector_102" d="M1125.54 564.638H1108.87C1109.02 572.362 1111.18 575.451 1115.66 575.451C1118.9 575.451 1121.37 573.597 1121.84 569.272L1125.39 570.199C1124.62 575.76 1120.91 578.85 1115.66 578.85C1109.33 578.85 1105.01 574.833 1105.01 563.866C1105.01 552.744 1109.48 548.882 1115.51 548.882C1121.84 548.882 1125.54 553.053 1125.54 561.549V564.638ZM1121.68 561.703C1121.68 554.752 1119.52 551.971 1115.66 551.971C1111.96 551.971 1109.18 553.979 1109.02 561.703H1121.68Z" fill="#00BFFF"/>
<path id="Vector_103" d="M1136.51 578.232H1132.65V536.833H1136.51V578.232Z" fill="#00BFFF"/>
<path id="Vector_104" d="M1143.61 563.866C1143.61 553.362 1147.78 548.882 1154.42 548.882C1161.06 548.882 1165.23 553.362 1165.23 563.866C1165.23 574.37 1161.06 578.85 1154.42 578.85C1147.62 578.85 1143.61 574.37 1143.61 563.866ZM1161.06 563.866C1161.06 554.906 1158.28 551.971 1154.26 551.971C1150.4 551.971 1147.62 554.906 1147.62 563.866C1147.62 572.825 1150.4 575.76 1154.26 575.76C1158.28 575.76 1161.06 572.825 1161.06 563.866Z" fill="#00BFFF"/>
<path id="Vector_105" d="M1172.02 549.654H1175.73V555.524C1176.81 551.353 1179.89 548.882 1183.91 548.882C1189.93 548.882 1193.33 553.67 1193.33 563.866C1193.33 573.598 1189.62 578.85 1183.45 578.85C1179.59 578.85 1176.96 576.378 1175.73 572.671V589.354H1171.87V549.654H1172.02ZM1189.16 563.866C1189.16 555.833 1187 552.28 1182.83 552.28C1178.66 552.28 1176.03 555.988 1176.03 561.549V566.337C1176.03 572.053 1178.66 575.606 1182.67 575.606C1187 575.606 1189.16 572.053 1189.16 563.866Z" fill="#00BFFF"/>
<path id="Vector_106" d="M1218.96 564.638H1202.28C1202.44 572.362 1204.6 575.451 1209.08 575.451C1212.32 575.451 1214.79 573.597 1215.25 569.272L1218.81 570.199C1218.03 575.76 1214.33 578.85 1209.08 578.85C1202.75 578.85 1198.42 574.833 1198.42 563.866C1198.42 552.744 1202.9 548.882 1208.92 548.882C1215.25 548.882 1218.96 553.053 1218.96 561.549V564.638ZM1215.1 561.703C1215.1 554.752 1212.94 551.971 1209.08 551.971C1205.37 551.971 1202.59 553.979 1202.44 561.703H1215.1Z" fill="#00BFFF"/>
<path id="Vector_107" d="M1237.03 549.037C1237.33 549.037 1237.49 549.037 1237.95 549.037V553.053C1237.64 553.053 1237.49 553.053 1237.33 553.053C1234.86 553.053 1233.32 553.98 1232.24 555.524C1230.39 557.687 1230.08 561.085 1230.08 564.329V578.232H1225.91V549.655H1229.61V556.451C1230.54 552.281 1233.01 549.037 1237.03 549.037Z" fill="#00BFFF"/>
<path id="Vector_108" d="M1251.54 568.963L1255.4 568.345C1255.55 573.134 1258.02 575.606 1261.58 575.606C1264.82 575.606 1266.83 573.906 1266.83 570.663C1266.83 567.882 1265.59 566.337 1262.35 565.565L1258.33 564.638C1254.16 563.711 1252 560.931 1252 556.76C1252 551.817 1255.71 548.882 1261.11 548.882C1266.67 548.882 1270.38 551.662 1270.53 558.15L1266.83 558.768C1266.52 553.67 1264.35 551.971 1261.11 551.971C1257.87 551.971 1256.02 553.67 1256.02 556.605C1256.02 559.232 1257.1 560.776 1260.19 561.394L1264.35 562.475C1268.99 563.557 1270.84 566.337 1270.84 570.508C1270.84 575.451 1267.44 578.85 1261.58 578.85C1255.71 578.85 1251.85 575.76 1251.54 568.963Z" fill="#00BFFF"/>
<path id="Vector_109" d="M1275.47 570.972C1275.47 568.037 1276.55 566.028 1278.25 564.638C1279.8 563.402 1282.11 562.476 1285.66 561.858L1291.07 560.931V558.923C1291.07 554.289 1289.52 552.28 1285.82 552.28C1281.65 552.28 1280.1 554.597 1280.1 558.923H1276.09C1276.24 551.663 1280.72 549.191 1285.82 549.191C1292.15 549.191 1294.93 552.126 1294.93 559.077V569.581C1294.93 573.289 1295.08 576.069 1295.55 578.386H1291.69C1291.53 576.687 1291.22 574.679 1291.22 572.98C1290.14 576.687 1287.21 579.159 1283.04 579.159C1278.41 578.85 1275.47 575.76 1275.47 570.972ZM1291.07 567.573V563.557L1285.51 564.638C1281.49 565.411 1279.49 567.11 1279.49 570.508C1279.49 573.907 1281.19 575.76 1284.43 575.76C1288.44 575.76 1291.07 572.516 1291.07 567.573Z" fill="#00BFFF"/>
<path id="Vector_110" d="M1302.96 538.377H1307.28V544.711H1302.96V538.377ZM1303.11 549.654H1306.97V578.232H1303.11V549.654Z" fill="#00BFFF"/>
<path id="Vector_111" d="M1313.92 563.866C1313.92 554.134 1317.63 548.882 1323.8 548.882C1327.51 548.882 1330.29 551.045 1331.37 555.061V536.679H1335.23V578.077H1331.52V572.207C1330.13 576.378 1327.35 578.85 1323.49 578.85C1317.32 578.85 1313.92 573.752 1313.92 563.866ZM1331.37 566.183V561.549C1331.37 555.833 1329.05 552.126 1325.04 552.126C1320.41 552.126 1318.24 555.524 1318.24 563.711C1318.24 572.053 1320.41 575.451 1325.04 575.451C1328.9 575.606 1331.37 572.053 1331.37 566.183Z" fill="#00BFFF"/>
<path id="Vector_112" d="M1354.84 563.866C1354.84 553.362 1359.01 548.882 1365.65 548.882C1372.29 548.882 1376.45 553.362 1376.45 563.866C1376.45 574.37 1372.29 578.85 1365.65 578.85C1359.01 578.85 1354.84 574.37 1354.84 563.866ZM1372.44 563.866C1372.44 554.906 1369.66 551.971 1365.65 551.971C1361.79 551.971 1359.01 554.906 1359.01 563.866C1359.01 572.825 1361.79 575.76 1365.65 575.76C1369.66 575.76 1372.44 572.825 1372.44 563.866Z" fill="#00BFFF"/>
<path id="Vector_113" d="M1383.4 549.654H1387.11V555.37C1388.5 551.044 1391.12 548.882 1395.14 548.882C1400.23 548.882 1402.86 552.126 1402.86 558.614V578.232H1398.84V559.077C1398.84 554.597 1397.15 552.28 1393.59 552.28C1389.43 552.28 1387.26 555.679 1387.26 562.321V578.232H1383.4V549.654Z" fill="#00BFFF"/>
<path id="Vector_114" d="M1442.23 541.313H1431.58V578.232H1427.41V541.313H1416.76V537.605H1442.23V541.313Z" fill="#00BFFF"/>
<path id="Vector_115" d="M1441.15 549.654H1445.17L1449.49 571.126L1449.95 574.216H1450.11C1450.26 573.134 1450.42 572.207 1450.57 571.126L1455.2 549.654H1459.37L1464 571.126C1464.16 572.053 1464.47 573.134 1464.62 574.216H1464.78C1464.78 573.134 1465.09 572.053 1465.24 571.126L1469.56 549.654H1473.58L1466.94 578.232H1462.77L1457.98 556.451C1457.83 555.524 1457.67 554.288 1457.52 553.362H1457.37C1457.21 554.288 1457.06 555.524 1456.9 556.451L1452.12 578.232H1447.95L1441.15 549.654Z" fill="#00BFFF"/>
<path id="Vector_116" d="M1479.14 538.377H1483.46V544.711H1479.14V538.377ZM1479.29 549.654H1483.15V578.232H1479.29V549.654Z" fill="#00BFFF"/>
<path id="Vector_117" d="M1488.4 549.654H1492.72V542.394L1496.58 540.849V549.654H1502.76V552.744H1496.58V570.662C1496.58 573.752 1497.82 574.988 1500.29 574.988C1501.22 574.988 1501.83 574.833 1502.76 574.679V578.232C1501.68 578.54 1500.75 578.695 1499.36 578.695C1494.58 578.695 1492.72 575.914 1492.72 571.28V552.744H1488.4V549.654Z" fill="#00BFFF"/>
<path id="Vector_118" d="M1506 549.654H1510.33V542.394L1514.19 540.849V549.654H1520.36V552.744H1514.19V570.662C1514.19 573.752 1515.42 574.988 1517.89 574.988C1518.82 574.988 1519.44 574.833 1520.36 574.679V578.232C1519.28 578.54 1518.36 578.695 1516.97 578.695C1512.18 578.695 1510.33 575.914 1510.33 571.28V552.744H1506V549.654Z" fill="#00BFFF"/>
<path id="Vector_119" d="M1544.3 564.638H1527.62C1527.77 572.362 1529.94 575.451 1534.41 575.451C1537.66 575.451 1540.13 573.597 1540.59 569.272L1544.14 570.199C1543.37 575.76 1539.66 578.85 1534.41 578.85C1528.08 578.85 1523.76 574.833 1523.76 563.866C1523.76 552.744 1528.24 548.882 1534.26 548.882C1540.59 548.882 1544.3 553.053 1544.3 561.549V564.638ZM1540.28 561.703C1540.28 554.752 1538.12 551.971 1534.26 551.971C1530.55 551.971 1527.77 553.979 1527.62 561.703H1540.28Z" fill="#00BFFF"/>
<path id="Vector_120" d="M1562.21 549.037C1562.52 549.037 1562.67 549.037 1563.13 549.037V553.053C1562.83 553.053 1562.67 553.053 1562.52 553.053C1560.05 553.053 1558.5 553.98 1557.42 555.524C1555.57 557.687 1555.26 561.085 1555.26 564.329V578.232H1551.4V549.655H1555.11V556.451C1555.88 552.281 1558.35 549.037 1562.21 549.037Z" fill="#00BFFF"/>
<path id="Vector_121" d="M553.153 619.167H557.477V611.907L561.337 610.362V619.167H567.513V622.256H561.337V640.175C561.337 643.265 562.572 644.5 565.043 644.5C565.969 644.5 566.587 644.346 567.513 644.191V647.744C566.432 648.053 565.506 648.208 564.116 648.208C559.33 648.208 557.477 645.427 557.477 640.793V622.256H553.153V619.167Z" fill="#00BFFF"/>
<path id="Vector_122" d="M573.689 606.346H577.55V624.728C578.631 620.712 581.564 618.395 585.424 618.395C590.365 618.395 592.99 621.639 592.99 628.126V647.744H589.13V628.435C589.13 624.11 587.432 621.793 583.88 621.793C579.711 621.793 577.55 625.191 577.55 631.834V647.744H573.689V606.346Z" fill="#00BFFF"/>
<path id="Vector_123" d="M599.013 640.484C599.013 637.549 600.094 635.541 601.792 634.151C603.336 632.915 605.652 631.988 609.204 631.37L614.608 630.444V628.435C614.608 623.801 613.064 621.793 609.358 621.793C605.189 621.793 603.645 624.11 603.645 628.435H599.63C599.785 621.175 604.263 618.704 609.358 618.704C615.689 618.704 618.468 621.639 618.468 628.59V639.094C618.468 642.801 618.622 645.582 619.086 647.899H615.226C615.071 646.2 614.762 644.192 614.762 642.492C613.681 646.2 610.748 648.671 606.579 648.671C601.946 648.362 599.013 645.273 599.013 640.484ZM614.762 637.086V633.07L609.204 634.151C605.189 634.923 603.182 636.622 603.182 640.021C603.182 643.419 604.88 645.273 608.123 645.273C612.137 645.273 614.762 642.029 614.762 637.086Z" fill="#00BFFF"/>
<path id="Vector_124" d="M622.482 619.167H626.806V611.907L630.666 610.362V619.167H636.842V622.256H630.666V640.175C630.666 643.265 631.901 644.5 634.372 644.5C635.298 644.5 635.916 644.346 636.842 644.191V647.744C635.761 648.053 634.835 648.208 633.445 648.208C628.659 648.208 626.806 645.427 626.806 640.793V622.256H622.482V619.167Z" fill="#00BFFF"/>
<path id="Vector_125" d="M651.511 619.167H655.834V611.907L659.694 610.362V619.167H665.871V622.256H659.694V640.175C659.694 643.265 660.93 644.5 663.4 644.5C664.327 644.5 664.944 644.346 665.871 644.191V647.744C664.79 648.053 663.863 648.208 662.474 648.208C657.687 648.208 655.834 645.427 655.834 640.793V622.256H651.511V619.167Z" fill="#00BFFF"/>
<path id="Vector_126" d="M671.893 606.346H675.753V624.728C676.834 620.712 679.767 618.395 683.628 618.395C688.569 618.395 691.194 621.639 691.194 628.126V647.744H687.333V628.435C687.333 624.11 685.635 621.793 682.084 621.793C677.914 621.793 675.753 625.191 675.753 631.834V647.744H671.893V606.346Z" fill="#00BFFF"/>
<path id="Vector_127" d="M718.061 634.151H701.385C701.539 641.874 703.701 644.964 708.179 644.964C711.421 644.964 713.892 643.11 714.355 638.785L717.906 639.712C717.134 645.273 713.428 648.362 708.179 648.362C701.848 648.362 697.524 644.346 697.524 633.378C697.524 622.256 702.002 618.395 708.024 618.395C714.355 618.395 718.061 622.565 718.061 631.061V634.151ZM714.046 631.216C714.046 624.264 711.884 621.484 708.024 621.484C704.318 621.484 701.539 623.492 701.385 631.216H714.046Z" fill="#00BFFF"/>
<path id="Vector_128" d="M735.817 633.378C735.817 623.338 739.369 618.395 746.472 618.395C752.185 618.395 755.736 621.947 755.89 628.744L751.876 629.208C751.721 624.11 749.714 621.638 746.317 621.638C742.302 621.638 739.832 624.728 739.832 633.378C739.832 641.874 742.302 644.964 746.472 644.964C749.714 644.964 751.876 642.492 752.03 637.24L756.045 637.858C755.736 644.655 751.876 648.362 746.472 648.362C739.832 648.362 735.817 643.728 735.817 633.378Z" fill="#00BFFF"/>
<path id="Vector_129" d="M773.802 618.549C774.111 618.549 774.265 618.549 774.728 618.549V622.566C774.42 622.566 774.265 622.566 774.111 622.566C771.64 622.566 770.096 623.492 769.015 625.037C767.162 627.2 766.854 630.598 766.854 633.842V647.745H762.685V619.167H766.39V625.964C767.317 621.793 769.787 618.549 773.802 618.549Z" fill="#00BFFF"/>
<path id="Vector_130" d="M797.89 634.151H781.214C781.368 641.874 783.53 644.964 788.008 644.964C791.25 644.964 793.721 643.11 794.184 638.785L797.735 639.712C796.963 645.273 793.257 648.362 788.008 648.362C781.677 648.362 777.354 644.346 777.354 633.378C777.354 622.256 781.831 618.395 787.853 618.395C794.184 618.395 797.89 622.565 797.89 631.061V634.151ZM793.875 631.216C793.875 624.264 791.713 621.484 787.853 621.484C784.147 621.484 781.368 623.492 781.214 631.216H793.875Z" fill="#00BFFF"/>
<path id="Vector_131" d="M802.984 633.379C802.984 623.647 806.69 618.395 812.866 618.395C816.572 618.395 819.352 620.557 820.432 624.574V606.191H824.293V647.59H820.587V641.72C819.197 645.891 816.418 648.362 812.558 648.362C806.381 648.362 802.984 643.265 802.984 633.379ZM820.432 635.696V631.061C820.432 625.346 818.116 621.639 814.102 621.639C809.469 621.639 807.308 625.037 807.308 633.224C807.308 641.566 809.469 644.964 814.102 644.964C817.962 645.118 820.432 641.566 820.432 635.696Z" fill="#00BFFF"/>
<path id="Vector_132" d="M832.94 607.891H837.264V614.224H832.94V607.891ZM833.095 619.167H836.955V647.745H833.095V619.167Z" fill="#00BFFF"/>
<path id="Vector_133" d="M842.205 619.167H846.528V611.907L850.389 610.362V619.167H856.565V622.256H850.389V640.175C850.389 643.265 851.624 644.5 854.094 644.5C855.021 644.5 855.639 644.346 856.565 644.191V647.744C855.484 648.053 854.558 648.208 853.168 648.208C848.381 648.208 846.528 645.427 846.528 640.793V622.256H842.205V619.167Z" fill="#00BFFF"/>
<path id="Vector_134" d="M873.396 633.378C873.396 623.338 876.947 618.395 884.05 618.395C889.763 618.395 893.314 621.947 893.469 628.744L889.454 629.208C889.3 624.11 887.292 621.638 883.895 621.638C879.881 621.638 877.41 624.728 877.41 633.378C877.41 641.874 879.881 644.964 884.05 644.964C887.292 644.964 889.454 642.492 889.608 637.24L893.623 637.858C893.314 644.655 889.454 648.362 884.05 648.362C877.41 648.362 873.396 643.728 873.396 633.378Z" fill="#00BFFF"/>
<path id="Vector_135" d="M898.101 640.484C898.101 637.549 899.181 635.541 900.88 634.151C902.424 632.915 904.74 631.988 908.291 631.37L913.696 630.444V628.435C913.696 623.801 912.152 621.793 908.446 621.793C904.277 621.793 902.733 624.11 902.733 628.435H898.718C898.873 621.175 903.35 618.704 908.446 618.704C914.777 618.704 917.556 621.639 917.556 628.59V639.094C917.556 642.801 917.71 645.582 918.174 647.899H914.313C914.159 646.2 913.85 644.192 913.85 642.492C912.769 646.2 909.836 648.671 905.667 648.671C901.034 648.362 898.101 645.273 898.101 640.484ZM913.696 637.086V633.07L908.137 634.151C904.123 634.923 902.115 636.622 902.115 640.021C902.115 643.419 903.814 645.273 907.056 645.273C911.071 645.273 913.696 642.029 913.696 637.086Z" fill="#00BFFF"/>
<path id="Vector_136" d="M936.856 618.549C937.165 618.549 937.32 618.549 937.783 618.549V622.566C937.474 622.566 937.32 622.566 937.165 622.566C934.695 622.566 933.151 623.492 932.07 625.037C930.217 627.2 929.908 630.598 929.908 633.842V647.745H926.048V619.167H929.754V625.964C930.371 621.793 932.842 618.549 936.856 618.549Z" fill="#00BFFF"/>
<path id="Vector_137" d="M940.408 633.379C940.408 623.647 944.114 618.395 950.29 618.395C953.996 618.395 956.775 620.557 957.856 624.574V606.191H961.716V647.59H958.011V641.72C956.621 645.891 953.842 648.362 949.981 648.362C943.96 648.362 940.408 643.265 940.408 633.379ZM957.856 635.696V631.061C957.856 625.346 955.54 621.639 951.526 621.639C946.893 621.639 944.732 625.037 944.732 633.224C944.732 641.566 946.893 644.964 951.526 644.964C955.54 645.118 957.856 641.566 957.856 635.696Z" fill="#00BFFF"/>
<path id="Vector_138" d="M979.781 619.167H983.796L988.119 640.639L988.582 643.728H988.737C988.891 642.647 989.046 641.72 989.2 640.639L993.832 619.167H998.001L1002.63 640.639C1002.79 641.566 1003.1 642.647 1003.25 643.728H1003.41C1003.41 642.647 1003.71 641.566 1003.87 640.639L1008.19 619.167H1012.21L1005.57 647.745H1001.4L996.612 625.964C996.457 625.037 996.303 623.801 996.148 622.874H995.994C995.84 623.801 995.685 625.037 995.531 625.964L990.744 647.745H986.575L979.781 619.167Z" fill="#00BFFF"/>
<path id="Vector_139" d="M1014.99 640.484C1014.99 637.549 1016.07 635.541 1017.77 634.151C1019.31 632.915 1021.63 631.988 1025.18 631.37L1030.58 630.444V628.435C1030.58 623.801 1029.04 621.793 1025.33 621.793C1021.16 621.793 1019.62 624.11 1019.62 628.435H1015.6C1015.76 621.175 1020.24 618.704 1025.33 618.704C1031.66 618.704 1034.44 621.639 1034.44 628.59V639.094C1034.44 642.801 1034.6 645.582 1035.06 647.899H1031.35C1031.2 646.2 1030.89 644.192 1030.89 642.492C1029.81 646.2 1026.88 648.671 1022.71 648.671C1017.92 648.362 1014.99 645.273 1014.99 640.484ZM1030.74 637.086V633.07L1025.18 634.151C1021.16 634.923 1019.16 636.622 1019.16 640.021C1019.16 643.419 1020.85 645.273 1024.1 645.273C1028.11 645.273 1030.74 642.029 1030.74 637.086Z" fill="#00BFFF"/>
<path id="Vector_140" d="M1040.62 638.476L1044.48 637.858C1044.63 642.647 1047.1 645.118 1050.65 645.118C1053.9 645.118 1055.9 643.419 1055.9 640.175C1055.9 637.395 1054.67 635.85 1051.43 635.078L1047.41 634.151C1043.24 633.224 1041.08 630.443 1041.08 626.273C1041.08 621.33 1044.79 618.395 1050.19 618.395C1055.75 618.395 1059.46 621.175 1059.61 627.663L1055.9 628.281C1055.6 623.183 1053.43 621.484 1050.19 621.484C1046.95 621.484 1045.1 623.183 1045.1 626.118C1045.1 628.744 1046.18 630.289 1049.27 630.907L1053.43 631.988C1058.07 633.069 1059.92 635.85 1059.92 640.021C1059.92 644.964 1056.52 648.362 1050.65 648.362C1044.79 648.362 1041.08 645.273 1040.62 638.476Z" fill="#00BFFF"/>
<path id="Vector_141" d="M1083.7 608.354C1081.23 609.744 1080.92 610.98 1080.92 613.606V613.915H1083.54V620.094H1078.45V614.069C1078.45 609.899 1079.37 607.89 1082.62 606.346L1083.7 608.354ZM1091.73 608.354C1089.26 609.744 1088.95 610.98 1088.95 613.606V613.915H1091.57V620.094H1086.48V614.069C1086.48 609.899 1087.4 607.89 1090.65 606.346L1091.73 608.354Z" fill="#00BFFF"/>
<path id="Vector_142" d="M1095.74 638.476L1099.6 637.858C1099.76 642.647 1102.23 645.118 1105.78 645.118C1109.02 645.118 1111.03 643.419 1111.03 640.175C1111.03 637.395 1109.79 635.85 1106.55 635.078L1102.54 634.151C1098.37 633.224 1096.21 630.443 1096.21 626.273C1096.21 621.33 1099.91 618.395 1105.32 618.395C1110.87 618.395 1114.58 621.175 1114.73 627.663L1111.03 628.281C1110.72 623.183 1108.56 621.484 1105.32 621.484C1102.07 621.484 1100.22 623.183 1100.22 626.118C1100.22 628.744 1101.3 630.289 1104.39 630.907L1108.56 631.988C1113.19 633.069 1115.04 635.85 1115.04 640.021C1115.04 644.964 1111.65 648.362 1105.78 648.362C1099.91 648.362 1096.05 645.273 1095.74 638.476Z" fill="#00BFFF"/>
<path id="Vector_143" d="M1140.37 634.151H1123.69C1123.84 641.874 1126.01 644.964 1130.48 644.964C1133.73 644.964 1136.2 643.11 1136.66 638.785L1140.21 639.712C1139.44 645.273 1135.73 648.362 1130.48 648.362C1124.15 648.362 1119.83 644.346 1119.83 633.378C1119.83 622.256 1124.31 618.395 1130.33 618.395C1136.66 618.395 1140.37 622.565 1140.37 631.061V634.151ZM1136.51 631.216C1136.51 624.264 1134.34 621.484 1130.48 621.484C1126.78 621.484 1124 623.492 1123.84 631.216H1136.51Z" fill="#00BFFF"/>
<path id="Vector_144" d="M1151.17 632.761L1143.45 619.167H1147.78L1152.1 627.663C1152.72 628.744 1153.18 629.671 1153.49 630.444H1153.64C1153.8 629.671 1154.26 628.744 1155.03 627.663L1159.05 619.321H1163.53L1155.96 633.224L1164.3 647.899H1159.98L1155.03 638.631C1154.42 637.549 1153.95 636.622 1153.64 635.85H1153.34C1153.18 636.622 1152.72 637.549 1151.95 638.631L1147.01 647.899H1142.68L1151.17 632.761Z" fill="#00BFFF"/>
<path id="Vector_145" d="M1169.09 607.891H1173.41V614.224H1169.09V607.891ZM1169.24 619.167H1173.1V647.745H1169.24V619.167Z" fill="#00BFFF"/>
<path id="Vector_146" d="M1179.89 638.476L1183.75 637.858C1183.91 642.647 1186.38 645.118 1189.93 645.118C1193.17 645.118 1195.18 643.419 1195.18 640.175C1195.18 637.395 1193.95 635.85 1190.7 635.078L1186.69 634.151C1182.52 633.224 1180.36 630.443 1180.36 626.273C1180.36 621.33 1184.06 618.395 1189.47 618.395C1195.03 618.395 1198.73 621.175 1198.89 627.663L1195.03 628.281C1194.72 623.183 1192.56 621.484 1189.31 621.484C1186.07 621.484 1184.22 623.183 1184.22 626.118C1184.22 628.744 1185.3 630.289 1188.39 630.907L1192.56 631.988C1197.19 633.069 1199.04 635.85 1199.04 640.021C1199.04 644.964 1195.64 648.362 1189.78 648.362C1184.06 648.362 1180.2 645.273 1179.89 638.476Z" fill="#00BFFF"/>
<path id="Vector_147" d="M1202.13 619.167H1206.45V611.907L1210.31 610.362V619.167H1216.49V622.256H1210.31V640.175C1210.31 643.265 1211.55 644.5 1214.02 644.5C1214.94 644.5 1215.56 644.346 1216.49 644.191V647.744C1215.41 648.053 1214.48 648.208 1213.09 648.208C1208.31 648.208 1206.45 645.427 1206.45 640.793V622.256H1202.13V619.167Z" fill="#00BFFF"/>
<path id="Vector_148" d="M1222.51 618.858C1224.98 617.468 1225.29 616.232 1225.29 613.606V613.297H1222.67V607.118H1227.76V613.143C1227.76 617.313 1226.83 619.322 1223.59 620.866L1222.51 618.858ZM1230.54 618.858C1233.01 617.468 1233.32 616.232 1233.32 613.606V613.297H1230.69V607.118H1235.79V613.143C1235.79 617.313 1234.86 619.322 1231.62 620.866L1230.54 618.858Z" fill="#00BFFF"/>
<path id="Vector_149" d="M1240.73 640.484C1240.73 637.549 1241.81 635.541 1243.51 634.151C1245.05 632.915 1247.37 631.988 1250.92 631.37L1256.33 630.444V628.435C1256.33 623.801 1254.78 621.793 1251.08 621.793C1246.91 621.793 1245.36 624.11 1245.36 628.435H1241.35C1241.5 621.175 1245.98 618.704 1251.08 618.704C1257.41 618.704 1260.19 621.639 1260.19 628.59V639.094C1260.19 642.801 1260.34 645.582 1260.8 647.899H1256.94C1256.79 646.2 1256.48 644.192 1256.48 642.492C1255.4 646.2 1252.47 648.671 1248.3 648.671C1243.66 648.362 1240.73 645.273 1240.73 640.484ZM1256.33 637.086V633.07L1250.77 634.151C1246.75 634.923 1244.75 636.622 1244.75 640.021C1244.75 643.419 1246.44 645.273 1249.69 645.273C1253.7 645.273 1256.33 642.029 1256.33 637.086Z" fill="#00BFFF"/>
<path id="Vector_150" d="M1282.42 620.403C1284.43 622.102 1285.51 624.728 1285.51 628.127C1285.51 634.151 1282.27 637.858 1276.24 637.858C1274.55 637.858 1273.16 637.549 1271.92 636.932C1270.84 637.395 1270.07 638.476 1270.07 639.712C1270.07 641.411 1271.3 642.493 1273.93 642.801L1280.26 643.419C1285.05 643.883 1288.13 646.663 1288.13 650.989C1288.13 656.395 1284.12 659.639 1276.55 659.639C1269.3 659.639 1265.59 656.55 1265.59 652.07C1265.59 649.135 1267.29 646.818 1270.38 645.891C1268.06 644.964 1266.83 643.265 1266.83 641.102C1266.83 638.631 1268.37 637.086 1270.69 636.314C1268.37 634.614 1267.13 631.834 1267.13 628.127C1267.13 622.257 1270.38 618.395 1276.4 618.395C1278.25 618.395 1279.8 618.704 1281.03 619.476C1281.8 616.541 1283.97 614.688 1287.05 614.688C1287.52 614.688 1287.83 614.687 1288.29 614.842V618.086C1287.67 617.931 1287.36 617.931 1286.74 617.931C1284.58 617.931 1283.19 618.858 1282.42 620.403ZM1272.85 646.354C1272.54 646.354 1272.23 646.354 1272.08 646.2C1270.07 647.127 1269.14 648.826 1269.14 650.989C1269.14 654.696 1271.92 656.55 1276.71 656.55C1281.96 656.55 1284.12 654.541 1284.12 651.143C1284.12 648.208 1282.58 646.818 1279.18 646.509L1272.85 646.354ZM1281.65 628.127C1281.65 623.492 1279.49 621.175 1276.24 621.175C1272.85 621.175 1270.69 623.647 1270.69 628.127C1270.69 632.761 1272.85 635.232 1276.24 635.232C1279.64 635.232 1281.65 632.761 1281.65 628.127Z" fill="#00BFFF"/>
<path id="Vector_151" d="M1289.52 640.484C1289.52 637.549 1290.6 635.541 1292.3 634.151C1293.85 632.915 1296.16 631.988 1299.71 631.37L1305.12 630.444V628.435C1305.12 623.801 1303.57 621.793 1299.87 621.793C1295.7 621.793 1294.16 624.11 1294.16 628.435H1290.14C1290.3 621.175 1294.77 618.704 1299.87 618.704C1306.2 618.704 1308.98 621.639 1308.98 628.59V639.094C1308.98 642.801 1309.13 645.582 1309.6 647.899H1305.74C1305.58 646.2 1305.27 644.192 1305.27 642.492C1304.19 646.2 1301.26 648.671 1297.09 648.671C1292.46 648.362 1289.52 645.273 1289.52 640.484ZM1305.12 637.086V633.07L1299.56 634.151C1295.55 634.923 1293.54 636.622 1293.54 640.021C1293.54 643.419 1295.24 645.273 1298.48 645.273C1302.49 645.273 1305.12 642.029 1305.12 637.086Z" fill="#00BFFF"/>
<path id="Vector_152" d="M1316.85 607.891H1321.18V614.224H1316.85V607.891ZM1317.16 619.167H1321.02V647.745H1317.16V619.167Z" fill="#00BFFF"/>
<path id="Vector_153" d="M1329.67 619.167H1333.38V624.882C1334.77 620.557 1337.39 618.395 1341.4 618.395C1346.5 618.395 1349.13 621.638 1349.13 628.126V647.744H1345.27V628.59C1345.27 624.11 1343.57 621.793 1340.02 621.793C1335.85 621.793 1333.68 625.191 1333.68 631.834V647.744H1329.82V619.167H1329.67Z" fill="#00BFFF"/>
<path id="Vector_154" d="M1355.15 638.476L1359.01 637.858C1359.16 642.647 1361.63 645.118 1365.18 645.118C1368.43 645.118 1370.43 643.419 1370.43 640.175C1370.43 637.395 1369.2 635.85 1365.96 635.078L1361.94 634.151C1357.77 633.224 1355.61 630.443 1355.61 626.273C1355.61 621.33 1359.32 618.395 1364.72 618.395C1370.28 618.395 1373.99 621.175 1374.14 627.663L1370.43 628.281C1370.12 623.183 1367.96 621.484 1364.72 621.484C1361.48 621.484 1359.63 623.183 1359.63 626.118C1359.63 628.744 1360.71 630.289 1363.79 630.907L1367.96 631.988C1372.6 633.069 1374.45 635.85 1374.45 640.021C1374.45 644.964 1371.05 648.362 1365.18 648.362C1359.32 648.362 1355.46 645.273 1355.15 638.476Z" fill="#00BFFF"/>
<path id="Vector_155" d="M1377.38 619.167H1381.71V611.907L1385.57 610.362V619.167H1391.74V622.256H1385.57V640.175C1385.57 643.265 1386.8 644.5 1389.27 644.5C1390.2 644.5 1390.82 644.346 1391.74 644.191V647.744C1390.66 648.053 1389.73 648.208 1388.34 648.208C1383.56 648.208 1381.71 645.427 1381.71 640.793V622.256H1377.38V619.167Z" fill="#00BFFF"/>
<path id="Vector_156" d="M1406.87 619.167H1410.89L1415.21 640.639L1415.68 643.728H1415.83C1415.98 642.647 1416.14 641.72 1416.29 640.639L1420.93 619.167H1425.09L1429.73 640.639C1429.88 641.566 1430.19 642.647 1430.34 643.728H1430.5C1430.5 642.647 1430.81 641.566 1430.96 640.639L1435.28 619.167H1439.3L1432.66 647.745H1428.49L1423.7 625.964C1423.55 625.037 1423.4 623.801 1423.24 622.874H1423.09C1422.93 623.801 1422.78 625.037 1422.62 625.964L1417.84 647.745H1413.67L1406.87 619.167Z" fill="#00BFFF"/>
<path id="Vector_157" d="M1442.85 633.378C1442.85 622.874 1447.02 618.395 1453.66 618.395C1460.3 618.395 1464.47 622.874 1464.47 633.378C1464.47 643.883 1460.3 648.362 1453.66 648.362C1446.87 648.362 1442.85 643.883 1442.85 633.378ZM1460.3 633.378C1460.3 624.419 1457.52 621.484 1453.5 621.484C1449.64 621.484 1446.87 624.419 1446.87 633.378C1446.87 642.338 1449.64 645.273 1453.5 645.273C1457.52 645.273 1460.3 642.338 1460.3 633.378Z" fill="#00BFFF"/>
<path id="Vector_158" d="M1474.97 619.167V624.419C1476.05 620.557 1478.52 618.395 1482.07 618.395C1485.62 618.395 1487.78 620.403 1488.71 624.11C1490.1 620.403 1492.57 618.395 1495.97 618.395C1500.6 618.395 1503.07 621.484 1503.07 627.199V647.59H1499.21V627.972C1499.21 623.801 1497.67 621.638 1494.58 621.638C1491.03 621.638 1489.17 624.419 1489.17 629.671V647.59H1485.31V627.817C1485.31 623.801 1483.77 621.638 1480.68 621.638C1477.13 621.638 1475.12 624.728 1475.12 629.98V647.59H1471.26V619.012H1474.97V619.167Z" fill="#00BFFF"/>
<path id="Vector_159" d="M1529.78 634.151H1513.11C1513.26 641.874 1515.42 644.964 1519.9 644.964C1523.14 644.964 1525.61 643.11 1526.08 638.785L1529.63 639.712C1528.86 645.273 1525.15 648.362 1519.9 648.362C1513.57 648.362 1509.25 644.346 1509.25 633.378C1509.25 622.256 1513.72 618.395 1519.75 618.395C1526.08 618.395 1529.78 622.565 1529.78 631.061V634.151ZM1525.77 631.216C1525.77 624.264 1523.61 621.484 1519.75 621.484C1516.04 621.484 1513.26 623.492 1513.11 631.216H1525.77Z" fill="#00BFFF"/>
<path id="Vector_160" d="M1536.58 619.167H1540.28V624.882C1541.67 620.557 1544.3 618.395 1548.31 618.395C1553.41 618.395 1556.03 621.638 1556.03 628.126V647.744H1552.17V628.59C1552.17 624.11 1550.47 621.793 1546.92 621.793C1542.75 621.793 1540.59 625.191 1540.59 631.834V647.744H1536.73V619.167H1536.58Z" fill="#00BFFF"/>
<path id="Vector_161" d="M554.543 709.997C554.543 707.062 555.624 705.054 557.322 703.664C558.866 702.428 561.182 701.501 564.734 700.883L570.138 699.956V697.948C570.138 693.314 568.594 691.306 564.888 691.306C560.719 691.306 559.175 693.623 559.175 697.948H555.161C555.315 690.688 559.793 688.216 564.888 688.216C571.219 688.216 573.998 691.151 573.998 698.103V708.607C573.998 712.314 574.153 715.095 574.616 717.412H570.756C570.601 715.713 570.293 713.704 570.293 712.005C569.212 715.713 566.278 718.184 562.109 718.184C557.477 717.875 554.543 714.786 554.543 709.997ZM570.293 706.599V702.582L564.734 703.664C560.719 704.436 558.712 706.135 558.712 709.534C558.712 712.932 560.41 714.786 563.653 714.786C567.668 714.786 570.293 711.542 570.293 706.599Z" fill="#00BFFF"/>
<path id="Vector_162" d="M582.336 688.68H586.042V694.55C587.123 690.379 590.211 687.908 594.225 687.908C600.247 687.908 603.644 692.696 603.644 702.892C603.644 712.623 599.939 717.875 593.762 717.875C589.902 717.875 587.277 715.404 586.042 711.697V728.38H582.182V688.68H582.336ZM599.475 702.892C599.475 694.859 597.314 691.306 593.145 691.306C588.976 691.306 586.351 695.013 586.351 700.574V705.363C586.351 711.079 588.976 714.632 592.99 714.632C597.159 714.632 599.475 711.079 599.475 702.892Z" fill="#00BFFF"/>
<path id="Vector_163" d="M610.593 688.68H614.299V694.55C615.38 690.379 618.468 687.908 622.482 687.908C628.504 687.908 631.901 692.696 631.901 702.892C631.901 712.623 628.195 717.875 622.019 717.875C618.159 717.875 615.534 715.404 614.299 711.697V728.38H610.438V688.68H610.593ZM627.732 702.892C627.732 694.859 625.57 691.306 621.401 691.306C617.232 691.306 614.607 695.013 614.607 700.574V705.363C614.607 711.079 617.232 714.632 621.247 714.632C625.57 714.632 627.732 711.079 627.732 702.892Z" fill="#00BFFF"/>
<path id="Vector_164" d="M643.018 717.257H639.158V675.858H643.018V717.257Z" fill="#00BFFF"/>
<path id="Vector_165" d="M649.504 728.534V724.981C650.122 725.135 650.739 725.135 651.048 725.135C654.136 725.135 655.68 723.282 656.761 719.729L657.379 717.257L647.96 688.68H652.283L658.305 709.225C658.769 710.615 658.923 711.851 659.232 713.086H659.386C659.541 711.851 659.849 710.615 660.313 709.379L665.871 688.68H669.886L660.621 720.038C658.614 726.525 655.835 728.843 651.511 728.843C651.048 728.688 650.276 728.688 649.504 728.534Z" fill="#00BFFF"/>
<path id="Vector_166" d="M674.672 677.403H678.995V683.737H674.672V677.403ZM674.826 688.68H678.686V717.257H674.826V688.68Z" fill="#00BFFF"/>
<path id="Vector_167" d="M687.488 688.68H691.194V694.396C692.584 690.07 695.209 687.908 699.223 687.908C704.319 687.908 706.944 691.152 706.944 697.639V717.258H703.083V698.103C703.083 693.623 701.385 691.306 697.834 691.306C693.665 691.306 691.503 694.704 691.503 701.347V717.258H687.643V688.68H687.488Z" fill="#00BFFF"/>
<path id="Vector_168" d="M729.178 689.916C731.185 691.615 732.266 694.241 732.266 697.639C732.266 703.664 729.024 707.371 723.002 707.371C721.303 707.371 719.914 707.062 718.678 706.444C717.598 706.908 716.825 707.989 716.825 709.225C716.825 710.924 718.061 712.005 720.686 712.314L727.016 712.932C731.803 713.396 734.891 716.176 734.891 720.501C734.891 725.908 730.877 729.152 723.311 729.152C716.053 729.152 712.348 726.062 712.348 721.583C712.348 718.648 714.046 716.331 717.134 715.404C714.818 714.477 713.583 712.778 713.583 710.615C713.583 708.143 715.127 706.599 717.443 705.826C715.127 704.127 713.892 701.347 713.892 697.639C713.892 691.769 717.134 687.908 723.156 687.908C725.009 687.908 726.553 688.216 727.788 688.989C728.56 686.054 730.722 684.2 733.81 684.2C734.274 684.2 734.582 684.2 735.046 684.355V687.599C734.428 687.444 734.119 687.444 733.502 687.444C731.34 687.444 729.95 688.371 729.178 689.916ZM719.605 715.867C719.296 715.867 718.987 715.867 718.833 715.713C716.825 716.639 715.899 718.339 715.899 720.501C715.899 724.209 718.678 726.062 723.465 726.062C728.715 726.062 730.877 724.054 730.877 720.656C730.877 717.721 729.333 716.33 725.936 716.022L719.605 715.867ZM728.406 697.639C728.406 693.005 726.244 690.688 723.002 690.688C719.605 690.688 717.443 693.16 717.443 697.639C717.443 702.273 719.605 704.745 723.002 704.745C726.244 704.745 728.406 702.273 728.406 697.639Z" fill="#00BFFF"/>
<path id="Vector_169" d="M762.84 691.769H756.663V717.257H752.803V691.769H748.325V688.68H752.803V683.119C752.803 678.33 755.428 675.395 759.906 675.395C760.987 675.395 761.913 675.55 762.685 675.704V679.102C761.913 678.948 761.141 678.948 760.523 678.948C757.744 678.948 756.509 680.338 756.509 683.582V688.68H762.685V691.769H762.84Z" fill="#00BFFF"/>
<path id="Vector_170" d="M765.464 702.892C765.464 692.387 769.633 687.908 776.272 687.908C782.912 687.908 787.081 692.387 787.081 702.892C787.081 713.396 782.912 717.875 776.272 717.875C769.633 717.875 765.464 713.396 765.464 702.892ZM783.066 702.892C783.066 693.932 780.287 690.997 776.272 690.997C772.412 690.997 769.633 693.932 769.633 702.892C769.633 711.851 772.412 714.786 776.272 714.786C780.287 714.786 783.066 711.851 783.066 702.892Z" fill="#00BFFF"/>
<path id="Vector_171" d="M804.992 688.062C805.301 688.062 805.455 688.062 805.919 688.062V692.078C805.61 692.078 805.455 692.078 805.301 692.078C802.83 692.078 801.286 693.005 800.206 694.55C798.353 696.712 798.044 700.111 798.044 703.355V717.257H794.184V688.68H797.889V695.477C798.507 691.306 800.978 688.062 804.992 688.062Z" fill="#00BFFF"/>
<path id="Vector_172" d="M819.661 702.892C819.661 692.851 823.213 687.908 830.315 687.908C836.028 687.908 839.58 691.461 839.734 698.257L835.72 698.721C835.565 693.623 833.558 691.152 830.161 691.152C826.146 691.152 823.676 694.241 823.676 702.892C823.676 711.388 826.146 714.477 830.315 714.477C833.558 714.477 835.72 712.005 835.874 706.753L839.889 707.371C839.58 714.168 835.72 717.875 830.315 717.875C823.676 717.875 819.661 713.241 819.661 702.892Z" fill="#00BFFF"/>
<path id="Vector_173" d="M857.645 688.062C857.954 688.062 858.109 688.062 858.572 688.062V692.078C858.263 692.078 858.109 692.078 857.954 692.078C855.484 692.078 853.94 693.005 852.859 694.55C851.006 696.712 850.697 700.111 850.697 703.355V717.257H846.837V688.68H850.543V695.477C851.16 691.306 853.631 688.062 857.645 688.062Z" fill="#00BFFF"/>
<path id="Vector_174" d="M881.733 703.664H865.056C865.211 711.388 867.373 714.477 871.85 714.477C875.093 714.477 877.563 712.623 878.027 708.298L881.578 709.225C880.806 714.786 877.1 717.875 871.85 717.875C865.52 717.875 861.196 713.859 861.196 702.892C861.196 691.769 865.674 687.908 871.696 687.908C878.027 687.908 881.733 692.078 881.733 700.574V703.664ZM877.872 700.729C877.872 693.778 875.711 690.997 871.85 690.997C868.145 690.997 865.365 693.005 865.211 700.729H877.872Z" fill="#00BFFF"/>
<path id="Vector_175" d="M886.828 702.891C886.828 693.159 890.534 687.907 896.71 687.907C900.416 687.907 903.195 690.07 904.276 694.086V675.704H908.136V717.103H904.431V711.233C903.041 715.404 900.262 717.875 896.401 717.875C890.38 717.875 886.828 712.778 886.828 702.891ZM904.276 705.208V700.574C904.276 694.859 901.96 691.151 897.945 691.151C893.313 691.151 891.152 694.55 891.152 702.737C891.152 711.078 893.313 714.477 897.945 714.477C901.96 714.631 904.276 711.078 904.276 705.208Z" fill="#00BFFF"/>
<path id="Vector_176" d="M916.783 677.403H921.107V683.737H916.783V677.403ZM916.938 688.68H920.798V717.257H916.938V688.68Z" fill="#00BFFF"/>
<path id="Vector_177" d="M926.048 688.68H930.371V681.42L934.231 679.875V688.68H940.408V691.769H934.231V709.688C934.231 712.778 935.467 714.013 937.937 714.013C938.864 714.013 939.481 713.859 940.408 713.705V717.257C939.327 717.566 938.4 717.721 937.011 717.721C932.224 717.721 930.371 714.94 930.371 710.306V691.769H926.048V688.68Z" fill="#00BFFF"/>
<path id="Vector_178" d="M950.754 717.258H945.658V711.079H950.754V717.258Z" fill="#00BFFF"/>
</g>
<g id="Group_8">
<path id="Vector_179" d="M559.639 808.087C558.713 809.786 556.397 810.867 554.389 810.867H553.463V808.859H554.235C557.014 808.859 559.485 807.006 560.102 803.762H561.955V834.965H559.794V808.087H559.639Z" fill="#00BFFF"/>
<path id="Vector_180" d="M568.595 832.957C572.764 828.632 576.161 825.079 578.94 821.526C581.565 818.127 582.8 814.883 582.8 811.64C582.8 807.469 580.793 805.152 577.242 805.152C573.536 805.152 571.374 807.314 571.374 811.331C571.374 812.257 571.374 813.184 571.683 814.111L569.367 813.802C569.212 813.03 569.212 812.103 569.212 811.176C569.212 806.233 572.301 803.144 577.396 803.144C582.337 803.144 585.271 806.079 585.271 811.485C585.271 815.038 583.881 818.591 581.102 822.298C578.786 825.542 575.08 829.249 571.528 832.957H585.888V834.965H568.595V832.957Z" fill="#00BFFF"/>
<path id="Vector_181" d="M601.638 803.144H604.263L617.233 827.859C617.851 829.249 618.314 830.331 618.777 831.875H618.931C618.777 830.331 618.777 828.94 618.777 826.778V803.144H620.939V834.965H618.468L605.189 809.786C604.417 808.396 604.108 807.16 603.645 805.77C603.799 807.314 603.799 808.55 603.799 810.713V834.965H601.638V803.144Z" fill="#00BFFF"/>
<path id="Vector_182" d="M626.96 823.689C626.96 815.347 630.048 811.949 634.989 811.949C639.93 811.949 643.018 815.347 643.018 823.689C643.018 832.03 639.93 835.429 634.989 835.429C630.048 835.429 626.96 832.03 626.96 823.689ZM640.857 823.689C640.857 816.274 638.386 813.802 634.989 813.802C631.592 813.802 629.122 816.274 629.122 823.689C629.122 831.103 631.438 833.575 634.989 833.575C638.386 833.729 640.857 831.258 640.857 823.689Z" fill="#00BFFF"/>
<path id="Vector_183" d="M645.335 812.566H647.651L652.592 829.404C652.901 830.64 653.21 831.721 653.364 832.648H653.519C653.673 831.721 653.982 830.64 654.291 829.404L659.232 812.566H661.548L654.599 834.965H652.283L645.335 812.566Z" fill="#00BFFF"/>
<path id="Vector_184" d="M678.996 823.843H665.872C666.026 831.103 668.188 833.575 671.739 833.575C674.518 833.575 676.68 831.721 676.989 827.859L678.996 828.323C678.533 832.957 675.754 835.429 671.739 835.429C666.798 835.429 663.71 832.185 663.71 823.689C663.71 814.884 666.953 811.949 671.43 811.949C676.063 811.949 678.842 814.884 678.842 822.144V823.843H678.996ZM676.835 822.298C676.835 816.12 674.982 813.802 671.43 813.802C668.188 813.802 665.872 815.811 665.717 822.298H676.835Z" fill="#00BFFF"/>
<path id="Vector_185" d="M686.871 812.566V817.201C687.643 813.957 689.65 812.103 692.584 812.103C695.518 812.103 697.216 813.648 697.834 816.892C698.76 813.802 700.767 812.103 703.547 812.103C707.253 812.103 709.105 814.575 709.105 819.054V834.965H706.944V819.363C706.944 815.81 705.554 813.802 702.775 813.802C699.841 813.802 697.988 816.274 697.988 820.445V834.811H695.826V819.054C695.826 815.501 694.437 813.648 691.812 813.648C688.724 813.648 686.871 816.428 686.871 821.062V834.811H684.709V812.412H686.871V812.566Z" fill="#00BFFF"/>
<path id="Vector_186" d="M718.061 830.022L717.752 834.965H715.899V802.526H718.061V817.664C718.988 814.111 721.304 812.103 724.546 812.103C729.024 812.103 731.803 815.347 731.803 823.689C731.803 831.721 728.87 835.583 724.237 835.583C721.304 835.429 718.833 833.42 718.061 830.022ZM729.642 823.689C729.642 816.583 727.789 813.957 724.083 813.957C720.532 813.957 718.061 817.201 718.061 821.989V825.542C718.061 830.486 720.377 833.575 723.774 833.575C727.634 833.575 729.642 830.794 729.642 823.689Z" fill="#00BFFF"/>
<path id="Vector_187" d="M751.413 823.843H738.289C738.443 831.103 740.605 833.575 744.156 833.575C746.935 833.575 749.097 831.721 749.406 827.859L751.413 828.323C750.95 832.957 748.171 835.429 744.156 835.429C739.215 835.429 736.127 832.185 736.127 823.689C736.127 814.884 739.37 811.949 743.847 811.949C748.48 811.949 751.259 814.884 751.259 822.144V823.843H751.413ZM749.252 822.298C749.252 816.12 747.399 813.802 743.847 813.802C740.605 813.802 738.289 815.811 738.134 822.298H749.252Z" fill="#00BFFF"/>
<path id="Vector_188" d="M765.309 812.103C765.464 812.103 765.618 812.103 765.927 812.103V814.266H765.309C763.611 814.266 762.376 814.884 761.449 816.119C759.905 817.819 759.442 820.445 759.442 823.071V834.965H757.28V812.566H759.288V818.282C760.06 814.729 762.067 812.103 765.309 812.103Z" fill="#00BFFF"/>
<path id="Vector_189" d="M767.935 839.136C769.479 838.055 769.787 836.973 769.787 835.12V834.811H768.552V830.331H771.332V834.811C771.332 837.591 770.714 839.136 768.707 840.217L767.935 839.136Z" fill="#00BFFF"/>
<path id="Vector_190" d="M785.691 832.957C789.86 828.632 793.257 825.079 796.037 821.526C798.662 818.127 799.897 814.883 799.897 811.64C799.897 807.469 797.89 805.152 794.338 805.152C790.632 805.152 788.471 807.314 788.471 811.331C788.471 812.257 788.471 813.184 788.78 814.111L786.463 813.802C786.309 813.03 786.309 812.103 786.309 811.176C786.309 806.233 789.397 803.144 794.493 803.144C799.434 803.144 802.367 806.079 802.367 811.485C802.367 815.038 800.978 818.591 798.198 822.298C795.882 825.542 792.177 829.249 788.625 832.957H802.985V834.965H785.846V832.957H785.691Z" fill="#00BFFF"/>
<path id="Vector_191" d="M806.691 819.363C806.691 807.16 810.088 803.144 815.956 803.144C821.978 803.144 825.375 807.16 825.375 819.363C825.375 831.567 821.978 835.583 815.956 835.583C810.088 835.583 806.691 831.567 806.691 819.363ZM822.904 819.363C822.904 808.396 820.434 804.997 815.801 804.997C811.324 804.997 808.699 808.241 808.699 819.363C808.699 830.331 811.324 833.729 815.801 833.729C820.434 833.729 822.904 830.331 822.904 819.363Z" fill="#00BFFF"/>
<path id="Vector_192" d="M829.234 832.957C833.403 828.632 836.8 825.079 839.58 821.526C842.205 818.127 843.44 814.883 843.44 811.64C843.44 807.469 841.433 805.152 837.881 805.152C834.175 805.152 832.014 807.314 832.014 811.331C832.014 812.257 832.014 813.184 832.323 814.111L830.006 813.802C829.852 813.03 829.852 812.103 829.852 811.176C829.852 806.233 832.94 803.144 838.036 803.144C842.977 803.144 845.91 806.079 845.91 811.485C845.91 815.038 844.521 818.591 841.741 822.298C839.425 825.542 835.719 829.249 832.168 832.957H846.528V834.965H829.389V832.957H829.234Z" fill="#00BFFF"/>
<path id="Vector_193" d="M850.079 819.363C850.079 807.16 853.476 803.144 859.344 803.144C865.366 803.144 868.762 807.16 868.762 819.363C868.762 831.567 865.366 835.583 859.344 835.583C853.476 835.583 850.079 831.567 850.079 819.363ZM866.446 819.363C866.446 808.396 863.976 804.997 859.344 804.997C854.866 804.997 852.241 808.241 852.241 819.363C852.241 830.331 854.866 833.729 859.344 833.729C863.976 833.729 866.446 830.331 866.446 819.363Z" fill="#00BFFF"/>
<path id="Vector_194" d="M573.69 880.225C573.69 885.168 571.374 889.03 564.889 889.03H556.396V857.209H564.426C571.065 857.209 573.073 861.225 573.073 865.242C573.073 868.794 571.528 871.729 567.823 872.347C571.683 872.965 573.69 875.9 573.69 880.225ZM558.713 859.063V871.729H564.58C569.521 871.729 570.756 868.64 570.756 865.396C570.756 861.998 569.367 859.063 564.271 859.063H558.713ZM571.22 880.225C571.22 876.055 569.521 873.429 564.58 873.429H558.558V887.022H564.426C569.676 887.177 571.22 884.242 571.22 880.225Z" fill="#00BFFF"/>
<path id="Vector_195" d="M577.242 897.835V895.827C577.705 895.982 578.168 895.982 578.477 895.982C581.102 895.982 582.337 894.128 583.109 891.348L583.727 889.185L576.47 866.632H578.786L583.881 883.47C584.19 884.705 584.499 885.632 584.808 886.713C585.117 885.632 585.271 884.705 585.734 883.47L590.366 866.478H592.683L585.425 891.193C584.036 895.982 582.028 897.835 578.786 897.835C578.168 897.99 577.705 897.99 577.242 897.835Z" fill="#00BFFF"/>
<path id="Vector_196" d="M606.424 857.209H609.049L622.019 881.925C622.637 883.315 623.1 884.396 623.563 885.941H623.717C623.563 884.396 623.563 883.006 623.563 880.843V857.209H625.725V889.03H623.254L610.13 864.006C609.358 862.615 609.049 861.38 608.586 859.989H608.431C608.586 861.534 608.586 862.77 608.586 864.933V889.185H606.424V857.209Z" fill="#00BFFF"/>
<path id="Vector_197" d="M647.033 877.908H633.909C634.063 885.169 636.225 887.64 639.776 887.64C642.556 887.64 644.717 885.787 645.026 881.925L647.033 882.388C646.57 887.022 643.791 889.494 639.776 889.494C634.835 889.494 631.747 886.25 631.747 877.754C631.747 868.949 634.99 866.014 639.467 866.014C644.1 866.014 646.879 868.949 646.879 876.209V877.908H647.033ZM644.872 876.364C644.872 870.185 643.019 867.868 639.467 867.868C636.225 867.868 633.909 869.876 633.754 876.364H644.872Z" fill="#00BFFF"/>
<path id="Vector_198" d="M652.746 857.827H655.062V862.77H652.746V857.827ZM652.9 866.632H655.062V889.031H652.9V866.632Z" fill="#00BFFF"/>
<path id="Vector_199" d="M664.482 889.031H662.32V856.591H664.482V889.031Z" fill="#00BFFF"/>
<path id="Vector_200" d="M677.298 857.209H679.768L686.562 881.77C687.18 883.778 687.489 885.014 687.643 886.404H687.798C687.952 885.168 688.261 883.778 688.878 881.77L695.672 857.209H698.143L689.033 889.03H686.408L677.298 857.209Z" fill="#00BFFF"/>
<path id="Vector_201" d="M702.003 857.827H704.319V862.77H702.003V857.827ZM702.157 866.632H704.319V889.031H702.157V866.632Z" fill="#00BFFF"/>
<path id="Vector_202" d="M721.921 867.559C723.465 868.795 724.237 870.957 724.237 873.583C724.237 878.218 721.767 881.153 717.443 881.153C716.208 881.153 715.127 880.844 714.201 880.38C713.12 880.689 712.348 881.616 712.348 882.852C712.348 884.242 713.429 885.323 715.59 885.478L720.531 885.787C724.237 886.096 726.245 888.258 726.245 891.502C726.245 895.519 723.311 897.99 717.752 897.99C712.348 897.99 709.414 895.519 709.414 892.12C709.414 889.649 710.804 887.795 713.12 887.023C711.267 886.405 710.341 885.014 710.341 883.47C710.341 881.616 711.421 880.535 713.12 879.917C711.421 878.681 710.495 876.518 710.495 873.583C710.495 868.949 713.12 866.014 717.289 866.014C718.679 866.014 719.914 866.323 720.84 866.941C721.303 864.778 723.002 863.388 725.318 863.388C725.627 863.388 725.781 863.388 726.09 863.543V865.396C725.781 865.396 725.627 865.242 725.164 865.242C723.62 865.242 722.384 866.014 721.921 867.559ZM714.973 887.64C714.818 887.64 714.51 887.64 714.355 887.486C712.502 888.258 711.421 889.803 711.421 891.966C711.421 894.901 713.737 896.6 717.752 896.6C722.076 896.6 723.928 894.901 723.928 891.966C723.928 889.494 722.693 888.258 719.759 887.949L714.973 887.64ZM722.076 873.583C722.076 869.722 720.223 867.559 717.443 867.559C714.51 867.559 712.657 869.722 712.657 873.583C712.657 877.445 714.51 879.608 717.443 879.608C720.377 879.608 722.076 877.6 722.076 873.583Z" fill="#00BFFF"/>
<path id="Vector_203" d="M728.406 877.754C728.406 869.722 731.186 866.014 736.127 866.014C739.215 866.014 741.376 867.868 742.149 871.421V856.437H744.31V888.876H742.303V883.933C741.377 887.332 739.06 889.494 735.818 889.494C731.031 889.494 728.406 885.632 728.406 877.754ZM742.303 879.608V876.055C742.303 871.421 740.296 867.868 736.744 867.868C732.73 867.868 730.722 870.803 730.722 877.754C730.722 884.86 732.575 887.641 736.435 887.641C740.141 887.641 742.303 884.397 742.303 879.608Z" fill="#00BFFF"/>
<path id="Vector_204" d="M750.178 877.754C750.178 869.413 753.266 866.014 758.207 866.014C763.148 866.014 766.236 869.413 766.236 877.754C766.236 886.096 763.148 889.494 758.207 889.494C753.266 889.494 750.178 886.096 750.178 877.754ZM764.074 877.754C764.074 870.339 761.604 867.868 758.207 867.868C754.81 867.868 752.339 870.339 752.339 877.754C752.339 885.169 754.656 887.64 758.207 887.64C761.604 887.795 764.074 885.323 764.074 877.754Z" fill="#00BFFF"/>
<path id="Vector_205" d="M779.978 866.169C780.133 866.169 780.287 866.169 780.596 866.169V868.332H779.978C778.28 868.332 777.045 868.949 776.118 870.185C774.574 871.884 774.111 874.51 774.111 877.136V889.031H771.949V866.632H773.957V872.348C774.729 868.795 776.89 866.169 779.978 866.169Z" fill="#00BFFF"/>
<path id="Vector_206" d="M572.146 967.348H563.499V997.162H561.183V967.348H552.69V965.34H572.146V967.348Z" fill="#00BFFF"/>
<path id="Vector_207" d="M576.314 964.722H578.476V979.706C579.403 976.153 581.719 974.3 584.961 974.3C588.976 974.3 590.983 976.771 590.983 981.869V997.161H588.821V981.869C588.821 978.007 587.277 975.999 584.189 975.999C580.638 975.999 578.476 979.088 578.476 984.34V997.161H576.314V964.722Z" fill="#00BFFF"/>
<path id="Vector_208" d="M611.365 986.039H598.241C598.395 993.3 600.557 995.771 604.108 995.771C606.888 995.771 609.049 993.918 609.358 990.056L611.365 990.519C610.902 995.153 608.123 997.625 604.108 997.625C599.167 997.625 596.079 994.381 596.079 985.885C596.079 977.08 599.322 974.145 603.799 974.145C608.432 974.145 611.211 977.08 611.211 984.34V986.039H611.365ZM609.204 984.495C609.204 978.316 607.351 975.999 603.799 975.999C600.557 975.999 598.241 978.007 598.086 984.495H609.204Z" fill="#00BFFF"/>
<path id="Vector_209" d="M627.732 965.34H630.357L643.328 990.056C643.945 991.446 644.408 992.528 644.872 994.072H645.026C644.872 992.528 644.872 991.137 644.872 988.975V965.34H647.033V997.162H644.563L631.438 971.983C630.666 970.592 630.357 969.357 629.894 967.966H629.74C629.894 969.511 629.894 970.747 629.894 972.909V997.162H627.732V965.34Z" fill="#00BFFF"/>
<path id="Vector_210" d="M668.342 986.039H655.217C655.372 993.3 657.533 995.771 661.085 995.771C663.864 995.771 666.026 993.918 666.335 990.056L668.342 990.519C667.879 995.153 665.099 997.625 661.085 997.625C656.144 997.625 653.056 994.381 653.056 985.885C653.056 977.08 656.298 974.145 660.776 974.145C665.408 974.145 668.188 977.08 668.188 984.34V986.039H668.342ZM666.18 984.495C666.18 978.316 664.327 975.999 660.776 975.999C657.533 975.999 655.217 978.007 655.063 984.495H666.18Z" fill="#00BFFF"/>
<path id="Vector_211" d="M671.431 974.763H673.592L677.453 992.219C677.607 992.991 677.761 993.763 677.916 994.69H678.07C678.225 993.763 678.379 992.991 678.533 992.219L682.548 974.763H684.864L688.879 992.219C689.033 992.991 689.188 993.763 689.342 994.69H689.496C689.651 993.763 689.805 992.836 689.96 992.219L693.82 974.763H695.981L690.732 997.162H688.416L684.246 979.397C684.092 978.625 683.938 977.853 683.783 977.08H683.629L683.166 979.397L678.997 997.162H676.681L671.431 974.763Z" fill="#00BFFF"/>
<path id="Vector_212" d="M713.275 983.723L704.319 965.34H706.944L713.429 978.934C713.893 979.861 714.201 980.479 714.51 981.56H714.665C714.973 980.479 715.282 979.861 715.746 978.934L722.231 965.34H724.701L715.746 983.723V997.162H713.275V983.723Z" fill="#00BFFF"/>
<path id="Vector_213" d="M724.237 985.885C724.237 977.543 727.325 974.145 732.266 974.145C737.208 974.145 740.296 977.543 740.296 985.885C740.296 994.227 737.208 997.625 732.266 997.625C727.325 997.625 724.237 994.227 724.237 985.885ZM738.134 985.885C738.134 978.47 735.663 975.999 732.266 975.999C728.87 975.999 726.399 978.47 726.399 985.885C726.399 993.3 728.715 995.771 732.266 995.771C735.663 995.926 738.134 993.454 738.134 985.885Z" fill="#00BFFF"/>
<path id="Vector_214" d="M754.038 974.3C754.192 974.3 754.347 974.3 754.656 974.3V976.462H754.038C752.34 976.462 751.104 977.08 750.178 978.316C748.634 980.015 748.171 982.641 748.171 985.267V997.162H746.009V974.763H748.016V980.479C748.788 976.926 750.95 974.3 754.038 974.3Z" fill="#00BFFF"/>
<path id="Vector_215" d="M765.31 984.804L761.296 989.592V997.007H759.134V964.568H761.296V986.812L771.023 974.609H773.648L766.854 982.95L774.111 997.007H771.641L765.31 984.804Z" fill="#00BFFF"/>
<path id="Vector_216" d="M801.596 967.348H792.949V997.162H790.633V967.348H781.986V965.34H801.442V967.348H801.596Z" fill="#00BFFF"/>
<path id="Vector_217" d="M805.456 965.958H807.772V970.901H805.456V965.958ZM805.61 974.763H807.772V997.162H805.61V974.763Z" fill="#00BFFF"/>
<path id="Vector_218" d="M817.037 974.763V979.397C817.809 976.153 819.816 974.3 822.75 974.3C825.683 974.3 827.382 975.844 828 979.088C828.926 975.999 830.933 974.3 833.713 974.3C837.418 974.3 839.271 976.771 839.271 981.251V997.162H837.11V981.56C837.11 978.007 835.72 975.999 832.941 975.999C830.007 975.999 828.154 978.471 828.154 982.641V997.007H825.992V981.251C825.992 977.698 824.603 975.845 821.978 975.845C818.89 975.845 817.037 978.625 817.037 983.259V997.007H814.875V974.609H817.037V974.763Z" fill="#00BFFF"/>
<path id="Vector_219" d="M859.808 986.039H846.683C846.838 993.3 848.999 995.771 852.551 995.771C855.33 995.771 857.492 993.918 857.801 990.056L859.808 990.519C859.345 995.153 856.565 997.625 852.551 997.625C847.61 997.625 844.521 994.381 844.521 985.885C844.521 977.08 847.764 974.145 852.242 974.145C856.874 974.145 859.653 977.08 859.653 984.34V986.039H859.808ZM857.646 984.495C857.646 978.316 855.793 975.999 852.242 975.999C848.999 975.999 846.683 978.007 846.529 984.495H857.646Z" fill="#00BFFF"/>
<path id="Vector_220" d="M863.977 989.747L866.138 989.438C866.293 993.918 868.454 995.926 871.543 995.926C874.476 995.926 876.175 994.381 876.175 991.6C876.175 989.283 875.094 987.893 872.315 986.966L869.381 986.039C866.138 985.113 864.594 983.104 864.594 980.015C864.594 976.308 867.219 974.145 871.234 974.145C875.403 974.145 878.028 976.153 878.182 981.56L876.02 981.869C875.866 977.234 874.168 975.844 871.234 975.844C868.454 975.844 866.91 977.389 866.91 979.86C866.91 982.178 867.837 983.413 870.462 984.186L873.55 985.113C877.101 986.194 878.491 988.202 878.491 991.292C878.491 995.153 876.02 997.625 871.697 997.625C867.065 997.625 864.131 995.462 863.977 989.747Z" fill="#00BFFF"/>
</g>
</g>
</g>
</svg>
