<svg width="1136" height="1195" viewBox="0 0 1136 1195" fill="none" xmlns="http://www.w3.org/2000/svg">
<g filter="url(#filter0_d)">
<path d="M1044.63 1148.91H71.9799C46.8633 1148.91 26.4316 1128.48 26.4316 1103.37V71.6115C26.4316 46.5006 46.8633 26.0735 71.9799 26.0735H1044.76C1069.88 26.0735 1090.31 46.5006 1090.31 71.6115V1103.37C1090.18 1128.61 1069.88 1148.91 1044.63 1148.91Z" fill="#D7F7FF" stroke="#00BFFF" stroke-width="3" stroke-miterlimit="10" stroke-linecap="round" stroke-linejoin="round"/>
<path d="M26.041 67.5781H1090.31" stroke="#00BFFF" stroke-width="3" stroke-miterlimit="10"/>
<path d="M60.7875 55.7384C56.2327 55.7384 52.5889 52.4857 52.5889 48.3222C52.5889 44.2888 56.2327 40.906 60.7875 40.906C65.3424 40.906 68.9862 44.1587 68.9862 48.3222C68.9862 52.4857 65.3424 55.7384 60.7875 55.7384Z" fill="white"/>
<path d="M60.7875 42.9877C64.171 42.9877 67.0341 45.4598 67.0341 48.4523C67.0341 51.4448 64.171 53.9169 60.7875 53.9169C57.4039 53.9169 54.5409 51.4448 54.5409 48.4523C54.5409 45.4598 57.2737 42.9877 60.7875 42.9877ZM60.7875 39.0845C55.1915 39.0845 50.6367 43.248 50.6367 48.4523C50.6367 53.6567 55.1915 57.8201 60.7875 57.8201C66.3834 57.8201 70.9382 53.6567 70.9382 48.4523C70.9382 43.248 66.3834 39.0845 60.7875 39.0845Z" fill="#00BFFF"/>
<path d="M87.8569 55.7384C83.3021 55.7384 79.6582 52.4857 79.6582 48.3222C79.6582 44.2888 83.3021 40.906 87.8569 40.906C92.4117 40.906 96.0556 44.1587 96.0556 48.3222C96.0556 52.4857 92.2816 55.7384 87.8569 55.7384Z" fill="white"/>
<path d="M87.8568 42.9877C91.2404 42.9877 94.1034 45.4598 94.1034 48.4523C94.1034 51.4448 91.2404 53.9169 87.8568 53.9169C84.4732 53.9169 81.6102 51.4448 81.6102 48.4523C81.6102 45.4598 84.3431 42.9877 87.8568 42.9877ZM87.8568 39.0845C82.2609 39.0845 77.7061 43.248 77.7061 48.4523C77.7061 53.6567 82.2609 57.8201 87.8568 57.8201C93.4527 57.8201 98.0076 53.6567 98.0076 48.4523C98.0076 43.248 93.4527 39.0845 87.8568 39.0845Z" fill="#00BFFF"/>
<path d="M114.925 55.7384C110.37 55.7384 106.727 52.4857 106.727 48.3222C106.727 44.2888 110.37 40.906 114.925 40.906C119.48 40.906 123.124 44.1587 123.124 48.3222C122.994 52.4857 119.35 55.7384 114.925 55.7384Z" fill="white"/>
<path d="M114.925 42.9877C118.309 42.9877 121.172 45.4598 121.172 48.4523C121.172 51.4448 118.309 53.9169 114.925 53.9169C111.542 53.9169 108.679 51.4448 108.679 48.4523C108.679 45.4598 111.411 42.9877 114.925 42.9877ZM114.925 39.0845C109.329 39.0845 104.774 43.248 104.774 48.4523C104.774 53.6567 109.329 57.8201 114.925 57.8201C120.521 57.8201 125.076 53.6567 125.076 48.4523C125.076 43.248 120.521 39.0845 114.925 39.0845Z" fill="#00BFFF"/>
<path d="M89.4182 182.464C89.4182 173.617 91.7607 166.851 96.4457 162.167C101.131 157.483 107.898 155.141 116.617 155.141H163.987C172.706 155.141 179.474 157.483 184.159 162.167C188.843 166.851 191.316 173.617 191.316 182.464V254.024C191.316 257.016 192.097 259.489 193.789 261.18C195.48 262.871 197.823 263.782 200.816 263.782H205.761C208.755 263.782 211.227 262.871 212.919 261.18C214.611 259.489 215.522 257.147 215.522 254.024V182.464C215.522 173.617 217.864 166.851 222.549 162.167C227.234 157.483 234.001 155.141 242.851 155.141H290.221C299.07 155.141 305.837 157.483 310.522 162.167C315.207 166.851 317.55 173.617 317.55 182.464V254.024C317.55 257.016 318.461 259.489 320.152 261.18C321.844 262.871 324.187 263.782 327.31 263.782H331.735C334.728 263.782 337.201 262.871 338.892 261.18C340.584 259.489 341.495 257.147 341.495 254.024V182.464C341.495 173.617 343.838 166.851 348.522 162.167C353.207 157.483 359.975 155.141 368.694 155.141H416.194C425.043 155.141 431.811 157.483 436.496 162.167C441.181 166.851 443.523 173.617 443.523 182.464V260.79C443.523 269.637 441.181 276.403 436.496 281.087C431.811 285.771 425.043 288.112 416.194 288.112H302.324C293.604 288.112 286.837 286.031 282.282 281.867C277.597 277.704 275.385 271.719 275.385 263.782H258.077C258.077 271.589 255.734 277.704 251.179 281.867C246.495 286.031 239.857 288.112 231.138 288.112H116.487C107.768 288.112 101 285.771 96.3155 281.087C91.6306 276.403 89.2881 269.637 89.2881 260.79V182.464H89.4182Z" fill="#00BFFF"/>
<path d="M450.94 176.479C450.94 169.453 452.762 164.249 456.406 160.476C460.05 156.833 465.386 155.011 472.413 155.011H498.961C505.989 155.011 511.194 156.833 514.968 160.476C518.612 164.119 520.434 169.453 520.434 176.479V211.999H538.133V176.479C538.133 169.453 539.955 164.249 543.598 160.476C547.242 156.833 552.578 155.011 559.605 155.011H586.154C593.181 155.011 598.386 156.833 602.16 160.476C605.804 164.119 607.626 169.453 607.626 176.479V266.514C607.626 273.54 605.804 278.745 602.16 282.518C598.517 286.161 593.181 287.982 586.154 287.982H559.605C552.578 287.982 547.372 286.161 543.598 282.518C539.955 278.875 538.133 273.54 538.133 266.514V230.214H520.434V266.514C520.434 273.54 518.612 278.745 514.968 282.518C511.324 286.161 505.989 287.982 498.961 287.982H472.413C465.386 287.982 460.18 286.161 456.406 282.518C452.762 278.875 450.94 273.54 450.94 266.514V176.479Z" fill="#00BFFF"/>
<path d="M614.134 176.479C614.134 169.453 615.956 164.249 619.6 160.476C623.243 156.833 628.579 155.011 635.607 155.011H749.477C756.505 155.011 761.71 156.833 765.484 160.476C769.128 164.119 770.95 169.453 770.95 176.479V266.514C770.95 273.54 769.128 278.745 765.484 282.518C761.84 286.161 756.505 287.982 749.477 287.982H722.929C715.902 287.982 710.696 286.161 706.922 282.518C703.278 278.875 701.456 273.54 701.456 266.514V230.214H683.758V266.514C683.758 273.54 681.936 278.745 678.292 282.518C674.648 286.161 669.312 287.982 662.285 287.982H635.737C628.709 287.982 623.504 286.161 619.73 282.518C616.086 278.875 614.264 273.54 614.264 266.514V176.479H614.134ZM683.627 211.999H701.326V180.643C701.326 178.301 700.675 176.349 699.374 175.178C698.073 173.877 696.251 173.226 693.908 173.226H691.045C688.703 173.226 686.751 173.877 685.579 175.178C684.278 176.479 683.627 178.301 683.627 180.643V211.999Z" fill="#00BFFF"/>
<path d="M777.326 164.249C777.326 161.387 778.237 159.045 779.929 157.483C781.751 155.922 784.223 155.141 787.477 155.141H922.039C925.293 155.141 927.896 155.922 929.587 157.483C931.409 159.045 932.19 161.256 932.19 164.249C932.19 167.111 931.279 169.453 929.587 171.015C927.765 172.576 925.293 173.357 922.039 173.357H889.505V266.645C889.505 273.67 887.683 278.875 884.039 282.648C880.395 286.291 875.06 288.112 868.032 288.112H841.484C834.457 288.112 829.251 286.291 825.477 282.648C821.833 279.005 820.011 273.67 820.011 266.645V173.357H787.477C784.223 173.357 781.621 172.576 779.929 171.015C778.237 169.323 777.326 167.111 777.326 164.249Z" fill="#00BFFF"/>
<path d="M948.198 287.982C945.595 287.982 943.382 287.332 941.951 286.031C940.389 284.73 939.608 282.908 939.608 280.566C939.608 278.224 940.389 276.533 941.951 275.362C943.513 274.191 945.595 273.54 948.198 273.54H988.801V233.987C988.801 232.036 988.28 230.604 987.239 229.564C986.198 228.523 984.636 228.002 982.814 228.002H956.917C951.061 228.002 946.636 226.441 943.643 223.448C940.65 220.456 939.088 216.032 939.088 210.177V172.966C939.088 167.241 940.65 162.818 943.643 159.825C946.636 156.703 951.061 155.141 956.917 155.141H1024.59C1027.19 155.141 1029.27 155.792 1030.84 157.093C1032.4 158.394 1033.18 160.085 1033.18 162.427C1033.18 164.769 1032.4 166.461 1030.84 167.762C1029.27 169.063 1027.19 169.714 1024.59 169.714H988.931V207.835C988.931 209.787 989.451 211.218 990.492 212.259C991.533 213.3 993.095 213.82 994.917 213.82H1020.81C1026.67 213.82 1031.1 215.382 1034.22 218.374C1037.34 221.367 1038.9 225.79 1038.9 231.645V270.157C1038.9 275.882 1037.34 280.306 1034.22 283.298C1031.1 286.421 1026.67 287.982 1020.81 287.982H948.198Z" fill="#00BFFF"/>
<path d="M100.87 418.351C96.4456 418.351 93.1921 417.18 90.8497 414.838C88.5072 412.496 87.3359 409.113 87.3359 404.82V330.007C87.3359 325.584 88.5072 322.331 90.8497 319.989C93.1921 317.647 96.5757 316.476 100.87 316.476H156.83C161.124 316.476 164.378 317.647 166.59 319.859C168.932 322.201 169.973 325.454 169.973 329.617V347.182C169.973 351.475 168.802 354.728 166.59 357.07C164.247 359.412 160.994 360.583 156.83 360.583H138.35V365.657H156.569C160.994 365.657 164.247 366.828 166.59 369.17C168.932 371.512 170.104 374.765 170.104 379.058V404.69C170.104 409.113 168.932 412.366 166.59 414.708C164.247 417.05 160.864 418.221 156.569 418.221H100.87V418.351ZM129.24 354.468C130.542 354.468 131.713 354.077 132.494 353.297C133.275 352.516 133.795 351.345 133.795 349.914V331.308C133.795 330.007 133.405 328.836 132.494 328.056C131.713 327.275 130.542 326.885 129.24 326.885H123.514V354.338H129.24V354.468ZM129.24 407.812C130.542 407.812 131.713 407.422 132.494 406.641C133.275 405.861 133.795 404.82 133.795 403.389V376.456C133.795 375.155 133.405 373.984 132.494 373.203C131.713 372.423 130.542 371.902 129.24 371.902H123.514V407.682H129.24V407.812Z" fill="#00BFFF"/>
<path d="M174.268 382.962C174.268 378.538 175.179 375.285 176.87 372.943C178.562 370.601 181.035 369.56 184.288 369.56V365.007C181.035 365.007 178.562 363.836 176.87 361.624C175.179 359.282 174.268 356.029 174.268 351.866V329.877C174.268 325.454 175.439 322.201 177.651 319.859C179.994 317.517 183.247 316.476 187.542 316.476H210.576V418.351H187.542C183.247 418.351 179.994 417.18 177.651 414.968C175.309 412.626 174.268 409.374 174.268 404.95V382.962ZM235.953 316.476C238.035 316.476 239.597 316.997 240.638 317.907C241.679 318.818 242.199 320.119 242.199 321.811C242.199 323.502 241.679 324.933 240.638 325.844C239.597 326.755 238.035 327.275 235.953 327.275H210.576V316.476H235.953ZM235.953 361.624C238.035 361.624 239.597 362.144 240.638 363.055C241.679 363.966 242.199 365.267 242.199 367.088C242.199 368.78 241.679 370.081 240.638 370.992C239.597 371.902 238.035 372.423 235.953 372.423H210.576V361.624H235.953ZM235.953 407.552C238.035 407.552 239.597 408.073 240.638 408.983C241.679 409.894 242.199 411.195 242.199 413.017C242.199 414.708 241.679 416.009 240.638 416.92C239.597 417.831 238.035 418.351 235.953 418.351H210.576V407.552H235.953Z" fill="#00BFFF"/>
<path d="M245.974 329.877C245.974 325.454 247.145 322.201 249.357 319.859C251.7 317.517 254.953 316.476 259.248 316.476H268.878C273.172 316.476 276.426 317.647 278.768 319.859C281.111 322.201 282.282 325.454 282.282 329.877V361.884H292.303V329.877C292.303 325.454 293.474 322.201 295.816 319.859C298.159 317.517 301.412 316.476 305.707 316.476H315.337C319.632 316.476 322.885 317.647 325.228 319.859C327.57 322.201 328.611 325.454 328.611 329.877V404.95C328.611 409.374 327.44 412.626 325.228 414.968C322.885 417.31 319.632 418.351 315.337 418.351H305.707C301.412 418.351 298.159 417.18 295.816 414.968C293.474 412.626 292.303 409.374 292.303 404.95V372.553H282.282V404.95C282.282 409.374 281.111 412.626 278.768 414.968C276.426 417.31 273.172 418.351 268.878 418.351H259.248C254.953 418.351 251.7 417.18 249.357 414.968C247.015 412.626 245.974 409.374 245.974 404.95V329.877Z" fill="#00BFFF"/>
<path d="M332.255 329.877C332.255 325.454 333.426 322.201 335.638 319.859C337.981 317.517 341.234 316.476 345.529 316.476H355.159C359.454 316.476 362.707 317.647 365.05 319.859C367.392 322.201 368.563 325.454 368.563 329.877V404.95C368.563 409.374 367.392 412.626 365.05 414.968C362.707 417.31 359.454 418.351 355.159 418.351H345.529C341.234 418.351 337.981 417.18 335.638 414.968C333.296 412.626 332.255 409.374 332.255 404.95V329.877Z" fill="#00BFFF"/>
<path d="M372.728 329.877C372.728 325.454 373.899 322.201 376.111 319.859C378.454 317.517 381.707 316.476 386.132 316.476H424.002C428.427 316.476 431.81 317.647 434.543 319.989C437.276 322.331 438.447 325.584 438.447 329.877V407.552H447.427V329.877C447.427 325.454 448.598 322.201 450.94 319.859C453.283 317.517 456.536 316.476 460.831 316.476H470.331C474.756 316.476 478.009 317.647 480.352 319.859C482.694 322.201 483.735 325.454 483.735 329.877V404.95C483.735 409.374 482.564 412.626 480.352 414.968C478.009 417.31 474.756 418.351 470.331 418.351H432.591C428.166 418.351 424.522 417.18 421.92 414.838C419.317 412.496 418.016 409.244 418.016 404.95V327.275H409.036V404.95C409.036 409.374 407.865 412.626 405.652 414.968C403.31 417.31 400.056 418.351 395.632 418.351H386.132C381.707 418.351 378.454 417.18 376.111 414.968C373.769 412.626 372.728 409.374 372.728 404.95V329.877Z" fill="#00BFFF"/>
<path d="M502.085 418.351C497.66 418.351 494.407 417.18 492.064 414.968C489.722 412.626 488.681 409.374 488.681 404.95V329.877C488.681 325.454 489.852 322.201 492.064 319.859C494.407 317.517 497.66 316.476 502.085 316.476H540.475C550.496 316.476 558.174 319.078 563.38 324.413C568.715 329.747 571.318 337.424 571.318 347.442V387.255C571.318 397.404 568.715 405.08 563.38 410.284C558.044 415.619 550.496 418.221 540.475 418.221H502.085V418.351ZM530.585 407.812C531.886 407.812 533.058 407.422 533.839 406.641C534.619 405.861 535.14 404.82 535.14 403.389V331.178C535.14 329.877 534.749 328.706 533.839 327.926C533.058 327.145 531.886 326.755 530.585 326.755H524.859V407.682H530.585V407.812Z" fill="#00BFFF"/>
<path d="M88.377 462.198C88.377 458.945 89.2879 456.343 91.24 454.652C93.192 452.96 95.7948 452.049 99.3085 452.049H266.796C270.31 452.049 273.042 452.96 274.864 454.652C276.816 456.343 277.727 458.945 277.727 462.198C277.727 465.451 276.816 468.053 274.864 469.744C272.912 471.436 270.31 472.346 266.796 472.346H226.713V531.286C226.713 538.572 224.761 544.166 220.857 548.07C216.953 551.973 211.357 553.924 204.069 553.924H161.905C154.617 553.924 149.021 551.973 145.117 548.07C141.213 544.166 139.261 538.572 139.261 531.286V472.346H99.3085C95.7948 472.346 93.0619 471.436 91.24 469.744C89.4181 468.053 88.377 465.451 88.377 462.198Z" fill="#00BFFF"/>
<path d="M284.885 474.558C284.885 467.272 286.837 461.677 290.741 457.774C294.645 453.871 300.241 451.919 307.529 451.919H349.693C356.981 451.919 362.577 453.871 366.481 457.774C370.385 461.677 372.337 467.272 372.337 474.558V492.513H392.769V474.558C392.769 467.272 394.721 461.677 398.625 457.774C402.529 453.871 408.125 451.919 415.413 451.919H457.578C464.865 451.919 470.461 453.871 474.365 457.774C478.269 461.677 480.222 467.272 480.222 474.558V531.286C480.222 538.572 478.269 544.166 474.365 548.07C470.461 551.973 464.865 553.924 457.578 553.924H415.413C408.125 553.924 402.529 551.973 398.625 548.07C394.721 544.166 392.769 538.572 392.769 531.286V512.81H372.337V531.286C372.337 538.572 370.385 544.166 366.481 548.07C362.577 551.973 356.981 553.924 349.693 553.924H307.529C300.241 553.924 294.645 551.973 290.741 548.07C286.837 544.166 284.885 538.572 284.885 531.286V474.558Z" fill="#00BFFF"/>
<path d="M487.249 529.074C487.249 521.788 488.941 516.193 492.455 512.29C495.968 508.386 501.044 506.435 507.551 506.435V499.149C500.913 499.149 495.968 497.197 492.455 493.294C488.941 489.391 487.249 483.796 487.249 476.51V474.298C487.249 467.012 489.201 461.417 493.105 457.514C497.009 453.611 502.605 451.659 509.893 451.659H574.702V553.534H509.893C502.605 553.534 497.009 551.583 493.105 547.679C489.201 543.776 487.249 538.181 487.249 530.895V529.074ZM651.092 451.919C654.606 451.919 657.339 452.83 659.161 454.521C661.113 456.213 662.024 458.815 662.024 462.068C662.024 465.32 661.113 467.923 659.161 469.614C657.209 471.305 654.606 472.216 651.092 472.216H574.702V451.789H651.092V451.919ZM651.092 491.602C654.606 491.602 657.339 492.513 659.161 494.205C660.983 495.896 662.024 498.498 662.024 501.751C662.024 505.004 661.113 507.606 659.161 509.297C657.209 510.989 654.606 511.899 651.092 511.899H574.702V491.472H651.092V491.602ZM651.092 533.497C654.606 533.497 657.339 534.408 659.161 536.1C660.983 537.791 662.024 540.393 662.024 543.646C662.024 546.899 661.113 549.501 659.161 551.192C657.209 552.884 654.606 553.794 651.092 553.794H574.702V533.367H651.092V533.497Z" fill="#00BFFF"/>
<path d="M89.418 621.321C89.418 612.213 91.8906 605.187 96.7057 600.373C101.521 595.559 108.548 593.087 117.658 593.087H198.734V692.36C198.734 701.468 196.261 708.494 191.446 713.308C186.631 718.122 179.603 720.594 170.494 720.594H117.658C108.548 720.594 101.521 718.122 96.7057 713.308C91.8906 708.494 89.418 701.468 89.418 692.36V621.321ZM294.385 593.087C298.81 593.087 302.193 594.128 304.536 596.34C306.878 598.552 308.049 601.674 308.049 605.838C308.049 610.001 306.878 613.124 304.536 615.336C302.193 617.548 298.81 618.588 294.385 618.588H198.734V593.087H294.385ZM294.385 643.699C298.81 643.699 302.193 644.74 304.536 646.952C306.878 649.164 308.049 652.287 308.049 656.45C308.049 660.614 306.878 663.736 304.536 665.948C302.193 668.16 298.81 669.201 294.385 669.201H198.734V643.699H294.385Z" fill="#00BFFF"/>
<path d="M317.159 621.321C317.159 612.213 319.632 605.187 324.447 600.373C329.262 595.559 336.289 593.087 345.399 593.087H398.235C407.345 593.087 414.372 595.559 419.187 600.373C424.002 605.187 426.475 612.213 426.475 621.321V720.594H345.399C336.289 720.594 329.262 718.122 324.447 713.308C319.632 708.494 317.159 701.468 317.159 692.36V621.321ZM522.126 695.092C526.551 695.092 529.934 696.133 532.277 698.345C534.619 700.557 535.791 703.68 535.791 707.843C535.791 712.007 534.619 715.129 532.277 717.341C529.934 719.553 526.551 720.594 522.126 720.594H426.475V695.092H522.126Z" fill="#00BFFF"/>
<path d="M544.9 621.321C544.9 612.213 547.373 605.187 552.188 600.373C557.003 595.559 564.031 593.087 573.14 593.087H760.799C769.908 593.087 776.936 595.559 781.751 600.373C786.566 605.187 789.039 612.213 789.039 621.321V692.36C789.039 701.468 786.566 708.494 781.751 713.308C776.936 718.122 769.908 720.594 760.799 720.594H707.963C698.853 720.594 691.826 718.122 687.011 713.308C682.196 708.494 679.723 701.468 679.723 692.36V669.201H654.216V692.36C654.216 701.468 651.743 708.494 646.928 713.308C642.113 718.122 635.086 720.594 625.976 720.594H573.14C564.031 720.594 557.003 718.122 552.188 713.308C547.373 708.494 544.9 701.468 544.9 692.36V621.321ZM654.216 643.699H679.723V628.607C679.723 625.484 678.812 623.012 677.12 621.191C675.298 619.369 672.956 618.588 669.702 618.588H664.237C661.113 618.588 658.641 619.499 656.819 621.191C654.997 623.012 654.216 625.354 654.216 628.607V643.699Z" fill="#00BFFF"/>
<path d="M798.019 605.838C798.019 601.674 799.19 598.552 801.532 596.34C803.875 594.128 807.258 593.087 811.683 593.087H1021.2C1025.63 593.087 1029.01 594.128 1031.36 596.34C1033.7 598.552 1034.87 601.674 1034.87 605.838C1034.87 610.001 1033.7 613.124 1031.36 615.336C1029.01 617.548 1025.63 618.588 1021.2 618.588H971.102V692.36C971.102 701.468 968.629 708.494 963.814 713.308C958.999 718.122 951.972 720.594 942.862 720.594H890.026C880.916 720.594 873.889 718.122 869.074 713.308C864.259 708.494 861.786 701.468 861.786 692.36V618.588H811.683C807.258 618.588 803.875 617.548 801.532 615.336C799.32 613.124 798.019 610.001 798.019 605.838Z" fill="#00BFFF"/>
<path d="M167.241 981.852C147.46 981.852 132.364 976.518 121.692 965.979C111.021 955.31 105.815 940.217 105.815 920.441V919.53C105.815 899.753 111.151 884.661 121.692 873.992C132.364 863.323 147.46 858.119 167.241 858.119H333.426V813.491H130.412C119.48 813.491 111.021 810.759 105.165 805.294C99.3086 799.83 96.3154 791.893 96.3154 781.615C96.3154 771.336 99.3086 763.399 105.165 757.935C111.021 752.47 119.48 749.738 130.412 749.738H536.051C558.825 749.738 576.264 755.853 588.366 767.953C600.469 780.053 606.586 797.488 606.586 820.257V846.669C606.586 869.438 600.469 886.873 588.366 898.973C576.264 911.073 558.825 917.188 536.051 917.188H378.975V920.311C378.975 940.087 373.639 955.18 363.098 965.849C352.427 976.517 337.331 981.722 317.55 981.722H167.241V981.852ZM125.727 1068.37C119.35 1068.37 114.405 1066.68 110.891 1063.17C107.377 1059.66 105.685 1054.71 105.685 1048.34V1024.66C105.685 1018.28 107.377 1013.34 110.891 1009.83C114.405 1006.31 119.35 1004.62 125.727 1004.62H358.803C365.18 1004.62 370.125 1006.31 373.639 1009.83C377.153 1013.34 378.845 1018.28 378.845 1024.66V1048.34C378.845 1054.71 377.153 1059.66 373.639 1063.17C370.125 1066.68 365.18 1068.37 358.803 1068.37H125.727Z" fill="#00BFFF"/>
</g>
<defs>
<filter id="filter0_d" x="0.931641" y="0.573486" width="1134.88" height="1193.84" filterUnits="userSpaceOnUse" color-interpolation-filters="sRGB">
<feFlood flood-opacity="0" result="BackgroundImageFix"/>
<feColorMatrix in="SourceAlpha" type="matrix" values="0 0 0 0 0 0 0 0 0 0 0 0 0 0 0 0 0 0 127 0"/>
<feOffset dx="10" dy="10"/>
<feGaussianBlur stdDeviation="17"/>
<feColorMatrix type="matrix" values="0 0 0 0 0 0 0 0 0 0.74902 0 0 0 0 1 0 0 0 0.45 0"/>
<feBlend mode="normal" in2="BackgroundImageFix" result="effect1_dropShadow"/>
<feBlend mode="normal" in="SourceGraphic" in2="effect1_dropShadow" result="shape"/>
</filter>
</defs>
</svg>
