<?xml version="1.0" encoding="utf-8"?>
<!-- Generator: Adobe Illustrator 25.2.3, SVG Export Plug-In . SVG Version: 6.00 Build 0)  -->
<svg version="1.1" id="Camada_1" xmlns="http://www.w3.org/2000/svg" xmlns:xlink="http://www.w3.org/1999/xlink" x="0px" y="0px"
	 viewBox="0 0 1136 1338.5" style="enable-background:new 0 0 1136 1338.5;" xml:space="preserve">
<style type="text/css">
	.st0{fill:#D5F5FF;stroke:#00BDFF;stroke-width:3;stroke-linecap:round;stroke-linejoin:round;stroke-miterlimit:10;}
	.st1{fill:none;stroke:#00BDFF;stroke-width:3;stroke-miterlimit:10;}
	.st2{fill:#FFFFFF;}
	.st3{fill:#00BDFF;}
</style>
<path class="st0" d="M1053.1,1307.2H68.9c-19.3,0-35-15.7-35-35V64.2c0-19.3,15.7-35,35-35h984.2c19.3,0,35,15.7,35,35v1208
	C1088.1,1291.6,1072.4,1307.2,1053.1,1307.2z"/>
<g>
	<line class="st1" x1="33.6" y1="70.4" x2="1088.2" y2="70.4"/>
</g>
<g>
	<path class="st2" d="M68,59.1c-4.7,0-8.6-3.5-8.6-7.7s3.8-7.7,8.6-7.7s8.6,3.5,8.6,7.7S72.7,59.1,68,59.1z"/>
	<path class="st3" d="M68,45.1c3.9,0,7.1,2.8,7.1,6.2s-3.2,6.2-7.1,6.2s-7.1-2.8-7.1-6.2S64.1,45.1,68,45.1 M68,42.1
		c-5.6,0-10.1,4.1-10.1,9.2s4.5,9.2,10.1,9.2S78,56.4,78,51.3S73.5,42.1,68,42.1L68,42.1z"/>
</g>
<g>
	<path class="st2" d="M94.8,59.1c-4.7,0-8.6-3.5-8.6-7.7s3.8-7.7,8.6-7.7s8.6,3.5,8.6,7.7S99.5,59.1,94.8,59.1z"/>
	<path class="st3" d="M94.8,45.1c3.9,0,7.1,2.8,7.1,6.2s-3.2,6.2-7.1,6.2s-7.1-2.8-7.1-6.2S90.9,45.1,94.8,45.1 M94.8,42.1
		c-5.6,0-10.1,4.1-10.1,9.2s4.5,9.2,10.1,9.2s10.1-4.1,10.1-9.2S100.3,42.1,94.8,42.1L94.8,42.1z"/>
</g>
<g>
	<path class="st2" d="M121.6,59.1c-4.7,0-8.6-3.5-8.6-7.7s3.8-7.7,8.6-7.7s8.6,3.5,8.6,7.7S126.3,59.1,121.6,59.1z"/>
	<path class="st3" d="M121.6,45.1c3.9,0,7.1,2.8,7.1,6.2s-3.2,6.2-7.1,6.2c-3.9,0-7.1-2.8-7.1-6.2S117.7,45.1,121.6,45.1
		 M121.6,42.1c-5.6,0-10.1,4.1-10.1,9.2s4.5,9.2,10.1,9.2c5.6,0,10.1-4.1,10.1-9.2S127.1,42.1,121.6,42.1L121.6,42.1z"/>
</g>
<g>
	<path class="st3" d="M93.4,168.3c0-4.9,1.3-8.6,3.9-11.2c2.6-2.6,6.3-3.9,11.2-3.9h11c4.9,0,8.6,1.3,11.2,3.9
		c2.6,2.6,3.9,6.3,3.9,11.2v81.4c0,1.6,0.5,2.9,1.4,3.7c0.9,0.9,2.1,1.3,3.7,1.3h1.3c1.6,0,2.9-0.4,3.8-1.3c0.9-0.9,1.4-2.1,1.4-3.7
		v-81.4c0-4.9,1.3-8.6,3.8-11.2c2.5-2.6,6.3-3.9,11.1-3.9h11c4.9,0,8.6,1.3,11.2,3.9c2.6,2.6,3.9,6.3,3.9,11.2v81.1
		c0,5.7-1.5,10.1-4.5,13.1c-3,3-7.3,4.5-13.1,4.5H111c-5.6,0-10-1.5-13-4.5c-3-3-4.5-7.3-4.5-13.1V168.3z"/>
	<path class="st3" d="M195.8,168.3c0-4.9,1.3-8.6,3.9-11.2c2.6-2.6,6.3-3.9,11.2-3.9h43.2c4.9,0,8.8,1.3,11.8,3.9
		c3,2.6,4.5,6.3,4.5,11.2v82.1c0,1.4,0.4,2.5,1.1,3.2c0.8,0.8,1.8,1.1,3.2,1.1h1.5c1.4,0,2.5-0.4,3.2-1.1c0.8-0.8,1.1-1.8,1.1-3.2
		v-82.1c0-4.9,1.3-8.6,3.9-11.2c2.6-2.6,6.3-3.9,11.2-3.9h11c4.9,0,8.6,1.3,11.1,3.9c2.5,2.6,3.8,6.3,3.8,11.2v83.5
		c0,4.9-1.3,8.6-3.8,11.2c-2.5,2.6-6.3,3.9-11.1,3.9h-43.2c-5,0-8.9-1.3-11.9-3.9c-2.9-2.6-4.4-6.3-4.4-11.2v-82.1
		c0-1.4-0.4-2.5-1.2-3.2c-0.8-0.8-1.9-1.1-3.2-1.1h-1.5c-1.4,0-2.5,0.4-3.2,1.1c-0.8,0.8-1.1,1.8-1.1,3.2v82.1
		c0,4.9-1.3,8.6-3.9,11.2c-2.6,2.6-6.3,3.9-11.2,3.9h-11c-4.9,0-8.6-1.3-11.2-3.9c-2.6-2.6-3.9-6.3-3.9-11.2V168.3z"/>
	<path class="st3" d="M330.8,159.2c0-2,0.6-3.4,1.9-4.5c1.2-1,3-1.5,5.3-1.5h80.4c2.4,0,4.2,0.5,5.4,1.5c1.2,1,1.9,2.5,1.9,4.5
		c0,1.9-0.6,3.5-1.9,4.5c-1.2,1.1-3.1,1.6-5.4,1.6h-19.7v86.4c0,4.9-1.3,8.6-3.8,11.2c-2.5,2.6-6.3,3.9-11.1,3.9h-11
		c-4.9,0-8.6-1.3-11.2-3.9c-2.6-2.6-3.9-6.3-3.9-11.2v-86.4H338c-2.3,0-4-0.5-5.3-1.6C331.4,162.7,330.8,161.2,330.8,159.2z"/>
	<path class="st3" d="M433.8,168.3c0-4.9,1.3-8.6,3.8-11.2c2.5-2.6,6.3-3.9,11.1-3.9H460c4.9,0,8.6,1.3,11.1,3.9
		c2.5,2.6,3.8,6.3,3.8,11.2v83.5c0,4.9-1.3,8.6-3.8,11.2c-2.5,2.6-6.3,3.9-11.1,3.9h-11.2c-4.9,0-8.6-1.3-11.1-3.9
		c-2.5-2.6-3.8-6.3-3.8-11.2V168.3z"/>
	<path class="st3" d="M483.2,168.2c0-4.9,1.3-8.6,3.8-11.2c2.5-2.6,6.3-3.9,11.1-3.9h11.2c4.9,0,8.6,1.3,11.1,3.9
		c2.5,2.6,3.8,6.3,3.8,11.2v86.6h29.1c2.3,0,4,0.5,5.3,1.6c1.2,1.1,1.9,2.5,1.9,4.4c0,1.9-0.6,3.4-1.9,4.5c-1.2,1-3,1.5-5.3,1.5
		h-55.2c-4.9,0-8.6-1.3-11.1-3.8c-2.5-2.5-3.8-6.3-3.8-11.1V168.2z"/>
	<path class="st3" d="M95.8,315.7c0-7.4,2-13.1,6-17.1c4-4,9.8-6,17.3-6h33.3c7.5,0,13.3,2,17.3,6c4,4,6,9.7,6,17.1V396
		c0,2.5,0.7,4.5,2.1,5.9c1.4,1.4,3.4,2.2,6,2.2h3.6c2.5,0,4.5-0.7,5.9-2.2c1.4-1.4,2.2-3.4,2.2-5.9v-80.4c0-7.4,2-13.1,5.9-17.1
		c4-4,9.7-6,17.2-6h33.5c7.4,0,13.1,2,17.1,6c4,4,6,9.7,6,17.1V396c0,2.5,0.7,4.5,2.2,5.9c1.4,1.4,3.4,2.2,5.9,2.2h3.2
		c2.5,0,4.5-0.7,5.9-2.2c1.4-1.4,2.2-3.4,2.2-5.9v-80.4c0-7.4,2-13.1,6-17.1c4-4,9.7-6,17.1-6h33.5c7.5,0,13.3,2,17.3,6
		c4,4,6,9.7,6,17.1v85.5c0,7.4-2,13.1-6,17.1c-4,4-9.8,6-17.3,6h-86.6c-7.2,0-12.7-1.7-16.6-5.2c-3.9-3.5-5.8-8.4-5.8-15h-13.9
		c0,6.5-1.9,11.5-5.8,15c-3.9,3.5-9.4,5.2-16.6,5.2h-87c-7.5,0-13.3-2-17.3-6c-4-4-6-9.7-6-17.1V315.7z"/>
	<path class="st3" d="M387,315.7c0-7.4,2-13.1,5.9-17.1c4-4,9.7-6,17.2-6h33.5c7.5,0,13.3,2,17.2,6c4,4,5.9,9.7,5.9,17.1V348h19.8
		v-32.4c0-7.4,2-13.1,6-17.1c4-4,9.8-6,17.3-6h33.3c7.5,0,13.3,2,17.3,6c4,4,6,9.7,6,17.1v85.5c0,7.4-2,13.1-6,17.1
		c-4,4-9.8,6-17.3,6H510c-7.5,0-13.3-2-17.3-6c-4-4-6-9.7-6-17.1v-32.9h-19.8v32.9c0,7.4-2,13.1-5.9,17.1c-4,4-9.7,6-17.2,6h-33.5
		c-7.5,0-13.3-2-17.2-6c-4-4-5.9-9.7-5.9-17.1V315.7z"/>
	<path class="st3" d="M578.3,385.3c0-7.4,1.7-13.1,5.1-17.1c3.4-4,8.3-6,14.7-6v-7.5c-6.4,0-11.3-2-14.7-6c-3.4-4-5.1-9.8-5.1-17.3
		v-15.6c0-7.4,2-13.1,5.9-17.1c4-4,9.7-6,17.2-6H724c3.5,0,6.2,0.8,8.2,2.5c1.9,1.7,2.9,4.2,2.9,7.4c0,3.3-1,5.8-2.9,7.5
		c-1.9,1.8-4.7,2.6-8.2,2.6h-65.9v34.6H724c3.5,0,6.2,0.9,8.2,2.6c1.9,1.8,2.9,4.2,2.9,7.3c0,3.3-1,5.8-2.9,7.5
		c-1.9,1.8-4.7,2.6-8.2,2.6h-65.9v36.7H724c3.5,0,6.2,0.9,8.2,2.6c1.9,1.8,2.9,4.2,2.9,7.3c0,3.3-1,5.8-2.9,7.5
		c-1.9,1.8-4.7,2.6-8.2,2.6H601.5c-7.5,0-13.3-2-17.2-6c-4-4-5.9-9.7-5.9-17.1V385.3z"/>
	<path class="st3" d="M747.4,315.7c0-7.4,2-13.1,6-17.1c4-4,9.8-6,17.3-6h93c7.7,0,13.6,2,17.8,6c4.2,4,6.3,9.7,6.3,17.1v80.8
		c0,2.5,0.7,4.4,2,5.7s3.2,2,5.7,2h3.6c2.4,0,4.3-0.7,5.6-2c1.4-1.3,2.1-3.2,2.1-5.7v-80.8c0-7.4,2-13.1,5.9-17.1c4-4,9.7-6,17.2-6
		h33.5c7.5,0,13.3,2,17.2,6c4,4,5.9,9.7,5.9,17.1v85.5c0,7.4-2,13.1-5.9,17.1c-4,4-9.7,6-17.2,6h-93.2c-7.5,0-13.4-2-17.6-6
		c-4.2-4-6.3-9.7-6.3-17.1v-80.8c0-2.5-0.7-4.4-2.1-5.7c-1.4-1.3-3.3-2-5.6-2h-3.6c-2.5,0-4.4,0.7-5.7,2c-1.3,1.3-2,3.2-2,5.7v80.8
		c0,7.4-2,13.1-6,17.1c-4,4-9.8,6-17.3,6h-33.3c-7.5,0-13.3-2-17.3-6c-4-4-6-9.7-6-17.1V315.7z"/>
	<path class="st3" d="M94.9,469.3c0-5.6,1.5-9.9,4.4-12.8c3-3,7.2-4.4,12.8-4.4h19.3c5.6,0,9.9,1.5,12.9,4.4c3,3,4.5,7.2,4.5,12.8
		v75.1c0,1.9,0.5,3.4,1.5,4.4c1,1,2.4,1.5,4.3,1.5h2.3c1.8,0,3.3-0.5,4.4-1.5c1.1-1,1.6-2.5,1.6-4.4v-75.1c0-5.6,1.5-9.9,4.4-12.8
		c3-3,7.2-4.4,12.8-4.4h19.3c5.6,0,9.9,1.5,12.8,4.4c3,3,4.4,7.2,4.4,12.8v75.1c0,1.9,0.5,3.4,1.6,4.4c1.1,1,2.5,1.5,4.4,1.5h1.9
		c1.8,0,3.3-0.5,4.4-1.5c1.1-1,1.6-2.5,1.6-4.4v-75.1c0-5.6,1.5-9.9,4.4-12.8c3-3,7.2-4.4,12.8-4.4h19.3c5.6,0,9.9,1.5,12.8,4.4
		c3,3,4.4,7.2,4.4,12.8v78.3c0,5.6-1.5,9.9-4.4,12.8c-3,3-7.2,4.4-12.8,4.4h-56.3c-5.2,0-9.1-1.3-11.9-3.8
		c-2.8-2.5-4.2-6.1-4.2-10.7h-10c0,4.7-1.4,8.3-4.1,10.8c-2.7,2.5-6.7,3.7-12,3.7h-56.6c-5.6,0-9.9-1.5-12.8-4.4
		c-3-3-4.4-7.2-4.4-12.8V469.3z"/>
	<path class="st3" d="M294.1,469.3c0-5.6,1.5-9.9,4.4-12.8c3-3,7.2-4.4,12.8-4.4h19.3c5.6,0,9.9,1.5,12.8,4.4c3,3,4.4,7.2,4.4,12.8
		v78.3c0,5.6-1.5,9.9-4.4,12.8c-3,3-7.2,4.4-12.8,4.4h-19.3c-5.6,0-9.9-1.5-12.8-4.4c-3-3-4.4-7.2-4.4-12.8V469.3z"/>
	<path class="st3" d="M357.1,469.3c0-5.6,1.5-9.9,4.4-12.9c3-3,7.2-4.5,12.8-4.5h19.3c5.6,0,9.9,1.5,12.8,4.5c3,3,4.4,7.3,4.4,12.9
		v81.1h41.9c2.6,0,4.6,0.6,6,1.9c1.5,1.2,2.2,3,2.2,5.4c0,2.3-0.7,4-2.2,5.2c-1.5,1.2-3.5,1.9-6,1.9h-78.5c-5.6,0-9.9-1.5-12.8-4.4
		c-3-3-4.4-7.2-4.4-12.8V469.3z"/>
	<path class="st3" d="M470.3,469.3c0-5.6,1.5-9.9,4.4-12.9c3-3,7.2-4.5,12.8-4.5h19.3c5.6,0,9.9,1.5,12.8,4.5c3,3,4.4,7.3,4.4,12.9
		v81.1H566c2.6,0,4.6,0.6,6,1.9c1.5,1.2,2.2,3,2.2,5.4c0,2.3-0.7,4-2.2,5.2c-1.5,1.2-3.5,1.9-6,1.9h-78.5c-5.6,0-9.9-1.5-12.8-4.4
		c-3-3-4.4-7.2-4.4-12.8V469.3z"/>
	<path class="st3" d="M94.5,610.2c0-4.8,1.3-8.5,3.9-11.1c2.6-2.6,6.3-3.9,11.1-3.9h11c4.8,0,8.5,1.3,11.1,3.9
		c2.6,2.6,3.9,6.3,3.9,11.1v80.8c0,1.6,0.4,2.8,1.3,3.7c0.9,0.9,2.1,1.3,3.7,1.3h1.3c1.6,0,2.8-0.4,3.7-1.3c0.9-0.9,1.3-2.1,1.3-3.7
		v-80.8c0-4.8,1.3-8.5,3.9-11.1c2.6-2.6,6.3-3.9,11.1-3.9h11c4.8,0,8.5,1.3,11.1,3.9c2.6,2.6,3.9,6.3,3.9,11.1v80.8
		c0,1.6,0.5,2.8,1.4,3.7c0.9,0.9,2.1,1.3,3.6,1.3h1.3c1.5,0,2.7-0.4,3.6-1.3c0.9-0.9,1.4-2.1,1.4-3.7v-80.8c0-4.8,1.3-8.5,3.9-11.1
		c2.6-2.6,6.3-3.9,11.1-3.9h11c4.8,0,8.5,1.3,11.1,3.9c2.6,2.6,3.9,6.3,3.9,11.1V693c0,4.8-1.3,8.5-3.9,11.1s-6.3,3.9-11.1,3.9
		h-40.1c-4.3,0-7.6-1-9.9-3.1c-2.3-2.1-3.5-5.1-3.5-8.9h-8.1c0,4-1.2,7-3.5,9c-2.3,2-5.7,3.1-10.2,3.1h-40.1
		c-4.8,0-8.5-1.3-11.1-3.9c-2.6-2.6-3.9-6.3-3.9-11.1V610.2z"/>
	<path class="st3" d="M248.8,669c0-4.8,1-8.5,2.9-11.1c1.9-2.6,4.7-3.9,8.4-3.9v-5c-3.7,0-6.4-1.3-8.4-3.8c-1.9-2.5-2.9-6.2-2.9-11
		v-24c0-4.8,1.3-8.5,3.8-11.1c2.5-2.6,6.2-3.9,11-3.9h54.8c2.3,0,4,0.5,5.2,1.5c1.2,1,1.9,2.5,1.9,4.4s-0.6,3.4-1.9,4.5
		c-1.2,1.1-3,1.6-5.2,1.6h-28.9v37.9h28.9c2.3,0,4,0.5,5.2,1.5c1.2,1,1.9,2.5,1.9,4.4c0,1.8-0.6,3.3-1.9,4.4c-1.2,1.1-3,1.6-5.2,1.6
		h-28.9v38.8h28.9c2.3,0,4,0.5,5.2,1.6c1.2,1.1,1.9,2.5,1.9,4.4c0,1.9-0.6,3.4-1.9,4.5c-1.2,1.1-3,1.6-5.2,1.6h-54.8
		c-4.8,0-8.5-1.3-11-3.9c-2.5-2.6-3.8-6.3-3.8-11.1V669z"/>
	<path class="st3" d="M408.1,708c-4.8,0-8.6-1.3-11.2-3.9c-2.6-2.6-3.9-6.3-3.9-11.1v-82.9c0-4.8,1.3-8.5,3.9-11.1
		c2.6-2.6,6.4-3.9,11.2-3.9h63.2c4.7,0,8.4,1.3,11,3.9c2.6,2.6,3.9,6.2,3.9,11v19.3c0,4.7-1.3,8.4-3.9,11s-6.2,3.9-11,3.9h-20.8v5.6
		h20.6c4.8,0,8.5,1.3,11.1,3.9s3.9,6.3,3.9,11.1V693c0,4.8-1.3,8.5-3.9,11.1s-6.3,3.9-11.1,3.9H408.1z M440.1,637.2
		c1.6,0,2.8-0.5,3.7-1.4c0.9-0.9,1.3-2.1,1.3-3.6v-20.5c0-1.5-0.4-2.7-1.3-3.6c-0.9-0.9-2.1-1.4-3.7-1.4h-6.3v30.5H440.1z
		 M440.1,696.4c1.6,0,2.8-0.5,3.7-1.4c0.9-0.9,1.3-2.1,1.3-3.6v-29.5c0-1.6-0.4-2.8-1.3-3.7c-0.9-0.9-2.1-1.3-3.7-1.3h-6.3v39.5
		H440.1z"/>
	<path class="st3" d="M495,669c0-4.8,1-8.5,2.9-11.1c1.9-2.6,4.7-3.9,8.4-3.9v-5c-3.7,0-6.4-1.3-8.4-3.8c-1.9-2.5-2.9-6.2-2.9-11
		v-24c0-4.8,1.3-8.5,3.8-11.1c2.5-2.6,6.2-3.9,11-3.9h54.8c2.3,0,4,0.5,5.2,1.5c1.2,1,1.9,2.5,1.9,4.4s-0.6,3.4-1.9,4.5
		c-1.2,1.1-3,1.6-5.2,1.6h-28.9v37.9h28.9c2.3,0,4,0.5,5.2,1.5c1.2,1,1.9,2.5,1.9,4.4c0,1.8-0.6,3.3-1.9,4.4c-1.2,1.1-3,1.6-5.2,1.6
		h-28.9v38.8h28.9c2.3,0,4,0.5,5.2,1.6c1.2,1.1,1.9,2.5,1.9,4.4c0,1.9-0.6,3.4-1.9,4.5c-1.2,1.1-3,1.6-5.2,1.6h-54.8
		c-4.8,0-8.5-1.3-11-3.9c-2.5-2.6-3.8-6.3-3.8-11.1V669z"/>
	<path class="st3" d="M96,765.9c0-8.4,2.2-14.8,6.7-19.3c4.4-4.4,10.8-6.7,19.1-6.7h157.3c4,0,7,1,9.2,3c2.2,2,3.2,4.9,3.2,8.6
		c0,3.7-1.1,6.6-3.2,8.6c-2.2,2-5.2,3-9.2,3H194v26.3h85.1c4,0,7,1,9.2,3c2.2,2,3.2,4.9,3.2,8.6c0,3.7-1.1,6.6-3.2,8.6
		c-2.2,2-5.2,3-9.2,3H194v24.2c0,8.4-2.2,14.9-6.7,19.3c-4.4,4.4-10.9,6.7-19.3,6.7h-46.3c-8.3,0-14.7-2.2-19.1-6.7
		c-4.4-4.4-6.7-10.9-6.7-19.3V765.9z"/>
	<path class="st3" d="M304.4,765.9c0-8.4,2.2-14.8,6.7-19.3c4.4-4.4,10.8-6.7,19.1-6.7h46.3c8.4,0,14.8,2.2,19.3,6.7
		c4.4,4.4,6.7,10.9,6.7,19.3v73.7h85.1c4,0,7,1,9.2,3c2.2,2,3.2,4.9,3.2,8.6c0,3.7-1.1,6.6-3.2,8.6c-2.2,2-5.2,3-9.2,3H330.1
		c-8.3,0-14.7-2.2-19.1-6.7c-4.4-4.4-6.7-10.9-6.7-19.3V765.9z"/>
	<path class="st3" d="M512.7,765.9c0-8.4,2.2-14.8,6.7-19.3c4.4-4.4,10.8-6.7,19.1-6.7h167.7c8.3,0,14.7,2.2,19.1,6.7
		c4.4,4.4,6.7,10.9,6.7,19.3v70.9c0,8.4-2.2,14.9-6.7,19.3c-4.4,4.4-10.8,6.7-19.1,6.7h-46.3c-8.4,0-14.8-2.2-19.3-6.7
		c-4.4-4.4-6.7-10.9-6.7-19.3v-24.2h-23.2v24.2c0,8.4-2.2,14.9-6.7,19.3c-4.4,4.4-10.9,6.7-19.3,6.7h-46.3c-8.3,0-14.7-2.2-19.1-6.7
		c-4.4-4.4-6.7-10.9-6.7-19.3V765.9z M610.8,789.4h23.2v-17c0-2.9-0.8-5.2-2.5-6.8c-1.6-1.6-3.9-2.5-6.7-2.5h-4.9
		c-2.8,0-5,0.8-6.7,2.5c-1.6,1.6-2.5,3.9-2.5,6.8V789.4z"/>
	<path class="st3" d="M744.7,751.6c0-3.7,1.1-6.6,3.2-8.6c2.2-2,5.2-3,9.2-3h188.2c4.1,0,7.2,1,9.4,3c2.2,2,3.2,4.9,3.2,8.6
		c0,3.7-1.1,6.6-3.2,8.6c-2.2,2-5.3,3-9.4,3h-45.1v73.7c0,8.4-2.2,14.9-6.7,19.3c-4.4,4.4-10.8,6.7-19.1,6.7h-46.3
		c-8.4,0-14.9-2.2-19.3-6.7c-4.4-4.4-6.7-10.9-6.7-19.3v-73.7h-45.1c-4,0-7-1-9.2-3C745.8,758.2,744.7,755.3,744.7,751.6z"/>
	<path class="st3" d="M173.5,1121.7c-19.6,0-34.6-5.3-45.1-15.8c-10.5-10.5-15.8-25.6-15.8-45.1v-0.9c0-19.5,5.3-34.6,15.8-45.1
		c10.5-10.5,25.6-15.8,45.1-15.8h164.7v-44.2H136.9c-10.8,0-19.2-2.7-25-8.1c-5.9-5.4-8.8-13.2-8.8-23.5c0-10.2,2.9-18,8.8-23.5
		c5.9-5.4,14.2-8.1,25-8.1h402c22.6,0,39.9,6,51.9,18c12,12,18,29.3,18,51.9v26.2c0,22.6-6,39.9-18,51.9c-12,12-29.3,18-51.9,18
		H383.3v3.2c0,19.6-5.3,34.6-15.8,45.1c-10.5,10.5-25.6,15.8-45.1,15.8H173.5z M132.4,1207.5c-6.3,0-11.2-1.7-14.7-5.2
		c-3.5-3.5-5.2-8.3-5.2-14.7v-23.5c0-6.3,1.7-11.2,5.2-14.7c3.5-3.5,8.3-5.2,14.7-5.2h231c6.3,0,11.2,1.7,14.7,5.2
		c3.5,3.5,5.2,8.3,5.2,14.7v23.5c0,6.3-1.7,11.2-5.2,14.7c-3.5,3.5-8.3,5.2-14.7,5.2H132.4z"/>
</g>
</svg>
