<svg width="1157" height="1240" viewBox="0 0 1157 1240" fill="none" xmlns="http://www.w3.org/2000/svg">
<g filter="url(#filter0_d)">
<path d="M1064.84 1194.09H72.0189C46.3574 1194.09 25.5439 1173.28 25.5439 1147.6V72.1091C25.5439 46.4418 46.3441 25.6235 72.0189 25.6235H1064.84C1090.5 25.6235 1111.31 46.4285 1111.31 72.1091V1147.59C1111.3 1173.27 1090.5 1194.09 1064.84 1194.09Z" fill="#D7F7FF" stroke="#00BFFF" stroke-width="3" stroke-miterlimit="10" stroke-linecap="round" stroke-linejoin="round"/>
<path d="M25.1588 67.9907H1111.43" stroke="#00BFFF" stroke-width="3" stroke-miterlimit="10"/>
<path d="M60.6226 55.8877C56.0136 55.8877 52.268 52.5132 52.268 48.3682C52.268 44.2231 56.0136 40.8486 60.6226 40.8486C65.2316 40.8486 68.9772 44.2231 68.9772 48.3682C68.9772 52.5132 65.2316 55.8877 60.6226 55.8877Z" fill="white"/>
<path d="M60.6226 42.8281C64.1291 42.8281 66.9848 45.3125 66.9848 48.3549C66.9848 51.3972 64.1291 53.8816 60.6226 53.8816C57.116 53.8816 54.2603 51.3972 54.2603 48.3549C54.2603 45.3125 57.1028 42.8281 60.6226 42.8281ZM60.6226 38.8425C54.9112 38.8425 50.2756 43.1071 50.2756 48.3549C50.2756 53.6026 54.9112 57.8672 60.6226 57.8672C66.334 57.8672 70.9695 53.6026 70.9695 48.3549C70.9695 43.1071 66.334 38.8425 60.6226 38.8425Z" fill="#00BFFF"/>
<path d="M88.2234 55.8877C83.6144 55.8877 79.8688 52.5132 79.8688 48.3682C79.8688 44.2231 83.6144 40.8486 88.2234 40.8486C92.8324 40.8486 96.578 44.2231 96.578 48.3682C96.578 52.5132 92.8324 55.8877 88.2234 55.8877Z" fill="white"/>
<path d="M88.2234 42.8281C91.7299 42.8281 94.5856 45.3125 94.5856 48.3549C94.5856 51.3972 91.7299 53.8816 88.2234 53.8816C84.7168 53.8816 81.8611 51.3972 81.8611 48.3549C81.8611 45.3125 84.7168 42.8281 88.2234 42.8281ZM88.2234 38.8425C82.5119 38.8425 77.8764 43.1071 77.8764 48.3549C77.8764 53.6026 82.5119 57.8672 88.2234 57.8672C93.9348 57.8672 98.5703 53.6026 98.5703 48.3549C98.5703 43.1071 93.9348 38.8425 88.2234 38.8425Z" fill="#00BFFF"/>
<path d="M115.824 55.8877C111.215 55.8877 107.469 52.5132 107.469 48.3682C107.469 44.2231 111.215 40.8486 115.824 40.8486C120.433 40.8486 124.179 44.2231 124.179 48.3682C124.192 52.5132 120.433 55.8877 115.824 55.8877Z" fill="white"/>
<path d="M115.824 42.8281C119.331 42.8281 122.186 45.3125 122.186 48.3549C122.186 51.3972 119.331 53.8816 115.824 53.8816C112.318 53.8816 109.462 51.3972 109.462 48.3549C109.462 45.3125 112.318 42.8281 115.824 42.8281ZM115.824 38.8425C110.113 38.8425 105.477 43.1071 105.477 48.3549C105.477 53.6026 110.113 57.8672 115.824 57.8672C121.535 57.8672 126.171 53.6026 126.171 48.3549C126.171 43.1071 121.549 38.8425 115.824 38.8425Z" fill="#00BFFF"/>
<path d="M77.9162 188.675C77.9162 181.209 79.9086 175.483 83.8933 171.497C87.878 167.512 93.6027 165.519 101.067 165.519H144.368C151.833 165.519 157.557 167.512 161.542 171.497C165.527 175.483 167.519 181.209 167.519 188.675V240.953C167.519 243.544 168.236 245.563 169.684 246.998C171.132 248.446 173.137 249.164 175.727 249.164H180.204C182.794 249.164 184.813 248.446 186.247 246.998C187.695 245.55 188.412 243.544 188.412 240.953V188.675C188.412 181.209 190.404 175.483 194.389 171.497C198.374 167.512 204.099 165.519 211.563 165.519H254.864C262.328 165.519 268.053 167.512 272.038 171.497C276.023 175.483 278.015 181.209 278.015 188.675V240.953C278.015 243.544 278.732 245.563 280.18 246.998C281.628 248.446 283.633 249.164 286.223 249.164H290.261C292.851 249.164 294.87 248.446 296.305 246.998C297.752 245.55 298.47 243.544 298.47 240.953V188.675C298.47 181.209 300.462 175.483 304.447 171.497C308.431 167.512 314.156 165.519 321.621 165.519H364.921C372.386 165.519 378.111 167.512 382.095 171.497C386.08 175.483 388.072 181.209 388.072 188.675V246.918C388.072 254.385 386.08 260.111 382.095 264.096C378.111 268.082 372.386 270.075 364.921 270.075H263.843C256.378 270.075 250.653 268.281 246.669 264.694C242.684 261.107 240.691 255.939 240.691 249.164H225.762C225.762 255.939 223.77 261.107 219.785 264.694C215.8 268.281 210.076 270.075 202.611 270.075H101.054C93.5894 270.075 87.8647 268.082 83.88 264.096C79.8953 260.111 77.903 254.385 77.903 246.918V188.675H77.9162Z" fill="#00BFFF"/>
<path d="M399.084 188.675C399.084 181.209 401.076 175.483 405.061 171.497C409.045 167.512 414.77 165.519 422.235 165.519H465.535C473 165.519 478.725 167.512 482.709 171.497C486.694 175.483 488.686 181.209 488.686 188.675V207.049H509.593V188.675C509.593 181.209 511.585 175.483 515.57 171.497C519.554 167.512 525.279 165.519 532.744 165.519H576.044C583.509 165.519 589.234 167.512 593.218 171.497C597.203 175.483 599.195 181.209 599.195 188.675V246.918C599.195 254.385 597.203 260.111 593.218 264.096C589.234 268.082 583.509 270.075 576.044 270.075H532.744C525.279 270.075 519.554 268.082 515.57 264.096C511.585 260.111 509.593 254.385 509.593 246.918V227.947H488.686V246.918C488.686 254.385 486.694 260.111 482.709 264.096C478.725 268.082 473 270.075 465.535 270.075H422.235C414.77 270.075 409.045 268.082 405.061 264.096C401.076 260.111 399.084 254.385 399.084 246.918V188.675Z" fill="#00BFFF"/>
<path d="M610.206 188.675C610.206 181.209 612.199 175.483 616.184 171.497C620.168 167.512 625.893 165.519 633.358 165.519H787.154C794.619 165.519 800.343 167.512 804.328 171.497C808.313 175.483 810.305 181.209 810.305 188.675V246.918C810.305 254.385 808.313 260.111 804.328 264.096C800.343 268.082 794.619 270.075 787.154 270.075H743.854C736.389 270.075 730.664 268.082 726.68 264.096C722.695 260.111 720.702 254.385 720.702 246.918V227.947H699.796V246.918C699.796 254.385 697.804 260.111 693.819 264.096C689.834 268.082 684.11 270.075 676.645 270.075H633.344C625.88 270.075 620.155 268.082 616.17 264.096C612.186 260.111 610.193 254.385 610.193 246.918V188.675H610.206ZM699.796 207.049H720.702V194.654C720.702 192.063 719.985 190.044 718.537 188.609C717.09 187.161 715.084 186.443 712.494 186.443H708.018C705.428 186.443 703.409 187.161 701.974 188.609C700.527 190.057 699.809 192.063 699.809 194.654V207.049H699.796Z" fill="#00BFFF"/>
<path d="M821.33 175.988C821.33 172.6 822.299 170.009 824.238 168.216C826.178 166.422 828.94 165.532 832.527 165.532H1004.23C1007.81 165.532 1010.58 166.422 1012.52 168.216C1014.46 170.009 1015.42 172.6 1015.42 175.988C1015.42 179.375 1014.46 181.966 1012.52 183.76C1010.58 185.553 1007.81 186.443 1004.23 186.443H963.172V246.932C963.172 254.398 961.18 260.124 957.195 264.11C953.21 268.095 947.485 270.088 940.021 270.088H896.72C889.256 270.088 883.531 268.095 879.546 264.11C875.561 260.124 873.569 254.398 873.569 246.932V186.443H832.513C828.927 186.443 826.164 185.553 824.225 183.76C822.299 181.966 821.33 179.375 821.33 175.988Z" fill="#00BFFF"/>
<path d="M138.842 1034.07C119.371 1034.07 104.401 1028.83 93.9215 1018.34C83.4285 1007.85 78.1952 992.88 78.1952 973.391V972.487C78.1952 953.011 83.4285 938.038 93.9215 927.556C104.401 917.074 119.371 911.826 138.842 911.826H302.826V867.785H102.449C91.6635 867.785 83.3488 865.088 77.5178 859.694C71.6736 854.3 68.7515 846.515 68.7515 836.325C68.7515 826.148 71.6736 818.35 77.5178 812.956C83.3621 807.562 91.6635 804.865 102.449 804.865H502.752C525.213 804.865 542.44 810.857 554.421 822.84C566.401 834.824 572.392 852.055 572.392 874.521V900.587C572.392 923.052 566.401 940.283 554.421 952.267C542.44 964.25 525.213 970.242 502.752 970.242H347.761V973.391C347.761 992.867 342.514 1007.84 332.034 1018.34C321.541 1028.83 306.572 1034.07 287.113 1034.07H138.842ZM97.9594 1119.45C91.6635 1119.45 86.8022 1117.74 83.3621 1114.28C79.9086 1110.84 78.1952 1105.97 78.1952 1099.68V1076.31C78.1952 1070.02 79.9086 1065.15 83.3621 1061.71C86.8022 1058.27 91.6768 1056.54 97.9594 1056.54H327.983C334.279 1056.54 339.14 1058.27 342.58 1061.71C346.021 1065.15 347.747 1070.03 347.747 1076.31V1099.68C347.747 1105.98 346.021 1110.84 342.58 1114.28C339.127 1117.72 334.266 1119.45 327.983 1119.45H97.9594Z" fill="#00BFFF"/>
<path d="M72.3908 687.635C72.3908 681.484 74.0113 676.767 77.2654 673.459C80.5196 670.165 85.2614 668.517 91.5041 668.517H205.892C212.041 668.517 216.757 670.165 220.064 673.459C223.358 676.754 225.005 681.484 225.005 687.635V742.969C225.005 749.12 223.358 753.836 220.064 757.144C216.77 760.439 212.041 762.086 205.892 762.086H91.5041C85.2614 762.086 80.5196 760.439 77.2654 757.144C74.0113 753.849 72.3908 749.12 72.3908 742.969V687.635ZM140.556 739.103C140.556 741.148 141.14 742.756 142.296 743.912C143.451 745.068 145.059 745.652 147.104 745.652H150.305C152.351 745.652 153.958 745.068 155.113 743.912C156.269 742.756 156.853 741.148 156.853 739.103V691.514C156.853 689.468 156.269 687.861 155.113 686.705C153.958 685.549 152.351 684.965 150.305 684.965H147.104C145.059 684.965 143.451 685.549 142.296 686.705C141.14 687.861 140.556 689.468 140.556 691.514V739.103Z" fill="#00BFFF"/>
<path d="M234.09 687.104C234.09 681.138 235.671 676.542 238.832 673.34C241.993 670.138 246.602 668.531 252.659 668.531H360.365C363.221 668.531 365.426 669.248 366.98 670.669C368.534 672.091 369.318 674.097 369.318 676.688C369.318 679.358 368.534 681.417 366.98 682.839C365.426 684.26 363.221 684.978 360.365 684.978H302.229V706.899H360.365C363.221 706.899 365.426 707.59 366.98 708.971C368.534 710.353 369.318 712.386 369.318 715.056C369.318 717.726 368.534 719.786 366.98 721.207C365.426 722.629 363.221 723.346 360.365 723.346H302.229V743.527C302.229 749.505 300.621 754.088 297.42 757.29C294.219 760.492 289.624 762.1 283.66 762.1H252.659C246.602 762.1 241.993 760.492 238.832 757.29C235.671 754.075 234.09 749.492 234.09 743.527V687.104Z" fill="#00BFFF"/>
<path d="M452.718 687.104C452.718 681.138 454.298 676.542 457.46 673.34C460.621 670.138 465.23 668.531 471.287 668.531H578.993C581.849 668.531 584.054 669.248 585.608 670.669C587.162 672.091 587.945 674.097 587.945 676.688C587.945 679.358 587.162 681.417 585.608 682.839C584.054 684.26 581.849 684.978 578.993 684.978H520.856V706.899H578.993C581.849 706.899 584.054 707.59 585.608 708.971C587.162 710.353 587.945 712.386 587.945 715.056C587.945 717.726 587.162 719.786 585.608 721.207C584.054 722.629 581.849 723.346 578.993 723.346H520.856V743.527C520.856 749.505 519.249 754.088 516.048 757.29C512.834 760.492 508.251 762.1 502.288 762.1H471.287C465.23 762.1 460.621 760.492 457.46 757.29C454.298 754.075 452.718 749.492 452.718 743.527V687.104Z" fill="#00BFFF"/>
<path d="M597.044 687.104C597.044 681.045 598.624 676.435 601.786 673.273C604.947 670.111 609.556 668.531 615.612 668.531H646.613C652.577 668.531 657.173 670.111 660.374 673.273C663.588 676.435 665.182 681.045 665.182 687.104V745.652H723.319C726.175 745.652 728.38 746.37 729.934 747.791C731.488 749.213 732.271 751.219 732.271 753.809C732.271 756.48 731.488 758.539 729.934 759.961C728.38 761.382 726.175 762.1 723.319 762.1H615.612C609.556 762.1 604.947 760.492 601.786 757.29C598.624 754.075 597.044 749.492 597.044 743.527V687.104Z" fill="#00BFFF"/>
<path d="M741.37 687.104C741.37 681.138 742.95 676.542 746.112 673.34C749.273 670.138 753.882 668.531 759.939 668.531H875.402C881.366 668.531 885.962 670.138 889.163 673.34C892.364 676.555 893.971 681.138 893.971 687.104V743.513C893.971 749.492 892.364 754.075 889.163 757.277C885.948 760.479 881.366 762.086 875.402 762.086H844.401C838.344 762.086 833.735 760.479 830.574 757.277C827.413 754.062 825.832 749.478 825.832 743.513V723.333H809.522V743.513C809.522 749.492 807.914 754.075 804.713 757.277C801.512 760.479 796.917 762.086 790.953 762.086H759.952C753.895 762.086 749.286 760.479 746.125 757.277C742.964 754.062 741.383 749.478 741.383 743.513V687.104H741.37ZM809.522 706.885H825.832V691.514C825.832 689.468 825.248 687.861 824.092 686.705C822.937 685.549 821.33 684.965 819.284 684.965H816.07C814.024 684.965 812.417 685.549 811.262 686.705C810.106 687.861 809.522 689.468 809.522 691.514V706.885Z" fill="#00BFFF"/>
<path d="M903.069 676.674C903.069 674.097 903.853 672.091 905.407 670.656C906.961 669.235 909.166 668.517 912.022 668.517H1042.99C1045.84 668.517 1048.05 669.235 1049.6 670.656C1051.15 672.078 1051.94 674.084 1051.94 676.674C1051.94 679.345 1051.15 681.404 1049.6 682.826C1048.05 684.247 1045.84 684.965 1042.99 684.965H1011.59V743.513C1011.59 749.492 1009.98 754.075 1006.78 757.277C1003.56 760.479 998.981 762.086 993.017 762.086H962.016C955.96 762.086 951.351 760.479 948.189 757.277C945.028 754.062 943.448 749.478 943.448 743.513V684.965H912.048C909.193 684.965 906.988 684.247 905.434 682.826C903.853 681.404 903.069 679.345 903.069 676.674Z" fill="#00BFFF"/>
<path d="M74.0245 530.774C74.0245 524.703 75.6317 520.093 78.846 516.931C82.0604 513.782 86.6428 512.201 92.5933 512.201H112.557C118.507 512.201 123.09 513.782 126.304 516.931C129.518 520.08 131.125 524.703 131.125 530.774V565.462H146.015V530.774C146.015 524.703 147.595 520.093 150.743 516.931C153.891 513.782 158.447 512.201 164.411 512.201H184.56C190.511 512.201 195.067 513.782 198.228 516.931C201.376 520.08 202.956 524.703 202.956 530.774V616.279C202.956 622.351 201.376 626.961 198.228 630.123C195.08 633.271 190.524 634.852 184.56 634.852H164.411C158.46 634.852 153.905 633.271 150.743 630.123C147.595 626.974 146.015 622.351 146.015 616.279V580.887H131.125V616.279C131.125 622.351 129.518 626.961 126.304 630.123C123.09 633.271 118.507 634.852 112.557 634.852H92.5933C86.6428 634.852 82.0471 633.271 78.846 630.123C75.6317 626.974 74.0245 622.351 74.0245 616.279V530.774Z" fill="#00BFFF"/>
<path d="M211.882 530.774C211.882 524.703 213.489 520.093 216.704 516.931C219.918 513.782 224.5 512.201 230.451 512.201H250.414C256.365 512.201 260.947 513.782 264.161 516.931C267.376 520.08 268.983 524.703 268.983 530.774V613.117C268.983 615.11 269.541 616.651 270.643 617.754C271.746 618.87 273.3 619.414 275.292 619.414H277.563C279.542 619.414 281.096 618.857 282.199 617.754C283.301 616.651 283.859 615.097 283.859 613.117V530.774C283.859 524.703 285.44 520.093 288.588 516.931C291.736 513.782 296.358 512.201 302.428 512.201H322.391C328.342 512.201 332.898 513.782 336.059 516.931C339.207 520.08 340.787 524.703 340.787 530.774V614.167C340.787 620.942 339.034 626.084 335.528 629.578C332.021 633.085 326.947 634.839 320.293 634.839H232.536C225.882 634.839 220.768 633.085 217.208 629.578C213.649 626.07 211.869 620.942 211.869 614.167V530.774H211.882Z" fill="#00BFFF"/>
<path d="M350.43 530.774C350.43 524.703 352.011 520.093 355.159 516.931C358.307 513.782 362.863 512.201 368.826 512.201H428.212C433.936 512.201 438.253 513.517 441.175 516.147C444.097 518.778 445.559 522.604 445.559 527.626H456.238C456.238 522.723 457.699 518.924 460.621 516.24C463.543 513.556 467.806 512.215 473.412 512.215H532.611C538.562 512.215 543.117 513.796 546.279 516.944C549.427 520.093 551.007 524.716 551.007 530.788V616.292C551.007 622.364 549.427 626.974 546.279 630.136C543.131 633.284 538.575 634.865 532.611 634.865H512.648C506.578 634.865 501.969 633.284 498.807 630.136C495.66 626.987 494.079 622.364 494.079 616.292V533.949C494.079 531.97 493.521 530.416 492.419 529.313C491.303 528.21 489.762 527.652 487.783 527.652H485.685C483.692 527.652 482.151 528.21 481.049 529.313C479.933 530.429 479.389 531.97 479.389 533.949V616.292C479.389 622.364 477.808 626.974 474.66 630.136C471.512 633.284 466.89 634.865 460.82 634.865H440.857C434.906 634.865 430.31 633.284 427.109 630.136C423.895 626.987 422.288 622.364 422.288 616.292V533.949C422.288 531.97 421.73 530.416 420.628 529.313C419.512 528.21 417.971 527.652 415.979 527.652H413.707C411.835 527.652 410.32 528.21 409.152 529.313C407.983 530.429 407.398 531.97 407.398 533.949V616.292C407.398 622.364 405.818 626.974 402.67 630.136C399.522 633.284 394.966 634.865 389.002 634.865H368.853C362.902 634.865 358.347 633.284 355.185 630.136C352.037 626.987 350.457 622.364 350.457 616.292V530.774H350.43Z" fill="#00BFFF"/>
<path d="M561.155 530.774C561.155 524.703 562.762 520.093 565.976 516.931C569.191 513.782 573.773 512.201 579.724 512.201H671.691C677.641 512.201 682.197 513.782 685.358 516.931C688.506 520.08 690.087 524.703 690.087 530.774V616.279C690.087 622.351 688.506 626.961 685.358 630.123C682.21 633.271 677.654 634.852 671.691 634.852H651.541C645.591 634.852 641.035 633.271 637.874 630.123C634.726 626.974 633.145 622.351 633.145 616.279V580.887H618.256V616.279C618.256 622.351 616.649 626.961 613.434 630.123C610.22 633.271 605.637 634.852 599.687 634.852H579.724C573.773 634.852 569.177 633.271 565.976 630.123C562.762 626.974 561.155 622.351 561.155 616.279V530.774ZM618.256 565.462H633.145V533.923C633.145 531.943 632.587 530.389 631.485 529.286C630.369 528.184 628.828 527.626 626.836 527.626H624.565C622.572 527.626 621.032 528.184 619.916 529.286C618.8 530.402 618.256 531.943 618.256 533.923V565.462Z" fill="#00BFFF"/>
<path d="M700.407 530.774C700.407 524.703 701.988 520.093 705.136 516.931C708.284 513.782 712.839 512.201 718.803 512.201H782.386C788.336 512.201 793.065 513.809 796.571 517.024C800.078 520.239 801.831 524.822 801.831 530.774V613.649C801.831 615.402 802.362 616.797 803.412 617.86C804.461 618.923 805.869 619.441 807.622 619.441H809.894C811.766 619.441 813.188 618.91 814.184 617.86C815.18 616.811 815.671 615.402 815.671 613.649V530.774C815.671 524.703 817.278 520.093 820.493 516.931C823.707 513.782 828.29 512.201 834.24 512.201H854.203C860.154 512.201 864.736 513.782 867.951 516.931C871.165 520.08 872.772 524.703 872.772 530.774V616.279C872.772 622.351 871.165 626.961 867.951 630.123C864.736 633.271 860.154 634.852 854.203 634.852H790.793C784.723 634.852 779.929 633.245 776.435 630.03C772.929 626.814 771.176 622.231 771.176 616.279V533.405C771.176 531.651 770.671 530.256 769.688 529.193C768.692 528.144 767.257 527.612 765.398 527.612H763.126C761.373 527.612 759.978 528.144 758.916 529.193C757.867 530.243 757.335 531.651 757.335 533.405V616.279C757.335 622.351 755.755 626.961 752.607 630.123C749.459 633.271 744.903 634.852 738.939 634.852H718.79C712.839 634.852 708.284 633.271 705.122 630.123C701.974 626.974 700.394 622.351 700.394 616.279V530.774H700.407Z" fill="#00BFFF"/>
<path d="M893.094 634.852C890.172 634.852 887.954 634.188 886.44 632.833C884.926 631.491 884.168 629.591 884.168 627.133C884.168 624.569 884.926 622.643 886.44 621.354C887.954 620.065 890.172 619.428 893.094 619.428H940.565V586.839C940.565 584.859 940.007 583.278 938.905 582.109C937.789 580.94 936.249 580.355 934.256 580.355H902.02C896.069 580.355 891.514 578.774 888.352 575.626C885.204 572.477 883.624 567.92 883.624 561.955V530.774C883.624 524.703 885.204 520.093 888.352 516.931C891.5 513.782 896.056 512.201 902.02 512.201H984.517C987.319 512.201 989.484 512.879 990.998 514.221C992.513 515.562 993.27 517.462 993.27 519.92C993.27 522.378 992.513 524.278 990.998 525.62C989.484 526.961 987.319 527.639 984.517 527.639H940.552V558.82C940.552 560.813 941.136 562.354 942.305 563.456C943.474 564.572 944.988 565.117 946.861 565.117H979.097C985.167 565.117 989.776 566.698 992.938 569.847C996.099 572.995 997.666 577.552 997.666 583.517V616.279C997.666 622.351 996.086 626.961 992.938 630.123C989.79 633.271 985.167 634.852 979.097 634.852H893.094Z" fill="#00BFFF"/>
<path d="M73.6393 429.273C73.6393 425.008 74.7683 421.74 77.0263 419.482C79.2843 417.223 82.5518 416.094 86.8154 416.094H163.388C167.652 416.094 170.919 417.223 173.177 419.482C175.435 421.74 176.564 425.008 176.564 429.273V468.837C176.564 473.101 175.435 476.37 173.177 478.628C170.919 480.887 167.652 482.016 163.388 482.016H86.8287C82.5651 482.016 79.2976 480.887 77.0396 478.628C74.7816 476.37 73.6526 473.101 73.6526 468.837V429.273H73.6393ZM119.596 466.379C119.596 467.761 119.981 468.85 120.778 469.634C121.562 470.418 122.651 470.816 124.033 470.816H126.198C127.579 470.816 128.655 470.431 129.452 469.634C130.235 468.85 130.634 467.761 130.634 466.379V431.717C130.634 430.336 130.235 429.26 129.452 428.462C128.668 427.679 127.579 427.28 126.198 427.28H124.033C122.651 427.28 121.562 427.679 120.778 428.462C119.995 429.246 119.596 430.336 119.596 431.717V466.379Z" fill="#00BFFF"/>
<path d="M182.78 428.796C182.78 424.717 183.883 421.582 186.074 419.376C188.266 417.184 191.414 416.081 195.492 416.081H267.535C269.474 416.081 270.989 416.573 272.051 417.543C273.114 418.513 273.658 419.881 273.658 421.635C273.658 423.455 273.127 424.85 272.051 425.82C270.989 426.789 269.474 427.281 267.535 427.281H228.737V443.29H267.535C269.474 443.29 270.989 443.755 272.051 444.698C273.114 445.641 273.658 447.023 273.658 448.843C273.658 450.663 273.127 452.058 272.051 453.028C270.989 453.998 269.474 454.489 267.535 454.489H228.737V469.276C228.737 473.355 227.635 476.503 225.443 478.695C223.238 480.888 220.104 481.99 216.026 481.99H195.492C191.414 481.99 188.266 480.888 186.074 478.695C183.87 476.503 182.78 473.355 182.78 469.276V428.796Z" fill="#00BFFF"/>
<path d="M330.626 421.635C330.626 419.881 331.158 418.513 332.233 417.543C333.296 416.573 334.81 416.081 336.75 416.081H425.077C427.016 416.081 428.531 416.573 429.593 417.543C430.656 418.513 431.2 419.881 431.2 421.635C431.2 423.455 430.669 424.85 429.593 425.82C428.531 426.789 427.016 427.281 425.077 427.281H403.892V469.289C403.892 473.368 402.789 476.517 400.598 478.709C398.393 480.901 395.258 482.004 391.181 482.004H370.646C366.568 482.004 363.42 480.901 361.229 478.709C359.037 476.517 357.935 473.368 357.935 469.289V427.294H336.75C334.797 427.294 333.296 426.803 332.233 425.833C331.158 424.863 330.626 423.468 330.626 421.635Z" fill="#00BFFF"/>
<path d="M437.403 428.796C437.403 424.717 438.506 421.582 440.697 419.376C442.889 417.184 446.037 416.081 450.114 416.081H470.649C474.726 416.081 477.861 417.184 480.066 419.376C482.258 421.568 483.36 424.717 483.36 428.796V443.303H494.371V428.796C494.371 424.717 495.474 421.582 497.665 419.376C499.857 417.184 503.005 416.081 507.082 416.081H527.617C531.694 416.081 534.829 417.184 537.034 419.376C539.226 421.568 540.328 424.717 540.328 428.796V469.303C540.328 473.381 539.226 476.53 537.034 478.722C534.829 480.914 531.694 482.017 527.617 482.017H507.082C503.005 482.017 499.857 480.914 497.665 478.722C495.46 476.53 494.371 473.381 494.371 469.303V454.516H483.36V469.303C483.36 473.381 482.258 476.53 480.066 478.722C477.874 480.914 474.726 482.017 470.649 482.017H450.114C446.037 482.017 442.889 480.914 440.697 478.722C438.506 476.53 437.403 473.381 437.403 469.303V428.796Z" fill="#00BFFF"/>
<path d="M546.544 463.842C546.544 459.697 547.501 456.549 549.413 454.383C551.326 452.218 554.075 451.128 557.648 451.128V446.983C554.075 446.983 551.326 445.881 549.413 443.688C547.501 441.496 546.544 438.348 546.544 434.269V428.809C546.544 424.73 547.647 421.595 549.838 419.389C552.03 417.197 555.178 416.095 559.256 416.095H631.299C633.238 416.095 634.752 416.586 635.815 417.556C636.878 418.526 637.422 419.894 637.422 421.648C637.422 423.468 636.891 424.863 635.815 425.833C634.752 426.803 633.238 427.294 631.299 427.294H592.501V442.838H631.299C633.238 442.838 634.752 443.33 635.815 444.3C636.878 445.269 637.422 446.638 637.422 448.392C637.422 450.212 636.891 451.607 635.815 452.576C634.752 453.546 633.238 454.038 631.299 454.038H592.501V470.804H631.299C633.238 470.804 634.752 471.296 635.815 472.265C636.878 473.235 637.422 474.604 637.422 476.357C637.422 478.177 636.891 479.572 635.815 480.542C634.752 481.512 633.238 482.004 631.299 482.004H559.256C555.178 482.004 552.03 480.901 549.838 478.709C547.647 476.517 546.544 473.368 546.544 469.289V463.842Z" fill="#00BFFF"/>
<path d="M73.3604 308.749C73.3604 305.215 74.3167 302.491 76.2427 300.578C78.1686 298.652 80.8915 297.695 84.4113 297.695H93.1113C96.7108 297.695 99.4735 298.652 101.399 300.578C103.325 302.505 104.282 305.228 104.282 308.749V368.971C104.282 372.505 103.325 375.229 101.399 377.142C99.4735 379.068 96.7108 380.025 93.1113 380.025H84.4113C80.8782 380.025 78.1553 379.068 76.2427 377.142C74.3167 375.216 73.3604 372.492 73.3604 368.971V308.749Z" fill="#00BFFF"/>
<path d="M116.395 380.038C114.748 380.038 113.46 379.653 112.517 378.856C111.574 378.072 111.109 376.929 111.109 375.441C111.109 374.033 111.574 372.957 112.517 372.213C113.46 371.469 114.748 371.097 116.395 371.097H141.565V346.625C141.565 345.443 141.233 344.526 140.569 343.862C139.905 343.198 138.975 342.866 137.806 342.866H121.814C118.202 342.866 115.465 341.922 113.579 340.049C111.693 338.176 110.763 335.426 110.763 331.812V308.762C110.763 305.228 111.707 302.505 113.579 300.591C115.465 298.665 118.202 297.708 121.814 297.708H163.68C165.327 297.708 166.616 298.107 167.559 298.891C168.502 299.675 168.967 300.777 168.967 302.186C168.967 303.594 168.502 304.697 167.559 305.48C166.616 306.264 165.327 306.663 163.68 306.663H141.579V330.311C141.579 331.493 141.911 332.41 142.575 333.074C143.239 333.738 144.169 334.071 145.337 334.071H161.329C164.929 334.071 167.692 335.014 169.618 336.887C171.544 338.774 172.5 341.51 172.5 345.124V368.998C172.5 372.532 171.544 375.255 169.618 377.168C167.692 379.095 164.929 380.051 161.329 380.051H116.395V380.038Z" fill="#00BFFF"/>
<path d="M222.229 302.172C222.229 300.764 222.681 299.662 223.584 298.878C224.487 298.094 225.802 297.695 227.529 297.695H287.857C289.504 297.695 290.793 298.094 291.736 298.878C292.679 299.662 293.144 300.764 293.144 302.172C293.144 303.581 292.679 304.683 291.736 305.467C290.793 306.251 289.504 306.65 287.857 306.65H273.154V368.985C273.154 372.519 272.197 375.242 270.271 377.155C268.345 379.082 265.583 380.038 261.983 380.038H253.283C249.75 380.038 247.027 379.082 245.115 377.155C243.189 375.229 242.232 372.505 242.232 368.985V306.65H227.529C225.802 306.65 224.487 306.264 223.584 305.467C222.681 304.683 222.229 303.581 222.229 302.172Z" fill="#00BFFF"/>
<path d="M299.028 308.749C299.028 305.215 299.984 302.491 301.91 300.578C303.836 298.652 306.559 297.695 310.078 297.695H318.778C322.378 297.695 325.141 298.652 327.067 300.578C328.993 302.505 329.949 305.228 329.949 308.749V334.164H338.41V308.762C338.41 305.228 339.366 302.505 341.292 300.592C343.218 298.665 345.941 297.709 349.461 297.709H358.161C361.76 297.709 364.523 298.665 366.449 300.592C368.375 302.518 369.331 305.241 369.331 308.762V368.985C369.331 372.519 368.375 375.242 366.449 377.155C364.523 379.082 361.76 380.038 358.161 380.038H349.461C345.928 380.038 343.205 379.082 341.292 377.155C339.366 375.229 338.41 372.505 338.41 368.985V343.224H329.949V368.985C329.949 372.519 328.993 375.242 327.067 377.155C325.141 379.082 322.378 380.038 318.778 380.038H310.078C306.545 380.038 303.822 379.082 301.91 377.155C299.984 375.229 299.028 372.505 299.028 368.985V308.749Z" fill="#00BFFF"/>
<path d="M375.228 351.807C375.228 348.206 375.972 345.443 377.46 343.517C378.948 341.59 381.059 340.634 383.809 340.634V336.993C381.059 336.993 378.948 336.037 377.46 334.111C375.972 332.184 375.228 329.461 375.228 325.94V308.762C375.228 305.228 376.185 302.505 378.111 300.591C380.037 298.665 382.76 297.708 386.279 297.708H428.145C429.872 297.708 431.187 298.107 432.09 298.891C432.993 299.675 433.445 300.777 433.445 302.186C433.445 303.594 432.993 304.697 432.09 305.48C431.187 306.264 429.872 306.663 428.145 306.663H406.15V334.071H428.145C429.872 334.071 431.187 334.443 432.09 335.187C432.993 335.931 433.445 337.007 433.445 338.415C433.445 339.903 432.993 341.045 432.09 341.829C431.187 342.613 429.872 343.012 428.145 343.012H406.15V371.124H428.145C429.872 371.124 431.187 371.496 432.09 372.24C432.993 372.984 433.445 374.06 433.445 375.468C433.445 376.956 432.993 378.098 432.09 378.882C431.187 379.666 429.872 380.065 428.145 380.065H386.279C382.746 380.065 380.023 379.108 378.111 377.182C376.185 375.255 375.228 372.532 375.228 369.011V351.807Z" fill="#00BFFF"/>
<path d="M494.345 380.038C490.732 380.038 487.996 379.082 486.11 377.155C484.223 375.229 483.294 372.505 483.294 368.985V308.762C483.294 305.228 484.237 302.505 486.11 300.591C487.996 298.665 490.732 297.708 494.345 297.708H542.44C546.04 297.708 548.789 298.665 550.675 300.591C552.561 302.518 553.491 305.241 553.491 308.762V331.693C553.491 335.306 552.548 338.07 550.675 339.983C548.789 341.909 546.053 342.866 542.44 342.866H514.095V368.971C514.095 372.505 513.152 375.229 511.28 377.142C509.394 379.068 506.657 380.025 503.045 380.025H494.345V380.038ZM518.93 334.164C520.112 334.164 521.029 333.831 521.693 333.167C522.357 332.503 522.689 331.573 522.689 330.404V310.17C522.689 308.988 522.357 308.071 521.693 307.407C521.029 306.743 520.099 306.41 518.93 306.41H514.109V334.164H518.93Z" fill="#00BFFF"/>
<path d="M558.432 308.749C558.432 305.215 559.375 302.491 561.248 300.578C563.134 298.652 565.87 297.695 569.483 297.695H578.183C581.782 297.695 584.532 298.652 586.418 300.578C588.304 302.505 589.234 305.228 589.234 308.749V367.324C589.234 368.506 589.566 369.423 590.23 370.087C590.894 370.752 591.824 371.084 592.993 371.084H594.055C595.224 371.084 596.154 370.752 596.818 370.087C597.482 369.423 597.814 368.493 597.814 367.324V308.749C597.814 305.215 598.757 302.491 600.63 300.578C602.516 298.652 605.252 297.695 608.865 297.695H617.565C621.165 297.695 623.914 298.652 625.8 300.578C627.686 302.505 628.616 305.228 628.616 308.749V367.204C628.616 371.363 627.514 374.538 625.322 376.73C623.13 378.922 619.956 380.025 615.798 380.025H571.223C567.065 380.025 563.891 378.922 561.699 376.73C559.508 374.538 558.405 371.363 558.405 367.204V308.749H558.432Z" fill="#00BFFF"/>
<path d="M645.923 380.038C642.31 380.038 639.574 379.082 637.688 377.155C635.802 375.229 634.872 372.505 634.872 368.985V308.762C634.872 305.228 635.815 302.505 637.688 300.591C639.574 298.665 642.31 297.708 645.923 297.708H694.138C697.671 297.708 700.367 298.652 702.253 300.525C704.139 302.412 705.069 305.108 705.069 308.642V322.526C705.069 326.06 704.126 328.743 702.253 330.577C700.367 332.423 697.671 333.34 694.138 333.34H678.385V337.698H694.031C697.631 337.698 700.38 338.641 702.267 340.514C704.153 342.401 705.082 345.137 705.082 348.751V368.985C705.082 372.519 704.139 375.242 702.267 377.155C700.38 379.082 697.644 380.038 694.031 380.038H685.332C681.719 380.038 678.983 379.082 677.096 377.155C675.21 375.229 674.281 372.505 674.281 368.985V342.879H665.7V368.985C665.7 372.519 664.757 375.242 662.884 377.155C660.998 379.082 658.262 380.038 654.649 380.038H645.923ZM670.508 328.398C671.677 328.398 672.607 328.066 673.271 327.401C673.935 326.737 674.267 325.807 674.267 324.638V310.17C674.267 308.988 673.935 308.071 673.271 307.407C672.607 306.743 671.677 306.41 670.508 306.41H665.687V328.411H670.508V328.398Z" fill="#00BFFF"/>
<path d="M723.186 380.038C719.573 380.038 716.837 379.082 714.951 377.155C713.065 375.229 712.135 372.505 712.135 368.985V308.762C712.135 305.228 713.078 302.505 714.951 300.591C716.837 298.665 719.573 297.708 723.186 297.708H771.282C774.881 297.708 777.631 298.665 779.517 300.591C781.403 302.518 782.333 305.241 782.333 308.762V331.693C782.333 335.306 781.389 338.07 779.517 339.983C777.631 341.909 774.894 342.866 771.282 342.866H742.937V368.971C742.937 372.505 741.994 375.229 740.121 377.142C738.235 379.068 735.499 380.025 731.886 380.025H723.186V380.038ZM747.759 334.164C748.941 334.164 749.857 333.831 750.521 333.167C751.185 332.503 751.517 331.573 751.517 330.404V310.17C751.517 308.988 751.185 308.071 750.521 307.407C749.857 306.743 748.927 306.41 747.759 306.41H742.937V334.164H747.759Z" fill="#00BFFF"/>
<path d="M787.513 310.516C787.513 306.357 788.615 303.182 790.807 300.99C792.998 298.798 796.173 297.695 800.33 297.695H844.893C849.13 297.695 852.344 298.798 854.536 300.99C856.727 303.182 857.83 306.357 857.83 310.516V367.204C857.83 371.363 856.727 374.538 854.536 376.73C852.344 378.922 849.13 380.025 844.893 380.025H800.33C796.173 380.025 792.998 378.922 790.807 376.73C788.615 374.538 787.513 371.363 787.513 367.204V310.516ZM818.434 367.337C818.434 368.52 818.766 369.436 819.43 370.101C820.094 370.765 820.984 371.097 822.073 371.097H823.136C824.318 371.097 825.235 370.765 825.899 370.101C826.563 369.436 826.895 368.506 826.895 367.337V310.409C826.895 309.227 826.563 308.31 825.899 307.646C825.235 306.982 824.305 306.65 823.136 306.65H822.073C820.971 306.65 820.094 306.982 819.43 307.646C818.766 308.31 818.434 309.24 818.434 310.409V367.337Z" fill="#00BFFF"/>
<path d="M869.943 380.038C868.296 380.038 867.008 379.653 866.065 378.856C865.122 378.072 864.657 376.929 864.657 375.441C864.657 374.033 865.122 372.957 866.065 372.213C867.008 371.469 868.296 371.097 869.943 371.097H895.113V346.625C895.113 345.443 894.781 344.526 894.117 343.862C893.453 343.198 892.523 342.866 891.354 342.866H875.362C871.749 342.866 869.013 341.922 867.127 340.049C865.241 338.163 864.311 335.426 864.311 331.812V308.762C864.311 305.228 865.254 302.505 867.127 300.591C869.013 298.665 871.749 297.708 875.362 297.708H917.228C918.875 297.708 920.163 298.107 921.107 298.891C922.05 299.675 922.515 300.777 922.515 302.186C922.515 303.594 922.05 304.697 921.107 305.48C920.163 306.264 918.875 306.663 917.228 306.663H895.113V330.311C895.113 331.493 895.445 332.41 896.109 333.074C896.773 333.738 897.703 334.071 898.872 334.071H914.864C918.463 334.071 921.226 335.014 923.152 336.887C925.078 338.774 926.034 341.51 926.034 345.124V368.998C926.034 372.532 925.078 375.255 923.152 377.168C921.226 379.095 918.463 380.051 914.864 380.051H869.943V380.038Z" fill="#00BFFF"/>
<path d="M932.383 351.807C932.383 348.206 933.127 345.443 934.615 343.517C936.102 341.59 938.214 340.634 940.964 340.634V336.993C938.214 336.993 936.102 336.037 934.615 334.111C933.127 332.184 932.383 329.461 932.383 325.94V308.762C932.383 305.228 933.34 302.505 935.266 300.591C937.191 298.665 939.914 297.708 943.434 297.708H985.3C987.027 297.708 988.342 298.107 989.245 298.891C990.148 299.675 990.6 300.777 990.6 302.186C990.6 303.594 990.148 304.697 989.245 305.48C988.342 306.264 987.027 306.663 985.3 306.663H963.305V334.071H985.3C987.027 334.071 988.342 334.443 989.245 335.187C990.148 335.931 990.6 337.007 990.6 338.415C990.6 339.903 990.148 341.045 989.245 341.829C988.342 342.613 987.027 343.012 985.3 343.012H963.305V371.124H985.3C987.027 371.124 988.342 371.496 989.245 372.24C990.148 372.984 990.6 374.06 990.6 375.468C990.6 376.956 990.148 378.098 989.245 378.882C988.342 379.666 987.027 380.065 985.3 380.065H943.434C939.901 380.065 937.178 379.108 935.266 377.182C933.34 375.255 932.383 372.532 932.383 369.011V351.807Z" fill="#00BFFF"/>
</g>
<defs>
<filter id="filter0_d" x="-20" y="-14" width="1197" height="1269" filterUnits="userSpaceOnUse" color-interpolation-filters="sRGB">
<feFlood flood-opacity="0" result="BackgroundImageFix"/>
<feColorMatrix in="SourceAlpha" type="matrix" values="0 0 0 0 0 0 0 0 0 0 0 0 0 0 0 0 0 0 127 0"/>
<feOffset dx="10" dy="10"/>
<feGaussianBlur stdDeviation="17"/>
<feColorMatrix type="matrix" values="0 0 0 0 0 0 0 0 0 0.74902 0 0 0 0 1 0 0 0 0.45 0"/>
<feBlend mode="normal" in2="BackgroundImageFix" result="effect1_dropShadow"/>
<feBlend mode="normal" in="SourceGraphic" in2="effect1_dropShadow" result="shape"/>
</filter>
</defs>
</svg>
