<svg width="1151" height="1351" viewBox="0 0 1151 1351" fill="none" xmlns="http://www.w3.org/2000/svg">
<g filter="url(#filter0_d)">
<path d="M1058.72 1305.13H72.5341C47.044 1305.13 26.3696 1284.47 26.3696 1258.97V72.1645C26.3696 46.6744 47.0308 26 72.5341 26H1058.72C1084.21 26 1104.88 46.6612 1104.88 72.1645V1258.96C1104.88 1284.46 1084.21 1305.13 1058.72 1305.13Z" fill="#D7F7FF" stroke="#00BFFF" stroke-width="3" stroke-miterlimit="10" stroke-linecap="round" stroke-linejoin="round"/>
<path d="M26 68.0745H1105" stroke="#00BFFF" stroke-width="3" stroke-miterlimit="10"/>
<path d="M61.2138 56.055C65.7971 56.055 69.5126 52.7117 69.5126 48.5875C69.5126 44.4632 65.7971 41.1199 61.2138 41.1199C56.6305 41.1199 52.915 44.4632 52.915 48.5875C52.915 52.7117 56.6305 56.055 61.2138 56.055Z" fill="white"/>
<path d="M61.2139 43.099C64.697 43.099 67.5336 45.5662 67.5336 48.5875C67.5336 51.6088 64.697 54.076 61.2139 54.076C57.7307 54.076 54.8941 51.6088 54.8941 48.5875C54.8941 45.5662 57.7307 43.099 61.2139 43.099ZM61.2139 39.1409C55.5406 39.1409 50.936 43.376 50.936 48.5875C50.936 53.8122 55.5406 58.0341 61.2139 58.0341C66.8871 58.0341 71.4917 53.799 71.4917 48.5875C71.4917 43.3628 66.8871 39.1409 61.2139 39.1409Z" fill="#00BFFF"/>
<path d="M88.6298 56.055C93.2131 56.055 96.9286 52.7117 96.9286 48.5875C96.9286 44.4632 93.2131 41.1199 88.6298 41.1199C84.0465 41.1199 80.3311 44.4632 80.3311 48.5875C80.3311 52.7117 84.0465 56.055 88.6298 56.055Z" fill="white"/>
<path d="M88.6299 43.099C92.113 43.099 94.9496 45.5662 94.9496 48.5875C94.9496 51.6088 92.113 54.076 88.6299 54.076C85.1468 54.076 82.3101 51.6088 82.3101 48.5875C82.3101 45.5662 85.1468 43.099 88.6299 43.099ZM88.6299 39.1409C82.9566 39.1409 78.3521 43.376 78.3521 48.5875C78.3521 53.8122 82.9566 58.0341 88.6299 58.0341C94.3031 58.0341 98.9077 53.799 98.9077 48.5875C98.9077 43.3628 94.3163 39.1409 88.6299 39.1409Z" fill="#00BFFF"/>
<path d="M116.046 56.055C120.63 56.055 124.345 52.7117 124.345 48.5875C124.345 44.4632 120.63 41.1199 116.046 41.1199C111.463 41.1199 107.748 44.4632 107.748 48.5875C107.748 52.7117 111.463 56.055 116.046 56.055Z" fill="white"/>
<path d="M116.046 43.099C119.529 43.099 122.366 45.5662 122.366 48.5875C122.366 51.6088 119.529 54.076 116.046 54.076C112.563 54.076 109.727 51.6088 109.727 48.5875C109.727 45.5662 112.563 43.099 116.046 43.099ZM116.046 39.1409C110.373 39.1409 105.769 43.376 105.769 48.5875C105.769 53.8122 110.373 58.0341 116.046 58.0341C121.72 58.0341 126.324 53.799 126.324 48.5875C126.337 43.3628 121.733 39.1409 116.046 39.1409Z" fill="#00BFFF"/>
<path d="M159.4 1139.55C139.531 1139.55 124.253 1134.21 113.566 1123.51C102.866 1112.81 97.5224 1097.55 97.5224 1077.68V1076.77C97.5224 1056.91 102.866 1041.63 113.566 1030.93C124.253 1020.23 139.531 1014.89 159.4 1014.89H326.709V969.963H122.274C111.27 969.963 102.787 967.219 96.8364 961.717C90.8729 956.216 87.9043 948.273 87.9043 937.877C87.9043 927.493 90.8861 919.538 96.8364 914.036C102.787 908.534 111.27 905.79 122.274 905.79H530.695C553.612 905.79 571.186 911.912 583.404 924.129C595.621 936.359 601.743 953.92 601.743 976.851V1003.44C601.743 1026.35 595.621 1043.93 583.404 1056.16C571.173 1068.39 553.612 1074.5 530.695 1074.5H372.557V1077.7C372.557 1097.57 367.2 1112.85 356.513 1123.54C345.813 1134.24 330.535 1139.58 310.678 1139.58H159.4V1139.55ZM117.695 1226.65C111.283 1226.65 106.309 1224.89 102.8 1221.37C99.2772 1217.86 97.5224 1212.88 97.5224 1206.47V1182.63C97.5224 1176.22 99.2772 1171.25 102.8 1167.74C106.309 1164.23 111.283 1162.46 117.695 1162.46H352.397C358.809 1162.46 363.783 1164.23 367.292 1167.74C370.802 1171.26 372.57 1176.22 372.57 1182.63V1206.47C372.57 1212.88 370.802 1217.86 367.292 1221.37C363.77 1224.89 358.809 1226.65 352.397 1226.65H117.695Z" fill="#00BFFF"/>
<path d="M83.3794 168.543C83.3794 157.606 86.2952 149.228 92.1268 143.396C97.9583 137.565 106.336 134.649 117.274 134.649H180.682C191.62 134.649 199.998 137.565 205.829 143.396C211.661 149.228 214.577 157.606 214.577 168.543V245.066C214.577 248.853 215.632 251.808 217.743 253.919C219.854 256.03 222.81 257.086 226.596 257.086H233.153C236.94 257.086 239.895 256.03 242.006 253.919C244.117 251.808 245.173 248.853 245.173 245.066V168.543C245.173 157.606 248.088 149.228 253.92 143.396C259.752 137.565 268.13 134.649 279.067 134.649H342.476C353.413 134.649 361.791 137.565 367.623 143.396C373.454 149.228 376.37 157.606 376.37 168.543V245.066C376.37 248.853 377.425 251.808 379.536 253.919C381.647 256.03 384.603 257.086 388.389 257.086H394.287C398.073 257.086 401.029 256.03 403.14 253.919C405.251 251.808 406.306 248.853 406.306 245.066V168.543C406.306 157.606 409.222 149.228 415.054 143.396C420.885 137.565 429.263 134.649 440.201 134.649H503.609C514.547 134.649 522.925 137.565 528.756 143.396C534.588 149.228 537.504 157.606 537.504 168.543V253.814C537.504 264.751 534.588 273.129 528.756 278.961C522.925 284.792 514.547 287.708 503.609 287.708H355.59C344.653 287.708 336.275 285.083 330.443 279.831C324.611 274.58 321.696 267.007 321.696 257.099H299.834C299.834 267.007 296.918 274.594 291.086 279.831C285.255 285.083 276.877 287.708 265.939 287.708H117.274C106.336 287.708 97.9583 284.792 92.1268 278.961C86.2952 273.129 83.3794 264.751 83.3794 253.814V168.543Z" fill="#00BFFF"/>
<path d="M550.605 157.606C550.605 150.178 552.571 144.492 556.503 140.547C560.434 136.615 566.121 134.649 573.549 134.649H597.812C605.24 134.649 610.926 136.615 614.871 140.547C618.803 144.478 620.769 150.165 620.769 157.606V201.33H639.134V157.606C639.134 150.178 641.1 144.492 645.032 140.547C648.963 136.615 654.65 134.649 662.091 134.649H686.578C693.861 134.649 699.482 136.615 703.413 140.547C707.345 144.478 709.311 150.165 709.311 157.606V264.738C709.311 272.166 707.345 277.853 703.413 281.798C699.482 285.742 693.861 287.695 686.578 287.695H662.091C654.663 287.695 648.977 285.729 645.032 281.798C641.1 277.866 639.134 272.179 639.134 264.738V220.355H620.795V264.738C620.795 272.166 618.829 277.853 614.897 281.798C610.966 285.729 605.279 287.695 597.838 287.695H573.562C566.134 287.695 560.447 285.729 556.516 281.798C552.584 277.866 550.618 272.179 550.618 264.738V157.606H550.605Z" fill="#00BFFF"/>
<path d="M756.346 226.041C745.409 226.041 737.031 223.126 731.199 217.294C725.367 211.462 722.452 203.084 722.452 192.147V168.53C722.452 157.593 725.367 149.215 731.199 143.383C737.031 137.552 745.409 134.636 756.346 134.636H819.755C830.692 134.636 839.07 137.552 844.902 143.383C850.733 149.215 853.649 157.593 853.649 168.53V198.704C853.649 202.491 854.704 205.446 856.815 207.557C858.926 209.668 861.882 210.724 865.668 210.724H872.226C876.012 210.724 878.967 209.668 881.078 207.557C883.189 205.446 884.245 202.491 884.245 198.704V168.53C884.245 157.593 887.161 149.215 892.992 143.383C898.824 137.552 907.202 134.636 918.139 134.636H981.548C992.485 134.636 1000.86 137.552 1006.69 143.383C1012.53 149.215 1015.44 157.593 1015.44 168.53V192.147C1015.44 203.084 1012.53 211.462 1006.69 217.294C1000.86 223.126 992.485 226.041 981.548 226.041H934.328V253.814C934.328 264.751 931.412 273.129 925.58 278.961C919.749 284.792 911.371 287.708 900.433 287.708H837.025C826.087 287.708 817.71 284.792 811.878 278.961C806.046 273.129 803.131 264.751 803.131 253.814V226.041H756.346Z" fill="#00BFFF"/>
<path d="M99.5151 404.855C94.9765 404.855 91.4934 403.641 89.0658 401.213C86.6381 398.786 85.4243 395.302 85.4243 390.764V336.749C85.4243 332.211 86.6381 328.728 89.0658 326.3C91.4934 323.872 94.9765 322.658 99.5151 322.658H160.588C171.077 322.658 179.059 325.403 184.548 330.878C190.023 336.353 192.768 344.349 192.768 354.838V372.689C192.768 383.098 190.023 391.067 184.548 396.582C179.073 402.097 171.077 404.868 160.588 404.868H99.5151V404.855ZM140.151 393.35C141.642 393.35 142.83 392.914 143.727 392.057C144.624 391.199 145.073 390.025 145.073 388.534V338.979C145.073 337.488 144.624 336.314 143.727 335.456C142.83 334.599 141.629 334.163 140.151 334.163H133.106V393.35H140.151Z" fill="#00BFFF"/>
<path d="M201.924 333.108C201.924 329.743 202.808 327.157 204.563 325.363C206.317 323.569 208.89 322.658 212.254 322.658H218.601C221.965 322.658 224.551 323.556 226.358 325.363C228.153 327.171 229.063 329.743 229.063 333.108V394.405C229.063 397.77 228.166 400.356 226.358 402.15C224.551 403.958 221.978 404.855 218.601 404.855H212.254C208.89 404.855 206.317 403.958 204.563 402.15C202.808 400.356 201.924 397.77 201.924 394.405V333.108Z" fill="#00BFFF"/>
<path d="M252.297 404.855C247.759 404.855 244.276 403.641 241.848 401.213C239.42 398.786 238.207 395.302 238.207 390.764V336.749C238.207 332.211 239.42 328.728 241.848 326.3C244.276 323.872 247.759 322.658 252.297 322.658H313.371C323.859 322.658 331.842 325.403 337.33 330.878C342.806 336.353 345.55 344.349 345.55 354.838V372.689C345.55 383.098 342.806 391.067 337.33 396.582C331.855 402.097 323.859 404.868 313.371 404.868H252.297V404.855ZM292.934 393.35C294.425 393.35 295.612 392.914 296.509 392.057C297.406 391.199 297.855 390.025 297.855 388.534V338.979C297.855 337.488 297.406 336.314 296.509 335.456C295.612 334.599 294.411 334.163 292.934 334.163H285.888V393.35H292.934Z" fill="#00BFFF"/>
<path d="M414.368 336.749C414.368 332.211 415.582 328.728 418.009 326.3C420.437 323.872 423.92 322.658 428.458 322.658H447.959C452.497 322.658 455.98 323.872 458.408 326.3C460.836 328.728 462.049 332.211 462.049 336.749V387.835C462.049 389.326 462.485 390.513 463.342 391.41C464.2 392.308 465.414 392.756 466.984 392.756H469.095C470.586 392.756 471.773 392.308 472.67 391.41C473.567 390.513 474.016 389.313 474.016 387.835V336.749C474.016 332.211 475.203 328.728 477.591 326.3C479.98 323.872 483.476 322.658 488.107 322.658H507.607C512.146 322.658 515.629 323.872 518.056 326.3C520.484 328.728 521.698 332.211 521.698 336.749V387.835C521.698 389.326 522.133 390.513 522.991 391.41C523.848 392.308 525.062 392.756 526.632 392.756H528.506C529.997 392.756 531.184 392.308 532.081 391.41C532.978 390.513 533.427 389.313 533.427 387.835V336.749C533.427 332.211 534.641 328.728 537.068 326.3C539.496 323.872 542.979 322.658 547.518 322.658H567.018C571.556 322.658 575.04 323.872 577.467 326.3C579.895 328.728 581.109 332.211 581.109 336.749V390.764C581.109 395.302 579.895 398.786 577.467 401.213C575.04 403.641 571.556 404.855 567.018 404.855H515.576C511.196 404.855 507.844 403.799 505.536 401.688C503.227 399.577 502.066 396.595 502.066 392.769H493.609C493.609 396.688 492.448 399.683 490.139 401.754C487.83 403.826 484.479 404.868 480.098 404.868H428.432C423.893 404.868 420.41 403.654 417.983 401.226C415.555 398.799 414.341 395.316 414.341 390.777V336.749H414.368Z" fill="#00BFFF"/>
<path d="M590.278 375.855C590.278 372.491 590.938 369.905 592.27 368.11C593.603 366.316 595.516 365.406 598.022 365.406V362.002C595.516 362.002 593.603 361.105 592.27 359.297C590.938 357.503 590.278 354.917 590.278 351.552V333.121C590.278 329.757 591.162 327.171 592.917 325.376C594.671 323.582 597.244 322.672 600.608 322.672H635.717C637.287 322.672 638.501 323.028 639.358 323.727C640.216 324.426 640.651 325.455 640.651 326.775C640.651 328.107 640.216 329.123 639.358 329.823C638.501 330.522 637.287 330.878 635.717 330.878H617.391V359.297H635.717C637.287 359.297 638.501 359.653 639.358 360.353C640.216 361.052 640.651 362.081 640.651 363.4C640.651 364.733 640.216 365.749 639.358 366.448C638.501 367.147 637.287 367.504 635.717 367.504H617.391V396.622H635.717C637.287 396.622 638.501 396.978 639.358 397.677C640.216 398.377 640.651 399.366 640.651 400.62C640.651 401.952 640.216 402.994 639.358 403.733C638.501 404.472 637.287 404.855 635.717 404.855H600.608C597.244 404.855 594.671 403.958 592.917 402.15C591.162 400.356 590.278 397.77 590.278 394.405V375.855Z" fill="#00BFFF"/>
<path d="M76.0957 490.586C76.0957 485.968 77.1116 482.446 79.1434 480.018C81.1752 477.59 84.1174 476.377 87.9568 476.377V471.798C84.1174 471.798 81.1884 470.585 79.1434 468.157C77.1116 465.729 76.0957 462.246 76.0957 457.708V447.14C76.0957 442.601 77.3095 439.118 79.7371 436.69C82.1648 434.263 85.6479 433.049 90.1865 433.049H162.765C164.955 433.049 166.643 433.577 167.818 434.632C168.992 435.688 169.572 437.192 169.572 439.157C169.572 441.031 168.992 442.509 167.818 443.564C166.643 444.62 164.955 445.147 162.765 445.147H123.896V467.458H162.765C164.955 467.458 166.643 467.986 167.818 469.041C168.992 470.096 169.572 471.601 169.572 473.566C169.572 475.519 168.992 477.036 167.818 478.092C166.643 479.147 164.955 479.675 162.765 479.675H123.896V503.16H162.765C164.955 503.16 166.643 503.674 167.818 504.69C168.992 505.706 169.572 507.197 169.572 509.15C169.572 511.102 168.992 512.62 167.818 513.675C166.643 514.731 164.955 515.258 162.765 515.258H90.1865C85.6479 515.258 82.1648 514.044 79.7371 511.617C77.3095 509.189 76.0957 505.706 76.0957 501.167V490.586Z" fill="#00BFFF"/>
<path d="M177.08 447.14C177.08 442.601 178.293 439.118 180.721 436.691C183.149 434.263 186.632 433.049 191.17 433.049H242.837C247.217 433.049 250.568 434.091 252.877 436.163C255.186 438.234 256.347 441.229 256.347 445.148H264.804C264.804 441.308 265.952 438.34 268.274 436.216C270.583 434.105 273.934 433.049 278.314 433.049H329.756C334.295 433.049 337.778 434.263 340.205 436.691C342.633 439.118 343.847 442.601 343.847 447.14V501.154C343.847 505.693 342.633 509.176 340.205 511.604C337.778 514.031 334.295 515.245 329.756 515.245H310.256C305.717 515.245 302.234 514.031 299.807 511.604C297.379 509.176 296.165 505.693 296.165 501.154V450.069C296.165 448.578 295.717 447.391 294.819 446.493C293.922 445.596 292.722 445.148 291.244 445.148H289.37C287.8 445.148 286.587 445.596 285.729 446.493C284.871 447.391 284.436 448.591 284.436 450.069V501.154C284.436 505.693 283.222 509.176 280.795 511.604C278.367 514.031 274.884 515.245 270.345 515.245H250.845C246.227 515.245 242.718 514.031 240.33 511.604C237.942 509.176 236.754 505.693 236.754 501.154V450.069C236.754 448.578 236.306 447.391 235.409 446.493C234.511 445.596 233.311 445.148 231.833 445.148H229.722C228.152 445.148 226.938 445.596 226.081 446.493C225.223 447.391 224.788 448.591 224.788 450.069V501.154C224.788 505.693 223.574 509.176 221.146 511.604C218.719 514.031 215.236 515.245 210.697 515.245H191.197C186.658 515.245 183.175 514.031 180.747 511.604C178.32 509.176 177.106 505.693 177.106 501.154V447.14H177.08Z" fill="#00BFFF"/>
<path d="M365.801 515.245C361.263 515.245 357.78 514.032 355.352 511.604C352.924 509.176 351.71 505.654 351.71 501.036V447.245C351.71 442.628 352.924 439.105 355.352 436.677C357.78 434.25 361.263 433.036 365.801 433.036H445.306C449.686 433.036 453.077 434.237 455.465 436.611C457.853 438.999 459.041 442.39 459.041 446.77V454.634C459.041 459.093 457.84 462.524 455.465 464.912C453.077 467.3 449.686 468.487 445.306 468.487H420.647V474.358H444.844C449.462 474.358 452.985 475.585 455.412 478.053C457.84 480.52 459.054 484.029 459.054 488.568V501.023C459.054 505.64 457.84 509.163 455.412 511.591C452.985 514.018 449.462 515.232 444.844 515.232H365.801V515.245ZM406.438 463.579C407.928 463.579 409.116 463.144 410.013 462.286C410.91 461.429 411.359 460.215 411.359 458.645V449.37C411.359 447.879 410.91 446.705 410.013 445.847C409.116 444.989 407.915 444.554 406.438 444.554H399.392V463.579H406.438ZM406.438 503.741C407.928 503.741 409.116 503.305 410.013 502.448C410.91 501.59 411.359 500.416 411.359 498.925V484.715C411.359 483.145 410.91 481.931 410.013 481.074C409.116 480.216 407.915 479.781 406.438 479.781H399.392V503.741H406.438Z" fill="#00BFFF"/>
<path d="M481.008 515.245C476.469 515.245 472.986 514.031 470.558 511.604C468.131 509.176 466.917 505.693 466.917 501.154V447.14C466.917 442.601 468.131 439.118 470.558 436.691C472.986 434.263 476.469 433.049 481.008 433.049H560.512C564.972 433.049 568.376 434.223 570.724 436.572C573.073 438.92 574.247 442.324 574.247 446.784V454.766C574.247 459.146 573.073 462.537 570.724 464.925C568.376 467.313 564.972 468.5 560.512 468.5H535.854V474.371H560.169C564.708 474.371 568.191 475.585 570.619 478.013C573.046 480.441 574.26 483.924 574.26 488.462V501.141C574.26 505.68 573.046 509.163 570.619 511.591C568.191 514.018 564.708 515.232 560.169 515.232H540.669C536.052 515.232 532.542 514.018 530.154 511.591C527.766 509.163 526.579 505.68 526.579 501.141V479.768H514.599V501.141C514.599 505.68 513.385 509.163 510.957 511.591C508.53 514.018 505.047 515.232 500.508 515.232H481.008V515.245ZM521.644 463.579C523.135 463.579 524.322 463.144 525.22 462.286C526.117 461.429 526.565 460.215 526.565 458.645V449.37C526.565 447.879 526.117 446.704 525.22 445.847C524.322 444.989 523.122 444.554 521.644 444.554H514.599V463.579H521.644Z" fill="#00BFFF"/>
<path d="M581.768 447.14C581.768 442.601 582.981 439.118 585.409 436.691C587.837 434.263 591.32 433.049 595.858 433.049H675.007C679.545 433.049 683.029 434.263 685.456 436.691C687.884 439.118 689.098 442.601 689.098 447.14V501.154C689.098 505.693 687.884 509.176 685.456 511.604C683.029 514.031 679.545 515.245 675.007 515.245H655.507C650.968 515.245 647.485 514.031 645.057 511.604C642.63 509.176 641.416 505.693 641.416 501.154V480.018H629.555V501.154C629.555 505.693 628.341 509.176 625.913 511.604C623.486 514.031 619.963 515.245 615.345 515.245H595.858C591.32 515.245 587.837 514.031 585.409 511.604C582.981 509.176 581.768 505.693 581.768 501.154V447.14ZM629.568 467.801H641.429V450.069C641.429 448.578 640.994 447.391 640.136 446.493C639.279 445.596 638.065 445.148 636.495 445.148H634.384C632.893 445.148 631.719 445.596 630.861 446.493C630.003 447.391 629.568 448.591 629.568 450.069V467.801Z" fill="#00BFFF"/>
<path d="M696.736 447.14C696.736 442.601 697.95 439.118 700.378 436.691C702.805 434.263 706.289 433.049 710.827 433.049H783.405C785.595 433.049 787.284 433.577 788.458 434.632C789.633 435.688 790.213 437.192 790.213 439.158C790.213 441.031 789.619 442.509 788.458 443.564C787.284 444.62 785.595 445.148 783.405 445.148H744.418V503.16H783.405C785.595 503.16 787.284 503.675 788.458 504.69C789.633 505.706 790.213 507.197 790.213 509.15C790.213 511.102 789.619 512.62 788.458 513.675C787.284 514.731 785.595 515.258 783.405 515.258H710.827C706.289 515.258 702.805 514.045 700.378 511.617C697.95 509.189 696.736 505.706 696.736 501.168V447.14Z" fill="#00BFFF"/>
<path d="M797.377 490.586C797.377 485.969 798.393 482.446 800.425 480.018C802.457 477.591 805.399 476.377 809.238 476.377V471.799C805.399 471.799 802.47 470.585 800.425 468.157C798.393 465.73 797.377 462.247 797.377 457.708V447.14C797.377 442.601 798.591 439.118 801.019 436.691C803.447 434.263 806.93 433.049 811.468 433.049H884.046C886.236 433.049 887.925 433.577 889.099 434.632C890.274 435.688 890.854 437.192 890.854 439.158C890.854 441.031 890.274 442.509 889.099 443.564C887.925 444.62 886.236 445.148 884.046 445.148H845.178V467.458H884.046C886.236 467.458 887.925 467.986 889.099 469.041C890.274 470.097 890.854 471.601 890.854 473.567C890.854 475.519 890.274 477.037 889.099 478.092C887.925 479.148 886.236 479.675 884.046 479.675H845.178V503.16H884.046C886.236 503.16 887.925 503.675 889.099 504.69C890.274 505.706 890.854 507.197 890.854 509.15C890.854 511.102 890.274 512.62 889.099 513.675C887.925 514.731 886.236 515.258 884.046 515.258H811.468C806.93 515.258 803.447 514.045 801.019 511.617C798.591 509.189 797.377 505.706 797.377 501.168V490.586Z" fill="#00BFFF"/>
<path d="M80.252 577.559C80.1596 567.717 82.6796 560.131 87.8515 554.787C93.0102 549.444 100.583 546.726 110.571 546.634L288.157 544.866C292.854 544.813 296.508 545.961 299.094 548.283C301.68 550.605 303 553.903 303.053 558.165C303.092 562.571 301.839 565.962 299.292 568.337C296.746 570.712 293.118 571.926 288.421 571.965L192.582 572.915L192.939 609.053L288.777 608.103C293.474 608.05 297.129 609.158 299.715 611.414C302.3 613.67 303.62 616.995 303.673 621.402C303.712 625.808 302.459 629.199 299.912 631.574C297.366 633.949 293.738 635.163 289.041 635.202L193.202 636.152L193.532 669.427C193.625 679.269 191.065 686.855 185.827 692.199C180.589 697.542 173.056 700.26 163.213 700.352L112.101 700.854C102.114 700.959 94.4879 698.386 89.2236 693.149C83.9594 687.911 81.2811 680.377 81.1755 670.535L80.252 577.559Z" fill="#00BFFF"/>
<path d="M312.697 573.931C312.605 564.379 315.019 557.083 319.967 552.043C324.914 547.003 332.157 544.43 341.71 544.338L388.415 543.876C397.967 543.784 405.25 546.211 410.303 551.146C415.343 556.093 417.916 563.337 418.008 572.889L418.998 672.039L508.015 671.155C512.567 671.115 516.063 672.171 518.517 674.361C520.958 676.538 522.211 679.691 522.251 683.794C522.291 688.056 521.116 691.302 518.715 693.531C516.314 695.761 512.831 696.896 508.279 696.935L343.253 698.571C333.701 698.664 326.405 696.21 321.365 691.183C316.325 686.169 313.752 678.952 313.66 669.559L312.697 573.931Z" fill="#00BFFF"/>
<path d="M528.993 565.83C528.914 558.336 530.88 552.557 534.877 548.481C538.875 544.404 544.693 542.319 552.333 542.253L669.769 541.092C677.408 541.013 683.226 542.979 687.237 546.977C691.248 550.974 693.28 556.727 693.359 564.207L694.428 671.735C694.507 679.229 692.581 685.008 688.649 689.085C684.73 693.162 678.938 695.246 671.299 695.312L645.519 695.563C637.88 695.642 632.022 693.676 627.945 689.679C623.868 685.681 621.784 679.929 621.718 672.448L621.282 628.157L602.336 628.342L602.772 672.633C602.851 680.127 600.925 685.905 596.993 689.982C593.074 694.059 587.282 696.144 579.643 696.21L553.863 696.46C546.224 696.539 540.366 694.574 536.289 690.576C532.212 686.578 530.128 680.826 530.062 673.345L528.993 565.83ZM602.138 608.736L621.084 608.551L620.689 569.115C620.662 566.622 619.95 564.682 618.538 563.297C617.126 561.912 615.174 561.239 612.68 561.265L609.817 561.292C607.324 561.318 605.344 562.031 603.893 563.442C602.442 564.854 601.729 566.807 601.743 569.3L602.138 608.736Z" fill="#00BFFF"/>
<path d="M702.318 556.186C702.265 551.199 703.664 547.359 706.5 544.681C709.337 542.003 713.4 540.644 718.691 540.591L972.074 538.071C977.365 538.018 981.455 539.298 984.345 541.91C987.234 544.523 988.698 548.336 988.751 553.323C988.804 558.323 987.405 562.149 984.569 564.828C981.732 567.506 977.669 568.865 972.378 568.918L911.793 569.524L912.677 658.753C912.782 669.77 909.933 678.253 904.114 684.177C898.296 690.114 889.878 693.135 878.862 693.241L814.965 693.874C803.948 693.98 795.465 691.13 789.541 685.312C783.604 679.493 780.582 671.076 780.477 660.059L779.593 570.831L719.008 571.438C713.717 571.49 709.627 570.211 706.738 567.598C703.835 564.973 702.357 561.173 702.318 556.186Z" fill="#00BFFF"/>
<path d="M101.982 860.72C95.3192 860.72 90.2001 858.886 86.6378 855.232C83.0756 851.577 81.2944 846.313 81.2944 839.465V758.008C81.2944 751.161 83.0756 745.91 86.6378 742.242C90.2001 738.587 95.3192 736.753 101.982 736.753H191.633C207.03 736.753 218.759 740.883 226.807 749.155C234.855 757.414 238.879 769.46 238.879 785.279V812.194C238.879 827.895 234.855 839.914 226.807 848.226C218.759 856.551 207.043 860.707 191.633 860.707H101.982V860.72ZM161.63 843.371C163.807 843.371 165.562 842.724 166.895 841.418C168.214 840.125 168.874 838.344 168.874 836.101V761.372C168.874 759.13 168.214 757.362 166.895 756.055C165.575 754.762 163.82 754.103 161.63 754.103H151.287V843.358H161.63V843.371Z" fill="#00BFFF"/>
<path d="M245.582 823.528C245.582 816.562 247.072 811.258 250.067 807.59C253.049 803.935 257.363 802.101 262.997 802.101V795.201C257.363 795.201 253.049 793.367 250.067 789.713C247.072 786.058 245.582 780.794 245.582 773.946V758.008C245.582 751.161 247.363 745.91 250.925 742.242C254.487 738.587 259.606 736.753 266.269 736.753H372.808C376.027 736.753 378.494 737.545 380.222 739.141C381.951 740.738 382.808 743.007 382.808 745.963C382.808 748.799 381.951 751.016 380.222 752.599C378.494 754.195 376.027 754.987 372.808 754.987H315.745V788.631H372.808C376.027 788.631 378.494 789.422 380.222 791.019C381.951 792.615 382.808 794.884 382.808 797.84C382.808 800.795 381.951 803.064 380.222 804.661C378.494 806.257 376.027 807.049 372.808 807.049H315.745V842.461H372.808C376.027 842.461 378.494 843.226 380.222 844.77C381.951 846.3 382.808 848.556 382.808 851.498C382.808 854.454 381.951 856.723 380.222 858.319C378.494 859.916 376.027 860.707 372.808 860.707H266.269C259.606 860.707 254.487 858.873 250.925 855.219C247.363 851.564 245.582 846.3 245.582 839.452V823.528Z" fill="#00BFFF"/>
<path d="M399.867 860.721C396.648 860.721 394.181 859.929 392.452 858.333C390.724 856.736 389.866 854.467 389.866 851.511C389.866 848.556 390.724 846.313 392.452 844.783C394.181 843.252 396.648 842.474 399.867 842.474H459.516V814.319C459.516 811.957 458.882 810.136 457.616 808.83C456.349 807.537 454.621 806.877 452.444 806.877H410.211C403.548 806.877 398.429 805.044 394.867 801.389C391.305 797.734 389.523 792.47 389.523 785.623V757.995C389.523 751.148 391.305 745.897 394.867 742.229C398.429 738.574 403.548 736.74 410.211 736.74H516.749C519.969 736.74 522.436 737.532 524.164 739.128C525.893 740.725 526.75 742.994 526.75 745.949C526.75 748.786 525.893 751.003 524.164 752.586C522.436 754.182 519.969 754.974 516.749 754.974H459.516V781.19C459.516 783.551 460.149 785.385 461.415 786.678C462.682 787.984 464.463 788.631 466.759 788.631H508.992C515.654 788.631 520.773 790.465 524.336 794.119C527.898 797.774 529.679 803.038 529.679 809.886V839.466C529.679 846.313 527.898 851.564 524.336 855.232C520.773 858.887 515.654 860.721 508.992 860.721H399.867Z" fill="#00BFFF"/>
<path d="M536.237 758.008C536.237 751.161 538.018 745.91 541.58 742.242C545.142 738.587 550.262 736.753 556.924 736.753H585.541C592.323 736.753 597.495 738.587 601.057 742.242C604.619 745.897 606.4 751.161 606.4 758.008V839.466C606.4 846.313 604.619 851.564 601.057 855.232C597.495 858.887 592.323 860.721 585.541 860.721H556.924C550.262 860.721 545.142 858.887 541.58 855.232C538.018 851.577 536.237 846.313 536.237 839.466V758.008Z" fill="#00BFFF"/>
<path d="M613.116 758.008C613.116 751.161 614.897 745.91 618.459 742.242C622.021 738.587 627.141 736.753 633.803 736.753H740.342C743.561 736.753 746.028 737.545 747.757 739.141C749.485 740.738 750.342 743.007 750.342 745.963C750.342 748.799 749.485 751.016 747.757 752.599C746.028 754.195 743.561 754.987 740.342 754.987H683.108V835.033C683.108 837.276 683.741 839.083 685.008 840.429C686.274 841.788 688.055 842.461 690.351 842.461H693.452C695.629 842.461 697.383 841.788 698.716 840.429C700.035 839.07 700.695 837.276 700.695 835.033V791.824C700.695 784.976 702.45 779.725 705.959 776.057C709.469 772.403 714.601 770.569 721.383 770.569H749.999C756.662 770.569 761.781 772.403 765.344 776.057C768.906 779.725 770.687 784.976 770.687 791.824V839.466C770.687 846.313 768.906 851.564 765.344 855.232C761.781 858.887 756.662 860.721 749.999 860.721H633.803C627.141 860.721 622.021 858.887 618.459 855.232C614.897 851.577 613.116 846.313 613.116 839.466V758.008Z" fill="#00BFFF"/>
<path d="M777.917 758.008C777.917 751.161 779.698 745.91 783.26 742.242C786.823 738.587 791.942 736.753 798.605 736.753H879.798C886.461 736.753 891.699 738.587 895.485 742.242C899.272 745.897 901.172 751.161 901.172 758.008V835.402C901.172 837.645 901.779 839.387 902.979 840.627C904.18 841.867 905.882 842.487 908.059 842.487H911.159C913.231 842.487 914.867 841.867 916.067 840.627C917.268 839.387 917.875 837.645 917.875 835.402V758.008C917.875 751.161 919.656 745.91 923.218 742.242C926.781 738.587 931.9 736.753 938.562 736.753H967.179C973.961 736.753 979.133 738.587 982.695 742.242C986.257 745.897 988.038 751.161 988.038 758.008V839.466C988.038 846.313 986.257 851.564 982.695 855.232C979.133 858.887 973.961 860.721 967.179 860.721H886.157C879.376 860.721 874.085 858.887 870.299 855.232C866.512 851.577 864.612 846.313 864.612 839.466V762.072C864.612 759.829 864.005 758.087 862.805 756.847C861.591 755.607 859.955 754.987 857.897 754.987H854.796C852.606 754.987 850.917 755.607 849.717 756.847C848.516 758.087 847.909 759.829 847.909 762.072V839.466C847.909 846.313 846.128 851.564 842.566 855.232C839.003 858.887 833.884 860.721 827.222 860.721H798.605C791.942 860.721 786.823 858.887 783.26 855.232C779.698 851.577 777.917 846.313 777.917 839.466V758.008Z" fill="#00BFFF"/>
</g>
<defs>
<filter id="filter0_d" x="0.869629" y="0.5" width="1149.51" height="1350.13" filterUnits="userSpaceOnUse" color-interpolation-filters="sRGB">
<feFlood flood-opacity="0" result="BackgroundImageFix"/>
<feColorMatrix in="SourceAlpha" type="matrix" values="0 0 0 0 0 0 0 0 0 0 0 0 0 0 0 0 0 0 127 0"/>
<feOffset dx="10" dy="10"/>
<feGaussianBlur stdDeviation="17"/>
<feColorMatrix type="matrix" values="0 0 0 0 0 0 0 0 0 0.74902 0 0 0 0 1 0 0 0 0.45 0"/>
<feBlend mode="normal" in2="BackgroundImageFix" result="effect1_dropShadow"/>
<feBlend mode="normal" in="SourceGraphic" in2="effect1_dropShadow" result="shape"/>
</filter>
</defs>
</svg>
