<svg width="2531" height="16801" viewBox="0 0 2531 16801" fill="none" xmlns="http://www.w3.org/2000/svg">
<g filter="url(#filter0_d)">
<path d="M2345.17 14812.3V18820.7C2345.17 18966 2245.65 19083.6 2122.93 19083.6H463.372C340.653 19083.6 241.138 18965.8 241.138 18820.7V11160.3C241.138 11138.6 256.04 11120.8 274.543 11120.8H1027.26C1045.66 11120.8 1060.67 11103.2 1060.67 11081.3V10516.1C1060.67 10494.3 1075.57 10476.6 1094.07 10476.6C1112.47 10476.6 1127.48 10458.9 1127.48 10437V10326.9C1127.48 10305.1 1112.57 10287.4 1094.07 10287.4C1075.67 10287.4 1060.67 10269.8 1060.67 10247.9V10211.3C1060.67 10189.5 1045.76 10171.8 1027.26 10171.8H274.443C256.04 10171.8 241.038 10154.2 241.038 10132.3V335.588C241.138 190.234 340.653 72.6174 463.372 72.6174H2123.03C2245.75 72.6174 2345.27 190.472 2345.27 335.588V12712.6C2345.27 12742.9 2324.46 12767.6 2298.76 12767.6H1572.55C1546.84 12767.6 1526.04 12792.1 1526.04 12822.5V12824.6C1526.04 12855 1505.23 12879.6 1479.53 12879.6C1453.83 12879.6 1433.02 12904.2 1433.02 12934.5V13012.5C1433.02 13042.8 1453.83 13067.3 1479.53 13067.3H1480.63C1506.33 13067.3 1527.14 13092 1527.14 13122.3V14701.8C1527.14 14732.3 1547.94 14756.8 1573.65 14756.8H2298.76C2324.36 14757.2 2345.17 14781.9 2345.17 14812.3Z" fill="white"/>
<path d="M2345.17 14812.3V18820.7C2345.17 18966 2245.65 19083.6 2122.93 19083.6H463.372C340.653 19083.6 241.138 18965.8 241.138 18820.7V11160.3C241.138 11138.6 256.04 11120.8 274.543 11120.8H1027.26C1045.66 11120.8 1060.67 11103.2 1060.67 11081.3V10516.1C1060.67 10494.3 1075.57 10476.6 1094.07 10476.6C1112.47 10476.6 1127.48 10458.9 1127.48 10437V10326.9C1127.48 10305.1 1112.57 10287.4 1094.07 10287.4C1075.67 10287.4 1060.67 10269.8 1060.67 10247.9V10211.3C1060.67 10189.5 1045.76 10171.8 1027.26 10171.8H274.443C256.04 10171.8 241.038 10154.2 241.038 10132.3V335.588C241.138 190.234 340.653 72.6174 463.372 72.6174H2123.03C2245.75 72.6174 2345.27 190.472 2345.27 335.588V12712.6C2345.27 12742.9 2324.46 12767.6 2298.76 12767.6H1572.55C1546.84 12767.6 1526.04 12792.1 1526.04 12822.5V12824.6C1526.04 12855 1505.23 12879.6 1479.53 12879.6C1453.83 12879.6 1433.02 12904.2 1433.02 12934.5V13012.5C1433.02 13042.8 1453.83 13067.3 1479.53 13067.3H1480.63C1506.33 13067.3 1527.14 13092 1527.14 13122.3V14701.8C1527.14 14732.3 1547.94 14756.8 1573.65 14756.8H2298.76C2324.36 14757.2 2345.17 14781.9 2345.17 14812.3Z" stroke="#00BFFF" stroke-width="1.9758" stroke-miterlimit="6.5858"/>
</g>
<defs>
<filter id="filter0_d" x="-24" y="-4" width="2654" height="19529" filterUnits="userSpaceOnUse" color-interpolation-filters="sRGB">
<feFlood flood-opacity="0" result="BackgroundImageFix"/>
<feColorMatrix in="SourceAlpha" type="matrix" values="0 0 0 0 0 0 0 0 0 0 0 0 0 0 0 0 0 0 127 0"/>
<feOffset dx="20" dy="40"/>
<feGaussianBlur stdDeviation="22"/>
<feColorMatrix type="matrix" values="0 0 0 0 0 0 0 0 0 0.74902 0 0 0 0 1 0 0 0 0.45 0"/>
<feBlend mode="normal" in2="BackgroundImageFix" result="effect1_dropShadow"/>
<feBlend mode="normal" in="SourceGraphic" in2="effect1_dropShadow" result="shape"/>
</filter>
</defs>
</svg>
