<?xml version="1.0" encoding="utf-8"?>
<!-- Generator: Adobe Illustrator 25.2.3, SVG Export Plug-In . SVG Version: 6.00 Build 0)  -->
<svg version="1.1" id="Camada_1" xmlns="http://www.w3.org/2000/svg" xmlns:xlink="http://www.w3.org/1999/xlink" x="0px" y="0px"
	 viewBox="0 0 1579.4 11403.6" style="enable-background:new 0 0 1579.4 11403.6;" xml:space="preserve">
<style type="text/css">
	.st0{fill:#FFFFFF;stroke:#00BFFF;stroke-width:3;stroke-miterlimit:6.5858;}
</style>
<g>
	<g>
		<path class="st0" d="M1547.9,8827.1v2235.3c0,84.8-67,153.4-149.6,153.4H181.1c-82.6,0-149.6-68.7-149.6-153.4V6695.6
			c0-12.7,10-23,22.5-23h506.7c12.4,0,22.5-10.3,22.5-23v-329.8c0-12.7,10-23,22.5-23c12.4,0,22.5-10.3,22.5-23v-64.2
			c0-12.7-10-23-22.5-23c-12.4,0-22.5-10.3-22.5-23v-21.3c0-12.7-10-23-22.5-23H53.9c-12.4,0-22.5-10.3-22.5-23V297.5
			C31.5,212.7,98.5,144,181.1,144h1217.2c82.6,0,149.6,68.7,149.6,153.4v7304.7c0,17.7-14,32.1-31.3,32.1h-488.9
			c-17.3,0-31.3,14.3-31.3,32v1.3c0,17.7-14,32.1-31.3,32.1c-17.3,0-31.3,14.3-31.3,32v45.5c0,17.7,14,32,31.3,32h0.7
			c17.3,0,31.3,14.4,31.3,32.1v921.5c0,17.8,14,32.1,31.3,32.1h488.1C1533.9,8795,1547.9,8809.4,1547.9,8827.1z"/>
	</g>
</g>
</svg>
