<?xml version="1.0" encoding="utf-8"?>
<!-- Generator: Adobe Illustrator 25.2.3, SVG Export Plug-In . SVG Version: 6.00 Build 0)  -->
<svg version="1.1" id="Camada_1" xmlns="http://www.w3.org/2000/svg" xmlns:xlink="http://www.w3.org/1999/xlink" x="0px" y="0px"
	 viewBox="0 0 2105.5 14050.8" style="enable-background:new 0 0 2105.5 14050.8;" xml:space="preserve">
<style type="text/css">
	.st0{fill:#FFFFFF;}
	.st1{fill:none;stroke:#00BFFF;stroke-width:3;stroke-miterlimit:10;}
</style>
<g>
	<path class="st0" d="M2104,13081.4c0,125.4-99.4,227-222,227H223.5c-122.6,0-222-101.6-222-227V228.5c0-125.4,99.4-227,222-227
		h1658.2c122.6,0,222,101.6,222,227v1856.2V4487v7406.5"/>
	<path class="st1" d="M2104,13081.3c0,125.5-99.4,227.1-222,227.1H223.5c-122.6,0-222-101.6-222-227.1V228.5
		c0-125.4,99.4-227,222-227h1658.2c122.6,0,222,101.6,222,227v1856.2V4487v6855.6v1738.7H2104z"/>
</g>
</svg>
