<svg width="2195" height="16635" viewBox="0 0 2195 16635" fill="none" xmlns="http://www.w3.org/2000/svg">
<g filter="url(#filter0_d)">
<path d="M2129.66 12778.1V16321.4C2129.66 16447.3 2030.18 16549.3 1907.48 16549.3H248.111C125.391 16549.3 25.9248 16447.2 25.9248 16321.4V9613.69C25.9248 9594.8 40.8478 9579.47 59.2867 9579.47H811.907C830.326 9579.47 845.269 9564.14 845.269 9545.24V9055.46C845.269 9036.56 860.192 9021.23 878.631 9021.23C897.05 9021.23 911.993 9005.92 911.993 8987.01V8891.61C911.993 8872.72 897.07 8857.39 878.631 8857.39C860.212 8857.39 845.269 8842.08 845.269 8823.17V8791.5C845.269 8772.61 830.346 8757.28 811.907 8757.28H59.2867C40.8678 8757.28 25.9248 8741.95 25.9248 8723.06V233.866C25.9248 107.977 125.411 5.94128 248.111 5.94128H1907.5C2030.22 5.94128 2129.68 107.997 2129.68 233.866V10958.7C2129.68 10985 2108.89 11006.4 2083.22 11006.4H1357.1C1331.43 11006.4 1310.64 11027.7 1310.64 11054V11055.9C1310.64 11082.2 1289.84 11103.6 1264.17 11103.6C1238.5 11103.6 1217.7 11124.9 1217.7 11151.2V11218.8C1217.7 11245.1 1238.5 11266.4 1264.17 11266.4H1265.29C1290.96 11266.4 1311.76 11287.8 1311.76 11314.1V12682.7C1311.76 12709.1 1332.55 12730.4 1358.22 12730.4H2083.22C2108.87 12730.4 2129.66 12751.8 2129.66 12778.1Z" fill="white"/>
<path d="M2129.66 12778.1V16321.4C2129.66 16447.3 2030.18 16549.3 1907.48 16549.3H248.111C125.391 16549.3 25.9248 16447.2 25.9248 16321.4V9613.69C25.9248 9594.8 40.8478 9579.47 59.2867 9579.47H811.907C830.326 9579.47 845.269 9564.14 845.269 9545.24V9055.46C845.269 9036.56 860.192 9021.23 878.631 9021.23C897.05 9021.23 911.993 9005.92 911.993 8987.01V8891.61C911.993 8872.72 897.07 8857.39 878.631 8857.39C860.212 8857.39 845.269 8842.08 845.269 8823.17V8791.5C845.269 8772.61 830.346 8757.28 811.907 8757.28H59.2867C40.8678 8757.28 25.9248 8741.95 25.9248 8723.06V233.866C25.9248 107.977 125.411 5.94128 248.111 5.94128H1907.5C2030.22 5.94128 2129.68 107.997 2129.68 233.866V10958.7C2129.68 10985 2108.89 11006.4 2083.22 11006.4H1357.1C1331.43 11006.4 1310.64 11027.7 1310.64 11054V11055.9C1310.64 11082.2 1289.84 11103.6 1264.17 11103.6C1238.5 11103.6 1217.7 11124.9 1217.7 11151.2V11218.8C1217.7 11245.1 1238.5 11266.4 1264.17 11266.4H1265.29C1290.96 11266.4 1311.76 11287.8 1311.76 11314.1V12682.7C1311.76 12709.1 1332.55 12730.4 1358.22 12730.4H2083.22C2108.87 12730.4 2129.66 12751.8 2129.66 12778.1Z" stroke="#00BFFF" stroke-width="1.9758" stroke-miterlimit="6.5858"/>
</g>
<defs>
<filter id="filter0_d" x="0.936523" y="0.953369" width="2193.73" height="16633.3" filterUnits="userSpaceOnUse" color-interpolation-filters="sRGB">
<feFlood flood-opacity="0" result="BackgroundImageFix"/>
<feColorMatrix in="SourceAlpha" type="matrix" values="0 0 0 0 0 0 0 0 0 0 0 0 0 0 0 0 0 0 127 0"/>
<feOffset dx="20" dy="40"/>
<feGaussianBlur stdDeviation="22"/>
<feColorMatrix type="matrix" values="0 0 0 0 0 0 0 0 0 0.74902 0 0 0 0 1 0 0 0 0.45 0"/>
<feBlend mode="normal" in2="BackgroundImageFix" result="effect1_dropShadow"/>
<feBlend mode="normal" in="SourceGraphic" in2="effect1_dropShadow" result="shape"/>
</filter>
</defs>
</svg>
