<svg width="2185" height="12721" viewBox="0 0 2185 12721" fill="none" xmlns="http://www.w3.org/2000/svg">
<g filter="url(#filter0_d)">
<path d="M2119.71 232.06C2119.71 107.152 2020.66 5.90454 1898.49 5.90454H246.421C124.25 5.90454 25.2012 107.152 25.2012 232.06V5936.09C25.2012 5954.84 40.074 5970.04 58.4232 5970.04H807.739C826.067 5970.04 840.961 5985.25 840.961 6003.99V6035.41C840.961 6054.15 855.833 6069.38 874.183 6069.38C892.511 6069.38 907.405 6084.58 907.405 6103.33V6197.99C907.405 6216.73 892.532 6231.94 874.183 6231.94C855.854 6231.94 840.961 6247.14 840.961 6265.89V6751.88C840.961 6770.62 826.088 6785.85 807.739 6785.85H58.4232C40.0945 6785.85 25.2012 6801.05 25.2012 6819.79V12409.4C25.2012 12534.3 124.25 12635.5 246.421 12635.5H1898.51C2020.68 12635.5 2119.73 12534.3 2119.73 12409.4L2119.71 232.06Z" fill="white"/>
<path d="M2119.71 232.06C2119.71 107.152 2020.66 5.90454 1898.49 5.90454H246.421C124.25 5.90454 25.2012 107.152 25.2012 232.06V5936.1C25.2012 5954.84 40.074 5970.04 58.4232 5970.04H807.739C826.067 5970.04 840.961 5985.25 840.961 6003.99V6035.41C840.961 6054.15 855.833 6069.38 874.183 6069.38C892.511 6069.38 907.405 6084.58 907.405 6103.33V6197.99C907.405 6216.73 892.532 6231.94 874.183 6231.94C855.854 6231.94 840.961 6247.14 840.961 6265.89V6751.88C840.961 6770.62 826.088 6785.85 807.739 6785.85H58.4232C40.0945 6785.85 25.2012 6801.05 25.2012 6819.79V12409.4C25.2012 12534.3 124.25 12635.5 246.421 12635.5H1898.51C2020.68 12635.5 2119.73 12534.3 2119.73 12409.4L2119.71 232.06Z" stroke="#00BFFF" stroke-width="1.9103" stroke-miterlimit="6.3677"/>
</g>
<defs>
<filter id="filter0_d" x="0.246063" y="0.949341" width="2184.44" height="12719.5" filterUnits="userSpaceOnUse" color-interpolation-filters="sRGB">
<feFlood flood-opacity="0" result="BackgroundImageFix"/>
<feColorMatrix in="SourceAlpha" type="matrix" values="0 0 0 0 0 0 0 0 0 0 0 0 0 0 0 0 0 0 127 0"/>
<feOffset dx="20" dy="40"/>
<feGaussianBlur stdDeviation="22"/>
<feColorMatrix type="matrix" values="0 0 0 0 0 0 0 0 0 0.74902 0 0 0 0 1 0 0 0 0.45 0"/>
<feBlend mode="normal" in2="BackgroundImageFix" result="effect1_dropShadow"/>
<feBlend mode="normal" in="SourceGraphic" in2="effect1_dropShadow" result="shape"/>
</filter>
</defs>
</svg>
