<svg width="2185" height="19229" viewBox="0 0 2185 19229" fill="none" xmlns="http://www.w3.org/2000/svg">
<g filter="url(#filter0_d)">
<path d="M1238.94 11444.2C1219.84 11444.2 1204.34 11459.7 1204.34 11478.8V11574.5C1204.34 11593.6 1219.82 11609.1 1238.92 11609.1C1258.02 11609.1 1273.49 11624.5 1273.49 11643.6V13795.3C1273.49 13814.4 1288.96 13829.8 1308.06 13829.8H2084.17C2103.27 13829.8 2118.75 13845.3 2118.75 13864.4V18917.2C2118.75 19042 2019.77 19143.2 1897.67 19143.2H246.587C124.488 19143.2 25.5078 19042 25.5078 18917.2V231.825C25.5078 107.02 124.488 5.8562 246.587 5.8562H1897.68C2019.78 5.8562 2118.76 107.02 2118.76 231.825V2079.73C2118.76 2100.98 2101.54 2118.19 2080.3 2118.19H1322.03C1300.79 2118.19 1283.57 2135.41 1283.57 2156.65V2197.36C1283.57 2218.61 1266.36 2235.82 1245.11 2235.82C1223.86 2235.82 1206.65 2253.04 1206.65 2274.28V2359.97C1206.65 2381.22 1223.86 2398.43 1245.11 2398.43C1266.36 2398.43 1283.57 2415.65 1283.57 2436.89V4394.54C1283.57 4415.79 1300.79 4433 1322.03 4433H2080.3C2101.54 4433 2118.76 4450.21 2118.76 4471.46V11296.9C2118.76 11316 2103.28 11331.5 2084.19 11331.5H1307.74C1288.64 11331.5 1273.16 11346.9 1273.16 11366V11410.1C1273.16 11428.9 1257.83 11444.2 1238.94 11444.2Z" fill="white"/>
<path d="M1238.94 11444.2C1219.84 11444.2 1204.34 11459.7 1204.34 11478.8V11574.5C1204.34 11593.6 1219.82 11609.1 1238.92 11609.1C1258.02 11609.1 1273.49 11624.5 1273.49 11643.6V13795.3C1273.49 13814.4 1288.96 13829.8 1308.06 13829.8H2084.17C2103.27 13829.8 2118.75 13845.3 2118.75 13864.4V18917.2C2118.75 19042 2019.76 19143.2 1897.67 19143.2H246.587C124.488 19143.2 25.5078 19042 25.5078 18917.2V231.825C25.5078 107.02 124.488 5.8562 246.587 5.8562H1897.68C2019.78 5.8562 2118.76 107.02 2118.76 231.825V2079.73C2118.76 2100.98 2101.54 2118.19 2080.3 2118.19H1322.03C1300.79 2118.19 1283.57 2135.41 1283.57 2156.65V2197.36C1283.57 2218.61 1266.36 2235.82 1245.11 2235.82C1223.86 2235.82 1206.65 2253.04 1206.65 2274.28V2359.97C1206.65 2381.22 1223.86 2398.43 1245.11 2398.43C1266.36 2398.43 1283.57 2415.65 1283.57 2436.89V4394.54C1283.57 4415.79 1300.79 4433 1322.03 4433H2080.3C2101.54 4433 2118.76 4450.21 2118.76 4471.46V11296.9C2118.76 11316 2103.29 11331.5 2084.19 11331.5H1307.74C1288.64 11331.5 1273.16 11346.9 1273.16 11366V11410.1C1273.16 11428.9 1257.83 11444.2 1238.94 11444.2Z" stroke="#00BFFF" stroke-width="3" stroke-miterlimit="10"/>
</g>
<defs>
<filter id="filter0_d" x="0.0078125" y="0.356201" width="2184.25" height="19228.4" filterUnits="userSpaceOnUse" color-interpolation-filters="sRGB">
<feFlood flood-opacity="0" result="BackgroundImageFix"/>
<feColorMatrix in="SourceAlpha" type="matrix" values="0 0 0 0 0 0 0 0 0 0 0 0 0 0 0 0 0 0 127 0"/>
<feOffset dx="20" dy="40"/>
<feGaussianBlur stdDeviation="22"/>
<feColorMatrix type="matrix" values="0 0 0 0 0 0 0 0 0 0.74902 0 0 0 0 1 0 0 0 0.45 0"/>
<feBlend mode="normal" in2="BackgroundImageFix" result="effect1_dropShadow"/>
<feBlend mode="normal" in="SourceGraphic" in2="effect1_dropShadow" result="shape"/>
</filter>
</defs>
</svg>
