<svg width="1179" height="1397" viewBox="0 0 1179 1397" fill="none" xmlns="http://www.w3.org/2000/svg">
<g filter="url(#filter0_d)">
<path d="M1085.76 1351.11H73.7517C47.5946 1351.11 26.3792 1329.91 26.3792 1303.73V73.3845C26.3792 47.2208 47.5811 26 73.7517 26H1085.74C1111.9 26 1133.12 47.2073 1133.12 73.3845V1303.73C1133.12 1329.91 1111.91 1351.11 1085.76 1351.11Z" fill="#D7F7FF" stroke="#00BFFF" stroke-width="3" stroke-miterlimit="10" stroke-linecap="round" stroke-linejoin="round"/>
<path d="M26 74.0481H1133.25" stroke="#00BFFF" stroke-width="3" stroke-miterlimit="10"/>
<path d="M62.1488 60.5464C66.852 60.5464 70.6647 56.6236 70.6647 51.7846C70.6647 46.9455 66.852 43.0227 62.1488 43.0227C57.4455 43.0227 53.6328 46.9455 53.6328 51.7846C53.6328 56.6236 57.4455 60.5464 62.1488 60.5464Z" fill="white"/>
<path d="M62.1488 45.054C65.7231 45.054 68.634 48.074 68.634 51.7846C68.634 55.4951 65.7231 58.5151 62.1488 58.5151C58.5746 58.5151 55.6637 55.4951 55.6637 51.7846C55.6637 48.074 58.561 45.054 62.1488 45.054ZM62.1488 40.9913C56.3271 40.9913 51.6021 45.8259 51.6021 51.7846C51.6021 57.7432 56.3271 62.5778 62.1488 62.5778C67.9706 62.5778 72.6956 57.7432 72.6956 51.7846C72.6956 45.8259 67.9706 40.9913 62.1488 40.9913Z" fill="#00BFFF"/>
<path d="M90.2826 60.5464C94.9858 60.5464 98.7985 56.6236 98.7985 51.7846C98.7985 46.9455 94.9858 43.0227 90.2826 43.0227C85.5793 43.0227 81.7666 46.9455 81.7666 51.7846C81.7666 56.6236 85.5793 60.5464 90.2826 60.5464Z" fill="white"/>
<path d="M90.2826 45.054C93.8569 45.054 96.7678 48.074 96.7678 51.7846C96.7678 55.4951 93.8569 58.5151 90.2826 58.5151C86.7084 58.5151 83.7975 55.4951 83.7975 51.7846C83.7975 48.074 86.7084 45.054 90.2826 45.054ZM90.2826 40.9913C84.4609 40.9913 79.7358 45.8259 79.7358 51.7846C79.7358 57.7432 84.4609 62.5778 90.2826 62.5778C96.1044 62.5778 100.829 57.7432 100.829 51.7846C100.829 45.8259 96.1044 40.9913 90.2826 40.9913Z" fill="#00BFFF"/>
<path d="M118.416 60.5464C123.12 60.5464 126.932 56.6236 126.932 51.7846C126.932 46.9455 123.12 43.0227 118.416 43.0227C113.713 43.0227 109.9 46.9455 109.9 51.7846C109.9 56.6236 113.713 60.5464 118.416 60.5464Z" fill="white"/>
<path d="M118.416 45.054C121.991 45.054 124.902 48.074 124.902 51.7846C124.902 55.4951 121.991 58.5151 118.416 58.5151C114.842 58.5151 111.931 55.4951 111.931 51.7846C111.931 48.074 114.842 45.054 118.416 45.054ZM118.416 40.9913C112.595 40.9913 107.87 45.8259 107.87 51.7846C107.87 57.7432 112.595 62.5778 118.416 62.5778C124.238 62.5778 128.963 57.7432 128.963 51.7846C128.977 45.8259 124.252 40.9913 118.416 40.9913Z" fill="#00BFFF"/>
<path d="M170.907 1178.54C150.463 1178.54 134.744 1173.05 123.737 1162.04C112.73 1151.03 107.233 1135.3 107.233 1114.86V1113.91C107.233 1093.47 112.73 1077.74 123.737 1066.73C134.744 1055.72 150.463 1050.22 170.907 1050.22H343.054V1003.98H132.7C121.381 1003.98 112.649 1001.15 106.529 995.494C100.396 989.833 97.3364 981.653 97.3364 970.955C97.3364 960.27 100.396 952.091 106.529 946.416C112.662 940.756 121.381 937.925 132.7 937.925H552.947C576.532 937.925 594.606 944.222 607.184 956.79C619.762 969.37 626.044 987.449 626.044 1011.04V1038.41C626.044 1062 619.748 1080.09 607.184 1092.66C594.606 1105.24 576.532 1111.52 552.947 1111.52H390.223V1114.83C390.223 1135.28 384.713 1151 373.719 1162.01C362.712 1173.02 346.994 1178.52 326.55 1178.52H170.907V1178.54ZM127.988 1268.18C121.381 1268.18 116.277 1266.38 112.662 1262.75C109.048 1259.14 107.233 1254.02 107.233 1247.42V1222.88C107.233 1216.27 109.034 1211.17 112.662 1207.55C116.277 1203.94 121.381 1202.12 127.988 1202.12H369.468C376.075 1202.12 381.179 1203.94 384.794 1207.55C388.409 1211.17 390.223 1216.29 390.223 1222.88V1247.42C390.223 1254.03 388.409 1259.15 384.794 1262.75C381.179 1266.37 376.075 1268.18 369.468 1268.18H127.988Z" fill="#00BFFF"/>
<path d="M85.368 280.691C85.368 269.437 88.3601 260.811 94.3714 254.811C100.369 248.812 108.993 245.806 120.244 245.806H185.488C196.739 245.806 205.363 248.812 211.361 254.811C217.359 260.811 220.364 269.437 220.364 280.691V359.453C220.364 363.353 221.447 366.386 223.627 368.567C225.793 370.747 228.84 371.83 232.739 371.83H239.481C243.38 371.83 246.413 370.747 248.593 368.567C250.759 366.4 251.856 363.353 251.856 359.453V280.691C251.856 269.437 254.848 260.811 260.859 254.811C266.857 248.812 275.481 245.806 286.732 245.806H351.976C363.227 245.806 371.851 248.812 377.849 254.811C383.846 260.811 386.852 269.437 386.852 280.691V359.453C386.852 363.353 387.935 366.386 390.115 368.567C392.281 370.747 395.327 371.83 399.227 371.83H405.306C409.205 371.83 412.237 370.747 414.417 368.567C416.583 366.4 417.68 363.353 417.68 359.453V280.691C417.68 269.437 420.672 260.811 426.683 254.811C432.681 248.812 441.305 245.806 452.556 245.806H517.8C529.051 245.806 537.675 248.812 543.673 254.811C549.671 260.811 552.676 269.437 552.676 280.691V368.445C552.676 379.699 549.671 388.325 543.673 394.324C537.675 400.324 529.051 403.33 517.8 403.33H365.447C354.196 403.33 345.572 400.635 339.574 395.232C333.576 389.828 330.571 382.028 330.571 371.83H308.069C308.069 382.028 305.064 389.828 299.066 395.232C293.068 400.635 284.444 403.33 273.193 403.33H120.231C108.98 403.33 100.356 400.337 94.3579 394.324C88.3601 388.325 85.3545 379.699 85.3545 368.445V280.691H85.368Z" fill="#00BFFF"/>
<path d="M566.107 269.437C566.107 261.785 568.138 255.935 572.186 251.886C576.234 247.837 582.083 245.805 589.732 245.805H614.698C622.347 245.805 628.196 247.837 632.244 251.886C636.293 255.935 638.323 261.785 638.323 269.437V314.438H657.224V269.437C657.224 261.785 659.254 255.935 663.303 251.886C667.351 247.837 673.2 245.805 680.849 245.805H706.045C713.545 245.805 719.313 247.837 723.361 251.886C727.409 255.935 729.44 261.785 729.44 269.437V379.698C729.44 387.349 727.409 393.2 723.361 397.249C719.313 401.298 713.532 403.329 706.045 403.329H680.849C673.2 403.329 667.351 401.298 663.303 397.249C659.254 393.2 657.224 387.349 657.224 379.698V334.02H638.323V379.698C638.323 387.349 636.293 393.2 632.244 397.249C628.196 401.298 622.347 403.329 614.698 403.329H589.732C582.083 403.329 576.234 401.298 572.186 397.249C568.138 393.2 566.107 387.349 566.107 379.698V269.437Z" fill="#00BFFF"/>
<path d="M777.801 339.87C766.55 339.87 757.926 336.877 751.928 330.864C745.93 324.865 742.925 316.239 742.925 304.985V280.677C742.925 269.423 745.917 260.796 751.928 254.797C757.926 248.798 766.55 245.792 777.801 245.792H843.045C854.296 245.792 862.92 248.798 868.918 254.797C874.915 260.796 877.921 269.423 877.921 280.677V311.729C877.921 315.629 879.004 318.663 881.184 320.843C883.35 323.023 886.396 324.107 890.296 324.107H897.038C900.937 324.107 903.97 323.023 906.15 320.843C908.316 318.676 909.413 315.629 909.413 311.729V280.677C909.413 269.423 912.405 260.796 918.416 254.797C924.414 248.798 933.038 245.792 944.289 245.792H1009.53C1020.78 245.792 1029.41 248.798 1035.41 254.797C1041.4 260.796 1044.41 269.423 1044.41 280.677V304.985C1044.41 316.239 1041.4 324.865 1035.41 330.864C1029.41 336.864 1020.78 339.87 1009.53 339.87H960.942V368.444C960.942 379.698 957.936 388.324 951.938 394.324C945.94 400.323 937.316 403.329 926.065 403.329H860.821C849.571 403.329 840.946 400.336 834.949 394.324C828.951 388.324 825.945 379.698 825.945 368.444V339.87H777.801Z" fill="#00BFFF"/>
<path d="M85.7201 446.381C85.7201 442.752 86.6813 439.975 88.6174 438.039C90.5535 436.102 93.3289 435.141 96.9574 435.141H145.413C149.041 435.141 151.817 436.102 153.753 438.039C155.689 439.975 156.65 442.752 156.65 446.381V508.513C156.65 512.142 155.689 514.918 153.753 516.855C151.817 518.792 149.041 519.753 145.413 519.753H136.829C133.201 519.753 130.398 518.792 128.435 516.855C126.459 514.918 125.47 512.142 125.47 508.513V481.808H116.887V508.513C116.887 512.142 115.925 514.918 113.989 516.855C112.053 518.792 109.237 519.753 105.527 519.753H96.9438C93.3154 519.753 90.5399 518.792 88.6039 516.855C86.6678 514.918 85.7065 512.142 85.7065 508.513V446.381H85.7201ZM116.9 472.721H125.484V448.06C125.484 446.855 125.159 445.907 124.523 445.216C123.873 444.539 122.952 444.187 121.747 444.187H120.664C119.54 444.187 118.633 444.526 117.943 445.216C117.252 445.907 116.914 446.841 116.914 448.06V472.721H116.9Z" fill="#00BFFF"/>
<path d="M173.438 519.739C169.729 519.739 166.913 518.777 164.977 516.841C163.041 514.904 162.079 512.128 162.079 508.499V446.367C162.079 442.737 163.041 439.961 164.977 438.025C166.913 436.088 169.729 435.127 173.438 435.127H222.016C225.644 435.127 228.393 436.075 230.288 437.97C232.184 439.866 233.131 442.629 233.131 446.245V460.749C233.131 464.297 232.184 467.032 230.288 468.969C228.393 470.905 225.631 471.867 222.016 471.867H206.067V476.092H221.894C225.523 476.092 228.298 477.054 230.234 478.99C232.17 480.927 233.131 483.743 233.131 487.454V508.485C233.131 512.115 232.17 514.891 230.234 516.827C228.298 518.764 225.523 519.725 221.894 519.725H213.189C209.56 519.725 206.785 518.764 204.849 516.827C202.913 514.891 201.951 512.115 201.951 508.485V481.428H193.246V508.499C193.246 512.128 192.285 514.904 190.349 516.841C188.413 518.777 185.637 519.739 182.009 519.739H173.438ZM198.215 466.68C199.338 466.68 200.245 466.342 200.936 465.651C201.613 464.974 201.965 464.066 201.965 462.929V447.707C201.965 446.583 201.626 445.676 200.936 444.985C200.245 444.308 199.338 443.956 198.215 443.956H193.259V466.68H198.215Z" fill="#00BFFF"/>
<path d="M238.574 490.609C238.574 486.899 239.319 484.082 240.808 482.145C242.297 480.209 244.409 479.247 247.158 479.247V475.496C244.423 475.496 242.297 474.535 240.808 472.598C239.319 470.662 238.574 467.885 238.574 464.256V446.367C238.574 442.737 239.535 439.961 241.472 438.025C243.408 436.088 246.183 435.127 249.811 435.127H291.863C293.556 435.127 294.869 435.506 295.79 436.278C296.71 437.05 297.184 438.147 297.184 439.596C297.184 441.045 296.724 442.182 295.79 442.981C294.869 443.794 293.556 444.186 291.863 444.186H269.754V472.463H291.863C293.556 472.463 294.869 472.869 295.79 473.668C296.71 474.48 297.184 475.604 297.184 477.054C297.184 478.503 296.724 479.627 295.79 480.439C294.869 481.252 293.556 481.644 291.863 481.644H269.754V510.652H291.863C293.556 510.652 294.869 511.031 295.79 511.803C296.71 512.575 297.184 513.672 297.184 515.121C297.184 516.57 296.724 517.694 295.79 518.506C294.869 519.319 293.556 519.712 291.863 519.712H249.811C246.183 519.712 243.408 518.75 241.472 516.814C239.535 514.877 238.574 512.101 238.574 508.472V490.609Z" fill="#00BFFF"/>
<path d="M345.26 439.609C345.26 438.16 345.721 437.05 346.655 436.291C347.576 435.533 348.889 435.14 350.581 435.14H411.479C413.253 435.14 414.607 435.519 415.527 436.291C416.448 437.063 416.922 438.16 416.922 439.609C416.922 441.058 416.462 442.196 415.527 442.995C414.607 443.807 413.253 444.2 411.479 444.2H396.614V508.499C396.614 512.128 395.652 514.904 393.716 516.841C391.78 518.777 389.005 519.739 385.376 519.739H376.793C373.164 519.739 370.362 518.777 368.398 516.841C366.422 514.904 365.433 512.128 365.433 508.499V444.2H350.568C348.875 444.2 347.562 443.794 346.641 442.995C345.734 442.182 345.26 441.058 345.26 439.609Z" fill="#00BFFF"/>
<path d="M421.877 446.38C421.877 442.751 422.838 439.975 424.774 438.038C426.711 436.102 429.486 435.14 433.114 435.14H441.698C445.408 435.14 448.224 436.102 450.16 438.038C452.096 439.975 453.057 442.751 453.057 446.38V472.734H461.641V446.38C461.641 442.751 462.629 439.975 464.606 438.038C466.583 436.102 469.385 435.14 473 435.14H481.584C485.212 435.14 487.988 436.102 489.924 438.038C491.86 439.975 492.821 442.751 492.821 446.38V508.512C492.821 512.142 491.86 514.918 489.924 516.854C487.988 518.791 485.212 519.752 481.584 519.752H473C469.372 519.752 466.569 518.791 464.606 516.854C462.629 514.918 461.641 512.142 461.641 508.512V481.807H453.057V508.512C453.057 512.142 452.096 514.918 450.16 516.854C448.224 518.791 445.408 519.752 441.698 519.752H433.114C429.486 519.752 426.711 518.791 424.774 516.854C422.838 514.918 421.877 512.142 421.877 508.512V446.38Z" fill="#00BFFF"/>
<path d="M497.763 490.609C497.763 486.899 498.507 484.082 499.997 482.145C501.486 480.209 503.598 479.247 506.346 479.247V475.496C503.611 475.496 501.486 474.535 499.997 472.598C498.507 470.662 497.763 467.885 497.763 464.256V446.367C497.763 442.737 498.724 439.961 500.66 438.025C502.596 436.088 505.372 435.127 509 435.127H551.052C552.744 435.127 554.057 435.506 554.978 436.278C555.899 437.05 556.373 438.147 556.373 439.596C556.373 441.045 555.912 442.182 554.978 442.981C554.044 443.794 552.744 444.186 551.052 444.186H528.943V472.463H551.052C552.744 472.463 554.057 472.869 554.978 473.668C555.899 474.48 556.373 475.604 556.373 477.054C556.373 478.503 555.912 479.627 554.978 480.439C554.044 481.252 552.744 481.644 551.052 481.644H528.943V510.652H551.052C552.744 510.652 554.057 511.031 554.978 511.803C555.899 512.575 556.373 513.672 556.373 515.121C556.373 516.57 555.912 517.694 554.978 518.506C554.044 519.319 552.744 519.712 551.052 519.712H509C505.372 519.712 502.596 518.75 500.66 516.814C498.724 514.877 497.763 512.101 497.763 508.472V490.609Z" fill="#00BFFF"/>
<path d="M573.161 519.739C569.451 519.739 566.635 518.777 564.699 516.841C562.763 514.904 561.802 512.128 561.802 508.499V446.367C561.802 442.737 562.763 439.961 564.699 438.025C566.635 436.088 569.451 435.127 573.161 435.127H621.738C625.367 435.127 628.115 436.075 630.01 437.97C631.906 439.866 632.854 442.629 632.854 446.245V460.749C632.854 464.297 631.906 467.032 630.01 468.969C628.115 470.905 625.353 471.867 621.738 471.867H605.776V476.092H621.603C625.231 476.092 628.007 477.054 629.943 478.99C631.879 480.927 632.84 483.743 632.84 487.454V508.485C632.84 512.115 631.879 514.891 629.943 516.827C628.007 518.764 625.231 519.725 621.603 519.725H612.897C609.269 519.725 606.493 518.764 604.557 516.827C602.621 514.891 601.66 512.115 601.66 508.485V481.428H592.954V508.499C592.954 512.128 591.993 514.904 590.057 516.841C588.121 518.777 585.346 519.739 581.717 519.739H573.161ZM597.923 466.68C599.047 466.68 599.954 466.342 600.645 465.651C601.322 464.974 601.674 464.066 601.674 462.929V447.707C601.674 446.583 601.335 445.676 600.645 444.985C599.954 444.308 599.047 443.956 597.923 443.956H592.968V466.68H597.923Z" fill="#00BFFF"/>
<path d="M638.283 490.609C638.283 486.899 639.027 484.082 640.517 482.145C642.006 480.209 644.118 479.247 646.866 479.247V475.496C644.132 475.496 642.006 474.535 640.517 472.598C639.027 470.662 638.283 467.885 638.283 464.256V446.367C638.283 442.737 639.244 439.961 641.18 438.025C643.116 436.088 645.892 435.127 649.52 435.127H691.572C693.264 435.127 694.577 435.506 695.498 436.278C696.419 437.05 696.893 438.147 696.893 439.596C696.893 441.045 696.432 442.182 695.498 442.981C694.577 443.794 693.264 444.186 691.572 444.186H669.463V472.463H691.572C693.264 472.463 694.577 472.869 695.498 473.668C696.419 474.48 696.893 475.604 696.893 477.054C696.893 478.503 696.432 479.627 695.498 480.439C694.577 481.252 693.264 481.644 691.572 481.644H669.463V510.652H691.572C693.264 510.652 694.577 511.031 695.498 511.803C696.419 512.575 696.893 513.672 696.893 515.121C696.893 516.57 696.432 517.694 695.498 518.506C694.577 519.319 693.264 519.712 691.572 519.712H649.52C645.892 519.712 643.116 518.75 641.18 516.814C639.244 514.877 638.283 512.101 638.283 508.472V490.609Z" fill="#00BFFF"/>
<path d="M88.8071 564.713C88.8071 559.309 90.2422 555.179 93.099 552.322C95.9557 549.464 100.085 548.029 105.487 548.029H133.161C138.563 548.029 142.692 549.464 145.549 552.322C148.405 555.179 149.84 559.309 149.84 564.713V582.724H164.462V564.713C164.462 559.309 165.898 555.179 168.754 552.322C171.611 549.464 175.74 548.029 181.142 548.029H208.938C214.34 548.029 218.469 549.464 221.326 552.322C224.182 555.179 225.618 559.309 225.618 564.713V615.957C225.618 621.36 224.182 625.491 221.326 628.348C218.469 631.206 214.34 632.641 208.938 632.641H181.142C175.74 632.641 171.611 631.206 168.754 628.348C165.898 625.491 164.462 621.36 164.462 615.957V597.458H149.84V615.957C149.84 621.36 148.405 625.491 145.549 628.348C142.692 631.206 138.563 632.641 133.161 632.641H105.487C100.085 632.641 95.9557 631.206 93.099 628.348C90.2422 625.491 88.8071 621.36 88.8071 615.957V564.713Z" fill="#00BFFF"/>
<path d="M231.642 564.713C231.642 559.309 233.077 555.179 235.934 552.322C238.791 549.464 242.92 548.029 248.322 548.029H275.996C281.398 548.029 285.527 549.464 288.384 552.322C291.241 555.179 292.676 559.309 292.676 564.713V611.976C292.676 613.831 293.204 615.28 294.246 616.323C295.289 617.365 296.737 617.893 298.592 617.893H301.489C303.344 617.893 304.766 617.365 305.781 616.323C306.783 615.28 307.298 613.831 307.298 611.976V564.713C307.298 559.309 308.746 555.179 311.644 552.322C314.541 549.464 318.657 548.029 323.964 548.029H351.759C357.161 548.029 361.291 549.464 364.147 552.322C367.004 555.179 368.439 559.309 368.439 564.713V615.469C368.439 621.035 366.964 625.288 364.026 628.226C361.088 631.165 356.836 632.641 351.272 632.641H248.81C243.245 632.641 239.007 631.179 236.056 628.226C233.118 625.288 231.642 621.035 231.642 615.469V564.713Z" fill="#00BFFF"/>
<path d="M374.708 564.713C374.708 559.309 376.143 555.179 379 552.322C381.856 549.464 385.986 548.029 391.388 548.029H459.299C464.62 548.029 468.681 549.302 471.497 551.834C474.313 554.366 475.722 558.023 475.722 562.776H486.228C486.228 558.023 487.622 554.38 490.398 551.834C493.173 549.288 497.221 548.029 502.542 548.029H570.209C575.611 548.029 579.741 549.464 582.598 552.322C585.454 555.179 586.889 559.309 586.889 564.713V615.957C586.889 621.36 585.454 625.491 582.598 628.348C579.741 631.206 575.611 632.641 570.209 632.641H542.536C537.134 632.641 533.005 631.206 530.148 628.348C527.291 625.491 525.856 621.36 525.856 615.957V568.694C525.856 566.839 525.328 565.39 524.286 564.347C523.243 563.304 521.781 562.776 519.94 562.776H517.286C515.512 562.776 514.104 563.304 513.062 564.347C512.019 565.39 511.491 566.852 511.491 568.694V615.957C511.491 621.36 510.056 625.491 507.199 628.348C504.343 631.206 500.213 632.641 494.811 632.641H467.016C461.695 632.641 457.593 631.206 454.696 628.348C451.798 625.491 450.35 621.36 450.35 615.957V568.694C450.35 566.839 449.849 565.39 448.833 564.347C447.831 563.304 446.396 562.776 444.541 562.776H441.644C439.789 562.776 438.341 563.304 437.298 564.347C436.256 565.39 435.728 566.852 435.728 568.694V615.957C435.728 621.36 434.293 625.491 431.436 628.348C428.579 631.206 424.45 632.641 419.048 632.641H391.374C385.972 632.641 381.843 631.206 378.986 628.348C376.129 625.491 374.694 621.36 374.694 615.957V564.713H374.708Z" fill="#00BFFF"/>
<path d="M594.133 564.713C594.133 559.309 595.568 555.179 598.424 552.322C601.281 549.464 605.411 548.029 610.813 548.029H714.25C719.652 548.029 723.781 549.464 726.638 552.322C729.494 555.179 730.93 559.309 730.93 564.713V615.957C730.93 621.36 729.494 625.491 726.638 628.348C723.781 631.206 719.652 632.641 714.25 632.641H686.454C681.052 632.641 676.923 631.206 674.066 628.348C671.21 625.491 669.774 621.36 669.774 615.957V597.458H655.152V615.957C655.152 621.36 653.717 625.491 650.861 628.348C648.004 631.206 643.875 632.641 638.473 632.641H610.799C605.397 632.641 601.268 631.206 598.411 628.348C595.554 625.491 594.119 621.36 594.119 615.957V564.713H594.133ZM655.152 582.724H669.774V568.708C669.774 566.852 669.273 565.403 668.258 564.361C667.256 563.318 665.821 562.79 663.966 562.79H661.069C659.214 562.79 657.765 563.318 656.723 564.361C655.68 565.403 655.152 566.866 655.152 568.708V582.724Z" fill="#00BFFF"/>
<path d="M738.051 564.713C738.051 559.309 739.486 555.179 742.343 552.322C745.2 549.464 749.329 548.029 754.731 548.029H827.597C832.999 548.029 837.156 549.464 840.107 552.322C843.045 555.179 844.521 559.309 844.521 564.713V612.097C844.521 613.953 845.022 615.388 846.037 616.39C847.039 617.392 848.474 617.907 850.329 617.907H853.226C855 617.907 856.381 617.406 857.396 616.39C858.398 615.388 858.913 613.953 858.913 612.097V564.713C858.913 559.309 860.361 555.179 863.259 552.322C866.156 549.464 870.272 548.029 875.579 548.029H903.375C908.777 548.029 912.906 549.464 915.763 552.322C918.619 555.179 920.054 559.309 920.054 564.713V615.957C920.054 621.36 918.619 625.491 915.763 628.348C912.906 631.206 908.777 632.641 903.375 632.641H830.386C824.984 632.641 820.814 631.206 817.876 628.348C814.938 625.491 813.463 621.36 813.463 615.957V568.572C813.463 566.717 812.962 565.295 811.946 564.279C810.945 563.277 809.55 562.763 807.776 562.763H804.879C803.024 562.763 801.603 563.264 800.587 564.279C799.585 565.282 799.071 566.717 799.071 568.572V615.957C799.071 621.36 797.636 625.491 794.779 628.348C791.922 631.206 787.793 632.641 782.391 632.641H754.718C749.316 632.641 745.186 631.206 742.329 628.348C739.473 625.491 738.038 621.36 738.038 615.957L738.051 564.713Z" fill="#00BFFF"/>
<path d="M935.611 632.641C933.038 632.641 931.034 631.991 929.626 630.705C928.218 629.418 927.514 627.603 927.514 625.261C927.514 622.836 928.218 621.008 929.626 619.762C931.034 618.516 933.025 617.893 935.611 617.893H988.412V602.78C988.412 600.925 987.911 599.476 986.896 598.433C985.894 597.39 984.459 596.862 982.604 596.862H944.059C938.657 596.862 934.527 595.427 931.671 592.569C928.814 589.712 927.379 585.582 927.379 580.178V564.713C927.379 559.309 928.814 555.179 931.671 552.322C934.527 549.464 938.657 548.029 944.059 548.029H1040.48C1043.06 548.029 1045.03 548.652 1046.4 549.898C1047.77 551.143 1048.46 552.985 1048.46 555.396C1048.46 557.806 1047.77 559.648 1046.4 560.894C1045.03 562.14 1043.06 562.763 1040.48 562.763H988.399V576.305C988.399 578.16 988.927 579.596 989.969 580.598C991.012 581.6 992.46 582.115 994.315 582.115H1032.86C1038.26 582.115 1042.39 583.55 1045.25 586.408C1048.11 589.265 1049.54 593.395 1049.54 598.799V615.957C1049.54 621.36 1048.11 625.491 1045.25 628.348C1042.39 631.206 1038.26 632.641 1032.86 632.641H935.611Z" fill="#00BFFF"/>
<path d="M90.0254 679.498C90.0254 674.501 91.3387 670.669 93.9517 668.014C96.5647 665.36 100.369 664.019 105.365 664.019H182.699C187.695 664.019 191.499 665.346 194.112 668.014C196.725 670.669 198.039 674.501 198.039 679.498V733.166C198.039 738.163 196.725 741.996 194.112 744.65C191.499 747.304 187.681 748.645 182.699 748.645H105.365C100.369 748.645 96.5647 747.318 93.9517 744.65C91.3387 741.996 90.0254 738.163 90.0254 733.166V679.498ZM137.994 731.352C137.994 732.882 138.44 734.087 139.32 734.981C140.201 735.875 141.419 736.308 142.949 736.308H145.129C146.659 736.308 147.864 735.861 148.757 734.981C149.637 734.101 150.084 732.882 150.084 731.352V681.313C150.084 679.782 149.637 678.577 148.757 677.683C147.864 676.803 146.659 676.356 145.129 676.356H142.949C141.419 676.356 140.214 676.803 139.32 677.683C138.427 678.564 137.994 679.782 137.994 681.313V731.352Z" fill="#00BFFF"/>
<path d="M204.564 678.4C204.564 673.728 205.796 670.167 208.247 667.702C210.698 665.251 214.231 664.019 218.821 664.019H274.29C278.961 664.019 282.603 665.264 285.229 667.77C287.842 670.262 289.155 673.81 289.155 678.4V731.581C289.155 733.111 289.562 734.276 290.36 735.089C291.159 735.901 292.337 736.294 293.867 736.294H295.925C297.374 736.294 298.524 735.888 299.364 735.089C300.203 734.29 300.636 733.111 300.636 731.581V678.4C300.636 673.728 301.868 670.167 304.319 667.702C306.77 665.251 310.303 664.019 314.893 664.019H334.348C338.938 664.019 342.458 665.251 344.922 667.702C347.373 670.167 348.605 673.728 348.605 678.4V734.235C348.605 738.907 347.373 742.469 344.922 744.934C342.458 747.398 338.938 748.617 334.348 748.617H278.879C274.209 748.617 270.567 747.371 267.94 744.866C265.327 742.374 264.014 738.826 264.014 734.235V681.055C264.014 679.524 263.608 678.36 262.809 677.547C261.996 676.748 260.832 676.342 259.302 676.342H257.244C255.714 676.342 254.55 676.748 253.738 677.547C252.925 678.36 252.533 679.524 252.533 681.055V734.235C252.533 738.907 251.301 742.469 248.85 744.934C246.386 747.398 242.825 748.617 238.154 748.617H218.834C214.245 748.617 210.711 747.385 208.261 744.934C205.796 742.483 204.578 738.907 204.578 734.235V678.4H204.564Z" fill="#00BFFF"/>
<path d="M411.317 678.4C411.317 673.728 412.549 670.167 414.999 667.702C417.45 665.251 420.984 664.019 425.573 664.019H477.414C481.841 664.019 485.226 665.061 487.568 667.16C489.91 669.259 491.074 672.32 491.074 676.342H499.658C499.658 672.401 500.822 669.354 503.165 667.215C505.507 665.075 508.878 664.005 513.319 664.005H564.916C569.505 664.005 573.025 665.237 575.489 667.689C577.94 670.153 579.172 673.715 579.172 678.387V734.222C579.172 738.894 577.94 742.456 575.489 744.92C573.025 747.385 569.505 748.604 564.916 748.604H545.46C540.871 748.604 537.337 747.371 534.886 744.92C532.422 742.469 531.204 738.894 531.204 734.222V681.312C531.204 679.782 530.757 678.577 529.877 677.683C528.983 676.802 527.778 676.356 526.249 676.356H524.312C522.783 676.356 521.578 676.802 520.684 677.683C519.79 678.563 519.357 679.782 519.357 681.312V734.249C519.357 738.921 518.125 742.483 515.675 744.947C513.211 747.412 509.65 748.631 504.979 748.631H485.645C481.056 748.631 477.522 747.398 475.072 744.947C472.607 742.496 471.389 738.921 471.389 734.249V681.312C471.389 679.782 470.942 678.577 470.062 677.683C469.169 676.802 467.923 676.356 466.312 676.356H464.254C462.724 676.356 461.519 676.802 460.626 677.683C459.732 678.563 459.299 679.782 459.299 681.312V734.249C459.299 738.921 458.067 742.483 455.616 744.947C453.152 747.412 449.591 748.631 444.92 748.631H425.573C420.984 748.631 417.45 747.398 414.999 744.947C412.535 742.496 411.317 738.921 411.317 734.249V678.4Z" fill="#00BFFF"/>
<path d="M600.306 712.243C595.717 712.243 592.183 711.01 589.732 708.559C587.268 706.108 586.05 702.573 586.05 697.983V678.4C586.05 673.728 587.282 670.167 589.732 667.702C592.183 665.251 595.717 664.019 600.306 664.019H619.64C624.311 664.019 627.871 665.251 630.336 667.702C632.786 670.167 634.018 673.728 634.018 678.4V699.675C634.018 701.206 634.465 702.411 635.345 703.305C636.225 704.199 637.443 704.632 638.973 704.632H641.031C642.642 704.632 643.888 704.185 644.782 703.305C645.662 702.424 646.108 701.206 646.108 699.675V678.4C646.108 673.728 647.34 670.167 649.791 667.702C652.241 665.251 655.775 664.019 660.365 664.019H679.698C684.369 664.019 687.93 665.251 690.394 667.702C692.845 670.167 694.077 673.728 694.077 678.4V697.983C694.077 702.573 692.845 706.094 690.394 708.559C687.93 711.024 684.369 712.243 679.698 712.243H663.993V734.235C663.993 738.907 662.761 742.469 660.311 744.934C657.847 747.398 654.286 748.617 649.615 748.617H630.281C625.692 748.617 622.145 747.385 619.653 744.934C617.149 742.483 615.903 738.907 615.903 734.235V712.243H600.306Z" fill="#00BFFF"/>
<path d="M107.924 899.628C103.686 899.628 100.41 898.571 98.1219 896.445C95.8202 894.319 94.683 891.258 94.683 887.25C94.683 883.241 95.8338 880.181 98.1219 878.055C100.423 875.929 103.686 874.872 107.924 874.872H200.692V858.445C200.692 855.385 199.84 853.001 198.134 851.282C196.428 849.575 194.045 848.722 190.972 848.722H122.059C113.218 848.722 106.448 846.366 101.737 841.653C97.0252 836.94 94.6694 830.169 94.6694 821.326V803.301C94.6694 794.458 97.0252 787.687 101.737 782.974C106.448 778.261 113.218 775.905 122.059 775.905H293.447C297.685 775.905 300.962 776.961 303.25 779.088C305.551 781.214 306.688 784.274 306.688 788.283C306.688 792.291 305.538 795.352 303.25 797.478C300.948 799.604 297.685 800.66 293.447 800.66H200.692V814.27C200.692 817.331 201.545 819.728 203.251 821.434C204.957 823.141 207.34 823.994 210.413 823.994H279.326C288.167 823.994 294.937 826.35 299.648 831.063C304.36 835.776 306.716 842.547 306.716 851.39V872.245C306.716 881.088 304.36 887.859 299.648 892.572C294.937 897.285 288.167 899.641 279.326 899.641L107.924 899.628Z" fill="#00BFFF"/>
<path d="M317.668 792.345C317.668 787.037 319.077 782.974 321.906 780.157C324.736 777.327 328.797 775.919 334.091 775.919H393.987C396.573 775.919 398.523 776.474 399.822 777.598C401.122 778.722 401.772 780.333 401.772 782.46C401.772 784.586 401.122 786.238 399.822 787.403C398.523 788.581 396.587 789.163 393.987 789.163H362.536V886.37H393.987C396.573 886.37 398.523 886.966 399.822 888.144C401.122 889.322 401.772 890.92 401.772 892.911C401.772 895.037 401.122 896.689 399.822 897.854C398.523 899.032 396.587 899.628 393.987 899.628H334.091C328.784 899.628 324.722 898.219 321.906 895.389C319.077 892.559 317.668 888.496 317.668 883.201V792.345Z" fill="#00BFFF"/>
<path d="M427.036 899.628C421.728 899.628 417.667 898.219 414.851 895.389C412.035 892.558 410.613 888.496 410.613 883.201V792.359C410.613 787.05 412.021 782.988 414.851 780.171C417.68 777.341 421.742 775.932 427.036 775.932H496.653C501.838 775.932 505.805 777.314 508.58 780.09C511.342 782.852 512.737 786.834 512.737 792.02V813.404C512.737 818.712 511.356 822.748 508.58 825.511C505.805 828.273 501.838 829.668 496.653 829.668H473.677V835.857H496.301C501.608 835.857 505.67 837.265 508.486 840.096C511.315 842.926 512.723 846.989 512.723 852.284V883.214C512.723 888.523 511.315 892.586 508.486 895.402C505.656 898.233 501.594 899.641 496.301 899.641H484.292C478.984 899.641 474.923 898.233 472.107 895.402C469.277 892.572 467.869 888.509 467.869 883.214V843.63H455.494V883.214C455.494 888.523 454.086 892.586 451.257 895.402C448.427 898.233 444.365 899.641 439.072 899.641H427.036V899.628ZM462.372 822.044C464.132 822.044 465.486 821.543 466.434 820.541C467.382 819.538 467.842 818.211 467.842 816.559V794.119C467.842 792.467 467.368 791.14 466.434 790.138C465.486 789.136 464.132 788.635 462.372 788.635H455.481V822.044H462.372Z" fill="#00BFFF"/>
<path d="M521.74 858.269C521.74 852.609 522.945 848.262 525.369 845.188C527.779 842.127 531.231 840.597 535.699 840.597V834.76C531.217 834.76 527.779 833.257 525.369 830.25C522.959 827.244 521.74 822.856 521.74 817.087V793.578C521.74 787.809 523.27 783.421 526.33 780.415C529.39 777.408 533.749 775.905 539.409 775.905H612.383C615.091 775.905 617.176 776.528 618.652 777.76C620.127 778.993 620.858 780.794 620.858 783.15C620.858 785.385 620.127 787.159 618.652 788.459C617.176 789.759 615.091 790.409 612.383 790.409H573.689V829.817H612.383C615.091 829.817 617.176 830.44 618.652 831.672C620.127 832.905 620.858 834.706 620.858 837.062C620.858 839.419 620.127 841.247 618.652 842.547C617.176 843.847 615.091 844.497 612.383 844.497H573.689V885.151H612.383C615.091 885.151 617.176 885.774 618.652 887.006C620.127 888.239 620.858 890.04 620.858 892.396C620.858 894.63 620.127 896.405 618.652 897.705C617.176 899.005 615.091 899.655 612.383 899.655H539.409C533.749 899.655 529.39 898.152 526.33 895.145C523.27 892.139 521.74 887.751 521.74 881.982V858.269Z" fill="#00BFFF"/>
<path d="M629.347 858.269C629.347 852.609 630.552 848.262 632.976 845.188C635.386 842.127 638.838 840.597 643.306 840.597V834.76C638.824 834.76 635.386 833.257 632.976 830.25C630.566 827.244 629.347 822.856 629.347 817.087V793.578C629.347 787.809 630.877 783.421 633.937 780.415C636.997 777.408 641.356 775.905 647.015 775.905H719.99C722.698 775.905 724.783 776.528 726.258 777.76C727.734 778.993 728.465 780.794 728.465 783.15C728.465 785.385 727.734 787.159 726.258 788.459C724.783 789.759 722.698 790.409 719.99 790.409H681.296V829.817H719.99C722.698 829.817 724.783 830.44 726.258 831.672C727.734 832.905 728.465 834.706 728.465 837.062C728.465 839.419 727.734 841.247 726.258 842.547C724.783 843.847 722.698 844.497 719.99 844.497H681.296V885.151H719.99C722.698 885.151 724.783 885.774 726.258 887.006C727.734 888.239 728.465 890.04 728.465 892.396C728.465 894.63 727.734 896.405 726.258 897.705C724.783 899.005 722.698 899.655 719.99 899.655H647.015C641.356 899.655 636.997 898.152 633.937 895.145C630.877 892.139 629.347 887.751 629.347 881.982V858.269Z" fill="#00BFFF"/>
<path d="M738.89 803.301C738.89 794.458 741.246 787.687 745.958 782.974C750.669 778.261 757.439 775.905 766.28 775.905H895.265C904.105 775.905 910.875 778.261 915.586 782.974C920.298 787.687 922.654 794.458 922.654 803.301V865.162C922.654 868.223 923.507 870.62 925.213 872.326C926.919 874.033 929.301 874.886 932.375 874.886H937.682C940.742 874.886 943.125 874.033 944.844 872.326C946.55 870.62 947.403 868.237 947.403 865.162V803.301C947.403 794.458 949.759 787.687 954.47 782.974C959.182 778.261 965.951 775.905 974.792 775.905H1026.04C1034.88 775.905 1041.65 778.261 1046.36 782.974C1051.07 787.687 1053.43 794.458 1053.43 803.301V872.231C1053.43 881.075 1051.07 887.846 1046.36 892.558C1041.65 897.271 1034.88 899.628 1026.04 899.628H897.052C888.211 899.628 881.441 897.271 876.73 892.558C872.018 887.846 869.663 881.075 869.663 872.231V810.37C869.663 807.31 868.81 804.926 867.104 803.206C865.398 801.5 863.015 800.647 859.942 800.647H854.634C851.575 800.647 849.178 801.5 847.472 803.206C845.766 804.913 844.913 807.296 844.913 810.37V872.231C844.913 881.075 842.558 887.846 837.846 892.558C833.135 897.271 826.365 899.628 817.524 899.628H766.28C757.439 899.628 750.669 897.271 745.958 892.558C741.246 887.846 738.89 881.075 738.89 872.231V803.301Z" fill="#00BFFF"/>
</g>
<defs>
<filter id="filter0_d" x="0.87915" y="0.5" width="1177.74" height="1396.11" filterUnits="userSpaceOnUse" color-interpolation-filters="sRGB">
<feFlood flood-opacity="0" result="BackgroundImageFix"/>
<feColorMatrix in="SourceAlpha" type="matrix" values="0 0 0 0 0 0 0 0 0 0 0 0 0 0 0 0 0 0 127 0"/>
<feOffset dx="10" dy="10"/>
<feGaussianBlur stdDeviation="17"/>
<feColorMatrix type="matrix" values="0 0 0 0 0 0 0 0 0 0.74902 0 0 0 0 1 0 0 0 0.45 0"/>
<feBlend mode="normal" in2="BackgroundImageFix" result="effect1_dropShadow"/>
<feBlend mode="normal" in="SourceGraphic" in2="effect1_dropShadow" result="shape"/>
</filter>
</defs>
</svg>
